<?xml version="1.0" encoding="utf-8"?>
<!-- Generator: Adobe Illustrator 25.2.0, SVG Export Plug-In . SVG Version: 6.00 Build 0)  -->
<svg version="1.1" id="Layer_1" xmlns="http://www.w3.org/2000/svg" xmlns:xlink="http://www.w3.org/1999/xlink" x="0px" y="0px"
	 viewBox="0 0 51 45" style="enable-background:new 0 0 51 45;" xml:space="preserve">
<style type="text/css">
	.st0{fill:url(#SVGID_1_);}
	.st1{fill:url(#SVGID_2_);}
	.st2{fill:url(#SVGID_3_);}
	.st3{fill:url(#SVGID_4_);}
	.st4{fill:url(#SVGID_5_);}
</style>
<g>
	
		<linearGradient id="SVGID_1_" gradientUnits="userSpaceOnUse" x1="9.3938" y1="21.4823" x2="51.7537" y2="21.4823" gradientTransform="matrix(1 0 0 -1 0 46)">
		<stop  offset="0" style="stop-color:#3922AA"/>
		<stop  offset="1" style="stop-color:#7F3DFF"/>
	</linearGradient>
	<path class="st0" d="M50.7,22.8v-3.9l-6.9,1.7l-7.5-1.4c-0.8-0.2-1.5-0.5-1.8-1l-3.9-7.3c-0.6-1.2-3.4-1.5-4.7-0.5l-7.5,6.3
		c-0.5,0.4-1.3,0.7-2.2,0.7L3,17.2c0,0,0,0-0.1,0l-2.7-2.7v4.1l0,0c0,0.3,0.1,0.7,0.5,1l7.9,6.1c0.5,0.4,0.7,0.9,0.4,1.4l-2.4,4.1
		L4.8,31v3.8c0,0.1,0,0.3,0,0.4v0.1h0c0.3,0.9,1.8,1.5,3.5,1.2l12.5-2.4c0.8-0.2,1.8-0.1,2.4,0.2l10.6,4.6c1.8,0.8,4.3,0,4.2-1.3
		l-0.2-7.7c0-0.5,0.4-1,1.1-1.3l10.7-4.4C50.5,23.9,50.8,23.4,50.7,22.8z"/>
	
		<linearGradient id="SVGID_2_" gradientUnits="userSpaceOnUse" x1="37.4624" y1="43.8081" x2="14.1863" y2="15.2795" gradientTransform="matrix(1 0 0 -1 0 46)">
		<stop  offset="0" style="stop-color:#8E52FF"/>
		<stop  offset="1" style="stop-color:#D6BFFF"/>
	</linearGradient>
	<path class="st1" d="M36.3,15.2l12.6,2.3c2.1,0.4,2.6,2,0.8,2.7l-10.7,4.4c-0.7,0.3-1.1,0.8-1.1,1.3l0.2,7.6c0,1.3-2.5,2-4.2,1.3
		l-10.6-4.6c-0.7-0.3-1.6-0.4-2.4-0.2L8.3,32.4c-2.1,0.4-4.1-0.8-3.4-2l4.2-7.3c0.3-0.5,0.1-1-0.4-1.4l-7.9-6.1
		c-1.3-1,0-2.5,2.1-2.5l13.1,0.1c0.9,0,1.7-0.2,2.2-0.7l7.5-6.2c1.3-1,4-0.8,4.7,0.5l3.9,7.3C34.8,14.7,35.4,15,36.3,15.2z"/>
	
		<radialGradient id="SVGID_3_" cx="-352.098" cy="67.9785" r="1" gradientTransform="matrix(3.5943 0 0 -5.809 1270.3281 413.5092)" gradientUnits="userSpaceOnUse">
		<stop  offset="0" style="stop-color:#FFFFFF"/>
		<stop  offset="1" style="stop-color:#803EFF;stop-opacity:0"/>
	</radialGradient>
	<path class="st2" d="M9.1,22.6c0.3-0.5,0.1-1-0.4-1.4L0.9,15c-0.2-0.2-0.3-0.3-0.4-0.5c-0.2,0.5-0.2,1,0.4,1.4l7.9,6.1
		C8.9,22.3,9,22.4,9.1,22.6z"/>
	
		<radialGradient id="SVGID_4_" cx="-390.2899" cy="67.4764" r="1" gradientTransform="matrix(5.2342 0 0 -5.2809 2087.0942 378.8186)" gradientUnits="userSpaceOnUse">
		<stop  offset="0" style="stop-color:#FFFFFF"/>
		<stop  offset="1" style="stop-color:#803EFF;stop-opacity:0"/>
	</radialGradient>
	<path class="st3" d="M49.6,19.6L38.9,24c-0.7,0.3-1.1,0.8-1.1,1.3l0,0.8c0-0.5,0.5-0.9,1.1-1.2l10.7-4.4c1-0.4,1.3-1.1,1-1.7
		C50.4,19.1,50.1,19.4,49.6,19.6z"/>
	
		<radialGradient id="SVGID_5_" cx="-442.2886" cy="86.2968" r="1" gradientTransform="matrix(13.4248 2.7998 0.9351 -4.4835 5878.2539 1654.8655)" gradientUnits="userSpaceOnUse">
		<stop  offset="0" style="stop-color:#FFFFFF"/>
		<stop  offset="1" style="stop-color:#803EFF;stop-opacity:0"/>
	</radialGradient>
	<path class="st4" d="M33.8,34.2l-10.6-4.6c-0.7-0.3-1.6-0.4-2.4-0.2L8.3,31.8c-1.5,0.3-3-0.2-3.4-1c-0.7,1.2,1.3,2.3,3.4,2
		l12.5-2.4c0.8-0.2,1.8-0.1,2.4,0.2l10.6,4.6c1.8,0.8,4.3,0,4.2-1.3l0-0.8C37.9,34.3,35.5,35,33.8,34.2z"/>
</g>
</svg>
