<?xml version="1.0" encoding="utf-8"?>
<!-- Generator: Adobe Illustrator 25.2.0, SVG Export Plug-In . SVG Version: 6.00 Build 0)  -->
<svg version="1.1" id="Layer_1" xmlns="http://www.w3.org/2000/svg" xmlns:xlink="http://www.w3.org/1999/xlink" x="0px" y="0px"
	 viewBox="0 0 51 45" style="enable-background:new 0 0 51 45;" xml:space="preserve">
<style type="text/css">
	.st0{fill:url(#SVGID_1_);}
	.st1{fill:url(#SVGID_2_);}
	.st2{fill:url(#SVGID_3_);}
	.st3{fill:url(#SVGID_4_);}
	.st4{fill:url(#SVGID_5_);}
	.st5{fill:url(#SVGID_6_);}
	.st6{fill:url(#SVGID_7_);}
</style>
<g>
	
		<linearGradient id="SVGID_1_" gradientUnits="userSpaceOnUse" x1="35.043" y1="36.4022" x2="40.2185" y2="27.4387" gradientTransform="matrix(1 0 0 -1 0 46)">
		<stop  offset="0" style="stop-color:#341F9C"/>
		<stop  offset="1" style="stop-color:#5B2ECC"/>
	</linearGradient>
	<path class="st0" d="M41.1,18.1l-1.2-0.7l2.1-1.2c0.6-0.4,0.6-1,0-1.4l-5.6-3.2c-0.6-0.4-1.7-0.4-2.4,0l-2.1,1.2l-1.2-0.7l2.1-1.2
		c1.3-0.7,3.5-0.7,4.8,0l5.6,3.2c1.3,0.7,1.3,2,0,2.8L41.1,18.1z"/>
	
		<linearGradient id="SVGID_2_" gradientUnits="userSpaceOnUse" x1="35.043" y1="36.8952" x2="40.2185" y2="27.9317" gradientTransform="matrix(1 0 0 -1 0 46)">
		<stop  offset="0" style="stop-color:#5C30D5"/>
		<stop  offset="1" style="stop-color:#7F3DFF"/>
	</linearGradient>
	<path class="st1" d="M41.1,17.6l-1.2-0.7l2.1-1.2c0.6-0.4,0.6-1,0-1.4l-5.6-3.2c-0.6-0.4-1.7-0.4-2.4,0l-2.1,1.2l-1.2-0.7l2.1-1.2
		c1.3-0.7,3.5-0.7,4.8,0l5.6,3.2c1.3,0.7,1.3,2,0,2.8L41.1,17.6z"/>
	
		<linearGradient id="SVGID_3_" gradientUnits="userSpaceOnUse" x1="31.0457" y1="36.4463" x2="31.0457" y2="13.7492" gradientTransform="matrix(1 0 0 -1 0 46)">
		<stop  offset="0" style="stop-color:#6A74E0"/>
		<stop  offset="1" style="stop-color:#B3BBFF"/>
	</linearGradient>
	<path class="st2" d="M47.3,24.5L21.7,9.7c-0.4-0.2-1-0.2-1.4,0l-5.8,3.4l-3.1-1.5v3.5c0,0.1,0,0.2,0.1,0.4L23,25.4
		c0,0,0.1,0.1,0.3,0.1l17.2,6.6c0.4,0.1,0.9,0.1,1.3,0l8.6-5c0.2-0.1,0.3-0.2,0.3-0.4v-3.4L47.3,24.5z"/>
	
		<linearGradient id="SVGID_4_" gradientUnits="userSpaceOnUse" x1="20.2514" y1="39.9618" x2="41.3415" y2="17.7144" gradientTransform="matrix(1 0 0 -1 0 46)">
		<stop  offset="0" style="stop-color:#7583FF"/>
		<stop  offset="1" style="stop-color:#DBDFFF"/>
	</linearGradient>
	<path class="st3" d="M20.3,6.3l-8.6,5c-0.3,0.2-0.4,0.5-0.1,0.7l11.5,9.9c0,0,0.1,0.1,0.3,0.1l17.2,6.6c0.4,0.1,0.9,0.1,1.3,0
		l8.6-5c0.4-0.2,0.4-0.6,0-0.8L21.7,6.3C21.3,6.1,20.7,6.1,20.3,6.3z"/>
	
		<linearGradient id="SVGID_5_" gradientUnits="userSpaceOnUse" x1="29.9192" y1="7.6095" x2="0.652" y2="43.5283" gradientTransform="matrix(1 0 0 -1 0 46)">
		<stop  offset="0" style="stop-color:#201166"/>
		<stop  offset="1" style="stop-color:#4D20A6"/>
	</linearGradient>
	<path class="st4" d="M34.3,30.7l-11.5-4.4c-0.1,0-0.2-0.1-0.3-0.1c-0.1,0-0.2-0.1-0.3-0.2L11,16.2l-7.3,4.2l-3.5-1v3.4
		c0,0.2,0.1,0.5,0.5,0.7l26.4,15.2c0.6,0.3,1.6,0.3,2.3,0l10.3-5.9v-3.5L34.3,30.7z"/>
	
		<linearGradient id="SVGID_6_" gradientUnits="userSpaceOnUse" x1="28.6535" y1="9.6714" x2="13.0287" y2="31.083" gradientTransform="matrix(1 0 0 -1 0 46)">
		<stop  offset="0" style="stop-color:#572DCE"/>
		<stop  offset="1" style="stop-color:#7F3DFF"/>
	</linearGradient>
	<path class="st5" d="M39.6,29.3l-10.3,5.9c-0.6,0.3-1.6,0.3-2.3,0L0.7,20c-0.6-0.3-0.6-0.9,0-1.3L11,12.7l11.2,9.7
		c0.1,0,0.2,0.1,0.3,0.2c0.1,0,0.2,0.1,0.3,0.1L39.6,29.3z"/>
	
		<linearGradient id="SVGID_7_" gradientUnits="userSpaceOnUse" x1="22.6983" y1="22.7192" x2="24.0799" y2="25.1122" gradientTransform="matrix(1 0 0 -1 0 46)">
		<stop  offset="0" style="stop-color:#E89018"/>
		<stop  offset="0.2615" style="stop-color:#EEA632"/>
		<stop  offset="1" style="stop-color:#FFE278"/>
	</linearGradient>
	<path class="st6" d="M23.2,23.7l-2.6-1.5c-0.3-0.2-0.3-0.6,0.1-0.8l1.5-0.8c0.4-0.2,1.1-0.3,1.4,0l2.6,1.5c0.3,0.2,0.3,0.6-0.1,0.8
		l-1.5,0.8C24.2,23.9,23.6,23.9,23.2,23.7z"/>
</g>
</svg>
