<svg width="51" height="45" viewBox="0 0 51 45" fill="none" xmlns="http://www.w3.org/2000/svg">
<path d="M20.1844 0.0766602L39.7932 3.10816L45.012 14.4283L30.6987 22.6786L11.0899 19.6471L5.87109 8.36532L20.1844 0.0766602Z" fill="url(#paint0_linear)"/>
<path d="M50.8448 22.5251L45.012 14.3899L30.6987 22.6786L32.2337 33.2696L50.8448 22.5251Z" fill="url(#paint1_linear)"/>
<path d="M11.0897 19.6475L6.86865 29.3559L32.2335 33.27L30.6985 22.679L11.0897 19.6475Z" fill="url(#paint2_linear)"/>
<path d="M5.87085 8.36548L11.0896 19.6473L6.86856 29.3557L0.0380859 14.6971L5.87085 8.36548Z" fill="url(#paint3_linear)"/>
<path d="M39.7935 3.1084L44.0145 7.8667L50.845 22.5254L45.0122 14.3902L39.7935 3.1084Z" fill="url(#paint4_linear)"/>
<path d="M50.8446 22.5254L25.4414 44.0145L32.2335 33.2699L50.8446 22.5254Z" fill="url(#paint5_linear)"/>
<path d="M6.86865 29.3557L25.4414 44.0144L32.2335 33.2698L6.86865 29.3557Z" fill="url(#paint6_linear)"/>
<path d="M45.0119 14.4282L25.4414 11.3967L30.6986 22.6785L45.0119 14.4282Z" fill="url(#paint7_linear)"/>
<path d="M39.7931 3.1084L25.4414 11.3971L45.0119 14.4286L39.7931 3.1084Z" fill="url(#paint8_linear)"/>
<path d="M20.1846 0.0766602L25.4417 11.3968L39.7934 3.10816L20.1846 0.0766602Z" fill="url(#paint9_linear)"/>
<path d="M30.6987 22.6785L25.4415 11.3967L11.0898 19.647L30.6987 22.6785Z" fill="url(#paint10_linear)"/>
<path d="M5.87109 8.36548L25.4415 11.397L11.0899 19.6473L5.87109 8.36548Z" fill="url(#paint11_linear)"/>
<path d="M20.1844 0.0766602L25.4415 11.3968L5.87109 8.36532L20.1844 0.0766602Z" fill="url(#paint12_linear)"/>
<path d="M32.2335 33.2698L20.2993 25.5951L30.6985 22.6787L32.2335 33.2698Z" fill="url(#paint13_linear)"/>
<path d="M11.0898 19.6475L20.2995 25.5953L30.6987 22.679L11.0898 19.6475Z" fill="url(#paint14_linear)"/>
<path d="M20.2996 25.5953L6.83057 29.3559C6.83057 29.3559 11.0133 19.609 11.09 19.6858C11.1668 19.6858 20.2996 25.5953 20.2996 25.5953Z" fill="url(#paint15_linear)"/>
<path d="M32.2335 33.2697L20.2994 25.595L6.86865 29.3556L32.2335 33.2697Z" fill="url(#paint16_linear)"/>
<path d="M6.29346 17.4985L6.86906 29.3559L11.0901 19.6474L6.29346 17.4985Z" fill="url(#paint17_linear)"/>
<path d="M5.87109 8.36548L11.0899 19.6473L6.2932 17.4984L5.87109 8.36548Z" fill="url(#paint18_linear)"/>
<path d="M0.0380859 14.6971L5.87085 8.36548L6.29295 17.4984L0.0380859 14.6971Z" fill="url(#paint19_linear)"/>
<path d="M6.86856 29.3557L0.0380859 14.697L6.29295 17.4983L6.86856 29.3557Z" fill="url(#paint20_linear)"/>
<path d="M45.0119 14.3899L50.8447 22.5251L39.4478 22.6018L45.0119 14.3899Z" fill="url(#paint21_linear)"/>
<path d="M30.6987 22.6786L45.012 14.3899L39.4479 22.6018L30.6987 22.6786Z" fill="url(#paint22_linear)"/>
<path d="M32.2337 33.2699L39.4479 22.6021L30.6987 22.6788L32.2337 33.2699Z" fill="url(#paint23_linear)"/>
<path d="M50.845 22.5254L39.4481 22.6021L32.2339 33.2699L50.845 22.5254Z" fill="url(#paint24_linear)"/>
<path d="M39.7935 3.1084L44.0145 7.8667L44.5901 11.5506L39.7935 3.1084Z" fill="url(#paint25_linear)"/>
<path d="M45.0122 14.3902L44.5901 11.5506L39.7935 3.1084L45.0122 14.3902Z" fill="url(#paint26_linear)"/>
<path d="M44.0142 7.8667L50.8446 22.5253L44.5898 11.5505L44.0142 7.8667Z" fill="url(#paint27_linear)"/>
<path d="M45.012 14.3899L44.5898 11.5503L50.8447 22.5251L45.012 14.3899Z" fill="url(#paint28_linear)"/>
<path d="M25.4415 44.0144L24.1752 32.0035L13.8911 30.4302L25.4415 44.0144Z" fill="url(#paint29_linear)"/>
<path d="M25.4414 44.0144L38.4884 29.6627L45.0119 25.9021L25.4414 44.0144Z" fill="url(#paint30_linear)"/>
<path d="M5.87113 8.36548L0.0767469 14.6971V14.6587L3.49198 21.988L4.3362 23.83L5.18041 25.6719C5.44903 26.2859 5.71764 26.8998 6.02463 27.5138C6.29324 28.1278 6.56186 28.7418 6.83047 29.3557C6.52348 28.7418 6.25487 28.1278 5.94788 27.5522C5.64089 26.9382 5.37228 26.3242 5.06529 25.7103L4.22108 23.8683L3.37686 22.0264L0 14.6971V14.6587L0.0383734 14.6203L5.87113 8.36548Z" fill="white"/>
<path d="M30.6987 22.6788L11.0898 19.7241L11.1282 19.5706L30.6987 22.6788Z" fill="#E4D1FF"/>
<path d="M32.2335 33.2698L19.5319 31.3511L6.83032 29.394H6.75357L6.79194 29.3173L11.0514 19.6088V19.6856L5.79423 8.36541L5.75586 8.32703L5.83261 8.28866L20.1459 0H20.1843H20.2226L30.0079 1.53494L39.7931 3.10825L29.9695 1.61168L20.1843 0.11512H20.2226L5.90935 8.40378V8.32703L11.1665 19.6088V19.6472V19.6856L6.90706 29.3557L6.86869 29.2789L19.5703 31.2743L32.2335 33.2698Z" fill="white"/>
<path d="M39.7935 3.1084L41.0982 5.90966L42.4412 8.74929L43.7459 11.5506L44.3983 12.9704L45.0506 14.3902L47.9286 18.4578L49.3868 20.4916L50.845 22.5254L49.3484 20.5299L47.8903 18.4961L45.0122 14.4286H44.9739L44.3215 13.0087L43.6692 11.5889L42.3645 8.74929L41.0598 5.94803L39.7935 3.1084Z" fill="#D1B0FF"/>
<path d="M32.2338 33.2696C32.2721 33.2312 32.2721 33.1545 32.2721 33.1161C32.2721 33.0777 32.2721 33.001 32.2721 32.9626C32.2721 32.8475 32.2721 32.7323 32.2721 32.6172C32.2721 32.387 32.2338 32.1567 32.1954 31.9649C32.157 31.5044 32.0803 31.0823 32.0035 30.6218C31.8884 29.7392 31.7349 28.8566 31.5814 27.974C31.2744 26.2089 30.9674 24.4437 30.6221 22.7169V22.6785H30.6604C31.85 21.9878 33.0396 21.2971 34.2292 20.6063L37.7979 18.5342L41.3666 16.462L44.9737 14.4282L41.4434 16.5004L37.8746 18.5726L34.3059 20.6447C33.1163 21.3354 31.9268 22.0262 30.7372 22.7169V22.6785C31.0825 24.4437 31.3895 26.2089 31.6582 27.974C31.8116 28.8566 31.9268 29.7392 32.0803 30.6218C32.157 31.0823 32.1954 31.5044 32.2338 31.9649C32.2721 32.1951 32.2721 32.4254 32.2721 32.6172C32.2721 32.7323 32.2721 32.8475 32.2721 32.9626C32.2721 33.001 32.2721 33.0777 32.2721 33.1161C32.2721 33.1545 32.2721 33.2312 32.2338 33.2696Z" fill="#D1B0FF"/>
<path d="M50.845 22.5254C50.845 22.5254 50.538 22.6789 50.0392 22.9859C49.5403 23.2929 48.8112 23.715 47.9286 24.2138C46.2018 25.2115 43.861 26.5546 41.5586 27.936C39.2179 29.2791 36.9154 30.6222 35.1503 31.6199C34.2677 32.1187 33.5386 32.5409 33.0397 32.8095C32.5409 33.1165 32.2339 33.2699 32.2339 33.2699C32.2339 33.2699 32.5409 33.1165 33.0397 32.8095C33.5386 32.5025 34.2677 32.0804 35.1503 31.5815C36.8771 30.5838 39.2178 29.2407 41.5203 27.8593C43.861 26.5162 46.1634 25.1732 47.9286 24.1754C48.8112 23.6766 49.5403 23.2545 50.0392 22.9859C50.538 22.7173 50.845 22.5254 50.845 22.5254Z" fill="#D1B0FF"/>
<defs>
<linearGradient id="paint0_linear" x1="5.85997" y1="11.3792" x2="45.0235" y2="11.3792" gradientUnits="userSpaceOnUse">
<stop stop-color="#6A29FF"/>
<stop offset="0.3261" stop-color="#A056FF"/>
<stop offset="0.6248" stop-color="#CA79FF"/>
<stop offset="0.8583" stop-color="#E38EFF"/>
<stop offset="0.998" stop-color="#ED96FF"/>
</linearGradient>
<linearGradient id="paint1_linear" x1="47.0156" y1="14.1899" x2="31.941" y2="34.4742" gradientUnits="userSpaceOnUse">
<stop stop-color="#6A29FF"/>
<stop offset="0.3261" stop-color="#A056FF"/>
<stop offset="0.6248" stop-color="#CA79FF"/>
<stop offset="0.8583" stop-color="#E38EFF"/>
<stop offset="0.998" stop-color="#ED96FF"/>
</linearGradient>
<linearGradient id="paint2_linear" x1="31.2657" y1="24.2135" x2="6.65871" y2="29.9773" gradientUnits="userSpaceOnUse">
<stop stop-color="#6A29FF"/>
<stop offset="0.3261" stop-color="#A056FF"/>
<stop offset="0.6248" stop-color="#CA79FF"/>
<stop offset="0.8583" stop-color="#E38EFF"/>
<stop offset="0.998" stop-color="#ED96FF"/>
</linearGradient>
<linearGradient id="paint3_linear" x1="20.5812" y1="24.7934" x2="-1.14401" y2="15.7043" gradientUnits="userSpaceOnUse">
<stop stop-color="#6A29FF"/>
<stop offset="0.3261" stop-color="#A056FF"/>
<stop offset="0.6248" stop-color="#CA79FF"/>
<stop offset="0.8583" stop-color="#E38EFF"/>
<stop offset="0.998" stop-color="#ED96FF"/>
</linearGradient>
<linearGradient id="paint4_linear" x1="39.7773" y1="12.8181" x2="50.8286" y2="12.8181" gradientUnits="userSpaceOnUse">
<stop stop-color="#6A29FF"/>
<stop offset="0.3261" stop-color="#A056FF"/>
<stop offset="0.6248" stop-color="#CA79FF"/>
<stop offset="0.8583" stop-color="#E38EFF"/>
<stop offset="0.998" stop-color="#ED96FF"/>
</linearGradient>
<linearGradient id="paint5_linear" x1="37.8996" y1="34.3182" x2="35.4028" y2="45.4802" gradientUnits="userSpaceOnUse">
<stop stop-color="#6321FF"/>
<stop offset="0.2832" stop-color="#864CFF"/>
<stop offset="0.6006" stop-color="#A776FF"/>
<stop offset="0.8506" stop-color="#BC8FFF"/>
<stop offset="1" stop-color="#C499FF"/>
</linearGradient>
<linearGradient id="paint6_linear" x1="19.6219" y1="32.594" x2="20.3406" y2="45.6003" gradientUnits="userSpaceOnUse">
<stop stop-color="#6F26FF"/>
<stop offset="0.1903" stop-color="#843FFF"/>
<stop offset="0.549" stop-color="#A769FF"/>
<stop offset="0.8312" stop-color="#BC82FF"/>
<stop offset="1" stop-color="#C48CFF"/>
</linearGradient>
<linearGradient id="paint7_linear" x1="38.1488" y1="19.1757" x2="30.5116" y2="2.87338" gradientUnits="userSpaceOnUse">
<stop stop-color="#6A29FF"/>
<stop offset="0.3261" stop-color="#A056FF"/>
<stop offset="0.6248" stop-color="#CA79FF"/>
<stop offset="0.8583" stop-color="#E38EFF"/>
<stop offset="0.998" stop-color="#ED96FF"/>
</linearGradient>
<linearGradient id="paint8_linear" x1="32.3328" y1="16.3559" x2="45.9915" y2="0.0534878" gradientUnits="userSpaceOnUse">
<stop stop-color="#6A29FF"/>
<stop offset="0.3261" stop-color="#A056FF"/>
<stop offset="0.6248" stop-color="#CA79FF"/>
<stop offset="0.8583" stop-color="#E38EFF"/>
<stop offset="0.998" stop-color="#ED96FF"/>
</linearGradient>
<linearGradient id="paint9_linear" x1="39.5516" y1="5.72319" x2="22.0743" y2="5.72319" gradientUnits="userSpaceOnUse">
<stop stop-color="#A96BFF"/>
<stop offset="0.3343" stop-color="#C9A3FF"/>
<stop offset="0.6302" stop-color="#E2CDFF"/>
<stop offset="0.8616" stop-color="#F0E6FF"/>
<stop offset="1" stop-color="#F6F0FF"/>
</linearGradient>
<linearGradient id="paint10_linear" x1="20.7344" y1="23.8354" x2="21.7625" y2="7.09242" gradientUnits="userSpaceOnUse">
<stop stop-color="#6A29FF"/>
<stop offset="0.3261" stop-color="#A056FF"/>
<stop offset="0.6248" stop-color="#CA79FF"/>
<stop offset="0.8583" stop-color="#E38EFF"/>
<stop offset="0.998" stop-color="#ED96FF"/>
</linearGradient>
<linearGradient id="paint11_linear" x1="18.9808" y1="16.4874" x2="12.2249" y2="7.23477" gradientUnits="userSpaceOnUse">
<stop stop-color="#A96BFF"/>
<stop offset="0.3343" stop-color="#C9A3FF"/>
<stop offset="0.6302" stop-color="#E2CDFF"/>
<stop offset="0.8616" stop-color="#F0E6FF"/>
<stop offset="1" stop-color="#F6F0FF"/>
</linearGradient>
<linearGradient id="paint12_linear" x1="23.9129" y1="12.8821" x2="14.5133" y2="5.3918" gradientUnits="userSpaceOnUse">
<stop stop-color="#A96BFF"/>
<stop offset="0.3343" stop-color="#C9A3FF"/>
<stop offset="0.6302" stop-color="#E2CDFF"/>
<stop offset="0.8616" stop-color="#F0E6FF"/>
<stop offset="1" stop-color="#F6F0FF"/>
</linearGradient>
<linearGradient id="paint13_linear" x1="36.1044" y1="31.2266" x2="21.4295" y2="21.4089" gradientUnits="userSpaceOnUse">
<stop stop-color="#6321FF"/>
<stop offset="0.103" stop-color="#6E2DFF"/>
<stop offset="0.5005" stop-color="#9257FF"/>
<stop offset="0.8131" stop-color="#A970FF"/>
<stop offset="1" stop-color="#B17AFF"/>
</linearGradient>
<linearGradient id="paint14_linear" x1="33.8492" y1="29.8331" x2="12.994" y2="15.8806" gradientUnits="userSpaceOnUse">
<stop stop-color="#F2DEFF"/>
<stop offset="0.1988" stop-color="#ECD4FF"/>
<stop offset="0.5312" stop-color="#DDBBFF"/>
<stop offset="0.954" stop-color="#C591FF"/>
<stop offset="1" stop-color="#C28CFF"/>
</linearGradient>
<linearGradient id="paint15_linear" x1="9.64798" y1="28.2881" x2="17.6523" y2="20.7979" gradientUnits="userSpaceOnUse">
<stop stop-color="#AC70FF"/>
<stop offset="0.4264" stop-color="#C897FF"/>
<stop offset="0.7853" stop-color="#DBB0FF"/>
<stop offset="1" stop-color="#E2BAFF"/>
</linearGradient>
<linearGradient id="paint16_linear" x1="32.5847" y1="31.1551" x2="7.28658" y2="26.235" gradientUnits="userSpaceOnUse">
<stop stop-color="#5A14FF"/>
<stop offset="0.0162438" stop-color="#5C17FF"/>
<stop offset="0.3526" stop-color="#8C51FF"/>
<stop offset="0.6404" stop-color="#AF7BFF"/>
<stop offset="0.8654" stop-color="#C494FF"/>
<stop offset="1" stop-color="#CC9EFF"/>
</linearGradient>
<linearGradient id="paint17_linear" x1="10.1618" y1="16.3296" x2="4.14021" y2="28.2259" gradientUnits="userSpaceOnUse">
<stop stop-color="#A368FF"/>
<stop offset="0.1179" stop-color="#B172FF"/>
<stop offset="0.5088" stop-color="#DB90FF"/>
<stop offset="0.8161" stop-color="#F4A3FF"/>
<stop offset="1" stop-color="#FEAAFF"/>
</linearGradient>
<linearGradient id="paint18_linear" x1="10.1533" y1="10.4366" x2="5.7473" y2="19.8362" gradientUnits="userSpaceOnUse">
<stop stop-color="white"/>
<stop offset="0.1595" stop-color="#FDF5FF"/>
<stop offset="0.4262" stop-color="#F8DCFF"/>
<stop offset="0.7651" stop-color="#F0B2FF"/>
<stop offset="1" stop-color="#EA91FF"/>
</linearGradient>
<linearGradient id="paint19_linear" x1="6.13839" y1="9.6483" x2="1.68807" y2="19.3124" gradientUnits="userSpaceOnUse">
<stop stop-color="white"/>
<stop offset="0.1595" stop-color="#FDF5FF"/>
<stop offset="0.4262" stop-color="#F8DCFF"/>
<stop offset="0.7651" stop-color="#F0B2FF"/>
<stop offset="1" stop-color="#EA91FF"/>
</linearGradient>
<linearGradient id="paint20_linear" x1="8.26259" y1="28.3489" x2="2.5347" y2="14.5433" gradientUnits="userSpaceOnUse">
<stop stop-color="#A368FF"/>
<stop offset="0.1179" stop-color="#B172FF"/>
<stop offset="0.5088" stop-color="#DB90FF"/>
<stop offset="0.8161" stop-color="#F4A3FF"/>
<stop offset="1" stop-color="#FEAAFF"/>
</linearGradient>
<linearGradient id="paint21_linear" x1="37.1351" y1="19.0779" x2="52.3744" y2="18.2208" gradientUnits="userSpaceOnUse">
<stop stop-color="#6321FF"/>
<stop offset="0.103" stop-color="#6E2DFF"/>
<stop offset="0.5005" stop-color="#9257FF"/>
<stop offset="0.8131" stop-color="#A970FF"/>
<stop offset="1" stop-color="#B17AFF"/>
</linearGradient>
<linearGradient id="paint22_linear" x1="44.3258" y1="19.8025" x2="32.0149" y2="17.4082" gradientUnits="userSpaceOnUse">
<stop stop-color="#E2BAFF"/>
<stop offset="0.2147" stop-color="#DBB0FF"/>
<stop offset="0.5736" stop-color="#C897FF"/>
<stop offset="1" stop-color="#AC70FF"/>
</linearGradient>
<linearGradient id="paint23_linear" x1="29.8345" y1="28.79" x2="41.5518" y2="22.9348" gradientUnits="userSpaceOnUse">
<stop stop-color="#6321FF"/>
<stop offset="0.103" stop-color="#6E2DFF"/>
<stop offset="0.5005" stop-color="#9257FF"/>
<stop offset="0.8131" stop-color="#A970FF"/>
<stop offset="1" stop-color="#B17AFF"/>
</linearGradient>
<linearGradient id="paint24_linear" x1="48.9935" y1="21.529" x2="30.1974" y2="30.6976" gradientUnits="userSpaceOnUse">
<stop stop-color="#6321FF"/>
<stop offset="0.103" stop-color="#6E2DFF"/>
<stop offset="0.5005" stop-color="#9257FF"/>
<stop offset="0.8131" stop-color="#A970FF"/>
<stop offset="1" stop-color="#B17AFF"/>
</linearGradient>
<linearGradient id="paint25_linear" x1="40.7843" y1="3.49662" x2="51.1359" y2="21.9571" gradientUnits="userSpaceOnUse">
<stop stop-color="#CC9EFF"/>
<stop offset="0.1346" stop-color="#C494FF"/>
<stop offset="0.3596" stop-color="#AF7BFF"/>
<stop offset="0.6474" stop-color="#8C51FF"/>
<stop offset="0.9838" stop-color="#5C17FF"/>
<stop offset="1" stop-color="#5A14FF"/>
</linearGradient>
<linearGradient id="paint26_linear" x1="41.144" y1="4.92945" x2="49.2314" y2="23.6203" gradientUnits="userSpaceOnUse">
<stop stop-color="#CC9EFF"/>
<stop offset="0.1346" stop-color="#C494FF"/>
<stop offset="0.3596" stop-color="#AF7BFF"/>
<stop offset="0.6474" stop-color="#8C51FF"/>
<stop offset="0.9838" stop-color="#5C17FF"/>
<stop offset="1" stop-color="#5A14FF"/>
</linearGradient>
<linearGradient id="paint27_linear" x1="52.3343" y1="16.162" x2="42.996" y2="14.3458" gradientUnits="userSpaceOnUse">
<stop stop-color="#5A14FF"/>
<stop offset="0.0162438" stop-color="#5C17FF"/>
<stop offset="0.3526" stop-color="#8C51FF"/>
<stop offset="0.6404" stop-color="#AF7BFF"/>
<stop offset="0.8654" stop-color="#C494FF"/>
<stop offset="1" stop-color="#CC9EFF"/>
</linearGradient>
<linearGradient id="paint28_linear" x1="51.9654" y1="17.8776" x2="43.8654" y2="16.3023" gradientUnits="userSpaceOnUse">
<stop stop-color="#5A14FF"/>
<stop offset="0.0162438" stop-color="#5C17FF"/>
<stop offset="0.3526" stop-color="#8C51FF"/>
<stop offset="0.6404" stop-color="#AF7BFF"/>
<stop offset="0.8654" stop-color="#C494FF"/>
<stop offset="1" stop-color="#CC9EFF"/>
</linearGradient>
<linearGradient id="paint29_linear" x1="19.5437" y1="32.6895" x2="24.0966" y2="45.6139" gradientUnits="userSpaceOnUse">
<stop stop-color="#7638FF"/>
<stop offset="0.103" stop-color="#8044FF"/>
<stop offset="0.5005" stop-color="#A26EFF"/>
<stop offset="0.8131" stop-color="#B787FF"/>
<stop offset="1" stop-color="#BF91FF"/>
</linearGradient>
<linearGradient id="paint30_linear" x1="40.9375" y1="28.4846" x2="27.5725" y2="43.6121" gradientUnits="userSpaceOnUse">
<stop stop-color="#6321FF"/>
<stop offset="0.2832" stop-color="#864CFF"/>
<stop offset="0.6006" stop-color="#A776FF"/>
<stop offset="0.8506" stop-color="#BC8FFF"/>
<stop offset="1" stop-color="#C499FF"/>
</linearGradient>
</defs>
</svg>
