<?xml version="1.0" encoding="utf-8"?>
<!-- Generator: Adobe Illustrator 25.2.0, SVG Export Plug-In . SVG Version: 6.00 Build 0)  -->
<svg version="1.1" id="Layer_1" xmlns="http://www.w3.org/2000/svg" xmlns:xlink="http://www.w3.org/1999/xlink" x="0px" y="0px"
	 viewBox="0 0 51 45" style="enable-background:new 0 0 51 45;" xml:space="preserve">
<style type="text/css">
	.st0{fill:url(#SVGID_1_);}
	.st1{fill:url(#SVGID_2_);}
	.st2{fill:url(#SVGID_3_);}
	.st3{fill:url(#SVGID_4_);}
	.st4{fill:url(#SVGID_5_);}
	.st5{fill:url(#SVGID_6_);}
	.st6{fill:url(#SVGID_7_);}
	.st7{fill:url(#SVGID_8_);}
	.st8{fill:url(#SVGID_9_);}
	.st9{fill:url(#SVGID_10_);}
	.st10{fill:url(#SVGID_11_);}
	.st11{fill:url(#SVGID_12_);}
	.st12{fill:url(#SVGID_13_);}
	.st13{fill:url(#SVGID_14_);}
	.st14{fill:url(#SVGID_15_);}
	.st15{opacity:0.39;fill:url(#SVGID_16_);enable-background:new    ;}
	.st16{fill:url(#SVGID_17_);}
	.st17{fill:url(#SVGID_18_);}
	.st18{fill:url(#SVGID_19_);}
	.st19{fill:url(#SVGID_20_);}
	.st20{fill:url(#SVGID_21_);}
	.st21{fill:url(#SVGID_22_);}
	.st22{fill:url(#SVGID_23_);}
	.st23{fill:url(#SVGID_24_);}
	.st24{fill:url(#SVGID_25_);}
	.st25{fill:url(#SVGID_26_);}
	.st26{fill:url(#SVGID_27_);}
	.st27{fill:url(#SVGID_28_);}
	.st28{fill:url(#SVGID_29_);}
	.st29{fill:url(#SVGID_30_);}
	.st30{fill:url(#SVGID_31_);}
	.st31{fill:url(#SVGID_32_);}
	.st32{fill:url(#SVGID_33_);}
	.st33{opacity:0.39;fill:url(#SVGID_34_);enable-background:new    ;}
	.st34{fill:url(#SVGID_35_);}
	.st35{fill:url(#SVGID_36_);}
	.st36{fill:url(#SVGID_37_);}
	.st37{fill:url(#SVGID_38_);}
	.st38{fill:url(#SVGID_39_);}
	.st39{fill:url(#SVGID_40_);}
	.st40{fill:url(#SVGID_41_);}
	.st41{fill:url(#SVGID_42_);}
	.st42{fill:url(#SVGID_43_);}
	.st43{fill:url(#SVGID_44_);}
	.st44{fill:url(#SVGID_45_);}
	.st45{fill:url(#SVGID_46_);}
	.st46{fill:url(#SVGID_47_);}
	.st47{fill:url(#SVGID_48_);}
	.st48{fill:url(#SVGID_49_);}
	.st49{fill:url(#SVGID_50_);}
	.st50{fill:url(#SVGID_51_);}
	.st51{opacity:0.39;fill:url(#SVGID_52_);enable-background:new    ;}
	.st52{fill:url(#SVGID_53_);}
	.st53{fill:url(#SVGID_54_);}
</style>
<g>
	
		<linearGradient id="SVGID_1_" gradientUnits="userSpaceOnUse" x1="0.5" y1="10.6284" x2="42.1776" y2="10.6284" gradientTransform="matrix(1 0 0 -1 0 46)">
		<stop  offset="0" style="stop-color:#3922AA"/>
		<stop  offset="1" style="stop-color:#7F3DFF"/>
	</linearGradient>
	<path class="st0" d="M42.2,26.6l0,5.8c0,0,0,0.1,0,0.2c0,0,0,0.1,0,0.2c0,0.1,0,0.2,0,0.3c0,0.1,0,0.2,0,0.3c0,0.1,0,0.2,0,0.3
		c0,0,0,0.1,0,0.1c0,0,0,0.1,0,0.2c0,0.1,0,0.2-0.1,0.3c0,0.1,0,0.2-0.1,0.3c0,0.1-0.1,0.2-0.1,0.3c0,0,0,0.1,0,0.1c0,0,0,0.1,0,0.1
		c0,0.1-0.1,0.2-0.1,0.3c0,0.1-0.1,0.2-0.1,0.3c0,0.1-0.1,0.2-0.2,0.3c0,0,0,0.1-0.1,0.2c0,0,0,0.1-0.1,0.1
		c-0.1,0.1-0.1,0.3-0.2,0.4c0,0.1-0.1,0.2-0.1,0.2c-0.1,0.1-0.2,0.3-0.3,0.4c0,0-0.1,0.1-0.1,0.1l0,0c0,0,0,0-0.1,0.1
		c-0.1,0.1-0.2,0.3-0.3,0.4c0,0-0.1,0.1-0.1,0.1c-0.1,0.2-0.3,0.3-0.4,0.4c0,0,0,0-0.1,0.1c-0.1,0.1-0.1,0.1-0.2,0.2
		c0,0-0.1,0.1-0.1,0.1c-0.1,0.1-0.2,0.2-0.3,0.3c-0.1,0.1-0.2,0.2-0.3,0.2c-0.1,0.1-0.2,0.2-0.3,0.3c-0.1,0.1-0.2,0.2-0.3,0.2
		c-0.1,0.1-0.2,0.2-0.3,0.3c-0.1,0.1-0.2,0.2-0.3,0.2c-0.1,0.1-0.3,0.2-0.4,0.2c-0.1,0-0.2,0.1-0.2,0.1c-0.1,0-0.2,0.1-0.3,0.1
		c-0.1,0-0.2,0.1-0.3,0.2c-0.2,0.1-0.4,0.2-0.6,0.3c-0.1,0-0.2,0.1-0.3,0.1c-0.3,0.1-0.5,0.3-0.8,0.3c-0.1,0-0.2,0.1-0.3,0.1
		c-0.3,0.1-0.7,0.3-1,0.4c0,0-0.1,0-0.2,0.1c-0.3,0.1-0.6,0.2-0.9,0.3c0,0-0.1,0-0.2,0c-0.1,0-0.1,0-0.2,0.1c-0.2,0-0.3,0.1-0.5,0.2
		c-0.1,0-0.3,0.1-0.4,0.1c-0.2,0-0.3,0.1-0.5,0.1c-0.1,0-0.3,0.1-0.4,0.1c-0.2,0-0.3,0.1-0.5,0.1c-0.1,0-0.3,0-0.4,0.1
		c-0.2,0-0.3,0.1-0.6,0.1c-0.1,0-0.2,0-0.3,0c0,0-0.1,0-0.1,0c-0.4,0.1-0.8,0.1-1.2,0.2c0,0-0.1,0-0.2,0c-0.3,0-0.7,0.1-1,0.1
		c0,0-0.1,0-0.2,0c-0.1,0-0.2,0-0.3,0c-0.2,0-0.4,0-0.6,0c-0.1,0-0.3,0-0.4,0c-0.2,0-0.5,0-0.7,0c-0.1,0-0.2,0-0.3,0h-0.1
		c-0.2,0-0.4,0-0.6,0c-0.1,0-0.3,0-0.4,0c-0.2,0-0.4,0-0.6,0c-0.1,0-0.2,0-0.3,0h0.1c-0.2,0-0.4,0-0.6,0c-0.1,0-0.3,0-0.4,0
		c-0.2,0-0.4,0-0.6,0c-0.1,0-0.2,0-0.3,0c-0.3,0-0.5,0-0.8-0.1c-0.1,0-0.2,0-0.2,0c-0.3,0-0.6-0.1-1-0.1c0,0-0.1,0-0.1,0
		c-0.3,0-0.6-0.1-0.9-0.1c-0.1,0-0.2,0-0.3,0c-0.2,0-0.4-0.1-0.7-0.1c0,0,0,0-0.1,0c-0.1,0-0.2,0-0.3,0c-0.2,0-0.5-0.1-0.7-0.2
		c-0.1,0-0.3-0.1-0.4-0.1c-0.2,0-0.4-0.1-0.6-0.2c0,0-0.1,0-0.2,0c0,0-0.1,0-0.2,0c-0.3-0.1-0.6-0.2-1-0.3c0,0-0.1,0-0.2,0
		c-0.4-0.1-0.7-0.3-1.1-0.4c0,0-0.1,0-0.1,0c-0.1,0-0.2-0.1-0.3-0.1c-0.1,0-0.2-0.1-0.3-0.1c-0.2-0.1-0.3-0.1-0.5-0.2
		c-0.1,0-0.2-0.1-0.3-0.1c-0.2-0.1-0.3-0.2-0.5-0.3c-0.1,0-0.2-0.1-0.3-0.1c-0.3-0.1-0.5-0.3-0.7-0.4c-4.1-2.3-6.2-5.5-6.2-8.6
		l0-5.5v-0.3c0,0.1,0,0.2,0,0.3c0,0.1,0,0.1,0,0.2c0,0.2,0,0.4,0,0.6c0,0.1,0,0.2,0,0.3c0,0.1,0,0.2,0,0.3c0,0.1,0,0.1,0,0.2
		c0,0.1,0,0.2,0.1,0.3v0c0,0,0,0,0,0.1c0,0.1,0,0.1,0.1,0.2c0,0,0,0,0,0.1c0,0,0,0.1,0,0.1v0c0,0.1,0.1,0.2,0.1,0.3c0,0,0,0,0,0
		c0,0.1,0.1,0.2,0.1,0.3c0,0.1,0.1,0.2,0.1,0.3c0,0.1,0.1,0.2,0.2,0.3c0,0,0.1,0.1,0.1,0.2c0.1,0.1,0.2,0.3,0.3,0.4C2,31,2,31,2,31
		c0,0,0,0.1,0.1,0.1l0,0c0,0,0.1,0.1,0.2,0.2c0.3,0.3,0.6,0.7,0.9,1c0,0,0.1,0.1,0.2,0.2c0.4,0.4,1,0.9,1.5,1.3
		C5,34,5.1,34.1,5.3,34.2c0.3,0.2,0.6,0.4,1,0.6C6.4,34.9,6.6,35,6.7,35c0.2,0.1,0.5,0.3,0.7,0.4c0,0,0,0,0,0c0.1,0,0.2,0.1,0.3,0.1
		c0.1,0,0.2,0.1,0.3,0.1c0.1,0,0.2,0.1,0.3,0.1c0,0,0,0,0,0c0.1,0,0.2,0.1,0.3,0.1c0.2,0.1,0.3,0.1,0.5,0.2c0,0,0.1,0,0.1,0
		c0.1,0,0.1,0,0.2,0.1c0.1,0,0.3,0.1,0.4,0.2c0,0,0.1,0,0.2,0c0.3,0.1,0.5,0.2,0.8,0.3c0,0,0.1,0,0.1,0c0,0,0.1,0,0.2,0
		c0.2,0.1,0.4,0.1,0.7,0.2c0.1,0,0.2,0,0.3,0.1c0.1,0,0.2,0.1,0.3,0.1c0,0,0,0,0.1,0c0.1,0,0.3,0.1,0.3,0.1c0,0,0.1,0,0.2,0
		c0.1,0,0.3,0,0.4,0.1c0.1,0,0.2,0,0.3,0.1c0.1,0,0.3,0,0.3,0.1c0.1,0,0.2,0,0.3,0.1c0,0,0,0,0.1,0c0.2,0,0.4,0.1,0.6,0.1
		c0.1,0,0.2,0,0.3,0.1c0.3,0,0.6,0.1,0.8,0.1c0,0,0.1,0,0.2,0c0.3,0,0.7,0.1,1,0.1c0.1,0,0.2,0,0.2,0c0.3,0,0.5,0,0.8,0.1
		c0.1,0,0.3,0,0.4,0c0.2,0,0.4,0,0.6,0c0.1,0,0.3,0,0.4,0c0.2,0,0.4,0,0.6,0h0c0.1,0,0.3,0,0.4,0c0.2,0,0.3,0,0.5,0h0.2
		c0.1,0,0.3,0,0.4,0c0.1,0,0.2,0,0.3,0c0.1,0,0.2,0,0.3,0c0.1,0,0.3,0,0.4,0c0.2,0,0.3,0,0.5,0c0.1,0,0.1,0,0.2,0c0.1,0,0.3,0,0.4,0
		c0.1,0,0.2,0,0.3,0c0.1,0,0.2,0,0.3,0c0.1,0,0.3,0,0.4,0c0,0,0.1,0,0.2,0c0.1,0,0.2,0,0.3,0c0.2,0,0.3,0,0.5,0c0,0,0.1,0,0.2,0h0
		c0.3,0,0.7-0.1,1-0.2c0,0,0.1,0,0.2,0c0.1,0,0.3,0,0.4-0.1c0.1,0,0.2,0,0.3,0c0.1,0,0.2,0,0.3,0c0.1,0,0.3-0.1,0.4-0.1
		c0.1,0,0.1,0,0.2,0c0.1,0,0.2,0,0.3-0.1c0.1,0,0.3-0.1,0.4-0.1c0,0,0.1,0,0.1,0c0.1,0,0.2,0,0.3-0.1c0,0,0,0,0.1,0
		c0.1,0,0.3-0.1,0.4-0.1c0.1,0,0.2,0,0.3-0.1c0.1,0,0.2,0,0.3-0.1c0.1,0,0.3-0.1,0.4-0.1c0,0,0,0,0.1,0c0.1,0,0.3-0.1,0.3-0.1
		c0.2,0,0.3-0.1,0.4-0.2c0,0,0.1,0,0.2-0.1c0,0,0,0,0,0c0.2-0.1,0.4-0.2,0.6-0.3c0.1,0,0.2-0.1,0.3-0.1c0.1,0,0.2-0.1,0.3-0.1
		c0.3-0.1,0.5-0.3,0.8-0.3c0.1,0,0.2-0.1,0.3-0.1c0.1,0,0.3-0.1,0.4-0.2c0.1,0,0.1-0.1,0.2-0.1c0.1,0,0.2-0.1,0.3-0.2
		c0.1,0,0.2-0.1,0.3-0.1c0.2-0.1,0.3-0.2,0.5-0.3c0,0,0,0,0.1,0c0.1-0.1,0.2-0.2,0.3-0.2c0.1-0.1,0.3-0.2,0.3-0.3
		c0.1-0.1,0.2-0.2,0.3-0.2c0.1-0.1,0.2-0.2,0.3-0.3c0.1-0.1,0.2-0.2,0.3-0.3c0.1-0.1,0.2-0.2,0.3-0.3c0.1-0.1,0.2-0.2,0.3-0.3l0,0
		c0,0,0,0,0.1-0.1c0.1-0.2,0.3-0.3,0.4-0.5c0,0,0,0,0.1-0.1c0,0,0,0,0,0c0.1-0.1,0.2-0.3,0.3-0.4c0,0,0,0,0.1-0.1
		c0-0.1,0.1-0.1,0.2-0.2c0.1-0.1,0.2-0.3,0.3-0.4c0,0,0-0.1,0.1-0.1c0,0,0.1-0.1,0.1-0.2c0.1-0.1,0.1-0.2,0.2-0.3c0,0,0-0.1,0.1-0.2
		c0,0,0.1-0.1,0.1-0.2c0-0.1,0.1-0.2,0.1-0.2c0-0.1,0.1-0.2,0.1-0.3c0-0.1,0.1-0.2,0.1-0.3c0-0.1,0.1-0.2,0.1-0.3
		c0-0.1,0.1-0.2,0.1-0.3c0-0.1,0-0.2,0.1-0.3v0c0-0.1,0-0.2,0.1-0.3c0-0.1,0-0.2,0-0.3c0-0.1,0-0.2,0-0.3c0-0.1,0-0.1,0-0.2
		c0,0,0-0.1,0-0.1c0-0.1,0-0.2,0-0.3C42.2,26.7,42.2,26.7,42.2,26.6C42.2,26.7,42.2,26.7,42.2,26.6z"/>
	
		<linearGradient id="SVGID_2_" gradientUnits="userSpaceOnUse" x1="21.3485" y1="7.2358" x2="21.3485" y2="31.707" gradientTransform="matrix(1 0 0 -1 0 46)">
		<stop  offset="0" style="stop-color:#DBDFFF"/>
		<stop  offset="0.7834" style="stop-color:#8B97FF"/>
		<stop  offset="1" style="stop-color:#B2BAFF"/>
	</linearGradient>
	<path class="st1" d="M36,18c-8.1-4.7-21.4-4.7-29.5,0c-8.1,4.7-8.1,12.3,0.1,17.1c8.1,4.7,21.4,4.7,29.5,0
		C44.2,30.3,44.2,22.7,36,18z"/>
	
		<linearGradient id="SVGID_3_" gradientUnits="userSpaceOnUse" x1="21.365" y1="29.7049" x2="21.365" y2="9.1943" gradientTransform="matrix(1 0 0 -1 0 46)">
		<stop  offset="0" style="stop-color:#8E52FF"/>
		<stop  offset="1" style="stop-color:#D6BFFF"/>
	</linearGradient>
	<path class="st2" d="M21.4,35.8c-4.9,0-9.7-1.1-13.2-3.1c-2.9-1.7-4.6-3.8-4.6-5.9c0-2,1.6-4.2,4.5-5.8c3.4-2,8.2-3.1,13.2-3.1
		c4.9,0,9.7,1.1,13.2,3.1c2.9,1.7,4.6,3.8,4.6,5.9c0,2-1.6,4.2-4.5,5.8C31.2,34.7,26.4,35.8,21.4,35.8z"/>
	
		<linearGradient id="SVGID_4_" gradientUnits="userSpaceOnUse" x1="3.6201" y1="24.3434" x2="39.1099" y2="24.3434" gradientTransform="matrix(1 0 0 -1 0 46)">
		<stop  offset="0" style="stop-color:#2E007F"/>
		<stop  offset="1" style="stop-color:#7052C8"/>
	</linearGradient>
	<path class="st3" d="M8.1,21c3.4-2,8.2-3.1,13.2-3.1c4.9,0,9.7,1.1,13.2,3.1c2.7,1.6,4.3,3.5,4.5,5.4c0-0.2,0-0.3,0-0.5
		c0-2-1.7-4.2-4.6-5.9c-3.4-2-8.2-3.1-13.2-3.1c-4.9,0-9.7,1.1-13.2,3.1c-2.9,1.6-4.5,3.8-4.5,5.8c0,0.2,0,0.3,0,0.5
		C3.9,24.5,5.5,22.5,8.1,21z"/>
	
		<linearGradient id="SVGID_5_" gradientUnits="userSpaceOnUse" x1="28.8375" y1="23.5419" x2="29.9051" y2="23.5419" gradientTransform="matrix(1 0 0 -1 0 46)">
		<stop  offset="0" style="stop-color:#4A3FFF"/>
		<stop  offset="1" style="stop-color:#853FFF"/>
	</linearGradient>
	<path class="st4" d="M28.8,22.1v1.4l1-0.6l0-1.4L28.8,22.1z"/>
	
		<linearGradient id="SVGID_6_" gradientUnits="userSpaceOnUse" x1="23.6159" y1="22.2419" x2="26.2192" y2="22.2419" gradientTransform="matrix(1 0 0 -1 0 46)">
		<stop  offset="0" style="stop-color:#4A3FFF"/>
		<stop  offset="1" style="stop-color:#853FFF"/>
	</linearGradient>
	<path class="st5" d="M26.2,23c0-0.1-0.1-0.2-0.3-0.3c0,0-0.1,0-0.1-0.1c0,0,0,0-0.1,0c0,0,0,0-0.1,0h0h0h0c0,0,0,0-0.1,0s0,0-0.1,0
		h0c0,0,0,0-0.1,0h0c0,0-0.1,0-0.1,0h0h0c0,0-0.1,0-0.2,0.1c0,0,0,0-0.1,0c-0.1,0-0.2,0.1-0.3,0.1c0,0,0,0-0.1,0c0,0,0,0,0,0
		c-0.1,0-0.1,0.1-0.2,0.1c0,0,0,0,0,0c0,0-0.1,0.1-0.2,0.1c0,0-0.1,0.1-0.1,0.1s0,0,0,0c0,0,0,0,0,0c0,0,0,0,0,0v0c0,0,0,0,0,0v0
		v1.4c0,0,0,0,0-0.1c0,0,0,0,0,0c0,0,0,0,0,0c0,0,0,0,0,0c0,0,0,0,0,0c0,0,0,0,0,0c0,0,0-0.1,0.1-0.1l0,0c0,0,0.1-0.1,0.2-0.1
		c0,0,0,0,0,0c0,0,0.1-0.1,0.2-0.1c0,0,0.1,0,0.1-0.1c0.1,0,0.2-0.1,0.3-0.1c0,0,0,0,0.1,0c0,0,0.1,0,0.2-0.1c0,0,0,0,0.1,0
		c0,0,0.1,0,0.1,0c0,0,0.1,0,0.1,0c0,0,0.1,0,0.2,0c0,0,0.1,0,0.2,0c0,0,0.1,0,0.2,0c0,0,0.1,0,0.2,0.1c0.1,0,0.2,0.1,0.2,0.2
		c0,0,0.1,0.1,0.1,0.2L26.2,23z"/>
	
		<linearGradient id="SVGID_7_" gradientUnits="userSpaceOnUse" x1="27.9302" y1="20.2487" x2="30.1306" y2="20.2487" gradientTransform="matrix(1 0 0 -1 0 46)">
		<stop  offset="0" style="stop-color:#7583FF"/>
		<stop  offset="1" style="stop-color:#DBDFFF"/>
	</linearGradient>
	<path class="st6" d="M30.1,24c0,0.1,0,0.1,0,0.2c0,0,0,0,0,0.1c0,0,0,0.1,0,0.1c0,0,0,0.1,0,0.1c0,0,0,0.1,0,0.1c0,0,0,0.1-0.1,0.1
		c0,0,0,0.1-0.1,0.1l0,0c0,0-0.1,0.1-0.2,0.2c0,0,0,0,0,0c-0.1,0-0.1,0.1-0.2,0.2l0,0c-0.1,0-0.2,0.1-0.3,0.2
		c-0.1,0.1-0.2,0.1-0.3,0.2c-0.1,0-0.2,0.1-0.3,0.1c-0.1,0-0.3,0.1-0.4,0.2v1.4c0.3-0.1,0.5-0.3,0.6-0.3c0,0,0.1,0,0.1-0.1
		c0.1,0,0.2-0.1,0.2-0.1c0.1,0,0.2-0.1,0.3-0.2l0,0c0.1,0,0.2-0.1,0.2-0.2c0,0,0,0,0,0c0,0,0.1-0.1,0.2-0.2l0,0l0,0l0,0
		c0,0,0-0.1,0.1-0.1l0,0c0,0,0,0,0-0.1c0,0,0-0.1,0-0.1s0,0,0,0c0,0,0,0,0-0.1c0,0,0,0,0-0.1v0c0,0,0-0.1,0-0.2v0v0L30.1,24
		C30.1,24,30.1,24,30.1,24z"/>
	
		<linearGradient id="SVGID_8_" gradientUnits="userSpaceOnUse" x1="24.5855" y1="20.1184" x2="27.934" y2="20.1184" gradientTransform="matrix(1 0 0 -1 0 46)">
		<stop  offset="0.6337" style="stop-color:#7986FF"/>
		<stop  offset="0.7834" style="stop-color:#8B97FF"/>
		<stop  offset="1" style="stop-color:#B2BAFF"/>
	</linearGradient>
	<path class="st7" d="M24.6,24.2v1.4l3.3,1.9v-1.4L24.6,24.2z"/>
	
		<linearGradient id="SVGID_9_" gradientUnits="userSpaceOnUse" x1="18.7504" y1="20.2482" x2="19.6385" y2="20.2482" gradientTransform="matrix(1 0 0 -1 0 46)">
		<stop  offset="0" style="stop-color:#4A3FFF"/>
		<stop  offset="1" style="stop-color:#853FFF"/>
	</linearGradient>
	<path class="st8" d="M19.7,26.6V28c0-0.2,0-0.5-0.2-0.8c-0.4-1-0.6-1.6-0.7-2c0-0.1,0-0.2,0-0.2v-1.4c0,0.1,0,0.2,0,0.2
		c0.1,0.4,0.3,1,0.7,2C19.6,26.1,19.7,26.4,19.7,26.6z"/>
	
		<linearGradient id="SVGID_10_" gradientUnits="userSpaceOnUse" x1="16.2132" y1="18.3199" x2="18.6761" y2="18.3199" gradientTransform="matrix(1 0 0 -1 0 46)">
		<stop  offset="0" style="stop-color:#4A3FFF"/>
		<stop  offset="1" style="stop-color:#853FFF"/>
	</linearGradient>
	<path class="st9" d="M17.9,26.7c-0.1,0-0.2,0.1-0.3,0.2c0,0,0,0-0.1,0c0,0-0.1,0.1-0.2,0.1c-0.1,0.1-0.2,0.1-0.3,0.2c0,0,0,0-0.1,0
		c-0.1,0-0.1,0.1-0.2,0.1c0,0,0,0,0,0c0,0-0.1,0.1-0.2,0.1c0,0-0.1,0.1-0.1,0.1l0,0l0,0v0v0v1.4c0,0,0,0,0-0.1c0,0,0,0,0-0.1l0,0
		c0,0,0.1,0,0.1-0.1c0,0,0.1-0.1,0.2-0.1l0,0c0,0,0.1-0.1,0.2-0.1c0,0,0,0,0.1,0c0.1,0,0.2-0.1,0.3-0.2c0,0,0.1-0.1,0.2-0.1
		c0,0,0,0,0.1,0c0.1,0,0.2-0.1,0.3-0.2l0.8-0.5v-1.4L17.9,26.7z"/>
	
		<linearGradient id="SVGID_11_" gradientUnits="userSpaceOnUse" x1="12.5604" y1="17.345" x2="13.8888" y2="17.345" gradientTransform="matrix(1 0 0 -1 0 46)">
		<stop  offset="0" style="stop-color:#7583FF"/>
		<stop  offset="1" style="stop-color:#DBDFFF"/>
	</linearGradient>
	<path class="st10" d="M12.6,27.1c0,0,0-0.1,0-0.1v1.4c0,0,0,0.1,0,0.1c0.1,0.7,0.5,1.4,1.3,1.9V29C13.1,28.4,12.6,27.8,12.6,27.1z"
		/>
	
		<linearGradient id="SVGID_12_" gradientUnits="userSpaceOnUse" x1="14.1313" y1="15.0484" x2="15.3848" y2="15.0484" gradientTransform="matrix(1 0 0 -1 0 46)">
		<stop  offset="0" style="stop-color:#DBDFFF"/>
		<stop  offset="1" style="stop-color:#7583FF"/>
	</linearGradient>
	<path class="st11" d="M14.1,30.6V32l1.2-0.7v-1.4L14.1,30.6z"/>
	
		<linearGradient id="SVGID_13_" gradientUnits="userSpaceOnUse" x1="12.5921" y1="15.135" x2="14.1351" y2="15.135" gradientTransform="matrix(1 0 0 -1 0 46)">
		<stop  offset="0" style="stop-color:#DBDFFF"/>
		<stop  offset="1" style="stop-color:#7583FF"/>
	</linearGradient>
	<path class="st12" d="M12.6,29.7v1.4l1.6,0.9v-1.3L12.6,29.7z"/>
	
		<linearGradient id="SVGID_14_" gradientUnits="userSpaceOnUse" x1="14.2214" y1="16.426" x2="27.6735" y2="24.1129" gradientTransform="matrix(1 0 0 -1 0 46)">
		<stop  offset="0" style="stop-color:#FFFFFF"/>
		<stop  offset="1" style="stop-color:#DBDFFF"/>
	</linearGradient>
	<path class="st13" d="M28.8,22.1l1.1-0.6l-1.6-0.9l-1.1,0.6c-1.3-0.6-2.5-0.9-3.6-0.9c-1.1,0-2.2,0.3-3.2,0.9
		c-0.7,0.4-1.2,0.8-1.4,1.3c-0.3,0.5-0.4,0.9-0.3,1.3c0.1,0.4,0.3,1,0.7,2c0.2,0.6,0.3,1,0,1.2c-0.2,0.3-0.7,0.6-1.4,1
		c-0.3,0.2-0.6,0.3-0.8,0.3c-0.3,0-0.5,0-0.7-0.2c-0.3-0.2-0.3-0.3-0.2-0.5c0.1-0.2,0.7-0.5,1.6-1l0.8-0.5l-3.3-2l-0.6,0.4
		c-1.5,0.9-2.2,1.6-2.1,2.4c0.1,0.7,0.5,1.4,1.3,2l-1.3,0.7l1.6,0.9l1.3-0.7c1.3,0.6,2.6,0.8,3.8,0.8c1.3,0,2.5-0.4,3.6-1.1
		c0.7-0.4,1.3-0.9,1.5-1.3c0.3-0.4,0.4-0.8,0.4-1.1c0-0.3-0.2-0.9-0.6-1.7c-0.4-0.9-0.6-1.5-0.6-1.7c0-0.3,0.3-0.5,0.8-0.8
		c0.3-0.2,0.6-0.3,0.9-0.3c0.3,0,0.5,0,0.7,0.1c0.3,0.1,0.3,0.3,0.2,0.4c-0.1,0.2-0.4,0.4-1,0.7l-0.6,0.3l3.3,2
		c0.3-0.1,0.5-0.3,0.6-0.3c1-0.6,1.5-1.2,1.5-1.8C30.2,23.4,29.7,22.8,28.8,22.1z"/>
	
		<linearGradient id="SVGID_15_" gradientUnits="userSpaceOnUse" x1="15.3809" y1="16.3051" x2="24.7812" y2="16.3051" gradientTransform="matrix(1 0 0 -1 0 46)">
		<stop  offset="0" style="stop-color:#7583FF"/>
		<stop  offset="1" style="stop-color:#DBDFFF"/>
	</linearGradient>
	<path class="st14" d="M24.8,27.5c0,0.1,0,0.2-0.1,0.3c0,0.1-0.1,0.2-0.1,0.3c0,0.1-0.1,0.2-0.2,0.3c0,0,0,0.1-0.1,0.1
		c0,0,0,0.1-0.1,0.1l0,0c0,0-0.1,0.1-0.1,0.1c0,0,0,0,0,0c0,0-0.1,0.1-0.2,0.2l0,0c0,0-0.1,0.1-0.2,0.1c0,0,0,0-0.1,0.1
		c0,0-0.1,0.1-0.1,0.1c0,0-0.1,0-0.1,0.1c0,0-0.1,0.1-0.2,0.1c-0.1,0-0.1,0.1-0.2,0.1c-0.1,0.1-0.3,0.2-0.4,0.2c0,0-0.1,0-0.1,0.1
		C22.3,30,22.2,30,22,30c0,0-0.1,0-0.2,0.1c-0.1,0-0.2,0.1-0.3,0.1c0,0-0.1,0-0.2,0.1c-0.1,0-0.2,0-0.3,0.1c-0.1,0-0.2,0-0.3,0.1
		c0,0-0.1,0-0.2,0c-0.2-0.1-0.3,0-0.4,0c0,0-0.1,0-0.1,0c-0.2,0-0.3,0-0.5,0.1c-0.1,0-0.3,0-0.4,0c-0.1,0-0.2,0-0.3,0
		c-0.1,0-0.1,0-0.2,0c-0.1,0-0.2,0-0.3,0c0,0-0.1,0-0.2,0c-0.1,0-0.2,0-0.3,0c0,0-0.1,0-0.2,0c0,0-0.1,0-0.1,0c-0.1,0-0.2,0-0.3,0
		c0,0-0.1,0-0.1,0c-0.1,0-0.3-0.1-0.4-0.1c-0.1,0-0.2,0-0.2-0.1c-0.1,0-0.1,0-0.2,0c-0.1,0-0.2,0-0.3-0.1c0,0-0.1,0-0.2-0.1
		c-0.1,0-0.3-0.1-0.4-0.2v1.4c0.1,0,0.3,0.1,0.3,0.2c0,0,0,0,0,0c0,0,0.1,0,0.2,0.1c0.1,0,0.2,0.1,0.3,0.1c0.1,0,0.1,0,0.2,0
		c0,0,0.1,0,0.2,0c0,0,0,0,0.1,0c0.1,0,0.3,0.1,0.4,0.1c0,0,0.1,0,0.1,0c0,0,0,0,0,0c0.1,0,0.2,0,0.3,0c0,0,0.1,0,0.1,0
		c0,0,0.1,0,0.2,0c0.1,0,0.2,0,0.3,0c0,0,0.1,0,0.2,0c0.1,0,0.2,0,0.3,0h0c0.1,0,0.1,0,0.2,0c0.1,0,0.1,0,0.2,0c0,0,0,0,0.1,0
		c0.1,0,0.3,0,0.3,0h0c0.2,0,0.3,0,0.5-0.1c0,0,0.1,0,0.1,0c0.1,0,0.2,0,0.3-0.1c0,0,0.1,0,0.2,0c0.1,0,0.2,0,0.3-0.1h0
		c0.1,0,0.1,0,0.2-0.1c0,0,0.1,0,0.2-0.1c0.1,0,0.2-0.1,0.3-0.1c0,0,0.1,0,0.2-0.1c0.1,0,0.2-0.1,0.3-0.1c0,0,0.1,0,0.1-0.1
		c0.1-0.1,0.3-0.2,0.4-0.2c0,0,0.1,0,0.1-0.1l0,0c0,0,0.1-0.1,0.2-0.1c0,0,0.1,0,0.1-0.1c0,0,0.1-0.1,0.1-0.1c0,0,0,0,0.1,0
		c0,0,0.1-0.1,0.2-0.1c0,0,0,0,0.1,0c0.1,0,0.1-0.1,0.2-0.2c0,0,0,0,0,0c0,0,0.1-0.1,0.1-0.1l0,0c0,0,0-0.1,0.1-0.1
		c0,0,0-0.1,0.1-0.1c0-0.1,0.1-0.2,0.1-0.2c0-0.1,0.1-0.2,0.1-0.3c0-0.1,0-0.2,0.1-0.2c0-0.1,0-0.1,0-0.2c0,0,0,0,0,0v-1.4
		C24.8,27.4,24.8,27.4,24.8,27.5z"/>
	
		<linearGradient id="SVGID_16_" gradientUnits="userSpaceOnUse" x1="21.3836" y1="3.7661" x2="21.3836" y2="15.8409" gradientTransform="matrix(1 0 0 -1 0 46)">
		<stop  offset="0" style="stop-color:#FFFFFF"/>
		<stop  offset="1" style="stop-color:#FFFFFF;stop-opacity:0"/>
	</linearGradient>
	<path class="st15" d="M6.7,36c8.1,4.9,21.4,4.9,29.5,0c4-2.5,6.1-5.7,6.1-8.9v-0.1c0-0.1,0-0.1,0-0.2c0,0,0,0.1,0,0.1
		c0,0.1,0,0.2,0,0.3c0,0.1,0,0.2,0,0.3c0,0.1,0,0.2,0,0.3c0,0.1,0,0.2,0,0.3c0,0.1,0,0.2-0.1,0.3c0,0.1,0,0.2-0.1,0.3
		c0,0.1,0,0.2-0.1,0.3c0,0.1-0.1,0.2-0.1,0.3c0,0.1-0.1,0.2-0.1,0.3c0,0.1-0.1,0.2-0.1,0.3c0,0.1-0.1,0.2-0.2,0.3
		c0,0.1-0.1,0.2-0.1,0.3c-0.1,0.1-0.1,0.3-0.2,0.4c0,0.1-0.1,0.1-0.1,0.2c-0.1,0.1-0.2,0.3-0.3,0.4c0,0-0.1,0.1-0.1,0.2
		c0,0,0,0-0.1,0.1c-0.1,0.1-0.2,0.3-0.3,0.4c0,0,0,0.1-0.1,0.1c-0.1,0.2-0.3,0.3-0.4,0.4c0,0,0,0-0.1,0.1c-0.1,0.1-0.2,0.2-0.3,0.3
		c-0.1,0.1-0.2,0.2-0.3,0.3c-0.1,0.1-0.2,0.2-0.3,0.3c-0.1,0.1-0.2,0.2-0.3,0.3c-0.1,0.1-0.2,0.2-0.3,0.2c-0.1,0.1-0.2,0.2-0.3,0.3
		s-0.2,0.1-0.3,0.2c-0.1,0.1-0.3,0.2-0.4,0.3c-0.2,0.1-0.3,0.2-0.5,0.3c-0.3,0.2-0.7,0.3-1,0.5c-0.1,0-0.2,0.1-0.3,0.1
		c-0.3,0.1-0.5,0.3-0.8,0.3C34,36,34,36,33.9,36.1c-0.3,0.1-0.7,0.3-1,0.4c0,0-0.1,0-0.2,0.1c-0.3,0.1-0.6,0.2-0.9,0.3
		c-0.1,0-0.3,0.1-0.4,0.1c-0.2,0-0.3,0.1-0.5,0.2c-0.1,0-0.3,0.1-0.4,0.1c-0.2,0-0.3,0.1-0.5,0.1c-0.1,0-0.3,0.1-0.4,0.1
		c-0.2,0-0.3,0.1-0.5,0.1c-0.1,0-0.3,0.1-0.4,0.1c-0.2,0-0.3,0.1-0.6,0.1c-0.1,0-0.3,0-0.4,0.1c-0.4,0.1-0.8,0.1-1.2,0.2
		c0,0-0.1,0-0.2,0c-0.3,0-0.7,0.1-1,0.1c-0.1,0-0.3,0-0.4,0c-0.2,0-0.4,0-0.7,0c-0.1,0-0.3,0-0.4,0c-0.2,0-0.5,0-0.7,0
		c-0.1,0-0.3,0-0.4,0c-0.2,0-0.4,0-0.6,0c-0.1,0-0.3,0-0.4,0c-0.2,0-0.4,0-0.6,0c-0.1,0-0.3,0-0.4,0c-0.2,0-0.4,0-0.6,0
		c-0.1,0-0.3,0-0.4,0c-0.2,0-0.4,0-0.6,0c-0.1,0-0.3,0-0.3,0c-0.3,0-0.5,0-0.8-0.1c-0.1,0-0.1,0-0.2,0c-0.3,0-0.6-0.1-1-0.1
		c0,0-0.1,0-0.2,0c-0.3,0-0.6-0.1-0.8-0.1c-0.1,0-0.2,0-0.3-0.1c-0.2,0-0.4-0.1-0.6-0.1c-0.1,0-0.2,0-0.3-0.1
		c-0.2,0-0.5-0.1-0.7-0.2c-0.1,0-0.3,0-0.4-0.1c-0.2,0-0.4-0.1-0.7-0.2c-0.1,0-0.2-0.1-0.3-0.1c-0.3-0.1-0.6-0.2-1-0.3
		c0,0-0.1,0-0.2,0c-0.4-0.1-0.7-0.3-1.1-0.4c-0.1,0-0.3-0.1-0.4-0.2S9.1,36.1,9,36c-0.2-0.1-0.3-0.1-0.5-0.2c-0.1,0-0.2-0.1-0.3-0.1
		c-0.2-0.1-0.3-0.2-0.5-0.3c-0.1,0-0.2-0.1-0.3-0.1c-0.3-0.1-0.5-0.3-0.7-0.4c-4-2.3-6-5.3-6.2-8.3C0.4,30.1,2.5,33.5,6.7,36z"/>
	
		<linearGradient id="SVGID_17_" gradientUnits="userSpaceOnUse" x1="39.4854" y1="13.5889" x2="39.5984" y2="7.8237" gradientTransform="matrix(1 0 0 -1 0 46)">
		<stop  offset="0" style="stop-color:#722AFF;stop-opacity:0"/>
		<stop  offset="1" style="stop-color:#A06AFF"/>
	</linearGradient>
	<path class="st16" d="M39.8,32.1v5.8c0,0-0.1,0.1-0.1,0.1c-0.1,0.2-0.3,0.3-0.4,0.4c0,0,0,0-0.1,0.1v-5.8l0,0c0,0,0,0,0.1-0.1
		C39.5,32.5,39.7,32.3,39.8,32.1C39.8,32.2,39.8,32.2,39.8,32.1z"/>
	
		<linearGradient id="SVGID_18_" gradientUnits="userSpaceOnUse" x1="35.4153" y1="10.4607" x2="35.5229" y2="4.971" gradientTransform="matrix(1 0 0 -1 0 46)">
		<stop  offset="0" style="stop-color:#722AFF;stop-opacity:0"/>
		<stop  offset="1" style="stop-color:#A06AFF"/>
	</linearGradient>
	<path class="st17" d="M35.2,35.6v5.8c0.2-0.1,0.4-0.2,0.6-0.3v-5.8L35.2,35.6z"/>
	
		<linearGradient id="SVGID_19_" gradientUnits="userSpaceOnUse" x1="2.1469" y1="18.2119" x2="43.8246" y2="18.2119" gradientTransform="matrix(1 0 0 -1 0 46)">
		<stop  offset="0" style="stop-color:#3922AA"/>
		<stop  offset="1" style="stop-color:#7F3DFF"/>
	</linearGradient>
	<path class="st18" d="M43.8,19l0,5.8c0,0,0,0.1,0,0.2c0,0,0,0.1,0,0.2c0,0.1,0,0.2,0,0.3c0,0.1,0,0.2,0,0.3s0,0.2,0,0.3
		c0,0,0,0.1,0,0.1c0,0,0,0.1,0,0.2c0,0.1,0,0.2-0.1,0.3s0,0.2-0.1,0.3c0,0.1-0.1,0.2-0.1,0.3c0,0,0,0.1,0,0.1c0,0,0,0.1,0,0.1
		c0,0.1-0.1,0.2-0.1,0.3c0,0.1-0.1,0.2-0.1,0.3c0,0.1-0.1,0.2-0.2,0.3c0,0,0,0.1-0.1,0.2c0,0,0,0.1-0.1,0.1
		c-0.1,0.1-0.1,0.3-0.2,0.4c0,0.1-0.1,0.2-0.1,0.2c-0.1,0.1-0.2,0.3-0.3,0.4c0,0-0.1,0.1-0.1,0.1l0,0c0,0,0,0-0.1,0.1
		c-0.1,0.1-0.2,0.3-0.3,0.4c0,0-0.1,0.1-0.1,0.1c-0.1,0.2-0.3,0.3-0.4,0.4c0,0,0,0-0.1,0.1c-0.1,0.1-0.1,0.1-0.2,0.2
		c0,0-0.1,0.1-0.1,0.1c-0.1,0.1-0.2,0.2-0.3,0.3c-0.1,0.1-0.2,0.2-0.3,0.2c-0.1,0.1-0.2,0.2-0.3,0.3c-0.1,0.1-0.2,0.2-0.3,0.2
		c-0.1,0.1-0.2,0.2-0.3,0.3c-0.1,0.1-0.2,0.2-0.3,0.2c-0.1,0.1-0.3,0.2-0.4,0.2c-0.1,0-0.2,0.1-0.2,0.1c-0.1,0-0.2,0.1-0.3,0.1
		c-0.1,0-0.2,0.1-0.3,0.2c-0.2,0.1-0.4,0.2-0.6,0.3c-0.1,0-0.2,0.1-0.3,0.1c-0.3,0.1-0.5,0.3-0.8,0.3c-0.1,0-0.2,0.1-0.3,0.1
		c-0.3,0.1-0.7,0.3-1,0.4c0,0-0.1,0-0.2,0.1c-0.3,0.1-0.6,0.2-0.9,0.3c0,0-0.1,0-0.2,0c-0.1,0-0.1,0-0.2,0.1c-0.2,0-0.3,0.1-0.5,0.2
		c-0.1,0-0.3,0.1-0.4,0.1c-0.2,0-0.3,0.1-0.5,0.1c-0.1,0-0.3,0.1-0.4,0.1c-0.2,0-0.3,0.1-0.5,0.1c-0.1,0-0.3,0-0.4,0.1
		c-0.2,0-0.3,0.1-0.6,0.1c-0.1,0-0.2,0-0.3,0c0,0-0.1,0-0.1,0c-0.4,0.1-0.8,0.1-1.2,0.2c0,0-0.1,0-0.2,0c-0.3,0-0.7,0.1-1,0.1
		c0,0-0.1,0-0.2,0c-0.1,0-0.2,0-0.3,0c-0.2,0-0.4,0-0.6,0c-0.1,0-0.3,0-0.4,0c-0.2,0-0.5,0-0.7,0c-0.1,0-0.2,0-0.3,0H24
		c-0.2,0-0.4,0-0.6,0c-0.1,0-0.3,0-0.4,0c-0.2,0-0.4,0-0.6,0c-0.1,0-0.2,0-0.3,0h0c-0.2,0-0.4,0-0.6,0c-0.1,0-0.3,0-0.4,0
		c-0.2,0-0.4,0-0.6,0c-0.1,0-0.2,0-0.3,0c-0.3,0-0.5,0-0.8-0.1c-0.1,0-0.2,0-0.2,0c-0.3,0-0.7-0.1-1-0.1c0,0-0.1,0-0.1,0
		c-0.3,0-0.6-0.1-0.9-0.1c-0.1,0-0.2,0-0.3,0c-0.2,0-0.4-0.1-0.7-0.1c0,0,0,0-0.1,0c-0.1,0-0.2,0-0.3,0c-0.2,0-0.5-0.1-0.7-0.2
		c-0.1,0-0.3-0.1-0.4-0.1c-0.2,0-0.4-0.1-0.6-0.2c0,0-0.1,0-0.2,0c0,0-0.1,0-0.2,0c-0.3-0.1-0.7-0.2-1-0.3c0,0-0.1,0-0.2,0
		c-0.4-0.1-0.7-0.3-1.1-0.4c0,0-0.1,0-0.1,0c-0.1,0-0.2-0.1-0.3-0.1c-0.1,0-0.2-0.1-0.3-0.1c-0.2-0.1-0.3-0.1-0.5-0.2
		c-0.1,0-0.2-0.1-0.3-0.1c-0.2-0.1-0.3-0.2-0.5-0.3c-0.1,0-0.2-0.1-0.3-0.1c-0.3-0.1-0.5-0.3-0.7-0.4c-3.9-2.3-6-5.5-6-8.6l0-5.5
		v-0.3c0,0.1,0,0.2,0,0.3c0,0.1,0,0.1,0,0.2c0,0.2,0,0.4,0,0.6c0,0.1,0,0.2,0,0.3c0,0.1,0,0.2,0,0.3c0,0.1,0,0.1,0,0.2
		c0,0.1,0,0.2,0.1,0.3v0c0,0,0,0,0,0.1c0,0.1,0,0.1,0.1,0.2c0,0,0,0,0,0.1c0,0,0,0.1,0,0.1v0c0,0.1,0.1,0.2,0.1,0.3c0,0,0,0,0,0
		c0,0.1,0.1,0.2,0.1,0.3c0,0.1,0.1,0.2,0.1,0.3c0,0.1,0.1,0.2,0.2,0.3c0,0,0.1,0.1,0.1,0.2c0.1,0.1,0.2,0.3,0.3,0.4
		c0,0,0,0.1,0.1,0.1c0,0,0,0.1,0.1,0.1l0,0c0,0,0.1,0.1,0.2,0.2c0.3,0.3,0.6,0.7,0.9,1c0,0,0.1,0.1,0.2,0.2c0.4,0.4,1,0.9,1.5,1.3
		c0.1,0.1,0.2,0.2,0.3,0.2c0.3,0.2,0.6,0.4,1,0.7c0.1,0.1,0.3,0.2,0.4,0.2c0.2,0.1,0.5,0.3,0.7,0.4c0,0,0,0,0,0
		c0.1,0,0.2,0.1,0.3,0.1c0.1,0,0.2,0.1,0.3,0.1c0.1,0,0.2,0.1,0.3,0.1c0,0,0,0,0,0c0.1,0,0.2,0.1,0.3,0.1c0.2,0.1,0.3,0.1,0.5,0.2
		c0,0,0.1,0,0.1,0c0.1,0,0.1,0,0.2,0.1c0.1,0,0.3,0.1,0.4,0.2c0,0,0.1,0,0.2,0c0.3,0.1,0.5,0.2,0.8,0.3c0,0,0.1,0,0.1,0
		c0,0,0.1,0,0.2,0c0.2,0.1,0.4,0.1,0.7,0.2c0.1,0,0.2,0,0.3,0.1c0.1,0,0.2,0.1,0.3,0.1c0,0,0,0,0.1,0c0.1,0,0.3,0.1,0.3,0.1
		c0,0,0.1,0,0.2,0c0.1,0,0.3,0,0.4,0.1c0.1,0,0.2,0,0.3,0.1c0.1,0,0.3,0,0.3,0.1c0.1,0,0.2,0,0.3,0.1c0,0,0,0,0.1,0
		c0.2,0,0.4,0.1,0.6,0.1c0.1,0,0.2,0,0.3,0.1c0.3,0,0.6,0.1,0.8,0.1c0,0,0.1,0,0.2,0c0.3,0,0.6,0.1,1,0.1c0.1,0,0.2,0,0.2,0
		c0.3,0,0.5,0,0.8,0.1c0.1,0,0.3,0,0.4,0c0.2,0,0.4,0,0.6,0c0.1,0,0.3,0,0.4,0c0.2,0,0.4,0,0.6,0h0c0.1,0,0.3,0,0.4,0
		c0.2,0,0.3,0,0.5,0h0.2c0.1,0,0.3,0,0.4,0c0.1,0,0.2,0,0.3,0c0.1,0,0.2,0,0.3,0c0.1,0,0.3,0,0.4,0c0.2,0,0.3,0,0.5,0
		c0.1,0,0.1,0,0.2,0c0.1,0,0.3,0,0.4,0c0.1,0,0.2,0,0.3,0c0.1,0,0.2,0,0.3,0c0.1,0,0.3,0,0.4,0c0,0,0.1,0,0.2,0c0.1,0,0.2,0,0.3,0
		c0.2,0,0.3,0,0.5,0c0,0,0.1,0,0.2,0h0c0.3,0,0.6-0.1,1-0.2c0,0,0.1,0,0.2,0c0.1,0,0.3,0,0.4-0.1c0.1,0,0.2,0,0.3,0
		c0.1,0,0.2,0,0.3,0c0.1,0,0.3-0.1,0.4-0.1c0.1,0,0.1,0,0.2,0c0.1,0,0.2,0,0.3-0.1c0.1,0,0.3-0.1,0.4-0.1c0,0,0.1,0,0.1,0
		c0.1,0,0.2,0,0.3-0.1c0,0,0,0,0.1,0c0.1,0,0.3-0.1,0.4-0.1c0.1,0,0.2,0,0.3-0.1c0.1,0,0.2,0,0.3-0.1c0.1,0,0.3-0.1,0.4-0.1
		c0,0,0,0,0.1,0c0.1,0,0.3-0.1,0.3-0.1c0.2,0,0.3-0.1,0.4-0.2c0,0,0.1,0,0.2-0.1c0,0,0,0,0,0c0.2-0.1,0.4-0.2,0.6-0.3
		c0.1,0,0.2-0.1,0.3-0.1c0.1,0,0.2-0.1,0.3-0.1c0.3-0.1,0.5-0.3,0.8-0.3c0.1,0,0.2-0.1,0.3-0.1c0.1,0,0.3-0.1,0.4-0.2
		c0.1,0,0.1-0.1,0.2-0.1c0.1,0,0.2-0.1,0.3-0.2c0.1,0,0.2-0.1,0.3-0.1c0.2-0.1,0.3-0.2,0.5-0.3c0,0,0,0,0.1,0
		c0.1-0.1,0.2-0.2,0.3-0.2c0.1-0.1,0.3-0.2,0.3-0.3c0.1-0.1,0.2-0.2,0.3-0.2c0.1-0.1,0.2-0.2,0.3-0.3c0.1-0.1,0.2-0.2,0.3-0.3
		c0.1-0.1,0.2-0.2,0.3-0.3c0.1-0.1,0.2-0.2,0.3-0.3l0,0c0,0,0,0,0.1-0.1c0.1-0.2,0.3-0.3,0.4-0.5c0,0,0,0,0.1-0.1c0,0,0,0,0,0
		c0.1-0.1,0.2-0.3,0.3-0.4c0,0,0,0,0.1-0.1c0-0.1,0.1-0.1,0.2-0.2c0.1-0.1,0.2-0.3,0.3-0.4c0,0,0-0.1,0.1-0.1c0,0,0.1-0.1,0.1-0.2
		c0.1-0.1,0.1-0.2,0.2-0.3c0,0,0-0.1,0.1-0.2c0,0,0.1-0.1,0.1-0.2c0-0.1,0.1-0.2,0.1-0.2c0-0.1,0.1-0.2,0.1-0.3
		c0-0.1,0.1-0.2,0.1-0.3c0-0.1,0.1-0.2,0.1-0.3c0-0.1,0.1-0.2,0.1-0.3c0-0.1,0-0.2,0.1-0.3v0c0-0.1,0-0.2,0.1-0.3c0-0.1,0-0.2,0-0.3
		c0-0.1,0-0.2,0-0.3c0-0.1,0-0.1,0-0.2c0,0,0-0.1,0-0.1c0-0.1,0-0.2,0-0.3C43.9,19.2,43.9,19.1,43.8,19C43.8,19.2,43.8,19.1,43.8,19
		z"/>
	
		<linearGradient id="SVGID_20_" gradientUnits="userSpaceOnUse" x1="22.9905" y1="14.8096" x2="22.9905" y2="39.2808" gradientTransform="matrix(1 0 0 -1 0 46)">
		<stop  offset="0" style="stop-color:#DBDFFF"/>
		<stop  offset="0.7834" style="stop-color:#8B97FF"/>
		<stop  offset="1" style="stop-color:#B2BAFF"/>
	</linearGradient>
	<path class="st19" d="M37.7,10.4c-8.1-4.7-21.4-4.7-29.5,0c-8.1,4.7-8.1,12.3,0.1,17.1c8.1,4.7,21.4,4.7,29.5,0
		C45.9,22.8,45.8,15.1,37.7,10.4z"/>
	
		<linearGradient id="SVGID_21_" gradientUnits="userSpaceOnUse" x1="23.0119" y1="37.2785" x2="23.0119" y2="16.768" gradientTransform="matrix(1 0 0 -1 0 46)">
		<stop  offset="0" style="stop-color:#8E52FF"/>
		<stop  offset="1" style="stop-color:#D6BFFF"/>
	</linearGradient>
	<path class="st20" d="M23.1,28.2c-4.9,0-9.8-1.1-13.2-3.1c-2.9-1.6-4.6-3.8-4.6-5.8c0-2,1.6-4.2,4.5-5.8c3.4-2,8.2-3.1,13.2-3.1
		c4.9,0,9.7,1.1,13.2,3.1c2.9,1.7,4.6,3.8,4.6,5.9c0,2-1.6,4.2-4.5,5.8C32.8,27.1,28,28.2,23.1,28.2z"/>
	
		<linearGradient id="SVGID_22_" gradientUnits="userSpaceOnUse" x1="5.267" y1="31.9266" x2="40.7568" y2="31.9266" gradientTransform="matrix(1 0 0 -1 0 46)">
		<stop  offset="0" style="stop-color:#2E007F"/>
		<stop  offset="1" style="stop-color:#7052C8"/>
	</linearGradient>
	<path class="st21" d="M9.8,13.4c3.4-2,8.2-3.1,13.2-3.1c4.9,0,9.7,1.1,13.2,3.1c2.7,1.6,4.3,3.5,4.5,5.4c0-0.2,0-0.3,0-0.5
		c0-2-1.7-4.2-4.6-5.9c-3.4-2-8.2-3.1-13.2-3.1c-4.9,0-9.8,1.1-13.2,3.1c-2.9,1.7-4.5,3.8-4.5,5.8c0,0.2,0,0.3,0,0.5
		C5.5,16.9,7.1,15,9.8,13.4z"/>
	
		<linearGradient id="SVGID_23_" gradientUnits="userSpaceOnUse" x1="30.4764" y1="31.1251" x2="31.5441" y2="31.1251" gradientTransform="matrix(1 0 0 -1 0 46)">
		<stop  offset="0" style="stop-color:#4A3FFF"/>
		<stop  offset="1" style="stop-color:#853FFF"/>
	</linearGradient>
	<path class="st22" d="M30.5,14.5v1.3l1-0.6v-1.4L30.5,14.5z"/>
	
		<linearGradient id="SVGID_24_" gradientUnits="userSpaceOnUse" x1="25.2553" y1="29.7819" x2="27.8586" y2="29.7819" gradientTransform="matrix(1 0 0 -1 0 46)">
		<stop  offset="0" style="stop-color:#4A3FFF"/>
		<stop  offset="1" style="stop-color:#853FFF"/>
	</linearGradient>
	<path class="st23" d="M27.8,15.5c0-0.1-0.1-0.2-0.3-0.3c0,0-0.1,0-0.1-0.1c0,0,0,0-0.1,0c0,0,0,0-0.1,0h0h0h0c0,0,0,0-0.1,0
		s0,0-0.1,0h0c0,0,0,0-0.1,0h0c0,0-0.1,0-0.1,0h0h0c0,0-0.1,0-0.2,0.1c0,0,0,0-0.1,0c-0.1,0-0.2,0.1-0.3,0.1c0,0,0,0-0.1,0
		c0,0,0,0,0,0c-0.1,0-0.1,0.1-0.2,0.1c0,0,0,0,0,0c0,0-0.1,0.1-0.2,0.1c0,0-0.1,0.1-0.1,0.1s0,0,0,0c0,0,0,0,0,0c0,0,0,0,0,0v0
		c0,0,0,0,0,0v0v1.4c0,0,0,0,0-0.1c0,0,0,0,0,0c0,0,0,0,0,0c0,0,0,0,0,0c0,0,0,0,0,0c0,0,0,0,0,0c0,0,0-0.1,0.1-0.1l0,0
		c0,0,0.1-0.1,0.2-0.1c0,0,0,0,0,0c0,0,0.1-0.1,0.2-0.1c0,0,0.1,0,0.1-0.1c0.1,0,0.2-0.1,0.3-0.1c0,0,0,0,0.1,0c0,0,0.1,0,0.2-0.1
		c0,0,0,0,0.1,0c0,0,0.1,0,0.1,0c0,0,0.1,0,0.1,0c0,0,0.1,0,0.2,0c0,0,0.1,0,0.2,0c0,0,0.1,0,0.2,0c0,0,0.1,0,0.2,0.1
		c0.1,0,0.2,0.1,0.2,0.2c0,0,0.1,0.1,0.1,0.2L27.8,15.5z"/>
	
		<linearGradient id="SVGID_25_" gradientUnits="userSpaceOnUse" x1="29.569" y1="27.8317" x2="31.7696" y2="27.8317" gradientTransform="matrix(1 0 0 -1 0 46)">
		<stop  offset="0" style="stop-color:#7583FF"/>
		<stop  offset="1" style="stop-color:#DBDFFF"/>
	</linearGradient>
	<path class="st24" d="M31.8,16.4c0,0.1,0,0.1,0,0.2c0,0,0,0,0,0.1c0,0,0,0.1,0,0.1c0,0,0,0.1,0,0.1c0,0,0,0.1,0,0.1
		c0,0,0,0.1-0.1,0.1c0,0,0,0.1-0.1,0.1l0,0c0,0-0.1,0.1-0.2,0.2c0,0,0,0,0,0c-0.1,0-0.1,0.1-0.2,0.2l0,0c-0.1,0-0.2,0.1-0.3,0.2
		c-0.1,0.1-0.2,0.1-0.3,0.2c-0.1,0-0.2,0.1-0.3,0.1c-0.1,0-0.3,0.1-0.4,0.2v1.4c0.3-0.1,0.5-0.3,0.6-0.3c0,0,0.1,0,0.1-0.1
		c0.1,0,0.2-0.1,0.2-0.1c0.1,0,0.2-0.1,0.3-0.2l0,0c0.1,0,0.2-0.1,0.2-0.2c0,0,0,0,0,0c0,0,0.1-0.1,0.2-0.2l0,0l0,0l0,0
		c0,0,0-0.1,0.1-0.1l0,0c0,0,0,0,0-0.1c0,0,0-0.1,0-0.1s0,0,0,0c0,0,0,0,0-0.1c0,0,0,0,0-0.1v0c0,0,0-0.1,0-0.2v0v0L31.8,16.4
		C31.8,16.4,31.8,16.4,31.8,16.4z"/>
	
		<linearGradient id="SVGID_26_" gradientUnits="userSpaceOnUse" x1="26.2243" y1="27.7022" x2="29.573" y2="27.7022" gradientTransform="matrix(1 0 0 -1 0 46)">
		<stop  offset="0.6337" style="stop-color:#7986FF"/>
		<stop  offset="0.7834" style="stop-color:#8B97FF"/>
		<stop  offset="1" style="stop-color:#B2BAFF"/>
	</linearGradient>
	<path class="st25" d="M26.2,16.7V18l3.3,1.9v-1.3L26.2,16.7z"/>
	
		<linearGradient id="SVGID_27_" gradientUnits="userSpaceOnUse" x1="20.3901" y1="27.832" x2="21.2783" y2="27.832" gradientTransform="matrix(1 0 0 -1 0 46)">
		<stop  offset="0" style="stop-color:#4A3FFF"/>
		<stop  offset="1" style="stop-color:#853FFF"/>
	</linearGradient>
	<path class="st26" d="M21.3,19v1.4c0-0.2,0-0.5-0.2-0.8c-0.4-1-0.6-1.6-0.7-2c0-0.1,0-0.2,0-0.2V16c0,0.1,0,0.2,0,0.2
		c0.1,0.4,0.3,1,0.7,2C21.2,18.5,21.3,18.8,21.3,19z"/>
	
		<linearGradient id="SVGID_28_" gradientUnits="userSpaceOnUse" x1="17.8525" y1="25.9037" x2="20.3153" y2="25.9037" gradientTransform="matrix(1 0 0 -1 0 46)">
		<stop  offset="0" style="stop-color:#4A3FFF"/>
		<stop  offset="1" style="stop-color:#853FFF"/>
	</linearGradient>
	<path class="st27" d="M19.5,19.1c-0.1,0-0.2,0.1-0.3,0.2c0,0,0,0-0.1,0c0,0-0.1,0.1-0.2,0.1c-0.1,0.1-0.2,0.1-0.3,0.2
		c0,0,0,0-0.1,0c-0.1,0-0.1,0.1-0.2,0.1c0,0,0,0,0,0c0,0-0.1,0.1-0.2,0.1c0,0-0.1,0.1-0.1,0.1l0,0l0,0v0v0v1.4c0,0,0,0,0-0.1
		c0,0,0,0,0-0.1l0,0c0,0,0.1,0,0.1-0.1c0,0,0.1-0.1,0.2-0.1l0,0c0,0,0.1-0.1,0.2-0.1c0,0,0,0,0.1,0c0.1,0,0.2-0.1,0.3-0.2
		c0,0,0.1-0.1,0.2-0.1c0,0,0,0,0.1,0c0.1,0,0.2-0.1,0.3-0.2l0.8-0.5v-1.4L19.5,19.1z"/>
	
		<linearGradient id="SVGID_29_" gradientUnits="userSpaceOnUse" x1="14.1997" y1="24.9288" x2="15.5281" y2="24.9288" gradientTransform="matrix(1 0 0 -1 0 46)">
		<stop  offset="0" style="stop-color:#7583FF"/>
		<stop  offset="1" style="stop-color:#DBDFFF"/>
	</linearGradient>
	<path class="st28" d="M14.2,19.5c0,0,0-0.1,0-0.1v1.4c0,0,0,0.1,0,0.1c0.1,0.7,0.5,1.4,1.3,1.9v-1.4C14.7,20.9,14.3,20.2,14.2,19.5
		z"/>
	
		<linearGradient id="SVGID_30_" gradientUnits="userSpaceOnUse" x1="15.7706" y1="22.6102" x2="17.024" y2="22.6102" gradientTransform="matrix(1 0 0 -1 0 46)">
		<stop  offset="0" style="stop-color:#DBDFFF"/>
		<stop  offset="1" style="stop-color:#7583FF"/>
	</linearGradient>
	<path class="st29" d="M15.8,23.1v1.4l1.3-0.7v-1.4L15.8,23.1z"/>
	
		<linearGradient id="SVGID_31_" gradientUnits="userSpaceOnUse" x1="14.2316" y1="22.6969" x2="15.7745" y2="22.6969" gradientTransform="matrix(1 0 0 -1 0 46)">
		<stop  offset="0" style="stop-color:#DBDFFF"/>
		<stop  offset="1" style="stop-color:#7583FF"/>
	</linearGradient>
	<path class="st30" d="M14.2,22.2v1.4l1.5,0.9v-1.4L14.2,22.2z"/>
	
		<linearGradient id="SVGID_32_" gradientUnits="userSpaceOnUse" x1="15.8811" y1="23.9641" x2="29.3332" y2="31.651" gradientTransform="matrix(1 0 0 -1 0 46)">
		<stop  offset="0" style="stop-color:#FFFFFF"/>
		<stop  offset="1" style="stop-color:#DBDFFF"/>
	</linearGradient>
	<path class="st31" d="M30.5,14.5l1.1-0.6L30,13l-1.1,0.6c-1.3-0.6-2.5-0.9-3.6-0.9c-1.1,0-2.2,0.3-3.2,0.9
		c-0.7,0.4-1.2,0.8-1.4,1.3c-0.3,0.5-0.4,0.9-0.3,1.3c0.1,0.4,0.3,1,0.7,2c0.2,0.6,0.3,1,0,1.2c-0.2,0.3-0.7,0.6-1.4,1
		c-0.3,0.2-0.6,0.3-0.8,0.3c-0.3,0-0.5,0-0.7-0.2c-0.3-0.2-0.3-0.3-0.2-0.5c0.1-0.2,0.6-0.5,1.6-1l0.8-0.5L17,16.7l-0.6,0.4
		c-1.5,0.9-2.2,1.6-2.1,2.4c0.1,0.7,0.5,1.4,1.3,2l-1.3,0.7l1.6,0.9l1.3-0.7c1.3,0.6,2.6,0.8,3.8,0.8c1.3,0,2.5-0.4,3.6-1.1
		c0.7-0.4,1.3-0.9,1.5-1.3c0.3-0.4,0.4-0.8,0.4-1.1c0-0.3-0.2-0.9-0.6-1.7c-0.4-0.9-0.6-1.5-0.6-1.7c0-0.3,0.3-0.5,0.8-0.8
		c0.3-0.2,0.6-0.3,0.9-0.3c0.3,0,0.5,0,0.7,0.1c0.3,0.1,0.3,0.3,0.2,0.4c-0.1,0.2-0.4,0.4-1,0.7l-0.6,0.3l3.3,2
		c0.3-0.1,0.5-0.3,0.6-0.3c1-0.6,1.5-1.2,1.5-1.8C31.8,15.8,31.4,15.2,30.5,14.5z"/>
	
		<linearGradient id="SVGID_33_" gradientUnits="userSpaceOnUse" x1="17.02" y1="23.7766" x2="26.4202" y2="23.7766" gradientTransform="matrix(1 0 0 -1 0 46)">
		<stop  offset="0" style="stop-color:#7583FF"/>
		<stop  offset="1" style="stop-color:#DBDFFF"/>
	</linearGradient>
	<path class="st32" d="M26.4,19.9c0,0.1,0,0.2-0.1,0.3c0,0.1-0.1,0.2-0.1,0.3c0,0.1-0.1,0.2-0.2,0.3c0,0,0,0.1-0.1,0.1
		c0,0,0,0.1-0.1,0.1l0,0c0,0-0.1,0.1-0.1,0.1c0,0,0,0,0,0c0,0-0.1,0.1-0.2,0.2l0,0c0,0-0.1,0.1-0.2,0.1c0,0,0,0-0.1,0.1
		c0,0-0.1,0.1-0.1,0.1c0,0-0.1,0-0.1,0.1c0,0-0.1,0.1-0.2,0.1c-0.1,0-0.1,0.1-0.2,0.1c-0.1,0.1-0.3,0.2-0.4,0.2c0,0-0.1,0-0.1,0.1
		c-0.1,0-0.2,0.1-0.3,0.1c0,0-0.1,0-0.2,0.1c-0.1,0-0.2,0.1-0.3,0.1c0,0-0.1,0-0.2,0.1c-0.1,0-0.2,0-0.3,0.1c-0.1,0-0.2,0-0.3,0.1
		c0,0-0.1,0-0.2,0c-0.1,0-0.2,0-0.3,0.1c0,0-0.1,0-0.1,0c-0.2,0-0.3,0-0.5,0.1c-0.1,0-0.3,0-0.4,0c-0.1,0-0.2,0-0.3,0
		c-0.1,0-0.1,0-0.2,0c-0.1,0-0.2,0-0.3,0c0,0-0.1,0-0.2,0c-0.1,0-0.2,0-0.3,0c0,0-0.1,0-0.2,0s-0.1,0-0.1,0c-0.1,0-0.2,0-0.3,0
		c0,0-0.1,0-0.1,0c-0.1,0-0.3-0.1-0.4-0.1c-0.1,0-0.2,0-0.2-0.1c-0.1,0-0.1,0-0.2,0c-0.1,0-0.2,0-0.3-0.1c0,0-0.1,0-0.2-0.1
		c-0.1,0-0.3-0.1-0.4-0.2v1.4c0.1,0,0.3,0.1,0.3,0.2c0,0,0,0,0,0c0,0,0.1,0,0.2,0.1c0.1,0,0.2,0.1,0.3,0.1c0.1,0,0.1,0,0.2,0
		c0,0,0.1,0,0.2,0c0,0,0,0,0.1,0c0.1,0,0.3,0.1,0.4,0.1c0,0,0.1,0,0.1,0c0,0,0,0,0,0c0.1,0,0.2,0,0.3,0c0,0,0.1,0,0.1,0
		c0,0,0.1,0,0.2,0c0.1,0,0.2,0,0.3,0c0,0,0.1,0,0.2,0c0.1,0,0.2,0,0.3,0h0c0.1,0,0.1,0,0.2,0c0.1,0,0.1,0,0.2,0c0,0,0,0,0.1,0
		c0.1,0,0.3,0,0.3,0h0c0.2,0,0.3,0,0.5-0.1c0,0,0.1,0,0.1,0c0.1,0,0.2,0,0.3-0.1c0,0,0.1,0,0.2,0c0.1,0,0.2,0,0.3-0.1h0
		c0.1,0,0.1,0,0.2-0.1c0,0,0.1,0,0.2-0.1c0.1,0,0.2-0.1,0.3-0.1c0,0,0.1,0,0.2-0.1c0.1,0,0.2-0.1,0.3-0.1c0,0,0.1,0,0.1-0.1
		c0.1-0.1,0.3-0.2,0.4-0.2c0,0,0.1,0,0.1-0.1l0,0c0,0,0.1-0.1,0.2-0.1c0,0,0.1,0,0.1-0.1c0,0,0.1-0.1,0.1-0.1c0,0,0,0,0.1,0
		c0,0,0.1-0.1,0.2-0.1c0,0,0,0,0.1,0c0.1,0,0.1-0.1,0.2-0.2c0,0,0,0,0,0c0,0,0.1-0.1,0.1-0.1l0,0c0,0,0-0.1,0.1-0.1
		c0,0,0-0.1,0.1-0.1c0-0.1,0.1-0.2,0.1-0.2c0-0.1,0.1-0.2,0.1-0.3c0-0.1,0-0.2,0.1-0.2c0-0.1,0-0.1,0-0.2c0,0,0,0,0,0V19.9
		C26.4,19.8,26.4,19.9,26.4,19.9z"/>
	
		<linearGradient id="SVGID_34_" gradientUnits="userSpaceOnUse" x1="22.9885" y1="11.3401" x2="22.9885" y2="23.4148" gradientTransform="matrix(1 0 0 -1 0 46)">
		<stop  offset="0" style="stop-color:#FFFFFF"/>
		<stop  offset="1" style="stop-color:#FFFFFF;stop-opacity:0"/>
	</linearGradient>
	<path class="st33" d="M8.3,28.5c8.1,4.9,21.4,4.9,29.5,0c4-2.5,6.1-5.7,6.1-8.9v-0.1c0-0.1,0-0.1,0-0.2c0,0,0,0.1,0,0.1
		c0,0.1,0,0.2,0,0.3c0,0.1,0,0.2,0,0.3c0,0.1,0,0.2,0,0.3c0,0.1,0,0.2,0,0.3c0,0.1,0,0.2-0.1,0.3c0,0.1,0,0.2-0.1,0.3
		c0,0.1,0,0.2-0.1,0.3c0,0.1-0.1,0.2-0.1,0.3c0,0.1-0.1,0.2-0.1,0.3c0,0.1-0.1,0.2-0.1,0.3c0,0.1-0.1,0.2-0.2,0.3
		c0,0.1-0.1,0.2-0.1,0.3c-0.1,0.1-0.1,0.3-0.2,0.4c0,0.1-0.1,0.1-0.1,0.2c-0.1,0.1-0.2,0.3-0.3,0.4c0,0-0.1,0.1-0.1,0.2
		c0,0,0,0-0.1,0.1c-0.1,0.1-0.2,0.3-0.3,0.4c0,0,0,0.1-0.1,0.1c-0.1,0.2-0.3,0.3-0.4,0.4c0,0,0,0-0.1,0.1c-0.1,0.1-0.2,0.2-0.3,0.3
		c-0.1,0.1-0.2,0.2-0.3,0.3c-0.1,0.1-0.2,0.2-0.3,0.3c-0.1,0.1-0.2,0.2-0.3,0.3c-0.1,0.1-0.2,0.2-0.3,0.2c-0.1,0.1-0.2,0.2-0.3,0.3
		c-0.1,0.1-0.2,0.1-0.3,0.2c-0.1,0.1-0.3,0.2-0.4,0.3c-0.2,0.1-0.3,0.2-0.5,0.3c-0.3,0.2-0.6,0.3-1,0.5c-0.1,0-0.2,0.1-0.3,0.1
		c-0.3,0.1-0.5,0.3-0.8,0.3c-0.1,0-0.2,0.1-0.3,0.1c-0.3,0.1-0.7,0.3-1,0.4c0,0-0.1,0-0.2,0.1c-0.3,0.1-0.6,0.2-0.9,0.3
		c-0.1,0-0.3,0.1-0.4,0.1c-0.2,0-0.3,0.1-0.5,0.2c-0.1,0-0.3,0.1-0.4,0.1c-0.2,0-0.3,0.1-0.5,0.1C31.4,30,31.2,30,31,30
		c-0.2,0-0.3,0.1-0.5,0.1c-0.1,0-0.3,0.1-0.4,0.1c-0.2,0-0.3,0.1-0.6,0.1c-0.1,0-0.3,0-0.4,0.1c-0.4,0.1-0.8,0.1-1.2,0.2
		c0,0-0.1,0-0.2,0c-0.3,0-0.7,0.1-1,0.1c-0.1,0-0.3,0-0.4,0c-0.2,0-0.4,0-0.6,0c-0.1,0-0.3,0-0.4,0c-0.2,0-0.5,0-0.7,0
		c-0.1,0-0.3,0-0.4,0c-0.2,0-0.4,0-0.6,0c-0.1,0-0.3,0-0.4,0c-0.2,0-0.4,0-0.6,0c-0.1,0-0.3,0-0.4,0c-0.2,0-0.4,0-0.6,0
		c-0.1,0-0.3,0-0.4,0c-0.2,0-0.4,0-0.6,0c-0.1,0-0.3,0-0.3,0c-0.3,0-0.5,0-0.8-0.1c-0.1,0-0.1,0-0.2,0c-0.3,0-0.6-0.1-1-0.1
		c0,0-0.1,0-0.2,0c-0.3,0-0.6-0.1-0.8-0.1c-0.1,0-0.2,0-0.3-0.1c-0.2,0-0.4-0.1-0.7-0.1c-0.1,0-0.2,0-0.3-0.1
		c-0.2,0-0.5-0.1-0.7-0.2c-0.1,0-0.3,0-0.4-0.1c-0.2,0-0.4-0.1-0.7-0.2c-0.1,0-0.2-0.1-0.3-0.1c-0.3-0.1-0.6-0.2-1-0.3
		c0,0-0.1,0-0.2,0c-0.4-0.1-0.7-0.3-1.1-0.4c-0.1,0-0.3-0.1-0.4-0.2c-0.1,0-0.2-0.1-0.3-0.1c-0.2-0.1-0.3-0.1-0.5-0.2
		c-0.1,0-0.2-0.1-0.3-0.1C9.6,28,9.5,28,9.3,27.9c-0.1,0-0.2-0.1-0.3-0.1c-0.3-0.1-0.5-0.3-0.7-0.4c-4-2.3-6-5.3-6.2-8.3
		C2.1,22.5,4.1,25.9,8.3,28.5z"/>
	
		<linearGradient id="SVGID_35_" gradientUnits="userSpaceOnUse" x1="41.132" y1="21.1632" x2="41.2451" y2="15.398" gradientTransform="matrix(1 0 0 -1 0 46)">
		<stop  offset="0" style="stop-color:#722AFF;stop-opacity:0"/>
		<stop  offset="1" style="stop-color:#A06AFF"/>
	</linearGradient>
	<path class="st34" d="M41.5,24.5v5.8c0,0-0.1,0.1-0.1,0.1c-0.1,0.2-0.3,0.3-0.4,0.4c0,0,0,0-0.1,0.1v-5.8l0,0c0,0,0,0,0.1-0.1
		C41.1,24.9,41.3,24.8,41.5,24.5C41.4,24.6,41.4,24.6,41.5,24.5z"/>
	
		<linearGradient id="SVGID_36_" gradientUnits="userSpaceOnUse" x1="37.0615" y1="18.035" x2="37.1691" y2="12.5453" gradientTransform="matrix(1 0 0 -1 0 46)">
		<stop  offset="0" style="stop-color:#722AFF;stop-opacity:0"/>
		<stop  offset="1" style="stop-color:#A06AFF"/>
	</linearGradient>
	<path class="st35" d="M36.8,28v5.8c0.2-0.1,0.4-0.2,0.6-0.3v-5.8L36.8,28z"/>
	
		<linearGradient id="SVGID_37_" gradientUnits="userSpaceOnUse" x1="8.8069" y1="24.3359" x2="50.4846" y2="24.3359" gradientTransform="matrix(1 0 0 -1 0 46)">
		<stop  offset="0" style="stop-color:#3922AA"/>
		<stop  offset="1" style="stop-color:#7F3DFF"/>
	</linearGradient>
	<path class="st36" d="M50.5,12.9l0,5.8c0,0,0,0.1,0,0.2c0,0,0,0.1,0,0.2c0,0.1,0,0.2,0,0.3c0,0.1,0,0.2,0,0.3c0,0.1,0,0.2,0,0.3
		c0,0,0,0.1,0,0.1c0,0,0,0.1,0,0.2c0,0.1,0,0.2-0.1,0.3c0,0.1,0,0.2-0.1,0.3c0,0.1-0.1,0.2-0.1,0.3c0,0,0,0.1,0,0.1c0,0,0,0.1,0,0.1
		c0,0.1-0.1,0.2-0.1,0.3c0,0.1-0.1,0.2-0.1,0.3c0,0.1-0.1,0.2-0.2,0.3c0,0,0,0.1-0.1,0.2c0,0,0,0.1-0.1,0.1
		c-0.1,0.1-0.1,0.3-0.2,0.4c0,0.1-0.1,0.2-0.1,0.2c-0.1,0.1-0.2,0.3-0.3,0.4c0,0-0.1,0.1-0.1,0.1l0,0c0,0,0,0-0.1,0.1
		c-0.1,0.1-0.2,0.3-0.3,0.4c0,0-0.1,0.1-0.1,0.1c-0.1,0.2-0.3,0.3-0.4,0.4c0,0,0,0-0.1,0.1c-0.1,0.1-0.1,0.1-0.2,0.2
		c0,0-0.1,0.1-0.1,0.1c-0.1,0.1-0.2,0.2-0.3,0.3c-0.1,0.1-0.2,0.2-0.3,0.2c-0.1,0.1-0.2,0.2-0.3,0.3c-0.1,0.1-0.2,0.2-0.3,0.2
		c-0.1,0.1-0.2,0.2-0.3,0.3c-0.1,0.1-0.2,0.2-0.3,0.2c-0.1,0.1-0.3,0.2-0.4,0.2c-0.1,0-0.2,0.1-0.2,0.1c-0.1,0-0.2,0.1-0.3,0.1
		c-0.1,0-0.2,0.1-0.3,0.2c-0.2,0.1-0.4,0.2-0.6,0.3c-0.1,0-0.2,0.1-0.3,0.1c-0.3,0.1-0.5,0.3-0.8,0.3c-0.1,0-0.2,0.1-0.3,0.1
		c-0.3,0.1-0.7,0.3-1,0.4c0,0-0.1,0-0.2,0.1c-0.3,0.1-0.6,0.2-0.9,0.3c0,0-0.1,0-0.2,0c-0.1,0-0.1,0-0.2,0.1c-0.2,0-0.3,0.1-0.5,0.2
		c-0.1,0-0.3,0.1-0.4,0.1c-0.2,0-0.3,0.1-0.5,0.1c-0.1,0-0.3,0.1-0.4,0.1c-0.2,0-0.3,0.1-0.5,0.1c-0.1,0-0.3,0-0.4,0.1
		c-0.2,0-0.3,0.1-0.6,0.1c-0.1,0-0.2,0-0.3,0c0,0-0.1,0-0.1,0c-0.4,0.1-0.8,0.1-1.2,0.2c0,0-0.1,0-0.2,0c-0.3,0-0.7,0.1-1,0.1
		c0,0-0.1,0-0.2,0c-0.1,0-0.2,0-0.3,0c-0.2,0-0.4,0-0.6,0c-0.1,0-0.3,0-0.4,0c-0.2,0-0.5,0-0.7,0c-0.1,0-0.2,0-0.3,0h-0.1
		c-0.2,0-0.4,0-0.6,0c-0.1,0-0.3,0-0.4,0c-0.2,0-0.4,0-0.6,0c-0.1,0-0.2,0-0.3,0h0c-0.2,0-0.4,0-0.6,0c-0.1,0-0.3,0-0.4,0
		c-0.2,0-0.4,0-0.6,0c-0.1,0-0.2,0-0.3,0c-0.3,0-0.5,0-0.8-0.1c-0.1,0-0.2,0-0.2,0c-0.3,0-0.7-0.1-1-0.1c0,0-0.1,0-0.1,0
		c-0.3,0-0.6-0.1-0.9-0.1c-0.1,0-0.2,0-0.3,0c-0.2,0-0.4-0.1-0.7-0.1c0,0,0,0-0.1,0c-0.1,0-0.2,0-0.3,0c-0.2,0-0.5-0.1-0.7-0.2
		c-0.1,0-0.3-0.1-0.4-0.1c-0.2,0-0.4-0.1-0.6-0.2c0,0-0.1,0-0.2,0c0,0-0.1,0-0.2,0c-0.3-0.1-0.6-0.2-1-0.3c0,0-0.1,0-0.2,0
		c-0.4-0.1-0.7-0.3-1.1-0.4c0,0-0.1,0-0.1,0c-0.1,0-0.2-0.1-0.3-0.1c-0.1,0-0.2-0.1-0.3-0.1c-0.2-0.1-0.3-0.1-0.5-0.2
		c-0.1,0-0.2-0.1-0.3-0.1c-0.2-0.1-0.3-0.2-0.5-0.3c-0.1,0-0.2-0.1-0.3-0.1c-0.3-0.1-0.5-0.3-0.7-0.4c-4.1-2.4-6.2-5.5-6.2-8.6
		l0-5.5v-0.3c0,0.1,0,0.2,0,0.3c0,0.1,0,0.1,0,0.2c0,0.2,0,0.4,0,0.6c0,0.1,0,0.2,0,0.3c0,0.1,0,0.2,0,0.3c0,0.1,0,0.1,0,0.2
		c0,0.1,0,0.2,0.1,0.3v0c0,0,0,0,0,0.1c0,0.1,0,0.1,0.1,0.2c0,0,0,0,0,0.1c0,0,0,0.1,0,0.1v0c0,0.1,0.1,0.2,0.1,0.3c0,0,0,0,0,0
		c0,0.1,0.1,0.2,0.1,0.3c0,0.1,0.1,0.2,0.1,0.3c0,0.1,0.1,0.2,0.2,0.3c0,0,0.1,0.1,0.1,0.2c0.1,0.1,0.2,0.3,0.3,0.4
		c0,0,0,0.1,0.1,0.1c0,0,0,0.1,0.1,0.1l0,0c0,0,0.1,0.1,0.2,0.2c0.3,0.3,0.6,0.7,0.9,1c0,0,0.1,0.1,0.2,0.2c0.4,0.4,1,0.9,1.5,1.3
		c0.1,0.1,0.2,0.2,0.3,0.2c0.3,0.2,0.6,0.4,1,0.6c0.1,0.1,0.3,0.2,0.4,0.2c0.2,0.1,0.5,0.3,0.7,0.4c0,0,0,0,0,0
		c0.1,0,0.2,0.1,0.3,0.1c0.1,0,0.2,0.1,0.3,0.1c0.1,0,0.2,0.1,0.3,0.1c0,0,0,0,0,0c0.1,0,0.2,0.1,0.3,0.1c0.2,0.1,0.3,0.1,0.5,0.2
		c0,0,0.1,0,0.1,0c0.1,0,0.1,0,0.2,0.1c0.1,0,0.3,0.1,0.4,0.2c0,0,0.1,0,0.2,0c0.3,0.1,0.5,0.2,0.8,0.3c0,0,0.1,0,0.1,0
		c0,0,0.1,0,0.2,0c0.2,0.1,0.4,0.1,0.7,0.2c0.1,0,0.2,0,0.3,0.1c0.1,0,0.2,0.1,0.3,0.1c0,0,0,0,0.1,0c0.1,0,0.3,0.1,0.3,0.1
		c0,0,0.1,0,0.2,0c0.1,0,0.3,0,0.4,0.1c0.1,0,0.2,0,0.3,0.1c0.1,0,0.3,0,0.3,0.1c0.1,0,0.2,0,0.3,0.1c0,0,0,0,0.1,0
		c0.2,0,0.4,0.1,0.6,0.1c0.1,0,0.2,0,0.3,0.1c0.3,0,0.6,0.1,0.8,0.1c0,0,0.1,0,0.2,0c0.3,0,0.7,0.1,1,0.1c0.1,0,0.2,0,0.2,0
		c0.3,0,0.5,0,0.8,0.1c0.1,0,0.3,0,0.4,0c0.2,0,0.4,0,0.6,0c0.1,0,0.3,0,0.4,0c0.2,0,0.4,0,0.6,0h0c0.1,0,0.3,0,0.4,0
		c0.2,0,0.3,0,0.5,0h0.2c0.1,0,0.3,0,0.4,0c0.1,0,0.2,0,0.3,0c0.1,0,0.2,0,0.3,0c0.1,0,0.3,0,0.4,0c0.2,0,0.3,0,0.5,0
		c0.1,0,0.1,0,0.2,0c0.1,0,0.3,0,0.4,0c0.1,0,0.2,0,0.3,0c0.1,0,0.2,0,0.3,0c0.1,0,0.3,0,0.4,0c0,0,0.1,0,0.2,0c0.1,0,0.2,0,0.3,0
		c0.2,0,0.3,0,0.5,0c0,0,0.1,0,0.2,0h0c0.3,0,0.7-0.1,1-0.2c0,0,0.1,0,0.2,0c0.1,0,0.3,0,0.4-0.1c0.1,0,0.2,0,0.3,0
		c0.1,0,0.2,0,0.3,0c0.1,0,0.3-0.1,0.4-0.1c0.1,0,0.1,0,0.2,0s0.2,0,0.3-0.1c0.1,0,0.3-0.1,0.4-0.1c0,0,0.1,0,0.1,0
		c0.1,0,0.2,0,0.3-0.1c0,0,0,0,0.1,0c0.1,0,0.3-0.1,0.4-0.1c0.1,0,0.2,0,0.3-0.1c0.1,0,0.2,0,0.3-0.1c0.1,0,0.3-0.1,0.4-0.1
		c0,0,0,0,0.1,0c0.1,0,0.3-0.1,0.3-0.1c0.2,0,0.3-0.1,0.4-0.2c0,0,0.1,0,0.2-0.1c0,0,0,0,0,0c0.2-0.1,0.4-0.2,0.7-0.3
		c0.1,0,0.2-0.1,0.3-0.1c0.1,0,0.2-0.1,0.3-0.1c0.3-0.1,0.5-0.3,0.8-0.3c0.1,0,0.2-0.1,0.3-0.1c0.1,0,0.3-0.1,0.4-0.2
		c0.1,0,0.1-0.1,0.2-0.1c0.1,0,0.2-0.1,0.3-0.2c0.1,0,0.2-0.1,0.3-0.1c0.2-0.1,0.3-0.2,0.5-0.3c0,0,0,0,0.1,0
		c0.1-0.1,0.2-0.2,0.3-0.2c0.1-0.1,0.3-0.2,0.3-0.3c0.1-0.1,0.2-0.2,0.3-0.2c0.1-0.1,0.2-0.2,0.3-0.3c0.1-0.1,0.2-0.2,0.3-0.3
		c0.1-0.1,0.2-0.2,0.3-0.3c0.1-0.1,0.2-0.2,0.3-0.3l0,0c0,0,0,0,0.1-0.1c0.1-0.2,0.3-0.3,0.4-0.5c0,0,0,0,0.1-0.1c0,0,0,0,0,0
		c0.1-0.1,0.2-0.3,0.3-0.4c0,0,0,0,0.1-0.1c0-0.1,0.1-0.1,0.2-0.2c0.1-0.1,0.2-0.3,0.3-0.4c0,0,0-0.1,0.1-0.1c0,0,0.1-0.1,0.1-0.2
		c0.1-0.1,0.1-0.2,0.2-0.3c0,0,0-0.1,0.1-0.2c0,0,0.1-0.1,0.1-0.2c0-0.1,0.1-0.2,0.1-0.2c0-0.1,0.1-0.2,0.1-0.3
		c0-0.1,0.1-0.2,0.1-0.3c0-0.1,0.1-0.2,0.1-0.3c0-0.1,0.1-0.2,0.1-0.3c0-0.1,0-0.2,0.1-0.3v0c0-0.1,0-0.2,0.1-0.3c0-0.1,0-0.2,0-0.3
		c0-0.1,0-0.2,0-0.3c0-0.1,0-0.1,0-0.2c0,0,0-0.1,0-0.1c0-0.1,0-0.2,0-0.3c0,0,0-0.1,0-0.1C50.5,13,50.5,13,50.5,12.9z"/>
	
		<linearGradient id="SVGID_38_" gradientUnits="userSpaceOnUse" x1="29.6566" y1="20.9431" x2="29.6566" y2="45.4143" gradientTransform="matrix(1 0 0 -1 0 46)">
		<stop  offset="0" style="stop-color:#DBDFFF"/>
		<stop  offset="0.7834" style="stop-color:#8B97FF"/>
		<stop  offset="1" style="stop-color:#B2BAFF"/>
	</linearGradient>
	<path class="st37" d="M44.3,4.3c-8.1-4.7-21.4-4.7-29.5,0C6.8,9,6.8,16.6,15,21.4c8.1,4.7,21.4,4.7,29.5,0S52.5,9,44.3,4.3z"/>
	
		<linearGradient id="SVGID_39_" gradientUnits="userSpaceOnUse" x1="29.6784" y1="43.4119" x2="29.6784" y2="22.9013" gradientTransform="matrix(1 0 0 -1 0 46)">
		<stop  offset="0" style="stop-color:#8E52FF"/>
		<stop  offset="1" style="stop-color:#D6BFFF"/>
	</linearGradient>
	<path class="st38" d="M29.7,22.1c-4.9,0-9.8-1.1-13.2-3.1c-2.9-1.7-4.6-3.8-4.6-5.9c0-2,1.6-4.2,4.5-5.8c3.4-2,8.2-3.1,13.2-3.1
		c4.9,0,9.7,1.1,13.2,3.1c2.9,1.7,4.6,3.8,4.6,5.9c0,2-1.6,4.2-4.5,5.8C39.5,21,34.7,22.1,29.7,22.1z"/>
	
		<linearGradient id="SVGID_40_" gradientUnits="userSpaceOnUse" x1="11.9336" y1="38.0506" x2="47.4233" y2="38.0506" gradientTransform="matrix(1 0 0 -1 0 46)">
		<stop  offset="0" style="stop-color:#2E007F"/>
		<stop  offset="1" style="stop-color:#7052C8"/>
	</linearGradient>
	<path class="st39" d="M16.4,7.3c3.4-2,8.2-3.1,13.2-3.1c4.9,0,9.7,1.1,13.2,3.1c2.7,1.6,4.3,3.5,4.5,5.4c0-0.2,0-0.3,0-0.5
		c0-2-1.7-4.2-4.6-5.9c-3.4-2-8.2-3.1-13.2-3.1c-4.9,0-9.8,1.1-13.2,3.1c-2.9,1.6-4.5,3.8-4.5,5.8c0,0.2,0,0.3,0,0.5
		C12.2,10.7,13.8,8.8,16.4,7.3z"/>
	
		<linearGradient id="SVGID_41_" gradientUnits="userSpaceOnUse" x1="37.1358" y1="37.2489" x2="38.2036" y2="37.2489" gradientTransform="matrix(1 0 0 -1 0 46)">
		<stop  offset="0" style="stop-color:#4A3FFF"/>
		<stop  offset="1" style="stop-color:#853FFF"/>
	</linearGradient>
	<path class="st40" d="M37.2,8.4v1.4l1-0.6V7.8L37.2,8.4z"/>
	
		<linearGradient id="SVGID_42_" gradientUnits="userSpaceOnUse" x1="31.9142" y1="35.9489" x2="34.5176" y2="35.9489" gradientTransform="matrix(1 0 0 -1 0 46)">
		<stop  offset="0" style="stop-color:#4A3FFF"/>
		<stop  offset="1" style="stop-color:#853FFF"/>
	</linearGradient>
	<path class="st41" d="M34.5,9.3c0-0.1-0.1-0.2-0.3-0.3c0,0-0.1,0-0.1-0.1c0,0,0,0-0.1,0c0,0,0,0-0.1,0h0h0h0c0,0,0,0-0.1,0
		s0,0-0.1,0h0c0,0,0,0-0.1,0h0c0,0-0.1,0-0.1,0h0h0c0,0-0.1,0-0.2,0.1c0,0,0,0-0.1,0c-0.1,0-0.2,0.1-0.3,0.1c0,0,0,0-0.1,0
		c0,0,0,0,0,0c-0.1,0-0.1,0.1-0.2,0.1c0,0,0,0,0,0c0,0-0.1,0.1-0.2,0.1c0,0-0.1,0.1-0.1,0.1s0,0,0,0c0,0,0,0,0,0c0,0,0,0,0,0v0
		c0,0,0,0,0,0v0v1.4c0,0,0,0,0-0.1c0,0,0,0,0,0c0,0,0,0,0,0c0,0,0,0,0,0c0,0,0,0,0,0c0,0,0,0,0,0c0,0,0-0.1,0.1-0.1l0,0
		c0,0,0.1-0.1,0.2-0.1c0,0,0,0,0,0c0,0,0.1-0.1,0.2-0.1c0,0,0.1,0,0.1-0.1c0.1,0,0.2-0.1,0.3-0.1c0,0,0,0,0.1,0c0,0,0.1,0,0.2-0.1
		c0,0,0,0,0.1,0c0,0,0.1,0,0.1,0c0,0,0.1,0,0.1,0c0,0,0.1,0,0.2,0c0,0,0.1,0,0.2,0c0,0,0.1,0,0.2,0c0,0,0.1,0,0.2,0.1
		c0.1,0,0.2,0.1,0.2,0.2c0,0,0.1,0.1,0.1,0.2L34.5,9.3z"/>
	
		<linearGradient id="SVGID_43_" gradientUnits="userSpaceOnUse" x1="36.2284" y1="33.9557" x2="38.429" y2="33.9557" gradientTransform="matrix(1 0 0 -1 0 46)">
		<stop  offset="0" style="stop-color:#7583FF"/>
		<stop  offset="1" style="stop-color:#DBDFFF"/>
	</linearGradient>
	<path class="st42" d="M38.4,10.3c0,0.1,0,0.1,0,0.2c0,0,0,0,0,0.1c0,0,0,0.1,0,0.1c0,0,0,0.1,0,0.1c0,0,0,0.1,0,0.1
		c0,0,0,0.1-0.1,0.1c0,0,0,0.1-0.1,0.1l0,0c0,0-0.1,0.1-0.2,0.2c0,0,0,0,0,0c-0.1,0-0.1,0.1-0.2,0.2l0,0c-0.1,0-0.2,0.1-0.3,0.2
		C37.2,12,37,12,36.9,12.1c-0.1,0-0.2,0.1-0.3,0.1c-0.1,0-0.3,0.1-0.4,0.2v1.4c0.3-0.1,0.5-0.3,0.7-0.3c0,0,0.1,0,0.1-0.1
		c0.1,0,0.2-0.1,0.2-0.1c0.1,0,0.2-0.1,0.3-0.2l0,0c0.1,0,0.2-0.1,0.2-0.2c0,0,0,0,0,0c0,0,0.1-0.1,0.2-0.2l0,0l0,0l0,0
		c0,0,0-0.1,0.1-0.1l0,0c0,0,0,0,0-0.1c0,0,0-0.1,0-0.1s0,0,0,0c0,0,0,0,0-0.1c0,0,0,0,0-0.1v0c0,0,0-0.1,0-0.2v0v0L38.4,10.3
		C38.4,10.3,38.4,10.3,38.4,10.3z"/>
	
		<linearGradient id="SVGID_44_" gradientUnits="userSpaceOnUse" x1="32.8838" y1="33.8257" x2="36.2323" y2="33.8257" gradientTransform="matrix(1 0 0 -1 0 46)">
		<stop  offset="0.6337" style="stop-color:#7986FF"/>
		<stop  offset="0.7834" style="stop-color:#8B97FF"/>
		<stop  offset="1" style="stop-color:#B2BAFF"/>
	</linearGradient>
	<path class="st43" d="M32.9,10.5l0,1.4l3.4,1.9v-1.4L32.9,10.5z"/>
	
		<linearGradient id="SVGID_45_" gradientUnits="userSpaceOnUse" x1="27.0485" y1="33.9557" x2="27.9368" y2="33.9557" gradientTransform="matrix(1 0 0 -1 0 46)">
		<stop  offset="0" style="stop-color:#4A3FFF"/>
		<stop  offset="1" style="stop-color:#853FFF"/>
	</linearGradient>
	<path class="st44" d="M27.9,12.9v1.4c0-0.2,0-0.5-0.2-0.8c-0.4-1-0.6-1.6-0.7-2c0-0.1,0-0.2,0-0.2V9.8c0,0.1,0,0.2,0,0.2
		c0.1,0.4,0.3,1,0.7,2C27.9,12.4,27.9,12.7,27.9,12.9z"/>
	
		<linearGradient id="SVGID_46_" gradientUnits="userSpaceOnUse" x1="24.5114" y1="32.0272" x2="26.9743" y2="32.0272" gradientTransform="matrix(1 0 0 -1 0 46)">
		<stop  offset="0" style="stop-color:#4A3FFF"/>
		<stop  offset="1" style="stop-color:#853FFF"/>
	</linearGradient>
	<path class="st45" d="M26.1,13c-0.1,0-0.2,0.1-0.3,0.2c0,0,0,0-0.1,0c0,0-0.1,0.1-0.2,0.1c-0.1,0.1-0.2,0.1-0.3,0.2c0,0,0,0-0.1,0
		c-0.1,0-0.1,0.1-0.2,0.1c0,0,0,0,0,0c0,0-0.1,0.1-0.2,0.1c0,0-0.1,0.1-0.1,0.1l0,0l0,0v0v0v1.4c0,0,0,0,0-0.1c0,0,0,0,0-0.1l0,0
		c0,0,0.1,0,0.1-0.1c0,0,0.1-0.1,0.2-0.1l0,0c0,0,0.1-0.1,0.2-0.1c0,0,0,0,0.1,0c0.1,0,0.2-0.1,0.3-0.2c0,0,0.1-0.1,0.2-0.1
		c0,0,0,0,0.1,0c0.1,0,0.2-0.1,0.3-0.2l0.8-0.5v-1.4L26.1,13z"/>
	
		<linearGradient id="SVGID_47_" gradientUnits="userSpaceOnUse" x1="20.8598" y1="31.0523" x2="22.1882" y2="31.0523" gradientTransform="matrix(1 0 0 -1 0 46)">
		<stop  offset="0" style="stop-color:#7583FF"/>
		<stop  offset="1" style="stop-color:#DBDFFF"/>
	</linearGradient>
	<path class="st46" d="M20.9,13.3c0,0,0-0.1,0-0.1v1.4c0,0,0,0.1,0,0.1c0.1,0.7,0.5,1.4,1.3,1.9v-1.4C21.4,14.7,20.9,14.1,20.9,13.3
		z"/>
	
		<linearGradient id="SVGID_48_" gradientUnits="userSpaceOnUse" x1="22.4296" y1="28.7559" x2="23.683" y2="28.7559" gradientTransform="matrix(1 0 0 -1 0 46)">
		<stop  offset="0" style="stop-color:#DBDFFF"/>
		<stop  offset="1" style="stop-color:#7583FF"/>
	</linearGradient>
	<path class="st47" d="M22.4,16.9v1.3l1.3-0.7v-1.4L22.4,16.9z"/>
	
		<linearGradient id="SVGID_49_" gradientUnits="userSpaceOnUse" x1="20.8904" y1="28.8425" x2="22.4335" y2="28.8425" gradientTransform="matrix(1 0 0 -1 0 46)">
		<stop  offset="0" style="stop-color:#DBDFFF"/>
		<stop  offset="1" style="stop-color:#7583FF"/>
	</linearGradient>
	<path class="st48" d="M20.9,16v1.4l1.5,0.9v-1.3L20.9,16z"/>
	
		<linearGradient id="SVGID_50_" gradientUnits="userSpaceOnUse" x1="22.5234" y1="30.1267" x2="35.9755" y2="37.8137" gradientTransform="matrix(1 0 0 -1 0 46)">
		<stop  offset="0" style="stop-color:#FFFFFF"/>
		<stop  offset="1" style="stop-color:#DBDFFF"/>
	</linearGradient>
	<path class="st49" d="M37.2,8.4l1.1-0.6l-1.6-0.9l-1.1,0.6c-1.3-0.6-2.5-0.9-3.6-0.9c-1.1,0-2.2,0.3-3.2,0.9
		c-0.7,0.4-1.2,0.8-1.4,1.3c-0.3,0.5-0.4,0.9-0.3,1.3c0.1,0.4,0.3,1,0.7,2c0.2,0.6,0.3,1,0,1.2c-0.2,0.3-0.7,0.6-1.4,1
		c-0.3,0.2-0.6,0.3-0.8,0.3c-0.3,0-0.5,0-0.7-0.2c-0.3-0.2-0.3-0.3-0.2-0.5c0.1-0.2,0.6-0.5,1.6-1l0.8-0.5l-3.3-1.9L23,10.9
		c-1.5,0.9-2.2,1.6-2.1,2.4c0.1,0.7,0.5,1.4,1.3,1.9l-1.3,0.7l1.6,0.9l1.3-0.7c1.3,0.6,2.6,0.8,3.8,0.8c1.3,0,2.5-0.4,3.6-1.1
		c0.7-0.4,1.3-0.9,1.5-1.3c0.3-0.4,0.4-0.8,0.4-1.1c0-0.3-0.2-0.9-0.6-1.7c-0.4-0.9-0.6-1.5-0.6-1.7c0-0.3,0.3-0.5,0.8-0.8
		C33,9,33.3,8.8,33.6,8.8c0.3,0,0.5,0,0.7,0.1c0.3,0.1,0.3,0.3,0.2,0.4c-0.1,0.2-0.4,0.4-1,0.7l-0.6,0.3l3.3,2
		c0.3-0.1,0.5-0.3,0.7-0.3c1-0.6,1.5-1.2,1.5-1.8C38.5,9.7,38.1,9.1,37.2,8.4z"/>
	
		<linearGradient id="SVGID_51_" gradientUnits="userSpaceOnUse" x1="23.6793" y1="30.0127" x2="33.0796" y2="30.0127" gradientTransform="matrix(1 0 0 -1 0 46)">
		<stop  offset="0" style="stop-color:#7583FF"/>
		<stop  offset="1" style="stop-color:#DBDFFF"/>
	</linearGradient>
	<path class="st50" d="M33,13.8c0,0.1,0,0.2-0.1,0.3c0,0.1-0.1,0.2-0.1,0.3c0,0.1-0.1,0.2-0.2,0.3c0,0,0,0.1-0.1,0.1
		c0,0,0,0.1-0.1,0.1l0,0c0,0-0.1,0.1-0.1,0.1c0,0,0,0,0,0c0,0-0.1,0.1-0.2,0.2l0,0c0,0-0.1,0.1-0.2,0.1c0,0,0,0-0.1,0.1
		c0,0-0.1,0.1-0.1,0.1c0,0-0.1,0-0.1,0.1c0,0-0.1,0.1-0.2,0.1c-0.1,0-0.1,0.1-0.2,0.1c-0.1,0.1-0.3,0.2-0.4,0.2c0,0-0.1,0-0.1,0.1
		c-0.1,0-0.2,0.1-0.3,0.1c0,0-0.1,0-0.2,0.1c-0.1,0-0.2,0.1-0.3,0.1c0,0-0.1,0-0.2,0.1c-0.1,0-0.2,0-0.3,0.1c-0.1,0-0.2,0-0.3,0.1
		c0,0-0.1,0-0.2,0c-0.1-0.1-0.3,0-0.3,0c0,0-0.1,0-0.1,0c-0.2,0-0.3,0-0.5,0.1c-0.1,0-0.3,0-0.4,0c-0.1,0-0.2,0-0.3,0
		c-0.1,0-0.1,0-0.2,0c-0.1,0-0.2,0-0.3,0c0,0-0.1,0-0.2,0c-0.1,0-0.2,0-0.3,0c0,0-0.1,0-0.2,0c0,0-0.1,0-0.1,0c-0.1,0-0.2,0-0.3,0
		c0,0-0.1,0-0.1,0c-0.1,0-0.3-0.1-0.4-0.1c-0.1,0-0.2,0-0.2-0.1c-0.1,0-0.1,0-0.2,0c-0.1,0-0.2,0-0.3-0.1c0,0-0.1,0-0.2-0.1
		c-0.1,0-0.3-0.1-0.4-0.2v1.4c0.1,0,0.3,0.1,0.3,0.2c0,0,0,0,0,0c0,0,0.1,0,0.2,0.1c0.1,0,0.2,0.1,0.3,0.1c0.1,0,0.1,0,0.2,0
		c0,0,0.1,0,0.2,0c0,0,0,0,0.1,0c0.1,0,0.3,0.1,0.4,0.1c0,0,0.1,0,0.1,0c0,0,0,0,0,0c0.1,0,0.2,0,0.3,0c0,0,0.1,0,0.1,0
		c0,0,0.1,0,0.2,0c0.1,0,0.2,0,0.3,0c0,0,0.1,0,0.2,0c0.1,0,0.2,0,0.3,0h0c0.1,0,0.1,0,0.2,0c0.1,0,0.1,0,0.2,0c0,0,0,0,0.1,0
		c0.1,0,0.3,0,0.3,0h0c0.2,0,0.3,0,0.5-0.1c0,0,0.1,0,0.1,0c0.1,0,0.2,0,0.3-0.1c0,0,0.1,0,0.2,0c0.1,0,0.2,0,0.3-0.1h0
		c0.1,0,0.1,0,0.2-0.1c0,0,0.1,0,0.2-0.1c0.1,0,0.2-0.1,0.3-0.1c0,0,0.1,0,0.2-0.1c0.1,0,0.2-0.1,0.3-0.1c0,0,0.1,0,0.1-0.1
		c0.1-0.1,0.3-0.2,0.4-0.2c0,0,0.1,0,0.1-0.1l0,0c0,0,0.1-0.1,0.2-0.1c0,0,0.1,0,0.1-0.1c0,0,0.1-0.1,0.1-0.1c0,0,0,0,0.1,0
		c0,0,0.1-0.1,0.2-0.1c0,0,0,0,0.1,0c0.1,0,0.1-0.1,0.2-0.2c0,0,0,0,0,0c0,0,0.1-0.1,0.1-0.1l0,0c0,0,0-0.1,0.1-0.1
		c0,0,0-0.1,0.1-0.1c0-0.1,0.1-0.2,0.1-0.2c0-0.1,0.1-0.2,0.1-0.3c0-0.1,0-0.2,0.1-0.2c0-0.1,0-0.1,0-0.2c0,0,0,0,0,0v-1.4
		C33.1,13.6,33.1,13.7,33,13.8z"/>
	
		<linearGradient id="SVGID_52_" gradientUnits="userSpaceOnUse" x1="29.6555" y1="17.4732" x2="29.6555" y2="29.5479" gradientTransform="matrix(1 0 0 -1 0 46)">
		<stop  offset="0" style="stop-color:#FFFFFF"/>
		<stop  offset="1" style="stop-color:#FFFFFF;stop-opacity:0"/>
	</linearGradient>
	<path class="st51" d="M15,22.3c8.1,4.9,21.4,4.9,29.5,0c4-2.5,6.1-5.7,6.1-8.9v-0.1c0-0.1,0-0.1,0-0.2c0,0,0,0.1,0,0.1
		c0,0.1,0,0.2,0,0.3c0,0.1,0,0.2,0,0.3c0,0.1,0,0.2,0,0.3c0,0.1,0,0.2,0,0.3c0,0.1,0,0.2-0.1,0.3c0,0.1,0,0.2-0.1,0.3
		c0,0.1,0,0.2-0.1,0.3c0,0.1-0.1,0.2-0.1,0.3c0,0.1-0.1,0.2-0.1,0.3c0,0.1-0.1,0.2-0.1,0.3c0,0.1-0.1,0.2-0.2,0.3
		c0,0.1-0.1,0.2-0.1,0.3c-0.1,0.1-0.1,0.3-0.2,0.4c0,0.1-0.1,0.1-0.1,0.2c-0.1,0.1-0.2,0.3-0.3,0.4c0,0-0.1,0.1-0.1,0.2
		c0,0,0,0-0.1,0.1c-0.1,0.1-0.2,0.3-0.3,0.4c0,0,0,0.1-0.1,0.1c-0.1,0.2-0.3,0.3-0.4,0.4c0,0,0,0-0.1,0.1c-0.1,0.1-0.2,0.2-0.3,0.3
		c-0.1,0.1-0.2,0.2-0.3,0.3c-0.1,0.1-0.2,0.2-0.3,0.3c-0.1,0.1-0.2,0.2-0.3,0.3c-0.1,0.1-0.2,0.2-0.3,0.2c-0.1,0.1-0.2,0.2-0.3,0.3
		c-0.1,0.1-0.2,0.1-0.3,0.2c-0.1,0.1-0.3,0.2-0.4,0.3c-0.2,0.1-0.3,0.2-0.5,0.3c-0.3,0.2-0.6,0.3-1,0.5c-0.1,0-0.2,0.1-0.3,0.1
		c-0.3,0.1-0.5,0.3-0.8,0.3c-0.1,0-0.2,0.1-0.3,0.1c-0.3,0.1-0.7,0.3-1,0.4c0,0-0.1,0-0.2,0.1c-0.3,0.1-0.6,0.2-0.9,0.3
		c-0.1,0-0.3,0.1-0.4,0.1c-0.2,0-0.3,0.1-0.5,0.2c-0.1,0-0.3,0.1-0.4,0.1c-0.2,0-0.3,0.1-0.5,0.1c-0.1,0-0.3,0.1-0.4,0.1
		c-0.2,0-0.3,0.1-0.5,0.1c-0.1,0-0.3,0.1-0.4,0.1c-0.2,0-0.3,0.1-0.6,0.1c-0.1,0-0.3,0-0.4,0.1c-0.4,0.1-0.8,0.1-1.2,0.2
		c0,0-0.1,0-0.2,0c-0.3,0-0.7,0.1-1,0.1c-0.1,0-0.3,0-0.4,0c-0.2,0-0.4,0-0.6,0c-0.1,0-0.3,0-0.4,0c-0.2,0-0.5,0-0.7,0
		c-0.1,0-0.3,0-0.4,0c-0.2,0-0.4,0-0.6,0c-0.1,0-0.3,0-0.4,0c-0.2,0-0.4,0-0.6,0c-0.1,0-0.3,0-0.4,0c-0.2,0-0.4,0-0.6,0
		c-0.1,0-0.3,0-0.4,0c-0.2,0-0.4,0-0.6,0c-0.1,0-0.3,0-0.3,0c-0.3,0-0.5,0-0.8-0.1c-0.1,0-0.1,0-0.2,0c-0.3,0-0.6-0.1-1-0.1
		c0,0-0.1,0-0.2,0c-0.3,0-0.6-0.1-0.8-0.1c-0.1,0-0.2,0-0.3-0.1c-0.2,0-0.4-0.1-0.6-0.1c-0.1,0-0.2,0-0.3-0.1
		c-0.2,0-0.5-0.1-0.7-0.2c-0.1,0-0.3,0-0.4-0.1c-0.2,0-0.4-0.1-0.6-0.2c-0.1,0-0.2-0.1-0.3-0.1c-0.3-0.1-0.6-0.2-1-0.3
		c0,0-0.1,0-0.2,0c-0.4-0.1-0.7-0.3-1.1-0.4c-0.1,0-0.3-0.1-0.4-0.2c-0.1,0-0.2-0.1-0.3-0.1c-0.2-0.1-0.3-0.1-0.5-0.2
		c-0.1,0-0.2-0.1-0.3-0.1c-0.2-0.1-0.3-0.2-0.5-0.3c-0.1,0-0.2-0.1-0.3-0.1c-0.3-0.1-0.5-0.3-0.7-0.4c-4-2.3-6-5.3-6.2-8.3
		C8.7,16.4,10.8,19.8,15,22.3z"/>
	
		<linearGradient id="SVGID_53_" gradientUnits="userSpaceOnUse" x1="47.7989" y1="27.2965" x2="47.9119" y2="21.5313" gradientTransform="matrix(1 0 0 -1 0 46)">
		<stop  offset="0" style="stop-color:#722AFF;stop-opacity:0"/>
		<stop  offset="1" style="stop-color:#A06AFF"/>
	</linearGradient>
	<path class="st52" d="M48.2,18.4v5.8c0,0-0.1,0.1-0.1,0.1c-0.1,0.2-0.3,0.3-0.4,0.4c0,0,0,0-0.1,0.1v-5.8l0,0c0,0,0,0,0.1-0.1
		C47.8,18.8,48,18.6,48.2,18.4C48.1,18.5,48.1,18.5,48.2,18.4z"/>
	
		<linearGradient id="SVGID_54_" gradientUnits="userSpaceOnUse" x1="43.6853" y1="24.1674" x2="43.7929" y2="18.6777" gradientTransform="matrix(1 0 0 -1 0 46)">
		<stop  offset="0" style="stop-color:#722AFF;stop-opacity:0"/>
		<stop  offset="1" style="stop-color:#A06AFF"/>
	</linearGradient>
	<path class="st53" d="M43.4,21.9v5.8c0.2-0.1,0.4-0.2,0.6-0.3v-5.8L43.4,21.9z"/>
</g>
</svg>
