<svg width="75" height="75" viewBox="0 0 75 75" fill="none" xmlns="http://www.w3.org/2000/svg">
<path d="M60.2112 47.3566L56.6421 46.3877L56.6338 49.5014L60.2029 50.4703L64.4925 51.6379L64.5008 48.5242L60.2112 47.3566Z" fill="url(#paint0_linear)"/>
<path d="M64.6567 46.8262L64.6484 49.9399C64.6484 50.0227 64.6484 50.1055 64.6484 50.18L64.6567 47.0663C64.6484 46.9918 64.6484 46.909 64.6567 46.8262Z" fill="#949494"/>
<path d="M64.6471 47.0752L64.6388 50.1889C64.6222 50.6692 64.5725 51.1578 64.4814 51.6381L64.4897 48.5244C64.5808 48.0441 64.6388 47.5555 64.6471 47.0752Z" fill="#999999"/>
<path d="M25.489 37.875L25.4807 40.9887L19.626 41.4773L19.6343 38.3636L25.489 37.875Z" fill="url(#paint1_linear)"/>
<path d="M50.9559 38.8266C43.9916 34.802 33.0357 34.4873 25.4751 37.8743L25.4668 40.9879C33.0274 37.601 43.975 37.9239 50.9477 41.9403C54.5665 44.0271 56.4629 46.7433 56.6285 49.4926L56.6368 46.3789C56.4711 43.6379 54.5748 40.9217 50.9559 38.8266Z" fill="url(#paint2_linear)"/>
<path d="M50.967 38.8271C44.0026 34.8025 33.0467 34.4878 25.4944 37.8747L19.6396 38.3633L19.7142 34.612C30.4133 29.3949 46.4952 29.7096 56.6064 35.5478C62.7344 39.0838 65.3678 43.8951 64.5065 48.5159L60.2252 47.3483L56.6561 46.3794C56.4739 43.6384 54.5775 40.9222 50.967 38.8271Z" fill="url(#paint3_linear)"/>
<path opacity="0.4" d="M25.4895 37.8746L21.4235 37.6344C20.8935 37.6013 20.438 37.2369 20.2973 36.7235L19.7093 34.6201L19.6348 38.3714L25.4895 37.8746Z" fill="url(#paint4_linear)"/>
<path d="M10 49.7826L10.0083 46.6689C10 50.7515 12.6831 54.8424 18.0658 57.9478C28.0776 63.728 43.9276 64.0923 54.6267 59.0492L54.6185 62.1628C43.9193 67.206 28.0776 66.8416 18.0575 61.0615C12.6748 57.9561 9.99174 53.8652 10 49.7826Z" fill="url(#paint5_linear)"/>
<path d="M54.7848 55.3308L54.6192 59.049C43.9201 64.1005 28.0784 63.7278 18.0583 57.9477C15.3752 56.3991 13.3546 54.6021 12.0131 52.6809C10.2906 50.2297 9.6778 47.5715 10.1581 44.9795L18.0086 47.1243C18.1742 49.8653 20.0706 52.5815 23.6894 54.6766C30.6538 58.7012 41.6096 59.0159 49.162 55.629L54.7848 55.3308Z" fill="url(#paint6_linear)"/>
<path d="M54.7853 55.3311L54.8515 59.2811L54.6279 62.3037V59.0493L54.7853 55.3311Z" fill="url(#paint7_linear)"/>
<path d="M11.7827 50.8756L12.0228 52.6809C10.3004 50.2297 9.68757 47.5715 10.1679 44.9795L18.0183 47.1243L15.4843 46.9421C13.2816 46.7848 11.4928 48.6894 11.7827 50.8756Z" fill="url(#paint8_linear)"/>
<path d="M38.3781 55.835L30.5801 50.3669V28.4707L38.3781 33.9269V55.835Z" fill="url(#paint9_linear)"/>
<path d="M38.376 55.835L46.174 50.3669V28.4707L38.376 33.9269V55.835Z" fill="url(#paint10_linear)"/>
<path d="M38.39 22.9912L30.5801 28.4712L38.3781 33.9393L46.1761 28.4712L38.39 22.9912Z" fill="#EC1C24"/>
<path d="M46.0564 44.6491L23.0547 28.8035L33.3014 14.4795L36.5229 16.5597L46.0564 44.6491Z" fill="url(#paint11_linear)"/>
<path d="M46.054 44.6493L53.8401 39.1812L44.3066 11.0918L36.5205 16.5599L46.054 44.6493Z" fill="url(#paint12_linear)"/>
<path d="M41.1007 9L33.3027 14.48L36.5123 16.5602L44.3103 11.0921L41.1007 9Z" fill="url(#paint13_linear)"/>
<defs>
<linearGradient id="paint0_linear" x1="56.6342" y1="49.0077" x2="64.4943" y2="49.0077" gradientUnits="userSpaceOnUse">
<stop stop-color="#8E52FF"/>
<stop offset="1" stop-color="#D6BFFF"/>
</linearGradient>
<linearGradient id="paint1_linear" x1="19.8506" y1="44.4542" x2="23.6967" y2="37.6695" gradientUnits="userSpaceOnUse">
<stop stop-color="#7583FF"/>
<stop offset="1" stop-color="#DBDFFF"/>
</linearGradient>
<linearGradient id="paint2_linear" x1="25.473" y1="42.5247" x2="56.642" y2="42.5247" gradientUnits="userSpaceOnUse">
<stop stop-color="#3922AA"/>
<stop offset="1" stop-color="#7F3DFF"/>
</linearGradient>
<linearGradient id="paint3_linear" x1="19.6289" y1="39.723" x2="64.658" y2="39.723" gradientUnits="userSpaceOnUse">
<stop stop-color="#7583FF"/>
<stop offset="1" stop-color="#DBDFFF"/>
</linearGradient>
<linearGradient id="paint4_linear" x1="22.038" y1="36.5871" x2="19.4775" y2="38.1428" gradientUnits="userSpaceOnUse">
<stop stop-color="#A9B1FF" stop-opacity="0"/>
<stop offset="0.1842" stop-color="#B1B8FF" stop-opacity="0.1842"/>
<stop offset="0.4649" stop-color="#C6CBFF" stop-opacity="0.4649"/>
<stop offset="0.8054" stop-color="#E8EAFF" stop-opacity="0.8054"/>
<stop offset="1" stop-color="white"/>
</linearGradient>
<linearGradient id="paint5_linear" x1="8.12419" y1="53.0002" x2="54.882" y2="64.6681" gradientUnits="userSpaceOnUse">
<stop stop-color="#7F3DFF"/>
<stop offset="1" stop-color="#7583FF"/>
</linearGradient>
<linearGradient id="paint6_linear" x1="10.0056" y1="53.7786" x2="54.7836" y2="53.7786" gradientUnits="userSpaceOnUse">
<stop stop-color="#7583FF"/>
<stop offset="1" stop-color="#DBDFFF"/>
</linearGradient>
<linearGradient id="paint7_linear" x1="54.6254" y1="58.8154" x2="54.853" y2="58.8154" gradientUnits="userSpaceOnUse">
<stop stop-color="#7583FF"/>
<stop offset="1" stop-color="#DBDFFF"/>
</linearGradient>
<linearGradient id="paint8_linear" x1="15.7656" y1="50.4061" x2="3.31992" y2="41.9793" gradientUnits="userSpaceOnUse">
<stop stop-color="#A9B1FF" stop-opacity="0"/>
<stop offset="0.1842" stop-color="#B1B8FF" stop-opacity="0.1842"/>
<stop offset="0.4649" stop-color="#C6CBFF" stop-opacity="0.4649"/>
<stop offset="0.8054" stop-color="#E8EAFF" stop-opacity="0.8054"/>
<stop offset="1" stop-color="white"/>
</linearGradient>
<linearGradient id="paint9_linear" x1="36.1649" y1="14.9505" x2="33.6073" y2="56.2998" gradientUnits="userSpaceOnUse">
<stop stop-color="#DBDFFF"/>
<stop offset="1" stop-color="#7583FF"/>
</linearGradient>
<linearGradient id="paint10_linear" x1="38.3784" y1="42.1524" x2="46.1746" y2="42.1524" gradientUnits="userSpaceOnUse">
<stop stop-color="#803EFF"/>
<stop offset="1" stop-color="#4502C6"/>
</linearGradient>
<linearGradient id="paint11_linear" x1="35.9042" y1="14.9344" x2="33.3466" y2="56.2837" gradientUnits="userSpaceOnUse">
<stop stop-color="#DBDFFF"/>
<stop offset="1" stop-color="#7583FF"/>
</linearGradient>
<linearGradient id="paint12_linear" x1="36.5148" y1="27.8726" x2="53.8448" y2="27.8726" gradientUnits="userSpaceOnUse">
<stop stop-color="#803EFF"/>
<stop offset="1" stop-color="#4502C6"/>
</linearGradient>
<linearGradient id="paint13_linear" x1="33.3077" y1="12.7827" x2="44.3145" y2="12.7827" gradientUnits="userSpaceOnUse">
<stop stop-color="#7583FF"/>
<stop offset="1" stop-color="#DBDFFF"/>
</linearGradient>
</defs>
</svg>
