<svg width="75" height="75" viewBox="0 0 75 75" fill="none" xmlns="http://www.w3.org/2000/svg">
<path d="M51.0597 54.3902C48.4397 58.9302 45.0297 61.3102 41.5897 61.5202L37.6797 61.5102C41.1297 61.3002 44.5397 58.9202 47.1597 54.3802C50.6897 48.2602 51.9397 39.6802 50.9097 31.8302C50.4797 28.4802 49.6197 25.2502 48.3497 22.4102L52.2597 22.4202C56.5097 31.9102 56.1097 45.6502 51.0597 54.3902Z" fill="url(#paint0_linear)"/>
<path d="M40.37 66.0005L41.59 61.5305L37.69 61.5205L36.46 65.9905L35 71.3705L38.9 71.3805L40.37 66.0005Z" fill="url(#paint1_linear)"/>
<path d="M52.2602 22.4303L48.3502 22.4203L47.7402 15.0703L51.6502 15.0803L52.2602 22.4303Z" fill="url(#paint2_linear)"/>
<path d="M51.0602 54.4001C56.1102 45.6601 56.5002 31.9201 52.2602 22.4301L51.6502 15.0801L56.3602 15.1801C62.9102 28.6101 62.5102 48.7801 55.1802 61.4701C50.7402 69.1601 44.7102 72.4601 38.9102 71.3801L40.3702 66.0001L41.5902 61.5201C45.0402 61.3201 48.4402 58.9301 51.0602 54.4001Z" fill="url(#paint3_linear)"/>
<path opacity="0.4" d="M52.2604 22.4301L52.5704 17.3301C52.6104 16.6601 53.0704 16.0901 53.7204 15.9101L56.3604 15.1801L51.6504 15.0801L52.2604 22.4301Z" fill="url(#paint4_linear)"/>
<path d="M30.3591 59.2L25.4091 59.28L21.7891 58.98L25.6991 58.99L30.3591 59.2Z" fill="url(#paint5_linear)"/>
<path d="M47.1602 54.3801C50.6902 48.2601 50.1902 43.4201 50.1902 43.4201L55.1802 40.3501C55.1802 40.3501 54.0902 55.4701 47.1602 54.3801Z" fill="url(#paint6_linear)"/>
<g opacity="0.2">
<path opacity="0.0476" d="M6.83988 46.2398C6.55988 46.3998 6.37988 46.6698 6.37988 46.9498C6.37988 47.2598 6.54988 47.5698 6.88988 47.7598C6.86988 47.7698 9.42988 49.3498 9.44988 49.3598L11.3199 50.4998L11.9099 50.8598C12.1799 51.0098 12.5099 51.0998 12.8499 51.0998C13.1499 51.0998 13.4099 51.0398 13.6299 50.9198C13.6399 50.9198 15.0899 49.8698 15.0999 49.8698C15.3799 49.7098 15.5599 49.4398 15.5599 49.1598C15.5599 48.8498 15.3899 48.5398 15.0499 48.3498C15.0699 48.3398 12.5199 46.7698 12.5099 46.7598L10.6399 45.6198L10.0899 45.2898C9.81988 45.1398 9.48988 45.0498 9.14988 45.0498C8.84988 45.0498 8.58988 45.1098 8.36988 45.2298C8.36988 45.2198 6.84988 46.2298 6.83988 46.2398Z" fill="#ABB2E2"/>
<path opacity="0.0952" d="M6.91996 46.2098C6.64996 46.3598 6.45996 46.6298 6.45996 46.8998C6.45996 47.1998 6.59996 47.4998 6.91996 47.6898C6.88996 47.7098 9.31996 49.2198 9.35996 49.2398L11.17 50.3398C11.18 50.3398 11.74 50.6898 11.74 50.6898C12 50.8398 12.32 50.9198 12.65 50.9198C12.94 50.9198 13.2 50.8598 13.4 50.7498C13.42 50.7498 14.81 49.7498 14.82 49.7398C15.09 49.5898 15.28 49.3198 15.28 49.0498C15.28 48.7498 15.14 48.4498 14.82 48.2598C14.85 48.2398 12.44 46.7398 12.4 46.7198L10.59 45.6198C10.58 45.6198 10.07 45.2998 10.06 45.2998C9.79996 45.1498 9.47996 45.0698 9.14996 45.0698C8.85996 45.0698 8.59996 45.1298 8.39996 45.2398C8.37996 45.2398 6.92996 46.1998 6.91996 46.2098Z" fill="#A7ADDF"/>
<path opacity="0.1429" d="M6.99004 46.1901C6.74004 46.3401 6.54004 46.6001 6.54004 46.8601C6.54004 47.1401 6.64004 47.4501 6.95004 47.6201C6.90004 47.6501 9.21004 49.1001 9.26004 49.1301L11.01 50.1901C11.02 50.2001 11.55 50.5201 11.56 50.5201C11.81 50.6601 12.12 50.7401 12.44 50.7401C12.72 50.7401 12.97 50.6801 13.17 50.5801C13.2 50.5801 14.52 49.6301 14.54 49.6201C14.79 49.4701 14.99 49.2101 14.99 48.9501C14.99 48.6701 14.89 48.3601 14.58 48.1901C14.63 48.1601 12.34 46.7201 12.28 46.6901L10.53 45.6301C10.52 45.6301 10.03 45.3201 10.02 45.3201C9.77004 45.1801 9.46004 45.1001 9.14004 45.1001C8.86004 45.1001 8.61004 45.1501 8.41004 45.2601C8.39004 45.2601 7.01004 46.1801 6.99004 46.1901Z" fill="#A3A9DC"/>
<path opacity="0.1905" d="M7.07012 46.1699C6.83012 46.3099 6.62012 46.5699 6.62012 46.8099C6.62012 47.0699 6.69012 47.3799 6.98012 47.5499C6.92012 47.5899 9.10012 48.9799 9.17012 49.0199L10.8501 50.0299C10.8601 50.0399 11.3701 50.3499 11.3801 50.3499C11.6201 50.4899 11.9201 50.5599 12.2301 50.5699C12.4901 50.5699 12.7401 50.5199 12.9301 50.4199C12.9701 50.4199 14.2301 49.5199 14.2601 49.5099C14.5001 49.3699 14.7101 49.1099 14.7101 48.8699C14.7101 48.6099 14.6401 48.2999 14.3501 48.1299C14.4101 48.0899 12.2501 46.7099 12.1701 46.6699L10.4901 45.6499C10.4801 45.6399 10.0101 45.3599 10.0001 45.3499C9.76012 45.2099 9.46012 45.1399 9.15012 45.1299C8.89012 45.1299 8.64012 45.1799 8.45012 45.2799C8.41012 45.2799 7.09012 46.1499 7.07012 46.1699Z" fill="#9FA4D8"/>
<path opacity="0.2381" d="M7.14043 46.1402C6.92043 46.2702 6.69043 46.5302 6.69043 46.7602C6.69043 47.0102 6.73043 47.3202 7.00043 47.4702C6.92043 47.5202 8.98043 48.8402 9.07043 48.8902L10.6904 49.8602C10.7004 49.8702 11.1904 50.1602 11.2004 50.1702C11.4304 50.3002 11.7204 50.3702 12.0204 50.3802C12.2704 50.3802 12.5104 50.3302 12.6904 50.2402C12.7404 50.2402 13.9404 49.3902 13.9704 49.3702C14.1904 49.2402 14.4204 48.9802 14.4204 48.7502C14.4204 48.5002 14.3804 48.1902 14.1104 48.0402C14.1904 47.9902 12.1504 46.6702 12.0604 46.6202L10.4404 45.6502C10.4304 45.6402 9.98043 45.3702 9.96043 45.3702C9.73043 45.2402 9.44043 45.1702 9.14043 45.1602C8.89043 45.1602 8.65043 45.2102 8.46043 45.3002C8.42043 45.3002 7.17043 46.1202 7.14043 46.1402Z" fill="#9BA0D5"/>
<path opacity="0.2857" d="M7.21051 46.1202C7.00051 46.2402 6.77051 46.5102 6.77051 46.7202C6.77051 46.9502 6.77051 47.2602 7.03051 47.4102C6.94051 47.4602 8.86051 48.7302 8.97051 48.7902L10.5305 49.7202C10.5405 49.7302 11.0005 50.0002 11.0205 50.0102C11.2505 50.1302 11.5205 50.2002 11.8105 50.2102C12.0505 50.2102 12.2805 50.1702 12.4605 50.0802C12.5105 50.0802 13.6505 49.2802 13.6905 49.2602C13.9005 49.1402 14.1305 48.8702 14.1305 48.6602C14.1305 48.4302 14.1305 48.1202 13.8705 47.9702C13.9605 47.9202 12.0505 46.6602 11.9405 46.6002L10.3805 45.6702C10.3605 45.6602 9.94051 45.4102 9.92051 45.4002C9.69051 45.2802 9.42051 45.2002 9.13051 45.2002C8.89051 45.2002 8.66051 45.2402 8.48051 45.3302C8.44051 45.3302 7.25051 46.1002 7.21051 46.1202Z" fill="#979BD2"/>
<path opacity="0.3333" d="M7.28983 46.1C7.08983 46.21 6.84983 46.48 6.84983 46.68C6.84983 46.9 6.81983 47.21 7.05983 47.34C6.94983 47.4 8.74983 48.61 8.87983 48.68L10.3798 49.57C10.3998 49.58 10.8298 49.84 10.8498 49.85C11.0698 49.97 11.3298 50.04 11.5998 50.04C11.8298 50.04 12.0498 50 12.2198 49.92C12.2798 49.92 13.3598 49.17 13.3998 49.14C13.5998 49.03 13.8398 48.76 13.8398 48.56C13.8398 48.34 13.8698 48.03 13.6298 47.9C13.7398 47.84 11.9498 46.64 11.8198 46.57L10.3198 45.68C10.2998 45.67 9.89983 45.43 9.87983 45.42C9.65983 45.3 9.39983 45.23 9.12983 45.23C8.89983 45.23 8.67983 45.27 8.50983 45.35C8.44983 45.35 7.33983 46.07 7.28983 46.1Z" fill="#9397CF"/>
<path opacity="0.381" d="M7.36056 46.0698C7.18056 46.1698 6.92056 46.4398 6.92056 46.6198C6.92056 46.8198 6.86056 47.1298 7.08056 47.2598C6.96056 47.3298 8.63056 48.4698 8.78056 48.5598L10.2106 49.4098C10.2306 49.4198 10.6406 49.6698 10.6606 49.6798C10.8706 49.7898 11.1206 49.8598 11.3806 49.8598C11.6006 49.8598 11.8106 49.8198 11.9806 49.7498C12.0506 49.7498 13.0606 49.0498 13.1106 49.0198C13.2906 48.9198 13.5506 48.6498 13.5506 48.4698C13.5506 48.2698 13.6106 47.9598 13.3906 47.8298C13.5106 47.7598 11.8506 46.6198 11.7006 46.5398L10.2706 45.6898C10.2506 45.6798 9.87056 45.4498 9.85056 45.4398C9.64056 45.3298 9.39056 45.2598 9.13056 45.2598C8.91056 45.2598 8.70056 45.2898 8.53056 45.3698C8.47056 45.3698 7.42056 46.0398 7.36056 46.0698Z" fill="#8F92CC"/>
<path opacity="0.4286" d="M7.44036 46.0501C7.27036 46.1501 7.00036 46.4101 7.00036 46.5801C7.00036 46.7701 6.90036 47.0801 7.11036 47.1901C6.97036 47.2701 8.52036 48.3501 8.68036 48.4401L10.0504 49.2501C10.0804 49.2701 10.4504 49.4901 10.4804 49.5001C10.6804 49.6101 10.9204 49.6701 11.1704 49.6701C11.3804 49.6801 11.5804 49.6401 11.7404 49.5701C11.8204 49.5701 12.7704 48.9201 12.8304 48.8901C13.0004 48.7901 13.2604 48.5301 13.2604 48.3601C13.2604 48.1701 13.3604 47.8601 13.1504 47.7501C13.2904 47.6701 11.7504 46.6001 11.5904 46.5001L10.2304 45.7001C10.2104 45.6901 9.86036 45.4801 9.83036 45.4701C9.63036 45.3601 9.39036 45.3001 9.14036 45.2901C8.93036 45.2801 8.73036 45.3201 8.57036 45.3901C8.48036 45.3901 7.50036 46.0201 7.44036 46.0501Z" fill="#8B8EC9"/>
<path opacity="0.4762" d="M7.51051 46.0301C7.36051 46.1201 7.08051 46.3801 7.08051 46.5401C7.08051 46.7101 6.95051 47.0201 7.14051 47.1301C6.98051 47.2201 8.41051 48.2401 8.59051 48.3401L9.90051 49.1001C9.93051 49.1201 10.2805 49.3301 10.3105 49.3401C10.5005 49.4401 10.7305 49.5001 10.9705 49.5101C11.1705 49.5201 11.3605 49.4801 11.5205 49.4201C11.6105 49.4201 12.4905 48.8201 12.5605 48.7801C12.7105 48.6901 12.9905 48.4301 12.9905 48.2701C12.9905 48.1001 13.1205 47.7901 12.9305 47.6801C13.0905 47.5901 11.6705 46.5801 11.4905 46.4801L10.1805 45.7201C10.1505 45.7001 9.83051 45.5101 9.80051 45.5001C9.61051 45.4001 9.38051 45.3401 9.14051 45.3301C8.94051 45.3201 8.75051 45.3601 8.59051 45.4201C8.49051 45.4101 7.58051 45.9901 7.51051 46.0301Z" fill="#8789C6"/>
<path opacity="0.5238" d="M7.58027 45.9998C7.44027 46.0798 7.15027 46.3398 7.15027 46.4798C7.15027 46.6398 6.99027 46.9498 7.16027 47.0398C6.99027 47.1398 8.29027 48.0898 8.49027 48.2098L9.73027 48.9298C9.76027 48.9498 10.0903 49.1398 10.1203 49.1598C10.3003 49.2498 10.5203 49.3098 10.7503 49.3198C10.9403 49.3298 11.1203 49.2998 11.2703 49.2398C11.3703 49.2398 12.1903 48.6898 12.2603 48.6498C12.4003 48.5698 12.6903 48.3098 12.6903 48.1698C12.6903 48.0098 12.8503 47.6998 12.6803 47.6098C12.8503 47.5098 11.5603 46.5598 11.3603 46.4498L10.1203 45.7298C10.0903 45.7098 9.79027 45.5298 9.75027 45.5198C9.57027 45.4198 9.35027 45.3698 9.12027 45.3598C8.93027 45.3498 8.75027 45.3798 8.60027 45.4398C8.51027 45.4298 7.66027 45.9598 7.58027 45.9998Z" fill="#8385C2"/>
<path opacity="0.5714" d="M7.66079 45.9798C7.53079 46.0498 7.23079 46.3098 7.23079 46.4398C7.23079 46.5798 7.03079 46.8898 7.18079 46.9798C6.99079 47.0898 8.17079 47.9798 8.38079 48.0998L9.56079 48.7798C9.59079 48.7998 9.90079 48.9798 9.94079 48.9898C10.1208 49.0798 10.3208 49.1298 10.5408 49.1398C10.7208 49.1498 10.8908 49.1198 11.0308 49.0698C11.1408 49.0698 11.8908 48.5698 11.9708 48.5298C12.1008 48.4598 12.4008 48.1998 12.4008 48.0698C12.4008 47.9298 12.6008 47.6198 12.4508 47.5298C12.6408 47.4198 11.4708 46.5298 11.2608 46.4098L10.0808 45.7298C10.0508 45.7098 9.77079 45.5498 9.73079 45.5298C9.56079 45.4398 9.35079 45.3898 9.13079 45.3798C8.95079 45.3698 8.78079 45.3998 8.64079 45.4498C8.52079 45.4598 7.74079 45.9398 7.66079 45.9798Z" fill="#7F80BF"/>
<path opacity="0.619" d="M7.73071 45.96C7.62071 46.02 7.31071 46.28 7.31071 46.4C7.31071 46.52 7.08071 46.84 7.21071 46.91C7.01071 47.03 8.05071 47.86 8.29071 47.99L9.41071 48.63C9.45071 48.65 9.72071 48.81 9.77071 48.83C9.94071 48.91 10.1307 48.96 10.3307 48.97C10.5007 48.98 10.6607 48.95 10.8007 48.91C10.9207 48.91 11.6107 48.46 11.6907 48.41C11.8007 48.35 12.1107 48.08 12.1107 47.97C12.1107 47.85 12.3407 47.53 12.2107 47.46C12.4107 47.34 11.3707 46.52 11.1407 46.38L10.0207 45.74C9.98071 45.72 9.73071 45.57 9.69071 45.56C9.52071 45.48 9.33071 45.43 9.13071 45.42C8.96071 45.41 8.80071 45.43 8.66071 45.48C8.54071 45.48 7.82071 45.91 7.73071 45.96Z" fill="#7B7CBC"/>
<path opacity="0.6667" d="M7.81071 45.9398C7.71071 45.9998 7.39071 46.2598 7.39071 46.3598C7.39071 46.4698 7.13071 46.7798 7.24071 46.8498C7.02071 46.9798 7.94071 47.7398 8.20071 47.8898L9.26071 48.4898C9.30071 48.5098 9.55071 48.6598 9.60071 48.6798C9.76071 48.7598 9.94071 48.7998 10.1307 48.8098C10.2907 48.8198 10.4407 48.7998 10.5707 48.7498C10.7007 48.7498 11.3207 48.3498 11.4207 48.2998C11.5207 48.2398 11.8407 47.9798 11.8407 47.8798C11.8407 47.7698 12.1007 47.4598 11.9907 47.3898C12.2107 47.2598 11.2907 46.4998 11.0407 46.3598L9.98071 45.7598C9.94071 45.7398 9.71071 45.5998 9.67071 45.5898C9.51071 45.5098 9.33071 45.4698 9.14071 45.4498C8.98071 45.4398 8.83071 45.4598 8.70071 45.4998C8.55071 45.4998 7.90071 45.8798 7.81071 45.9398Z" fill="#7777B9"/>
<path opacity="0.7143" d="M7.8802 45.9101C7.8002 45.9601 7.4602 46.2201 7.4602 46.3001C7.4602 46.3901 7.1602 46.7101 7.2602 46.7701C7.0302 46.9101 7.8202 47.6101 8.0902 47.7601L9.0802 48.3101C9.1202 48.3401 9.3502 48.4601 9.4002 48.4801C9.5502 48.5501 9.7202 48.5901 9.9002 48.6001C10.0502 48.6101 10.1902 48.5901 10.3202 48.5501C10.4602 48.5501 11.0202 48.2001 11.1202 48.1501C11.2002 48.1001 11.5402 47.8401 11.5402 47.7601C11.5402 47.6701 11.8402 47.3501 11.7402 47.2901C11.9702 47.1501 11.1802 46.4501 10.9102 46.3001L9.9202 45.7501C9.8802 45.7301 9.6702 45.6101 9.6302 45.5901C9.4802 45.5201 9.3102 45.4701 9.1302 45.4601C8.9802 45.4501 8.8402 45.4701 8.7102 45.5001C8.5702 45.5201 7.9802 45.8501 7.8802 45.9101Z" fill="#7373B6"/>
<path opacity="0.7619" d="M7.9508 45.8898C7.8808 45.9298 7.5408 46.1898 7.5408 46.2598C7.5408 46.3398 7.2108 46.6498 7.2908 46.6998C7.0508 46.8398 7.7108 47.4898 8.0008 47.6498L8.9308 48.1598C8.9808 48.1898 9.1708 48.2998 9.2308 48.3198C9.3708 48.3898 9.5308 48.4298 9.7008 48.4398C9.8408 48.4498 9.9708 48.4398 10.0908 48.3998C10.2408 48.3998 10.7408 48.0998 10.8408 48.0398C10.9108 47.9998 11.2508 47.7398 11.2508 47.6698C11.2508 47.5898 11.5808 47.2798 11.5008 47.2298C11.7508 47.0898 11.0808 46.4498 10.8008 46.2798L9.8708 45.7698C9.8308 45.7498 9.6508 45.6398 9.6008 45.6198C9.4608 45.5498 9.3008 45.5098 9.1308 45.4998C8.9908 45.4898 8.8608 45.4998 8.7408 45.5298C8.5808 45.5398 8.0608 45.8298 7.9508 45.8898Z" fill="#6F6EB3"/>
<path opacity="0.8095" d="M8.03042 45.8701C7.97042 45.9001 7.62042 46.1601 7.62042 46.2201C7.62042 46.2801 7.26042 46.6001 7.32042 46.6401C7.05042 46.7901 7.60042 47.3701 7.91042 47.5501L8.78042 48.0201C8.83042 48.0501 9.00042 48.1401 9.06042 48.1601C9.19042 48.2201 9.34042 48.2601 9.50042 48.2701C9.63042 48.2801 9.75042 48.2701 9.86042 48.2401C10.0204 48.2401 10.4504 47.9901 10.5604 47.9301C10.6204 47.9001 10.9704 47.6401 10.9704 47.5801C10.9704 47.5201 11.3304 47.2001 11.2704 47.1601C11.5404 47.0101 10.9904 46.4301 10.6904 46.2501L9.82042 45.7801C9.77042 45.7501 9.62042 45.6601 9.56042 45.6501C9.43042 45.5901 9.28042 45.5501 9.12042 45.5401C8.99042 45.5301 8.87042 45.5401 8.75042 45.5601C8.59042 45.5601 8.14042 45.8001 8.03042 45.8701Z" fill="#6B6AB0"/>
<path opacity="0.8571" d="M8.09989 45.84C8.05989 45.86 7.68989 46.12 7.68989 46.16C7.68989 46.21 7.28989 46.52 7.33989 46.55C7.05989 46.71 7.47989 47.23 7.79989 47.42L8.59989 47.85C8.64989 47.88 8.79989 47.96 8.85989 47.98C8.97989 48.03 9.11989 48.07 9.25989 48.08C9.37989 48.09 9.48989 48.08 9.59989 48.06C9.75989 48.06 10.1399 47.86 10.2599 47.79C10.2999 47.77 10.6699 47.51 10.6699 47.47C10.6699 47.42 11.0699 47.11 11.0199 47.08C11.2999 46.92 10.8799 46.4 10.5599 46.22L9.75989 45.79C9.70989 45.76 9.57989 45.69 9.51989 45.67C9.39989 45.62 9.25989 45.58 9.11989 45.57C8.99989 45.56 8.87989 45.56 8.77989 45.58C8.60989 45.59 8.21989 45.77 8.09989 45.84Z" fill="#6765AC"/>
<path opacity="0.9048" d="M8.18035 45.8198C8.15035 45.8398 7.77035 46.0898 7.77035 46.1198C7.77035 46.1498 7.34035 46.4698 7.37035 46.4898C7.07035 46.6598 7.37035 47.1198 7.71035 47.3098L8.45035 47.6998C8.51035 47.7298 8.62035 47.7898 8.69035 47.8198C8.81035 47.8698 8.93035 47.8998 9.06035 47.9098C9.17035 47.9198 9.27035 47.9198 9.37035 47.8998C9.54035 47.8998 9.85035 47.7498 9.98035 47.6798C10.0103 47.6598 10.3903 47.4098 10.3903 47.3798C10.3903 47.3498 10.8203 47.0298 10.7903 47.0098C11.0903 46.8398 10.8003 46.3898 10.4503 46.1898L9.71035 45.7998C9.66035 45.7698 9.55035 45.7098 9.49035 45.6898C9.37035 45.6398 9.25035 45.6098 9.12035 45.5998C9.01035 45.5898 8.91035 45.5898 8.81035 45.5998C8.62035 45.6098 8.30035 45.7498 8.18035 45.8198Z" fill="#6361A9"/>
<path opacity="0.9524" d="M8.25 45.7999C8.24 45.8099 7.85 46.0599 7.85 46.0799C7.85 46.0999 7.39 46.4099 7.4 46.4199C7.09 46.5999 7.26 46.9899 7.62 47.1999L8.3 47.5399C8.36 47.5699 8.45 47.6199 8.52 47.6399C8.63 47.6799 8.74 47.7099 8.86 47.7199C8.96 47.7299 9.05 47.7299 9.15 47.7199C9.33 47.7099 9.58 47.6199 9.71 47.5499C9.72 47.5399 10.11 47.2899 10.11 47.2699C10.11 47.2499 10.57 46.9399 10.56 46.9299C10.87 46.7499 10.71 46.3599 10.35 46.1499L9.67 45.8099C9.62 45.7799 9.53 45.7399 9.47 45.7099C9.36 45.6699 9.25 45.6399 9.13 45.6199C9.03 45.6099 8.93 45.6099 8.84 45.6099C8.64 45.6299 8.38 45.7199 8.25 45.7999Z" fill="#5F5CA6"/>
<path opacity="0.2" d="M9.41074 47.4398L10.3007 46.8698C10.6307 46.6798 10.5907 46.3498 10.2107 46.1298L9.59074 45.8298C9.21074 45.6098 8.64074 45.5898 8.31074 45.7798L7.42074 46.3498C7.09074 46.5398 7.13074 46.8698 7.51074 47.0898L8.13074 47.3898C8.51074 47.5998 9.09074 47.6298 9.41074 47.4398Z" fill="#5B58A3"/>
</g>
<path d="M47.3496 49.5501L50.1196 47.9701L62.9196 37.3501L60.1496 38.9401L47.3496 49.5501Z" fill="url(#paint7_linear)"/>
<path d="M9.28027 48.5601L12.0503 46.9801L32.7503 32.1401L29.9803 33.7301L9.28027 48.5601Z" fill="url(#paint8_linear)"/>
<path d="M30.1504 29.2599L32.9204 27.6699L50.1904 43.4199L47.4204 45.0099L30.1504 29.2599Z" fill="url(#paint9_linear)"/>
<path d="M55.6699 34.3999L58.4399 32.8199L69.3499 29.3999L66.5799 30.9799L55.6699 34.3999Z" fill="url(#paint10_linear)"/>
<path d="M62.1104 40.9499L64.8804 39.3699L69.3503 29.3999L66.5804 30.9799L62.1104 40.9499Z" fill="url(#paint11_linear)"/>
<path d="M55.67 34.3998L57.65 36.3898L57.72 36.4598L47.42 45.0098L30.15 29.2598L6 46.5898L9.28 48.5598L29.98 33.7298L47.35 49.5698L60.15 38.9498L60.19 38.9898L62.11 40.9498L66.58 30.9798L55.67 34.3998Z" fill="url(#paint12_linear)"/>
<path d="M66.5099 31.15L69.1899 29.5L66.3999 31.04L55.6699 34.4L55.8699 34.61L66.5099 31.15Z" fill="url(#paint13_radial)"/>
<path d="M30.15 29.5198L47.42 45.2698L57.72 36.7298L57.65 36.6598L57.58 36.5798L47.42 45.0098L30.15 29.2598L6 46.5898L6.2 46.7098L30.15 29.5198Z" fill="url(#paint14_radial)"/>
<path d="M37.3192 3.00002L41.2292 3.01002C36.0992 3.00002 30.9792 6.37002 27.0792 13.12C19.8192 25.69 19.3592 45.57 25.6992 58.99L21.7892 58.98C15.4592 45.56 15.9192 25.67 23.1692 13.11C27.0692 6.36002 32.1992 2.99002 37.3192 3.00002Z" fill="url(#paint15_linear)"/>
<path d="M30.3593 59.2001L25.6993 58.9901C19.3693 45.5701 19.8293 25.6801 27.0793 13.1201C29.0293 9.75005 31.2793 7.22005 33.6793 5.54005C36.7593 3.38005 40.0893 2.61005 43.3493 3.21005L40.6593 13.0601C37.2193 13.2701 33.8093 15.6501 31.1893 20.1901C26.1393 28.9301 25.7493 42.6701 29.9893 52.1601L30.3593 59.2001Z" fill="url(#paint16_linear)"/>
<path d="M35.9487 5.2298L33.6787 5.5298C36.7587 3.3698 40.0887 2.5998 43.3487 3.1998L40.6587 13.0498L40.8887 9.8698C41.0887 7.1198 38.6987 4.8698 35.9487 5.2298Z" fill="url(#paint17_linear)"/>
<defs>
<linearGradient id="paint0_linear" x1="43.2584" y1="19.1101" x2="87.3042" y2="34.5436" gradientUnits="userSpaceOnUse">
<stop stop-color="#3922AA"/>
<stop offset="1" stop-color="#7F3DFF"/>
</linearGradient>
<linearGradient id="paint1_linear" x1="36.3461" y1="65.9628" x2="40.2424" y2="66.935" gradientUnits="userSpaceOnUse">
<stop stop-color="white"/>
<stop offset="1" stop-color="#7A88FF"/>
</linearGradient>
<linearGradient id="paint2_linear" x1="44.0091" y1="15.3523" x2="52.5224" y2="20.1783" gradientUnits="userSpaceOnUse">
<stop stop-color="#7583FF"/>
<stop offset="1" stop-color="#DBDFFF"/>
</linearGradient>
<linearGradient id="paint3_linear" x1="49.9451" y1="15.0799" x2="49.9451" y2="71.5815" gradientUnits="userSpaceOnUse">
<stop stop-color="#7583FF"/>
<stop offset="1" stop-color="#DBDFFF"/>
</linearGradient>
<linearGradient id="paint4_linear" x1="53.8811" y1="18.0991" x2="51.929" y2="14.8863" gradientUnits="userSpaceOnUse">
<stop stop-color="#A9B1FF" stop-opacity="0"/>
<stop offset="0.1842" stop-color="#B1B8FF" stop-opacity="0.1842"/>
<stop offset="0.4649" stop-color="#C6CBFF" stop-opacity="0.4649"/>
<stop offset="0.8054" stop-color="#E8EAFF" stop-opacity="0.8054"/>
<stop offset="1" stop-color="white"/>
</linearGradient>
<linearGradient id="paint5_linear" x1="26.0738" y1="58.9819" x2="26.0738" y2="59.2786" gradientUnits="userSpaceOnUse">
<stop stop-color="#7583FF"/>
<stop offset="1" stop-color="#DBDFFF"/>
</linearGradient>
<linearGradient id="paint6_linear" x1="48.4461" y1="53.115" x2="52.3853" y2="45.0399" gradientUnits="userSpaceOnUse">
<stop stop-color="#803EFF" stop-opacity="0"/>
<stop offset="1" stop-color="#00012A" stop-opacity="0.4"/>
</linearGradient>
<linearGradient id="paint7_linear" x1="53.958" y1="48.3835" x2="53.9845" y2="38.394" gradientUnits="userSpaceOnUse">
<stop stop-color="#871D92"/>
<stop offset="0.3909" stop-color="#A21377"/>
<stop offset="1" stop-color="#D30045"/>
</linearGradient>
<linearGradient id="paint8_linear" x1="19.2417" y1="46.99" x2="19.2735" y2="33.545" gradientUnits="userSpaceOnUse">
<stop stop-color="#871D92"/>
<stop offset="0.3909" stop-color="#A21377"/>
<stop offset="1" stop-color="#D30045"/>
</linearGradient>
<linearGradient id="paint9_linear" x1="57.5009" y1="38.5038" x2="48.4882" y2="22.2294" gradientUnits="userSpaceOnUse">
<stop stop-color="#FF6FFF"/>
<stop offset="0.6387" stop-color="#D436E0"/>
<stop offset="1" stop-color="#C01BD1"/>
</linearGradient>
<linearGradient id="paint10_linear" x1="74.3404" y1="32.5239" x2="72.9803" y2="26.71" gradientUnits="userSpaceOnUse">
<stop stop-color="#FF6FFF"/>
<stop offset="0.6387" stop-color="#D436E0"/>
<stop offset="1" stop-color="#C01BD1"/>
</linearGradient>
<linearGradient id="paint11_linear" x1="65.1832" y1="39.8455" x2="65.2343" y2="30.3884" gradientUnits="userSpaceOnUse">
<stop stop-color="#871D92"/>
<stop offset="0.3909" stop-color="#A21377"/>
<stop offset="1" stop-color="#D30045"/>
</linearGradient>
<linearGradient id="paint12_linear" x1="34.8122" y1="31.3943" x2="34.8443" y2="47.9782" gradientUnits="userSpaceOnUse">
<stop stop-color="#F73877"/>
<stop offset="1" stop-color="#CB2A9B"/>
</linearGradient>
<radialGradient id="paint13_radial" cx="0" cy="0" r="1" gradientUnits="userSpaceOnUse" gradientTransform="translate(65.951 25.2599) scale(10.94)">
<stop stop-color="white"/>
<stop offset="1" stop-color="#E0E3FF"/>
</radialGradient>
<radialGradient id="paint14_radial" cx="0" cy="0" r="1" gradientUnits="userSpaceOnUse" gradientTransform="translate(45.3298 14.7804) scale(41.8504 37.3587)">
<stop stop-color="white"/>
<stop offset="1" stop-color="#E0E3FF"/>
</radialGradient>
<linearGradient id="paint15_linear" x1="33.2834" y1="0.646023" x2="18.6427" y2="59.3175" gradientUnits="userSpaceOnUse">
<stop stop-color="white"/>
<stop offset="1" stop-color="#7A88FF"/>
</linearGradient>
<linearGradient id="paint16_linear" x1="32.3082" y1="3.01095" x2="32.3082" y2="59.1981" gradientUnits="userSpaceOnUse">
<stop stop-color="#7583FF"/>
<stop offset="1" stop-color="#DBDFFF"/>
</linearGradient>
<linearGradient id="paint17_linear" x1="36.5389" y1="10.2328" x2="47.1128" y2="-5.384" gradientUnits="userSpaceOnUse">
<stop stop-color="#A9B1FF" stop-opacity="0"/>
<stop offset="0.1842" stop-color="#B1B8FF" stop-opacity="0.1842"/>
<stop offset="0.4649" stop-color="#C6CBFF" stop-opacity="0.4649"/>
<stop offset="0.8054" stop-color="#E8EAFF" stop-opacity="0.8054"/>
<stop offset="1" stop-color="white"/>
</linearGradient>
</defs>
</svg>
