<svg width="75" height="75" viewBox="0 0 75 75" fill="none" xmlns="http://www.w3.org/2000/svg">
<path d="M51.4634 26.328C55.3088 28.5321 57.3192 31.4022 57.4947 34.2882L57.4788 37.5706C57.3033 34.6688 55.2928 31.7986 51.4474 29.5945C46.2777 26.6293 39.0177 25.5827 32.38 26.439C29.5398 26.8037 26.8114 27.5172 24.418 28.5955L24.4339 25.3131C32.4598 21.7453 44.0757 22.0783 51.4634 26.328Z" fill="url(#paint0_linear)"/>
<path d="M61.2926 35.3039L57.5111 34.2891L57.4951 37.5715L61.2767 38.5863L65.8241 39.8232L65.8401 36.5408L61.2926 35.3039Z" fill="url(#paint1_linear)"/>
<path d="M24.4338 25.3135L24.4178 28.5959L18.2109 29.1192V25.8368L24.4338 25.3135Z" fill="url(#paint2_linear)"/>
<path d="M51.4792 26.3124C44.0915 22.0786 32.4596 21.7297 24.4338 25.3134L18.2109 25.8367L18.2907 21.8725C29.6514 16.3701 46.7083 16.7031 57.4627 22.8556C63.9567 26.582 66.765 31.6562 65.8396 36.5402L61.2921 35.3034L57.5105 34.2727C57.3191 31.3867 55.3086 28.5166 51.4792 26.3124Z" fill="url(#paint3_linear)"/>
<path opacity="0.4" d="M24.4338 25.313L20.1257 25.0593C19.5512 25.0276 19.0726 24.6312 18.913 24.0921L18.2907 21.8721L18.2109 25.8363L24.4338 25.313Z" fill="url(#paint4_linear)"/>
<path d="M39.8953 69.0002L39.624 68.8417L36.8477 67.2401L36.752 67.1925L36.7041 53.9678L39.8474 55.7755L39.8953 69.0002Z" fill="url(#paint5_linear)"/>
<path d="M39.8491 55.7754L36.7217 53.9677L40.3118 51.9062L43.4551 53.714L39.8491 55.7754Z" fill="#926DDB"/>
<path d="M43.4876 66.986L39.8975 68.9998L39.8496 55.7909L43.4397 53.7295L43.4876 66.986Z" fill="url(#paint6_linear)"/>
<path d="M35.4773 63.8622L25.6963 58.2171L25.6006 21.8887L35.3816 27.5338L35.4773 63.8622Z" fill="url(#paint7_linear)"/>
<path d="M35.365 27.5335L25.584 21.8884L39.6412 13.833L49.4063 19.4781L35.365 27.5335Z" fill="#926DDB"/>
<path d="M49.4215 19.4941L49.5172 55.8226L35.46 63.878L35.3643 27.5495L49.4215 19.4941Z" fill="url(#paint8_linear)"/>
<path d="M37.0086 23.094L36.7373 22.9354L33.961 21.3497L33.8493 21.2863L33.8174 8.06152L36.9607 9.86923L37.0086 23.094Z" fill="url(#paint9_linear)"/>
<path d="M36.9607 9.86912L33.8174 8.06141L37.4075 6L40.5508 7.8077L36.9607 9.86912Z" fill="url(#paint10_linear)"/>
<path d="M40.5833 21.0797L36.9932 23.0936L36.9453 9.88466L40.5354 7.82324L40.5833 21.0797Z" fill="url(#paint11_linear)"/>
<path opacity="0.42" d="M49.4215 19.4941L35.3643 27.5495L35.46 63.878L36.3057 30.2294C36.3376 29.0242 36.9439 27.9142 37.9491 27.2482L49.4215 19.4941Z" fill="url(#paint12_linear)"/>
<path opacity="0.42" d="M40.5501 7.80762L36.96 9.86903L37.0078 23.0779L37.5184 10.3765L40.5501 7.80762Z" fill="url(#paint13_linear)"/>
<path d="M55.5329 43.7236L55.5968 47.894L55.3574 50.9227V47.6403L55.5329 43.7236Z" fill="url(#paint14_linear)"/>
<path d="M8.00007 37.8722L8.01602 34.5898C8.00007 38.8871 10.8562 43.2002 16.5684 46.4826C27.1951 52.5876 44.0127 52.9681 55.3734 47.6402L55.3574 50.9226C44.0127 56.2506 27.1792 55.8541 16.5525 49.765C10.8402 46.4826 7.98411 42.1854 8.00007 37.8722Z" fill="url(#paint15_linear)"/>
<path d="M55.5335 43.7233L55.358 47.64C43.9973 52.968 27.1797 52.5716 16.553 46.4825C13.6969 44.8492 11.5588 42.9464 10.1387 40.9325C8.30376 38.3478 7.64956 35.5411 8.17611 32.7979L16.5051 35.0496C16.6806 37.9514 18.6911 40.8057 22.5365 43.0098C29.9241 47.2436 41.556 47.5925 49.5819 44.0088L55.5335 43.7233Z" fill="url(#paint16_linear)"/>
<path d="M9.8834 39.0297L10.1387 40.9325C8.30376 38.3478 7.64956 35.5411 8.17611 32.7979L16.5051 35.0496L13.8086 34.8593C11.479 34.7007 9.58024 36.7145 9.8834 39.0297Z" fill="url(#paint17_linear)"/>
<defs>
<linearGradient id="paint0_linear" x1="40.9607" y1="37.5678" x2="40.9607" y2="22.8634" gradientUnits="userSpaceOnUse">
<stop stop-color="#7583FF"/>
<stop offset="0.407" stop-color="#7583FF"/>
<stop offset="1" stop-color="#98A3FF"/>
</linearGradient>
<linearGradient id="paint1_linear" x1="61.2545" y1="38.6914" x2="62.0673" y2="35.414" gradientUnits="userSpaceOnUse">
<stop stop-color="white"/>
<stop offset="1" stop-color="#7A88FF"/>
</linearGradient>
<linearGradient id="paint2_linear" x1="18.4466" y1="32.2498" x2="22.4903" y2="25.0721" gradientUnits="userSpaceOnUse">
<stop stop-color="#7583FF"/>
<stop offset="1" stop-color="#DBDFFF"/>
</linearGradient>
<linearGradient id="paint3_linear" x1="18.2164" y1="27.2602" x2="66.0068" y2="27.2602" gradientUnits="userSpaceOnUse">
<stop stop-color="#7583FF"/>
<stop offset="1" stop-color="#DBDFFF"/>
</linearGradient>
<linearGradient id="paint4_linear" x1="20.7701" y1="23.9514" x2="18.0618" y2="25.6072" gradientUnits="userSpaceOnUse">
<stop stop-color="#A9B1FF" stop-opacity="0"/>
<stop offset="0.1842" stop-color="#B1B8FF" stop-opacity="0.1842"/>
<stop offset="0.4649" stop-color="#C6CBFF" stop-opacity="0.4649"/>
<stop offset="0.8054" stop-color="#E8EAFF" stop-opacity="0.8054"/>
<stop offset="1" stop-color="white"/>
</linearGradient>
<linearGradient id="paint5_linear" x1="38.1368" y1="71.4827" x2="38.28" y2="62.5285" gradientUnits="userSpaceOnUse">
<stop stop-color="#7F3DFF" stop-opacity="0.6"/>
<stop offset="1" stop-color="#3922AA"/>
</linearGradient>
<linearGradient id="paint6_linear" x1="41.9039" y1="67.8465" x2="41.4022" y2="53.4764" gradientUnits="userSpaceOnUse">
<stop stop-color="#7F3DFF" stop-opacity="0.6"/>
<stop offset="1" stop-color="#3922AA"/>
</linearGradient>
<linearGradient id="paint7_linear" x1="31.5078" y1="23.0849" x2="29.357" y2="67.2793" gradientUnits="userSpaceOnUse">
<stop stop-color="#7F3DFF" stop-opacity="0.6"/>
<stop offset="1" stop-color="#3922AA"/>
</linearGradient>
<linearGradient id="paint8_linear" x1="40.7933" y1="-0.409769" x2="43.0873" y2="58.6599" gradientUnits="userSpaceOnUse">
<stop stop-color="#D6BFFF"/>
<stop offset="1" stop-color="#8E52FF"/>
</linearGradient>
<linearGradient id="paint9_linear" x1="36.8632" y1="-4.91016" x2="34.9992" y2="21.6652" gradientUnits="userSpaceOnUse">
<stop stop-color="#7F3DFF" stop-opacity="0.6"/>
<stop offset="1" stop-color="#3922AA"/>
</linearGradient>
<linearGradient id="paint10_linear" x1="36.6804" y1="15.8396" x2="37.3615" y2="4.93515" gradientUnits="userSpaceOnUse">
<stop stop-color="#D6BFFF"/>
<stop offset="1" stop-color="#8E52FF"/>
</linearGradient>
<linearGradient id="paint11_linear" x1="37.5132" y1="-3.49947" x2="39.3772" y2="24.8088" gradientUnits="userSpaceOnUse">
<stop stop-color="#D6BFFF"/>
<stop offset="1" stop-color="#8E52FF"/>
</linearGradient>
<linearGradient id="paint12_linear" x1="25.8269" y1="41.6754" x2="58.9648" y2="41.6754" gradientUnits="userSpaceOnUse">
<stop stop-color="white"/>
<stop offset="1" stop-color="#B28AFF"/>
</linearGradient>
<linearGradient id="paint13_linear" x1="34.5096" y1="15.4509" x2="42.9889" y2="15.4509" gradientUnits="userSpaceOnUse">
<stop stop-color="white"/>
<stop offset="1" stop-color="#B28AFF"/>
</linearGradient>
<linearGradient id="paint14_linear" x1="55.3507" y1="47.3251" x2="55.6017" y2="47.3251" gradientUnits="userSpaceOnUse">
<stop stop-color="#7583FF"/>
<stop offset="1" stop-color="#DBDFFF"/>
</linearGradient>
<linearGradient id="paint15_linear" x1="6.00892" y1="41.2649" x2="55.5982" y2="53.7164" gradientUnits="userSpaceOnUse">
<stop stop-color="white"/>
<stop offset="1" stop-color="#7A88FF"/>
</linearGradient>
<linearGradient id="paint16_linear" x1="8.00969" y1="42.0845" x2="55.5341" y2="42.0845" gradientUnits="userSpaceOnUse">
<stop stop-color="#7583FF"/>
<stop offset="1" stop-color="#DBDFFF"/>
</linearGradient>
<linearGradient id="paint17_linear" x1="14.1184" y1="38.5278" x2="0.961052" y2="29.5636" gradientUnits="userSpaceOnUse">
<stop stop-color="#A9B1FF" stop-opacity="0"/>
<stop offset="0.1842" stop-color="#B1B8FF" stop-opacity="0.1842"/>
<stop offset="0.4649" stop-color="#C6CBFF" stop-opacity="0.4649"/>
<stop offset="0.8054" stop-color="#E8EAFF" stop-opacity="0.8054"/>
<stop offset="1" stop-color="white"/>
</linearGradient>
</defs>
</svg>
