<svg width="75" height="75" viewBox="0 0 75 75" fill="none" xmlns="http://www.w3.org/2000/svg">
<path d="M37.2514 66.2206L1 45.2964V38.2979L37.2514 59.2221V66.2206Z" fill="url(#paint0_linear)"/>
<path d="M73.5027 38.2974L37.2514 59.2216L1 38.2974L37.2514 17.3643L73.5027 38.2974Z" fill="url(#paint1_linear)"/>
<path d="M37.251 66.2206L73.5023 45.2964V38.2979L37.251 59.2221V66.2206Z" fill="url(#paint2_linear)"/>
<path d="M37.251 53.0174L11.0957 37.9134V30.165L37.251 45.269V53.0174Z" fill="url(#paint3_linear)"/>
<path d="M63.4062 30.1654L37.251 45.2694L11.0957 30.1654L37.251 15.0703L63.4062 30.1654Z" fill="url(#paint4_linear)"/>
<path d="M37.252 53.0174L63.4072 37.9134V30.165L37.252 45.269V53.0174Z" fill="url(#paint5_linear)"/>
<path d="M37.2511 39.7168L19.5762 29.5136V21.8545L37.2511 32.0577V39.7168Z" fill="#C09EFF"/>
<path d="M54.9259 21.8546L37.2511 32.0578L19.5762 21.8546L37.2511 11.6514L54.9259 21.8546Z" fill="url(#paint6_linear)"/>
<path d="M37.252 39.7168L54.9268 29.5136V21.8545L37.252 32.0577V39.7168Z" fill="#803EFF"/>
<path d="M37.2483 26.8804L27.0986 21.0245V13.8652L37.2483 19.7212V26.8804Z" fill="url(#paint7_linear)"/>
<path d="M47.398 13.8648L37.2483 19.7208L27.0986 13.8648L37.2483 8L47.398 13.8648Z" fill="url(#paint8_linear)"/>
<path d="M37.249 26.8804L47.3987 21.0245V13.8652L37.249 19.7212V26.8804Z" fill="url(#paint9_linear)"/>
<path d="M30.8342 21.4433C30.7985 21.4254 30.7717 21.3986 30.736 21.354C30.7093 21.3183 30.6914 21.2737 30.6914 21.229C30.6914 21.2112 30.6914 21.2023 30.7003 21.1933L31.7805 17.7833C31.7983 17.7208 31.8519 17.7208 31.9233 17.7565C31.959 17.7744 31.9858 17.8012 32.0126 17.828C32.0393 17.8637 32.0572 17.8994 32.0661 17.9351L33.1373 22.5948C33.1373 22.6038 33.1373 22.6127 33.1373 22.6127C33.1373 22.6216 33.1373 22.6216 33.1373 22.6305C33.1373 22.6662 33.1195 22.6841 33.0927 22.693C33.0659 22.7019 33.0302 22.693 32.9945 22.6752C32.9409 22.6395 32.9052 22.5948 32.8963 22.5323L32.6464 21.4611L31.1913 20.622L30.9503 21.4076C30.9324 21.4701 30.8967 21.479 30.8342 21.4433ZM32.5749 21.1576L31.9233 18.2832L31.2538 20.3899L32.5749 21.1576Z" fill="white"/>
<path d="M26.7365 27.8083C26.7365 27.7637 26.7454 27.7369 26.7722 27.7369C26.799 27.728 26.8257 27.7369 26.8525 27.7548L27.6381 28.21C27.7809 28.2904 27.9237 28.3886 28.0487 28.4867C28.1737 28.5849 28.2808 28.701 28.379 28.826C28.4682 28.9509 28.5486 29.0938 28.6021 29.2544C28.6557 29.4151 28.6825 29.5937 28.6825 29.799C28.6825 30.0489 28.6379 30.2364 28.5664 30.3614C28.4861 30.4774 28.3879 30.5399 28.254 30.531C28.3343 30.6113 28.4058 30.7006 28.4682 30.7898C28.5307 30.8791 28.5843 30.9773 28.6289 31.0844C28.6736 31.1915 28.7093 31.3076 28.736 31.4326C28.7628 31.5575 28.7718 31.6914 28.7718 31.8432V31.9503C28.7718 32.1735 28.745 32.3431 28.6914 32.4681C28.6379 32.593 28.5754 32.6734 28.4772 32.718C28.3879 32.7626 28.2808 32.7626 28.1647 32.7359C28.0398 32.7091 27.9148 32.6466 27.772 32.5663L26.8525 32.0306C26.8168 32.0128 26.7811 31.9771 26.7632 31.9414C26.7454 31.9057 26.7275 31.87 26.7275 31.8343V27.8083H26.7365ZM26.9953 29.6561L27.6738 30.0489C27.7987 30.1203 27.9148 30.1739 28.013 30.2007C28.1112 30.2275 28.1915 30.2275 28.254 30.2007C28.3165 30.1739 28.3611 30.1203 28.3968 30.0311C28.4236 29.9507 28.4415 29.8258 28.4415 29.6651C28.4415 29.5133 28.4236 29.3794 28.3879 29.2634C28.3522 29.1473 28.2986 29.0402 28.2272 28.9509C28.1558 28.8617 28.0755 28.7724 27.9773 28.701C27.8791 28.6296 27.7809 28.5582 27.6648 28.4957L27.0043 28.1118V29.6561H26.9953ZM27.763 32.2627C28.0041 32.4056 28.1915 32.4323 28.3254 32.3699C28.4593 32.2984 28.5307 32.1021 28.5307 31.7807V31.6825C28.5307 31.5218 28.5129 31.379 28.4772 31.2451C28.4415 31.1112 28.3879 30.9951 28.3254 30.888C28.2629 30.7809 28.1826 30.6827 28.0844 30.5934C27.9862 30.5042 27.8791 30.4328 27.763 30.3614L26.9953 29.915V31.8164L27.763 32.2627Z" fill="white"/>
<path d="M23.6915 40.5291C23.6915 40.4577 23.6736 40.3773 23.6557 40.2792C23.6379 40.181 23.6022 40.0828 23.5486 39.9756C23.4951 39.8685 23.4147 39.7614 23.3165 39.6543C23.2183 39.5472 23.0934 39.449 22.9416 39.3597C22.6917 39.2169 22.4953 39.1812 22.3614 39.2526C22.2275 39.324 22.165 39.5293 22.165 39.8596V41.7164C22.165 42.0466 22.2364 42.3234 22.3614 42.5555C22.4953 42.7786 22.6917 42.975 22.9595 43.1268C23.1201 43.216 23.2451 43.2696 23.3344 43.2696C23.4237 43.2696 23.4951 43.2517 23.5486 43.2071C23.6022 43.1625 23.6379 43.1 23.6557 43.0286C23.6736 42.9572 23.6915 42.8858 23.7004 42.8143C23.7004 42.7786 23.7182 42.7608 23.7361 42.7429C23.7539 42.734 23.7807 42.734 23.8254 42.7608C23.87 42.7876 23.9057 42.8143 23.9235 42.859C23.9414 42.8947 23.9593 42.9572 23.9593 43.0375C23.9593 43.1536 23.9325 43.2607 23.8878 43.3499C23.8432 43.4392 23.7807 43.5017 23.6915 43.5374C23.6022 43.5731 23.504 43.582 23.3701 43.5642C23.2451 43.5463 23.1023 43.4838 22.9327 43.3856C22.7899 43.3053 22.6649 43.2071 22.5399 43.0911C22.4149 42.975 22.3078 42.8411 22.2185 42.6894C22.1293 42.5376 22.0489 42.368 21.9954 42.1805C21.9418 41.9931 21.915 41.7878 21.915 41.5646V39.7168C21.915 39.4936 21.9418 39.324 21.9954 39.199C22.0489 39.074 22.1293 38.9937 22.2185 38.9491C22.3078 38.9044 22.4239 38.8955 22.5488 38.9223C22.6738 38.9491 22.8077 39.0026 22.9505 39.083C23.1112 39.1722 23.254 39.2883 23.3879 39.4133C23.5129 39.5382 23.62 39.6721 23.7004 39.806C23.7807 39.9399 23.8432 40.0828 23.8878 40.2167C23.9325 40.3595 23.9503 40.4845 23.9503 40.6094C23.9503 40.6898 23.9414 40.7344 23.9146 40.7433C23.8968 40.7523 23.8611 40.7523 23.8254 40.7255C23.7718 40.6987 23.7361 40.663 23.7272 40.6273C23.7004 40.6005 23.6915 40.5648 23.6915 40.5291Z" fill="white"/>
<path d="M17.3341 49.2508C17.4769 49.3311 17.6108 49.4293 17.7358 49.5453C17.8607 49.6614 17.9678 49.7953 18.066 49.9471C18.1553 50.0988 18.2267 50.2684 18.2803 50.4559C18.3338 50.6433 18.3606 50.8486 18.3606 51.0718V52.8929C18.3606 53.116 18.3338 53.2856 18.2803 53.4106C18.2267 53.5356 18.1553 53.6249 18.066 53.6606C17.9768 53.7052 17.8607 53.7141 17.7358 53.6873C17.6108 53.6606 17.4769 53.607 17.3341 53.5267L16.4414 53.0089C16.4057 52.9911 16.37 52.9553 16.3521 52.9196C16.3343 52.8839 16.3164 52.8482 16.3164 52.8125V48.7866C16.3164 48.7509 16.3253 48.733 16.3521 48.7241C16.37 48.7152 16.4057 48.7152 16.4414 48.7419L17.3341 49.2508ZM16.5664 49.0901V52.8036L17.3341 53.241C17.5751 53.3838 17.7625 53.4106 17.8964 53.3392C18.0303 53.2678 18.1017 53.0625 18.1017 52.7411V50.9201C18.1017 50.5898 18.0303 50.313 17.8964 50.0809C17.7625 49.8489 17.5751 49.6703 17.3341 49.5275L16.5664 49.0901Z" fill="white"/>
<defs>
<linearGradient id="paint0_linear" x1="1" y1="52.259" x2="37.2524" y2="52.259" gradientUnits="userSpaceOnUse">
<stop offset="0.4347" stop-color="#A1ABFF"/>
<stop offset="1" stop-color="#DBDFFF"/>
</linearGradient>
<linearGradient id="paint1_linear" x1="3.08787" y1="20.1345" x2="134.178" y2="89.8159" gradientUnits="userSpaceOnUse">
<stop stop-color="#DBDFFF"/>
<stop offset="1" stop-color="#7583FF"/>
</linearGradient>
<linearGradient id="paint2_linear" x1="37.252" y1="52.259" x2="73.5042" y2="52.259" gradientUnits="userSpaceOnUse">
<stop stop-color="#7583FF"/>
<stop offset="1" stop-color="#DBDFFF"/>
</linearGradient>
<linearGradient id="paint3_linear" x1="11.0964" y1="41.5937" x2="37.2519" y2="41.5937" gradientUnits="userSpaceOnUse">
<stop stop-color="#803EFF"/>
<stop offset="1" stop-color="#4502C6"/>
</linearGradient>
<linearGradient id="paint4_linear" x1="11.0964" y1="30.1694" x2="63.4074" y2="30.1694" gradientUnits="userSpaceOnUse">
<stop stop-color="#838FFF"/>
<stop offset="1" stop-color="#7583FF"/>
</linearGradient>
<linearGradient id="paint5_linear" x1="37.2529" y1="41.5937" x2="63.4084" y2="41.5937" gradientUnits="userSpaceOnUse">
<stop stop-color="#803EFF"/>
<stop offset="1" stop-color="#4502C6"/>
</linearGradient>
<linearGradient id="paint6_linear" x1="19.5778" y1="21.8571" x2="54.9261" y2="21.8571" gradientUnits="userSpaceOnUse">
<stop stop-color="#8E52FF"/>
<stop offset="1" stop-color="#D6BFFF"/>
</linearGradient>
<linearGradient id="paint7_linear" x1="27.0972" y1="20.3717" x2="37.2493" y2="20.3717" gradientUnits="userSpaceOnUse">
<stop stop-color="#FF3DFE"/>
<stop offset="1" stop-color="#8322AA"/>
</linearGradient>
<linearGradient id="paint8_linear" x1="27.0972" y1="13.8615" x2="47.4012" y2="13.8615" gradientUnits="userSpaceOnUse">
<stop stop-color="#FFBFFC"/>
<stop offset="1" stop-color="#FF52FC"/>
</linearGradient>
<linearGradient id="paint9_linear" x1="37.25" y1="20.3717" x2="47.4019" y2="20.3717" gradientUnits="userSpaceOnUse">
<stop stop-color="#D6BFFF"/>
<stop offset="1" stop-color="#FFACFC"/>
</linearGradient>
</defs>
</svg>
