<svg width="75" height="75" viewBox="0 0 75 75" fill="none" xmlns="http://www.w3.org/2000/svg">
<path d="M35.9328 63.8858C35.2539 64.2253 34.4901 64.2253 33.8113 63.8858L22.2704 57.3517C21.6764 57.0122 21.3369 56.4182 21.3369 55.7393V48.4414" stroke="#532CC9" stroke-miterlimit="10"/>
<path d="M18.7062 32.997C19.1305 32.4878 19.6397 32.0635 20.2337 31.6392C22.1006 30.3663 27.6165 30.6209 29.1439 31.1301C29.9077 31.3846 30.5866 31.8089 31.1806 32.4878V32.5727C31.3503 32.8272 31.52 32.997 31.6897 33.3364L33.2172 35.5427L32.6232 36.6459C32.7929 39.022 32.114 41.7375 30.926 44.0287C29.9077 45.8956 28.5499 47.5928 26.9376 48.696C26.5982 48.9506 26.2587 49.1203 26.0041 49.29L24.0524 48.102L22.8643 49.9689C22.0157 49.884 21.252 49.6294 20.658 49.2051C19.8942 48.696 18.1122 47.7625 17.009 46.5745C16.1604 45.8956 15.4816 44.7924 15.227 43.265C14.3784 39.8706 15.9907 35.5427 18.7062 32.997Z" fill="url(#paint0_linear)"/>
<path d="M47.2189 45.7265C49.0858 44.4536 50.9527 44.1142 52.4802 44.6234C54.1774 45.1325 55.4503 46.66 55.8746 49.0361C56.3838 51.6667 55.7049 54.8065 54.2623 57.4372C53.244 59.3041 51.8862 61.0013 50.2739 62.1044C46.2855 64.8199 42.4668 63.2925 41.7031 58.7949C40.7696 54.2974 43.3154 48.442 47.2189 45.7265Z" fill="url(#paint1_linear)"/>
<path d="M48.8312 46.5752C50.6981 45.3023 52.5651 44.9628 54.0925 45.472C55.7897 45.9812 57.0626 47.5086 57.4869 49.8847C57.9961 52.5153 57.3172 55.6551 55.8746 58.2858C54.8563 60.1527 53.4985 61.8499 51.8862 62.9531C47.8978 65.6686 44.0791 64.1411 43.3154 59.6435C42.3819 55.146 44.9277 49.2907 48.8312 46.5752Z" fill="url(#paint2_linear)"/>
<path d="M49.6799 47.084C51.5468 45.8111 53.4137 45.4716 54.9412 45.9808C55.7049 46.2354 56.3838 46.6597 56.9778 47.3385V47.4234C57.1475 47.678 57.3172 47.8477 57.4869 48.1871L59.0144 50.3935L58.4204 51.4967C58.5901 53.8727 57.9112 56.5882 56.7232 58.8794C55.7049 60.7463 54.3471 62.4435 52.7348 63.5467C52.3954 63.8013 52.0559 63.971 51.8014 64.1407L51.2922 65.159L48.6616 64.9045C46.4552 64.7347 44.758 63.1224 44.164 60.2372C43.2305 55.6548 45.7763 49.7995 49.6799 47.084Z" fill="url(#paint3_linear)"/>
<path d="M52.4801 49.7144C54.0925 48.6112 55.7048 48.3566 56.9777 48.7809C58.4203 49.2052 59.5235 50.563 59.8629 52.5996C60.2872 54.8908 59.6932 57.5214 58.5051 59.8126C57.6566 61.425 56.4685 62.8676 55.0259 63.8859C51.6315 66.1771 48.322 64.9042 47.5583 61.0007C46.8794 57.182 49.0857 52.0904 52.4801 49.7144Z" fill="#532CC9"/>
<path d="M52.9048 50.9873C54.3474 50.0538 55.7052 49.7992 56.8083 50.1387C58.0812 50.563 59.0147 51.6661 59.3541 53.4482C59.6936 55.4848 59.1844 57.776 58.1661 59.7278C57.4023 61.1704 56.384 62.4433 55.1111 63.2919C52.1411 65.3285 49.2558 64.2254 48.6618 60.7461C48.0678 57.4366 49.9347 53.0239 52.9048 50.9873Z" fill="#783AF6"/>
<path d="M54.8557 54.9754C55.3648 54.636 57.062 54.3814 57.4863 54.5511C57.9955 54.7208 58.3349 55.1451 58.4198 55.824C58.5895 56.5877 58.3349 57.4363 57.9955 58.2001C57.7409 58.7092 57.3166 59.2184 56.8923 59.5578C55.7891 60.3215 54.686 59.8972 54.5163 58.6243C54.1768 57.1817 53.7525 55.7391 54.8557 54.9754Z" fill="#532CC9"/>
<path d="M54.6875 55.061C55.2815 54.6367 55.8755 54.5519 56.3847 54.7216C56.6392 54.8065 56.8938 54.9762 57.0635 55.1459C57.1484 55.2308 57.1484 55.3156 57.2333 55.4005L57.7424 56.0794L57.5727 56.4188C57.6575 57.1825 57.403 58.0311 56.9787 58.7949C56.6392 59.3889 56.2149 59.9829 55.7058 60.3223C55.6209 60.4072 55.5361 60.4921 55.3663 60.4921L55.1118 60.9163L54.2632 60.8315C53.5843 60.7466 52.9903 60.2375 52.8206 59.304C52.566 57.8614 53.4146 55.9945 54.6875 55.061Z" fill="#D6DAFF"/>
<path d="M55.535 55.9091C56.0442 55.5697 56.5533 55.4848 56.9776 55.5697C57.4868 55.7394 57.8262 56.1637 57.9111 56.8426C58.0808 57.6063 57.8262 58.4549 57.4868 59.2186C57.2322 59.7278 56.8079 60.2369 56.3836 60.5764C55.2804 61.3401 54.1773 60.9158 54.0075 59.6429C53.753 58.37 54.4318 56.6728 55.535 55.9091Z" fill="#819591"/>
<path d="M23.3725 31.9787C25.2395 30.7058 27.1912 30.1967 28.7187 30.5361C30.6705 30.8756 32.4525 32.0636 32.8768 34.4397C33.386 37.0703 31.7736 41.0587 30.331 43.6893C29.3127 45.5563 28.0398 48.6112 26.4275 49.7144C22.5239 52.4299 18.4507 50.1387 17.6021 45.6411C16.7535 41.0587 19.469 34.6942 23.3725 31.9787Z" fill="url(#paint4_linear)"/>
<path d="M24.9865 32.8271C26.8534 31.5542 28.7203 31.2148 30.2478 31.724C31.945 32.2331 33.2179 33.7606 33.6422 36.1366C34.1513 38.7673 33.4725 41.9071 32.0299 44.5377C31.0115 46.4047 29.6538 48.1018 28.0415 49.205C24.0531 51.9205 20.2344 50.393 19.4706 45.8955C18.5372 41.3979 21.083 35.5426 24.9865 32.8271Z" fill="#271893"/>
<path d="M25.3257 34.6094C26.7683 33.5911 28.2109 33.3365 29.4838 33.7608C30.8416 34.1851 31.775 35.3732 32.1145 37.2401C32.5387 39.3616 31.9447 41.7376 30.8416 43.8591C30.0778 45.3866 28.9746 46.6595 27.7018 47.5929C24.562 49.7144 21.5919 48.5264 20.913 44.9623C20.2341 41.3133 22.1859 36.7309 25.3257 34.6094Z" fill="url(#paint5_linear)"/>
<path d="M24.5611 35.7129C25.7492 34.8643 26.9372 34.6946 27.9555 35.034C29.0587 35.3735 29.9073 36.3918 30.1619 37.9192C30.5013 39.6164 30.077 41.6531 29.1435 43.3503C28.4647 44.6232 27.6161 45.6415 26.5129 46.4052C23.9671 48.1873 21.4213 47.1689 20.9122 44.1989C20.403 41.3136 22.0153 37.4949 24.5611 35.7129Z" fill="#140C77"/>
<path d="M19.5566 22.814C21.4236 17.8073 26.4303 14.9221 31.0975 14.9221C33.219 14.9221 35.3405 15.5161 37.2923 16.6193L39.7532 18.0619C47.9846 22.814 53.0762 31.6394 53.0762 41.1437L55.3674 56.3336L57.4889 55.9093L58.1677 39.6162C58.1677 29.2634 52.6519 19.7591 43.7416 14.5826L41.2807 13.14C36.5286 10.3397 31.0975 10.6791 26.8546 13.0552C26.3454 13.3946 23.3753 15.0069 22.8662 15.4312C19.8961 17.2982 20.2355 19.0802 19.5566 22.814Z" fill="url(#paint6_linear)"/>
<path d="M16.501 27.227L16.7556 35.5432C16.7556 35.5432 17.6042 33.7612 18.7073 33.6763V27.227C18.7073 25.6147 18.9619 24.0872 19.4711 22.8143C21.338 17.8076 26.3447 14.9224 31.012 14.9224C33.1334 14.9224 35.2549 15.5164 37.2067 16.6196L39.6676 18.0622C47.899 22.8143 52.9906 31.6397 52.9906 41.144V47.5933L53.6695 49.1208L53.7543 50.5634V56.0793L55.2818 56.249V41.0591C55.2818 30.7063 49.7659 21.202 40.8557 16.0256L38.3947 14.5829C34.0669 12.0372 29.2299 12.0372 25.2415 13.8192C20.2348 16.1104 16.501 21.0323 16.501 27.227Z" fill="#D6DAFF"/>
<path d="M19.5551 22.8145C20.9977 19.1656 24.0526 16.6198 27.447 15.5166C25.2406 16.8744 23.3737 18.911 22.3554 21.5416C21.8463 22.8994 21.5917 24.342 21.5917 25.9543L21.3371 32.1491C20.9128 33.3371 18.7913 33.6765 18.7913 33.6765V27.2272C18.7065 25.6149 19.0459 24.0874 19.5551 22.8145Z" fill="#8B97FF"/>
<path d="M55.535 55.9091C56.0442 55.5697 56.5533 55.4848 56.9776 55.5697C57.4868 55.7394 57.8262 56.1637 57.9111 56.8426C58.0808 57.6063 57.8262 58.4549 57.4868 59.2186C57.2322 59.7278 56.8079 60.2369 56.3836 60.5764C55.2804 61.3401 54.1773 60.9158 54.0075 59.6429C53.753 58.37 54.4318 56.6728 55.535 55.9091Z" fill="url(#paint7_linear)"/>
<path d="M55.7891 56.4182C56.2133 56.1637 56.6376 56.0788 56.9771 56.1637C57.4014 56.2485 57.656 56.6728 57.7408 57.182C57.8257 57.776 57.7408 58.5397 57.4014 59.1337C57.1468 59.558 56.8922 59.9823 56.4679 60.2369C55.5345 60.8309 54.6859 60.4915 54.5162 59.4732C54.2616 58.37 54.8556 57.0123 55.7891 56.4182Z" fill="url(#paint8_linear)"/>
<path d="M56.3828 57.5214C56.6374 57.3517 56.8919 57.2668 57.0617 57.3517C57.3162 57.4365 57.4859 57.6062 57.4859 57.9457C57.5708 58.2851 57.4859 58.7094 57.2314 59.0488C57.0617 59.3034 56.8919 59.558 56.7222 59.6429C56.2131 59.9823 55.7039 59.8126 55.5342 59.2186C55.5342 58.7094 55.8736 57.9457 56.3828 57.5214Z" fill="#D6DAFF"/>
<path d="M40.2604 20.3527L37.7994 18.9101C36.0174 17.8917 33.811 17.2977 31.7744 17.0432C29.6529 16.7886 28.38 16.2794 22.7793 17.9766V14.8368L26.0888 13.8185C28.38 12.3759 32.8776 12.3759 32.8776 12.3759C33.4716 12.291 34.1505 12.291 34.7445 12.291C37.3751 12.291 40.0058 12.9699 42.3819 14.3276L44.8428 15.7703C47.8977 17.5523 52.1407 19.0798 54.4319 21.7104C54.7713 22.1347 53.753 23.6622 53.753 23.6622L47.8977 27.0566C45.8611 24.3411 43.3153 22.0499 40.2604 20.3527Z" fill="url(#paint9_linear)"/>
<path d="M40.6847 17.3828L38.2237 15.9402C36.4417 14.9219 34.0656 14.0733 32.029 13.9035C29.9075 13.649 28.1254 13.2247 22.7793 14.7521L26.5131 12.5458C28.8043 11.1032 32.9624 10.0849 32.9624 10.0849C33.5565 10 34.2353 10 34.8294 10C37.46 10 40.0906 10.6789 42.4667 12.0366L44.9276 13.4792C48.4917 15.5159 52.1407 18.4011 54.5168 21.6258L48.6615 25.0201C46.4551 22.3895 43.7396 19.1648 40.6847 17.3828Z" fill="url(#paint10_linear)"/>
<path d="M25.5801 36.8154C25.6649 36.6457 25.7498 36.6457 25.8347 36.7305L28.1259 39.7855C28.2107 39.8703 28.2107 40.0401 28.2107 40.1249C28.2107 40.2098 28.041 40.2098 27.9561 40.1249C27.8713 40.0401 25.6649 37.07 25.6649 37.07C25.5801 37.07 25.5801 36.9003 25.5801 36.8154Z" fill="#271893"/>
<path d="M24.6465 37.9189C24.7313 37.7492 24.901 37.7492 24.9859 37.8341L27.7863 41.5679C27.8711 41.6527 27.8711 41.8225 27.8711 41.9922V42.077C27.7863 42.1619 27.6165 42.2468 27.6165 42.077C27.5317 41.9073 24.8162 38.3432 24.8162 38.3432C24.5616 38.2584 24.5616 38.0886 24.6465 37.9189Z" fill="#271893"/>
<path d="M23.9668 39.4463C24.0516 39.2765 24.2213 39.2765 24.3062 39.3614L27.1066 43.0952C27.1914 43.1801 27.1914 43.3498 27.1914 43.5195V43.6044C27.1066 43.6892 26.9369 43.7741 26.9369 43.6044C26.852 43.4347 24.1365 39.8706 24.1365 39.8706C23.8819 39.7857 23.8819 39.616 23.9668 39.4463Z" fill="#271893"/>
<path d="M23.7979 41.7372C23.8828 41.6523 23.9676 41.5675 24.0525 41.6523L26.0043 44.1981C26.0891 44.283 26.0891 44.3678 26.0043 44.4527C26.0043 44.5376 25.8346 44.5376 25.8346 44.4527C25.7497 44.3678 23.8828 41.9069 23.8828 41.9069C23.7131 41.9069 23.7131 41.8221 23.7979 41.7372Z" fill="#271893"/>
<path d="M28.1253 41.1436C28.2102 41.1436 28.295 41.2284 28.295 41.3133L27.107 44.1985C27.107 44.2834 26.9373 44.3682 26.8524 44.3682C26.7676 44.3682 26.6827 44.2834 26.7676 44.1985C26.8524 44.1136 27.9556 41.3133 27.9556 41.3133C27.8707 41.2284 27.9556 41.2284 28.1253 41.1436Z" fill="#271893"/>
<path d="M27.3618 39.1064C27.5315 39.1064 27.6164 39.1913 27.6164 39.361L25.8343 43.6889C25.7495 43.8586 25.6646 43.9434 25.4949 43.9434H25.41C25.2403 43.9434 25.1555 43.8586 25.2403 43.6889C25.3252 43.5191 27.0224 39.361 27.0224 39.361C27.1072 39.2762 27.1921 39.1064 27.3618 39.1064Z" fill="#271893"/>
<path d="M26.2583 37.834C26.428 37.834 26.5129 37.9188 26.5129 38.0886L24.7308 42.4164C24.646 42.5861 24.5611 42.671 24.3914 42.671H24.3065C24.1368 42.671 24.0519 42.5861 24.1368 42.4164C24.2217 42.2467 25.9189 38.0886 25.9189 38.0886C26.0037 37.9188 26.0886 37.834 26.2583 37.834Z" fill="#271893"/>
<path d="M25.0703 36.9004C25.2401 36.9004 25.2401 36.9852 25.2401 37.0701L23.8823 40.2099C23.7974 40.2948 23.7126 40.3796 23.6277 40.3796C23.5429 40.3796 23.458 40.2948 23.458 40.2099C23.5429 40.0402 24.8158 37.0701 24.8158 37.0701C24.8158 37.0701 24.9006 36.9853 25.0703 36.9004Z" fill="#271893"/>
<path d="M38.4782 64.31L36.2718 64.8191C35.6778 64.9889 35.0838 64.5646 34.9989 64.0554C34.8292 63.4614 35.2535 62.8674 35.7627 62.7825L37.969 62.2734C38.563 62.1036 39.1571 62.5279 39.2419 63.0371C39.4116 63.5463 39.0722 64.1403 38.4782 64.31Z" fill="url(#paint11_linear)"/>
<defs>
<linearGradient id="paint0_linear" x1="24.9435" y1="30.4901" x2="22.7056" y2="50.1385" gradientUnits="userSpaceOnUse">
<stop stop-color="#DBDFFF"/>
<stop offset="0.7834" stop-color="#8B97FF"/>
<stop offset="1" stop-color="#B2BAFF"/>
</linearGradient>
<linearGradient id="paint1_linear" x1="53.748" y1="45.245" x2="43.7016" y2="62.6457" gradientUnits="userSpaceOnUse">
<stop stop-color="#3922AA"/>
<stop offset="1" stop-color="#7F3DFF"/>
</linearGradient>
<linearGradient id="paint2_linear" x1="43.0425" y1="54.8072" x2="57.5912" y2="54.8072" gradientUnits="userSpaceOnUse">
<stop stop-color="#3922AA"/>
<stop offset="1" stop-color="#7F3DFF"/>
</linearGradient>
<linearGradient id="paint3_linear" x1="58.039" y1="48.5941" x2="43.6859" y2="62.6438" gradientUnits="userSpaceOnUse">
<stop stop-color="#DBDFFF"/>
<stop offset="0.7834" stop-color="#8B97FF"/>
<stop offset="1" stop-color="#B2BAFF"/>
</linearGradient>
<linearGradient id="paint4_linear" x1="30.3089" y1="30.995" x2="19.5477" y2="49.6338" gradientUnits="userSpaceOnUse">
<stop stop-color="#3922AA"/>
<stop offset="1" stop-color="#7F3DFF"/>
</linearGradient>
<linearGradient id="paint5_linear" x1="27.8871" y1="38.6046" x2="19.9676" y2="52.3221" gradientUnits="userSpaceOnUse">
<stop stop-color="#3922AA"/>
<stop offset="1" stop-color="#7F3DFF"/>
</linearGradient>
<linearGradient id="paint6_linear" x1="57.5275" y1="52.7592" x2="28.3063" y2="11.8052" gradientUnits="userSpaceOnUse">
<stop stop-color="#B2BAFF"/>
<stop offset="0.2166" stop-color="#8B97FF"/>
<stop offset="1" stop-color="#DBDFFF"/>
</linearGradient>
<linearGradient id="paint7_linear" x1="53.9442" y1="58.2471" x2="58.0267" y2="58.2471" gradientUnits="userSpaceOnUse">
<stop stop-color="#B2BAFF"/>
<stop offset="0.2166" stop-color="#8B97FF"/>
<stop offset="1" stop-color="#DBDFFF"/>
</linearGradient>
<linearGradient id="paint8_linear" x1="54.2327" y1="58.7369" x2="58.2174" y2="57.7823" gradientUnits="userSpaceOnUse">
<stop stop-color="#B2BAFF"/>
<stop offset="0.2166" stop-color="#8B97FF"/>
<stop offset="1" stop-color="#DBDFFF"/>
</linearGradient>
<linearGradient id="paint9_linear" x1="22.8664" y1="19.5873" x2="54.4657" y2="19.5873" gradientUnits="userSpaceOnUse">
<stop stop-color="#3922AA"/>
<stop offset="1" stop-color="#7F3DFF"/>
</linearGradient>
<linearGradient id="paint10_linear" x1="32.9006" y1="8.73262" x2="56.8904" y2="48.4428" gradientUnits="userSpaceOnUse">
<stop stop-color="#3922AA"/>
<stop offset="1" stop-color="#7F3DFF"/>
</linearGradient>
<linearGradient id="paint11_linear" x1="37.4157" y1="64.5462" x2="36.8623" y2="62.7475" gradientUnits="userSpaceOnUse">
<stop stop-color="#3922AA"/>
<stop offset="1" stop-color="#7F3DFF"/>
</linearGradient>
</defs>
</svg>
