<svg width="75" height="75" viewBox="0 0 75 75" fill="none" xmlns="http://www.w3.org/2000/svg">
<path d="M64.0932 22.3838L64.0178 35.2785L61.1523 41.0203L61.2278 28.1256L64.0932 22.3838Z" fill="url(#paint0_linear)"/>
<path d="M10.1982 32.639L10.1228 45.5337L4.31641 40.5676L4.39181 27.6729L10.1982 32.639Z" fill="url(#paint1_linear)"/>
<path d="M71.9879 34.1045L71.9125 42.3455L63.8115 45.9651L63.8869 37.7348L71.9879 34.1045Z" fill="url(#paint2_linear)"/>
<path d="M3.17421 40.1907L3.0988 48.4317C2.48476 47.1498 2.14004 45.8248 2 44.4998L2.07541 36.2695C2.21545 37.5946 2.57094 38.9088 3.17421 40.1907Z" fill="url(#paint3_linear)"/>
<path d="M12.8605 42.2695L12.7851 52.051L3.08984 48.4314L3.17602 40.1904L12.8605 42.2695Z" fill="url(#paint4_linear)"/>
<path d="M69.6915 42.7227L69.6161 50.9529C68.8082 52.1702 67.7525 53.3444 66.5244 54.4755L66.5998 46.2345C67.8279 45.1034 68.8944 43.9292 69.6915 42.7227Z" fill="url(#paint5_linear)"/>
<path d="M66.6133 46.2344L66.5379 54.4646L56.2178 54.6154L56.2932 46.3852L66.6133 46.2344Z" fill="url(#paint6_linear)"/>
<path d="M14.8195 50.8126L14.7333 59.0428C13.8715 58.6334 13.0205 58.181 12.191 57.707C11.3831 57.2438 10.6182 56.7483 9.90723 56.2419L9.98263 48.0117C10.6936 48.5073 11.4585 49.0028 12.2664 49.4768C13.0959 49.9508 13.9469 50.4032 14.8195 50.8126Z" fill="url(#paint7_linear)"/>
<path d="M24.7411 49.1748L24.6657 57.405L14.7334 59.0425L14.8196 50.8122L24.7411 49.1748Z" fill="url(#paint8_linear)"/>
<path d="M56.297 46.3848L56.2216 54.615L55.8984 60.6045L55.9738 52.3743L56.297 46.3848Z" fill="url(#paint9_linear)"/>
<path d="M55.9714 52.375L55.896 60.6052C53.9462 61.3054 51.9317 61.9087 49.8203 62.3827L49.8957 54.1525C52.0071 53.6785 54.0216 53.0752 55.9714 52.375Z" fill="url(#paint10_linear)"/>
<path d="M49.8954 54.1414L49.82 62.3824L41.2559 58.9783L41.3313 50.748L49.8954 54.1414Z" fill="url(#paint11_linear)"/>
<path d="M28.2729 54.7981L28.1975 63.0283L24.6641 57.405L24.7395 49.1748L28.2729 54.7981Z" fill="url(#paint12_linear)"/>
<path d="M41.3285 50.748L41.2531 58.9783L34.9404 63.6751L35.0158 55.4341L41.3285 50.748Z" fill="url(#paint13_linear)"/>
<path d="M35.0163 55.4345L34.9301 63.6647C32.6571 63.5677 30.3841 63.3631 28.1865 63.0183L28.2619 54.7773C30.4703 55.1436 32.7433 55.3483 35.0163 55.4345Z" fill="url(#paint14_linear)"/>
<path d="M7.48497 24.1617L17.8158 24.0001L18.1282 18.0321C20.0673 17.3104 22.1141 16.7179 24.2147 16.2546L32.7789 19.6265L39.0593 14.9512C41.3646 15.0266 43.6161 15.242 45.846 15.5868L49.3578 21.2208L59.2794 19.5941C60.1412 20.0035 60.9922 20.4559 61.8001 20.9192C62.6296 21.4039 63.3945 21.8995 64.0947 22.395L61.2292 28.1368L70.946 30.1943C71.5385 31.487 71.894 32.7905 72.0017 34.1155L63.89 37.7459L69.6964 42.7336C68.8992 43.9401 67.8328 45.1143 66.6155 46.2454L56.2954 46.3962L55.9722 52.375C54.0224 53.0752 52.0079 53.6785 49.8965 54.1525L41.3323 50.7591L35.0196 55.4452C32.7466 55.359 30.4628 55.1543 28.276 54.7988L24.7426 49.1755L14.8211 50.813C13.9485 50.4036 13.0975 49.9512 12.2787 49.4772C11.4708 49.0032 10.706 48.5076 9.99497 48.0121L12.8605 42.2703L3.17595 40.1912C2.57269 38.9093 2.22796 37.5951 2.07715 36.27L10.1996 32.6289L4.39325 27.6628C5.21196 26.4562 6.23535 25.2713 7.48497 24.1617ZM53.85 25.4975C44.5533 20.0897 29.4825 20.0358 20.1858 25.3898C10.8999 30.7437 10.9214 39.491 20.2181 44.8988C29.5364 50.3174 44.6395 50.3713 53.9254 45.0173C63.2113 39.6526 63.1682 30.9053 53.85 25.4975Z" fill="url(#paint15_linear)"/>
<path d="M20.2161 44.8886C10.9194 39.4915 10.8979 30.7442 20.1838 25.3795C29.4805 20.0255 44.5513 20.0794 53.848 25.4872C63.1662 30.9058 63.2093 39.6423 53.9126 44.9963C44.6267 50.361 29.5236 50.3072 20.2161 44.8886Z" fill="white"/>
<path d="M53.0727 26.8341C48.7637 24.3349 43.0112 22.9668 36.8816 22.9668C30.8382 22.9668 25.1934 24.3026 20.9706 26.7264C16.9955 29.0317 14.7979 31.9942 14.7979 35.1075C14.7871 38.2207 16.9847 41.2155 21.0029 43.5424C25.3119 46.0631 31.0752 47.4312 37.2263 47.4312C43.2697 47.4312 48.9253 46.0955 53.1374 43.6501C57.1124 41.3663 59.31 38.3931 59.31 35.3229C59.31 32.1989 57.1017 29.1826 53.0727 26.8341ZM28.6945 40.0197C24.0731 37.3266 24.0623 32.996 28.6837 30.3352C33.3051 27.6636 40.792 27.6959 45.4135 30.3783C50.0349 33.0714 50.0457 37.402 45.4458 40.0628C40.8136 42.7344 33.3051 42.7021 28.6945 40.0197Z" fill="url(#paint16_linear)"/>
<path opacity="0.75" d="M46.1796 29.0415C43.6912 27.598 40.4163 26.79 36.9583 26.79C33.5542 26.79 30.3332 27.5657 27.8986 28.9769C25.1732 30.5497 23.6758 32.7365 23.6758 35.1495C23.6758 37.5626 25.1732 39.771 27.8986 41.3545C30.3871 42.8196 33.6619 43.606 37.1307 43.606C40.5348 43.606 43.7558 42.8304 46.2119 41.4192C48.9374 39.8464 50.424 37.6703 50.424 35.268C50.4348 32.8442 48.9266 30.6466 46.1796 29.0415ZM45.4363 40.0618C40.8149 42.7334 33.3172 42.7011 28.6958 40.0187C24.0744 37.3256 24.0636 32.995 28.685 30.3342C33.3064 27.6626 40.7934 27.6949 45.4148 30.3773C50.0147 33.0704 50.0362 37.401 45.4363 40.0618Z" fill="url(#paint17_linear)"/>
<path d="M47.5808 38.3497C47.053 37.7249 46.3204 37.1216 45.4048 36.5938C40.7833 33.9006 33.2964 33.8683 28.675 36.5507C27.7701 37.0678 27.0591 37.6495 26.5097 38.2743C24.2367 35.6889 24.9585 32.4787 28.675 30.3349C33.2964 27.6633 40.7833 27.6956 45.4048 30.378C49.1321 32.5541 49.8646 35.7858 47.5808 38.3497Z" fill="url(#paint18_linear)"/>
<path d="M37.5276 41.5707L37.3984 41.4953L36.1057 40.7412L36.0626 40.7196L36.041 34.5146L37.5061 35.3657L37.5276 41.5707Z" fill="url(#paint19_linear)"/>
<path d="M37.5061 35.3762L36.041 34.5252L37.7108 33.5557L39.1758 34.4067L37.5061 35.3762Z" fill="#926DDB"/>
<path d="M39.2079 40.6338L37.5274 41.5817L37.5059 35.3768L39.1864 34.4072L39.2079 40.6338Z" fill="url(#paint20_linear)"/>
<path d="M35.4593 39.1678L30.8917 36.5178L30.8486 19.4648L35.4162 22.1149L35.4593 39.1678Z" fill="url(#paint21_linear)"/>
<path d="M35.4162 22.1158L30.8486 19.4657L37.4091 15.6846L41.9659 18.3346L35.4162 22.1158Z" fill="#926DDB"/>
<path d="M41.9745 18.334L42.0176 35.3869L35.4572 39.1681L35.4141 22.1151L41.9745 18.334Z" fill="url(#paint22_linear)"/>
<path d="M36.18 20.0257L36.0507 19.9503L34.758 19.207L34.7149 19.1855L34.6826 12.9697L36.1477 13.8208L36.18 20.0257Z" fill="url(#paint23_linear)"/>
<path d="M36.1477 13.8206L34.6826 12.9695L36.3631 12L37.8282 12.851L36.1477 13.8206Z" fill="url(#paint24_linear)"/>
<path d="M37.8525 19.0771L36.1827 20.0251L36.1504 13.8201L37.8309 12.8506L37.8525 19.0771Z" fill="url(#paint25_linear)"/>
<path opacity="0.42" d="M41.9745 18.334L35.4141 22.1151L35.4572 39.1681L35.8557 23.3648C35.8665 22.8046 36.1574 22.2767 36.6206 21.9643L41.9745 18.334Z" fill="url(#paint26_linear)"/>
<path opacity="0.42" d="M37.8309 12.8506L36.1504 13.8201L36.1719 20.0251L36.4089 14.0679L37.8309 12.8506Z" fill="url(#paint27_linear)"/>
<defs>
<linearGradient id="paint0_linear" x1="61.1473" y1="31.7061" x2="64.0938" y2="31.7061" gradientUnits="userSpaceOnUse">
<stop stop-color="#4502C6"/>
<stop offset="1" stop-color="#803EFF"/>
</linearGradient>
<linearGradient id="paint1_linear" x1="4.31274" y1="36.6042" x2="10.2024" y2="36.6042" gradientUnits="userSpaceOnUse">
<stop stop-color="#4502C6"/>
<stop offset="1" stop-color="#803EFF"/>
</linearGradient>
<linearGradient id="paint2_linear" x1="63.808" y1="40.038" x2="71.9925" y2="40.038" gradientUnits="userSpaceOnUse">
<stop stop-color="#4502C6"/>
<stop offset="1" stop-color="#803EFF"/>
</linearGradient>
<linearGradient id="paint3_linear" x1="2" y1="42.351" x2="3.17335" y2="42.351" gradientUnits="userSpaceOnUse">
<stop stop-color="#7230F1"/>
<stop offset="1" stop-color="#9F9CFF"/>
</linearGradient>
<linearGradient id="paint4_linear" x1="3.0948" y1="46.1222" x2="12.8649" y2="46.1222" gradientUnits="userSpaceOnUse">
<stop stop-color="#4502C6"/>
<stop offset="1" stop-color="#803EFF"/>
</linearGradient>
<linearGradient id="paint5_linear" x1="66.5306" y1="48.5957" x2="69.6937" y2="48.5957" gradientUnits="userSpaceOnUse">
<stop stop-color="#7230F1"/>
<stop offset="1" stop-color="#9F9CFF"/>
</linearGradient>
<linearGradient id="paint6_linear" x1="56.2179" y1="50.4261" x2="66.6108" y2="50.4261" gradientUnits="userSpaceOnUse">
<stop stop-color="#4502C6"/>
<stop offset="1" stop-color="#803EFF"/>
</linearGradient>
<linearGradient id="paint7_linear" x1="9.91865" y1="53.5276" x2="14.818" y2="53.5276" gradientUnits="userSpaceOnUse">
<stop stop-color="#7230F1"/>
<stop offset="1" stop-color="#9F9CFF"/>
</linearGradient>
<linearGradient id="paint8_linear" x1="14.7371" y1="54.1086" x2="24.7395" y2="54.1086" gradientUnits="userSpaceOnUse">
<stop stop-color="#4502C6"/>
<stop offset="1" stop-color="#803EFF"/>
</linearGradient>
<linearGradient id="paint9_linear" x1="55.8942" y1="53.4948" x2="56.2993" y2="53.4948" gradientUnits="userSpaceOnUse">
<stop stop-color="#7230F1"/>
<stop offset="1" stop-color="#9F9CFF"/>
</linearGradient>
<linearGradient id="paint10_linear" x1="49.8192" y1="57.3744" x2="55.9721" y2="57.3744" gradientUnits="userSpaceOnUse">
<stop stop-color="#7230F1"/>
<stop offset="1" stop-color="#9F9CFF"/>
</linearGradient>
<linearGradient id="paint11_linear" x1="41.253" y1="56.563" x2="49.8944" y2="56.563" gradientUnits="userSpaceOnUse">
<stop stop-color="#4502C6"/>
<stop offset="1" stop-color="#803EFF"/>
</linearGradient>
<linearGradient id="paint12_linear" x1="24.661" y1="56.1016" x2="28.2711" y2="56.1016" gradientUnits="userSpaceOnUse">
<stop stop-color="#4502C6"/>
<stop offset="1" stop-color="#803EFF"/>
</linearGradient>
<linearGradient id="paint13_linear" x1="34.9382" y1="57.21" x2="41.3312" y2="57.21" gradientUnits="userSpaceOnUse">
<stop stop-color="#4502C6"/>
<stop offset="1" stop-color="#803EFF"/>
</linearGradient>
<linearGradient id="paint14_linear" x1="28.192" y1="59.2339" x2="35.0197" y2="59.2339" gradientUnits="userSpaceOnUse">
<stop stop-color="#7230F1"/>
<stop offset="1" stop-color="#9F9CFF"/>
</linearGradient>
<linearGradient id="paint15_linear" x1="2.0807" y1="35.1941" x2="71.9956" y2="35.1941" gradientUnits="userSpaceOnUse">
<stop stop-color="#7583FF"/>
<stop offset="1" stop-color="#DBDFFF"/>
</linearGradient>
<linearGradient id="paint16_linear" x1="14.7942" y1="35.1973" x2="59.3102" y2="35.1973" gradientUnits="userSpaceOnUse">
<stop stop-color="#7583FF"/>
<stop offset="1" stop-color="#DBDFFF"/>
</linearGradient>
<linearGradient id="paint17_linear" x1="23.6708" y1="35.1963" x2="50.4209" y2="35.1963" gradientUnits="userSpaceOnUse">
<stop stop-color="#7583FF"/>
<stop offset="1" stop-color="#DBDFFF"/>
</linearGradient>
<linearGradient id="paint18_linear" x1="26.0595" y1="34.3123" x2="62.6248" y2="32.0962" gradientUnits="userSpaceOnUse">
<stop stop-color="#4502C6"/>
<stop offset="1" stop-color="#803EFF"/>
</linearGradient>
<linearGradient id="paint19_linear" x1="36.7068" y1="42.7452" x2="36.7745" y2="38.541" gradientUnits="userSpaceOnUse">
<stop stop-color="#7F3DFF" stop-opacity="0.6"/>
<stop offset="1" stop-color="#3922AA"/>
</linearGradient>
<linearGradient id="paint20_linear" x1="38.4633" y1="41.0385" x2="38.2262" y2="34.2914" gradientUnits="userSpaceOnUse">
<stop stop-color="#7F3DFF" stop-opacity="0.6"/>
<stop offset="1" stop-color="#3922AA"/>
</linearGradient>
<linearGradient id="paint21_linear" x1="33.6129" y1="20.0211" x2="32.5967" y2="40.7707" gradientUnits="userSpaceOnUse">
<stop stop-color="#7F3DFF" stop-opacity="0.6"/>
<stop offset="1" stop-color="#3922AA"/>
</linearGradient>
<linearGradient id="paint22_linear" x1="37.944" y1="8.99031" x2="39.0278" y2="36.7239" gradientUnits="userSpaceOnUse">
<stop stop-color="#D6BFFF"/>
<stop offset="1" stop-color="#8E52FF"/>
</linearGradient>
<linearGradient id="paint23_linear" x1="36.1108" y1="6.87753" x2="35.2303" y2="19.3545" gradientUnits="userSpaceOnUse">
<stop stop-color="#7F3DFF" stop-opacity="0.6"/>
<stop offset="1" stop-color="#3922AA"/>
</linearGradient>
<linearGradient id="paint24_linear" x1="36.0256" y1="16.6199" x2="36.3474" y2="11.5003" gradientUnits="userSpaceOnUse">
<stop stop-color="#D6BFFF"/>
<stop offset="1" stop-color="#8E52FF"/>
</linearGradient>
<linearGradient id="paint25_linear" x1="36.4166" y1="7.5394" x2="37.2972" y2="20.83" gradientUnits="userSpaceOnUse">
<stop stop-color="#D6BFFF"/>
<stop offset="1" stop-color="#8E52FF"/>
</linearGradient>
<linearGradient id="paint26_linear" x1="30.9606" y1="28.7501" x2="46.423" y2="28.7501" gradientUnits="userSpaceOnUse">
<stop stop-color="white"/>
<stop offset="1" stop-color="#B28AFF"/>
</linearGradient>
<linearGradient id="paint27_linear" x1="35.0157" y1="16.4369" x2="38.9723" y2="16.4369" gradientUnits="userSpaceOnUse">
<stop stop-color="white"/>
<stop offset="1" stop-color="#B28AFF"/>
</linearGradient>
</defs>
</svg>
