<svg width="75" height="75" viewBox="0 0 75 75" fill="none" xmlns="http://www.w3.org/2000/svg">
<g opacity="0.15">
<path opacity="0.0909" d="M21.2568 54.0438L32.8285 49.5925C33.4797 49.2155 34.3022 49.0142 35.1248 49.0227C35.4782 49.027 35.8146 49.0741 36.1252 49.1513C36.4208 49.2241 36.7635 49.3676 37.0034 49.5068L45.5611 54.5194C45.5697 54.5236 45.8096 54.665 45.816 54.6714C46.4929 55.0784 46.8014 55.7125 46.765 56.3958C46.7264 57.0963 46.1995 57.8889 45.4412 58.328L38.3251 65.1827C37.6868 65.5512 36.8856 65.7547 36.0759 65.7547C35.3711 65.7547 34.7285 65.6026 34.223 65.3113L21.034 57.5761C20.37 57.1927 19.993 56.5886 19.9951 55.9203C19.9994 55.1898 20.4557 54.5065 21.2568 54.0438Z" fill="#9FA5D0"/>
<path opacity="0.1818" d="M21.3057 54.0548L32.8773 49.6035C33.5264 49.2286 34.349 49.0337 35.163 49.0487C35.5164 49.0572 35.8484 49.1129 36.1548 49.1922C36.4204 49.2607 36.806 49.4321 37.0223 49.5563L45.5329 54.5432C45.5479 54.5517 45.7728 54.6845 45.7856 54.6952C46.4497 55.1065 46.6682 55.7363 46.5954 56.4111C46.5268 57.0387 45.942 57.9105 45.2608 58.3047L38.2754 65.0973C37.6521 65.4572 36.8702 65.6542 36.0798 65.6564C35.3922 65.6585 34.7645 65.5107 34.2718 65.2258L21.0872 57.4136C20.4489 57.0451 20.0933 56.471 20.0997 55.837C20.1018 55.1451 20.541 54.496 21.3057 54.0548Z" fill="#8F95BB"/>
<path opacity="0.2727" d="M21.3575 54.063L32.9291 49.6117C33.576 49.239 34.4007 49.0484 35.204 49.0741C35.5553 49.0848 35.8852 49.149 36.1851 49.2326C36.4186 49.2969 36.8513 49.4961 37.0419 49.6075L45.5054 54.5664C45.529 54.5793 45.7367 54.7057 45.756 54.7207C46.4051 55.1384 46.5379 55.7574 46.4244 56.4258C46.3301 56.9784 45.6832 57.9295 45.077 58.2787L38.2222 65.0092C37.6139 65.3605 36.8492 65.5533 36.0823 65.5554C35.4139 65.5576 34.797 65.414 34.3193 65.1377L21.1347 57.2462C20.5242 56.8927 20.1879 56.3487 20.1964 55.751C20.2072 55.0998 20.6249 54.485 21.3575 54.063Z" fill="#7F84A7"/>
<path opacity="0.3636" d="M21.4078 54.0718L32.9795 49.6205C33.6221 49.2499 34.4511 49.0657 35.2437 49.0978C35.5928 49.1128 35.9184 49.1857 36.2162 49.2713C36.4197 49.3313 36.8952 49.5584 37.0623 49.6548L45.4786 54.5859C45.5108 54.6052 45.7014 54.7208 45.725 54.7423C46.359 55.1664 46.5497 55.8197 46.2541 56.4367C46.2541 56.9272 45.4272 57.9447 44.896 58.251L38.1719 64.9173C37.5786 65.26 36.8331 65.4464 36.0877 65.4485C35.4365 65.4506 34.8345 65.3135 34.3697 65.0458L21.1851 57.0772C20.6024 56.7409 20.2854 56.2246 20.2982 55.6612C20.3132 55.055 20.7095 54.4766 21.4078 54.0718Z" fill="#6F7492"/>
<path opacity="0.4545" d="M21.4585 54.0822L33.0301 49.6309C33.6706 49.2604 34.4996 49.0826 35.2836 49.1254C35.6328 49.1447 35.9541 49.2261 36.2476 49.3161C36.4232 49.3696 36.9395 49.6267 37.083 49.7102L45.4522 54.6135C45.4929 54.637 45.6664 54.7441 45.6964 54.7698C46.3155 55.2004 46.4547 55.858 46.0841 56.4557C46.0841 56.8755 45.1694 57.9701 44.7132 58.2315L38.1198 64.8356C37.5414 65.1698 36.8152 65.3497 36.0912 65.354C35.4571 65.3583 34.8702 65.2254 34.4182 64.9641L21.2336 56.9162C20.6766 56.5949 20.381 56.1087 20.3982 55.5796C20.4153 55.0098 20.7923 54.4657 21.4585 54.0822Z" fill="#5F637D"/>
<path opacity="0.5455" d="M21.5072 54.0912L33.0788 49.6399C33.7171 49.2715 34.5483 49.1001 35.3216 49.1494C35.6686 49.173 35.9856 49.2629 36.2748 49.355C36.4205 49.4022 36.9817 49.6892 37.0995 49.7599L45.4216 54.6353C45.4687 54.6632 45.6272 54.7617 45.6637 54.7938C46.2677 55.2308 46.3555 55.8927 45.9121 56.469C45.9121 56.8203 44.9096 57.9877 44.5305 58.2062L38.0678 64.7482C37.5044 65.0738 36.7953 65.2473 36.0949 65.2537C35.4801 65.258 34.906 65.1316 34.4669 64.8767L21.2822 56.7517C20.7531 56.4454 20.4768 55.9891 20.4982 55.4943C20.5196 54.9652 20.8752 54.4554 21.5072 54.0912Z" fill="#505368"/>
<path opacity="0.6364" d="M21.5603 54.0997L33.132 49.6484C33.7682 49.2821 34.6015 49.115 35.364 49.1728C35.7089 49.2007 36.0238 49.2992 36.3087 49.3935C36.4244 49.432 37.0285 49.7512 37.1248 49.8069L45.3998 54.6545C45.4555 54.6866 45.599 54.7766 45.6397 54.813C46.2288 55.2564 46.2673 55.9226 45.7468 56.4774C45.7468 56.758 44.6565 58.0026 44.3544 58.1761L38.0224 64.6559C37.4762 64.9708 36.7843 65.1422 36.1052 65.1465C35.5076 65.1508 34.9485 65.0287 34.5222 64.7823L21.3376 56.5802C20.8363 56.291 20.5814 55.8626 20.6028 55.4042C20.6264 54.9201 20.9627 54.4445 21.5603 54.0997Z" fill="#404253"/>
<path opacity="0.7273" d="M21.6092 54.1084L33.1808 49.6571C33.8128 49.293 34.6482 49.1323 35.4022 49.1987C35.7471 49.2287 36.0555 49.3358 36.3383 49.4344C36.424 49.4643 37.0709 49.8156 37.1437 49.8585L45.3715 54.6804C45.4358 54.7168 45.5622 54.7982 45.6093 54.841C46.1855 55.2909 46.1705 55.9613 45.5772 56.4969C45.5772 56.7068 44.399 58.0263 44.172 58.157L37.9727 64.5747C37.4415 64.8811 36.7689 65.046 36.1112 65.0524C35.5329 65.0588 34.9866 64.941 34.5732 64.7033L21.3864 56.4197C20.9109 56.1456 20.6774 55.7471 20.7031 55.323C20.7288 54.8753 21.0458 54.4362 21.6092 54.1084Z" fill="#30323E"/>
<path opacity="0.8182" d="M21.6602 54.1188L33.2318 49.6675C33.8616 49.3033 34.6992 49.1491 35.4425 49.224C35.7852 49.2583 36.0894 49.374 36.3679 49.4768C36.4257 49.4982 37.1133 49.8817 37.1626 49.9095L45.3433 54.7035C45.4161 54.7442 45.5254 54.8171 45.5789 54.8642C46.1401 55.3205 46.0737 55.9952 45.4054 56.5093C45.4054 56.6486 44.1394 58.0431 43.9895 58.1309L37.9209 64.4865C37.4047 64.7843 36.7492 64.9428 36.1151 64.9514C35.5539 64.9578 35.0226 64.8464 34.6221 64.6151L21.4374 56.2566C20.9897 55.9974 20.7755 55.6289 20.8055 55.2391C20.8333 54.8299 21.129 54.4251 21.6602 54.1188Z" fill="#20212A"/>
<path opacity="0.9091" d="M21.709 54.1273L33.2807 49.6761C33.9083 49.314 34.748 49.1662 35.4828 49.2498C35.8234 49.2883 36.1233 49.4126 36.3996 49.5175C36.4274 49.5283 37.16 49.9481 37.1836 49.961L45.3172 54.7271C45.3964 54.7743 45.4907 54.8364 45.5506 54.8899C46.0969 55.3526 45.9791 56.0338 45.2379 56.5244C45.2379 56.5951 43.8862 58.0645 43.8091 58.1074L37.8712 64.3987C37.37 64.6879 36.7337 64.8421 36.1211 64.8507C35.5792 64.8571 35.0608 64.7522 34.673 64.5273L21.4884 56.0895C21.0686 55.8475 20.8736 55.5069 20.9058 55.1513C20.9379 54.785 21.2121 54.4144 21.709 54.1273Z" fill="#101115"/>
<path opacity="0.15" d="M34.7228 64.4397L21.5381 55.9249C20.7434 55.4665 20.8441 54.6653 21.7609 54.1362L33.3325 49.6849C34.2494 49.1558 35.6353 49.098 36.43 49.5564L45.2919 54.7489C46.0866 55.2073 45.9859 56.0084 45.0691 56.5375L37.8224 64.3112C36.9034 64.8403 35.5153 64.8982 34.7228 64.4397Z" fill="black"/>
</g>
<path d="M34.7231 64.4222L21.5385 56.7641C21.185 56.5607 21.0072 56.2886 21.0029 56.0016C21.0029 55.993 21.0029 54.1572 21.0029 54.1486C21.0094 53.8016 21.2664 54.4036 21.7612 54.1187L33.3329 49.6674C34.2497 49.1383 35.6356 49.0804 36.4304 49.5388L45.2922 54.7313C45.5579 54.8834 45.7485 54.2343 45.8192 54.4421C45.8427 54.5107 45.8278 56.28 45.8299 56.3507C45.8385 56.7063 45.5814 57.0833 45.0716 57.3768L37.8249 64.2936C36.9038 64.8227 35.5157 64.8806 34.7231 64.4222Z" fill="url(#paint0_linear)"/>
<path d="M34.7208 62.5863L21.5362 54.9283C20.7414 54.4699 20.8421 53.6687 21.7589 53.1396L33.3306 48.6884C34.2474 48.1593 35.6333 48.1014 36.4281 48.5598L45.2899 53.7523C46.0847 54.2107 45.984 55.0118 45.0672 55.5409L37.8204 62.4578C36.9015 62.9869 35.5134 63.0447 34.7208 62.5863Z" fill="url(#paint1_linear)"/>
<path d="M45.0667 55.374L37.8199 62.2909C36.9031 62.82 35.5172 62.8778 34.7225 62.4194L21.5378 54.7614C21.2079 54.5707 21.0344 54.3223 21.0087 54.0566C20.968 54.3801 21.1415 54.6971 21.5378 54.9263L34.7225 62.6422C35.5172 63.1006 36.9031 63.0428 37.8199 62.5137L45.0667 55.5368C45.6022 55.2262 45.8571 54.8257 45.8186 54.4529C45.7779 54.7785 45.5251 55.1106 45.0667 55.374Z" fill="white"/>
<path d="M54.9451 35.598V60.3629C54.9451 62.5693 53.602 63.5846 51.9462 62.6292L24.4073 46.7155L21.6076 45.0983L19.5661 43.918C17.9103 42.9626 16.5693 40.3985 16.5693 38.1921V13.4273C16.5693 11.2188 17.9103 10.2056 19.5661 11.1609L51.9462 29.8701C53.602 30.8276 54.9451 33.3917 54.9451 35.598Z" fill="url(#paint2_linear)"/>
<path d="M52.3309 60.9049L20.4071 42.4614C19.0747 41.6153 18.25 39.923 18.25 38.1922V13.2645C18.25 12.8554 18.6956 12.6005 19.0511 12.8061C19.0918 12.8297 19.124 12.849 19.1454 12.8618L51.1034 31.3289C52.6886 32.2436 53.2605 33.8673 53.2605 35.5981V60.4465C53.2605 60.8856 52.785 61.1619 52.4037 60.9435C52.3716 60.9285 52.348 60.9135 52.3309 60.9049Z" fill="url(#paint3_linear)"/>
<path d="M51.1042 31.3287L19.1697 12.7867C19.1505 12.776 19.1162 12.7567 19.0755 12.731C18.7221 12.5232 18.2529 12.8531 18.2529 13.2623V38.1899C18.2529 39.9207 19.0776 41.613 20.41 42.4591L52.3338 60.9026C52.3488 60.9112 52.3745 60.9262 52.4045 60.9433C52.7858 61.1618 53.2613 60.8855 53.2613 60.4463V35.598C53.2613 33.8671 52.6894 32.2434 51.1042 31.3287ZM52.9229 60.4463C52.9229 60.592 52.7986 60.6841 52.6851 60.6841C52.6444 60.6841 52.6058 60.6734 52.5694 60.652L20.5771 42.1699C19.3732 41.4052 18.5892 39.8415 18.5892 38.192V13.2644C18.5892 13.1444 18.6899 13.0695 18.7842 13.0695C18.8184 13.0695 18.8506 13.078 18.8827 13.0973L50.9371 31.6201C52.5801 32.5669 52.925 34.3063 52.925 35.598V60.4463H52.9229Z" fill="#AFB6E5"/>
<path d="M53.3265 29.0689L20.9465 10.3598C20.291 9.98064 19.6848 9.9121 19.1921 10.1027C19.13 10.1263 17.7633 10.921 17.7055 10.9532C17.7055 10.9532 17.7033 10.9553 17.7012 10.9553C18.2131 10.7068 18.8622 10.7518 19.5669 11.1609L51.947 29.8701C53.6028 30.8254 54.9438 33.3895 54.9438 35.5981V60.3629C54.9438 61.7403 54.4211 62.6528 53.6264 62.912C53.6906 62.9163 53.772 62.8906 53.8899 62.822C53.9284 62.8006 55.3658 61.9395 55.4022 61.9138C55.972 61.5154 56.3254 60.6949 56.3254 59.5618V34.7969C56.3254 32.5905 54.9823 30.0264 53.3265 29.0689Z" fill="url(#paint4_linear)"/>
<path d="M52.7966 29.4202L20.4144 10.7089C19.7589 10.3298 19.1527 10.2612 18.66 10.4519C18.5979 10.4754 17.7625 10.921 17.7025 10.9531C17.7025 10.9531 17.7004 10.9553 17.6982 10.9553C18.2102 10.7068 18.8593 10.7518 19.564 11.1609L51.944 29.87C53.5999 30.8254 54.9408 33.3895 54.9408 35.598V60.3629C54.9408 61.7402 54.4182 62.6528 53.6234 62.912C53.6877 62.9162 53.7691 62.8905 53.8869 62.822C53.9255 62.8006 54.8316 62.2886 54.868 62.2629C55.4378 61.8645 55.7913 61.044 55.7913 59.9109V35.146C55.7934 32.9397 54.4524 30.3756 52.7966 29.4202Z" fill="url(#paint5_linear)"/>
<path d="M52.0911 29.7993L19.7111 11.0881C19.032 10.6961 18.4087 10.6404 17.9053 10.8567C18.3337 10.7882 18.8264 10.8931 19.3512 11.1952L51.7312 29.9043C53.3871 30.8597 54.728 33.4238 54.728 35.6323V60.3971C54.728 61.6995 54.2589 62.5821 53.5349 62.8948C54.4603 62.7491 55.0857 61.7981 55.0857 60.29V35.5252C55.09 33.3188 53.7469 30.7547 52.0911 29.7993Z" fill="white"/>
<path d="M22.1128 15.5781H21.9521V42.6007H22.1128V15.5781Z" fill="#3C0862"/>
<path d="M26.0386 17.8296H25.8779V44.8522H26.0386V17.8296Z" fill="#3C0862"/>
<path d="M29.9595 20.0806H29.7988V47.1032H29.9595V20.0806Z" fill="#3C0862"/>
<path d="M33.8853 22.332H33.7246V49.3547H33.8853V22.332Z" fill="#3C0862"/>
<path d="M37.8091 24.5835H37.6484V51.6061H37.8091V24.5835Z" fill="#3C0862"/>
<path d="M41.73 26.835H41.5693V53.8576H41.73V26.835Z" fill="#3C0862"/>
<path d="M45.6558 29.0864H45.4951V56.109H45.6558V29.0864Z" fill="#3C0862"/>
<path d="M49.5786 31.3374H49.418V58.36H49.5786V31.3374Z" fill="#3C0862"/>
<path d="M19.2014 17.0108L19.1211 17.1499L52.3303 36.3298L52.4106 36.1907L19.2014 17.0108Z" fill="#3C0862"/>
<path d="M19.2044 20.0049L19.124 20.144L52.3332 39.324L52.4135 39.1849L19.2044 20.0049Z" fill="#3C0862"/>
<path d="M19.2014 22.9976L19.1211 23.1367L52.3303 42.3167L52.4106 42.1775L19.2014 22.9976Z" fill="#3C0862"/>
<path d="M19.2014 25.9903L19.1211 26.1294L52.3303 45.3093L52.4106 45.1702L19.2014 25.9903Z" fill="#3C0862"/>
<path d="M19.2014 28.9844L19.1211 29.1235L52.3303 48.3035L52.4106 48.1644L19.2014 28.9844Z" fill="#3C0862"/>
<path d="M19.2014 31.9771L19.1211 32.1162L52.3303 51.2962L52.4106 51.157L19.2014 31.9771Z" fill="#3C0862"/>
<path d="M19.2014 34.9712L19.1211 35.1104L52.3303 54.2903L52.4106 54.1512L19.2014 34.9712Z" fill="#3C0862"/>
<path d="M19.2014 37.9639L19.1211 38.103L52.3303 57.283L52.4106 57.1439L19.2014 37.9639Z" fill="#3C0862"/>
<g opacity="0.28">
<path opacity="0.28" d="M54.9459 41.4953V47.5189L46.2661 54.7185L31.7363 41.4675L24.4081 46.7156L21.6084 45.0983L31.8776 37.7295L46.3218 50.9056L54.9417 43.7574L54.8838 43.6995L53.2237 42.0351L54.9459 41.4953Z" fill="black"/>
</g>
<g opacity="0.2">
<path opacity="0.0476" d="M11.7086 49.2991C11.4751 49.434 11.3252 49.659 11.3252 49.8946C11.3252 50.1538 11.4687 50.4087 11.7493 50.5715C11.7365 50.5801 13.8871 51.906 13.9021 51.9146L15.4787 52.8742C15.4809 52.8764 15.95 53.1613 15.9521 53.1634C16.1771 53.292 16.4577 53.3626 16.7426 53.3648C16.9911 53.3648 17.2138 53.3112 17.3938 53.2106C17.4023 53.2106 18.6191 52.3323 18.6255 52.3302C18.859 52.1952 19.0089 51.9703 19.0089 51.7346C19.0089 51.4755 18.8654 51.2205 18.5848 51.0577C18.5976 51.0492 16.4577 49.7296 16.4405 49.7211L14.8768 48.7678C14.8747 48.7657 14.4334 48.4958 14.4291 48.4958C14.2042 48.3673 13.9236 48.2966 13.6387 48.2944C13.3902 48.2944 13.1674 48.348 12.9875 48.4487C12.981 48.4465 11.7151 49.2948 11.7086 49.2991Z" fill="#ABB2E2"/>
<path opacity="0.0952" d="M11.7702 49.2798C11.5474 49.4083 11.3867 49.6332 11.3867 49.8582C11.3867 50.1045 11.5024 50.3594 11.7702 50.5136C11.7444 50.5286 13.7902 51.8032 13.8201 51.8203L15.3432 52.7457C15.3475 52.7479 15.7952 53.022 15.8016 53.0242C16.0179 53.1484 16.29 53.217 16.5642 53.217C16.802 53.217 17.0204 53.1677 17.1918 53.0713C17.209 53.0713 18.3721 52.2359 18.385 52.2295C18.6077 52.1009 18.7684 51.876 18.7684 51.6511C18.7684 51.4048 18.6527 51.1498 18.385 50.9956C18.4107 50.9806 16.3757 49.7125 16.3457 49.6954L14.8355 48.7785C14.8312 48.7764 14.4092 48.5193 14.4028 48.5172C14.1864 48.393 13.9144 48.3244 13.6402 48.3223C13.4024 48.3223 13.1839 48.3715 13.0126 48.4679C12.9933 48.4658 11.7809 49.2712 11.7702 49.2798Z" fill="#A7ADDF"/>
<path opacity="0.1429" d="M11.8325 49.2605C11.6225 49.3826 11.4512 49.6053 11.4512 49.8195C11.4512 50.053 11.539 50.3079 11.7939 50.4536C11.7554 50.4772 13.694 51.6982 13.7389 51.7239L15.2084 52.6128C15.2148 52.6171 15.6433 52.8763 15.6497 52.8806C15.8596 53.0006 16.121 53.0648 16.3844 53.067C16.6136 53.0691 16.8236 53.022 16.9906 52.9299C17.0142 52.9299 18.126 52.1373 18.1431 52.1266C18.353 52.0045 18.5244 51.7817 18.5244 51.5675C18.5244 51.334 18.4366 51.0791 18.1817 50.9334C18.2202 50.9099 16.2902 49.6953 16.2452 49.6674L14.7864 48.7849C14.78 48.7806 14.3773 48.5364 14.3687 48.5321C14.1588 48.4122 13.8975 48.3458 13.634 48.3458C13.4048 48.3436 13.1948 48.3908 13.0278 48.4829C13.0063 48.4829 11.8496 49.2497 11.8325 49.2605Z" fill="#A3A9DC"/>
<path opacity="0.1905" d="M11.8928 49.2412C11.6936 49.3568 11.5137 49.5796 11.5137 49.781C11.5137 50.0016 11.5758 50.2565 11.8136 50.3936C11.7622 50.4236 13.5958 51.5932 13.6558 51.6275L15.0738 52.4822C15.0824 52.4886 15.4894 52.7349 15.5001 52.7392C15.7036 52.8527 15.9543 52.917 16.2092 52.9192C16.4298 52.9213 16.6312 52.8763 16.794 52.7906C16.8261 52.7906 17.8843 52.0387 17.9078 52.0259C18.1071 51.9102 18.287 51.6874 18.287 51.4861C18.287 51.2654 18.2249 51.0105 17.9871 50.8734C18.0385 50.8435 16.2134 49.6782 16.1535 49.6439L14.7482 48.7956C14.7397 48.7913 14.3562 48.5578 14.3455 48.5535C14.142 48.44 13.8914 48.3758 13.6365 48.3736C13.4159 48.3715 13.2145 48.4165 13.0517 48.5021C13.0196 48.5 11.9164 49.2262 11.8928 49.2412Z" fill="#9FA4D8"/>
<path opacity="0.2381" d="M11.9553 49.2219C11.769 49.329 11.5762 49.5539 11.5762 49.7445C11.5762 49.9523 11.6104 50.2072 11.8354 50.3358C11.7711 50.3743 13.4976 51.4904 13.5726 51.5332L14.9371 52.3515C14.9478 52.3579 15.3356 52.5914 15.3484 52.5978C15.5433 52.7071 15.7854 52.7671 16.0296 52.7713C16.2417 52.7735 16.4366 52.7328 16.593 52.6514C16.6337 52.6514 17.6405 51.9423 17.6683 51.9252C17.8547 51.8181 18.0475 51.5932 18.0475 51.4025C18.0475 51.1947 18.0132 50.9398 17.7883 50.8113C17.8525 50.7728 16.1346 49.661 16.0575 49.6182L14.7036 48.8063C14.6929 48.7999 14.3288 48.5792 14.3159 48.575C14.121 48.4657 13.8789 48.4036 13.6347 48.4014C13.4227 48.3993 13.2277 48.44 13.0714 48.5214C13.0328 48.5193 11.9853 49.2047 11.9553 49.2219Z" fill="#9BA0D5"/>
<path opacity="0.2857" d="M12.0147 49.2029C11.8391 49.3036 11.6377 49.5285 11.6377 49.7063C11.6377 49.9012 11.6463 50.1561 11.8562 50.2782C11.7769 50.3232 13.4006 51.3878 13.4906 51.4392L14.8016 52.2233C14.8166 52.2318 15.1807 52.4525 15.1957 52.4589C15.3842 52.5638 15.6156 52.6217 15.8491 52.626C16.0526 52.6281 16.2389 52.5896 16.3889 52.5146C16.4381 52.5146 17.3914 51.8462 17.4257 51.827C17.6013 51.7263 17.8027 51.5014 17.8027 51.3236C17.8027 51.1286 17.7941 50.8737 17.5842 50.7538C17.6634 50.7088 16.0483 49.6484 15.9583 49.597L14.6581 48.8194C14.6452 48.8109 14.3003 48.6031 14.2853 48.5988C14.0968 48.4939 13.8655 48.436 13.632 48.4317C13.4285 48.4296 13.2421 48.466 13.0922 48.5431C13.0429 48.5367 12.0511 49.1815 12.0147 49.2029Z" fill="#979BD2"/>
<path opacity="0.3333" d="M12.0785 49.1836C11.9157 49.2779 11.7036 49.5028 11.7036 49.6699C11.7036 49.852 11.6844 50.1069 11.8814 50.2204C11.7893 50.274 13.3059 51.285 13.4109 51.345L14.6683 52.0926C14.6854 52.1012 15.0282 52.3089 15.0475 52.3175C15.2274 52.4161 15.4502 52.4717 15.6751 52.476C15.87 52.4803 16.0478 52.4439 16.1935 52.3732C16.2492 52.3732 17.151 51.7477 17.1917 51.7242C17.3545 51.6299 17.5666 51.405 17.5666 51.2379C17.5666 51.0558 17.5859 50.8009 17.3888 50.6874C17.4809 50.6338 15.9707 49.627 15.8657 49.5671L14.6169 48.8237C14.6019 48.8152 14.2763 48.6181 14.2592 48.6117C14.0792 48.5131 13.8565 48.4553 13.6315 48.451C13.4366 48.4467 13.2588 48.4832 13.1131 48.5538C13.0574 48.5538 12.1192 49.1579 12.0785 49.1836Z" fill="#9397CF"/>
<path opacity="0.381" d="M12.1403 49.1641C11.9883 49.2519 11.7676 49.4768 11.7676 49.631C11.7676 49.8003 11.7226 50.053 11.9047 50.1601C11.7997 50.2201 13.2114 51.1798 13.3314 51.2483L14.5374 51.9617C14.5566 51.9724 14.8801 52.1673 14.9015 52.1737C15.075 52.268 15.2871 52.3215 15.5013 52.3258C15.6855 52.3301 15.8569 52.298 15.9983 52.2316C16.0625 52.2316 16.9108 51.6489 16.9579 51.6211C17.11 51.5332 17.3307 51.3083 17.3307 51.1541C17.3307 50.9849 17.3756 50.7321 17.1936 50.625C17.2985 50.565 15.8933 49.6096 15.7733 49.5389L14.5759 48.832C14.5588 48.8213 14.2525 48.6393 14.2332 48.6307C14.0597 48.5364 13.8476 48.4829 13.6334 48.4765C13.4492 48.4722 13.2778 48.5043 13.1364 48.5707C13.07 48.5728 12.1875 49.1362 12.1403 49.1641Z" fill="#8F92CC"/>
<path opacity="0.4286" d="M12.2028 49.1448C12.0635 49.2262 11.83 49.4511 11.83 49.5925C11.83 49.7489 11.7572 50.0016 11.9264 50.1002C11.8086 50.1687 13.1132 51.0748 13.2503 51.1519L14.4027 51.8289C14.4241 51.8417 14.7262 52.0216 14.7497 52.0302C14.9168 52.1202 15.1182 52.1694 15.3217 52.1759C15.4973 52.1802 15.6623 52.1502 15.7951 52.0902C15.8679 52.0902 16.6626 51.5482 16.7162 51.5182C16.8554 51.4368 17.0889 51.2119 17.0889 51.0705C17.0889 50.9142 17.1617 50.6614 16.9925 50.5629C17.1103 50.4943 15.8122 49.5925 15.6751 49.5132L14.5312 48.8406C14.512 48.8299 14.2271 48.6585 14.2035 48.65C14.0364 48.56 13.835 48.5086 13.6315 48.5043C13.4559 48.5 13.291 48.53 13.1581 48.59C13.0832 48.59 12.2563 49.1127 12.2028 49.1448Z" fill="#8B8EC9"/>
<path opacity="0.4762" d="M12.2659 49.1257C12.1373 49.2007 11.8953 49.4256 11.8953 49.5563C11.8953 49.6998 11.7967 49.9526 11.951 50.0426C11.8203 50.1175 13.0199 50.9722 13.1698 51.0579L14.2687 51.6984C14.2923 51.7113 14.5729 51.8805 14.6007 51.8891C14.7593 51.9726 14.952 52.0219 15.147 52.0283C15.3141 52.0326 15.4704 52.0069 15.599 51.9512C15.6804 51.9512 16.4215 51.4521 16.4794 51.4178C16.6079 51.3428 16.8499 51.1179 16.8499 50.9872C16.8499 50.8437 16.9485 50.5909 16.7943 50.501C16.9249 50.426 15.7318 49.5756 15.5818 49.4878L14.4894 48.8516C14.4679 48.8387 14.2023 48.6802 14.1766 48.6695C14.0181 48.5859 13.8253 48.5367 13.6304 48.5302C13.4633 48.526 13.3069 48.5517 13.1784 48.6074C13.097 48.6095 12.3237 49.0915 12.2659 49.1257Z" fill="#8789C6"/>
<path opacity="0.5238" d="M12.3267 49.1065C12.2089 49.1729 11.9582 49.4 11.9582 49.5178C11.9582 49.6485 11.8318 49.9013 11.9732 49.9827C11.8297 50.0662 12.9222 50.8674 13.0893 50.9616L14.1346 51.5678C14.1603 51.5828 14.4216 51.737 14.4495 51.7478C14.6016 51.827 14.7837 51.872 14.9679 51.8806C15.1264 51.887 15.2742 51.8613 15.3984 51.812C15.4884 51.812 16.176 51.3558 16.2403 51.3172C16.3581 51.2508 16.6087 51.0237 16.6087 50.9059C16.6087 50.7752 16.7351 50.5225 16.5937 50.4411C16.7373 50.3575 15.6491 49.5607 15.4841 49.4643L14.4452 48.8623C14.4216 48.8473 14.1753 48.7017 14.1475 48.691C13.9954 48.6117 13.8133 48.5646 13.6291 48.5582C13.4706 48.5517 13.3227 48.5753 13.1985 48.6267C13.1064 48.6267 12.3909 49.068 12.3267 49.1065Z" fill="#8385C2"/>
<path opacity="0.5714" d="M12.3896 49.087C12.2847 49.147 12.0212 49.3741 12.0212 49.479C12.0212 49.5969 11.867 49.8496 11.9955 49.9225C11.8391 50.0124 12.8266 50.7622 13.0066 50.865L14.0005 51.4348C14.0283 51.4519 14.2683 51.5933 14.3004 51.604C14.4439 51.679 14.6174 51.7218 14.7909 51.7282C14.9409 51.7347 15.0801 51.7133 15.2001 51.6683C15.2965 51.6683 15.9348 51.2527 16.0034 51.2141C16.1083 51.1542 16.3718 50.9271 16.3718 50.8221C16.3718 50.7043 16.526 50.4516 16.3975 50.3787C16.5539 50.2888 15.5706 49.5412 15.3907 49.4383L14.4032 48.8707C14.3775 48.8557 14.1504 48.7207 14.1204 48.71C13.9769 48.6351 13.8034 48.5922 13.6278 48.5836C13.4778 48.5772 13.3386 48.5986 13.2186 48.6436C13.1201 48.6436 12.4603 49.0442 12.3896 49.087Z" fill="#7F80BF"/>
<path opacity="0.619" d="M12.4497 49.0677C12.3555 49.1213 12.0834 49.3462 12.0834 49.4426C12.0834 49.5476 11.9035 49.8003 12.0149 49.8646C11.8457 49.9631 12.7261 50.6593 12.9231 50.7729L13.8635 51.3084C13.8935 51.3255 14.1142 51.454 14.1484 51.4669C14.2855 51.5354 14.4483 51.5761 14.6133 51.5847C14.7546 51.5911 14.8875 51.574 14.9988 51.5312C15.1038 51.5312 15.6886 51.1584 15.7636 51.1156C15.8578 51.062 16.1299 50.8371 16.1299 50.7407C16.1299 50.6358 16.3098 50.383 16.1984 50.3187C16.3676 50.2202 15.4915 49.5262 15.2945 49.4148L14.3605 48.8835C14.3327 48.8664 14.1249 48.7443 14.0927 48.7336C13.9556 48.665 13.7928 48.6222 13.6279 48.6136C13.4865 48.6072 13.3537 48.6243 13.2423 48.665C13.1331 48.6629 12.5269 49.0228 12.4497 49.0677Z" fill="#7B7CBC"/>
<path opacity="0.6667" d="M12.5116 49.0485C12.4302 49.0956 12.1474 49.3205 12.1474 49.4041C12.1474 49.494 11.9397 49.7489 12.0382 49.8046C11.8561 49.9096 12.6316 50.5544 12.8415 50.6765L13.7283 51.1756C13.7604 51.1949 13.9597 51.3105 13.9961 51.3234C14.1267 51.3877 14.2788 51.4262 14.4331 51.4348C14.5659 51.4412 14.6901 51.4262 14.7972 51.3898C14.9108 51.3898 15.442 51.0599 15.5234 51.0128C15.6048 50.9657 15.8876 50.7407 15.8876 50.6572C15.8876 50.5672 16.0953 50.3123 15.9968 50.2566C16.1789 50.1517 15.4077 49.509 15.1978 49.3869L14.3152 48.89C14.2853 48.8728 14.0968 48.7636 14.0625 48.7486C13.9318 48.6843 13.7797 48.6458 13.6255 48.6372C13.4927 48.6308 13.3684 48.6458 13.2613 48.68C13.1457 48.68 12.5951 48.9992 12.5116 49.0485Z" fill="#7777B9"/>
<path opacity="0.7143" d="M12.5735 49.0294C12.5028 49.0701 12.2115 49.295 12.2115 49.3678C12.2115 49.4449 11.978 49.6998 12.0615 49.7491C11.8666 49.8626 12.535 50.4539 12.762 50.5845L13.5953 51.0494C13.6296 51.0686 13.8074 51.1736 13.8481 51.1865C13.9702 51.2464 14.1137 51.2807 14.2593 51.2914C14.3814 51.3 14.4993 51.2871 14.6021 51.255C14.7242 51.255 15.2019 50.9658 15.2897 50.9166C15.3604 50.8759 15.6517 50.6509 15.6517 50.5781C15.6517 50.501 15.8852 50.2461 15.8017 50.1968C15.9966 50.0833 15.3304 49.4942 15.1055 49.3635L14.2765 48.9008C14.2444 48.8816 14.0751 48.7852 14.0387 48.7702C13.9166 48.7102 13.7731 48.6738 13.6274 48.6652C13.5053 48.6566 13.3875 48.6695 13.2847 48.6995C13.1583 48.6973 12.6613 48.9779 12.5735 49.0294Z" fill="#7373B6"/>
<path opacity="0.7619" d="M12.6359 49.0099C12.5781 49.0442 12.2739 49.2691 12.2739 49.3291C12.2739 49.3933 12.0125 49.6482 12.0832 49.6889C11.8754 49.8089 12.4388 50.3487 12.6787 50.4879L13.4606 50.9164C13.497 50.9378 13.6555 51.0277 13.6984 51.0427C13.8141 51.0963 13.9469 51.1306 14.0818 51.1391C14.1953 51.1477 14.3046 51.137 14.401 51.1113C14.5295 51.1113 14.9558 50.8649 15.0479 50.8114C15.1057 50.7771 15.4099 50.5522 15.4099 50.4922C15.4099 50.428 15.6713 50.1731 15.6006 50.1324C15.8083 50.0124 15.2471 49.4747 15.0072 49.3355L14.2296 48.9092C14.1932 48.8878 14.0454 48.8042 14.0068 48.7893C13.8912 48.7357 13.7584 48.7014 13.6234 48.6907C13.5099 48.6821 13.4006 48.6907 13.3042 48.7164C13.1714 48.7164 12.7301 48.9542 12.6359 49.0099Z" fill="#6F6EB3"/>
<path opacity="0.8095" d="M12.6964 48.9906C12.6493 49.0185 12.3365 49.2434 12.3365 49.2905C12.3365 49.3419 12.0495 49.5968 12.1052 49.629C11.8824 49.7575 12.3408 50.2437 12.5979 50.3915L13.3262 50.7857C13.3669 50.8093 13.5018 50.8864 13.5468 50.9014C13.6539 50.9506 13.7782 50.9806 13.9024 50.9913C14.0074 50.9999 14.1102 50.9935 14.2002 50.9721C14.3373 50.9699 14.71 50.7664 14.8085 50.7107C14.8556 50.6829 15.1684 50.458 15.1684 50.4108C15.1684 50.3594 15.4554 50.1045 15.3997 50.0724C15.6225 49.9439 15.1663 49.4597 14.9092 49.3119L14.183 48.9199C14.1445 48.8985 14.0181 48.8257 13.9752 48.8107C13.8681 48.7614 13.7439 48.7293 13.6197 48.7186C13.5147 48.71 13.4119 48.7164 13.3219 48.7357C13.1827 48.7336 12.7971 48.9328 12.6964 48.9906Z" fill="#6B6AB0"/>
<path opacity="0.8571" d="M12.7608 48.9715C12.7265 48.9908 12.403 49.2179 12.403 49.2543C12.403 49.2928 12.0882 49.5456 12.131 49.5713C11.8954 49.7063 12.2488 50.1411 12.5187 50.2975L13.1935 50.6552C13.2363 50.6788 13.352 50.743 13.3991 50.7602C13.4998 50.8052 13.6133 50.833 13.729 50.8437C13.8254 50.8523 13.9196 50.848 14.0053 50.833C14.151 50.8309 14.4723 50.6702 14.5751 50.6102C14.6094 50.591 14.9329 50.3639 14.9329 50.3275C14.9329 50.2889 15.2478 50.0361 15.2049 50.0104C15.4405 49.8755 15.0892 49.4428 14.8172 49.2864L14.1446 48.9287C14.1039 48.9051 13.9968 48.8451 13.9518 48.828C13.8511 48.783 13.7376 48.7552 13.6219 48.7423C13.5255 48.7337 13.4312 48.7359 13.3456 48.7509C13.1978 48.753 12.8657 48.9094 12.7608 48.9715Z" fill="#6765AC"/>
<path opacity="0.9048" d="M12.8215 48.952C12.798 48.9649 12.4659 49.1919 12.4659 49.2155C12.4659 49.2412 12.1253 49.494 12.1532 49.5111C11.9047 49.6546 12.1511 50.0359 12.4381 50.2009L13.0593 50.5243C13.1043 50.55 13.1985 50.6014 13.2478 50.6186C13.3421 50.6571 13.4449 50.6828 13.5498 50.6957C13.6377 50.7043 13.7234 50.7043 13.8026 50.6936C13.9568 50.6914 14.2246 50.5736 14.3339 50.5093C14.3574 50.4965 14.6894 50.2694 14.6894 50.2459C14.6894 50.2202 15.03 49.9674 15.0022 49.9502C15.2507 49.8067 15.0043 49.4254 14.7194 49.2605L14.0982 48.9392C14.0554 48.9156 13.9676 48.8663 13.9204 48.8492C13.8262 48.8106 13.7234 48.7828 13.6184 48.7699C13.5306 48.7592 13.4449 48.7614 13.3635 48.7699C13.2093 48.7699 12.9329 48.8856 12.8215 48.952Z" fill="#6361A9"/>
<path opacity="0.9524" d="M12.8842 48.9327C12.8735 48.9391 12.5286 49.1662 12.5286 49.1769C12.5286 49.1898 12.1602 49.4425 12.1752 49.4511C11.9138 49.601 12.0552 49.9309 12.3551 50.1044L12.9228 50.3915C12.9699 50.4193 13.0427 50.4557 13.0963 50.475C13.182 50.5093 13.2762 50.5328 13.3705 50.5457C13.4497 50.5564 13.5268 50.5586 13.6018 50.5521C13.7646 50.55 13.9788 50.4729 14.0945 50.4065C14.1052 50.4 14.4501 50.173 14.4501 50.1623C14.4501 50.1494 14.8185 49.8966 14.8035 49.8881C15.0649 49.7381 14.9256 49.4082 14.6236 49.2347L14.0559 48.9477C14.011 48.922 13.9424 48.8856 13.8931 48.8684C13.8075 48.8342 13.7132 48.8106 13.6189 48.7977C13.5397 48.787 13.4626 48.7849 13.3876 48.7892C13.2227 48.787 13.002 48.8642 12.8842 48.9327Z" fill="#5F5CA6"/>
<path opacity="0.2" d="M13.8562 50.3057L14.6038 49.8259C14.878 49.6674 14.8437 49.3911 14.5267 49.209L14.0104 48.9562C13.6934 48.7741 13.2157 48.7549 12.9415 48.9112L12.1939 49.3911C11.9197 49.5496 11.954 49.8259 12.271 50.008L12.7873 50.2608C13.1043 50.4428 13.582 50.4643 13.8562 50.3057Z" fill="#5B58A3"/>
</g>
<path d="M45.5889 52.0753L47.9066 50.7515L58.6171 41.8682L56.2994 43.192L45.5889 52.0753Z" fill="url(#paint6_linear)"/>
<path d="M13.7402 51.2439L16.058 49.9201L33.3812 37.5088L31.0656 38.8326L13.7402 51.2439Z" fill="url(#paint7_linear)"/>
<path d="M31.2051 35.0948L33.5228 33.771L47.9692 46.9471L45.6514 48.2709L31.2051 35.0948Z" fill="url(#paint8_linear)"/>
<path d="M52.5537 39.4007L54.8693 38.0769L64.0011 35.2129L61.6834 36.5367L52.5537 39.4007Z" fill="url(#paint9_linear)"/>
<path d="M57.9385 44.8802L60.2562 43.5564L63.9985 35.2129L61.6807 36.5367L57.9385 44.8802Z" fill="url(#paint10_linear)"/>
<path d="M52.5525 39.4004L54.2126 41.0648L54.2683 41.1226L45.6507 48.2708L31.2043 35.0947L11 49.5946L13.7397 51.244L31.0651 38.8327L45.5928 52.0837L56.3033 43.2026L56.3376 43.2369L57.9399 44.8799L61.6822 36.5364L52.5525 39.4004Z" fill="url(#paint11_linear)"/>
<path d="M61.6169 36.6779L63.8662 35.2983L61.5291 36.5836L52.5537 39.4005L52.7208 39.5697L61.6169 36.6779Z" fill="url(#paint12_radial)"/>
<path d="M31.2043 35.3175L45.6507 48.4914L54.2683 41.3432L54.2126 41.2854L54.1484 41.2233L45.6507 48.2708L31.2043 35.0947L11 49.5946L11.1671 49.6953L31.2043 35.3175Z" fill="url(#paint13_radial)"/>
<defs>
<linearGradient id="paint0_linear" x1="21.997" y1="56.9799" x2="48.18" y2="56.9799" gradientUnits="userSpaceOnUse">
<stop stop-color="#7F3DFF"/>
<stop offset="0.4171" stop-color="#7583FF"/>
<stop offset="1" stop-color="#B9C0FF"/>
</linearGradient>
<linearGradient id="paint1_linear" x1="36.8444" y1="49.6061" x2="30.2017" y2="58.7684" gradientUnits="userSpaceOnUse">
<stop stop-color="#505EDE"/>
<stop offset="0.7139" stop-color="#BEC5FF"/>
</linearGradient>
<linearGradient id="paint2_linear" x1="1.99902" y1="64.6055" x2="90.499" y2="14.1055" gradientUnits="userSpaceOnUse">
<stop stop-color="#AFB6E5"/>
<stop offset="0.1449" stop-color="#B6BCE8"/>
<stop offset="0.3485" stop-color="#C8CDF1"/>
<stop offset="0.5808" stop-color="#E5E9FF"/>
<stop offset="0.8551" stop-color="#F5F6FF"/>
<stop offset="1" stop-color="white"/>
</linearGradient>
<linearGradient id="paint3_linear" x1="19.8604" y1="12.924" x2="53.95" y2="64.1846" gradientUnits="userSpaceOnUse">
<stop stop-color="#2D1B86"/>
<stop offset="1" stop-color="#6D34DB"/>
</linearGradient>
<linearGradient id="paint4_linear" x1="60.8266" y1="58.9998" x2="29.2931" y2="9.82896" gradientUnits="userSpaceOnUse">
<stop stop-color="#2D1B86"/>
<stop offset="1" stop-color="#6D34DB"/>
</linearGradient>
<linearGradient id="paint5_linear" x1="28.3524" y1="5.44466" x2="56.8174" y2="62.4735" gradientUnits="userSpaceOnUse">
<stop offset="0.2861" stop-color="#BEC5FF"/>
<stop offset="1" stop-color="#505EDE"/>
</linearGradient>
<linearGradient id="paint6_linear" x1="45.5898" y1="46.9718" x2="58.6166" y2="46.9718" gradientUnits="userSpaceOnUse">
<stop stop-color="#3922AA"/>
<stop offset="1" stop-color="#7F3DFF"/>
</linearGradient>
<linearGradient id="paint7_linear" x1="13.7412" y1="44.3759" x2="33.382" y2="44.3759" gradientUnits="userSpaceOnUse">
<stop stop-color="#3922AA"/>
<stop offset="1" stop-color="#7F3DFF"/>
</linearGradient>
<linearGradient id="paint8_linear" x1="59.6037" y1="60.9184" x2="31.8001" y2="33.2803" gradientUnits="userSpaceOnUse">
<stop stop-color="#C0BFF6"/>
<stop offset="0.2309" stop-color="#C5C4F7"/>
<stop offset="0.5031" stop-color="#D3D2F9"/>
<stop offset="0.7949" stop-color="#EAEAFC"/>
<stop offset="1" stop-color="white"/>
</linearGradient>
<linearGradient id="paint9_linear" x1="52.5533" y1="37.3068" x2="64.0001" y2="37.3068" gradientUnits="userSpaceOnUse">
<stop stop-color="#CCCBF8"/>
<stop offset="0.0494" stop-color="#D4D3F9"/>
<stop offset="0.2055" stop-color="#E7E7FC"/>
<stop offset="0.3852" stop-color="#F5F4FE"/>
<stop offset="0.6075" stop-color="#FDFDFF"/>
<stop offset="1" stop-color="white"/>
</linearGradient>
<linearGradient id="paint10_linear" x1="57.9395" y1="40.0458" x2="63.9975" y2="40.0458" gradientUnits="userSpaceOnUse">
<stop stop-color="#3922AA"/>
<stop offset="1" stop-color="#7F3DFF"/>
</linearGradient>
<linearGradient id="paint11_linear" x1="61.4745" y1="35.5156" x2="11.5794" y2="52.9734" gradientUnits="userSpaceOnUse">
<stop stop-color="#7583FF"/>
<stop offset="1" stop-color="#DBDFFF"/>
</linearGradient>
<radialGradient id="paint12_radial" cx="0" cy="0" r="1" gradientUnits="userSpaceOnUse" gradientTransform="translate(61.1539 31.7512) scale(9.15198)">
<stop stop-color="white"/>
<stop offset="1" stop-color="white" stop-opacity="0"/>
</radialGradient>
<radialGradient id="paint13_radial" cx="0" cy="0" r="1" gradientUnits="userSpaceOnUse" gradientTransform="translate(43.8943 22.9697) scale(35.0049 31.2838)">
<stop stop-color="white"/>
<stop offset="1" stop-color="white" stop-opacity="0"/>
</radialGradient>
</defs>
</svg>
