<svg width="75" height="75" viewBox="0 0 75 75" fill="none" xmlns="http://www.w3.org/2000/svg">
<path d="M48.3896 12.64L40.3896 17.29L32.3896 12.64L40.3896 8L48.3896 12.64Z" fill="#EAE1FF"/>
<path d="M32.3896 12.6396V50.1297L40.3896 54.7797V17.2896L32.3896 12.6396Z" fill="url(#paint0_linear)"/>
<path opacity="0.5" d="M48.3896 12.6396L40.3896 17.2896V54.7797L48.4396 50.1297L48.3896 12.6396Z" fill="url(#paint1_linear)"/>
<path d="M38.0502 23.2396L30.0002 27.8896L21.9502 23.2396L30.0002 18.5996L38.0502 23.2396Z" fill="#B0C5FF"/>
<path d="M21.9502 23.2402V56.1003L30.0002 60.7502V27.8902L21.9502 23.2402Z" fill="url(#paint2_linear)"/>
<path d="M38.04 23.2402L30.04 27.8902V60.7502L38.04 56.1003V23.2402Z" fill="url(#paint3_linear)"/>
<path d="M28.0998 36.1803L20.0998 40.8203L12.0498 36.1803L20.0998 31.5303L28.0998 36.1803Z" fill="url(#paint4_linear)"/>
<path d="M12 36.1797V61.8597L20.05 66.4997V40.8197L12 36.1797Z" fill="url(#paint5_linear)"/>
<path d="M28.0996 36.1797L20.0996 40.8197V66.4597L28.0996 61.8197V36.1797Z" fill="url(#paint6_linear)"/>
<path d="M62.7197 55.4604C62.7197 57.8404 63.0597 61.1804 60.9097 62.8204C57.1997 66.2304 51.6997 66.8204 46.9097 66.2304C40.4197 65.3804 36.0097 62.0104 37.1097 55.4004C37.1097 57.9304 39.2497 59.8304 41.3597 60.9404C44.023 62.2077 46.9336 62.8703 49.883 62.8806C52.8324 62.891 55.7476 62.2489 58.4197 61.0004C59.5073 60.468 60.4872 59.7391 61.3097 58.8504C62.1425 57.9845 62.6511 56.8578 62.7497 55.6604C62.7356 55.5944 62.7255 55.5276 62.7197 55.4604V55.4604Z" fill="url(#paint7_linear)"/>
<path d="M58.9304 50.1799C53.9304 47.2799 45.7904 47.2799 40.7904 50.1799C35.7904 53.0799 35.7904 57.7899 40.8504 60.6999C45.9104 63.6099 54.0004 63.5999 59.0004 60.6999C64.0004 57.7999 63.9604 53.0799 58.9304 50.1799Z" fill="url(#paint8_linear)"/>
<path d="M49.9297 61.1498C47.1014 61.2041 44.305 60.5437 41.7997 59.2298C40.0097 58.2298 38.9697 56.8698 38.9697 55.5998C38.9697 54.3298 39.9697 53.0398 41.7497 52.0198C44.2413 50.698 47.03 50.037 49.8497 50.0998C52.6814 50.0447 55.4812 50.7051 57.9897 52.0198C59.7797 53.0198 60.8197 54.3898 60.8197 55.6498C60.8197 56.9098 59.8197 58.2198 58.0397 59.2398C55.5412 60.5514 52.751 61.2085 49.9297 61.1498V61.1498Z" fill="url(#paint9_linear)"/>
<path d="M41.7502 52.0302C44.2417 50.7085 47.0305 50.0474 49.8502 50.1102C52.6819 50.0551 55.4816 50.7155 57.9902 52.0302C59.6502 53.0302 60.6602 54.2002 60.8002 55.3802C60.8052 55.2836 60.8052 55.1868 60.8002 55.0902C60.8002 53.8202 59.8002 52.5002 57.9702 51.4602C55.4487 50.2006 52.6688 49.5449 49.8502 49.5449C47.0316 49.5449 44.2517 50.2006 41.7302 51.4602C39.9602 52.4602 38.9502 53.7902 38.9502 55.0402C38.9502 55.1402 38.9502 55.2402 38.9502 55.3302C39.1202 54.1602 40.1202 52.9702 41.7502 52.0302Z" fill="url(#paint10_linear)"/>
<path opacity="0.39" d="M40.8497 61.29C47.0597 65.22 61.8497 64.4701 62.7197 55.6301C61.1497 65.4901 38.4497 65.15 37.0797 55.54C36.9897 57.64 38.2497 59.72 40.8497 61.29Z" fill="url(#paint11_linear)"/>
<path d="M63.7296 50.81C63.7296 53.19 64.0696 56.54 61.9196 58.17C58.2096 61.58 52.7096 62.17 47.9196 61.58C41.4396 60.73 37.0296 57.36 38.1196 50.75C38.1196 53.29 40.2596 55.18 42.3696 56.29C45.0322 57.5589 47.9424 58.2232 50.8918 58.2353C53.8412 58.2474 56.7568 57.607 59.4296 56.36C60.5171 55.8231 61.4967 55.0909 62.3196 54.2C63.158 53.3378 63.6676 52.209 63.7596 51.01C63.7451 50.9441 63.735 50.8773 63.7296 50.81V50.81Z" fill="url(#paint12_linear)"/>
<path d="M59.9499 45.5197C54.9499 42.6197 46.7999 42.6197 41.7999 45.5197C36.7999 48.4197 36.7999 53.1197 41.8699 56.0297C46.9399 58.9397 55.0099 58.9297 60.0099 56.0297C65.0099 53.1297 64.9699 48.4597 59.9499 45.5197Z" fill="url(#paint13_linear)"/>
<path d="M50.9505 56.4601C48.1188 56.5152 45.319 55.8548 42.8105 54.5401C41.0205 53.5401 39.9805 52.1801 39.9805 50.9101C39.9805 49.6401 40.9805 48.3501 42.7605 47.3301C45.2801 46.0644 48.0608 45.4053 50.8805 45.4053C53.7001 45.4053 56.4808 46.0644 59.0005 47.3301C60.7905 48.3301 61.8305 49.6901 61.8305 50.9501C61.8305 52.2101 60.8305 53.5201 59.0505 54.5401C56.5546 55.8503 53.7689 56.5106 50.9505 56.4601Z" fill="url(#paint14_linear)"/>
<path d="M42.7598 47.3596C45.2794 46.0939 48.0601 45.4348 50.8798 45.4348C53.6994 45.4348 56.4801 46.0939 58.9997 47.3596C60.6697 48.3096 61.6698 49.5196 61.8098 50.6996C61.8147 50.603 61.8147 50.5062 61.8098 50.4096C61.8098 49.1396 60.8098 47.8196 58.9798 46.7796C56.4583 45.52 53.6783 44.8643 50.8598 44.8643C48.0412 44.8643 45.2612 45.52 42.7398 46.7796C40.9698 47.7796 39.9598 49.1196 39.9598 50.3696C39.9548 50.4629 39.9548 50.5563 39.9598 50.6496C40.1298 49.4596 41.1298 48.3096 42.7598 47.3596Z" fill="url(#paint15_linear)"/>
<path opacity="0.39" d="M41.8598 56.6299C48.0598 60.5599 62.8597 59.8099 63.7197 50.9699C62.1497 60.8299 39.4598 60.4899 38.0798 50.8799C37.9998 52.9799 39.2598 55.0499 41.8598 56.6299Z" fill="url(#paint16_linear)"/>
<path d="M61.9503 48.28C61.9503 50.66 62.2903 54 60.1403 55.64C56.4303 59.04 50.9403 59.64 46.1403 59.05C39.6603 58.2 35.2503 54.82 36.3403 48.21C36.3403 50.75 38.4803 52.6499 40.5903 53.7599C43.2536 55.0273 46.1642 55.6899 49.1136 55.7002C52.063 55.7106 54.9782 55.0685 57.6503 53.8199C58.7374 53.2866 59.717 52.5578 60.5403 51.67C61.3773 50.8069 61.8866 49.6786 61.9803 48.4799C61.9559 48.4163 61.9457 48.348 61.9503 48.28V48.28Z" fill="url(#paint17_linear)"/>
<path d="M58.1598 42.9797C53.1598 40.0797 45.0098 40.0797 40.0098 42.9797C35.0098 45.8797 35.0099 50.5897 40.0799 53.4897C45.1499 56.3897 53.2198 56.3897 58.2198 53.4897C63.2198 50.5897 63.1798 45.8797 58.1598 42.9797Z" fill="url(#paint18_linear)"/>
<path d="M40.9699 44.8103C43.4645 43.4978 46.2517 42.8406 49.0699 42.9003C51.9016 42.8452 54.7014 43.5056 57.2099 44.8203C58.8799 45.8203 59.8799 46.9803 60.0199 48.1703C60.0249 48.0737 60.0249 47.9769 60.0199 47.8803C60.0199 46.6103 59.0199 45.2903 57.1899 44.2503C54.6684 42.9907 51.8885 42.335 49.0699 42.335C46.2513 42.335 43.4714 42.9907 40.9499 44.2503C39.1799 45.2503 38.1699 46.5803 38.1699 47.8303C38.1699 47.9203 38.1699 48.0203 38.1699 48.1203C38.3899 46.9603 39.3899 45.7603 40.9699 44.8103Z" fill="url(#paint19_linear)"/>
<path d="M53.7197 45.4601V46.3101L54.3797 45.9201V45.0801L53.7197 45.4601Z" fill="url(#paint20_linear)"/>
<path d="M52.1096 46.0798C52.1096 46.0198 52.0495 45.9498 51.9395 45.8898L51.8495 45.8398H51.2996L51.1895 45.8898H51.1396L50.9796 45.9698L50.8696 46.0598L50.7596 46.1398C50.7476 46.146 50.737 46.1545 50.7285 46.1648C50.7199 46.1751 50.7134 46.187 50.7096 46.1998V46.1998V47.0498C50.7049 47.0301 50.7049 47.0096 50.7096 46.9898V46.9898L50.7696 46.9198C50.7997 46.8826 50.8371 46.852 50.8795 46.8298V46.8298L50.9995 46.7498H51.0695C51.1207 46.7161 51.1741 46.686 51.2296 46.6599H51.2796L51.3795 46.6098H51.4296H51.5096H51.8296H51.9196C51.9491 46.6026 51.98 46.6026 52.0096 46.6098C52.0604 46.6321 52.105 46.6664 52.1396 46.7098C52.1396 46.7098 52.1895 46.7698 52.1895 46.8098L52.1096 46.0798Z" fill="url(#paint21_linear)"/>
<path d="M54.5197 46.6796C54.4297 47.3696 53.7497 47.6796 53.1797 47.9996V48.8496C53.5437 48.706 53.8816 48.5032 54.1797 48.2496C54.2895 48.1496 54.3808 48.0312 54.4497 47.8996V47.8996C54.4703 47.8684 54.487 47.8348 54.4997 47.7996C54.5238 47.7583 54.5439 47.7148 54.5597 47.6696C54.5597 47.5896 54.5597 46.7796 54.5597 46.6696C54.5597 46.5596 54.5197 46.6696 54.5197 46.6796Z" fill="url(#paint22_linear)"/>
<path d="M51.1104 46.8096V47.6596L53.1703 48.8496V47.9996L51.1104 46.8096Z" fill="url(#paint23_linear)"/>
<path d="M53.7203 45.4601L54.3803 45.0701L53.4303 44.5301L52.7703 44.9101C52.08 44.5775 51.3264 44.3968 50.5603 44.3801C49.8565 44.372 49.1643 44.5589 48.5603 44.9201C48.2018 45.1088 47.8959 45.3837 47.6703 45.7201C47.5147 45.9561 47.4474 46.2394 47.4803 46.5201C47.5926 46.9423 47.733 47.3565 47.9003 47.7601C48.0503 48.1101 48.0603 48.3601 47.9003 48.5101C47.6408 48.7637 47.344 48.9762 47.0203 49.1401C46.8632 49.2396 46.6852 49.3012 46.5003 49.3201C46.3431 49.3429 46.183 49.3073 46.0503 49.2201C45.8903 49.1301 45.8503 49.0301 45.9403 48.9301C46.2503 48.6852 46.5855 48.474 46.9403 48.3001L47.4403 48.0101L45.3903 46.8701L44.9903 47.1001C44.0703 47.6301 43.6403 48.1001 43.6803 48.5701C43.7206 48.8168 43.8139 49.0518 43.9537 49.2589C44.0936 49.4661 44.2766 49.6405 44.4903 49.7701L43.7003 50.2401L44.6503 50.7901L45.4203 50.3401C46.1593 50.6795 46.9677 50.8405 47.7803 50.8101C48.576 50.7708 49.3493 50.5337 50.0303 50.1201C50.3918 49.9243 50.7139 49.6633 50.9803 49.3501C51.1397 49.1531 51.2183 48.9029 51.2003 48.6501C51.1309 48.3034 51.0166 47.9673 50.8603 47.6501C50.6868 47.3128 50.5623 46.9525 50.4903 46.5801C50.4903 46.4301 50.6603 46.2601 50.9803 46.0801C51.1393 45.9738 51.3206 45.9054 51.5103 45.8801C51.6553 45.8553 51.8045 45.8837 51.9303 45.9601C52.0903 46.0501 52.1303 46.1401 52.0703 46.2301C51.8854 46.4196 51.6688 46.5753 51.4303 46.6901L51.1003 46.8901L53.1603 48.0701L53.5703 47.8601C54.1703 47.5101 54.4903 47.1401 54.5103 46.7601C54.5303 46.3801 54.2803 45.9101 53.7203 45.4601Z" fill="url(#paint24_linear)"/>
<path d="M51.2097 48.8297C51.1114 49.1072 50.958 49.3618 50.7586 49.5784C50.5592 49.7949 50.3181 49.9689 50.0497 50.0897C49.3569 50.5031 48.573 50.7394 47.7672 50.7778C46.9614 50.8162 46.1586 50.6554 45.4297 50.3097V51.1597L45.6597 51.2497C46.5733 51.6425 47.5878 51.736 48.5578 51.5168C49.5279 51.2977 50.4037 50.7771 51.0597 50.0297V50.0297C51.2797 49.7497 51.1897 49.0297 51.1997 48.7197C51.2072 48.7559 51.2106 48.7928 51.2097 48.8297V48.8297Z" fill="url(#paint25_linear)"/>
<path opacity="0.39" d="M40.0704 54.0901C46.2804 58.0201 61.0704 57.2701 61.9404 48.4201C60.3704 58.2901 37.6704 57.9501 36.3004 48.3301C36.2104 50.4601 37.4704 52.5201 40.0704 54.0901Z" fill="url(#paint26_linear)"/>
<path d="M43.6998 39.3701C45.6398 40.8201 48.3898 42.5701 48.4698 45.3001C48.8698 50.3001 46.0498 55.0501 42.6398 58.5201C37.9898 63.1301 32.6898 64.6201 28.0898 59.7201C35.0898 63.7201 43.9598 53.3201 45.3298 46.9801C45.9798 44.4601 46.0098 41.3101 43.9198 39.4501C43.7998 39.5501 43.7798 39.4601 43.6998 39.3701Z" fill="url(#paint27_linear)"/>
<path d="M37.1895 39.1799C31.8395 41.4099 26.8995 47.8799 26.1895 53.5999C25.4795 59.3199 29.1896 62.1599 34.5896 59.9299C39.9896 57.6999 44.8796 51.2299 45.5896 45.5099C46.2996 39.7899 42.5495 36.9399 37.1895 39.1799Z" fill="url(#paint28_linear)"/>
<path d="M40.4602 52.9799C38.7923 55.263 36.5733 57.0863 34.0102 58.28C32.0902 59.08 30.4202 59.1 29.4002 58.33C28.3802 57.56 27.9802 55.9799 28.2402 53.9499C28.7631 51.1808 29.9261 48.5723 31.6363 46.3325C33.3465 44.0928 35.5566 42.2838 38.0902 41.05C40.0102 40.25 41.6802 40.23 42.7002 40.99C43.7202 41.75 44.1202 43.35 43.8602 45.38C43.3825 48.1585 42.2133 50.772 40.4602 52.9799V52.9799Z" fill="url(#paint29_linear)"/>
<path d="M28.2296 53.9597C28.7525 51.1906 29.9155 48.5821 31.6257 46.3423C33.3359 44.1026 35.546 42.2936 38.0796 41.0597C39.8596 40.3197 41.4296 40.2498 42.4496 40.8498L42.2296 40.6598C41.2296 39.8898 39.5496 39.9097 37.6296 40.7097C35.0955 41.9443 32.8847 43.7533 31.1729 45.9928C29.4612 48.2323 28.2958 50.8405 27.7696 53.6097C27.5096 55.6097 27.9396 57.2397 28.9396 57.9997C29.0124 58.0555 29.0893 58.1056 29.1696 58.1497C28.3896 57.3297 27.9996 55.8297 28.2296 53.9597Z" fill="url(#paint30_linear)"/>
<path d="M36.5 44.2197L37.18 44.7397L37.27 43.9897L36.59 43.4697L36.5 44.2197Z" fill="url(#paint31_linear)"/>
<path d="M35.9901 45.8596C35.9301 45.7996 35.7501 45.8596 35.6501 45.9296C35.5501 45.9996 35.6501 45.9296 35.6501 45.9296L35.5801 45.9896C35.5358 46.0258 35.4985 46.0699 35.4701 46.1196V46.1196C35.4647 46.1358 35.4647 46.1533 35.4701 46.1696C35.4725 46.2029 35.4725 46.2363 35.4701 46.2696C35.42 46.4148 35.3897 46.5662 35.3801 46.7196C35.3342 46.9102 35.3342 47.109 35.3801 47.2996C35.3801 47.2996 35.3801 47.2996 35.3801 47.2996L36.0501 47.8196C36.0202 47.7914 35.9963 47.7574 35.9801 47.7196C35.9801 47.7196 35.9801 47.7196 35.9801 47.7196C35.9801 47.7196 35.9801 47.7196 35.9801 47.6696C35.9218 47.3317 35.9635 46.9841 36.1001 46.6696C36.1801 46.4496 36.4701 46.1896 36.7101 46.2996L35.9901 45.8596Z" fill="url(#paint32_linear)"/>
<path d="M37.9399 44.3203C38.4299 44.8103 38.2599 45.5603 38.1599 46.1903L38.8299 46.7103C38.9168 46.3403 38.9505 45.9598 38.9299 45.5803C38.9203 45.4302 38.89 45.2822 38.8399 45.1403V45.1403C38.7833 45.0322 38.705 44.9369 38.6099 44.8603C38.6099 44.8603 37.9399 44.3503 37.9199 44.3203H37.9399Z" fill="url(#paint33_linear)"/>
<path d="M35.9697 47.1004L36.6397 47.6204L38.8297 46.7104L38.1497 46.1904L35.9697 47.1004Z" fill="url(#paint34_linear)"/>
<path d="M35.27 50.4L35.9399 50.92C35.0366 50.6976 34.1912 50.2851 33.46 49.71C33.73 49.97 34.74 50.1 35.27 50.4Z" fill="url(#paint35_linear)"/>
<path d="M34.6502 51.3195C34.5633 51.7042 34.5098 52.0957 34.4902 52.4896C34.4902 52.4896 34.6002 52.4896 34.6102 52.5396C34.6202 52.5896 35.2902 53.0796 35.3102 53.1096C35.2842 52.5132 35.3278 51.9158 35.4402 51.3296L34.7702 50.8096L34.6502 51.3195Z" fill="url(#paint36_linear)"/>
<path d="M32.8598 54.0498H32.7998L33.4798 54.5698H33.5298C33.7508 54.6887 33.9953 54.7576 34.2459 54.7714C34.4965 54.7852 34.747 54.7437 34.9798 54.6498L34.3098 54.1298C34.0772 54.2244 33.8265 54.2663 33.5758 54.2524C33.3251 54.2386 33.0806 54.1694 32.8598 54.0498V54.0498Z" fill="url(#paint37_linear)"/>
<path d="M35.2002 54.6202L35.8702 55.1302L35.9802 54.2502L35.3102 53.7402L35.2002 54.6202Z" fill="url(#paint38_linear)"/>
<path d="M34.1904 55.0401L34.8604 55.5601L35.8604 55.1301L35.1904 54.6201L34.1904 55.0401Z" fill="url(#paint39_linear)"/>
<path d="M36.4995 44.2197L36.5996 43.4697L35.5996 43.8897L35.5096 44.6397C33.6996 45.4497 31.9096 48.2297 33.5896 49.7797C33.7596 49.9797 35.3195 50.1297 35.4395 50.6497C35.5595 50.9697 35.3696 53.0597 34.5696 52.4597C34.5831 51.8834 34.6365 51.3087 34.7296 50.7397L32.5296 51.6597C32.1996 53.3697 32.5296 54.6597 34.3096 54.1297L34.1895 55.0397L35.1895 54.6197L35.2996 53.7397C37.1496 52.8197 38.8696 49.8797 37.4596 48.1097C37.2296 47.9197 35.4596 47.5597 35.3496 47.3897C34.7296 46.2997 36.4896 44.6697 35.9496 47.1097L38.1496 46.1897C38.4596 44.7997 38.1095 43.6997 36.4995 44.2197Z" fill="url(#paint40_linear)"/>
<path d="M38.3899 51.5901C38.3199 51.7801 38.2199 51.9701 38.1499 52.1501C38.0799 52.3301 38.0399 52.3501 37.9799 52.4401C37.7774 52.7683 37.5356 53.0705 37.2599 53.3401C37.1799 53.4001 37.1199 53.4701 37.0399 53.5401L36.7799 53.7501C36.628 53.8714 36.4676 53.9817 36.2999 54.0801C36.2199 54.0801 36.1499 54.1801 36.0599 54.2201L35.3799 53.7001C36.0925 53.331 36.7034 52.7923 37.1586 52.1313C37.6137 51.4703 37.8993 50.7075 37.9899 49.9101C38.0705 49.2611 37.8986 48.606 37.5099 48.0801L38.2599 48.6601L38.3499 48.7501C38.43 48.8309 38.4944 48.9258 38.5399 49.0301C38.7663 49.8774 38.7137 50.7751 38.3899 51.5901V51.5901Z" fill="url(#paint41_linear)"/>
<path opacity="0.39" d="M35.05 60.2797C41.95 57.7297 50.2899 45.5597 43.8199 39.4697C50.6599 46.6997 36.71 64.5697 28.21 59.8097C29.81 61.1397 32.23 61.4597 35.05 60.2797Z" fill="url(#paint42_linear)"/>
<defs>
<linearGradient id="paint0_linear" x1="36.3596" y1="14.9096" x2="36.3596" y2="52.7597" gradientUnits="userSpaceOnUse">
<stop stop-color="#6A3EC4" stop-opacity="0.67"/>
<stop offset="1" stop-color="#803EFF"/>
</linearGradient>
<linearGradient id="paint1_linear" x1="3807.86" y1="15154" x2="3807.86" y2="13612.1" gradientUnits="userSpaceOnUse">
<stop stop-color="#6A3EC4" stop-opacity="0.67"/>
<stop offset="1" stop-color="#803EFF"/>
</linearGradient>
<linearGradient id="paint2_linear" x1="25.9802" y1="25.3002" x2="25.9802" y2="58.5802" gradientUnits="userSpaceOnUse">
<stop stop-color="#7583FF"/>
<stop offset="0.41" stop-color="#7583FF"/>
<stop offset="1" stop-color="#98A3FF"/>
</linearGradient>
<linearGradient id="paint3_linear" x1="34.02" y1="26.0102" x2="34.02" y2="58.2302" gradientUnits="userSpaceOnUse">
<stop stop-color="#7583FF"/>
<stop offset="1" stop-color="#DBDFFF"/>
</linearGradient>
<linearGradient id="paint4_linear" x1="11.9998" y1="36.1803" x2="28.0998" y2="36.1803" gradientUnits="userSpaceOnUse">
<stop stop-color="#F89C09"/>
<stop offset="0.36" stop-color="#FBB632"/>
<stop offset="1" stop-color="#FFE278"/>
</linearGradient>
<linearGradient id="paint5_linear" x1="16.02" y1="37.7297" x2="16.02" y2="65.0497" gradientUnits="userSpaceOnUse">
<stop stop-color="#FFA500"/>
<stop offset="0.49" stop-color="#B27C1F"/>
<stop offset="1" stop-color="#66543E"/>
</linearGradient>
<linearGradient id="paint6_linear" x1="24.0696" y1="39.9497" x2="24.0696" y2="64.3097" gradientUnits="userSpaceOnUse">
<stop stop-color="#FFE278"/>
<stop offset="0.64" stop-color="#FBB632"/>
<stop offset="1" stop-color="#F89C09"/>
</linearGradient>
<linearGradient id="paint7_linear" x1="36.8897" y1="60.9304" x2="62.7097" y2="60.9304" gradientUnits="userSpaceOnUse">
<stop stop-color="#3922AA"/>
<stop offset="1" stop-color="#7F3DFF"/>
</linearGradient>
<linearGradient id="paint8_linear" x1="49.8904" y1="62.9699" x2="49.8904" y2="47.8999" gradientUnits="userSpaceOnUse">
<stop stop-color="#DBDFFF"/>
<stop offset="0.78" stop-color="#8B97FF"/>
<stop offset="1" stop-color="#B2BAFF"/>
</linearGradient>
<linearGradient id="paint9_linear" x1="49.8897" y1="49.1298" x2="49.8897" y2="61.7698" gradientUnits="userSpaceOnUse">
<stop stop-color="#8E52FF"/>
<stop offset="1" stop-color="#D6BFFF"/>
</linearGradient>
<linearGradient id="paint10_linear" x1="38.9702" y1="52.4602" x2="60.8202" y2="52.4602" gradientUnits="userSpaceOnUse">
<stop stop-color="#2E007F"/>
<stop offset="1" stop-color="#7052C8"/>
</linearGradient>
<linearGradient id="paint11_linear" x1="49.8997" y1="65.1" x2="49.8997" y2="57.67" gradientUnits="userSpaceOnUse">
<stop stop-color="white"/>
<stop offset="1" stop-color="white" stop-opacity="0"/>
</linearGradient>
<linearGradient id="paint12_linear" x1="37.916" y1="56.2703" x2="63.7462" y2="56.2703" gradientUnits="userSpaceOnUse">
<stop stop-color="#3922AA"/>
<stop offset="1" stop-color="#7F3DFF"/>
</linearGradient>
<linearGradient id="paint13_linear" x1="12274.3" y1="4816.84" x2="12274.3" y2="5040.99" gradientUnits="userSpaceOnUse">
<stop stop-color="#DBDFFF"/>
<stop offset="0.78" stop-color="#8B97FF"/>
<stop offset="1" stop-color="#B2BAFF"/>
</linearGradient>
<linearGradient id="paint14_linear" x1="10451.9" y1="3749.72" x2="10451.9" y2="3610.06" gradientUnits="userSpaceOnUse">
<stop stop-color="#8E52FF"/>
<stop offset="1" stop-color="#D6BFFF"/>
</linearGradient>
<linearGradient id="paint15_linear" x1="10216.6" y1="1980.27" x2="10694.1" y2="1980.27" gradientUnits="userSpaceOnUse">
<stop stop-color="#2E007F"/>
<stop offset="1" stop-color="#7052C8"/>
</linearGradient>
<linearGradient id="paint16_linear" x1="12257.5" y1="2608.62" x2="12257.5" y2="2668.19" gradientUnits="userSpaceOnUse">
<stop stop-color="white"/>
<stop offset="1" stop-color="white" stop-opacity="0"/>
</linearGradient>
<linearGradient id="paint17_linear" x1="36.1367" y1="53.7347" x2="61.9669" y2="53.7347" gradientUnits="userSpaceOnUse">
<stop stop-color="#3922AA"/>
<stop offset="1" stop-color="#7F3DFF"/>
</linearGradient>
<linearGradient id="paint18_linear" x1="12226.5" y1="4850.84" x2="12226.5" y2="5074.93" gradientUnits="userSpaceOnUse">
<stop stop-color="#DBDFFF"/>
<stop offset="0.78" stop-color="#8B97FF"/>
<stop offset="1" stop-color="#B2BAFF"/>
</linearGradient>
<linearGradient id="paint19_linear" x1="10173.9" y1="1992.56" x2="10651.4" y2="1992.56" gradientUnits="userSpaceOnUse">
<stop stop-color="#2E007F"/>
<stop offset="1" stop-color="#7052C8"/>
</linearGradient>
<linearGradient id="paint20_linear" x1="53.7197" y1="45.7301" x2="54.3797" y2="45.7301" gradientUnits="userSpaceOnUse">
<stop stop-color="#4A3FFF"/>
<stop offset="1" stop-color="#853FFF"/>
</linearGradient>
<linearGradient id="paint21_linear" x1="757.01" y1="448.622" x2="759.399" y2="448.622" gradientUnits="userSpaceOnUse">
<stop stop-color="#4A3FFF"/>
<stop offset="1" stop-color="#853FFF"/>
</linearGradient>
<linearGradient id="paint22_linear" x1="713.885" y1="785.853" x2="715.761" y2="785.853" gradientUnits="userSpaceOnUse">
<stop stop-color="#7583FF"/>
<stop offset="1" stop-color="#DBDFFF"/>
</linearGradient>
<linearGradient id="paint23_linear" x1="51.1004" y1="47.8296" x2="53.1603" y2="47.8296" gradientUnits="userSpaceOnUse">
<stop offset="0.63" stop-color="#7986FF"/>
<stop offset="0.78" stop-color="#8B97FF"/>
<stop offset="1" stop-color="#B2BAFF"/>
</linearGradient>
<linearGradient id="paint24_linear" x1="44.7503" y1="50.1601" x2="53.0303" y2="45.4201" gradientUnits="userSpaceOnUse">
<stop stop-color="white"/>
<stop offset="1" stop-color="#DBDFFF"/>
</linearGradient>
<linearGradient id="paint25_linear" x1="2768.11" y1="1007.94" x2="2801.63" y2="1007.94" gradientUnits="userSpaceOnUse">
<stop stop-color="#7583FF"/>
<stop offset="1" stop-color="#DBDFFF"/>
</linearGradient>
<linearGradient id="paint26_linear" x1="12210.5" y1="2629.49" x2="12210.5" y2="2689.21" gradientUnits="userSpaceOnUse">
<stop stop-color="white"/>
<stop offset="1" stop-color="white" stop-opacity="0"/>
</linearGradient>
<linearGradient id="paint27_linear" x1="28.0597" y1="51.074" x2="48.4971" y2="51.074" gradientUnits="userSpaceOnUse">
<stop stop-color="#3922AA"/>
<stop offset="1" stop-color="#7F3DFF"/>
</linearGradient>
<linearGradient id="paint28_linear" x1="9180.73" y1="7281.79" x2="8924.78" y2="7453.37" gradientUnits="userSpaceOnUse">
<stop stop-color="#DBDFFF"/>
<stop offset="0.78" stop-color="#8B97FF"/>
<stop offset="1" stop-color="#B2BAFF"/>
</linearGradient>
<linearGradient id="paint29_linear" x1="7232.58" y1="6197.95" x2="7408.4" y2="6083.32" gradientUnits="userSpaceOnUse">
<stop stop-color="#8E52FF"/>
<stop offset="1" stop-color="#D6BFFF"/>
</linearGradient>
<linearGradient id="paint30_linear" x1="6703.57" y1="5871.55" x2="6951.02" y2="6136.65" gradientUnits="userSpaceOnUse">
<stop stop-color="#2E007F"/>
<stop offset="1" stop-color="#7052C8"/>
</linearGradient>
<linearGradient id="paint31_linear" x1="392.457" y1="468.992" x2="392.968" y2="469.395" gradientUnits="userSpaceOnUse">
<stop stop-color="#4A3FFF"/>
<stop offset="1" stop-color="#853FFF"/>
</linearGradient>
<linearGradient id="paint32_linear" x1="664.336" y1="704.682" x2="666.327" y2="706.487" gradientUnits="userSpaceOnUse">
<stop stop-color="#4A3FFF"/>
<stop offset="1" stop-color="#853FFF"/>
</linearGradient>
<linearGradient id="paint33_linear" x1="508.804" y1="841.127" x2="510.538" y2="842.098" gradientUnits="userSpaceOnUse">
<stop stop-color="#7583FF"/>
<stop offset="1" stop-color="#DBDFFF"/>
</linearGradient>
<linearGradient id="paint34_linear" x1="1358.3" y1="520.519" x2="1359.55" y2="523.769" gradientUnits="userSpaceOnUse">
<stop offset="0.63" stop-color="#7986FF"/>
<stop offset="0.78" stop-color="#8B97FF"/>
<stop offset="1" stop-color="#B2BAFF"/>
</linearGradient>
<linearGradient id="paint35_linear" x1="1174.5" y1="447.64" x2="1174.79" y2="448.404" gradientUnits="userSpaceOnUse">
<stop stop-color="#4A3FFF"/>
<stop offset="1" stop-color="#853FFF"/>
</linearGradient>
<linearGradient id="paint36_linear" x1="471.615" y1="802.653" x2="473.461" y2="803.645" gradientUnits="userSpaceOnUse">
<stop stop-color="#4A3FFF"/>
<stop offset="1" stop-color="#853FFF"/>
</linearGradient>
<linearGradient id="paint37_linear" x1="1033.92" y1="289.243" x2="1034.09" y2="289.938" gradientUnits="userSpaceOnUse">
<stop stop-color="#7583FF"/>
<stop offset="1" stop-color="#DBDFFF"/>
</linearGradient>
<linearGradient id="paint38_linear" x1="35.3302" y1="54.7802" x2="35.8002" y2="54.1702" gradientUnits="userSpaceOnUse">
<stop stop-color="#DBDFFF"/>
<stop offset="1" stop-color="#7583FF"/>
</linearGradient>
<linearGradient id="paint39_linear" x1="802.931" y1="359.143" x2="803.343" y2="360.09" gradientUnits="userSpaceOnUse">
<stop stop-color="#DBDFFF"/>
<stop offset="1" stop-color="#7583FF"/>
</linearGradient>
<linearGradient id="paint40_linear" x1="2718.91" y1="3804.87" x2="2746.41" y2="3909" gradientUnits="userSpaceOnUse">
<stop stop-color="white"/>
<stop offset="1" stop-color="#DBDFFF"/>
</linearGradient>
<linearGradient id="paint41_linear" x1="1556.31" y1="2897.6" x2="1571.13" y2="2908.04" gradientUnits="userSpaceOnUse">
<stop stop-color="#7583FF"/>
<stop offset="1" stop-color="#DBDFFF"/>
</linearGradient>
<linearGradient id="paint42_linear" x1="8449.41" y1="7015.63" x2="8329.92" y2="7091.58" gradientUnits="userSpaceOnUse">
<stop stop-color="white"/>
<stop offset="1" stop-color="white" stop-opacity="0"/>
</linearGradient>
</defs>
</svg>
