<svg width="75" height="76" viewBox="0 0 75 76" fill="none" xmlns="http://www.w3.org/2000/svg">
<path d="M47.2714 6.58408C43.1371 4.17654 37.4044 4.52188 31.0797 8.17265C18.5092 15.4249 8.35615 33.0176 8.39562 47.4628C8.41536 54.6361 10.9512 59.688 15.0361 62.0659L21.0648 65.8252C16.9799 63.4473 14.4441 58.4053 14.4243 51.2221C14.3849 36.7769 24.5379 19.1842 37.1084 11.9221C43.4331 8.27132 49.1658 7.92598 53.3001 10.3335L47.2714 6.58408Z" fill="url(#paint0_linear)"/>
<path d="M53.2515 47.415C62.1564 32.0932 62.1833 15.4924 53.3115 10.3362C44.4398 5.17992 30.0288 13.4208 21.1239 28.7427C12.2189 44.0645 12.192 60.6653 21.0638 65.8215C29.9356 70.9778 44.3465 62.7369 53.2515 47.415Z" fill="#5986FF"/>
<path d="M37.177 33.2354C39.4957 31.8935 41.4001 32.9789 41.4099 35.643C41.4198 38.307 39.5352 41.573 37.2066 42.9149C34.8879 44.2568 32.9836 43.1714 32.9836 40.5074C32.9638 37.8433 34.8484 34.5773 37.177 33.2354Z" fill="url(#paint1_linear)"/>
<path d="M37.1571 27.9068C42.0313 25.0947 46.0176 27.3641 46.0373 32.9685C46.057 38.5729 42.0905 45.4305 37.2163 48.2524C32.342 51.0645 28.3557 48.7951 28.336 43.1907C28.3163 37.5863 32.2729 30.7287 37.1571 27.9068ZM37.1965 42.9243C39.5153 41.5824 41.3998 38.3164 41.3998 35.6523C41.39 32.9883 39.4955 31.9029 37.1669 33.2448C34.8383 34.5867 32.9636 37.8527 32.9636 40.5167C32.9833 43.1808 34.8778 44.2662 37.1965 42.9243Z" fill="white"/>
<path d="M37.1081 11.9222C49.6785 4.66018 59.9007 10.4915 59.9402 24.9368C59.9796 39.382 49.8265 56.9747 37.2561 64.2269C24.6856 71.4791 14.4634 65.6576 14.4239 51.2223C14.3845 36.7771 24.5376 19.1843 37.1081 11.9222ZM37.2462 58.8988C47.2414 53.1266 55.3422 39.0958 55.3126 27.6107C55.283 16.1256 47.123 11.4782 37.1278 17.2504C27.1326 23.0226 19.0318 37.0632 19.0614 48.5385C19.091 60.0236 27.251 64.6709 37.2462 58.8988Z" fill="url(#paint2_linear)"/>
<path d="M37.138 22.5791C44.5777 18.287 50.6459 21.7404 50.6656 30.2852C50.6854 38.83 44.6567 49.2791 37.2269 53.5712C29.797 57.8633 23.719 54.4099 23.6993 45.8651C23.6795 37.3203 29.7082 26.8712 37.138 22.5791ZM37.217 48.2529C42.0913 45.4408 46.0578 38.5734 46.038 32.969C46.0183 27.3646 42.0321 25.0952 37.1578 27.9073C32.2835 30.7193 28.317 37.5867 28.3367 43.1912C28.3466 48.7956 32.3328 51.065 37.217 48.2529Z" fill="url(#paint3_linear)"/>
<path d="M37.128 17.2504C47.1232 11.4782 55.2733 16.1256 55.3128 27.6107C55.3424 39.0958 47.2416 53.1266 37.2464 58.8988C27.2512 64.6709 19.1011 60.0236 19.0616 48.5385C19.032 37.0632 27.1328 23.0226 37.128 17.2504ZM37.2267 53.5706C44.6663 49.2785 50.695 38.8294 50.6654 30.2846C50.6457 21.7398 44.5677 18.2864 37.1378 22.5785C29.708 26.8707 23.6695 37.3198 23.6991 45.8645C23.7287 54.4093 29.7968 57.8627 37.2267 53.5706Z" fill="white"/>
<path d="M65.867 27.4233L58.8516 30.1071L60.2921 25.1737L67.1102 22.48L65.867 27.4233Z" fill="#434587"/>
<path d="M63.4027 32.9094L70.3293 29.9887L65.8694 27.4233L59.0908 30.2058L63.4027 32.9094Z" fill="#393B73"/>
<path d="M37.1064 38.4446L69.1839 26.1504" stroke="#2F305E" stroke-width="1.2552" stroke-miterlimit="10" stroke-linecap="round" stroke-linejoin="round"/>
<defs>
<linearGradient id="paint0_linear" x1="11.3557" y1="36.4175" x2="53.307" y2="36.4175" gradientUnits="userSpaceOnUse">
<stop stop-color="#3922AA"/>
<stop offset="1" stop-color="#7F3DFF"/>
</linearGradient>
<linearGradient id="paint1_linear" x1="32.9716" y1="38.0783" x2="41.4002" y2="38.0783" gradientUnits="userSpaceOnUse">
<stop stop-color="#FF0054"/>
<stop offset="1" stop-color="#B10E99"/>
</linearGradient>
<linearGradient id="paint2_linear" x1="31.1449" y1="16.3812" x2="43.63" y2="61.2221" gradientUnits="userSpaceOnUse">
<stop stop-color="#DBDFFF"/>
<stop offset="1" stop-color="#B2BAFF"/>
</linearGradient>
<linearGradient id="paint3_linear" x1="31.1454" y1="16.3818" x2="43.6304" y2="61.2226" gradientUnits="userSpaceOnUse">
<stop stop-color="#DBDFFF"/>
<stop offset="1" stop-color="#B2BAFF"/>
</linearGradient>
</defs>
</svg>
