<svg width="75" height="75" viewBox="0 0 75 75" fill="none" xmlns="http://www.w3.org/2000/svg">
<path d="M17.3315 22.9902L11.8251 27.2216C11.7687 27.2667 11.7123 27.3119 11.6559 27.357C11.5995 27.4021 11.5431 27.4585 11.4866 27.5037C11.3851 27.5827 11.2948 27.6616 11.2045 27.7406C11.1256 27.8196 11.0466 27.8873 10.9676 27.9663C10.8773 28.0566 10.7871 28.1468 10.7081 28.2371C10.6742 28.271 10.6404 28.3048 10.6178 28.3387C10.5727 28.3838 10.5388 28.4402 10.4937 28.4966C10.4147 28.5982 10.3357 28.6997 10.2567 28.79C10.189 28.8803 10.1213 28.9705 10.0536 29.0608C9.98591 29.1624 9.90693 29.2639 9.83923 29.3768C9.80538 29.4219 9.78281 29.467 9.74896 29.5122C9.71511 29.5686 9.69254 29.625 9.65869 29.6701C9.59099 29.7942 9.52329 29.9071 9.45558 30.0312C9.39917 30.1328 9.34275 30.2343 9.29761 30.3359C9.2412 30.46 9.17349 30.5841 9.11708 30.7082C9.08323 30.7759 9.06066 30.8323 9.02681 30.8888C9.00424 30.9339 8.99296 30.979 8.98167 31.0242C8.91397 31.1821 8.85755 31.3401 8.78985 31.5094C8.756 31.6109 8.71087 31.7125 8.67702 31.814C8.6206 31.9946 8.56418 32.1864 8.50776 32.3895C8.48519 32.4572 8.46263 32.5249 8.45134 32.6039C8.44006 32.6264 8.44006 32.6377 8.44006 32.6603C8.42878 32.7054 8.41749 32.7506 8.40621 32.7957C8.36108 32.9988 8.31594 33.2019 8.27081 33.405C8.25952 33.4614 8.24824 33.5178 8.23696 33.5743C8.19182 33.8112 8.15797 34.0707 8.12412 34.319C8.11284 34.3641 8.11284 34.4092 8.11284 34.4544C8.11284 34.4657 8.11284 34.4657 8.11284 34.4657C8.10155 34.5898 8.07899 34.7139 8.0677 34.838C8.0677 34.8944 8.05642 34.9621 8.05642 35.0298C8.04513 35.1878 8.03385 35.3458 8.03385 35.5038C8.02257 35.6504 8.01128 35.7971 8.01128 35.9438C8 36.1018 8 36.271 8 36.429C8 36.587 8 36.7337 8 36.8916C8 37.0609 8.01128 37.2301 8.02257 37.3994C8.03385 37.5574 8.03385 37.7153 8.04513 37.8733C8.05642 38.0426 8.07899 38.2231 8.09027 38.4036C8.10155 38.5165 8.10155 38.618 8.11284 38.7309C8.12412 38.8437 8.1354 38.9678 8.15797 39.0807C8.16925 39.2273 8.19182 39.374 8.21439 39.532C8.25952 39.8028 8.29337 40.0849 8.34979 40.367V40.3783C8.37236 40.5024 8.39493 40.6265 8.41749 40.7506C8.48519 41.0779 8.5529 41.4164 8.63188 41.7436C8.65445 41.8564 8.6883 41.9693 8.71087 42.0821C8.81242 42.5109 8.92526 42.9397 9.06066 43.3797C9.08323 43.4474 9.10579 43.5264 9.12836 43.6054C9.22991 43.9665 9.35403 44.3275 9.47815 44.6886C9.50072 44.7563 9.52329 44.8127 9.54585 44.8691C9.5797 44.9594 9.61356 45.0497 9.64741 45.1287C9.71511 45.3205 9.79409 45.5236 9.86179 45.7267C9.9295 45.896 9.98591 46.0539 10.0536 46.2232C10.1326 46.4263 10.2116 46.6181 10.3019 46.8212C10.3696 46.9905 10.4373 47.1484 10.5162 47.3177C10.6065 47.5208 10.6855 47.7126 10.7758 47.9044C10.8548 48.0624 10.9225 48.2317 11.0014 48.3896C11.0917 48.5927 11.1933 48.7846 11.2948 48.9877C11.3512 49.1005 11.4076 49.2133 11.4641 49.3262C11.4866 49.3713 11.5092 49.4052 11.5318 49.4503C11.7462 49.8678 11.9718 50.2853 12.2088 50.7028C12.2426 50.7592 12.2765 50.8156 12.3103 50.8833C12.5134 51.2444 12.7278 51.5942 12.9422 51.9552C12.9761 52.0117 13.0099 52.0681 13.0438 52.1245C13.0889 52.2035 13.1453 52.2825 13.1905 52.3615C13.3371 52.5871 13.4725 52.8128 13.6192 53.0385C13.7095 53.1852 13.8111 53.3206 13.9013 53.456C14.0593 53.6929 14.2173 53.9186 14.3752 54.1443C14.4429 54.2345 14.4994 54.3361 14.5671 54.4264L14.646 54.5279C14.7814 54.731 14.9281 54.9228 15.0748 55.1147C15.1764 55.2501 15.2779 55.3855 15.3795 55.5209C15.5374 55.724 15.6954 55.9271 15.8534 56.1302C15.9437 56.2317 16.0114 56.3446 16.1016 56.4461L16.1355 56.4913C16.2934 56.6718 16.4401 56.8523 16.5981 57.0442C16.6997 57.1683 16.8125 57.3037 16.914 57.4278C17.0833 57.6196 17.2526 57.8114 17.4218 58.0033C17.5121 58.1048 17.6023 58.2176 17.6926 58.3192C17.7039 58.3305 17.7039 58.3305 17.7152 58.3418C17.9183 58.5674 18.1327 58.7931 18.3471 59.0188C18.4035 59.0865 18.4712 59.1542 18.5276 59.2219C18.8097 59.5153 19.0918 59.7974 19.3626 60.0794C19.3626 60.0794 19.3626 60.0794 19.3739 60.0794C19.4077 60.1246 19.4529 60.1584 19.498 60.2036C19.7462 60.4405 19.9945 60.6888 20.2427 60.9144C20.3443 61.0047 20.4571 61.1063 20.5587 61.1965C20.7505 61.3771 20.9423 61.5463 21.1454 61.7269C21.168 61.7494 21.1905 61.7607 21.2131 61.7833C21.2921 61.851 21.3824 61.9187 21.4613 61.9864C21.6757 62.1669 21.9014 62.3587 22.1158 62.528C22.2399 62.6295 22.364 62.7311 22.4881 62.8326C22.6913 62.9906 22.8944 63.1486 23.0975 63.3066C23.1652 63.3517 23.2216 63.4081 23.278 63.4532C23.3344 63.4984 23.3908 63.5322 23.4473 63.5774C23.7745 63.8256 24.113 64.0626 24.4515 64.2882C24.5079 64.3334 24.5643 64.3785 24.632 64.4123C25.0157 64.6719 25.4106 64.9201 25.8055 65.1683C25.8507 65.1909 25.8845 65.2248 25.9184 65.2473C26.0425 65.315 26.1666 65.3827 26.2907 65.4617C26.4148 65.5294 26.5502 65.6084 26.6744 65.6874C26.8549 65.7889 27.0467 65.8905 27.2273 65.9921C27.3514 66.0598 27.4755 66.1275 27.5883 66.1839C27.8027 66.2854 28.0058 66.387 28.2089 66.4885C28.3105 66.545 28.412 66.5901 28.5136 66.6352C28.8182 66.7819 29.1342 66.9173 29.4501 67.0527C34.6744 69.2305 39.1089 68.9258 42.0426 66.6691L47.2669 62.6521L47.5377 62.449C47.4362 62.528 47.3234 62.607 47.2105 62.686C47.1428 62.7311 47.0638 62.7762 46.9961 62.8214C46.8156 62.9455 46.6125 63.0583 46.4094 63.1712C46.3191 63.2276 46.2063 63.2727 46.1047 63.3291C46.0032 63.3743 45.9016 63.4307 45.8001 63.4758C45.7211 63.5097 45.6308 63.5548 45.5518 63.5774C45.439 63.6225 45.3374 63.6676 45.2246 63.7015C45.202 63.7128 45.1795 63.7128 45.1569 63.724C45.1231 63.7353 45.0892 63.7466 45.0666 63.7579C44.9764 63.7805 44.9087 63.8143 44.8297 63.8369C44.7958 63.8482 44.762 63.8595 44.7281 63.8707C44.6717 63.8933 44.604 63.9046 44.5476 63.9159C44.525 63.9271 44.5025 63.9272 44.4912 63.9384C44.3896 63.961 44.2881 63.9836 44.1865 64.0174C44.164 64.0287 44.1414 64.0287 44.1075 64.04C44.006 64.0626 43.8931 64.0851 43.7916 64.1077C43.6675 64.1303 43.5546 64.1528 43.4305 64.1641C43.3064 64.1754 43.1823 64.198 43.0582 64.2205C42.9792 64.2318 42.9002 64.2318 42.8212 64.2431C42.6407 64.2544 42.4714 64.2769 42.2796 64.2882C42.2232 64.2882 42.1668 64.2882 42.1216 64.2995C42.0539 64.2995 41.9975 64.2995 41.9298 64.3108C41.9072 64.3108 41.8847 64.3108 41.8621 64.3108C41.7605 64.3108 41.659 64.3108 41.5687 64.3108C41.0384 64.3108 40.4855 64.2657 39.9213 64.198C39.8198 64.1867 39.7182 64.1754 39.6279 64.1528C38.8832 64.04 38.1047 63.8707 37.3148 63.6451C37.1568 63.5999 37.0101 63.5548 36.8522 63.5097C36.4008 63.363 35.9382 63.205 35.4756 63.0245C35.3176 62.9681 35.1484 62.9003 34.9904 62.8326C34.6857 62.7085 34.3811 62.5731 34.0877 62.4264C34.0764 62.4264 34.0651 62.4152 34.0651 62.4152C33.9636 62.37 33.862 62.3136 33.7605 62.2685C33.6589 62.212 33.5574 62.1669 33.4445 62.1105C33.343 62.0541 33.2414 62.0089 33.1286 61.9525C33.106 61.9412 33.0835 61.93 33.0609 61.9187C32.9593 61.8735 32.8691 61.8171 32.7675 61.7607C32.587 61.6591 32.3952 61.5576 32.2146 61.456C32.1582 61.4222 32.1131 61.3883 32.0566 61.3658C31.9889 61.3206 31.91 61.2755 31.831 61.2417C31.6617 61.1401 31.515 61.0498 31.3458 60.9596C31.2894 60.9257 31.2217 60.8806 31.1652 60.8467C30.8719 60.6662 30.5898 60.4857 30.3077 60.2938C30.2626 60.26 30.2174 60.2374 30.1723 60.2036C30.1046 60.1584 30.0482 60.1246 29.9917 60.0794C29.7661 59.9215 29.5291 59.7635 29.3034 59.5943C29.1906 59.5153 29.0891 59.4363 28.9875 59.3686C28.8747 59.2783 28.7505 59.1993 28.6377 59.1091C28.6151 59.0865 28.5813 59.0639 28.5587 59.0414C28.4459 58.9511 28.3218 58.8608 28.2089 58.7705C28.1412 58.7254 28.0848 58.6803 28.0171 58.6239C27.893 58.5336 27.7689 58.432 27.6448 58.3305C27.5432 58.2515 27.4304 58.1612 27.3288 58.071C27.216 57.9807 27.1031 57.8791 26.979 57.7776C26.8775 57.6986 26.7759 57.5971 26.6744 57.5181C26.6518 57.4955 26.6292 57.4729 26.6067 57.4504C26.4374 57.3037 26.2682 57.1457 26.0989 56.9877C25.9973 56.8975 25.8845 56.7959 25.783 56.7056C25.5347 56.48 25.2978 56.243 25.0495 56.0061C25.0044 55.9609 24.9593 55.9158 24.9028 55.8707C24.6207 55.5886 24.3387 55.3065 24.0679 55.0131C24.0114 54.9454 23.9437 54.8777 23.8873 54.81C23.6729 54.5843 23.4698 54.3587 23.2554 54.133C23.1539 54.0314 23.0636 53.9073 22.9621 53.8058C22.7928 53.6139 22.6236 53.4221 22.4543 53.2303C22.3415 53.1062 22.2399 52.9821 22.1384 52.8579C21.9917 52.6887 21.8563 52.5194 21.7209 52.3502C21.7096 52.3389 21.687 52.3163 21.6757 52.305C21.5855 52.1809 21.4952 52.0681 21.3936 51.944C21.2808 51.7973 21.1567 51.6506 21.0438 51.4926L20.9197 51.3234C20.8182 51.188 20.7166 51.0526 20.6151 50.9172C20.5474 50.8156 20.4684 50.7253 20.4007 50.6238C20.3217 50.5222 20.254 50.432 20.1863 50.3304C20.096 50.195 20.0058 50.0709 19.9155 49.9355C19.8027 49.7775 19.7011 49.6195 19.5883 49.4616C19.5431 49.3939 19.498 49.3149 19.4416 49.2472C19.3513 49.1005 19.2498 48.9651 19.1595 48.8297C19.0805 48.7169 19.0015 48.5927 18.9338 48.4799C18.8661 48.3783 18.7984 48.2655 18.7307 48.1527C18.6517 48.0173 18.5615 47.8819 18.4825 47.7465C18.4486 47.6788 18.3922 47.6111 18.3583 47.5434C18.2794 47.3854 18.2117 47.2838 18.1552 47.171C18.0424 46.9905 17.9409 46.8099 17.8393 46.6294C17.8055 46.573 17.7716 46.5165 17.7378 46.4488C17.7265 46.4263 17.7152 46.415 17.7152 46.3924C17.5234 46.0539 17.3315 45.7041 17.1623 45.3656C17.1284 45.3092 17.1059 45.2528 17.072 45.1964C16.993 45.0384 16.914 44.8917 16.8463 44.745C16.7899 44.6435 16.7448 44.5306 16.6884 44.4291C16.6432 44.3388 16.5981 44.2485 16.553 44.147C16.474 43.989 16.4063 43.8198 16.3273 43.6618C16.2934 43.5828 16.2483 43.5038 16.2257 43.4248C16.1693 43.312 16.1242 43.1879 16.0678 43.0751C15.9775 42.9058 15.8985 42.7365 15.8308 42.5786C15.8083 42.5334 15.797 42.4883 15.7744 42.4432C15.7293 42.3303 15.6729 42.2062 15.6277 42.0821C15.6164 42.0482 15.6051 42.0144 15.5939 41.9805C15.5262 41.8113 15.4697 41.6533 15.402 41.4841C15.3682 41.3825 15.3343 41.281 15.2892 41.1907C15.2554 41.0891 15.2102 40.9876 15.1764 40.8973C15.12 40.7506 15.0748 40.6039 15.0184 40.4573C15.0071 40.4234 14.9958 40.3783 14.9846 40.3444C14.9394 40.1977 14.883 40.0623 14.8379 39.9156C14.7702 39.7238 14.7137 39.5433 14.6573 39.3627C14.6348 39.2838 14.6122 39.2048 14.5896 39.1371C14.5783 39.1145 14.5783 39.0919 14.5671 39.0581C14.4768 38.7873 14.4091 38.5052 14.3414 38.2344C14.3075 38.1103 14.2737 37.9861 14.2398 37.8507V37.8395C14.206 37.7266 14.1834 37.6138 14.1608 37.501C14.0819 37.1737 14.0142 36.8352 13.9465 36.508C13.9239 36.3952 13.9013 36.271 13.8788 36.1582C13.8788 36.1469 13.8788 36.1469 13.8788 36.1356C13.8449 35.9664 13.8223 35.7971 13.7885 35.6166C13.7772 35.515 13.7546 35.4248 13.7434 35.3232C13.7208 35.1652 13.6982 35.0073 13.6757 34.8493C13.6644 34.7365 13.6531 34.6236 13.6418 34.5108C13.608 34.2626 13.5967 34.0256 13.5741 33.7774C13.5741 33.7322 13.5628 33.6984 13.5628 33.6532C13.5515 33.4953 13.5402 33.326 13.5402 33.1793C13.529 33.0101 13.529 32.8295 13.5177 32.6716C13.5177 32.5136 13.5177 32.3669 13.5177 32.2089C13.5177 32.051 13.5177 31.8817 13.529 31.7125C13.529 31.5658 13.5402 31.4191 13.5515 31.2724C13.5628 31.1144 13.5741 30.9565 13.5741 30.7985C13.5967 30.618 13.608 30.4487 13.6305 30.2682C13.6418 30.2456 13.6305 30.2343 13.6418 30.2117C13.6531 30.1666 13.6531 30.1215 13.6531 30.0763C13.6869 29.8281 13.7208 29.5686 13.7659 29.3316C13.7772 29.2978 13.7772 29.2526 13.7885 29.2075C13.7885 29.1962 13.7998 29.1849 13.7998 29.1736C13.8336 28.9705 13.8788 28.7674 13.9352 28.5643C13.9465 28.5192 13.9577 28.4741 13.969 28.4289C13.9916 28.3274 14.0254 28.2258 14.0593 28.1243C14.1044 27.9437 14.1608 27.7632 14.2173 27.5939C14.2285 27.5488 14.2511 27.4924 14.2737 27.4473C14.2963 27.3683 14.3301 27.3006 14.3527 27.2216C14.3978 27.0862 14.4542 26.9395 14.5106 26.8041C14.5332 26.7364 14.5671 26.6687 14.6009 26.6123C14.6348 26.5333 14.6686 26.4543 14.7025 26.3866C14.7476 26.2963 14.7927 26.2061 14.8266 26.1158C14.8717 26.0142 14.9394 25.9127 14.9846 25.8111C15.0523 25.687 15.12 25.5742 15.1877 25.4501C15.2441 25.3598 15.3005 25.2582 15.3682 25.1567C15.4359 25.0439 15.5036 24.9423 15.5713 24.8407C15.639 24.7618 15.6954 24.6715 15.7518 24.6038C15.7631 24.5925 15.7744 24.5699 15.7857 24.5587C15.8534 24.4684 15.9324 24.3668 16.0114 24.2878C16.0791 24.1976 16.158 24.1186 16.2257 24.0396C16.316 23.9381 16.4063 23.8478 16.4853 23.7575C16.553 23.7011 16.6094 23.6334 16.6771 23.5657C16.7109 23.5431 16.7448 23.5093 16.7786 23.4754C16.8576 23.4077 16.9253 23.34 17.0043 23.2723C17.0382 23.2498 17.072 23.2272 17.0946 23.1933C17.0946 23.1933 17.0946 23.1933 17.1059 23.1821C17.1736 23.1144 17.2526 23.0467 17.3315 22.9902Z" fill="url(#paint0_linear)"/>
<path d="M29.9345 22.5954C40.3041 26.9283 49.85 39.4418 51.2492 50.5336C52.6484 61.6366 45.3704 67.1205 34.9895 62.7876C24.6199 58.4547 15.0739 45.9524 13.6748 34.8494C12.2869 23.7576 19.5535 18.2625 29.9345 22.5954Z" fill="url(#paint1_linear)"/>
<path d="M23.605 49.3488C27.1932 54.0541 31.7518 57.789 36.1185 59.6169C39.8309 61.1741 43.0805 61.2079 45.0326 59.7185C46.9621 58.2516 47.7858 55.1599 47.2893 51.2219C46.7026 46.5618 44.3104 41.1908 40.7223 36.4968C37.1341 31.7916 32.5755 28.0567 28.2087 26.2287C24.4964 24.6829 21.2468 24.6377 19.2947 26.1272C17.3652 27.5941 16.5415 30.697 17.038 34.6237C17.636 39.2839 20.0281 44.6436 23.605 49.3488Z" fill="url(#paint2_linear)"/>
<path d="M47.2898 51.2218C46.7031 46.5616 44.3109 41.1906 40.7227 36.4967C37.1346 31.7914 32.576 28.0565 28.2092 26.2286C24.7677 24.7956 21.7324 24.6602 19.7578 25.8224C19.8932 25.687 20.0286 25.5628 20.1753 25.45C22.1274 23.9719 25.377 24.0057 29.0894 25.5516C33.4561 27.3795 38.0147 31.1144 41.6029 35.8196C45.1911 40.5136 47.5832 45.8846 48.1699 50.556C48.6664 54.4827 47.8427 57.5857 45.9132 59.0526C45.7665 59.1654 45.6085 59.267 45.4506 59.3572C47.0754 57.7662 47.7411 54.8551 47.2898 51.2218Z" fill="url(#paint3_linear)"/>
<path d="M31.2687 32.3784L29.9598 33.3827L29.7793 31.9271L31.0769 30.9229L31.2687 32.3784Z" fill="url(#paint4_linear)"/>
<path d="M32.2612 35.5489C32.3627 35.4699 32.5207 35.4812 32.7576 35.5828C32.8141 35.6053 32.8705 35.6392 32.9269 35.673C32.9269 35.673 32.9382 35.673 32.9382 35.6843C32.9495 35.6843 32.9495 35.6956 32.9607 35.6956C32.9833 35.7069 33.0059 35.7294 33.0284 35.7407C33.051 35.7633 33.0736 35.7746 33.0961 35.7971L33.1074 35.8084C33.1074 35.8084 33.1074 35.8084 33.1187 35.8197C33.13 35.831 33.1413 35.8423 33.1638 35.8536C33.1864 35.8761 33.1977 35.8874 33.2203 35.91C33.2315 35.9325 33.2541 35.9438 33.2654 35.9664C33.2767 35.989 33.2992 36.0115 33.3105 36.0341C33.3331 36.0567 33.3444 36.0905 33.3669 36.1131C33.3782 36.1244 33.3782 36.1357 33.3895 36.1582C33.4008 36.1808 33.4234 36.2146 33.4346 36.2372C33.4459 36.2598 33.4459 36.2823 33.4572 36.2936C33.4798 36.3388 33.5024 36.3952 33.5249 36.4403C33.5362 36.4629 33.5362 36.4742 33.5475 36.4967C33.5588 36.508 33.5588 36.5306 33.5588 36.5531C33.5813 36.6208 33.6039 36.6885 33.6152 36.7675C33.6265 36.8014 33.6378 36.8352 33.6378 36.8691C33.6603 36.9819 33.6829 37.0948 33.6942 37.2189C33.6942 37.2527 33.7055 37.2866 33.7055 37.3204C33.7055 37.3317 33.7055 37.3543 33.7055 37.3656C33.7167 37.4671 33.7167 37.5574 33.728 37.6477C33.728 37.6589 33.728 37.6702 33.728 37.6815C33.728 37.7718 33.728 37.862 33.7167 37.941C33.7167 37.9523 33.7167 37.9636 33.7167 37.9636C33.7167 37.9749 33.7167 37.9862 33.7055 37.9974C33.6942 38.0539 33.6942 38.1103 33.6829 38.1554C33.6829 38.1667 33.6829 38.178 33.6716 38.1893V38.2006C33.6603 38.2231 33.6603 38.2457 33.649 38.257C33.6378 38.2795 33.6378 38.2908 33.6265 38.3134C33.6265 38.3247 33.6152 38.3247 33.6152 38.3247C33.6152 38.336 33.6039 38.3472 33.5926 38.3585C33.5813 38.3698 33.5813 38.3811 33.5701 38.3924C33.5588 38.4037 33.5588 38.4149 33.5475 38.4262C33.5475 38.4375 33.5362 38.4375 33.5362 38.4488L33.5249 38.4601C33.5136 38.4826 33.4911 38.4939 33.4685 38.5052L33.4572 38.5165L32.1483 39.5207C32.1709 39.4982 32.1935 39.4756 32.216 39.453C32.216 39.4417 32.2273 39.4417 32.2273 39.4305C32.2386 39.4079 32.2612 39.3853 32.2724 39.3628C32.2837 39.3515 32.2837 39.3402 32.295 39.3289C32.3063 39.3063 32.3176 39.2838 32.3176 39.2612C32.3289 39.2386 32.3289 39.2274 32.3401 39.2048C32.3401 39.1935 32.3514 39.1709 32.3514 39.1597C32.3627 39.1145 32.374 39.0581 32.374 39.0017C32.374 38.9791 32.374 38.9566 32.3853 38.9453C32.3966 38.8663 32.3966 38.776 32.3966 38.6857C32.3966 38.6745 32.3966 38.6632 32.3966 38.6519C32.3966 38.5616 32.3853 38.4714 32.374 38.3698C32.374 38.3247 32.3627 38.2683 32.3627 38.2231C32.3514 38.099 32.3289 37.9862 32.3063 37.8733C32.295 37.8395 32.295 37.8056 32.2837 37.7718C32.2612 37.7041 32.2499 37.6251 32.2273 37.5574C32.216 37.5235 32.2047 37.4897 32.1935 37.4558C32.1709 37.3994 32.1483 37.3543 32.1257 37.3091C32.1032 37.264 32.0806 37.2076 32.058 37.1737C32.0242 37.106 31.9791 37.0496 31.9339 36.9932C31.8888 36.9368 31.8437 36.8917 31.7872 36.8465C31.7872 36.8465 31.7872 36.8465 31.776 36.8352C31.7308 36.7901 31.6744 36.7563 31.6293 36.7224C31.618 36.7224 31.618 36.7111 31.6067 36.7111C31.5503 36.6773 31.4939 36.6434 31.4262 36.6208C31.3133 36.5757 31.2118 36.5419 31.1328 36.5419C31.0538 36.5419 30.9861 36.5531 30.9297 36.587L32.2612 35.5489Z" fill="url(#paint5_linear)"/>
<path d="M28.4917 32.5588C28.4352 32.6152 28.3788 32.6716 28.3224 32.7393C28.2998 32.7619 28.2773 32.7958 28.2547 32.8296C28.2209 32.8747 28.1983 32.9199 28.1644 32.965C28.1419 32.9989 28.1193 33.044 28.0967 33.0891C28.0742 33.1343 28.0516 33.1794 28.029 33.2358C28.0065 33.2922 27.9839 33.3599 27.9726 33.4164C27.9613 33.4728 27.9388 33.5292 27.9275 33.5856C27.9162 33.6082 27.9162 33.642 27.9049 33.6759C27.8824 33.7662 27.8711 33.8677 27.8598 33.958C27.8598 33.9693 27.8598 33.9805 27.8598 34.0031C27.8485 34.1159 27.8485 34.2401 27.8372 34.3529C27.8372 34.3867 27.8372 34.4093 27.8372 34.4432C27.8372 34.5673 27.8372 34.6801 27.8485 34.8155C27.8485 34.8268 27.8485 34.8381 27.8485 34.8494C27.8598 35.0073 27.8711 35.1653 27.8936 35.3233C27.9049 35.4136 27.9275 35.5377 27.9501 35.6844C27.9726 35.8311 28.0065 36.0003 28.0403 36.2034L26.7314 37.2077C26.6524 36.8127 26.6073 36.5194 26.5847 36.3275C26.5735 36.2711 26.5735 36.226 26.5622 36.1808C26.5509 36.068 26.5396 35.9552 26.5396 35.8536C26.5396 35.8423 26.5396 35.8311 26.5396 35.8198C26.5283 35.6956 26.5283 35.5715 26.5283 35.4474C26.5283 35.4136 26.5283 35.391 26.5283 35.3571C26.5283 35.2443 26.5396 35.1202 26.5509 35.0186V35.0073C26.5509 34.9961 26.5509 34.9848 26.5509 34.9622C26.5622 34.8607 26.5735 34.7704 26.596 34.6801C26.6073 34.6463 26.6073 34.6237 26.6186 34.5899C26.6299 34.5673 26.6299 34.5334 26.6412 34.5109C26.6524 34.477 26.6637 34.4545 26.675 34.4206C26.6976 34.3529 26.7089 34.2965 26.7314 34.2401C26.7427 34.2175 26.7427 34.1949 26.754 34.1724L26.7653 34.1611L26.754 34.1724C26.7653 34.1498 26.7766 34.1272 26.7991 34.0934C26.8217 34.0482 26.8443 34.0144 26.8668 33.9693C26.8781 33.9467 26.8894 33.9354 26.9007 33.9128C26.9232 33.879 26.9458 33.8564 26.9571 33.8339C26.9797 33.8 27.0022 33.7774 27.0248 33.7436C27.0361 33.7323 27.0474 33.721 27.0474 33.7097C27.0925 33.6646 27.1376 33.6082 27.1828 33.5743C27.1941 33.563 27.2053 33.5518 27.2279 33.5405C27.2392 33.5292 27.2505 33.5179 27.2618 33.5179L28.5707 32.5137C28.5481 32.5137 28.5142 32.5362 28.4917 32.5588Z" fill="url(#paint6_linear)"/>
<path d="M32.3157 37.9527L31.0068 38.9569L26.7529 37.1854L28.0618 36.1812L32.3157 37.9527Z" fill="url(#paint7_linear)"/>
<path d="M33.6712 44.3501L32.3623 45.3543C32.5654 45.1963 32.8475 45.0722 33.2199 44.9707C34.4046 44.6434 35.2058 44.3726 35.6233 44.1583C35.7023 44.1131 35.7812 44.068 35.8602 44.0116L37.1691 43.0073C37.0901 43.0637 37.0111 43.1202 36.9322 43.154C36.5147 43.3684 35.7135 43.6392 34.5288 43.9664C34.1564 44.068 33.863 44.2034 33.6712 44.3501Z" fill="url(#paint8_linear)"/>
<path d="M34.8443 46.122C34.8668 46.2686 34.8781 46.4041 34.9007 46.5395C34.9007 46.5846 34.912 46.6297 34.912 46.6749C34.9232 46.7538 34.9345 46.8328 34.9345 46.9005C34.9345 46.9118 34.9345 46.9118 34.9345 46.9231C34.9458 47.0698 34.9684 47.2165 34.9797 47.3406C34.9797 47.3744 34.9797 47.397 34.9909 47.4309C35.0022 47.5211 35.0022 47.6114 35.0135 47.7017C35.0135 47.7355 35.0135 47.7694 35.0135 47.7919C35.0135 47.8822 35.0248 47.9612 35.0248 48.0289C35.0248 48.0402 35.0248 48.0515 35.0248 48.0515C35.0248 48.1304 35.0248 48.1869 35.0135 48.2433C35.0135 48.2546 35.0135 48.2546 35.0135 48.2658C35.0135 48.2997 35.0022 48.3223 35.0022 48.3448C35.0022 48.3561 35.0022 48.3674 34.9909 48.3674C34.9797 48.39 34.9797 48.4125 34.9684 48.4351C34.9684 48.4464 34.9571 48.4464 34.9571 48.4577V48.4689C34.9571 48.4689 34.9571 48.4802 34.9458 48.4802C34.9345 48.4915 34.9345 48.5028 34.9232 48.5141C34.912 48.5254 34.9007 48.5367 34.8894 48.5367L33.5805 49.5409C33.6031 49.5183 33.6256 49.4958 33.6482 49.4619V49.4506C33.6708 49.4168 33.682 49.3829 33.6933 49.3378C33.6933 49.3152 33.7046 49.2814 33.7046 49.2362C33.7046 49.1798 33.7159 49.1234 33.7159 49.0444C33.7159 49.0331 33.7159 49.0218 33.7159 49.0218C33.7159 48.9541 33.7159 48.8639 33.7046 48.7849C33.7046 48.751 33.7046 48.7285 33.6933 48.6946C33.6933 48.6156 33.682 48.5254 33.6708 48.4238C33.6708 48.39 33.6708 48.3674 33.6595 48.3335C33.6482 48.2094 33.6369 48.0627 33.6143 47.9161C33.6031 47.8371 33.5918 47.7581 33.5918 47.6791C33.5918 47.634 33.5805 47.5888 33.5805 47.5437C33.5692 47.4083 33.5466 47.2729 33.5241 47.1262L33.3887 46.0091L34.6976 45.0049L34.8443 46.122Z" fill="url(#paint9_linear)"/>
<path d="M38.3309 51.4027C38.3647 51.3801 38.4098 51.3576 38.4437 51.3237L37.1348 52.328C37.101 52.3505 37.0671 52.3844 37.022 52.407C36.2772 52.8696 35.3407 52.926 34.2236 52.5649L35.5325 51.5607C36.6496 51.9105 37.5861 51.8653 38.3309 51.4027Z" fill="url(#paint10_linear)"/>
<path d="M33.7948 52.5085L32.4859 53.5128L32.2715 51.7976L33.5804 50.8047L33.7948 52.5085Z" fill="url(#paint11_linear)"/>
<path d="M35.7576 53.332L34.4487 54.325L32.4854 53.5125L33.7942 52.5083L35.7576 53.332Z" fill="url(#paint12_linear)"/>
<path d="M31.2675 32.3784L31.0869 30.9229L33.039 31.7353L33.2195 33.1909C34.6751 33.9694 35.826 34.906 36.6385 35.9666C37.4509 37.0386 37.9474 38.2572 38.1166 39.6225C38.2295 40.559 38.173 41.3263 37.9248 41.9244C37.6766 42.5224 37.3493 42.9399 36.9318 43.1543C36.5143 43.3687 35.7132 43.6395 34.5284 43.9667C33.8176 44.1585 33.4114 44.4406 33.3437 44.8355C33.2647 45.2192 33.2985 45.9188 33.4226 46.9343C33.4791 47.3405 33.5806 47.679 33.7499 47.9385C33.9078 48.198 34.1448 48.3899 34.4269 48.514C34.7654 48.6494 34.9572 48.593 35.0023 48.3335C35.0475 48.0739 35.0023 47.3292 34.8444 46.1106L34.709 44.9935L38.9629 46.765L39.0757 47.6564C39.3352 49.6762 39.087 50.9287 38.3423 51.38C37.5976 51.8427 36.661 51.8991 35.544 51.538L35.7696 53.3095L33.8176 52.4971L33.6032 50.782C32.1137 49.9583 30.9515 48.9315 30.1053 47.7016C29.259 46.4717 28.7287 45.0499 28.5256 43.4251C28.4014 42.4096 28.424 41.6197 28.6158 41.0555C28.7964 40.4913 29.0672 40.0964 29.417 39.8933C29.7667 39.6902 30.4325 39.4533 31.4254 39.2163C32.5989 38.9229 33.2872 38.686 33.5129 38.5054C33.7386 38.3362 33.8176 37.8848 33.7273 37.174C33.6709 36.7452 33.5693 36.3954 33.4114 36.1246C33.2534 35.8538 33.0503 35.6732 32.7795 35.5604C32.4635 35.425 32.2604 35.4589 32.1927 35.662C32.125 35.8651 32.1363 36.3728 32.2379 37.174L32.3281 37.93L28.0742 36.1584C27.9952 35.7635 27.9501 35.4701 27.9275 35.2783C27.7583 33.9356 27.9501 33.0216 28.5143 32.5251C29.0559 32.0738 29.9811 32.0061 31.2675 32.3784Z" fill="url(#paint13_linear)"/>
<path d="M29.0776 40.1756C29.0663 40.1756 29.0663 40.1756 29.0776 40.1756C28.9986 40.2546 28.9422 40.3336 28.8858 40.4238C28.8294 40.5254 28.7729 40.6269 28.7165 40.7511C28.6714 40.8526 28.6263 40.9542 28.5924 41.0783C28.5698 41.1347 28.5586 41.2024 28.536 41.2701C28.5247 41.3265 28.5134 41.3829 28.5021 41.4394C28.4909 41.4732 28.4909 41.4958 28.4796 41.5296C28.4683 41.6086 28.457 41.6876 28.4457 41.7779C28.4457 41.7892 28.4457 41.8004 28.4457 41.8117C28.4344 41.9133 28.4344 42.0148 28.4232 42.1164C28.4232 42.1502 28.4232 42.1841 28.4232 42.2179C28.4232 42.2969 28.4232 42.3646 28.4232 42.4436C28.4232 42.4887 28.4232 42.5339 28.4232 42.579C28.4232 42.6467 28.4232 42.7257 28.4344 42.7934C28.4344 42.8385 28.4457 42.895 28.4457 42.9401C28.457 43.0191 28.457 43.0868 28.4683 43.1658C28.4796 43.256 28.4909 43.3463 28.5021 43.4478C28.5247 43.651 28.5586 43.8428 28.5924 44.0346C28.6037 44.1023 28.615 44.1587 28.6263 44.2264C28.6488 44.3505 28.6714 44.4859 28.7052 44.6101C28.7278 44.689 28.7391 44.7567 28.7617 44.8244C28.7955 44.9373 28.8181 45.0501 28.8519 45.1517C28.8745 45.2307 28.8971 45.2984 28.9196 45.3773C28.9535 45.4789 28.9873 45.5804 29.0212 45.6707C29.0663 45.7836 29.1115 45.8964 29.1566 46.0092C29.1792 46.0769 29.213 46.1446 29.2356 46.2123C29.292 46.3364 29.3484 46.4606 29.4161 46.5847C29.4387 46.6298 29.4612 46.6862 29.4838 46.7427C29.5854 46.9345 29.6869 47.1263 29.7998 47.3068C29.89 47.4422 29.969 47.5889 30.0593 47.7243C30.127 47.8259 30.206 47.9162 30.2737 48.0177C30.3188 48.0854 30.3639 48.1418 30.4204 48.2095C30.4881 48.2998 30.567 48.3901 30.646 48.4803C30.6912 48.5255 30.725 48.5819 30.7701 48.627C30.8491 48.706 30.9281 48.7963 31.0071 48.8753C31.0635 48.9317 31.1087 48.9881 31.1651 49.0332C31.2102 49.0784 31.2553 49.1122 31.3005 49.1574C31.402 49.2589 31.5036 49.3492 31.6051 49.4394C31.639 49.4733 31.6841 49.5071 31.7293 49.541C31.8647 49.6538 32.0113 49.7667 32.158 49.8795C32.237 49.9359 32.316 49.9923 32.395 50.06C32.4627 50.1052 32.5304 50.1616 32.5981 50.2067C32.6884 50.2744 32.7899 50.3308 32.8915 50.3985C32.9592 50.4437 33.0269 50.4888 33.0946 50.534C33.2525 50.6355 33.4105 50.7258 33.5685 50.816L32.2596 51.8203C32.1242 51.7413 31.9775 51.6623 31.8534 51.5833C31.8308 51.572 31.8082 51.5495 31.7857 51.5382C31.718 51.4931 31.6503 51.4479 31.5826 51.4028C31.481 51.3351 31.3907 51.2787 31.2892 51.211C31.2215 51.1658 31.1538 51.1207 31.0861 51.0643C31.0297 51.0304 30.9732 50.9853 30.9281 50.9514C30.9055 50.9289 30.8717 50.9063 30.8491 50.8837C30.7024 50.7709 30.567 50.6581 30.4204 50.5452C30.3865 50.5227 30.3527 50.5001 30.3301 50.4662C30.3188 50.455 30.3075 50.455 30.3075 50.4437C30.206 50.3534 30.1044 50.2519 30.0029 50.1616C29.9577 50.1277 29.9239 50.0826 29.8787 50.0488L29.8675 50.0375C29.811 49.9811 29.7659 49.9359 29.7208 49.8795C29.6531 49.8005 29.5741 49.7328 29.5064 49.6538C29.4951 49.6425 29.4951 49.6425 29.4951 49.6313C29.45 49.5861 29.4048 49.5297 29.371 49.4846C29.3033 49.4056 29.2356 49.3266 29.1679 49.2476C29.1566 49.2363 29.1453 49.2251 29.1453 49.2138C29.1002 49.1461 29.055 49.0897 28.9986 49.0219C28.9535 48.9542 28.8971 48.8865 28.8406 48.8188C28.8181 48.785 28.7955 48.7624 28.7729 48.7286C28.694 48.6045 28.615 48.4803 28.536 48.3562C28.5247 48.3449 28.5247 48.3224 28.5134 48.3111C28.4006 48.1305 28.299 47.9387 28.1975 47.7469C28.1975 47.7469 28.1975 47.7356 28.1862 47.7356C28.1636 47.6905 28.1411 47.6453 28.1185 47.5889C28.0621 47.4648 27.9944 47.3407 27.938 47.2166C27.9041 47.1489 27.8815 47.0812 27.859 47.0135C27.8138 46.9006 27.7687 46.7878 27.7236 46.675C27.7123 46.6524 27.7123 46.6411 27.701 46.6185C27.6672 46.5396 27.6446 46.4493 27.622 46.3703C27.5995 46.2913 27.5769 46.2236 27.5543 46.1446C27.5205 46.0318 27.4979 45.919 27.464 45.8174C27.4415 45.7497 27.4189 45.6707 27.4076 45.603C27.3738 45.4789 27.3512 45.3548 27.3286 45.2307C27.3174 45.163 27.3061 45.1065 27.2948 45.0388C27.2609 44.847 27.2271 44.6552 27.2045 44.4521C27.1932 44.3731 27.182 44.3054 27.1707 44.2377C27.1707 44.2151 27.1707 44.1926 27.1594 44.17C27.1481 44.091 27.1481 44.0233 27.1368 43.9443C27.1368 43.8879 27.1255 43.8428 27.1255 43.7976C27.1255 43.7187 27.1143 43.6509 27.1143 43.5832C27.1143 43.5381 27.1143 43.493 27.1143 43.4478C27.1143 43.3689 27.1143 43.2899 27.1143 43.2222C27.1143 43.1883 27.1143 43.1545 27.1143 43.1206C27.1143 43.0191 27.1255 42.9175 27.1368 42.816C27.1368 42.8047 27.1368 42.7934 27.1368 42.7821C27.1481 42.7031 27.1594 42.6241 27.1707 42.5452C27.1707 42.5113 27.182 42.4887 27.1932 42.4549C27.2045 42.3985 27.2158 42.3421 27.2271 42.2856C27.2271 42.2744 27.2271 42.2631 27.2384 42.2518C27.2497 42.1954 27.2722 42.1502 27.2835 42.0938C27.3174 41.981 27.3512 41.8907 27.3963 41.7892C27.3963 41.7779 27.4076 41.7779 27.4076 41.7666C27.464 41.6538 27.5205 41.5409 27.5769 41.4394C27.6333 41.3491 27.6897 41.2701 27.7574 41.2024L27.7687 41.1911C27.8251 41.1347 27.8815 41.0783 27.938 41.0332C27.9492 41.0219 27.9605 41.0219 27.9605 41.0106L29.2694 40.0063C29.2017 40.0402 29.134 40.1079 29.0776 40.1756Z" fill="url(#paint14_linear)"/>
<path opacity="0.39" d="M34.0654 63.4984C23.4814 59.3235 13.9468 46.8213 12.762 35.5602C12.1752 29.9523 13.7662 25.7209 16.8128 23.3852L16.8805 23.3288C16.9482 23.2724 17.0272 23.2273 17.0949 23.1821C17.061 23.2047 17.0272 23.2385 17.0046 23.2611C16.9144 23.3401 16.8128 23.4191 16.7225 23.5094C16.6436 23.5883 16.5646 23.6673 16.4856 23.735C16.3953 23.8253 16.305 23.9156 16.2261 24.0058C16.1471 24.0848 16.0794 24.1751 16.0117 24.2541C15.9327 24.3443 15.8537 24.4459 15.7747 24.5474C15.707 24.6377 15.6393 24.728 15.5716 24.8183C15.5039 24.9198 15.4249 25.0214 15.3572 25.1342C15.2895 25.2245 15.2331 25.326 15.1767 25.4276C15.109 25.5404 15.0413 25.6645 14.9736 25.7774C14.9172 25.8789 14.8607 25.9805 14.8156 26.082C14.7479 26.2061 14.6915 26.3303 14.6351 26.4657C14.5899 26.5672 14.5448 26.68 14.4997 26.7816C14.432 26.9396 14.3756 27.0975 14.3191 27.2668C14.2853 27.3683 14.2401 27.4699 14.2176 27.5715C14.1612 27.752 14.1047 27.9438 14.0483 28.1469C14.0258 28.2372 13.9919 28.3275 13.9693 28.4177C13.9581 28.4629 13.9468 28.508 13.9355 28.5531C13.8904 28.7562 13.8452 28.9593 13.8001 29.1624C13.7888 29.2189 13.7775 29.2753 13.7662 29.3317C13.7098 29.5686 13.676 29.8169 13.6421 30.0651C13.6308 30.1103 13.6308 30.1554 13.6308 30.2005C13.6083 30.3924 13.5857 30.5842 13.5744 30.776C13.5631 30.934 13.5518 31.0919 13.5406 31.2499C13.5293 31.3966 13.5293 31.5433 13.518 31.69C13.518 31.8479 13.5067 32.0172 13.5067 32.1864C13.5067 32.3444 13.5067 32.4911 13.5067 32.6491C13.5067 32.8183 13.518 32.9876 13.5293 33.1681C13.5406 33.3261 13.5406 33.4841 13.5518 33.642C13.5631 33.8226 13.5857 33.9918 13.597 34.1724C13.6195 34.398 13.6421 34.6124 13.6647 34.8494C13.7211 35.2782 13.7888 35.7069 13.8678 36.1357C13.8904 36.2598 13.9129 36.3839 13.9355 36.5081C14.0032 36.8353 14.0709 37.1738 14.1499 37.501C14.1724 37.6139 14.195 37.7267 14.2289 37.8395C14.3304 38.2683 14.4545 38.6971 14.5787 39.1259C14.6012 39.2048 14.6238 39.2725 14.6464 39.3515C14.7705 39.7239 14.8946 40.085 15.0187 40.446C15.0751 40.5927 15.1203 40.7394 15.1767 40.8974C15.2444 41.1005 15.3234 41.2923 15.4024 41.4954C15.4701 41.6647 15.5265 41.8339 15.5942 41.9919C15.6732 42.1837 15.7521 42.3868 15.8424 42.5786C15.9101 42.7479 15.9778 42.9059 16.0568 43.0751C16.1471 43.2669 16.2373 43.4701 16.3276 43.6619C16.4066 43.8198 16.4743 43.9891 16.5533 44.1471C16.6436 44.3502 16.7451 44.542 16.8467 44.7451C16.9256 44.8918 16.9933 45.0498 17.0723 45.1964C17.2867 45.6139 17.5124 46.0314 17.7493 46.4489C17.7832 46.5053 17.817 46.5618 17.8509 46.6295C18.054 46.9905 18.2684 47.3516 18.4828 47.7014C18.5618 47.8368 18.652 47.9722 18.731 48.1076C18.8777 48.3333 19.0131 48.559 19.1598 48.7846C19.2501 48.9313 19.3403 49.0667 19.4419 49.2021C19.5999 49.4278 19.7578 49.6647 19.9158 49.8904C20.0061 50.0145 20.0963 50.1499 20.1866 50.2741C20.322 50.4659 20.4687 50.669 20.6154 50.8608C20.7169 50.9962 20.8185 51.1316 20.92 51.267C21.078 51.4701 21.236 51.6732 21.394 51.8876C21.4842 52.0117 21.5745 52.1246 21.676 52.2487C21.8227 52.4405 21.9807 52.6211 22.1387 52.8016C22.2402 52.9257 22.3418 53.0611 22.4546 53.1852C22.6239 53.3771 22.7931 53.5689 22.9624 53.7607C23.0639 53.8735 23.1542 53.9864 23.2557 54.0879C23.4589 54.3136 23.6732 54.5393 23.8876 54.7649C23.9553 54.8326 24.0117 54.9003 24.0682 54.968C24.339 55.2614 24.6211 55.5435 24.9032 55.8256C24.9483 55.8707 25.0047 55.9159 25.0498 55.961C25.2981 56.198 25.535 56.4349 25.7833 56.6606C25.8848 56.7621 25.9977 56.8524 26.0992 56.9427C26.291 57.1232 26.4829 57.2925 26.686 57.4617C26.7875 57.552 26.8891 57.6423 26.9906 57.7212C27.205 57.9131 27.4307 58.0936 27.6451 58.2741C27.7692 58.3757 27.8933 58.466 28.0174 58.5675C28.2205 58.7255 28.4236 58.8947 28.638 59.0414C28.7509 59.1317 28.875 59.222 28.9878 59.3009C29.315 59.5492 29.6535 59.7861 29.9921 60.0118C30.0485 60.0569 30.1049 60.0908 30.1726 60.1359C30.5675 60.3955 30.9512 60.6437 31.3461 60.8919C31.5041 60.9935 31.6733 61.0838 31.8313 61.1853C31.9554 61.2643 32.0908 61.332 32.2149 61.411C32.3955 61.5125 32.5873 61.6141 32.7678 61.7156C32.8919 61.7833 33.0161 61.851 33.1289 61.9075C33.332 62.009 33.5464 62.1106 33.7495 62.2121C33.8511 62.2572 33.9526 62.3137 34.0542 62.3588C34.3588 62.5055 34.6748 62.6409 34.9907 62.7763C40.0457 64.8863 44.3561 64.6607 47.3011 62.5958C44.2207 65.1459 39.538 65.6536 34.0654 63.4984Z" fill="url(#paint15_linear)"/>
<path d="M59.4191 8.38965L63.4925 11.5152C63.5376 11.5491 63.5715 11.5829 63.6166 11.6168C63.6618 11.6506 63.6956 11.6845 63.7407 11.7296C63.8084 11.786 63.8761 11.8537 63.9438 11.9101C64.0003 11.9666 64.0567 12.023 64.1131 12.0794C64.1808 12.1471 64.2485 12.2148 64.3049 12.2825C64.3275 12.3051 64.3501 12.3276 64.3726 12.3502C64.4065 12.384 64.4403 12.4292 64.4629 12.463C64.5193 12.5307 64.5757 12.6097 64.6321 12.6774C64.6773 12.7451 64.7337 12.8128 64.7901 12.8805C64.8465 12.9595 64.8917 13.0272 64.9481 13.1062C64.9707 13.14 64.9932 13.1739 65.0158 13.2077C65.0384 13.2416 65.0609 13.2867 65.0835 13.3206C65.1399 13.4109 65.185 13.4898 65.2302 13.5801C65.2753 13.6591 65.3092 13.7268 65.3543 13.8058C65.3994 13.896 65.4446 13.9863 65.4897 14.0879C65.5123 14.133 65.5348 14.1781 65.5574 14.2233C65.5687 14.2571 65.58 14.291 65.5913 14.3248C65.6477 14.4377 65.6815 14.5618 65.7267 14.6746C65.7605 14.7536 65.7831 14.8213 65.8056 14.9003C65.8508 15.0357 65.8959 15.1824 65.9298 15.3178C65.941 15.3629 65.9636 15.4193 65.9749 15.4758C65.9749 15.487 65.9862 15.5096 65.9862 15.5209C65.9975 15.5547 66.0087 15.5886 66.0087 15.6224C66.0426 15.7691 66.0764 15.9158 66.1103 16.0738C66.1216 16.1189 66.1216 16.1641 66.1329 16.1979C66.1667 16.3784 66.1893 16.559 66.2231 16.7508C66.2231 16.7847 66.2344 16.8185 66.2344 16.8524C66.2344 16.8524 66.2344 16.8524 66.2344 16.8636C66.2457 16.9539 66.257 17.0442 66.2683 17.1344C66.2683 17.1796 66.2683 17.2247 66.2796 17.2811C66.2908 17.394 66.2908 17.5181 66.3021 17.6309C66.3134 17.7438 66.3134 17.8453 66.3134 17.9581C66.3134 18.0823 66.3134 18.2064 66.3134 18.3192C66.3134 18.4321 66.3134 18.5449 66.3134 18.6577C66.3134 18.7818 66.3021 18.906 66.3021 19.0414C66.2908 19.1542 66.2908 19.2783 66.2796 19.3912C66.2683 19.5153 66.257 19.6507 66.2457 19.7861C66.2344 19.8651 66.2344 19.9441 66.2231 20.023C66.2118 20.102 66.2006 20.1923 66.1893 20.2826C66.178 20.3954 66.1667 20.497 66.1441 20.6098C66.1103 20.8129 66.0764 21.016 66.0426 21.2191C66.02 21.3094 66.0087 21.3996 65.9862 21.5012C65.941 21.7494 65.8846 21.9977 65.8282 22.2346C65.8056 22.3136 65.7944 22.3926 65.7718 22.4829C65.6928 22.7988 65.6138 23.1148 65.5123 23.442C65.4897 23.4984 65.4784 23.5548 65.4558 23.6112C65.3769 23.882 65.2866 24.1416 65.1963 24.4124C65.1738 24.4575 65.1625 24.5026 65.1512 24.5478C65.1286 24.6155 65.1061 24.6832 65.0835 24.7396C65.0271 24.8863 64.9819 25.033 64.9255 25.1797C64.8804 25.3038 64.8352 25.4279 64.7788 25.5407C64.7224 25.6874 64.6547 25.8341 64.5983 25.9808C64.5532 26.1049 64.4967 26.229 64.4403 26.3419C64.3726 26.4885 64.3162 26.6352 64.2485 26.7819C64.1921 26.906 64.1357 27.0189 64.0792 27.143C64.0115 27.2897 63.9326 27.4364 63.8649 27.5831C63.8197 27.662 63.7859 27.7523 63.7407 27.8313C63.7182 27.8651 63.7069 27.8877 63.6956 27.9216C63.5376 28.2375 63.3684 28.5422 63.1991 28.8468C63.1766 28.892 63.1427 28.9371 63.1201 28.9822C62.9735 29.253 62.8155 29.5126 62.6575 29.7721C62.6349 29.8059 62.6124 29.8511 62.5785 29.8962C62.5447 29.9526 62.4995 30.0203 62.4657 30.0767C62.3641 30.246 62.2513 30.4152 62.1498 30.5732C62.0821 30.6748 62.0143 30.7763 61.9466 30.8779C61.8338 31.0471 61.7097 31.2164 61.5969 31.3856C61.5517 31.4533 61.5066 31.521 61.4615 31.5887L61.405 31.6677C61.3035 31.8144 61.1906 31.9611 61.0891 32.1078C61.0101 32.2093 60.9424 32.3109 60.8634 32.4124C60.7506 32.5591 60.6265 32.7171 60.5136 32.8638C60.4459 32.9428 60.3895 33.0218 60.3331 33.1007L60.3105 33.1346C60.1977 33.27 60.0849 33.4054 59.972 33.5408C59.893 33.6311 59.814 33.7326 59.7351 33.8229C59.6109 33.9696 59.4868 34.105 59.3627 34.2517C59.295 34.3307 59.2273 34.4096 59.1596 34.4886C59.1596 34.4999 59.1483 34.4999 59.1483 34.4999C58.9903 34.6692 58.8437 34.8384 58.6857 35.0077C58.6405 35.0528 58.5954 35.1092 58.5503 35.1544C58.3472 35.3687 58.1328 35.5831 57.9297 35.7862C57.9297 35.7862 57.9297 35.7862 57.9184 35.7862C57.8846 35.8201 57.862 35.8427 57.8281 35.8765C57.6476 36.057 57.4558 36.2263 57.2752 36.4068C57.1962 36.4745 57.1173 36.5422 57.0383 36.6212C56.8916 36.7566 56.7562 36.8807 56.6095 37.0049C56.5982 37.0162 56.5757 37.0387 56.5644 37.05C56.5079 37.0951 56.4402 37.1516 56.3838 37.208C56.2259 37.3434 56.0566 37.4788 55.8986 37.6142C55.8084 37.6932 55.7181 37.7609 55.6278 37.8399C55.4811 37.9527 55.3232 38.0768 55.1765 38.1896C55.1314 38.2235 55.0862 38.2686 55.0411 38.3025C54.9959 38.3363 54.9508 38.3589 54.917 38.3928C54.6687 38.5733 54.4205 38.7425 54.1722 38.9231C54.1271 38.9569 54.082 38.9908 54.0368 39.0134C53.7547 39.2052 53.4614 39.3857 53.168 39.5662C53.1341 39.5775 53.1116 39.6001 53.0777 39.6227C52.9875 39.6791 52.8972 39.7242 52.8069 39.7806C52.7167 39.8371 52.6151 39.8935 52.5248 39.9386C52.3894 40.0176 52.254 40.0853 52.1186 40.1643C52.0284 40.2094 51.9381 40.2658 51.8478 40.311C51.6899 40.39 51.5432 40.4577 51.3852 40.5366C51.3062 40.5705 51.2385 40.6156 51.1595 40.6495C50.9338 40.7623 50.6969 40.8639 50.4712 40.9541C46.6122 42.5677 43.3287 42.342 41.151 40.672L37.292 37.7045L37.0889 37.5465C37.1679 37.6029 37.2468 37.6593 37.3258 37.7157C37.3822 37.7496 37.4274 37.7834 37.4838 37.8173C37.6192 37.9076 37.7659 37.9978 37.9126 38.0768C37.9803 38.1219 38.0593 38.1558 38.1382 38.1896C38.2059 38.2235 38.2849 38.2686 38.3639 38.2912C38.4203 38.3138 38.488 38.3476 38.5445 38.3702C38.6234 38.404 38.7024 38.4379 38.7814 38.4605C38.804 38.4717 38.8153 38.4717 38.8265 38.483C38.8491 38.483 38.8717 38.4943 38.8942 38.5056C38.9619 38.5282 39.0184 38.5394 39.0748 38.562C39.0973 38.5959 39.1199 38.5959 39.1425 38.6071C39.1876 38.6184 39.2328 38.6297 39.2779 38.641C39.2892 38.6523 39.3117 38.6523 39.323 38.6523C39.402 38.6748 39.4697 38.6861 39.5487 38.7087C39.5713 38.7087 39.5825 38.72 39.6051 38.72C39.6841 38.7313 39.7631 38.7538 39.8421 38.7651C39.9323 38.7764 40.0226 38.799 40.1129 38.8102C40.2031 38.8215 40.2934 38.8328 40.395 38.8441C40.4514 38.8554 40.5078 38.8554 40.5755 38.8667C40.7109 38.8779 40.835 38.8892 40.9704 38.9005C41.0043 38.9005 41.0494 38.9005 41.0945 38.9005C41.1397 38.9005 41.1848 38.9005 41.2299 38.9118C41.2525 38.9118 41.2638 38.9118 41.2864 38.9118C41.3541 38.9118 41.4331 38.9118 41.512 38.9118C41.907 38.9118 42.3132 38.8779 42.7307 38.8328C42.7984 38.8215 42.8774 38.8102 42.9451 38.799C43.498 38.72 44.0734 38.5959 44.6602 38.4266C44.773 38.3928 44.8858 38.3589 44.9987 38.3251C45.3372 38.2235 45.6757 38.0994 46.0142 37.964C46.1383 37.9188 46.2512 37.8737 46.3753 37.8173C46.6009 37.727 46.8266 37.6255 47.041 37.5239C47.0523 37.5239 47.0523 37.5239 47.0636 37.5126C47.1426 37.4788 47.2103 37.4449 47.2892 37.3998C47.3682 37.3659 47.4472 37.3208 47.5149 37.287C47.5939 37.2531 47.6729 37.208 47.7406 37.1741C47.7632 37.1628 47.7744 37.1516 47.7857 37.1403C47.8534 37.1064 47.9324 37.0613 48.0001 37.0274C48.1355 36.9597 48.2709 36.8807 48.4063 36.8018C48.4515 36.7792 48.4853 36.7566 48.5304 36.7341C48.5869 36.7002 48.6433 36.6664 48.6997 36.6438C48.8238 36.5761 48.9366 36.4971 49.0608 36.4294C49.1059 36.4068 49.151 36.373 49.1962 36.3391C49.4106 36.2037 49.625 36.0796 49.8393 35.9329C49.8732 35.9104 49.907 35.8878 49.9409 35.8652C49.986 35.8314 50.0312 35.8088 50.0763 35.775C50.2455 35.6621 50.4148 35.538 50.5841 35.4139C50.663 35.3575 50.742 35.301 50.821 35.2446C50.9113 35.1769 50.9903 35.1205 51.0805 35.0528C51.1031 35.0415 51.1257 35.019 51.137 35.0077C51.2272 34.94 51.3175 34.8723 51.3965 34.8046C51.4416 34.7707 51.4867 34.7369 51.5319 34.703C51.6222 34.6353 51.7124 34.5563 51.8027 34.4886C51.8817 34.4209 51.9607 34.3645 52.0396 34.2968C52.1299 34.2291 52.2089 34.1614 52.2992 34.0824C52.3781 34.0147 52.4459 33.9583 52.5248 33.8906C52.5361 33.8793 52.5587 33.8567 52.5813 33.8455C52.7054 33.7326 52.8295 33.6198 52.9649 33.507C53.0439 33.4392 53.1229 33.3715 53.2019 33.2926C53.3824 33.1233 53.5629 32.9541 53.7435 32.7735C53.7773 32.7397 53.8112 32.7058 53.845 32.672C54.0594 32.4689 54.2625 32.2545 54.4656 32.0401C54.5108 31.9949 54.5559 31.9385 54.601 31.8934C54.759 31.7241 54.917 31.5549 55.0636 31.3856C55.1426 31.3066 55.2103 31.2164 55.278 31.1374C55.4022 31.002 55.5376 30.8553 55.6504 30.7086C55.7294 30.6183 55.8084 30.5168 55.8873 30.4265C55.9889 30.3024 56.1017 30.1783 56.192 30.0542C56.2033 30.0429 56.2146 30.0316 56.2259 30.0203C56.2936 29.93 56.3613 29.8398 56.429 29.7495C56.5192 29.6367 56.5982 29.5351 56.6885 29.4223L56.7788 29.2982C56.8577 29.1966 56.9254 29.0951 57.0044 28.9935C57.0496 28.9258 57.106 28.8468 57.1624 28.7791C57.2188 28.7114 57.2639 28.6324 57.3204 28.5647C57.3881 28.4632 57.4558 28.3729 57.5235 28.2714C57.6025 28.1585 57.6814 28.0344 57.7604 27.9216C57.7943 27.8652 57.8281 27.82 57.862 27.7636C57.9297 27.662 57.9974 27.5605 58.0764 27.4477C58.1328 27.3574 58.1892 27.2784 58.2456 27.1881C58.2908 27.1091 58.3472 27.0302 58.4036 26.9512C58.46 26.8496 58.5277 26.7481 58.5841 26.6578C58.618 26.6127 58.6518 26.5563 58.6744 26.5111C58.7195 26.4321 58.7647 26.3531 58.8211 26.2629C58.9001 26.1275 58.9791 25.9921 59.0468 25.868C59.0693 25.8228 59.1032 25.7777 59.1257 25.7325C59.137 25.7213 59.137 25.71 59.1483 25.6987C59.295 25.4392 59.4304 25.1909 59.5658 24.9314C59.5884 24.8863 59.6109 24.8411 59.6335 24.8073C59.6899 24.6945 59.7463 24.5816 59.8028 24.4688C59.8366 24.3898 59.8817 24.3108 59.9156 24.2318C59.9494 24.1641 59.9833 24.0964 60.0171 24.0287C60.0736 23.9046 60.13 23.7918 60.1864 23.6676C60.209 23.6112 60.2428 23.5548 60.2654 23.4871C60.3105 23.4081 60.3444 23.3179 60.3782 23.2276C60.4346 23.1035 60.4911 22.9793 60.5362 22.8665C60.5475 22.8327 60.5588 22.7988 60.5813 22.765C60.6152 22.6747 60.6603 22.5844 60.6942 22.4942C60.7055 22.4716 60.7167 22.449 60.728 22.4265C60.7732 22.3023 60.8183 22.1782 60.8747 22.0654C60.8973 21.9864 60.9311 21.9187 60.9537 21.851C60.9763 21.772 61.0101 21.7043 61.0327 21.6253C61.0778 21.5125 61.1117 21.3996 61.1455 21.2981C61.1568 21.2642 61.1681 21.2417 61.1681 21.2078C61.2019 21.1063 61.2358 20.9934 61.2696 20.8919C61.3148 20.7565 61.3599 20.6211 61.3937 20.4857C61.405 20.4293 61.4276 20.3728 61.4502 20.3164C61.4502 20.2939 61.4615 20.2826 61.4615 20.26C61.5292 20.0569 61.5856 19.8538 61.6307 19.6507C61.6646 19.5604 61.6871 19.4589 61.7097 19.3686C61.7097 19.3686 61.7097 19.3686 61.7097 19.3573C61.7323 19.267 61.7548 19.1881 61.7661 19.1091C61.8225 18.8608 61.8789 18.6126 61.9241 18.3756C61.9466 18.2854 61.9579 18.1951 61.9692 18.1161V18.1048C61.9918 17.9807 62.0143 17.8453 62.0369 17.7212C62.0482 17.6535 62.0595 17.5745 62.0708 17.5068C62.0933 17.394 62.1046 17.2698 62.1159 17.157C62.1272 17.078 62.1385 16.999 62.1385 16.9088C62.161 16.7282 62.1836 16.5477 62.1949 16.3672C62.1949 16.3333 62.2062 16.3107 62.2062 16.2769C62.2175 16.1641 62.2175 16.0399 62.2287 15.9271C62.2287 15.803 62.24 15.6676 62.24 15.5435C62.24 15.4306 62.24 15.3178 62.24 15.2049C62.24 15.0808 62.24 14.968 62.24 14.8439C62.24 14.731 62.2287 14.6295 62.2287 14.5166C62.2287 14.3925 62.2175 14.2797 62.2062 14.1669C62.1836 14.0202 62.1723 13.8848 62.161 13.7606C62.161 13.7494 62.161 13.7381 62.161 13.7268C62.161 13.6929 62.1498 13.6591 62.1498 13.6252C62.1272 13.4334 62.0933 13.2529 62.0595 13.0723C62.0595 13.0385 62.0482 13.0159 62.0482 12.9821C62.0482 12.9708 62.0482 12.9595 62.0369 12.9482C62.0031 12.8015 61.9692 12.6436 61.9354 12.4969C61.9354 12.463 61.9241 12.4292 61.9128 12.3953C61.8902 12.3163 61.8677 12.2486 61.8451 12.1697C61.8112 12.0343 61.7661 11.8988 61.7323 11.7747C61.721 11.7409 61.7097 11.707 61.6984 11.6732C61.6758 11.6168 61.6533 11.5603 61.642 11.5039C61.6081 11.4024 61.563 11.3008 61.5292 11.1993C61.5066 11.1541 61.484 11.0977 61.4615 11.0526C61.4389 10.9962 61.4163 10.9397 61.3825 10.8833C61.3486 10.8156 61.3148 10.7479 61.2922 10.6802C61.2583 10.6012 61.2132 10.5222 61.1681 10.4545C61.1229 10.3643 61.0665 10.274 61.0214 10.195C60.9763 10.1273 60.9311 10.0483 60.886 9.98064C60.8409 9.90165 60.7844 9.82267 60.728 9.74368C60.6829 9.68726 60.6377 9.61956 60.5926 9.56314C60.5813 9.55186 60.57 9.54058 60.57 9.52929C60.5136 9.46159 60.4572 9.39389 60.4008 9.32619C60.3444 9.25849 60.2992 9.20207 60.2428 9.14565C60.1751 9.07795 60.1074 9.01025 60.051 8.94255C59.9946 8.89741 59.9494 8.85228 59.9043 8.80714C59.8817 8.78457 59.8592 8.76201 59.8366 8.73944C59.7802 8.68302 59.7238 8.63789 59.6674 8.59275C59.6448 8.57019 59.6222 8.5589 59.5997 8.53634C59.5997 8.53634 59.5997 8.53634 59.5884 8.53634C59.532 8.47992 59.4755 8.43478 59.4191 8.38965Z" fill="url(#paint16_linear)"/>
<path d="M50.0994 8.09603C42.4265 11.3006 35.3743 20.5531 34.3362 28.7563C33.2981 36.9595 38.6804 41.0216 46.3532 37.817C54.0261 34.6238 61.0896 25.3712 62.1164 17.1568C63.1545 8.95359 57.7722 4.89149 50.0994 8.09603Z" fill="url(#paint17_linear)"/>
<path d="M54.7712 27.8761C52.1195 31.3514 48.7457 34.1159 45.5186 35.47C42.7654 36.6209 40.362 36.6435 38.929 35.5489C37.5073 34.4657 36.898 32.1751 37.259 29.264C37.6878 25.8112 39.4593 21.8394 42.111 18.364C44.7626 14.8887 48.1364 12.1242 51.3635 10.7701C54.1055 9.61922 56.5089 9.59665 57.9532 10.6912C59.3749 11.7744 59.9842 14.065 59.6231 16.9761C59.1944 20.4289 57.4228 24.4007 54.7712 27.8761Z" fill="url(#paint18_linear)"/>
<path d="M37.2586 29.2639C37.6874 25.8111 39.4589 21.8393 42.1106 18.3639C44.7622 14.8886 48.136 12.1241 51.3631 10.77C53.902 9.70938 56.1474 9.60783 57.6143 10.4654C57.5127 10.3638 57.4112 10.2736 57.2983 10.1946C55.854 9.10007 53.4506 9.12264 50.7087 10.2736C47.4929 11.6276 44.1191 14.4034 41.4674 17.8787C38.8158 21.3541 37.0443 25.3259 36.6155 28.7787C36.2544 31.6898 36.8637 33.9804 38.2855 35.0636C38.3983 35.1426 38.5111 35.2216 38.624 35.2893C37.4166 34.1045 36.9201 31.9494 37.2586 29.2639Z" fill="url(#paint19_linear)"/>
<path opacity="0.39" d="M47.0421 38.3474C54.8729 35.267 61.9252 26.0144 62.8053 17.6871C63.2454 13.5461 62.0606 10.4092 59.8039 8.68282L59.7587 8.64897C59.7023 8.61512 59.6459 8.56998 59.6008 8.53613C59.6233 8.5587 59.6459 8.58127 59.6685 8.59255C59.7362 8.64897 59.8039 8.71667 59.8716 8.77309C59.928 8.82951 59.9844 8.88592 60.0408 8.94234C60.1085 9.01004 60.1762 9.07775 60.2326 9.14545C60.2891 9.20187 60.3455 9.26957 60.3906 9.33727C60.447 9.40497 60.5034 9.48396 60.5599 9.55166C60.6163 9.61936 60.6614 9.68706 60.7066 9.75476C60.763 9.83375 60.8081 9.91273 60.8645 9.98043C60.9097 10.0481 60.9548 10.1271 60.9999 10.1948C61.0563 10.2851 61.1015 10.3641 61.1466 10.4543C61.1917 10.5333 61.2256 10.601 61.2707 10.68C61.3159 10.7703 61.361 10.8606 61.4061 10.9621C61.44 11.0411 61.4738 11.1201 61.5077 11.1991C61.5528 11.3119 61.598 11.436 61.6431 11.5601C61.6657 11.6391 61.6995 11.7068 61.7221 11.7858C61.7672 11.9212 61.8123 12.0679 61.8462 12.2033C61.8688 12.271 61.88 12.3387 61.9026 12.4064C61.9139 12.4403 61.9139 12.4741 61.9252 12.508C61.959 12.6546 61.9929 12.8013 62.0267 12.9593C62.038 13.0044 62.038 13.0383 62.0493 13.0834C62.0832 13.264 62.1057 13.4445 62.1283 13.6363C62.1283 13.6702 62.1396 13.704 62.1396 13.7379C62.1509 13.8733 62.1734 14.02 62.1847 14.1667C62.196 14.2795 62.196 14.4036 62.2073 14.5164C62.2186 14.6293 62.2186 14.7308 62.2186 14.8437C62.2186 14.9678 62.2186 15.0919 62.2186 15.2047C62.2186 15.3176 62.2186 15.4304 62.2186 15.5433C62.2186 15.6674 62.2073 15.7915 62.2073 15.9269C62.2073 16.0397 62.196 16.1638 62.1847 16.2767C62.1734 16.4008 62.1621 16.5362 62.1509 16.6716C62.1509 16.8296 62.1396 16.9876 62.117 17.1568C62.0719 17.4727 62.0267 17.7887 61.9703 18.1046C61.959 18.1949 61.9365 18.2852 61.9139 18.3754C61.8688 18.6237 61.8123 18.8606 61.7559 19.1089C61.7334 19.1879 61.7221 19.2781 61.6995 19.3571C61.6205 19.6731 61.5303 19.989 61.44 20.3162C61.4287 20.3726 61.4061 20.4291 61.3836 20.4855C61.3046 20.7563 61.2143 21.0271 61.124 21.2866C61.0902 21.3994 61.0451 21.501 61.0112 21.6138C60.9548 21.7605 60.9097 21.9072 60.8532 22.0539C60.8081 22.178 60.763 22.3021 60.7066 22.4262C60.6501 22.5729 60.5824 22.7196 60.526 22.8663C60.4696 22.9904 60.4245 23.1145 60.368 23.2387C60.3003 23.3854 60.2326 23.532 60.1649 23.6787C60.1085 23.8028 60.0521 23.9157 59.9957 24.0398C59.928 24.1865 59.849 24.3332 59.7813 24.4799C59.7249 24.5927 59.6685 24.7055 59.612 24.8184C59.4541 25.1343 59.2848 25.439 59.1156 25.7436C59.093 25.7888 59.0704 25.8339 59.0366 25.8677C58.8899 26.1386 58.7319 26.3981 58.5627 26.6576C58.5063 26.7592 58.4385 26.8607 58.3821 26.9623C58.2806 27.1315 58.1677 27.3008 58.0662 27.4587C57.9985 27.5603 57.9308 27.6731 57.8631 27.7747C57.7502 27.9439 57.6374 28.1132 57.5133 28.2824C57.4456 28.3727 57.3779 28.4743 57.3102 28.5645C57.2086 28.7112 57.0958 28.8579 56.9942 28.9933C56.9153 29.0949 56.8476 29.1964 56.7686 29.298C56.6557 29.4559 56.5316 29.6026 56.4188 29.7493C56.3511 29.8396 56.2834 29.9298 56.2157 30.0088C56.1028 30.1442 55.99 30.2796 55.8772 30.415C55.7982 30.5053 55.7192 30.6069 55.6402 30.6971C55.5161 30.8438 55.392 30.9792 55.2679 31.1259C55.2002 31.2049 55.1212 31.2839 55.0535 31.3741C54.8955 31.5434 54.7375 31.7127 54.5908 31.8819C54.5457 31.927 54.5006 31.9835 54.4554 32.0286C54.2523 32.243 54.0492 32.4574 53.8348 32.6605C53.801 32.6943 53.7671 32.7282 53.7333 32.762C53.5527 32.9426 53.3722 33.1118 53.1917 33.2811C53.1127 33.3488 53.0337 33.4165 52.9547 33.4955C52.808 33.6196 52.6726 33.755 52.5259 33.8791C52.447 33.9468 52.368 34.0032 52.3003 34.0709C52.1423 34.2063 51.973 34.3417 51.8151 34.4771C51.7248 34.5561 51.6345 34.6238 51.5443 34.6915C51.3976 34.8156 51.2396 34.9285 51.0929 35.0413C51.0027 35.109 50.9237 35.1767 50.8334 35.2331C50.5852 35.4137 50.3369 35.5942 50.0887 35.7635C50.0435 35.7973 49.9984 35.8199 49.9533 35.8537C49.6599 36.0456 49.3778 36.2374 49.0844 36.4066C48.9603 36.4743 48.8475 36.5533 48.7234 36.621C48.6331 36.6774 48.5315 36.7339 48.4413 36.7903C48.3059 36.8693 48.1705 36.937 48.0238 37.0159C47.9335 37.0611 47.8432 37.1175 47.753 37.1626C47.595 37.2416 47.4483 37.3206 47.2903 37.3883C47.2114 37.4222 47.1437 37.4673 47.0647 37.5011C46.839 37.614 46.602 37.7155 46.3764 37.8058C42.6415 39.3629 39.4482 39.205 37.2705 37.6704C39.5385 39.566 42.9913 39.9384 47.0421 38.3474Z" fill="url(#paint20_linear)"/>
<path d="M42.2224 25.8786L41.0264 24.9421C41.1166 25.0098 41.2746 24.976 41.5341 24.8406C41.8275 24.6826 42.1322 24.5359 42.4255 24.3779L43.6216 25.3145C43.3169 25.4724 43.0236 25.6191 42.7302 25.7771C42.4707 25.9125 42.3127 25.9576 42.2224 25.8786Z" fill="url(#paint21_linear)"/>
<path d="M44.8633 23.1255L46.0593 24.062C46.0819 24.2877 46.1045 24.5021 46.127 24.739L44.931 23.8025C44.9084 23.5655 44.8858 23.3512 44.8633 23.1255Z" fill="#EDEFFF"/>
<path d="M42.9101 26.68L44.1062 27.6165C44.0159 27.5488 43.9143 27.6052 43.6097 27.7519C43.4404 27.8422 43.2599 27.9325 43.0906 28.0227C43.0004 28.0679 42.9214 28.113 42.8311 28.1581C42.6619 28.2484 42.5377 28.2597 42.4588 28.192L41.2627 27.2554C41.3417 27.3231 41.4658 27.3006 41.6351 27.2216C41.7253 27.1765 41.8043 27.1313 41.8946 27.0862C42.0638 26.9959 42.2444 26.9056 42.4136 26.8154C42.7183 26.6574 42.8198 26.601 42.9101 26.68Z" fill="url(#paint22_linear)"/>
<path d="M52.5705 15.5318L51.3745 14.5952C51.476 14.6742 51.4986 14.8209 51.4422 15.0466C51.3293 15.4866 51.2165 15.9267 51.0811 16.3667C51.0021 16.6375 50.8893 16.7955 50.6975 16.8971C50.641 16.9309 50.5733 16.9535 50.5056 16.9761C49.9189 17.1566 49.3322 17.292 48.7454 17.4951C48.4746 17.5854 48.2151 17.6982 47.9555 17.8336C47.4704 18.0818 46.9964 18.4091 46.5451 18.8266C45.7665 19.5261 45.3152 20.3499 45.0557 21.309L46.2517 22.2455C46.5113 21.2864 46.9626 20.4627 47.7412 19.7631C48.1925 19.3569 48.6664 19.0297 49.1516 18.7701C49.4111 18.6347 49.6819 18.5219 49.9415 18.4316C50.5282 18.2398 51.115 18.0931 51.7017 17.9126C51.7694 17.89 51.8371 17.8675 51.8935 17.8336C52.0854 17.7321 52.1982 17.5741 52.2772 17.3033C52.4126 16.8632 52.5254 16.4232 52.6382 15.9831C52.6947 15.7574 52.6721 15.6107 52.5705 15.5318Z" fill="url(#paint23_linear)"/>
<path d="M48.0571 19.9097L49.2531 20.8462C49.3208 20.8913 49.3547 20.9929 49.366 21.1509C49.3885 21.3765 49.4224 21.6022 49.4337 21.8279C49.4563 22.1325 49.3321 22.3469 49.0049 22.5162C48.0797 23.0014 47.1544 23.4866 46.2179 23.9605C46.1727 23.983 46.1163 24.0056 46.0486 24.0508L44.8525 23.1142C44.9202 23.0691 44.9767 23.0465 45.0218 23.0239C45.9583 22.5387 46.8836 22.0648 47.8088 21.5796C48.1248 21.4104 48.2602 21.2073 48.2376 20.8913C48.2151 20.6544 48.1925 20.4287 48.1699 20.2143C48.1586 20.0676 48.1248 19.9661 48.0571 19.9097Z" fill="url(#paint24_linear)"/>
<path d="M47.0972 26.9393L45.9011 26.0028C45.6867 25.8336 45.4949 25.5966 45.3369 25.3032L46.533 26.2398C46.7022 26.5331 46.8828 26.7588 47.0972 26.9393Z" fill="#EDEFFF"/>
<path d="M48.2937 22.2231L49.4897 23.1597C49.5574 23.2048 49.5913 23.3064 49.6026 23.4643C49.6251 23.69 49.659 23.9157 49.6703 24.1526C49.6928 24.4573 49.58 24.6604 49.2528 24.8297C48.982 24.9651 48.7224 25.1117 48.4516 25.2472C47.91 25.5292 47.3797 25.8 46.8381 26.0709C46.7478 26.116 46.6575 26.1611 46.5447 26.2288L45.3486 25.2923C45.4728 25.2246 45.563 25.1794 45.642 25.1343C46.1836 24.8522 46.714 24.5814 47.2556 24.3106C47.5264 24.1752 47.7972 24.0285 48.0567 23.8931C48.3839 23.7239 48.508 23.5208 48.4742 23.2161C48.4516 22.9791 48.4291 22.7535 48.4065 22.5278C48.3952 22.3811 48.3501 22.2796 48.2937 22.2231Z" fill="url(#paint25_linear)"/>
<path d="M51.79 23.9604L52.9861 24.897C53.0087 24.9196 53.0312 24.9421 53.0538 24.9647L51.8577 24.0282C51.8352 24.0056 51.8126 23.983 51.79 23.9604Z" fill="#EDEFFF"/>
<path d="M45.2459 29.1172L44.0498 28.1807C44.4109 28.4628 44.8284 28.6659 45.3361 28.7674C46.3404 28.9705 47.4575 28.7449 48.6197 28.2484C48.8341 28.1581 49.0484 28.0566 49.2628 27.9437C50.3235 27.3908 51.3164 26.6348 52.253 25.6983C52.5351 25.4162 52.6253 25.1341 52.4787 24.9084C52.2868 24.6038 52.0724 24.3104 51.8581 24.0283L53.0541 24.9649C53.2685 25.2469 53.4829 25.5403 53.6747 25.845C53.8214 26.0707 53.7311 26.3527 53.449 26.6348C52.5125 27.5714 51.5196 28.3274 50.4589 28.8803C50.2445 28.9931 50.0301 29.0947 49.8157 29.1849C48.6535 29.6927 47.5364 29.9071 46.5322 29.704C46.0357 29.6024 45.6069 29.3993 45.2459 29.1172Z" fill="url(#paint26_linear)"/>
<path d="M48.0006 15.4302C48.971 14.9337 49.9188 14.6516 50.8553 14.5275C50.9569 14.5049 51.0584 14.5049 51.1713 14.5162C51.4534 14.5501 51.5436 14.6967 51.4646 15.0465C51.3518 15.4866 51.239 15.9267 51.1036 16.3667C51.0246 16.6375 50.9118 16.7955 50.7199 16.897C50.6635 16.9309 50.5958 16.9535 50.5281 16.976C49.9414 17.1566 49.3546 17.292 48.7679 17.4951C48.4971 17.5853 48.2375 17.6982 47.978 17.8336C47.4928 18.0818 47.0189 18.409 46.5676 18.8265C45.789 19.5261 45.3377 20.3498 45.0781 21.3089C45.191 21.2525 45.2812 21.2187 45.3602 21.1735C46.1162 20.7786 46.8609 20.395 47.6169 20C48.0006 19.8082 48.1473 19.8533 48.1811 20.237C48.2037 20.4627 48.2375 20.6883 48.2488 20.914C48.2714 21.2187 48.1473 21.433 47.82 21.6023C46.8948 22.0875 45.9695 22.5727 45.033 23.0466C44.9879 23.0692 44.9314 23.0917 44.8637 23.1369C44.8863 23.3625 44.9089 23.5769 44.9314 23.8139C45.0217 23.7688 45.112 23.7236 45.2023 23.6785C46.0824 23.2271 46.9625 22.7645 47.8426 22.3132C48.2263 22.1101 48.3729 22.1665 48.4181 22.5388C48.4406 22.7645 48.4745 22.9902 48.4858 23.2271C48.5083 23.5318 48.3955 23.7349 48.0683 23.9042C47.7975 24.0396 47.538 24.1863 47.2671 24.3217C46.7255 24.6037 46.1952 24.8745 45.6536 25.1454C45.5633 25.1905 45.4731 25.2356 45.3602 25.3033C45.8341 26.1722 46.5563 26.5445 47.6846 26.2511C48.057 26.1496 48.4294 26.0029 48.7904 25.8111C49.3659 25.5064 49.9301 25.1115 50.4943 24.6714C50.7538 24.4683 51.0246 24.2652 51.2841 24.0621C51.3292 24.0283 51.3857 23.9944 51.4308 23.9719C51.6226 23.8703 51.7693 23.8929 51.8709 24.0396C52.0852 24.3217 52.2996 24.615 52.4915 24.9197C52.6381 25.1454 52.5479 25.4274 52.2658 25.7095C51.3292 26.6461 50.3363 27.4021 49.2756 27.955C49.0612 28.0678 48.8469 28.1694 48.6325 28.2596C47.4703 28.7674 46.3532 28.9818 45.3489 28.7787C44.2883 28.553 43.5774 27.8986 43.0922 26.9507C42.9004 26.5897 42.9117 26.5784 42.4265 26.8266C42.2572 26.9169 42.0767 27.0072 41.9074 27.0974C41.8172 27.1426 41.7382 27.1877 41.6479 27.2328C41.3545 27.3795 41.2079 27.3118 41.174 27.0297C41.1402 26.7815 41.1289 26.5445 41.095 26.2963C41.0724 25.9691 41.1966 25.766 41.5238 25.5854C41.6366 25.529 41.7382 25.4726 41.851 25.4162C42.0654 25.3033 42.2911 25.1905 42.5168 25.0777C42.4942 24.8294 42.4716 24.6263 42.4491 24.3894C42.1444 24.5473 41.851 24.694 41.5576 24.852C41.095 25.0889 40.9709 25.0325 40.9258 24.5812C40.9032 24.3668 40.8806 24.1524 40.8581 23.9493C40.8355 23.6559 40.9596 23.4528 41.253 23.3061C41.4674 23.1933 41.6818 23.0805 41.8962 22.9676C42.0541 22.8886 42.2121 22.8096 42.3701 22.7307C42.5506 22.6404 42.607 22.5388 42.6409 22.3696C42.8778 21.1622 43.3517 19.9662 44.1529 18.8153C45.112 17.4161 46.3193 16.4118 47.6508 15.6446C47.7523 15.5543 47.8765 15.4866 48.0006 15.4302Z" fill="url(#paint27_linear)"/>
<defs>
<linearGradient id="paint0_linear" x1="38.8324" y1="69.1794" x2="8.67688" y2="29.6465" gradientUnits="userSpaceOnUse">
<stop stop-color="#3922AA"/>
<stop offset="1" stop-color="#7F3DFF"/>
</linearGradient>
<linearGradient id="paint1_linear" x1="20.6118" y1="51.7959" x2="43.8237" y2="34.0899" gradientUnits="userSpaceOnUse">
<stop stop-color="#DBDFFF"/>
<stop offset="0.7834" stop-color="#8B97FF"/>
<stop offset="1" stop-color="#B2BAFF"/>
</linearGradient>
<linearGradient id="paint2_linear" x1="41.9251" y1="35.5387" x2="22.4701" y2="50.3789" gradientUnits="userSpaceOnUse">
<stop stop-color="#8E52FF"/>
<stop offset="1" stop-color="#D6BFFF"/>
</linearGradient>
<linearGradient id="paint3_linear" x1="49.6522" y1="56.2563" x2="23.9871" y2="22.6102" gradientUnits="userSpaceOnUse">
<stop stop-color="#2E007F"/>
<stop offset="1" stop-color="#7052C8"/>
</linearGradient>
<linearGradient id="paint4_linear" x1="30.6605" y1="32.9086" x2="29.8879" y2="31.8957" gradientUnits="userSpaceOnUse">
<stop stop-color="#4A3FFF"/>
<stop offset="1" stop-color="#853FFF"/>
</linearGradient>
<linearGradient id="paint5_linear" x1="33.1303" y1="38.8585" x2="31.2467" y2="36.3892" gradientUnits="userSpaceOnUse">
<stop stop-color="#4A3FFF"/>
<stop offset="1" stop-color="#853FFF"/>
</linearGradient>
<linearGradient id="paint6_linear" x1="28.2129" y1="36.1354" x2="26.6206" y2="34.048" gradientUnits="userSpaceOnUse">
<stop stop-color="#7583FF"/>
<stop offset="1" stop-color="#DBDFFF"/>
</linearGradient>
<linearGradient id="paint7_linear" x1="30.4984" y1="39.4099" x2="28.0758" y2="36.234" gradientUnits="userSpaceOnUse">
<stop offset="0.6337" stop-color="#7986FF"/>
<stop offset="0.7834" stop-color="#8B97FF"/>
<stop offset="1" stop-color="#B2BAFF"/>
</linearGradient>
<linearGradient id="paint8_linear" x1="34.8434" y1="44.8517" x2="34.2008" y2="44.0094" gradientUnits="userSpaceOnUse">
<stop stop-color="#4A3FFF"/>
<stop offset="1" stop-color="#853FFF"/>
</linearGradient>
<linearGradient id="paint9_linear" x1="34.7924" y1="48.6971" x2="33.0104" y2="46.3609" gradientUnits="userSpaceOnUse">
<stop stop-color="#4A3FFF"/>
<stop offset="1" stop-color="#853FFF"/>
</linearGradient>
<linearGradient id="paint10_linear" x1="36.5677" y1="52.8242" x2="35.6067" y2="51.5644" gradientUnits="userSpaceOnUse">
<stop stop-color="#7583FF"/>
<stop offset="1" stop-color="#DBDFFF"/>
</linearGradient>
<linearGradient id="paint11_linear" x1="33.244" y1="53.002" x2="32.3371" y2="51.8131" gradientUnits="userSpaceOnUse">
<stop stop-color="#DBDFFF"/>
<stop offset="1" stop-color="#7583FF"/>
</linearGradient>
<linearGradient id="paint12_linear" x1="34.4341" y1="54.4032" x2="33.3177" y2="52.9396" gradientUnits="userSpaceOnUse">
<stop stop-color="#DBDFFF"/>
<stop offset="1" stop-color="#7583FF"/>
</linearGradient>
<linearGradient id="paint13_linear" x1="34.418" y1="51.9243" x2="31.9762" y2="33.6031" gradientUnits="userSpaceOnUse">
<stop stop-color="white"/>
<stop offset="1" stop-color="#DBDFFF"/>
</linearGradient>
<linearGradient id="paint14_linear" x1="33.5601" y1="50.886" x2="26.7584" y2="41.9692" gradientUnits="userSpaceOnUse">
<stop stop-color="#7583FF"/>
<stop offset="1" stop-color="#DBDFFF"/>
</linearGradient>
<linearGradient id="paint15_linear" x1="17.3201" y1="54.3041" x2="28.7734" y2="45.5676" gradientUnits="userSpaceOnUse">
<stop stop-color="white"/>
<stop offset="1" stop-color="white" stop-opacity="0"/>
</linearGradient>
<linearGradient id="paint16_linear" x1="43.5792" y1="42.6131" x2="65.8821" y2="13.3748" gradientUnits="userSpaceOnUse">
<stop stop-color="#3922AA"/>
<stop offset="1" stop-color="#7F3DFF"/>
</linearGradient>
<linearGradient id="paint17_linear" x1="57.055" y1="29.756" x2="39.8877" y2="16.6608" gradientUnits="userSpaceOnUse">
<stop stop-color="#DBDFFF"/>
<stop offset="0.7834" stop-color="#8B97FF"/>
<stop offset="1" stop-color="#B2BAFF"/>
</linearGradient>
<linearGradient id="paint18_linear" x1="41.2928" y1="17.7322" x2="55.6815" y2="28.7078" gradientUnits="userSpaceOnUse">
<stop stop-color="#8E52FF"/>
<stop offset="1" stop-color="#D6BFFF"/>
</linearGradient>
<linearGradient id="paint19_linear" x1="35.5775" y1="33.0548" x2="54.5592" y2="8.17046" gradientUnits="userSpaceOnUse">
<stop stop-color="#2E007F"/>
<stop offset="1" stop-color="#7052C8"/>
</linearGradient>
<linearGradient id="paint20_linear" x1="59.4908" y1="31.6115" x2="51.02" y2="25.1499" gradientUnits="userSpaceOnUse">
<stop stop-color="white"/>
<stop offset="1" stop-color="white" stop-opacity="0"/>
</linearGradient>
<linearGradient id="paint21_linear" x1="42.8512" y1="24.6551" x2="41.7389" y2="25.6682" gradientUnits="userSpaceOnUse">
<stop stop-color="#4A3FFF"/>
<stop offset="0.7111" stop-color="#7986FF"/>
<stop offset="1" stop-color="#CDD2FF"/>
</linearGradient>
<linearGradient id="paint22_linear" x1="43.1543" y1="26.9426" x2="42.262" y2="27.8722" gradientUnits="userSpaceOnUse">
<stop stop-color="#4A3FFF"/>
<stop offset="0.7111" stop-color="#7986FF"/>
<stop offset="1" stop-color="#CDD2FF"/>
</linearGradient>
<linearGradient id="paint23_linear" x1="47.0196" y1="22.5027" x2="50.769" y2="14.9995" gradientUnits="userSpaceOnUse">
<stop stop-color="#4A3FFF"/>
<stop offset="0.7111" stop-color="#7986FF"/>
<stop offset="1" stop-color="#CDD2FF"/>
</linearGradient>
<linearGradient id="paint24_linear" x1="45.14" y1="23.1274" x2="49.2509" y2="20.8193" gradientUnits="userSpaceOnUse">
<stop stop-color="#4A3FFF"/>
<stop offset="0.7111" stop-color="#7986FF"/>
<stop offset="1" stop-color="#CDD2FF"/>
</linearGradient>
<linearGradient id="paint25_linear" x1="45.8349" y1="25.4778" x2="49.241" y2="23.2295" gradientUnits="userSpaceOnUse">
<stop stop-color="#4A3FFF"/>
<stop offset="0.7111" stop-color="#7986FF"/>
<stop offset="1" stop-color="#CDD2FF"/>
</linearGradient>
<linearGradient id="paint26_linear" x1="44.0155" y1="27.1366" x2="53.7659" y2="26.7375" gradientUnits="userSpaceOnUse">
<stop stop-color="#7583FF"/>
<stop offset="1" stop-color="#DBDFFF"/>
</linearGradient>
<linearGradient id="paint27_linear" x1="51.9988" y1="16.6148" x2="42.8776" y2="30.1621" gradientUnits="userSpaceOnUse">
<stop stop-color="white"/>
<stop offset="1" stop-color="#DBDFFF"/>
</linearGradient>
</defs>
</svg>
