<svg width="75" height="75" viewBox="0 0 75 75" fill="none" xmlns="http://www.w3.org/2000/svg">
<path fill-rule="evenodd" clip-rule="evenodd" d="M10.4181 57.9997V37.5011L8 36.1191L8.01343 56.6042L10.4181 57.9997Z" fill="url(#paint0_linear)"/>
<path fill-rule="evenodd" clip-rule="evenodd" d="M25.062 29.0879L10.4189 37.5014V58L25.0889 49.5594L25.062 29.0879Z" fill="url(#paint1_linear)"/>
<path fill-rule="evenodd" clip-rule="evenodd" d="M25.0612 29.0879L10.4181 37.5014L8 36.1194L22.5625 27.6924L25.0612 29.0879Z" fill="#D6DBFF"/>
<path fill-rule="evenodd" clip-rule="evenodd" d="M21.3001 45.7116C19.3925 48.8955 16.2489 50.5077 14.2876 49.3019C12.3262 48.1097 12.2859 44.56 14.207 41.3762C16.1146 38.1923 19.2582 36.5801 21.2195 37.7859C23.1675 38.9781 23.2078 42.5278 21.3001 45.7116Z" fill="url(#paint2_linear)"/>
<path fill-rule="evenodd" clip-rule="evenodd" d="M20.6701 45.3866C18.9102 48.2995 16.1294 49.8982 14.168 49.2208C12.3276 47.9608 12.3276 44.4788 14.1949 41.3627C15.9413 38.4498 18.7356 36.8511 20.6969 37.5286C22.5374 38.8021 22.5374 42.2705 20.6701 45.3866Z" fill="url(#paint3_linear)"/>
<path fill-rule="evenodd" clip-rule="evenodd" d="M19.0978 44.3976C18.1708 45.9557 16.6394 46.7415 15.6721 46.1454C14.7183 45.5764 14.6914 43.8422 15.6318 42.2841C16.5587 40.7261 18.0902 39.9403 19.0575 40.5364C20.0113 41.119 20.0247 42.8531 19.0978 44.3976Z" fill="url(#paint4_linear)"/>
<path fill-rule="evenodd" clip-rule="evenodd" d="M19.4711 44.6007C18.5441 46.1452 17.0126 46.931 16.0588 46.3484C15.105 45.7658 15.0781 44.0316 16.0185 42.4736C16.9455 40.9155 18.4769 40.1297 19.4442 40.7258C20.398 41.3084 20.4114 43.0426 19.4711 44.6007Z" fill="url(#paint5_linear)"/>
<path fill-rule="evenodd" clip-rule="evenodd" d="M33.1197 49.7359L18.8797 41.7153C18.8528 41.6882 18.826 41.6746 18.7857 41.6611C18.826 41.6746 18.8931 41.6882 18.7722 41.6475C18.7454 41.6204 18.7051 41.6069 18.6513 41.5933C17.9662 41.3766 16.9855 42.0946 16.4616 43.1785C16.0183 44.0998 16.0317 45.0075 16.475 45.3869C16.5288 45.441 16.5959 45.4817 16.6765 45.5223L30.9434 53.5565C31.6554 52.2965 32.4077 50.9823 33.1197 49.7359Z" fill="url(#paint6_linear)"/>
<path fill-rule="evenodd" clip-rule="evenodd" d="M29.3606 54.0706C31.7116 54.0706 33.6461 52.1332 33.6461 49.7487C33.6461 47.3777 31.725 45.4268 29.3606 45.4268C26.9963 45.4268 25.0752 47.3642 25.0752 49.7487C25.0886 52.1332 27.0097 54.0706 29.3606 54.0706Z" fill="url(#paint7_linear)"/>
<path fill-rule="evenodd" clip-rule="evenodd" d="M45.1041 32.5156L29.4803 46.9988C29.4535 47.0123 29.4266 47.0394 29.3997 47.0665C29.4266 47.0259 29.4669 46.9717 29.3863 47.0801C29.3594 47.1072 29.3191 47.1478 29.2923 47.1885C28.8758 47.771 29.252 48.9362 30.1117 49.7762C30.8506 50.4942 31.7104 50.7517 32.194 50.4536C32.2612 50.413 32.3283 50.3723 32.3821 50.3046L48.0327 35.8079C47.0654 34.724 46.0579 33.5859 45.1041 32.5156Z" fill="url(#paint8_linear)"/>
<path fill-rule="evenodd" clip-rule="evenodd" d="M42.0267 42.1888C44.3776 42.1888 46.3121 40.2513 46.3121 37.8668C46.3121 35.4823 44.391 33.5449 42.0267 33.5449C39.6623 33.5449 37.7412 35.4823 37.7412 37.8668C37.7412 40.2513 39.6623 42.1888 42.0267 42.1888Z" fill="url(#paint9_linear)"/>
<path fill-rule="evenodd" clip-rule="evenodd" d="M41.0186 22.7608C41.0857 21.8666 41.2335 21.0673 41.5828 20.0918L66.2207 34.2362L66.6103 34.3988C67.4567 34.7511 67.4029 36.133 66.6775 36.3904C65.9655 36.6343 65.052 36.5395 64.2997 36.1059L41.0186 22.7608Z" fill="url(#paint10_linear)"/>
<path fill-rule="evenodd" clip-rule="evenodd" d="M40.7412 22.6791C40.8084 21.7849 41.0099 20.8095 41.3592 19.834L66.0777 34.3171C67.5152 34.6288 67.2062 36.0784 66.4673 36.3494C65.7284 36.6204 64.8149 36.5391 64.0626 36.1055L40.7412 22.6791Z" fill="url(#paint11_linear)"/>
<path fill-rule="evenodd" clip-rule="evenodd" d="M54.9657 46.9314L28.6217 31.5811C28.5142 31.5405 28.3933 31.4727 28.2858 31.4186C28.4067 31.5405 28.5814 31.7031 28.2321 31.3915C28.0978 31.3102 27.9634 31.2018 27.8425 31.0934C26.0021 29.3999 26.3916 25.1592 28.7157 21.6231C30.6905 18.6154 33.431 17.0844 35.3387 17.7347C35.6074 17.816 35.8492 17.938 36.0775 18.1006L62.5425 33.4914C60.0438 37.9353 57.4242 42.5553 54.9657 46.9314Z" fill="url(#paint12_linear)"/>
<path fill-rule="evenodd" clip-rule="evenodd" d="M62.004 43.2325C59.6799 46.7686 56.2945 48.2589 54.4675 46.5654C52.6271 44.8718 53.0166 40.6312 55.3407 37.0951C57.6648 33.559 61.0367 32.0686 62.8772 33.7622C64.7176 35.4422 64.3281 39.6828 62.004 43.2325Z" fill="url(#paint13_linear)"/>
<path fill-rule="evenodd" clip-rule="evenodd" d="M61.3716 42.65C59.4774 45.5223 56.7369 46.7416 55.2457 45.3597C53.7546 43.9778 54.077 40.5365 55.9577 37.6642C57.8519 34.792 60.5925 33.5727 62.0836 34.9546C63.5748 36.3365 63.2658 39.7778 61.3716 42.65Z" fill="url(#paint14_linear)"/>
<path fill-rule="evenodd" clip-rule="evenodd" d="M60.0559 41.8366C58.5513 44.1127 56.5227 45.3456 54.9913 45.0746C53.7956 43.5572 54.1852 40.3598 55.9585 37.6637C57.4631 35.3876 59.4917 34.1547 61.0231 34.4256C62.2188 35.943 61.8157 39.1404 60.0559 41.8366Z" fill="url(#paint15_linear)"/>
<path opacity="0.49" fill-rule="evenodd" clip-rule="evenodd" d="M59.653 41.4306C58.4842 43.2055 56.9259 44.1945 55.7168 44.0455C56.7646 43.4222 57.8259 42.4061 58.7126 41.0513C59.8813 39.2765 60.5127 37.312 60.5665 35.6455C61.3591 36.9326 61.0098 39.3713 59.653 41.4306Z" fill="white"/>
<path fill-rule="evenodd" clip-rule="evenodd" d="M31.6424 26.0396C31.9782 24.9557 32.5022 23.8448 33.1873 22.8016C35.1621 19.7938 37.7683 18.3035 39.6759 18.9674C39.9446 19.0487 40.1864 19.1706 40.4148 19.3332C48.9319 24.3054 57.5969 29.2235 66.1275 34.1821C66.4902 34.2634 66.7589 34.4802 66.8932 34.5886C66.7992 34.5615 66.4499 34.4125 66.2887 34.3583C64.3945 33.857 61.7077 35.3608 59.7866 38.2737C59.3299 38.9783 58.9403 39.7099 58.6313 40.4415C58.2954 41.2408 57.6909 41.8098 56.8714 42.0808C56.052 42.3653 55.2459 42.284 54.4936 41.8505L32.9724 29.4944C31.7633 28.7899 31.2259 27.3809 31.6424 26.0396Z" fill="url(#paint16_linear)"/>
<path fill-rule="evenodd" clip-rule="evenodd" d="M26.4598 23.1944C27.4808 19.9564 31.1214 14.8893 35.0172 16.217C35.2859 16.2983 35.5277 16.4202 35.7561 16.5828L66.1304 34.1821C62.6778 33.5047 59.4268 37.7182 58.2983 40.4279C57.9625 41.2272 57.358 41.6743 56.5385 41.9588C55.719 42.2434 54.913 42.1621 54.1607 41.7285L27.7897 26.6492C26.5807 25.9583 26.0433 24.5357 26.4598 23.1944Z" fill="url(#paint17_linear)"/>
<defs>
<linearGradient id="paint0_linear" x1="8.38166" y1="56.2121" x2="10.6541" y2="31.4261" gradientUnits="userSpaceOnUse">
<stop stop-color="#6A3EC4" stop-opacity="0.6663"/>
<stop offset="1" stop-color="#803EFF"/>
</linearGradient>
<linearGradient id="paint1_linear" x1="10.4141" y1="43.5391" x2="25.0831" y2="43.5391" gradientUnits="userSpaceOnUse">
<stop stop-color="#7583FF"/>
<stop offset="1" stop-color="#DBDFFF"/>
</linearGradient>
<linearGradient id="paint2_linear" x1="12.7926" y1="43.5392" x2="22.7042" y2="43.5392" gradientUnits="userSpaceOnUse">
<stop stop-color="#7583FF"/>
<stop offset="0.407" stop-color="#7583FF"/>
<stop offset="1" stop-color="#98A3FF"/>
</linearGradient>
<linearGradient id="paint3_linear" x1="12.7943" y1="43.3813" x2="22.0789" y2="43.3813" gradientUnits="userSpaceOnUse">
<stop stop-color="#4502C6"/>
<stop offset="1" stop-color="#803EFF"/>
</linearGradient>
<linearGradient id="paint4_linear" x1="14.9417" y1="43.3455" x2="19.7797" y2="43.3455" gradientUnits="userSpaceOnUse">
<stop stop-color="#6A3EC4" stop-opacity="0.6663"/>
<stop offset="1" stop-color="#803EFF"/>
</linearGradient>
<linearGradient id="paint5_linear" x1="15.3273" y1="43.5393" x2="20.1653" y2="43.5393" gradientUnits="userSpaceOnUse">
<stop stop-color="#7583FF"/>
<stop offset="1" stop-color="#DBDFFF"/>
</linearGradient>
<linearGradient id="paint6_linear" x1="16.1405" y1="47.5578" x2="33.12" y2="47.5578" gradientUnits="userSpaceOnUse">
<stop stop-color="#6A3EC4" stop-opacity="0.6663"/>
<stop offset="1" stop-color="#803EFF"/>
</linearGradient>
<linearGradient id="paint7_linear" x1="25.0829" y1="49.7498" x2="33.6426" y2="49.7498" gradientUnits="userSpaceOnUse">
<stop stop-color="#7583FF"/>
<stop offset="1" stop-color="#DBDFFF"/>
</linearGradient>
<linearGradient id="paint8_linear" x1="29.1246" y1="41.5437" x2="48.0382" y2="41.5437" gradientUnits="userSpaceOnUse">
<stop stop-color="#6A3EC4" stop-opacity="0.6663"/>
<stop offset="1" stop-color="#803EFF"/>
</linearGradient>
<linearGradient id="paint9_linear" x1="37.7463" y1="37.8769" x2="46.3059" y2="37.8769" gradientUnits="userSpaceOnUse">
<stop stop-color="#7583FF"/>
<stop offset="0.407" stop-color="#7583FF"/>
<stop offset="1" stop-color="#98A3FF"/>
</linearGradient>
<linearGradient id="paint10_linear" x1="41.0159" y1="28.3002" x2="67.2234" y2="28.3002" gradientUnits="userSpaceOnUse">
<stop stop-color="#7583FF"/>
<stop offset="1" stop-color="#DBDFFF"/>
</linearGradient>
<linearGradient id="paint11_linear" x1="62.7684" y1="39.4812" x2="58.4764" y2="34.4164" gradientUnits="userSpaceOnUse">
<stop stop-color="#4502C6"/>
<stop offset="1" stop-color="#803EFF"/>
</linearGradient>
<linearGradient id="paint12_linear" x1="26.6982" y1="32.2534" x2="62.5455" y2="32.2534" gradientUnits="userSpaceOnUse">
<stop stop-color="#803EFF"/>
<stop offset="1" stop-color="#4502C6"/>
</linearGradient>
<linearGradient id="paint13_linear" x1="63.7364" y1="41.8183" x2="53.5811" y2="38.5466" gradientUnits="userSpaceOnUse">
<stop stop-color="#7583FF"/>
<stop offset="0.407" stop-color="#7583FF"/>
<stop offset="1" stop-color="#98A3FF"/>
</linearGradient>
<linearGradient id="paint14_linear" x1="54.3059" y1="40.1575" x2="63.027" y2="40.1575" gradientUnits="userSpaceOnUse">
<stop stop-color="#803EFF"/>
<stop offset="1" stop-color="#4502C6"/>
</linearGradient>
<linearGradient id="paint15_linear" x1="54.3069" y1="39.753" x2="61.7053" y2="39.753" gradientUnits="userSpaceOnUse">
<stop stop-color="#7583FF"/>
<stop offset="0.407" stop-color="#7583FF"/>
<stop offset="1" stop-color="#98A3FF"/>
</linearGradient>
<linearGradient id="paint16_linear" x1="31.5007" y1="30.5395" x2="66.896" y2="30.5395" gradientUnits="userSpaceOnUse">
<stop stop-color="#7583FF"/>
<stop offset="1" stop-color="#DBDFFF"/>
</linearGradient>
<linearGradient id="paint17_linear" x1="49.2368" y1="23.5483" x2="43.2585" y2="33.1612" gradientUnits="userSpaceOnUse">
<stop stop-color="#DBDFFF"/>
<stop offset="1" stop-color="#7583FF"/>
</linearGradient>
</defs>
</svg>
