<svg width="75" height="75" viewBox="0 0 75 75" fill="none" xmlns="http://www.w3.org/2000/svg">
<path d="M37.1709 30.8873C37.1709 30.6873 37.0809 30.4973 36.9009 30.3273C36.6609 30.0873 36.2609 29.9473 35.7109 29.9073C35.1509 29.8573 34.6909 29.9273 34.3309 30.1073C33.9709 30.2873 33.7509 30.5273 33.6609 30.8273V30.6073L33.4509 31.3073C33.4309 31.3773 33.4209 31.4473 33.4209 31.5173C33.4309 32.1273 33.4409 32.7273 33.4509 33.3373C33.4509 33.2673 33.4609 33.1973 33.4809 33.1273L33.6809 32.4373V32.6573C33.7709 32.3573 33.9909 32.1173 34.3509 31.9373C34.7109 31.7573 35.1709 31.6873 35.7309 31.7373C36.2809 31.7873 36.6709 31.9273 36.9209 32.1573C37.1009 32.3273 37.1909 32.5173 37.1909 32.7173C37.1909 32.0973 37.1809 31.4873 37.1709 30.8873Z" fill="url(#paint0_linear)"/>
<path d="M39.8506 29.3377C40.5906 29.9277 40.8506 30.6277 40.6206 31.4177L40.4106 32.1277C40.1806 32.9277 39.5306 33.5477 38.4906 33.9877C37.4406 34.4277 36.0906 34.5777 34.4206 34.4377C32.7506 34.2977 31.5306 33.9277 30.7606 33.3277C29.9906 32.7277 29.7306 32.0377 29.9606 31.2377L30.1706 30.5277C30.4006 29.7377 31.0506 29.1277 32.1106 28.6777C33.1706 28.2377 34.5406 28.0777 36.2006 28.2277C37.8906 28.3677 39.1106 28.7377 39.8506 29.3377ZM36.9306 31.8277L37.1406 31.1277C37.2306 30.8277 37.1506 30.5677 36.9006 30.3277C36.6606 30.0877 36.2606 29.9477 35.7106 29.9077C35.1506 29.8577 34.6906 29.9277 34.3306 30.1077C33.9706 30.2877 33.7406 30.5277 33.6606 30.8277L33.4506 31.5277C33.3606 31.8177 33.4606 32.0877 33.7406 32.3277C34.0206 32.5677 34.4106 32.7077 34.9006 32.7577C35.5706 32.8177 36.0406 32.7577 36.3306 32.5877C36.6406 32.4177 36.8306 32.1677 36.9306 31.8277Z" fill="url(#paint1_linear)"/>
<path d="M40.7009 30.8477C40.7009 31.0377 40.6709 31.2277 40.6209 31.4277L40.4109 32.1377C40.1809 32.9377 39.5309 33.5577 38.4909 33.9977C37.4409 34.4377 36.0909 34.5877 34.4209 34.4477C32.7509 34.3077 31.5309 33.9377 30.7609 33.3377C30.1809 32.8877 29.8909 32.3777 29.8809 31.8177L29.9109 33.6377C29.9209 34.1977 30.2109 34.7077 30.7909 35.1577C31.5509 35.7577 32.7709 36.1277 34.4509 36.2677C36.1109 36.4077 37.4709 36.2577 38.5209 35.8177C39.5709 35.3777 40.2109 34.7577 40.4409 33.9577L40.6509 33.2477C40.7109 33.0477 40.7409 32.8577 40.7309 32.6677C40.7209 32.0577 40.7109 31.4477 40.7009 30.8477Z" fill="url(#paint2_linear)"/>
<path d="M44.5908 30.6777L46.9008 31.8977L30.2908 42.7177L28.0908 41.4077L44.5908 30.6777Z" fill="url(#paint3_linear)"/>
<path d="M46.901 31.8975L46.931 33.9275L30.321 44.7475L30.291 42.7175L46.901 31.8975Z" fill="url(#paint4_linear)"/>
<path d="M30.2908 42.7182L30.3208 44.7482L28.1208 43.4482L28.0908 41.4082L30.2908 42.7182Z" fill="url(#paint5_linear)"/>
<path d="M42.8206 41.4475C42.8206 41.2175 42.7206 41.0075 42.5206 40.8175C42.2506 40.5575 41.8006 40.3975 41.1906 40.3475C40.5706 40.2975 40.0506 40.3675 39.6506 40.5775C39.2506 40.7775 39.0006 41.0475 38.9006 41.3775V41.1275L38.6706 41.9075C38.6506 41.9875 38.6406 42.0675 38.6406 42.1375C38.6506 42.8175 38.6606 43.4875 38.6706 44.1675C38.6706 44.0875 38.6806 44.0175 38.7006 43.9375L38.9306 43.1575V43.4075C39.0306 43.0775 39.2806 42.8075 39.6806 42.5975C40.0806 42.3875 40.6006 42.3175 41.2206 42.3675C41.8306 42.4175 42.2706 42.5775 42.5506 42.8375C42.7506 43.0275 42.8506 43.2375 42.8506 43.4675C42.8406 42.7975 42.8306 42.1175 42.8206 41.4475Z" fill="url(#paint6_linear)"/>
<path d="M46.7609 41.3975C46.7609 41.6075 46.7309 41.8175 46.6709 42.0375L46.4409 42.8275C46.1809 43.7175 45.4609 44.4175 44.2909 44.9075C43.1209 45.3975 41.6009 45.5675 39.7409 45.4075C37.8709 45.2475 36.5009 44.8375 35.6509 44.1675C35.0009 43.6675 34.6809 43.0975 34.6709 42.4675L34.7009 44.4975C34.7109 45.1275 35.0409 45.6975 35.6809 46.1975C36.5409 46.8675 37.9009 47.2775 39.7709 47.4375C41.6309 47.5975 43.1509 47.4275 44.3209 46.9375C45.4909 46.4475 46.2109 45.7575 46.4709 44.8575L46.7009 44.0675C46.7709 43.8475 46.8009 43.6275 46.7909 43.4275C46.7809 42.7475 46.7709 42.0675 46.7609 41.3975Z" fill="url(#paint7_linear)"/>
<path d="M45.8206 39.7074C46.6506 40.3774 46.9406 41.1474 46.6806 42.0374L46.4506 42.8274C46.1906 43.7174 45.4706 44.4174 44.3006 44.9074C43.1306 45.3974 41.6106 45.5674 39.7506 45.4074C37.8806 45.2474 36.5106 44.8374 35.6606 44.1674C34.8006 43.4974 34.5106 42.7174 34.7706 41.8374L35.0006 41.0474C35.2606 40.1674 35.9806 39.4774 37.1806 38.9774C38.3706 38.4774 39.9006 38.3074 41.7606 38.4674C43.6306 38.6274 44.9806 39.0474 45.8206 39.7074ZM42.5506 42.4974L42.7806 41.7174C42.8806 41.3874 42.7906 41.0874 42.5206 40.8274C42.2506 40.5674 41.8006 40.4074 41.1906 40.3574C40.5706 40.3074 40.0506 40.3774 39.6506 40.5874C39.2506 40.7974 38.9906 41.0574 38.9006 41.3974L38.6706 42.1774C38.5706 42.5074 38.6806 42.7974 39.0006 43.0674C39.3106 43.3374 39.7506 43.4974 40.3006 43.5474C41.0406 43.6074 41.5806 43.5474 41.9006 43.3574C42.2206 43.1574 42.4406 42.8774 42.5506 42.4974Z" fill="url(#paint8_linear)"/>
<path d="M64.6305 36.837L60.3205 35.667L60.3105 39.427L64.6205 40.597L69.8005 42.007L69.8105 38.247L64.6305 36.837Z" fill="url(#paint9_linear)"/>
<path d="M70.0012 36.207L69.9912 39.967C69.9912 40.067 69.9912 40.167 69.9912 40.257L70.0012 36.497C69.9912 36.397 69.9912 36.307 70.0012 36.207Z" fill="#949494"/>
<path d="M69.991 36.4971L69.981 40.2571C69.961 40.8371 69.901 41.4271 69.791 42.0071L69.801 38.2471C69.911 37.6671 69.981 37.0871 69.991 36.4971Z" fill="#999999"/>
<path d="M22.7011 25.3975L22.6911 29.1575L15.6211 29.7475L15.6311 25.9875L22.7011 25.3975Z" fill="url(#paint10_linear)"/>
<path d="M53.4614 26.5476C45.0514 21.6876 31.8314 21.3076 22.7014 25.3976L22.6914 29.1576C31.8214 25.0676 45.0414 25.4576 53.4614 30.3076C57.8314 32.8276 60.1214 36.1076 60.3214 39.4276L60.3314 35.6676C60.1214 32.3476 57.8314 29.0676 53.4614 26.5476Z" fill="url(#paint11_linear)"/>
<path d="M53.4709 26.5473C45.0509 21.6873 31.8309 21.3073 22.7009 25.3973L15.6309 25.9873L15.7209 21.4573C28.6409 15.1573 48.0609 15.5373 60.2709 22.5873C67.6709 26.8573 70.8509 32.6673 69.8109 38.2473L64.6409 36.8373L60.3309 35.6673C60.1209 32.3473 57.8309 29.0673 53.4709 26.5473Z" fill="url(#paint12_linear)"/>
<path opacity="0.4" d="M22.7009 25.397L17.7909 25.097C17.1509 25.057 16.6009 24.617 16.4309 23.997L15.7209 21.457L15.6309 25.987L22.7009 25.397Z" fill="url(#paint13_linear)"/>
<path d="M4.001 39.7776L4.011 36.0176C4.001 40.9476 7.241 45.8776 13.741 49.6276C25.831 56.6076 44.971 57.0476 57.891 50.9576L57.881 54.7176C44.961 60.8076 25.831 60.3676 13.731 53.3876C7.231 49.6376 3.991 44.7076 4.001 39.7776Z" fill="url(#paint14_linear)"/>
<path d="M58.0809 46.4668L57.8809 50.9568C44.9609 57.0568 25.8309 56.6068 13.7309 49.6268C10.4909 47.7568 8.05092 45.5868 6.43092 43.2668C4.35092 40.3068 3.61092 37.0968 4.19092 33.9668L13.6709 36.5568C13.8709 39.8668 16.1609 43.1468 20.5309 45.6768C28.9409 50.5368 42.1709 50.9168 51.2909 46.8268L58.0809 46.4668Z" fill="url(#paint15_linear)"/>
<path d="M58.0806 46.4668L58.1606 51.2368L57.8906 54.8868V50.9568L58.0806 46.4668Z" fill="url(#paint16_linear)"/>
<path d="M6.15069 41.0975L6.44069 43.2775C4.36069 40.3175 3.62069 37.1075 4.20069 33.9775L13.6807 36.5675L10.6207 36.3475C7.96069 36.1475 5.80069 38.4475 6.15069 41.0975Z" fill="url(#paint17_linear)"/>
<defs>
<linearGradient id="paint0_linear" x1="33.4281" y1="31.6089" x2="37.2014" y2="31.6089" gradientUnits="userSpaceOnUse">
<stop stop-color="#3922AA"/>
<stop offset="1" stop-color="#7F3DFF"/>
</linearGradient>
<linearGradient id="paint1_linear" x1="29.8847" y1="31.3294" x2="40.7009" y2="31.3294" gradientUnits="userSpaceOnUse">
<stop stop-color="#DBDFFF"/>
<stop offset="0.7834" stop-color="#8B97FF"/>
<stop offset="1" stop-color="#B2BAFF"/>
</linearGradient>
<linearGradient id="paint2_linear" x1="29.8851" y1="33.5706" x2="40.7271" y2="33.5706" gradientUnits="userSpaceOnUse">
<stop stop-color="#7F3DFF"/>
<stop offset="1" stop-color="#7583FF"/>
</linearGradient>
<linearGradient id="paint3_linear" x1="28.0948" y1="36.696" x2="46.9036" y2="36.696" gradientUnits="userSpaceOnUse">
<stop stop-color="#DBDFFF"/>
<stop offset="0.7834" stop-color="#8B97FF"/>
<stop offset="1" stop-color="#B2BAFF"/>
</linearGradient>
<linearGradient id="paint4_linear" x1="30.2889" y1="38.3234" x2="46.9326" y2="38.3234" gradientUnits="userSpaceOnUse">
<stop stop-color="#7F3DFF"/>
<stop offset="1" stop-color="#7583FF"/>
</linearGradient>
<linearGradient id="paint5_linear" x1="28.1872" y1="40.5472" x2="29.8484" y2="44.6783" gradientUnits="userSpaceOnUse">
<stop stop-color="#8E52FF"/>
<stop offset="1" stop-color="#D6BFFF"/>
</linearGradient>
<linearGradient id="paint6_linear" x1="38.6303" y1="42.2504" x2="42.8503" y2="42.2504" gradientUnits="userSpaceOnUse">
<stop stop-color="#3922AA"/>
<stop offset="1" stop-color="#7F3DFF"/>
</linearGradient>
<linearGradient id="paint7_linear" x1="34.6679" y1="44.4441" x2="46.794" y2="44.4441" gradientUnits="userSpaceOnUse">
<stop stop-color="#7F3DFF"/>
<stop offset="1" stop-color="#7583FF"/>
</linearGradient>
<linearGradient id="paint8_linear" x1="34.6674" y1="41.9373" x2="46.7647" y2="41.9373" gradientUnits="userSpaceOnUse">
<stop stop-color="#DBDFFF"/>
<stop offset="0.7834" stop-color="#8B97FF"/>
<stop offset="1" stop-color="#B2BAFF"/>
</linearGradient>
<linearGradient id="paint9_linear" x1="60.311" y1="38.8349" x2="69.8026" y2="38.8349" gradientUnits="userSpaceOnUse">
<stop stop-color="#8E52FF"/>
<stop offset="1" stop-color="#D6BFFF"/>
</linearGradient>
<linearGradient id="paint10_linear" x1="15.8924" y1="33.3363" x2="20.5368" y2="25.1434" gradientUnits="userSpaceOnUse">
<stop stop-color="#7583FF"/>
<stop offset="1" stop-color="#DBDFFF"/>
</linearGradient>
<linearGradient id="paint11_linear" x1="22.6889" y1="31.0073" x2="60.3277" y2="31.0073" gradientUnits="userSpaceOnUse">
<stop stop-color="#3922AA"/>
<stop offset="1" stop-color="#7F3DFF"/>
</linearGradient>
<linearGradient id="paint12_linear" x1="15.6279" y1="27.6231" x2="70.0038" y2="27.6231" gradientUnits="userSpaceOnUse">
<stop stop-color="#7583FF"/>
<stop offset="1" stop-color="#DBDFFF"/>
</linearGradient>
<linearGradient id="paint13_linear" x1="18.533" y1="23.8363" x2="15.441" y2="25.7149" gradientUnits="userSpaceOnUse">
<stop stop-color="#A9B1FF" stop-opacity="0"/>
<stop offset="0.1842" stop-color="#B1B8FF" stop-opacity="0.1842"/>
<stop offset="0.4649" stop-color="#C6CBFF" stop-opacity="0.4649"/>
<stop offset="0.8054" stop-color="#E8EAFF" stop-opacity="0.8054"/>
<stop offset="1" stop-color="white"/>
</linearGradient>
<linearGradient id="paint14_linear" x1="1.7358" y1="43.6571" x2="58.1992" y2="57.7468" gradientUnits="userSpaceOnUse">
<stop stop-color="#7F3DFF"/>
<stop offset="1" stop-color="#7583FF"/>
</linearGradient>
<linearGradient id="paint15_linear" x1="4.00678" y1="44.5963" x2="58.0794" y2="44.5963" gradientUnits="userSpaceOnUse">
<stop stop-color="#7583FF"/>
<stop offset="1" stop-color="#DBDFFF"/>
</linearGradient>
<linearGradient id="paint16_linear" x1="57.8876" y1="50.6784" x2="58.1624" y2="50.6784" gradientUnits="userSpaceOnUse">
<stop stop-color="#7583FF"/>
<stop offset="1" stop-color="#DBDFFF"/>
</linearGradient>
<linearGradient id="paint17_linear" x1="10.9604" y1="40.5245" x2="-4.06871" y2="30.3484" gradientUnits="userSpaceOnUse">
<stop stop-color="#A9B1FF" stop-opacity="0"/>
<stop offset="0.1842" stop-color="#B1B8FF" stop-opacity="0.1842"/>
<stop offset="0.4649" stop-color="#C6CBFF" stop-opacity="0.4649"/>
<stop offset="0.8054" stop-color="#E8EAFF" stop-opacity="0.8054"/>
<stop offset="1" stop-color="white"/>
</linearGradient>
</defs>
</svg>
