<svg width="75" height="75" viewBox="0 0 75 75" fill="none" xmlns="http://www.w3.org/2000/svg">
<path d="M31.0239 49.8682L30.4288 50.1081L28.2691 50.9912C28.0579 49.7338 27.1748 49.177 26.5989 48.9467C26.3013 48.8315 26.0902 48.7931 26.0902 48.7931L24.8231 44.4256L20.3789 29.058C20.2541 28.6165 20.2637 28.1557 20.4077 27.7142L21.4828 24.3546C21.5116 24.2778 21.5691 24.2202 21.6555 24.2202C21.7419 24.2202 21.8091 24.2682 21.8379 24.345L31.0239 49.8682Z" fill="#BFC8D6"/>
<path opacity="0.4" d="M30.4288 50.1082L28.2691 50.9913C28.0579 49.7339 27.1748 49.1771 26.5989 48.9468L24.8231 44.4258L20.3789 29.0581C20.2541 28.6166 20.2637 28.1558 20.4077 27.7143L21.1948 25.2378C21.1564 27.0136 21.2524 30.3347 22.5098 31.477C24.2472 33.08 25.7542 35.5949 25.6006 39.2136C25.4471 42.8324 27.1076 44.8193 28.9026 47.3342C29.7761 48.5436 30.208 49.4747 30.4288 50.1082Z" fill="#BFC8D6"/>
<path d="M37.8382 59.0445C37.675 57.6431 37.1855 56.3472 36.408 55.2818C35.6209 54.1971 34.6034 53.4388 33.4611 53.0741C32.9812 52.9205 32.5972 52.7477 32.1077 52.7477L30.8503 49.2729L27.9994 50.1944L28.5466 51.8838C28.8729 52.9109 28.6809 54.0435 28.0282 54.9074C27.9034 55.0706 27.7882 55.2434 27.6731 55.4162C26.8092 56.808 26.4444 58.5454 26.646 60.3211C26.8092 61.7226 27.2987 63.0184 28.0762 64.0839C28.8633 65.1685 29.8808 65.9268 31.023 66.2916C31.6758 66.5028 32.3477 66.5699 33.0196 66.4932C34.5554 66.3204 35.9088 65.4181 36.8207 63.9591C37.675 62.5577 38.0397 60.8203 37.8382 59.0445ZM35.1121 62.8936C34.5266 63.8247 33.7011 64.4006 32.7796 64.5062C32.3957 64.5542 32.0021 64.5062 31.6182 64.391C30.0632 63.8919 28.8537 62.1737 28.6137 60.1004C28.4602 58.7661 28.7289 57.4799 29.3528 56.472C29.9384 55.541 30.7639 54.965 31.6854 54.8594C32.0693 54.8114 32.4629 54.8594 32.8468 54.9746C34.4018 55.4738 35.6113 57.1919 35.8512 59.2653C36.0048 60.5995 35.7456 61.8857 35.1121 62.8936Z" fill="url(#paint0_linear)"/>
<path d="M64.5097 42.8099C64.5097 42.8099 53.1544 55.9314 47.4815 62.4874C40.1 45.0944 16.3815 46.5822 9 29.1892C9.07679 29.1028 9.5 26.5117 9.5 26.5117C9.5 26.5117 20.4321 15.9909 26.0282 9.51172C33.3617 26.8087 65 40.5117 65 40.5117L64.5097 42.8099Z" fill="url(#paint1_linear)"/>
<path d="M65.0011 40.2982C59.3282 46.8541 53.6458 53.4197 47.9729 59.9757C40.601 42.5827 16.8728 44.0705 9.50098 26.6775C15.1835 20.1215 20.8563 13.556 26.5292 7C33.9107 24.393 57.6293 22.9052 65.0011 40.2982Z" fill="url(#paint2_linear)"/>
<path d="M48.3269 56.6065C40.4079 41.8147 19.5977 41.9107 11.6787 27.119C16.5069 21.5325 21.3447 15.9556 26.1729 10.3691C34.0919 25.1609 54.902 25.0649 62.821 39.8566C57.9928 45.4431 53.1646 51.02 48.3269 56.6065Z" fill="white"/>
<path d="M28.5318 13.4504C28.4646 13.5272 28.407 13.5848 28.3398 13.652C28.3302 13.6616 28.3302 13.6616 28.3206 13.6712C27.5527 14.4295 26.6024 14.775 25.7001 14.6694C24.913 14.5734 24.1643 14.1319 23.6268 13.3064C23.55 13.1816 23.4732 13.0568 23.406 12.9224C23.1469 12.4041 22.9741 11.8186 22.8877 11.2043C24.1067 9.80284 25.3162 8.40142 26.5256 7C27.3127 8.85256 28.2822 10.4844 29.3957 11.953C29.2325 12.4713 28.9157 13.0088 28.5318 13.4504Z" fill="url(#paint3_linear)"/>
<path d="M13.7023 30.594C13.3088 31.0547 12.8672 31.3619 12.3489 31.6115C11.245 30.1525 10.2755 28.5207 9.49805 26.6777C10.7363 25.2475 11.9745 23.8077 13.2224 22.3774C13.5487 22.723 13.8463 23.1549 14.1055 23.6733C14.1727 23.8077 14.2398 23.9516 14.2974 24.086C15.2093 26.1882 15.1517 28.7318 13.8463 30.4116C13.8463 30.4212 13.8367 30.4212 13.8271 30.4308C13.7983 30.4884 13.7503 30.5364 13.7023 30.594Z" fill="url(#paint4_linear)"/>
<path d="M64.9955 40.2983C63.7861 41.6998 62.567 43.1012 61.3576 44.5026C61.0312 44.1571 60.7336 43.7251 60.4745 43.2068C60.4073 43.0724 60.3401 42.9284 60.2825 42.794C59.3802 40.7111 59.4186 38.2058 60.6856 36.526C60.7432 36.4492 60.7912 36.382 60.8584 36.3149C61.2424 35.8733 61.7031 35.5182 62.1351 35.355C63.2485 36.814 64.218 38.4458 64.9955 40.2983Z" fill="url(#paint5_linear)"/>
<path d="M51.6933 55.6755C50.4551 57.1057 49.2168 58.5455 47.969 59.9758C47.1915 58.1328 46.222 56.5106 45.1182 55.042C45.3581 54.4181 45.6269 53.8997 46.0204 53.439C46.0684 53.391 46.1164 53.3334 46.1644 53.2854C46.174 53.2758 46.174 53.2758 46.1836 53.2662C46.9035 52.5271 47.7866 52.1528 48.6505 52.1912C49.5144 52.2296 50.3591 52.6711 50.9446 53.5734C51.0214 53.6982 51.0982 53.8229 51.1654 53.9573C51.4342 54.4757 51.6069 55.0516 51.6933 55.6755Z" fill="url(#paint6_linear)"/>
<path d="M44.095 37.1306C41.3786 40.2694 36.1856 41.1045 32.3365 39.1751C28.4874 37.2457 27.7195 32.9647 30.4647 29.7971C33.1812 26.6583 38.3741 25.8232 42.2232 27.7526C46.0724 29.6819 46.8403 33.963 44.095 37.1306Z" fill="url(#paint7_linear)"/>
<path d="M39.497 34.6831C39.3722 34.1167 39.0075 33.5312 38.2396 32.8401C38.6427 32.3697 39.0459 31.909 39.449 31.4387C39.4778 31.4579 39.5162 31.4771 39.545 31.4963C39.8618 31.6882 40.1401 31.8994 40.3705 32.1298C40.5049 32.2642 40.6297 32.3985 40.7449 32.5425C40.8696 32.7057 41.148 32.7057 41.3112 32.5617C41.5128 32.3697 41.7143 32.1778 41.9159 31.9858C42.0407 31.861 42.0503 31.6882 41.9351 31.573C41.7431 31.3811 41.5319 31.1795 41.3208 31.0067C41.0328 30.7667 40.7353 30.5364 40.4089 30.3252C40.5529 30.162 40.6873 29.9988 40.8312 29.8357C40.956 29.6917 40.9368 29.4997 40.7832 29.4037C40.6201 29.2981 40.4089 29.3461 40.2841 29.4901C40.1401 29.6533 39.9961 29.8261 39.8522 29.9892C39.0267 29.5669 38.2396 29.3749 37.5293 29.4421C36.8094 29.5093 36.2142 29.8165 35.7343 30.3636C35.2735 30.9011 35.1008 31.4483 35.2256 32.0146C35.3503 32.5713 35.7631 33.1664 36.4638 33.7712C36.0127 34.2895 35.5615 34.8078 35.1104 35.3262C34.7552 35.115 34.4289 34.875 34.1313 34.6063C33.9393 34.4335 33.7665 34.2511 33.6034 34.0591C33.4594 33.896 33.1714 33.8864 33.0082 34.0495C32.7491 34.2991 32.4995 34.5487 32.2403 34.7886C32.1155 34.9134 32.1155 35.0862 32.2307 35.211C32.4323 35.403 32.6531 35.5949 32.8834 35.7677C33.2002 36.0077 33.565 36.2381 33.9489 36.4588C33.9969 36.4876 34.0449 36.5164 34.0929 36.5356C33.9393 36.7084 33.7857 36.8908 33.6322 37.0635C33.5074 37.2075 33.517 37.3995 33.6897 37.4859C33.6897 37.4859 33.6897 37.4859 33.6993 37.4859C33.8721 37.5723 34.0833 37.5339 34.2081 37.3899C34.3617 37.2075 34.5152 37.0348 34.6784 36.8524C35.2927 37.1307 35.8879 37.2843 36.4446 37.3131C36.6846 37.3323 36.9245 37.3227 37.1549 37.2939C37.9132 37.1979 38.5179 36.8716 39.0075 36.3052C39.4586 35.7965 39.6218 35.2494 39.497 34.6831ZM36.9725 34.2127C37.2029 34.4431 37.3565 34.6735 37.3949 34.875C37.4333 35.0766 37.3661 35.2686 37.2029 35.451C37.0205 35.6621 36.7998 35.7773 36.5502 35.8061C36.3006 35.8445 36.0319 35.7869 35.7343 35.6333C36.147 35.163 36.5598 34.6831 36.9725 34.2127ZM37.3565 31.813C37.3181 31.6306 37.3661 31.4579 37.5101 31.2947C37.6636 31.1219 37.8556 31.0163 38.0956 30.9875C38.3356 30.9587 38.6139 31.0163 38.8635 31.1219C38.4891 31.5538 38.1244 31.9762 37.75 32.4081C37.5197 32.1874 37.4045 31.9954 37.3565 31.813Z" fill="white"/>
<path opacity="0.2" d="M48.0305 59.9083C48.0113 59.9275 47.9921 59.9467 47.9729 59.9755C40.601 42.5825 16.8728 44.0703 9.50098 26.6773C15.0587 20.2558 20.6164 13.8342 26.1741 7.4126C26.2508 8.36288 26.2892 9.38995 26.2508 10.5034C26.2029 11.78 26.0493 13.1623 25.7133 14.6693C25.3486 16.3395 24.763 18.1728 23.8512 20.1886C19.3589 30.1617 22.8913 33.1373 28.9385 35.0091C30.5415 35.5274 32.3077 35.9786 34.093 36.5161C34.8801 36.7561 35.6768 37.0152 36.4639 37.3128C38.0094 37.8887 39.526 38.5702 40.9274 39.3861C45.7364 42.0546 48.9328 46.6236 48.664 52.1909C48.6256 53.2084 48.4816 54.245 48.2321 55.2817C48.1649 55.5505 48.1169 55.8384 48.0785 56.136C47.9345 57.2303 47.9537 58.4877 48.0305 59.9083Z" fill="url(#paint8_linear)"/>
<path opacity="0.4" d="M44.4408 31.6495L22.1524 47.3723L21.874 46.9308L44.1528 31.4383C44.22 31.3903 44.3064 31.3903 44.3736 31.4383C44.4312 31.4863 44.4599 31.5727 44.4408 31.6495Z" fill="#BFC8D6"/>
<path d="M44.4408 31.6495L43.3657 35.0187C43.2313 35.4506 42.9625 35.8442 42.6074 36.1225L26.539 48.9369C26.539 48.9369 24.84 48.1018 23.4866 49.4648L22.1524 47.3723L21.874 46.9308L44.1528 31.4383C44.22 31.3903 44.3064 31.3903 44.3736 31.4383C44.4312 31.4863 44.4599 31.5727 44.4408 31.6495Z" fill="#D8DEE8"/>
<path d="M19.3598 48.8314C18.9566 48.5434 18.5151 48.3227 18.0351 48.1691C16.8929 47.8043 15.6258 47.8427 14.3588 48.2651C13.1013 48.6874 11.9495 49.4649 11.0088 50.5112C9.81857 51.8454 9.10826 53.4772 9.01227 55.109C8.91628 56.8272 9.49221 58.3438 10.6537 59.3709C11.1528 59.822 11.7383 60.1484 12.4006 60.3595C13.5429 60.7243 14.8099 60.6859 16.077 60.2635C17.3344 59.8412 18.4863 59.0637 19.4269 58.0174C20.6172 56.6832 21.3275 55.0514 21.4235 53.4196C21.4331 53.2084 21.4427 52.9973 21.4331 52.7957C21.3947 51.711 21.8842 50.684 22.7481 50.0312L24.1687 48.9658L22.3738 46.5757L19.3598 48.8314ZM17.9295 56.6928C16.5377 58.2478 14.5604 58.9581 12.9958 58.4686C12.6118 58.3438 12.2663 58.1518 11.9783 57.8926C11.2872 57.2783 10.9416 56.328 11.0088 55.2338C11.076 54.0531 11.6039 52.8437 12.4966 51.8454C13.8884 50.2904 15.8658 49.5801 17.4304 50.0696C17.8143 50.1944 18.1599 50.3864 18.4479 50.6456C19.139 51.2599 19.4845 52.2102 19.4173 53.3044C19.3502 54.4947 18.8222 55.6945 17.9295 56.6928Z" fill="url(#paint9_linear)"/>
<path d="M27.0867 46.71C27.5903 46.71 27.9986 46.3017 27.9986 45.7981C27.9986 45.2945 27.5903 44.8862 27.0867 44.8862C26.5831 44.8862 26.1748 45.2945 26.1748 45.7981C26.1748 46.3017 26.5831 46.71 27.0867 46.71Z" fill="#BFC8D6"/>
<path d="M27.1236 46.0862C27.0948 46.163 27.018 46.211 26.9316 46.1822C26.8548 46.1534 26.8068 46.0766 26.8356 45.9902L27.0276 45.3759C27.0564 45.2991 27.1332 45.2511 27.2195 45.2799C27.2963 45.3087 27.3443 45.3855 27.3155 45.4719L27.1236 46.0862Z" fill="#D8DEE8"/>
<defs>
<linearGradient id="paint0_linear" x1="33.8583" y1="53.2599" x2="5.7678" y2="130.59" gradientUnits="userSpaceOnUse">
<stop stop-color="#2D1B86"/>
<stop offset="1" stop-color="#6D34DB"/>
</linearGradient>
<linearGradient id="paint1_linear" x1="48.913" y1="8.32578" x2="18.9836" y2="75.1754" gradientUnits="userSpaceOnUse">
<stop stop-color="#444B8C"/>
<stop offset="0.9964" stop-color="#26264F"/>
</linearGradient>
<linearGradient id="paint2_linear" x1="49.5704" y1="5.88309" x2="19.6409" y2="72.7327" gradientUnits="userSpaceOnUse">
<stop stop-color="#7F3DFF"/>
<stop offset="1" stop-color="#7583FF"/>
</linearGradient>
<linearGradient id="paint3_linear" x1="32.9871" y1="-3.77475" x2="-2.79356" y2="76.1439" gradientUnits="userSpaceOnUse">
<stop stop-color="#7583FF"/>
<stop offset="1" stop-color="#DBDFFF"/>
</linearGradient>
<linearGradient id="paint4_linear" x1="29.646" y1="-11.5269" x2="-8.01489" y2="72.5915" gradientUnits="userSpaceOnUse">
<stop stop-color="#7583FF"/>
<stop offset="1" stop-color="#DBDFFF"/>
</linearGradient>
<linearGradient id="paint5_linear" x1="75.8267" y1="9.17453" x2="38.3483" y2="92.8853" gradientUnits="userSpaceOnUse">
<stop stop-color="#7583FF"/>
<stop offset="1" stop-color="#DBDFFF"/>
</linearGradient>
<linearGradient id="paint6_linear" x1="71.1396" y1="4.47486" x2="35.1667" y2="84.823" gradientUnits="userSpaceOnUse">
<stop stop-color="#7583FF"/>
<stop offset="1" stop-color="#DBDFFF"/>
</linearGradient>
<linearGradient id="paint7_linear" x1="40.199" y1="26.8375" x2="34.2801" y2="40.058" gradientUnits="userSpaceOnUse">
<stop stop-color="#2D1B86"/>
<stop offset="1" stop-color="#6D34DB"/>
</linearGradient>
<linearGradient id="paint8_linear" x1="17.015" y1="17.9389" x2="55.4888" y2="51.2378" gradientUnits="userSpaceOnUse">
<stop stop-color="#AA80F9"/>
<stop offset="0.9964" stop-color="#6165D7"/>
</linearGradient>
<linearGradient id="paint9_linear" x1="17.9188" y1="47.9299" x2="-10.9328" y2="127.356" gradientUnits="userSpaceOnUse">
<stop stop-color="#2D1B86"/>
<stop offset="1" stop-color="#6D34DB"/>
</linearGradient>
</defs>
</svg>
