<svg width="75" height="75" viewBox="0 0 75 75" fill="none" xmlns="http://www.w3.org/2000/svg">
<path d="M48.9498 10.09L40.1198 15.19L31.2998 10.09L40.1198 5L48.9498 10.09Z" fill="#EAE1FF"/>
<path d="M31.2998 10.0898V51.2098L40.1198 56.3098V15.1898L31.2998 10.0898Z" fill="url(#paint0_linear)"/>
<path opacity="0.5" d="M48.9501 10.0898L40.1201 15.1898V56.3098L48.9501 51.2098V10.0898Z" fill="url(#paint1_linear)"/>
<path d="M37.5602 21.7199L28.7402 26.8199L19.9102 21.7199L28.7402 16.6299L37.5602 21.7199Z" fill="#E9ECFF"/>
<path d="M19.9102 21.7197V57.7597L28.7402 62.8597V26.8197L19.9102 21.7197Z" fill="url(#paint2_linear)"/>
<path d="M37.5602 21.7197L28.7402 26.8197V62.8597L37.5602 57.7597V21.7197Z" fill="url(#paint3_linear)"/>
<path d="M26.65 35.9096L17.82 40.9996L9 35.9096L17.82 30.8096L26.65 35.9096Z" fill="url(#paint4_linear)"/>
<path d="M9 35.9092V64.0692L17.82 69.1592V40.9992L9 35.9092Z" fill="url(#paint5_linear)"/>
<path d="M26.6503 35.9092L17.8203 40.9992V69.1592L26.6503 64.0692V35.9092Z" fill="url(#paint6_linear)"/>
<path d="M54.6897 54.5102C60.2181 54.5102 64.6997 51.9224 64.6997 48.7302C64.6997 45.538 60.2181 42.9502 54.6897 42.9502C49.1613 42.9502 44.6797 45.538 44.6797 48.7302C44.6797 51.9224 49.1613 54.5102 54.6897 54.5102Z" fill="#E9ECFF"/>
<path d="M61.7697 52.8193C57.8597 55.0793 51.5197 55.0793 47.6097 52.8193C45.6597 51.6893 44.6797 50.2193 44.6797 48.7393C44.6797 48.7493 44.6797 48.7493 44.6797 48.7593C44.6797 48.7693 44.6797 48.7693 44.6797 48.7793C44.6797 48.7893 44.6797 48.7893 44.6797 48.7993C44.6797 48.8093 44.6797 48.8093 44.6797 48.8193C44.6797 48.8293 44.6797 48.8293 44.6797 48.8393C44.6797 48.8493 44.6797 48.8493 44.6797 48.8593C44.6797 48.8693 44.6797 48.8693 44.6797 48.8793C44.6797 48.8893 44.6797 48.8893 44.6797 48.8993C44.6797 48.9093 44.6797 48.9093 44.6797 48.9193C44.6797 48.9293 44.6797 48.9293 44.6797 48.9393C44.6797 48.9493 44.6797 48.9493 44.6797 48.9593C44.6797 48.9693 44.6797 48.9693 44.6797 48.9793C44.6797 48.9893 44.6797 48.9893 44.6797 48.9993C44.6797 49.0093 44.6797 49.0093 44.6797 49.0193C44.6797 49.0293 44.6797 49.0293 44.6797 49.0393C44.6797 49.0493 44.6797 49.0493 44.6797 49.0593C44.6797 49.0693 44.6797 49.0693 44.6797 49.0793C44.6797 49.0893 44.6797 49.0893 44.6797 49.0993C44.6797 49.1093 44.6797 49.1093 44.6797 49.1193C44.6797 49.1293 44.6797 49.1293 44.6797 49.1393C44.6797 49.1493 44.6797 49.1493 44.6797 49.1593C44.6797 49.1693 44.6797 49.1693 44.6797 49.1793C44.6797 49.1893 44.6797 49.1893 44.6797 49.1993C44.6797 49.2093 44.6797 49.2093 44.6797 49.2193C44.6797 49.2293 44.6797 49.2293 44.6797 49.2393C44.6797 49.2493 44.6797 49.2493 44.6797 49.2593C44.6797 49.2693 44.6797 49.2693 44.6797 49.2793C44.6797 49.2893 44.6797 49.2893 44.6797 49.2993C44.6797 49.3093 44.6797 49.3093 44.6797 49.3193C44.6797 49.3293 44.6797 49.3293 44.6797 49.3393C44.6797 49.3493 44.6797 49.3493 44.6797 49.3593C44.6797 49.3693 44.6797 49.3693 44.6797 49.3793C44.6797 49.3893 44.6797 49.3893 44.6797 49.3993C44.6797 49.4093 44.6797 49.4093 44.6797 49.4193C44.6797 49.4293 44.6797 49.4293 44.6797 49.4393C44.6797 49.4493 44.6797 49.4493 44.6797 49.4593C44.6797 49.4693 44.6797 49.4693 44.6797 49.4793C44.6797 49.4893 44.6797 49.4893 44.6797 49.4993C44.6797 49.5093 44.6797 49.5093 44.6797 49.5193C44.6797 49.5293 44.6797 49.5293 44.6797 49.5393C44.6797 49.5493 44.6797 49.5493 44.6797 49.5593C44.6797 49.5693 44.6797 49.5693 44.6797 49.5793C44.6797 49.5893 44.6797 49.5893 44.6797 49.5993C44.6797 49.6093 44.6797 49.6093 44.6797 49.6193C44.6797 49.6293 44.6797 49.6293 44.6797 49.6393C44.6797 49.6493 44.6797 49.6493 44.6797 49.6593C44.6797 49.6693 44.6797 49.6693 44.6797 49.6793C44.6797 49.6893 44.6797 49.6893 44.6797 49.6993C44.6797 49.7093 44.6797 49.7093 44.6797 49.7193C44.6797 49.7293 44.6797 49.7293 44.6797 49.7393C44.6797 49.7493 44.6797 49.7493 44.6797 49.7593C44.6797 49.7693 44.6797 49.7693 44.6797 49.7793C44.6797 49.7893 44.6797 49.7893 44.6797 49.7993C44.6797 49.8093 44.6797 49.8093 44.6797 49.8193C44.6797 49.8293 44.6797 49.8293 44.6797 49.8393C44.6797 49.8493 44.6797 49.8493 44.6797 49.8593C44.6797 49.8693 44.6797 49.8693 44.6797 49.8793C44.6797 49.8893 44.6797 49.8893 44.6797 49.8993C44.6797 49.9093 44.6797 49.9093 44.6797 49.9193C44.6797 49.9293 44.6797 49.9293 44.6797 49.9393C44.6797 49.9493 44.6797 49.9493 44.6797 49.9593C44.6797 49.9693 44.6797 49.9693 44.6797 49.9793C44.6797 49.9893 44.6797 49.9893 44.6797 49.9993C44.6797 50.0093 44.6797 50.0093 44.6797 50.0193C44.6797 50.0293 44.6797 50.0293 44.6797 50.0393C44.6797 50.0493 44.6797 50.0493 44.6797 50.0593C44.6797 50.0693 44.6797 50.0693 44.6797 50.0793C44.6797 50.0893 44.6797 50.0893 44.6797 50.0993C44.6797 50.1093 44.6797 50.1093 44.6797 50.1193C44.6797 50.1293 44.6797 50.1293 44.6797 50.1393C44.6797 50.1493 44.6797 50.1493 44.6797 50.1593C44.6797 50.1693 44.6797 50.1693 44.6797 50.1793C44.6797 50.1893 44.6797 50.1893 44.6797 50.1993C44.6797 50.2093 44.6797 50.2093 44.6797 50.2193C44.6797 50.2293 44.6797 50.2293 44.6797 50.2393C44.6797 50.2493 44.6797 50.2493 44.6797 50.2593C44.6797 50.2693 44.6797 50.2693 44.6797 50.2793C44.6797 50.2893 44.6797 50.2893 44.6797 50.2993C44.6797 50.3093 44.6797 50.3093 44.6797 50.3193C44.6797 50.3293 44.6797 50.3293 44.6797 50.3393C44.6797 50.3493 44.6797 50.3493 44.6797 50.3593C44.6797 50.3693 44.6797 50.3693 44.6797 50.3793C44.6797 50.3893 44.6797 50.3893 44.6797 50.3993C44.6797 50.4093 44.6797 50.4093 44.6797 50.4193C44.6797 50.4293 44.6797 50.4293 44.6797 50.4393C44.6797 50.4493 44.6797 50.4493 44.6797 50.4593C44.6797 50.4693 44.6797 50.4693 44.6797 50.4793C44.6797 50.4893 44.6797 50.4893 44.6797 50.4993C44.6797 50.5093 44.6797 50.5093 44.6797 50.5193C44.6797 50.5293 44.6797 50.5293 44.6797 50.5393C44.6797 50.5493 44.6797 50.5493 44.6797 50.5593C44.6797 50.5693 44.6797 50.5693 44.6797 50.5793C44.6797 50.5893 44.6797 50.5893 44.6797 50.5993C44.6797 50.6093 44.6797 50.6093 44.6797 50.6193C44.6797 50.6293 44.6797 50.6293 44.6797 50.6393C44.6797 50.6493 44.6797 50.6493 44.6797 50.6593C44.6797 50.6693 44.6797 50.6693 44.6797 50.6793C44.6797 50.6893 44.6797 50.6893 44.6797 50.6993C44.6797 50.7093 44.6797 50.7093 44.6797 50.7193C44.6797 50.7293 44.6797 50.7293 44.6797 50.7393C44.6797 52.2193 45.6497 53.7093 47.6097 54.8393C51.5197 57.0993 57.8597 57.0993 61.7697 54.8393C63.7297 53.7093 64.7097 52.2193 64.6997 50.7393C64.6997 50.7293 64.6997 50.7293 64.6997 50.7193C64.6997 50.7093 64.6997 50.7093 64.6997 50.6993C64.6997 50.6893 64.6997 50.6893 64.6997 50.6793C64.6997 50.6693 64.6997 50.6693 64.6997 50.6593C64.6997 50.6493 64.6997 50.6493 64.6997 50.6393C64.6997 50.6293 64.6997 50.6293 64.6997 50.6193C64.6997 50.6093 64.6997 50.6093 64.6997 50.5993C64.6997 50.5893 64.6997 50.5893 64.6997 50.5793C64.6997 50.5693 64.6997 50.5693 64.6997 50.5593C64.6997 50.5493 64.6997 50.5493 64.6997 50.5393C64.6997 50.5293 64.6997 50.5293 64.6997 50.5193C64.6997 50.5093 64.6997 50.5093 64.6997 50.4993C64.6997 50.4893 64.6997 50.4893 64.6997 50.4793C64.6997 50.4693 64.6997 50.4693 64.6997 50.4593C64.6997 50.4493 64.6997 50.4493 64.6997 50.4393C64.6997 50.4293 64.6997 50.4293 64.6997 50.4193C64.6997 50.4093 64.6997 50.4093 64.6997 50.3993C64.6997 50.3893 64.6997 50.3893 64.6997 50.3793C64.6997 50.3693 64.6997 50.3693 64.6997 50.3593C64.6997 50.3493 64.6997 50.3493 64.6997 50.3393C64.6997 50.3293 64.6997 50.3293 64.6997 50.3193C64.6997 50.3093 64.6997 50.3093 64.6997 50.2993C64.6997 50.2893 64.6997 50.2893 64.6997 50.2793C64.6997 50.2693 64.6997 50.2693 64.6997 50.2593C64.6997 50.2493 64.6997 50.2493 64.6997 50.2393C64.6997 50.2293 64.6997 50.2293 64.6997 50.2193C64.6997 50.2093 64.6997 50.2093 64.6997 50.1993C64.6997 50.1893 64.6997 50.1893 64.6997 50.1793C64.6997 50.1693 64.6997 50.1693 64.6997 50.1593C64.6997 50.1493 64.6997 50.1493 64.6997 50.1393C64.6997 50.1293 64.6997 50.1293 64.6997 50.1193C64.6997 50.1093 64.6997 50.1093 64.6997 50.0993C64.6997 50.0893 64.6997 50.0893 64.6997 50.0793C64.6997 50.0693 64.6997 50.0693 64.6997 50.0593C64.6997 50.0493 64.6997 50.0493 64.6997 50.0393C64.6997 50.0293 64.6997 50.0293 64.6997 50.0193C64.6997 50.0093 64.6997 50.0093 64.6997 49.9993C64.6997 49.9893 64.6997 49.9893 64.6997 49.9793C64.6997 49.9693 64.6997 49.9693 64.6997 49.9593C64.6997 49.9493 64.6997 49.9493 64.6997 49.9393C64.6997 49.9293 64.6997 49.9293 64.6997 49.9193C64.6997 49.9093 64.6997 49.9093 64.6997 49.8993C64.6997 49.8893 64.6997 49.8893 64.6997 49.8793C64.6997 49.8693 64.6997 49.8693 64.6997 49.8593C64.6997 49.8493 64.6997 49.8493 64.6997 49.8393C64.6997 49.8293 64.6997 49.8293 64.6997 49.8193C64.6997 49.8093 64.6997 49.8093 64.6997 49.7993C64.6997 49.7893 64.6997 49.7893 64.6997 49.7793C64.6997 49.7693 64.6997 49.7693 64.6997 49.7593C64.6997 49.7493 64.6997 49.7493 64.6997 49.7393C64.6997 49.7293 64.6997 49.7293 64.6997 49.7193C64.6997 49.7093 64.6997 49.7093 64.6997 49.6993C64.6997 49.6893 64.6997 49.6893 64.6997 49.6793C64.6997 49.6693 64.6997 49.6693 64.6997 49.6593C64.6997 49.6493 64.6997 49.6493 64.6997 49.6393C64.6997 49.6293 64.6997 49.6293 64.6997 49.6193C64.6997 49.6093 64.6997 49.6093 64.6997 49.5993C64.6997 49.5893 64.6997 49.5893 64.6997 49.5793C64.6997 49.5693 64.6997 49.5693 64.6997 49.5593C64.6997 49.5493 64.6997 49.5493 64.6997 49.5393C64.6997 49.5293 64.6997 49.5293 64.6997 49.5193C64.6997 49.5093 64.6997 49.5093 64.6997 49.4993C64.6997 49.4893 64.6997 49.4893 64.6997 49.4793C64.6997 49.4693 64.6997 49.4693 64.6997 49.4593C64.6997 49.4493 64.6997 49.4493 64.6997 49.4393C64.6997 49.4293 64.6997 49.4293 64.6997 49.4193C64.6997 49.4093 64.6997 49.4093 64.6997 49.3993C64.6997 49.3893 64.6997 49.3893 64.6997 49.3793C64.6997 49.3693 64.6997 49.3693 64.6997 49.3593C64.6997 49.3493 64.6997 49.3493 64.6997 49.3393C64.6997 49.3293 64.6997 49.3293 64.6997 49.3193C64.6997 49.3093 64.6997 49.3093 64.6997 49.2993C64.6997 49.2893 64.6997 49.2893 64.6997 49.2793C64.6997 49.2693 64.6997 49.2693 64.6997 49.2593C64.6997 49.2493 64.6997 49.2493 64.6997 49.2393C64.6997 49.2293 64.6997 49.2293 64.6997 49.2193C64.6997 49.2093 64.6997 49.2093 64.6997 49.1993C64.6997 49.1893 64.6997 49.1893 64.6997 49.1793C64.6997 49.1693 64.6997 49.1693 64.6997 49.1593C64.6997 49.1493 64.6997 49.1493 64.6997 49.1393C64.6997 49.1293 64.6997 49.1293 64.6997 49.1193C64.6997 49.1093 64.6997 49.1093 64.6997 49.0993C64.6997 49.0893 64.6997 49.0893 64.6997 49.0793C64.6997 49.0693 64.6997 49.0693 64.6997 49.0593C64.6997 49.0493 64.6997 49.0493 64.6997 49.0393C64.6997 49.0293 64.6997 49.0293 64.6997 49.0193C64.6997 49.0093 64.6997 49.0093 64.6997 48.9993C64.6997 48.9893 64.6997 48.9893 64.6997 48.9793C64.6997 48.9693 64.6997 48.9693 64.6997 48.9593C64.6997 48.9493 64.6997 48.9493 64.6997 48.9393C64.6997 48.9293 64.6997 48.9293 64.6997 48.9193C64.6997 48.9093 64.6997 48.9093 64.6997 48.8993C64.6997 48.8893 64.6997 48.8893 64.6997 48.8793C64.6997 48.8693 64.6997 48.8693 64.6997 48.8593C64.6997 48.8493 64.6997 48.8493 64.6997 48.8393C64.6997 48.8293 64.6997 48.8293 64.6997 48.8193C64.6997 48.8093 64.6997 48.8093 64.6997 48.7993C64.6997 48.7893 64.6997 48.7893 64.6997 48.7793C64.6997 48.7693 64.6997 48.7693 64.6997 48.7593C64.6997 48.7493 64.6997 48.7493 64.6997 48.7393C64.6997 50.2193 63.7197 51.6893 61.7697 52.8193Z" fill="url(#paint7_linear)"/>
<path d="M63.3997 48.6295C63.3797 47.9795 63.1396 47.3395 62.6896 46.7295L58.7796 36.3295L63.4897 24.0195H45.8896L50.4596 36.3295L46.6497 46.7695C46.2097 47.3695 45.9897 47.9995 45.9697 48.6395L45.9596 48.6595C45.9296 49.9695 46.7696 51.2895 48.5096 52.2995C51.9196 54.2695 57.4396 54.2695 60.8496 52.2995C62.5896 51.2995 63.4297 49.9795 63.3997 48.6595H63.4096L63.3997 48.6295Z" fill="url(#paint8_linear)"/>
<path d="M52.2094 36.3399C52.3394 36.5299 52.5394 36.6999 52.7994 36.8499C53.8394 37.4499 55.5294 37.4499 56.5794 36.8499C56.8394 36.6999 57.0394 36.5299 57.1694 36.3399L58.8194 34.2699C59.4894 33.3299 59.1694 32.2099 57.8494 31.4499C56.0994 30.4399 53.2694 30.4399 51.5294 31.4499C50.2094 32.2099 49.8894 33.3299 50.5594 34.2699L52.2094 36.3399Z" fill="url(#paint9_linear)"/>
<path d="M47.2194 46.8595C45.9994 48.5495 46.5794 50.5795 48.9694 51.9495C52.1294 53.7695 57.2494 53.7695 60.3994 51.9495C62.7894 50.5695 63.3694 48.5495 62.1494 46.8595L57.5794 40.4995C57.4294 40.2695 57.1994 40.0595 56.8794 39.8795C55.6694 39.1795 53.7094 39.1795 52.4894 39.8795C52.1694 40.0595 51.9394 40.2695 51.7894 40.4995L47.2194 46.8595Z" fill="url(#paint10_linear)"/>
<path d="M54.7595 38.8797C54.7595 38.9697 54.6895 39.0397 54.5995 39.0397C54.5095 39.0397 54.4395 38.9697 54.4395 38.8797C54.4395 38.7897 54.5095 38.7197 54.5995 38.7197C54.6895 38.7197 54.7595 38.7897 54.7595 38.8797Z" fill="#FFBB00"/>
<path d="M54.0895 39.1795C54.0895 39.2695 54.0195 39.3395 53.9295 39.3395C53.8395 39.3395 53.7695 39.2695 53.7695 39.1795C53.7695 39.0895 53.8395 39.0195 53.9295 39.0195C54.0195 39.0195 54.0895 39.0895 54.0895 39.1795Z" fill="#FFBB00"/>
<path d="M54.9401 37.5995C54.9401 37.6895 54.8701 37.7595 54.7801 37.7595C54.6901 37.7595 54.6201 37.6895 54.6201 37.5995C54.6201 37.5095 54.6901 37.4395 54.7801 37.4395C54.8701 37.4395 54.9401 37.5095 54.9401 37.5995Z" fill="#FFBB00"/>
<path d="M54.8698 38.3202C54.8698 38.4102 54.7998 38.4802 54.7098 38.4802C54.6198 38.4802 54.5498 38.4102 54.5498 38.3202C54.5498 38.2302 54.6198 38.1602 54.7098 38.1602C54.7998 38.1602 54.8698 38.2302 54.8698 38.3202Z" fill="#FFBB00"/>
<path d="M54.5495 37.9393C54.5495 38.0293 54.4795 38.0993 54.3895 38.0993C54.2995 38.0993 54.2295 38.0293 54.2295 37.9393C54.2295 37.8493 54.2995 37.7793 54.3895 37.7793C54.4795 37.7793 54.5495 37.8493 54.5495 37.9393Z" fill="#FFBB00"/>
<path d="M55.4001 37.9696C55.4001 38.0596 55.3301 38.1296 55.2401 38.1296C55.1501 38.1296 55.0801 38.0596 55.0801 37.9696C55.0801 37.8796 55.1501 37.8096 55.2401 37.8096C55.3301 37.8096 55.4001 37.8796 55.4001 37.9696Z" fill="#FFBB00"/>
<path d="M54.0194 37.6393C54.1077 37.6393 54.1794 37.5677 54.1794 37.4793C54.1794 37.391 54.1077 37.3193 54.0194 37.3193C53.931 37.3193 53.8594 37.391 53.8594 37.4793C53.8594 37.5677 53.931 37.6393 54.0194 37.6393Z" fill="#FFBB00"/>
<path d="M55.5397 39.0194C55.5397 39.1094 55.4697 39.1794 55.3797 39.1794C55.2897 39.1794 55.2197 39.1094 55.2197 39.0194C55.2197 38.9294 55.2897 38.8594 55.3797 38.8594C55.4697 38.8694 55.5397 38.9394 55.5397 39.0194Z" fill="#FFBB00"/>
<path opacity="0.5" d="M62.8997 48.65C62.8797 48.1 62.6697 47.55 62.2897 47.04L62.2497 46.98L58.2497 36.34L62.7697 24.54H61.7597L57.2397 36.34L61.2397 46.98L61.2797 47.04C61.6697 47.56 61.8797 48.1 61.8897 48.65V48.73C61.8897 49.89 61.0797 51 59.5897 51.85C58.1397 52.69 56.2297 53.17 54.1797 53.24C54.3497 53.25 54.5197 53.25 54.6897 53.25C56.9297 53.25 59.0297 52.75 60.6097 51.84C62.0997 50.98 62.9097 49.88 62.9097 48.72L62.8997 48.65Z" fill="white"/>
<path d="M54.6897 27.7797C60.2181 27.7797 64.6997 25.1919 64.6997 21.9997C64.6997 18.8075 60.2181 16.2197 54.6897 16.2197C49.1613 16.2197 44.6797 18.8075 44.6797 21.9997C44.6797 25.1919 49.1613 27.7797 54.6897 27.7797Z" fill="#E9ECFF"/>
<path d="M61.7697 26.0898C57.8597 28.3498 51.5197 28.3498 47.6097 26.0898C45.6597 24.9598 44.6797 23.4898 44.6797 22.0098C44.6797 22.0198 44.6797 22.0198 44.6797 22.0298C44.6797 22.0398 44.6797 22.0398 44.6797 22.0498C44.6797 22.0598 44.6797 22.0598 44.6797 22.0698C44.6797 22.0798 44.6797 22.0798 44.6797 22.0898C44.6797 22.0998 44.6797 22.0998 44.6797 22.1098C44.6797 22.1198 44.6797 22.1198 44.6797 22.1298C44.6797 22.1398 44.6797 22.1398 44.6797 22.1498C44.6797 22.1598 44.6797 22.1598 44.6797 22.1698C44.6797 22.1798 44.6797 22.1798 44.6797 22.1898C44.6797 22.1998 44.6797 22.1998 44.6797 22.2098C44.6797 22.2198 44.6797 22.2198 44.6797 22.2298C44.6797 22.2398 44.6797 22.2398 44.6797 22.2498C44.6797 22.2598 44.6797 22.2598 44.6797 22.2698C44.6797 22.2798 44.6797 22.2798 44.6797 22.2898C44.6797 22.2998 44.6797 22.2998 44.6797 22.3098C44.6797 22.3198 44.6797 22.3198 44.6797 22.3298C44.6797 22.3398 44.6797 22.3398 44.6797 22.3498C44.6797 22.3598 44.6797 22.3598 44.6797 22.3698C44.6797 22.3798 44.6797 22.3798 44.6797 22.3898C44.6797 22.3998 44.6797 22.3998 44.6797 22.4098C44.6797 22.4198 44.6797 22.4198 44.6797 22.4298C44.6797 22.4398 44.6797 22.4398 44.6797 22.4498C44.6797 22.4598 44.6797 22.4598 44.6797 22.4698C44.6797 22.4798 44.6797 22.4798 44.6797 22.4898C44.6797 22.4998 44.6797 22.4998 44.6797 22.5098C44.6797 22.5198 44.6797 22.5198 44.6797 22.5298C44.6797 22.5398 44.6797 22.5398 44.6797 22.5498C44.6797 22.5598 44.6797 22.5598 44.6797 22.5698C44.6797 22.5798 44.6797 22.5798 44.6797 22.5898C44.6797 22.5998 44.6797 22.5998 44.6797 22.6098C44.6797 22.6198 44.6797 22.6198 44.6797 22.6298C44.6797 22.6398 44.6797 22.6398 44.6797 22.6498C44.6797 22.6598 44.6797 22.6598 44.6797 22.6698C44.6797 22.6798 44.6797 22.6798 44.6797 22.6898C44.6797 22.6998 44.6797 22.6998 44.6797 22.7098C44.6797 22.7198 44.6797 22.7198 44.6797 22.7298C44.6797 22.7398 44.6797 22.7398 44.6797 22.7498C44.6797 22.7598 44.6797 22.7598 44.6797 22.7698C44.6797 22.7798 44.6797 22.7798 44.6797 22.7898C44.6797 22.7998 44.6797 22.7998 44.6797 22.8098C44.6797 22.8198 44.6797 22.8198 44.6797 22.8298C44.6797 22.8398 44.6797 22.8398 44.6797 22.8498C44.6797 22.8598 44.6797 22.8598 44.6797 22.8698C44.6797 22.8798 44.6797 22.8798 44.6797 22.8898C44.6797 22.8998 44.6797 22.8998 44.6797 22.9098C44.6797 22.9198 44.6797 22.9198 44.6797 22.9298C44.6797 22.9398 44.6797 22.9398 44.6797 22.9498C44.6797 22.9598 44.6797 22.9598 44.6797 22.9698C44.6797 22.9798 44.6797 22.9798 44.6797 22.9898C44.6797 22.9998 44.6797 22.9998 44.6797 23.0098C44.6797 23.0198 44.6797 23.0198 44.6797 23.0298C44.6797 23.0398 44.6797 23.0398 44.6797 23.0498C44.6797 23.0598 44.6797 23.0598 44.6797 23.0698C44.6797 23.0798 44.6797 23.0798 44.6797 23.0898C44.6797 23.0998 44.6797 23.0998 44.6797 23.1098C44.6797 23.1198 44.6797 23.1198 44.6797 23.1298C44.6797 23.1398 44.6797 23.1398 44.6797 23.1498C44.6797 23.1598 44.6797 23.1598 44.6797 23.1698C44.6797 23.1798 44.6797 23.1798 44.6797 23.1898C44.6797 23.1998 44.6797 23.1998 44.6797 23.2098C44.6797 23.2198 44.6797 23.2198 44.6797 23.2298C44.6797 23.2398 44.6797 23.2398 44.6797 23.2498C44.6797 23.2598 44.6797 23.2598 44.6797 23.2698C44.6797 23.2798 44.6797 23.2798 44.6797 23.2898C44.6797 23.2998 44.6797 23.2998 44.6797 23.3098C44.6797 23.3198 44.6797 23.3198 44.6797 23.3298C44.6797 23.3398 44.6797 23.3398 44.6797 23.3498C44.6797 23.3598 44.6797 23.3598 44.6797 23.3698C44.6797 23.3798 44.6797 23.3798 44.6797 23.3898C44.6797 23.3998 44.6797 23.3998 44.6797 23.4098C44.6797 23.4198 44.6797 23.4198 44.6797 23.4298C44.6797 23.4398 44.6797 23.4398 44.6797 23.4498C44.6797 23.4598 44.6797 23.4598 44.6797 23.4698C44.6797 23.4798 44.6797 23.4798 44.6797 23.4898C44.6797 23.4998 44.6797 23.4998 44.6797 23.5098C44.6797 23.5198 44.6797 23.5198 44.6797 23.5298C44.6797 23.5398 44.6797 23.5398 44.6797 23.5498C44.6797 23.5598 44.6797 23.5598 44.6797 23.5698C44.6797 23.5798 44.6797 23.5798 44.6797 23.5898C44.6797 23.5998 44.6797 23.5998 44.6797 23.6098C44.6797 23.6198 44.6797 23.6198 44.6797 23.6298C44.6797 23.6398 44.6797 23.6398 44.6797 23.6498C44.6797 23.6598 44.6797 23.6598 44.6797 23.6698C44.6797 23.6798 44.6797 23.6798 44.6797 23.6898C44.6797 23.6998 44.6797 23.6998 44.6797 23.7098C44.6797 23.7198 44.6797 23.7198 44.6797 23.7298C44.6797 23.7398 44.6797 23.7398 44.6797 23.7498C44.6797 23.7598 44.6797 23.7598 44.6797 23.7698C44.6797 23.7798 44.6797 23.7798 44.6797 23.7898C44.6797 23.7998 44.6797 23.7998 44.6797 23.8098C44.6797 23.8198 44.6797 23.8198 44.6797 23.8298C44.6797 23.8398 44.6797 23.8398 44.6797 23.8498C44.6797 23.8598 44.6797 23.8598 44.6797 23.8698C44.6797 23.8798 44.6797 23.8798 44.6797 23.8898C44.6797 23.8998 44.6797 23.8998 44.6797 23.9098C44.6797 23.9198 44.6797 23.9198 44.6797 23.9298C44.6797 23.9398 44.6797 23.9398 44.6797 23.9498C44.6797 23.9598 44.6797 23.9598 44.6797 23.9698C44.6797 23.9798 44.6797 23.9798 44.6797 23.9898C44.6797 23.9998 44.6797 23.9998 44.6797 24.0098C44.6797 25.4898 45.6497 26.9798 47.6097 28.1098C51.5197 30.3698 57.8597 30.3698 61.7697 28.1098C63.7297 26.9798 64.7097 25.4898 64.6997 24.0098C64.6997 23.9998 64.6997 23.9998 64.6997 23.9898C64.6997 23.9798 64.6997 23.9798 64.6997 23.9698C64.6997 23.9598 64.6997 23.9598 64.6997 23.9498C64.6997 23.9398 64.6997 23.9398 64.6997 23.9298C64.6997 23.9198 64.6997 23.9198 64.6997 23.9098C64.6997 23.8998 64.6997 23.8998 64.6997 23.8898C64.6997 23.8798 64.6997 23.8798 64.6997 23.8698C64.6997 23.8598 64.6997 23.8598 64.6997 23.8498C64.6997 23.8398 64.6997 23.8398 64.6997 23.8298C64.6997 23.8198 64.6997 23.8198 64.6997 23.8098C64.6997 23.7998 64.6997 23.7998 64.6997 23.7898C64.6997 23.7798 64.6997 23.7798 64.6997 23.7698C64.6997 23.7598 64.6997 23.7598 64.6997 23.7498C64.6997 23.7398 64.6997 23.7398 64.6997 23.7298C64.6997 23.7198 64.6997 23.7198 64.6997 23.7098C64.6997 23.6998 64.6997 23.6998 64.6997 23.6898C64.6997 23.6798 64.6997 23.6798 64.6997 23.6698C64.6997 23.6598 64.6997 23.6598 64.6997 23.6498C64.6997 23.6398 64.6997 23.6398 64.6997 23.6298C64.6997 23.6198 64.6997 23.6198 64.6997 23.6098C64.6997 23.5998 64.6997 23.5998 64.6997 23.5898C64.6997 23.5798 64.6997 23.5798 64.6997 23.5698C64.6997 23.5598 64.6997 23.5598 64.6997 23.5498C64.6997 23.5398 64.6997 23.5398 64.6997 23.5298C64.6997 23.5198 64.6997 23.5198 64.6997 23.5098C64.6997 23.4998 64.6997 23.4998 64.6997 23.4898C64.6997 23.4798 64.6997 23.4798 64.6997 23.4698C64.6997 23.4598 64.6997 23.4598 64.6997 23.4498C64.6997 23.4398 64.6997 23.4398 64.6997 23.4298C64.6997 23.4198 64.6997 23.4198 64.6997 23.4098C64.6997 23.3998 64.6997 23.3998 64.6997 23.3898C64.6997 23.3798 64.6997 23.3798 64.6997 23.3698C64.6997 23.3598 64.6997 23.3598 64.6997 23.3498C64.6997 23.3398 64.6997 23.3398 64.6997 23.3298C64.6997 23.3198 64.6997 23.3198 64.6997 23.3098C64.6997 23.2998 64.6997 23.2998 64.6997 23.2898C64.6997 23.2798 64.6997 23.2798 64.6997 23.2698C64.6997 23.2598 64.6997 23.2598 64.6997 23.2498C64.6997 23.2398 64.6997 23.2398 64.6997 23.2298C64.6997 23.2198 64.6997 23.2198 64.6997 23.2098C64.6997 23.1998 64.6997 23.1998 64.6997 23.1898C64.6997 23.1798 64.6997 23.1798 64.6997 23.1698C64.6997 23.1598 64.6997 23.1598 64.6997 23.1498C64.6997 23.1398 64.6997 23.1398 64.6997 23.1298C64.6997 23.1198 64.6997 23.1198 64.6997 23.1098C64.6997 23.0998 64.6997 23.0998 64.6997 23.0898C64.6997 23.0798 64.6997 23.0798 64.6997 23.0698C64.6997 23.0598 64.6997 23.0598 64.6997 23.0498C64.6997 23.0398 64.6997 23.0398 64.6997 23.0298C64.6997 23.0198 64.6997 23.0198 64.6997 23.0098C64.6997 22.9998 64.6997 22.9998 64.6997 22.9898C64.6997 22.9798 64.6997 22.9798 64.6997 22.9698C64.6997 22.9598 64.6997 22.9598 64.6997 22.9498C64.6997 22.9398 64.6997 22.9398 64.6997 22.9298C64.6997 22.9198 64.6997 22.9198 64.6997 22.9098C64.6997 22.8998 64.6997 22.8998 64.6997 22.8898C64.6997 22.8798 64.6997 22.8798 64.6997 22.8698C64.6997 22.8598 64.6997 22.8598 64.6997 22.8498C64.6997 22.8398 64.6997 22.8398 64.6997 22.8298C64.6997 22.8198 64.6997 22.8198 64.6997 22.8098C64.6997 22.7998 64.6997 22.7998 64.6997 22.7898C64.6997 22.7798 64.6997 22.7798 64.6997 22.7698C64.6997 22.7598 64.6997 22.7598 64.6997 22.7498C64.6997 22.7398 64.6997 22.7398 64.6997 22.7298C64.6997 22.7198 64.6997 22.7198 64.6997 22.7098C64.6997 22.6998 64.6997 22.6998 64.6997 22.6898C64.6997 22.6798 64.6997 22.6798 64.6997 22.6698C64.6997 22.6598 64.6997 22.6598 64.6997 22.6498C64.6997 22.6398 64.6997 22.6398 64.6997 22.6298C64.6997 22.6198 64.6997 22.6198 64.6997 22.6098C64.6997 22.5998 64.6997 22.5998 64.6997 22.5898C64.6997 22.5798 64.6997 22.5798 64.6997 22.5698C64.6997 22.5598 64.6997 22.5598 64.6997 22.5498C64.6997 22.5398 64.6997 22.5398 64.6997 22.5298C64.6997 22.5198 64.6997 22.5198 64.6997 22.5098C64.6997 22.4998 64.6997 22.4998 64.6997 22.4898C64.6997 22.4798 64.6997 22.4798 64.6997 22.4698C64.6997 22.4598 64.6997 22.4598 64.6997 22.4498C64.6997 22.4398 64.6997 22.4398 64.6997 22.4298C64.6997 22.4198 64.6997 22.4198 64.6997 22.4098C64.6997 22.3998 64.6997 22.3998 64.6997 22.3898C64.6997 22.3798 64.6997 22.3798 64.6997 22.3698C64.6997 22.3598 64.6997 22.3598 64.6997 22.3498C64.6997 22.3398 64.6997 22.3398 64.6997 22.3298C64.6997 22.3198 64.6997 22.3198 64.6997 22.3098C64.6997 22.2998 64.6997 22.2998 64.6997 22.2898C64.6997 22.2798 64.6997 22.2798 64.6997 22.2698C64.6997 22.2598 64.6997 22.2598 64.6997 22.2498C64.6997 22.2398 64.6997 22.2398 64.6997 22.2298C64.6997 22.2198 64.6997 22.2198 64.6997 22.2098C64.6997 22.1998 64.6997 22.1998 64.6997 22.1898C64.6997 22.1798 64.6997 22.1798 64.6997 22.1698C64.6997 22.1598 64.6997 22.1598 64.6997 22.1498C64.6997 22.1398 64.6997 22.1398 64.6997 22.1298C64.6997 22.1198 64.6997 22.1198 64.6997 22.1098C64.6997 22.0998 64.6997 22.0998 64.6997 22.0898C64.6997 22.0798 64.6997 22.0798 64.6997 22.0698C64.6997 22.0598 64.6997 22.0598 64.6997 22.0498C64.6997 22.0398 64.6997 22.0398 64.6997 22.0298C64.6997 22.0198 64.6997 22.0198 64.6997 22.0098C64.6997 23.4898 63.7197 24.9698 61.7697 26.0898Z" fill="url(#paint11_linear)"/>
<defs>
<linearGradient id="paint0_linear" x1="35.7094" y1="12.583" x2="35.7094" y2="54.0974" gradientUnits="userSpaceOnUse">
<stop stop-color="#6A3EC4" stop-opacity="0.6663"/>
<stop offset="1" stop-color="#803EFF"/>
</linearGradient>
<linearGradient id="paint1_linear" x1="44.5336" y1="12.8419" x2="44.5336" y2="52.9718" gradientUnits="userSpaceOnUse">
<stop stop-color="#6A3EC4" stop-opacity="0.6663"/>
<stop offset="1" stop-color="#803EFF"/>
</linearGradient>
<linearGradient id="paint2_linear" x1="24.3244" y1="23.9725" x2="24.3244" y2="60.4718" gradientUnits="userSpaceOnUse">
<stop stop-color="#7583FF"/>
<stop offset="0.407" stop-color="#7583FF"/>
<stop offset="1" stop-color="#98A3FF"/>
</linearGradient>
<linearGradient id="paint3_linear" x1="33.1483" y1="24.749" x2="33.1483" y2="60.09" gradientUnits="userSpaceOnUse">
<stop stop-color="#7583FF"/>
<stop offset="1" stop-color="#DBDFFF"/>
</linearGradient>
<linearGradient id="paint4_linear" x1="9" y1="35.9076" x2="26.6478" y2="35.9076" gradientUnits="userSpaceOnUse">
<stop stop-color="#F89C09"/>
<stop offset="0.358" stop-color="#FBB632"/>
<stop offset="1" stop-color="#FFE278"/>
</linearGradient>
<linearGradient id="paint5_linear" x1="13.4119" y1="37.61" x2="13.4119" y2="67.5723" gradientUnits="userSpaceOnUse">
<stop stop-color="#FFA500"/>
<stop offset="1" stop-color="#B27C1F"/>
</linearGradient>
<linearGradient id="paint6_linear" x1="22.2362" y1="40.0385" x2="22.2362" y2="66.7573" gradientUnits="userSpaceOnUse">
<stop stop-color="#FFE278"/>
<stop offset="0.642" stop-color="#FBB632"/>
<stop offset="1" stop-color="#F89C09"/>
</linearGradient>
<linearGradient id="paint7_linear" x1="64.8213" y1="52.8286" x2="45.1473" y2="52.1105" gradientUnits="userSpaceOnUse">
<stop stop-color="#DBDFFF"/>
<stop offset="1" stop-color="#7583FF"/>
</linearGradient>
<linearGradient id="paint8_linear" x1="54.6911" y1="53.2637" x2="54.6911" y2="23.337" gradientUnits="userSpaceOnUse">
<stop stop-color="#252279"/>
<stop offset="0.9899" stop-color="#907FFF"/>
</linearGradient>
<linearGradient id="paint9_linear" x1="54.6143" y1="35.5784" x2="54.8111" y2="29.2789" gradientUnits="userSpaceOnUse">
<stop stop-color="#FFBB00"/>
<stop offset="0.9996" stop-color="#EF7851"/>
</linearGradient>
<linearGradient id="paint10_linear" x1="54.6863" y1="38.1332" x2="54.6863" y2="53.4884" gradientUnits="userSpaceOnUse">
<stop stop-color="#FFBB00"/>
<stop offset="0.9996" stop-color="#EF7851"/>
</linearGradient>
<linearGradient id="paint11_linear" x1="64.9747" y1="25.1508" x2="45.0136" y2="26.1561" gradientUnits="userSpaceOnUse">
<stop stop-color="#DBDFFF"/>
<stop offset="1" stop-color="#7583FF"/>
</linearGradient>
</defs>
</svg>
