<svg width="75" height="75" viewBox="0 0 75 75" fill="none" xmlns="http://www.w3.org/2000/svg">
<path d="M36.8024 47.874L39.5946 54.0045L42.0509 50.7796C42.4018 50.3189 42.6512 49.8719 42.6978 49.4524L43.6209 44.0589C43.7743 42.9018 42.9845 42.0273 41.5093 41.8136L36.86 47.9179L36.8024 47.874Z" fill="url(#paint0_linear)"/>
<path d="M26.2062 39.8036L19.598 38.6833L22.0104 35.516C22.3613 35.0553 22.7259 34.696 23.1179 34.5397L28.1298 32.2603C29.2045 31.805 30.2575 32.334 30.8555 33.6994L26.2062 39.8036Z" fill="url(#paint1_linear)"/>
<path d="M25.8229 56.4361C23.8053 59.0851 17.4039 65.2198 16.0218 64.1671C14.6397 63.1145 18.8528 55.313 20.8704 52.664C22.6687 50.303 24.1576 50.618 25.5397 51.6707C26.9218 52.7234 27.6212 54.075 25.8229 56.4361Z" fill="url(#paint2_linear)"/>
<path d="M25.7077 56.3485C23.734 58.9399 17.434 65.0609 16.1095 64.0521C14.785 63.0433 19.0118 55.3433 20.9856 52.7519C22.74 50.4484 24.1713 50.7196 25.4959 51.7284C26.8642 52.6796 27.4622 54.045 25.7077 56.3485Z" fill="url(#paint3_linear)"/>
<path d="M25.6374 56.2034C23.7075 58.7373 17.5091 64.8445 16.2421 63.8796C15.0328 62.9585 19.2157 55.3161 21.1456 52.7823C22.8562 50.5363 24.23 50.7637 25.4969 51.7287C26.7062 52.6497 27.348 53.9575 25.6374 56.2034Z" fill="url(#paint4_linear)"/>
<path d="M25.5077 56.014C23.6216 58.4903 17.5684 64.5262 16.4167 63.649C15.265 62.7718 19.5192 55.2747 21.3614 52.856C23.0281 50.6677 24.3442 50.8512 25.496 51.7284C26.6477 52.6056 27.1305 53.8833 25.5077 56.014Z" fill="url(#paint5_linear)"/>
<path d="M25.3915 55.927C23.5493 58.3457 17.5976 64.3679 16.5034 63.5345C15.4093 62.7011 19.6334 55.3631 21.4755 52.9444C23.0984 50.8137 24.357 50.9533 25.4511 51.7867C26.5453 52.6201 27.0143 53.7963 25.3915 55.927Z" fill="url(#paint6_linear)"/>
<path d="M25.3192 55.7809C23.5208 58.142 17.6706 64.1505 16.634 63.3609C15.5974 62.5714 19.8353 55.3349 21.6336 52.9738C23.2126 50.9006 24.3697 51.054 25.4063 51.8435C26.4428 52.633 26.8982 53.7078 25.3192 55.7809Z" fill="url(#paint7_linear)"/>
<path d="M25.2076 55.6932C23.4531 57.9967 17.7043 63.9914 16.7253 63.2458C15.8039 62.544 19.9979 55.365 21.7524 53.0615C23.2875 51.046 24.387 51.1555 25.366 51.9011C26.3313 52.5453 26.7427 53.6776 25.2076 55.6932Z" fill="url(#paint8_linear)"/>
<path d="M25.0771 55.504C23.3665 57.7499 17.763 63.6733 16.8992 63.0154C16.0354 62.3575 20.3007 55.3238 21.9674 53.1355C23.4587 51.1775 24.5006 51.2431 25.3644 51.9011C26.2282 52.559 26.5684 53.546 25.0771 55.504Z" fill="url(#paint9_linear)"/>
<path d="M24.9609 55.4169C23.3381 57.5477 17.7921 63.515 16.9859 62.9009C16.1797 62.2868 20.4587 55.3546 22.0816 53.2239C23.529 51.3235 24.5133 51.3453 25.3196 51.9593C26.1258 52.5734 26.4084 53.5166 24.9609 55.4169Z" fill="url(#paint10_linear)"/>
<path d="M24.8916 55.2713C23.3126 57.3444 17.8681 63.298 17.1195 62.7278C16.4285 62.2015 20.6636 55.3268 22.2426 53.2537C23.6462 51.4109 24.5729 51.3888 25.3216 51.959C26.0126 52.4853 26.2952 53.4285 24.8916 55.2713Z" fill="url(#paint11_linear)"/>
<path d="M24.7627 55.0824C23.2276 57.098 17.8846 63.0378 17.2511 62.5553C16.6176 62.0729 20.8802 55.4011 22.4592 53.328C23.8189 51.5428 24.6443 51.5344 25.2777 52.0169C25.9112 52.4993 26.1224 53.2972 24.7627 55.0824Z" fill="url(#paint12_linear)"/>
<path d="M24.6466 54.9939C23.1553 56.9519 17.9576 62.8204 17.3817 62.3818C16.8058 61.9432 21.0821 55.3729 22.5734 53.4149C23.8893 51.6873 24.657 51.6351 25.2329 52.0737C25.8087 52.5123 25.9624 53.2663 24.6466 54.9939Z" fill="url(#paint13_linear)"/>
<path d="M28.399 52.575L23.9072 49.1538L23.4248 49.7873C22.8546 50.5359 23.3949 51.8574 24.6618 52.8224C25.8712 53.7435 27.3464 53.9571 27.9166 53.2085L28.399 52.575V52.575Z" fill="url(#paint14_linear)"/>
<path d="M35.8099 49.3003L25.0986 41.1421L22.6863 44.3094C22.6863 44.3094 22.6863 44.3094 22.6424 44.367C21.3266 46.0946 22.6925 49.3189 25.6295 51.5558C28.5664 53.7927 32.0378 54.2528 33.3536 52.5252C33.3536 52.5252 33.3536 52.5252 33.3975 52.4676L35.8099 49.3003Z" fill="url(#paint15_linear)"/>
<path opacity="0.5" d="M35.72 49.4155L25.0088 41.2573L23.0789 43.7912C23.0789 43.7912 23.0789 43.7912 23.035 43.8488C21.9824 45.2308 23.5677 48.1672 26.5046 50.4041C29.4416 52.641 32.6936 53.3891 33.7463 52.007C33.7463 52.007 33.7463 52.007 33.7901 51.9494L35.72 49.4155Z" fill="#C7BCD6"/>
<path d="M46.7821 41.1001C50.6777 37.0606 53.1199 31.8232 53.5083 26.2954C53.5549 25.8759 53.5576 25.514 53.5603 25.1521L53.7372 16.9153C53.7891 15.7719 52.6949 14.9386 51.6064 15.2925L43.7128 17.6518C43.3646 17.7505 42.9726 17.9069 42.6244 18.0057C37.341 19.8052 32.897 23.6089 30.0818 28.3803L23.3221 39.8837L23.2782 39.9413C21.5238 42.2448 23.2875 46.5 27.2034 49.4826C31.1194 52.4651 35.6902 53.0347 37.4447 50.7312L37.4885 50.6736L46.7821 41.1001Z" fill="url(#paint16_linear)"/>
<path d="M53.6043 25.0942L53.7812 16.8574C53.8331 15.714 52.7389 14.8807 51.6504 15.2346L43.7568 17.5939C43.713 17.6515 43.6691 17.7091 43.5814 17.8242C43.6557 19.5187 44.9859 21.7148 47.1742 23.3815C49.3625 25.0482 51.7755 25.7032 53.4864 25.3684C53.4727 25.2669 53.5165 25.2093 53.6043 25.0942Z" fill="url(#paint17_linear)"/>
<path d="M53.6043 25.0942L53.7812 16.8574C53.8331 15.714 52.7389 14.8807 51.6504 15.2346L43.7568 17.5939C43.713 17.6515 43.6691 17.7091 43.5814 17.8242C43.6557 19.5187 44.9859 21.7148 47.1742 23.3815C49.3625 25.0482 51.7755 25.7032 53.4864 25.3684C53.4727 25.2669 53.5165 25.2093 53.6043 25.0942Z" fill="url(#paint18_linear)"/>
<path d="M35.2324 36.6718C34.4867 37.6508 33.6149 38.0787 32.8334 38.0294L32.052 37.9802C31.2129 37.8871 32.1286 37.4016 31.6596 36.2254C30.7215 33.873 31.124 30.3578 32.6591 28.3423C33.4048 27.3633 32.4834 26.6615 33.3224 26.7546L34.219 26.8916C35.0142 27.0422 35.719 27.67 36.2319 28.7886C37.2276 31.1849 36.7675 34.6562 35.2324 36.6718Z" fill="url(#paint19_linear)"/>
<path d="M34.2909 36.5923C32.7557 38.6079 30.702 38.3175 29.7639 35.9651C28.8258 33.6127 29.2283 30.0975 30.7634 28.082C32.2985 26.0664 34.3523 26.3567 35.2904 28.7091C36.33 31.0478 35.826 34.5767 34.2909 36.5923Z" fill="url(#paint20_linear)"/>
<path d="M33.9809 35.8079C32.7527 37.4204 31.0747 37.2342 30.249 35.3314C29.4234 33.4287 29.8068 30.5359 31.0349 28.9235C32.2631 27.311 33.9411 27.4972 34.7668 29.3999C35.5924 31.3027 35.2528 34.1379 33.9809 35.8079Z" fill="url(#paint21_linear)"/>
<path d="M34.121 34.5495C33.1999 35.7588 31.9414 35.6192 31.3297 34.1524C30.718 32.6855 30.9946 30.5303 31.9157 29.321C32.8368 28.1117 34.0953 28.2513 34.707 29.7181C35.3187 31.185 35.0421 33.3401 34.121 34.5495Z" fill="url(#paint22_linear)"/>
<path d="M30.9838 35.4386C30.1581 33.5359 30.5415 30.6431 31.7697 29.0306C32.3399 28.282 33.0088 27.8816 33.6312 27.9007C32.8525 27.4895 31.9093 27.7721 31.1198 28.8086C29.8917 30.4211 29.5083 33.3139 30.3339 35.2166C30.7316 36.2475 31.4227 36.7739 32.1466 36.7792C31.7133 36.6312 31.2389 36.1789 30.9838 35.4386Z" fill="url(#paint23_linear)"/>
<path d="M35.4935 28.6817C34.9806 27.563 34.1168 26.9051 33.5821 26.7709C34.232 26.9928 34.8929 27.6782 35.3345 28.6515C36.2726 31.0039 35.8701 34.5191 34.335 36.5347C33.5455 37.5713 32.5146 37.969 31.6618 37.7745C32.4707 38.0266 33.6168 37.7166 34.5379 36.5072C36.0292 34.5493 36.4317 31.0341 35.4935 28.6817Z" fill="url(#paint24_linear)"/>
<path d="M22.9752 44.1667L13.7493 48.5142L13.3516 47.4833L15.6762 44.4311C15.9833 44.028 16.3918 43.6112 16.9593 43.2245L23.435 38.7843C24.803 37.8244 26.6455 37.3168 28.0631 37.4866L28.4608 38.5175L22.9752 44.1667Z" fill="url(#paint25_linear)"/>
<path d="M23.3726 45.1975L13.7491 48.514L16.0737 45.4619C16.3807 45.0588 16.7892 44.642 17.3567 44.2552L23.8324 39.815C25.2005 38.8552 27.043 38.3476 28.4606 38.5174L23.3726 45.1975Z" fill="url(#paint26_linear)"/>
<path d="M16.0435 45.6209C16.3505 45.2178 16.759 44.8009 17.3265 44.4142L23.8022 39.974C25.1264 39.0717 26.8674 38.5779 28.2274 38.7038L28.359 38.531C26.9414 38.3613 25.0989 38.8688 23.7309 39.8287L17.299 44.2113C16.7754 44.5404 16.3669 44.9573 16.016 45.418L13.6914 48.4701L13.9381 48.3851L16.0435 45.6209V45.6209Z" fill="url(#paint27_linear)"/>
<path d="M33.4547 52.1497L31.7152 62.1991L32.8147 62.3086L35.1393 59.2565C35.4464 58.8534 35.7397 58.3488 35.9617 57.699L38.5214 50.2762C39.0833 48.7022 39.0829 46.7911 38.5426 45.4696L37.4431 45.3601L33.4547 52.1497Z" fill="url(#paint28_linear)"/>
<path d="M32.3584 52.04L31.7184 62.1989L34.0431 59.1467C34.3501 58.7436 34.6434 58.2391 34.8654 57.5892L37.4251 50.1664C37.987 48.5925 37.9867 46.6814 37.4463 45.3599L32.3584 52.04V52.04Z" fill="url(#paint29_linear)"/>
<path d="M34.9787 57.6771L37.5384 50.2543C38.1002 48.6804 38.0999 46.7693 37.5596 45.4478L37.5157 45.5053C37.9546 46.8406 37.9275 48.5488 37.3958 49.9637L34.836 57.3865C34.6579 57.9788 34.3646 58.4833 34.0137 58.944L31.8645 61.7658L31.8317 62.2868L34.1563 59.2346C34.4634 58.8315 34.7567 58.327 34.9787 57.6771Z" fill="url(#paint30_linear)"/>
<defs>
<linearGradient id="paint0_linear" x1="39.7191" y1="47.5395" x2="55.476" y2="53.47" gradientUnits="userSpaceOnUse">
<stop stop-color="#7F3DFF"/>
<stop offset="1" stop-color="#3922AA"/>
</linearGradient>
<linearGradient id="paint1_linear" x1="31.718" y1="43.8427" x2="18.9698" y2="28.6876" gradientUnits="userSpaceOnUse">
<stop stop-color="#7F3DFF"/>
<stop offset="1" stop-color="#3922AA"/>
</linearGradient>
<linearGradient id="paint2_linear" x1="24.3185" y1="53.2769" x2="17.7163" y2="61.9451" gradientUnits="userSpaceOnUse">
<stop stop-color="#F8299A"/>
<stop offset="0.0316893" stop-color="#F836A0" stop-opacity="0.9683"/>
<stop offset="0.1708" stop-color="#FA6BB9" stop-opacity="0.8292"/>
<stop offset="0.3118" stop-color="#FC98CE" stop-opacity="0.6882"/>
<stop offset="0.452" stop-color="#FDBDE0" stop-opacity="0.548"/>
<stop offset="0.5914" stop-color="#FEDAEE" stop-opacity="0.4086"/>
<stop offset="0.7297" stop-color="#FEEFF7" stop-opacity="0.2703"/>
<stop offset="0.8665" stop-color="#FFFBFD" stop-opacity="0.1335"/>
<stop offset="1" stop-color="white" stop-opacity="0"/>
</linearGradient>
<linearGradient id="paint3_linear" x1="24.3101" y1="53.2879" x2="17.8127" y2="61.8185" gradientUnits="userSpaceOnUse">
<stop stop-color="#F93A9B"/>
<stop offset="0.1152" stop-color="#FA62AF" stop-opacity="0.8848"/>
<stop offset="0.2709" stop-color="#FC92C7" stop-opacity="0.7291"/>
<stop offset="0.4262" stop-color="#FDB9DB" stop-opacity="0.5738"/>
<stop offset="0.5785" stop-color="#FED8EB" stop-opacity="0.4215"/>
<stop offset="0.7268" stop-color="#FEEDF6" stop-opacity="0.2732"/>
<stop offset="0.8694" stop-color="#FFFBFD" stop-opacity="0.1306"/>
<stop offset="1" stop-color="white" stop-opacity="0"/>
</linearGradient>
<linearGradient id="paint4_linear" x1="24.3028" y1="53.299" x2="17.9102" y2="61.6921" gradientUnits="userSpaceOnUse">
<stop stop-color="#F94B9C"/>
<stop offset="0.0392455" stop-color="#F957A3" stop-opacity="0.9608"/>
<stop offset="0.216" stop-color="#FB8ABF" stop-opacity="0.784"/>
<stop offset="0.3903" stop-color="#FCB4D6" stop-opacity="0.6097"/>
<stop offset="0.5588" stop-color="#FED5E8" stop-opacity="0.4412"/>
<stop offset="0.72" stop-color="#FEECF5" stop-opacity="0.28"/>
<stop offset="0.8706" stop-color="#FFFAFC" stop-opacity="0.1294"/>
<stop offset="1" stop-color="white" stop-opacity="0"/>
</linearGradient>
<linearGradient id="paint5_linear" x1="24.2936" y1="53.3097" x2="18.0058" y2="61.5652" gradientUnits="userSpaceOnUse">
<stop stop-color="#FA5C9E"/>
<stop offset="0.1444" stop-color="#FB82B4" stop-opacity="0.8556"/>
<stop offset="0.341" stop-color="#FDAECF" stop-opacity="0.659"/>
<stop offset="0.5305" stop-color="#FED1E4" stop-opacity="0.4695"/>
<stop offset="0.7082" stop-color="#FEEAF3" stop-opacity="0.2918"/>
<stop offset="0.8696" stop-color="#FFFAFC" stop-opacity="0.1304"/>
<stop offset="1" stop-color="white" stop-opacity="0"/>
</linearGradient>
<linearGradient id="paint6_linear" x1="24.2843" y1="53.3213" x2="18.1013" y2="61.4392" gradientUnits="userSpaceOnUse">
<stop stop-color="#FB6D9F"/>
<stop offset="0.0443281" stop-color="#FB77A6" stop-opacity="0.9557"/>
<stop offset="0.273" stop-color="#FDA7C5" stop-opacity="0.727"/>
<stop offset="0.49" stop-color="#FECDDE" stop-opacity="0.51"/>
<stop offset="0.6897" stop-color="#FEE9F0" stop-opacity="0.3103"/>
<stop offset="0.8659" stop-color="#FFF9FB" stop-opacity="0.1341"/>
<stop offset="1" stop-color="white" stop-opacity="0"/>
</linearGradient>
<linearGradient id="paint7_linear" x1="24.275" y1="53.3314" x2="18.1968" y2="61.3118" gradientUnits="userSpaceOnUse">
<stop stop-color="#FB7EA0"/>
<stop offset="0.1796" stop-color="#FCA0B9" stop-opacity="0.8204"/>
<stop offset="0.4322" stop-color="#FDC9D7" stop-opacity="0.5678"/>
<stop offset="0.6619" stop-color="#FEE6ED" stop-opacity="0.3381"/>
<stop offset="0.8589" stop-color="#FFF9FA" stop-opacity="0.1411"/>
<stop offset="1" stop-color="white" stop-opacity="0"/>
</linearGradient>
<linearGradient id="paint8_linear" x1="24.2703" y1="53.3423" x2="18.2969" y2="61.1851" gradientUnits="userSpaceOnUse">
<stop stop-color="#FC8FA1"/>
<stop offset="0.0422601" stop-color="#FC96A7" stop-opacity="0.9577"/>
<stop offset="0.3477" stop-color="#FDC3CD" stop-opacity="0.6523"/>
<stop offset="0.62" stop-color="#FEE4E8" stop-opacity="0.38"/>
<stop offset="0.8468" stop-color="#FFF8F9" stop-opacity="0.1532"/>
<stop offset="1" stop-color="white" stop-opacity="0"/>
</linearGradient>
<linearGradient id="paint9_linear" x1="24.2604" y1="53.3532" x2="18.3917" y2="61.0584" gradientUnits="userSpaceOnUse">
<stop stop-color="#FCA0A2"/>
<stop offset="0.2224" stop-color="#FDBCBE" stop-opacity="0.7776"/>
<stop offset="0.556" stop-color="#FEE0E1" stop-opacity="0.444"/>
<stop offset="0.8271" stop-color="#FFF7F7" stop-opacity="0.1729"/>
<stop offset="1" stop-color="white" stop-opacity="0"/>
</linearGradient>
<linearGradient id="paint10_linear" x1="24.2511" y1="53.3647" x2="18.4872" y2="60.9324" gradientUnits="userSpaceOnUse">
<stop stop-color="#FDB1A3"/>
<stop offset="0.1341" stop-color="#FDBFB3" stop-opacity="0.8659"/>
<stop offset="0.5166" stop-color="#FEE1DC" stop-opacity="0.4834"/>
<stop offset="0.8183" stop-color="#FFF7F6" stop-opacity="0.1817"/>
<stop offset="1" stop-color="white" stop-opacity="0"/>
</linearGradient>
<linearGradient id="paint11_linear" x1="24.2449" y1="53.3753" x2="18.5857" y2="60.8054" gradientUnits="userSpaceOnUse">
<stop stop-color="#FEC2A5"/>
<stop offset="0.0188572" stop-color="#FEC3A7" stop-opacity="0.9811"/>
<stop offset="0.4647" stop-color="#FFE4D7" stop-opacity="0.5353"/>
<stop offset="0.806" stop-color="#FFF8F4" stop-opacity="0.194"/>
<stop offset="1" stop-color="white" stop-opacity="0"/>
</linearGradient>
<linearGradient id="paint12_linear" x1="24.2365" y1="53.3865" x2="18.6822" y2="60.679" gradientUnits="userSpaceOnUse">
<stop stop-color="#FED3A6"/>
<stop offset="0.3939" stop-color="#FEE7CF" stop-opacity="0.6061"/>
<stop offset="0.7879" stop-color="#FFF8F2" stop-opacity="0.2121"/>
<stop offset="1" stop-color="white" stop-opacity="0"/>
</linearGradient>
<linearGradient id="paint13_linear" x1="24.2272" y1="53.3966" x2="18.7777" y2="60.5515" gradientUnits="userSpaceOnUse">
<stop stop-color="#FFE4A7"/>
<stop offset="0.2824" stop-color="#FFEDC3" stop-opacity="0.7176"/>
<stop offset="0.7576" stop-color="#FFFAEE" stop-opacity="0.2424"/>
<stop offset="1" stop-color="white" stop-opacity="0"/>
</linearGradient>
<linearGradient id="paint14_linear" x1="23.2128" y1="50.1259" x2="27.6208" y2="53.4832" gradientUnits="userSpaceOnUse">
<stop offset="0.020202" stop-color="#45108A"/>
<stop offset="0.2929" stop-color="#3D065F"/>
<stop offset="1" stop-color="#10054D"/>
</linearGradient>
<linearGradient id="paint15_linear" x1="22.7334" y1="44.3698" x2="33.2619" y2="52.3888" gradientUnits="userSpaceOnUse">
<stop stop-color="#7F3DFF"/>
<stop offset="1" stop-color="#3922AA"/>
</linearGradient>
<linearGradient id="paint16_linear" x1="31.7391" y1="26.0585" x2="48.4755" y2="38.8057" gradientUnits="userSpaceOnUse">
<stop offset="0.010101" stop-color="#B177D5"/>
<stop offset="0.0358179" stop-color="#B781D8"/>
<stop offset="0.0797698" stop-color="#C69CE1"/>
<stop offset="0.1366" stop-color="#E0C9EE"/>
<stop offset="0.197" stop-color="white"/>
<stop offset="0.2212" stop-color="#FAF5FD"/>
<stop offset="0.2618" stop-color="#ECDBF7"/>
<stop offset="0.3135" stop-color="#D6B1ED"/>
<stop offset="0.3586" stop-color="#C087E3"/>
<stop offset="0.3636" stop-color="#BD85E2"/>
<stop offset="0.4376" stop-color="#9C68D5"/>
<stop offset="0.5081" stop-color="#8453CB"/>
<stop offset="0.573" stop-color="#7546C5"/>
<stop offset="0.6272" stop-color="#7042C3"/>
<stop offset="0.7445" stop-color="#7B48C5"/>
<stop offset="0.9496" stop-color="#9859CA"/>
<stop offset="1" stop-color="#A05ECC"/>
</linearGradient>
<linearGradient id="paint17_linear" x1="47.5721" y1="15.8509" x2="53.6259" y2="26.0652" gradientUnits="userSpaceOnUse">
<stop stop-color="#5C1CCC"/>
<stop offset="0.0364254" stop-color="#6323D0"/>
<stop offset="0.0908693" stop-color="#7538DA"/>
<stop offset="0.1563" stop-color="#9259EA"/>
<stop offset="0.1919" stop-color="#A56EF4"/>
<stop offset="0.3434" stop-color="#7945D1"/>
<stop offset="0.4368" stop-color="#6D37C7"/>
<stop offset="0.5966" stop-color="#5E27BA"/>
<stop offset="0.7735" stop-color="#561DB2"/>
<stop offset="1" stop-color="#531AB0"/>
</linearGradient>
<linearGradient id="paint18_linear" x1="48.0563" y1="16.3251" x2="51.7839" y2="24.1491" gradientUnits="userSpaceOnUse">
<stop stop-color="#7F3DFF"/>
<stop offset="0.2059" stop-color="#9C79FF"/>
<stop offset="0.4893" stop-color="#6B5FC9"/>
<stop offset="1" stop-color="#3922AA"/>
</linearGradient>
<linearGradient id="paint19_linear" x1="34.6594" y1="26.8568" x2="33.2073" y2="38.2012" gradientUnits="userSpaceOnUse">
<stop stop-color="#5C1CCC"/>
<stop offset="0.0268398" stop-color="#6323D0"/>
<stop offset="0.0669564" stop-color="#7538DA"/>
<stop offset="0.1151" stop-color="#9259EA"/>
<stop offset="0.1414" stop-color="#A56EF4"/>
<stop offset="0.2273" stop-color="#C994FF"/>
<stop offset="0.2836" stop-color="#AE7AF0"/>
<stop offset="0.3788" stop-color="#7945D1"/>
<stop offset="0.5404" stop-color="#4916A1"/>
<stop offset="0.6229" stop-color="#4B17A4"/>
<stop offset="0.6946" stop-color="#521AAF"/>
<stop offset="0.762" stop-color="#5D1EC1"/>
<stop offset="0.8182" stop-color="#6B24D6"/>
<stop offset="0.9433" stop-color="#5B1DBD"/>
<stop offset="1" stop-color="#531AB0"/>
</linearGradient>
<linearGradient id="paint20_linear" x1="29.3873" y1="29.924" x2="35.7316" y2="34.7562" gradientUnits="userSpaceOnUse">
<stop offset="0.0353535" stop-color="#A56EF4"/>
<stop offset="0.3636" stop-color="#C994FF"/>
<stop offset="0.5384" stop-color="#B379F5"/>
<stop offset="0.9117" stop-color="#7935DC"/>
<stop offset="1" stop-color="#6B24D6"/>
</linearGradient>
<linearGradient id="paint21_linear" x1="32.0021" y1="36.7148" x2="33.1535" y2="27.7201" gradientUnits="userSpaceOnUse">
<stop stop-color="#DBDFFF"/>
<stop offset="0.7834" stop-color="#8B97FF"/>
<stop offset="1" stop-color="#B2BAFF"/>
</linearGradient>
<linearGradient id="paint22_linear" x1="32.8905" y1="26.7301" x2="33.0365" y2="33.4383" gradientUnits="userSpaceOnUse">
<stop stop-color="white"/>
<stop offset="1" stop-color="white" stop-opacity="0"/>
</linearGradient>
<linearGradient id="paint23_linear" x1="30.9343" y1="36.6993" x2="32.0798" y2="27.7505" gradientUnits="userSpaceOnUse">
<stop stop-color="#5C1CCC"/>
<stop offset="0.2273" stop-color="#BA85FF"/>
<stop offset="0.3788" stop-color="#7945D1"/>
<stop offset="0.5404" stop-color="#4916A1"/>
<stop offset="0.6139" stop-color="#4B17A4"/>
<stop offset="0.6777" stop-color="#521AAF"/>
<stop offset="0.7378" stop-color="#5D1EC1"/>
<stop offset="0.7879" stop-color="#6B24D6"/>
<stop offset="0.9339" stop-color="#5B1DBD"/>
<stop offset="1" stop-color="#531AB0"/>
</linearGradient>
<linearGradient id="paint24_linear" x1="30.6084" y1="30.7154" x2="35.8918" y2="34.7395" gradientUnits="userSpaceOnUse">
<stop stop-color="white"/>
<stop offset="1" stop-color="white" stop-opacity="0"/>
</linearGradient>
<linearGradient id="paint25_linear" x1="15.0154" y1="47.0903" x2="29.5581" y2="37.0537" gradientUnits="userSpaceOnUse">
<stop offset="0.197" stop-color="#7734DC"/>
<stop offset="0.3939" stop-color="#8C4FE7"/>
<stop offset="0.5909" stop-color="#A56EF4"/>
<stop offset="0.6667" stop-color="#BA8AFF"/>
<stop offset="0.803" stop-color="#A067F1"/>
<stop offset="1" stop-color="#9155EA"/>
</linearGradient>
<linearGradient id="paint26_linear" x1="18.3562" y1="42.4848" x2="36.7617" y2="49.4122" gradientUnits="userSpaceOnUse">
<stop stop-color="#7F3DFF"/>
<stop offset="1" stop-color="#3922AA"/>
</linearGradient>
<linearGradient id="paint27_linear" x1="18.7737" y1="41.7282" x2="23.2745" y2="45.1562" gradientUnits="userSpaceOnUse">
<stop stop-color="white"/>
<stop offset="1" stop-color="white" stop-opacity="0"/>
</linearGradient>
<linearGradient id="paint28_linear" x1="34.6279" y1="55.3507" x2="37.6122" y2="46.4923" gradientUnits="userSpaceOnUse">
<stop offset="0.0353535" stop-color="#6B24D6"/>
<stop offset="0.1916" stop-color="#7733DC"/>
<stop offset="0.197" stop-color="#7734DC"/>
<stop offset="0.3939" stop-color="#8C4FE7"/>
<stop offset="0.5909" stop-color="#A56EF4"/>
<stop offset="0.6667" stop-color="#BA8AFF"/>
<stop offset="0.803" stop-color="#A067F1"/>
<stop offset="1" stop-color="#9155EA"/>
</linearGradient>
<linearGradient id="paint29_linear" x1="44.0879" y1="65.0866" x2="24.6879" y2="42.0241" gradientUnits="userSpaceOnUse">
<stop stop-color="#7F3DFF"/>
<stop offset="1" stop-color="#3922AA"/>
</linearGradient>
<linearGradient id="paint30_linear" x1="32.4453" y1="52.1674" x2="36.9462" y2="55.5955" gradientUnits="userSpaceOnUse">
<stop stop-color="white"/>
<stop offset="1" stop-color="white" stop-opacity="0"/>
</linearGradient>
</defs>
</svg>
