<svg width="75" height="75" viewBox="0 0 75 75" fill="none" xmlns="http://www.w3.org/2000/svg">
<path d="M16.0862 66.3446L13.6826 59.3617L13.7477 48.1738L16.1513 55.1513L16.0862 66.3446Z" fill="url(#paint0_linear)"/>
<path d="M60.2498 27.1764L57.8408 20.1935L67.2327 20.0308L69.6418 27.0137L60.2498 27.1764Z" fill="url(#paint1_linear)"/>
<path d="M6.76297 55.3139L4.35938 48.3364L18.8623 32.5259L21.2659 39.5088L6.76297 55.3139Z" fill="url(#paint2_linear)"/>
<path d="M21.2639 39.5088L18.8604 32.5259L33.1788 47.8318L35.5879 54.8147L21.2639 39.5088Z" fill="url(#paint3_linear)"/>
<path d="M21.2608 39.5088L35.5847 54.8148L26.1982 54.9775L26.1276 66.1654L16.0846 66.3444L16.1497 55.1511L6.75781 55.3139L21.2608 39.5088Z" fill="url(#paint4_linear)"/>
<path d="M40.8147 27.5177L38.4111 20.5348L47.8031 20.3721L50.2067 27.3495L40.8147 27.5177Z" fill="url(#paint5_linear)"/>
<path d="M50.2733 16.1565L47.8643 9.17362L57.9073 9L60.3163 15.9829L50.2733 16.1565Z" fill="url(#paint6_linear)"/>
<path d="M71.5923 40.7244L52.6999 35.8032L1.51367 22.4668L3.91727 29.4497L55.109 42.7807L74.0013 47.7018L71.5923 40.7244Z" fill="url(#paint7_linear)"/>
<path d="M60.316 15.9829L60.2509 27.1762L69.6428 27.0134L55.1562 42.7968L40.8105 27.518L50.2025 27.3498L50.273 16.1565L60.316 15.9829Z" fill="url(#paint8_linear)"/>
<path d="M50.2044 27.35L47.8008 20.3725L47.8659 9.17383L50.2749 16.1567L50.2044 27.35Z" fill="url(#paint9_linear)"/>
<path d="M2.4036 34.5065L0 27.529L1.51378 22.4668L3.91737 29.4497L2.4036 34.5065Z" fill="url(#paint10_linear)"/>
<path d="M3.91612 29.4497L55.1078 42.7807L74.0002 47.7018L72.4864 52.7695L2.40234 34.5065L3.91612 29.4497Z" fill="url(#paint11_linear)"/>
<defs>
<linearGradient id="paint0_linear" x1="13.6816" y1="57.2571" x2="16.1536" y2="57.2571" gradientUnits="userSpaceOnUse">
<stop stop-color="#2D1B86"/>
<stop offset="1" stop-color="#6D34DB"/>
</linearGradient>
<linearGradient id="paint1_linear" x1="57.8411" y1="23.6043" x2="69.6392" y2="23.6043" gradientUnits="userSpaceOnUse">
<stop stop-color="#7583FF"/>
<stop offset="1" stop-color="#DBDFFF"/>
</linearGradient>
<linearGradient id="paint2_linear" x1="4.359" y1="43.9221" x2="21.2683" y2="43.9221" gradientUnits="userSpaceOnUse">
<stop stop-color="#2D1B86"/>
<stop offset="1" stop-color="#6D34DB"/>
</linearGradient>
<linearGradient id="paint3_linear" x1="18.8602" y1="43.6705" x2="35.5861" y2="43.6705" gradientUnits="userSpaceOnUse">
<stop stop-color="#7F3DFF"/>
<stop offset="1" stop-color="#7583FF"/>
</linearGradient>
<linearGradient id="paint4_linear" x1="21.3303" y1="36.1601" x2="21.0724" y2="66.8449" gradientUnits="userSpaceOnUse">
<stop stop-color="#7F3DFF"/>
<stop offset="0.4171" stop-color="#7583FF"/>
<stop offset="1" stop-color="#B9C0FF"/>
</linearGradient>
<linearGradient id="paint5_linear" x1="38.4106" y1="23.943" x2="50.2086" y2="23.943" gradientUnits="userSpaceOnUse">
<stop stop-color="#7583FF"/>
<stop offset="1" stop-color="#DBDFFF"/>
</linearGradient>
<linearGradient id="paint6_linear" x1="47.8647" y1="12.5779" x2="60.3145" y2="12.5779" gradientUnits="userSpaceOnUse">
<stop stop-color="#7583FF"/>
<stop offset="1" stop-color="#DBDFFF"/>
</linearGradient>
<linearGradient id="paint7_linear" x1="1.51318" y1="35.085" x2="73.999" y2="35.085" gradientUnits="userSpaceOnUse">
<stop offset="0.2861" stop-color="#BEC5FF"/>
<stop offset="1" stop-color="#505EDE"/>
</linearGradient>
<linearGradient id="paint8_linear" x1="40.8124" y1="29.3875" x2="69.6402" y2="29.3875" gradientUnits="userSpaceOnUse">
<stop stop-color="#7F3DFF"/>
<stop offset="1" stop-color="#7583FF"/>
</linearGradient>
<linearGradient id="paint9_linear" x1="46.9601" y1="27.3669" x2="50.3123" y2="12.6691" gradientUnits="userSpaceOnUse">
<stop stop-color="#2D1B86"/>
<stop offset="1" stop-color="#6D34DB"/>
</linearGradient>
<linearGradient id="paint10_linear" x1="2.22433" y1="33.8574" x2="1.54747" y2="20.1266" gradientUnits="userSpaceOnUse">
<stop stop-color="#7583FF"/>
<stop offset="1" stop-color="#DBDFFF"/>
</linearGradient>
<linearGradient id="paint11_linear" x1="2.40479" y1="41.1075" x2="73.9979" y2="41.1075" gradientUnits="userSpaceOnUse">
<stop stop-color="#DBDFFF"/>
<stop offset="1" stop-color="#7583FF"/>
</linearGradient>
</defs>
</svg>
