<svg width="75" height="75" viewBox="0 0 75 75" fill="none" xmlns="http://www.w3.org/2000/svg">
<path d="M54.1419 36.3638L47.5127 32.5146L47.4785 21.3262L54.1077 25.1754L54.1419 36.3638Z" fill="url(#paint0_linear)"/>
<path d="M39.9173 41.8293L33.2881 37.98L44.0402 19.3584L50.6694 23.2162L39.9173 41.8293Z" fill="url(#paint1_linear)"/>
<path d="M33.8265 38.3568L27.1973 34.499L33.2876 37.9804L39.9168 41.8296L33.8265 38.3568Z" fill="#8490FF"/>
<path d="M22.6292 64.7196L16 60.8704L27.1969 34.499L33.8261 38.3568L22.6292 64.7196Z" fill="url(#paint2_linear)"/>
<path d="M40.9351 28.8362L34.2974 24.987L34.2803 19.4014L40.918 23.2591L40.9351 28.8362Z" fill="url(#paint3_linear)"/>
<path d="M40.918 23.2592L34.2803 19.4014L52.3031 9L58.9409 12.8578L40.918 23.2592Z" fill="url(#paint4_linear)"/>
<path d="M58.9398 12.8579L58.9997 33.5667L54.1411 36.3638L54.1069 25.1754L39.9418 49.7163L33.8515 46.2434L23.1678 64.7539L22.6289 64.7197L33.8258 38.3568L39.9162 41.8297L50.6683 23.2166L40.9341 28.8364L40.9169 23.2593L58.9398 12.8579Z" fill="url(#paint5_linear)"/>
<path d="M39.9181 41.8293L37.6513 41.0338C35.7267 40.358 33.6054 41.222 32.6987 43.0525L26.6426 55.2759L33.8278 38.3564L39.9181 41.8293Z" fill="url(#paint6_linear)"/>
<path d="M43.4052 55.9516C43.0289 55.7292 42.6183 55.5838 42.1906 55.5069C41.7543 55.4299 41.3523 55.4128 40.9759 55.4555C40.6081 55.4983 40.189 55.5924 39.7356 55.7635C39.2823 55.926 38.8717 56.0971 38.5039 56.2767C38.1361 56.4563 37.7169 56.6873 37.255 56.9524C36.7931 57.2262 36.3911 57.4657 36.0832 57.6795C35.7752 57.8934 35.4758 58.1329 35.2021 58.3895C34.9198 58.6547 34.7573 58.8942 34.6803 59.108L34.5264 59.3646L34.6718 61.5886C34.7488 61.3748 34.9113 61.1353 35.1936 60.8701C35.4673 60.6135 35.7667 60.374 36.0746 60.1601C36.3825 59.9463 36.7846 59.7068 37.2465 59.433C37.7084 59.1593 38.1275 58.9369 38.4953 58.7573C38.8631 58.5777 39.2737 58.4066 39.7271 58.2441C40.1804 58.0815 40.5996 57.9875 40.9674 57.9361C41.3438 57.8934 41.7458 57.9105 42.182 57.9875C42.6097 58.0644 43.0203 58.2099 43.3967 58.4323C43.773 58.6547 44.0296 58.8856 44.1665 59.1337L44.6797 57.2775L44.1751 56.6445C44.0382 56.4136 43.7816 56.174 43.4052 55.9516Z" fill="url(#paint7_linear)"/>
<path d="M48.8015 57.7993C48.562 58.4237 48.1429 59.0311 47.5099 59.6213C46.8769 60.22 46.0386 60.8102 44.9951 61.4176C43.9515 62.0249 42.925 62.5039 41.8986 62.8803C40.8807 63.2481 39.8286 63.4961 38.7593 63.633C37.6901 63.7699 36.6123 63.7271 35.5346 63.5132C34.4568 63.308 33.4132 62.9059 32.421 62.3328C31.4287 61.7597 30.7359 61.161 30.3595 60.528C30.1285 60.143 30.0088 59.7581 30.0173 59.3732L30.0088 61.8624C30.0088 62.2473 30.12 62.6322 30.3509 63.0171C30.7273 63.6501 31.4116 64.2489 32.4124 64.822C33.4132 65.3951 34.4482 65.7971 35.526 66.0024C36.6038 66.2248 37.6816 66.259 38.7508 66.1307C39.82 65.9939 40.8721 65.7458 41.89 65.378C42.9165 65.0102 43.9429 64.5226 44.9865 63.9153C46.0301 63.308 46.8598 62.7092 47.5013 62.119C48.1258 61.5288 48.5534 60.9214 48.793 60.297C48.8785 60.0661 48.9213 59.8351 48.9213 59.5956L48.9298 57.1064C48.9298 57.3374 48.887 57.5683 48.8015 57.7993Z" fill="url(#paint8_linear)"/>
<path d="M47.5091 59.6211C46.8761 60.2199 46.0378 60.8101 44.9943 61.4174C43.9507 62.0248 42.9242 62.5038 41.8978 62.8801C40.8799 63.248 39.8278 63.496 38.7585 63.6329C37.6893 63.7697 36.6115 63.727 35.5338 63.5131C34.456 63.3078 33.4124 62.9058 32.4202 62.3327C31.4279 61.7596 30.7351 61.1608 30.3587 60.5278C29.9823 59.912 29.9139 59.2875 30.1449 58.6717C30.3758 58.0558 30.8035 57.4399 31.4365 56.8497C32.0695 56.2509 32.9077 55.6607 33.9513 55.0534C34.9949 54.4461 36.0213 53.9671 37.0478 53.5907C38.0657 53.2229 39.1092 52.9748 40.187 52.838C41.2563 52.7011 42.334 52.7439 43.4033 52.9577C44.4896 53.1716 45.5332 53.5736 46.5254 54.1467C47.5176 54.7198 48.2105 55.3186 48.5698 55.943C48.9547 56.5674 49.0231 57.1919 48.7922 57.8077C48.5612 58.4236 48.1335 59.0309 47.5091 59.6211ZM40.4436 60.1942C40.8115 60.0146 41.2306 59.7837 41.6925 59.5185C42.1544 59.2448 42.5564 59.0053 42.8644 58.7914C43.1723 58.5776 43.4631 58.3381 43.7454 58.0814C44.0191 57.8077 44.1902 57.5768 44.2586 57.3544C44.3356 57.1405 44.3014 56.9096 44.1731 56.6615C44.0362 56.4135 43.7796 56.174 43.4033 55.9601C43.0269 55.7377 42.6163 55.5923 42.1886 55.5153C41.7524 55.4383 41.3503 55.4212 40.974 55.464C40.6062 55.5068 40.187 55.6008 39.7337 55.7634C39.2803 55.9259 38.8697 56.097 38.5019 56.2766C38.1341 56.4562 37.715 56.6872 37.2531 56.9609C36.7912 57.2346 36.3891 57.4741 36.0812 57.688C35.7733 57.9018 35.4739 58.1413 35.2002 58.3979C34.9179 58.6631 34.7554 58.9026 34.6784 59.1165C34.6099 59.3389 34.6442 59.5698 34.7725 59.8179C34.9093 60.0659 35.1659 60.3054 35.5423 60.5193C35.9187 60.7417 36.3293 60.8871 36.7569 60.9641C37.1932 61.0411 37.5952 61.0582 37.963 61.0069C38.3394 60.9641 38.75 60.87 39.2119 60.7075C39.6652 60.5535 40.0844 60.3739 40.4436 60.1942Z" fill="url(#paint9_linear)"/>
<path d="M44.1828 56.4993C44.046 56.2512 43.7894 56.0117 43.4044 55.7978C43.0195 55.5669 42.6089 55.43 42.1812 55.353C41.7535 55.2761 41.3601 55.259 40.9751 55.2932C40.6073 55.3359 40.1796 55.4471 39.7263 55.6011C39.2815 55.7722 38.8709 55.9347 38.5031 56.1229C38.1353 56.3025 37.7076 56.5335 37.2542 56.7901C36.8009 57.0638 36.3989 57.3119 36.0824 57.5257C35.7744 57.7396 35.475 57.9791 35.2099 58.2442C34.9191 58.5008 34.7651 58.7489 34.6881 58.9628C34.6453 59.074 34.6453 59.1766 34.6539 59.2964C34.6539 59.2365 34.671 59.1766 34.6881 59.1167C34.7651 58.9029 34.9191 58.6548 35.2099 58.3982C35.4665 58.1416 35.7744 57.8935 36.0824 57.6797C36.3989 57.4658 36.8009 57.2178 37.2542 56.9612C37.7076 56.6874 38.1353 56.4565 38.5031 56.2769C38.8709 56.0972 39.2815 55.9262 39.7263 55.7722C40.1796 55.6011 40.6073 55.5156 40.9751 55.4642C41.3601 55.4215 41.7535 55.43 42.1812 55.507C42.6089 55.584 43.0195 55.738 43.4044 55.9518C43.7894 56.1828 44.046 56.4052 44.1828 56.6532C44.2427 56.7901 44.2855 56.9098 44.2855 57.021C44.3026 56.85 44.2684 56.6874 44.1828 56.4993Z" fill="url(#paint10_linear)"/>
<path d="M45.2173 61.1952C44.1652 61.8025 43.1473 62.2815 42.1208 62.6579C41.1029 63.0257 40.0508 63.2652 38.9816 63.4021C37.9123 63.5389 36.8346 63.4962 35.7653 63.2823C34.679 63.0685 33.644 62.675 32.6432 62.1105C31.651 61.5288 30.9666 60.9386 30.5988 60.2971C30.2139 59.6897 30.1455 59.0653 30.3679 58.4409C30.5475 57.979 30.8383 57.5256 31.2404 57.0723C30.71 57.594 30.3593 58.1415 30.154 58.6718C29.9231 59.2963 29.983 59.9207 30.3679 60.528C30.7357 61.1524 31.42 61.7598 32.4294 62.3414C33.4216 62.906 34.4566 63.2994 35.5429 63.5133C36.6122 63.7271 37.6899 63.7699 38.7592 63.633C39.8284 63.4962 40.8805 63.2481 41.8984 62.8889C42.9163 62.5039 43.9599 62.0335 44.9949 61.4262C46.047 60.8188 46.8682 60.2201 47.5097 59.6299C47.5696 59.57 47.6295 59.5101 47.6893 59.4502C47.0649 60.0233 46.2266 60.605 45.2173 61.1952Z" fill="url(#paint11_linear)"/>
<path opacity="0.4" d="M40.916 23.2593L54.9015 16.613C56.176 16.0057 57.6558 16.8696 57.7756 18.2725L58.9988 33.5667L58.9389 12.8579L40.916 23.2593Z" fill="url(#paint12_linear)"/>
<defs>
<linearGradient id="paint0_linear" x1="51.2876" y1="25.274" x2="49.9918" y2="34.9542" gradientUnits="userSpaceOnUse">
<stop stop-color="#2D1B86"/>
<stop offset="1" stop-color="#6D34DB"/>
</linearGradient>
<linearGradient id="paint1_linear" x1="48.924" y1="22.0805" x2="17.2156" y2="60.9537" gradientUnits="userSpaceOnUse">
<stop stop-color="#7583FF"/>
<stop offset="1" stop-color="#DBDFFF"/>
</linearGradient>
<linearGradient id="paint2_linear" x1="16" y1="49.6119" x2="33.8299" y2="49.6119" gradientUnits="userSpaceOnUse">
<stop stop-color="#7583FF"/>
<stop offset="1" stop-color="#DBDFFF"/>
</linearGradient>
<linearGradient id="paint3_linear" x1="30.5776" y1="28.1453" x2="42.1634" y2="21.514" gradientUnits="userSpaceOnUse">
<stop stop-color="#2D1B86"/>
<stop offset="1" stop-color="#6D34DB"/>
</linearGradient>
<linearGradient id="paint4_linear" x1="34.2841" y1="16.1295" x2="58.938" y2="16.1295" gradientUnits="userSpaceOnUse">
<stop stop-color="#7966FF"/>
<stop offset="0.4278" stop-color="#A9B1FF"/>
<stop offset="1" stop-color="white"/>
</linearGradient>
<linearGradient id="paint5_linear" x1="15.4793" y1="78.5678" x2="62.6914" y2="9.8817" gradientUnits="userSpaceOnUse">
<stop stop-color="#7F3DFF"/>
<stop offset="1" stop-color="#7583FF"/>
</linearGradient>
<linearGradient id="paint6_linear" x1="33.7667" y1="51.9614" x2="30.9211" y2="31.9911" gradientUnits="userSpaceOnUse">
<stop stop-color="#A9B1FF" stop-opacity="0"/>
<stop offset="0.1842" stop-color="#B1B8FF" stop-opacity="0.1842"/>
<stop offset="0.4649" stop-color="#C6CBFF" stop-opacity="0.4649"/>
<stop offset="0.8054" stop-color="#E8EAFF" stop-opacity="0.8054"/>
<stop offset="1" stop-color="white"/>
</linearGradient>
<linearGradient id="paint7_linear" x1="34.5338" y1="58.519" x2="44.6778" y2="58.519" gradientUnits="userSpaceOnUse">
<stop stop-color="#E89018"/>
<stop offset="0.9947" stop-color="#BA7C25"/>
</linearGradient>
<linearGradient id="paint8_linear" x1="47.6763" y1="53.6873" x2="33.4112" y2="65.0087" gradientUnits="userSpaceOnUse">
<stop stop-color="#FFD57F"/>
<stop offset="0.6578" stop-color="#F28C00"/>
<stop offset="0.9947" stop-color="#BA7C25"/>
</linearGradient>
<linearGradient id="paint9_linear" x1="30.0233" y1="58.2362" x2="48.9284" y2="58.2362" gradientUnits="userSpaceOnUse">
<stop stop-color="#E89018"/>
<stop offset="0.2615" stop-color="#EEA632"/>
<stop offset="1" stop-color="#FFE278"/>
</linearGradient>
<linearGradient id="paint10_linear" x1="31.236" y1="61.2578" x2="43.3782" y2="55.6537" gradientUnits="userSpaceOnUse">
<stop stop-color="#E89018" stop-opacity="0"/>
<stop offset="0.2615" stop-color="#EEA632" stop-opacity="0.2615"/>
<stop offset="1" stop-color="#FFE278"/>
</linearGradient>
<linearGradient id="paint11_linear" x1="40.8375" y1="56.0734" x2="35.1315" y2="64.7003" gradientUnits="userSpaceOnUse">
<stop stop-color="#E89018" stop-opacity="0"/>
<stop offset="0.2615" stop-color="#EEA632" stop-opacity="0.2615"/>
<stop offset="1" stop-color="#FFE278"/>
</linearGradient>
<linearGradient id="paint12_linear" x1="51.5806" y1="25.2367" x2="57.907" y2="12.8887" gradientUnits="userSpaceOnUse">
<stop stop-color="#A9B1FF" stop-opacity="0"/>
<stop offset="0.1842" stop-color="#B1B8FF" stop-opacity="0.1842"/>
<stop offset="0.4649" stop-color="#C6CBFF" stop-opacity="0.4649"/>
<stop offset="0.8054" stop-color="#E8EAFF" stop-opacity="0.8054"/>
<stop offset="1" stop-color="white"/>
</linearGradient>
</defs>
</svg>
