<svg width="75" height="75" viewBox="0 0 75 75" fill="none" xmlns="http://www.w3.org/2000/svg">
<path d="M55.6659 42.6379C55.6579 42.6218 55.6418 42.5977 55.6257 42.5896L54.4757 45.2756L53.2855 45.1148C53.3659 45.2596 53.4383 45.4043 53.5027 45.5491L51.8862 47.7284L42.831 50.0767L31.0736 48.5407L27.2295 45.1872L26.3932 45.0666L24.7928 42.1152C24.7044 42.3323 24.6079 42.5092 24.5114 42.6218L22.6537 40.2092V46.868C22.6376 47.1414 22.6376 47.4068 22.6537 47.6802V47.7204L22.6617 47.7284C22.8628 50.2536 24.6239 52.7145 27.8809 54.4596C33.4701 58.0543 45.0264 58.947 52.7226 54.5963C56.1726 52.6501 57.8453 50.0124 57.7729 47.3666V47.3585V40.0645L55.9072 42.3001L55.6659 42.6379Z" fill="url(#paint0_linear)"/>
<path d="M44.5831 29.8103C41.2296 28.4271 35.4877 30.132 31.4988 29.4806C24.9607 28.4592 19.3153 31.4669 13.5974 33.9358C11.6111 34.8043 10.1072 35.8578 8.91699 37.2813C9.63273 37.418 10.1152 37.5145 10.5897 37.6029C12.6645 38.1578 14.8118 38.576 16.5729 39.3159C20.1999 40.7876 20.1034 42.8785 17.2002 44.7603L20.1757 50.5425C20.5055 50.3414 20.6181 50.0117 20.61 49.6176C20.61 49.1592 20.6824 48.6526 20.6824 48.1942C20.6743 47.2774 20.5939 46.4009 20.8271 45.5243C21.4464 42.9508 23.5051 40.8439 26.6817 39.0103C27.5583 38.5036 27.5502 38.2302 26.4404 37.8603C25.6443 37.6753 24.9286 37.3536 24.2048 37.1204C24.2048 37.032 24.2852 36.8872 24.2852 36.7987C26.1992 36.8952 28.1051 36.9918 30.0191 37.0883C30.7349 37.1365 31.4506 37.1848 32.0055 37.048C35.4233 36.1795 39.0824 36.0026 42.7496 36.1956C43.224 36.1956 43.6261 36.2438 44.5831 36.2438C43.9398 35.8739 44.9772 29.955 44.5831 29.8103Z" fill="url(#paint1_linear)"/>
<path d="M73.3504 35.6318V42.2021C73.5192 44.8962 71.8143 47.4053 68.4528 49.7696C65.1234 52.15 60.837 53.8952 55.9877 55.1256C55.7465 55.1738 55.4248 55.2623 55.1112 55.2623C54.9503 55.2623 54.8699 55.214 54.7895 55.1658V48.7322L60.1776 45.6923C59.5182 45.8612 59.0678 45.7486 58.7944 45.2018C57.2664 41.6553 53.4304 39.2588 47.9297 37.5539C46.8119 37.1839 45.7744 36.5808 44.8898 35.9857C44.5762 35.8007 44.8094 35.2941 44.8898 34.8759C43.5388 35.3825 42.5818 34.9241 41.3835 34.506C39.3087 33.7661 37.073 33.1147 34.6846 32.3748V25.9413L38.6573 25.322L42.6702 24.7028L58.0384 23.8584V30.4528L57.95 30.4609C57.8856 30.5493 57.8052 30.6297 57.6846 30.7182C56.8884 31.2651 55.9395 31.8199 55.2238 32.4151C55.1433 32.4794 55.071 32.5357 54.9986 32.6C53.2937 34.0154 53.0444 35.6077 53.8164 37.192C54.8619 39.3553 59.0115 40.5616 63.2255 39.878C63.7965 39.7895 64.3353 39.677 64.85 39.5322C66.4825 39.0899 67.8416 38.4144 69.1042 37.6825C70.2783 37.007 70.6483 36.9266 71.1871 37.4654L73.3504 35.6318Z" fill="url(#paint2_linear)"/>
<path d="M54.6213 30.0747L54.4846 35.5834C54.4846 35.6236 54.4846 35.6719 54.4846 35.7121L54.4766 35.9131H54.4926C54.6615 37.8673 57.2752 39.3229 60.9182 39.3712C65.2206 39.4677 70.8581 36.9506 70.5203 33.5488V27.1152L54.6213 30.0747Z" fill="url(#paint3_linear)"/>
<path d="M66.8454 23.9795C69.0007 24.5826 70.4402 25.7809 70.5286 27.1158C70.8664 30.5176 65.229 33.0347 60.9265 32.9382C56.8653 32.8819 54.0667 31.0886 54.5332 28.7886C55.2248 25.2501 62.0604 22.6847 66.8454 23.9795Z" fill="url(#paint4_linear)"/>
<path d="M65.807 42.8538L58.1108 47.4457L54.7895 48.7324L60.1776 45.6926C59.5182 45.8615 59.0678 45.7489 58.7944 45.202C57.2664 41.6555 53.4304 39.259 47.9297 37.5541C46.8119 37.1842 45.7744 36.581 44.8898 35.9859C44.5762 35.801 44.8094 35.2943 44.8898 34.8761C43.5388 35.3828 42.5818 34.9244 41.3835 34.5062C39.3087 33.7663 37.073 33.1149 34.6846 32.3751V25.9415L38.6573 25.3223L41.0136 25.7565L49.6105 28.6677L54.9986 32.6002L56.4863 33.6859L64.1343 37.0314L64.85 39.5324L65.807 42.8538Z" fill="url(#paint5_linear)"/>
<path d="M54.7899 48.7408C55.3448 48.3306 55.9802 47.9607 56.2938 47.5023C57.4036 46.0306 58.4249 44.5188 59.1326 42.9988C59.5267 42.2188 59.7599 41.4387 60.7169 40.7953C61.6658 40.152 62.3816 39.3719 63.1697 38.6401C63.0088 38.5516 62.9284 38.5034 62.7676 38.4069C62.0518 38.632 61.2557 38.9135 60.54 39.1387C59.6634 39.4604 59.1085 39.4121 58.7868 38.7688C57.2508 35.2303 53.4228 32.8257 47.9141 31.1208C46.7962 30.7509 45.7588 30.1478 44.8822 29.5527C44.5606 29.3677 44.8018 28.861 44.8742 28.4509C43.5232 28.9575 42.5662 28.4911 41.3679 28.0729C39.2931 27.3331 37.0574 26.6897 34.6689 25.9499C34.9102 25.8131 35.063 25.5397 35.3043 25.403C40.7004 22.2908 48.3403 20.7387 56.0686 22.91C56.4707 23.0467 56.8648 23.1834 57.3473 23.2799C58.1434 23.5533 58.2239 23.8831 57.669 24.2932C56.8728 24.8401 55.9239 25.395 55.2081 25.9901C53.3022 27.4537 52.9966 29.1103 53.8008 30.767C54.8462 32.9303 58.9959 34.1285 63.2099 33.453C65.5984 33.0911 67.4239 32.2226 69.0886 31.2576C70.52 30.4292 70.7533 30.4775 71.5575 31.4908C74.8466 35.8656 73.5117 39.766 68.4372 43.3446C65.1078 45.7251 60.8134 47.4702 55.9641 48.7006C55.7228 48.7488 55.4092 48.8373 55.0875 48.8373C54.9508 48.8293 54.8704 48.789 54.7899 48.7408Z" fill="url(#paint6_linear)"/>
<path d="M24.0771 30.3653L29.5296 34.8447C30.9369 36.0027 32.7142 36.6059 34.5317 36.5496L44.5842 36.244V29.8104L30.2051 28.001L24.0771 30.3653Z" fill="url(#paint7_linear)"/>
<path d="M67.4864 50.3167V56.7423L67.4703 56.7503C67.3175 60.2888 64.0605 64.1167 57.8682 65.4758C56.7503 64.1811 55.8657 62.8461 54.587 61.6479C54.2654 61.3423 53.8633 61.0608 53.4049 60.8195C52.0538 60.0877 50.2283 59.6132 48.4832 59.5007L45.8856 59.6293C44.1647 59.9591 42.6367 60.715 41.6475 61.672L41.5591 61.8167L41.543 61.7765C41.5269 61.7926 41.5188 61.8007 41.5108 61.8167C40.8755 62.4762 40.4975 63.216 40.5056 63.972C40.5136 65.0737 40.9961 66.1755 41.2374 67.3255C41.3178 67.5587 41.4786 67.8321 41.5591 68.2503C36.8625 68.0975 32.7209 67.4461 29.2066 65.693C23.6978 62.8783 21.6873 59.1549 21.1887 55.1097C21.0601 54.1045 20.9234 50.3971 21.2853 47.3814C21.2933 47.301 21.3013 47.2206 21.3094 47.1402C21.3255 47.0034 21.3415 46.8748 21.3576 46.7381C21.3978 46.4807 21.4461 46.2234 21.4863 45.9741C21.5346 45.7328 21.5908 45.4996 21.6471 45.2744C22.8454 46.336 23.8908 53.823 25.2499 54.7961C26.2874 55.5762 27.7992 56.1793 28.9975 56.8709C29.8821 57.3776 30.5978 57.9727 31.3216 58.5758C32.0374 59.1709 32.6003 59.8625 33.3241 60.5542C33.6377 60.3692 33.7181 60.329 33.7181 60.2325C33.6297 58.3507 33.5493 58.3909 36.8143 58.7206C37.8839 58.8332 38.9213 58.8895 39.9507 58.8975L38.873 56.9514L39.8381 54.0884L49.6895 52.2951L55.7451 53.3003L57.2248 56.2517C57.6591 55.4073 59.187 55.2465 60.3612 54.8122C61.1493 54.5468 61.9374 54.2573 62.7255 53.9678L62.6612 52.2951L67.4864 50.3167Z" fill="url(#paint8_linear)"/>
<path d="M57.8674 59.0417V65.4753C56.7496 64.1806 55.8649 62.8456 54.5863 61.6473C54.2646 61.3417 53.8625 61.0603 53.4041 60.819C43.9467 55.4791 41.5583 52.5197 49.7048 53.1068C51.852 53.5089 53.7579 54.2246 55.0768 55.7043L57.8674 59.0417Z" fill="url(#paint9_linear)"/>
<path d="M57.8769 59.0423C56.7591 57.7555 55.8745 56.4206 54.5877 55.2223C52.8266 53.5657 48.7654 52.6811 45.9748 53.1877C42.951 53.7346 40.4902 55.6164 40.5063 57.5465C40.5143 58.6482 40.9968 59.75 41.2381 60.9C41.3185 61.1332 41.4793 61.4066 41.5598 61.8167C36.8632 61.672 32.7136 61.0206 29.2073 59.2674C23.6985 56.4527 21.6881 52.7293 21.1895 48.6762C21.2618 47.5262 21.3342 46.3762 21.6478 45.2744C22.8461 46.336 23.8916 47.3895 25.2506 48.3625C26.2881 49.1426 27.808 49.7457 29.0062 50.4374C29.8828 50.944 30.6066 51.5472 31.3223 52.1423C32.0381 52.7374 32.601 53.429 33.3248 54.1206C33.6384 53.9356 33.7188 53.8954 33.7188 53.7989C33.6304 51.9171 33.55 51.9573 36.815 52.287C42.0744 52.8499 46.771 52.1664 51.2182 50.6143C52.8105 50.0674 54.5556 49.794 56.3087 49.3356C56.6304 49.7055 56.9521 49.979 57.1129 50.2604C57.1853 49.022 59.0189 48.8853 60.3699 48.3786C62.2759 47.7353 64.1818 47.0034 66.0878 46.2716C69.5297 50.2846 66.6185 57.1283 57.8769 59.0423Z" fill="url(#paint10_linear)"/>
<path d="M8.91699 30.8566V37.2902L18.2939 41.9465L21.0604 37.8049C21.0604 37.8049 20.7628 34.3147 20.7628 33.9849C20.7628 33.6472 18.302 30.543 18.302 30.543L8.91699 30.8566Z" fill="url(#paint11_linear)"/>
<path d="M18.2945 36.2681L1.00423 35.6006V41.7044C0.988146 42.01 1.02031 42.2754 1.06052 42.4604C1.79234 45.1705 7.14025 46.98 12.464 46.3849C15.2466 46.0712 17.3938 45.2912 18.1015 43.6828C18.214 43.4254 18.2703 43.16 18.2784 42.8947H18.2864V36.2681H18.2945Z" fill="url(#paint12_linear)"/>
<path d="M20.2481 50.8722L19.9345 50.655C20.0149 50.6229 20.0953 50.5988 20.1597 50.5585L17.7792 45.5243C17.6747 45.5886 17.5782 45.661 17.4736 45.7253C16.203 46.4571 14.7313 46.8994 13.1551 47.1246L4.66278 40.2246V46.6582C4.35718 48.3148 6.8502 52.9631 11.796 55.3596C14.1925 56.4694 16.9027 57.1127 20.2481 57.3058V50.8722V50.8722Z" fill="url(#paint13_linear)"/>
<path d="M4.66309 40.224C6.33582 40.4572 7.76729 40.6422 9.12638 40.7869C12.2306 41.0201 15.1739 40.61 17.482 39.2831C20.739 37.4013 20.3208 34.4177 16.5732 32.8897C14.8201 32.1499 12.6648 31.7317 10.59 31.1768C10.1155 31.0803 9.63302 30.9918 8.91729 30.8551C10.1075 29.4317 11.6113 28.3782 13.5977 27.5096C19.3156 25.0408 25.6848 24.9603 32.2229 25.9817C36.2037 26.6331 39.8789 27.6544 43.2243 29.0376C43.6264 29.1743 43.9401 29.4558 44.5834 29.8177C43.6264 29.8177 43.2324 29.7694 42.7498 29.7694C39.0827 29.5764 35.4236 29.7534 32.0058 30.6219C31.4509 30.7586 30.7351 30.7103 30.0194 30.6621C28.1054 30.5656 26.1995 30.4691 24.2855 30.3726C24.2855 30.461 24.2051 30.6058 24.2051 30.6943C24.9208 30.9275 25.6446 31.2492 26.4407 31.4341C27.5586 31.8041 27.5586 32.0775 26.682 32.5841C23.5054 34.4177 21.4467 36.5247 20.8274 39.0981C20.5942 39.9747 20.6746 40.8432 20.6827 41.7681C20.6827 42.2264 20.6103 42.7331 20.6103 43.1915C20.6184 44.0198 20.1439 44.5667 18.1495 44.245C20.6184 45.0331 19.597 46.1751 19.597 47.1883C19.6051 48.0167 19.8463 48.8932 20.0072 49.7135C20.0876 50.0352 20.168 50.3569 20.2484 50.8635C16.903 50.6705 14.1928 50.0272 11.7963 48.9174C6.8505 46.5209 4.74351 42.0334 4.66309 40.224Z" fill="url(#paint14_linear)"/>
<path d="M55.9087 58.9947L41.4572 58.3916V64.3346C41.4251 65.5811 42.0443 66.892 43.3149 67.9615C48.6709 72.3364 54.2279 69.5941 54.8632 68.3073C55.6513 67.2297 55.9891 66.1762 55.8845 65.1629L55.9087 65.1549V58.9947Z" fill="url(#paint15_linear)"/>
<path d="M43.3203 61.5278C40.9238 59.5013 40.8273 56.6062 43.1273 54.9093C46.3763 52.6656 51.0808 53.4537 53.4773 55.2069C56.1955 57.2334 56.6056 59.4852 54.8686 61.8736C54.2333 63.1604 48.6763 65.9107 43.3203 61.5278Z" fill="url(#paint16_linear)"/>
<path d="M27.2226 45.1946L27.0055 45.0016C27.6328 43.8275 28.7506 42.7177 30.359 41.7848C35.7551 38.6726 44.352 38.6806 49.7884 41.817C51.4852 42.766 52.6433 43.9079 53.2866 45.1142L54.4769 45.2751L55.6269 42.581C54.8146 41.5758 53.3912 35.7855 52.1447 35.0698C45.2768 31.1051 33.8251 32.2792 27.0055 36.2198C25.8716 36.8792 25.4212 40.5946 24.7939 42.1226L26.3943 45.074L27.2226 45.1946Z" fill="url(#paint17_linear)"/>
<path d="M3.90583 32.3592C7.40408 31.2655 11.4653 31.4987 15.06 32.9302C17.4565 33.9435 18.8156 35.6484 18.1079 37.2568C17.4002 38.8652 15.253 39.6453 12.4705 39.9589C7.1387 40.546 1.79079 38.7445 1.06701 36.0344C0.89813 35.2945 0.809668 33.4127 3.90583 32.3592Z" fill="url(#paint18_linear)"/>
<path d="M27.8798 48.033C21.0923 44.39 20.7385 37.675 27.6466 33.6861C34.4742 29.7456 45.7008 29.8099 52.5686 33.7746C59.4365 37.7393 59.549 44.3176 52.7295 48.1617C45.0172 52.5204 33.4689 51.6278 27.8798 48.033ZM49.7861 35.383C44.3578 32.2466 35.7529 32.2305 30.3567 35.3508C25.041 38.4229 25.0651 43.3848 30.421 46.5694C35.6161 49.6575 44.6071 49.7218 49.9308 46.6498C55.2466 43.4813 55.2948 38.4711 49.7861 35.383Z" fill="url(#paint19_radial)"/>
<path d="M43.0584 44.2454L41.9406 43.602L49.484 39.2513L47.0392 36.6377L33.9067 38.1335L31.7354 40.4657L36.7696 43.3688L36.85 43.4171L34.4696 44.7923L37.3486 46.4489L39.7291 45.0737L40.8469 45.7171L43.2273 44.3419L43.0584 44.2454ZM36.6651 40.5541L42.7126 39.7339L38.9812 41.8891L36.6651 40.5541Z" fill="url(#paint20_linear)"/>
<path d="M49.4738 39.2435V37.1445L41.9385 41.4952V43.5942L49.4738 39.2435Z" fill="url(#paint21_linear)"/>
<path d="M43.2164 44.3343V42.2354L40.8359 43.6105V45.7095L43.2164 44.3343Z" fill="url(#paint22_linear)"/>
<path d="M39.7197 42.9668L40.8376 43.6102V45.7091L39.7197 45.0657V42.9668Z" fill="url(#paint23_linear)"/>
<path d="M37.3291 44.342V46.4409L39.7176 45.0657V42.9668L37.3291 44.342Z" fill="url(#paint24_linear)"/>
<path d="M34.458 42.6768V44.7757L37.329 46.4404V44.3414L34.458 42.6768Z" fill="url(#paint25_linear)"/>
<path d="M31.7256 38.3516V40.4505L36.8403 43.4019V41.303L31.7256 38.3516Z" fill="url(#paint26_linear)"/>
<path d="M43.0557 42.1464L41.9379 41.503L49.4813 37.1523L46.9239 35.6807L33.7914 37.1765L31.7246 38.3667L36.7589 41.2698L36.8393 41.3181L34.4589 42.6933L37.3379 44.3499L39.7183 42.9747L40.8362 43.6181L43.2166 42.2429L43.0557 42.1464ZM36.6624 38.4551L42.7099 37.6349L38.9785 39.7901L36.6624 38.4551Z" fill="url(#paint27_radial)"/>
<path d="M55.3166 9.14615L55.9649 8.7677L53.5147 7.38462C51.6096 6.27682 48.9672 6.44497 46.0468 8.14315C40.2702 11.514 35.6084 19.6326 35.6408 26.2837C35.6523 29.3595 36.6695 31.5819 38.3291 32.745L38.3428 32.7567C38.591 32.9256 38.8431 33.0789 39.1204 33.197L41.2913 34.4366L41.5464 33.6713C42.937 33.6416 44.5017 33.1745 46.1547 32.2156C51.9313 28.8447 56.5931 20.7261 56.5607 14.075C56.5583 12.0368 56.1065 10.3764 55.3166 9.14615Z" fill="url(#paint28_linear)"/>
<path d="M58.9518 15.4264C58.9842 22.0775 54.3224 30.1961 48.5458 33.567C42.7693 36.9378 38.0565 34.2841 38.0319 27.6351C38.0074 20.986 42.6613 12.8654 48.4379 9.49455C54.2145 6.12374 58.9195 8.77542 58.9518 15.4264Z" fill="url(#paint29_linear)"/>
<path d="M43.8447 33.9982C40.8683 34.0094 39.0782 31.6296 39.0638 27.6253C39.0383 21.3156 43.4731 13.5799 48.9596 10.3777C50.4315 9.51495 51.8773 9.0599 53.1451 9.05792C56.1215 9.04672 57.9116 11.4266 57.926 15.4309C57.9514 21.7406 53.5167 29.4763 48.0302 32.6784C46.5602 33.5334 45.1047 33.9943 43.8447 33.9982Z" fill="url(#paint30_linear)"/>
<path d="M43.8316 32.9677C40.473 32.984 40.0888 29.2364 40.0818 27.6195C40.0574 21.6413 44.2632 14.2965 49.4674 11.2649C50.7835 10.4962 52.052 10.0885 53.1384 10.0832C56.4971 10.0669 56.8813 13.8145 56.8883 15.4314C56.9127 21.4095 52.7069 28.7544 47.5027 31.786C46.1943 32.5566 44.9258 32.9643 43.8316 32.9677Z" fill="url(#paint31_linear)"/>
<path d="M53.7829 14.8561C53.3257 14.5942 52.5917 15.0178 52.1572 15.8052L47.2219 24.3948L44.7932 23.0253C44.3457 22.7575 43.6059 23.2045 43.1675 23.9743C42.7252 24.7598 42.7337 25.5985 43.1772 25.8487L46.4207 27.676C46.8779 27.9379 47.6119 27.5143 48.0464 26.7269L53.7868 16.7207C54.2466 15.9313 54.2459 15.0945 53.7829 14.8561Z" fill="url(#paint32_linear)"/>
<defs>
<linearGradient id="paint0_linear" x1="27.8509" y1="48.8007" x2="52.7881" y2="48.8007" gradientUnits="userSpaceOnUse">
<stop stop-color="#3922AA"/>
<stop offset="1" stop-color="#7F3DFF"/>
</linearGradient>
<linearGradient id="paint1_linear" x1="25.101" y1="35.1381" x2="34.9185" y2="41.9458" gradientUnits="userSpaceOnUse">
<stop stop-color="#8E52FF"/>
<stop offset="1" stop-color="#D6BFFF"/>
</linearGradient>
<linearGradient id="paint2_linear" x1="54.0264" y1="57.9855" x2="54.0264" y2="26.021" gradientUnits="userSpaceOnUse">
<stop stop-color="#8E52FF"/>
<stop offset="1" stop-color="#D6BFFF"/>
</linearGradient>
<linearGradient id="paint3_linear" x1="59.2934" y1="28.5972" x2="66.5956" y2="36.135" gradientUnits="userSpaceOnUse">
<stop stop-color="#8E52FF"/>
<stop offset="1" stop-color="#D6BFFF"/>
</linearGradient>
<linearGradient id="paint4_linear" x1="56.8905" y1="28.5536" x2="68.0729" y2="29.6381" gradientUnits="userSpaceOnUse">
<stop stop-color="#DBDFFF"/>
<stop offset="1" stop-color="#7583FF"/>
</linearGradient>
<linearGradient id="paint5_linear" x1="39.3029" y1="37.0302" x2="61.3935" y2="37.0302" gradientUnits="userSpaceOnUse">
<stop stop-color="#8E52FF"/>
<stop offset="1" stop-color="#D6BFFF"/>
</linearGradient>
<linearGradient id="paint6_linear" x1="66.5958" y1="25.918" x2="54.5855" y2="46.7199" gradientUnits="userSpaceOnUse">
<stop stop-color="#DBDFFF"/>
<stop offset="1" stop-color="#7583FF"/>
</linearGradient>
<linearGradient id="paint7_linear" x1="34.3463" y1="30.467" x2="41.2521" y2="35.2556" gradientUnits="userSpaceOnUse">
<stop stop-color="#8E52FF"/>
<stop offset="1" stop-color="#D6BFFF"/>
</linearGradient>
<linearGradient id="paint8_linear" x1="21.056" y1="56.7654" x2="67.4896" y2="56.7654" gradientUnits="userSpaceOnUse">
<stop stop-color="#8E52FF"/>
<stop offset="1" stop-color="#D6BFFF"/>
</linearGradient>
<linearGradient id="paint9_linear" x1="44.7589" y1="59.2565" x2="57.8706" y2="59.2565" gradientUnits="userSpaceOnUse">
<stop stop-color="#8E52FF"/>
<stop offset="1" stop-color="#D6BFFF"/>
</linearGradient>
<linearGradient id="paint10_linear" x1="45.4337" y1="61.8444" x2="43.6735" y2="45.9153" gradientUnits="userSpaceOnUse">
<stop stop-color="#DBDFFF"/>
<stop offset="1" stop-color="#7583FF"/>
</linearGradient>
<linearGradient id="paint11_linear" x1="19.6516" y1="36.9115" x2="8.14995" y2="31.2144" gradientUnits="userSpaceOnUse">
<stop stop-color="#8E52FF"/>
<stop offset="1" stop-color="#D6BFFF"/>
</linearGradient>
<linearGradient id="paint12_linear" x1="2.39227" y1="41.092" x2="15.0655" y2="40.9499" gradientUnits="userSpaceOnUse">
<stop stop-color="#8E52FF"/>
<stop offset="1" stop-color="#D6BFFF"/>
</linearGradient>
<linearGradient id="paint13_linear" x1="5.54836" y1="42.5065" x2="20.2007" y2="55.6986" gradientUnits="userSpaceOnUse">
<stop stop-color="#8E52FF"/>
<stop offset="1" stop-color="#D6BFFF"/>
</linearGradient>
<linearGradient id="paint14_linear" x1="8.1314" y1="38.2489" x2="34.4353" y2="43.8885" gradientUnits="userSpaceOnUse">
<stop stop-color="#DBDFFF"/>
<stop offset="1" stop-color="#7583FF"/>
</linearGradient>
<linearGradient id="paint15_linear" x1="41.463" y1="64.3669" x2="55.9124" y2="64.3669" gradientUnits="userSpaceOnUse">
<stop stop-color="#8E52FF"/>
<stop offset="1" stop-color="#D6BFFF"/>
</linearGradient>
<linearGradient id="paint16_linear" x1="43.2435" y1="59.4708" x2="54.3196" y2="57.4396" gradientUnits="userSpaceOnUse">
<stop stop-color="#DBDFFF"/>
<stop offset="1" stop-color="#7583FF"/>
</linearGradient>
<linearGradient id="paint17_linear" x1="27.8521" y1="38.9478" x2="52.7892" y2="38.9478" gradientUnits="userSpaceOnUse">
<stop stop-color="#3922AA"/>
<stop offset="1" stop-color="#7F3DFF"/>
</linearGradient>
<linearGradient id="paint18_linear" x1="4.03102" y1="36.6128" x2="15.1371" y2="34.6793" gradientUnits="userSpaceOnUse">
<stop stop-color="#DBDFFF"/>
<stop offset="1" stop-color="#7583FF"/>
</linearGradient>
<radialGradient id="paint19_radial" cx="0" cy="0" r="1" gradientUnits="userSpaceOnUse" gradientTransform="translate(40.1743 40.8495) rotate(30.0001) scale(14.3969 12.3902)">
<stop offset="0.8106" stop-color="#AA7FFF"/>
<stop offset="0.8398" stop-color="#B28BFF"/>
<stop offset="0.893" stop-color="#C8ACFF"/>
<stop offset="0.9638" stop-color="#EBE1FF"/>
<stop offset="1" stop-color="white"/>
</radialGradient>
<linearGradient id="paint20_linear" x1="35.0777" y1="37.5241" x2="40.0948" y2="46.214" gradientUnits="userSpaceOnUse">
<stop stop-color="#8E52FF"/>
<stop offset="1" stop-color="#D6BFFF"/>
</linearGradient>
<linearGradient id="paint21_linear" x1="41.9369" y1="40.371" x2="49.4774" y2="40.371" gradientUnits="userSpaceOnUse">
<stop stop-color="#8E52FF"/>
<stop offset="1" stop-color="#D6BFFF"/>
</linearGradient>
<linearGradient id="paint22_linear" x1="40.833" y1="43.9732" x2="43.2141" y2="43.9732" gradientUnits="userSpaceOnUse">
<stop stop-color="#8E52FF"/>
<stop offset="1" stop-color="#D6BFFF"/>
</linearGradient>
<linearGradient id="paint23_linear" x1="39.7163" y1="44.3375" x2="40.8346" y2="44.3375" gradientUnits="userSpaceOnUse">
<stop stop-color="#8E52FF"/>
<stop offset="1" stop-color="#D6BFFF"/>
</linearGradient>
<linearGradient id="paint24_linear" x1="37.333" y1="44.702" x2="39.7142" y2="44.702" gradientUnits="userSpaceOnUse">
<stop stop-color="#8E52FF"/>
<stop offset="1" stop-color="#D6BFFF"/>
</linearGradient>
<linearGradient id="paint25_linear" x1="34.4575" y1="44.5588" x2="37.3329" y2="44.5588" gradientUnits="userSpaceOnUse">
<stop stop-color="#8E52FF"/>
<stop offset="1" stop-color="#D6BFFF"/>
</linearGradient>
<linearGradient id="paint26_linear" x1="31.7287" y1="40.8797" x2="36.8405" y2="40.8797" gradientUnits="userSpaceOnUse">
<stop stop-color="#8E52FF"/>
<stop offset="1" stop-color="#D6BFFF"/>
</linearGradient>
<radialGradient id="paint27_radial" cx="0" cy="0" r="1" gradientUnits="userSpaceOnUse" gradientTransform="translate(42.8521 36.5742) rotate(29.9998) scale(13.0461 11.2277)">
<stop stop-color="white"/>
<stop offset="0.1962" stop-color="#FAF7FF"/>
<stop offset="0.4995" stop-color="#ECE1FF"/>
<stop offset="0.8701" stop-color="#D4BEFF"/>
<stop offset="1" stop-color="#CBB0FF"/>
</radialGradient>
<linearGradient id="paint28_linear" x1="35.617" y1="20.6071" x2="56.5947" y2="20.5124" gradientUnits="userSpaceOnUse">
<stop stop-color="#7583FF"/>
<stop offset="0.407" stop-color="#7583FF"/>
<stop offset="1" stop-color="#98A3FF"/>
</linearGradient>
<linearGradient id="paint29_linear" x1="48.1744" y1="9.08738" x2="49.5102" y2="61.4827" gradientUnits="userSpaceOnUse">
<stop stop-color="#DBDFFF"/>
<stop offset="1" stop-color="#7583FF"/>
</linearGradient>
<linearGradient id="paint30_linear" x1="48.2011" y1="10.0447" x2="49.4342" y2="58.4126" gradientUnits="userSpaceOnUse">
<stop stop-color="#ECECFF"/>
<stop offset="0.9375" stop-color="white"/>
</linearGradient>
<linearGradient id="paint31_linear" x1="48.2003" y1="31.3321" x2="48.7392" y2="13.2042" gradientUnits="userSpaceOnUse">
<stop stop-color="#4502C6"/>
<stop offset="1" stop-color="#803EFF"/>
</linearGradient>
<linearGradient id="paint32_linear" x1="49.1337" y1="16.1725" x2="51.9895" y2="26.576" gradientUnits="userSpaceOnUse">
<stop stop-color="#FDFDFF"/>
<stop offset="1" stop-color="#C6CCFF"/>
</linearGradient>
</defs>
</svg>
