<svg width="75" height="75" viewBox="0 0 75 75" fill="none" xmlns="http://www.w3.org/2000/svg">
<path opacity="0.1" d="M26.8521 63.3185C37.3641 63.3185 45.8858 60.5056 45.8858 57.0357C45.8858 53.5658 37.3641 50.7529 26.8521 50.7529C16.34 50.7529 7.81836 53.5658 7.81836 57.0357C7.81836 60.5056 16.34 63.3185 26.8521 63.3185Z" fill="black"/>
<path d="M14.4219 13.8482C14.4219 13.8482 17.0664 11.389 20.6036 12.1301C24.1409 12.8881 24.8146 11.0858 27.2907 11.0016C29.7499 10.9342 30.4405 13.0397 31.9396 13.0397C33.4387 13.0397 33.6745 10.9342 35.1737 11.4564C36.6728 11.9785 36.9928 13.0565 36.9928 13.0565L28.7056 23.9883L14.4219 13.8482Z" fill="url(#paint0_linear)"/>
<path d="M44.3369 48.6817C44.3369 50.0966 44.2021 51.3599 43.9495 52.4885C42.1472 60.3377 34.4326 61.5842 25.1684 61.5842C24.4105 61.5842 23.6693 61.5674 22.945 61.5505C16.3085 61.3821 10.6995 60.2704 7.90337 56.0931C6.6906 54.2739 6 51.8652 6 48.6817C6 43.9822 7.49911 38.3564 9.99202 33.3874C13.4956 26.4308 18.9867 20.7881 25.1684 20.7881C35.7633 20.7881 44.3369 37.4131 44.3369 48.6817Z" fill="url(#paint1_linear)"/>
<path d="M18.3971 21.546L14.4219 13.8483C14.4219 13.8483 18.3128 12.9892 19.8793 14.7242C21.4627 16.4591 25.1683 16.139 26.5832 15.28C27.9981 14.421 28.4698 16.139 30.9963 16.7791C33.5229 17.4023 32.4955 12.686 36.9928 13.0734L32.4281 21.5123L31.468 23.5672H18.8518L18.3971 21.546Z" fill="url(#paint2_linear)"/>
<path d="M43.9494 52.4883C42.1471 60.3376 34.4326 61.584 25.1684 61.584C17.5718 61.584 11.0026 60.7418 7.90332 56.1097C17.7402 60.405 31.5523 62.9315 43.9494 52.4883Z" fill="url(#paint3_linear)" fill-opacity="0.5"/>
<path d="M20.0995 23.9883C20.0995 23.9883 16.9497 27.8792 16.7139 31.3828C16.7139 31.3828 18.9036 25.0495 21.2281 24.4262L20.0995 23.9883Z" fill="url(#paint4_linear)"/>
<path d="M24.7793 24.8135C24.7793 24.8135 26.7164 30.3551 26.4974 33.7745C26.4974 33.7745 27.6596 32.9154 25.6552 24.8135H24.7793Z" fill="url(#paint5_linear)"/>
<path d="M29.3623 24.4094C29.3623 24.4094 32.0742 26.1612 32.9669 28.9236C32.9669 28.9236 33.287 27.1381 30.0529 23.9883L29.3623 24.4094Z" fill="url(#paint6_linear)"/>
<path d="M22.1876 24.6123C22.1876 24.6123 21.7328 27.24 21.817 29.5981C21.817 29.5981 22.3729 25.2187 22.8108 24.8144L22.1876 24.6123Z" fill="url(#paint7_linear)"/>
<path d="M20.0482 22.3545C20.0482 22.3545 19.8797 19.1542 18.5322 17.8066C18.5322 17.8066 20.0482 18.6994 20.5703 22.7588L20.0482 22.3545Z" fill="url(#paint8_linear)"/>
<path d="M29.3623 22.8429C29.3623 22.8429 30.0866 20.2826 31.5689 18.9014C31.5689 18.9014 29.935 21.209 30.1877 22.6239L29.3623 22.8429Z" fill="url(#paint9_linear)"/>
<path d="M24.7793 22.843C24.7793 22.843 26.6153 19.8279 26.8343 17.8066C26.8343 17.8066 27.1038 20.1648 25.1836 23.1799L24.7793 22.843Z" fill="url(#paint10_linear)"/>
<path d="M17.2388 24.1908C18.4853 24.6961 25.3239 27.1553 33.0722 24.2076C33.2574 24.1403 33.3922 24.0055 33.4596 23.8202C33.6449 23.3654 33.8807 22.4559 33.2911 21.8326C33.0216 21.5463 32.6005 21.4284 32.2131 21.5463C30.5624 22.0179 24.448 23.5002 18.3842 21.5463C18.081 21.4452 17.761 21.4958 17.5083 21.681C17.0199 22.0348 16.3798 22.7422 16.9188 23.9044C16.9862 24.0224 17.0872 24.1403 17.2388 24.1908Z" fill="url(#paint11_linear)"/>
<path d="M31.3894 53.5326L31.0693 51.5282C29.6544 51.6966 28.2227 51.5282 27.3468 51.1913L27.5826 48.631C28.5427 48.9679 29.8566 49.2206 31.2209 49.0016C32.4168 48.8163 33.1748 48.2268 33.0401 47.3677C32.9053 46.5592 32.1642 46.1718 30.5135 45.8855C28.1385 45.4812 26.4372 44.6727 26.1172 42.6346C25.8308 40.7817 26.892 39.1142 29.0817 38.3225L28.7617 36.3181L30.8335 35.998L31.1199 37.8509C32.5347 37.6824 33.5285 37.834 34.2865 38.0699L34.0507 40.5459C33.4612 40.3943 32.4168 40.0743 30.9009 40.3101C29.5365 40.5291 29.1828 41.186 29.2839 41.7755C29.4018 42.4661 30.1934 42.803 32.0968 43.1904C34.7413 43.6789 35.9372 44.6727 36.2404 46.5761C36.5436 48.4457 35.4656 50.2649 33.1074 51.0566L33.4443 53.2126L31.3894 53.5326Z" fill="url(#paint12_linear)"/>
<path d="M54.2436 19.9128L54.6383 19.2442L51.7566 19.2488C49.5032 19.2169 47.2286 20.6874 45.4867 23.6668C42.0345 29.5614 41.9696 39.1232 45.3197 45.0279C46.8732 47.7547 48.8865 49.2211 50.9494 49.4248L50.9653 49.4194C51.2585 49.4439 51.5621 49.4471 51.8763 49.4288L54.4279 49.4479L54.2783 48.6446C55.509 47.9221 56.667 46.726 57.6563 45.0357C61.1085 39.141 61.1734 29.5792 57.8233 23.6745C56.777 21.8603 55.5482 20.6066 54.2436 19.9128Z" fill="url(#paint13_linear)"/>
<path d="M60.6129 23.6659C63.9789 29.5652 63.8981 39.1324 60.4459 45.0271C56.9937 50.9217 51.4753 50.9185 48.1093 45.0193C44.7433 39.1201 44.8296 29.5688 48.2818 23.6741C51.734 17.7795 57.247 17.7667 60.6129 23.6659Z" fill="url(#paint14_linear)"/>
<path d="M56.4907 47.7832C53.8541 49.2881 51.0702 48.0669 49.0366 44.5072C45.8486 38.921 45.906 29.8067 49.1898 24.2009C50.0633 22.6925 51.1206 21.5664 52.256 20.9297C54.8926 19.4247 57.6765 20.646 59.7101 24.2056C62.9035 29.8078 62.8301 38.9276 59.5568 44.512C58.6619 46.0098 57.6101 47.1519 56.4907 47.7832Z" fill="url(#paint15_linear)"/>
<path d="M55.9706 46.8744C52.9891 48.5683 50.7614 45.4308 49.9522 43.9984C46.9314 38.6933 46.9868 30.0424 50.1022 24.7254C50.8916 23.3881 51.8113 22.3801 52.7822 21.8352C55.7637 20.1413 57.9913 23.2788 58.8005 24.7112C61.8214 30.0163 61.766 38.6672 58.6506 43.9842C57.8611 45.3215 56.936 46.3135 55.9706 46.8744Z" fill="url(#paint16_linear)"/>
<path d="M58.2654 32.3158L55.9537 32.3217L55.973 28.3106C55.9763 27.2772 55.4963 26.4443 54.9104 26.4485C54.3244 26.4527 53.8243 27.2819 53.8211 28.3153L53.8018 32.3264L51.49 32.3323C50.9041 32.3364 50.404 33.1656 50.4008 34.199C50.3975 35.2324 50.8775 36.0653 51.4634 36.0611L53.7751 36.0553L53.7558 40.0664C53.7526 41.0998 54.2326 41.9326 54.8185 41.9284C55.4044 41.9243 55.9045 41.0951 55.9078 40.0617L55.9271 36.0505L58.2388 36.0447C58.8247 36.0405 59.3248 35.2113 59.3281 34.1779C59.3473 33.1391 58.8673 32.3062 58.2654 32.3158Z" fill="url(#paint17_linear)"/>
<defs>
<linearGradient id="paint0_linear" x1="14.4225" y1="17.4988" x2="36.9862" y2="17.4988" gradientUnits="userSpaceOnUse">
<stop stop-color="#3922AA"/>
<stop offset="1" stop-color="#7F3DFF"/>
</linearGradient>
<linearGradient id="paint1_linear" x1="6" y1="41.185" x2="44.3389" y2="41.185" gradientUnits="userSpaceOnUse">
<stop stop-color="#8E52FF"/>
<stop offset="1" stop-color="#D6BFFF"/>
</linearGradient>
<linearGradient id="paint2_linear" x1="14.4225" y1="18.299" x2="36.9862" y2="18.299" gradientUnits="userSpaceOnUse">
<stop stop-color="#DBDFFF"/>
<stop offset="0.7834" stop-color="#8B97FF"/>
<stop offset="1" stop-color="#B2BAFF"/>
</linearGradient>
<linearGradient id="paint3_linear" x1="7.90585" y1="57.0323" x2="43.9461" y2="57.0323" gradientUnits="userSpaceOnUse">
<stop stop-color="#3922AA"/>
<stop offset="1" stop-color="#7F3DFF"/>
</linearGradient>
<linearGradient id="paint4_linear" x1="16.7174" y1="27.6896" x2="21.2274" y2="27.6896" gradientUnits="userSpaceOnUse">
<stop stop-color="#3922AA"/>
<stop offset="1" stop-color="#7F3DFF"/>
</linearGradient>
<linearGradient id="paint5_linear" x1="24.7854" y1="29.3027" x2="26.8321" y2="29.3027" gradientUnits="userSpaceOnUse">
<stop stop-color="#3922AA"/>
<stop offset="1" stop-color="#7F3DFF"/>
</linearGradient>
<linearGradient id="paint6_linear" x1="29.3658" y1="26.4596" x2="32.9846" y2="26.4596" gradientUnits="userSpaceOnUse">
<stop stop-color="#3922AA"/>
<stop offset="1" stop-color="#7F3DFF"/>
</linearGradient>
<linearGradient id="paint7_linear" x1="21.8117" y1="27.1064" x2="22.8194" y2="27.1064" gradientUnits="userSpaceOnUse">
<stop stop-color="#3922AA"/>
<stop offset="1" stop-color="#7F3DFF"/>
</linearGradient>
<linearGradient id="paint8_linear" x1="18.5235" y1="20.2798" x2="20.5575" y2="20.2798" gradientUnits="userSpaceOnUse">
<stop stop-color="#3922AA"/>
<stop offset="1" stop-color="#7F3DFF"/>
</linearGradient>
<linearGradient id="paint9_linear" x1="29.3658" y1="20.8718" x2="31.5668" y2="20.8718" gradientUnits="userSpaceOnUse">
<stop stop-color="#3922AA"/>
<stop offset="1" stop-color="#7F3DFF"/>
</linearGradient>
<linearGradient id="paint10_linear" x1="24.7854" y1="20.4921" x2="26.8452" y2="20.4921" gradientUnits="userSpaceOnUse">
<stop stop-color="#3922AA"/>
<stop offset="1" stop-color="#7F3DFF"/>
</linearGradient>
<linearGradient id="paint11_linear" x1="25.2977" y1="25.7842" x2="25.1937" y2="23.0311" gradientUnits="userSpaceOnUse">
<stop stop-color="#B10E99"/>
<stop offset="1" stop-color="#FF0054"/>
</linearGradient>
<linearGradient id="paint12_linear" x1="26.0737" y1="44.7623" x2="36.2883" y2="44.7623" gradientUnits="userSpaceOnUse">
<stop stop-color="white"/>
<stop offset="1" stop-color="#DBDFFF"/>
</linearGradient>
<linearGradient id="paint13_linear" x1="42.4529" y1="39.9985" x2="61.0738" y2="29.3884" gradientUnits="userSpaceOnUse">
<stop stop-color="#7583FF"/>
<stop offset="0.407" stop-color="#7583FF"/>
<stop offset="1" stop-color="#98A3FF"/>
</linearGradient>
<linearGradient id="paint14_linear" x1="47.8471" y1="23.447" x2="75.3259" y2="69.4043" gradientUnits="userSpaceOnUse">
<stop stop-color="#DBDFFF"/>
<stop offset="1" stop-color="#7583FF"/>
</linearGradient>
<linearGradient id="paint15_linear" x1="48.3474" y1="24.2862" x2="73.7141" y2="66.7109" gradientUnits="userSpaceOnUse">
<stop stop-color="#ECECFF"/>
<stop offset="0.9375" stop-color="white"/>
</linearGradient>
<linearGradient id="paint16_linear" x1="59.0332" y1="43.2285" x2="50.417" y2="26.8259" gradientUnits="userSpaceOnUse">
<stop stop-color="#4502C6"/>
<stop offset="1" stop-color="#803EFF"/>
</linearGradient>
<linearGradient id="paint17_linear" x1="54.2019" y1="21.6411" x2="52.2247" y2="45.0521" gradientUnits="userSpaceOnUse">
<stop stop-color="#FDFDFF"/>
<stop offset="1" stop-color="#C6CCFF"/>
</linearGradient>
</defs>
</svg>
