<svg width="75" height="75" viewBox="0 0 75 75" fill="none" xmlns="http://www.w3.org/2000/svg">
<path d="M48.0375 34.2409L48.0265 37.3286C48.0265 37.3616 48.0243 37.3923 48.0243 37.4253C48.0243 37.4582 48.0199 37.4912 48.0177 37.5241C48.0156 37.579 48.0112 37.6339 48.0068 37.6888C48.0024 37.7371 47.9958 37.7854 47.9892 37.8337C47.9804 37.8886 47.9738 37.9457 47.9607 37.9985C47.9585 38.0182 47.9563 38.0402 47.9519 38.0577C47.9475 38.0885 47.9387 38.1148 47.9321 38.1456C47.9211 38.1983 47.9058 38.2532 47.8926 38.3059C47.8794 38.3542 47.864 38.4047 47.8508 38.453C47.8333 38.5057 47.8157 38.5585 47.7981 38.6112C47.7894 38.6331 47.7828 38.6573 47.7762 38.6792C47.7674 38.7056 47.7542 38.7276 47.7432 38.7517C47.7213 38.8088 47.6971 38.8637 47.673 38.9186C47.6532 38.9647 47.6312 39.013 47.6093 39.0592C47.5807 39.1141 47.5544 39.169 47.5236 39.2239C47.5105 39.2524 47.4951 39.2766 47.4819 39.3051C47.4709 39.3227 47.4599 39.3425 47.4468 39.3578C47.4094 39.4237 47.3677 39.4896 47.3282 39.5533C47.3018 39.595 47.2777 39.6345 47.2491 39.6719C47.2008 39.7422 47.1481 39.8146 47.0932 39.8849C47.0756 39.9113 47.0559 39.9376 47.0361 39.964C47.0317 39.9705 47.0251 39.9771 47.0207 39.9837C47.0075 39.9991 46.9944 40.0167 46.9812 40.0298C46.9241 40.1001 46.8648 40.1726 46.8011 40.2407C46.7857 40.2604 46.766 40.2802 46.7506 40.2978C46.6759 40.379 46.5991 40.4581 46.5178 40.5393C46.5046 40.5525 46.4871 40.5679 46.4739 40.5811C46.4717 40.5833 46.4717 40.5833 46.4695 40.5854C46.43 40.625 46.3904 40.6645 46.3509 40.6996C46.3312 40.7172 46.307 40.737 46.2872 40.7567C46.2345 40.8029 46.1818 40.849 46.1269 40.8951C46.0786 40.939 46.0281 40.9807 45.9754 41.0225C45.9205 41.0686 45.8612 41.1147 45.8019 41.1586C45.747 41.2004 45.6943 41.2421 45.6372 41.2838C45.5779 41.3277 45.512 41.3717 45.4505 41.4156C45.3934 41.4551 45.3341 41.4968 45.2726 41.5342C45.2089 41.5781 45.1387 41.6198 45.0728 41.6615C45.0311 41.6879 44.9915 41.7142 44.952 41.7406C44.9081 41.7669 44.862 41.7933 44.818 41.8197C44.7609 41.8548 44.7038 41.8855 44.6424 41.9185C44.5347 41.9778 44.4249 42.0371 44.3107 42.0942C44.3107 42.0964 44.3085 42.0964 44.3085 42.0964C44.258 42.1227 44.2075 42.1469 44.157 42.1732C44.0231 42.2391 43.8847 42.305 43.7485 42.3665C43.7024 42.3862 43.6563 42.4082 43.608 42.428C43.4279 42.507 43.2456 42.5817 43.0568 42.6542C43.0238 42.6652 42.9931 42.6761 42.958 42.6893C42.802 42.7486 42.6417 42.8035 42.4792 42.8584C42.4485 42.8672 42.4243 42.876 42.3958 42.887C42.3562 42.9001 42.3145 42.9133 42.2772 42.9243C42.1893 42.9528 42.0993 42.9792 42.007 43.0077C41.9302 43.0275 41.8555 43.0517 41.7786 43.0714C41.6864 43.0978 41.5942 43.1219 41.5019 43.1461C41.4251 43.1659 41.3482 43.1856 41.2692 43.2032C41.1747 43.2252 41.0825 43.2493 40.9881 43.2691C40.909 43.2844 40.8321 43.3042 40.7531 43.3196C40.6564 43.3394 40.5598 43.3591 40.4632 43.3767C40.4083 43.3855 40.3556 43.3964 40.3007 43.4096C40.2809 43.4118 40.2611 43.414 40.2414 43.4184C40.035 43.4557 39.8285 43.4865 39.6155 43.5172C39.5848 43.5216 39.5562 43.5238 39.5255 43.5282C39.3432 43.5546 39.1609 43.5743 38.9764 43.5941C38.9479 43.5963 38.9193 43.6007 38.8908 43.6029C38.8491 43.6073 38.8051 43.6095 38.7634 43.6139C38.647 43.6226 38.5262 43.6336 38.4098 43.6446C38.333 43.649 38.2605 43.6534 38.1858 43.6578C38.0607 43.6666 37.9377 43.671 37.8125 43.6754C37.762 43.6775 37.7115 43.6819 37.6632 43.6841H37.6039C37.4963 43.6885 37.3887 43.6885 37.2789 43.6907C37.2042 43.6907 37.1295 43.6929 37.0527 43.6929C36.9385 43.6929 36.8221 43.6929 36.7079 43.6907C36.6486 43.6885 36.5893 43.6907 36.5278 43.6885H36.5014C36.396 43.6841 36.2906 43.6797 36.1852 43.6754C36.1105 43.6732 36.0381 43.671 35.9634 43.6666C35.8514 43.66 35.735 43.6534 35.623 43.6446C35.5615 43.6402 35.4978 43.638 35.4385 43.6336C35.4341 43.6336 35.4319 43.6314 35.4275 43.6314C35.2892 43.6205 35.153 43.6051 35.0169 43.5919C34.9774 43.5875 34.9356 43.5853 34.8983 43.5809C34.7204 43.5612 34.5447 43.537 34.369 43.515C34.369 43.515 34.3668 43.515 34.3646 43.5128C34.3383 43.5106 34.3141 43.5063 34.2878 43.5019C34.1362 43.4799 33.9847 43.4557 33.8354 43.4316C33.7739 43.4206 33.7102 43.4096 33.6487 43.3964C33.5345 43.3767 33.4203 43.3547 33.3061 43.3328C33.2951 43.3306 33.2798 43.3284 33.2688 43.3262C33.2227 43.3152 33.1766 43.3042 33.1282 43.2932C33.0031 43.2647 32.8801 43.2383 32.7571 43.2076C32.689 43.1922 32.6187 43.1724 32.5507 43.1571C32.4409 43.1285 32.3267 43.1 32.2169 43.067C32.1817 43.0583 32.1488 43.0517 32.1158 43.0407C32.0851 43.0319 32.0565 43.0231 32.028 43.0121C31.8501 42.9616 31.6788 42.9067 31.5053 42.8496C31.4724 42.8408 31.4438 42.8321 31.4109 42.8189C31.2132 42.753 31.02 42.6805 30.8289 42.6081C30.8114 42.5993 30.7894 42.5949 30.7718 42.5883C30.7125 42.5619 30.6554 42.5378 30.5939 42.5158C30.5347 42.4895 30.4732 42.4653 30.4117 42.439C30.3238 42.4016 30.2382 42.3621 30.1547 42.3248C30.0998 42.2984 30.0427 42.2742 29.9878 42.2479C29.8934 42.2018 29.8034 42.1557 29.7111 42.1095C29.665 42.0876 29.6189 42.0656 29.575 42.0415C29.4388 41.9734 29.307 41.8987 29.1775 41.824C26.9967 40.5657 25.9097 38.9164 25.9141 37.2672L25.9251 34.3376V34.186C25.9251 34.2453 25.9273 34.3046 25.9294 34.3661C25.9316 34.4056 25.9338 34.443 25.9382 34.4803C25.9426 34.5791 25.9558 34.6802 25.9734 34.779C25.98 34.8273 25.9887 34.8778 26.0019 34.9283C26.0107 34.9766 26.0195 35.0271 26.0349 35.0755C26.0436 35.115 26.0524 35.1545 26.0656 35.1918C26.0788 35.2424 26.0942 35.2907 26.1095 35.3412C26.1117 35.3522 26.1161 35.3609 26.1183 35.3719C26.1249 35.3851 26.1293 35.4005 26.1315 35.4137C26.1447 35.451 26.1578 35.4839 26.1688 35.5191C26.1688 35.5213 26.1688 35.5213 26.1688 35.5213C26.1732 35.5366 26.1798 35.552 26.1842 35.5652C26.193 35.5915 26.204 35.6157 26.2171 35.642C26.2193 35.6508 26.2237 35.6596 26.2259 35.6684C26.2435 35.7123 26.2633 35.754 26.2808 35.798C26.2852 35.8089 26.2896 35.8177 26.294 35.8309C26.3138 35.8748 26.3357 35.9188 26.3555 35.9627C26.3818 36.011 26.406 36.0593 26.4324 36.1076C26.4609 36.1559 26.4873 36.2042 26.5158 36.2548C26.5334 36.2855 26.5531 36.3141 26.5707 36.347C26.6124 36.4129 26.6564 36.481 26.7025 36.549C26.7156 36.5666 26.731 36.5886 26.7442 36.6083C26.7596 36.6303 26.7771 36.6544 26.7925 36.6764C26.7991 36.6852 26.8035 36.6918 26.8101 36.7028C26.8364 36.7379 26.8628 36.773 26.8913 36.8082C27.0363 36.9948 27.1988 37.1815 27.3767 37.3616C27.4074 37.3945 27.4382 37.4253 27.4711 37.456C27.7105 37.691 27.9784 37.9172 28.2749 38.1368C28.332 38.1807 28.3891 38.2225 28.4484 38.262C28.6219 38.385 28.8019 38.5014 28.9908 38.6156C29.0545 38.6573 29.1226 38.6968 29.1906 38.7341C29.3158 38.8066 29.4454 38.8791 29.5772 38.945C29.5816 38.9472 29.5837 38.9494 29.5881 38.9516C29.6321 38.9779 29.6782 38.9977 29.7243 39.0196C29.7704 39.0416 29.8165 39.0658 29.8627 39.0877C29.9088 39.1097 29.9549 39.1338 30.001 39.1558C30.012 39.1602 30.0208 39.1646 30.0339 39.169C30.0779 39.1887 30.124 39.2107 30.1701 39.2305C30.2558 39.27 30.3392 39.3095 30.427 39.3447C30.4534 39.3556 30.4776 39.3644 30.5039 39.3776C30.539 39.3908 30.5742 39.4083 30.6093 39.4215C30.6884 39.4545 30.763 39.483 30.8421 39.516C30.8729 39.5269 30.9014 39.5379 30.9321 39.5489C31.0749 39.6038 31.2154 39.6565 31.3604 39.7048C31.3823 39.7114 31.4043 39.7202 31.4263 39.7268C31.4592 39.7378 31.4878 39.7465 31.5185 39.7575C31.6349 39.7971 31.7557 39.8366 31.8743 39.8695C31.9292 39.8871 31.9863 39.9047 32.0412 39.92C32.1027 39.9376 32.1664 39.9574 32.23 39.9727C32.2432 39.9771 32.2608 39.9815 32.274 39.9837C32.3354 40.0013 32.4013 40.0211 32.465 40.0342C32.498 40.0452 32.5309 40.0518 32.566 40.0628C32.6319 40.0803 32.7022 40.0979 32.7703 40.1133C32.8274 40.1265 32.8867 40.1418 32.9482 40.155C33.0118 40.1704 33.0777 40.1858 33.1436 40.1989C33.2007 40.2121 33.26 40.2253 33.3193 40.2385C33.3325 40.2407 33.3479 40.2429 33.361 40.2451C33.4599 40.2648 33.5609 40.2846 33.6619 40.3022C33.7234 40.3131 33.7871 40.3241 33.8486 40.3373C33.9957 40.3636 34.145 40.3856 34.2944 40.4076C34.3251 40.412 34.3515 40.4164 34.3822 40.4207C34.5579 40.4471 34.7336 40.4669 34.9115 40.4866C34.951 40.491 34.9927 40.4932 35.0301 40.4976C35.1684 40.5108 35.3046 40.5262 35.4407 40.5371C35.5044 40.5437 35.5725 40.5459 35.6362 40.5503C35.7482 40.5591 35.8646 40.5679 35.9766 40.5723C36.0512 40.5767 36.1237 40.5789 36.194 40.5811C36.2928 40.5855 36.3894 40.5898 36.4861 40.592C36.4949 40.5942 36.5036 40.5942 36.5146 40.5942C36.5805 40.5942 36.6508 40.5942 36.7167 40.5964C36.8001 40.5986 36.8836 40.5986 36.9692 40.5986H37.0636C37.1405 40.5986 37.213 40.5964 37.2898 40.5964C37.3425 40.5942 37.3974 40.5942 37.4502 40.5942C37.5051 40.5942 37.5578 40.592 37.6105 40.5898C37.6807 40.5876 37.751 40.5855 37.8213 40.5811C37.9069 40.5789 37.9904 40.5745 38.076 40.5701C38.1156 40.5679 38.1529 40.5657 38.1902 40.5635C38.2671 40.5591 38.3396 40.5547 38.4164 40.5503C38.4779 40.5459 38.5416 40.5415 38.6031 40.5349C38.658 40.5305 38.7151 40.5262 38.7722 40.5218C38.8403 40.5152 38.9127 40.5086 38.9808 40.502C39.016 40.4976 39.0511 40.4954 39.0862 40.491C39.1433 40.4844 39.1982 40.4778 39.2553 40.4713C39.3476 40.4625 39.4398 40.4493 39.5299 40.4361C39.5606 40.4317 39.5891 40.4295 39.6199 40.4251C39.6287 40.4229 39.6353 40.4229 39.6462 40.4207C39.8219 40.3988 39.991 40.3702 40.1623 40.3395C40.1909 40.3351 40.2194 40.3307 40.248 40.3263C40.3248 40.3131 40.3973 40.2978 40.472 40.2846C40.5225 40.2758 40.5752 40.2648 40.6257 40.2538C40.6718 40.2451 40.7157 40.2363 40.7619 40.2253C40.8409 40.2099 40.9178 40.1902 40.9968 40.1748C41.0342 40.166 41.0737 40.1594 41.1088 40.1462C41.1637 40.1353 41.2186 40.1199 41.2757 40.1067C41.3548 40.0891 41.4317 40.0694 41.5085 40.0496C41.5283 40.0452 41.5503 40.0386 41.57 40.0342C41.6249 40.0211 41.682 40.0035 41.7369 39.9881C41.7523 39.9859 41.7677 39.9815 41.783 39.9771C41.8599 39.9574 41.9346 39.9332 42.0114 39.9134C42.0576 39.9003 42.1015 39.8849 42.1454 39.8717C42.1915 39.8585 42.2376 39.8432 42.2816 39.83C42.3496 39.8102 42.4155 39.7861 42.4814 39.7663C42.4968 39.7597 42.5165 39.7553 42.5319 39.7487C42.5956 39.729 42.6593 39.707 42.7208 39.6851C42.723 39.6851 42.723 39.6851 42.723 39.6851C42.8042 39.6565 42.8833 39.6301 42.9623 39.5994C42.9953 39.5862 43.0282 39.5731 43.0612 39.5621C43.0722 39.5577 43.0809 39.5533 43.0941 39.5489C43.2127 39.505 43.3335 39.4567 43.4477 39.4061C43.5026 39.3864 43.5553 39.3622 43.608 39.3403C43.6102 39.3403 43.6102 39.3381 43.6124 39.3381C43.6607 39.3183 43.7068 39.2963 43.7529 39.2766C43.8913 39.2151 44.0296 39.1492 44.1614 39.0833C44.2097 39.0614 44.258 39.035 44.3042 39.013C44.3064 39.0109 44.3086 39.0109 44.3107 39.0087C44.3788 38.9735 44.4491 38.9384 44.5172 38.901C44.5567 38.8813 44.5962 38.8593 44.6336 38.8396C44.6951 38.8044 44.7587 38.7693 44.8202 38.7341C44.8642 38.7078 44.9059 38.6836 44.9498 38.6551C45.0464 38.598 45.1365 38.5409 45.2287 38.4794C45.2441 38.4706 45.2617 38.4618 45.277 38.4487C45.3363 38.4091 45.3956 38.3674 45.4549 38.3301C45.5164 38.2861 45.5823 38.2422 45.6416 38.1983C45.6987 38.1566 45.7514 38.1148 45.8063 38.0731C45.8634 38.0292 45.9205 37.9831 45.9798 37.937C46.0325 37.8952 46.0808 37.8535 46.1313 37.8096C46.1862 37.7635 46.2389 37.7174 46.2916 37.6712C46.3509 37.6163 46.4058 37.5636 46.4651 37.5109C46.4695 37.5043 46.4761 37.4999 46.4805 37.4955C46.4937 37.4824 46.5112 37.467 46.5244 37.4538C46.6057 37.3726 46.6825 37.2935 46.7572 37.2123C46.7682 37.1991 46.7835 37.1837 46.7967 37.1683C46.8011 37.1639 46.8033 37.1595 46.8077 37.1552C46.8692 37.0871 46.9285 37.0146 46.9878 36.9443C47.001 36.9312 47.0141 36.9136 47.0273 36.8982C47.0581 36.8609 47.0822 36.8213 47.1108 36.7862C47.1635 36.7203 47.2118 36.6522 47.2579 36.5864C47.2711 36.5688 47.2843 36.5468 47.2952 36.5293C47.315 36.4985 47.3348 36.47 47.3523 36.4392C47.3897 36.3843 47.4226 36.3294 47.4556 36.2723C47.4709 36.2438 47.4885 36.2174 47.5017 36.1889C47.5192 36.1559 47.539 36.1252 47.5544 36.0922C47.5741 36.0527 47.5961 36.011 47.6159 35.9737C47.6378 35.9275 47.6598 35.8792 47.6796 35.8331C47.7059 35.7782 47.7279 35.7233 47.7498 35.6662C47.7674 35.6201 47.7872 35.5718 47.8025 35.5235C47.8223 35.4708 47.8399 35.418 47.8574 35.3653C47.8684 35.3214 47.8838 35.2775 47.8948 35.2358C47.897 35.227 47.8992 35.2182 47.9014 35.2094C47.9145 35.1589 47.9277 35.1062 47.9387 35.0557C47.9497 35.0074 47.9607 34.9591 47.9694 34.9107C47.9804 34.8536 47.987 34.7987 47.998 34.7438C48.0024 34.7043 48.009 34.6648 48.0134 34.6275C48.0134 34.6077 48.0156 34.5879 48.0177 34.5704C48.0221 34.5242 48.0243 34.4803 48.0265 34.4342C48.0265 34.4166 48.0265 34.3969 48.0287 34.3815C48.0287 34.3793 48.0287 34.3793 48.0287 34.3771C48.0309 34.331 48.0331 34.2849 48.0375 34.2409Z" fill="url(#paint0_linear)"/>
<path d="M44.7752 29.6776C40.4445 27.1784 33.4477 27.1784 29.1456 29.6776C24.8435 32.1767 24.8676 36.2307 29.1983 38.7299C33.5268 41.229 40.5258 41.229 44.8257 38.7299C49.1278 36.2307 49.1037 32.1789 44.7752 29.6776Z" fill="url(#paint1_linear)"/>
<path d="M37.0196 39.1294C34.3887 39.1294 31.8368 38.5255 30.0163 37.4736C28.4658 36.5776 27.5764 35.44 27.5742 34.3485C27.572 33.2703 28.4461 32.1437 29.968 31.2586C31.7753 30.2089 34.3206 29.605 36.9471 29.605C39.5781 29.605 42.1299 30.2089 43.9527 31.2608C45.5031 32.1546 46.3925 33.2944 46.3947 34.3837C46.3969 35.462 45.5229 36.5886 43.9988 37.4736C42.1914 38.5277 39.6483 39.1294 37.0196 39.1294C37.0196 39.1294 37.0218 39.1294 37.0196 39.1294Z" fill="url(#paint2_linear)"/>
<path d="M37 36.4414C35.8536 36.4414 34.7424 36.1779 33.9496 35.7211C33.2732 35.3302 32.8867 34.836 32.8867 34.3595C32.8867 33.8895 33.2666 33.3998 33.9299 33.0133C34.7183 32.5565 35.8251 32.293 36.9693 32.293C38.1156 32.293 39.2268 32.5565 40.0196 33.0133C40.6938 33.402 41.0825 33.8983 41.0825 34.3727C41.0825 34.8426 40.7026 35.3324 40.0394 35.7189C39.2532 36.1801 38.1442 36.4414 37 36.4414Z" fill="url(#paint3_linear)"/>
<path d="M29.968 31.2608C31.7753 30.2111 34.3206 29.6072 36.9471 29.6072C39.5781 29.6072 42.1299 30.2111 43.9527 31.263C45.3867 32.0909 46.2542 33.1275 46.3772 34.1421C46.3881 34.0586 46.3947 33.9774 46.3947 33.8939C46.3925 32.8047 45.5031 31.6649 43.9527 30.7711C42.1299 29.7192 39.5781 29.1152 36.9471 29.1152C34.3184 29.1152 31.7753 29.717 29.968 30.7689C28.4439 31.6539 27.572 32.7805 27.5742 33.8588C27.5742 33.9401 27.5808 34.0213 27.5918 34.1026C27.7104 33.1011 28.5603 32.0778 29.968 31.2608Z" fill="url(#paint4_linear)"/>
<path opacity="0.39" d="M29.1942 39.2481C33.5227 41.8658 40.5217 41.8658 44.8216 39.2481C46.9628 37.9458 48.0323 36.2395 48.0323 34.5309V34.4936C48.0323 34.454 48.0279 34.4145 48.0279 34.375C48.0257 34.3947 48.0257 34.4123 48.0257 34.4321C48.0235 34.487 48.0191 34.5441 48.0147 34.599C48.0103 34.6473 48.0037 34.6956 47.9972 34.7439C47.9884 34.7988 47.9818 34.8537 47.9708 34.9108C47.962 34.9591 47.951 35.0074 47.9401 35.0558C47.9269 35.1107 47.9159 35.1634 47.9005 35.2161C47.8874 35.2644 47.872 35.3127 47.8588 35.3632C47.8412 35.4159 47.8237 35.4708 47.8061 35.5235C47.7885 35.5718 47.771 35.618 47.7512 35.6663C47.7292 35.7234 47.7051 35.7783 47.6809 35.8332C47.659 35.8793 47.6392 35.9254 47.615 35.9737C47.5887 36.0286 47.5601 36.0835 47.5294 36.1384C47.5052 36.1824 47.4811 36.2285 47.4547 36.2724C47.4174 36.3383 47.3757 36.4042 47.3339 36.4678C47.3076 36.5074 47.2834 36.5469 47.2571 36.5864C47.2088 36.6589 47.1539 36.7292 47.1012 36.7995C47.0748 36.8324 47.0528 36.8653 47.0265 36.8983C47.0133 36.9137 47.0023 36.929 46.9892 36.9444C46.9321 37.0147 46.8706 37.085 46.8091 37.1552C46.7915 37.175 46.7761 37.1926 46.7586 37.2123C46.6839 37.2936 46.607 37.3726 46.528 37.4517C46.5126 37.4671 46.4972 37.4802 46.484 37.4956C46.4226 37.5549 46.3589 37.612 46.2952 37.6713C46.2425 37.7174 46.1898 37.7635 46.1349 37.8097C46.0844 37.8514 46.0338 37.8953 45.9833 37.937C45.9262 37.9832 45.8691 38.0271 45.8098 38.0732C45.7549 38.1149 45.7022 38.1544 45.6451 38.1962C45.5836 38.2401 45.5222 38.284 45.4585 38.3279C45.4014 38.3675 45.3421 38.407 45.2828 38.4465C45.2169 38.4904 45.151 38.5322 45.0829 38.5739C44.9973 38.6266 44.9138 38.6793 44.826 38.7298C44.6613 38.8265 44.49 38.9165 44.3165 39.0043C44.266 39.0307 44.2155 39.0548 44.165 39.079C44.031 39.1449 43.8949 39.2108 43.7565 39.2723C43.7104 39.2942 43.6643 39.314 43.616 39.3359C43.4359 39.415 43.2514 39.4897 43.0647 39.5599C43.0318 39.5731 42.9988 39.5841 42.9659 39.5951C42.8078 39.6544 42.6475 39.7093 42.485 39.7642C42.4191 39.7861 42.351 39.8081 42.2851 39.8279C42.1951 39.8564 42.1072 39.8828 42.0172 39.9091C41.9403 39.9311 41.8657 39.953 41.7888 39.975C41.6988 40.0014 41.6065 40.0255 41.5143 40.0475C41.4374 40.0672 41.3584 40.087 41.2815 40.1068C41.1893 40.1287 41.0948 40.1507 41.0004 40.1727C40.9235 40.1902 40.8445 40.2078 40.7654 40.2232C40.671 40.2429 40.5744 40.2605 40.4777 40.2803C40.4031 40.2934 40.3284 40.3088 40.2537 40.322C40.0473 40.3593 39.8387 40.3923 39.6278 40.4208C39.5993 40.4252 39.5686 40.4274 39.5378 40.4318C39.3555 40.456 39.1711 40.4779 38.9866 40.4977C38.9163 40.5043 38.846 40.5109 38.7758 40.5174C38.6572 40.5284 38.5386 40.5372 38.42 40.546C38.3453 40.5526 38.2707 40.557 38.196 40.5614C38.073 40.568 37.95 40.5745 37.8249 40.5789C37.7546 40.5811 37.6843 40.5855 37.614 40.5877C37.5064 40.5921 37.3988 40.5921 37.2912 40.5943C37.2165 40.5943 37.1397 40.5965 37.065 40.5965C36.9486 40.5965 36.8344 40.5943 36.718 40.5921C36.6499 40.5921 36.5819 40.5921 36.516 40.5899C36.4106 40.5877 36.303 40.5811 36.1976 40.5767C36.1251 40.5745 36.0526 40.5723 35.9779 40.568C35.8637 40.5614 35.7495 40.5526 35.6375 40.5438C35.5717 40.5394 35.508 40.535 35.4421 40.5306C35.3037 40.5196 35.1676 40.5043 35.0292 40.4911C34.9897 40.4867 34.9502 40.4845 34.9084 40.4801C34.7328 40.4603 34.5549 40.4384 34.3814 40.4142C34.3528 40.4098 34.3221 40.4054 34.2935 40.4011C34.1442 40.3791 33.9949 40.3571 33.8477 40.3308C33.784 40.3198 33.7226 40.3066 33.6611 40.2956C33.5469 40.2737 33.4327 40.2539 33.3207 40.2298C33.2614 40.2166 33.2021 40.2034 33.145 40.1902C33.0198 40.1639 32.8968 40.1353 32.7716 40.1068C32.7036 40.0914 32.6355 40.0738 32.5674 40.0563C32.4554 40.0277 32.3434 39.9992 32.2314 39.9684C32.1677 39.9509 32.1062 39.9333 32.0425 39.9135C31.8669 39.863 31.6912 39.8081 31.5199 39.751C31.4891 39.74 31.4584 39.7312 31.4276 39.7225C31.23 39.6544 31.0345 39.5841 30.8435 39.5094C30.7644 39.4787 30.6876 39.4479 30.6107 39.415C30.5492 39.3908 30.4877 39.3645 30.4284 39.3381C30.3406 39.3008 30.2571 39.2613 30.1715 39.2239C30.1166 39.1976 30.0595 39.1734 30.0046 39.1471C29.9123 39.1032 29.8201 39.057 29.7279 39.0109C29.6817 38.989 29.6356 38.967 29.5917 38.9428C29.4577 38.8726 29.3238 38.8001 29.1942 38.7232C27.0838 37.5044 25.9989 35.9188 25.9374 34.3223C25.8715 36.1033 26.9542 37.8931 29.1942 39.2481Z" fill="url(#paint5_linear)"/>
<path d="M46.7955 37.1709V40.2498C46.7801 40.2696 46.7603 40.2894 46.745 40.3069C46.6703 40.3882 46.5934 40.4672 46.5122 40.5485C46.499 40.5617 46.4814 40.577 46.4683 40.5902C46.4661 40.5924 46.4661 40.5924 46.4639 40.5946V37.5135C46.4683 37.5069 46.4748 37.5025 46.4792 37.4981C46.4924 37.4849 46.51 37.4696 46.5232 37.4564C46.6044 37.3751 46.6813 37.2961 46.7559 37.2148C46.7691 37.1994 46.7823 37.1863 46.7955 37.1709Z" fill="url(#paint6_linear)"/>
<path d="M44.3047 39.0111V42.0966C44.4167 42.0417 44.5287 41.9824 44.6363 41.921V38.8354L44.3047 39.0111Z" fill="url(#paint7_linear)"/>
<path d="M64.629 35.8395L60.3225 34.6646L60.3115 38.4243L64.6181 39.5992L69.7943 41.0113L69.803 37.2515L64.629 35.8395Z" fill="url(#paint8_linear)"/>
<path d="M69.9978 35.207L69.9868 38.9667C69.9868 39.0656 69.9846 39.1622 69.9824 39.261L69.9934 35.5013C69.9956 35.4047 69.9956 35.3059 69.9978 35.207Z" fill="#949494"/>
<path d="M69.9918 35.5015L69.9809 39.2612C69.9633 39.8453 69.9018 40.4295 69.792 41.0115L69.803 37.2517C69.9128 36.6698 69.9765 36.0856 69.9918 35.5015Z" fill="#999999"/>
<path d="M22.7006 24.3979L22.6896 28.1577L15.6182 28.7462L15.6291 24.9865L22.7006 24.3979Z" fill="url(#paint9_linear)"/>
<path d="M53.4616 25.5487C45.0506 20.6931 31.8235 20.311 22.6965 24.3979L22.6855 28.1576C31.8125 24.0707 45.0396 24.4528 53.4506 29.3084C57.8186 31.8295 60.1092 35.1104 60.3134 38.4244L60.3244 34.6646C60.1201 31.3507 57.8296 28.0698 53.4616 25.5487Z" fill="url(#paint10_linear)"/>
<path d="M53.4656 25.5487C45.0546 20.6932 31.8275 20.311 22.7006 24.398L15.627 24.9887L15.7192 20.4582C28.6432 14.1576 48.0545 14.5353 60.2735 21.5914C67.6722 25.8628 70.8543 31.6692 69.809 37.2517L64.635 35.8396L60.3284 34.6647C60.1242 31.3508 57.8337 28.0698 53.4656 25.5487Z" fill="url(#paint11_linear)"/>
<path opacity="0.4" d="M22.6984 24.3978L17.7901 24.1035C17.1466 24.064 16.5976 23.6226 16.4263 23.0011L15.7192 20.458L15.627 24.9885L22.6984 24.3978Z" fill="url(#paint12_linear)"/>
<path d="M4.00004 38.7783L4.01102 35.0186C3.99784 39.9466 7.24147 44.8812 13.7397 48.6321C25.8336 55.6135 44.9704 56.0571 57.8878 49.963L57.8768 53.7227C44.9594 59.8168 25.8226 59.3754 13.7287 52.3918C7.23049 48.6409 3.98686 43.7063 4.00004 38.7783Z" fill="url(#paint13_linear)"/>
<path d="M58.0785 45.4738L57.8809 49.9626C44.9634 56.059 25.8267 55.6154 13.735 48.634C10.4914 46.7607 8.05811 44.5932 6.43739 42.2785C4.35769 39.3138 3.61321 36.1097 4.19957 32.9736L13.6801 35.5606C13.8843 38.8745 16.1749 42.1533 20.5451 44.6766C28.9561 49.5322 42.181 49.9143 51.308 45.8274L58.0785 45.4738Z" fill="url(#paint14_linear)"/>
<path d="M58.0853 45.4736L58.1622 50.2413L57.8877 53.8891V49.9624L58.0853 45.4736Z" fill="url(#paint15_linear)"/>
<path d="M6.14922 40.0956L6.4413 42.2785C4.3616 39.3138 3.61712 36.1097 4.20348 32.9736L13.684 35.5606L10.6205 35.341C7.96099 35.1522 5.79784 37.4515 6.14922 40.0956Z" fill="url(#paint16_linear)"/>
<defs>
<linearGradient id="paint0_linear" x1="25.9224" y1="38.9411" x2="48.0364" y2="38.9411" gradientUnits="userSpaceOnUse">
<stop stop-color="#3922AA"/>
<stop offset="1" stop-color="#7F3DFF"/>
</linearGradient>
<linearGradient id="paint1_linear" x1="36.9853" y1="40.695" x2="36.9853" y2="27.7107" gradientUnits="userSpaceOnUse">
<stop stop-color="#DBDFFF"/>
<stop offset="0.7834" stop-color="#8B97FF"/>
<stop offset="1" stop-color="#B2BAFF"/>
</linearGradient>
<linearGradient id="paint2_linear" x1="36.9841" y1="28.7729" x2="36.9841" y2="39.6558" gradientUnits="userSpaceOnUse">
<stop stop-color="#8E52FF"/>
<stop offset="1" stop-color="#D6BFFF"/>
</linearGradient>
<linearGradient id="paint3_linear" x1="36.9842" y1="31.9314" x2="36.9842" y2="36.6716" gradientUnits="userSpaceOnUse">
<stop stop-color="#DBDFFF"/>
<stop offset="0.7834" stop-color="#8B97FF"/>
<stop offset="1" stop-color="#B2BAFF"/>
</linearGradient>
<linearGradient id="paint4_linear" x1="27.5735" y1="31.629" x2="46.3946" y2="31.629" gradientUnits="userSpaceOnUse">
<stop stop-color="#2E007F"/>
<stop offset="1" stop-color="#7052C8"/>
</linearGradient>
<linearGradient id="paint5_linear" x1="36.9846" y1="42.536" x2="36.9846" y2="36.1292" gradientUnits="userSpaceOnUse">
<stop stop-color="white"/>
<stop offset="1" stop-color="white" stop-opacity="0"/>
</linearGradient>
<linearGradient id="paint6_linear" x1="46.5998" y1="37.3243" x2="46.6598" y2="40.3833" gradientUnits="userSpaceOnUse">
<stop stop-color="#722AFF" stop-opacity="0"/>
<stop offset="1" stop-color="#A06AFF"/>
</linearGradient>
<linearGradient id="paint7_linear" x1="44.4419" y1="38.984" x2="44.499" y2="41.8968" gradientUnits="userSpaceOnUse">
<stop stop-color="#722AFF" stop-opacity="0"/>
<stop offset="1" stop-color="#A06AFF"/>
</linearGradient>
<linearGradient id="paint8_linear" x1="60.3116" y1="37.8383" x2="69.804" y2="37.8383" gradientUnits="userSpaceOnUse">
<stop stop-color="#8E52FF"/>
<stop offset="1" stop-color="#D6BFFF"/>
</linearGradient>
<linearGradient id="paint9_linear" x1="15.8902" y1="32.3388" x2="20.5346" y2="24.1459" gradientUnits="userSpaceOnUse">
<stop stop-color="#7583FF"/>
<stop offset="1" stop-color="#DBDFFF"/>
</linearGradient>
<linearGradient id="paint10_linear" x1="22.6861" y1="30.0095" x2="60.3241" y2="30.0095" gradientUnits="userSpaceOnUse">
<stop stop-color="#3922AA"/>
<stop offset="1" stop-color="#7F3DFF"/>
</linearGradient>
<linearGradient id="paint11_linear" x1="15.6283" y1="26.6262" x2="70.0036" y2="26.6262" gradientUnits="userSpaceOnUse">
<stop stop-color="#7583FF"/>
<stop offset="1" stop-color="#DBDFFF"/>
</linearGradient>
<linearGradient id="paint12_linear" x1="18.5317" y1="22.8383" x2="15.4397" y2="24.717" gradientUnits="userSpaceOnUse">
<stop stop-color="#A9B1FF" stop-opacity="0"/>
<stop offset="0.1842" stop-color="#B1B8FF" stop-opacity="0.1842"/>
<stop offset="0.4649" stop-color="#C6CBFF" stop-opacity="0.4649"/>
<stop offset="0.8054" stop-color="#E8EAFF" stop-opacity="0.8054"/>
<stop offset="1" stop-color="white"/>
</linearGradient>
<linearGradient id="paint13_linear" x1="1.73464" y1="42.6602" x2="58.1981" y2="56.75" gradientUnits="userSpaceOnUse">
<stop stop-color="#7F3DFF"/>
<stop offset="1" stop-color="#7583FF"/>
</linearGradient>
<linearGradient id="paint14_linear" x1="4.00579" y1="43.5985" x2="58.0785" y2="43.5985" gradientUnits="userSpaceOnUse">
<stop stop-color="#7583FF"/>
<stop offset="1" stop-color="#DBDFFF"/>
</linearGradient>
<linearGradient id="paint15_linear" x1="57.8879" y1="49.6811" x2="58.1628" y2="49.6811" gradientUnits="userSpaceOnUse">
<stop stop-color="#7583FF"/>
<stop offset="1" stop-color="#DBDFFF"/>
</linearGradient>
<linearGradient id="paint16_linear" x1="10.9601" y1="39.5264" x2="-4.06903" y2="29.3505" gradientUnits="userSpaceOnUse">
<stop stop-color="#A9B1FF" stop-opacity="0"/>
<stop offset="0.1842" stop-color="#B1B8FF" stop-opacity="0.1842"/>
<stop offset="0.4649" stop-color="#C6CBFF" stop-opacity="0.4649"/>
<stop offset="0.8054" stop-color="#E8EAFF" stop-opacity="0.8054"/>
<stop offset="1" stop-color="white"/>
</linearGradient>
</defs>
</svg>
