<?xml version="1.0" encoding="utf-8"?>
<!-- Generator: Adobe Illustrator 25.2.3, SVG Export Plug-In . SVG Version: 6.00 Build 0)  -->
<svg version="1.1" id="Layer_1" xmlns="http://www.w3.org/2000/svg" xmlns:xlink="http://www.w3.org/1999/xlink" x="0px" y="0px"
	 viewBox="0 0 77 75" style="enable-background:new 0 0 77 75;" xml:space="preserve">
<style type="text/css">
	.st0{fill:url(#SVGID_1_);}
	.st1{fill:url(#SVGID_2_);}
	.st2{fill:url(#SVGID_3_);}
	.st3{fill:url(#SVGID_4_);}
	.st4{fill:url(#SVGID_5_);}
	.st5{fill:url(#SVGID_6_);}
</style>
<g>
	
		<linearGradient id="SVGID_1_" gradientUnits="userSpaceOnUse" x1="38.5" y1="17.9179" x2="38.5" y2="-7.4701" gradientTransform="matrix(1 0 0 1 0 56)">
		<stop  offset="0" style="stop-color:#FFFFFF"/>
		<stop  offset="1" style="stop-color:#C6CBFF"/>
	</linearGradient>
	<path class="st0" d="M38.1,73.5c-6.8,0-13.9-0.3-20.7-2c-2.3-0.6-4.5-1.4-6.8-2.4c-3.3-1.6-4.3-4.3-3.1-7.8
		c0.6-1.9,1.4-3.7,2.3-5.5c2.2-4.4,5.9-6.8,10.8-7.1c1.6-0.1,3.4-0.2,5-0.3c0.2,0,0.6,0.1,0.6,0.2c0.8,1.4,2.2,2.3,3.7,2.8
		c5.6,2.1,11.3,2.1,17,0c1.5-0.6,2.8-1.4,3.7-2.9c0.1-0.1,0.3-0.2,0.6-0.2c2.4,0.2,4.9,0.5,7.3,0.8c3,0.5,5.4,2,7.1,4.4
		c2,2.6,3.3,5.6,4.1,8.7c0.7,2.6-0.3,4.9-2.6,6.4c-2.6,1.7-5.5,2.4-8.4,3.1C52.1,73.2,45.2,73.5,38.1,73.5z"/>
	
		<linearGradient id="SVGID_2_" gradientUnits="userSpaceOnUse" x1="38.4649" y1="-7.4291" x2="38.4649" y2="-48.6267" gradientTransform="matrix(1 0 0 1 0 56)">
		<stop  offset="0" style="stop-color:#FFFFFF"/>
		<stop  offset="1" style="stop-color:#C6CBFF"/>
	</linearGradient>
	<path class="st1" d="M50.6,39.5c-2.7,4.1-5.8,7.5-10.8,8.3c-2.6,0.5-5-0.3-7.1-1.7c-3.6-2.3-6.1-5.7-7.9-9.6
		c-0.1-0.2-0.2-0.5-0.3-0.7c-0.5-0.8-0.6-1.5-0.1-2.3c0.3-0.6,0.3-1.4,0.3-2.1c0-2.1,0-4.3,0-6.4c0-1.5-0.5-2.9-1.5-4.1
		C23,20.7,22.9,20.2,23,20c1.2-7.5,7.8-13,15.5-13c7.6,0,14.2,5.6,15.4,13c0,0.3-0.1,0.7-0.2,0.9c-0.9,1.2-1.4,2.4-1.4,4
		c0,2.1,0,4.2,0,6.3c0,0.6-0.1,0.8-0.7,1c-1.3,0.3-2.6,0.8-3.8,1.2c-0.2,0.1-0.6,0-0.8-0.1c-2-1-4.1-0.8-6.2-0.5
		c-2.1,0.3-3.4,2.3-3.1,4.3c0.1,2.3,1.9,4,4.1,4c1,0,2.1,0.1,3.1,0c0.7-0.1,1.4-0.2,2-0.6C47.8,40,49,39.6,50.6,39.5z"/>
	
		<linearGradient id="SVGID_3_" gradientUnits="userSpaceOnUse" x1="38.3346" y1="-16.2377" x2="38.3346" y2="-54.0517" gradientTransform="matrix(1 0 0 1 0 56)">
		<stop  offset="0" style="stop-color:#FFFFFF"/>
		<stop  offset="1" style="stop-color:#C6CBFF"/>
	</linearGradient>
	<path class="st2" d="M15.4,28.2c0-1.2,0-2.3,0-3.5c0-1,0.3-2,1.3-2.6c0.7-0.5,0.7-0.9,0.8-1.6c0.9-7.9,5.1-13.7,12.3-17.1
		c12.9-5.9,28.1,2.8,29.5,17c0.1,0.7,0.2,1.3,0.8,1.7c0.8,0.6,1.2,1.5,1.2,2.6c0,2.3,0,4.7,0,7c0,2.6-2.4,4.2-4.8,3.3
		c-0.6-0.2-0.9-0.1-1.5,0.2c-2.4,1.6-5.2,2.3-8.2,2.7c-0.3,0-0.7,0.2-0.9,0.5c-0.6,0.6-1.4,0.8-2.2,0.8c-0.7,0-1.4,0-2.1,0
		c-1.2,0-2-0.7-2.1-1.7c-0.1-1.3,0.5-2.2,1.6-2.3c1.2-0.1,2.3,0,3.5,0c0.2,0,0.6,0.1,0.7,0.2c0.6,0.7,1.4,0.6,2.1,0.5
		c2.2-0.3,4.3-1,6.2-2.2c0.5-0.2,0.7-0.5,0.5-1C54,32.5,54,32.2,54,32c0-2.3,0-4.7,0-7c0-1,0.5-2,1.4-2.7c0.5-0.3,0.6-0.7,0.6-1.2
		C55.5,13,49.4,6.4,41.7,5C31.5,3.1,22,10.1,20.6,20.6c-0.1,0.6,0,1,0.6,1.5c0.9,0.6,1.3,1.5,1.3,2.6c0,2.4,0,4.8,0,7.2
		c0,1.4-1.3,2.9-2.6,3.3c-1.6,0.5-3.1-0.1-4-1.6c-0.3-0.6-0.5-1.4-0.6-2.1C15.3,30.4,15.4,29.2,15.4,28.2z"/>
</g>
<g>
	
		<linearGradient id="SVGID_4_" gradientUnits="userSpaceOnUse" x1="-58.5401" y1="-223.4428" x2="-52.8566" y2="-205.5433" gradientTransform="matrix(1 0 0 -1 -296 -310)">
		<stop  offset="0" style="stop-color:#FFFFFF"/>
		<stop  offset="1" style="stop-color:#C6CBFF"/>
	</linearGradient>
	<path class="st3" d="M-352.8-84.8c-5.8,0-11.9-0.3-17.8-1.7c-2-0.5-3.9-1.2-5.8-2.1c-2.8-1.4-3.7-3.7-2.7-6.7
		c0.5-1.6,1.2-3.2,2-4.7c1.9-3.8,5.1-5.8,9.3-6.1c1.4-0.1,2.9-0.2,4.3-0.3c0.2,0,0.5,0.1,0.5,0.2c0.7,1.2,1.9,2,3.2,2.4
		c4.8,1.8,9.7,1.8,14.6,0c1.3-0.5,2.4-1.2,3.2-2.5c0.1-0.1,0.3-0.2,0.5-0.2c2.1,0.2,4.2,0.4,6.3,0.7c2.6,0.4,4.6,1.7,6.1,3.8
		c1.7,2.2,2.8,4.8,3.5,7.5c0.6,2.2-0.3,4.2-2.2,5.5c-2.2,1.5-4.7,2.1-7.2,2.7C-340.8-85.1-346.7-84.8-352.8-84.8z"/>
	
		<linearGradient id="SVGID_5_" gradientUnits="userSpaceOnUse" x1="-64.8879" y1="-192.7961" x2="-48.9196" y2="-177.5871" gradientTransform="matrix(1 0 0 -1 -296 -310)">
		<stop  offset="0" style="stop-color:#FFFFFF"/>
		<stop  offset="1" style="stop-color:#C6CBFF"/>
	</linearGradient>
	<path class="st4" d="M-342.1-114c-2.3,3.5-5,6.4-9.3,7.1c-2.2,0.4-4.3-0.3-6.1-1.5c-3.1-2-5.2-4.9-6.8-8.2
		c-0.1-0.2-0.2-0.4-0.3-0.6c-0.4-0.7-0.5-1.3-0.1-2c0.3-0.5,0.3-1.2,0.3-1.8c0-1.8,0-3.7,0-5.5c0-1.3-0.4-2.5-1.3-3.5
		c-0.2-0.2-0.3-0.6-0.2-0.8c1-6.4,6.7-11.2,13.3-11.2c6.5,0,12.2,4.8,13.2,11.2c0,0.3-0.1,0.6-0.2,0.8c-0.8,1-1.2,2.1-1.2,3.4
		c0,1.8,0,3.6,0,5.4c0,0.5-0.1,0.7-0.6,0.9c-1.1,0.3-2.2,0.7-3.3,1c-0.2,0.1-0.5,0-0.7-0.1c-1.7-0.9-3.5-0.7-5.3-0.4
		c-1.8,0.3-2.9,2-2.7,3.7c0.1,2,1.6,3.4,3.5,3.4c0.9,0,1.8,0.1,2.7,0c0.6-0.1,1.2-0.2,1.7-0.5C-344.5-113.6-343.4-113.9-342.1-114z"
		/>
	
		<linearGradient id="SVGID_6_" gradientUnits="userSpaceOnUse" x1="-60.9704" y1="-191.2528" x2="-47.5734" y2="-170.5911" gradientTransform="matrix(1 0 0 -1 -296 -310)">
		<stop  offset="0" style="stop-color:#FFFFFF"/>
		<stop  offset="1" style="stop-color:#C6CBFF"/>
	</linearGradient>
	<path class="st5" d="M-372.3-123.7c0-1,0-2,0-3c0-0.9,0.3-1.7,1.1-2.2c0.6-0.4,0.6-0.8,0.7-1.4c0.8-6.8,4.4-11.8,10.6-14.7
		c11.1-5.1,24.1,2.4,25.3,14.6c0.1,0.6,0.2,1.1,0.7,1.5c0.7,0.5,1,1.3,1,2.2c0,2,0,4,0,6c0,2.2-2.1,3.6-4.1,2.8
		c-0.5-0.2-0.8-0.1-1.3,0.2c-2.1,1.4-4.5,2-7,2.3c-0.3,0-0.6,0.2-0.8,0.4c-0.5,0.5-1.2,0.7-1.9,0.7c-0.6,0-1.2,0-1.8,0
		c-1,0-1.7-0.6-1.8-1.5c-0.1-1.1,0.4-1.9,1.4-2c1-0.1,2,0,3,0c0.2,0,0.5,0.1,0.6,0.2c0.5,0.6,1.2,0.5,1.8,0.4
		c1.9-0.3,3.7-0.9,5.3-1.9c0.4-0.2,0.6-0.4,0.4-0.9c-0.1-0.2-0.1-0.4-0.1-0.6c0-2,0-4,0-6c0-0.9,0.4-1.7,1.2-2.3
		c0.4-0.3,0.5-0.6,0.5-1c-0.4-6.8-5.6-12.5-12.2-13.7c-8.8-1.6-16.9,4.4-18.1,13.4c-0.1,0.5,0,0.9,0.5,1.3c0.8,0.5,1.1,1.3,1.1,2.2
		c0,2.1,0,4.1,0,6.2c0,1.2-1.1,2.5-2.2,2.8c-1.4,0.4-2.7-0.1-3.4-1.4c-0.3-0.5-0.4-1.2-0.5-1.8
		C-372.4-121.8-372.3-122.8-372.3-123.7z"/>
</g>
</svg>
