<?xml version="1.0" encoding="utf-8"?>
<!-- Generator: Adobe Illustrator 25.2.3, SVG Export Plug-In . SVG Version: 6.00 Build 0)  -->
<svg version="1.1" id="Layer_1" xmlns="http://www.w3.org/2000/svg" xmlns:xlink="http://www.w3.org/1999/xlink" x="0px" y="0px"
	 viewBox="0 0 77 75" style="enable-background:new 0 0 77 75;" xml:space="preserve">
<style type="text/css">
	.st0{fill:url(#SVGID_1_);}
	.st1{fill:url(#SVGID_2_);}
	.st2{fill:url(#SVGID_3_);}
	.st3{fill:url(#SVGID_4_);}
</style>
<g>
	
		<linearGradient id="SVGID_1_" gradientUnits="userSpaceOnUse" x1="-58.5401" y1="-223.4428" x2="-52.8566" y2="-205.5433" gradientTransform="matrix(1 0 0 -1 -296 -310)">
		<stop  offset="0" style="stop-color:#FFFFFF"/>
		<stop  offset="1" style="stop-color:#C6CBFF"/>
	</linearGradient>
	<path class="st0" d="M-352.8-84.8c-5.8,0-11.9-0.3-17.8-1.7c-2-0.5-3.9-1.2-5.8-2.1c-2.8-1.4-3.7-3.7-2.7-6.7
		c0.5-1.6,1.2-3.2,2-4.7c1.9-3.8,5.1-5.8,9.3-6.1c1.4-0.1,2.9-0.2,4.3-0.3c0.2,0,0.5,0.1,0.5,0.2c0.7,1.2,1.9,2,3.2,2.4
		c4.8,1.8,9.7,1.8,14.6,0c1.3-0.5,2.4-1.2,3.2-2.5c0.1-0.1,0.3-0.2,0.5-0.2c2.1,0.2,4.2,0.4,6.3,0.7c2.6,0.4,4.6,1.7,6.1,3.8
		c1.7,2.2,2.8,4.8,3.5,7.5c0.6,2.2-0.3,4.2-2.2,5.5c-2.2,1.5-4.7,2.1-7.2,2.7C-340.8-85.1-346.7-84.8-352.8-84.8z"/>
	
		<linearGradient id="SVGID_2_" gradientUnits="userSpaceOnUse" x1="-64.8879" y1="-192.7961" x2="-48.9196" y2="-177.5871" gradientTransform="matrix(1 0 0 -1 -296 -310)">
		<stop  offset="0" style="stop-color:#FFFFFF"/>
		<stop  offset="1" style="stop-color:#C6CBFF"/>
	</linearGradient>
	<path class="st1" d="M-342.1-114c-2.3,3.5-5,6.4-9.3,7.1c-2.2,0.4-4.3-0.3-6.1-1.5c-3.1-2-5.2-4.9-6.8-8.2
		c-0.1-0.2-0.2-0.4-0.3-0.6c-0.4-0.7-0.5-1.3-0.1-2c0.3-0.5,0.3-1.2,0.3-1.8c0-1.8,0-3.7,0-5.5c0-1.3-0.4-2.5-1.3-3.5
		c-0.2-0.2-0.3-0.6-0.2-0.8c1-6.4,6.7-11.2,13.3-11.2c6.5,0,12.2,4.8,13.2,11.2c0,0.3-0.1,0.6-0.2,0.8c-0.8,1-1.2,2.1-1.2,3.4
		c0,1.8,0,3.6,0,5.4c0,0.5-0.1,0.7-0.6,0.9c-1.1,0.3-2.2,0.7-3.3,1c-0.2,0.1-0.5,0-0.7-0.1c-1.7-0.9-3.5-0.7-5.3-0.4
		c-1.8,0.3-2.9,2-2.7,3.7c0.1,2,1.6,3.4,3.5,3.4c0.9,0,1.8,0.1,2.7,0c0.6-0.1,1.2-0.2,1.7-0.5C-344.5-113.6-343.4-113.9-342.1-114z"
		/>
	
		<linearGradient id="SVGID_3_" gradientUnits="userSpaceOnUse" x1="-60.9704" y1="-191.2528" x2="-47.5734" y2="-170.5911" gradientTransform="matrix(1 0 0 -1 -296 -310)">
		<stop  offset="0" style="stop-color:#FFFFFF"/>
		<stop  offset="1" style="stop-color:#C6CBFF"/>
	</linearGradient>
	<path class="st2" d="M-372.3-123.7c0-1,0-2,0-3c0-0.9,0.3-1.7,1.1-2.2c0.6-0.4,0.6-0.8,0.7-1.4c0.8-6.8,4.4-11.8,10.6-14.7
		c11.1-5.1,24.1,2.4,25.3,14.6c0.1,0.6,0.2,1.1,0.7,1.5c0.7,0.5,1,1.3,1,2.2c0,2,0,4,0,6c0,2.2-2.1,3.6-4.1,2.8
		c-0.5-0.2-0.8-0.1-1.3,0.2c-2.1,1.4-4.5,2-7,2.3c-0.3,0-0.6,0.2-0.8,0.4c-0.5,0.5-1.2,0.7-1.9,0.7c-0.6,0-1.2,0-1.8,0
		c-1,0-1.7-0.6-1.8-1.5c-0.1-1.1,0.4-1.9,1.4-2c1-0.1,2,0,3,0c0.2,0,0.5,0.1,0.6,0.2c0.5,0.6,1.2,0.5,1.8,0.4
		c1.9-0.3,3.7-0.9,5.3-1.9c0.4-0.2,0.6-0.4,0.4-0.9c-0.1-0.2-0.1-0.4-0.1-0.6c0-2,0-4,0-6c0-0.9,0.4-1.7,1.2-2.3
		c0.4-0.3,0.5-0.6,0.5-1c-0.4-6.8-5.6-12.5-12.2-13.7c-8.8-1.6-16.9,4.4-18.1,13.4c-0.1,0.5,0,0.9,0.5,1.3c0.8,0.5,1.1,1.3,1.1,2.2
		c0,2.1,0,4.1,0,6.2c0,1.2-1.1,2.5-2.2,2.8c-1.4,0.4-2.7-0.1-3.4-1.4c-0.3-0.5-0.4-1.2-0.5-1.8
		C-372.4-121.8-372.3-122.8-372.3-123.7z"/>
</g>
<g>
	
		<linearGradient id="SVGID_4_" gradientUnits="userSpaceOnUse" x1="334.5" y1="-380.7765" x2="334.5" y2="-316.1099" gradientTransform="matrix(1 0 0 -1 -296 -310)">
		<stop  offset="0" style="stop-color:#FFFFFF"/>
		<stop  offset="1" style="stop-color:#C6CBFF"/>
	</linearGradient>
	<path class="st3" d="M63.9,29.1c-0.9-1.9-1.7-3.7-2.6-5.3C51.9,8.2,29.7,6.6,18,20.6c-0.5,0.6-1.3,1.2-2,1.5
		c-1.2,0.4-2.4-0.2-3.1-1.2c-0.7-1.1-0.6-2.3,0.3-3.4C18.5,11,25.3,6.9,33.6,5.7c16.3-2.3,30.9,7,35.9,22.6c0.2,0.7,0.5,0.9,1.2,0.9
		c1.3-0.1,2.5-0.1,3.7,0c1.4,0,2,0.9,1.4,2.2c-2.5,5.3-5,10.6-7.6,15.9c-0.2,0.5-0.9,0.9-1.3,0.9c-0.4,0-1.1-0.5-1.3-0.9
		c-1.7-3.5-3.3-6.9-4.9-10.4c-0.9-1.8-1.7-3.6-2.6-5.4c-0.7-1.5-0.2-2.3,1.5-2.4C60.8,29.1,62.1,29.1,63.9,29.1z M17.5,45.8
		c1.7,0,2.2-0.9,1.5-2.3c-2.5-5.2-4.9-10.4-7.5-15.6c-0.3-0.5-0.9-0.9-1.4-1.1c-0.7-0.2-1.2,0.5-1.5,1.1c-0.7,1.4-1.3,2.9-2,4.3
		C4.8,36,3,39.8,1.2,43.7c-0.6,1.2,0.1,2.1,1.4,2.1c1.2,0,2.3,0.1,3.5,0c0.9-0.1,1.2,0.3,1.5,1.1c6,19.6,28.6,28.7,46.6,18.8
		c3.7-2.1,7-4.8,9.7-8.2c0.8-1.1,0.9-2.3,0.2-3.4c-0.7-1-1.9-1.6-3.1-1.1c-0.7,0.3-1.4,0.8-1.9,1.4c-10.2,12.2-28.4,12.9-39.5,1.6
		c-2.8-2.9-4.8-6.1-6.2-10.1C14.9,45.8,16.2,45.8,17.5,45.8z M53.1,22.7c-2.6,0-5.2,0-7.8,0c-0.6,0-1.1,0.2-1.4,0.8
		c-0.3,0.6,0.1,0.9,0.5,1.3c0.5,0.5,1.1,1.1,1.6,1.6c-2.1,2.1-4.3,4.2-6.3,6.3c-0.1-0.1-0.2-0.2-0.3-0.3c-0.9-0.9-1.9-1.9-2.9-2.9
		c-0.6-0.6-1.2-0.6-1.9,0c-0.1,0.1-0.3,0.3-0.4,0.4c-3,3-6,6-9,9c-0.6,0.6-1.2,1.2-1.8,1.8c-0.5,0.5-0.6,1.2-0.1,1.7
		c0.9,0.9,1.8,1.9,2.7,2.7c0.5,0.5,1.1,0.4,1.5,0c0.2-0.1,0.3-0.3,0.5-0.5c2.5-2.5,4.9-4.9,7.4-7.4c1.1,1.1,2.1,2.1,3.1,3.1
		c0.9,0.9,1.4,0.9,2.3,0c3-3,6-6,8.9-8.9c0.1-0.2,0.3-0.4,0.5-0.7c0.7,0.8,1.3,1.4,1.9,2c0.7,0.6,1.5,0.4,1.8-0.5
		C54,32,54,31.8,54,31.6c0-2.6,0-5.2,0-7.8C54.1,23,53.9,22.7,53.1,22.7z M46.1,37.5c-0.2,0.2-0.3,0.6-0.3,0.9c0,4.5,0,8.8,0,13.3
		c0,0.2,0.1,0.4,0.1,0.7c1.5,0,2.9,0,4.3,0c0-6.3,0-12.5,0-18.8c-0.1,0.1-0.3,0.1-0.3,0.2C48.6,35,47.3,36.3,46.1,37.5z M37.7,41.8
		c-0.7-0.7-1.4-1.5-2.3-2.3c-0.6,0.6-1.1,1.1-1.5,1.6c-0.3,0.3-0.4,0.6-0.4,1c0,3.2,0,6.3,0,9.5c0,0.2,0,0.4,0.1,0.7
		c1.5,0,2.9,0,4.3,0c0-0.1,0.1-0.2,0.1-0.3c0-3.3,0-6.5,0-9.7C37.9,42.2,37.8,42,37.7,41.8z M40,43.6c-0.1,0.2-0.3,0.5-0.3,0.7
		c0,2.5,0,5,0,7.4c0,0.2,0,0.3,0.1,0.5c1.5,0,2.9,0,4.3,0c0-4.3,0-8.4,0-12.7c-0.2,0.1-0.3,0.2-0.3,0.3C42.4,41.1,41.2,42.3,40,43.6
		z M27.6,47.5c-0.1,0.2-0.3,0.5-0.3,0.7c0,1.2,0,2.3,0,3.5c0,0.2,0.1,0.4,0.1,0.6c1.5,0,2.8,0,4.3,0c0-3,0-5.9,0-8.9
		c-0.1,0.1-0.2,0.1-0.3,0.2C30.1,44.9,28.9,46.2,27.6,47.5z"/>
</g>
</svg>
