<svg width="553" height="148" viewBox="0 0 553 148" fill="none" xmlns="http://www.w3.org/2000/svg">
<rect x="1" width="552" height="148" fill="#3721A7"/>
<mask id="mask0" mask-type="alpha" maskUnits="userSpaceOnUse" x="1" y="0" width="552" height="148">
<rect x="1" width="552" height="148" fill="#3721A7"/>
</mask>
<g mask="url(#mask0)">
<path d="M0 107.376V108.399L48.6372 149.927L49.2366 149.415L0 107.376ZM0 92.1684V93.1919L66.5337 150L67.1331 149.488L0 92.1684ZM0 76.8879V77.9115L84.3445 149.927L84.9439 149.415L0 76.8879ZM0 61.6075V62.6311L102.241 149.927L102.84 149.415L0 61.6075ZM0 46.4002V47.4238L120.137 150L120.737 149.488L0 46.4002ZM0 31.1198V32.1433L137.948 149.927L138.548 149.415L0 31.1198ZM0 15.8393V16.8629L155.845 149.927L156.444 149.415L0 15.8393ZM0 0.558923V1.6556L173.741 150L174.34 149.488L0 0.558923ZM14.8138 -2L14.2144 -1.48822L191.552 149.927L192.151 149.415L14.8138 -2ZM32.7102 -2L32.1108 -1.48822L209.448 149.927L210.048 149.415L32.7102 -2ZM50.6067 -2L50.0073 -1.48822L227.345 149.927L227.944 149.415L50.6067 -2ZM68.4175 -2L67.8181 -1.48822L245.156 149.927L245.755 149.415L68.4175 -2ZM86.3139 -2L85.7145 -1.48822L263.052 149.927L263.651 149.415L86.3139 -2ZM104.21 -2L103.611 -1.48822L280.948 149.927L281.548 149.415L104.21 -2ZM122.021 -2L121.422 -1.48822L298.845 149.927L299.444 149.415L122.021 -2ZM139.918 -2L139.318 -1.48822L316.656 149.927L317.255 149.415L139.918 -2ZM157.814 -2L157.215 -1.48822L334.552 149.927L335.152 149.415L157.814 -2ZM175.625 -2L175.025 -1.48822L352.363 149.927L352.962 149.415L175.625 -2ZM193.521 -2L192.922 -1.48822L370.259 149.927L370.859 149.415L193.521 -2ZM211.418 -2L210.818 -1.48822L388.156 149.927L388.755 149.415L211.418 -2ZM229.314 -2L228.629 -1.48822L405.967 149.927L406.566 149.415L229.314 -2ZM247.125 -2L246.526 -1.48822L423.863 149.927L424.462 149.415L247.125 -2ZM265.021 -2L264.422 -1.48822L441.76 149.927L442.359 149.415L265.021 -2ZM282.918 -2L282.319 -1.48822L459.656 149.927L460.255 149.415L282.918 -2ZM300.729 -2L300.129 -1.48822L477.467 149.927L478.066 149.415L300.729 -2ZM318.625 -2L318.026 -1.48822L495.363 149.927L495.963 149.415L318.625 -2ZM336.522 -2L335.922 -1.48822L513.26 149.927L513.859 149.415L336.522 -2ZM354.332 -2L353.733 -1.48822L531.07 149.927L531.67 149.415L354.332 -2ZM372.229 -2L371.629 -1.48822L548.967 149.927L549.566 149.415L372.229 -2ZM390.125 -2L389.526 -1.48822L566.863 149.927L567.463 149.415L390.125 -2ZM408.022 -2L407.422 -1.48822L584.76 149.927L585.359 149.415L408.022 -2ZM425.833 -2L425.233 -1.48822L602.571 149.927L603.17 149.415L425.833 -2ZM443.729 -2L443.13 -1.48822L620.467 149.927L621.066 149.415L443.729 -2ZM461.54 -2L460.94 -1.48822L638.278 149.927L638.877 149.415L461.54 -2ZM479.436 -2L478.837 -1.48822L656.174 149.927L656.774 149.415L479.436 -2ZM497.333 -2L496.733 -1.48822L674.071 149.927L674.67 149.415L497.333 -2ZM515.229 -2L514.63 -1.48822L691.967 149.927L692.567 149.415L515.229 -2ZM533.04 -2L532.44 -1.48822L709.864 149.927L710.463 149.415L533.04 -2ZM550.936 -2L550.337 -1.48822L727.674 149.927L728.274 149.415L550.936 -2ZM568.833 -2L568.233 -1.48822L745.571 149.927L746.17 149.415L568.833 -2ZM586.644 -2L586.044 -1.48822L763.382 149.927L763.981 149.415L586.644 -2ZM604.54 -2L603.941 -1.48822L781.278 149.927L781.878 149.415L604.54 -2ZM622.437 -2L621.837 -1.48822L799.175 149.927L799.774 149.415L622.437 -2ZM640.333 -2L639.648 -1.48822L816.985 149.927L817.585 149.415L640.333 -2ZM658.144 -2L657.544 -1.48822L834.882 149.927L835.481 149.415L658.144 -2ZM676.04 -2L675.441 -1.48822L852.778 149.927L853.378 149.415L676.04 -2ZM693.937 -2L693.337 -1.48822L870.675 149.927L871.274 149.415L693.937 -2ZM711.747 -2L711.148 -1.48822L888.485 149.927L889.085 149.415L711.747 -2ZM729.644 -2L729.044 -1.48822L906.382 149.927L906.981 149.415L729.644 -2ZM747.54 -2L746.941 -1.48822L924.278 149.927L924.878 149.415L747.54 -2ZM765.351 -2L764.752 -1.48822L942.089 149.927L942.689 149.415L765.351 -2ZM783.248 -2L782.648 -1.48822L959.986 149.927L960.585 149.415L783.248 -2ZM801.144 -2L800.545 -1.48822L977.882 149.927L978.481 149.415L801.144 -2ZM819.04 -2L818.441 -1.48822L995.779 149.927L996.378 149.415L819.04 -2ZM836.851 -2L836.252 -1.48822L1013.59 149.927L1014.19 149.415L836.851 -2ZM854.748 -2L854.148 -1.48822L1031.49 149.927L1032.09 149.415L854.748 -2ZM872.559 -2L871.959 -1.48822L1049.3 149.927L1049.9 149.415L872.559 -2ZM890.455 -2L889.856 -1.48822L1067.19 149.927L1067.79 149.415L890.455 -2ZM908.351 -2L907.752 -1.48822L1085.09 149.927L1085.69 149.415L908.351 -2ZM926.248 -2L925.648 -1.48822L1102.99 149.927L1103.59 149.415L926.248 -2ZM944.059 -2L943.459 -1.48822L1120.88 149.927L1121.48 149.415L944.059 -2ZM961.955 -2L961.356 -1.48822L1138.69 149.927L1139.29 149.415L961.955 -2ZM979.852 -2L979.252 -1.48822L1156.59 149.927L1157.19 149.415L979.852 -2ZM997.662 -2L997.063 -1.48822L1174.4 149.927L1175 149.415L997.662 -2ZM1015.56 -2L1014.96 -1.48822L1192.3 149.927L1192.9 149.415L1015.56 -2ZM1033.46 -2L1032.86 -1.48822L1210.19 149.927L1210.79 149.415L1033.46 -2ZM1051.35 -2L1050.75 -1.48822L1228.09 149.927L1228.69 149.415L1051.35 -2ZM1069.16 -2L1068.56 -1.48822L1245.9 149.927L1246.5 149.415L1069.16 -2ZM1087.06 -2L1086.46 -1.48822L1263.8 149.927L1264.4 149.415L1087.06 -2ZM1104.96 -2L1104.36 -1.48822L1281.69 149.927L1282.29 149.415L1104.96 -2ZM1122.77 -2L1122.17 -1.48822L1299.5 149.927L1300.1 149.415L1122.77 -2ZM1140.66 -2L1140.06 -1.48822L1317.4 149.927L1318 149.415L1140.66 -2ZM0 129.309V130.333L22.9485 149.927L23.5479 149.415L0 129.309Z" fill="url(#paint0_linear)" fill-opacity="0.8"/>
<path d="M0 107.376V108.399L48.6372 149.927L49.2366 149.415L0 107.376ZM0 92.1684V93.1919L66.5337 150L67.1331 149.488L0 92.1684ZM0 76.8879V77.9115L84.3445 149.927L84.9439 149.415L0 76.8879ZM0 61.6075V62.6311L102.241 149.927L102.84 149.415L0 61.6075ZM0 46.4002V47.4238L120.137 150L120.737 149.488L0 46.4002ZM0 31.1198V32.1433L137.948 149.927L138.548 149.415L0 31.1198ZM0 15.8393V16.8629L155.845 149.927L156.444 149.415L0 15.8393ZM0 0.558923V1.6556L173.741 150L174.34 149.488L0 0.558923ZM14.8138 -2L14.2144 -1.48822L191.552 149.927L192.151 149.415L14.8138 -2ZM32.7102 -2L32.1108 -1.48822L209.448 149.927L210.048 149.415L32.7102 -2ZM50.6067 -2L50.0073 -1.48822L227.345 149.927L227.944 149.415L50.6067 -2ZM68.4175 -2L67.8181 -1.48822L245.156 149.927L245.755 149.415L68.4175 -2ZM86.3139 -2L85.7145 -1.48822L263.052 149.927L263.651 149.415L86.3139 -2ZM104.21 -2L103.611 -1.48822L280.948 149.927L281.548 149.415L104.21 -2ZM122.021 -2L121.422 -1.48822L298.845 149.927L299.444 149.415L122.021 -2ZM139.918 -2L139.318 -1.48822L316.656 149.927L317.255 149.415L139.918 -2ZM157.814 -2L157.215 -1.48822L334.552 149.927L335.152 149.415L157.814 -2ZM175.625 -2L175.025 -1.48822L352.363 149.927L352.962 149.415L175.625 -2ZM193.521 -2L192.922 -1.48822L370.259 149.927L370.859 149.415L193.521 -2ZM211.418 -2L210.818 -1.48822L388.156 149.927L388.755 149.415L211.418 -2ZM229.314 -2L228.629 -1.48822L405.967 149.927L406.566 149.415L229.314 -2ZM247.125 -2L246.526 -1.48822L423.863 149.927L424.462 149.415L247.125 -2ZM265.021 -2L264.422 -1.48822L441.76 149.927L442.359 149.415L265.021 -2ZM282.918 -2L282.319 -1.48822L459.656 149.927L460.255 149.415L282.918 -2ZM300.729 -2L300.129 -1.48822L477.467 149.927L478.066 149.415L300.729 -2ZM318.625 -2L318.026 -1.48822L495.363 149.927L495.963 149.415L318.625 -2ZM336.522 -2L335.922 -1.48822L513.26 149.927L513.859 149.415L336.522 -2ZM354.332 -2L353.733 -1.48822L531.07 149.927L531.67 149.415L354.332 -2ZM372.229 -2L371.629 -1.48822L548.967 149.927L549.566 149.415L372.229 -2ZM390.125 -2L389.526 -1.48822L566.863 149.927L567.463 149.415L390.125 -2ZM408.022 -2L407.422 -1.48822L584.76 149.927L585.359 149.415L408.022 -2ZM425.833 -2L425.233 -1.48822L602.571 149.927L603.17 149.415L425.833 -2ZM443.729 -2L443.13 -1.48822L620.467 149.927L621.066 149.415L443.729 -2ZM461.54 -2L460.94 -1.48822L638.278 149.927L638.877 149.415L461.54 -2ZM479.436 -2L478.837 -1.48822L656.174 149.927L656.774 149.415L479.436 -2ZM497.333 -2L496.733 -1.48822L674.071 149.927L674.67 149.415L497.333 -2ZM515.229 -2L514.63 -1.48822L691.967 149.927L692.567 149.415L515.229 -2ZM533.04 -2L532.44 -1.48822L709.864 149.927L710.463 149.415L533.04 -2ZM550.936 -2L550.337 -1.48822L727.674 149.927L728.274 149.415L550.936 -2ZM568.833 -2L568.233 -1.48822L745.571 149.927L746.17 149.415L568.833 -2ZM586.644 -2L586.044 -1.48822L763.382 149.927L763.981 149.415L586.644 -2ZM604.54 -2L603.941 -1.48822L781.278 149.927L781.878 149.415L604.54 -2ZM622.437 -2L621.837 -1.48822L799.175 149.927L799.774 149.415L622.437 -2ZM640.333 -2L639.648 -1.48822L816.985 149.927L817.585 149.415L640.333 -2ZM658.144 -2L657.544 -1.48822L834.882 149.927L835.481 149.415L658.144 -2ZM676.04 -2L675.441 -1.48822L852.778 149.927L853.378 149.415L676.04 -2ZM693.937 -2L693.337 -1.48822L870.675 149.927L871.274 149.415L693.937 -2ZM711.747 -2L711.148 -1.48822L888.485 149.927L889.085 149.415L711.747 -2ZM729.644 -2L729.044 -1.48822L906.382 149.927L906.981 149.415L729.644 -2ZM747.54 -2L746.941 -1.48822L924.278 149.927L924.878 149.415L747.54 -2ZM765.351 -2L764.752 -1.48822L942.089 149.927L942.689 149.415L765.351 -2ZM783.248 -2L782.648 -1.48822L959.986 149.927L960.585 149.415L783.248 -2ZM801.144 -2L800.545 -1.48822L977.882 149.927L978.481 149.415L801.144 -2ZM819.04 -2L818.441 -1.48822L995.779 149.927L996.378 149.415L819.04 -2ZM836.851 -2L836.252 -1.48822L1013.59 149.927L1014.19 149.415L836.851 -2ZM854.748 -2L854.148 -1.48822L1031.49 149.927L1032.09 149.415L854.748 -2ZM872.559 -2L871.959 -1.48822L1049.3 149.927L1049.9 149.415L872.559 -2ZM890.455 -2L889.856 -1.48822L1067.19 149.927L1067.79 149.415L890.455 -2ZM908.351 -2L907.752 -1.48822L1085.09 149.927L1085.69 149.415L908.351 -2ZM926.248 -2L925.648 -1.48822L1102.99 149.927L1103.59 149.415L926.248 -2ZM944.059 -2L943.459 -1.48822L1120.88 149.927L1121.48 149.415L944.059 -2ZM961.955 -2L961.356 -1.48822L1138.69 149.927L1139.29 149.415L961.955 -2ZM979.852 -2L979.252 -1.48822L1156.59 149.927L1157.19 149.415L979.852 -2ZM997.662 -2L997.063 -1.48822L1174.4 149.927L1175 149.415L997.662 -2ZM1015.56 -2L1014.96 -1.48822L1192.3 149.927L1192.9 149.415L1015.56 -2ZM1033.46 -2L1032.86 -1.48822L1210.19 149.927L1210.79 149.415L1033.46 -2ZM1051.35 -2L1050.75 -1.48822L1228.09 149.927L1228.69 149.415L1051.35 -2ZM1069.16 -2L1068.56 -1.48822L1245.9 149.927L1246.5 149.415L1069.16 -2ZM1087.06 -2L1086.46 -1.48822L1263.8 149.927L1264.4 149.415L1087.06 -2ZM1104.96 -2L1104.36 -1.48822L1281.69 149.927L1282.29 149.415L1104.96 -2ZM1122.77 -2L1122.17 -1.48822L1299.5 149.927L1300.1 149.415L1122.77 -2ZM1140.66 -2L1140.06 -1.48822L1317.4 149.927L1318 149.415L1140.66 -2ZM0 129.309V130.333L22.9485 149.927L23.5479 149.415L0 129.309Z" fill="url(#paint1_linear)"/>
</g>
<rect x="1" width="20" height="148" fill="url(#paint2_linear)"/>
<rect width="1" height="148" fill="#A99EE7" fill-opacity="0.5"/>
<defs>
<linearGradient id="paint0_linear" x1="659" y1="-14" x2="659" y2="157.5" gradientUnits="userSpaceOnUse">
<stop stop-color="#803EFF"/>
<stop offset="1" stop-color="#3721A7"/>
</linearGradient>
<linearGradient id="paint1_linear" x1="4.49997" y1="15.5" x2="542" y2="118" gradientUnits="userSpaceOnUse">
<stop stop-color="#3721A7" stop-opacity="0"/>
<stop offset="1" stop-color="#3721A7"/>
</linearGradient>
<linearGradient id="paint2_linear" x1="1" y1="71" x2="21" y2="71" gradientUnits="userSpaceOnUse">
<stop stop-color="#200E7B"/>
<stop offset="1" stop-color="#3721A7" stop-opacity="0"/>
</linearGradient>
</defs>
</svg>
