<?xml version="1.0" encoding="utf-8"?>
<!-- Generator: Adobe Illustrator 25.2.0, SVG Export Plug-In . SVG Version: 6.00 Build 0)  -->
<svg version="1.1" id="Layer_1" xmlns="http://www.w3.org/2000/svg" xmlns:xlink="http://www.w3.org/1999/xlink" x="0px" y="0px"
	 viewBox="0 0 77 75" style="enable-background:new 0 0 77 75;" xml:space="preserve">
<style type="text/css">
	.st0{fill:url(#SVGID_1_);}
</style>
<g>
	
		<linearGradient id="SVGID_1_" gradientUnits="userSpaceOnUse" x1="38.5" y1="5.9776" x2="38.5" y2="69.1787" gradientTransform="matrix(1 0 0 -1 0 76)">
		<stop  offset="0" style="stop-color:#3721A7"/>
		<stop  offset="1" style="stop-color:#803EFF"/>
	</linearGradient>
	<path class="st0" d="M63.3,29.3c-0.9-1.9-1.6-3.6-2.5-5.1C51.5,8.9,29.9,7.3,18.5,21c-0.5,0.6-1.2,1.2-2,1.4
		c-1.2,0.4-2.3-0.2-3-1.2c-0.7-1-0.6-2.3,0.3-3.3c5.2-6.4,11.8-10.4,20-11.6c15.9-2.3,30.2,6.8,35,22.1c0.2,0.7,0.5,0.9,1.2,0.8
		c1.2-0.1,2.4-0.1,3.7,0c1.4,0,2,0.9,1.4,2.1c-2.5,5.2-4.9,10.4-7.4,15.5c-0.2,0.5-0.8,0.8-1.3,0.9c-0.4,0-1-0.5-1.2-0.8
		c-1.6-3.4-3.3-6.8-4.8-10.1c-0.8-1.8-1.7-3.5-2.5-5.3c-0.7-1.4-0.2-2.3,1.4-2.3C60.3,29.3,61.6,29.3,63.3,29.3z M18,45.6
		c1.6,0,2.2-0.8,1.5-2.3c-2.4-5.1-4.8-10.2-7.3-15.3c-0.3-0.5-0.8-0.9-1.4-1c-0.7-0.2-1.2,0.5-1.4,1c-0.7,1.4-1.3,2.8-2,4.2
		C5.6,36,3.8,39.8,2,43.6c-0.6,1.2,0.1,2.1,1.4,2.1c1.2,0,2.3,0.1,3.5,0c0.8-0.1,1.2,0.3,1.4,1c5.9,19.1,28,28,45.6,18.3
		c3.7-2,6.9-4.7,9.5-8c0.8-1,0.8-2.3,0.2-3.3c-0.7-1-1.9-1.6-3-1.1c-0.7,0.3-1.4,0.8-1.9,1.4c-10,11.9-27.8,12.6-38.6,1.6
		c-2.7-2.8-4.7-6-6.1-9.9C15.4,45.6,16.7,45.6,18,45.6z M52.7,23c-2.5,0-5.1,0-7.6,0c-0.6,0-1.1,0.2-1.4,0.8
		c-0.3,0.6,0.1,0.9,0.5,1.2c0.5,0.5,1.1,1.1,1.6,1.6c-2.1,2.1-4.2,4.1-6.2,6.2c-0.1-0.1-0.2-0.2-0.3-0.3c-0.9-0.9-1.9-1.9-2.8-2.8
		c-0.6-0.6-1.2-0.6-1.8,0c-0.1,0.1-0.3,0.3-0.4,0.4c-2.9,2.9-5.9,5.9-8.8,8.8c-0.6,0.6-1.2,1.2-1.8,1.8c-0.5,0.5-0.6,1.2-0.1,1.6
		c0.8,0.9,1.8,1.8,2.7,2.7c0.5,0.5,1,0.4,1.5,0c0.2-0.1,0.3-0.3,0.5-0.5c2.4-2.4,4.8-4.8,7.2-7.2c1,1,2,2,3,3c0.9,0.9,1.4,0.9,2.3,0
		c2.9-2.9,5.9-5.9,8.7-8.7c0.1-0.2,0.3-0.4,0.5-0.7c0.7,0.8,1.3,1.4,1.9,2c0.7,0.6,1.5,0.4,1.8-0.5c0.1-0.2,0.1-0.4,0.1-0.6
		c0-2.5,0-5.1,0-7.6C53.7,23.3,53.5,23,52.7,23z M45.9,37.5c-0.2,0.2-0.3,0.6-0.3,0.8c0,4.4,0,8.6,0,13c0,0.2,0.1,0.4,0.1,0.7
		c1.4,0,2.8,0,4.2,0c0-6.1,0-12.2,0-18.4c-0.1,0.1-0.3,0.1-0.3,0.2C48.4,35,47.1,36.3,45.9,37.5z M37.7,41.7
		c-0.7-0.7-1.4-1.4-2.2-2.3c-0.6,0.6-1,1.1-1.5,1.6c-0.3,0.3-0.4,0.6-0.4,1c0,3.1,0,6.2,0,9.3c0,0.2,0,0.4,0.1,0.7
		c1.4,0,2.8,0,4.2,0c0-0.1,0.1-0.2,0.1-0.3c0-3.2,0-6.3,0-9.5C37.9,42.1,37.8,41.9,37.7,41.7z M39.9,43.4c-0.1,0.2-0.3,0.5-0.3,0.7
		c0,2.4,0,4.9,0,7.3c0,0.2,0,0.3,0.1,0.5c1.4,0,2.8,0,4.2,0c0-4.2,0-8.3,0-12.4c-0.2,0.1-0.3,0.2-0.3,0.3
		C42.3,41,41.1,42.2,39.9,43.4z M27.9,47.3c-0.1,0.2-0.3,0.5-0.3,0.7c0,1.2,0,2.3,0,3.4c0,0.2,0.1,0.4,0.1,0.6c1.4,0,2.7,0,4.2,0
		c0-2.9,0-5.8,0-8.7c-0.1,0.1-0.2,0.1-0.3,0.2C30.3,44.7,29.1,46,27.9,47.3z"/>
</g>
</svg>
