<svg width="77" height="75" viewBox="0 0 77 75" fill="none" xmlns="http://www.w3.org/2000/svg">
<path d="M57.6756 52.387C56.3019 50.6852 54.4361 48.7169 52.5293 47.7122C50.151 46.4615 46.0093 45.2518 43.2414 44.5137C41.5601 44.0626 40.3914 42.5454 40.3914 40.8231V38.6498H29.9963H19.6011V40.8231C19.6011 42.5659 18.4324 44.0831 16.7512 44.5137C13.9832 45.2518 9.84157 46.4615 7.46319 47.7122C5.55639 48.7169 3.69059 50.6852 2.31688 52.387C0.820139 54.2322 0.0410156 56.5491 0.0410156 58.907V66.7597C0.0410156 68.5845 1.51725 70.0813 3.36254 70.0813H56.63C58.4548 70.0813 59.9515 68.605 59.9515 66.7597V58.907C59.9515 56.5491 59.1519 54.2322 57.6756 52.387Z" fill="url(#paint0_linear)"/>
<path d="M43.4865 19.1283C43.4865 19.1283 46.3569 16.5244 46.89 17.9186C47.4231 19.3128 47.3001 24.0081 46.1519 25.7509C45.0037 27.4936 43.6095 29.2364 43.1379 28.6213C42.6869 28.0267 43.4865 19.1283 43.4865 19.1283Z" fill="url(#paint1_linear)"/>
<path d="M16.4845 19.1283C16.4845 19.1283 13.614 16.5244 13.0809 17.9186C12.5478 19.3128 12.6709 24.0081 13.819 25.7509C14.9672 27.4936 16.3614 29.2364 16.833 28.6213C17.2841 28.0267 16.4845 19.1283 16.4845 19.1283Z" fill="url(#paint2_linear)"/>
<path d="M28.807 45.3326H26.9412C26.0801 45.3326 25.0344 44.779 24.5628 44.1434C23.0661 42.1136 21.1798 40.1658 19.601 38.6281C17.4277 36.5162 16.1155 33.7893 15.9514 30.8983L15.0903 14.6393C14.7828 6.684 21.4463 -6.10352e-05 29.9962 -6.10352e-05C38.5255 -6.10352e-05 45.2096 6.684 44.902 14.6393L44.0204 30.8983C43.8564 33.7893 42.5647 36.5162 40.3708 38.6281C38.7716 40.1658 36.9058 42.1136 35.409 44.1434C34.9375 44.779 33.8713 45.3326 33.0307 45.3326H31.1649H28.807Z" fill="url(#paint3_linear)"/>
<path d="M43.9801 30.8989C43.8161 33.7898 42.5039 36.5168 40.3305 38.6286C38.7313 40.1664 36.8655 42.1142 35.3687 44.144C34.8971 44.7796 33.831 45.3332 32.9903 45.3332H26.9009C26.0602 45.3332 25.0146 44.7796 24.5225 44.144C23.0258 42.1142 21.16 40.1664 19.5607 38.6286C17.3874 36.5168 16.0752 33.7898 15.9316 30.8989V29.8942C16.0752 32.7852 17.3874 35.5121 19.5607 37.624C21.16 39.1617 23.0258 41.1095 24.5225 43.1393C25.0146 43.7749 26.0602 44.3285 26.9009 44.3285H32.9903C33.831 44.3285 34.8971 43.7749 35.3687 43.1393C36.8655 41.1095 38.7313 39.1617 40.3305 37.624C42.5039 35.5121 43.8161 32.7852 43.9801 29.8942V30.8989Z" fill="url(#paint4_linear)"/>
<path d="M44.8597 14.6393L44.8187 15.4184C44.4292 8.03721 38.0321 2.05026 29.9539 2.05026C21.8756 2.05026 15.4786 8.05772 15.089 15.4389L15.048 14.6393C14.761 6.684 21.4245 -6.10352e-05 29.9539 -6.10352e-05C38.4832 -6.10352e-05 45.1673 6.684 44.8597 14.6393Z" fill="url(#paint5_linear)"/>
<path d="M59.9105 65.6104V66.7586C59.9105 68.6039 58.4343 70.0801 56.589 70.0801H3.32153C1.49674 70.0801 0 68.6039 0 66.7586V65.6104C0 67.4557 1.49674 68.9319 3.32153 68.9319H56.589C58.4343 68.9319 59.9105 67.4557 59.9105 65.6104Z" fill="url(#paint6_linear)"/>
<path d="M68.0491 57.4915V74.5091L64.7276 72.2743L64.338 71.9667L59.8683 68.9323L51.7285 74.4886V57.4709H68.0491V57.4915Z" fill="url(#paint7_linear)"/>
<path d="M64.7275 58.1887V72.2949L64.3379 71.9873V58.1887H64.7275Z" fill="url(#paint8_linear)"/>
<path d="M66.5126 59.3781V73.4843L66.123 73.1767V59.3781H66.5126Z" fill="url(#paint9_linear)"/>
<path d="M54.9902 58.1887V72.2949L55.3798 71.9873V58.1887H54.9902Z" fill="url(#paint10_linear)"/>
<path d="M53.2656 59.3781V73.4843L53.6552 73.1767V59.3781H53.2656Z" fill="url(#paint11_linear)"/>
<path d="M61.6516 31.4326L63.579 34.262C64.071 35.0001 64.9732 35.3077 65.8548 35.1026L69.1763 34.1595C70.5706 33.7699 71.9648 34.8976 71.8008 36.3533L71.4522 39.7774C71.3497 40.6795 71.8418 41.5202 72.6414 41.8687L75.7784 43.3039C77.1111 43.8985 77.4186 45.6413 76.373 46.687L73.8921 49.1269C73.2565 49.7625 73.0925 50.7056 73.5025 51.5052L74.9993 54.6422C75.6349 55.9339 74.7532 57.4717 73.318 57.6152L69.894 57.8612C68.9918 57.9023 68.2537 58.5584 68.0487 59.399L67.1465 62.782C66.798 64.1763 65.1167 64.8119 63.9275 63.9712L61.0981 61.9824C60.3599 61.4903 59.4168 61.4903 58.6582 61.9824L55.8287 63.9712C54.6395 64.8119 52.9993 64.2173 52.6097 62.782L51.7691 59.4605C51.564 58.6199 50.8259 57.9638 49.9238 57.9228L46.4997 57.6767C45.0645 57.5742 44.1624 56.0365 44.8185 54.7037L46.3152 51.5667C46.7048 50.7671 46.5202 49.824 45.9257 49.1884L43.4448 46.7485C42.3991 45.7028 42.7066 43.96 44.0394 43.3654L47.1764 41.9302C47.976 41.5817 48.4681 40.741 48.3655 39.8389L48.017 36.4148C47.8735 34.9796 49.2677 33.8314 50.6414 34.221L53.9629 35.1641C54.8036 35.4102 55.7467 35.0616 56.2388 34.3235L58.2276 31.4531C59.0682 30.2434 60.852 30.2434 61.6516 31.4326Z" fill="url(#paint12_linear)"/>
<path d="M73.3192 57.5952L69.8951 57.8413C68.993 57.8823 68.2549 58.5384 68.0498 59.379L67.1477 62.7621C66.7991 64.1563 65.1179 64.7919 63.9287 63.9102L61.0992 61.9214C60.3611 61.4294 59.418 61.4294 58.6593 61.9214L55.8299 63.9102C54.6407 64.7509 53.0004 64.1563 52.6109 62.7621L51.7702 59.379C51.5652 58.5384 50.8271 57.8823 49.925 57.8413L46.4599 57.5952C45.2092 57.4927 44.4301 56.4061 44.5736 55.2579C44.6761 56.201 45.4142 57.0006 46.4599 57.1032L49.925 57.3492C50.8271 57.3902 51.5652 58.0463 51.7702 58.8869L52.6109 62.27C52.9594 63.6642 54.6407 64.2998 55.8299 63.4182L58.6593 61.4293C59.3975 60.9373 60.3406 60.9373 61.0992 61.4293L63.9287 63.4182C65.1179 64.2588 66.7581 63.6642 67.1477 62.27L67.9883 58.8869C68.1933 58.0463 68.9315 57.3902 69.8336 57.3492L73.2577 57.1032C74.3033 57.0006 75.0414 56.201 75.144 55.2579C75.349 56.4061 74.5494 57.4927 73.3192 57.5952Z" fill="url(#paint13_linear)"/>
<path d="M71.8203 36.4967C71.6768 35.3075 70.4261 34.4053 69.1959 34.7539L65.8744 35.697C65.0338 35.9431 64.0906 35.5945 63.5985 34.8564L61.6712 32.027C60.8306 30.8378 59.0878 30.8378 58.2472 32.027L56.2789 34.8564C55.7868 35.5945 54.8847 35.9021 54.003 35.697L50.6815 34.7539C49.4308 34.4053 48.2416 35.246 48.0571 36.4967V36.3941C47.9136 34.9589 49.3078 33.8107 50.6815 34.2003L54.003 35.1434C54.8437 35.3895 55.7458 35.0409 56.2789 34.3028L58.2062 31.4324C59.0468 30.2432 60.7896 30.2432 61.6302 31.4324L63.5575 34.2618C64.0496 34.9999 64.9928 35.3075 65.8334 35.1024L69.1549 34.1593C70.5491 33.7697 71.9434 34.8974 71.7793 36.3531V36.4967H71.8203Z" fill="url(#paint14_linear)"/>
<path d="M60.1566 40.3714L62.3504 44.2465C62.3914 44.349 62.5554 44.4515 62.658 44.4926L67.0251 45.3332C67.3737 45.3742 67.5172 45.8253 67.2712 46.1328L64.2367 49.4133C64.1342 49.5159 64.0932 49.6594 64.1342 49.8029L64.6878 54.2111C64.7288 54.5597 64.3392 54.8467 64.0522 54.7032L60.0335 52.8169C59.89 52.7759 59.7875 52.7759 59.644 52.8169L55.6253 54.7032C55.2768 54.8467 54.9282 54.6007 54.9897 54.2111L55.5433 49.8029C55.5433 49.6594 55.5023 49.4953 55.4408 49.4133L52.4063 46.1328C52.1603 45.8868 52.3038 45.4357 52.6524 45.3332L57.0196 44.4926C57.1631 44.4515 57.2656 44.39 57.3271 44.2465L59.4594 40.3714C59.521 40.0228 59.9515 40.0228 60.1566 40.3714Z" fill="url(#paint15_linear)"/>
<g opacity="0.62">
<path opacity="0.62" d="M59.8066 34.7744C52.4664 34.7744 46.459 40.7203 46.459 48.122C46.459 55.4621 52.4049 61.4696 59.8066 61.4696C67.1468 61.4696 73.1542 55.5236 73.1542 48.122C73.1542 40.7818 67.1468 34.7744 59.8066 34.7744ZM59.8066 58.6401C54.0042 58.6401 49.2884 53.9244 49.2884 48.122C49.2884 42.3196 54.0042 37.6038 59.8066 37.6038C65.609 37.6038 70.3248 42.3196 70.3248 48.122C70.3248 53.9244 65.609 58.6401 59.8066 58.6401Z" fill="#C6CCFF"/>
</g>
<defs>
<linearGradient id="paint0_linear" x1="29.986" y1="69.1719" x2="29.986" y2="38.6973" gradientUnits="userSpaceOnUse">
<stop stop-color="#DBDFFF"/>
<stop offset="0.701" stop-color="#7583FF"/>
<stop offset="0.9346" stop-color="#7A65FF"/>
</linearGradient>
<linearGradient id="paint1_linear" x1="46.1205" y1="27.681" x2="43.8476" y2="18.488" gradientUnits="userSpaceOnUse">
<stop stop-color="#DBDFFF"/>
<stop offset="1" stop-color="#7583FF"/>
</linearGradient>
<linearGradient id="paint2_linear" x1="13.859" y1="27.681" x2="16.132" y2="18.488" gradientUnits="userSpaceOnUse">
<stop stop-color="#DBDFFF"/>
<stop offset="1" stop-color="#7583FF"/>
</linearGradient>
<linearGradient id="paint3_linear" x1="29.9902" y1="0.278988" x2="29.9902" y2="52.966" gradientUnits="userSpaceOnUse">
<stop stop-color="#DBDFFF"/>
<stop offset="1" stop-color="#7583FF"/>
</linearGradient>
<linearGradient id="paint4_linear" x1="29.9661" y1="56.5497" x2="29.9661" y2="36.1045" gradientUnits="userSpaceOnUse">
<stop stop-color="#DBDFFF"/>
<stop offset="1" stop-color="#7583FF" stop-opacity="0"/>
</linearGradient>
<linearGradient id="paint5_linear" x1="29.9539" y1="14.921" x2="29.9539" y2="-0.0232293" gradientUnits="userSpaceOnUse">
<stop stop-color="#EBEDFF" stop-opacity="0"/>
<stop offset="1" stop-color="white"/>
</linearGradient>
<linearGradient id="paint6_linear" x1="29.9552" y1="62.8527" x2="29.9552" y2="69.2098" gradientUnits="userSpaceOnUse">
<stop stop-color="#DBDFFF" stop-opacity="0"/>
<stop offset="1" stop-color="#7583FF"/>
</linearGradient>
<linearGradient id="paint7_linear" x1="59.5521" y1="57.367" x2="60.174" y2="73.5393" gradientUnits="userSpaceOnUse">
<stop stop-color="#4502C6"/>
<stop offset="1" stop-color="#803EFF"/>
</linearGradient>
<linearGradient id="paint8_linear" x1="64.5253" y1="57.9598" x2="64.5253" y2="71.9935" gradientUnits="userSpaceOnUse">
<stop stop-color="#954CE2" stop-opacity="0"/>
<stop offset="0.1824" stop-color="#A257DF" stop-opacity="0.1824"/>
<stop offset="0.5201" stop-color="#C473D8" stop-opacity="0.5201"/>
<stop offset="0.973" stop-color="#FBA1CC" stop-opacity="0.973"/>
<stop offset="1" stop-color="#FFA4CB"/>
</linearGradient>
<linearGradient id="paint9_linear" x1="66.3133" y1="59.1576" x2="66.3133" y2="73.1915" gradientUnits="userSpaceOnUse">
<stop stop-color="#954CE2" stop-opacity="0"/>
<stop offset="0.1824" stop-color="#A257DF" stop-opacity="0.1824"/>
<stop offset="0.5201" stop-color="#C473D8" stop-opacity="0.5201"/>
<stop offset="0.973" stop-color="#FBA1CC" stop-opacity="0.973"/>
<stop offset="1" stop-color="#FFA4CB"/>
</linearGradient>
<linearGradient id="paint10_linear" x1="55.1959" y1="57.9598" x2="55.1959" y2="71.9935" gradientUnits="userSpaceOnUse">
<stop stop-color="#954CE2" stop-opacity="0"/>
<stop offset="0.1824" stop-color="#A257DF" stop-opacity="0.1824"/>
<stop offset="0.5201" stop-color="#C473D8" stop-opacity="0.5201"/>
<stop offset="0.973" stop-color="#FBA1CC" stop-opacity="0.973"/>
<stop offset="1" stop-color="#FFA4CB"/>
</linearGradient>
<linearGradient id="paint11_linear" x1="53.4563" y1="59.1576" x2="53.4563" y2="73.1915" gradientUnits="userSpaceOnUse">
<stop stop-color="#954CE2" stop-opacity="0"/>
<stop offset="0.1824" stop-color="#A257DF" stop-opacity="0.1824"/>
<stop offset="0.5201" stop-color="#C473D8" stop-opacity="0.5201"/>
<stop offset="0.973" stop-color="#FBA1CC" stop-opacity="0.973"/>
<stop offset="1" stop-color="#FFA4CB"/>
</linearGradient>
<linearGradient id="paint12_linear" x1="59.9089" y1="27.6208" x2="59.9089" y2="62.0152" gradientUnits="userSpaceOnUse">
<stop offset="0.1613" stop-color="#803EFF"/>
<stop offset="1" stop-color="#4502C6"/>
</linearGradient>
<linearGradient id="paint13_linear" x1="59.8668" y1="55.2236" x2="59.8668" y2="63.4875" gradientUnits="userSpaceOnUse">
<stop stop-color="white" stop-opacity="0"/>
<stop offset="1" stop-color="#4651C8"/>
</linearGradient>
<linearGradient id="paint14_linear" x1="59.933" y1="30.7693" x2="59.933" y2="37.1544" gradientUnits="userSpaceOnUse">
<stop stop-color="white"/>
<stop offset="1" stop-color="#EBEDFF" stop-opacity="0"/>
</linearGradient>
<linearGradient id="paint15_linear" x1="59.4088" y1="54.8664" x2="60.0309" y2="40.8709" gradientUnits="userSpaceOnUse">
<stop stop-color="#ECECFF"/>
<stop offset="0.9375" stop-color="white"/>
</linearGradient>
</defs>
</svg>
