<svg width="122" height="48" viewBox="0 0 122 48" fill="none" xmlns="http://www.w3.org/2000/svg">
<path d="M1 9.79L21.82 1L42.65 9.79V15.73H1V9.79Z" fill="#2F669A"/>
<path d="M42.65 40.27H1V42.82H42.65V40.27Z" fill="#2F669A"/>
<path d="M45.02 44.54H1V47.09H45.02V44.54Z" fill="#2F669A"/>
<path d="M10.2502 19.95C10.9702 19.95 11.5502 19.37 11.5502 18.65C11.5502 17.93 10.9702 17.35 10.2502 17.35H3.46016C2.74016 17.35 2.16016 17.93 2.16016 18.65C2.16016 19.37 2.74016 19.95 3.46016 19.95H3.85016V35.51H3.46016C2.74016 35.51 2.16016 36.09 2.16016 36.81C2.16016 37.53 2.74016 38.11 3.46016 38.11H10.2502C10.9702 38.11 11.5502 37.53 11.5502 36.81C11.5502 36.09 10.9702 35.51 10.2502 35.51H9.74016V19.95H10.2502Z" fill="#2F669A"/>
<path d="M24.5099 19.95C25.2299 19.95 25.8099 19.37 25.8099 18.65C25.8099 17.93 25.2299 17.35 24.5099 17.35H17.7199C16.9999 17.35 16.4199 17.93 16.4199 18.65C16.4199 19.37 16.9999 19.95 17.7199 19.95H18.1099V35.51H17.7199C16.9999 35.51 16.4199 36.09 16.4199 36.81C16.4199 37.53 16.9999 38.11 17.7199 38.11H24.5099C25.2299 38.11 25.8099 37.53 25.8099 36.81C25.8099 36.09 25.2299 35.51 24.5099 35.51H23.9999V19.95H24.5099Z" fill="#2F669A"/>
<path d="M38.7599 19.95C39.4799 19.95 40.0599 19.37 40.0599 18.65C40.0599 17.93 39.4799 17.35 38.7599 17.35H31.9699C31.2499 17.35 30.6699 17.93 30.6699 18.65C30.6699 19.37 31.2499 19.95 31.9699 19.95H32.3599V35.51H31.9699C31.2499 35.51 30.6699 36.09 30.6699 36.81C30.6699 37.53 31.2499 38.11 31.9699 38.11H38.7599C39.4799 38.11 40.0599 37.53 40.0599 36.81C40.0599 36.09 39.4799 35.51 38.7599 35.51H38.2499V19.95H38.7599Z" fill="#2F669A"/>
<path d="M55.1797 11.91C55.5597 11.85 55.9997 11.8 56.4997 11.77C56.9997 11.73 57.6197 11.72 58.3697 11.72C59.0197 11.72 59.6397 11.77 60.2197 11.88C60.7997 11.99 61.3097 12.17 61.7397 12.42C62.1697 12.67 62.5097 13.02 62.7597 13.44C63.0097 13.86 63.1297 14.4 63.1297 15.04C63.1297 15.42 63.0697 15.77 62.9597 16.1C62.8497 16.43 62.6997 16.71 62.5097 16.95C62.3197 17.19 62.1097 17.39 61.8697 17.55C61.6297 17.71 61.3897 17.81 61.1397 17.84C61.4097 17.88 61.7197 17.96 62.0497 18.09C62.3797 18.22 62.6897 18.41 62.9697 18.67C63.2497 18.92 63.4897 19.25 63.6797 19.66C63.8697 20.06 63.9697 20.55 63.9697 21.12C63.9697 21.89 63.8197 22.52 63.5297 23.01C63.2397 23.5 62.8497 23.89 62.3597 24.17C61.8697 24.45 61.2997 24.65 60.6497 24.76C59.9997 24.87 59.3197 24.92 58.6097 24.92C58.0597 24.92 57.5297 24.9 56.9897 24.88C56.4597 24.85 55.8497 24.79 55.1797 24.71V11.91ZM58.5397 17.1C58.8397 17.1 59.1097 17.07 59.3697 17.02C59.6197 16.97 59.8497 16.87 60.0397 16.74C60.2297 16.61 60.3797 16.42 60.4797 16.19C60.5897 15.96 60.6397 15.67 60.6397 15.31C60.6397 14.97 60.5797 14.68 60.4497 14.47C60.3297 14.25 60.1597 14.08 59.9697 13.95C59.7797 13.82 59.5497 13.74 59.3097 13.7C59.0697 13.66 58.8297 13.64 58.5897 13.64C58.2597 13.64 57.9797 13.66 57.7497 13.69V17.1H58.5397ZM57.7597 22.76C57.9297 22.78 58.1197 22.8 58.3397 22.81C58.5597 22.82 58.7597 22.83 58.9397 22.83C59.1897 22.83 59.4497 22.81 59.7197 22.76C59.9897 22.71 60.2497 22.62 60.4797 22.48C60.7097 22.34 60.9097 22.15 61.0697 21.91C61.2197 21.67 61.2997 21.35 61.2997 20.96C61.2997 20.59 61.2397 20.29 61.1197 20.04C60.9997 19.8 60.8297 19.6 60.6097 19.45C60.3897 19.3 60.1297 19.2 59.8297 19.14C59.5297 19.08 59.1897 19.05 58.8297 19.05H57.7597V22.76Z" fill="#2F669A"/>
<path d="M70.4899 18.6699C70.4899 18.3899 70.4399 18.1499 70.3499 17.9799C70.2499 17.7999 70.1199 17.6599 69.9599 17.5599C69.7899 17.4599 69.5899 17.3899 69.3499 17.3599C69.1099 17.3199 68.8399 17.3099 68.5399 17.3099C67.8999 17.3099 67.2199 17.4299 66.4999 17.6799C66.3299 17.3699 66.2099 17.0799 66.1299 16.8099C66.0499 16.5399 66.0099 16.2099 66.0099 15.8299C66.5299 15.6499 67.0499 15.5199 67.5699 15.4399C68.0899 15.3599 68.5799 15.3199 69.0299 15.3199C70.2599 15.3199 71.2299 15.6199 71.9199 16.2099C72.6099 16.7999 72.9599 17.7499 72.9599 19.0599V24.3999C72.5399 24.5299 72.0399 24.6499 71.4499 24.7699C70.8599 24.8899 70.1899 24.9499 69.4399 24.9499C68.8299 24.9499 68.2799 24.8999 67.7799 24.7899C67.2799 24.6799 66.8399 24.5099 66.4799 24.2599C66.1199 24.0099 65.8399 23.6899 65.6499 23.2999C65.4499 22.9099 65.3599 22.4299 65.3599 21.8599C65.3599 21.2899 65.4799 20.8099 65.7199 20.4299C65.9599 20.0499 66.2799 19.7399 66.6599 19.5099C67.0399 19.2799 67.4699 19.1099 67.9499 19.0099C68.4199 18.9099 68.8999 18.8599 69.3699 18.8599C69.7099 18.8599 70.0899 18.8799 70.5099 18.9099V18.6699H70.4899ZM70.4899 20.4999C70.3499 20.4799 70.1899 20.4599 70.0299 20.4399C69.8599 20.4199 69.7199 20.4099 69.5799 20.4099C68.9999 20.4099 68.5399 20.5099 68.1999 20.7199C67.8599 20.9299 67.6899 21.2599 67.6899 21.7199C67.6899 22.0299 67.7599 22.2699 67.8899 22.4299C68.0199 22.5999 68.1799 22.7199 68.3599 22.7899C68.5399 22.8599 68.7399 22.9099 68.9499 22.9299C69.1599 22.9499 69.3399 22.9599 69.4899 22.9599C69.6699 22.9599 69.8499 22.9399 70.0199 22.9199C70.1999 22.8899 70.3499 22.8599 70.4799 22.8399V20.4999H70.4899Z" fill="#2F669A"/>
<path d="M75.1899 15.5199C75.3599 15.4799 75.5199 15.4599 75.6899 15.4399C75.8599 15.4199 76.0399 15.4099 76.2399 15.4099C76.4399 15.4099 76.6199 15.4199 76.7699 15.4399C76.9199 15.4599 77.0799 15.4799 77.2499 15.5199C77.2899 15.5799 77.3199 15.6699 77.3499 15.7799C77.3799 15.8899 77.4099 16.0099 77.4299 16.1399C77.4499 16.2599 77.4699 16.3899 77.4899 16.4999C77.5099 16.6099 77.5199 16.7199 77.5299 16.7999C77.6499 16.6199 77.7899 16.4399 77.9599 16.2699C78.1299 16.0899 78.3199 15.9299 78.5399 15.7899C78.7599 15.6499 78.9999 15.5299 79.2799 15.4399C79.5599 15.3499 79.8599 15.3099 80.1899 15.3099C81.2299 15.3099 82.0199 15.5899 82.5499 16.1599C83.0799 16.7299 83.3399 17.6199 83.3399 18.8499V24.7199C82.9099 24.7899 82.4899 24.8299 82.0799 24.8299C81.6699 24.8299 81.2499 24.7899 80.8199 24.7199V19.5299C80.8199 18.8899 80.7199 18.3999 80.5299 18.0499C80.3399 17.6999 79.9899 17.5299 79.5099 17.5299C79.3099 17.5299 79.0999 17.5599 78.8899 17.6199C78.6799 17.6799 78.4799 17.7999 78.3099 17.9699C78.1399 18.1399 77.9999 18.3799 77.8899 18.6899C77.7799 18.9999 77.7299 19.3999 77.7299 19.8999V24.7199C77.2999 24.7899 76.8799 24.8299 76.4699 24.8299C76.0599 24.8299 75.6299 24.7899 75.2099 24.7199V15.5199H75.1899Z" fill="#2F669A"/>
<path d="M85.4697 11.71C85.8697 11.64 86.2897 11.6 86.7197 11.6C87.1497 11.6 87.5697 11.64 87.9797 11.71V24.71C87.5597 24.78 87.1397 24.82 86.7197 24.82C86.2997 24.82 85.8797 24.78 85.4697 24.71V11.71ZM88.3297 19.9L90.6097 15.52C91.0697 15.45 91.5397 15.41 92.0197 15.41C92.4697 15.41 92.9097 15.45 93.3397 15.52L90.9897 19.77L93.7297 24.71C93.2397 24.78 92.7697 24.82 92.3197 24.82C91.8997 24.82 91.4697 24.78 90.9997 24.71L88.3297 19.9Z" fill="#2F669A"/>
<path d="M57.6298 35.47H54.4498C54.3798 35.11 54.3398 34.74 54.3398 34.35C54.3398 33.98 54.3798 33.62 54.4498 33.27H63.4298C63.4998 33.63 63.5398 33.99 63.5398 34.35C63.5398 34.74 63.4998 35.11 63.4298 35.47H60.2498V46.05C60.0398 46.07 59.8198 46.09 59.6098 46.11C59.3998 46.13 59.1898 46.14 58.9898 46.14C58.7898 46.14 58.5698 46.13 58.3398 46.12C58.1098 46.11 57.8698 46.08 57.6398 46.05V35.47H57.6298Z" fill="#2F669A"/>
<path d="M63.6296 36.86C63.8096 36.82 63.9796 36.8 64.1396 36.78C64.2996 36.76 64.4696 36.75 64.6596 36.75C64.8396 36.75 65.0096 36.76 65.1796 36.79C65.3496 36.81 65.5196 36.84 65.6896 36.88C65.7296 36.94 65.7596 37.03 65.7896 37.14C65.8196 37.25 65.8496 37.37 65.8696 37.5C65.8896 37.62 65.9096 37.75 65.9296 37.87C65.9496 37.99 65.9596 38.1 65.9696 38.18C66.2296 37.81 66.5496 37.48 66.9296 37.19C67.3096 36.9 67.7796 36.75 68.3496 36.75C68.4696 36.75 68.5996 36.76 68.7596 36.77C68.9096 36.78 69.0296 36.8 69.0996 36.82C69.1196 36.94 69.1396 37.07 69.1496 37.23C69.1596 37.38 69.1696 37.54 69.1696 37.71C69.1696 37.91 69.1596 38.13 69.1396 38.37C69.1196 38.61 69.0896 38.83 69.0396 39.05C68.9096 39.03 68.7596 39.01 68.5996 39.01C68.4396 39.01 68.3396 39.01 68.3096 39.01C68.1096 39.01 67.8796 39.03 67.6296 39.07C67.3796 39.11 67.1396 39.22 66.9196 39.4C66.6996 39.58 66.5096 39.84 66.3596 40.2C66.2096 40.56 66.1396 41.05 66.1396 41.69V46.06C65.9296 46.1 65.7096 46.12 65.4996 46.13C65.2896 46.14 65.0796 46.15 64.8796 46.15C64.6796 46.15 64.4696 46.14 64.2696 46.13C64.0596 46.12 63.8496 46.09 63.6196 46.06V36.86H63.6296Z" fill="#2F669A"/>
<path d="M75.1901 40.01C75.1901 39.73 75.1401 39.49 75.0501 39.32C74.9501 39.14 74.8201 39 74.6601 38.9C74.4901 38.8 74.2901 38.73 74.0501 38.7C73.8101 38.66 73.5401 38.65 73.2401 38.65C72.6001 38.65 71.9201 38.77 71.2001 39.02C71.0301 38.71 70.9101 38.42 70.8301 38.15C70.7501 37.88 70.7101 37.55 70.7101 37.17C71.2301 36.99 71.7501 36.86 72.2701 36.78C72.7901 36.7 73.2801 36.66 73.7301 36.66C74.9601 36.66 75.9301 36.96 76.6201 37.55C77.3101 38.14 77.6601 39.09 77.6601 40.4V45.74C77.2401 45.87 76.7401 45.99 76.1501 46.11C75.5601 46.23 74.8901 46.29 74.1401 46.29C73.5301 46.29 72.9801 46.24 72.4801 46.13C71.9801 46.02 71.5401 45.85 71.1801 45.6C70.8201 45.35 70.5401 45.03 70.3501 44.64C70.1501 44.25 70.0601 43.77 70.0601 43.2C70.0601 42.63 70.1801 42.15 70.4201 41.77C70.6601 41.39 70.9801 41.08 71.3601 40.85C71.7401 40.62 72.1701 40.45 72.6501 40.35C73.1201 40.25 73.6001 40.2 74.0701 40.2C74.4101 40.2 74.7901 40.22 75.2101 40.25V40.01H75.1901ZM75.1901 41.84C75.0501 41.82 74.8901 41.8 74.7301 41.78C74.5601 41.76 74.4201 41.75 74.2801 41.75C73.7001 41.75 73.2401 41.85 72.9001 42.06C72.5601 42.27 72.3901 42.6 72.3901 43.06C72.3901 43.37 72.4601 43.61 72.5901 43.77C72.7201 43.94 72.8801 44.06 73.0601 44.13C73.2401 44.2 73.4401 44.25 73.6501 44.27C73.8601 44.29 74.0401 44.3 74.1901 44.3C74.3701 44.3 74.5501 44.28 74.7201 44.26C74.9001 44.23 75.0501 44.2 75.1801 44.18V41.84H75.1901Z" fill="#2F669A"/>
<path d="M79.8799 36.86C80.0499 36.82 80.2099 36.8 80.3799 36.78C80.5499 36.76 80.7299 36.75 80.9299 36.75C81.1299 36.75 81.3099 36.76 81.4599 36.78C81.6099 36.8 81.7699 36.82 81.9399 36.86C81.9799 36.92 82.0099 37.01 82.0399 37.12C82.0699 37.23 82.0999 37.35 82.1199 37.48C82.1399 37.6 82.1599 37.73 82.1799 37.84C82.1999 37.95 82.2099 38.06 82.2199 38.14C82.3399 37.96 82.4799 37.78 82.6499 37.61C82.8199 37.43 83.0099 37.27 83.2299 37.13C83.4499 36.99 83.6899 36.87 83.9699 36.78C84.2499 36.69 84.5499 36.65 84.8799 36.65C85.9199 36.65 86.7099 36.93 87.2399 37.5C87.7699 38.07 88.0299 38.96 88.0299 40.19V46.06C87.5999 46.13 87.1799 46.17 86.7699 46.17C86.3599 46.17 85.9399 46.13 85.5099 46.06V40.87C85.5099 40.23 85.4099 39.74 85.2199 39.39C85.0299 39.04 84.6799 38.87 84.1999 38.87C83.9999 38.87 83.7899 38.9 83.5799 38.96C83.3699 39.02 83.1699 39.14 82.9999 39.31C82.8299 39.48 82.6899 39.72 82.5799 40.03C82.4699 40.34 82.4199 40.74 82.4199 41.24V46.06C81.9899 46.13 81.5699 46.17 81.1599 46.17C80.7499 46.17 80.3199 46.13 79.8999 46.06V36.86H79.8799Z" fill="#2F669A"/>
<path d="M92.0998 42.05C91.4398 41.86 90.9198 41.58 90.5398 41.21C90.1698 40.84 89.9798 40.28 89.9798 39.53C89.9798 38.63 90.2998 37.92 90.9498 37.41C91.5998 36.9 92.4798 36.65 93.5898 36.65C94.0498 36.65 94.5098 36.69 94.9598 36.77C95.4098 36.85 95.8698 36.98 96.3298 37.14C96.3098 37.45 96.2498 37.77 96.1498 38.1C96.0598 38.43 95.9398 38.72 95.8098 38.97C95.5298 38.85 95.2098 38.75 94.8698 38.66C94.5298 38.57 94.1598 38.53 93.7898 38.53C93.3898 38.53 93.0698 38.59 92.8498 38.72C92.6198 38.84 92.5098 39.04 92.5098 39.32C92.5098 39.58 92.5898 39.76 92.7498 39.87C92.9098 39.98 93.1398 40.08 93.4298 40.17L94.4398 40.47C94.7698 40.57 95.0698 40.68 95.3398 40.82C95.6098 40.96 95.8398 41.13 96.0298 41.33C96.2198 41.53 96.3698 41.78 96.4698 42.08C96.5798 42.38 96.6298 42.74 96.6298 43.16C96.6298 43.6 96.5398 44.01 96.3498 44.39C96.1698 44.77 95.8998 45.1 95.5498 45.38C95.1998 45.66 94.7798 45.88 94.2798 46.04C93.7798 46.2 93.2198 46.28 92.5898 46.28C92.2998 46.28 92.0398 46.27 91.8098 46.25C91.5698 46.23 91.3398 46.2 91.1198 46.16C90.8998 46.12 90.6798 46.07 90.4698 46.01C90.2598 45.95 90.0198 45.87 89.7798 45.78C89.7998 45.46 89.8598 45.14 89.9498 44.81C90.0398 44.48 90.1598 44.17 90.2998 43.86C90.6898 44.01 91.0598 44.13 91.4098 44.21C91.7598 44.29 92.1198 44.33 92.4998 44.33C92.6698 44.33 92.8498 44.31 93.0398 44.29C93.2398 44.26 93.4198 44.21 93.5798 44.13C93.7498 44.05 93.8798 43.95 93.9998 43.83C94.1098 43.71 94.1698 43.54 94.1698 43.34C94.1698 43.06 94.0798 42.85 93.9098 42.73C93.7398 42.61 93.4998 42.5 93.1898 42.4L92.0998 42.05Z" fill="#2F669A"/>
<path d="M99.1101 38.78H97.6501C97.6101 38.59 97.5901 38.42 97.5801 38.26C97.5701 38.11 97.5601 37.95 97.5601 37.78C97.5601 37.63 97.5701 37.48 97.5801 37.34C97.5901 37.2 97.6201 37.04 97.6501 36.86H99.1101V36.42C99.1101 35.85 99.2001 35.34 99.3701 34.9C99.5401 34.46 99.7901 34.08 100.11 33.78C100.43 33.48 100.81 33.25 101.26 33.09C101.71 32.93 102.19 32.85 102.73 32.85C103.09 32.85 103.39 32.87 103.63 32.89C103.87 32.92 104.14 32.98 104.42 33.06C104.4 33.45 104.36 33.8 104.3 34.12C104.25 34.43 104.16 34.75 104.04 35.05C103.91 35.03 103.77 35 103.63 34.97C103.49 34.94 103.3 34.93 103.06 34.93C102.64 34.93 102.31 35.03 102.05 35.22C101.79 35.42 101.65 35.83 101.62 36.47V36.86H103.75C103.79 37.05 103.81 37.22 103.82 37.38C103.83 37.53 103.84 37.69 103.84 37.86C103.84 38.01 103.83 38.16 103.82 38.3C103.81 38.44 103.78 38.6 103.75 38.78H101.62V46.05C101.19 46.12 100.78 46.16 100.37 46.16C99.9501 46.16 99.5301 46.12 99.1101 46.05V38.78Z" fill="#2F669A"/>
<path d="M107.02 42.23C107.07 42.94 107.32 43.46 107.77 43.78C108.22 44.1 108.81 44.26 109.55 44.26C109.95 44.26 110.36 44.22 110.79 44.14C111.22 44.06 111.61 43.95 111.99 43.81C112.12 44.05 112.23 44.33 112.33 44.66C112.42 44.99 112.48 45.35 112.49 45.73C111.57 46.09 110.52 46.26 109.36 46.26C108.51 46.26 107.77 46.14 107.16 45.9C106.55 45.66 106.05 45.33 105.67 44.91C105.29 44.49 105 43.99 104.82 43.41C104.64 42.83 104.54 42.2 104.54 41.51C104.54 40.83 104.63 40.2 104.82 39.61C105.01 39.02 105.29 38.5 105.66 38.06C106.03 37.62 106.5 37.27 107.05 37.02C107.6 36.77 108.24 36.64 108.98 36.64C109.62 36.64 110.19 36.75 110.69 36.98C111.19 37.21 111.61 37.51 111.96 37.9C112.31 38.29 112.57 38.76 112.75 39.3C112.93 39.84 113.02 40.42 113.02 41.03C113.02 41.26 113.01 41.48 112.99 41.7C112.97 41.92 112.95 42.09 112.93 42.22H107.02V42.23ZM110.63 40.47C110.61 39.9 110.45 39.44 110.16 39.09C109.87 38.74 109.46 38.57 108.94 38.57C108.35 38.57 107.9 38.74 107.59 39.07C107.28 39.4 107.1 39.87 107.04 40.47H110.63V40.47Z" fill="#2F669A"/>
<path d="M115.01 36.86C115.19 36.82 115.36 36.8 115.52 36.78C115.68 36.76 115.85 36.75 116.04 36.75C116.22 36.75 116.39 36.76 116.56 36.79C116.73 36.81 116.9 36.84 117.07 36.88C117.11 36.94 117.14 37.03 117.17 37.14C117.2 37.25 117.23 37.37 117.25 37.5C117.27 37.62 117.29 37.75 117.31 37.87C117.33 37.99 117.34 38.1 117.35 38.18C117.61 37.81 117.93 37.48 118.31 37.19C118.69 36.9 119.16 36.75 119.73 36.75C119.85 36.75 119.98 36.76 120.14 36.77C120.29 36.78 120.41 36.8 120.48 36.82C120.5 36.94 120.52 37.07 120.53 37.23C120.54 37.38 120.55 37.54 120.55 37.71C120.55 37.91 120.54 38.13 120.52 38.37C120.5 38.61 120.47 38.83 120.42 39.05C120.29 39.03 120.14 39.01 119.98 39.01C119.82 39.01 119.72 39.01 119.69 39.01C119.49 39.01 119.26 39.03 119.01 39.07C118.76 39.11 118.52 39.22 118.3 39.4C118.08 39.58 117.89 39.84 117.74 40.2C117.59 40.56 117.52 41.05 117.52 41.69V46.06C117.31 46.1 117.09 46.12 116.88 46.13C116.67 46.14 116.46 46.15 116.26 46.15C116.06 46.15 115.85 46.14 115.65 46.13C115.44 46.12 115.23 46.09 115 46.06V36.86H115.01Z" fill="#2F669A"/>
</svg>
