<svg width="72" height="72" viewBox="0 0 72 72" fill="none" xmlns="http://www.w3.org/2000/svg">
<path d="M17.1592 59.9486L33.3314 43.7764C34.612 42.4958 36.6807 42.4958 37.9614 43.7764L54.1336 59.9486H17.1592Z" fill="url(#paint0_linear)"/>
<path d="M63.6899 44.6792L62.3107 49.851L9 35.6655L10.3792 30.4937L63.6899 44.6792Z" fill="url(#paint1_linear)"/>
<path d="M63.69 44.6792L63.1975 46.5181L9.88672 32.3325L10.3793 30.4937L63.69 44.6792Z" fill="url(#paint2_linear)"/>
<path d="M62.8033 48.0122L62.3107 49.8511L9 35.6655L9.49255 33.8267L62.8033 48.0122Z" fill="url(#paint3_linear)"/>
<path d="M17.8983 17.8185C28.0285 9.97044 42.5753 9.93761 52.8204 18.4752C59.3057 23.8933 62.7043 31.6592 62.8192 39.4908L57.9758 37.8982C57.4668 31.9548 54.6921 26.2247 49.783 22.1201C41.4916 15.2244 29.8017 15.093 21.4447 21.1186L25.1224 24.5336L12.8086 26.98L14.2863 14.4855L17.8983 17.8185Z" fill="url(#paint4_linear)"/>
<defs>
<linearGradient id="paint0_linear" x1="35.6455" y1="61.068" x2="35.6455" y2="42.7749" gradientUnits="userSpaceOnUse">
<stop stop-color="#1BFDEF" stop-opacity="0"/>
<stop offset="0.1812" stop-color="#1BFAEA" stop-opacity="0.1812"/>
<stop offset="0.3834" stop-color="#19F0DD" stop-opacity="0.3834"/>
<stop offset="0.5959" stop-color="#17E1C7" stop-opacity="0.5959"/>
<stop offset="0.8138" stop-color="#13CBA8" stop-opacity="0.8138"/>
<stop offset="1" stop-color="#10B487"/>
</linearGradient>
<linearGradient id="paint1_linear" x1="10.6123" y1="33.3192" x2="62.084" y2="47.0074" gradientUnits="userSpaceOnUse">
<stop stop-color="#6A19D5" stop-opacity="0.2"/>
<stop offset="1" stop-color="#894CFF"/>
</linearGradient>
<linearGradient id="paint2_linear" x1="62.5781" y1="49.9949" x2="3.88566" y2="23.8133" gradientUnits="userSpaceOnUse">
<stop stop-color="#6A19D5" stop-opacity="0.2"/>
<stop offset="1" stop-color="#894CFF"/>
</linearGradient>
<linearGradient id="paint3_linear" x1="61.6912" y1="53.3294" x2="2.9988" y2="27.1478" gradientUnits="userSpaceOnUse">
<stop stop-color="#6A19D5" stop-opacity="0.2"/>
<stop offset="1" stop-color="#894CFF" stop-opacity="0.2"/>
</linearGradient>
<linearGradient id="paint4_linear" x1="64.6835" y1="37.2463" x2="13.7701" y2="13.2527" gradientUnits="userSpaceOnUse">
<stop offset="0.1431" stop-color="#FF457A" stop-opacity="0.6"/>
<stop offset="0.5085" stop-color="#FF2A6B" stop-opacity="0.7706"/>
<stop offset="1" stop-color="#FF0054"/>
</linearGradient>
</defs>
</svg>
