<svg width="72" height="72" viewBox="0 0 72 72" fill="none" xmlns="http://www.w3.org/2000/svg">
<path d="M23.957 44.3791C21.3178 44.4563 18.7043 44.2374 16.1295 43.5937C15.0481 43.3234 14.0052 42.8985 12.9624 42.4994C12.5633 42.3449 12.1771 42.1003 11.8552 41.8171C10.7609 40.8773 10.7609 39.9246 11.8295 38.9976C12.2415 38.6371 12.7564 38.3668 13.2585 38.1222C14.6361 37.4656 16.1295 37.1051 17.6229 36.8476C19.9145 36.4485 22.2448 36.2296 24.575 36.3069C27.7035 36.4099 30.8448 36.6159 33.8187 37.7359C34.5397 38.0063 35.2092 38.4054 35.9044 38.753C36.046 38.8174 36.1747 38.9204 36.2777 39.0234C37.2304 39.9761 37.269 40.8258 36.2391 41.727C35.737 42.1647 35.0933 42.4865 34.4753 42.7569C33.0849 43.3749 31.5915 43.6967 30.0852 43.9542C28.0639 44.3147 26.0298 44.4306 23.957 44.3791Z" fill="url(#paint0_linear)"/>
<path d="M11.0179 51.7173C15.2406 53.7128 19.5921 54.1891 24.0209 54.1891C28.4239 54.1891 32.7497 53.7257 36.8823 51.7688C36.9338 52.0134 36.9853 52.2065 36.9982 52.4125C37.011 52.7601 36.9595 53.1077 37.011 53.4424C37.217 54.8457 36.4574 55.6697 35.3374 56.2748C34.1272 56.9314 32.814 57.3176 31.4751 57.6008C28.3853 58.2574 25.2568 58.4892 22.1155 58.3089C19.3862 58.1544 16.6697 57.8841 14.082 56.8799C13.361 56.5966 12.64 56.2104 11.9706 55.7727C11.3011 55.3478 10.9535 54.717 11.005 53.8802C11.0565 53.1978 11.0179 52.5284 11.0179 51.7173Z" fill="url(#paint1_linear)"/>
<path d="M11.0179 44.7785C15.3051 46.7998 19.6695 47.2632 24.0853 47.2504C28.4626 47.2375 32.8012 46.7998 36.9596 44.7656C37.0111 45.8342 37.1012 46.7611 36.921 47.6623C36.8051 48.2803 36.303 48.718 35.7494 49.0528C34.3847 49.9025 32.8656 50.3531 31.3207 50.6749C29.6856 51.0096 28.0249 51.2543 26.3383 51.28C25.2826 51.2929 24.2269 51.4474 23.1841 51.3959C20.1458 51.2414 17.1075 51.0611 14.2236 49.9797C13.5027 49.7093 12.7946 49.3746 12.138 48.9755C11.3913 48.5249 10.9536 47.8426 11.0051 46.8899C11.0566 46.2462 11.0179 45.6025 11.0179 44.7785Z" fill="url(#paint2_linear)"/>
<path d="M55.8975 53.1977H38.3242C37.6161 53.1977 37.0367 52.6183 37.0367 51.9102C37.0367 51.2022 37.6161 50.6228 38.3242 50.6228H55.8975C57.8416 50.6228 59.4251 49.0393 59.4251 47.0953V18.1024C59.4251 16.1584 57.8416 14.5749 55.8975 14.5749H26.2352C24.2912 14.5749 22.7077 16.1584 22.7077 18.1024V32.9851C22.7077 33.6931 22.1283 34.2725 21.4202 34.2725C20.7122 34.2725 20.1328 33.6931 20.1328 32.9851V18.1024C20.1328 14.7422 22.875 12 26.2352 12H55.8975C59.2577 12 61.9999 14.7422 61.9999 18.1024V47.0953C61.9999 50.4555 59.2706 53.1977 55.8975 53.1977Z" fill="url(#paint3_radial)"/>
<path d="M51.8166 38.6884H44.0019C42.9591 38.6884 42.1094 37.8387 42.1094 36.7959V23.4453C42.1094 22.4024 42.9591 21.5527 44.0019 21.5527H51.8166C52.8594 21.5527 53.7091 22.4024 53.7091 23.4453V36.7959C53.7091 37.8387 52.8594 38.6884 51.8166 38.6884Z" fill="url(#paint4_linear)"/>
<path d="M44.8 30.0112C45.1734 30.333 45.7398 30.2944 46.0617 29.921L47.1045 28.7109V32.9594C47.1045 33.4486 47.5036 33.8477 47.9928 33.8477C48.4821 33.8477 48.8812 33.4486 48.8812 32.9594V28.7109L49.924 29.921C50.1042 30.127 50.3488 30.23 50.5934 30.23C50.7994 30.23 51.0054 30.1528 51.1728 30.0112C51.5461 29.6893 51.5848 29.1228 51.2629 28.7495L48.6494 25.724C48.4821 25.5309 48.2374 25.415 47.98 25.415C47.7225 25.415 47.4779 25.5309 47.3105 25.724L44.697 28.7495C44.388 29.1228 44.4395 29.6893 44.8 30.0112Z" fill="url(#paint5_linear)"/>
<defs>
<linearGradient id="paint0_linear" x1="11.0369" y1="40.3495" x2="36.9971" y2="40.3495" gradientUnits="userSpaceOnUse">
<stop stop-color="#FF0054" stop-opacity="0.1165"/>
<stop offset="1" stop-color="#FF0054"/>
</linearGradient>
<linearGradient id="paint1_linear" x1="11.0054" y1="55.0441" x2="37.0518" y2="55.0441" gradientUnits="userSpaceOnUse">
<stop stop-color="#FF0054" stop-opacity="0.1165"/>
<stop offset="1" stop-color="#FF0054"/>
</linearGradient>
<linearGradient id="paint2_linear" x1="11.0051" y1="48.0921" x2="37.0423" y2="48.0921" gradientUnits="userSpaceOnUse">
<stop stop-color="#FF0054" stop-opacity="0.1165"/>
<stop offset="1" stop-color="#FF0054"/>
</linearGradient>
<radialGradient id="paint3_radial" cx="0" cy="0" r="1" gradientUnits="userSpaceOnUse" gradientTransform="translate(34.2791 44.4043) scale(30.5187)">
<stop offset="0.1359" stop-color="white" stop-opacity="0.1"/>
<stop offset="0.23" stop-color="#F7F3FF" stop-opacity="0.198"/>
<stop offset="0.3993" stop-color="#E3D4FF" stop-opacity="0.3744"/>
<stop offset="0.6244" stop-color="#C1A1FF" stop-opacity="0.6088"/>
<stop offset="0.8938" stop-color="#935BFF" stop-opacity="0.8894"/>
<stop offset="1" stop-color="#803EFF"/>
</radialGradient>
<linearGradient id="paint4_linear" x1="47.9168" y1="22.5695" x2="47.9168" y2="40.5375" gradientUnits="userSpaceOnUse">
<stop stop-color="#803EFF"/>
<stop offset="0.3424" stop-color="#955EFF" stop-opacity="0.856"/>
<stop offset="1" stop-color="#BB98FF" stop-opacity="0.5794"/>
</linearGradient>
<linearGradient id="paint5_linear" x1="48.0008" y1="25.4243" x2="48.0008" y2="36.1728" gradientUnits="userSpaceOnUse">
<stop stop-color="#FF0054"/>
<stop offset="1" stop-color="#FF0054" stop-opacity="0.4"/>
</linearGradient>
</defs>
</svg>
