<svg width="72" height="72" viewBox="0 0 72 72" fill="none" xmlns="http://www.w3.org/2000/svg">
<path d="M21.8385 63.1007C12.9636 57.9888 7.44345 48.4572 7.4257 38.2333V37.7363H4V38.2156C4.01775 49.6464 10.1947 60.314 20.1168 66.0472L20.5428 66.2957L22.2645 63.3315L21.8385 63.1007Z" fill="url(#paint0_linear)"/>
<path d="M64.9174 37.7014V38.1629C64.9174 48.3868 59.415 57.9184 50.5578 63.0481L50.1318 63.2966L51.8536 66.2608L52.2796 66.0123C62.1839 60.2791 68.3431 49.5938 68.3431 38.0387V37.5239L64.9174 37.7014Z" fill="url(#paint1_linear)"/>
<path d="M52.1725 10.2599C47.3268 7.47323 41.7889 6 36.1622 6C30.4823 6 24.8912 7.50873 20.01 10.3487L19.584 10.5972L21.3057 13.5614L21.7317 13.3129C26.0981 10.7747 31.0858 9.4257 36.18 9.4257C41.2032 9.4257 46.1376 10.7392 50.4685 13.2241L50.8945 13.4726L52.5985 10.5084L52.1725 10.2599Z" fill="url(#paint2_linear)"/>
<path d="M49.0839 37.1682C47.0604 37.2747 45.1257 37.1505 43.262 36.5115C42.126 36.121 41.0078 36.1032 39.9251 36.6535C38.6826 37.2925 37.9371 38.322 37.7773 39.6887C37.5111 42.0672 39.0908 44.0019 41.4515 44.1794C42.0195 44.2326 42.6585 44.0906 43.2088 43.8954C45.0725 43.2919 46.9895 43.1321 48.9419 43.2209C48.9774 43.2209 49.0129 43.2564 49.0839 43.2919C49.1017 43.4516 49.1194 43.6291 49.1194 43.8066C49.1194 45.0314 49.1372 46.2561 49.1194 47.4631C49.1194 47.8181 49.0839 48.1731 48.9952 48.5281C48.7289 49.7883 47.8592 50.587 46.5635 50.7823C46.1907 50.8355 45.818 50.871 45.4452 50.871C38.7891 50.871 32.1507 50.871 25.4945 50.871C25.0685 50.871 24.6248 50.8355 24.1988 50.7645C22.8498 50.516 21.9268 49.4688 21.8381 48.0488C21.8203 47.7471 21.8203 47.4453 21.8203 47.1436C21.8203 42.8304 21.8203 38.4995 21.8203 34.1863C21.8203 33.6183 21.8203 33.068 21.8381 32.5001C21.9091 30.8138 22.903 29.7311 24.5715 29.5358C24.9088 29.5003 25.246 29.4826 25.5833 29.4648C32.1684 29.4648 38.7713 29.4648 45.3565 29.4648C45.8712 29.4648 46.4037 29.5181 46.9185 29.6246C48.0899 29.9086 48.7644 30.7073 49.0129 31.8788C49.0662 32.1628 49.1017 32.4823 49.1017 32.7663C49.1194 34.0265 49.1017 35.2868 49.1017 36.547C49.1194 36.7777 49.1017 36.9375 49.0839 37.1682Z" fill="url(#paint3_linear)"/>
<path d="M47.914 42.4936C46.0858 42.5646 44.3996 42.7421 42.7666 43.3279C41.3999 43.8249 39.9266 43.3279 39.0569 42.1564C38.2049 41.0204 38.1871 39.4762 39.0036 38.3224C39.8556 37.1332 41.3289 36.6185 42.7311 37.08C43.7073 37.4172 44.7013 37.6834 45.7308 37.7722C46.636 37.8609 47.559 37.8609 48.482 37.9142C48.695 37.9319 48.8902 37.9142 49.1032 37.9142C50.2037 37.9142 50.4877 38.1982 50.4877 39.2632C50.4877 39.9199 50.4877 40.5767 50.4877 41.2334C50.47 42.1919 50.186 42.4759 49.2452 42.4936C48.7837 42.5114 48.2868 42.4936 47.914 42.4936ZM40.3526 40.2217C40.3526 41.0026 40.9739 41.6239 41.7371 41.6061C42.5003 41.5884 43.1393 40.9494 43.1393 40.2039C43.1393 39.4407 42.5003 38.8372 41.7371 38.8372C40.9384 38.8372 40.3526 39.4229 40.3526 40.2217Z" fill="url(#paint4_linear)"/>
<path d="M39.4107 24.6016C35.0797 25.7021 30.873 26.7848 26.6841 27.8676C26.6664 27.8321 26.6486 27.7966 26.6309 27.7611C26.7196 27.6901 26.8261 27.6013 26.9149 27.5481C29.7371 25.6311 32.5593 23.7319 35.3815 21.8149C35.8252 21.5132 36.3045 21.2824 36.8547 21.4954C37.0855 21.5842 37.3695 21.7084 37.5115 21.9037C38.1682 22.7556 38.7539 23.6254 39.4107 24.6016Z" fill="url(#paint5_linear)"/>
<path d="M29.7725 28.2759C30.8197 28.0096 31.8669 27.7256 32.9142 27.4594C35.8429 26.7139 38.7716 25.9684 41.6825 25.2229C41.931 25.1519 42.1973 25.0987 42.4635 25.0809C43.1203 25.0454 43.635 25.3472 43.848 25.9507C44.132 26.7139 44.2918 27.5304 44.5225 28.3646C39.5526 28.3646 34.6714 28.3646 29.7902 28.3646C29.7725 28.3469 29.7725 28.3114 29.7725 28.2759Z" fill="url(#paint6_linear)"/>
<defs>
<linearGradient id="paint0_linear" x1="4.33583" y1="38.2" x2="19.1601" y2="66.1045" gradientUnits="userSpaceOnUse">
<stop stop-color="#803EFF"/>
<stop offset="1" stop-color="#803EFF" stop-opacity="0"/>
</linearGradient>
<linearGradient id="paint1_linear" x1="53.1291" y1="65.771" x2="68.3892" y2="38.7385" gradientUnits="userSpaceOnUse">
<stop stop-color="#803EFF"/>
<stop offset="1" stop-color="#803EFF" stop-opacity="0"/>
</linearGradient>
<linearGradient id="paint2_linear" x1="52.7615" y1="12.2646" x2="20.2789" y2="8.7766" gradientUnits="userSpaceOnUse">
<stop stop-color="#803EFF"/>
<stop offset="1" stop-color="#803EFF" stop-opacity="0"/>
</linearGradient>
<linearGradient id="paint3_linear" x1="35.4725" y1="49.9596" x2="35.4725" y2="30.1271" gradientUnits="userSpaceOnUse">
<stop stop-color="#FF0054" stop-opacity="0.438609"/>
<stop offset="1" stop-color="#FF0054"/>
</linearGradient>
<linearGradient id="paint4_linear" x1="38.4269" y1="40.2167" x2="50.5197" y2="40.2167" gradientUnits="userSpaceOnUse">
<stop stop-color="#FFE278"/>
<stop offset="0.642" stop-color="#FBC532"/>
<stop offset="1" stop-color="#F8B409"/>
</linearGradient>
<linearGradient id="paint5_linear" x1="26.6396" y1="24.63" x2="39.4174" y2="24.63" gradientUnits="userSpaceOnUse">
<stop stop-color="#1BFDEF" stop-opacity="0"/>
<stop offset="0.1812" stop-color="#1BFAEA" stop-opacity="0.1812"/>
<stop offset="0.3834" stop-color="#19F0DD" stop-opacity="0.3834"/>
<stop offset="0.5959" stop-color="#17E1C7" stop-opacity="0.5959"/>
<stop offset="0.8138" stop-color="#13CBA8" stop-opacity="0.8138"/>
<stop offset="1" stop-color="#10B487"/>
</linearGradient>
<linearGradient id="paint6_linear" x1="29.7664" y1="26.7272" x2="44.5047" y2="26.7272" gradientUnits="userSpaceOnUse">
<stop stop-color="#1BFDEF" stop-opacity="0"/>
<stop offset="0.1812" stop-color="#1BFAEA" stop-opacity="0.1812"/>
<stop offset="0.3834" stop-color="#19F0DD" stop-opacity="0.3834"/>
<stop offset="0.5959" stop-color="#17E1C7" stop-opacity="0.5959"/>
<stop offset="0.8138" stop-color="#13CBA8" stop-opacity="0.8138"/>
<stop offset="1" stop-color="#10B487"/>
</linearGradient>
</defs>
</svg>
