<svg width="72" height="72" viewBox="0 0 72 72" fill="none" xmlns="http://www.w3.org/2000/svg">
<path d="M49.3497 48.4971L45.2372 51.7438C46.7523 53.6918 47.6181 56.2892 47.6181 58.8865H53.0293C53.0293 54.9905 51.5142 51.5273 49.3497 48.4971Z" fill="url(#paint0_linear)"/>
<path d="M36.1456 41.3545V46.5492C39.3923 46.7657 42.2061 48.2808 44.1541 50.4453L48.2666 47.1986C45.4528 43.9519 41.1239 41.7874 36.1456 41.3545Z" fill="url(#paint1_linear)"/>
<path d="M22.2934 47.1984L26.4059 50.6616C28.5703 48.4971 31.3842 46.982 34.6309 46.7655V41.5708C29.6526 41.5708 25.3236 43.7353 22.2934 47.1984Z" fill="url(#paint2_linear)"/>
<path d="M17.7486 59.103H22.9433C22.9433 56.5056 23.8091 53.9082 25.3242 51.9602L21.2117 48.4971C19.0473 51.3109 17.7486 54.9905 17.7486 59.103Z" fill="url(#paint3_linear)"/>
<path d="M45.8867 54.7739L36.1466 58.2371V58.4535C35.9302 58.8864 35.2808 59.1029 34.8479 58.8864L31.6012 59.9687L32.467 58.8864L31.1683 58.67L34.415 57.8042V57.5877C34.6315 57.1548 35.2808 56.9384 35.7137 57.1548L35.9302 57.3713L45.8867 54.7739ZM34.6315 57.5877C34.6315 57.5877 34.6315 57.8042 34.6315 57.5877C34.415 58.0206 34.6315 58.4535 34.8479 58.67C35.2808 58.8864 35.7137 58.67 35.7137 58.4535C35.9302 58.2371 35.7137 57.8042 35.4973 57.5877C35.2808 57.1548 34.8479 57.3713 34.6315 57.5877Z" fill="white"/>
<path d="M57.142 28.3677C54.9775 22.5237 49.3499 18.4112 43.0729 18.4112C41.9907 18.4112 40.692 18.6276 39.6098 18.8441C36.796 15.1645 32.467 13 27.9216 13C19.4802 13 12.7704 19.7099 12.7704 27.9348C12.7704 28.1513 12.7704 28.5842 12.7704 28.8006C5.62762 29.8829 0 36.1598 0 43.7355C0 51.9604 6.70985 58.6703 14.9348 58.6703H17.7486C17.5322 58.0209 17.5322 57.1552 17.5322 56.2894C17.5322 55.64 17.5322 54.9907 17.7486 54.3414H14.9348C9.09077 54.3414 4.32894 49.5795 4.32894 43.7355C4.32894 37.8914 9.09077 33.1296 14.9348 33.1296H17.9651L17.5322 30.3157C17.3157 29.6664 17.0993 28.8006 17.0993 27.9348C17.0993 22.0908 21.8611 17.3289 27.7052 17.3289C31.3848 17.3289 34.8479 19.277 36.796 22.5237L37.6618 24.0388L39.3933 23.3894C40.4756 22.9566 41.7742 22.7401 43.0729 22.7401C48.0512 22.7401 52.3801 26.2033 53.4624 30.9651L53.8953 32.6967H55.6268H56.0597C62.1202 32.6967 66.8821 37.6749 66.8821 43.519C66.8821 49.5795 61.9038 54.3414 56.0597 54.3414H53.6788C53.6788 54.9907 53.6788 55.64 53.6788 56.2894C53.6788 57.1552 53.6788 57.8045 53.4624 58.6703H55.8433C64.2847 58.6703 70.9946 51.9604 70.9946 43.519C71.211 35.5105 64.9341 29.0171 57.142 28.3677Z" fill="url(#paint4_radial)"/>
<defs>
<linearGradient id="paint0_linear" x1="51.2137" y1="59.4932" x2="47.3238" y2="50.1254" gradientUnits="userSpaceOnUse">
<stop stop-color="#1BFDEF"/>
<stop offset="0.2989" stop-color="#26F6D4"/>
<stop offset="0.9378" stop-color="#42E390"/>
<stop offset="1" stop-color="#45E189"/>
</linearGradient>
<linearGradient id="paint1_linear" x1="40.4985" y1="48.113" x2="42.8009" y2="43.3099" gradientUnits="userSpaceOnUse">
<stop stop-color="#FFE278" stop-opacity="0.2"/>
<stop offset="0.642" stop-color="#FBC532" stop-opacity="0.7136"/>
<stop offset="1" stop-color="#F8B409"/>
</linearGradient>
<linearGradient id="paint2_linear" x1="30.2405" y1="47.7724" x2="27.9381" y2="43.3266" gradientUnits="userSpaceOnUse">
<stop stop-color="#803EFF"/>
<stop offset="0.272" stop-color="#742AEA"/>
<stop offset="0.7391" stop-color="#620BCB"/>
<stop offset="1" stop-color="#5B00BF"/>
</linearGradient>
<linearGradient id="paint3_linear" x1="23.7957" y1="55.0608" x2="18.8735" y2="53.5524" gradientUnits="userSpaceOnUse">
<stop stop-color="#FF0054" stop-opacity="0.1165"/>
<stop offset="1" stop-color="#FF0054"/>
</linearGradient>
<radialGradient id="paint4_radial" cx="0" cy="0" r="1" gradientUnits="userSpaceOnUse" gradientTransform="translate(38.1572 19.7752) scale(52.6548)">
<stop stop-color="#FF0054"/>
<stop offset="0.9095" stop-color="#FF0054" stop-opacity="0.1965"/>
<stop offset="1" stop-color="#FF0054" stop-opacity="0.1165"/>
</radialGradient>
</defs>
</svg>
