<svg width="72" height="72" viewBox="0 0 72 72" fill="none" xmlns="http://www.w3.org/2000/svg">
<path d="M59.9926 12L54.6507 12.7903L56.202 14.2539L42.7814 29.2112L35.5149 21.1837C35.3173 20.9715 35.0392 20.8544 34.7612 20.8617C34.4758 20.8691 34.205 21.0008 34.0221 21.2203L20.6673 37.4071L20.6599 37.4144L12.6471 28.8161C12.3836 28.5307 11.9372 28.5161 11.6519 28.7795L11.2274 29.1673C10.942 29.4308 10.9201 29.8845 11.1908 30.1699L20.1331 39.7707C20.4551 40.1146 21.0039 40.1 21.3039 39.7341L22.021 38.8706L34.8197 23.3571L42.0642 31.348C42.2545 31.5529 42.5179 31.67 42.796 31.67C43.0741 31.67 43.3448 31.5456 43.5278 31.3407L57.6363 15.6003L59.3267 17.1956L59.9926 12Z" fill="url(#paint0_linear)"/>
<path d="M20.4264 53.9231C23.6677 53.9231 26.2952 51.2956 26.2952 48.0543C26.2952 44.8131 23.6677 42.1855 20.4264 42.1855C17.1852 42.1855 14.5576 44.8131 14.5576 48.0543C14.5576 51.2956 17.1852 53.9231 20.4264 53.9231Z" fill="url(#paint1_linear)"/>
<path d="M20.4256 52.6203C22.9475 52.6203 24.9919 50.5759 24.9919 48.054C24.9919 45.5322 22.9475 43.4878 20.4256 43.4878C17.9038 43.4878 15.8594 45.5322 15.8594 48.054C15.8594 50.5759 17.9038 52.6203 20.4256 52.6203Z" fill="url(#paint2_linear)"/>
<path d="M20.4253 51.9038C22.5511 51.9038 24.2744 50.1805 24.2744 48.0547C24.2744 45.9289 22.5511 44.2056 20.4253 44.2056C18.2995 44.2056 16.5762 45.9289 16.5762 48.0547C16.5762 50.1805 18.2995 51.9038 20.4253 51.9038Z" fill="url(#paint3_linear)"/>
<path d="M24.3994 59.5798H16.4524C15.406 59.5798 14.5498 58.7309 14.5498 57.6772V57.304C14.5498 56.2575 15.3987 55.4014 16.4524 55.4014H24.3994C25.4459 55.4014 26.302 56.2502 26.302 57.304V57.6772C26.2947 58.7236 25.4459 59.5798 24.3994 59.5798Z" fill="url(#paint4_linear)"/>
<path d="M37.2711 44.5857C40.5124 44.5857 43.1399 41.9582 43.1399 38.7169C43.1399 35.4757 40.5124 32.8481 37.2711 32.8481C34.0299 32.8481 31.4023 35.4757 31.4023 38.7169C31.4023 41.9582 34.0299 44.5857 37.2711 44.5857Z" fill="url(#paint5_linear)"/>
<path d="M37.2713 43.2834C39.7932 43.2834 41.8376 41.239 41.8376 38.7171C41.8376 36.1953 39.7932 34.1509 37.2713 34.1509C34.7495 34.1509 32.7051 36.1953 32.7051 38.7171C32.7051 41.239 34.7495 43.2834 37.2713 43.2834Z" fill="url(#paint6_linear)"/>
<path d="M37.271 42.5659C39.3968 42.5659 41.1201 40.8426 41.1201 38.7168C41.1201 36.591 39.3968 34.8677 37.271 34.8677C35.1452 34.8677 33.4219 36.591 33.4219 38.7168C33.4219 40.8426 35.1452 42.5659 37.271 42.5659Z" fill="url(#paint7_linear)"/>
<path d="M41.2447 59.5798H33.3049C32.2585 59.5798 31.4023 58.7309 31.4023 57.6772V57.304C31.4023 56.2575 32.2512 55.4014 33.3049 55.4014H41.252C42.2984 55.4014 43.1546 56.2502 43.1546 57.304V57.6772C43.1473 58.7236 42.2984 59.5798 41.2447 59.5798Z" fill="url(#paint8_linear)"/>
<path d="M54.1237 38.7098C57.3649 38.7098 59.9925 36.0822 59.9925 32.841C59.9925 29.5997 57.3649 26.9722 54.1237 26.9722C50.8824 26.9722 48.2549 29.5997 48.2549 32.841C48.2549 36.0822 50.8824 38.7098 54.1237 38.7098Z" fill="url(#paint9_linear)"/>
<path d="M54.1239 37.4074C56.6457 37.4074 58.6901 35.363 58.6901 32.8412C58.6901 30.3193 56.6457 28.2749 54.1239 28.2749C51.602 28.2749 49.5576 30.3193 49.5576 32.8412C49.5576 35.363 51.602 37.4074 54.1239 37.4074Z" fill="url(#paint10_linear)"/>
<path d="M54.1235 36.6904C56.2493 36.6904 57.9726 34.9671 57.9726 32.8413C57.9726 30.7155 56.2493 28.9922 54.1235 28.9922C51.9977 28.9922 50.2744 30.7155 50.2744 32.8413C50.2744 34.9671 51.9977 36.6904 54.1235 36.6904Z" fill="url(#paint11_linear)"/>
<path d="M58.0977 59.5798H50.1506C49.1042 59.5798 48.248 58.7309 48.248 57.6772V57.304C48.248 56.2575 49.0969 55.4014 50.1506 55.4014H58.0977C59.1441 55.4014 60.0003 56.2502 60.0003 57.304V57.6772C59.993 58.7236 59.1441 59.5798 58.0977 59.5798Z" fill="url(#paint12_linear)"/>
<path d="M58.0977 54.5817H50.1506C49.1042 54.5817 48.248 53.7329 48.248 52.6791V52.3059C48.248 51.2595 49.0969 50.4033 50.1506 50.4033H58.0977C59.1441 50.4033 60.0003 51.2522 60.0003 52.3059V52.6791C59.993 53.7329 59.1441 54.5817 58.0977 54.5817Z" fill="url(#paint13_linear)"/>
<path d="M58.0977 49.5837H50.1506C49.1042 49.5837 48.248 48.7348 48.248 47.6811V47.3079C48.248 46.2614 49.0969 45.4053 50.1506 45.4053H58.0977C59.1441 45.4053 60.0003 46.2541 60.0003 47.3079V47.6811C59.993 48.7348 59.1441 49.5837 58.0977 49.5837Z" fill="url(#paint14_linear)"/>
<path d="M41.2447 54.5817H33.3049C32.2585 54.5817 31.4023 53.7329 31.4023 52.6791V52.3059C31.4023 51.2595 32.2512 50.4033 33.3049 50.4033H41.252C42.2984 50.4033 43.1546 51.2522 43.1546 52.3059V52.6791C43.1473 53.7329 42.2984 54.5817 41.2447 54.5817Z" fill="url(#paint15_linear)"/>
<path d="M41.2447 49.5837H33.3049C32.2585 49.5837 31.4023 48.7348 31.4023 47.6811V47.3079C31.4023 46.2614 32.2512 45.4053 33.3049 45.4053H41.252C42.2984 45.4053 43.1546 46.2541 43.1546 47.3079V47.6811C43.1473 48.7348 42.2984 49.5837 41.2447 49.5837Z" fill="url(#paint16_linear)"/>
<path d="M58.0977 44.5856H50.1506C49.1042 44.5856 48.248 43.7368 48.248 42.683V42.3098C48.248 41.2634 49.0969 40.4072 50.1506 40.4072H58.0977C59.1441 40.4072 60.0003 41.2561 60.0003 42.3098V42.683C59.993 43.7368 59.1441 44.5856 58.0977 44.5856Z" fill="url(#paint17_linear)"/>
<defs>
<linearGradient id="paint0_linear" x1="11.0006" y1="26.009" x2="59.9954" y2="26.009" gradientUnits="userSpaceOnUse">
<stop stop-color="#FF0054" stop-opacity="0.1165"/>
<stop offset="1" stop-color="#FF0054"/>
</linearGradient>
<linearGradient id="paint1_linear" x1="14.5545" y1="48.0545" x2="26.2976" y2="48.0545" gradientUnits="userSpaceOnUse">
<stop stop-color="#F8B409"/>
<stop offset="0.358" stop-color="#FBC532" stop-opacity="0.642"/>
<stop offset="1" stop-color="#FFE278" stop-opacity="0"/>
</linearGradient>
<linearGradient id="paint2_linear" x1="21.723" y1="52.4048" x2="19.1051" y2="43.9732" gradientUnits="userSpaceOnUse">
<stop stop-color="#F8C74D"/>
<stop offset="1" stop-color="#FFE278" stop-opacity="0"/>
</linearGradient>
<linearGradient id="paint3_linear" x1="24.0674" y1="49.1513" x2="16.9303" y2="47.074" gradientUnits="userSpaceOnUse">
<stop stop-color="#F89C09"/>
<stop offset="0.358" stop-color="#FBB632" stop-opacity="0.642"/>
<stop offset="1" stop-color="#FFE278" stop-opacity="0"/>
</linearGradient>
<linearGradient id="paint4_linear" x1="14.554" y1="57.4909" x2="26.2971" y2="57.4909" gradientUnits="userSpaceOnUse">
<stop stop-color="#6A19D5"/>
<stop offset="1" stop-color="#894CFF"/>
</linearGradient>
<linearGradient id="paint5_linear" x1="31.403" y1="38.714" x2="43.1462" y2="38.714" gradientUnits="userSpaceOnUse">
<stop stop-color="#F8B409"/>
<stop offset="0.358" stop-color="#FBC532" stop-opacity="0.642"/>
<stop offset="1" stop-color="#FFE278" stop-opacity="0"/>
</linearGradient>
<linearGradient id="paint6_linear" x1="38.5718" y1="43.0653" x2="35.954" y2="34.6337" gradientUnits="userSpaceOnUse">
<stop stop-color="#F8C74D"/>
<stop offset="1" stop-color="#FFE278" stop-opacity="0"/>
</linearGradient>
<linearGradient id="paint7_linear" x1="40.9166" y1="39.8106" x2="33.7795" y2="37.7333" gradientUnits="userSpaceOnUse">
<stop stop-color="#F89C09"/>
<stop offset="0.358" stop-color="#FBB632" stop-opacity="0.642"/>
<stop offset="1" stop-color="#FFE278" stop-opacity="0"/>
</linearGradient>
<linearGradient id="paint8_linear" x1="31.403" y1="57.4909" x2="43.1462" y2="57.4909" gradientUnits="userSpaceOnUse">
<stop stop-color="#6A19D5"/>
<stop offset="1" stop-color="#894CFF"/>
</linearGradient>
<linearGradient id="paint9_linear" x1="48.252" y1="32.8425" x2="59.9953" y2="32.8425" gradientUnits="userSpaceOnUse">
<stop stop-color="#F8B409"/>
<stop offset="0.358" stop-color="#FBC532" stop-opacity="0.642"/>
<stop offset="1" stop-color="#FFE278" stop-opacity="0"/>
</linearGradient>
<linearGradient id="paint10_linear" x1="55.4201" y1="37.1943" x2="52.8023" y2="28.7626" gradientUnits="userSpaceOnUse">
<stop stop-color="#F8C74D"/>
<stop offset="1" stop-color="#FFE278" stop-opacity="0"/>
</linearGradient>
<linearGradient id="paint11_linear" x1="57.7654" y1="33.9399" x2="50.6283" y2="31.8625" gradientUnits="userSpaceOnUse">
<stop stop-color="#F89C09"/>
<stop offset="0.358" stop-color="#FBB632" stop-opacity="0.642"/>
<stop offset="1" stop-color="#FFE278" stop-opacity="0"/>
</linearGradient>
<linearGradient id="paint12_linear" x1="48.2525" y1="57.4909" x2="59.9957" y2="57.4909" gradientUnits="userSpaceOnUse">
<stop stop-color="#6A19D5"/>
<stop offset="1" stop-color="#894CFF"/>
</linearGradient>
<linearGradient id="paint13_linear" x1="48.2525" y1="52.4935" x2="59.9957" y2="52.4935" gradientUnits="userSpaceOnUse">
<stop stop-color="#6A19D5"/>
<stop offset="1" stop-color="#894CFF"/>
</linearGradient>
<linearGradient id="paint14_linear" x1="48.2525" y1="47.4962" x2="59.9957" y2="47.4962" gradientUnits="userSpaceOnUse">
<stop stop-color="#6A19D5"/>
<stop offset="1" stop-color="#894CFF"/>
</linearGradient>
<linearGradient id="paint15_linear" x1="31.403" y1="52.4935" x2="43.1462" y2="52.4935" gradientUnits="userSpaceOnUse">
<stop stop-color="#6A19D5"/>
<stop offset="1" stop-color="#894CFF"/>
</linearGradient>
<linearGradient id="paint16_linear" x1="31.403" y1="47.4962" x2="43.1462" y2="47.4962" gradientUnits="userSpaceOnUse">
<stop stop-color="#6A19D5"/>
<stop offset="1" stop-color="#894CFF"/>
</linearGradient>
<linearGradient id="paint17_linear" x1="48.2525" y1="42.4988" x2="59.9957" y2="42.4988" gradientUnits="userSpaceOnUse">
<stop stop-color="#6A19D5"/>
<stop offset="1" stop-color="#894CFF"/>
</linearGradient>
</defs>
</svg>
