<svg width="72" height="72" viewBox="0 0 72 72" fill="none" xmlns="http://www.w3.org/2000/svg">
<path d="M61.3144 24.2935L58.3332 25.6684C59.9138 29.0736 60.7105 32.5431 60.7105 35.9998C60.7105 49.6336 49.621 60.7102 36 60.7102C31.0271 60.7102 26.234 59.1811 22.0578 56.277C22.7003 54.5294 22.3277 52.4862 20.927 51.0856C19.0124 49.171 15.8898 49.171 13.9623 51.0856C12.0477 53.0002 12.0477 56.1228 13.9623 58.0503C15.5814 59.6694 18.0486 59.9264 19.9376 58.8084C24.7306 62.2137 30.2561 63.9998 36 63.9998C51.42 63.9998 64.0001 51.4197 64.0001 35.9998C63.9872 32.0677 63.0877 28.1227 61.3144 24.2935ZM18.6012 55.7116C17.9587 56.3541 16.9178 56.3541 16.2753 55.7116C15.6328 55.0691 15.6328 54.0282 16.2753 53.3857C16.9178 52.7432 17.9587 52.7432 18.6012 53.3857C19.2308 54.0282 19.2308 55.0691 18.6012 55.7116Z" fill="url(#paint0_linear)"/>
<path d="M51.073 20.9142C52.9877 22.8288 56.1102 22.8288 58.0377 20.9142C59.9523 18.9996 59.9523 15.877 58.0377 13.9495C56.4186 12.3304 53.9514 12.0734 52.0625 13.1914C47.2694 9.78614 41.744 8 36 8C20.5801 8 8 20.5801 8 36C8 39.9321 8.8995 43.8642 10.6728 47.7063L13.654 46.3314C12.0734 42.9262 11.2767 39.4567 11.2767 36C11.2767 22.3662 22.3662 11.2896 35.9872 11.2896C40.9601 11.2896 45.7531 12.8187 49.9294 15.7228C49.2997 17.4704 49.6724 19.5136 51.073 20.9142ZM53.3989 16.2754C54.0414 15.6329 55.0822 15.6329 55.7247 16.2754C56.3672 16.9179 56.3672 17.9587 55.7247 18.6012C55.0822 19.2437 54.0414 19.2437 53.3989 18.6012C52.7564 17.9587 52.7564 16.9179 53.3989 16.2754Z" fill="url(#paint1_linear)"/>
<path d="M37.504 26.3108L40.7422 31.4894C40.8836 31.7207 41.1149 31.8877 41.3719 31.952L47.2957 33.4297C48.0538 33.6225 48.3494 34.5348 47.8482 35.1259L43.929 39.8033C43.7491 40.0089 43.672 40.2787 43.6849 40.5486L44.1089 46.6395C44.1603 47.4105 43.3893 47.9759 42.6697 47.6803L37.0157 45.393C36.7587 45.2902 36.476 45.2902 36.2319 45.393L30.5779 47.6803C29.8583 47.9759 29.0873 47.4105 29.1387 46.6395L29.5628 40.5486C29.5756 40.2787 29.4985 40.0089 29.3186 39.8033L25.3994 35.1259C24.8982 34.5348 25.1938 33.6225 25.9519 33.4297L31.8758 31.952C32.1456 31.8877 32.3641 31.7207 32.5054 31.4894L35.7436 26.3108C36.1291 25.6555 37.0928 25.6555 37.504 26.3108Z" fill="url(#paint2_linear)"/>
<path d="M45.6002 30.8343H44.9577C44.2381 30.8343 44.2381 29.7549 44.9577 29.7549H45.6002C46.3198 29.7549 46.3198 30.8343 45.6002 30.8343Z" fill="url(#paint3_linear)"/>
<path d="M56.1241 29.5368C54.4022 29.5368 53.0016 28.1233 53.0016 26.4014V26.2472C53.0016 25.5276 51.9222 25.5276 51.9222 26.2472V26.4014C51.9222 28.1362 50.5215 29.5368 48.7868 29.5368C48.0672 29.5368 48.0672 30.6162 48.7868 30.6162C50.5087 30.6162 51.9093 32.0168 51.9222 33.7387C51.9222 34.0343 52.1663 34.2784 52.4619 34.2784C52.7574 34.2784 53.0016 34.0343 53.0016 33.7387C53.0016 32.0168 54.4022 30.6162 56.1241 30.6162C56.8437 30.6162 56.8437 29.5368 56.1241 29.5368Z" fill="url(#paint4_linear)"/>
<path d="M31.375 25.2574C30.3727 25.6044 29.2676 25.0775 28.9207 24.0624L28.895 23.9724C28.7536 23.5612 28.124 23.7797 28.2653 24.1909L28.291 24.2808C28.638 25.296 28.1111 26.3882 27.096 26.748C26.6848 26.8894 26.9032 27.519 27.3144 27.3777C28.3167 27.0307 29.4218 27.5576 29.7816 28.5599C29.8459 28.7269 30.0258 28.8297 30.2057 28.7655C30.3727 28.7012 30.4755 28.5213 30.4113 28.3414C30.0643 27.3391 30.5912 26.234 31.5935 25.8871C32.0175 25.7329 31.7991 25.1161 31.375 25.2574Z" fill="url(#paint5_linear)"/>
<path d="M45.7409 44.4682H45.728C45.4325 44.4553 45.2012 44.2112 45.2012 43.9156C45.214 43.6072 45.471 36.3856 49.6087 32.839C49.8272 32.6334 50.1869 32.6462 50.3797 32.8775C50.5724 33.1088 50.5467 33.4558 50.3026 33.6485C46.5376 36.8867 46.2677 43.8771 46.2677 43.9413C46.2677 44.2369 46.0364 44.4682 45.7409 44.4682Z" fill="url(#paint6_linear)"/>
<defs>
<linearGradient id="paint0_linear" x1="66.6731" y1="27.8507" x2="22.314" y2="63.6337" gradientUnits="userSpaceOnUse">
<stop stop-color="white" stop-opacity="0.1"/>
<stop offset="0.1089" stop-color="#F7F3FF" stop-opacity="0.198"/>
<stop offset="0.3049" stop-color="#E3D4FF" stop-opacity="0.3744"/>
<stop offset="0.5654" stop-color="#C1A1FF" stop-opacity="0.6088"/>
<stop offset="0.8771" stop-color="#935BFF" stop-opacity="0.8894"/>
<stop offset="1" stop-color="#803EFF"/>
</linearGradient>
<linearGradient id="paint1_linear" x1="4.63023" y1="36.8203" x2="51.3552" y2="9.90912" gradientUnits="userSpaceOnUse">
<stop stop-color="#FF0054" stop-opacity="0.1165"/>
<stop offset="1" stop-color="#FF0054"/>
</linearGradient>
<linearGradient id="paint2_linear" x1="37.5522" y1="25.6316" x2="35.2985" y2="46.7455" gradientUnits="userSpaceOnUse">
<stop stop-color="#FFE278"/>
<stop offset="0.642" stop-color="#FBC532"/>
<stop offset="1" stop-color="#F8B409"/>
</linearGradient>
<linearGradient id="paint3_linear" x1="44.4268" y1="30.2932" x2="46.1391" y2="30.2932" gradientUnits="userSpaceOnUse">
<stop stop-color="#FF0054" stop-opacity="0.4482"/>
<stop offset="1" stop-color="#FF0054"/>
</linearGradient>
<linearGradient id="paint4_linear" x1="48.2549" y1="29.9902" x2="56.659" y2="29.9902" gradientUnits="userSpaceOnUse">
<stop stop-color="#FF0054" stop-opacity="0.1165"/>
<stop offset="1" stop-color="#FF0054"/>
</linearGradient>
<linearGradient id="paint5_linear" x1="26.8855" y1="27.1197" x2="31.7841" y2="25.4112" gradientUnits="userSpaceOnUse">
<stop stop-color="#FF0054" stop-opacity="0.1165"/>
<stop offset="1" stop-color="#FF0054"/>
</linearGradient>
<linearGradient id="paint6_linear" x1="45.2063" y1="38.5765" x2="50.518" y2="38.5765" gradientUnits="userSpaceOnUse">
<stop stop-color="#FF0054" stop-opacity="0.1165"/>
<stop offset="1" stop-color="#FF0054"/>
</linearGradient>
</defs>
</svg>
