<svg width="72" height="72" viewBox="0 0 72 72" fill="none" xmlns="http://www.w3.org/2000/svg">
<path d="M59.8099 24.834L56.9128 26.1701C58.4488 29.4793 59.223 32.8509 59.223 36.21C59.223 49.4591 48.4464 60.2232 35.2098 60.2232C30.3771 60.2232 25.7193 58.7372 21.6609 55.9151C22.2853 54.2168 21.9232 52.2313 20.5621 50.8702C18.7014 49.0095 15.667 49.0095 13.7939 50.8702C11.9333 52.7308 11.9333 55.7652 13.7939 57.6383C15.3673 59.2117 17.7649 59.4615 19.6005 58.3751C24.2583 61.6842 29.6279 63.42 35.2098 63.42C50.1946 63.42 62.4198 51.1948 62.4198 36.21C62.4073 32.3888 61.5332 28.5552 59.8099 24.834ZM18.3018 55.3656C17.6775 55.99 16.666 55.99 16.0416 55.3656C15.4173 54.7413 15.4173 53.7298 16.0416 53.1054C16.666 52.481 17.6775 52.481 18.3018 53.1054C18.9137 53.7298 18.9137 54.7413 18.3018 55.3656Z" fill="url(#paint0_linear)"/>
<path d="M49.8577 21.5498C51.7183 23.4104 54.7527 23.4104 56.6259 21.5498C58.4865 19.6892 58.4865 16.6548 56.6259 14.7817C55.0524 13.2082 52.6549 12.9585 50.8192 14.0449C46.1614 10.7357 40.7919 9 35.21 9C20.2251 9 8 21.2251 8 36.21C8 40.0311 8.87412 43.8523 10.5974 47.586L13.4944 46.2498C11.9585 42.9407 11.1843 39.5691 11.1843 36.21C11.1843 22.9609 21.9609 12.1968 35.1975 12.1968C40.0301 12.1968 44.6879 13.6828 48.7463 16.5049C48.1344 18.2032 48.4966 20.1887 49.8577 21.5498ZM52.1179 17.0419C52.7423 16.4175 53.7538 16.4175 54.3781 17.0419C55.0025 17.6662 55.0025 18.6777 54.3781 19.3021C53.7538 19.9265 52.7423 19.9265 52.1179 19.3021C51.4935 18.6777 51.4935 17.6662 52.1179 17.0419Z" fill="url(#paint1_linear)"/>
<path d="M35.21 28.1309C31.2266 28.1309 27.9674 31.3526 27.9923 35.3361C28.0048 39.2197 31.0517 42.5413 35.2225 42.5288C39.4058 42.5163 42.3903 39.1822 42.4028 35.3486C42.4402 31.3651 39.1935 28.1309 35.21 28.1309Z" fill="url(#paint2_linear)"/>
<path d="M22.2979 27.3066C22.2979 26.857 22.4976 26.5573 22.9222 26.3575C26.8433 24.4594 30.7518 22.5489 34.6604 20.6383C35.0475 20.451 35.3846 20.4635 35.7592 20.6508C39.6303 22.5489 43.5139 24.4345 47.3975 26.3076C47.8595 26.5323 48.0843 26.832 48.0968 27.344C48.2092 33.263 47.0978 38.8948 43.9759 44.0147C41.9655 47.3238 39.2183 49.8713 35.8217 51.7319C35.3721 51.9816 35.0225 51.9816 34.5605 51.7319C30.1025 49.3093 26.9182 45.713 24.8453 41.1051C23.5716 38.2705 22.8098 35.286 22.4976 32.2016C22.3978 31.0403 22.2979 27.7686 22.2979 27.3066ZM35.2098 28.1307C31.2263 28.1307 27.9671 31.3525 27.9921 35.3359C28.0046 39.2195 31.0515 42.5412 35.2223 42.5287C39.4056 42.5162 42.39 39.1821 42.4025 35.3484C42.44 31.365 39.1933 28.1307 35.2098 28.1307Z" fill="url(#paint3_linear)"/>
<path d="M34.0232 36.2848C34.1481 36.0975 36.6081 33.4501 37.682 32.3887C38.2065 31.8767 38.9183 31.8642 39.3678 32.3263C39.8173 32.7758 39.8173 33.4626 39.3178 33.9746C37.8069 35.4981 36.2959 37.0215 34.7724 38.52C34.2729 39.007 33.6361 39.007 33.1241 38.5325C32.4123 37.8582 31.7255 37.1589 31.0387 36.4471C30.5767 35.9601 30.5892 35.2983 31.0262 34.8487C31.4883 34.3742 32.1376 34.3492 32.6621 34.8612C33.0866 35.2483 33.9358 36.2723 34.0232 36.2848Z" fill="url(#paint4_linear)"/>
<defs>
<linearGradient id="paint0_linear" x1="37.4091" y1="64.4643" x2="37.4091" y2="24.8371" gradientUnits="userSpaceOnUse">
<stop stop-color="#894CFF"/>
<stop offset="1" stop-color="#6A19D5" stop-opacity="0"/>
</linearGradient>
<linearGradient id="paint1_linear" x1="4.72531" y1="37.0071" x2="50.1319" y2="10.8552" gradientUnits="userSpaceOnUse">
<stop stop-color="#FF0054" stop-opacity="0.1165"/>
<stop offset="1" stop-color="#FF0054"/>
</linearGradient>
<linearGradient id="paint2_linear" x1="35.0732" y1="28.3475" x2="35.3222" y2="42.1071" gradientUnits="userSpaceOnUse">
<stop stop-color="#FFE278"/>
<stop offset="0.1542" stop-color="#FFDF71"/>
<stop offset="0.3813" stop-color="#FDD75D"/>
<stop offset="0.6535" stop-color="#FBC93D"/>
<stop offset="0.9584" stop-color="#F8B710"/>
<stop offset="1" stop-color="#F8B409"/>
</linearGradient>
<linearGradient id="paint3_linear" x1="35" y1="53.5" x2="36.5" y2="21" gradientUnits="userSpaceOnUse">
<stop stop-color="#6A4CAD" stop-opacity="0.6082"/>
<stop offset="0.744792" stop-color="#8C57F3" stop-opacity="0.9438"/>
<stop offset="1" stop-color="#9259FF"/>
</linearGradient>
<linearGradient id="paint4_linear" x1="30.7085" y1="35.4368" x2="39.7124" y2="35.4368" gradientUnits="userSpaceOnUse">
<stop stop-color="#B10E99"/>
<stop offset="1" stop-color="#FF0054"/>
</linearGradient>
</defs>
</svg>
