<svg width="72" height="72" viewBox="0 0 72 72" fill="none" xmlns="http://www.w3.org/2000/svg">
<path d="M25.4298 45.6606V62.3226C23.9507 61.7279 22.5327 61.0241 21.2002 60.1625V45.6606H25.4298Z" fill="url(#paint0_linear)"/>
<path d="M33.9015 41.4497V64.155C32.4468 64.0822 31.041 63.9002 29.6719 63.5968V41.4497H33.9015Z" fill="url(#paint1_linear)"/>
<path d="M42.3732 36.5469V63.1841C41.0041 63.5724 39.5983 63.8515 38.1436 64.0093V36.5469H42.3732Z" fill="url(#paint2_linear)"/>
<path d="M50.8449 30.2368V59.0099C49.5124 59.9928 48.1066 60.8423 46.6152 61.5583V30.2368H50.8449Z" fill="url(#paint3_linear)"/>
<path d="M40.4049 31.7658C28.156 43.1245 17.0807 44.5079 14.6847 45.0419C14.5258 45.0783 14.3791 44.9569 14.3791 44.7992C14.3669 44.6778 14.4524 44.5807 14.5502 44.5322C25.7478 40.8309 33.5347 33.6589 37.6788 28.9746C37.8011 29.6178 38.1067 30.2488 38.5712 30.7221C39.0479 31.2682 39.6958 31.6323 40.4049 31.7658Z" fill="url(#paint4_linear)"/>
<path d="M61.3327 38.2095C61.3327 46.7164 57.2131 54.2646 50.8441 59.0096C49.5117 59.9925 48.1059 60.842 46.6145 61.558C45.2576 62.2133 43.8518 62.7594 42.3848 63.1841C41.0157 63.5725 39.6099 63.8516 38.1552 64.0093C37.1773 64.1186 36.1871 64.1792 35.1847 64.1792C34.7568 64.1792 34.3412 64.1671 33.9133 64.155C32.4586 64.0822 31.0528 63.9001 29.6837 63.5967C28.229 63.3055 26.7987 62.8686 25.454 62.3225C23.9749 61.7279 22.5569 61.024 21.2244 60.1624C13.8653 55.5752 9 47.4445 9 38.2095" stroke="url(#paint5_linear)" stroke-width="3" stroke-miterlimit="10"/>
<path d="M54.1688 22.0334C54.1688 25.8682 51.0271 28.987 47.1642 28.987C43.3013 28.987 40.1719 25.8682 40.1719 22.0334C40.1719 15.808 47.1642 9 47.1642 9C47.1642 9 54.1688 16.0992 54.1688 22.0334Z" fill="url(#paint6_radial)"/>
<path d="M46.6385 25.5771L46.5896 25.7834C46.4918 26.2931 45.9417 26.5843 45.4649 26.4023C43.7046 25.7227 42.4577 24.0237 42.4577 22.0457C42.4577 21.9243 42.3844 21.4996 42.8244 21.2811L43.3745 21.1355C43.7168 21.0506 44.0347 21.3175 44.0102 21.6695C43.998 21.7908 43.998 21.9243 43.998 22.0335C43.998 23.4776 44.9882 24.7033 46.3206 25.0674C46.5529 25.1281 46.6874 25.3465 46.6385 25.5771Z" fill="#FFE278"/>
<defs>
<linearGradient id="paint0_linear" x1="23.3149" y1="62.1364" x2="23.3149" y2="46.1821" gradientUnits="userSpaceOnUse">
<stop stop-color="#FF0054" stop-opacity="0.1165"/>
<stop offset="1" stop-color="#FF0054"/>
</linearGradient>
<linearGradient id="paint1_linear" x1="31.7851" y1="41.3114" x2="31.7851" y2="64.014" gradientUnits="userSpaceOnUse">
<stop stop-color="#9259FF"/>
<stop offset="0.1969" stop-color="#8C57F3" stop-opacity="0.9438"/>
<stop offset="1" stop-color="#3D3E4F" stop-opacity="0"/>
</linearGradient>
<linearGradient id="paint2_linear" x1="40.2554" y1="36.639" x2="40.2554" y2="63.2766" gradientUnits="userSpaceOnUse">
<stop stop-color="#F8B409"/>
<stop offset="0.2111" stop-color="#F8B409"/>
<stop offset="0.8826" stop-color="#1FFCEA" stop-opacity="0.1174"/>
<stop offset="1" stop-color="#1BFDEF" stop-opacity="0"/>
</linearGradient>
<linearGradient id="paint3_linear" x1="48.7257" y1="30.3454" x2="48.7257" y2="60.7182" gradientUnits="userSpaceOnUse">
<stop stop-color="#10B487"/>
<stop offset="0.1862" stop-color="#13CBA8" stop-opacity="0.8138"/>
<stop offset="0.4041" stop-color="#17E1C7" stop-opacity="0.5959"/>
<stop offset="0.6166" stop-color="#19F0DD" stop-opacity="0.3834"/>
<stop offset="0.8188" stop-color="#1BFAEA" stop-opacity="0.1812"/>
<stop offset="1" stop-color="#1BFDEF" stop-opacity="0"/>
</linearGradient>
<linearGradient id="paint4_linear" x1="37.47" y1="32.0139" x2="15.1695" y2="45.8962" gradientUnits="userSpaceOnUse">
<stop stop-color="#F8B409"/>
<stop offset="0.358" stop-color="#FBC532" stop-opacity="0.642"/>
<stop offset="1" stop-color="#FFE278" stop-opacity="0"/>
</linearGradient>
<linearGradient id="paint5_linear" x1="35.1656" y1="66.0016" x2="35.1656" y2="38.2132" gradientUnits="userSpaceOnUse">
<stop stop-color="#894CFF"/>
<stop offset="1" stop-color="#6A19D5" stop-opacity="0"/>
</linearGradient>
<radialGradient id="paint6_radial" cx="0" cy="0" r="1" gradientUnits="userSpaceOnUse" gradientTransform="translate(50.0042 24.4605) rotate(-89.9164) scale(19.1107 15.0464)">
<stop stop-color="#FFD97A"/>
<stop offset="0.3102" stop-color="#F8B409"/>
<stop offset="0.5571" stop-color="#FBC532" stop-opacity="0.7136"/>
<stop offset="1" stop-color="#FFE278" stop-opacity="0.2"/>
</radialGradient>
</defs>
</svg>
