<?xml version="1.0" encoding="utf-8"?>
<!-- Generator: Adobe Illustrator 25.2.0, SVG Export Plug-In . SVG Version: 6.00 Build 0)  -->
<svg version="1.1" id="Layer_1" xmlns="http://www.w3.org/2000/svg" xmlns:xlink="http://www.w3.org/1999/xlink" x="0px" y="0px"
	 viewBox="0 0 50 50" style="enable-background:new 0 0 50 50;" xml:space="preserve">
<style type="text/css">
	.st0{fill:url(#SVGID_1_);}
	.st1{fill:url(#SVGID_2_);}
	.st2{fill:url(#SVGID_3_);}
	.st3{fill:url(#SVGID_4_);}
	.st4{fill:none;stroke:#FEE279;stroke-linecap:round;stroke-miterlimit:10;}
	.st5{fill:#ED1C58;}
</style>
<g>
	<g>
		
			<linearGradient id="SVGID_1_" gradientUnits="userSpaceOnUse" x1="4.3617" y1="28.0668" x2="50.5439" y2="36.7984" gradientTransform="matrix(1 0 0 -1 0 52)">
			<stop  offset="0" style="stop-color:#ED1C58;stop-opacity:0.1165"/>
			<stop  offset="1" style="stop-color:#ED1C58"/>
		</linearGradient>
		<path class="st0" d="M1.8,35.4c-0.3,0-0.5-0.1-0.8-0.3c-0.5-0.4-0.6-1.2-0.2-1.7l15.9-19.8c0.2-0.3,0.5-0.4,0.8-0.4
			c0.3,0,0.6,0.1,0.9,0.3l12.2,10L47.1,5.1c0.4-0.5,1.2-0.5,1.7-0.1c0.5,0.4,0.5,1.2,0.1,1.7L31.6,25.9c-0.4,0.5-1.2,0.5-1.7,0.1
			l-12.1-10L2.7,34.9C2.5,35.2,2.1,35.4,1.8,35.4z"/>
	</g>
	
		<linearGradient id="SVGID_2_" gradientUnits="userSpaceOnUse" x1="15.6347" y1="10.1234" x2="28.1347" y2="30.9804" gradientTransform="matrix(1 0 0 -1 0 52)">
		<stop  offset="0" style="stop-color:#FEE279;stop-opacity:0.13"/>
		<stop  offset="1" style="stop-color:#F7B419"/>
	</linearGradient>
	<path class="st1" d="M15.5,21.2H30c0.5,0,0.9,0.4,1.1,0.8l3.1,10.2c0.2,0.7-0.4,1.4-1.1,1.4H12.4c-0.7,0-1.3-0.7-1.1-1.4l3.1-10.2
		C14.6,21.6,15,21.2,15.5,21.2z"/>
	
		<linearGradient id="SVGID_3_" gradientUnits="userSpaceOnUse" x1="11.8424" y1="18.321" x2="11.8424" y2="5.3203" gradientTransform="matrix(1 0 0 -1 0 52)">
		<stop  offset="0" style="stop-color:#F7B419"/>
		<stop  offset="0.358" style="stop-color:#FBC632;stop-opacity:0.7136"/>
		<stop  offset="1" style="stop-color:#FEE279;stop-opacity:0.2"/>
	</linearGradient>
	<path class="st2" d="M4.6,33.7h14.5c0.5,0,0.9,0.4,1.1,0.8l3.1,10.2c0.2,0.7-0.4,1.4-1.1,1.4H1.5c-0.7,0-1.3-0.7-1.1-1.4l3.1-10.2
		C3.8,34.1,4.1,33.7,4.6,33.7z"/>
	
		<linearGradient id="SVGID_4_" gradientUnits="userSpaceOnUse" x1="33.5614" y1="18.321" x2="33.5614" y2="5.3203" gradientTransform="matrix(1 0 0 -1 0 52)">
		<stop  offset="0" style="stop-color:#F7B419"/>
		<stop  offset="0.358" style="stop-color:#FBC632;stop-opacity:0.7136"/>
		<stop  offset="1" style="stop-color:#FEE279;stop-opacity:0.2"/>
	</linearGradient>
	<path class="st3" d="M26.4,33.7h14.5c0.5,0,0.9,0.4,1.1,0.8L45,44.8c0.2,0.7-0.4,1.4-1.1,1.4H23.2c-0.7,0-1.3-0.7-1.1-1.4l3.1-10.2
		C25.4,34.1,25.9,33.7,26.4,33.7z"/>
	<path class="st4" d="M23.8,15.6v-6"/>
	<g>
		<path class="st5" d="M48.3,13.1C48.3,13.1,48.3,13.1,48.3,13.1c-0.6,0-1-0.5-1-1l0.2-6.1l-6.6,1.2c-0.5,0.1-1.1-0.3-1.2-0.8
			c-0.1-0.5,0.3-1.1,0.8-1.2l7.8-1.5c0.3-0.1,0.6,0,0.8,0.2c0.2,0.2,0.4,0.5,0.4,0.8l-0.2,7.3C49.3,12.7,48.9,13.1,48.3,13.1z"/>
	</g>
	<path class="st4" d="M29.3,16.9l3.1-5.2"/>
	<path class="st4" d="M18.3,16.9l-3.1-5.2"/>
</g>
</svg>
