<svg width="72" height="72" viewBox="0 0 72 72" fill="none" xmlns="http://www.w3.org/2000/svg">
<path d="M60.8892 24.292L57.9446 25.6559C59.4997 29.0339 60.3028 32.4757 60.3028 35.9047C60.3028 49.4167 49.302 60.4175 35.7772 60.4175C31.0608 60.4175 26.51 59.0154 22.4946 56.3639L25.605 52.4505L16.1338 53.5341L17.2173 63.0052L20.4551 58.9261C25.0696 62.0364 30.3214 63.6808 35.7772 63.6808C51.0739 63.6808 63.5534 51.1886 63.5534 35.9047C63.5534 32.004 62.661 28.1034 60.8892 24.292Z" fill="url(#paint0_linear)"/>
<path d="M10.7803 47.645L13.7121 46.2555C12.1187 42.8903 11.2902 39.4613 11.2519 36.0323C11.1117 22.5202 21.9978 11.4047 35.5226 11.2645C40.2391 11.2135 44.8153 12.5774 48.8562 15.1779L45.7841 19.1295L55.2425 17.9567L54.0698 8.49833L50.8702 12.6029C46.2175 9.5436 40.9529 7.9502 35.4971 8.00119C20.2005 8.15415 7.84844 20.7739 8.00141 36.0578C8.03965 39.9584 8.97019 43.8463 10.7803 47.645Z" fill="url(#paint1_linear)"/>
<path d="M48.9071 44.063C46.0517 48.1421 41.3225 50.8063 35.9687 50.8063C30.6021 50.8063 25.8729 48.1421 23.0303 44.063" stroke="url(#paint2_linear)" stroke-width="0.8672" stroke-miterlimit="10"/>
<path d="M23.0176 25.9366C25.8857 21.8575 30.6149 19.1934 35.9687 19.1934C41.3225 19.1934 46.0518 21.8575 48.9071 25.9366" stroke="url(#paint3_linear)" stroke-width="0.8672" stroke-miterlimit="10"/>
<path d="M35.9561 47.5558C42.8554 47.5558 48.4484 41.9628 48.4484 35.0635C48.4484 28.1643 42.8554 22.5713 35.9561 22.5713C29.0568 22.5713 23.4639 28.1643 23.4639 35.0635C23.4639 41.9628 29.0568 47.5558 35.9561 47.5558Z" fill="url(#paint4_linear)"/>
<path d="M35.9555 44.7768C41.3201 44.7768 45.6689 40.428 45.6689 35.0635C45.6689 29.6989 41.3201 25.3501 35.9555 25.3501C30.591 25.3501 26.2422 29.6989 26.2422 35.0635C26.2422 40.428 30.591 44.7768 35.9555 44.7768Z" fill="url(#paint5_linear)"/>
<path d="M35.9552 43.2468C40.4749 43.2468 44.1389 39.5828 44.1389 35.0631C44.1389 30.5434 40.4749 26.8794 35.9552 26.8794C31.4355 26.8794 27.7715 30.5434 27.7715 35.0631C27.7715 39.5828 31.4355 43.2468 35.9552 43.2468Z" fill="url(#paint6_linear)"/>
<path d="M38.8243 35.6116C38.4929 35.2292 38.0468 34.9998 37.4986 34.9233C38.5821 34.5919 39.1303 33.9673 39.1303 33.0367C39.1303 32.4121 38.8753 31.8895 38.3782 31.4816C37.8938 31.0864 37.2437 30.8824 36.4534 30.8697V29.8244H35.6248V30.8569H35.0894V29.4165H34.2608V30.8569H32.7949V39.1044H34.2608V40.4046H35.0894V39.1044H35.6248V39.9967H36.4534V39.1044H36.5808C37.4476 39.1044 38.1105 38.9132 38.5949 38.518C39.0793 38.1228 39.3215 37.613 39.3215 36.9501C39.3087 36.453 39.1558 35.9941 38.8243 35.6116ZM37.078 33.2917C37.078 33.5848 36.9887 33.8015 36.8103 33.9545C36.6318 34.1075 36.4024 34.184 36.1092 34.184H34.7962V32.3993H36.1092C36.4024 32.3993 36.6318 32.4758 36.8103 32.6288C36.9887 32.7818 37.078 32.9985 37.078 33.2917ZM37.0015 37.3453C36.823 37.511 36.5936 37.5875 36.3131 37.5875H34.7962V35.7009H36.3386C36.6063 35.7009 36.8358 35.7901 37.0142 35.9558C37.1927 36.1343 37.2692 36.3637 37.2692 36.6442C37.2692 36.9501 37.18 37.1795 37.0015 37.3453Z" fill="url(#paint7_linear)"/>
<defs>
<linearGradient id="paint0_linear" x1="67.544" y1="32.4937" x2="23.9259" y2="63.0869" gradientUnits="userSpaceOnUse">
<stop offset="0.0157" stop-color="#8B57F1" stop-opacity="0"/>
<stop offset="1" stop-color="#9259FF"/>
</linearGradient>
<linearGradient id="paint1_linear" x1="2.0027" y1="42.1467" x2="51.6789" y2="4.8896" gradientUnits="userSpaceOnUse">
<stop stop-color="#FF0054" stop-opacity="0.1165"/>
<stop offset="1" stop-color="#FF0054"/>
</linearGradient>
<linearGradient id="paint2_linear" x1="27.6291" y1="51.1363" x2="44.7783" y2="38.2744" gradientUnits="userSpaceOnUse">
<stop stop-color="#FF0054" stop-opacity="0.1165"/>
<stop offset="1" stop-color="#FF0054"/>
</linearGradient>
<linearGradient id="paint3_linear" x1="27.1407" y1="31.7318" x2="44.3026" y2="18.8604" gradientUnits="userSpaceOnUse">
<stop stop-color="#FF0054" stop-opacity="0.1165"/>
<stop offset="1" stop-color="#FF0054"/>
</linearGradient>
<linearGradient id="paint4_linear" x1="23.4734" y1="35.0581" x2="48.4509" y2="35.0581" gradientUnits="userSpaceOnUse">
<stop stop-color="#F8B409"/>
<stop offset="0.358" stop-color="#FBC532" stop-opacity="0.642"/>
<stop offset="1" stop-color="#FFE278" stop-opacity="0"/>
</linearGradient>
<linearGradient id="paint5_linear" x1="38.744" y1="44.3193" x2="33.1757" y2="26.3852" gradientUnits="userSpaceOnUse">
<stop stop-color="#F8C74D"/>
<stop offset="1" stop-color="#FFE278" stop-opacity="0"/>
</linearGradient>
<linearGradient id="paint6_linear" x1="43.7291" y1="37.3831" x2="28.5482" y2="32.9645" gradientUnits="userSpaceOnUse">
<stop stop-color="#F89C09"/>
<stop offset="0.358" stop-color="#FBB632" stop-opacity="0.642"/>
<stop offset="1" stop-color="#FFE278" stop-opacity="0"/>
</linearGradient>
<linearGradient id="paint7_linear" x1="32.791" y1="34.9215" x2="39.3142" y2="34.9215" gradientUnits="userSpaceOnUse">
<stop stop-color="#FF0054"/>
<stop offset="1" stop-color="#FF0054"/>
</linearGradient>
</defs>
</svg>
