<?xml version="1.0" encoding="utf-8"?>
<!-- Generator: Adobe Illustrator 25.2.0, SVG Export Plug-In . SVG Version: 6.00 Build 0)  -->
<svg version="1.1" id="Layer_1" xmlns="http://www.w3.org/2000/svg" xmlns:xlink="http://www.w3.org/1999/xlink" x="0px" y="0px"
	 viewBox="0 0 50 50" style="enable-background:new 0 0 50 50;" xml:space="preserve">
<style type="text/css">
	.st0{fill:url(#SVGID_1_);}
	.st1{fill:url(#SVGID_2_);}
	.st2{fill:url(#SVGID_3_);}
</style>
<g>
	
		<linearGradient id="SVGID_1_" gradientUnits="userSpaceOnUse" x1="41.5412" y1="43.1575" x2="40.9546" y2="2.6162" gradientTransform="matrix(1 0 0 -1 0 52)">
		<stop  offset="0" style="stop-color:#ED1C58;stop-opacity:0.1165"/>
		<stop  offset="1" style="stop-color:#ED1C58"/>
	</linearGradient>
	<path class="st0" d="M42.1,16.7V8.8h-1.7v7.9c-1.6,0.4-2.5,1.8-2.5,3.5v18.2c0,1.6,1,3.1,2.5,3.5v7.9h1.7v-7.9
		c1.4-0.4,2.5-1.7,2.5-3.2V19.9C44.6,18.4,43.5,17.1,42.1,16.7z"/>
	
		<linearGradient id="SVGID_2_" gradientUnits="userSpaceOnUse" x1="25.2861" y1="51.796" x2="24.7237" y2="12.9167" gradientTransform="matrix(1 0 0 -1 0 52)">
		<stop  offset="0" style="stop-color:#6C5AA7"/>
		<stop  offset="1" style="stop-color:#6C5AA7;stop-opacity:0.1"/>
	</linearGradient>
	<path class="st1" d="M25.8,8.1V0.1h-1.7v7.9c-1.6,0.4-2.5,1.8-2.5,3.5v16.5c0,1.6,1,3.1,2.5,3.5v7.9h1.7v-7.9
		c1.4-0.4,2.5-1.7,2.5-3.2V11.3C28.4,9.7,27.3,8.3,25.8,8.1z"/>
	
		<linearGradient id="SVGID_3_" gradientUnits="userSpaceOnUse" x1="9.0556" y1="46.3044" x2="8.469" y2="5.7632" gradientTransform="matrix(1 0 0 -1 0 52)">
		<stop  offset="0" style="stop-color:#72CCD2;stop-opacity:2.484070e-02"/>
		<stop  offset="0.1174" style="stop-color:#72CBCE;stop-opacity:0.1393"/>
		<stop  offset="0.2485" style="stop-color:#71CAC4;stop-opacity:0.2672"/>
		<stop  offset="0.3863" style="stop-color:#73C9B5;stop-opacity:0.4015"/>
		<stop  offset="0.5287" style="stop-color:#7AC89D;stop-opacity:0.5404"/>
		<stop  offset="0.6747" style="stop-color:#8ECA7E;stop-opacity:0.6828"/>
		<stop  offset="0.8237" style="stop-color:#B7CA4C;stop-opacity:0.8281"/>
		<stop  offset="0.9725" style="stop-color:#ECB81E;stop-opacity:0.9731"/>
		<stop  offset="1" style="stop-color:#F7B419"/>
	</linearGradient>
	<path class="st2" d="M9.6,13.6V5.6H7.9v7.9c-1.6,0.4-2.5,1.8-2.5,3.5v18.2c0,1.6,1,3.1,2.5,3.5v7.9h1.7v-7.9
		c1.4-0.4,2.5-1.7,2.5-3.2V16.8C12.1,15.3,11,13.8,9.6,13.6z"/>
</g>
</svg>
