<svg width="72" height="72" viewBox="0 0 72 72" fill="none" xmlns="http://www.w3.org/2000/svg">
<path d="M53.6331 30.5942H45.3116L48.3567 33.5868L41.4002 40.5433L35.9401 35.0831L27.8154 43.2077L30.1911 45.5834L35.9401 39.8214L41.4002 45.2816L50.7324 35.9625L53.6331 38.9157V30.5942Z" fill="url(#paint0_linear)"/>
<path d="M43.5012 27.7329H35.1797L38.2248 30.7255L31.2815 37.682L25.8213 32.2218L17.6836 40.3464L20.0593 42.7221L25.8213 36.9601L31.2815 42.4202L40.6005 33.1012L43.5012 36.0675V27.7329Z" fill="url(#paint1_linear)"/>
<path d="M45.9822 63.3289C38.3169 66.6102 25.2834 66.7677 15.3738 56.9106C10.7536 52.3167 8.06291 46.7384 7.23601 40.2807C6.63224 35.5293 7.1835 30.896 8.92918 26.2759C9.67733 27.024 10.3599 27.6803 10.9899 28.3628C11.0949 28.4809 11.0555 28.796 11.003 28.9928C9.25732 34.8336 9.5592 40.5826 11.8036 46.2396C16.765 58.7087 30.2973 65.2321 43.134 61.3469C43.6459 61.1894 43.974 61.2419 44.3284 61.6488C44.8403 62.2395 45.4178 62.7514 45.9822 63.3289Z" fill="url(#paint2_linear)"/>
<path d="M25.5459 9.8956C33.9462 6.52237 46.4678 7.07364 55.8656 16.3139C65.1583 25.4623 65.8277 38.299 62.4414 46.778C61.7195 46.0561 61.0238 45.3867 60.3676 44.6648C60.2757 44.5598 60.3413 44.271 60.3938 44.0873C62.192 37.8133 61.6801 31.7231 58.9763 25.8036C53.6605 14.2007 40.7582 8.30743 28.4991 11.8775C27.9085 12.0482 27.541 11.9694 27.1472 11.51C26.6747 10.9456 26.1234 10.46 25.5459 9.8956Z" fill="url(#paint3_linear)"/>
<defs>
<linearGradient id="paint0_linear" x1="53.451" y1="32.2316" x2="28.6232" y2="45.892" gradientUnits="userSpaceOnUse">
<stop stop-color="#894CFF"/>
<stop offset="1" stop-color="#7226DF" stop-opacity="0.2468"/>
</linearGradient>
<linearGradient id="paint1_linear" x1="17.682" y1="35.2326" x2="43.4997" y2="35.2326" gradientUnits="userSpaceOnUse">
<stop stop-color="#FFE278"/>
<stop offset="0.642" stop-color="#FBC532"/>
<stop offset="1" stop-color="#F8B409"/>
</linearGradient>
<linearGradient id="paint2_linear" x1="42.2382" y1="69.7745" x2="7.72516" y2="37.4778" gradientUnits="userSpaceOnUse">
<stop stop-color="#FF0054"/>
<stop offset="0.978" stop-color="#FF0054" stop-opacity="0"/>
</linearGradient>
<linearGradient id="paint3_linear" x1="32.3174" y1="4.95684" x2="67.9386" y2="40.2615" gradientUnits="userSpaceOnUse">
<stop stop-color="#FF0054"/>
<stop offset="0.936" stop-color="#FF0054" stop-opacity="0"/>
</linearGradient>
</defs>
</svg>
