<svg width="904" height="804" viewBox="0 0 904 804" fill="none" xmlns="http://www.w3.org/2000/svg">
<path d="M904 4H900V0H904V4ZM904 50H900V54H904V50ZM904 100H900V104H904V100ZM904 150H900V154H904V150ZM904 200H900V204H904V200ZM904 250H900V254H904V250ZM904 300H900V304H904V300ZM904 350H900V354H904V350ZM904 400H900V404H904V400ZM904 450H900V454H904V450ZM904 500H900V504H904V500ZM904 550H900V554H904V550ZM904 600H900V604H904V600ZM904 650H900V654H904V650ZM904 700H900V704H904V700ZM904 750H900V754H904V750ZM904 800H900V804H904V800ZM854 0H850V4H854V0ZM854 50H850V54H854V50ZM854 100H850V104H854V100ZM854 150H850V154H854V150ZM854 200H850V204H854V200ZM854 250H850V254H854V250ZM854 300H850V304H854V300ZM854 350H850V354H854V350ZM854 400H850V404H854V400ZM854 450H850V454H854V450ZM854 500H850V504H854V500ZM854 550H850V554H854V550ZM854 600H850V604H854V600ZM854 650H850V654H854V650ZM854 700H850V704H854V700ZM854 750H850V754H854V750ZM854 800H850V804H854V800ZM804 0H800V4H804V0ZM804 50H800V54H804V50ZM804 100H800V104H804V100ZM804 150H800V154H804V150ZM804 200H800V204H804V200ZM804 250H800V254H804V250ZM804 300H800V304H804V300ZM804 350H800V354H804V350ZM804 400H800V404H804V400ZM804 450H800V454H804V450ZM804 500H800V504H804V500ZM804 550H800V554H804V550ZM804 600H800V604H804V600ZM804 650H800V654H804V650ZM804 700H800V704H804V700ZM804 750H800V754H804V750ZM804 800H800V804H804V800ZM754 0H750V4H754V0ZM754 50H750V54H754V50ZM754 100H750V104H754V100ZM754 150H750V154H754V150ZM754 200H750V204H754V200ZM754 250H750V254H754V250ZM754 300H750V304H754V300ZM754 350H750V354H754V350ZM754 400H750V404H754V400ZM754 450H750V454H754V450ZM754 500H750V504H754V500ZM754 550H750V554H754V550ZM754 600H750V604H754V600ZM754 650H750V654H754V650ZM754 700H750V704H754V700ZM754 750H750V754H754V750ZM754 800H750V804H754V800ZM704 0H700V4H704V0ZM704 50H700V54H704V50ZM704 100H700V104H704V100ZM704 150H700V154H704V150ZM704 200H700V204H704V200ZM704 250H700V254H704V250ZM704 300H700V304H704V300ZM704 350H700V354H704V350ZM704 400H700V404H704V400ZM704 450H700V454H704V450ZM704 500H700V504H704V500ZM704 550H700V554H704V550ZM704 600H700V604H704V600ZM704 650H700V654H704V650ZM704 700H700V704H704V700ZM704 750H700V754H704V750ZM704 800H700V804H704V800ZM654 0H650V4H654V0ZM654 50H650V54H654V50ZM654 100H650V104H654V100ZM654 150H650V154H654V150ZM654 200H650V204H654V200ZM654 250H650V254H654V250ZM654 300H650V304H654V300ZM654 350H650V354H654V350ZM654 400H650V404H654V400ZM654 450H650V454H654V450ZM654 500H650V504H654V500ZM654 550H650V554H654V550ZM654 600H650V604H654V600ZM654 650H650V654H654V650ZM654 700H650V704H654V700ZM654 750H650V754H654V750ZM654 800H650V804H654V800ZM604 0H600V4H604V0ZM604 50H600V54H604V50ZM604 100H600V104H604V100ZM604 150H600V154H604V150ZM604 200H600V204H604V200ZM604 250H600V254H604V250ZM604 300H600V304H604V300ZM604 350H600V354H604V350ZM604 400H600V404H604V400ZM604 450H600V454H604V450ZM604 500H600V504H604V500ZM604 550H600V554H604V550ZM604 600H600V604H604V600ZM604 650H600V654H604V650ZM604 700H600V704H604V700ZM604 750H600V754H604V750ZM604 800H600V804H604V800ZM554 0H550V4H554V0ZM554 50H550V54H554V50ZM554 100H550V104H554V100ZM554 150H550V154H554V150ZM554 200H550V204H554V200ZM554 250H550V254H554V250ZM554 300H550V304H554V300ZM554 350H550V354H554V350ZM554 400H550V404H554V400ZM554 450H550V454H554V450ZM554 500H550V504H554V500ZM554 550H550V554H554V550ZM554 600H550V604H554V600ZM554 650H550V654H554V650ZM554 700H550V704H554V700ZM554 750H550V754H554V750ZM554 800H550V804H554V800ZM504 0H500V4H504V0ZM504 50H500V54H504V50ZM504 100H500V104H504V100ZM504 150H500V154H504V150ZM504 200H500V204H504V200ZM504 250H500V254H504V250ZM504 300H500V304H504V300ZM504 350H500V354H504V350ZM504 400H500V404H504V400ZM504 450H500V454H504V450ZM504 500H500V504H504V500ZM504 550H500V554H504V550ZM504 600H500V604H504V600ZM504 650H500V654H504V650ZM504 700H500V704H504V700ZM504 750H500V754H504V750ZM504 800H500V804H504V800ZM454 0H450V4H454V0ZM454 50H450V54H454V50ZM454 100H450V104H454V100ZM454 150H450V154H454V150ZM454 200H450V204H454V200ZM454 250H450V254H454V250ZM454 300H450V304H454V300ZM454 350H450V354H454V350ZM454 400H450V404H454V400ZM454 450H450V454H454V450ZM454 500H450V504H454V500ZM454 550H450V554H454V550ZM454 600H450V604H454V600ZM454 650H450V654H454V650ZM454 700H450V704H454V700ZM454 750H450V754H454V750ZM454 800H450V804H454V800ZM404 0H400V4H404V0ZM404 50H400V54H404V50ZM404 100H400V104H404V100ZM404 150H400V154H404V150ZM404 200H400V204H404V200ZM404 250H400V254H404V250ZM404 300H400V304H404V300ZM404 350H400V354H404V350ZM404 400H400V404H404V400ZM404 450H400V454H404V450ZM404 500H400V504H404V500ZM404 550H400V554H404V550ZM404 600H400V604H404V600ZM404 650H400V654H404V650ZM404 700H400V704H404V700ZM404 750H400V754H404V750ZM404 800H400V804H404V800ZM354 0H350V4H354V0ZM354 50H350V54H354V50ZM354 100H350V104H354V100ZM354 150H350V154H354V150ZM354 200H350V204H354V200ZM354 250H350V254H354V250ZM354 300H350V304H354V300ZM354 350H350V354H354V350ZM354 400H350V404H354V400ZM354 450H350V454H354V450ZM354 500H350V504H354V500ZM354 550H350V554H354V550ZM354 600H350V604H354V600ZM354 650H350V654H354V650ZM354 700H350V704H354V700ZM354 750H350V754H354V750ZM354 800H350V804H354V800ZM304 0H300V4H304V0ZM304 50H300V54H304V50ZM304 100H300V104H304V100ZM304 150H300V154H304V150ZM304 200H300V204H304V200ZM304 250H300V254H304V250ZM304 300H300V304H304V300ZM304 350H300V354H304V350ZM304 400H300V404H304V400ZM304 450H300V454H304V450ZM304 500H300V504H304V500ZM304 550H300V554H304V550ZM304 600H300V604H304V600ZM304 650H300V654H304V650ZM304 700H300V704H304V700ZM304 750H300V754H304V750ZM304 800H300V804H304V800ZM254 0H250V4H254V0ZM254 50H250V54H254V50ZM254 100H250V104H254V100ZM254 150H250V154H254V150ZM254 200H250V204H254V200ZM254 250H250V254H254V250ZM254 300H250V304H254V300ZM254 350H250V354H254V350ZM254 400H250V404H254V400ZM254 450H250V454H254V450ZM254 500H250V504H254V500ZM254 550H250V554H254V550ZM254 600H250V604H254V600ZM254 650H250V654H254V650ZM254 700H250V704H254V700ZM254 750H250V754H254V750ZM254 800H250V804H254V800ZM204 0H200V4H204V0ZM204 50H200V54H204V50ZM204 100H200V104H204V100ZM204 150H200V154H204V150ZM204 200H200V204H204V200ZM204 250H200V254H204V250ZM204 300H200V304H204V300ZM204 350H200V354H204V350ZM204 400H200V404H204V400ZM204 450H200V454H204V450ZM204 500H200V504H204V500ZM204 550H200V554H204V550ZM204 600H200V604H204V600ZM204 650H200V654H204V650ZM204 700H200V704H204V700ZM204 750H200V754H204V750ZM204 800H200V804H204V800ZM154 0H150V4H154V0ZM154 50H150V54H154V50ZM154 100H150V104H154V100ZM154 150H150V154H154V150ZM154 200H150V204H154V200ZM154 250H150V254H154V250ZM154 300H150V304H154V300ZM154 350H150V354H154V350ZM154 400H150V404H154V400ZM154 450H150V454H154V450ZM154 500H150V504H154V500ZM154 550H150V554H154V550ZM154 600H150V604H154V600ZM154 650H150V654H154V650ZM154 700H150V704H154V700ZM154 750H150V754H154V750ZM154 800H150V804H154V800ZM104 0H100V4H104V0ZM104 50H100V54H104V50ZM104 100H100V104H104V100ZM104 150H100V154H104V150ZM104 200H100V204H104V200ZM104 250H100V254H104V250ZM104 300H100V304H104V300ZM104 350H100V354H104V350ZM104 400H100V404H104V400ZM104 450H100V454H104V450ZM104 500H100V504H104V500ZM104 550H100V554H104V550ZM104 600H100V604H104V600ZM104 650H100V654H104V650ZM104 700H100V704H104V700ZM104 750H100V754H104V750ZM104 800H100V804H104V800ZM54 0H50V4H54V0ZM54 50H50V54H54V50ZM54 100H50V104H54V100ZM54 150H50V154H54V150ZM54 200H50V204H54V200ZM54 250H50V254H54V250ZM54 300H50V304H54V300ZM54 350H50V354H54V350ZM54 400H50V404H54V400ZM54 450H50V454H54V450ZM54 500H50V504H54V500ZM54 550H50V554H54V550ZM54 600H50V604H54V600ZM54 650H50V654H54V650ZM54 700H50V704H54V700ZM54 750H50V754H54V750ZM54 800H50V804H54V800ZM4 0H0V4H4V0ZM4 50H0V54H4V50ZM4 100H0V104H4V100ZM4 150H0V154H4V150ZM4 200H0V204H4V200ZM4 250H0V254H4V250ZM4 300H0V304H4V300ZM4 350H0V354H4V350ZM4 400H0V404H4V400ZM4 450H0V454H4V450ZM4 500H0V504H4V500ZM4 550H0V554H4V550ZM4 600H0V604H4V600ZM4 650H0V654H4V650ZM4 700H0V704H4V700ZM4 750H0V754H4V750ZM4 800H0V804H4V800Z" fill="url(#paint0_radial)"/>
<path d="M852 52V102.5" stroke="#D0C4E6"/>
<path d="M850.5 52L800 52" stroke="#D0C4E6"/>
<path d="M752 352V402.5" stroke="#E9E3F4"/>
<path d="M750.5 352L700 352" stroke="#E9E3F4"/>
<path d="M652 152V202.5" stroke="#E9E3F4"/>
<path d="M401 102L353 102" stroke="#E9E3F4"/>
<path d="M502 2L552.5 2" stroke="#E1DAF0"/>
<path d="M502 3.5V54" stroke="#E1DAF0"/>
<defs>
<radialGradient id="paint0_radial" cx="0" cy="0" r="1" gradientUnits="userSpaceOnUse" gradientTransform="translate(904) rotate(132.764) scale(1123.74)">
<stop stop-color="#B39FDA"/>
<stop offset="1" stop-color="white" stop-opacity="0"/>
</radialGradient>
</defs>
</svg>
