<?xml version="1.0" encoding="utf-8"?>
<!-- Generator: Adobe Illustrator 25.2.3, SVG Export Plug-In . SVG Version: 6.00 Build 0)  -->
<svg version="1.1" id="Layer_1" xmlns="http://www.w3.org/2000/svg" xmlns:xlink="http://www.w3.org/1999/xlink" x="0px" y="0px"
	 viewBox="0 0 52 49" style="enable-background:new 0 0 52 49;" xml:space="preserve">
<style type="text/css">
	.st0{fill:url(#SVGID_1_);}
	.st1{fill:url(#SVGID_2_);}
	.st2{fill:url(#SVGID_3_);}
	.st3{fill:url(#SVGID_4_);}
	.st4{fill:url(#SVGID_5_);}
	.st5{fill:#78D9FF;}
	.st6{fill:url(#SVGID_6_);}
	.st7{fill:url(#SVGID_7_);}
	.st8{fill:url(#SVGID_8_);}
	.st9{fill:#C980FF;}
	.st10{fill:url(#SVGID_9_);}
	.st11{fill:url(#SVGID_10_);}
	.st12{fill:#EFEDFF;}
	.st13{fill:url(#SVGID_11_);}
	.st14{fill:#E5E3FF;}
</style>
<g>
	
		<linearGradient id="SVGID_1_" gradientUnits="userSpaceOnUse" x1="1.812" y1="27.4359" x2="26.871" y2="27.4359" gradientTransform="matrix(1 0 0 -1 0 50)">
		<stop  offset="0" style="stop-color:#3922AA"/>
		<stop  offset="1" style="stop-color:#6B35E6"/>
	</linearGradient>
	<path class="st0" d="M1.8,12.2v18.4l25,2.3V14.5L1.8,12.2z"/>
	
		<linearGradient id="SVGID_2_" gradientUnits="userSpaceOnUse" x1="26.871" y1="21.336" x2="45.7047" y2="21.336" gradientTransform="matrix(1 0 0 -1 0 50)">
		<stop  offset="0" style="stop-color:#6232DC"/>
		<stop  offset="1" style="stop-color:#7F3DFF"/>
	</linearGradient>
	<path class="st1" d="M26.8,14.5v18.4l18.9,9.9V24.4L26.8,14.5z"/>
	
		<linearGradient id="SVGID_3_" gradientUnits="userSpaceOnUse" x1="52.7426" y1="23.4589" x2="41.2266" y2="16.8486" gradientTransform="matrix(1 0 0 -1 0 50)">
		<stop  offset="0" style="stop-color:#7F3DFF"/>
		<stop  offset="1" style="stop-color:#3922AA"/>
	</linearGradient>
	<path class="st2" d="M51.6,15c0,3.6,0,14.8,0,18.4c0,2.3-0.9,4.6-2.9,6.7c-0.9,0.9-1.9,1.8-3,2.6V24.4c1.1-0.8,2.2-1.6,3-2.6
		C50.6,19.6,51.6,17.3,51.6,15z"/>
	
		<linearGradient id="SVGID_4_" gradientUnits="userSpaceOnUse" x1="1.812" y1="36.4859" x2="26.871" y2="36.4859" gradientTransform="matrix(1 0 0 -1 0 50)">
		<stop  offset="0" style="stop-color:#D0CDF5"/>
		<stop  offset="1" style="stop-color:#BDB8F5"/>
	</linearGradient>
	<path class="st3" d="M1.8,12.2v0.2l25,2.4v-0.3L1.8,12.2z"/>
	
		<linearGradient id="SVGID_5_" gradientUnits="userSpaceOnUse" x1="26.871" y1="30.436" x2="45.7047" y2="30.436" gradientTransform="matrix(1 0 0 -1 0 50)">
		<stop  offset="0" style="stop-color:#DBDFFF"/>
		<stop  offset="0.7834" style="stop-color:#8B97FF"/>
		<stop  offset="1" style="stop-color:#B2BAFF"/>
	</linearGradient>
	<path class="st4" d="M26.8,14.5v0.3l18.9,9.8v-0.2L26.8,14.5z"/>
	<path class="st5" d="M48.7,22c2-2.1,2.9-4.5,2.9-6.7c0-0.1,0-0.2,0-0.3c0,2.3-0.9,4.6-2.9,6.7c-0.9,0.9-1.9,1.8-3,2.6v0.2
		C46.8,23.8,47.8,23,48.7,22z"/>
	
		<linearGradient id="SVGID_6_" gradientUnits="userSpaceOnUse" x1="12.9955" y1="34.441" x2="52.6847" y2="40.2613" gradientTransform="matrix(1 0 0 -1 0 50)">
		<stop  offset="0" style="stop-color:#7F3DFF"/>
		<stop  offset="1" style="stop-color:#9C60FF"/>
	</linearGradient>
	<path class="st6" d="M44.2,4.7c-1.7-1-3.7-1.9-6-2.6C25.9-1.7,10.7,1,4.3,8.1c-1.2,1.3-2,2.7-2.5,4.1l25.1,2.3l18.8,9.9
		c1.1-0.8,2.2-1.6,3-2.6C54,16,51.8,9.1,44.2,4.7z"/>
	
		<linearGradient id="SVGID_7_" gradientUnits="userSpaceOnUse" x1="0.3454" y1="18.2359" x2="5.8308" y2="18.2359" gradientTransform="matrix(1 0 0 -1 0 50)">
		<stop  offset="0" style="stop-color:#C06BFF"/>
		<stop  offset="1" style="stop-color:#A051D1"/>
	</linearGradient>
	<path class="st7" d="M0.3,33.7c0-3.6,0-9.4,0-13c0,3.3,1.9,6.5,5.5,9.1v13C2.2,40.3,0.3,37,0.3,33.7z"/>
	
		<linearGradient id="SVGID_8_" gradientUnits="userSpaceOnUse" x1="5.8454" y1="17.986" x2="23.5712" y2="17.986" gradientTransform="matrix(1 0 0 -1 0 50)">
		<stop  offset="0" style="stop-color:#B44DD1"/>
		<stop  offset="1" style="stop-color:#7C3CA3"/>
	</linearGradient>
	<path class="st8" d="M5.8,29.8v13.1l17.7-8.8v-13L5.8,29.8z"/>
	<path class="st9" d="M0.3,20.7c0,0.7,0,1.6,0,2.5c0-0.8,0-1.5,0-2.2c0,3.3,1.9,6.5,5.5,9.1v-0.2C2.2,27.2,0.3,24,0.3,20.7z"/>
	<path class="st9" d="M5.8,29.8v0.3l17.7-8.8v-0.2L5.8,29.8z"/>
	
		<linearGradient id="SVGID_9_" gradientUnits="userSpaceOnUse" x1="3.1736" y1="25.6355" x2="25.097" y2="26.1065" gradientTransform="matrix(1 0 0 -1 0 50)">
		<stop  offset="0" style="stop-color:#C06BFF"/>
		<stop  offset="1" style="stop-color:#A051D1"/>
	</linearGradient>
	<path class="st10" d="M0.5,18.9c-0.8,3.9,1.1,7.8,5.3,10.9l17.7-8.7L0.5,18.9z"/>
	
		<linearGradient id="SVGID_10_" gradientUnits="userSpaceOnUse" x1="36.9376" y1="17.7347" x2="21.1393" y2="10.7502" gradientTransform="matrix(1 0 0 -1 0 50)">
		<stop  offset="0" style="stop-color:#D0CDF5"/>
		<stop  offset="1" style="stop-color:#BDB8F5"/>
	</linearGradient>
	<path class="st11" d="M26.5,28L8,37.1c0.3,0.2,0.6,0.3,0.8,0.5c1.7,1,3.7,1.9,6,2.6C24.9,43.3,37,42,44.6,37.5L26.5,28z"/>
	<path class="st12" d="M8,37.1L39.8,35l-13.3-7L8,37.1z"/>
	
		<linearGradient id="SVGID_11_" gradientUnits="userSpaceOnUse" x1="8.0446" y1="7.1386" x2="44.7003" y2="7.1386" gradientTransform="matrix(1 0 0 -1 0 50)">
		<stop  offset="0" style="stop-color:#D0CCFF"/>
		<stop  offset="1" style="stop-color:#A69AE3"/>
	</linearGradient>
	<path class="st13" d="M14.8,40.2c-2.3-0.7-4.3-1.6-6-2.6c-0.3-0.2-0.6-0.3-0.8-0.5v6.7c0.3,0.2,0.5,0.3,0.8,0.5
		c1.7,1,3.7,1.9,6,2.6c10.1,3.1,22.3,1.8,29.8-2.7v-6.6C37.1,42,24.9,43.3,14.8,40.2z"/>
	<path class="st14" d="M14.8,40.2c-2.3-0.7-4.3-1.6-6-2.6c-0.3-0.2-0.6-0.3-0.8-0.5v0.3c0.3,0.2,0.6,0.3,0.8,0.5
		c1.7,1,3.7,1.9,6,2.6c10.1,3.1,22.2,1.8,29.8-2.7v-0.2C37.1,42,24.9,43.3,14.8,40.2z"/>
</g>
</svg>
