<svg width="580" height="530" viewBox="0 0 580 530" fill="none" xmlns="http://www.w3.org/2000/svg">
<path d="M239.129 133.06V246.515L258.173 257.515V144.06L239.129 133.06Z" fill="#6EC47B"/>
<path d="M248.764 119L269.869 173.476L227.435 148.977L248.764 119Z" fill="#6EC47B"/>
<path d="M95.7882 366.398L48 394.168L67.0548 405.169L114.843 377.399L95.7882 366.398Z" fill="#BAE690"/>
<path d="M224.927 216.794L176.825 189.035V302.479L224.927 330.249V216.794Z" fill="url(#paint0_linear)"/>
<path d="M191.354 197.415V310.87L210.398 321.871V208.416L191.354 197.415Z" fill="#6EC47B"/>
<path d="M201.032 225.591C200.572 225.322 200.191 225.523 200.191 226.05L200.18 231.752C200.18 232.278 200.55 232.928 201.009 233.197C201.457 233.454 201.827 233.242 201.827 232.715L201.849 227.013C201.849 226.476 201.48 225.848 201.032 225.591Z" fill="white"/>
<path d="M204.056 226.171L201.625 221.97C201.457 221.69 201.244 221.466 201.031 221.354C200.819 221.231 200.606 221.209 200.438 221.298L197.996 222.687C197.671 222.878 197.671 223.483 197.996 224.043C198.164 224.323 198.376 224.547 198.589 224.67C198.802 224.793 199.004 224.816 199.161 224.715L201.031 223.673L202.88 226.866C203.048 227.146 203.249 227.37 203.462 227.493C203.675 227.616 203.888 227.639 204.056 227.549C204.37 227.325 204.37 226.731 204.056 226.171Z" fill="white"/>
<path d="M224.926 216.794V330.25L272.714 302.479V189.024L224.926 216.794Z" fill="url(#paint1_linear)"/>
<path d="M272.716 189.025L224.614 161.266L176.826 189.036L224.928 216.795L272.716 189.025Z" fill="url(#paint2_linear)"/>
<path d="M239.132 169.646L191.354 197.416L210.398 208.417L258.186 180.646L239.132 169.646Z" fill="#BAE690"/>
<path opacity="0.4" d="M176.825 189.036V189.965L224.927 217.735L272.715 189.965V189.024L224.927 216.794L176.825 189.036Z" fill="white"/>
<path d="M177.137 287.119L129.035 259.349V330.27L177.137 358.029V287.119Z" fill="url(#paint3_linear)"/>
<path d="M143.565 267.729V338.65L162.609 349.65V278.729L143.565 267.729Z" fill="#6EC47B"/>
<path d="M153.254 291.469C152.795 291.2 152.414 291.402 152.414 291.928L152.403 297.63C152.403 298.157 152.773 298.806 153.232 299.075C153.68 299.333 154.05 299.12 154.05 298.594L154.072 292.892C154.072 292.354 153.702 291.727 153.254 291.469Z" fill="white"/>
<path d="M156.29 292.05L153.859 287.849C153.691 287.569 153.478 287.345 153.265 287.222C153.052 287.099 152.84 287.076 152.672 287.166L150.229 288.555C149.905 288.745 149.905 289.339 150.218 289.91C150.386 290.19 150.599 290.414 150.812 290.538C151.025 290.661 151.226 290.683 151.383 290.582L153.254 289.529L155.102 292.722C155.27 293.002 155.472 293.226 155.685 293.349C155.898 293.473 156.111 293.495 156.279 293.405C156.592 293.215 156.603 292.61 156.29 292.05Z" fill="white"/>
<path d="M177.136 287.119V358.029L224.913 330.27V259.349L177.136 287.119Z" fill="url(#paint4_linear)"/>
<path d="M224.914 259.35L176.823 231.58L129.035 259.35L177.137 287.12L224.914 259.35Z" fill="url(#paint5_linear)"/>
<path d="M191.342 239.96L143.565 267.73L162.609 278.73L210.397 250.96L191.342 239.96Z" fill="#BAE690"/>
<path opacity="0.4" d="M129.035 259.349V260.279L177.137 288.049L224.914 260.279V259.349L177.137 287.119L129.035 259.349Z" fill="white"/>
<path d="M129.361 348.979L81.2588 321.22V358.007L129.361 385.778V348.979Z" fill="url(#paint6_linear)"/>
<path d="M95.7891 329.6V366.399L114.844 377.399V340.6L95.7891 329.6Z" fill="#6EC47B"/>
<path d="M104.996 353.685C104.537 353.416 104.156 353.618 104.156 354.145L104.133 359.846C104.133 360.373 104.503 361.023 104.962 361.292C105.41 361.549 105.78 361.336 105.78 360.81L105.791 355.108C105.814 354.57 105.444 353.943 104.996 353.685Z" fill="white"/>
<path d="M108.02 354.267L105.578 350.066C105.41 349.786 105.209 349.562 104.984 349.45C104.772 349.327 104.559 349.293 104.391 349.394L101.949 350.783C101.624 350.973 101.624 351.567 101.949 352.138C102.117 352.418 102.318 352.642 102.531 352.766C102.744 352.889 102.946 352.911 103.103 352.81L104.973 351.769L106.822 354.961C106.978 355.241 107.191 355.465 107.404 355.589C107.617 355.712 107.83 355.734 107.998 355.645C108.334 355.432 108.334 354.827 108.02 354.267Z" fill="white"/>
<path d="M129.36 348.979V385.778L177.149 358.007V321.22L129.36 348.979Z" fill="url(#paint7_linear)"/>
<path d="M177.148 321.221L129.047 293.451L81.2583 321.221L129.36 348.98L177.148 321.221Z" fill="url(#paint8_linear)"/>
<path d="M143.566 301.831L95.7891 329.601L114.844 340.601L162.621 312.831L143.566 301.831Z" fill="#BAE690"/>
<path opacity="0.4" d="M81.2588 321.22V322.15L129.361 349.92L177.149 322.15V321.22L129.361 348.979L81.2588 321.22Z" fill="white"/>
<path d="M331.357 133.06V246.515L312.302 257.515V144.06L331.357 133.06Z" fill="url(#paint9_linear)"/>
<path d="M532.055 410.871L516.383 377.399L505.002 384.008L474.7 366.398L455.646 377.399L486.014 395.042L474.219 401.898L532.055 410.871Z" fill="url(#paint10_linear)"/>
<path d="M345.553 216.794L393.655 189.035V302.479L345.553 330.249V216.794Z" fill="url(#paint11_linear)"/>
<path d="M379.124 197.415V310.87L360.081 321.871V208.416L379.124 197.415Z" fill="#C724D6"/>
<path d="M369.616 226.429C370.075 226.16 370.433 225.521 370.433 225.017L370.422 219.293C370.422 218.778 370.064 218.554 369.604 218.822C369.145 219.091 368.775 219.73 368.775 220.245L368.787 225.969C368.775 226.474 369.145 226.686 369.616 226.429Z" fill="white"/>
<path d="M372.64 224.491C372.472 224.401 372.259 224.423 372.046 224.547C371.833 224.67 371.621 224.883 371.464 225.163L369.615 228.355L367.756 227.291C367.588 227.201 367.375 227.224 367.162 227.347C366.949 227.47 366.736 227.683 366.568 227.963C366.243 228.512 366.243 229.128 366.568 229.296L369.022 230.697C369.167 230.786 369.38 230.764 369.604 230.641C369.817 230.517 370.03 230.293 370.187 230.024L372.629 225.801C372.954 225.286 372.954 224.67 372.64 224.491Z" fill="white"/>
<path d="M345.552 216.794V330.25L297.775 302.479V189.024L345.552 216.794Z" fill="url(#paint12_linear)"/>
<path d="M297.774 189.025L345.865 161.266L393.653 189.036L345.551 216.795L297.774 189.025Z" fill="url(#paint13_linear)"/>
<path d="M331.349 169.646L379.126 197.416L360.083 208.417L312.294 180.646L331.349 169.646Z" fill="url(#paint14_linear)"/>
<path opacity="0.4" d="M393.654 189.036V189.965L345.552 217.735L297.775 189.965V189.024L345.552 216.794L393.654 189.036Z" fill="white"/>
<path d="M393.352 287.119L441.443 259.349V330.27L393.352 358.029V287.119Z" fill="url(#paint15_linear)"/>
<path d="M426.923 267.729V338.65L407.869 349.65V278.729L426.923 267.729Z" fill="#C724D6"/>
<path d="M417.401 291.612C417.86 291.343 418.219 290.704 418.219 290.2L418.208 284.476C418.208 283.961 417.849 283.737 417.39 284.006C416.931 284.274 416.561 284.913 416.561 285.428L416.572 291.153C416.561 291.668 416.931 291.881 417.401 291.612Z" fill="white"/>
<path d="M420.427 289.674C420.259 289.584 420.046 289.606 419.833 289.73C419.62 289.853 419.407 290.066 419.25 290.346L417.402 293.538L415.542 292.474C415.374 292.385 415.162 292.407 414.949 292.53C414.736 292.653 414.523 292.866 414.355 293.158C414.03 293.706 414.03 294.323 414.366 294.491L416.82 295.891C416.965 295.98 417.178 295.958 417.402 295.835C417.604 295.712 417.828 295.476 417.985 295.219L420.415 290.995C420.74 290.469 420.74 289.864 420.427 289.674Z" fill="white"/>
<path d="M393.352 287.119V358.029L345.563 330.27V259.349L393.352 287.119Z" fill="url(#paint16_linear)"/>
<path d="M345.563 259.35L393.654 231.58L441.442 259.35L393.352 287.12L345.563 259.35Z" fill="url(#paint17_linear)"/>
<path d="M379.137 239.96L426.926 267.73L407.871 278.73L360.083 250.96L379.137 239.96Z" fill="url(#paint18_linear)"/>
<path opacity="0.4" d="M441.442 259.349V260.279L393.352 288.049L345.563 260.279V259.349L393.352 287.119L441.442 259.349Z" fill="white"/>
<path d="M441.116 348.979L489.218 321.22V358.007L441.116 385.778V348.979Z" fill="url(#paint19_linear)"/>
<path d="M474.687 329.6V366.399L455.644 377.399V340.6L474.687 329.6Z" fill="#C724D6"/>
<path d="M464.326 355.185C464.785 354.916 465.143 354.278 465.143 353.774L465.132 348.049C465.132 347.534 464.774 347.321 464.314 347.579C463.855 347.848 463.485 348.486 463.485 349.001L463.497 354.726C463.485 355.241 463.855 355.454 464.326 355.185Z" fill="white"/>
<path d="M467.351 353.247C467.183 353.158 466.97 353.18 466.757 353.303C466.544 353.427 466.332 353.639 466.164 353.931L464.315 357.123L462.467 356.059C462.299 355.969 462.086 355.992 461.873 356.115C461.66 356.238 461.447 356.451 461.279 356.742C460.955 357.291 460.955 357.907 461.291 358.075L463.744 359.476C463.889 359.565 464.102 359.543 464.326 359.42C464.539 359.297 464.752 359.061 464.909 358.804L467.351 354.58C467.665 354.043 467.665 353.427 467.351 353.247Z" fill="white"/>
<path d="M441.115 348.979V385.778L393.338 358.007V321.22L441.115 348.979Z" fill="url(#paint20_linear)"/>
<path d="M393.338 321.221L441.429 293.451L489.217 321.221L441.115 348.98L393.338 321.221Z" fill="url(#paint21_linear)"/>
<path d="M426.912 301.831L474.689 329.601L455.645 340.601L407.857 312.831L426.912 301.831Z" fill="url(#paint22_linear)"/>
<path opacity="0.4" d="M489.217 321.22V322.15L441.115 349.92L393.338 322.15V321.22L441.115 348.979L489.217 321.22Z" fill="white"/>
<defs>
<linearGradient id="paint0_linear" x1="202.062" y1="248.764" x2="206.454" y2="208.437" gradientUnits="userSpaceOnUse">
<stop stop-color="#7583FF"/>
<stop offset="1" stop-color="#DBDFFF"/>
</linearGradient>
<linearGradient id="paint1_linear" x1="248.817" y1="330.252" x2="248.817" y2="213.44" gradientUnits="userSpaceOnUse">
<stop stop-color="#3721A7"/>
<stop offset="0.592" stop-color="#5247B5"/>
<stop offset="1" stop-color="#6663BF"/>
</linearGradient>
<linearGradient id="paint2_linear" x1="251.188" y1="172.923" x2="202.076" y2="202.869" gradientUnits="userSpaceOnUse">
<stop stop-color="#B9C1FF"/>
<stop offset="1" stop-color="#DBDFFF"/>
</linearGradient>
<linearGradient id="paint3_linear" x1="152.121" y1="314.956" x2="157.711" y2="278.621" gradientUnits="userSpaceOnUse">
<stop stop-color="#7583FF"/>
<stop offset="1" stop-color="#DBDFFF"/>
</linearGradient>
<linearGradient id="paint4_linear" x1="201.025" y1="330.214" x2="201.025" y2="213.402" gradientUnits="userSpaceOnUse">
<stop stop-color="#3721A7"/>
<stop offset="0.592" stop-color="#5247B5"/>
<stop offset="1" stop-color="#6663BF"/>
</linearGradient>
<linearGradient id="paint5_linear" x1="193.19" y1="238.338" x2="164.841" y2="275.072" gradientUnits="userSpaceOnUse">
<stop stop-color="#B9C1FF"/>
<stop offset="1" stop-color="#DBDFFF"/>
</linearGradient>
<linearGradient id="paint6_linear" x1="100.652" y1="374.466" x2="107.839" y2="342.124" gradientUnits="userSpaceOnUse">
<stop stop-color="#7583FF"/>
<stop offset="1" stop-color="#DBDFFF"/>
</linearGradient>
<linearGradient id="paint7_linear" x1="153.252" y1="330.215" x2="153.252" y2="213.404" gradientUnits="userSpaceOnUse">
<stop stop-color="#3721A7"/>
<stop offset="0.592" stop-color="#5247B5"/>
<stop offset="1" stop-color="#6663BF"/>
</linearGradient>
<linearGradient id="paint8_linear" x1="147.937" y1="300.561" x2="116.793" y2="334.899" gradientUnits="userSpaceOnUse">
<stop stop-color="#B9C1FF"/>
<stop offset="1" stop-color="#DBDFFF"/>
</linearGradient>
<linearGradient id="paint9_linear" x1="316.221" y1="131.764" x2="321.012" y2="186.067" gradientUnits="userSpaceOnUse">
<stop stop-color="#FF6FFF"/>
<stop offset="0.6387" stop-color="#D436E0"/>
<stop offset="1" stop-color="#C01BD1"/>
</linearGradient>
<linearGradient id="paint10_linear" x1="524.768" y1="408.112" x2="464.876" y2="370.579" gradientUnits="userSpaceOnUse">
<stop stop-color="#FF6FFF"/>
<stop offset="0.6387" stop-color="#D436E0"/>
<stop offset="1" stop-color="#C01BD1"/>
</linearGradient>
<linearGradient id="paint11_linear" x1="368.577" y1="250.495" x2="363.254" y2="203.113" gradientUnits="userSpaceOnUse">
<stop stop-color="#7583FF"/>
<stop offset="1" stop-color="#DBDFFF"/>
</linearGradient>
<linearGradient id="paint12_linear" x1="321.663" y1="337.803" x2="321.663" y2="195.947" gradientUnits="userSpaceOnUse">
<stop stop-color="#8E52FF"/>
<stop offset="1" stop-color="#D6BFFF"/>
</linearGradient>
<linearGradient id="paint13_linear" x1="324.688" y1="175.016" x2="370.206" y2="205.361" gradientUnits="userSpaceOnUse">
<stop stop-color="#B9C1FF"/>
<stop offset="1" stop-color="#DBDFFF"/>
</linearGradient>
<linearGradient id="paint14_linear" x1="373.481" y1="206.433" x2="317.946" y2="171.631" gradientUnits="userSpaceOnUse">
<stop stop-color="#FF6FFF"/>
<stop offset="0.6387" stop-color="#D436E0"/>
<stop offset="1" stop-color="#C01BD1"/>
</linearGradient>
<linearGradient id="paint15_linear" x1="417.119" y1="306.044" x2="413.392" y2="270.375" gradientUnits="userSpaceOnUse">
<stop stop-color="#7583FF"/>
<stop offset="1" stop-color="#DBDFFF"/>
</linearGradient>
<linearGradient id="paint16_linear" x1="369.455" y1="337.801" x2="369.455" y2="195.945" gradientUnits="userSpaceOnUse">
<stop stop-color="#8E52FF"/>
<stop offset="1" stop-color="#D6BFFF"/>
</linearGradient>
<linearGradient id="paint17_linear" x1="372.51" y1="241.987" x2="414.036" y2="276.325" gradientUnits="userSpaceOnUse">
<stop stop-color="#B9C1FF"/>
<stop offset="1" stop-color="#DBDFFF"/>
</linearGradient>
<linearGradient id="paint18_linear" x1="421.271" y1="276.748" x2="365.735" y2="241.945" gradientUnits="userSpaceOnUse">
<stop stop-color="#FF6FFF"/>
<stop offset="0.6387" stop-color="#D436E0"/>
<stop offset="1" stop-color="#C01BD1"/>
</linearGradient>
<linearGradient id="paint19_linear" x1="465.166" y1="381.59" x2="465.166" y2="342.494" gradientUnits="userSpaceOnUse">
<stop stop-color="#7583FF"/>
<stop offset="1" stop-color="#DBDFFF"/>
</linearGradient>
<linearGradient id="paint20_linear" x1="417.225" y1="337.802" x2="417.225" y2="195.946" gradientUnits="userSpaceOnUse">
<stop stop-color="#8E52FF"/>
<stop offset="1" stop-color="#D6BFFF"/>
</linearGradient>
<linearGradient id="paint21_linear" x1="424.847" y1="307.062" x2="462.38" y2="339.404" gradientUnits="userSpaceOnUse">
<stop stop-color="#B9C1FF"/>
<stop offset="1" stop-color="#DBDFFF"/>
</linearGradient>
<linearGradient id="paint22_linear" x1="469.043" y1="338.619" x2="413.507" y2="303.816" gradientUnits="userSpaceOnUse">
<stop stop-color="#FF6FFF"/>
<stop offset="0.6387" stop-color="#D436E0"/>
<stop offset="1" stop-color="#C01BD1"/>
</linearGradient>
</defs>
</svg>
