<svg width="65" height="65" viewBox="0 0 65 65" fill="none" xmlns="http://www.w3.org/2000/svg">
<path d="M28.4287 17.0243L25.1602 15.1364L31.481 9.74707L34.7495 11.635L28.4287 17.0243Z" fill="#00DFBF"/>
<path d="M28.4287 17.0243L25.1602 15.1364L31.481 9.74707L34.7495 11.635L28.4287 17.0243Z" fill="url(#paint0_linear)"/>
<path d="M30.4376 18.272C28.7659 17.091 25.8633 17.9809 23.4098 18.7544C22.8193 18.954 22.287 19.1286 21.8047 19.2783C21.6383 19.6775 21.5635 20.0601 21.5635 20.4177C21.5635 22.3223 23.1769 21.7983 26.6867 20.6506C27.851 20.2847 29.1235 19.8855 30.3128 19.6942C30.4209 20.6589 31.0946 21.5405 33.7144 20.1599L30.4376 18.272Z" fill="url(#paint1_linear)"/>
<path d="M30.4376 18.272C28.7659 17.091 25.8633 17.9809 23.4098 18.7544C22.8193 18.954 22.287 19.1286 21.8047 19.2783C21.6383 19.6775 21.5635 20.0601 21.5635 20.4177C21.5635 22.3223 23.1769 21.7983 26.6867 20.6506C27.851 20.2847 29.1235 19.8855 30.3128 19.6942C30.4209 20.6589 31.0946 21.5405 33.7144 20.1599L30.4376 18.272Z" fill="url(#paint2_linear)"/>
<path d="M22.3452 43.0394L19.085 41.1515V37.3008L22.3452 39.1887V43.0394Z" fill="url(#paint3_linear)"/>
<path d="M22.3452 43.0394L19.085 41.1515V37.3008L22.3452 39.1887V43.0394Z" fill="url(#paint4_linear)"/>
<path d="M27.8865 28.4021C27.8865 29.9324 26.7304 31.3047 25.0255 32.2944C22.3059 33.8746 21.2413 32.5855 21.0084 31.3296L20.4346 30.9969C20.8255 30.8805 21.2663 30.6892 21.757 30.4064C23.0461 29.6579 24.0191 28.6848 24.4183 27.5953C26.431 26.93 27.8865 26.6722 27.8865 28.4021Z" fill="url(#paint5_linear)"/>
<path d="M27.8865 28.4021C27.8865 29.9324 26.7304 31.3047 25.0255 32.2944C22.3059 33.8746 21.2413 32.5855 21.0084 31.3296L20.4346 30.9969C20.8255 30.8805 21.2663 30.6892 21.757 30.4064C23.0461 29.6579 24.0191 28.6848 24.4183 27.5953C26.431 26.93 27.8865 26.6722 27.8865 28.4021Z" fill="url(#paint6_linear)"/>
<path d="M15.7301 37.8496C15.3892 37.6251 14.9567 37.5585 14.5408 37.5585C14.4743 37.3673 14.4161 37.1677 14.3662 36.9431L11.0977 35.0552C11.422 36.469 12.0707 37.3589 12.9274 37.8413L16.1876 39.7292C16.1876 39.7376 16.7365 38.5067 15.7301 37.8496Z" fill="#00DFBF"/>
<path d="M15.7301 37.8496C15.3892 37.6251 14.9567 37.5585 14.5408 37.5585C14.4743 37.3673 14.4161 37.1677 14.3662 36.9431L11.0977 35.0552C11.422 36.469 12.0707 37.3589 12.9274 37.8413L16.1876 39.7292C16.1876 39.7376 16.7365 38.5067 15.7301 37.8496Z" fill="url(#paint7_linear)"/>
<path d="M26.6834 20.6503C23.1737 21.8064 21.5603 22.322 21.5603 20.4175C21.5603 20.0599 21.6351 19.6773 21.8015 19.2781C19.4062 20.0183 18.2917 20.1098 18.2917 18.5296C18.2917 17.3652 19.0735 15.9347 21.2359 14.6788C23.548 13.3398 24.8371 13.6559 25.1531 15.1363L31.474 9.74695C31.449 9.66378 31.4157 9.58893 31.3825 9.51408C31.6985 9.45586 32.0645 9.31447 32.5052 9.0816L29.9021 7.53466C29.8189 7.48476 29.7357 7.43486 29.6526 7.38496L29.611 7.36001C28.929 7.00239 28.1056 6.86932 27.1326 6.95248C26.1844 7.03565 25.0949 7.32674 23.864 7.85071V7.79249L27.1326 5.89624L23.8723 4L21.6601 5.28911L18.666 7.03565V10.8864C14.2414 14.105 11.4719 18.3216 11.4719 22.871C11.4719 24.9418 12.0291 26.1228 12.9357 26.7217H12.9274L12.9689 26.7466C13.0438 26.7965 13.127 26.8381 13.2101 26.8797L15.9464 28.4183C16.0129 27.8694 15.9381 27.4785 15.78 27.1874C16.5868 27.0959 17.4517 26.888 18.3416 26.6302C21.6601 25.6238 24.6125 24.0519 24.6125 26.5054C24.6125 26.8797 24.546 27.2456 24.4129 27.5866C26.4256 26.9296 27.8811 26.6718 27.8811 28.3933C27.8811 29.9236 26.725 31.2959 25.0201 32.2856C22.3005 33.8658 21.2359 32.5767 21.003 31.3209L20.4292 30.9882L17.7345 29.433L11.0977 35.0635L14.3662 36.9514C14.4909 37.4837 14.6573 37.9494 14.8652 38.3403C16.1377 38.3569 17.6014 37.9411 19.0735 37.3007V38.8643L22.342 39.2635L24.2383 38.1573V34.3066C28.7128 31.0048 31.7983 26.5636 31.7983 21.9228C31.7983 20.9498 31.6652 20.1929 31.4324 19.5941C29.952 19.6191 28.2221 20.1597 26.6834 20.6503Z" fill="#00DFBF"/>
<path d="M26.6834 20.6503C23.1737 21.8064 21.5603 22.322 21.5603 20.4175C21.5603 20.0599 21.6351 19.6773 21.8015 19.2781C19.4062 20.0183 18.2917 20.1098 18.2917 18.5296C18.2917 17.3652 19.0735 15.9347 21.2359 14.6788C23.548 13.3398 24.8371 13.6559 25.1531 15.1363L31.474 9.74695C31.449 9.66378 31.4157 9.58893 31.3825 9.51408C31.6985 9.45586 32.0645 9.31447 32.5052 9.0816L29.9021 7.53466C29.8189 7.48476 29.7357 7.43486 29.6526 7.38496L29.611 7.36001C28.929 7.00239 28.1056 6.86932 27.1326 6.95248C26.1844 7.03565 25.0949 7.32674 23.864 7.85071V7.79249L27.1326 5.89624L23.8723 4L21.6601 5.28911L18.666 7.03565V10.8864C14.2414 14.105 11.4719 18.3216 11.4719 22.871C11.4719 24.9418 12.0291 26.1228 12.9357 26.7217H12.9274L12.9689 26.7466C13.0438 26.7965 13.127 26.8381 13.2101 26.8797L15.9464 28.4183C16.0129 27.8694 15.9381 27.4785 15.78 27.1874C16.5868 27.0959 17.4517 26.888 18.3416 26.6302C21.6601 25.6238 24.6125 24.0519 24.6125 26.5054C24.6125 26.8797 24.546 27.2456 24.4129 27.5866C26.4256 26.9296 27.8811 26.6718 27.8811 28.3933C27.8811 29.9236 26.725 31.2959 25.0201 32.2856C22.3005 33.8658 21.2359 32.5767 21.003 31.3209L20.4292 30.9882L17.7345 29.433L11.0977 35.0635L14.3662 36.9514C14.4909 37.4837 14.6573 37.9494 14.8652 38.3403C16.1377 38.3569 17.6014 37.9411 19.0735 37.3007V38.8643L22.342 39.2635L24.2383 38.1573V34.3066C28.7128 31.0048 31.7983 26.5636 31.7983 21.9228C31.7983 20.9498 31.6652 20.1929 31.4324 19.5941C29.952 19.6191 28.2221 20.1597 26.6834 20.6503Z" fill="url(#paint8_linear)"/>
<path d="M31.4339 19.586C29.9535 19.6193 28.2236 20.1599 26.6766 20.6506C23.1669 21.8066 21.5535 22.3223 21.5535 20.4177C21.5535 20.0601 21.6283 19.6775 21.7946 19.2783C22.1689 18.3884 23.0089 17.4403 24.5059 16.567C26.8097 15.228 28.0988 15.5441 28.4232 17.0328L34.744 11.6434C34.1369 9.82206 32.906 8.87394 31.0763 8.83235C29.9784 8.8074 28.6561 9.10681 27.1341 9.75552V5.88818L23.8655 7.78443L21.9194 8.91552V12.7662C17.4948 15.9932 14.7253 20.2015 14.7253 24.7508C14.7253 25.7904 14.8667 26.6055 15.1162 27.2292C16.0976 29.6744 18.7756 29.3334 21.595 28.51C22.5847 28.2106 23.5495 27.8613 24.4061 27.5869C26.4188 26.9298 27.8743 26.672 27.8743 28.3936C27.8743 29.9239 26.7182 31.2962 25.0133 32.2859C22.2937 33.8661 21.2291 32.577 20.9962 31.3211L14.3594 36.9433C14.4841 37.4756 14.6505 37.9413 14.8584 38.3322C15.7233 39.954 17.2703 40.4031 19.0667 40.1619C20.098 40.0289 21.2125 39.6713 22.3352 39.1806V43.0313L27.5 40.0538V36.1865C31.9745 32.893 35.06 28.4518 35.06 23.8027C35.0683 20.4593 33.4881 19.5361 31.4339 19.586Z" fill="url(#paint9_linear)"/>
<path d="M21.9282 12.7743L18.668 10.8864V7.02734L21.9282 8.91527V12.7743Z" fill="url(#paint10_linear)"/>
<path d="M21.9282 12.7743L18.668 10.8864V7.02734L21.9282 8.91527V12.7743Z" fill="url(#paint11_linear)"/>
<path d="M18.668 7.02709C19.2169 7.3265 19.7741 7.6259 20.323 7.93363C20.8719 8.24135 21.4208 8.54907 21.9698 8.86511H21.9032C22.3357 8.61561 22.7682 8.34947 23.2007 8.10828L24.5064 7.35976L25.8205 6.61956C26.2613 6.37006 26.7021 6.13718 27.1428 5.896C26.7187 6.16214 26.2862 6.42827 25.8621 6.6861L24.5729 7.45957L23.2755 8.22472C22.843 8.48254 22.4022 8.72373 21.9698 8.98155L21.9282 8.98987L21.8949 8.97323C21.3543 8.65719 20.8137 8.34115 20.2731 8.01679C19.7325 7.69244 19.2002 7.35976 18.668 7.02709Z" fill="white"/>
<path d="M21.9279 12.7741L21.8613 8.91504H22.0027L21.9279 12.7741Z" fill="white"/>
<path d="M21.9352 12.7739C21.9352 12.7739 21.7273 12.9403 21.3613 13.223C21.1784 13.3644 20.9621 13.5474 20.7126 13.7636C20.4631 13.9716 20.197 14.2211 19.9059 14.4872C19.6065 14.7533 19.3154 15.0694 18.991 15.3937C18.6916 15.7347 18.359 16.084 18.0512 16.4749C17.8932 16.6662 17.7352 16.8575 17.5855 17.0737C17.4358 17.2817 17.2694 17.4813 17.1364 17.7058C16.9867 17.9221 16.837 18.1383 16.6956 18.3629C16.5625 18.5957 16.4294 18.8203 16.3047 19.0532C16.1883 19.286 16.0635 19.5272 15.9471 19.7601C15.8306 20.0013 15.7391 20.2425 15.6393 20.4837C15.4481 20.966 15.2817 21.4567 15.1653 21.9391C15.132 22.0555 15.0987 22.1803 15.0738 22.2967C15.0488 22.4132 15.0239 22.5379 15.0073 22.6544C14.9574 22.8872 14.9075 23.1201 14.8908 23.3447C14.8659 23.5692 14.8326 23.7938 14.816 24.0017C14.8077 24.2179 14.7993 24.4258 14.7827 24.6254C14.7661 25.0247 14.7827 25.3906 14.8077 25.715C14.8326 26.0393 14.8742 26.3138 14.9241 26.5466C14.974 26.7712 15.0239 26.9458 15.0655 27.0706C15.1071 27.187 15.132 27.2536 15.132 27.2536C15.132 27.2536 15.1071 27.1954 15.0655 27.0789C15.0239 26.9625 14.9657 26.7878 14.9075 26.5633C14.8492 26.3387 14.7993 26.0559 14.7578 25.7316C14.7245 25.4072 14.6912 25.0413 14.6995 24.6421C14.7079 24.4425 14.7079 24.2346 14.7162 24.0183C14.7245 23.8021 14.7578 23.5775 14.7827 23.353C14.7993 23.1201 14.8409 22.8955 14.8908 22.6544C14.9324 22.4132 14.9823 22.172 15.0488 21.9308C15.1653 21.4401 15.3316 20.9494 15.5229 20.4587C15.6227 20.2175 15.7225 19.968 15.8306 19.7268C15.9471 19.4856 16.0635 19.2444 16.1883 19.0116C16.3213 18.7787 16.4544 18.5458 16.5875 18.3213C16.7288 18.0967 16.8786 17.8805 17.0199 17.6559C17.1613 17.4314 17.3277 17.2318 17.4774 17.0238C17.6271 16.8159 17.7934 16.6163 17.9514 16.425C18.2591 16.0341 18.6001 15.6848 18.9162 15.3522C19.2489 15.0361 19.5483 14.7201 19.8477 14.4622C20.1471 14.1961 20.4215 13.9549 20.6794 13.7553C20.9289 13.5557 21.1534 13.3727 21.3447 13.2397C21.719 12.9319 21.9352 12.7739 21.9352 12.7739Z" fill="white"/>
<path d="M31.4317 19.5855C31.4317 19.5855 31.3901 19.5855 31.307 19.5938C31.2238 19.6021 31.1074 19.6104 30.9577 19.6271C30.6582 19.6603 30.2341 19.7269 29.7351 19.835C29.2361 19.9431 28.6539 20.1011 28.0384 20.2924C27.423 20.4754 26.7743 20.6833 26.1172 20.9078C25.7929 21.0076 25.4602 21.1158 25.1359 21.2156C24.8115 21.3154 24.4955 21.4069 24.1794 21.49C23.8717 21.5732 23.564 21.6397 23.2646 21.6813C22.9735 21.7312 22.6824 21.7395 22.4246 21.7063C22.1584 21.6813 21.9339 21.5566 21.7925 21.3902C21.7592 21.3486 21.7259 21.3071 21.701 21.2655C21.676 21.2239 21.6594 21.174 21.6428 21.1324C21.6012 21.0492 21.5846 20.9661 21.5762 20.8912C21.543 20.7415 21.5513 20.6251 21.543 20.5419C21.543 20.4587 21.543 20.4172 21.543 20.4172C21.543 20.4172 21.543 20.4587 21.5513 20.5419C21.5596 20.6251 21.5596 20.7415 21.6012 20.8829C21.6178 20.9577 21.6345 21.0326 21.676 21.1158C21.6927 21.1574 21.7093 21.1989 21.7343 21.2405C21.7675 21.2738 21.7925 21.3154 21.8257 21.357C21.9671 21.4983 22.175 21.6148 22.4329 21.6231C22.6824 21.648 22.9568 21.6231 23.2479 21.5732C23.3893 21.5482 23.539 21.5233 23.6887 21.4817C23.8384 21.4484 23.9881 21.4069 24.1461 21.3653C24.4539 21.2821 24.7699 21.1823 25.0943 21.0825C25.4186 20.9744 25.743 20.8746 26.0673 20.7665C26.7161 20.5502 27.3731 20.3506 27.9968 20.1676C28.6123 19.9847 29.2028 19.8516 29.7101 19.7518C30.2175 19.652 30.6499 19.6104 30.9493 19.5938C31.099 19.5855 31.2155 19.5771 31.2986 19.5771C31.3901 19.5855 31.4317 19.5855 31.4317 19.5855Z" fill="white"/>
<path d="M27.8844 28.4014C27.8844 28.4014 27.8844 28.443 27.8844 28.5178C27.8844 28.5927 27.8844 28.7008 27.8677 28.8422C27.8594 28.9835 27.8262 29.1499 27.7679 29.3329C27.718 29.5158 27.6432 29.7321 27.5351 29.94C27.4353 30.1562 27.2856 30.3725 27.1275 30.597C26.9612 30.8133 26.7782 31.0378 26.5537 31.2457C26.1212 31.6616 25.6056 32.0358 25.0566 32.3685L24.6408 32.5931C24.4994 32.6679 24.3497 32.7261 24.2083 32.7927C23.9172 32.9174 23.6178 33.0006 23.3184 33.0588C23.019 33.1004 22.7196 33.117 22.4451 33.0505C22.3038 33.0339 22.179 32.9756 22.0626 32.9257C21.9461 32.8592 21.8297 32.8093 21.7465 32.7261C21.5552 32.5764 21.4222 32.3935 21.3224 32.2271C21.2226 32.0608 21.1644 31.9028 21.1228 31.7697C21.0812 31.6366 21.0562 31.5285 21.0396 31.4537C21.023 31.3788 21.0146 31.3455 21.0146 31.3455C21.0146 31.3455 21.023 31.3871 21.0396 31.4537C21.0562 31.5285 21.0895 31.6283 21.1311 31.7614C21.181 31.8861 21.2475 32.0442 21.3556 32.2022C21.4638 32.3602 21.5968 32.5265 21.7881 32.6679C21.8796 32.7428 21.9877 32.7927 22.0958 32.8509C22.2123 32.8842 22.3287 32.9424 22.4618 32.959C22.7196 33.0172 23.0024 32.984 23.2935 32.9424C23.5762 32.8842 23.8673 32.7927 24.1501 32.6762C24.2915 32.6097 24.4329 32.5598 24.5743 32.4849L24.9901 32.2604C25.2562 32.1024 25.5307 31.936 25.7719 31.7531C26.0214 31.5701 26.2543 31.3788 26.4705 31.1792C26.8947 30.78 27.244 30.3475 27.4602 29.9317C27.5766 29.7237 27.6515 29.5241 27.718 29.3412C27.7763 29.1582 27.8178 29.0002 27.8428 28.8588C27.8677 28.7257 27.8761 28.6176 27.8761 28.5428C27.8761 28.443 27.8844 28.4014 27.8844 28.4014Z" fill="white"/>
<path d="M11.0977 35.0634L12.7527 35.9699L14.3994 36.8931L14.3246 36.9014L15.9797 35.4875L17.643 34.0903C18.2003 33.6246 18.7575 33.1588 19.3147 32.7014C19.8719 32.2356 20.4375 31.7865 21.003 31.3291C20.4624 31.8115 19.9218 32.2939 19.3729 32.7679C18.824 33.242 18.2751 33.716 17.7262 34.1901L16.0711 35.604L14.4078 37.0012L14.3745 37.0261L14.3412 37.0012L12.7194 36.0364L11.0977 35.0634Z" fill="white"/>
<path d="M27.5068 36.1861C27.5068 36.1861 27.6898 36.0364 28.0142 35.7869C28.1722 35.6621 28.3718 35.5041 28.588 35.3128C28.8043 35.1215 29.0538 34.9219 29.3116 34.6807C29.5694 34.4395 29.8522 34.19 30.135 33.8989C30.2763 33.7575 30.4177 33.6078 30.5674 33.4581C30.7088 33.3001 30.8585 33.1421 30.9999 32.9758C31.1496 32.8177 31.2993 32.6431 31.4407 32.4684C31.5821 32.2938 31.7318 32.1191 31.8732 31.9361C32.1476 31.5702 32.4387 31.1959 32.6882 30.7967C32.9627 30.4142 33.1872 30.0066 33.4201 29.6074C33.6364 29.1999 33.8443 28.8007 34.0106 28.3932C34.2019 27.994 34.3267 27.5864 34.468 27.2122C34.5263 27.0209 34.5762 26.8296 34.6344 26.6466C34.6593 26.5551 34.6843 26.4637 34.7092 26.3805C34.7259 26.289 34.7508 26.2058 34.7675 26.1143C34.8423 25.7734 34.9172 25.4573 34.9421 25.1745C34.9837 24.8918 35.0253 24.6423 35.0253 24.4427C35.0502 24.0351 35.0669 23.7939 35.0669 23.7939C35.0669 23.7939 35.0585 24.0268 35.0502 24.4427C35.0502 24.6506 35.017 24.9001 34.992 25.1829C34.9754 25.474 34.9088 25.79 34.8423 26.1393C34.8257 26.2225 34.809 26.314 34.7924 26.4054C34.7675 26.4969 34.7425 26.5884 34.7176 26.6799C34.6676 26.8629 34.6177 27.0542 34.5595 27.2538C34.4181 27.6363 34.3017 28.0439 34.1104 28.4514C33.9441 28.8589 33.7278 29.2664 33.5199 29.6823C33.2871 30.0815 33.0625 30.4973 32.788 30.8882C32.5302 31.2874 32.2391 31.6534 31.9647 32.0276C31.8233 32.2106 31.6653 32.3853 31.5239 32.5599C31.3825 32.7346 31.2328 32.9092 31.0831 33.0672C30.9334 33.2253 30.7837 33.3916 30.6423 33.5413C30.4926 33.691 30.3429 33.8324 30.1932 33.9738C29.9104 34.2649 29.6193 34.5061 29.3532 34.7472C29.0954 34.9884 28.8292 35.1797 28.613 35.3627C28.3884 35.5457 28.1888 35.6954 28.0225 35.8118C27.6981 36.0447 27.5068 36.1861 27.5068 36.1861Z" fill="white"/>
<path d="M19.082 40.1696C19.3648 40.1197 19.6393 40.0615 19.9137 39.9866C20.1882 39.9117 20.4626 39.8369 20.7288 39.7454C21.2694 39.5624 21.8016 39.3628 22.3173 39.13L22.4088 39.0884V39.1965C22.4088 39.5209 22.4088 39.8369 22.4088 40.1613L22.4005 41.126C22.3921 41.7664 22.3755 42.4068 22.3422 43.0555C22.3173 42.4151 22.3007 41.7747 22.284 41.126L22.2757 40.1613C22.2757 39.8369 22.2674 39.5209 22.2757 39.1965L22.3672 39.263C21.8432 39.4876 21.3026 39.6955 20.7537 39.8535C20.2131 40.0032 19.6476 40.1197 19.082 40.1696Z" fill="white"/>
<path d="M24.5127 16.5666C24.6873 16.4668 24.8537 16.3587 25.0283 16.2756C25.203 16.1841 25.386 16.0926 25.5689 16.0177C25.6604 15.9761 25.7519 15.9429 25.8434 15.9096C25.9349 15.8763 26.0264 15.8348 26.1262 15.8181C26.226 15.7932 26.3175 15.7599 26.4173 15.7433C26.5171 15.7266 26.6169 15.7017 26.7167 15.6934C26.8165 15.6934 26.9163 15.6684 27.0244 15.6851C27.1242 15.6934 27.2323 15.6934 27.3321 15.7183C27.4319 15.735 27.5317 15.7682 27.6232 15.8098C27.723 15.8431 27.8062 15.9096 27.8893 15.9678C27.9642 16.0344 28.0474 16.1009 28.1056 16.1841C28.1721 16.2589 28.2303 16.3504 28.2719 16.4419C28.3301 16.5334 28.3551 16.6332 28.3967 16.7247C28.4299 16.8245 28.4549 16.9243 28.4798 17.0158L28.38 16.9825L29.9519 15.6268L31.5404 14.2878L33.1373 12.9571L34.7424 11.6431L33.1872 13.0237L31.6236 14.3876L30.0517 15.7433L28.4715 17.0906L28.3967 17.1571L28.3717 17.0573C28.3468 16.9659 28.3218 16.8661 28.2969 16.7746C28.2553 16.6831 28.2303 16.5916 28.1804 16.5084C28.1388 16.4253 28.0889 16.3421 28.0224 16.2672C27.9725 16.1841 27.8893 16.1259 27.8228 16.0593C27.748 16.0094 27.6731 15.9429 27.5816 15.9096C27.4984 15.868 27.407 15.8348 27.3072 15.8181C27.2157 15.7932 27.1159 15.7849 27.0244 15.7765C26.9246 15.7599 26.8331 15.7765 26.7333 15.7765C26.6335 15.7765 26.542 15.8015 26.4422 15.8181C26.3424 15.8348 26.2509 15.8597 26.1511 15.8847C26.0513 15.9013 25.9598 15.9429 25.8683 15.9678C25.7769 15.9928 25.6771 16.0261 25.5856 16.0676C25.4026 16.1342 25.2196 16.2173 25.0367 16.3005C24.862 16.3754 24.6873 16.4752 24.5127 16.5666Z" fill="white"/>
<path d="M10 48.1313L39.372 31.1807L54.0545 39.6596L24.6824 56.6102L10 48.1313Z" fill="url(#paint12_linear)"/>
<path opacity="0.4" d="M39.3724 32.0679L11.5459 48.1313L24.6828 55.7158L52.5093 39.6524L39.3724 32.0679ZM24.6828 55.2721L12.3187 48.1313L39.3724 32.5115L51.7366 39.6524L24.6828 55.2721Z" fill="#7583FF"/>
<g opacity="0.4">
<g opacity="0.4">
<path opacity="0.4" d="M26.5509 47.1294C25.2344 46.371 24.5117 45.3335 24.5117 44.2101C24.5117 42.9866 25.3918 41.7702 26.9373 40.8829C29.9568 39.1371 34.6936 39.0369 37.5055 40.6611C38.8221 41.4196 39.5448 42.4571 39.5448 43.5804C39.5448 44.804 38.6575 46.0204 37.1192 46.9076C35.5379 47.8235 33.4843 48.2814 31.4809 48.2814C29.6635 48.2886 27.889 47.9022 26.5509 47.1294ZM27.0733 41.1119C25.6136 41.9562 24.7765 43.0867 24.7765 44.2173C24.7765 45.2405 25.4562 46.1992 26.6869 46.9076C29.4202 48.4889 34.0424 48.3887 36.9904 46.6858C38.45 45.8415 39.2872 44.711 39.2872 43.5804C39.2872 42.5501 38.6074 41.5985 37.3767 40.8901C36.0745 40.1388 34.3501 39.7667 32.5828 39.7667C30.6222 39.7667 28.6188 40.2175 27.0733 41.1119Z" fill="#7583FF"/>
</g>
</g>
<g opacity="0.2">
<path opacity="0.2" d="M27.0325 46.307C26.0236 45.7275 25.4727 44.9833 25.4727 44.2106C25.4727 43.3305 26.181 42.4218 27.4189 41.7063C28.7998 40.912 30.6816 40.4541 32.5778 40.4541C34.3022 40.4541 35.8835 40.819 37.0283 41.4844C38.0372 42.064 38.5881 42.8082 38.5881 43.5809C38.5881 44.461 37.8798 45.3697 36.6419 46.0852C35.261 46.8795 33.3791 47.3374 31.483 47.3374C29.7586 47.3374 28.1773 46.9725 27.0325 46.307Z" fill="#7583FF"/>
</g>
<path opacity="0.5" d="M25.3865 53.2185C24.9929 52.9967 24.3633 52.9967 23.9698 53.2185L23.1326 53.6979L15.083 49.0828L16.0561 48.5247C16.2207 48.4317 16.3137 48.31 16.3137 48.1884C16.3137 48.0668 16.2207 47.9523 16.0561 47.8593L15.0902 47.3012L23.934 42.1709L23.7623 42.5501C23.5476 43.0224 23.4331 43.5089 23.4331 43.9955C23.4331 45.4337 24.8713 46.9076 26.3023 47.7305C27.576 48.4675 29.8084 49.2116 31.9192 49.2116C32.4987 49.2116 33.0855 49.1758 33.6579 49.0971L34.3018 49.0113L26.2236 53.7051L25.3865 53.2185Z" fill="url(#paint13_linear)"/>
<path d="M21.4862 50.1488C21.1499 49.9557 20.9639 49.6838 20.9639 49.3904C20.9639 49.0684 21.1857 48.7607 21.5721 48.5389C22.2947 48.1239 23.4324 48.0953 24.105 48.4888C24.4413 48.682 24.6273 48.9539 24.6273 49.2473C24.6273 49.5693 24.4055 49.8769 24.0191 50.0988C23.6399 50.3206 23.1534 50.4279 22.674 50.4279C22.2375 50.4279 21.8082 50.3349 21.4862 50.1488Z" fill="white"/>
<path opacity="0.5" d="M40.2687 45.2405C40.4834 44.7754 40.605 43.974 40.605 43.4731C40.605 42.2782 39.6606 41.1262 37.8002 40.0529C36.3119 39.1943 34.0294 38.6148 32.1118 38.6148C31.5251 38.6148 30.9384 38.6505 30.366 38.7292L29.7148 38.8151L37.7859 34.1714L38.6231 34.6579C39.0094 34.8797 39.6534 34.8797 40.0398 34.6579L40.8769 34.1714L48.9194 38.7507L47.9463 39.316C47.7817 39.409 47.6958 39.5306 47.6958 39.6451C47.6958 39.7667 47.7889 39.8812 47.9463 39.9814L48.9194 40.5395L40.097 45.6197L40.2687 45.2405Z" fill="url(#paint14_linear)"/>
<path d="M39.973 39.5234C39.6367 39.3302 39.4507 39.0583 39.4507 38.7649C39.4507 38.4429 39.6725 38.1352 40.0589 37.9134C40.7815 37.4984 41.9192 37.4698 42.5918 37.8633C42.9281 38.0565 43.1141 38.3284 43.1141 38.6218C43.1141 38.9438 42.8923 39.2515 42.5059 39.4733C42.1267 39.6951 41.6402 39.8024 41.1608 39.8024C40.7243 39.8024 40.295 39.7094 39.973 39.5234Z" fill="white"/>
<path d="M10 48.1313V51.7018L24.6824 60.1807V56.6102L10 48.1313Z" fill="#00DFBF"/>
<path d="M10 48.1313V51.7018L24.6824 60.1807V56.6102L10 48.1313Z" fill="url(#paint15_linear)"/>
<g opacity="0.1">
<path opacity="0.1" d="M24.6815 57.4045L20.0449 54.8286L24.6815 57.6263V57.4045Z" fill="#7583FF"/>
<path opacity="0.1" d="M10 49.8271L11.5455 50.8146L10 50.0132V49.8271Z" fill="#7583FF"/>
<path opacity="0.1" d="M10 50.6787L17.7276 55.2723L10 50.9435V50.6787Z" fill="#7583FF"/>
<path opacity="0.1" d="M24.6807 58.2558L16.9531 53.9341L24.6807 58.5349V58.2558Z" fill="#7583FF"/>
</g>
<path d="M24.6826 60.1807L54.0547 43.2301V39.6597L24.6826 56.6103V60.1807Z" fill="#00DFBF"/>
<path d="M24.6797 60.1807L54.0517 43.2301V39.6597L24.6797 56.6103V60.1807Z" fill="url(#paint16_linear)"/>
<g opacity="0.3">
<path opacity="0.3" d="M24.6787 57.4046L26.2314 56.6104L24.6787 57.6264V57.4046Z" fill="#7583FF"/>
</g>
<g opacity="0.3">
<path opacity="0.3" d="M24.6787 58.2563L32.4492 53.9131L24.6787 58.5353V58.2563Z" fill="#7583FF"/>
</g>
<g opacity="0.3">
<path opacity="0.3" d="M54.0495 41.334L48.6401 44.5681L54.0495 41.5486V41.334Z" fill="#7583FF"/>
</g>
<g opacity="0.3">
<path opacity="0.3" d="M54.0554 42.2354L50.9644 44.1172L54.0554 42.4357V42.2354Z" fill="#7583FF"/>
</g>
<path d="M22.125 40.5398L37.3155 49.3192L41.952 46.6432L26.7616 37.8638L22.125 40.5398Z" fill="url(#paint17_linear)"/>
<path d="M41.952 46.6431V50.5212L37.3154 53.1972V49.3191L41.952 46.6431Z" fill="#DB880F"/>
<path d="M37.3145 53.1972L37.0498 53.0397L37.3145 52.8823V53.1972Z" fill="#E1E1E1"/>
<path d="M22.125 40.5396V41.1334L22.633 40.8401L22.125 40.5396Z" fill="#E1E1E1"/>
<g opacity="0.3">
<path opacity="0.3" d="M37.0498 53.04V49.4768L37.3145 49.3193V52.8826L37.0498 53.04Z" fill="#7583FF"/>
</g>
<g opacity="0.2">
<path opacity="0.2" d="M37.0539 49.4766L22.3643 40.9977L22.6362 40.8403L37.3186 49.3192L37.0539 49.4766Z" fill="#7583FF"/>
</g>
<path d="M22.626 40.2536L37.8236 49.0258L38.2028 48.804L23.0124 40.0317L22.626 40.2536Z" fill="#FAFAFA"/>
<path d="M25.8691 38.379L41.0668 47.1513L41.4531 46.9295L26.2627 38.1572L25.8691 38.379Z" fill="#FAFAFA"/>
<path d="M37.8262 49.026V52.9113L38.2054 52.6895V48.8042L37.8262 49.026Z" fill="#E1E1E1"/>
<path d="M41.0659 47.1515V51.0368L41.4595 50.815L41.4523 46.9297L41.0659 47.1515Z" fill="#E1E1E1"/>
<path d="M10 43.1313L39.372 26.1807L54.0545 34.6596L24.6824 51.6102L10 43.1313Z" fill="url(#paint18_linear)"/>
<path opacity="0.4" d="M39.3724 27.0679L11.5459 43.1313L24.6828 50.7158L52.5093 34.6524L39.3724 27.0679ZM24.6828 50.2721L12.3187 43.1313L39.3724 27.5115L51.7366 34.6524L24.6828 50.2721Z" fill="#7583FF"/>
<g opacity="0.4">
<g opacity="0.4">
<path opacity="0.4" d="M26.5509 42.1294C25.2344 41.371 24.5117 40.3335 24.5117 39.2101C24.5117 37.9866 25.3918 36.7702 26.9373 35.8829C29.9568 34.1371 34.6936 34.0369 37.5055 35.6611C38.8221 36.4196 39.5448 37.4571 39.5448 38.5804C39.5448 39.804 38.6575 41.0204 37.1192 41.9076C35.5379 42.8235 33.4843 43.2814 31.4809 43.2814C29.6635 43.2886 27.889 42.9022 26.5509 42.1294ZM27.0733 36.1119C25.6136 36.9562 24.7765 38.0867 24.7765 39.2173C24.7765 40.2405 25.4562 41.1992 26.6869 41.9076C29.4202 43.4889 34.0424 43.3887 36.9904 41.6858C38.45 40.8415 39.2872 39.711 39.2872 38.5804C39.2872 37.5501 38.6074 36.5985 37.3767 35.8901C36.0745 35.1388 34.3501 34.7667 32.5828 34.7667C30.6222 34.7667 28.6188 35.2175 27.0733 36.1119Z" fill="#7583FF"/>
</g>
</g>
<g opacity="0.2">
<path opacity="0.2" d="M27.0325 41.307C26.0236 40.7275 25.4727 39.9833 25.4727 39.2106C25.4727 38.3305 26.181 37.4218 27.4189 36.7063C28.7998 35.912 30.6816 35.4541 32.5778 35.4541C34.3022 35.4541 35.8835 35.819 37.0283 36.4844C38.0372 37.064 38.5881 37.8082 38.5881 38.5809C38.5881 39.461 37.8798 40.3697 36.6419 41.0852C35.261 41.8795 33.3791 42.3374 31.483 42.3374C29.7586 42.3374 28.1773 41.9725 27.0325 41.307Z" fill="#7583FF"/>
</g>
<path opacity="0.5" d="M25.3865 48.2185C24.9929 47.9967 24.3633 47.9967 23.9698 48.2185L23.1326 48.6979L15.083 44.0828L16.0561 43.5247C16.2207 43.4317 16.3137 43.31 16.3137 43.1884C16.3137 43.0668 16.2207 42.9523 16.0561 42.8593L15.0902 42.3012L23.934 37.1709L23.7623 37.5501C23.5476 38.0224 23.4331 38.5089 23.4331 38.9955C23.4331 40.4337 24.8713 41.9076 26.3023 42.7305C27.576 43.4675 29.8084 44.2116 31.9192 44.2116C32.4987 44.2116 33.0855 44.1758 33.6579 44.0971L34.3018 44.0113L26.2236 48.7051L25.3865 48.2185Z" fill="url(#paint19_linear)"/>
<path d="M21.4862 45.1488C21.1499 44.9557 20.9639 44.6838 20.9639 44.3904C20.9639 44.0684 21.1857 43.7607 21.5721 43.5389C22.2947 43.1239 23.4324 43.0953 24.105 43.4888C24.4413 43.682 24.6273 43.9539 24.6273 44.2473C24.6273 44.5693 24.4055 44.8769 24.0191 45.0988C23.6399 45.3206 23.1534 45.4279 22.674 45.4279C22.2375 45.4279 21.8082 45.3349 21.4862 45.1488Z" fill="white"/>
<path opacity="0.5" d="M40.2687 40.2405C40.4834 39.7754 40.605 38.974 40.605 38.4731C40.605 37.2782 39.6606 36.1262 37.8002 35.0529C36.3119 34.1943 34.0294 33.6148 32.1118 33.6148C31.5251 33.6148 30.9384 33.6505 30.366 33.7292L29.7148 33.8151L37.7859 29.1714L38.6231 29.6579C39.0094 29.8797 39.6534 29.8797 40.0398 29.6579L40.8769 29.1714L48.9194 33.7507L47.9463 34.316C47.7817 34.409 47.6958 34.5306 47.6958 34.6451C47.6958 34.7667 47.7889 34.8812 47.9463 34.9814L48.9194 35.5395L40.097 40.6197L40.2687 40.2405Z" fill="url(#paint20_linear)"/>
<path d="M39.973 34.5234C39.6367 34.3302 39.4507 34.0583 39.4507 33.7649C39.4507 33.4429 39.6725 33.1352 40.0589 32.9134C40.7815 32.4984 41.9192 32.4698 42.5918 32.8633C42.9281 33.0565 43.1141 33.3284 43.1141 33.6218C43.1141 33.9438 42.8923 34.2515 42.5059 34.4733C42.1267 34.6951 41.6402 34.8024 41.1608 34.8024C40.7243 34.8024 40.295 34.7094 39.973 34.5234Z" fill="white"/>
<path d="M10 43.1313V46.7018L24.6824 55.1807V51.6102L10 43.1313Z" fill="#00DFBF"/>
<path d="M10 43.1313V46.7018L24.6824 55.1807V51.6102L10 43.1313Z" fill="url(#paint21_linear)"/>
<g opacity="0.1">
<path opacity="0.1" d="M24.6815 52.4045L20.0449 49.8286L24.6815 52.6263V52.4045Z" fill="#7583FF"/>
<path opacity="0.1" d="M10 44.8271L11.5455 45.8146L10 45.0132V44.8271Z" fill="#7583FF"/>
<path opacity="0.1" d="M10 45.6787L17.7276 50.2723L10 45.9435V45.6787Z" fill="#7583FF"/>
<path opacity="0.1" d="M24.6807 53.2558L16.9531 48.9341L24.6807 53.5349V53.2558Z" fill="#7583FF"/>
</g>
<path d="M24.6826 55.1807L54.0547 38.2301V34.6597L24.6826 51.6103V55.1807Z" fill="#00DFBF"/>
<path d="M24.6797 55.1807L54.0517 38.2301V34.6597L24.6797 51.6103V55.1807Z" fill="url(#paint22_linear)"/>
<g opacity="0.3">
<path opacity="0.3" d="M24.6787 52.4046L26.2314 51.6104L24.6787 52.6264V52.4046Z" fill="#7583FF"/>
</g>
<g opacity="0.3">
<path opacity="0.3" d="M24.6787 53.2563L32.4492 48.9131L24.6787 53.5353V53.2563Z" fill="#7583FF"/>
</g>
<g opacity="0.3">
<path opacity="0.3" d="M54.0495 36.334L48.6401 39.5681L54.0495 36.5486V36.334Z" fill="#7583FF"/>
</g>
<g opacity="0.3">
<path opacity="0.3" d="M54.0554 37.2354L50.9644 39.1172L54.0554 37.4357V37.2354Z" fill="#7583FF"/>
</g>
<path d="M22.125 35.5398L37.3155 44.3192L41.952 41.6432L26.7616 32.8638L22.125 35.5398Z" fill="url(#paint23_linear)"/>
<path d="M41.952 41.6431V45.5212L37.3154 48.1972V44.3191L41.952 41.6431Z" fill="#DB880F"/>
<path d="M37.3145 48.1972L37.0498 48.0397L37.3145 47.8823V48.1972Z" fill="#E1E1E1"/>
<path d="M22.125 35.5396V36.1334L22.633 35.8401L22.125 35.5396Z" fill="#E1E1E1"/>
<g opacity="0.3">
<path opacity="0.3" d="M37.0498 48.04V44.4768L37.3145 44.3193V47.8826L37.0498 48.04Z" fill="#7583FF"/>
</g>
<g opacity="0.2">
<path opacity="0.2" d="M37.0539 44.4766L22.3643 35.9977L22.6362 35.8403L37.3186 44.3192L37.0539 44.4766Z" fill="#7583FF"/>
</g>
<path d="M22.626 35.2536L37.8236 44.0258L38.2028 43.804L23.0124 35.0317L22.626 35.2536Z" fill="#FAFAFA"/>
<path d="M25.8691 33.379L41.0668 42.1513L41.4531 41.9295L26.2627 33.1572L25.8691 33.379Z" fill="#FAFAFA"/>
<path d="M37.8262 44.026V47.9113L38.2054 47.6895V43.8042L37.8262 44.026Z" fill="#E1E1E1"/>
<path d="M41.0659 42.1515V46.0368L41.4595 45.815L41.4523 41.9297L41.0659 42.1515Z" fill="#E1E1E1"/>
<defs>
<linearGradient id="paint0_linear" x1="25.1633" y1="13.3872" x2="34.7474" y2="13.3872" gradientUnits="userSpaceOnUse">
<stop stop-color="#6A3EC4" stop-opacity="0.6663"/>
<stop offset="1" stop-color="#803EFF"/>
</linearGradient>
<linearGradient id="paint1_linear" x1="21.5643" y1="19.6894" x2="33.7078" y2="19.6894" gradientUnits="userSpaceOnUse">
<stop stop-color="#7583FF"/>
<stop offset="0.407" stop-color="#7583FF"/>
<stop offset="1" stop-color="#98A3FF"/>
</linearGradient>
<linearGradient id="paint2_linear" x1="21.5643" y1="19.6894" x2="33.7078" y2="19.6894" gradientUnits="userSpaceOnUse">
<stop stop-color="#6A3EC4" stop-opacity="0.6663"/>
<stop offset="1" stop-color="#803EFF"/>
</linearGradient>
<linearGradient id="paint3_linear" x1="19.0826" y1="40.1688" x2="22.3484" y2="40.1688" gradientUnits="userSpaceOnUse">
<stop stop-color="#7583FF"/>
<stop offset="0.407" stop-color="#7583FF"/>
<stop offset="1" stop-color="#98A3FF"/>
</linearGradient>
<linearGradient id="paint4_linear" x1="19.0826" y1="40.1688" x2="22.3484" y2="40.1688" gradientUnits="userSpaceOnUse">
<stop stop-color="#6A3EC4" stop-opacity="0.6663"/>
<stop offset="1" stop-color="#803EFF"/>
</linearGradient>
<linearGradient id="paint5_linear" x1="20.4362" y1="30.0584" x2="27.8848" y2="30.0584" gradientUnits="userSpaceOnUse">
<stop stop-color="#7583FF"/>
<stop offset="0.407" stop-color="#7583FF"/>
<stop offset="1" stop-color="#98A3FF"/>
</linearGradient>
<linearGradient id="paint6_linear" x1="20.4362" y1="30.0584" x2="27.8848" y2="30.0584" gradientUnits="userSpaceOnUse">
<stop stop-color="#6A3EC4" stop-opacity="0.6663"/>
<stop offset="1" stop-color="#803EFF"/>
</linearGradient>
<linearGradient id="paint7_linear" x1="11.1002" y1="37.4022" x2="16.3394" y2="37.4022" gradientUnits="userSpaceOnUse">
<stop stop-color="#6A3EC4" stop-opacity="0.6663"/>
<stop offset="1" stop-color="#803EFF"/>
</linearGradient>
<linearGradient id="paint8_linear" x1="11.1002" y1="21.6279" x2="32.5156" y2="21.6279" gradientUnits="userSpaceOnUse">
<stop stop-color="#7583FF"/>
<stop offset="0.407" stop-color="#7583FF"/>
<stop offset="1" stop-color="#98A3FF"/>
</linearGradient>
<linearGradient id="paint9_linear" x1="29.8792" y1="106.266" x2="23.6736" y2="10.6537" gradientUnits="userSpaceOnUse">
<stop stop-color="#7583FF"/>
<stop offset="1" stop-color="#DBDFFF"/>
</linearGradient>
<linearGradient id="paint10_linear" x1="18.6644" y1="9.90198" x2="21.9318" y2="9.90198" gradientUnits="userSpaceOnUse">
<stop stop-color="#7583FF"/>
<stop offset="0.407" stop-color="#7583FF"/>
<stop offset="1" stop-color="#98A3FF"/>
</linearGradient>
<linearGradient id="paint11_linear" x1="18.6644" y1="9.90198" x2="21.9318" y2="9.90198" gradientUnits="userSpaceOnUse">
<stop stop-color="#6A3EC4" stop-opacity="0.6663"/>
<stop offset="1" stop-color="#803EFF"/>
</linearGradient>
<linearGradient id="paint12_linear" x1="10" y1="43.8951" x2="54.0536" y2="43.8951" gradientUnits="userSpaceOnUse">
<stop stop-color="white"/>
<stop offset="1" stop-color="#C6CBFF"/>
</linearGradient>
<linearGradient id="paint13_linear" x1="15.0818" y1="47.9356" x2="34.2993" y2="47.9356" gradientUnits="userSpaceOnUse">
<stop stop-color="#6A3EC4" stop-opacity="0.6663"/>
<stop offset="1" stop-color="#803EFF"/>
</linearGradient>
<linearGradient id="paint14_linear" x1="29.7256" y1="39.8907" x2="48.9249" y2="39.8907" gradientUnits="userSpaceOnUse">
<stop stop-color="#6A3EC4" stop-opacity="0.6663"/>
<stop offset="1" stop-color="#803EFF"/>
</linearGradient>
<linearGradient id="paint15_linear" x1="10" y1="54.1578" x2="24.6842" y2="54.1578" gradientUnits="userSpaceOnUse">
<stop stop-color="#6A3EC4" stop-opacity="0.6663"/>
<stop offset="1" stop-color="#803EFF"/>
</linearGradient>
<linearGradient id="paint16_linear" x1="24.6813" y1="49.9192" x2="54.0509" y2="49.9192" gradientUnits="userSpaceOnUse">
<stop stop-color="#7583FF"/>
<stop offset="0.407" stop-color="#7583FF"/>
<stop offset="1" stop-color="#98A3FF"/>
</linearGradient>
<linearGradient id="paint17_linear" x1="22.1234" y1="43.5899" x2="41.9549" y2="43.5899" gradientUnits="userSpaceOnUse">
<stop stop-color="#FFE278"/>
<stop offset="0.642" stop-color="#FBB632"/>
<stop offset="1" stop-color="#F89C09"/>
</linearGradient>
<linearGradient id="paint18_linear" x1="10" y1="38.8951" x2="54.0536" y2="38.8951" gradientUnits="userSpaceOnUse">
<stop stop-color="white"/>
<stop offset="1" stop-color="#C6CBFF"/>
</linearGradient>
<linearGradient id="paint19_linear" x1="15.0818" y1="42.9356" x2="34.2993" y2="42.9356" gradientUnits="userSpaceOnUse">
<stop stop-color="#6A3EC4" stop-opacity="0.6663"/>
<stop offset="1" stop-color="#803EFF"/>
</linearGradient>
<linearGradient id="paint20_linear" x1="29.7256" y1="34.8907" x2="48.9249" y2="34.8907" gradientUnits="userSpaceOnUse">
<stop stop-color="#6A3EC4" stop-opacity="0.6663"/>
<stop offset="1" stop-color="#803EFF"/>
</linearGradient>
<linearGradient id="paint21_linear" x1="10" y1="49.1578" x2="24.6842" y2="49.1578" gradientUnits="userSpaceOnUse">
<stop stop-color="#6A3EC4" stop-opacity="0.6663"/>
<stop offset="1" stop-color="#803EFF"/>
</linearGradient>
<linearGradient id="paint22_linear" x1="24.6813" y1="44.9192" x2="54.0509" y2="44.9192" gradientUnits="userSpaceOnUse">
<stop stop-color="#7583FF"/>
<stop offset="0.407" stop-color="#7583FF"/>
<stop offset="1" stop-color="#98A3FF"/>
</linearGradient>
<linearGradient id="paint23_linear" x1="22.1234" y1="38.5899" x2="41.9549" y2="38.5899" gradientUnits="userSpaceOnUse">
<stop stop-color="#FFE278"/>
<stop offset="0.642" stop-color="#FBB632"/>
<stop offset="1" stop-color="#F89C09"/>
</linearGradient>
</defs>
</svg>
