<svg width="65" height="66" viewBox="0 0 65 66" fill="none" xmlns="http://www.w3.org/2000/svg">
<path d="M43.7402 49.393C41.273 53.6682 38.0619 55.9094 34.8226 56.1072L31.1406 56.0978C34.3894 55.9 37.6005 53.6588 40.0677 49.3836C43.3918 43.6206 44.5689 35.541 43.599 28.1489C43.194 24.9943 42.3842 21.9527 41.1883 19.2783L44.8702 19.2877C48.8723 28.2242 48.4957 41.1628 43.7402 49.393Z" fill="url(#paint0_linear)"/>
<path d="M33.674 60.3256L34.8228 56.1163L31.1409 56.1069L29.992 60.3162L28.6172 65.3824L32.2897 65.3918L33.674 60.3256Z" fill="url(#paint1_linear)"/>
<path d="M44.8706 19.2969L41.1887 19.2875L40.6143 12.3662L44.2962 12.3756L44.8706 19.2969Z" fill="url(#paint2_linear)"/>
<path d="M43.7411 49.4021C48.4966 41.1719 48.8638 28.2333 44.8712 19.2968L44.2967 12.3755L48.732 12.4697C54.9 25.1163 54.5233 44.1099 47.6208 56.0597C43.4398 63.3012 37.7615 66.4087 32.2998 65.3917L33.6746 60.3255L34.8235 56.1068C38.0628 55.9185 41.274 53.6679 43.7411 49.4021Z" fill="url(#paint3_linear)"/>
<path opacity="0.4" d="M44.8703 19.2968L45.1622 14.4943C45.1999 13.8633 45.6331 13.3266 46.2452 13.1571L48.7312 12.4697L44.2959 12.3755L44.8703 19.2968Z" fill="url(#paint4_linear)"/>
<path d="M24.2479 53.922L19.5772 53.9973L16.1777 53.7148L19.8503 53.7243L24.2479 53.922Z" fill="url(#paint5_linear)"/>
<path d="M30.8013 1.00002L34.4833 1.00944C29.6525 1.00002 24.8217 4.17346 21.1586 10.5298C14.322 22.3666 13.8889 41.0871 19.8497 53.7243L16.1677 53.7149C10.2069 41.0777 10.6401 22.3478 17.4672 10.5203C21.1492 4.16404 25.98 0.990604 30.8013 1.00002Z" fill="url(#paint6_linear)"/>
<path d="M24.2475 53.9219L19.8593 53.7242C13.8891 41.0869 14.3223 22.357 21.1588 10.5296C22.9951 7.35614 25.1139 4.97371 27.3739 3.39169C30.2742 1.35768 33.41 0.632591 36.4799 1.1976L33.9468 10.4731C30.7074 10.6708 27.4963 12.912 25.0291 17.1872C20.2737 25.4174 19.9064 38.356 23.8991 47.2925L24.2475 53.9219Z" fill="url(#paint7_linear)"/>
<path d="M29.5106 3.09992L27.373 3.38242C30.2734 1.3484 33.4092 0.623314 36.479 1.18832L33.9459 10.4638L34.1625 7.46928C34.3508 4.87968 32.0908 2.76091 29.5106 3.09992Z" fill="url(#paint8_linear)"/>
<path d="M40.0674 49.3832C43.3915 43.6201 44.5686 35.5406 43.5987 28.1484H43.6081L45.6515 34.1751C45.6515 34.1751 46.8004 45.8237 40.0674 49.3832Z" fill="url(#paint9_linear)"/>
<path d="M45.1899 30.5029L45.6231 33.7894C45.6231 33.827 45.6325 33.8553 45.6325 33.893C45.6325 33.9306 45.6325 33.9683 45.6419 33.9965C45.6514 34.053 45.6514 34.119 45.6514 34.1755C45.6514 34.232 45.6514 34.279 45.6514 34.3355C45.6514 34.392 45.6514 34.458 45.6419 34.5145C45.6419 34.5333 45.6419 34.5615 45.6419 34.5804C45.6419 34.6086 45.6325 34.6463 45.6325 34.6745C45.6325 34.731 45.6231 34.797 45.6137 34.8535C45.6043 34.91 45.5949 34.9665 45.5949 35.0135C45.5854 35.07 45.576 35.1265 45.5572 35.1925C45.5478 35.2207 45.5478 35.2395 45.5384 35.2678C45.5289 35.296 45.5195 35.3243 45.5101 35.3525C45.4913 35.4185 45.4819 35.475 45.4536 35.5409C45.4348 35.5974 45.4254 35.6445 45.4065 35.701C45.3877 35.7669 45.3594 35.8234 45.3406 35.8893C45.3312 35.9176 45.3218 35.9458 45.3123 35.9835C45.3029 36.0023 45.2935 36.0306 45.2841 36.0494C45.2559 36.1247 45.2182 36.2001 45.1805 36.2754C45.1617 36.3225 45.1428 36.3696 45.1146 36.4166C45.0769 36.5014 45.0298 36.5861 44.9828 36.6709C44.9639 36.6991 44.9545 36.7368 44.9357 36.7651C44.9357 36.7745 44.9263 36.7839 44.9168 36.7933C44.9074 36.8121 44.898 36.831 44.8792 36.8498C44.8321 36.9346 44.7756 37.0193 44.7191 37.1041C44.7003 37.1323 44.6908 37.1511 44.672 37.17C44.6061 37.2641 44.5308 37.3677 44.4554 37.4619C44.446 37.4807 44.4272 37.4996 44.4178 37.509C44.4178 37.509 44.4178 37.509 44.4178 37.5184C44.3801 37.5655 44.3424 37.6126 44.3048 37.6597C44.2859 37.6785 44.2671 37.7067 44.2483 37.7256C44.2012 37.7821 44.1447 37.8386 44.0976 37.8951C44.0505 37.9516 44.0034 37.9987 43.9563 38.0552C43.8998 38.1117 43.8433 38.1682 43.7963 38.2247C43.7398 38.2812 43.6927 38.3282 43.6362 38.3847C43.5797 38.4412 43.5138 38.4977 43.4573 38.5542C43.4008 38.6013 43.3443 38.6578 43.2878 38.7049C43.2218 38.7614 43.1559 38.8179 43.09 38.865C43.0523 38.8932 43.0147 38.9309 42.9676 38.9686C42.9205 39.0062 42.8828 39.0345 42.8358 39.0722C42.7792 39.1192 42.7227 39.1569 42.6662 39.204C42.5627 39.2793 42.4497 39.3641 42.3367 39.4394C42.2896 39.4771 42.2331 39.5053 42.186 39.543C42.0542 39.6372 41.9129 39.7219 41.7811 39.8067C41.734 39.8349 41.6869 39.8632 41.6398 39.8914C41.4609 40.0044 41.2726 40.108 41.0842 40.2116C41.056 40.2304 41.0183 40.2493 40.9807 40.2587C40.8206 40.3434 40.6605 40.4282 40.491 40.5129C40.4627 40.5223 40.4345 40.5412 40.4062 40.5506C40.3686 40.5694 40.3215 40.5883 40.2838 40.6071C40.1991 40.6448 40.1049 40.6918 40.0107 40.7295C39.9354 40.7578 39.8601 40.7954 39.7753 40.8331C39.6811 40.8708 39.587 40.9178 39.4928 40.9555C39.4175 40.9838 39.3327 41.0214 39.2574 41.0497C39.1632 41.0873 39.0691 41.125 38.9655 41.1627C38.8807 41.1909 38.8054 41.2192 38.7206 41.2474C38.6171 41.2851 38.5229 41.3133 38.4193 41.351C38.3628 41.3698 38.3063 41.3887 38.2498 41.4075C38.231 41.4169 38.2121 41.4169 38.1839 41.4263C37.9673 41.4923 37.7507 41.5582 37.5341 41.6241C37.5059 41.6335 37.4682 41.6429 37.44 41.6523C37.2516 41.7088 37.0539 41.7559 36.8655 41.803C36.8373 41.8124 36.809 41.8218 36.7808 41.8218C36.7337 41.8313 36.6866 41.8407 36.649 41.8501C36.5265 41.8783 36.4041 41.9066 36.2723 41.9349C36.1875 41.9537 36.1122 41.9631 36.0369 41.9819C35.905 42.0102 35.7732 42.029 35.6414 42.0573C35.5849 42.0667 35.5378 42.0761 35.4813 42.0855L35.4154 42.0949C35.3024 42.1138 35.1894 42.1326 35.0669 42.1514C34.9916 42.1609 34.9069 42.1797 34.8315 42.1891C34.7091 42.2079 34.5867 42.2268 34.4643 42.2362C34.3984 42.2456 34.3324 42.255 34.2759 42.255H34.2477C34.1347 42.2644 34.0217 42.2739 33.9087 42.2833C33.8333 42.2927 33.7486 42.3021 33.6733 42.3021C33.5508 42.3115 33.4284 42.3209 33.306 42.3304C33.2401 42.3304 33.1742 42.3398 33.1083 42.3492C33.0988 42.3492 33.0988 42.3492 33.0988 42.3492C32.9482 42.3586 32.8069 42.3586 32.6563 42.368C32.6186 42.368 32.5715 42.368 32.5244 42.3774C32.3361 42.3774 32.1383 42.3774 31.95 42.3869C31.95 42.3869 31.95 42.3869 31.9406 42.3869C31.9123 42.3869 31.8841 42.3869 31.8558 42.3869C31.6863 42.3869 31.5262 42.3774 31.3662 42.3774C31.3002 42.3774 31.2343 42.368 31.159 42.368C31.0366 42.3586 30.9142 42.3586 30.7823 42.3492C30.7729 42.3492 30.7541 42.3492 30.7447 42.3492C30.6976 42.3398 30.6411 42.3398 30.594 42.3304C30.4622 42.3209 30.3209 42.3115 30.1891 42.2927C30.1137 42.2833 30.0384 42.2739 29.9631 42.2644C29.8407 42.255 29.7182 42.2362 29.5958 42.2174C29.5581 42.2079 29.5205 42.2079 29.4828 42.2079C29.4451 42.1985 29.4169 42.1985 29.3886 42.1891C29.1909 42.1609 29.0026 42.1232 28.8048 42.0855C28.7671 42.0761 28.7389 42.0761 28.7012 42.0667C28.4846 42.0196 28.2681 41.9725 28.0515 41.9254C28.0326 41.916 28.0044 41.916 27.9856 41.916C27.9196 41.8972 27.8537 41.8783 27.7878 41.8595C27.7219 41.8407 27.6466 41.8219 27.5806 41.803C27.4865 41.7748 27.3829 41.7465 27.2887 41.7183C27.2228 41.6994 27.1569 41.6806 27.1004 41.6618C26.9968 41.6241 26.8932 41.5864 26.7896 41.5582C26.7331 41.5393 26.686 41.5205 26.639 41.5017C26.4883 41.4452 26.3282 41.3887 26.187 41.3228C23.6821 40.2963 22.2884 38.6955 22.0624 36.9346L21.6575 33.8082L21.6387 33.6481C21.6481 33.714 21.6575 33.7705 21.6669 33.8365C21.6763 33.8741 21.6858 33.9212 21.6952 33.9589C21.714 34.0625 21.7423 34.166 21.7705 34.2696C21.7893 34.3167 21.7988 34.3732 21.8176 34.4203C21.8364 34.4674 21.8553 34.5239 21.8741 34.571C21.8929 34.6086 21.9023 34.6557 21.9212 34.6934C21.94 34.7499 21.9683 34.797 21.9871 34.844C21.9871 34.8535 21.9965 34.8629 21.9965 34.8723C22.0059 34.8817 22.0153 34.9005 22.0153 34.91C22.0342 34.9476 22.053 34.9853 22.0718 35.0135C22.0813 35.0324 22.0907 35.0418 22.0907 35.0606C22.1001 35.0889 22.1189 35.1077 22.1378 35.136C22.1378 35.1454 22.1472 35.1548 22.1472 35.1642C22.1754 35.2113 22.1943 35.249 22.2225 35.296C22.2319 35.3055 22.2319 35.3149 22.2413 35.3243C22.2696 35.3714 22.2978 35.4091 22.3261 35.4561C22.3638 35.5032 22.392 35.5503 22.4297 35.5974C22.4673 35.6445 22.505 35.6916 22.5427 35.7386C22.5709 35.7669 22.5898 35.7951 22.618 35.8328C22.6745 35.8987 22.731 35.9646 22.7875 36.0306C22.8063 36.0494 22.8252 36.0682 22.844 36.0871C22.8628 36.1059 22.8817 36.1341 22.9099 36.153C22.9193 36.1624 22.9288 36.1718 22.9288 36.1812C22.957 36.2189 22.9947 36.2471 23.0323 36.2848C23.2113 36.4637 23.4184 36.6332 23.6256 36.8027C23.6633 36.831 23.7009 36.8592 23.7386 36.8875C24.0305 37.1041 24.3507 37.3112 24.6897 37.4996C24.7556 37.5372 24.8215 37.5749 24.8874 37.6031C25.0852 37.7067 25.3018 37.8103 25.5184 37.9045C25.5937 37.9422 25.669 37.9704 25.7444 37.9987C25.8856 38.0552 26.0363 38.1117 26.187 38.1682C26.1964 38.1682 26.1964 38.1682 26.1964 38.1776C26.2435 38.1964 26.3 38.2152 26.347 38.2341C26.4035 38.2529 26.4506 38.2717 26.5071 38.2906C26.5636 38.3094 26.6107 38.3282 26.6672 38.3471C26.6766 38.3471 26.686 38.3565 26.7049 38.3565C26.752 38.3753 26.8085 38.3847 26.8555 38.4036C26.9497 38.4318 27.0439 38.4601 27.1475 38.4883C27.1757 38.4977 27.204 38.5072 27.2322 38.5072C27.2699 38.5166 27.317 38.526 27.3546 38.5354C27.4394 38.5542 27.5241 38.5825 27.6183 38.6013C27.656 38.6107 27.6842 38.6202 27.7219 38.6202C27.882 38.6578 28.0421 38.6955 28.2021 38.7237C28.2304 38.7237 28.2492 38.7332 28.2775 38.7426C28.3151 38.752 28.3434 38.752 28.3811 38.7614C28.5129 38.7897 28.6447 38.8085 28.7766 38.8273C28.8425 38.8367 28.899 38.8462 28.9649 38.8556C29.0308 38.865 29.1061 38.8744 29.1721 38.8838C29.1909 38.8838 29.2097 38.8932 29.2191 38.8932C29.2851 38.9027 29.3604 38.9121 29.4263 38.9215C29.464 38.9309 29.5016 38.9309 29.5393 38.9403C29.6146 38.9497 29.69 38.9592 29.7653 38.9686C29.8312 38.978 29.8972 38.978 29.9631 38.9874C30.0384 38.9968 30.1043 38.9968 30.1797 39.0062C30.2456 39.0157 30.3115 39.0157 30.368 39.0251C30.3868 39.0251 30.3962 39.0251 30.4151 39.0251C30.5187 39.0345 30.6317 39.0345 30.7447 39.0439C30.8106 39.0439 30.8765 39.0533 30.9518 39.0533C31.1119 39.0627 31.272 39.0627 31.4415 39.0627C31.4697 39.0627 31.5074 39.0627 31.5357 39.0627C31.724 39.0627 31.9123 39.0627 32.1101 39.0533C32.1478 39.0533 32.1948 39.0533 32.2419 39.0439C32.3926 39.0345 32.5338 39.0345 32.6845 39.0251C32.7504 39.0251 32.8258 39.0157 32.8917 39.0157C33.0141 39.0062 33.1365 39.0062 33.2589 38.9874C33.3343 38.978 33.419 38.978 33.4943 38.9686C33.5979 38.9592 33.7015 38.9497 33.8051 38.9403C33.8145 38.9403 33.8239 38.9403 33.8333 38.9403C33.9087 38.9309 33.9746 38.9215 34.0499 38.9121C34.1347 38.9027 34.2289 38.8932 34.323 38.8744L34.4266 38.865C34.5114 38.8556 34.5867 38.8367 34.662 38.8273C34.7185 38.8179 34.775 38.8085 34.8315 38.7991C34.888 38.7897 34.9445 38.7802 35.001 38.7708C35.0764 38.7614 35.1517 38.7426 35.227 38.7332C35.3212 38.7143 35.4059 38.7049 35.5001 38.6861C35.5378 38.6767 35.5849 38.6672 35.6225 38.6578C35.7073 38.639 35.7826 38.6296 35.8579 38.6107C35.9239 38.6013 35.9898 38.5825 36.0557 38.5637C36.1122 38.5542 36.1781 38.5354 36.2346 38.526C36.3099 38.5072 36.3853 38.4883 36.4512 38.4695C36.4889 38.4601 36.5265 38.4507 36.5642 38.4412C36.6207 38.4224 36.6866 38.413 36.7431 38.3942C36.8373 38.3753 36.9315 38.3471 37.0256 38.3188C37.0539 38.3094 37.0915 38.3 37.1198 38.2906C37.1292 38.2906 37.1386 38.2812 37.148 38.2812C37.327 38.2341 37.5059 38.1776 37.6848 38.1211C37.713 38.1117 37.7413 38.1022 37.7695 38.0928C37.8449 38.0646 37.9202 38.0457 38.005 38.0175C38.0615 37.9987 38.1085 37.9798 38.165 37.961C38.2121 37.9422 38.2592 37.9327 38.3063 37.9139C38.391 37.8857 38.4664 37.8574 38.5511 37.8292C38.5888 37.8103 38.6265 37.8009 38.6641 37.7821C38.7206 37.7632 38.7771 37.735 38.8336 37.7162C38.9184 37.6879 38.9937 37.6502 39.0691 37.622C39.0879 37.6126 39.1161 37.6032 39.135 37.5937C39.1915 37.5749 39.248 37.5466 39.3045 37.5184C39.3233 37.5184 39.3327 37.509 39.3516 37.4996C39.4269 37.4619 39.5022 37.4337 39.587 37.396C39.6341 37.3771 39.6811 37.3583 39.7188 37.3301C39.7659 37.3112 39.813 37.283 39.8601 37.2641C39.926 37.2359 39.9919 37.1982 40.0672 37.17C40.0861 37.1606 40.1049 37.1511 40.1143 37.1417C40.1802 37.1135 40.2461 37.0758 40.3026 37.0476C40.3874 37.0099 40.4627 36.9628 40.5475 36.9251C40.5757 36.9063 40.6134 36.8875 40.6511 36.8686C40.6605 36.8592 40.6699 36.8592 40.6793 36.8498C40.8017 36.7839 40.9242 36.718 41.0372 36.6426C41.0937 36.6144 41.1502 36.5767 41.1972 36.5485C41.2443 36.5202 41.2914 36.492 41.3385 36.4637C41.4797 36.379 41.6116 36.2848 41.7434 36.2001C41.7905 36.1718 41.8376 36.1341 41.8847 36.1059C41.8847 36.1059 41.8847 36.1059 41.8941 36.0965C41.96 36.0494 42.0353 36.0023 42.1012 35.9552C42.1389 35.927 42.1766 35.8987 42.2142 35.8705C42.2707 35.8234 42.3367 35.7763 42.3932 35.7292C42.4402 35.6916 42.4779 35.6633 42.5156 35.6256C42.6097 35.5503 42.6945 35.475 42.7887 35.3996C42.8075 35.3902 42.8169 35.3714 42.8358 35.362C42.8923 35.3149 42.9487 35.2584 43.0052 35.2113C43.0617 35.1548 43.1277 35.0983 43.1842 35.0418C43.2407 34.9853 43.2878 34.9382 43.3443 34.8817C43.4008 34.8252 43.4573 34.7687 43.5043 34.7122C43.5514 34.6651 43.5985 34.6086 43.6456 34.5521C43.7021 34.4956 43.7492 34.4391 43.7963 34.3826C43.8528 34.3167 43.8998 34.2508 43.9563 34.1849C43.9563 34.1755 43.9658 34.1755 43.9752 34.166C43.9846 34.1472 44.0034 34.1284 44.0128 34.119C44.0882 34.0248 44.1541 33.9212 44.2294 33.827C44.2388 33.8082 44.2483 33.7894 44.2671 33.7705C44.2671 33.7611 44.2765 33.7611 44.2765 33.7517C44.333 33.667 44.3895 33.5822 44.4366 33.4975C44.446 33.4786 44.4554 33.4598 44.4743 33.441C44.5025 33.3939 44.5213 33.3562 44.5496 33.3091C44.5967 33.2338 44.6343 33.149 44.6814 33.0737C44.6908 33.0549 44.7003 33.0266 44.7097 33.0078C44.7285 32.9701 44.7473 32.9419 44.7568 32.9042C44.785 32.8383 44.8133 32.7724 44.8415 32.7064C44.8509 32.6782 44.8698 32.6405 44.8792 32.6123C44.898 32.5746 44.9074 32.5369 44.9263 32.4993C44.9451 32.4522 44.9545 32.4051 44.9733 32.3674C44.9922 32.3109 45.011 32.2639 45.0204 32.2074C45.0393 32.1414 45.0581 32.0849 45.0769 32.019C45.0863 31.9719 45.1052 31.9154 45.1146 31.8589C45.1334 31.8024 45.1428 31.7365 45.1523 31.68C45.1617 31.6329 45.1711 31.5859 45.1711 31.5388C45.1711 31.5294 45.1711 31.5199 45.1711 31.5105C45.1805 31.454 45.1805 31.3975 45.1899 31.341C45.1994 31.2845 45.1993 31.2374 45.1993 31.1809C45.1993 31.115 45.1993 31.0585 45.2088 31.002C45.2088 30.9644 45.2088 30.9173 45.2088 30.8702C45.2088 30.8513 45.2088 30.8325 45.2088 30.8043C45.2088 30.7572 45.1993 30.7101 45.1993 30.663C45.1993 30.6442 45.1899 30.6253 45.1899 30.6065C45.1899 30.6065 45.1899 30.6065 45.1899 30.5971C45.1994 30.6065 45.1899 30.55 45.1899 30.5029Z" fill="url(#paint10_linear)"/>
<path d="M41.056 26.1145C36.084 24.0711 28.6353 25.0787 24.4072 28.3557C20.1885 31.6327 20.7912 35.9456 25.7632 37.989C30.7352 40.0324 38.1839 39.0249 42.412 35.7478C46.6307 32.4708 46.028 28.1579 41.056 26.1145Z" fill="url(#paint11_linear)"/>
<path d="M34.1536 37.2922C31.3474 37.6689 28.5506 37.3958 26.4507 36.5295C24.6709 35.7949 23.5597 34.712 23.3997 33.5538C23.2396 32.4049 24.0117 31.0772 25.509 29.9189C27.2794 28.5441 29.9066 27.5365 32.7034 27.1598C35.5096 26.7831 38.3158 27.0562 40.4063 27.9226C42.186 28.6571 43.2972 29.74 43.4573 30.8982C43.6174 32.0471 42.8452 33.3748 41.348 34.5331C39.5776 35.9079 36.9598 36.9155 34.1536 37.2922Z" fill="url(#paint12_linear)"/>
<path d="M25.5189 29.919C27.2892 28.5442 29.9165 27.5366 32.7132 27.1599C35.5194 26.7832 38.3256 27.0563 40.4161 27.9227C42.0641 28.6007 43.1376 29.58 43.4107 30.6441C43.4107 30.5499 43.4012 30.4652 43.3918 30.3804C43.2317 29.2222 42.1206 28.1392 40.3408 27.4047C38.2503 26.5478 35.4441 26.2653 32.6379 26.642C29.8411 27.0186 27.2139 28.0262 25.4435 29.4011C23.9463 30.5593 23.1835 31.8871 23.3342 33.0359C23.3436 33.1207 23.3624 33.2054 23.3907 33.2902C23.3718 32.2073 24.1346 30.9925 25.5189 29.919Z" fill="url(#paint13_linear)"/>
<path d="M37.2988 28.9677L37.4024 29.7493L37.958 29.3161L37.8544 28.5439L37.2988 28.9677Z" fill="url(#paint14_linear)"/>
<path d="M35.8959 29.7021C35.8865 29.6456 35.83 29.5891 35.717 29.5421C35.6887 29.5326 35.6605 29.5232 35.6322 29.5138C35.6322 29.5138 35.6322 29.5138 35.6228 29.5138H35.6134C35.604 29.5138 35.5852 29.5044 35.5757 29.5044C35.5569 29.5044 35.5475 29.5044 35.5287 29.5044C35.5287 29.5044 35.5287 29.5044 35.5192 29.5044C35.5192 29.5044 35.5192 29.5044 35.5098 29.5044C35.5004 29.5044 35.491 29.5044 35.4816 29.5044C35.4722 29.5044 35.4533 29.5044 35.4439 29.5044C35.4345 29.5044 35.4157 29.5044 35.4062 29.5044C35.3968 29.5044 35.378 29.5044 35.3686 29.5138C35.3497 29.5138 35.3403 29.5232 35.3215 29.5232C35.3121 29.5232 35.3027 29.5232 35.3027 29.5326C35.2932 29.5326 35.2744 29.5421 35.265 29.5421C35.2556 29.5421 35.2462 29.5515 35.2367 29.5515C35.2085 29.5609 35.1897 29.5703 35.1614 29.5797C35.152 29.5797 35.1426 29.5891 35.1332 29.5891C35.1237 29.5891 35.1143 29.5986 35.1143 29.5986C35.0861 29.6174 35.0578 29.6268 35.0202 29.6456C35.0107 29.6551 34.9919 29.6645 34.9825 29.6739C34.9354 29.7021 34.8883 29.7304 34.8507 29.7681C34.8412 29.7775 34.8224 29.7869 34.813 29.7963C34.8036 29.8057 34.8036 29.8057 34.7942 29.8057C34.7565 29.834 34.7188 29.8622 34.6906 29.8905L34.6811 29.8999C34.6435 29.9281 34.6152 29.9658 34.5964 29.9941L34.587 30.0035L34.5776 30.0129C34.5587 30.0317 34.5493 30.0506 34.5305 30.0788L34.5211 30.0882C34.5211 30.0882 34.5211 30.0882 34.5211 30.0976C34.5116 30.1071 34.5116 30.1165 34.5116 30.1259C34.5116 30.1353 34.5022 30.1447 34.5022 30.1541V30.1636C34.5022 30.173 34.5022 30.173 34.4928 30.1824C34.4928 30.1918 34.4834 30.1918 34.4834 30.2012C34.4834 30.2106 34.4834 30.2107 34.4834 30.2201V30.2295V30.2389C34.4834 30.2483 34.4834 30.2577 34.4834 30.2766C34.4834 30.2766 34.4834 30.2766 34.4834 30.286L34.587 31.0676C34.587 31.0487 34.587 31.0393 34.587 31.0205V31.0111C34.587 31.0017 34.5964 30.9828 34.5964 30.9734C34.5964 30.964 34.5964 30.964 34.6058 30.9546C34.6058 30.9452 34.6152 30.9357 34.6246 30.9169C34.6246 30.9075 34.6341 30.8981 34.6341 30.8887C34.6341 30.8792 34.6435 30.8792 34.6435 30.8698C34.6529 30.851 34.6717 30.8322 34.6906 30.8039C34.7 30.7945 34.7 30.7851 34.7094 30.7851C34.7377 30.7568 34.7659 30.7286 34.7942 30.6909L34.8036 30.6815C34.8318 30.6532 34.8695 30.625 34.9072 30.5967C34.926 30.5779 34.9448 30.5685 34.9637 30.5497C35.0107 30.512 35.0578 30.4837 35.1049 30.4555C35.1143 30.4461 35.1332 30.4367 35.1426 30.4272C35.1708 30.4084 35.2085 30.3896 35.2367 30.3802C35.2556 30.3707 35.265 30.3613 35.2838 30.3613C35.3121 30.3519 35.3309 30.3425 35.3592 30.3331C35.3874 30.3236 35.4062 30.3142 35.4345 30.3048C35.4722 30.2954 35.5098 30.286 35.5381 30.286C35.5757 30.286 35.604 30.286 35.6322 30.286C35.6322 30.286 35.6322 30.286 35.6417 30.286C35.6699 30.286 35.6982 30.2954 35.7264 30.2954H35.7358C35.7641 30.3048 35.8017 30.3142 35.83 30.3236C35.8865 30.3425 35.9242 30.3707 35.9524 30.399C35.9807 30.4272 35.9995 30.4555 35.9995 30.4837L35.8959 29.7021Z" fill="url(#paint15_linear)"/>
<path d="M38.1751 29.9658C38.1751 30.0035 38.1751 30.0412 38.1751 30.0788C38.1751 30.0977 38.1657 30.1165 38.1657 30.1353C38.1657 30.1636 38.1562 30.1824 38.1468 30.2107C38.1374 30.2295 38.1374 30.2483 38.128 30.2766C38.1186 30.2954 38.1092 30.3237 38.0997 30.3425C38.0903 30.3707 38.0715 30.399 38.0621 30.4272C38.0527 30.4555 38.0338 30.4743 38.0244 30.5026C38.015 30.512 38.0056 30.5214 38.0056 30.5402C37.9773 30.5779 37.9491 30.6156 37.9208 30.6532C37.9208 30.6627 37.9114 30.6627 37.9114 30.6721C37.8737 30.7097 37.8361 30.7568 37.7984 30.7945C37.789 30.8039 37.7796 30.8133 37.7702 30.8227C37.7325 30.8604 37.6854 30.9075 37.6383 30.9452L37.6289 30.9546C37.5724 31.0017 37.5159 31.0487 37.45 31.0958C37.4123 31.1241 37.3652 31.1617 37.3087 31.1994C37.2522 31.2371 37.1863 31.2842 37.1016 31.3407L37.2051 32.1223C37.3652 32.0187 37.4782 31.9339 37.5536 31.8774C37.5724 31.8586 37.5912 31.8492 37.6101 31.8303C37.6477 31.7927 37.6948 31.7644 37.7325 31.7267L37.7419 31.7173C37.789 31.6797 37.8267 31.6326 37.8737 31.5949C37.8832 31.5855 37.8926 31.5761 37.902 31.5667C37.9397 31.529 37.9773 31.4819 38.015 31.4442C38.015 31.4442 38.015 31.4442 38.015 31.4348C38.015 31.4254 38.0244 31.4254 38.0244 31.416C38.0527 31.3783 38.0809 31.3407 38.1092 31.303C38.1186 31.2936 38.128 31.2842 38.128 31.2653C38.1374 31.2559 38.1468 31.2465 38.1468 31.2277C38.1562 31.2182 38.1562 31.1994 38.1657 31.19C38.1845 31.1617 38.1939 31.1335 38.2033 31.1052C38.2033 31.0958 38.2127 31.0864 38.2222 31.077V31.0676V31.077C38.2316 31.0676 38.2316 31.0487 38.2316 31.0393C38.241 31.0205 38.241 31.0017 38.2504 30.9734C38.2504 30.964 38.2598 30.9546 38.2598 30.9452C38.2598 30.9263 38.2598 30.9169 38.2692 30.8981C38.2692 30.8792 38.2787 30.8604 38.2787 30.8416C38.2787 30.8322 38.2787 30.8227 38.2787 30.8227C38.2787 30.7945 38.2787 30.7568 38.2787 30.7286C38.2787 30.7192 38.2787 30.7097 38.2787 30.7003C38.2787 30.6909 38.2787 30.6909 38.2787 30.6815L38.1751 29.8999C38.1751 29.9376 38.1751 29.947 38.1751 29.9658Z" fill="url(#paint16_linear)"/>
<path d="M35.0674 30.5024L35.1616 31.284L37.205 32.1221L37.1014 31.3405L35.0674 30.5024Z" fill="url(#paint17_linear)"/>
<path d="M32.4399 32.2069L32.5435 32.9885C32.5247 32.866 32.4776 32.7248 32.3834 32.5741C32.0915 32.0656 31.9126 31.6984 31.8467 31.4818C31.8373 31.4347 31.8278 31.397 31.8184 31.3499L31.7148 30.5684C31.7243 30.6154 31.7337 30.6625 31.7431 30.7002C31.809 30.9168 31.9879 31.2746 32.2798 31.7925C32.374 31.9432 32.4305 32.0845 32.4399 32.2069Z" fill="url(#paint18_linear)"/>
<path d="M31.451 32.4048C31.3945 32.4519 31.338 32.4895 31.2909 32.5272C31.2721 32.5366 31.2627 32.5554 31.2439 32.5649C31.2156 32.5837 31.1874 32.6119 31.1591 32.6308C31.1591 32.6308 31.1591 32.6308 31.1497 32.6402C31.0932 32.6873 31.0461 32.725 30.9896 32.772C30.9802 32.7815 30.9708 32.7909 30.9519 32.8003C30.9143 32.8285 30.886 32.8568 30.8578 32.885C30.8484 32.8945 30.8389 32.9039 30.8201 32.9133C30.7918 32.9415 30.7636 32.9698 30.7353 32.9886L30.7259 32.998C30.6977 33.0263 30.6788 33.0451 30.66 33.064L30.6506 33.0734C30.6412 33.0828 30.6318 33.0922 30.6318 33.1016L30.6223 33.111C30.6129 33.1205 30.6129 33.1299 30.6035 33.1393V33.1487C30.6035 33.1487 30.6035 33.1487 30.6035 33.1581C30.6035 33.1581 30.6035 33.1581 30.6035 33.1675C30.6035 33.177 30.6035 33.177 30.6035 33.1864C30.6035 33.1958 30.6035 33.1958 30.6035 33.2052L30.7071 33.9868C30.7071 33.968 30.7071 33.9585 30.7071 33.9397C30.7071 33.9397 30.7071 33.9397 30.7071 33.9303C30.7165 33.9115 30.7165 33.8926 30.7353 33.8738C30.7448 33.8644 30.7542 33.855 30.7636 33.8361C30.7824 33.8173 30.8013 33.7985 30.8295 33.7702L30.8389 33.7608C30.8672 33.7325 30.8954 33.7137 30.9237 33.6855C30.9331 33.676 30.9425 33.6666 30.9614 33.6572C30.9896 33.629 31.0273 33.6007 31.0555 33.5725C31.0649 33.563 31.0744 33.5536 31.0932 33.5442C31.1403 33.5065 31.1874 33.4595 31.2533 33.4124C31.2815 33.3935 31.3098 33.3653 31.3474 33.337C31.3663 33.3276 31.3757 33.3088 31.3945 33.2994C31.4416 33.2617 31.4981 33.2146 31.5546 33.177L31.9784 32.8474L31.8748 32.0752L31.451 32.4048Z" fill="url(#paint19_linear)"/>
<path d="M28.485 33.0073C28.4756 32.9885 28.4756 32.9697 28.4756 32.9414L28.5792 33.723C28.5792 33.7418 28.5886 33.7607 28.5886 33.7889C28.6828 34.1938 28.9841 34.5328 29.4832 34.7871L29.3796 34.0055C28.8805 33.7512 28.5792 33.4217 28.485 33.0073Z" fill="url(#paint20_linear)"/>
<path d="M29.6436 34.9191L29.7471 35.7007L30.3969 35.1922L30.2933 34.4106L29.6436 34.9191Z" fill="url(#paint21_linear)"/>
<path d="M28.7021 34.5332L28.8057 35.3148L29.7474 35.7009L29.6438 34.9193L28.7021 34.5332Z" fill="url(#paint22_linear)"/>
<path d="M37.2984 28.9677L37.854 28.5345L36.9123 28.1484L36.3568 28.5816C35.6034 28.3462 34.8972 28.2803 34.2662 28.365C33.6259 28.4498 33.0515 28.6946 32.5336 29.0995C32.1757 29.3726 31.9403 29.6551 31.8179 29.947C31.6955 30.2295 31.6672 30.4838 31.7426 30.7004C31.8085 30.917 31.9874 31.2748 32.2793 31.7927C32.4582 32.0941 32.4959 32.3295 32.3923 32.4896C32.2887 32.6402 32.0439 32.8756 31.6578 33.177C31.5071 33.2994 31.3565 33.3747 31.2058 33.4124C31.0646 33.4501 30.9233 33.4312 30.7821 33.3747C30.622 33.3088 30.5749 33.2241 30.6502 33.1205C30.7161 33.0169 30.9892 32.7815 31.4601 32.4236L31.8744 32.0752L29.8404 31.2371L29.5014 31.5008C28.7292 32.1035 28.3902 32.6026 28.4938 33.0075C28.588 33.4124 28.8893 33.7514 29.3884 34.0056L28.7104 34.533L29.652 34.9191L30.3018 34.4106C31.0834 34.6366 31.8273 34.6837 32.5241 34.5518C33.2304 34.42 33.8802 34.1186 34.5017 33.6384C34.8877 33.3371 35.142 33.064 35.2738 32.8097C35.4057 32.5555 35.4433 32.3389 35.3963 32.1506C35.3492 31.9622 35.1985 31.6609 34.9442 31.2465C34.6429 30.7569 34.4922 30.4367 34.4828 30.3049C34.464 30.173 34.5864 29.9941 34.8595 29.7869C35.0196 29.6551 35.1797 29.5798 35.3209 29.5421C35.4622 29.5044 35.594 29.5139 35.7258 29.5609C35.8765 29.6269 35.933 29.7022 35.8859 29.7964C35.8388 29.8905 35.6599 30.0506 35.3586 30.2955L35.0667 30.5215L37.1007 31.3595C37.2608 31.256 37.3738 31.1712 37.4491 31.1147C37.9576 30.7192 38.2024 30.3425 38.1836 29.9847C38.1554 29.6174 37.8634 29.2784 37.2984 28.9677Z" fill="url(#paint23_linear)"/>
<path d="M35.407 32.3484C35.407 32.4049 35.3975 32.4519 35.3881 32.499C35.3787 32.5555 35.3599 32.612 35.3316 32.6685C35.3128 32.7156 35.294 32.7627 35.2657 32.8192C35.2563 32.8474 35.2375 32.8757 35.2186 32.9039C35.2092 32.9228 35.1904 32.951 35.1715 32.9699C35.1621 32.9793 35.1527 32.9981 35.1433 33.0075C35.1245 33.0358 35.0962 33.0734 35.068 33.1017C35.068 33.1111 35.0585 33.1111 35.0585 33.1205C35.0303 33.1582 34.9926 33.1959 34.9644 33.2335C34.955 33.2429 34.9455 33.2524 34.9361 33.2712C34.9079 33.2994 34.889 33.3277 34.8608 33.3465C34.842 33.3654 34.8325 33.3748 34.8137 33.3936C34.7854 33.4124 34.7666 33.4407 34.7384 33.4689C34.7195 33.4878 34.7007 33.4972 34.6819 33.516C34.6536 33.5349 34.6254 33.5631 34.5971 33.5819C34.5594 33.6102 34.5312 33.6384 34.4935 33.6667C34.4182 33.7232 34.3429 33.7797 34.2675 33.8362C34.2393 33.855 34.2204 33.8739 34.1922 33.8833C34.1451 33.9209 34.0886 33.9492 34.0415 33.9869C34.0133 34.0057 33.9756 34.0245 33.9474 34.0434C33.9003 34.0716 33.8532 34.0999 33.8061 34.1281C33.7684 34.147 33.7402 34.1658 33.7025 34.1846C33.6554 34.2035 33.6084 34.2317 33.5707 34.2505C33.5142 34.2788 33.4671 34.2976 33.4106 34.3165C33.3824 34.3259 33.3447 34.3447 33.3164 34.3541C33.2505 34.3824 33.194 34.4012 33.1281 34.42C33.0999 34.4295 33.081 34.4389 33.0528 34.4483C32.9586 34.4765 32.855 34.5048 32.7514 34.533C32.6761 34.5519 32.6008 34.5707 32.5254 34.5801C32.4689 34.5895 32.4124 34.599 32.3559 34.6084C32.3183 34.6178 32.2806 34.6178 32.2429 34.6272C32.1864 34.6366 32.1299 34.6366 32.0734 34.646C32.0452 34.646 32.0075 34.6555 31.9793 34.6555C31.9228 34.6555 31.8757 34.6555 31.8192 34.6555C31.7815 34.6555 31.7438 34.6555 31.7156 34.6555C31.6873 34.6555 31.6591 34.6555 31.6308 34.6555C31.5649 34.6555 31.499 34.6555 31.4331 34.646C31.4048 34.646 31.386 34.6366 31.3578 34.6366C31.273 34.6272 31.1883 34.6178 31.0941 34.6084C31.047 34.599 30.9999 34.599 30.9528 34.5895C30.9152 34.5801 30.8775 34.5801 30.8398 34.5707C30.7833 34.5613 30.7363 34.5519 30.6798 34.533C30.6421 34.5236 30.6044 34.5142 30.5668 34.5048C30.482 34.486 30.3973 34.4671 30.3125 34.4389L30.4161 35.2205C30.4914 35.2393 30.5668 35.2581 30.6327 35.277C30.6421 35.277 30.6609 35.2864 30.6703 35.2864C30.708 35.2958 30.7457 35.3052 30.7833 35.3146C30.8398 35.324 30.8963 35.3335 30.9434 35.3523C30.9811 35.3617 31.0188 35.3617 31.0564 35.3711C31.0847 35.3805 31.1223 35.3805 31.1506 35.39C31.1694 35.39 31.1788 35.39 31.1977 35.3994C31.2824 35.4088 31.3672 35.4182 31.4613 35.4276C31.4802 35.4276 31.499 35.437 31.5178 35.437C31.5273 35.437 31.5273 35.437 31.5367 35.437C31.6026 35.437 31.6685 35.4465 31.7344 35.4465C31.7627 35.4465 31.7909 35.4465 31.8098 35.4465H31.8192C31.8568 35.4465 31.8851 35.4465 31.9228 35.4465C31.9698 35.4465 32.0263 35.4465 32.0734 35.4465H32.0828C32.1111 35.4465 32.1488 35.437 32.177 35.437C32.2241 35.437 32.2712 35.4276 32.3183 35.4276C32.3277 35.4276 32.3277 35.4276 32.3371 35.4276C32.3748 35.4276 32.4124 35.4182 32.4501 35.4088C32.4878 35.3994 32.5348 35.3994 32.5725 35.39C32.5914 35.39 32.6102 35.3805 32.629 35.3805C32.6949 35.3711 32.7703 35.3523 32.8362 35.3335C32.8456 35.3335 32.855 35.3335 32.8644 35.324C32.968 35.2958 33.0622 35.277 33.1658 35.2393C33.1658 35.2393 33.1658 35.2393 33.1752 35.2393C33.2034 35.2299 33.2223 35.2205 33.2411 35.211C33.307 35.1922 33.3635 35.164 33.4294 35.1451C33.4671 35.1357 33.4954 35.1169 33.5236 35.1075C33.5801 35.0886 33.6272 35.0604 33.6837 35.0415C33.6931 35.0415 33.7025 35.0321 33.7119 35.0321C33.7496 35.0133 33.7873 34.9945 33.8249 34.9756C33.8626 34.9568 33.8909 34.938 33.9285 34.9191C33.9756 34.8909 34.0227 34.8626 34.0698 34.8344C34.098 34.8155 34.1357 34.7967 34.1639 34.7779C34.2204 34.7496 34.2675 34.712 34.3146 34.6743C34.3429 34.6555 34.3617 34.6366 34.3899 34.6272C34.4653 34.5707 34.5406 34.5142 34.6159 34.4577C34.6442 34.4389 34.6724 34.42 34.6913 34.3918C34.7007 34.3824 34.7101 34.373 34.7195 34.373C34.7478 34.3541 34.776 34.3259 34.8043 34.307C34.8231 34.2882 34.842 34.2788 34.8608 34.26C34.889 34.2317 34.9173 34.2129 34.9361 34.1846C34.955 34.1658 34.9644 34.1564 34.9832 34.1375C35.0115 34.1093 35.0397 34.081 35.0585 34.0622C35.068 34.0528 35.0774 34.0434 35.0868 34.0245C35.1245 33.9869 35.1527 33.9492 35.181 33.9115C35.181 33.9021 35.1904 33.9021 35.1904 33.8927C35.2186 33.8644 35.2375 33.8362 35.2563 33.7985C35.2657 33.7891 35.2751 33.7703 35.2845 33.7609C35.3034 33.742 35.3128 33.7138 35.3316 33.6949L35.341 33.6855C35.3505 33.6667 35.3693 33.6384 35.3787 33.6196C35.407 33.5725 35.4258 33.5254 35.4446 33.4784V33.4689C35.4635 33.4124 35.4823 33.3559 35.5011 33.2994C35.5105 33.2524 35.52 33.2053 35.52 33.1582C35.52 33.1582 35.52 33.1582 35.52 33.1488C35.52 33.1111 35.52 33.0734 35.52 33.0358C35.52 33.0264 35.52 33.0264 35.52 33.0169L35.4164 32.2354C35.407 32.2542 35.407 32.3013 35.407 32.3484Z" fill="url(#paint24_linear)"/>
<path opacity="0.39" d="M25.8389 38.5445C30.8298 40.7104 38.2784 39.7122 42.4877 36.3034C44.5782 34.6084 45.4728 32.6403 45.2279 30.8134L45.2185 30.7757C45.2091 30.7381 45.1997 30.691 45.1997 30.6533C45.1997 30.6722 45.1997 30.691 45.2091 30.7192C45.2185 30.7757 45.2185 30.8417 45.2185 30.8982C45.2185 30.9547 45.2185 31.0017 45.2185 31.0582C45.2185 31.1147 45.2185 31.1807 45.2185 31.2372C45.2185 31.2937 45.2091 31.3407 45.2091 31.3972C45.1997 31.4537 45.1997 31.5197 45.1903 31.5762C45.1809 31.6327 45.1714 31.6797 45.162 31.7362C45.1526 31.7927 45.1432 31.8587 45.1244 31.9152C45.1149 31.9717 45.0961 32.0187 45.0867 32.0752C45.0679 32.1412 45.0584 32.1977 45.0396 32.2636C45.0208 32.3201 45.0114 32.3672 44.9925 32.4237C44.9737 32.4896 44.9454 32.5461 44.9266 32.612C44.9078 32.6591 44.8889 32.7156 44.8701 32.7627C44.8419 32.838 44.8042 32.9133 44.7665 32.9887C44.7477 33.0358 44.7289 33.0828 44.7006 33.1299C44.6629 33.2147 44.6159 33.2994 44.5688 33.3842C44.5499 33.4218 44.5311 33.4595 44.5029 33.4972C44.4934 33.516 44.484 33.5348 44.4652 33.5537C44.4181 33.6384 44.3616 33.7232 44.3051 33.8079C44.2863 33.8268 44.2769 33.855 44.258 33.8738C44.1921 33.968 44.1168 34.0622 44.0509 34.1658C44.0414 34.1846 44.0226 34.2034 44.0132 34.2223C43.9567 34.2976 43.9002 34.3635 43.8343 34.4388C43.7872 34.4953 43.7307 34.5518 43.6836 34.6083C43.6365 34.6648 43.5894 34.7119 43.5424 34.7684C43.4859 34.8249 43.4294 34.8814 43.3729 34.9379C43.3258 34.985 43.2693 35.0415 43.2128 35.0886C43.1563 35.1451 43.0903 35.2016 43.0338 35.2581C42.9773 35.3052 42.9208 35.3617 42.8643 35.4088C42.7984 35.4653 42.7325 35.5218 42.6666 35.5689C42.5818 35.6348 42.5065 35.7007 42.4123 35.776C42.2523 35.8984 42.0828 36.0209 41.9133 36.1433C41.8662 36.1809 41.8097 36.2092 41.7626 36.2469C41.6308 36.341 41.4895 36.4258 41.3577 36.5105C41.3106 36.5388 41.2635 36.567 41.2164 36.5953C41.0375 36.7083 40.8492 36.8119 40.6608 36.9155C40.6232 36.9343 40.5949 36.9531 40.5572 36.972C40.3972 37.0567 40.2371 37.1415 40.0676 37.2168C40.0017 37.2545 39.9357 37.2827 39.8604 37.311C39.7662 37.358 39.6815 37.3957 39.5873 37.4334C39.512 37.471 39.4272 37.4993 39.3519 37.537C39.2577 37.5746 39.1636 37.6123 39.0694 37.65C38.9941 37.6782 38.9093 37.7159 38.834 37.7441C38.7398 37.7818 38.6362 37.8195 38.5421 37.8571C38.4573 37.8854 38.382 37.9136 38.2972 37.9419C38.2031 37.9795 38.0995 38.0078 37.9959 38.0455C37.9206 38.0737 37.8452 38.0925 37.7605 38.1208C37.5439 38.1867 37.3273 38.2526 37.1107 38.3185C37.0825 38.328 37.0448 38.3374 37.0166 38.3468C36.8282 38.4033 36.6305 38.4504 36.4421 38.4975C36.3668 38.5163 36.2915 38.5351 36.2161 38.554C36.0937 38.5822 35.9619 38.6105 35.8395 38.6387C35.7641 38.6575 35.6794 38.6764 35.604 38.6858C35.4722 38.714 35.3404 38.7329 35.2085 38.7611C35.1332 38.7705 35.0579 38.7894 34.9825 38.7988C34.8695 38.8176 34.7565 38.8365 34.6435 38.8553C34.5588 38.8647 34.4835 38.8836 34.3987 38.893C34.2763 38.9118 34.1539 38.9212 34.0314 38.94C33.9561 38.9495 33.8902 38.9589 33.8149 38.9683C33.7019 38.9777 33.5889 38.9871 33.4759 38.9965C33.4005 39.006 33.3158 39.0154 33.2404 39.0154C33.118 39.0248 32.9956 39.0342 32.8732 39.0436C32.8073 39.0436 32.7319 39.053 32.666 39.053C32.5154 39.0625 32.3741 39.0625 32.2234 39.0719C32.1763 39.0719 32.1387 39.0719 32.0916 39.0719C31.9033 39.0719 31.7055 39.0813 31.5172 39.0719C31.4889 39.0719 31.4513 39.0719 31.423 39.0719C31.2629 39.0719 31.1028 39.0625 30.9333 39.0625C30.8674 39.0625 30.8015 39.053 30.7262 39.053C30.6038 39.0436 30.4813 39.0436 30.3495 39.0342C30.2836 39.0342 30.2177 39.0248 30.1518 39.0154C30.0105 39.006 29.8787 38.9966 29.7468 38.9777C29.6715 38.9683 29.5962 38.9589 29.5208 38.9495C29.3984 38.9306 29.276 38.9212 29.1536 38.9024C29.0877 38.893 29.0123 38.8835 28.9464 38.8741C28.7487 38.8459 28.5603 38.8082 28.3626 38.78C28.3249 38.7705 28.2967 38.7705 28.259 38.7611C28.0424 38.714 27.8258 38.667 27.6092 38.6199C27.5245 38.601 27.4303 38.5728 27.3456 38.554C27.2796 38.5351 27.2043 38.5163 27.1384 38.4975C27.0442 38.4692 26.9406 38.441 26.8465 38.4127C26.7806 38.3939 26.7241 38.375 26.6581 38.3562C26.5546 38.3185 26.451 38.2903 26.3474 38.2526C26.3003 38.2338 26.2438 38.215 26.1967 38.1961C26.0461 38.1396 25.8954 38.0831 25.7447 38.0172C23.3246 37.019 21.9404 35.4841 21.6484 33.7985C21.8462 35.6724 23.2587 37.424 25.8389 38.5445Z" fill="url(#paint25_linear)"/>
<path d="M44.2857 33.8081L44.7283 37.0851C44.7095 37.1134 44.7 37.1322 44.6812 37.151C44.6153 37.2452 44.54 37.3488 44.4646 37.443C44.4552 37.4618 44.4364 37.4806 44.427 37.49C44.427 37.49 44.427 37.49 44.427 37.4995L43.9844 34.213C43.9844 34.2036 43.9938 34.2036 44.0032 34.1942C44.0126 34.1754 44.0315 34.1565 44.0409 34.1471C44.1162 34.0529 44.1821 33.9494 44.2575 33.8552C44.2669 33.8364 44.2763 33.8269 44.2857 33.8081Z" fill="url(#paint26_linear)"/>
<path d="M41.9033 36.1246L42.3459 39.411C42.4589 39.3357 42.5625 39.2604 42.6755 39.1756L42.2329 35.8892L41.9033 36.1246Z" fill="url(#paint27_linear)"/>
<defs>
<linearGradient id="paint0_linear" x1="37.5" y1="56.0004" x2="58.3643" y2="33.3505" gradientUnits="userSpaceOnUse">
<stop stop-color="#3922AA"/>
<stop offset="1" stop-color="#7F8DFF"/>
</linearGradient>
<linearGradient id="paint1_linear" x1="29.8836" y1="60.29" x2="33.5526" y2="61.2056" gradientUnits="userSpaceOnUse">
<stop stop-color="white"/>
<stop offset="1" stop-color="#7A88FF"/>
</linearGradient>
<linearGradient id="paint2_linear" x1="37.0996" y1="12.6318" x2="45.1164" y2="17.1763" gradientUnits="userSpaceOnUse">
<stop stop-color="#7583FF"/>
<stop offset="1" stop-color="#DBDFFF"/>
</linearGradient>
<linearGradient id="paint3_linear" x1="42.69" y1="12.3753" x2="42.69" y2="65.5814" gradientUnits="userSpaceOnUse">
<stop stop-color="#7583FF"/>
<stop offset="1" stop-color="#DBDFFF"/>
</linearGradient>
<linearGradient id="paint4_linear" x1="46.3954" y1="15.2184" x2="44.5571" y2="12.193" gradientUnits="userSpaceOnUse">
<stop stop-color="#A9B1FF" stop-opacity="0"/>
<stop offset="0.1842" stop-color="#B1B8FF" stop-opacity="0.1842"/>
<stop offset="0.4649" stop-color="#C6CBFF" stop-opacity="0.4649"/>
<stop offset="0.8054" stop-color="#E8EAFF" stop-opacity="0.8054"/>
<stop offset="1" stop-color="white"/>
</linearGradient>
<linearGradient id="paint5_linear" x1="20.2114" y1="53.7165" x2="20.2114" y2="53.9959" gradientUnits="userSpaceOnUse">
<stop stop-color="#7583FF"/>
<stop offset="1" stop-color="#DBDFFF"/>
</linearGradient>
<linearGradient id="paint6_linear" x1="26.9998" y1="-1.21668" x2="13.213" y2="54.0326" gradientUnits="userSpaceOnUse">
<stop stop-color="white"/>
<stop offset="1" stop-color="#7A88FF"/>
</linearGradient>
<linearGradient id="paint7_linear" x1="26.0816" y1="1.01001" x2="26.0816" y2="53.92" gradientUnits="userSpaceOnUse">
<stop stop-color="#7583FF"/>
<stop offset="1" stop-color="#DBDFFF"/>
</linearGradient>
<linearGradient id="paint8_linear" x1="30.0653" y1="7.81111" x2="40.0224" y2="-6.89482" gradientUnits="userSpaceOnUse">
<stop stop-color="#A9B1FF" stop-opacity="0"/>
<stop offset="0.1842" stop-color="#B1B8FF" stop-opacity="0.1842"/>
<stop offset="0.4649" stop-color="#C6CBFF" stop-opacity="0.4649"/>
<stop offset="0.8054" stop-color="#E8EAFF" stop-opacity="0.8054"/>
<stop offset="1" stop-color="white"/>
</linearGradient>
<linearGradient id="paint9_linear" x1="42.5726" y1="46.1876" x2="44.2508" y2="33.0415" gradientUnits="userSpaceOnUse">
<stop stop-color="#803EFF" stop-opacity="0"/>
<stop offset="1" stop-opacity="0.4"/>
</linearGradient>
<linearGradient id="paint10_linear" x1="22.4781" y1="38.8241" x2="46.0351" y2="35.6534" gradientUnits="userSpaceOnUse">
<stop stop-color="#3922AA"/>
<stop offset="1" stop-color="#7F3DFF"/>
</linearGradient>
<linearGradient id="paint11_linear" x1="34.5133" y1="39.1059" x2="32.6516" y2="25.2743" gradientUnits="userSpaceOnUse">
<stop stop-color="#DBDFFF"/>
<stop offset="0.7834" stop-color="#8B97FF"/>
<stop offset="1" stop-color="#B2BAFF"/>
</linearGradient>
<linearGradient id="paint12_linear" x1="32.804" y1="26.406" x2="34.3644" y2="37.9991" gradientUnits="userSpaceOnUse">
<stop stop-color="#8E52FF"/>
<stop offset="1" stop-color="#D6BFFF"/>
</linearGradient>
<linearGradient id="paint13_linear" x1="23.1892" y1="30.7981" x2="43.2386" y2="28.0994" gradientUnits="userSpaceOnUse">
<stop stop-color="#2E007F"/>
<stop offset="1" stop-color="#7052C8"/>
</linearGradient>
<linearGradient id="paint14_linear" x1="37.5021" y1="29.3252" x2="38.1054" y2="29.244" gradientUnits="userSpaceOnUse">
<stop stop-color="#4A3FFF"/>
<stop offset="1" stop-color="#853FFF"/>
</linearGradient>
<linearGradient id="paint15_linear" x1="34.6555" y1="30.5015" x2="36.127" y2="30.3034" gradientUnits="userSpaceOnUse">
<stop stop-color="#4A3FFF"/>
<stop offset="1" stop-color="#853FFF"/>
</linearGradient>
<linearGradient id="paint16_linear" x1="37.2383" y1="31.2431" x2="38.4824" y2="31.0756" gradientUnits="userSpaceOnUse">
<stop stop-color="#7583FF"/>
<stop offset="1" stop-color="#DBDFFF"/>
</linearGradient>
<linearGradient id="paint17_linear" x1="35.3585" y1="31.5769" x2="37.2511" y2="31.3222" gradientUnits="userSpaceOnUse">
<stop offset="0.6337" stop-color="#7986FF"/>
<stop offset="0.7834" stop-color="#8B97FF"/>
<stop offset="1" stop-color="#B2BAFF"/>
</linearGradient>
<linearGradient id="paint18_linear" x1="32.0502" y1="31.9484" x2="32.5524" y2="31.8808" gradientUnits="userSpaceOnUse">
<stop stop-color="#4A3FFF"/>
<stop offset="1" stop-color="#853FFF"/>
</linearGradient>
<linearGradient id="paint19_linear" x1="30.7676" y1="33.2653" x2="32.1594" y2="33.078" gradientUnits="userSpaceOnUse">
<stop stop-color="#4A3FFF"/>
<stop offset="1" stop-color="#853FFF"/>
</linearGradient>
<linearGradient id="paint20_linear" x1="28.7727" y1="34.0604" x2="29.5237" y2="33.9593" gradientUnits="userSpaceOnUse">
<stop stop-color="#7583FF"/>
<stop offset="1" stop-color="#DBDFFF"/>
</linearGradient>
<linearGradient id="paint21_linear" x1="29.8361" y1="35.2442" x2="30.5448" y2="35.1488" gradientUnits="userSpaceOnUse">
<stop stop-color="#DBDFFF"/>
<stop offset="1" stop-color="#7583FF"/>
</linearGradient>
<linearGradient id="paint22_linear" x1="28.9603" y1="35.3156" x2="29.8325" y2="35.1982" gradientUnits="userSpaceOnUse">
<stop stop-color="#DBDFFF"/>
<stop offset="1" stop-color="#7583FF"/>
</linearGradient>
<linearGradient id="paint23_linear" x1="29.8028" y1="34.4829" x2="36.8215" y2="29.1148" gradientUnits="userSpaceOnUse">
<stop stop-color="white"/>
<stop offset="1" stop-color="#DBDFFF"/>
</linearGradient>
<linearGradient id="paint24_linear" x1="30.4449" y1="34.4216" x2="35.7585" y2="33.7064" gradientUnits="userSpaceOnUse">
<stop stop-color="#7583FF"/>
<stop offset="1" stop-color="#DBDFFF"/>
</linearGradient>
<linearGradient id="paint25_linear" x1="34.7789" y1="41.0668" x2="33.8603" y2="34.242" gradientUnits="userSpaceOnUse">
<stop stop-color="white"/>
<stop offset="1" stop-color="white" stop-opacity="0"/>
</linearGradient>
<linearGradient id="paint26_linear" x1="44.2741" y1="34.1363" x2="44.7765" y2="37.3864" gradientUnits="userSpaceOnUse">
<stop stop-color="#722AFF" stop-opacity="0"/>
<stop offset="1" stop-color="#A06AFF"/>
</linearGradient>
<linearGradient id="paint27_linear" x1="42.214" y1="36.2137" x2="42.6923" y2="39.3084" gradientUnits="userSpaceOnUse">
<stop stop-color="#722AFF" stop-opacity="0"/>
<stop offset="1" stop-color="#A06AFF"/>
</linearGradient>
</defs>
</svg>
