<svg width="65" height="65" viewBox="0 0 65 65" fill="none" xmlns="http://www.w3.org/2000/svg">
<path d="M30.9328 58.8858C30.2539 59.2253 29.4901 59.2253 28.8113 58.8858L17.2704 52.3517C16.6764 52.0122 16.3369 51.4182 16.3369 50.7393V43.4414" stroke="#532CC9" stroke-miterlimit="10"/>
<path d="M13.7062 27.997C14.1305 27.4878 14.6397 27.0635 15.2337 26.6392C17.1006 25.3663 22.6165 25.6209 24.1439 26.1301C24.9077 26.3846 25.5866 26.8089 26.1806 27.4878V27.5727C26.3503 27.8272 26.52 27.997 26.6897 28.3364L28.2172 30.5427L27.6232 31.6459C27.7929 34.022 27.114 36.7375 25.926 39.0287C24.9077 40.8956 23.5499 42.5928 21.9376 43.696C21.5982 43.9506 21.2587 44.1203 21.0041 44.29L19.0524 43.102L17.8643 44.9689C17.0157 44.884 16.252 44.6294 15.658 44.2051C14.8942 43.696 13.1122 42.7625 12.009 41.5745C11.1604 40.8956 10.4816 39.7924 10.227 38.265C9.37838 34.8706 10.9907 30.5427 13.7062 27.997Z" fill="url(#paint0_linear)"/>
<path d="M42.2189 40.726C44.0858 39.4532 45.9527 39.1137 47.4802 39.6229C49.1774 40.132 50.4503 41.6595 50.8746 44.0356C51.3838 46.6662 50.7049 49.806 49.2623 52.4367C48.244 54.3036 46.8862 56.0008 45.2739 57.1039C41.2855 59.8195 37.4668 58.292 36.7031 53.7944C35.7696 49.2969 38.3154 43.4416 42.2189 40.726Z" fill="url(#paint1_linear)"/>
<path d="M43.8312 41.5747C45.6981 40.3018 47.5651 39.9624 49.0925 40.4715C50.7897 40.9807 52.0626 42.5081 52.4869 44.8842C52.9961 47.5149 52.3172 50.6547 50.8746 53.2853C49.8563 55.1522 48.4985 56.8494 46.8862 57.9526C42.8978 60.6681 39.0791 59.1406 38.3154 54.6431C37.3819 50.1455 39.9277 44.2902 43.8312 41.5747Z" fill="url(#paint2_linear)"/>
<path d="M44.6799 42.084C46.5468 40.8111 48.4137 40.4716 49.9412 40.9808C50.7049 41.2354 51.3838 41.6597 51.9778 42.3385V42.4234C52.1475 42.678 52.3172 42.8477 52.4869 43.1871L54.0144 45.3935L53.4204 46.4967C53.5901 48.8727 52.9112 51.5882 51.7232 53.8794C50.7049 55.7463 49.3471 57.4435 47.7348 58.5467C47.3954 58.8013 47.0559 58.971 46.8014 59.1407L46.2922 60.159L43.6616 59.9045C41.4552 59.7347 39.758 58.1224 39.164 55.2372C38.2305 50.6548 40.7763 44.7995 44.6799 42.084Z" fill="url(#paint3_linear)"/>
<path d="M47.4801 44.7144C49.0925 43.6112 50.7048 43.3566 51.9777 43.7809C53.4203 44.2052 54.5235 45.563 54.8629 47.5996C55.2872 49.8908 54.6932 52.5214 53.5051 54.8126C52.6566 56.425 51.4685 57.8676 50.0259 58.8859C46.6315 61.1771 43.322 59.9042 42.5583 56.0007C41.8794 52.182 44.0857 47.0904 47.4801 44.7144Z" fill="#532CC9"/>
<path d="M47.9048 45.9873C49.3474 45.0538 50.7052 44.7992 51.8083 45.1387C53.0812 45.563 54.0147 46.6661 54.3541 48.4482C54.6936 50.4848 54.1844 52.776 53.1661 54.7278C52.4023 56.1704 51.384 57.4433 50.1111 58.2919C47.1411 60.3285 44.2558 59.2254 43.6618 55.7461C43.0678 52.4366 44.9347 48.0239 47.9048 45.9873Z" fill="#783AF6"/>
<path d="M49.8557 49.9759C50.3648 49.6364 52.062 49.3819 52.4863 49.5516C52.9955 49.7213 53.3349 50.1456 53.4198 50.8245C53.5895 51.5882 53.3349 52.4368 52.9955 53.2005C52.7409 53.7097 52.3166 54.2189 51.8923 54.5583C50.7891 55.322 49.686 54.8977 49.5163 53.6248C49.1768 52.1822 48.7525 50.7396 49.8557 49.9759Z" fill="#532CC9"/>
<path d="M49.6875 50.0605C50.2815 49.6363 50.8755 49.5514 51.3847 49.7211C51.6392 49.806 51.8938 49.9757 52.0635 50.1454C52.1484 50.2303 52.1484 50.3151 52.2333 50.4L52.7424 51.0789L52.5727 51.4183C52.6575 52.182 52.403 53.0306 51.9787 53.7944C51.6392 54.3884 51.2149 54.9824 50.7058 55.3218C50.6209 55.4067 50.5361 55.4916 50.3663 55.4916L50.1118 55.9159L49.2632 55.831C48.5843 55.7461 47.9903 55.237 47.8206 54.3035C47.566 52.8609 48.4146 50.994 49.6875 50.0605Z" fill="#D6DAFF"/>
<path d="M50.535 50.9091C51.0442 50.5697 51.5533 50.4848 51.9776 50.5697C52.4868 50.7394 52.8262 51.1637 52.9111 51.8426C53.0808 52.6063 52.8262 53.4549 52.4868 54.2186C52.2322 54.7278 51.8079 55.2369 51.3836 55.5764C50.2804 56.3401 49.1773 55.9158 49.0075 54.6429C48.753 53.37 49.4318 51.6728 50.535 50.9091Z" fill="#819591"/>
<path d="M18.3725 26.9787C20.2395 25.7058 22.1912 25.1967 23.7187 25.5361C25.6705 25.8756 27.4525 27.0636 27.8768 29.4397C28.386 32.0703 26.7736 36.0587 25.331 38.6893C24.3127 40.5563 23.0398 43.6112 21.4275 44.7144C17.5239 47.4299 13.4507 45.1387 12.6021 40.6411C11.7535 36.0587 14.469 29.6942 18.3725 26.9787Z" fill="url(#paint4_linear)"/>
<path d="M19.9865 27.8276C21.8534 26.5547 23.7203 26.2153 25.2478 26.7244C26.945 27.2336 28.2179 28.7611 28.6422 31.1371C29.1513 33.7678 28.4725 36.9076 27.0299 39.5382C26.0115 41.4051 24.6538 43.1023 23.0415 44.2055C19.0531 46.921 15.2344 45.3935 14.4706 40.896C13.5372 36.3984 16.083 30.5431 19.9865 27.8276Z" fill="#271893"/>
<path d="M20.3257 29.6094C21.7683 28.5911 23.2109 28.3365 24.4838 28.7608C25.8416 29.1851 26.775 30.3732 27.1145 32.2401C27.5387 34.3616 26.9447 36.7376 25.8416 38.8591C25.0778 40.3866 23.9746 41.6595 22.7018 42.5929C19.562 44.7144 16.5919 43.5264 15.913 39.9623C15.2341 36.3133 17.1859 31.7309 20.3257 29.6094Z" fill="url(#paint5_linear)"/>
<path d="M19.5611 30.7129C20.7492 29.8643 21.9372 29.6946 22.9555 30.034C24.0587 30.3735 24.9073 31.3918 25.1619 32.9192C25.5013 34.6164 25.077 36.6531 24.1435 38.3503C23.4647 39.6232 22.6161 40.6415 21.5129 41.4052C18.9671 43.1873 16.4213 42.1689 15.9122 39.1989C15.403 36.3136 17.0153 32.4949 19.5611 30.7129Z" fill="#140C77"/>
<path d="M14.5566 17.814C16.4236 12.8073 21.4303 9.92209 26.0975 9.92209C28.219 9.92209 30.3405 10.5161 32.2923 11.6193L34.7532 13.0619C42.9846 17.814 48.0762 26.6394 48.0762 36.1437L50.3674 51.3336L52.4889 50.9093L53.1677 34.6162C53.1677 24.2634 47.6519 14.7591 38.7416 9.58265L36.2807 8.14004C31.5286 5.33967 26.0975 5.67911 21.8546 8.05518C21.3454 8.39462 18.3753 10.0069 17.8662 10.4312C14.8961 12.2982 15.2355 14.0802 14.5566 17.814Z" fill="url(#paint6_linear)"/>
<path d="M11.501 22.2265L11.7556 30.5428C11.7556 30.5428 12.6042 28.7607 13.7073 28.6758V22.2265C13.7073 20.6142 13.9619 19.0867 14.4711 17.8138C16.338 12.8071 21.3447 9.92189 26.012 9.92189C28.1334 9.92189 30.2549 10.5159 32.2067 11.6191L34.6676 13.0617C42.899 17.8138 47.9906 26.6392 47.9906 36.1435V42.5928L48.6695 44.1203L48.7543 45.5629V51.0788L50.2818 51.2485V36.0586C50.2818 25.7058 44.7659 16.2015 35.8557 11.0251L33.3947 9.58245C29.0669 7.03666 24.2299 7.03666 20.2415 8.81871C15.2348 11.1099 11.501 16.0318 11.501 22.2265Z" fill="#D6DAFF"/>
<path d="M14.5551 17.814C15.9977 14.1651 19.0526 11.6193 22.447 10.5161C20.2406 11.8739 18.3737 13.9105 17.3554 16.5411C16.8463 17.8989 16.5917 19.3415 16.5917 20.9538L16.3371 27.1486C15.9128 28.3366 13.7913 28.6761 13.7913 28.6761V22.2267C13.7065 20.6144 14.0459 19.0869 14.5551 17.814Z" fill="#8B97FF"/>
<path d="M50.535 50.9091C51.0442 50.5697 51.5533 50.4848 51.9776 50.5697C52.4868 50.7394 52.8262 51.1637 52.9111 51.8426C53.0808 52.6063 52.8262 53.4549 52.4868 54.2186C52.2322 54.7278 51.8079 55.2369 51.3836 55.5764C50.2804 56.3401 49.1773 55.9158 49.0075 54.6429C48.753 53.37 49.4318 51.6728 50.535 50.9091Z" fill="url(#paint7_linear)"/>
<path d="M50.7891 51.4182C51.2133 51.1637 51.6376 51.0788 51.9771 51.1637C52.4014 51.2485 52.656 51.6728 52.7408 52.182C52.8257 52.776 52.7408 53.5397 52.4014 54.1337C52.1468 54.558 51.8922 54.9823 51.4679 55.2369C50.5345 55.8309 49.6859 55.4915 49.5162 54.4732C49.2616 53.37 49.8556 52.0123 50.7891 51.4182Z" fill="url(#paint8_linear)"/>
<path d="M51.3828 52.5214C51.6374 52.3517 51.8919 52.2668 52.0617 52.3517C52.3162 52.4365 52.4859 52.6062 52.4859 52.9457C52.5708 53.2851 52.4859 53.7094 52.2314 54.0488C52.0617 54.3034 51.8919 54.558 51.7222 54.6429C51.2131 54.9823 50.7039 54.8126 50.5342 54.2186C50.5342 53.7094 50.8736 52.9457 51.3828 52.5214Z" fill="#D6DAFF"/>
<path d="M35.2604 15.3527L32.7994 13.9101C31.0174 12.8917 28.811 12.2977 26.7744 12.0432C24.6529 11.7886 23.38 11.2794 17.7793 12.9766V9.8368L21.0888 8.81849C23.38 7.37588 27.8776 7.37588 27.8776 7.37588C28.4716 7.29102 29.1505 7.29102 29.7445 7.29102C32.3751 7.29102 35.0058 7.96989 37.3819 9.32764L39.8428 10.7703C42.8977 12.5523 47.1407 14.0798 49.4319 16.7104C49.7713 17.1347 48.753 18.6622 48.753 18.6622L42.8977 22.0566C40.8611 19.3411 38.3153 17.0499 35.2604 15.3527Z" fill="url(#paint9_linear)"/>
<path d="M35.6847 12.3828L33.2237 10.9402C31.4417 9.92185 29.0656 9.07326 27.029 8.90354C24.9075 8.64896 23.1254 8.22466 17.7793 9.75213L21.5131 7.54579C23.8043 6.10317 27.9624 5.08486 27.9624 5.08486C28.5565 5 29.2353 5 29.8294 5C32.46 5 35.0906 5.67888 37.4667 7.03663L39.9276 8.47924C43.4917 10.5159 47.1407 13.4011 49.5168 16.6258L43.6615 20.0201C41.4551 17.3895 38.7396 14.1648 35.6847 12.3828Z" fill="url(#paint10_linear)"/>
<path d="M20.5801 31.8154C20.6649 31.6457 20.7498 31.6457 20.8347 31.7305L23.1259 34.7855C23.2107 34.8703 23.2107 35.0401 23.2107 35.1249C23.2107 35.2098 23.041 35.2098 22.9561 35.1249C22.8713 35.0401 20.6649 32.07 20.6649 32.07C20.5801 32.07 20.5801 31.9003 20.5801 31.8154Z" fill="#271893"/>
<path d="M19.6465 32.9184C19.7313 32.7487 19.901 32.7487 19.9859 32.8336L22.7863 36.5674C22.8711 36.6523 22.8711 36.822 22.8711 36.9917V37.0765C22.7863 37.1614 22.6165 37.2463 22.6165 37.0765C22.5317 36.9068 19.8162 33.3427 19.8162 33.3427C19.5616 33.2579 19.5616 33.0882 19.6465 32.9184Z" fill="#271893"/>
<path d="M18.9668 34.4463C19.0516 34.2765 19.2213 34.2765 19.3062 34.3614L22.1066 38.0952C22.1914 38.1801 22.1914 38.3498 22.1914 38.5195V38.6044C22.1066 38.6892 21.9369 38.7741 21.9369 38.6044C21.852 38.4347 19.1365 34.8706 19.1365 34.8706C18.8819 34.7857 18.8819 34.616 18.9668 34.4463Z" fill="#271893"/>
<path d="M18.7979 36.7372C18.8828 36.6523 18.9676 36.5675 19.0525 36.6523L21.0043 39.1981C21.0891 39.283 21.0891 39.3678 21.0043 39.4527C21.0043 39.5376 20.8346 39.5376 20.8346 39.4527C20.7497 39.3678 18.8828 36.9069 18.8828 36.9069C18.7131 36.9069 18.7131 36.8221 18.7979 36.7372Z" fill="#271893"/>
<path d="M23.1253 36.1431C23.2102 36.1431 23.295 36.2279 23.295 36.3128L22.107 39.198C22.107 39.2829 21.9373 39.3677 21.8524 39.3677C21.7676 39.3677 21.6827 39.2829 21.7676 39.198C21.8524 39.1131 22.9556 36.3128 22.9556 36.3128C22.8707 36.2279 22.9556 36.2279 23.1253 36.1431Z" fill="#271893"/>
<path d="M22.3618 34.1064C22.5315 34.1064 22.6164 34.1913 22.6164 34.361L20.8343 38.6889C20.7495 38.8586 20.6646 38.9434 20.4949 38.9434H20.41C20.2403 38.9434 20.1555 38.8586 20.2403 38.6889C20.3252 38.5191 22.0224 34.361 22.0224 34.361C22.1072 34.2762 22.1921 34.1064 22.3618 34.1064Z" fill="#271893"/>
<path d="M21.2583 32.8335C21.428 32.8335 21.5129 32.9184 21.5129 33.0881L19.7308 37.4159C19.646 37.5856 19.5611 37.6705 19.3914 37.6705H19.3065C19.1368 37.6705 19.0519 37.5856 19.1368 37.4159C19.2217 37.2462 20.9189 33.0881 20.9189 33.0881C21.0037 32.9184 21.0886 32.8335 21.2583 32.8335Z" fill="#271893"/>
<path d="M20.0703 31.9004C20.2401 31.9004 20.2401 31.9852 20.2401 32.0701L18.8823 35.2099C18.7974 35.2948 18.7126 35.3796 18.6277 35.3796C18.5429 35.3796 18.458 35.2948 18.458 35.2099C18.5429 35.0402 19.8158 32.0701 19.8158 32.0701C19.8158 32.0701 19.9006 31.9853 20.0703 31.9004Z" fill="#271893"/>
<path d="M33.4782 59.31L31.2718 59.8191C30.6778 59.9889 30.0838 59.5646 29.9989 59.0554C29.8292 58.4614 30.2535 57.8674 30.7627 57.7825L32.969 57.2734C33.563 57.1036 34.1571 57.5279 34.2419 58.0371C34.4116 58.5463 34.0722 59.1403 33.4782 59.31Z" fill="url(#paint11_linear)"/>
<defs>
<linearGradient id="paint0_linear" x1="19.9435" y1="25.4901" x2="17.7056" y2="45.1385" gradientUnits="userSpaceOnUse">
<stop stop-color="#DBDFFF"/>
<stop offset="0.7834" stop-color="#8B97FF"/>
<stop offset="1" stop-color="#B2BAFF"/>
</linearGradient>
<linearGradient id="paint1_linear" x1="48.748" y1="40.2446" x2="38.7016" y2="57.6452" gradientUnits="userSpaceOnUse">
<stop stop-color="#3922AA"/>
<stop offset="1" stop-color="#7F3DFF"/>
</linearGradient>
<linearGradient id="paint2_linear" x1="38.0425" y1="49.8067" x2="52.5912" y2="49.8067" gradientUnits="userSpaceOnUse">
<stop stop-color="#3922AA"/>
<stop offset="1" stop-color="#7F3DFF"/>
</linearGradient>
<linearGradient id="paint3_linear" x1="53.039" y1="43.5941" x2="38.6859" y2="57.6438" gradientUnits="userSpaceOnUse">
<stop stop-color="#DBDFFF"/>
<stop offset="0.7834" stop-color="#8B97FF"/>
<stop offset="1" stop-color="#B2BAFF"/>
</linearGradient>
<linearGradient id="paint4_linear" x1="25.3089" y1="25.995" x2="14.5477" y2="44.6338" gradientUnits="userSpaceOnUse">
<stop stop-color="#3922AA"/>
<stop offset="1" stop-color="#7F3DFF"/>
</linearGradient>
<linearGradient id="paint5_linear" x1="22.8871" y1="33.6046" x2="14.9676" y2="47.3221" gradientUnits="userSpaceOnUse">
<stop stop-color="#3922AA"/>
<stop offset="1" stop-color="#7F3DFF"/>
</linearGradient>
<linearGradient id="paint6_linear" x1="52.5275" y1="47.7592" x2="23.3063" y2="6.8052" gradientUnits="userSpaceOnUse">
<stop stop-color="#B2BAFF"/>
<stop offset="0.2166" stop-color="#8B97FF"/>
<stop offset="1" stop-color="#DBDFFF"/>
</linearGradient>
<linearGradient id="paint7_linear" x1="48.9442" y1="53.2471" x2="53.0267" y2="53.2471" gradientUnits="userSpaceOnUse">
<stop stop-color="#B2BAFF"/>
<stop offset="0.2166" stop-color="#8B97FF"/>
<stop offset="1" stop-color="#DBDFFF"/>
</linearGradient>
<linearGradient id="paint8_linear" x1="49.2327" y1="53.7369" x2="53.2174" y2="52.7823" gradientUnits="userSpaceOnUse">
<stop stop-color="#B2BAFF"/>
<stop offset="0.2166" stop-color="#8B97FF"/>
<stop offset="1" stop-color="#DBDFFF"/>
</linearGradient>
<linearGradient id="paint9_linear" x1="17.8664" y1="14.5873" x2="49.4657" y2="14.5873" gradientUnits="userSpaceOnUse">
<stop stop-color="#3922AA"/>
<stop offset="1" stop-color="#7F3DFF"/>
</linearGradient>
<linearGradient id="paint10_linear" x1="27.9006" y1="3.73262" x2="51.8904" y2="43.4428" gradientUnits="userSpaceOnUse">
<stop stop-color="#3922AA"/>
<stop offset="1" stop-color="#7F3DFF"/>
</linearGradient>
<linearGradient id="paint11_linear" x1="32.4157" y1="59.5462" x2="31.8623" y2="57.7475" gradientUnits="userSpaceOnUse">
<stop stop-color="#3922AA"/>
<stop offset="1" stop-color="#7F3DFF"/>
</linearGradient>
</defs>
</svg>
