<svg width="65" height="65" viewBox="0 0 65 65" fill="none" xmlns="http://www.w3.org/2000/svg">
<g clip-path="url(#clip0)">
<path d="M48.971 5L48.0106 5.10078L29.9972 6.93023L11 26.7674V38.0233C11 47.2403 14.3107 53.938 19.8779 56.938L23.4384 58.9767L22.8528 58.124C24.8204 58.6667 26.9833 58.8295 29.3257 58.5736C29.5678 58.5349 30.0675 58.3953 30.0675 58.3953C30.0675 58.3953 30.4579 58.0233 30.6531 57.814C41.725 46.3101 48.971 29.8837 48.971 16.2481L53 7.30233L48.971 5Z" fill="url(#paint0_linear)"/>
<path d="M52.0399 7.41083L34.0265 9.23254L15.0293 29.0698V40.3256C15.0293 53.9612 22.2518 62.093 33.3472 60.8837C33.5893 60.8449 34.089 60.7054 34.089 60.7054C34.089 60.7054 34.4794 60.3333 34.6746 60.124C45.7465 48.6201 52.9925 32.1938 52.9925 18.5581V7.31006L52.0399 7.41083Z" fill="url(#paint1_linear)"/>
<path d="M49.471 20.6044C49.471 32.2091 43.49 46.2943 34.0031 56.4959C24.7582 57.1626 18.5352 50.2401 18.5352 38.3408V29.7672L34.0031 13.5889L49.471 12.0308V20.6044V20.6044Z" fill="url(#paint2_linear)"/>
<path d="M47.6674 22.2869C47.6674 32.5272 42.3813 45.0001 34.0031 54.0156C25.8436 54.5815 20.3389 48.4652 20.3389 37.9536V30.3644L34.0031 16.0621L47.6674 14.6978V22.2869Z" fill="url(#paint3_linear)"/>
<path d="M42.1001 22.9768C41.4051 22.5814 40.2964 23.2171 39.6171 24.3954L32.0666 37.3256L28.389 35.2403C27.7175 34.8372 26.5853 35.5039 25.906 36.6589C25.2345 37.8372 25.2345 39.1008 25.906 39.4884L30.8251 42.2714C31.52 42.6667 32.6288 42.031 33.3081 40.8527L42.1001 25.7985C42.795 24.6124 42.795 23.3411 42.1001 22.9768Z" fill="url(#paint4_linear)"/>
<path d="M34.0261 9.23256L29.9971 6.93023L48.9709 5L52.9999 7.31008L34.0261 9.23256Z" fill="url(#paint5_linear)"/>
<path d="M15.029 29.0699L11 26.7676V38.5118L15.029 39.0001V29.0699Z" fill="url(#paint6_linear)"/>
</g>
<defs>
<linearGradient id="paint0_linear" x1="31.9993" y1="59.9712" x2="31.9993" y2="5.67403" gradientUnits="userSpaceOnUse">
<stop stop-color="#7583FF"/>
<stop offset="0.407" stop-color="#7583FF"/>
<stop offset="1" stop-color="#98A3FF"/>
</linearGradient>
<linearGradient id="paint1_linear" x1="34.013" y1="4.77814" x2="56.6347" y2="44.243" gradientUnits="userSpaceOnUse">
<stop stop-color="#DBDFFF"/>
<stop offset="1" stop-color="#7583FF"/>
</linearGradient>
<linearGradient id="paint2_linear" x1="32.684" y1="57.5088" x2="16.2687" y2="24.6258" gradientUnits="userSpaceOnUse">
<stop stop-color="#ECECFF"/>
<stop offset="0.9375" stop-color="white"/>
</linearGradient>
<linearGradient id="paint3_linear" x1="34.0021" y1="54.0163" x2="18.1192" y2="26.3076" gradientUnits="userSpaceOnUse">
<stop stop-color="#4502C6"/>
<stop offset="1" stop-color="#803EFF"/>
</linearGradient>
<linearGradient id="paint4_linear" x1="35.0116" y1="24.9089" x2="39.2213" y2="40.6331" gradientUnits="userSpaceOnUse">
<stop stop-color="#FDFDFF"/>
<stop offset="1" stop-color="#C6CCFF"/>
</linearGradient>
<linearGradient id="paint5_linear" x1="41.4972" y1="9.31155" x2="41.4972" y2="5.05287" gradientUnits="userSpaceOnUse">
<stop stop-color="#7583FF"/>
<stop offset="0.407" stop-color="#7583FF"/>
<stop offset="1" stop-color="#98A3FF"/>
</linearGradient>
<linearGradient id="paint6_linear" x1="13.014" y1="39.2222" x2="13.014" y2="26.9173" gradientUnits="userSpaceOnUse">
<stop stop-color="#7583FF"/>
<stop offset="0.407" stop-color="#7583FF"/>
<stop offset="1" stop-color="#98A3FF"/>
</linearGradient>
<clipPath id="clip0">
<rect width="42" height="56" fill="white" transform="translate(11 5)"/>
</clipPath>
</defs>
</svg>
