<svg width="65" height="65" viewBox="0 0 65 65" fill="none" xmlns="http://www.w3.org/2000/svg">
<path d="M22.3137 14.4726C20.5263 13.4299 17.3239 16.0366 18.8134 20.2072C20.3029 24.3778 23.4308 28.5484 20.3773 32.3467C17.9197 35.4747 15.3875 36.3684 15.3875 36.3684C15.3875 36.3684 32.5168 39.1984 31.0273 27.0589C29.9102 17.824 22.3137 14.4726 22.3137 14.4726Z" fill="url(#paint0_linear)"/>
<path d="M18.4408 37.1874C20.7495 35.251 25.2181 32.7189 30.3569 30.1867C34.3041 28.1759 38.6236 27.878 42.0495 30.1867C43.8369 31.3783 44.8796 33.6126 44.8796 35.8468C44.8796 37.3363 45.103 38.7514 46.0712 40.3154C47.0394 41.8793 47.7097 43.071 48.231 44.0391C49.7205 46.8692 48.9757 49.8482 46.0712 51.7101C43.539 53.3486 33.4848 58.6363 30.4313 59.4556C28.9418 59.8279 27.4523 59.9769 26.2607 59.9769C22.1646 60.2748 15.0149 58.4874 15.0149 56.0297C15.0149 54.2423 14.5681 40.3898 18.4408 37.1874Z" fill="url(#paint1_linear)"/>
<path d="M21.7925 37.8577C22.6117 41.3581 27.6016 43.1455 32.8893 41.8794C38.1771 40.6133 41.8264 36.7406 41.0071 33.2403C40.1879 29.7399 35.1981 27.9525 29.9103 29.2186C24.5481 30.4847 20.9733 34.3574 21.7925 37.8577Z" fill="url(#paint2_radial)"/>
<path d="M34.9005 55.955C35.6453 55.5082 36.39 55.0613 37.1348 54.689C36.3155 55.0613 35.5708 55.5082 34.9005 55.955Z" fill="#E6E7E8"/>
<path d="M34.9005 55.955C35.6453 55.5082 36.39 55.0613 37.1348 54.689C36.3155 55.0613 35.5708 55.5082 34.9005 55.955Z" fill="url(#paint3_radial)"/>
<path d="M35.9432 28.9208C37.3583 29.3677 38.5499 31.6764 38.3264 34.432C38.103 37.7834 37.0604 38.9005 37.0604 38.9005L34.0069 34.432L32.145 40.1666C32.145 40.1666 29.5383 39.1984 27.5275 37.6345C25.4422 35.9215 24.1016 34.1341 25.0698 32.6446C26.2614 30.8572 34.1558 28.325 35.9432 28.9208Z" fill="url(#paint4_linear)"/>
<path d="M19.2612 36.8153C21.4954 37.3366 24.1765 39.5709 24.6234 43.816C25.0703 47.6887 24.8468 57.0726 24.8468 57.0726C24.8468 57.0726 26.3363 44.7097 24.7724 40.9114C23.1339 36.7408 20.1549 36.2939 20.1549 36.2939L19.2612 36.8153Z" fill="url(#paint5_radial)"/>
<path d="M32.2193 40.2408L34.0812 34.5062L37.1347 38.9747L37.4326 38.2299L34.0812 34.1338L31.847 40.0173L32.2193 40.2408Z" fill="url(#paint6_radial)"/>
<path d="M41.8264 13.5041C42.5712 16.6321 42.4222 25.9415 40.039 27.9524C38.1771 29.5164 36.5387 28.4737 36.3897 30.7824C36.2408 33.0912 37.209 33.3146 35.8684 34.2828C34.5278 35.251 26.7824 34.5807 27.0058 32.123C27.1548 29.8143 27.6761 28.995 26.6334 26.8352C25.5908 24.6755 22.4628 21.2496 22.9097 18.1961C23.3565 15.1426 39.2943 2.48178 41.8264 13.5041Z" fill="url(#paint7_radial)"/>
<path opacity="0.6" d="M41.4547 13.7278C41.4547 13.7278 42.125 20.2072 41.1568 22.8138C40.1886 25.4205 34.6774 19.3879 34.0816 16.9303C33.4858 14.4726 35.7945 12.2383 41.4547 13.7278Z" fill="url(#paint8_linear)"/>
<path d="M41.9755 13.7277C41.9755 13.7277 44.7311 12.1637 39.2944 7.17385C34.528 2.7798 26.1867 2.63085 21.9416 8.73784C17.771 14.6959 20.1542 21.1008 23.1332 24.1543C25.2186 26.314 26.7825 27.5056 26.7825 27.5056C26.7825 27.5056 25.8144 24.5266 24.9207 23.484C23.6546 21.92 22.7609 19.8347 23.729 18.6431C24.2504 17.9728 25.0696 17.6004 26.2612 18.792C28.1976 20.7284 30.8042 13.5043 36.5388 14.1001C40.7839 14.4724 40.7094 14.249 41.9755 13.7277Z" fill="url(#paint9_linear)"/>
<path opacity="0.6" d="M35.1239 29.5912C35.7197 29.5912 36.2411 29.5912 37.1348 29.2933C36.7624 29.5167 36.539 29.8891 36.4645 30.7083C36.3155 33.017 37.2837 33.2405 35.9432 34.2087C35.4963 34.581 34.1557 34.73 32.6662 34.73C30.5065 32.5702 30.6554 28.9209 30.6554 28.9209C30.6554 28.9209 33.411 29.5912 35.1239 29.5912Z" fill="url(#paint10_linear)"/>
<path opacity="0.5" d="M25.4413 21.6966C25.4413 21.6966 23.8028 19.9836 24.3986 19.0899C24.9945 18.1962 26.0371 19.5368 26.0371 19.5368L25.4413 21.6966Z" fill="url(#paint11_linear)"/>
<path d="M25.8146 50.6673C25.8146 50.6673 28.8681 57.5935 39.3691 53.8697C45.923 51.561 47.9338 47.6138 48.5296 44.6348C49.6468 47.3159 48.7531 49.997 46.0719 51.7099C43.5398 53.3484 33.4856 58.6361 30.4321 59.4554C28.9426 59.8278 27.4531 59.9767 26.2615 59.9767C25.8146 59.9767 25.3678 60.0512 24.9209 59.9767C26.2615 56.104 25.8146 50.6673 25.8146 50.6673Z" fill="url(#paint12_radial)"/>
<path opacity="0.5" d="M23.9532 19.388C23.9532 19.388 23.7298 18.1964 23.7298 16.26C23.6553 12.6107 26.2619 7.02504 31.8476 6.50371C37.5077 5.98238 39.5186 7.62084 39.5186 7.62084C39.5186 7.62084 37.5822 4.12049 30.5815 5.0142C24.1766 5.83343 22.0913 12.7596 22.1658 15.7387C22.2403 18.3453 22.4637 19.7603 22.4637 19.7603L23.9532 19.388Z" fill="url(#paint13_linear)"/>
<path d="M28.4209 22.1435C28.4209 23.0372 28.123 23.7075 27.6017 24.0054L26.708 24.5267C26.1866 24.8246 26.4845 24.1543 25.7398 23.7075C24.1013 22.7393 22.7608 20.5051 22.7608 18.6432C22.7608 17.7495 21.9415 17.675 22.4629 17.3771C22.4629 17.3771 23.431 16.8558 23.431 16.7813C23.9524 16.4834 24.6971 16.5579 25.5164 17.0047C27.1548 17.9729 28.4209 20.2071 28.4209 22.1435Z" fill="url(#paint14_linear)"/>
<path d="M27.4531 22.6649C27.4531 24.5268 26.1126 25.2715 24.4741 24.3778C22.8356 23.4097 21.4951 21.1754 21.4951 19.3135C21.4951 17.4516 22.8356 16.7069 24.4741 17.6006C26.187 18.5688 27.4531 20.803 27.4531 22.6649Z" fill="url(#paint15_linear)"/>
<path d="M24.6977 17.5262C23.953 17.0793 23.2082 17.0049 22.6869 17.3028C23.2082 17.1538 23.804 17.3028 24.4743 17.6751C26.1128 18.6433 27.4533 20.8776 27.4533 22.7395C27.4533 23.7077 27.081 24.3779 26.4852 24.6758C27.2299 24.4524 27.6768 23.7821 27.6768 22.665C27.6023 20.7286 26.2617 18.4944 24.6977 17.5262Z" fill="url(#paint16_radial)"/>
<path d="M26.1875 22.1435C26.1875 22.6649 25.9641 23.1117 25.6662 23.2607L24.549 23.931C24.2511 24.0799 24.4001 23.7075 23.9532 23.4096C22.9851 22.8138 22.1658 21.4733 22.1658 20.3561C22.1658 19.8348 21.6445 19.7603 21.9424 19.6114C21.9424 19.6114 23.0595 18.9411 23.134 18.9411C23.4319 18.7921 23.8788 18.7922 24.4001 19.0901C25.3683 19.6114 26.1875 21.0264 26.1875 22.1435Z" fill="#8B97FF"/>
<path d="M25.0703 22.8137C25.0703 23.9308 24.2511 24.3777 23.2829 23.8564C22.3147 23.2605 21.4955 21.92 21.4955 20.8029C21.4955 19.6857 22.3147 19.2389 23.2829 19.7602C24.2511 20.2815 25.0703 21.6966 25.0703 22.8137Z" fill="#D6DAFF"/>
<path d="M23.3561 19.6858C22.9093 19.3879 22.4624 19.3879 22.1645 19.5368C22.4624 19.4623 22.8348 19.5368 23.2072 19.7602C24.1754 20.356 24.9946 21.6966 24.9946 22.8137C24.9946 23.4095 24.7712 23.7819 24.3988 24.0053C24.8457 23.8564 25.1436 23.484 25.1436 22.8137C25.1436 21.6221 24.3243 20.2816 23.3561 19.6858Z" fill="url(#paint17_radial)"/>
<path opacity="0.5" d="M36.6882 14.0255C31.4004 13.4297 28.7193 19.6111 26.8574 18.9408C27.9001 18.0471 29.1662 16.7811 30.1344 15.515C31.9962 12.9828 34.5284 12.9083 38.4011 12.9083C40.7843 12.9083 41.9759 12.6849 42.7207 12.1636C42.7207 13.3552 41.9759 13.7276 41.9759 13.7276C40.7099 14.2489 40.7843 14.4723 36.6882 14.0255Z" fill="url(#paint18_linear)"/>
<path opacity="0.5" d="M36.5386 28.6974C38.0281 28.6974 39.1453 28.474 39.2197 28.3995L39.0708 27.7293C39.0708 27.7293 35.8683 28.474 33.2617 27.3569C30.8785 26.3142 27.825 23.2607 27.7505 23.2607L27.3037 23.7076C27.4526 23.8565 30.4316 26.91 32.9638 27.9527C34.1554 28.5485 35.4215 28.6974 36.5386 28.6974Z" fill="url(#paint19_linear)"/>
<path d="M36.688 28.3993C38.1775 28.3993 39.2947 28.1759 39.3691 28.1014L39.2202 27.4312C39.2202 27.4312 36.0177 28.1759 33.4111 27.1333C31.0279 26.0906 27.9744 23.0371 27.8999 23.0371C27.6765 23.1116 27.602 23.335 27.602 23.6329C27.751 23.7819 30.581 26.6864 33.1132 27.8035C34.3048 28.2504 35.5709 28.3993 36.688 28.3993Z" fill="url(#paint20_linear)"/>
<path d="M38.625 28.5482C38.6995 28.5482 38.6995 28.5482 38.774 28.5482L40.189 28.2503C40.5614 28.1759 40.7848 27.8035 40.7103 27.4311C40.6359 27.0587 40.2635 26.8353 39.8911 26.9098L38.4761 27.2077C38.1037 27.2822 37.8803 27.6545 37.9547 28.0269C38.0292 28.3248 38.3271 28.5482 38.625 28.5482Z" fill="url(#paint21_linear)"/>
<path d="M23.6548 19.0157C23.6548 19.0157 23.4314 17.824 23.4314 15.8877C23.4314 12.1639 25.9636 6.57826 31.6237 6.05693C37.3583 5.5356 39.3691 7.17406 39.3691 7.17406C39.3691 7.17406 37.4328 3.67372 30.3576 4.56742C23.8782 5.38665 21.7929 12.3873 21.8674 15.3664C21.9419 17.973 22.1653 19.4625 22.1653 19.4625L23.6548 19.0157Z" fill="#D6DAFF"/>
<path d="M23.3569 19.09C23.2824 18.6431 22.9845 17.2281 22.9845 15.6641C22.9845 11.9403 25.7401 6.28021 31.4003 5.75888C35.7943 5.3865 38.1031 6.28021 38.9223 6.65258C39.2947 7.02496 39.3691 7.17391 39.3691 7.17391C39.3691 7.17391 37.3583 5.53545 31.6982 6.05678C26.038 6.57811 23.4314 12.1638 23.4314 15.8875C23.4314 17.8239 23.6548 19.0155 23.6548 19.0155L23.3569 19.09Z" fill="#8B97FF"/>
<defs>
<linearGradient id="paint0_linear" x1="15.9929" y1="34.1194" x2="40.6212" y2="5.66609" gradientUnits="userSpaceOnUse">
<stop stop-color="#0B054D"/>
<stop offset="0.3318" stop-color="#1A065C"/>
<stop offset="0.3788" stop-color="#1C065F"/>
<stop offset="0.5419" stop-color="#280A6E"/>
<stop offset="0.8566" stop-color="#461497"/>
<stop offset="1" stop-color="#5619AB"/>
</linearGradient>
<linearGradient id="paint1_linear" x1="48.9757" y1="44.2653" x2="15.0131" y2="44.2653" gradientUnits="userSpaceOnUse">
<stop stop-color="#B2BAFF"/>
<stop offset="0.2166" stop-color="#8B97FF"/>
<stop offset="1" stop-color="#DBDFFF"/>
</linearGradient>
<radialGradient id="paint2_radial" cx="0" cy="0" r="1" gradientUnits="userSpaceOnUse" gradientTransform="translate(32.1298 34.1398) rotate(166.465) scale(7.55995 4.98355)">
<stop offset="0.1919" stop-color="#948F90"/>
<stop offset="1" stop-color="white" stop-opacity="0"/>
</radialGradient>
<radialGradient id="paint3_radial" cx="0" cy="0" r="1" gradientUnits="userSpaceOnUse" gradientTransform="translate(33.1019 30.2917) rotate(180) scale(45.3123)">
<stop offset="0.3788" stop-color="white"/>
<stop offset="0.4675" stop-color="#F4F2F9"/>
<stop offset="0.6315" stop-color="#D8D0E8"/>
<stop offset="0.8509" stop-color="#AA99CC"/>
<stop offset="1" stop-color="#8770B8"/>
</radialGradient>
<linearGradient id="paint4_linear" x1="38.3713" y1="34.5342" x2="24.8347" y2="34.5342" gradientUnits="userSpaceOnUse">
<stop stop-color="#3922AA"/>
<stop offset="1" stop-color="#7F3DFF"/>
</linearGradient>
<radialGradient id="paint5_radial" cx="0" cy="0" r="1" gradientUnits="userSpaceOnUse" gradientTransform="translate(23.9031 45.5898) scale(3.97748 8.77088)">
<stop stop-color="white"/>
<stop offset="1" stop-color="white" stop-opacity="0"/>
</radialGradient>
<radialGradient id="paint6_radial" cx="0" cy="0" r="1" gradientUnits="userSpaceOnUse" gradientTransform="translate(36.0114 36.8659) scale(3.56832 2.57782)">
<stop stop-color="white"/>
<stop offset="1" stop-color="white" stop-opacity="0"/>
</radialGradient>
<radialGradient id="paint7_radial" cx="0" cy="0" r="1" gradientUnits="userSpaceOnUse" gradientTransform="translate(35.2527 19.1721) rotate(180) scale(12.5227)">
<stop offset="0.030303" stop-color="#FEDFCB"/>
<stop offset="1" stop-color="#F9B69E"/>
</radialGradient>
<linearGradient id="paint8_linear" x1="41.6349" y1="15.2142" x2="36.483" y2="20.0949" gradientUnits="userSpaceOnUse">
<stop stop-color="white"/>
<stop offset="1" stop-color="white" stop-opacity="0"/>
</linearGradient>
<linearGradient id="paint9_linear" x1="28.5629" y1="28.6545" x2="33.6375" y2="-0.284492" gradientUnits="userSpaceOnUse">
<stop stop-color="#0B054D"/>
<stop offset="0.3318" stop-color="#1A065C"/>
<stop offset="0.3788" stop-color="#1C065F"/>
<stop offset="0.5419" stop-color="#280A6E"/>
<stop offset="0.8566" stop-color="#461497"/>
<stop offset="1" stop-color="#5619AB"/>
</linearGradient>
<linearGradient id="paint10_linear" x1="37.0962" y1="30.04" x2="34.3202" y2="33.9344" gradientUnits="userSpaceOnUse">
<stop stop-color="white"/>
<stop offset="1" stop-color="white" stop-opacity="0"/>
</linearGradient>
<linearGradient id="paint11_linear" x1="25.9603" y1="20.5434" x2="23.8544" y2="19.5512" gradientUnits="userSpaceOnUse">
<stop stop-color="white"/>
<stop offset="1" stop-color="#BCBEC0"/>
</linearGradient>
<radialGradient id="paint12_radial" cx="0" cy="0" r="1" gradientUnits="userSpaceOnUse" gradientTransform="translate(42.8731 51.5132) scale(15.3826 6.48997)">
<stop stop-color="white"/>
<stop offset="1" stop-color="white" stop-opacity="0"/>
</radialGradient>
<linearGradient id="paint13_linear" x1="36.0571" y1="4.43478" x2="22.1697" y2="16.7929" gradientUnits="userSpaceOnUse">
<stop stop-color="#170559"/>
<stop offset="1"/>
</linearGradient>
<linearGradient id="paint14_linear" x1="26.5449" y1="24.5596" x2="24.772" y2="17.1282" gradientUnits="userSpaceOnUse">
<stop stop-color="#3922AA"/>
<stop offset="1" stop-color="#7F3DFF"/>
</linearGradient>
<linearGradient id="paint15_linear" x1="25.5232" y1="24.5902" x2="23.7019" y2="18.0088" gradientUnits="userSpaceOnUse">
<stop stop-color="#3922AA"/>
<stop offset="1" stop-color="#7F3DFF"/>
</linearGradient>
<radialGradient id="paint16_radial" cx="0" cy="0" r="1" gradientUnits="userSpaceOnUse" gradientTransform="translate(26.4071 20.5025) scale(3.1877)">
<stop stop-color="white"/>
<stop offset="1" stop-color="white" stop-opacity="0"/>
</radialGradient>
<radialGradient id="paint17_radial" cx="0" cy="0" r="1" gradientUnits="userSpaceOnUse" gradientTransform="translate(24.3856 21.4819) scale(1.9031 1.92751)">
<stop stop-color="white"/>
<stop offset="1" stop-color="white" stop-opacity="0"/>
</radialGradient>
<linearGradient id="paint18_linear" x1="33.8947" y1="20.5809" x2="35.8858" y2="9.22656" gradientUnits="userSpaceOnUse">
<stop stop-color="white"/>
<stop offset="1" stop-color="white" stop-opacity="0"/>
</linearGradient>
<linearGradient id="paint19_linear" x1="39.1983" y1="25.999" x2="27.2666" y2="25.999" gradientUnits="userSpaceOnUse">
<stop stop-color="white"/>
<stop offset="1" stop-color="#BCBEC0"/>
</linearGradient>
<linearGradient id="paint20_linear" x1="27.7399" y1="23.2121" x2="37.4804" y2="28.3176" gradientUnits="userSpaceOnUse">
<stop stop-color="#3922AA"/>
<stop offset="1" stop-color="#7F3DFF"/>
</linearGradient>
<linearGradient id="paint21_linear" x1="40.7719" y1="27.7043" x2="37.9121" y2="27.7043" gradientUnits="userSpaceOnUse">
<stop stop-color="#0B054D"/>
<stop offset="0.3318" stop-color="#1A065C"/>
<stop offset="0.3788" stop-color="#1C065F"/>
<stop offset="0.5419" stop-color="#280A6E"/>
<stop offset="0.8566" stop-color="#461497"/>
<stop offset="1" stop-color="#5619AB"/>
</linearGradient>
</defs>
</svg>
