<svg width="65" height="65" viewBox="0 0 65 65" fill="none" xmlns="http://www.w3.org/2000/svg">
<path d="M54.7413 36.6996L48.4814 40.3125V8.73306L54.7413 5.12012V36.6996Z" fill="url(#paint0_linear)"/>
<path d="M54.742 5.12027L49.3419 2L43.082 5.61295L48.4821 8.73322L54.742 5.12027Z" fill="url(#paint1_linear)"/>
<path d="M48.4812 40.3125L43.0811 37.1923V5.61279L48.4812 8.73307V40.3125Z" fill="url(#paint2_linear)"/>
<path d="M47.5827 15.6306V33.4539H43.0811V15.1187L47.5827 15.6306Z" fill="url(#paint3_linear)"/>
<path d="M45.5937 14.4715L38.8702 10.0664L33.5087 19.8716L37.3825 21.1757C36.8512 28.9716 31.4897 41.8005 18.5449 48.1666L19.8297 50.6976C22.2448 50.9487 25.4424 48.0796 28.012 45.7902C30.5623 43.5007 32.6972 40.1002 34.8515 36.893C36.9961 33.6858 38.7542 30.0825 39.9425 26.5275C41.092 23.0692 41.7779 19.6784 42.116 16.4905L45.5937 14.4715Z" fill="url(#paint4_linear)"/>
<path d="M47.5842 15.6306L42.2131 12.0273L36.842 21.8325L39.8753 20.0744C39.7594 22.615 39.3923 25.2523 38.6677 27.9475C37.8756 30.8746 36.6198 33.8499 34.9582 36.6611C33.287 39.4626 31.2197 42.0902 28.9688 44.3603C26.7276 46.6208 24.2546 48.6495 21.8782 50.1179L21.8105 51.847C24.4864 50.4753 27.0754 48.6205 29.645 46.331C32.1954 44.0415 34.678 41.2497 36.8323 38.0425C38.9769 34.8353 40.735 31.232 41.9233 27.677C43.0728 24.2186 43.7587 20.8279 44.0968 17.64L47.5842 15.6306Z" fill="url(#paint5_linear)"/>
<path opacity="0.7" d="M42.3386 12.1046L37.1027 21.6876L36.8516 21.8325L42.2227 12.0273L42.3386 12.1046Z" fill="white"/>
<path d="M36.8416 21.8326L33.5088 19.8716L38.8799 10.0664L42.2127 12.0274L36.8416 21.8326Z" fill="url(#paint6_linear)"/>
<path d="M21.4327 49.5284L19.4524 48.3691L19.3848 50.0983L21.3651 51.2576L21.4327 49.5284Z" fill="url(#paint7_linear)"/>
<path d="M22.6603 58.3871L16.4004 62.0001V43.945L22.6603 40.332V58.3871Z" fill="url(#paint8_linear)"/>
<path d="M22.66 40.3322L17.2599 37.2119L11 40.8249L16.4001 43.9451L22.66 40.3322Z" fill="url(#paint9_linear)"/>
<path d="M16.4001 62.0001L11 58.8798V40.8247L16.4001 43.945V62.0001Z" fill="url(#paint10_linear)"/>
<defs>
<linearGradient id="paint0_linear" x1="55.3422" y1="5.51242" x2="45.5347" y2="50.7608" gradientUnits="userSpaceOnUse">
<stop stop-color="#DBDFFF"/>
<stop offset="1" stop-color="#7583FF"/>
</linearGradient>
<linearGradient id="paint1_linear" x1="49.8127" y1="1.23935" x2="48.3494" y2="7.95373" gradientUnits="userSpaceOnUse">
<stop stop-color="#7583FF"/>
<stop offset="1" stop-color="#98A3FF"/>
</linearGradient>
<linearGradient id="paint2_linear" x1="45.7809" y1="39.2097" x2="45.7809" y2="6.17889" gradientUnits="userSpaceOnUse">
<stop stop-color="#5765E1"/>
<stop offset="1" stop-color="#7583FF"/>
</linearGradient>
<linearGradient id="paint3_linear" x1="45.3294" y1="33.7873" x2="45.3294" y2="15.3443" gradientUnits="userSpaceOnUse">
<stop stop-color="#803EFF" stop-opacity="0"/>
<stop offset="1" stop-color="#000D3F" stop-opacity="0.4"/>
</linearGradient>
<linearGradient id="paint4_linear" x1="38.4888" y1="20.8426" x2="22.3116" y2="47.4317" gradientUnits="userSpaceOnUse">
<stop stop-color="#4502C6"/>
<stop offset="1" stop-color="#803EFF"/>
</linearGradient>
<linearGradient id="paint5_linear" x1="27.1051" y1="49.1462" x2="44.2067" y2="14.1397" gradientUnits="userSpaceOnUse">
<stop stop-color="#7583FF"/>
<stop offset="1" stop-color="#DBDFFF"/>
</linearGradient>
<linearGradient id="paint6_linear" x1="35.8792" y1="20.005" x2="40.2625" y2="11.0325" gradientUnits="userSpaceOnUse">
<stop stop-color="#6321E3"/>
<stop offset="1" stop-color="#9452FF"/>
</linearGradient>
<linearGradient id="paint7_linear" x1="19.5179" y1="48.2769" x2="25.0056" y2="57.7244" gradientUnits="userSpaceOnUse">
<stop stop-color="#4502C6"/>
<stop offset="1" stop-color="#803EFF"/>
</linearGradient>
<linearGradient id="paint8_linear" x1="21.8822" y1="40.3247" x2="15.7037" y2="68.8305" gradientUnits="userSpaceOnUse">
<stop stop-color="#DBDFFF"/>
<stop offset="1" stop-color="#7583FF"/>
</linearGradient>
<linearGradient id="paint9_linear" x1="18.1451" y1="38.0156" x2="15.4451" y2="43.2806" gradientUnits="userSpaceOnUse">
<stop stop-color="#7583FF"/>
<stop offset="0.407" stop-color="#7583FF"/>
<stop offset="1" stop-color="#98A3FF"/>
</linearGradient>
<linearGradient id="paint10_linear" x1="13.7008" y1="61.3241" x2="13.7008" y2="41.1676" gradientUnits="userSpaceOnUse">
<stop stop-color="#7583FF"/>
<stop offset="0.407" stop-color="#7583FF"/>
</linearGradient>
</defs>
</svg>
