<?xml version="1.0" encoding="utf-8"?>
<!-- Generator: Adobe Illustrator 25.2.0, SVG Export Plug-In . SVG Version: 6.00 Build 0)  -->
<svg version="1.1" id="Layer_1" xmlns="http://www.w3.org/2000/svg" xmlns:xlink="http://www.w3.org/1999/xlink" x="0px" y="0px"
	 viewBox="0 0 60 60" style="enable-background:new 0 0 60 60;" xml:space="preserve">
<style type="text/css">
	.st0{fill:url(#SVGID_1_);}
	.st1{fill:#6A74E0;}
	.st2{fill:url(#SVGID_2_);}
	.st3{fill:url(#SVGID_3_);}
	.st4{fill:url(#SVGID_4_);}
	.st5{fill:url(#SVGID_5_);}
	.st6{fill:url(#SVGID_6_);}
	.st7{fill:url(#SVGID_7_);}
	.st8{fill:url(#SVGID_8_);}
	.st9{fill:url(#SVGID_9_);}
	.st10{fill:url(#SVGID_10_);}
	.st11{fill:url(#SVGID_11_);}
</style>
<g>
	
		<linearGradient id="SVGID_1_" gradientUnits="userSpaceOnUse" x1="305.8243" y1="-331.2153" x2="322.9221" y2="-331.2153" gradientTransform="matrix(1 0 0 -1 -281 -311)">
		<stop  offset="0" style="stop-color:#6A74E0"/>
		<stop  offset="1" style="stop-color:#B3BBFF"/>
	</linearGradient>
	<path class="st0" d="M30.4,38.8l8.6-8.6l2.6-5.3l0.3-4.7l-1.1-4.2l-3.9-7.7L35.1,5l-8.4-3.5l-1.9,0.6l4.1,2.5c0,0,4.9,4.3,5,4.5
		c0.1,0.2,4.2,5.5,4.2,5.5l1.1,5.6l-1.8,8.1l-4.5,6.2l-2.2,3.5L30.4,38.8z"/>
	<path class="st1" d="M10.5,49.2v0.5L5.7,43v-0.5L10.5,49.2z"/>
	
		<linearGradient id="SVGID_2_" gradientUnits="userSpaceOnUse" x1="301.6945" y1="-353.2259" x2="297.3212" y2="-362.433" gradientTransform="matrix(1 0 0 -1 -281 -311)">
		<stop  offset="0" style="stop-color:#B3BBFF"/>
		<stop  offset="1" style="stop-color:#6A74E0"/>
	</linearGradient>
	<path class="st2" d="M22.5,52.3v0.5l-11.9-3.1v-0.5L22.5,52.3z"/>
	
		<linearGradient id="SVGID_3_" gradientUnits="userSpaceOnUse" x1="346.5334" y1="-323.4412" x2="300.8055" y2="-362.5708" gradientTransform="matrix(1 0 0 -1 -281 -311)">
		<stop  offset="0" style="stop-color:#7583FF"/>
		<stop  offset="1" style="stop-color:#DBDFFF"/>
	</linearGradient>
	<path class="st3" d="M36.8,34L10.5,49.2l11.9,3.1l0.1,0.1L48.8,37L36.8,34z"/>
	
		<linearGradient id="SVGID_4_" gradientUnits="userSpaceOnUse" x1="303.5488" y1="-359.1758" x2="335.3129" y2="-359.1758" gradientTransform="matrix(1 0 0 -1 -281 -311)">
		<stop  offset="0" style="stop-color:#C0BFF6"/>
		<stop  offset="0.2938" style="stop-color:#C5C4F7"/>
		<stop  offset="0.6399" style="stop-color:#D3D2F9"/>
		<stop  offset="1" style="stop-color:#E9E9FD"/>
	</linearGradient>
	<path class="st4" d="M54.3,44.1L48.8,37L22.5,52.4l5.6,6.9L54.3,44.1z"/>
	
		<linearGradient id="SVGID_5_" gradientUnits="userSpaceOnUse" x1="259.4612" y1="-346.0277" x2="319.1531" y2="-350.4777" gradientTransform="matrix(1 0 0 -1 -281 -311)">
		<stop  offset="0" style="stop-color:#7583FF"/>
		<stop  offset="1" style="stop-color:#DBDFFF"/>
	</linearGradient>
	<path class="st5" d="M36.7,34l-4.9-6.7L5.7,42.5l4.9,6.7L36.7,34L36.7,34z"/>
	
		<linearGradient id="SVGID_6_" gradientUnits="userSpaceOnUse" x1="309.0835" y1="-362.9402" x2="335.2791" y2="-362.9402" gradientTransform="matrix(1 0 0 -1 -281 -311)">
		<stop  offset="0" style="stop-color:#6A74E0"/>
		<stop  offset="1" style="stop-color:#B3BBFF"/>
	</linearGradient>
	<path class="st6" d="M54.3,44.1v0.5L28.1,59.8v-0.5L54.3,44.1z"/>
	
		<linearGradient id="SVGID_7_" gradientUnits="userSpaceOnUse" x1="303.5025" y1="-367.0578" x2="309.0866" y2="-367.0578" gradientTransform="matrix(1 0 0 -1 -281 -311)">
		<stop  offset="0" style="stop-color:#6A74E0"/>
		<stop  offset="1" style="stop-color:#B3BBFF"/>
	</linearGradient>
	<path class="st7" d="M28.1,59.3v0.5l-5.6-6.9v-0.5L28.1,59.3z"/>
	
		<linearGradient id="SVGID_8_" gradientUnits="userSpaceOnUse" x1="304.6706" y1="-326.8151" x2="318.0617" y2="-326.8151" gradientTransform="matrix(1 0 0 -1 -281 -311)">
		<stop  offset="0" style="stop-color:#2D1B86"/>
		<stop  offset="0.5535" style="stop-color:#5129B6"/>
		<stop  offset="1" style="stop-color:#2D1B86"/>
	</linearGradient>
	<path class="st8" d="M36.9,22.6C36.8,22.6,36.8,22.6,36.9,22.6c-0.2,0.1-0.2,0.1-0.2,0.1h-0.1c-0.1,0-0.1,0-0.2,0.1h-0.1
		c-0.1,0-0.1,0-0.2,0c0,0-0.1,0-0.2,0c-0.1,0-0.1,0-0.2,0c-0.1,0-0.1,0-0.2,0c-0.1,0-0.1,0-0.2,0c-0.1,0-0.1,0-0.2,0s-0.1,0-0.2,0
		c-0.1,0-0.1,0-0.2,0c-0.1,0-0.1,0-0.2,0c-0.1,0-0.1,0-0.2,0h-0.1c-0.1,0-0.1,0-0.2,0h-0.1c-0.1,0-0.2,0-0.2-0.1h-0.1
		c-0.1,0-0.2-0.1-0.2-0.1c-0.1,0-0.2-0.1-0.3-0.1h-0.1c-0.1,0-0.2-0.1-0.2-0.1c0,0-0.1,0-0.1-0.1c-0.1,0-0.2-0.1-0.2-0.1
		c-0.1,0-0.1-0.1-0.2-0.1c-0.1-0.1-0.2-0.1-0.2-0.2c-0.1-0.1-0.2-0.2-0.3-0.2l-0.1-0.1c-0.1-0.1-0.2-0.1-0.2-0.2l-0.1-0.1
		c-0.1-0.1-0.2-0.1-0.2-0.2c-0.1,0-0.1-0.1-0.2-0.1c-0.1-0.1-0.1-0.1-0.2-0.2c-0.1,0-0.1-0.1-0.2-0.1c-0.1-0.1-0.1-0.1-0.2-0.2
		C31,20.8,31,20.8,31,20.7c-0.1-0.1-0.1-0.1-0.2-0.2c-0.1-0.1-0.1-0.1-0.2-0.2c-0.1-0.1-0.1-0.1-0.2-0.2c-0.1-0.1-0.1-0.1-0.2-0.2
		c-0.1-0.1-0.1-0.1-0.2-0.2c-0.1-0.1-0.1-0.1-0.2-0.2c-0.1-0.1-0.1-0.1-0.2-0.2c-0.1-0.1-0.1-0.1-0.2-0.2c-0.1-0.1-0.1-0.1-0.2-0.2
		c-0.1-0.1-0.1-0.1-0.2-0.2C29.3,19,29.3,19,29.2,19c-0.1-0.1-0.1-0.1-0.2-0.2c-0.1-0.1-0.1-0.1-0.2-0.2c0-0.1-0.1-0.1-0.1-0.2
		c-0.1-0.1-0.1-0.1-0.2-0.2c0-0.1-0.1-0.1-0.1-0.2c-0.1-0.1-0.1-0.1-0.1-0.2c0-0.1-0.1-0.1-0.1-0.2c0-0.1-0.1-0.2-0.1-0.2
		c0-0.1-0.1-0.1-0.1-0.2c0-0.1-0.1-0.2-0.1-0.2c0-0.1-0.1-0.1-0.1-0.2c0-0.1-0.1-0.2-0.1-0.2c0-0.1-0.1-0.1-0.1-0.2
		c0-0.1-0.1-0.2-0.1-0.2c0-0.1-0.1-0.1-0.1-0.2c0-0.1-0.1-0.2-0.1-0.2c0-0.1-0.1-0.2-0.1-0.2c0-0.1,0-0.2,0-0.2
		c0-0.1-0.1-0.2-0.1-0.2c0-0.1-0.1-0.1-0.1-0.2c0-0.1-0.1-0.2-0.1-0.2c0-0.1-0.1-0.1-0.1-0.2c0-0.1-0.1-0.2-0.1-0.2
		c0-0.1-0.1-0.1-0.1-0.2c0-0.1-0.1-0.2-0.1-0.2c0-0.1,0-0.1-0.1-0.2c0-0.1,0-0.1-0.1-0.2c0-0.1-0.1-0.2-0.1-0.2c0-0.1,0-0.1-0.1-0.2
		c0-0.1,0-0.2-0.1-0.2c0-0.1,0-0.1,0-0.2c0-0.1,0-0.2-0.1-0.2c0-0.1,0-0.1,0-0.2c0-0.1,0-0.2-0.1-0.2c0-0.1,0-0.1,0-0.2
		c0-0.1,0-0.2,0-0.2v-0.1c0-0.1,0-0.2,0-0.3V12c0-0.1,0-0.2,0-0.2c0-0.2,0-0.2,0-0.4c0-0.1,0-0.2,0-0.3V11c0-0.1,0-0.2,0-0.2
		c0,0,0,0,0-0.1c0-0.1,0-0.2,0-0.3v-0.1c0-0.1,0-0.2,0-0.2V10c0-0.1,0-0.2,0.1-0.2V9.8c0-0.1,0-0.2,0.1-0.2V9.5
		c0-0.1,0.1-0.2,0.1-0.2V9.1c0-0.1,0.1-0.2,0.1-0.2V8.9c0-0.1,0.1-0.1,0.1-0.2c0,0,0-0.1,0.1-0.1C27,8.6,27,8.6,27,8.5
		c0,0,0-0.1,0.1-0.1c0-0.1,0.1-0.1,0.1-0.2c0.1-0.1,0.1-0.2,0.2-0.2c0,0,0,0,0.1-0.1C27.4,8,27.5,8,27.5,8s0,0,0.1-0.1l0.1-0.1
		c0,0,0.1,0,0.1-0.1c0.1,0,0.1-0.1,0.2-0.1c0,0,0,0,0.1-0.1c0.1-0.1,0.2-0.1,0.2-0.2L25.4,9c-0.1,0-0.2,0.1-0.2,0.1s0,0-0.1,0.1
		C25,9.1,25,9.2,25,9.2c0,0-0.1,0-0.1,0.1l-0.1,0.1c0,0-0.1,0-0.1,0.1l-0.1,0.1c0,0,0,0-0.1,0.1c-0.1,0.1-0.1,0.1-0.2,0.2
		c0,0.1-0.1,0.1-0.1,0.2c0,0,0,0.1-0.1,0.1c0,0.1-0.1,0.1-0.1,0.2c0,0,0,0.1-0.1,0.1c0,0.1-0.1,0.1-0.1,0.2v0.1
		c0,0.1-0.1,0.1-0.1,0.2v0.1c0,0.1-0.1,0.2-0.1,0.2v0.1c0,0.1-0.1,0.2-0.1,0.2v0.1c0,0.1,0,0.2-0.1,0.2v0.1c0,0.1,0,0.2,0,0.2v0.1
		c0,0,0,0,0,0.1c0,0.1,0,0.2,0,0.2c0,0,0,0,0,0.1c0,0.1,0,0.2,0,0.2v0.1c0,0.1,0,0.2,0,0.3c0,0.2,0,0.2,0,0.4c0,0.1,0,0.2,0,0.2v0.1
		c0,0.1,0,0.2,0,0.3V14c0,0.1,0,0.2,0,0.2c0,0.1,0,0.1,0,0.2c0,0.1,0,0.1,0,0.2v0.1c0,0.1,0,0.1,0,0.2c0,0.1,0,0.2,0.1,0.2
		c0,0.1,0,0.1,0,0.2c0,0.1,0,0.2,0.1,0.2c0,0.1,0,0.1,0.1,0.2c0,0.1,0.1,0.2,0.1,0.2c0,0.1,0,0.1,0.1,0.2c0,0,0,0,0,0.1
		c0,0.1,0,0.1,0.1,0.2c0,0.1,0.1,0.2,0.1,0.2c0,0.1,0.1,0.1,0.1,0.2c0,0.1,0.1,0.2,0.1,0.2c0,0.1,0.1,0.1,0.1,0.2
		c0,0.1,0.1,0.2,0.1,0.2c0,0.1,0.1,0.1,0.1,0.2c0,0.1,0.1,0.2,0.1,0.2c0,0,0,0.1,0.1,0.1v0.1c0,0.1,0.1,0.2,0.1,0.2
		c0,0.1,0.1,0.2,0.1,0.2c0,0.1,0.1,0.1,0.1,0.2c0,0.1,0.1,0.2,0.1,0.2c0,0.1,0.1,0.1,0.1,0.2c0,0.1,0.1,0.2,0.1,0.2
		c0,0.1,0.1,0.1,0.1,0.2c0,0.1,0.1,0.2,0.1,0.2c0,0.1,0.1,0.1,0.1,0.2c0,0.1,0.1,0.2,0.1,0.2c0,0.1,0.1,0.1,0.1,0.2
		c0,0.1,0.1,0.1,0.1,0.2c0,0.1,0.1,0.1,0.1,0.2c0.1,0.1,0.1,0.1,0.2,0.2c0,0.1,0.1,0.1,0.1,0.2c0.1,0.1,0.1,0.1,0.2,0.2
		c0.1,0.1,0.1,0.1,0.2,0.2c0.1,0.1,0.1,0.1,0.2,0.2c0.1,0.1,0.1,0.1,0.2,0.2c0.1,0.1,0.1,0.1,0.2,0.2c0.1,0.1,0.1,0.1,0.2,0.2
		c0.1,0.1,0.1,0.1,0.2,0.2c0.1,0.1,0.1,0.1,0.2,0.2c0.1,0.1,0.1,0.1,0.2,0.2c0.1,0.1,0.1,0.1,0.2,0.2c0.1,0.1,0.1,0.1,0.2,0.2
		c0.1,0.1,0.1,0.1,0.2,0.2c0.1,0.1,0.1,0.1,0.2,0.2c0.1,0.1,0.1,0.1,0.2,0.2c0.1,0.1,0.1,0.1,0.2,0.2c0.1,0,0.1,0.1,0.2,0.1
		c0,0,0,0,0.1,0c0.1,0,0.1,0.1,0.2,0.1c0.1,0,0.1,0.1,0.2,0.1c0.1,0.1,0.2,0.1,0.2,0.2l0.1,0.1c0.1,0.1,0.2,0.1,0.2,0.2l0.1,0.1
		c0.1,0.1,0.2,0.2,0.3,0.2c0.1,0,0.1,0.1,0.2,0.1c0,0,0.1,0,0.1,0.1c0.1,0,0.1,0.1,0.2,0.1c0.1,0,0.2,0.1,0.2,0.1s0.1,0,0.1,0.1
		c0.1,0,0.2,0.1,0.2,0.1h0.1c0.1,0,0.2,0.1,0.3,0.1c0.1,0,0.2,0.1,0.2,0.1h0.1c0.1,0,0.2,0,0.2,0.1h0.1c0.1,0,0.1,0,0.2,0H32h0.1
		h0.1c0.1,0,0.1,0,0.2,0c0.1,0,0.1,0,0.2,0c0.1,0,0.1,0,0.2,0c0.1,0,0.1,0,0.2,0c0.1,0,0.1,0,0.2,0c0.1,0,0.1,0,0.2,0
		c0.1,0,0.1,0,0.2,0h0.1c0,0,0,0,0.1,0c0.1,0,0.1,0,0.2,0h0.1c0.1,0,0.1,0,0.2-0.1h0.1c0.1,0,0.1-0.1,0.2-0.1h0.1
		c0.1,0,0.2-0.1,0.2-0.1l2.8-1.6C37,22.5,36.9,22.6,36.9,22.6z"/>
	
		<linearGradient id="SVGID_9_" gradientUnits="userSpaceOnUse" x1="311.3524" y1="-314.4321" x2="310.2784" y2="-348.6513" gradientTransform="matrix(1 0 0 -1 -281 -311)">
		<stop  offset="0" style="stop-color:#7F3DFF"/>
		<stop  offset="1" style="stop-color:#3922AA"/>
	</linearGradient>
	<path class="st9" d="M29.9,3.2c-6.1-3.5-11.1-0.7-11.1,6.4c0,2.7,0.9,5.6,2,8.4l9.1,21.3l9.3-10.7c1.2-1.8,2-3.5,2-6.1
		C41.1,15.4,36,6.8,29.9,3.2z M29.8,23.4c-3.4-2-6.1-6.7-6-10.5c0-3.8,2.7-5.4,6.1-3.5c3.4,2,6.1,6.7,6,10.5
		C36,23.8,33.2,25.4,29.8,23.4z"/>
	
		<linearGradient id="SVGID_10_" gradientUnits="userSpaceOnUse" x1="313.4132" y1="-310.6446" x2="314.9477" y2="-349.007" gradientTransform="matrix(1 0 0 -1 -281 -311)">
		<stop  offset="0" style="stop-color:#2D1B86"/>
		<stop  offset="0.4492" style="stop-color:#6D34DB"/>
		<stop  offset="1" style="stop-color:#2D1B86"/>
	</linearGradient>
	<path class="st10" d="M43.7,20.5c0.5-7.4-10.7-26.8-21.7-18c8.1-4.2,21.1,11.1,18.7,22.7c-0.1,2.6-9.5,12.2-10.9,14.1
		C34.5,35.8,44.3,26.8,43.7,20.5z"/>
	
		<radialGradient id="SVGID_11_" cx="58.9493" cy="-147.4756" r="1.0009" gradientTransform="matrix(4.4555 -0.3903 -0.1625 -1.8556 -256.6048 -208.1237)" gradientUnits="userSpaceOnUse">
		<stop  offset="0" style="stop-color:#7583FF"/>
		<stop  offset="1" style="stop-color:#DBDFFF;stop-opacity:0"/>
	</radialGradient>
	<path class="st11" d="M34.7,42.1c0.1,1.1-2,2.1-4.5,2.4c-2.6,0.2-4.8-0.5-4.9-1.6c-0.1-1.1,2-2.1,4.5-2.4
		C32.4,40.3,34.6,41,34.7,42.1z"/>
</g>
</svg>
