<svg width="85" height="85" viewBox="0 0 85 85" fill="none" xmlns="http://www.w3.org/2000/svg">
<path d="M38.1604 23.19C43.4596 23.19 47.7554 18.8942 47.7554 13.595C47.7554 8.29583 43.4596 4 38.1604 4C32.8613 4 28.5654 8.29583 28.5654 13.595C28.5654 18.8942 32.8613 23.19 38.1604 23.19Z" fill="url(#paint0_linear)"/>
<path d="M55.3621 33.5554V41.5347L53.8375 42.7527C49.9514 38.4855 44.3668 35.8009 38.1856 35.7926C30.72 35.776 24.1079 39.6869 20.3213 45.5616V33.5554C20.3213 26.181 30.024 24.441 32.5098 24.1178C32.8743 24.0598 33.2389 24.1427 33.5621 24.3333L36.1555 25.8993C36.4787 26.0981 36.661 26.471 36.6195 26.8439L35.5341 35.7263H40.1493L39.0721 26.8439C39.0307 26.471 39.2047 26.0981 39.5361 25.8993L42.1296 24.3333C42.4445 24.1427 42.809 24.0598 43.1736 24.1178C45.6677 24.441 55.3621 26.181 55.3621 33.5554Z" fill="url(#paint1_linear)"/>
<path d="M59.829 60.2115C60.6658 60.0955 61.5027 59.9464 62.3396 59.8138V54.5274C61.3784 54.37 60.4173 54.2292 59.4644 54.0469C59.133 53.9889 58.7435 53.7734 58.3872 53.5414C57.7658 53.1354 57.3018 52.514 57.0946 51.8014C56.8543 50.9562 56.5561 50.1359 56.2081 49.3488L50.4743 53.9474C50.7477 54.9749 50.8885 56.0603 50.8885 57.1706C50.8968 64.1639 45.1465 69.9142 38.1449 69.8977C31.1517 69.8811 25.4345 64.1639 25.4345 57.1789C25.4262 50.1691 31.1765 44.427 38.1781 44.4436C41.6498 44.4519 44.815 45.8687 47.1102 48.1391L52.5457 43.789C48.9662 39.9195 43.8456 37.4918 38.1781 37.4835C29.3454 37.4586 21.8053 43.3664 19.3195 51.412C19.0046 52.4311 18.3252 53.326 17.3806 53.8231C17.0906 53.9806 16.784 54.0966 16.494 54.1297C15.6737 54.2292 14.8452 54.3866 14 54.5192V59.8138C14.58 59.9132 15.1766 60.0127 15.7815 60.1121C16.1543 60.1701 16.5272 60.2198 16.8918 60.3027C17.9606 60.5264 18.6484 61.1975 18.9549 62.225C19.2532 63.2607 19.0875 64.2384 18.2672 65.009C17.6872 65.5559 17.0409 66.0365 16.4278 66.5502C16.2869 66.6745 16.146 66.7988 15.9886 66.9231C16.0549 67.0639 16.0963 67.1799 16.1626 67.2876C16.9083 68.5802 17.6623 69.8645 18.3998 71.1654C18.5158 71.3725 18.7644 71.4637 18.9881 71.3725C19.7007 71.0825 20.4298 70.8174 21.159 70.5605C22.2693 70.1545 23.2719 70.3617 24.117 71.1903C24.9622 72.0106 25.1776 73.0131 24.7882 74.1317C24.523 74.894 24.233 75.6315 23.9513 76.3855C23.8601 76.6009 23.8436 76.7501 24.0839 76.8909C25.4676 77.6698 26.843 78.4735 28.2185 79.2607C28.2682 79.2938 28.3345 79.3021 28.4174 79.327C28.9891 78.6392 29.5525 77.9432 30.1325 77.2638C31.102 76.1286 32.6846 75.9215 33.9192 76.7666C34.5157 77.1643 34.9052 77.7195 35.0377 78.4404C35.1703 79.1944 35.2863 79.965 35.4106 80.719C35.4437 80.9178 35.4852 81.1167 35.5183 81.3404H40.813C40.9455 80.5118 41.0864 79.6998 41.2024 78.8795C41.4013 77.4958 42.1387 76.6175 43.423 76.3358C44.4919 76.0955 45.4199 76.3689 46.149 77.2141C46.6379 77.7858 47.1102 78.3741 47.5908 78.9541C47.6902 79.0784 47.7979 79.1944 47.9388 79.3601C49.4551 78.4901 50.9548 77.6284 52.4877 76.7418C52.4214 76.5512 52.38 76.3855 52.322 76.228C52.0403 75.474 51.7337 74.7366 51.4934 73.966C51.162 72.922 51.4271 71.9774 52.1977 71.1985C52.9683 70.4197 53.9129 70.1628 54.9735 70.4943C55.7275 70.7345 56.4732 71.0494 57.2272 71.3228C57.3681 71.3725 57.5172 71.4223 57.7326 71.4968C58.6027 69.9888 59.4727 68.4808 60.3593 66.9396C59.6467 66.3596 58.959 65.7879 58.2712 65.2162C57.6746 64.719 57.2769 63.9899 57.2604 63.211C57.2106 61.6035 58.2049 60.4518 59.829 60.2115Z" fill="url(#paint2_linear)"/>
<path d="M41.5739 63.8233C40.6293 63.8233 39.693 63.4256 39.0385 62.6468L31.2415 53.4163C30.0566 52.016 30.2389 49.928 31.6309 48.7431C33.0312 47.5583 35.1193 47.7405 36.3041 49.1326L42.0214 55.8938L66.1994 36.5215C67.6329 35.3781 69.7126 35.6101 70.8561 37.0352C71.9995 38.4604 71.7675 40.5484 70.3424 41.6919L43.6371 63.0942C43.0322 63.5831 42.2948 63.8233 41.5739 63.8233Z" fill="url(#paint3_linear)"/>
<defs>
<linearGradient id="paint0_linear" x1="38.1487" y1="2.33763" x2="38.1487" y2="21.8703" gradientUnits="userSpaceOnUse">
<stop stop-color="white"/>
<stop offset="1" stop-color="#C6CBFF"/>
</linearGradient>
<linearGradient id="paint1_linear" x1="37.8203" y1="22.2404" x2="37.8203" y2="44.0856" gradientUnits="userSpaceOnUse">
<stop stop-color="white"/>
<stop offset="1" stop-color="#C6CBFF"/>
</linearGradient>
<linearGradient id="paint2_linear" x1="38.1403" y1="33.6842" x2="38.1403" y2="78.3243" gradientUnits="userSpaceOnUse">
<stop stop-color="white"/>
<stop offset="1" stop-color="#C6CBFF"/>
</linearGradient>
<linearGradient id="paint3_linear" x1="50.9953" y1="33.3669" x2="50.9953" y2="61.8958" gradientUnits="userSpaceOnUse">
<stop stop-color="white"/>
<stop offset="1" stop-color="#C6CBFF"/>
</linearGradient>
</defs>
</svg>
