<svg width="85" height="85" viewBox="0 0 85 85" fill="none" xmlns="http://www.w3.org/2000/svg">
<path d="M37.63 48.1496V68.4889C34.5029 68.7398 31.331 68.8294 28.0696 68.8384C21.9499 68.8115 15.5614 68.5337 9.30724 67.0374C7.23747 66.5356 5.1677 65.8099 3.25921 64.8601C0.257594 63.3727 -0.62945 60.9983 0.427835 57.8265C0.992318 56.133 1.67328 54.4575 2.48865 52.8716C4.53154 48.9023 7.83779 46.7787 12.3178 46.483C13.8231 46.3845 15.3194 46.2411 16.8247 46.1515C17.0129 46.1336 17.2996 46.2322 17.3802 46.3666C18.1508 47.6837 19.3604 48.4543 20.7134 48.9471C25.8116 50.8018 30.9368 50.8018 36.0351 48.9381C36.5995 48.732 37.1371 48.4811 37.63 48.1496Z" fill="url(#paint0_linear)"/>
<path d="M42.3877 20.9109C41.0616 5.27557 16.4484 4.93509 14.4503 20.4718C14.4324 20.6062 14.4413 20.7585 14.4682 20.9109C14.065 21.4037 13.6349 34.2972 17.4878 38.1052C17.4788 38.1052 17.4788 38.1052 17.4698 38.1052C22.6577 47.9075 34.1982 47.8985 39.3861 38.1052C39.3772 38.1052 39.3772 38.1052 39.3682 38.1052C43.1762 34.3061 42.8447 21.3947 42.3877 20.9109Z" fill="url(#paint1_linear)"/>
<path d="M44.347 68.6457H77.7948C79.5241 68.6457 80.9219 67.239 80.9219 65.5097V39.6241C80.9219 37.8948 79.5241 36.4971 77.7948 36.4971H44.347C42.6177 36.4971 41.2109 37.8948 41.2109 39.6241V65.5097C41.2109 67.239 42.6177 68.6457 44.347 68.6457ZM43.899 39.6241C43.899 39.3822 44.105 39.1851 44.347 39.1851H77.7948C78.0367 39.1851 78.2339 39.3822 78.2339 39.6241V65.5097C78.2339 65.7606 78.0367 65.9577 77.7948 65.9577H44.347C44.105 65.9577 43.899 65.7606 43.899 65.5097V39.6241Z" fill="url(#paint2_linear)"/>
<path d="M82.7162 70.2402H39.4212C38.6506 70.2402 38.0234 70.8674 38.0234 71.638V74.3708C38.0234 75.1414 38.6506 75.7686 39.4212 75.7686H82.7162C83.4867 75.7686 84.1139 75.1414 84.1139 74.3708V71.638C84.1139 70.8674 83.4867 70.2402 82.7162 70.2402Z" fill="url(#paint3_linear)"/>
<path d="M51.8058 61.9256C51.994 61.9436 52.1911 61.9525 52.3793 61.9525C54.0906 61.9525 55.7214 61.2268 57.2087 59.7932C58.5169 58.5477 59.6459 57.0603 60.8465 55.5013C61.6529 54.444 62.4593 53.3957 63.2926 52.428C62.4862 51.971 61.859 51.2453 61.5275 50.3672C60.4971 51.5141 59.5742 52.7326 58.7051 53.8706C57.5761 55.349 56.5098 56.7467 55.354 57.8488C54.2698 58.8882 53.1946 59.3452 52.0657 59.2466C49.7002 59.0316 47.8096 56.469 47.7917 56.4421L46.6986 57.2306L45.6055 58.0101C45.713 58.1535 48.2128 61.5852 51.8058 61.9256Z" fill="url(#paint4_linear)"/>
<path d="M69.2114 48.1901C70.878 47.6705 72.8223 47.554 75.1878 48.0109L75.6985 45.3677C72.5535 44.7584 69.973 45.0362 67.8047 45.8336C68.5215 46.425 69.0322 47.2493 69.2114 48.1901Z" fill="url(#paint5_linear)"/>
<path d="M64.8342 52.0244C64.8342 52.2663 64.8252 52.4992 64.8252 52.7412C64.8342 56.2714 64.9148 59.8017 65.2732 63.323C65.6316 59.7927 65.7122 56.2625 65.7212 52.7412C65.7212 52.4992 65.7122 52.2663 65.7122 52.0244C67.2175 51.8093 68.3823 50.528 68.3823 48.9511C68.3823 47.3203 67.1279 46.0032 65.542 45.8688C65.4793 44.6323 65.3986 43.3958 65.2732 42.1504C65.1478 43.3869 65.0671 44.6234 65.0044 45.8688C63.4095 46.0122 62.1641 47.3293 62.1641 48.9511C62.1641 50.5191 63.3289 51.8093 64.8342 52.0244Z" fill="url(#paint6_linear)"/>
<defs>
<linearGradient id="paint0_linear" x1="18.792" y1="44.1839" x2="18.792" y2="67.278" gradientUnits="userSpaceOnUse">
<stop stop-color="white"/>
<stop offset="1" stop-color="#C6CBFF"/>
</linearGradient>
<linearGradient id="paint1_linear" x1="28.4181" y1="5.84215" x2="28.4181" y2="42.9465" gradientUnits="userSpaceOnUse">
<stop stop-color="white"/>
<stop offset="1" stop-color="#C6CBFF"/>
</linearGradient>
<linearGradient id="paint2_linear" x1="61.0422" y1="33.7121" x2="61.0422" y2="66.4348" gradientUnits="userSpaceOnUse">
<stop stop-color="white"/>
<stop offset="1" stop-color="#C6CBFF"/>
</linearGradient>
<linearGradient id="paint3_linear" x1="61.0406" y1="69.7613" x2="61.0406" y2="75.3884" gradientUnits="userSpaceOnUse">
<stop stop-color="white"/>
<stop offset="1" stop-color="#C6CBFF"/>
</linearGradient>
<linearGradient id="paint4_linear" x1="54.4382" y1="49.3636" x2="54.4382" y2="61.1558" gradientUnits="userSpaceOnUse">
<stop stop-color="white"/>
<stop offset="1" stop-color="#C6CBFF"/>
</linearGradient>
<linearGradient id="paint5_linear" x1="71.7468" y1="44.764" x2="71.7468" y2="47.9733" gradientUnits="userSpaceOnUse">
<stop stop-color="white"/>
<stop offset="1" stop-color="#C6CBFF"/>
</linearGradient>
<linearGradient id="paint6_linear" x1="65.2694" y1="40.3163" x2="65.2694" y2="61.8669" gradientUnits="userSpaceOnUse">
<stop stop-color="white"/>
<stop offset="1" stop-color="#C6CBFF"/>
</linearGradient>
</defs>
</svg>
