<svg width="125" height="125" viewBox="0 0 125 125" fill="none" xmlns="http://www.w3.org/2000/svg">
<path d="M65.4463 23.0015C66.9234 23.2045 68.4082 23.3663 69.8778 23.6197C73.0335 24.1616 76.0718 25.1003 79.0734 26.4802C76.9675 28.6477 74.9135 30.7603 72.8046 32.9309C56.3299 27.5121 41.775 36.6553 36.0342 47.5005C29.6998 59.4707 31.8301 74.1762 41.3965 83.6644C51.05 93.2396 65.663 95.3247 77.5642 88.9519C88.6506 83.0157 97.4052 68.3834 92.0703 52.2034C94.2296 50.1061 96.3355 48.0607 98.5055 45.9543C98.623 46.1954 98.7389 46.4076 98.8336 46.6289C100.521 50.5518 101.544 54.6396 101.869 58.8998C101.886 59.1227 101.956 59.3425 102 59.5638C102 61.1894 102 62.8135 102 64.4392C101.834 65.7183 101.715 67.0051 101.493 68.2751C99.7232 78.4456 94.7836 86.7539 86.5844 93.0061C78.0525 99.5132 68.3594 102.018 57.7293 100.629C49.9818 99.617 43.1438 96.4558 37.2992 91.2629C29.6525 84.4688 25.2423 75.9514 24.2108 65.7672C23.4203 57.9656 24.844 50.5213 28.6407 43.6509C34.7066 32.676 43.9465 25.9582 56.2918 23.5984C57.7049 23.3282 59.1439 23.1954 60.5722 23C62.1974 23.0015 63.8226 23.0015 65.4463 23.0015ZM87.5732 53.3375C87.4054 52.8552 87.1826 52.672 86.6729 52.6461C85.4322 52.5835 84.1962 52.4263 82.9556 52.3667C82.6504 52.3515 82.2582 52.4812 82.0384 52.6873C81.074 53.5863 80.1721 54.5541 79.2169 55.4638C78.8674 55.7951 78.8766 56.0805 78.9803 56.5277C79.3313 58.0282 79.7815 59.5378 79.8669 61.0627C80.4789 71.9888 70.7827 80.5887 60.0168 78.6043C53.7358 77.4473 49.347 73.7442 47.1602 67.753C44.9704 61.7527 46.0127 56.1202 50.0566 51.1822C54.5186 45.7299 61.7457 43.7608 68.4296 45.9909C68.7867 46.11 69.0934 46.2672 69.4505 45.8871C70.4073 44.8705 71.4251 43.9134 72.3911 42.906C72.5574 42.7335 72.6764 42.4221 72.6612 42.184C72.5818 40.8927 72.4201 39.6059 72.3575 38.3145C72.3316 37.791 72.1255 37.5849 71.6571 37.4216C67.1416 35.8524 62.5347 35.5075 57.8605 36.4645C43.9221 39.3189 34.9263 52.614 37.3984 66.6494C39.7744 80.1368 52.6019 89.593 66.1787 87.8636C79.2626 86.1982 89.0443 75.1363 89.0519 61.3619C89.0321 59.0295 88.5529 56.1446 87.5732 53.3375ZM91.5194 32.3524C91.3546 30.4062 91.1944 28.46 91.0357 26.5123C90.9564 25.5415 90.5047 24.818 89.5936 24.4531C88.6841 24.0883 87.8326 24.2623 87.1383 24.9538C83.9017 28.1761 80.6528 31.3877 77.4742 34.6664C77.0545 35.0984 76.792 35.8982 76.818 36.5118C76.9187 38.8412 77.1384 41.1674 77.3796 43.4891C77.4452 44.1165 77.2819 44.5118 76.847 44.9438C71.8264 49.9352 66.8273 54.9464 61.822 59.9546C61.6419 60.1347 61.4542 60.3072 61.2925 60.501C60.502 61.4504 60.5478 62.7616 61.3917 63.6119C62.2356 64.4605 63.5449 64.514 64.5001 63.7202C64.7916 63.4775 65.051 63.1951 65.3196 62.9265C70.2715 57.9748 75.2187 53.017 80.1828 48.0775C80.4209 47.8409 80.8192 47.6013 81.1259 47.6226C83.5537 47.7844 85.977 48.0592 88.4064 48.1798C89.0275 48.2103 89.847 47.9951 90.2727 47.5814C93.5887 44.3683 96.8391 41.0865 100.091 37.8078C100.758 37.1361 100.892 36.289 100.546 35.4098C100.21 34.558 99.5416 34.0894 98.6382 33.981C98.0339 33.9078 97.4266 33.8727 96.8192 33.8208C95.1071 33.6758 93.3934 33.5292 91.6522 33.3827C91.6034 32.998 91.5469 32.6775 91.5194 32.3524ZM65.2006 49.8802C59.7253 48.8896 54.3004 51.6524 51.8939 56.6544C49.5011 61.6275 50.7128 67.6141 54.8452 71.2409C59.0737 74.9501 65.1227 75.379 69.803 72.2941C74.9715 68.8856 75.9695 62.9356 74.8968 59.6142C74.6846 59.779 74.6068 60.0782 74.4191 60.2675C72.2598 62.4518 70.099 64.6346 67.9077 66.7868C66.02 68.6399 63.7585 69.2993 61.1948 68.591C56.1712 67.2035 54.4667 61.0459 58.0742 57.2757C60.2502 55.0013 62.5087 52.8079 64.7458 50.593C64.9366 50.4053 65.2357 50.3259 65.4844 50.1977C65.3883 50.0908 65.2937 49.9855 65.2006 49.8802Z" fill="url(#paint0_linear)"/>
<path d="M65.4463 23.0015C66.9234 23.2045 68.4082 23.3663 69.8778 23.6197C73.0335 24.1616 76.0718 25.1003 79.0734 26.4802C76.9675 28.6477 74.9135 30.7603 72.8046 32.9309C56.3299 27.5121 41.775 36.6553 36.0342 47.5005C29.6998 59.4707 31.8301 74.1762 41.3965 83.6644C51.05 93.2396 65.663 95.3247 77.5642 88.9519C88.6506 83.0157 97.4052 68.3834 92.0703 52.2034C94.2296 50.1061 96.3355 48.0607 98.5055 45.9543C98.623 46.1954 98.7389 46.4076 98.8336 46.6289C100.521 50.5518 101.544 54.6396 101.869 58.8998C101.886 59.1227 101.956 59.3425 102 59.5638C102 61.1894 102 62.8135 102 64.4392C101.834 65.7183 101.715 67.0051 101.493 68.2751C99.7232 78.4456 94.7836 86.7539 86.5844 93.0061C78.0525 99.5132 68.3594 102.018 57.7293 100.629C49.9818 99.617 43.1438 96.4558 37.2992 91.2629C29.6525 84.4688 25.2423 75.9514 24.2108 65.7672C23.4203 57.9656 24.844 50.5213 28.6407 43.6509C34.7066 32.676 43.9465 25.9582 56.2918 23.5984C57.7049 23.3282 59.1439 23.1954 60.5722 23C62.1974 23.0015 63.8226 23.0015 65.4463 23.0015ZM87.5732 53.3375C87.4054 52.8552 87.1826 52.672 86.6729 52.6461C85.4322 52.5835 84.1962 52.4263 82.9556 52.3667C82.6504 52.3515 82.2582 52.4812 82.0384 52.6873C81.074 53.5863 80.1721 54.5541 79.2169 55.4638C78.8674 55.7951 78.8766 56.0805 78.9803 56.5277C79.3313 58.0282 79.7815 59.5378 79.8669 61.0627C80.4789 71.9888 70.7827 80.5887 60.0168 78.6043C53.7358 77.4473 49.347 73.7442 47.1602 67.753C44.9704 61.7527 46.0127 56.1202 50.0566 51.1822C54.5186 45.7299 61.7457 43.7608 68.4296 45.9909C68.7867 46.11 69.0934 46.2672 69.4505 45.8871C70.4073 44.8705 71.4251 43.9134 72.3911 42.906C72.5574 42.7335 72.6764 42.4221 72.6612 42.184C72.5818 40.8927 72.4201 39.6059 72.3575 38.3145C72.3316 37.791 72.1255 37.5849 71.6571 37.4216C67.1416 35.8524 62.5347 35.5075 57.8605 36.4645C43.9221 39.3189 34.9263 52.614 37.3984 66.6494C39.7744 80.1368 52.6019 89.593 66.1787 87.8636C79.2626 86.1982 89.0443 75.1363 89.0519 61.3619C89.0321 59.0295 88.5529 56.1446 87.5732 53.3375ZM91.5194 32.3524C91.3546 30.4062 91.1944 28.46 91.0357 26.5123C90.9564 25.5415 90.5047 24.818 89.5936 24.4531C88.6841 24.0883 87.8326 24.2623 87.1383 24.9538C83.9017 28.1761 80.6528 31.3877 77.4742 34.6664C77.0545 35.0984 76.792 35.8982 76.818 36.5118C76.9187 38.8412 77.1384 41.1674 77.3796 43.4891C77.4452 44.1165 77.2819 44.5118 76.847 44.9438C71.8264 49.9352 66.8273 54.9464 61.822 59.9546C61.6419 60.1347 61.4542 60.3072 61.2925 60.501C60.502 61.4504 60.5478 62.7616 61.3917 63.6119C62.2356 64.4605 63.5449 64.514 64.5001 63.7202C64.7916 63.4775 65.051 63.1951 65.3196 62.9265C70.2715 57.9748 75.2187 53.017 80.1828 48.0775C80.4209 47.8409 80.8192 47.6013 81.1259 47.6226C83.5537 47.7844 85.977 48.0592 88.4064 48.1798C89.0275 48.2103 89.847 47.9951 90.2727 47.5814C93.5887 44.3683 96.8391 41.0865 100.091 37.8078C100.758 37.1361 100.892 36.289 100.546 35.4098C100.21 34.558 99.5416 34.0894 98.6382 33.981C98.0339 33.9078 97.4266 33.8727 96.8192 33.8208C95.1071 33.6758 93.3934 33.5292 91.6522 33.3827C91.6034 32.998 91.5469 32.6775 91.5194 32.3524ZM65.2006 49.8802C59.7253 48.8896 54.3004 51.6524 51.8939 56.6544C49.5011 61.6275 50.7128 67.6141 54.8452 71.2409C59.0737 74.9501 65.1227 75.379 69.803 72.2941C74.9715 68.8856 75.9695 62.9356 74.8968 59.6142C74.6846 59.779 74.6068 60.0782 74.4191 60.2675C72.2598 62.4518 70.099 64.6346 67.9077 66.7868C66.02 68.6399 63.7585 69.2993 61.1948 68.591C56.1712 67.2035 54.4667 61.0459 58.0742 57.2757C60.2502 55.0013 62.5087 52.8079 64.7458 50.593C64.9366 50.4053 65.2357 50.3259 65.4844 50.1977C65.3883 50.0908 65.2937 49.9855 65.2006 49.8802Z" fill="white"/>
<defs>
<linearGradient id="paint0_linear" x1="62.9889" y1="102.313" x2="62.9889" y2="23.9725" gradientUnits="userSpaceOnUse">
<stop stop-color="#3721A7"/>
<stop offset="1" stop-color="#803EFF"/>
</linearGradient>
</defs>
</svg>
