<svg width="125" height="125" viewBox="0 0 125 125" fill="none" xmlns="http://www.w3.org/2000/svg">
<path d="M63.9602 83.2636C61.5453 83.2636 59.2574 83.1365 57.0967 82.8823C55.9527 85.9328 54.1733 88.8562 52.1396 91.3982C56.0798 92.0337 60.1471 92.4151 64.2144 92.4151L64.0873 83.6449L63.9602 83.2636Z" fill="url(#paint0_linear)"/>
<path d="M63.9602 83.2636C61.5453 83.2636 59.2574 83.1365 57.0967 82.8823C55.9527 85.9328 54.1733 88.8562 52.1396 91.3982C56.0798 92.0337 60.1471 92.4151 64.2144 92.4151L64.0873 83.6449L63.9602 83.2636Z" fill="white"/>
<path d="M53.4116 66.4864C51.5051 57.2078 44.6415 49.7088 35.6172 46.9125C33.0751 46.1499 30.533 45.7686 27.991 45.7686C21.5087 45.7686 15.2807 48.1835 10.4507 52.505C-0.098827 62.1649 -0.861446 78.5612 8.67129 89.2378C18.204 99.9145 34.7274 100.55 45.4041 91.0173C50.8695 86.0603 53.92 79.1967 53.92 71.8247C54.0471 69.9182 53.7929 68.1387 53.4116 66.4864ZM30.6601 87.4584V89.7462C30.6601 91.1444 29.5162 92.2883 28.1181 92.2883C26.7199 92.2883 25.576 91.1444 25.576 89.7462V87.4584C21.2545 86.3145 18.3311 82.3743 18.3311 77.9257C18.3311 76.5275 19.4751 75.3836 20.8732 75.3836C22.2713 75.3836 23.4153 76.5275 23.4153 77.9257C23.4153 80.4677 25.4489 82.5014 27.991 82.5014C30.533 82.5014 32.5667 80.4677 32.5667 77.9257C32.5667 75.3836 30.533 73.3499 27.991 73.3499C23.5424 73.3499 19.6022 70.2995 18.4582 66.1051C17.0601 60.8938 20.2377 55.4284 25.4489 54.0303V52.8863C25.4489 51.4882 26.5928 50.3443 27.991 50.3443C29.3891 50.3443 30.533 51.4882 30.533 52.8863V54.0303C34.7274 55.1742 37.6508 59.1144 37.6508 63.563C37.6508 64.9611 36.5069 66.1051 35.1087 66.1051C33.7106 66.1051 32.5667 64.9611 32.5667 63.563C32.5667 61.0209 30.533 58.9873 27.991 58.9873C25.4489 58.9873 23.4153 61.0209 23.4153 63.563C23.4153 66.1051 25.4489 68.1387 27.991 68.1387C32.4396 68.1387 36.2527 71.0621 37.5237 75.2565C38.9218 80.5948 35.8714 86.0603 30.6601 87.4584Z" fill="url(#paint1_linear)"/>
<path d="M53.4116 66.4864C51.5051 57.2078 44.6415 49.7088 35.6172 46.9125C33.0751 46.1499 30.533 45.7686 27.991 45.7686C21.5087 45.7686 15.2807 48.1835 10.4507 52.505C-0.098827 62.1649 -0.861446 78.5612 8.67129 89.2378C18.204 99.9145 34.7274 100.55 45.4041 91.0173C50.8695 86.0603 53.92 79.1967 53.92 71.8247C54.0471 69.9182 53.7929 68.1387 53.4116 66.4864ZM30.6601 87.4584V89.7462C30.6601 91.1444 29.5162 92.2883 28.1181 92.2883C26.7199 92.2883 25.576 91.1444 25.576 89.7462V87.4584C21.2545 86.3145 18.3311 82.3743 18.3311 77.9257C18.3311 76.5275 19.4751 75.3836 20.8732 75.3836C22.2713 75.3836 23.4153 76.5275 23.4153 77.9257C23.4153 80.4677 25.4489 82.5014 27.991 82.5014C30.533 82.5014 32.5667 80.4677 32.5667 77.9257C32.5667 75.3836 30.533 73.3499 27.991 73.3499C23.5424 73.3499 19.6022 70.2995 18.4582 66.1051C17.0601 60.8938 20.2377 55.4284 25.4489 54.0303V52.8863C25.4489 51.4882 26.5928 50.3443 27.991 50.3443C29.3891 50.3443 30.533 51.4882 30.533 52.8863V54.0303C34.7274 55.1742 37.6508 59.1144 37.6508 63.563C37.6508 64.9611 36.5069 66.1051 35.1087 66.1051C33.7106 66.1051 32.5667 64.9611 32.5667 63.563C32.5667 61.0209 30.533 58.9873 27.991 58.9873C25.4489 58.9873 23.4153 61.0209 23.4153 63.563C23.4153 66.1051 25.4489 68.1387 27.991 68.1387C32.4396 68.1387 36.2527 71.0621 37.5237 75.2565C38.9218 80.5948 35.8714 86.0603 30.6601 87.4584Z" fill="white"/>
<path d="M63.9633 77.9252L63.8362 68.6466C62.1839 68.6466 60.6587 68.5195 59.1334 68.5195C59.2605 69.5364 59.2605 70.5532 59.2605 71.57C59.2605 73.6037 59.0063 75.6373 58.625 77.671C60.2773 77.9252 62.0568 77.9252 63.9633 77.9252Z" fill="url(#paint2_linear)"/>
<path d="M63.9633 77.9252L63.8362 68.6466C62.1839 68.6466 60.6587 68.5195 59.1334 68.5195C59.2605 69.5364 59.2605 70.5532 59.2605 71.57C59.2605 73.6037 59.0063 75.6373 58.625 77.671C60.2773 77.9252 62.0568 77.9252 63.9633 77.9252Z" fill="white"/>
<path d="M92.4343 34.8374C90.6548 35.7271 88.7483 36.4897 86.8417 37.1253C80.995 38.9047 73.2417 39.9215 65.2342 39.9215C57.608 39.9215 50.236 39.0318 44.5164 37.3795C42.6098 36.8711 40.7033 36.1084 38.9238 35.2187L39.0509 42.5907C41.9743 43.7346 44.7706 45.2599 47.1855 47.1664C47.3126 47.1664 47.3126 47.1664 47.4397 47.1664C52.3968 48.4374 58.7519 49.073 65.2342 49.073C72.7333 49.073 79.9781 48.1832 85.3165 46.5309C90.909 44.7514 92.18 42.972 92.18 42.7178C92.18 42.3365 92.18 41.9552 92.4343 41.701V34.8374Z" fill="url(#paint3_linear)"/>
<path d="M92.4343 34.8374C90.6548 35.7271 88.7483 36.4897 86.8417 37.1253C80.995 38.9047 73.2417 39.9215 65.2342 39.9215C57.608 39.9215 50.236 39.0318 44.5164 37.3795C42.6098 36.8711 40.7033 36.1084 38.9238 35.2187L39.0509 42.5907C41.9743 43.7346 44.7706 45.2599 47.1855 47.1664C47.3126 47.1664 47.3126 47.1664 47.4397 47.1664C52.3968 48.4374 58.7519 49.073 65.2342 49.073C72.7333 49.073 79.9781 48.1832 85.3165 46.5309C90.909 44.7514 92.18 42.972 92.18 42.7178C92.18 42.3365 92.18 41.9552 92.4343 41.701V34.8374Z" fill="white"/>
<path d="M38.667 28.3552C38.7941 28.9907 40.3193 30.643 45.9119 32.2954C51.2502 33.8206 57.9867 34.7103 65.2316 34.7103C72.7306 34.7103 79.9755 33.8206 85.3139 32.1683C90.9064 30.5159 92.3045 28.7365 92.3045 28.3552C92.3045 27.9738 91.0335 26.1944 85.441 24.5421C80.1026 22.8897 72.8577 22 65.3587 22C57.8596 22 50.8689 22.8897 45.5306 24.5421C39.938 26.1944 38.667 27.8467 38.667 28.3552Z" fill="url(#paint4_linear)"/>
<path d="M38.667 28.3552C38.7941 28.9907 40.3193 30.643 45.9119 32.2954C51.2502 33.8206 57.9867 34.7103 65.2316 34.7103C72.7306 34.7103 79.9755 33.8206 85.3139 32.1683C90.9064 30.5159 92.3045 28.7365 92.3045 28.3552C92.3045 27.9738 91.0335 26.1944 85.441 24.5421C80.1026 22.8897 72.8577 22 65.3587 22C57.8596 22 50.8689 22.8897 45.5306 24.5421C39.938 26.1944 38.667 27.8467 38.667 28.3552Z" fill="white"/>
<path d="M122.302 88.729C120.522 89.6187 118.743 90.3813 116.836 90.8898C110.99 92.6692 103.363 93.686 95.356 93.686C88.2382 93.686 81.2475 92.9234 75.7821 91.3982C73.4942 90.7627 71.3335 90 69.2998 88.9832L69.4269 96.4823C69.4269 96.8636 70.5708 98.643 76.0363 100.295C81.2475 101.948 88.2382 102.71 95.8644 102.71C103.363 102.71 110.481 101.821 115.692 100.168C121.158 98.3888 122.429 96.6094 122.429 96.2281V88.729H122.302Z" fill="url(#paint5_linear)"/>
<path d="M122.302 88.729C120.522 89.6187 118.743 90.3813 116.836 90.8898C110.99 92.6692 103.363 93.686 95.356 93.686C88.2382 93.686 81.2475 92.9234 75.7821 91.3982C73.4942 90.7627 71.3335 90 69.2998 88.9832L69.4269 96.4823C69.4269 96.8636 70.5708 98.643 76.0363 100.295C81.2475 101.948 88.2382 102.71 95.8644 102.71C103.363 102.71 110.481 101.821 115.692 100.168C121.158 98.3888 122.429 96.6094 122.429 96.2281V88.729H122.302Z" fill="white"/>
<path d="M92.4308 49.4541C90.6514 50.3438 88.7448 51.1064 86.8383 51.742C80.9915 53.5214 73.2382 54.5382 65.2307 54.5382C61.2906 54.5382 57.3504 54.284 53.4102 53.7756C55.5709 56.699 57.0961 60.0037 58.113 63.4354C60.4008 63.5626 62.8158 63.6897 65.2307 63.6897C65.3579 63.6897 65.3579 63.6897 65.485 63.6897C69.8065 58.9868 81.2457 56.699 92.4308 56.3177V49.4541Z" fill="url(#paint6_linear)"/>
<path d="M92.4308 49.4541C90.6514 50.3438 88.7448 51.1064 86.8383 51.742C80.9915 53.5214 73.2382 54.5382 65.2307 54.5382C61.2906 54.5382 57.3504 54.284 53.4102 53.7756C55.5709 56.699 57.0961 60.0037 58.113 63.4354C60.4008 63.5626 62.8158 63.6897 65.2307 63.6897C65.3579 63.6897 65.3579 63.6897 65.485 63.6897C69.8065 58.9868 81.2457 56.699 92.4308 56.3177V49.4541Z" fill="white"/>
<path d="M116.711 76.6542C110.864 78.3066 103.365 79.1963 95.4843 79.1963C87.8581 79.1963 80.4862 78.3066 74.7665 76.6542C72.86 76.1458 70.9534 75.3832 69.0469 74.4935L69.174 80.4673V82.6281C71.2076 85.1701 80.8675 88.3477 95.3572 88.3477C102.856 88.3477 109.974 87.458 115.312 85.8056C120.905 84.0262 122.176 82.3739 122.176 81.9926C122.176 81.7383 122.303 81.357 122.303 81.1028V74.2393C120.651 75.2561 118.744 76.0187 116.711 76.6542Z" fill="url(#paint7_linear)"/>
<path d="M116.711 76.6542C110.864 78.3066 103.365 79.1963 95.4843 79.1963C87.8581 79.1963 80.4862 78.3066 74.7665 76.6542C72.86 76.1458 70.9534 75.3832 69.0469 74.4935L69.174 80.4673V82.6281C71.2076 85.1701 80.8675 88.3477 95.3572 88.3477C102.856 88.3477 109.974 87.458 115.312 85.8056C120.905 84.0262 122.176 82.3739 122.176 81.9926C122.176 81.7383 122.303 81.357 122.303 81.1028V74.2393C120.651 75.2561 118.744 76.0187 116.711 76.6542Z" fill="white"/>
<path d="M76.2918 71.8242C81.503 73.3494 88.2395 74.112 95.4843 74.112C102.856 74.112 109.974 73.2223 115.312 71.6971C121.032 69.9176 122.43 68.1382 122.43 67.7569C122.43 67.3756 121.159 65.5961 115.567 63.9438C110.228 62.2914 102.983 61.5288 95.4843 61.5288H95.103C88.1123 61.5288 81.6301 62.2914 76.546 63.6896C71.2076 65.2148 69.3011 66.8671 69.0469 67.6298V67.7569C69.0469 67.7569 69.0469 67.7569 69.0469 67.884C69.174 68.3924 70.6992 70.1718 76.2918 71.8242Z" fill="url(#paint8_linear)"/>
<path d="M76.2918 71.8242C81.503 73.3494 88.2395 74.112 95.4843 74.112C102.856 74.112 109.974 73.2223 115.312 71.6971C121.032 69.9176 122.43 68.1382 122.43 67.7569C122.43 67.3756 121.159 65.5961 115.567 63.9438C110.228 62.2914 102.983 61.5288 95.4843 61.5288H95.103C88.1123 61.5288 81.6301 62.2914 76.546 63.6896C71.2076 65.2148 69.3011 66.8671 69.0469 67.6298V67.7569C69.0469 67.7569 69.0469 67.7569 69.0469 67.884C69.174 68.3924 70.6992 70.1718 76.2918 71.8242Z" fill="white"/>
<defs>
<linearGradient id="paint0_linear" x1="52.5442" y1="86.1499" x2="64.2833" y2="86.4003" gradientUnits="userSpaceOnUse">
<stop stop-color="#3721A7"/>
<stop offset="1" stop-color="#803EFF"/>
</linearGradient>
<linearGradient id="paint1_linear" x1="3.74079" y1="63.5806" x2="54.2578" y2="64.431" gradientUnits="userSpaceOnUse">
<stop stop-color="#3721A7"/>
<stop offset="1" stop-color="#803EFF"/>
</linearGradient>
<linearGradient id="paint2_linear" x1="58.8039" y1="71.7435" x2="63.9956" y2="71.7931" gradientUnits="userSpaceOnUse">
<stop stop-color="#3721A7"/>
<stop offset="1" stop-color="#803EFF"/>
</linearGradient>
<linearGradient id="paint3_linear" x1="40.7168" y1="39.717" x2="92.5552" y2="42.9979" gradientUnits="userSpaceOnUse">
<stop stop-color="#3721A7"/>
<stop offset="1" stop-color="#803EFF"/>
</linearGradient>
<linearGradient id="paint4_linear" x1="40.4642" y1="26.3568" x2="92.3719" y2="30.045" gradientUnits="userSpaceOnUse">
<stop stop-color="#3721A7"/>
<stop offset="1" stop-color="#803EFF"/>
</linearGradient>
<linearGradient id="paint5_linear" x1="71.08" y1="93.5214" x2="122.545" y2="96.8143" gradientUnits="userSpaceOnUse">
<stop stop-color="#3721A7"/>
<stop offset="1" stop-color="#803EFF"/>
</linearGradient>
<linearGradient id="paint6_linear" x1="54.7176" y1="54.3337" x2="92.5898" y2="56.0816" gradientUnits="userSpaceOnUse">
<stop stop-color="#3721A7"/>
<stop offset="1" stop-color="#803EFF"/>
</linearGradient>
<linearGradient id="paint7_linear" x1="70.8313" y1="79.0753" x2="122.422" y2="82.3542" gradientUnits="userSpaceOnUse">
<stop stop-color="#3721A7"/>
<stop offset="1" stop-color="#803EFF"/>
</linearGradient>
<linearGradient id="paint8_linear" x1="70.8356" y1="65.842" x2="122.494" y2="69.5321" gradientUnits="userSpaceOnUse">
<stop stop-color="#3721A7"/>
<stop offset="1" stop-color="#803EFF"/>
</linearGradient>
</defs>
</svg>
