<svg width="85" height="85" viewBox="0 0 85 85" fill="none" xmlns="http://www.w3.org/2000/svg">
<path d="M37.6634 57.5412C37.918 57.329 38.1727 57.1168 38.4697 56.8622H38.5122C38.6395 56.9046 38.8093 56.9895 38.9366 57.0319C39.1063 57.1168 39.2336 57.1593 39.4034 57.2017C39.4458 57.2441 39.4883 57.2441 39.5307 57.2866C39.9976 57.4563 40.4644 57.6261 40.9737 57.7958C41.0585 57.8383 41.1434 57.8383 41.2283 57.8807L42.5015 58.3051C42.5863 58.3051 42.6712 58.3476 42.7561 58.3476C42.7985 58.39 42.9259 58.39 43.0107 58.4324C43.2654 58.4749 43.5625 58.5598 43.8171 58.6446C43.9868 58.6871 44.1566 58.7295 44.3264 58.772C44.6659 58.8568 44.9629 58.8993 45.26 58.9841C45.3873 58.9841 45.5147 59.0266 45.5995 59.069H45.6844C45.9815 59.1539 46.2786 59.1963 46.5332 59.2388C46.703 59.2812 46.8727 59.2812 47.0425 59.3237C47.382 59.4085 47.7639 59.451 48.1459 59.4934C48.2308 59.4934 48.2732 59.5359 48.3157 59.5359C48.3581 59.5359 48.3581 59.5359 48.3581 59.5359C48.7825 59.5783 49.2069 59.6207 49.6737 59.7056C49.7586 59.7056 49.8859 59.7056 49.9708 59.7481C50.3103 59.7481 50.6498 59.7905 50.9893 59.8329C51.0318 59.8329 51.0318 59.8329 51.0318 59.8329C51.1591 59.8329 51.3288 59.8329 51.4986 59.8754C51.7532 59.8754 52.0503 59.8754 52.3474 59.9178H52.8991C53.1537 59.9603 53.4084 59.9603 53.663 60.0027H55.6152C55.8698 60.0027 56.1245 60.0027 56.4216 59.9603H56.5913C56.6762 59.9603 56.8035 59.9178 56.9308 59.9178C57.2279 59.9178 57.5674 59.9178 57.8645 59.8754H58.4162C58.7133 59.8329 59.0104 59.7905 59.3074 59.7905C59.3923 59.7905 59.5196 59.7905 59.6045 59.7481H59.8167C60.2835 59.7056 60.7504 59.6207 61.1748 59.5783C61.3021 59.5359 61.3445 59.5359 61.4294 59.5359C61.9387 59.451 62.4904 59.4085 62.9996 59.2812H63.127C63.2967 59.2388 63.424 59.1963 63.5514 59.1963C63.7636 59.1539 64.0182 59.1115 64.2728 59.0266C64.485 58.9841 64.6548 58.9417 64.867 58.9417C65.0792 58.8568 65.3338 58.8144 65.546 58.7295C65.7582 58.6871 65.928 58.6446 66.1402 58.6022C66.3523 58.5598 66.607 58.4749 66.8192 58.4324C66.9889 58.39 67.2011 58.3051 67.3709 58.2627C67.6255 58.1778 67.8377 58.1354 68.0499 58.0505C68.1348 58.0505 68.2621 58.008 68.347 57.9656C68.4319 57.9656 68.4743 57.9232 68.5592 57.8807C68.9411 57.7534 69.3655 57.6261 69.7475 57.4563C69.8324 57.4563 69.9173 57.4139 70.0021 57.4139C70.469 57.2017 70.9358 57.0319 71.3602 56.8197C71.4875 56.7773 71.6148 56.7349 71.7421 56.65C72.0817 56.5227 72.4212 56.3529 72.7607 56.1832C72.8456 56.1407 73.0153 56.0558 73.1002 56.0134H73.1426C73.3973 55.8436 73.6944 55.7163 73.949 55.5466C74.1187 55.4617 74.2461 55.4193 74.4158 55.3344C74.5007 55.2495 74.5856 55.1646 74.7129 55.1222C74.8402 55.0797 74.9251 54.9949 75.01 54.91C75.1797 54.8251 75.3495 54.7402 75.5192 54.6129C75.689 54.528 75.8163 54.4007 75.9861 54.3158C76.1134 54.1885 76.2832 54.1036 76.4529 53.9763C76.5802 53.8914 76.7075 53.7641 76.8349 53.6792C77.0046 53.5944 77.1319 53.467 77.3017 53.3397C77.3866 53.2124 77.5139 53.1275 77.6412 53.0427C77.7685 52.9153 77.9383 52.788 78.0656 52.7031C78.108 52.6183 78.1929 52.5758 78.2354 52.5334L78.5324 52.2363C78.5749 52.1939 78.6173 52.1514 78.6173 52.1514C78.8295 51.9392 79.0417 51.727 79.2115 51.5573C79.2539 51.4724 79.2963 51.43 79.3388 51.3875C79.5085 51.2178 79.6359 51.048 79.7632 50.8358C79.8056 50.8358 79.8481 50.7934 79.8905 50.7509L79.9329 50.7085C79.9754 50.6236 80.0178 50.5387 80.0602 50.4963C80.23 50.3265 80.3573 50.1568 80.4422 49.9446C80.5271 49.8597 80.612 49.7748 80.6544 49.6475C80.7817 49.5202 80.8666 49.3504 80.9515 49.1807C80.9939 49.1382 80.9939 49.0958 81.0364 49.0534C81.0788 48.9685 81.1212 48.926 81.1637 48.8412C81.2061 48.7138 81.291 48.5441 81.3759 48.4168C81.4183 48.3319 81.4607 48.2046 81.5032 48.0773C81.5881 47.9499 81.6305 47.8226 81.7154 47.6529C81.7154 47.6104 81.7578 47.5255 81.7578 47.4831C81.8003 47.3982 81.8003 47.3558 81.8427 47.3133C81.8851 47.186 81.8851 47.0587 81.97 46.9314C82.0125 46.8041 82.0125 46.6768 82.0549 46.5494C82.0973 46.4221 82.1398 46.2948 82.1398 46.125C82.1822 46.0826 82.1822 45.9977 82.1822 45.9129C82.2246 45.8704 82.2246 45.828 82.2246 45.7855C82.2671 45.6158 82.2671 45.4885 82.3095 45.3611C82.3095 45.2338 82.352 45.1489 82.352 44.9792C82.352 44.8519 82.352 44.7245 82.3944 44.5972V44.088L82.4368 36.5762V36.4065C82.4368 32.2474 79.7207 28.1308 74.2885 25.0327C66.8616 20.7464 56.3367 19.4307 47 21.001L44.199 18.1576C41.3132 15.1868 36.4327 14.1258 30.3214 15.781C18.2686 19.0063 5.9188 31.3562 2.73586 43.3665C1.1656 49.3504 2.18415 54.1036 5.07002 56.9895L5.32465 57.2441L10.4598 62.4217C13.3457 65.35 18.1838 66.3261 24.2526 64.7135C24.5921 64.5861 24.974 64.5013 25.3136 64.3739C25.4409 64.3315 25.5682 64.2891 25.6955 64.2466C25.9501 64.2042 26.1623 64.1193 26.417 64.0344C26.5443 63.9495 26.7141 63.9071 26.8414 63.8647C27.0536 63.7798 27.3082 63.6949 27.5204 63.61C27.6477 63.5676 27.8175 63.4827 27.9448 63.4403C28.1146 63.3554 28.2419 63.313 28.4116 63.2281C28.4541 63.2281 28.4965 63.1856 28.5389 63.1856C29.0058 62.9734 29.4726 62.7612 29.9394 62.5066C30.0243 62.4642 30.0668 62.4642 30.1516 62.4217C30.3638 62.2944 30.576 62.2095 30.7458 62.0822C31.9765 63.3554 33.5468 64.5861 35.4141 65.6896C35.7536 65.8593 36.0931 66.0291 36.3902 66.1988C36.5175 66.2837 36.6448 66.3261 36.7722 66.411C36.9844 66.4959 37.1966 66.6232 37.4512 66.7505C37.5785 66.793 37.7058 66.8779 37.8331 66.9203C38.0878 67.0476 38.3 67.1325 38.5122 67.2174C38.6395 67.3023 38.8093 67.3447 38.9366 67.3871C39.1063 67.472 39.2336 67.5144 39.4034 67.5993C39.4458 67.5993 39.4883 67.5993 39.5307 67.6418C40.04 67.8115 40.5068 67.9813 40.9737 68.151C41.0585 68.1935 41.1434 68.2359 41.2283 68.2359C41.6527 68.3632 42.0771 68.533 42.5015 68.6179C42.5863 68.6603 42.6712 68.6603 42.7561 68.7027C42.7985 68.7452 42.9259 68.7452 43.0107 68.7876C43.2654 68.8725 43.5625 68.9149 43.8171 68.9998C44.0293 69.0423 44.1566 69.0847 44.3688 69.1271C44.6659 69.212 44.9629 69.2545 45.26 69.3393C45.3873 69.3818 45.5147 69.3818 45.642 69.4242C45.642 69.4242 45.6844 69.4242 45.7269 69.4242C45.9815 69.5091 46.2786 69.5515 46.5756 69.594C46.7454 69.6364 46.8727 69.6789 47.0425 69.6789C47.382 69.7637 47.7639 69.8062 48.1883 69.8486C48.2308 69.8486 48.2732 69.891 48.3581 69.891C48.7825 69.9759 49.2493 70.0184 49.6737 70.0608C49.7586 70.0608 49.8859 70.0608 49.9708 70.1032C50.3103 70.1032 50.6498 70.1457 51.0318 70.1881C51.2015 70.2306 51.3288 70.2306 51.4986 70.2306C51.7532 70.2306 52.0503 70.273 52.3474 70.273C52.5171 70.273 52.6869 70.3154 52.8991 70.3154H53.7479C53.8752 70.3579 54.045 70.3154 54.1723 70.3579H55.6152C55.8698 70.3154 56.1669 70.3154 56.4216 70.3154H56.9308C57.2703 70.273 57.5674 70.273 57.8645 70.273C58.0767 70.2306 58.2464 70.2306 58.4162 70.2306C58.7133 70.1881 59.0104 70.1457 59.3074 70.1457C59.3923 70.1457 59.5196 70.1032 59.6469 70.1032H59.8591C60.2835 70.0608 60.7504 69.9759 61.2172 69.9335C61.3021 69.9335 61.3445 69.9335 61.4294 69.891C61.9811 69.8062 62.4904 69.7637 62.9996 69.6789C63.0421 69.6364 63.0845 69.6364 63.127 69.6364C63.2967 69.594 63.424 69.5515 63.5514 69.5515C63.806 69.5091 64.0182 69.4667 64.2728 69.4242C64.485 69.3818 64.6548 69.3393 64.867 69.2545C65.0792 69.212 65.3338 69.1696 65.546 69.1271C65.7582 69.0847 65.9704 69.0423 66.1402 68.9574C66.3523 68.9149 66.607 68.8301 66.8192 68.7876C66.9889 68.7452 67.2011 68.6603 67.4133 68.6179C67.6255 68.5754 67.8377 68.4906 68.0499 68.4481C68.1348 68.3632 68.2621 68.3632 68.347 68.3208C68.4319 68.3208 68.4743 68.2784 68.5592 68.2784C68.9836 68.1086 69.3655 67.9813 69.7475 67.8115C69.8324 67.8115 69.9173 67.7691 70.0021 67.7266C70.469 67.5993 70.9358 67.3871 71.3602 67.1749C71.5299 67.1325 71.6148 67.0901 71.7421 67.0476C72.0817 66.8779 72.4212 66.7081 72.7607 66.5383C72.888 66.4959 73.0153 66.4535 73.1426 66.3686C73.1426 66.3686 73.1426 66.3686 73.1426 66.3261C73.3973 66.1988 73.6944 66.0715 73.949 65.9018C74.1187 65.8593 74.2461 65.732 74.4158 65.6896C74.5007 65.6047 74.628 65.5622 74.7553 65.4774C74.8402 65.3925 74.9251 65.35 75.0524 65.3076C75.1797 65.1803 75.3919 65.0954 75.5617 64.9681C75.689 64.8832 75.8588 64.7559 75.9861 64.671C76.1558 64.5437 76.2832 64.4588 76.4529 64.3739C76.5802 64.2466 76.7075 64.1617 76.8349 64.0344C77.0046 63.9071 77.1319 63.8222 77.3017 63.6949C77.429 63.61 77.5139 63.4827 77.6836 63.3554C77.811 63.2705 77.9383 63.1432 78.0656 63.0159C78.108 62.9734 78.1929 62.931 78.2354 62.8886C78.3202 62.8037 78.4476 62.7188 78.5324 62.6339C78.5324 62.5915 78.5324 62.5915 78.5324 62.5915C78.5749 62.549 78.6173 62.5066 78.6597 62.5066C78.8295 62.2944 79.0417 62.0822 79.2115 61.87C79.2539 61.8276 79.3388 61.7851 79.3388 61.7427C79.5085 61.5729 79.6783 61.4032 79.8056 61.2334C79.8056 61.191 79.8481 61.1486 79.8905 61.1061C79.9329 61.0637 79.9329 61.0637 79.9329 61.0637C79.9754 60.9788 80.0178 60.9364 80.0602 60.8515C80.23 60.6817 80.3573 60.512 80.4422 60.3422C80.5271 60.2149 80.612 60.13 80.6544 60.0451C80.7817 59.8754 80.8666 59.7056 80.9515 59.5359C80.9939 59.4934 80.9939 59.451 81.0788 59.4085C81.0788 59.3237 81.1212 59.2812 81.1637 59.1963C81.2061 59.069 81.291 58.9417 81.3759 58.772C81.4183 58.6871 81.4607 58.5598 81.5032 58.4324C81.5881 58.3051 81.6729 58.1778 81.7154 58.008C81.7154 57.9656 81.7578 57.8807 81.8003 57.8383C81.8003 57.7959 81.8003 57.711 81.8427 57.6685C81.8851 57.5412 81.9276 57.4139 81.97 57.2866C82.0125 57.1593 82.0549 57.0319 82.0549 56.9046C82.0973 56.7773 82.1398 56.65 82.1822 56.5227C82.1822 56.4378 82.1822 56.3529 82.2246 56.3105C82.2246 56.2256 82.2671 56.1832 82.2671 56.1407L82.3095 55.7163C82.352 55.6314 82.352 55.4617 82.352 55.3768C82.352 55.2071 82.3944 55.0797 82.3944 54.9524V54.4856L82.4368 47.1012C82.3944 47.1436 82.3944 47.186 82.3944 47.2285V47.6953C82.352 47.8226 82.352 47.9075 82.352 48.0348L82.2671 48.4168V48.629C82.2246 48.6714 82.2246 48.7138 82.1822 48.7987C82.1822 48.926 82.1398 49.0109 82.0973 49.1382C82.0973 49.308 82.0549 49.4353 81.97 49.6051C81.97 49.7324 81.8851 49.8597 81.8427 49.9446C81.8003 50.0719 81.7578 50.1992 81.7154 50.2841C81.6729 50.4539 81.5881 50.5812 81.5456 50.7509C81.5032 50.8358 81.4607 50.9631 81.4183 51.0904C81.3334 51.1753 81.291 51.3026 81.2485 51.3875C81.2061 51.43 81.1637 51.4724 81.1637 51.5148C81.0788 51.6846 80.9515 51.8544 80.8666 52.0241C80.8242 52.0665 80.7817 52.1939 80.7393 52.2363C80.6968 52.3212 80.6544 52.4061 80.5695 52.4909C80.5695 52.5334 80.5271 52.5758 80.4846 52.6183C80.3573 52.788 80.2724 52.9153 80.1027 53.1275C80.1027 53.17 80.0602 53.2124 80.0178 53.2548C79.9754 53.3397 79.8905 53.4246 79.8056 53.5095C79.6783 53.6792 79.5085 53.8914 79.3812 54.0188C79.3812 54.0612 79.3812 54.0612 79.3388 54.0612L79.2539 54.1885L78.5324 54.91C78.3627 55.0797 78.2354 55.1646 78.108 55.3344C77.9807 55.4193 77.811 55.5466 77.6836 55.6739C77.6836 55.6739 77.6412 55.7163 77.5988 55.7588C77.429 55.8861 77.2593 56.0134 77.0895 56.1407C77.0471 56.2256 76.9622 56.268 76.8773 56.3105C76.75 56.4378 76.6227 56.5227 76.4953 56.65C76.4529 56.65 76.368 56.6924 76.3256 56.7773C76.2831 56.7773 76.2831 56.7773 76.2407 56.8197C76.1558 56.8622 76.1134 56.9046 75.9861 56.9471C75.8588 57.0744 75.7314 57.1593 75.5617 57.2441C75.5192 57.2866 75.4344 57.329 75.3919 57.3715C75.1797 57.4988 74.9675 57.6261 74.7553 57.7534C74.6705 57.8383 74.5431 57.8807 74.4158 57.9656C74.1612 58.0929 73.9065 58.2627 73.6519 58.39C73.5246 58.4749 73.3124 58.5598 73.1426 58.6446C73.0153 58.7295 72.9304 58.772 72.8031 58.8568C72.6334 58.8993 72.4636 58.9842 72.2514 59.1115C71.9968 59.2388 71.6997 59.3237 71.4026 59.4934C71.148 59.5783 70.8934 59.7056 70.5963 59.8329C70.4265 59.8754 70.2992 59.9178 70.1294 60.0027C70.087 60.0027 70.087 60.0451 70.0446 60.0451C69.9597 60.0876 69.8748 60.0876 69.7899 60.13C69.5777 60.2149 69.408 60.2998 69.1958 60.3422C69.1109 60.3846 69.026 60.3846 68.9411 60.4271C68.8563 60.4695 68.7289 60.512 68.6016 60.5544C68.5168 60.5968 68.4319 60.5968 68.347 60.6393C68.2621 60.6393 68.1772 60.6817 68.0924 60.7242C68.0075 60.7242 67.8802 60.7666 67.7528 60.809C67.668 60.8515 67.5406 60.8939 67.4133 60.9364C67.2436 60.9788 67.0738 61.0212 66.8616 61.0637C66.225 61.2759 65.546 61.4032 64.867 61.5729C64.6972 61.6154 64.485 61.6578 64.3153 61.7003C64.1879 61.7427 64.0606 61.7427 63.9758 61.7851C63.8484 61.7851 63.7211 61.8276 63.5938 61.8276C63.3816 61.87 63.2118 61.9125 63.0421 61.9549H62.8299C62.6177 62.0398 62.4055 62.0398 62.1933 62.0822C61.9811 62.1247 61.7265 62.1671 61.5567 62.1671H61.4718C61.387 62.2095 61.3021 62.2095 61.2596 62.2095C61.1323 62.2095 61.005 62.252 60.8777 62.252C60.7928 62.252 60.6655 62.252 60.5382 62.2944L60.1562 62.3793C59.8591 62.3793 59.5621 62.4217 59.265 62.4217C59.0528 62.4642 58.8406 62.4642 58.6284 62.5066C58.3738 62.5066 58.1191 62.549 57.9069 62.549H57.3977C57.1006 62.5915 56.8035 62.5915 56.5064 62.6339C56.464 62.6339 56.464 62.6339 56.464 62.6339H53.7054C53.2811 62.6339 52.8142 62.5915 52.3474 62.549H52.1352C52.0079 62.549 51.8381 62.549 51.6684 62.5066C51.4562 62.5066 51.244 62.5066 51.0318 62.4642C50.6923 62.4642 50.3527 62.4217 50.0132 62.3793C49.9283 62.3793 49.801 62.3793 49.7161 62.3369C49.4615 62.3369 49.2918 62.2944 49.0371 62.252C48.8249 62.252 48.6127 62.2095 48.4005 62.1671H48.1883C48.0186 62.1247 47.9337 62.1247 47.7639 62.0822C47.5517 62.0398 47.2971 62.0398 47.0425 61.9549C46.9152 61.9125 46.7454 61.9125 46.5756 61.87C46.4483 61.87 46.321 61.8276 46.1937 61.8276C46.0239 61.7851 45.8966 61.7427 45.7269 61.7427C45.5995 61.6578 45.4298 61.6578 45.3025 61.6154C45.1327 61.5729 45.0054 61.5729 44.8356 61.5305C44.7932 61.5305 44.7932 61.5305 44.7932 61.5305C44.4961 61.4456 44.1566 61.3607 43.8595 61.2759C43.7746 61.2759 43.6473 61.2334 43.52 61.191C43.3927 61.1486 43.2654 61.1061 43.1381 61.0637H43.0956C43.0107 61.0212 42.9259 61.0212 42.7985 60.9788C42.7137 60.9788 42.6288 60.9364 42.5864 60.9364C42.4166 60.8939 42.2893 60.8515 42.1195 60.809C41.8224 60.7242 41.5678 60.6393 41.2707 60.512C41.1859 60.512 41.101 60.4695 41.0161 60.4271C40.9737 60.4271 40.9312 60.4271 40.8463 60.3846C40.4219 60.2149 39.9976 60.0876 39.5732 59.9178C38.8517 59.6207 38.1302 59.3237 37.4936 59.0266H37.4512C37.3663 58.9841 37.239 58.8993 37.1117 58.8568C37.0268 58.772 36.8995 58.7295 36.7722 58.6871C36.6448 58.6022 36.56 58.5598 36.4751 58.4749C36.8146 58.1778 37.1117 57.9656 37.4088 57.711C37.4936 57.6685 37.5785 57.5837 37.6634 57.5412ZM46.8727 47.568C47 47.3558 47.1698 47.1436 47.2971 46.9314C47.382 46.7616 47.5093 46.5919 47.5942 46.4221C47.7215 46.2524 47.8488 46.0402 47.9761 45.828C48.1035 45.6582 48.1883 45.4885 48.2732 45.3187C48.4005 45.1065 48.5278 44.8943 48.6552 44.6821C48.74 44.5124 48.8249 44.3426 48.9522 44.1728C49.0371 43.9606 49.1644 43.7484 49.2493 43.5787C49.3342 43.4514 49.3766 43.3665 49.4191 43.2816C49.4615 43.2392 49.4615 43.1543 49.504 43.1119C49.7161 42.7299 49.8859 42.348 50.0557 41.966C50.0981 41.8811 50.1405 41.7962 50.183 41.7114C50.183 41.6689 50.183 41.6265 50.2254 41.584C51.0318 41.7538 51.8806 41.8387 52.6869 41.7962C54.342 41.7114 55.9547 41.2021 57.525 40.3109C58.5011 39.7167 59.1801 39.165 59.5621 38.6133C59.944 38.104 60.1138 37.5948 60.0713 37.1279C59.9865 36.7035 59.7743 35.9821 59.3074 34.9211C58.7557 33.6903 58.5011 32.9264 58.5435 32.5869C58.5011 32.2898 58.883 31.9079 59.5621 31.5259C59.9865 31.2713 60.326 31.144 60.7079 31.1015C61.0474 31.0591 61.3445 31.1015 61.5991 31.2713C61.9387 31.4835 62.0235 31.6533 61.8962 31.8654C61.7689 32.0352 61.3021 32.3747 60.5382 32.8415L59.8167 33.2659L64.2304 35.8123C64.6123 35.6001 64.9094 35.4728 65.1216 35.3455C66.3948 34.5816 67.0738 33.8177 67.1163 33.0113C67.2011 32.1625 66.607 31.3137 65.4187 30.4225L66.8616 29.6162L64.8245 28.4279L63.3816 29.2342C61.7265 28.4703 60.1562 28.0884 58.6284 28.0884C57.143 28.1308 55.7425 28.5127 54.4269 29.2767C53.5357 29.7859 52.8991 30.3376 52.5171 30.9742V30.8469C52.5171 30.6347 52.4747 30.3801 52.4747 30.1679V30.0406C52.4323 29.9981 52.4323 29.9981 52.4323 29.9557V29.701C52.3898 29.4888 52.3474 29.2767 52.3049 29.0645C52.3049 28.9371 52.2625 28.8523 52.2201 28.7249C52.1776 28.5127 52.1776 28.343 52.0928 28.1732C52.0928 28.1308 52.0927 28.0459 52.0503 28.0035C52.0503 27.9186 52.0079 27.8762 52.0079 27.7913C51.9654 27.664 51.923 27.4942 51.8806 27.3669C51.8381 27.2396 51.7532 27.1122 51.7108 26.9849C51.6684 26.8576 51.6259 26.7303 51.541 26.5605C51.541 26.5181 51.4986 26.4332 51.4986 26.3908C51.4562 26.3483 51.4137 26.2635 51.4137 26.221C51.3288 26.0937 51.2864 25.9664 51.2015 25.8391C51.1591 25.7542 51.0742 25.6269 51.0318 25.4996C50.9469 25.4147 50.9044 25.2874 50.8196 25.16C50.7771 25.1176 50.7771 25.0752 50.7347 25.0752C52.0927 24.9054 53.4084 24.863 54.7664 24.863C61.3445 24.863 67.7104 26.3483 72.2514 28.9796C72.4636 29.1069 72.6758 29.2342 72.9304 29.404C73.1002 29.4888 73.3124 29.6586 73.5246 29.7859C73.6944 29.9132 73.9065 30.0406 74.1187 30.1679C74.2885 30.3376 74.4583 30.4225 74.5856 30.5923C74.628 30.5923 74.6705 30.6347 74.7129 30.6347C74.7978 30.7196 74.9251 30.8469 75.01 30.9318C75.0949 30.9742 75.1797 31.0591 75.2646 31.144C75.3495 31.1864 75.4344 31.2713 75.4768 31.3562C75.6041 31.4411 75.689 31.5259 75.7739 31.6108C75.9436 31.7806 76.0709 31.9079 76.1983 32.0776C76.2831 32.1625 76.3256 32.205 76.4105 32.3323C76.4953 32.3747 76.5378 32.4596 76.5802 32.502C76.7075 32.6294 76.75 32.7142 76.8349 32.7991C76.8773 32.884 76.8773 32.9264 76.9197 32.9264C77.0471 33.0537 77.0895 33.1811 77.1744 33.3084C77.3017 33.4357 77.3441 33.563 77.429 33.6903C77.429 33.7328 77.4715 33.7752 77.4715 33.7752C77.5563 33.945 77.6412 34.1147 77.7261 34.242C78.0232 34.8786 78.2354 35.5152 78.2778 36.1518C78.3202 36.364 78.3202 36.5762 78.3202 36.7884C78.3202 39.4621 76.1558 42.2631 72.3787 44.4699C67.8377 47.1012 61.5143 48.5865 54.9786 48.5865C54.9786 48.5865 54.9786 48.5865 54.9362 48.5865C52.1352 48.5865 49.3342 48.3319 46.7454 47.7802C46.7878 47.6953 46.8303 47.6104 46.8727 47.568ZM33.3346 46.125C33.3346 46.125 33.3346 46.125 33.2921 46.125C28.6663 50.7509 23.1067 54.1885 18.0564 55.5466C13.7276 56.7349 10.1627 56.268 8.21053 54.3583C8.08321 54.231 7.95589 54.0612 7.82857 53.8914C7.74369 53.7641 7.65881 53.6792 7.57394 53.5519C7.57394 53.5095 7.5315 53.5095 7.48906 53.467C7.44662 53.3397 7.36174 53.2124 7.27686 53.0851C7.19198 52.9578 7.14954 52.788 7.06467 52.6183C6.97979 52.4485 6.93735 52.3212 6.89491 52.1514C6.81003 52.0241 6.76759 51.8544 6.72515 51.6846C6.68271 51.5573 6.64027 51.43 6.64027 51.3026C6.38564 50.2417 6.3432 49.0109 6.47051 47.6529V47.3558C6.59783 46.507 6.76759 45.6158 6.97979 44.6821C8.33784 39.6743 11.7754 34.1147 16.4013 29.4888C21.0272 24.8205 26.5867 21.3829 31.6795 20.0249C31.9341 19.9824 32.1463 19.8976 32.4009 19.8551C32.6556 19.8127 32.9102 19.7278 33.1224 19.6854C33.377 19.6429 33.5892 19.6005 33.8439 19.6005C34.0561 19.5581 34.2683 19.5156 34.4804 19.5156C34.4804 19.4732 34.5229 19.4732 34.5653 19.4732C34.7351 19.4732 34.8624 19.4732 34.9897 19.4307H35.6263C35.7961 19.3883 35.8809 19.3883 36.0507 19.3883C36.2205 19.3883 36.4327 19.3883 36.6448 19.4307H36.9844C37.0692 19.4307 37.1541 19.4307 37.239 19.4732C37.3663 19.4732 37.4936 19.4732 37.621 19.5156H37.7907C37.918 19.5581 38.0878 19.6005 38.2151 19.6005C38.3849 19.6429 38.5122 19.6854 38.6819 19.7278C38.6819 19.7278 38.7244 19.7278 38.7668 19.7278C38.9366 19.7703 39.1063 19.8551 39.2761 19.8976C39.9127 20.1098 40.5068 20.4493 41.0161 20.8312C41.1859 20.9586 41.3556 21.0859 41.4829 21.2556C43.3927 23.123 43.8171 26.6454 42.7137 30.8893C41.3556 35.9396 37.9605 41.4992 33.3346 46.125Z" fill="url(#paint0_linear)"/>
<path d="M27.9057 25.8818L28.3301 24.3115L26.0384 24.9481L25.614 26.5184C23.874 27.155 22.5159 28.0037 21.455 29.0647C20.394 30.1257 19.6725 31.3989 19.2906 32.8418C19.0359 33.8604 18.9935 34.7091 19.1632 35.3882C19.333 36.0672 19.6301 36.5765 20.0545 36.8736C20.4789 37.1706 21.3276 37.595 22.5584 38.1467C23.3223 38.4438 23.7042 38.8258 23.7467 39.2926C23.7891 39.717 23.6618 40.4809 23.3647 41.5843C23.2374 42.0087 23.0677 42.3907 22.8555 42.6453C22.6433 42.8999 22.3462 43.0697 22.0067 43.197C21.6247 43.2819 21.4125 43.197 21.4125 42.8999C21.4125 42.6029 21.5823 41.7965 21.9218 40.4809L22.2613 39.2926L17.2959 40.6082L17.0413 41.5419C16.4471 43.7487 16.532 45.1492 17.2959 45.7434C18.0598 46.38 19.0784 46.5497 20.3515 46.3375L19.8423 48.2473L22.134 47.6531L22.6433 45.7858C24.3833 45.1068 25.8262 44.1307 26.9296 42.8999C28.0331 41.6692 28.8394 40.1838 29.3062 38.4438C29.6033 37.3404 29.6882 36.4916 29.5609 35.8126C29.4335 35.176 29.1789 34.7516 28.8394 34.4545C28.4999 34.1999 27.7784 33.8179 26.7174 33.3935C25.4867 32.8843 24.7652 32.5447 24.5106 32.2901C24.2984 32.0779 24.2984 31.6111 24.5106 30.8472C24.6379 30.3803 24.8077 29.9984 25.0199 29.7438C25.2321 29.4467 25.4867 29.2769 25.7838 29.192C26.1657 29.1072 26.3779 29.1496 26.4204 29.4042C26.4628 29.6589 26.3779 30.2106 26.1233 31.0594L25.9111 31.8657L30.834 30.5501C30.9614 30.1257 31.0887 29.8286 31.1311 29.6164C31.5131 28.1735 31.4706 27.1125 30.9189 26.5184C30.3672 25.8818 29.3487 25.6696 27.9057 25.8818Z" fill="url(#paint1_linear)"/>
<defs>
<linearGradient id="paint0_linear" x1="42.1694" y1="10.2045" x2="42.1694" y2="66.5508" gradientUnits="userSpaceOnUse">
<stop stop-color="white"/>
<stop offset="1" stop-color="#C6CBFF"/>
</linearGradient>
<linearGradient id="paint1_linear" x1="24.0075" y1="22.238" x2="24.0075" y2="46.6012" gradientUnits="userSpaceOnUse">
<stop stop-color="white"/>
<stop offset="1" stop-color="#C6CBFF"/>
</linearGradient>
</defs>
</svg>
