<svg width="125" height="125" viewBox="0 0 125 125" fill="none" xmlns="http://www.w3.org/2000/svg">
<path d="M101.918 64.2336C101.918 64.5385 101.918 64.8419 101.918 65.1468C101.875 65.3175 101.808 65.4852 101.793 65.6575C101.419 69.7768 100.4 73.7314 98.7363 77.5167C92.065 92.6963 76.454 102.412 59.1202 100.708C50.9442 99.9043 43.622 96.8857 37.5193 91.367C25.8659 80.831 21.6644 67.7217 25.2333 52.4567C28.6543 37.832 40.3732 26.8311 55.0604 23.7607C56.6154 23.436 58.1994 23.25 59.7712 23C60.0761 23 60.3795 23 60.6844 23C60.6844 27.63 60.6844 32.2584 60.6844 36.8792C46.389 38.2467 36.7677 51.1578 37.995 64.1833C39.0164 75.015 47.3189 85.3192 60.2087 86.8498C65.9287 87.5298 71.3316 86.3269 76.2039 83.2337C83.1557 78.8202 87.0341 72.4126 88.019 64.2351C92.6931 64.2336 97.3048 64.2336 101.918 64.2336Z" fill="url(#paint0_linear)"/>
<path d="M101.918 64.2336C101.918 64.5385 101.918 64.8419 101.918 65.1468C101.875 65.3175 101.808 65.4852 101.793 65.6575C101.419 69.7768 100.4 73.7314 98.7363 77.5167C92.065 92.6963 76.454 102.412 59.1202 100.708C50.9442 99.9043 43.622 96.8857 37.5193 91.367C25.8659 80.831 21.6644 67.7217 25.2333 52.4567C28.6543 37.832 40.3732 26.8311 55.0604 23.7607C56.6154 23.436 58.1994 23.25 59.7712 23C60.0761 23 60.3795 23 60.6844 23C60.6844 27.63 60.6844 32.2584 60.6844 36.8792C46.389 38.2467 36.7677 51.1578 37.995 64.1833C39.0164 75.015 47.3189 85.3192 60.2087 86.8498C65.9287 87.5298 71.3316 86.3269 76.2039 83.2337C83.1557 78.8202 87.0341 72.4126 88.019 64.2351C92.6931 64.2336 97.3048 64.2336 101.918 64.2336Z" fill="white"/>
<path d="M62.973 82.4622C51.6733 82.4134 42.4347 73.1596 42.4561 61.9117C42.479 50.5831 51.777 41.3292 63.0645 41.3978C74.4115 41.468 83.5616 50.6669 83.5205 61.9651C83.4808 73.277 74.224 82.5095 62.973 82.4622ZM60.6954 49.1714C60.6954 50.1562 60.6634 51.0648 60.7076 51.9688C60.732 52.4796 60.5795 52.7296 60.0826 52.9018C58.6709 53.3927 57.593 54.2983 56.8308 55.6063C55.2544 58.3108 56.1844 61.5428 59.023 62.8402C60.1664 63.3631 61.4104 63.6634 62.5934 64.1025C63.4655 64.4272 64.368 64.7275 65.15 65.2108C65.4778 65.4136 65.7019 66.0767 65.6592 66.499C65.6242 66.8344 65.1455 67.3314 64.8055 67.3863C63.8984 67.5326 62.938 67.6119 62.037 67.4732C60.3036 67.2064 58.712 66.4883 57.2195 65.4715C56.5807 66.7429 55.9618 67.9763 55.2407 69.4108C56.7728 69.9902 58.1769 70.635 59.6481 71.0344C60.5064 71.2677 60.8052 71.5726 60.7152 72.44C60.6329 73.2358 60.6969 74.0454 60.6969 74.8793C62.2565 74.8793 63.7322 74.8793 65.2766 74.8793C65.2766 73.6932 65.2766 72.5635 65.2766 71.4674C65.8803 71.2799 66.4184 71.1335 66.9414 70.9475C68.9507 70.2341 70.2999 68.4199 70.4096 66.3084C70.5377 63.8448 69.6398 62.1297 67.5146 61.2013C66.1074 60.5869 64.5982 60.2134 63.1438 59.7027C62.4806 59.4695 61.7793 59.2606 61.2031 58.8779C60.2594 58.2514 60.4332 56.9037 61.4958 56.5226C62.0492 56.3244 62.6834 56.2527 63.2749 56.2802C64.9869 56.361 66.484 57.0958 67.9735 57.9998C68.6031 56.8107 69.2236 55.6384 69.934 54.2968C68.5162 53.7617 67.2081 53.2372 65.8757 52.7829C65.4199 52.6274 65.2263 52.4567 65.2507 51.9521C65.2964 51.0282 65.2629 50.1028 65.2629 49.1714C63.6941 49.1714 62.2519 49.1714 60.6954 49.1714Z" fill="url(#paint1_linear)"/>
<path d="M62.973 82.4622C51.6733 82.4134 42.4347 73.1596 42.4561 61.9117C42.479 50.5831 51.777 41.3292 63.0645 41.3978C74.4115 41.468 83.5616 50.6669 83.5205 61.9651C83.4808 73.277 74.224 82.5095 62.973 82.4622ZM60.6954 49.1714C60.6954 50.1562 60.6634 51.0648 60.7076 51.9688C60.732 52.4796 60.5795 52.7296 60.0826 52.9018C58.6709 53.3927 57.593 54.2983 56.8308 55.6063C55.2544 58.3108 56.1844 61.5428 59.023 62.8402C60.1664 63.3631 61.4104 63.6634 62.5934 64.1025C63.4655 64.4272 64.368 64.7275 65.15 65.2108C65.4778 65.4136 65.7019 66.0767 65.6592 66.499C65.6242 66.8344 65.1455 67.3314 64.8055 67.3863C63.8984 67.5326 62.938 67.6119 62.037 67.4732C60.3036 67.2064 58.712 66.4883 57.2195 65.4715C56.5807 66.7429 55.9618 67.9763 55.2407 69.4108C56.7728 69.9902 58.1769 70.635 59.6481 71.0344C60.5064 71.2677 60.8052 71.5726 60.7152 72.44C60.6329 73.2358 60.6969 74.0454 60.6969 74.8793C62.2565 74.8793 63.7322 74.8793 65.2766 74.8793C65.2766 73.6932 65.2766 72.5635 65.2766 71.4674C65.8803 71.2799 66.4184 71.1335 66.9414 70.9475C68.9507 70.2341 70.2999 68.4199 70.4096 66.3084C70.5377 63.8448 69.6398 62.1297 67.5146 61.2013C66.1074 60.5869 64.5982 60.2134 63.1438 59.7027C62.4806 59.4695 61.7793 59.2606 61.2031 58.8779C60.2594 58.2514 60.4332 56.9037 61.4958 56.5226C62.0492 56.3244 62.6834 56.2527 63.2749 56.2802C64.9869 56.361 66.484 57.0958 67.9735 57.9998C68.6031 56.8107 69.2236 55.6384 69.934 54.2968C68.5162 53.7617 67.2081 53.2372 65.8757 52.7829C65.4199 52.6274 65.2263 52.4567 65.2507 51.9521C65.2964 51.0282 65.2629 50.1028 65.2629 49.1714C63.6941 49.1714 62.2519 49.1714 60.6954 49.1714Z" fill="white"/>
<path d="M72.953 30.1408H72.9545L79.8987 23L65.2755 28.691C65.277 30.0539 65.2755 31.4169 65.2725 32.7783C79.641 33.9171 91.0688 45.3586 92.1482 59.654C93.5111 59.6524 94.8725 59.654 96.2354 59.657C95.3222 45.7595 85.8245 34.1793 72.953 30.1408Z" fill="url(#paint2_linear)"/>
<path d="M72.953 30.1408H72.9545L79.8987 23L65.2755 28.691C65.277 30.0539 65.2755 31.4169 65.2725 32.7783C79.641 33.9171 91.0688 45.3586 92.1482 59.654C93.5111 59.6524 94.8725 59.654 96.2354 59.657C95.3222 45.7595 85.8245 34.1793 72.953 30.1408Z" fill="white"/>
<defs>
<linearGradient id="paint0_linear" x1="62.9479" y1="102.212" x2="62.9479" y2="23.9712" gradientUnits="userSpaceOnUse">
<stop stop-color="#3721A7"/>
<stop offset="1" stop-color="#803EFF"/>
</linearGradient>
<linearGradient id="paint1_linear" x1="62.9825" y1="83.1536" x2="62.9825" y2="41.9094" gradientUnits="userSpaceOnUse">
<stop stop-color="#3721A7"/>
<stop offset="1" stop-color="#803EFF"/>
</linearGradient>
<linearGradient id="paint2_linear" x1="80.7495" y1="60.274" x2="80.7495" y2="23.457" gradientUnits="userSpaceOnUse">
<stop stop-color="#3721A7"/>
<stop offset="1" stop-color="#803EFF"/>
</linearGradient>
</defs>
</svg>
