<svg width="580" height="530" viewBox="0 0 580 530" fill="none" xmlns="http://www.w3.org/2000/svg">
<path opacity="0.5608" d="M438.232 133.045L433.262 130.89L432.654 129.698V128.101L433.567 103.786L422.766 91.8696L398.78 93.8219L384.734 87.0523L383.745 73.0313L361.611 69L347.108 80.2066L328.929 81.1447L311.105 71.6115L290.619 77.798V93.6445L290.72 94.0501L282.404 99.8309L258.19 100.363L251.319 113.167L252.004 116.616L251.319 374.495L256.289 376.675L255.959 376.853V403.779L266.76 415.67L290.745 413.718L304.766 420.488L305.781 434.534L327.915 438.54L342.418 427.333L360.597 426.395L378.421 435.954L398.932 429.717L398.552 415.569L398.932 415.467L398.552 413.997L398.932 413.896L398.831 413.49L407.147 407.709L431.361 407.202L438.232 394.373L437.547 394.094L438.232 133.045Z" fill="url(#paint0_linear)"/>
<path d="M146.326 330.961L146.224 364.328L142.345 348.633L142.447 315.267L146.326 330.961Z" fill="url(#paint1_linear)"/>
<path d="M303.802 344.578L303.726 377.944L285.192 389.582L285.268 356.215L303.802 344.578Z" fill="url(#paint2_linear)"/>
<path d="M119.982 364.709L119.881 398.075L98 388.542L98.1014 355.175L119.982 364.709Z" fill="url(#paint3_linear)"/>
<path d="M241.684 366.508L241.582 399.875C241.608 393.942 237.45 388.288 230.3 384.155C226.091 381.721 220.817 379.819 214.757 378.704C194.651 375.078 173.303 381.544 167.066 393.156C165.9 395.311 165.342 397.517 165.342 399.672L165.443 366.306C165.443 364.15 166.001 361.945 167.167 359.79C173.404 348.177 194.753 341.686 214.859 345.338C220.919 346.453 226.192 348.355 230.401 350.789C237.576 354.896 241.709 360.575 241.684 366.508Z" fill="#B88325"/>
<path d="M121.86 376.599L121.784 409.966L119.882 398.074L119.984 364.708L121.86 376.599Z" fill="url(#paint4_linear)"/>
<path d="M309.077 377.613L308.975 410.979L301.217 425.456L301.318 392.09L309.077 377.613Z" fill="url(#paint5_linear)"/>
<path d="M301.319 392.09L301.217 425.457L273.911 426.04L274.012 392.673L301.319 392.09Z" fill="url(#paint6_linear)"/>
<path d="M274.01 392.674L273.908 426.041L260.699 435.194L260.8 401.827L274.01 392.674Z" fill="url(#paint7_linear)"/>
<path d="M142.596 399.444L142.495 432.81L115.417 434.991L115.518 401.624L142.596 399.444Z" fill="url(#paint8_linear)"/>
<path d="M115.52 401.625L115.419 434.991L103.249 421.579L103.325 388.212L115.52 401.625Z" fill="url(#paint9_linear)"/>
<path d="M158.422 407.101L158.346 440.467L142.499 432.81L142.6 399.444L158.422 407.101Z" fill="url(#paint10_linear)"/>
<path d="M221.452 413.767L221.351 447.133L200.839 448.198L200.941 414.832L221.452 413.767Z" fill="url(#paint11_linear)"/>
<path d="M159.563 422.946L159.462 456.312L158.346 440.465L158.422 407.099L159.563 422.946Z" fill="url(#paint12_linear)"/>
<path d="M264.704 417.496L264.603 450.862L241.479 457.911L241.556 424.545L264.704 417.496Z" fill="url(#paint13_linear)"/>
<path d="M241.558 424.543L241.481 457.909L221.35 447.133L221.452 413.767L241.558 424.543Z" fill="url(#paint14_linear)"/>
<path d="M184.536 427.459L184.435 460.826L159.46 456.313L159.562 422.946L184.536 427.459Z" fill="url(#paint15_linear)"/>
<path d="M260.799 401.827L264.703 417.496L241.555 424.519L221.449 413.743L200.937 414.808L184.558 427.46L159.584 422.921L158.443 407.075L142.622 399.418L115.543 401.624L103.323 388.211L121.857 376.599L119.955 364.708L98.0742 355.175L105.807 340.723L133.165 340.114L146.324 330.961L142.444 315.267L165.593 308.269L185.699 319.045L206.211 317.98L222.564 305.328L247.589 309.866L248.705 325.687L264.551 333.344L291.63 331.139L303.825 344.576L285.291 356.189L287.193 368.08L309.099 377.588L301.34 392.065L274.008 392.648L260.799 401.827ZM192.291 387.451C212.397 391.127 233.745 384.636 239.983 372.999C244.344 364.885 240.185 356.392 230.424 350.763C226.215 348.329 220.942 346.427 214.882 345.312C194.776 341.686 173.427 348.151 167.19 359.764C162.829 367.902 166.987 376.371 176.723 382C180.932 384.459 186.206 386.36 192.291 387.451Z" fill="url(#paint16_linear)"/>
<path d="M200.939 414.835L200.837 448.201L184.433 460.828L184.535 427.461L200.939 414.835Z" fill="url(#paint17_linear)"/>
<path d="M277.308 351.751L277.257 366.862C277.232 377.714 270.082 388.566 255.833 396.831C227.131 413.514 180.479 413.514 151.601 396.831C137.073 388.439 129.821 377.435 129.847 366.431L129.897 351.32C129.872 362.324 137.123 373.328 151.652 381.72C180.53 398.403 227.208 398.403 255.883 381.72C270.158 373.454 277.282 362.628 277.308 351.751Z" fill="url(#paint18_linear)"/>
<path d="M255.553 321.352C284.432 338.035 284.584 365.063 255.883 381.746C227.182 398.43 180.504 398.43 151.651 381.746C122.798 365.063 122.62 338.035 151.321 321.352C179.997 304.694 226.675 304.694 255.553 321.352Z" fill="url(#paint19_linear)"/>
<path d="M203.853 386.512C185.496 386.512 168.331 382.43 155.527 375.052C143.991 368.383 137.652 360.016 137.627 351.421C137.627 342.928 143.864 334.611 155.198 328.019C167.9 320.641 185.014 316.559 203.371 316.559C221.727 316.559 238.892 320.641 251.696 328.019C263.233 334.687 269.571 343.054 269.596 351.65C269.596 360.143 263.359 368.459 252.026 375.052C239.298 382.455 222.184 386.512 203.853 386.512Z" fill="url(#paint20_linear)"/>
<path d="M203.853 390.139C185.496 390.139 168.331 386.057 155.527 378.679C143.991 372.036 137.652 363.644 137.627 355.049C137.627 346.555 143.864 338.239 155.198 331.646C167.9 324.268 185.014 320.186 203.371 320.186C221.727 320.186 238.892 324.268 251.696 331.646C263.233 338.315 269.571 346.682 269.596 355.277C269.596 363.77 263.359 372.087 252.026 378.679C239.298 386.057 222.184 390.139 203.853 390.139Z" fill="url(#paint21_linear)"/>
<path d="M241.129 373.986L233.624 369.651L229.289 372.161L236.794 372.566V376.496L229.492 380.731L221.987 376.395L216.054 379.843L160.553 347.795V343.865L166.486 344.347L158.753 339.885V335.955L166.055 335.651L173.788 340.113L178.124 337.603L170.391 333.14V329.21L177.693 328.906L185.806 333.597C194.173 330.123 201.424 330.656 208.524 334.738L210.501 335.879C216.206 339.175 217.803 342.471 215.014 346.198C222.367 344.043 228.731 345.209 234.588 348.607L239.101 351.218C243.006 353.475 244.958 355.909 244.958 358.444C244.958 360.625 243.513 362.906 240.571 365.239L248.381 365.822V369.752L241.129 373.986ZM218.462 369.296L228.68 363.363C232.154 361.334 232.686 359.484 228.554 357.1L223.711 354.311C218.564 351.345 215.014 351.573 210.324 354.286L201.399 359.458L218.462 369.296ZM193.514 354.869L201.855 350.026C205.709 347.795 206.622 345.615 202.185 343.029L199.092 341.254C195.136 338.972 191.79 338.871 188.113 341L178.834 346.401L193.514 354.869Z" fill="url(#paint22_linear)"/>
<path d="M244.982 354.516H242.016V358.446H244.982V354.516Z" fill="#B88325"/>
<path d="M216.36 339.073H213.394V343.003H216.36V339.073Z" fill="#B88325"/>
<path d="M241.129 370.056L233.624 365.721L229.289 368.231L236.794 372.566L229.492 376.801L221.987 372.465L216.054 375.913L160.553 343.865L166.486 340.417L158.753 335.955L166.055 331.721L173.788 336.183L178.124 333.673L170.391 329.21L177.693 324.976L185.806 329.667C194.173 326.193 201.424 326.726 208.524 330.808L210.501 331.949C216.206 335.245 217.803 338.541 215.014 342.268C222.367 340.113 228.731 341.279 234.588 344.677L239.101 347.288C243.006 349.545 244.958 351.979 244.958 354.514C244.958 356.695 243.513 358.977 240.571 361.309L248.381 365.822L241.129 370.056ZM218.462 365.366L228.68 359.433C232.154 357.405 232.686 355.554 228.554 353.17L223.711 350.381C218.564 347.415 215.014 347.643 210.324 350.356L201.399 355.528L218.462 365.366ZM193.514 350.939L201.855 346.097C205.709 343.865 206.622 341.685 202.185 339.099L199.092 337.324C195.136 335.042 191.79 334.941 188.113 337.07L178.834 342.471L193.514 350.939Z" fill="url(#paint23_linear)"/>
<path d="M294.469 91.7169L294.393 121.255L290.945 107.361L291.021 77.7974L294.469 91.7169Z" fill="url(#paint24_linear)"/>
<path d="M433.996 103.786L433.895 133.324L417.491 143.618L417.567 114.08L433.996 103.786Z" fill="url(#paint25_linear)"/>
<path d="M271.144 121.61L271.043 151.173L251.672 142.705L251.748 113.167L271.144 121.61Z" fill="url(#paint26_linear)"/>
<path d="M378.948 123.183L378.872 152.746C378.898 147.498 375.221 142.478 368.883 138.827C365.155 136.671 360.49 134.998 355.115 134.009C337.316 130.789 318.402 136.519 312.875 146.813C311.835 148.74 311.354 150.667 311.354 152.594L311.43 123.031C311.43 121.129 311.937 119.177 312.951 117.25C318.478 106.956 337.392 101.226 355.191 104.446C360.566 105.435 365.232 107.108 368.959 109.263C375.297 112.914 378.974 117.935 378.948 123.183Z" fill="url(#paint27_linear)"/>
<path d="M272.818 132.133L272.717 161.696L271.043 151.174L271.145 121.611L272.818 132.133Z" fill="url(#paint28_linear)"/>
<path d="M438.658 133.045L438.557 162.583L431.686 175.412L431.762 145.849L438.658 133.045Z" fill="url(#paint29_linear)"/>
<path d="M431.767 145.848L431.691 175.411L407.503 175.918L407.579 146.38L431.767 145.848Z" fill="url(#paint30_linear)"/>
<path d="M407.574 146.38L407.498 175.918L395.785 184.032L395.886 154.494L407.574 146.38Z" fill="url(#paint31_linear)"/>
<path d="M291.173 152.365L291.097 181.928L267.112 183.88L267.188 154.317L291.173 152.365Z" fill="url(#paint32_linear)"/>
<path d="M267.189 154.317L267.112 183.88L256.312 171.989L256.388 142.426L267.189 154.317Z" fill="url(#paint33_linear)"/>
<path d="M305.197 159.16L305.121 188.698L291.1 181.928L291.176 152.365L305.197 159.16Z" fill="url(#paint34_linear)"/>
<path d="M361.022 165.067L360.946 194.605L342.767 195.543L342.843 166.005L361.022 165.067Z" fill="url(#paint35_linear)"/>
<path d="M306.208 173.181L306.106 202.744L305.118 188.698L305.194 159.16L306.208 173.181Z" fill="url(#paint36_linear)"/>
<path d="M399.336 168.365L399.26 197.928L378.774 204.165L378.85 174.602L399.336 168.365Z" fill="url(#paint37_linear)"/>
<path d="M378.848 174.6L378.772 204.163L360.948 194.604L361.024 165.067L378.848 174.6Z" fill="url(#paint38_linear)"/>
<path d="M328.318 177.187L328.242 206.75L306.108 202.744L306.209 173.181L328.318 177.187Z" fill="url(#paint39_linear)"/>
<path d="M395.885 154.495L399.359 168.389L378.847 174.626L361.023 165.093L342.844 166.031L328.316 177.238L306.181 173.232L305.167 159.185L291.146 152.391L267.161 154.343L256.36 142.452L272.79 132.158L271.116 121.636L251.72 113.193L258.566 100.389L282.779 99.8563L294.442 91.7429L290.994 77.8487L311.506 71.6369L329.33 81.1701L347.509 80.232L362.037 69L384.197 73.0313L385.186 87.0523L399.232 93.8219L423.217 91.8696L434.018 103.786L417.614 114.08L419.287 124.602L438.683 133.045L431.812 145.874L407.599 146.407L395.885 154.495ZM335.187 141.742C352.986 144.987 371.9 139.257 377.427 128.938C381.281 121.762 377.605 114.232 368.959 109.237C365.232 107.082 360.567 105.409 355.191 104.42C337.393 101.2 318.478 106.93 312.951 117.224C309.097 124.425 312.774 131.93 321.419 136.924C325.146 139.105 329.812 140.778 335.187 141.742Z" fill="url(#paint40_linear)"/>
<path d="M342.845 166.005L342.769 195.543L328.241 206.749L328.317 177.186L342.845 166.005Z" fill="url(#paint41_linear)"/>
<path d="M404.711 113.066L404.686 125.262C404.661 134.034 398.905 142.781 387.394 149.45C364.246 162.913 326.569 162.913 303.243 149.45C291.504 142.68 285.647 133.781 285.672 124.907L285.698 112.711C285.672 121.585 291.529 130.485 303.268 137.254C326.569 150.717 364.246 150.717 387.42 137.254C398.93 130.586 404.686 121.839 404.711 113.066Z" fill="url(#paint42_linear)"/>
<path d="M387.168 88.5236C410.468 101.987 410.595 123.817 387.447 137.255C364.298 150.693 326.622 150.718 303.296 137.255C279.995 123.792 279.868 101.961 303.017 88.5236C326.165 75.0605 363.842 75.0605 387.168 88.5236Z" fill="url(#paint43_linear)"/>
<path d="M345.409 141.134C330.602 141.134 316.734 137.838 306.389 131.88C297.084 126.505 291.962 119.735 291.937 112.813C291.937 105.968 296.957 99.2487 306.135 93.9243C316.404 87.966 330.197 84.6699 345.029 84.6699C359.836 84.6699 373.705 87.966 384.049 93.9243C393.355 99.2994 398.476 106.069 398.501 112.991C398.501 119.836 393.481 126.555 384.303 131.88C374.034 137.838 360.216 141.134 345.409 141.134Z" fill="url(#paint44_linear)"/>
<path d="M345.409 144.024C330.602 144.024 316.734 140.728 306.389 134.77C297.084 129.395 291.962 122.625 291.937 115.703C291.937 108.857 296.957 102.139 306.135 96.8142C316.404 90.8559 330.197 87.5598 345.029 87.5598C359.836 87.5598 373.705 90.8559 384.049 96.8142C393.355 102.189 398.476 108.959 398.501 115.881C398.501 122.726 393.481 129.445 384.303 134.77C374.034 140.753 360.216 144.024 345.409 144.024Z" fill="url(#paint45_linear)"/>
<path d="M329.458 104.875C332.602 103.05 336.887 102.036 341.831 101.96H342.744L342.896 101.452C343.378 99.9566 343.885 98.5114 344.392 97.0662L344.747 96.0267L344.772 90.4233L344.417 91.4629C343.91 92.8827 343.403 94.3279 342.921 95.8492L342.769 96.3563L341.856 96.3816C336.912 96.4577 332.627 97.4719 329.484 99.2974C326.111 101.25 324.463 103.912 324.463 106.752L324.438 112.355C324.463 109.49 326.086 106.853 329.458 104.875Z" fill="url(#paint46_linear)"/>
<path d="M331.311 122.599L350.504 111.443L350.53 105.839L331.311 116.995V122.599Z" fill="url(#paint47_linear)"/>
<path d="M319.62 117.045C315.867 113.394 313.94 109.438 313.94 105.686L313.915 111.289C313.915 115.042 315.817 118.997 319.594 122.648L319.62 117.045Z" fill="url(#paint48_linear)"/>
<path d="M342.641 127.594L360.516 117.224L360.541 111.621L342.666 121.991L342.641 127.594Z" fill="url(#paint49_linear)"/>
<path d="M374.134 125.058C364.652 130.585 348.83 130.763 335.443 126.173L329.029 129.9L323.856 126.909L324.516 126.528C325.149 126.959 325.809 127.39 326.519 127.796C327.228 128.202 327.964 128.582 328.674 128.937L328.724 123.334C327.989 122.953 327.254 122.598 326.569 122.193C325.859 121.787 325.2 121.356 324.566 120.925L319.039 124.12L313.207 120.748L313.182 126.351L319.014 129.723L323.197 127.314L323.172 132.157L329.003 135.529L335.418 131.802C348.805 136.391 364.626 136.188 374.109 130.686C378.749 127.999 381.309 124.373 381.563 120.19L381.588 114.586C381.36 118.745 378.774 122.37 374.134 125.058Z" fill="url(#paint50_linear)"/>
<path d="M381.641 113.877L381.615 119.48L381.59 120.19V114.587L381.641 113.877Z" fill="#F9B233"/>
<path d="M344.774 90.3983L344.419 91.4378C343.912 92.8577 343.405 94.3029 342.923 95.8241L342.771 96.3312L341.858 96.3566C336.914 96.4326 332.629 97.4468 329.485 99.2723C323.73 102.619 323.045 107.944 326.823 112.837L344.698 102.442L350.529 105.814L331.311 116.97C331.919 117.401 332.578 117.832 333.314 118.237C334.023 118.643 334.733 119.023 335.494 119.378L354.713 108.222L360.544 111.595L342.669 121.99C351.163 124.17 360.367 123.765 366.122 120.418C368.632 118.973 370.255 117.02 370.838 114.815L370.99 114.333L371.827 114.282C374.388 114.105 377.202 113.978 380.422 113.927L381.639 113.902L381.588 114.612C381.36 118.795 378.774 122.421 374.134 125.108C364.652 130.636 348.83 130.813 335.443 126.224L329.029 129.951L323.197 126.579L328.724 123.334C327.989 122.953 327.254 122.598 326.569 122.193C325.859 121.787 325.2 121.356 324.566 120.925L319.039 124.12L313.208 120.747L319.622 117.02C311.661 109.287 311.94 100.109 321.422 94.6071C326.95 91.4125 334.784 89.8912 343.531 90.3222L344.774 90.3983Z" fill="url(#paint51_linear)"/>
<path d="M481.892 239.229C481.892 258.879 468.733 277.286 444.9 291.079C420.433 305.201 388.309 312.225 356.109 312.25C323.63 312.25 291.075 305.075 266.279 290.749C242.876 277.261 229.565 259.285 228.754 240.142C228.019 223.129 237.4 206.624 255.224 193.338V195.797C238.718 208.474 230.022 224.067 230.706 240.066C231.492 258.499 244.474 275.892 267.267 289.051C316.1 317.27 395.358 317.397 443.911 289.38C467.136 275.968 479.914 258.169 479.914 239.255C479.914 220.163 466.933 202.161 443.328 188.546C440.108 186.67 436.685 184.92 433.136 183.272V181.066C437.04 182.841 440.793 184.768 444.317 186.796C468.53 200.792 481.892 219.377 481.892 239.229Z" fill="url(#paint52_linear)"/>
<defs>
<linearGradient id="paint0_linear" x1="344.778" y1="132.553" x2="344.778" y2="349.476" gradientUnits="userSpaceOnUse">
<stop stop-color="#D6BFFF"/>
<stop offset="1" stop-color="#8E52FF" stop-opacity="0"/>
</linearGradient>
<linearGradient id="paint1_linear" x1="142.344" y1="339.802" x2="146.329" y2="339.802" gradientUnits="userSpaceOnUse">
<stop stop-color="#3721A7"/>
<stop offset="0.592" stop-color="#5247B5"/>
<stop offset="1" stop-color="#6663BF"/>
</linearGradient>
<linearGradient id="paint2_linear" x1="285.185" y1="367.081" x2="303.813" y2="367.081" gradientUnits="userSpaceOnUse">
<stop stop-color="#C4A3FF"/>
<stop offset="1" stop-color="#7F60D7"/>
</linearGradient>
<linearGradient id="paint3_linear" x1="98" y1="376.632" x2="119.976" y2="376.632" gradientUnits="userSpaceOnUse">
<stop stop-color="#C4A3FF"/>
<stop offset="1" stop-color="#7F60D7"/>
</linearGradient>
<linearGradient id="paint4_linear" x1="119.883" y1="387.344" x2="121.868" y2="387.344" gradientUnits="userSpaceOnUse">
<stop stop-color="#3721A7"/>
<stop offset="0.592" stop-color="#5247B5"/>
<stop offset="1" stop-color="#6663BF"/>
</linearGradient>
<linearGradient id="paint5_linear" x1="301.225" y1="401.532" x2="309.079" y2="401.532" gradientUnits="userSpaceOnUse">
<stop stop-color="#3721A7"/>
<stop offset="0.592" stop-color="#5247B5"/>
<stop offset="1" stop-color="#6663BF"/>
</linearGradient>
<linearGradient id="paint6_linear" x1="273.905" y1="409.062" x2="301.321" y2="409.062" gradientUnits="userSpaceOnUse">
<stop stop-color="#C4A3FF"/>
<stop offset="1" stop-color="#7F60D7"/>
</linearGradient>
<linearGradient id="paint7_linear" x1="260.696" y1="413.936" x2="273.998" y2="413.936" gradientUnits="userSpaceOnUse">
<stop stop-color="#3721A7"/>
<stop offset="0.592" stop-color="#5247B5"/>
<stop offset="1" stop-color="#6663BF"/>
</linearGradient>
<linearGradient id="paint8_linear" x1="115.425" y1="417.218" x2="142.597" y2="417.218" gradientUnits="userSpaceOnUse">
<stop stop-color="#C4A3FF"/>
<stop offset="1" stop-color="#7F60D7"/>
</linearGradient>
<linearGradient id="paint9_linear" x1="103.239" y1="411.613" x2="115.522" y2="411.613" gradientUnits="userSpaceOnUse">
<stop stop-color="#3721A7"/>
<stop offset="0.592" stop-color="#5247B5"/>
<stop offset="1" stop-color="#6663BF"/>
</linearGradient>
<linearGradient id="paint10_linear" x1="142.506" y1="419.948" x2="158.429" y2="419.948" gradientUnits="userSpaceOnUse">
<stop stop-color="#3721A7"/>
<stop offset="0.592" stop-color="#5247B5"/>
<stop offset="1" stop-color="#6663BF"/>
</linearGradient>
<linearGradient id="paint11_linear" x1="200.836" y1="430.976" x2="221.45" y2="430.976" gradientUnits="userSpaceOnUse">
<stop stop-color="#3721A7"/>
<stop offset="0.592" stop-color="#5247B5"/>
<stop offset="1" stop-color="#6663BF"/>
</linearGradient>
<linearGradient id="paint12_linear" x1="158.335" y1="431.7" x2="159.56" y2="431.7" gradientUnits="userSpaceOnUse">
<stop stop-color="#C4A3FF"/>
<stop offset="1" stop-color="#7F60D7"/>
</linearGradient>
<linearGradient id="paint13_linear" x1="241.47" y1="437.706" x2="264.707" y2="437.706" gradientUnits="userSpaceOnUse">
<stop stop-color="#3721A7"/>
<stop offset="0.592" stop-color="#5247B5"/>
<stop offset="1" stop-color="#6663BF"/>
</linearGradient>
<linearGradient id="paint14_linear" x1="221.354" y1="435.834" x2="241.566" y2="435.834" gradientUnits="userSpaceOnUse">
<stop stop-color="#C4A3FF"/>
<stop offset="1" stop-color="#7F60D7"/>
</linearGradient>
<linearGradient id="paint15_linear" x1="159.465" y1="441.885" x2="184.539" y2="441.885" gradientUnits="userSpaceOnUse">
<stop stop-color="#3721A7"/>
<stop offset="0.592" stop-color="#5247B5"/>
<stop offset="1" stop-color="#6663BF"/>
</linearGradient>
<linearGradient id="paint16_linear" x1="98.0925" y1="366.398" x2="309.076" y2="366.398" gradientUnits="userSpaceOnUse">
<stop stop-color="#7583FF"/>
<stop offset="1" stop-color="#DBDFFF"/>
</linearGradient>
<linearGradient id="paint17_linear" x1="184.442" y1="437.829" x2="200.928" y2="437.829" gradientUnits="userSpaceOnUse">
<stop stop-color="#C4A3FF"/>
<stop offset="1" stop-color="#7F60D7"/>
</linearGradient>
<linearGradient id="paint18_linear" x1="129.856" y1="380.348" x2="277.319" y2="380.348" gradientUnits="userSpaceOnUse">
<stop stop-color="#803EFF"/>
<stop offset="0.272" stop-color="#742AEA"/>
<stop offset="0.7391" stop-color="#620BCB"/>
<stop offset="1" stop-color="#5B00BF"/>
</linearGradient>
<linearGradient id="paint19_linear" x1="129.898" y1="351.551" x2="277.319" y2="351.551" gradientUnits="userSpaceOnUse">
<stop stop-color="#7583FF"/>
<stop offset="1" stop-color="#DBDFFF"/>
</linearGradient>
<linearGradient id="paint20_linear" x1="137.619" y1="351.55" x2="269.592" y2="351.55" gradientUnits="userSpaceOnUse">
<stop stop-color="#803EFF"/>
<stop offset="0.272" stop-color="#742AEA"/>
<stop offset="0.7391" stop-color="#620BCB"/>
<stop offset="1" stop-color="#5B00BF"/>
</linearGradient>
<linearGradient id="paint21_linear" x1="137.619" y1="355.156" x2="269.592" y2="355.156" gradientUnits="userSpaceOnUse">
<stop stop-color="#8E52FF"/>
<stop offset="1" stop-color="#D6BFFF"/>
</linearGradient>
<linearGradient id="paint22_linear" x1="158.786" y1="354.828" x2="248.437" y2="354.828" gradientUnits="userSpaceOnUse">
<stop stop-color="#4A3FFF"/>
<stop offset="1" stop-color="#853FFF"/>
</linearGradient>
<linearGradient id="paint23_linear" x1="158.786" y1="350.902" x2="248.437" y2="350.902" gradientUnits="userSpaceOnUse">
<stop stop-color="white"/>
<stop offset="1" stop-color="#DBDFFF"/>
</linearGradient>
<linearGradient id="paint24_linear" x1="290.948" y1="99.536" x2="294.478" y2="99.536" gradientUnits="userSpaceOnUse">
<stop stop-color="#3721A7"/>
<stop offset="0.592" stop-color="#5247B5"/>
<stop offset="1" stop-color="#6663BF"/>
</linearGradient>
<linearGradient id="paint25_linear" x1="417.486" y1="123.7" x2="433.987" y2="123.7" gradientUnits="userSpaceOnUse">
<stop stop-color="#C4A3FF"/>
<stop offset="1" stop-color="#7F60D7"/>
</linearGradient>
<linearGradient id="paint26_linear" x1="251.668" y1="132.161" x2="271.135" y2="132.161" gradientUnits="userSpaceOnUse">
<stop stop-color="#C4A3FF"/>
<stop offset="1" stop-color="#7F60D7"/>
</linearGradient>
<linearGradient id="paint27_linear" x1="311.332" y1="128.139" x2="378.957" y2="128.139" gradientUnits="userSpaceOnUse">
<stop stop-color="#803EFF"/>
<stop offset="0.272" stop-color="#742AEA"/>
<stop offset="0.7391" stop-color="#620BCB"/>
<stop offset="1" stop-color="#5B00BF"/>
</linearGradient>
<linearGradient id="paint28_linear" x1="271.052" y1="141.651" x2="272.81" y2="141.651" gradientUnits="userSpaceOnUse">
<stop stop-color="#3721A7"/>
<stop offset="0.592" stop-color="#5247B5"/>
<stop offset="1" stop-color="#6663BF"/>
</linearGradient>
<linearGradient id="paint29_linear" x1="431.691" y1="154.22" x2="438.648" y2="154.22" gradientUnits="userSpaceOnUse">
<stop stop-color="#3721A7"/>
<stop offset="0.592" stop-color="#5247B5"/>
<stop offset="1" stop-color="#6663BF"/>
</linearGradient>
<linearGradient id="paint30_linear" x1="407.494" y1="160.889" x2="431.78" y2="160.889" gradientUnits="userSpaceOnUse">
<stop stop-color="#C4A3FF"/>
<stop offset="1" stop-color="#7F60D7"/>
</linearGradient>
<linearGradient id="paint31_linear" x1="395.79" y1="165.206" x2="407.573" y2="165.206" gradientUnits="userSpaceOnUse">
<stop stop-color="#3721A7"/>
<stop offset="0.592" stop-color="#5247B5"/>
<stop offset="1" stop-color="#6663BF"/>
</linearGradient>
<linearGradient id="paint32_linear" x1="267.104" y1="168.114" x2="291.174" y2="168.114" gradientUnits="userSpaceOnUse">
<stop stop-color="#C4A3FF"/>
<stop offset="1" stop-color="#7F60D7"/>
</linearGradient>
<linearGradient id="paint33_linear" x1="256.308" y1="163.149" x2="267.189" y2="163.149" gradientUnits="userSpaceOnUse">
<stop stop-color="#3721A7"/>
<stop offset="0.592" stop-color="#5247B5"/>
<stop offset="1" stop-color="#6663BF"/>
</linearGradient>
<linearGradient id="paint34_linear" x1="291.094" y1="170.533" x2="305.198" y2="170.533" gradientUnits="userSpaceOnUse">
<stop stop-color="#3721A7"/>
<stop offset="0.592" stop-color="#5247B5"/>
<stop offset="1" stop-color="#6663BF"/>
</linearGradient>
<linearGradient id="paint35_linear" x1="342.759" y1="180.303" x2="361.02" y2="180.303" gradientUnits="userSpaceOnUse">
<stop stop-color="#3721A7"/>
<stop offset="0.592" stop-color="#5247B5"/>
<stop offset="1" stop-color="#6663BF"/>
</linearGradient>
<linearGradient id="paint36_linear" x1="305.111" y1="180.945" x2="306.197" y2="180.945" gradientUnits="userSpaceOnUse">
<stop stop-color="#C4A3FF"/>
<stop offset="1" stop-color="#7F60D7"/>
</linearGradient>
<linearGradient id="paint37_linear" x1="378.761" y1="186.266" x2="399.346" y2="186.266" gradientUnits="userSpaceOnUse">
<stop stop-color="#3721A7"/>
<stop offset="0.592" stop-color="#5247B5"/>
<stop offset="1" stop-color="#6663BF"/>
</linearGradient>
<linearGradient id="paint38_linear" x1="360.938" y1="184.607" x2="378.843" y2="184.607" gradientUnits="userSpaceOnUse">
<stop stop-color="#C4A3FF"/>
<stop offset="1" stop-color="#7F60D7"/>
</linearGradient>
<linearGradient id="paint39_linear" x1="306.115" y1="189.967" x2="328.326" y2="189.967" gradientUnits="userSpaceOnUse">
<stop stop-color="#3721A7"/>
<stop offset="0.592" stop-color="#5247B5"/>
<stop offset="1" stop-color="#6663BF"/>
</linearGradient>
<linearGradient id="paint40_linear" x1="251.749" y1="123.097" x2="438.647" y2="123.097" gradientUnits="userSpaceOnUse">
<stop stop-color="#7583FF"/>
<stop offset="1" stop-color="#DBDFFF"/>
</linearGradient>
<linearGradient id="paint41_linear" x1="328.241" y1="186.371" x2="342.845" y2="186.371" gradientUnits="userSpaceOnUse">
<stop stop-color="#C4A3FF"/>
<stop offset="1" stop-color="#7F60D7"/>
</linearGradient>
<linearGradient id="paint42_linear" x1="285.683" y1="136.14" x2="404.718" y2="136.14" gradientUnits="userSpaceOnUse">
<stop stop-color="#803EFF"/>
<stop offset="0.272" stop-color="#742AEA"/>
<stop offset="0.7391" stop-color="#620BCB"/>
<stop offset="1" stop-color="#5B00BF"/>
</linearGradient>
<linearGradient id="paint43_linear" x1="285.72" y1="112.894" x2="404.72" y2="112.894" gradientUnits="userSpaceOnUse">
<stop stop-color="white"/>
<stop offset="1" stop-color="#DBDFFF"/>
</linearGradient>
<linearGradient id="paint44_linear" x1="291.954" y1="112.894" x2="398.486" y2="112.894" gradientUnits="userSpaceOnUse">
<stop stop-color="#803EFF"/>
<stop offset="0.272" stop-color="#742AEA"/>
<stop offset="0.7391" stop-color="#620BCB"/>
<stop offset="1" stop-color="#5B00BF"/>
</linearGradient>
<linearGradient id="paint45_linear" x1="291.954" y1="115.803" x2="398.486" y2="115.803" gradientUnits="userSpaceOnUse">
<stop stop-color="#8E52FF"/>
<stop offset="1" stop-color="#D6BFFF"/>
</linearGradient>
<linearGradient id="paint46_linear" x1="324.445" y1="101.37" x2="344.775" y2="101.37" gradientUnits="userSpaceOnUse">
<stop stop-color="#803EFF"/>
<stop offset="0.272" stop-color="#742AEA"/>
<stop offset="0.7391" stop-color="#620BCB"/>
<stop offset="1" stop-color="#5B00BF"/>
</linearGradient>
<linearGradient id="paint47_linear" x1="331.301" y1="114.219" x2="350.529" y2="114.219" gradientUnits="userSpaceOnUse">
<stop stop-color="#803EFF"/>
<stop offset="0.272" stop-color="#742AEA"/>
<stop offset="0.7391" stop-color="#620BCB"/>
<stop offset="1" stop-color="#5B00BF"/>
</linearGradient>
<linearGradient id="paint48_linear" x1="313.932" y1="114.163" x2="319.619" y2="114.163" gradientUnits="userSpaceOnUse">
<stop stop-color="#803EFF"/>
<stop offset="0.272" stop-color="#742AEA"/>
<stop offset="0.7391" stop-color="#620BCB"/>
<stop offset="1" stop-color="#5B00BF"/>
</linearGradient>
<linearGradient id="paint49_linear" x1="342.643" y1="119.608" x2="360.531" y2="119.608" gradientUnits="userSpaceOnUse">
<stop stop-color="#803EFF"/>
<stop offset="0.272" stop-color="#742AEA"/>
<stop offset="0.7391" stop-color="#620BCB"/>
<stop offset="1" stop-color="#5B00BF"/>
</linearGradient>
<linearGradient id="paint50_linear" x1="313.187" y1="125.05" x2="381.592" y2="125.05" gradientUnits="userSpaceOnUse">
<stop stop-color="#803EFF"/>
<stop offset="0.272" stop-color="#742AEA"/>
<stop offset="0.7391" stop-color="#620BCB"/>
<stop offset="1" stop-color="#5B00BF"/>
</linearGradient>
<linearGradient id="paint51_linear" x1="313.202" y1="110.087" x2="381.632" y2="110.087" gradientUnits="userSpaceOnUse">
<stop stop-color="white"/>
<stop offset="1" stop-color="#DBDFFF"/>
</linearGradient>
<linearGradient id="paint52_linear" x1="361.937" y1="312.919" x2="349.959" y2="179.243" gradientUnits="userSpaceOnUse">
<stop stop-color="#FF0054"/>
<stop offset="0.9975" stop-color="#D4087A" stop-opacity="0"/>
</linearGradient>
</defs>
</svg>
