<svg width="150" height="40" viewBox="0 0 150 40" fill="none" xmlns="http://www.w3.org/2000/svg">
<path d="M23.5648 16.225C21.5684 21.7928 15.4959 24.72 9.98833 22.7628C7.64182 21.9274 5.78748 20.35 4.57437 18.3686C2.94186 15.7073 2.49128 12.3383 3.63854 9.14189C4.7858 5.9455 7.27442 3.62243 10.2275 2.59378C12.425 1.82403 14.8754 1.7757 17.2116 2.60759C22.7191 4.56477 25.5613 10.6572 23.5648 16.225Z" fill="url(#paint0_linear)"/>
<path d="M26.3867 22.483C20.796 20.4948 17.8568 14.4472 19.822 8.96222C20.6608 6.62534 22.2448 4.77861 24.2343 3.57047C26.9066 1.94467 30.2895 1.49593 33.499 2.63848C36.7086 3.78104 39.0412 6.25945 40.0776 9.20385C40.847 11.3923 40.899 13.8293 40.0637 16.1593C38.095 21.6442 31.9774 24.4713 26.3867 22.483Z" fill="url(#paint1_linear)"/>
<path d="M30.8514 7.47813C30.1374 7.89235 29.7146 8.6414 29.7146 9.43186C29.7146 9.84608 29.8844 10.2638 30.0958 10.6366C30.2657 10.9714 30.3454 11.5513 29.7596 11.8412C29.3402 12.0898 28.7926 11.9241 28.5396 11.5064C28.29 11.1716 27.9919 10.8402 27.6142 10.5917C26.9001 10.1775 26.0579 10.1775 25.3439 10.5917C24.6299 11.0059 24.207 11.7584 24.207 12.5489C24.207 13.3393 24.6264 14.0884 25.3439 14.5026C26.0579 14.9168 26.9001 14.9168 27.6142 14.5026C27.9954 14.2955 28.2866 13.9641 28.498 13.5879C28.6678 13.2979 29.1288 12.9217 29.718 13.253C30.1374 13.5016 30.2657 14.0435 30.0542 14.4577C29.8428 14.834 29.718 15.2482 29.718 15.6624C29.718 16.4529 30.1374 17.2019 30.8549 17.6161C31.5689 18.0304 32.4112 18.0304 33.1252 17.6161C33.8392 17.2019 34.262 16.4529 34.262 15.6624C34.262 14.8719 33.8426 14.1229 33.1252 13.7087C32.7439 13.5016 32.3245 13.4187 31.8635 13.4187C31.4823 13.4187 30.9797 13.1702 30.9797 12.5454C30.9797 12.0449 31.3609 11.6721 31.8635 11.6721C32.2829 11.6721 32.7474 11.5893 33.1252 11.3821C33.8392 10.9679 34.262 10.2189 34.262 9.42841C34.262 8.63794 33.8426 7.8889 33.1252 7.47468C32.789 7.26412 32.3696 7.18127 31.9883 7.18127C31.607 7.18818 31.1842 7.27102 30.8514 7.47813Z" fill="white"/>
<path d="M13.638 7.18799L17 12.742L13.638 14.7682L10.2031 12.8041L13.638 7.18799Z" fill="url(#paint2_linear)"/>
<path d="M16.9998 12.7419L13.6377 11.2679V14.7681L16.9998 12.7419Z" fill="url(#paint3_linear)"/>
<path d="M10.2725 12.7419L13.638 11.2679V14.7681L10.2725 12.7419Z" fill="url(#paint4_linear)"/>
<path d="M16.9998 13.4288L13.5996 18.182V15.4412L16.9998 13.4288Z" fill="url(#paint5_linear)"/>
<path d="M10.2031 13.4288L13.5998 18.182V15.4412L10.2031 13.4288Z" fill="url(#paint6_linear)"/>
<path d="M12.1935 23.4357C14.3909 17.9439 20.5674 15.2411 25.9987 17.3951C28.3105 18.3132 30.1094 19.9598 31.2497 21.9825C32.7817 24.7026 33.111 28.0854 31.8459 31.2369C30.5843 34.3884 28.009 36.6217 25.0213 37.5434C22.7995 38.2303 20.349 38.1923 18.0407 37.2741C12.6094 35.1202 9.99598 28.9276 12.1935 23.4357Z" fill="url(#paint7_linear)"/>
<path d="M18.9424 25.0617C18.9424 24.7649 18.9424 24.4853 18.9424 24.1815C19.4866 24.1815 20.0203 24.1815 20.5714 24.1815C20.5714 23.826 20.5714 23.4946 20.5714 23.1494C20.9423 23.1494 21.2958 23.1494 21.6632 23.1494C21.6632 23.4877 21.6632 23.8191 21.6632 24.1677C21.8989 24.1677 22.1138 24.1677 22.3495 24.1677C22.3495 23.8329 22.3495 23.5015 22.3495 23.1529C22.7204 23.1529 23.0704 23.1529 23.4448 23.1529C23.4448 23.5188 23.4448 23.8812 23.4448 24.2471C24.1796 24.43 24.7445 24.7821 24.8451 25.576C24.9317 26.2802 24.6059 26.7186 23.7082 27.188C23.8468 27.2364 23.9681 27.2778 24.0895 27.3192C25.2298 27.7196 25.4169 29.159 24.5539 29.9391C24.2836 30.1842 23.9681 30.3361 23.6181 30.4259C23.5695 30.4397 23.5176 30.45 23.4517 30.4673C23.4517 30.8366 23.4517 31.1991 23.4517 31.5822C23.0808 31.5822 22.7308 31.5822 22.3599 31.5822C22.3599 31.2474 22.3599 30.9126 22.3599 30.5674C22.1277 30.5674 21.9093 30.5674 21.6771 30.5674C21.6771 30.9022 21.6771 31.2336 21.6771 31.5822C21.3062 31.5822 20.9562 31.5822 20.5784 31.5822C20.5784 31.2474 20.5784 30.9091 20.5784 30.557C20.0238 30.557 19.4935 30.557 18.9493 30.557C18.9493 30.2567 18.9493 29.9702 18.9493 29.6526C19.0776 29.6526 19.2058 29.6561 19.334 29.6526C19.5836 29.6423 19.6737 29.556 19.6772 29.3075C19.6841 28.9519 19.6806 28.5998 19.6806 28.2443C19.6806 27.3813 19.6806 26.5149 19.6806 25.652C19.6806 25.576 19.6806 25.4967 19.6772 25.4207C19.6633 25.1963 19.5767 25.1066 19.3548 25.0928C19.2197 25.0686 19.088 25.0652 18.9424 25.0617ZM21.2924 27.6817C21.2924 28.2616 21.2924 28.7931 21.2924 29.3282C21.2924 29.4593 21.379 29.518 21.4934 29.5146C21.8989 29.5008 22.3114 29.5042 22.71 29.449C23.1536 29.3869 23.4274 29.0141 23.4205 28.5688C23.4136 28.1097 23.1779 27.8128 22.7065 27.7541C22.2455 27.7024 21.7776 27.7058 21.2924 27.6817ZM21.2924 25.2102C21.2924 25.7348 21.2924 26.2319 21.2924 26.7428C21.5523 26.7428 21.7949 26.7531 22.041 26.7393C22.2767 26.7255 22.5193 26.7117 22.7481 26.6565C23.1259 26.5667 23.3165 26.2802 23.2923 25.9005C23.2715 25.5519 23.0635 25.3206 22.6788 25.2723C22.3356 25.2309 21.9856 25.2274 21.6355 25.2136C21.5246 25.2067 21.4102 25.2102 21.2924 25.2102Z" fill="#1A284D"/>
<path d="M20.1824 16.8153C21.2222 16.6186 22.2967 16.5771 23.3711 16.7049C23.4404 16.5392 23.5028 16.3735 23.5652 16.2043C24.9031 12.4695 24.0643 8.50332 21.7074 5.70044C20.9068 6.63588 20.2621 7.71976 19.8219 8.9417C18.8653 11.61 19.0732 14.4128 20.1824 16.8153Z" fill="url(#paint8_linear)"/>
<path d="M21.8073 19.3386C21.1453 18.5723 20.5976 17.7231 20.1817 16.8153C16.7538 17.4643 13.7037 19.7942 12.2549 23.2702C15.8977 23.7086 19.5162 22.1898 21.8073 19.3386Z" fill="url(#paint9_linear)"/>
<path d="M25.9981 17.371C25.135 17.0293 24.2512 16.8084 23.3708 16.7048C22.9687 17.6748 22.4384 18.555 21.8076 19.3386C22.993 20.709 24.5458 21.8066 26.3863 22.459C28.1713 23.0942 30.0048 23.2357 31.7448 22.9595C31.5957 22.6178 31.4328 22.283 31.2491 21.9585C30.1088 19.9357 28.3099 18.2892 25.9981 17.371Z" fill="url(#paint10_linear)"/>
<path d="M20.1826 16.8153C20.602 17.7231 21.1462 18.5722 21.8082 19.3385C22.4355 18.555 22.9693 17.6748 23.3714 16.7048C22.2969 16.5771 21.2224 16.6185 20.1826 16.8153Z" fill="url(#paint11_radial)"/>
<path d="M61.3203 10.6764V13.8901H54.8186C53.6645 13.8901 52.7457 14.1633 52.0663 14.7141C51.3826 15.2605 50.9471 15.872 50.7555 16.5399C50.5639 17.2121 50.4246 17.828 50.3375 18.3961C50.2504 18.9643 50.2068 19.5237 50.2068 20.0789V20.4171V20.7034C50.2068 20.9462 50.2155 21.2108 50.233 21.5014C50.2504 21.7876 50.2852 22.1389 50.3375 22.5466C50.3897 22.9542 50.5073 23.3966 50.6902 23.865C50.8731 24.3334 51.1301 24.7714 51.461 25.1704C51.8965 25.6215 52.3668 25.9077 52.872 26.0205C53.3771 26.1332 54.0303 26.1896 54.8316 26.1896H61.3203V29.4553H54.6836C53.4294 29.4553 52.3625 29.3469 51.4828 29.13C50.6031 28.9132 49.7191 28.4752 48.8307 27.8116C47.7681 26.9052 47.0148 25.8166 46.5706 24.5459C46.1264 23.2752 45.9043 21.9004 45.9043 20.4215V19.2982C45.9043 18.6173 45.974 17.9581 46.1133 17.3119C46.2527 16.6657 46.4269 16.0585 46.6359 15.4817C46.8449 14.9092 47.0888 14.4018 47.3719 13.9681C47.6506 13.5344 48.0643 13.0444 48.6043 12.5066C49.1443 11.9688 49.8018 11.5698 50.5726 11.3183C51.3434 11.0667 52.062 10.8976 52.737 10.8108C53.4076 10.7241 54.087 10.6807 54.7707 10.6807H61.3203V10.6764Z" fill="#333333"/>
<path d="M67.5612 29.4551H63.9424V15.6897H70.0783C71.1975 15.6897 72.0379 15.8458 72.5954 16.1581C73.1528 16.4703 73.5142 16.8997 73.671 17.4375C73.8278 17.9753 73.9062 18.7255 73.9062 19.684V20.5991V21.4361H70.4441V20.3389C70.4441 19.6233 70.4005 19.1506 70.3134 18.9164C70.2264 18.6822 70.0609 18.5217 69.817 18.435C69.5906 18.4003 69.3902 18.3743 69.216 18.3569C69.0418 18.3396 68.7544 18.3309 68.3494 18.3309H67.5612V29.4551Z" fill="#333333"/>
<path d="M82.1665 26.4496H85.1278V15.6897H88.7728V29.0865C88.7728 30.2531 88.5899 31.2289 88.2197 32.0096C87.8539 32.7946 87.2747 33.3844 86.4909 33.7834C85.7026 34.1824 84.7446 34.3819 83.608 34.3819H76.4226V31.5932H82.9243C83.6602 31.5932 84.2089 31.4197 84.5747 31.0728C84.9406 30.7258 85.1235 30.1837 85.1235 29.4551H81.8966C80.6032 29.4551 79.5406 29.286 78.7088 28.9477C77.8771 28.6094 77.25 28.0586 76.8232 27.304C76.3964 26.545 76.1787 25.5128 76.1787 24.2074V15.6897H79.7453V23.8908C79.7453 24.3245 79.7583 24.6411 79.7845 24.8319C79.8106 25.0228 79.8803 25.2613 79.9935 25.5519C80.1067 25.8381 80.3332 26.0593 80.6772 26.2198C81.0256 26.3716 81.5177 26.4496 82.1665 26.4496Z" fill="#333333"/>
<path d="M95.697 34.3905H92.0781V15.6897H99.0806C100.06 15.6897 100.971 15.8372 101.82 16.1321C102.669 16.427 103.374 16.8607 103.945 17.4245C104.511 17.9926 104.955 18.6822 105.269 19.5019C105.46 19.9356 105.604 20.3736 105.7 20.8073C105.796 21.241 105.844 21.7137 105.844 22.2168V22.7112C105.844 24.4676 105.347 26.0203 104.35 27.3604C103.897 27.9198 103.388 28.3449 102.83 28.6398C102.268 28.9347 101.667 29.1429 101.019 29.2643C100.37 29.3857 99.6555 29.4464 98.8672 29.4464H95.6926V34.3905H95.697ZM95.697 18.6431V26.5017H97.06C98.2489 26.5017 99.1721 26.4236 99.8253 26.2675C100.483 26.1113 101.005 25.747 101.397 25.1702C101.789 24.5978 101.985 23.7 101.985 22.4813V22.2211C101.985 20.7943 101.65 19.8401 100.975 19.3631C100.3 18.886 99.3114 18.6431 98.0006 18.6431H96.9773H96.2674H95.697V18.6431Z" fill="#333333"/>
<path d="M109.254 18.435H106.711V15.6941H109.254V10.6763H112.899V15.6898H116.805V18.4307H112.899V23.995C112.899 24.8147 113.034 25.4218 113.304 25.8252C113.574 26.2242 113.949 26.48 114.419 26.5841C114.976 26.6709 115.651 26.7142 116.44 26.7142H116.805V29.4552H113.474C112.093 29.4552 111.044 29.0735 110.325 28.3059C109.607 27.5383 109.25 26.4974 109.25 25.1703V18.435H109.254Z" fill="#333333"/>
<path d="M130.623 27.8071C129.956 28.4186 129.277 28.848 128.576 29.0995C127.875 29.3511 127.291 29.5202 126.821 29.6069C126.351 29.6937 125.859 29.7371 125.353 29.7371C124.391 29.7371 123.429 29.5679 122.471 29.2296C121.508 28.8913 120.711 28.4143 120.071 27.8071C119.431 27.1999 118.974 26.5321 118.695 25.8078C118.416 25.0835 118.233 24.4937 118.146 24.034C118.059 23.5743 118.016 23.0799 118.016 22.5594C118.016 21.5663 118.151 20.7292 118.421 20.0397C118.691 19.3501 118.943 18.8253 119.183 18.461C119.418 18.0967 119.784 17.663 120.284 17.1686C120.781 16.6742 121.491 16.2535 122.41 15.9153C123.328 15.577 124.313 15.4078 125.358 15.4078C126.355 15.4078 127.313 15.5683 128.228 15.8892C129.146 16.2102 129.861 16.6222 130.379 17.1166C130.893 17.611 131.276 18.049 131.52 18.422C131.764 18.795 132.016 19.3197 132.282 19.9876C132.543 20.6599 132.674 21.5142 132.674 22.5594C132.674 23.5526 132.504 24.5067 132.164 25.4175C131.816 26.3326 131.302 27.1306 130.623 27.8071ZM124.121 26.5537C124.26 26.6231 124.439 26.6752 124.657 26.7099C124.874 26.7446 125.088 26.7619 125.301 26.7619C126.055 26.7619 126.734 26.5451 127.348 26.107C127.958 25.6733 128.367 25.1399 128.567 24.5154C128.768 23.8909 128.868 23.2533 128.868 22.6115C128.868 21.6877 128.698 20.8854 128.358 20.1958C128.019 19.5062 127.47 19.0075 126.721 18.6952C126.233 18.5218 125.785 18.435 125.384 18.435C124.931 18.435 124.456 18.5304 123.969 18.7213C123.498 18.9468 123.102 19.233 122.788 19.5843C122.475 19.9313 122.231 20.3606 122.066 20.8637C121.9 21.3668 121.817 21.9523 121.817 22.6115C121.817 23.5005 122.005 24.2985 122.379 25.0141C122.749 25.7297 123.333 26.2415 124.121 26.5537Z" fill="#333333"/>
<path d="M144.075 29.4551H134.712V26.6058H142.394C143.687 26.6058 144.336 26.146 144.336 25.2223C144.336 24.3332 143.687 23.8908 142.394 23.8908H139.219C138.766 23.8908 138.405 23.8822 138.144 23.8648C137.882 23.8475 137.503 23.7998 137.016 23.7217C136.528 23.6436 136.079 23.4702 135.679 23.2013C135.278 22.9324 134.969 22.529 134.76 21.9999C134.551 21.4708 134.446 20.829 134.446 20.0787C134.446 17.1556 136.071 15.6897 139.324 15.6897H147.136V18.5347H140.648H140.382H140.038C138.932 18.5347 138.313 18.8383 138.191 19.4498V19.8922C138.191 20.6598 138.766 21.0415 139.92 21.0415H143.252C143.918 21.0415 144.523 21.1152 145.072 21.2627C145.621 21.4101 146.108 21.6443 146.526 21.9696C146.945 22.2905 147.276 22.7025 147.511 23.1969C147.746 23.6913 147.863 24.2638 147.863 24.9057C147.863 25.6907 147.75 26.3499 147.524 26.892C147.297 27.4341 147.08 27.8374 146.866 28.1063C146.657 28.3752 146.331 28.6658 145.895 28.9824C145.473 29.2946 144.859 29.4551 144.075 29.4551Z" fill="#333333"/>
<defs>
<linearGradient id="paint0_linear" x1="15.9441" y1="20.1478" x2="10.6305" y2="3.07451" gradientUnits="userSpaceOnUse">
<stop stop-color="#B10E99"/>
<stop offset="1" stop-color="#FF0054"/>
</linearGradient>
<linearGradient id="paint1_linear" x1="36.0118" y1="4.51655" x2="23.3947" y2="21.3812" gradientUnits="userSpaceOnUse">
<stop stop-color="#01AEF1"/>
<stop offset="1" stop-color="#0E75E6"/>
</linearGradient>
<linearGradient id="paint2_linear" x1="13.4774" y1="7.22102" x2="13.605" y2="12.9866" gradientUnits="userSpaceOnUse">
<stop stop-color="white"/>
<stop offset="1" stop-color="#C6CBFF"/>
</linearGradient>
<linearGradient id="paint3_linear" x1="15.3469" y1="11.4911" x2="15.1874" y2="14.3419" gradientUnits="userSpaceOnUse">
<stop stop-color="white"/>
<stop offset="1" stop-color="#C6CBFF"/>
</linearGradient>
<linearGradient id="paint4_linear" x1="13.855" y1="12.5423" x2="11.3523" y2="14.1532" gradientUnits="userSpaceOnUse">
<stop stop-color="white"/>
<stop offset="1" stop-color="#C6CBFF"/>
</linearGradient>
<linearGradient id="paint5_linear" x1="16.6942" y1="13.4152" x2="12.9481" y2="17.5625" gradientUnits="userSpaceOnUse">
<stop stop-color="white"/>
<stop offset="1" stop-color="#C6CBFF"/>
</linearGradient>
<linearGradient id="paint6_linear" x1="10.9334" y1="12.8605" x2="16.3364" y2="21.7208" gradientUnits="userSpaceOnUse">
<stop stop-color="white"/>
<stop offset="1" stop-color="#C6CBFF"/>
</linearGradient>
<linearGradient id="paint7_linear" x1="22.0189" y1="37.4521" x2="22.0189" y2="17.0275" gradientUnits="userSpaceOnUse">
<stop stop-color="#F79F1A"/>
<stop offset="1" stop-color="#FCBE0E"/>
</linearGradient>
<linearGradient id="paint8_linear" x1="17.6201" y1="11.201" x2="24.8782" y2="11.325" gradientUnits="userSpaceOnUse">
<stop stop-color="#01AEF1"/>
<stop offset="0.1063" stop-color="#2892D9"/>
<stop offset="0.2888" stop-color="#6667B4"/>
<stop offset="0.4642" stop-color="#994395"/>
<stop offset="0.6276" stop-color="#C1277D"/>
<stop offset="0.7762" stop-color="#DD136B"/>
<stop offset="0.9051" stop-color="#EF0661"/>
<stop offset="1" stop-color="#F5025D"/>
</linearGradient>
<linearGradient id="paint9_linear" x1="13.9775" y1="16.0845" x2="17.661" y2="22.4339" gradientUnits="userSpaceOnUse">
<stop stop-color="#EA001B" stop-opacity="0"/>
<stop offset="1" stop-color="#EA001B"/>
</linearGradient>
<linearGradient id="paint10_linear" x1="24.8611" y1="24.2929" x2="30.1823" y2="15.4151" gradientUnits="userSpaceOnUse">
<stop stop-color="#0794EC"/>
<stop offset="1" stop-color="#FCBE0E"/>
</linearGradient>
<radialGradient id="paint11_radial" cx="0" cy="0" r="1" gradientUnits="userSpaceOnUse" gradientTransform="translate(21.7756 17.9847) scale(5.1295 5.10846)">
<stop stop-color="#F5025D"/>
<stop offset="1" stop-color="#01AEF1"/>
</radialGradient>
</defs>
</svg>
