<svg width="324" height="381" viewBox="0 0 324 381" fill="none" xmlns="http://www.w3.org/2000/svg">
<path opacity="0.19" d="M161.272 379.889C156.69 379.889 152.308 378.956 149.038 377.089L6.16735 294.673C2.96427 292.828 1.20703 290.273 1.20703 287.451C1.20703 284.073 3.7428 280.674 8.16927 278.118L147.036 198.035C155.333 193.235 167.967 192.724 175.174 196.88L318.045 279.274C321.248 281.118 323.005 283.673 323.005 286.495C323.005 289.873 320.469 293.273 316.043 295.828L177.154 375.934C172.616 378.556 166.788 379.889 161.272 379.889ZM162.918 194.613C157.49 194.613 151.752 195.924 147.281 198.502L8.4362 278.607C4.18767 281.051 1.74088 284.296 1.74088 287.473C1.74088 290.073 3.40915 292.473 6.43427 294.228L149.305 376.622C156.356 380.689 168.746 380.178 176.909 375.467L315.776 295.384C320.024 292.939 322.471 289.695 322.471 286.518C322.471 283.918 320.803 281.518 317.778 279.763L174.885 197.368C171.704 195.524 167.411 194.613 162.918 194.613Z" stroke="url(#paint0_linear)" stroke-miterlimit="10"/>
<path d="M126.73 220.811C132.688 220.811 137.518 215.986 137.518 210.034C137.518 204.082 132.688 199.257 126.73 199.257C120.771 199.257 115.941 204.082 115.941 210.034C115.941 215.986 120.771 220.811 126.73 220.811Z" fill="url(#paint1_radial)"/>
<path d="M129.8 210.034C129.8 211.723 128.421 213.101 126.73 213.101C125.04 213.101 123.661 211.723 123.661 210.034C123.661 208.345 125.04 206.968 126.73 206.968C128.421 206.968 129.8 208.345 129.8 210.034Z" fill="#6EE8FC"/>
<path opacity="0.33" d="M148.481 353.38L46.6499 294.65C38.9091 290.184 39.8879 282.385 48.8075 277.252L146.301 221.033C155.243 215.878 168.745 215.323 176.486 219.789L278.317 278.518C286.058 282.985 285.079 290.784 276.159 295.917L178.666 352.135C169.746 357.29 156.222 357.846 148.481 353.38Z" fill="#08080C" fill-opacity="0.3"/>
<path d="M296.534 226.477V205.457H242.215L177.998 168.415C169.434 163.482 154.465 164.082 144.566 169.793L82.7735 205.457H28.4102V227.677H28.4546C28.21 231.033 30.0784 234.255 34.1935 236.632L146.968 301.672C155.532 306.605 170.502 306.005 180.401 300.294L288.371 238.01C294.087 234.721 296.846 230.455 296.534 226.477Z" fill="#312A91"/>
<path d="M296.534 226.477V205.457H242.215L177.998 168.415C169.434 163.482 154.465 164.082 144.566 169.793L82.7735 205.457H28.4102V227.677H28.4546C28.21 231.033 30.0784 234.255 34.1935 236.632L146.968 301.672C155.532 306.605 170.502 306.005 180.401 300.294L288.371 238.01C294.087 234.721 296.846 230.455 296.534 226.477Z" fill="url(#paint2_linear)"/>
<path d="M177.999 168.415C173.884 166.037 168.278 164.971 162.473 165.104V304.983C168.745 304.827 175.263 303.25 180.401 300.294L288.371 238.01C294.088 234.721 296.824 230.455 296.512 226.477V205.457H242.194L177.999 168.415Z" fill="url(#paint3_linear)"/>
<path d="M146.968 279.429L34.1934 214.389C25.6296 209.456 26.6973 200.813 36.5957 195.102L144.566 132.817C154.464 127.107 169.434 126.485 177.998 131.44L290.773 196.48C299.337 201.413 298.269 210.056 288.371 215.767L180.4 278.052C170.524 283.762 155.554 284.384 146.968 279.429Z" fill="#312A91"/>
<path d="M146.968 279.429L34.1934 214.389C25.6296 209.456 26.6973 200.813 36.5957 195.102L144.566 132.817C154.464 127.107 169.434 126.485 177.998 131.44L290.773 196.48C299.337 201.413 298.269 210.056 288.371 215.767L180.4 278.052C170.524 283.762 155.554 284.384 146.968 279.429Z" fill="url(#paint4_linear)"/>
<path d="M149.995 265.052L59.1305 212.656C52.235 208.679 53.1025 201.724 61.0657 197.124L148.06 146.95C156.024 142.35 168.102 141.861 174.997 145.839L265.862 198.235C272.758 202.212 271.89 209.168 263.927 213.767L176.932 263.941C168.969 268.541 156.891 269.052 149.995 265.052Z" fill="#5CFFF3"/>
<path d="M61.0661 203.923L148.061 153.749C156.024 149.15 168.102 148.661 174.998 152.638L265.863 205.034C267.576 206.012 268.799 207.19 269.555 208.456C271.557 204.768 270.4 200.857 265.863 198.235L174.998 145.839C168.102 141.861 156.024 142.35 148.061 146.95L61.0661 197.124C55.0603 200.59 53.1029 205.39 55.4384 209.256C56.4616 207.323 58.3301 205.479 61.0661 203.923Z" fill="#42E8E0"/>
<path d="M150.772 279.429L37.997 214.389C29.4333 209.456 27.3868 202.19 40.3993 195.102L148.37 132.817C153.241 130.018 159.336 128.44 165.275 128.151C158.201 127.84 150.483 129.418 144.566 132.817L36.5957 195.102C26.6973 200.813 25.6296 209.434 34.1934 214.389L146.968 279.429C151.328 281.94 157.334 283.007 163.495 282.718C158.713 282.496 154.22 281.429 150.772 279.429Z" fill="url(#paint5_linear)"/>
<path opacity="0.15" d="M288.393 225.166L180.401 287.451C170.502 293.162 155.532 293.784 146.968 288.829L34.1935 223.789C30.0784 221.411 28.21 218.189 28.4546 214.834H28.4102V219.434H28.4546C28.21 222.789 30.0784 226.011 34.1935 228.388L146.968 293.428C155.532 298.361 170.502 297.761 180.401 292.051L288.371 229.766C294.087 226.477 296.823 222.211 296.512 218.234V213.634C296.846 217.611 294.087 221.878 288.393 225.166Z" fill="url(#paint6_linear)"/>
<path d="M268.8 219.034C270.023 219.745 270.023 220.9 268.8 221.611C267.576 222.322 265.575 222.322 264.351 221.611C263.128 220.9 263.128 219.745 264.351 219.034C265.575 218.322 267.576 218.322 268.8 219.034Z" fill="#FCCC6B"/>
<path d="M275.737 215.034C276.961 215.745 276.961 216.9 275.737 217.612C274.514 218.323 272.512 218.323 271.289 217.612C270.065 216.9 270.065 215.745 271.289 215.034C272.512 214.323 274.514 214.323 275.737 215.034Z" fill="#FCCC6B"/>
<path d="M282.679 211.034C283.902 211.745 283.902 212.901 282.679 213.612C281.455 214.323 279.453 214.323 278.23 213.612C277.007 212.901 277.007 211.745 278.23 211.034C279.453 210.323 281.455 210.323 282.679 211.034Z" fill="#FCCC6B"/>
<path d="M152.687 252.365L81.4184 211.256C76.0132 208.123 76.6805 202.679 82.9309 199.079L151.174 159.727C157.425 156.127 166.878 155.727 172.306 158.86L243.574 199.968C248.979 203.101 248.312 208.545 242.062 212.145L173.818 251.498C167.568 255.098 158.114 255.498 152.687 252.365Z" fill="#511FF3"/>
<path d="M105.066 11.8193L92.5942 4.61683C82.5975 -1.15108 73.4923 -1.3304 66.6485 3.05282L57.4238 8.37743L60.7312 8.74104C56.5472 14.5388 54.1016 23.0413 54.1016 33.7204C54.1016 62.0668 71.3356 95.0007 92.5991 107.274L116.363 120.996L132.561 143.032L143.564 136.696V85.3726C143.559 57.0212 126.325 24.0923 105.066 11.8193Z" fill="url(#paint7_linear)"/>
<path d="M81.5952 113.61L132.56 143.032V91.7035C132.56 63.357 115.326 30.4231 94.0625 18.1501L81.5952 10.9527C60.3317 -1.32033 43.0977 11.7048 43.0977 40.0562C43.0977 68.4027 60.3317 101.332 81.5952 113.61Z" fill="url(#paint8_linear)"/>
<path d="M83.3402 110.586C63.0728 98.8857 46.5859 67.2469 46.5859 40.056C46.5859 21.6863 54.3263 9.82178 66.3104 9.82178C70.5243 9.82178 75.0768 11.2164 79.8486 13.9759L92.3208 21.1683C112.588 32.8685 129.075 64.5074 129.075 91.7032V136.99L83.3402 110.586Z" fill="url(#paint9_linear)"/>
<path d="M106.376 96.749C104.603 97.9593 102.635 98.5222 100.473 98.4375C98.3117 98.3528 95.9108 97.5509 93.2759 96.0317C91.0694 94.7566 89.0172 93.2125 87.1145 91.3945C85.2118 89.5764 83.4934 87.5193 81.9593 85.2181C80.4251 82.9169 79.1152 80.4016 78.0343 77.672C76.9534 74.9425 76.1565 72.0386 75.6335 68.9604L71.4844 66.5645V61.4292L75.0507 63.1925C75.0059 62.8189 74.986 62.4852 74.986 62.1863C74.986 61.8874 74.986 61.5687 74.986 61.22C74.986 60.8713 74.986 60.5526 74.986 60.2537C74.986 59.9549 75.0059 59.646 75.0507 59.3223L71.4844 57.2652V52.2045L75.6335 54.2268C76.7143 49.2957 78.8761 46.2523 82.1187 45.1017C85.3612 43.9462 89.3161 44.7182 93.9832 47.4129C96.1898 48.688 98.3166 50.4114 100.369 52.5881C102.421 54.7647 104.249 57.2602 105.848 60.0644L100.598 62.9085C99.6017 61.3943 98.5458 60.0096 97.4201 58.7694C96.2944 57.5242 95.0442 56.5031 93.6595 55.7061C91.4529 54.431 89.6399 54.1571 88.2153 54.8693C86.7908 55.5816 85.7747 57.1805 85.167 59.656L101.569 69.1247V74.6287L84.5195 64.7864V66.3504C84.5195 66.7488 84.5195 67.1174 84.5195 67.4661C84.5195 67.8148 84.5394 68.1734 84.5842 68.5469L98.9791 76.8551V82.4338L85.3662 74.5739C86.0586 77.7019 87.1145 80.3966 88.5441 82.6579C89.9686 84.9193 91.7418 86.6626 93.8587 87.8829C95.3729 88.7546 96.7128 89.1829 97.8783 89.163C99.0438 89.1431 100.125 88.7745 101.121 88.0572L106.376 96.749Z" fill="url(#paint10_linear)"/>
<path d="M196.745 121.472L185.695 115.094C177.392 110.299 169.786 109.862 163.87 113.019L163.844 113.036C163.442 113.253 163.045 113.487 162.656 113.734L155.311 118.056H157.977C153.951 123.199 151.581 130.986 151.581 140.883V186.374L196.749 212.45C200.7 214.732 204.492 216.021 208.019 216.414L209.348 219.848L219.029 214.273C219.06 214.255 219.091 214.238 219.117 214.22L219.223 214.158V214.154C226.361 209.938 230.868 200.297 230.868 186.652C230.864 161.534 215.59 132.35 196.745 121.472Z" fill="url(#paint11_linear)"/>
<path d="M141.828 191.984L186.997 218.061C205.838 228.938 221.116 217.39 221.116 192.267C221.116 167.144 205.842 137.956 186.997 127.079L175.947 120.7C157.107 109.823 141.828 121.371 141.828 146.494V191.984Z" fill="url(#paint12_linear)"/>
<path d="M200.538 219.067C196.803 219.067 192.769 217.827 188.54 215.385L144.916 190.201V146.494C144.916 130.213 151.776 119.698 162.397 119.698C166.132 119.698 170.167 120.934 174.396 123.38L185.445 129.758C203.407 140.128 218.019 168.169 218.019 192.271C218.019 200.677 216.227 207.656 212.841 212.445C209.778 216.78 205.526 219.067 200.538 219.067Z" fill="url(#paint13_linear)"/>
<path d="M189.589 178.101C188.626 176.132 187.403 174.212 185.96 172.402C184.618 170.72 183.157 169.082 181.612 167.542C180.204 166.138 178.87 164.769 177.652 163.476C176.548 162.306 175.635 161.194 174.933 160.174C174.5 159.543 174.407 159.145 174.407 158.752C174.407 157.865 174.659 157.415 175.246 157.238C175.952 157.026 177.007 157.322 178.389 158.121C179.144 158.554 179.819 159.017 180.407 159.49C180.976 159.949 181.506 160.443 181.983 160.96C182.477 161.494 182.958 162.077 183.413 162.69C183.916 163.374 184.468 164.147 185.046 164.99C185.364 165.449 185.757 165.833 186.159 166.063C186.675 166.359 187.165 166.394 187.509 166.16L189.831 164.593C190.511 164.138 190.476 162.831 189.756 161.613C188.591 159.653 187.275 157.764 185.845 156.007C184.724 154.629 183.404 153.34 181.912 152.157V146.043C181.912 144.882 181.091 143.465 180.08 142.883L176.91 141.051C175.899 140.468 175.078 140.936 175.078 142.097V148.308C172.853 147.566 170.968 147.535 169.476 148.211C167.512 149.102 166.519 151.155 166.519 154.312C166.519 156.585 167.079 158.836 168.179 161.004C169.141 162.902 170.346 164.756 171.759 166.517C173.079 168.168 174.544 169.793 176.107 171.347C177.502 172.733 178.817 174.102 180.009 175.413C181.073 176.587 181.965 177.739 182.658 178.825C183.091 179.505 183.272 180.07 183.272 180.719C183.272 181.615 182.985 182.114 182.345 182.334C181.612 182.59 180.389 182.224 178.711 181.257C176.972 180.255 175.405 178.993 174.045 177.505C172.558 175.881 171.176 174.181 169.94 172.459C169.626 172.027 169.26 171.678 168.88 171.462C168.797 171.413 168.664 171.342 168.563 171.312C168.077 171.131 167.64 171.201 167.371 171.506L165.309 173.77C164.771 174.362 164.916 175.655 165.653 176.772C167.009 178.847 168.669 180.948 170.576 183.014C172.006 184.564 173.52 185.959 175.083 187.173V194.121C175.083 195.282 175.904 196.699 176.915 197.282L180.084 199.114C181.095 199.696 181.916 199.229 181.916 198.068V191.027C182.848 191.344 183.735 191.547 184.565 191.631C185.889 191.764 187.055 191.622 188.026 191.212C189.046 190.779 189.845 190.016 190.392 188.952C190.939 187.883 191.213 186.537 191.213 184.948C191.222 182.617 190.67 180.313 189.589 178.101Z" fill="url(#paint14_linear)"/>
<defs>
<linearGradient id="paint0_linear" x1="0.0948522" y1="286.991" x2="324.094" y2="286.991" gradientUnits="userSpaceOnUse">
<stop stop-color="#E5024E"/>
<stop offset="0.4942" stop-color="#AF017F"/>
<stop offset="1" stop-color="#7C01AE"/>
</linearGradient>
<radialGradient id="paint1_radial" cx="0" cy="0" r="1" gradientUnits="userSpaceOnUse" gradientTransform="translate(126.731 210.031) scale(10.783 10.7719)">
<stop stop-color="#42E8E0"/>
<stop offset="0.0225" stop-color="#3FD8D7"/>
<stop offset="0.0983" stop-color="#36A9BA"/>
<stop offset="0.1786" stop-color="#2E7FA0"/>
<stop offset="0.2622" stop-color="#275C8B"/>
<stop offset="0.35" stop-color="#223F79"/>
<stop offset="0.4433" stop-color="#1D296C"/>
<stop offset="0.5449" stop-color="#1A1962"/>
<stop offset="0.6608" stop-color="#19105D"/>
<stop offset="0.8226" stop-color="#180D5B"/>
</radialGradient>
<linearGradient id="paint2_linear" x1="62.23" y1="163.948" x2="190.7" y2="236.261" gradientUnits="userSpaceOnUse">
<stop stop-color="#111119"/>
<stop offset="0.2237" stop-color="#191426"/>
<stop offset="0.6351" stop-color="#2F1E48"/>
<stop offset="1" stop-color="#46276B"/>
</linearGradient>
<linearGradient id="paint3_linear" x1="275.704" y1="174.067" x2="138.615" y2="251.311" gradientUnits="userSpaceOnUse">
<stop stop-color="#111119"/>
<stop offset="0.2237" stop-color="#191426"/>
<stop offset="0.6351" stop-color="#2F1E48"/>
<stop offset="1" stop-color="#46276B"/>
</linearGradient>
<linearGradient id="paint4_linear" x1="28.4145" y1="205.447" x2="296.569" y2="205.447" gradientUnits="userSpaceOnUse">
<stop stop-color="#2D2E43"/>
<stop offset="0.1461" stop-color="#312F4C"/>
<stop offset="0.3803" stop-color="#3B3163"/>
<stop offset="0.6733" stop-color="#4C3489"/>
<stop offset="1" stop-color="#6238BC"/>
</linearGradient>
<linearGradient id="paint5_linear" x1="28.4145" y1="205.451" x2="165.274" y2="205.451" gradientUnits="userSpaceOnUse">
<stop stop-color="#3A2C65"/>
<stop offset="0.4505" stop-color="#482F84"/>
<stop offset="1" stop-color="#5B34AE"/>
</linearGradient>
<linearGradient id="paint6_linear" x1="28.4146" y1="255.212" x2="296.55" y2="255.212" gradientUnits="userSpaceOnUse">
<stop stop-color="#FF0054" stop-opacity="0.2"/>
<stop offset="0.5" stop-color="#FF0054" stop-opacity="0.9"/>
<stop offset="1" stop-color="#FF0054" stop-opacity="0.3"/>
</linearGradient>
<linearGradient id="paint7_linear" x1="54.1002" y1="71.5159" x2="143.561" y2="71.5159" gradientUnits="userSpaceOnUse">
<stop stop-color="#2B1C87"/>
<stop offset="1" stop-color="#6B2CFF"/>
</linearGradient>
<linearGradient id="paint8_linear" x1="86.8737" y1="12.4321" x2="88.7674" y2="118.481" gradientUnits="userSpaceOnUse">
<stop stop-color="#DBDFFF"/>
<stop offset="1" stop-color="#8B97FF"/>
</linearGradient>
<linearGradient id="paint9_linear" x1="114.322" y1="34.3879" x2="58.5751" y2="135.229" gradientUnits="userSpaceOnUse">
<stop stop-color="#D6BFFF"/>
<stop offset="1" stop-color="#8E52FF"/>
</linearGradient>
<linearGradient id="paint10_linear" x1="71.4946" y1="58.9407" x2="106.374" y2="58.9407" gradientUnits="userSpaceOnUse">
<stop stop-color="white"/>
<stop offset="1" stop-color="#DCEEFF"/>
</linearGradient>
<linearGradient id="paint11_linear" x1="151.578" y1="165.423" x2="230.865" y2="165.423" gradientUnits="userSpaceOnUse">
<stop stop-color="#2B1C87"/>
<stop offset="1" stop-color="#6B2CFF"/>
</linearGradient>
<linearGradient id="paint12_linear" x1="187.521" y1="126.717" x2="175.353" y2="212.524" gradientUnits="userSpaceOnUse">
<stop stop-color="#DBDFFF"/>
<stop offset="1" stop-color="#8B97FF"/>
</linearGradient>
<linearGradient id="paint13_linear" x1="193.726" y1="128.066" x2="170.124" y2="207.684" gradientUnits="userSpaceOnUse">
<stop stop-color="#D6BFFF"/>
<stop offset="1" stop-color="#8E52FF"/>
</linearGradient>
<linearGradient id="paint14_linear" x1="164.982" y1="162.281" x2="191.217" y2="162.281" gradientUnits="userSpaceOnUse">
<stop stop-color="white"/>
<stop offset="1" stop-color="#DCEEFF"/>
</linearGradient>
</defs>
</svg>
