<svg width="78" height="79" viewBox="0 0 78 79" fill="none" xmlns="http://www.w3.org/2000/svg">
<g filter="url(#filter0_d)">
<path d="M66.0364 62.8934C58.9662 69.7494 47.7181 70.1779 38.5054 69.9637C29.5069 69.8565 17.8303 68.8924 11.1886 61.9293C4.43971 54.9662 3.90409 43.7181 4.01121 34.3983C4.11834 25.3998 5.18958 13.7232 12.0456 7.08147C18.9015 0.439741 30.5781 -0.0958824 39.5766 0.0112423C48.7893 0.118367 60.0374 1.08249 66.8934 8.04559C73.6423 14.9016 74.1779 26.5782 73.9636 35.5766C73.8565 44.7894 73.1066 56.1446 66.0364 62.8934Z" fill="url(#paint0_linear)"/>
</g>
<path d="M40.9701 68.9996C40.1131 68.9996 39.2561 68.9996 38.5063 68.9996C28.865 68.7853 18.0454 67.8212 11.9393 61.2866C5.61899 54.6449 4.97624 44.0395 5.08336 34.5054C5.19049 25.5069 6.26173 14.2589 12.7963 7.9385C19.1167 1.83239 29.9363 1.08252 37.5421 1.08252C38.292 1.08252 38.9348 1.08252 39.6846 1.08252C49.1116 1.29677 59.7169 2.26089 66.1444 8.7955C72.4648 15.1159 73.1075 25.9354 72.8933 35.5767C72.679 45.6464 71.7149 55.9304 65.1803 62.1436C58.9671 68.2497 49.0045 68.9996 40.9701 68.9996Z" fill="url(#paint1_linear)"/>
<path d="M73.0001 33.7556C72.8929 24.8642 71.8217 15.6515 66.1441 9.86674C59.7166 3.33214 49.1112 2.36802 39.5772 2.15377C38.9344 2.15377 38.1845 2.15377 37.4347 2.15377C29.9359 2.15377 19.1163 2.90364 12.796 9.00975C6.26138 15.3301 5.29726 26.4711 5.08301 35.5767C5.08301 36.1123 5.08301 36.755 5.08301 37.2907C5.08301 36.3265 5.08301 35.4695 5.08301 34.5054C5.29726 25.5069 6.26138 14.2589 12.796 7.9385C19.1163 1.83239 29.9359 1.08252 37.5418 1.08252C38.2917 1.08252 38.9344 1.08252 39.6843 1.08252C49.1112 1.29677 59.7166 2.26089 66.1441 8.7955C72.0359 14.7945 73.0001 24.5428 73.0001 33.7556Z" fill="url(#paint2_linear)"/>
<path d="M73.0001 32.6841C73.0001 33.6482 73.0001 34.6123 73.0001 35.5764C72.7858 45.6462 71.8217 55.9301 65.2871 62.1434C59.0738 68.1423 49.0041 68.9993 40.9698 68.9993C40.1128 68.9993 39.2558 68.9993 38.5059 68.9993C28.8647 68.8922 18.0451 67.821 11.939 61.2864C6.04713 55.0731 5.08301 45.2177 5.08301 36.2192C5.08301 45.0034 6.26138 54.2161 11.939 60.2151C18.0451 66.7497 28.7576 67.7139 38.5059 67.9281C39.3629 67.9281 40.1128 67.9281 40.9698 67.9281C49.0041 67.9281 59.0738 67.1782 65.2871 61.0721C71.7146 54.8589 72.7858 44.5749 73.0001 34.5052C73.0001 33.8625 73.0001 33.3268 73.0001 32.6841Z" fill="url(#paint3_linear)"/>
<g filter="url(#filter1_d)">
<path d="M54.4766 14H23.5234C20.4651 14 18 16.4651 18 19.5234V50.4766C18 53.5349 20.4651 56 23.5234 56H54.4766C57.5349 56 60 53.5349 60 50.4766V19.5234C60 16.4651 57.5163 14 54.4766 14ZM56.1447 48.1227C56.1447 50.3469 54.3469 52.1447 52.1227 52.1447H25.8773C23.6531 52.1447 21.8553 50.3469 21.8553 48.1227V21.8773C21.8553 19.6531 23.6531 17.8553 25.8773 17.8553H52.1227C54.3469 17.8553 56.1447 19.6531 56.1447 21.8773V48.1227Z" fill="url(#paint4_linear)"/>
</g>
<g filter="url(#filter2_d)">
<path d="M52.1249 20.6543H25.8796C25.2123 20.6543 24.6562 21.2103 24.6562 21.8776V48.123C24.6562 48.7902 25.2123 49.3463 25.8796 49.3463H52.1249C52.7922 49.3463 53.3482 48.7902 53.3482 48.123V21.8776C53.3482 21.1918 52.7922 20.6543 52.1249 20.6543Z" fill="url(#paint5_linear)"/>
</g>
<g filter="url(#filter3_d)">
<path d="M49.512 36.39H47.3249C47.1024 37.6874 46.5835 38.8922 45.8421 39.9301L47.399 41.4871C47.9365 42.0246 47.9365 42.9143 47.399 43.4703C47.121 43.7483 46.7688 43.8781 46.4166 43.8781C46.0645 43.8781 45.6938 43.7483 45.4343 43.4703L43.8588 41.8948C42.8209 42.6177 41.6347 43.1181 40.3372 43.322V45.5833C40.3372 46.3617 39.707 46.9919 38.9286 46.9919C38.1501 46.9919 37.5199 46.3617 37.5199 45.5833V43.3035C36.241 43.0811 35.0733 42.5621 34.0724 41.8392L32.4228 43.4888C32.1448 43.7669 31.7926 43.8966 31.4405 43.8966C31.0883 43.8966 30.7176 43.7669 30.4581 43.4888C29.9206 42.9328 29.9206 42.0617 30.4581 41.5056L32.1077 39.856C31.4034 38.8551 30.903 37.6689 30.6991 36.4085H28.3266C27.5482 36.4085 26.918 35.7783 26.918 34.9999C26.918 34.2214 27.5482 33.5912 28.3266 33.5912H30.6805C30.8844 32.3308 31.3849 31.1632 32.0892 30.1437L30.4396 28.4941C29.9021 27.9566 29.9021 27.0669 30.4396 26.5109C30.9771 25.9734 31.8668 25.9734 32.4228 26.5109L34.0539 28.142C35.0733 27.4191 36.241 26.9001 37.5199 26.6777V24.4165C37.5199 23.638 38.1501 23.0078 38.9286 23.0078C39.707 23.0078 40.3372 23.638 40.3372 24.4165V26.6777C41.6347 26.8816 42.8394 27.382 43.8588 28.1049L45.4343 26.5294C45.9718 25.9919 46.8615 25.9919 47.4175 26.5294C47.9736 27.0855 47.9736 27.9566 47.4175 28.5127L45.8606 30.0696C46.602 31.1075 47.121 32.2938 47.3434 33.6098H49.512C50.2904 33.6098 50.9206 34.2399 50.9206 35.0184C50.9021 35.7783 50.2719 36.39 49.512 36.39Z" fill="url(#paint6_linear)"/>
</g>
<g filter="url(#filter4_d)">
<path d="M38.9979 29.3472C35.884 29.3472 33.3633 31.8864 33.3633 34.9818C33.3633 38.0956 35.9026 40.6164 38.9979 40.6164C42.1117 40.6164 44.6325 38.0771 44.6325 34.9818C44.6325 31.8864 42.1117 29.3472 38.9979 29.3472ZM38.9979 37.243C37.756 37.243 36.7552 36.2421 36.7552 35.0003C36.7552 33.7585 37.756 32.7576 38.9979 32.7576C40.2397 32.7576 41.2406 33.7585 41.2406 35.0003C41.2406 36.2421 40.2397 37.243 38.9979 37.243Z" fill="url(#paint7_linear)"/>
</g>
<defs>
<filter id="filter0_d" x="0" y="0" width="78" height="78.0033" filterUnits="userSpaceOnUse" color-interpolation-filters="sRGB">
<feFlood flood-opacity="0" result="BackgroundImageFix"/>
<feColorMatrix in="SourceAlpha" type="matrix" values="0 0 0 0 0 0 0 0 0 0 0 0 0 0 0 0 0 0 127 0"/>
<feOffset dy="4"/>
<feGaussianBlur stdDeviation="2"/>
<feColorMatrix type="matrix" values="0 0 0 0 0.0446078 0 0 0 0 0 0 0 0 0 0.270833 0 0 0 0.44 0"/>
<feBlend mode="normal" in2="BackgroundImageFix" result="effect1_dropShadow"/>
<feBlend mode="normal" in="SourceGraphic" in2="effect1_dropShadow" result="shape"/>
</filter>
<filter id="filter1_d" x="14" y="14" width="50" height="50" filterUnits="userSpaceOnUse" color-interpolation-filters="sRGB">
<feFlood flood-opacity="0" result="BackgroundImageFix"/>
<feColorMatrix in="SourceAlpha" type="matrix" values="0 0 0 0 0 0 0 0 0 0 0 0 0 0 0 0 0 0 127 0"/>
<feOffset dy="4"/>
<feGaussianBlur stdDeviation="2"/>
<feColorMatrix type="matrix" values="0 0 0 0 0.0901961 0 0 0 0 0.0392157 0 0 0 0 0.364706 0 0 0 0.32 0"/>
<feBlend mode="normal" in2="BackgroundImageFix" result="effect1_dropShadow"/>
<feBlend mode="normal" in="SourceGraphic" in2="effect1_dropShadow" result="shape"/>
</filter>
<filter id="filter2_d" x="20.6562" y="20.6543" width="36.692" height="36.692" filterUnits="userSpaceOnUse" color-interpolation-filters="sRGB">
<feFlood flood-opacity="0" result="BackgroundImageFix"/>
<feColorMatrix in="SourceAlpha" type="matrix" values="0 0 0 0 0 0 0 0 0 0 0 0 0 0 0 0 0 0 127 0"/>
<feOffset dy="4"/>
<feGaussianBlur stdDeviation="2"/>
<feColorMatrix type="matrix" values="0 0 0 0 0.0901961 0 0 0 0 0.0392157 0 0 0 0 0.364706 0 0 0 0.32 0"/>
<feBlend mode="normal" in2="BackgroundImageFix" result="effect1_dropShadow"/>
<feBlend mode="normal" in="SourceGraphic" in2="effect1_dropShadow" result="shape"/>
</filter>
<filter id="filter3_d" x="22.918" y="21.0078" width="32.0026" height="31.9841" filterUnits="userSpaceOnUse" color-interpolation-filters="sRGB">
<feFlood flood-opacity="0" result="BackgroundImageFix"/>
<feColorMatrix in="SourceAlpha" type="matrix" values="0 0 0 0 0 0 0 0 0 0 0 0 0 0 0 0 0 0 127 0"/>
<feOffset dy="2"/>
<feGaussianBlur stdDeviation="2"/>
<feColorMatrix type="matrix" values="0 0 0 0 0.501961 0 0 0 0 0.243137 0 0 0 0 1 0 0 0 0.4 0"/>
<feBlend mode="normal" in2="BackgroundImageFix" result="effect1_dropShadow"/>
<feBlend mode="normal" in="SourceGraphic" in2="effect1_dropShadow" result="shape"/>
</filter>
<filter id="filter4_d" x="31.3633" y="29.3472" width="15.2692" height="15.2692" filterUnits="userSpaceOnUse" color-interpolation-filters="sRGB">
<feFlood flood-opacity="0" result="BackgroundImageFix"/>
<feColorMatrix in="SourceAlpha" type="matrix" values="0 0 0 0 0 0 0 0 0 0 0 0 0 0 0 0 0 0 127 0"/>
<feOffset dy="2"/>
<feGaussianBlur stdDeviation="1"/>
<feColorMatrix type="matrix" values="0 0 0 0 0.0901961 0 0 0 0 0.0392157 0 0 0 0 0.364706 0 0 0 0.3 0"/>
<feBlend mode="normal" in2="BackgroundImageFix" result="effect1_dropShadow"/>
<feBlend mode="normal" in="SourceGraphic" in2="effect1_dropShadow" result="shape"/>
</filter>
<linearGradient id="paint0_linear" x1="39.0318" y1="70.0521" x2="39.0318" y2="0.436098" gradientUnits="userSpaceOnUse">
<stop stop-color="#201684"/>
<stop offset="0.2213" stop-color="#2E189D"/>
<stop offset="0.7462" stop-color="#4D1DD5"/>
<stop offset="1" stop-color="#591FEB"/>
</linearGradient>
<linearGradient id="paint1_linear" x1="39.0327" y1="68.9816" x2="39.0327" y2="1.49377" gradientUnits="userSpaceOnUse">
<stop stop-color="#2F2593"/>
<stop offset="0.2213" stop-color="#3D27AC"/>
<stop offset="0.7462" stop-color="#5C2CE4"/>
<stop offset="1" stop-color="#682EFA"/>
</linearGradient>
<linearGradient id="paint2_linear" x1="39.0323" y1="37.2491" x2="39.0323" y2="1.30309" gradientUnits="userSpaceOnUse">
<stop stop-color="#2F2593" stop-opacity="0"/>
<stop offset="0.2533" stop-color="#4A42B1" stop-opacity="0.2533"/>
<stop offset="0.7566" stop-color="#7C76E9" stop-opacity="0.7566"/>
<stop offset="1" stop-color="#908BFF"/>
</linearGradient>
<linearGradient id="paint3_linear" x1="39.0323" y1="68.979" x2="39.0323" y2="32.8842" gradientUnits="userSpaceOnUse">
<stop stop-color="#07006B"/>
<stop offset="0.414" stop-color="#3315AC" stop-opacity="0.586"/>
<stop offset="0.8098" stop-color="#5927E4" stop-opacity="0.1902"/>
<stop offset="1" stop-color="#682EFA" stop-opacity="0"/>
</linearGradient>
<linearGradient id="paint4_linear" x1="38.9786" y1="56.0516" x2="38.9786" y2="13.98" gradientUnits="userSpaceOnUse">
<stop stop-color="#BDA6FB"/>
<stop offset="1" stop-color="#F0EAFE"/>
</linearGradient>
<linearGradient id="paint5_linear" x1="38.9876" y1="49.3815" x2="38.9876" y2="13.9076" gradientUnits="userSpaceOnUse">
<stop stop-color="#BDA6FB"/>
<stop offset="1" stop-color="#F0EAFE"/>
</linearGradient>
<linearGradient id="paint6_linear" x1="38.928" y1="47.7061" x2="38.928" y2="12.7415" gradientUnits="userSpaceOnUse">
<stop stop-color="#EDE6FE"/>
<stop offset="0.1339" stop-color="#F1ECFE"/>
<stop offset="0.6046" stop-color="#FBFAFF"/>
<stop offset="1" stop-color="white"/>
</linearGradient>
<linearGradient id="paint7_linear" x1="38.9922" y1="40.6302" x2="38.9922" y2="29.3418" gradientUnits="userSpaceOnUse">
<stop stop-color="#BDA6FB"/>
<stop offset="1" stop-color="#F0EAFE"/>
</linearGradient>
</defs>
</svg>
