<svg width="148" height="256" viewBox="0 0 148 256" fill="none" xmlns="http://www.w3.org/2000/svg">
<mask id="mask0" mask-type="alpha" maskUnits="userSpaceOnUse" x="0" y="0" width="148" height="256">
<rect y="255.497" width="255" height="148" transform="rotate(-90 0 255.497)" fill="#3721A7"/>
</mask>
<g mask="url(#mask0)">
<path d="M107.376 256.339L108.399 256.339L149.927 215.406L149.415 214.902L107.376 256.339ZM92.1684 256.339L93.1919 256.339L150 200.345L149.488 199.841L92.1684 256.339ZM76.8879 256.339L77.9115 256.339L149.927 185.356L149.415 184.851L76.8879 256.339ZM61.6075 256.339L62.6311 256.339L149.927 170.294L149.415 169.79L61.6075 256.339ZM46.4002 256.339L47.4238 256.339L150 155.233L149.488 154.729L46.4002 256.339ZM31.1198 256.339L32.1433 256.339L149.927 140.244L149.415 139.739L31.1198 256.339ZM15.8393 256.339L16.8629 256.339L149.927 125.182L149.415 124.678L15.8393 256.339ZM0.558923 256.339L1.6556 256.339L150 110.121L149.488 109.617L0.558923 256.339ZM-2 243.872L-1.48822 244.376L149.927 95.1317L149.415 94.6273L-2 243.872ZM-2 228.81L-1.48822 229.315L149.927 80.0704L149.415 79.5659L-2 228.81ZM-2 213.749L-1.48822 214.253L149.927 65.009L149.415 64.5046L-2 213.749ZM-2 198.76L-1.48822 199.264L149.927 50.0197L149.415 49.5153L-2 198.76ZM-2 183.698L-1.48822 184.203L149.927 34.9584L149.415 34.4539L-2 183.698ZM-2 168.637L-1.48822 169.141L149.927 19.897L149.415 19.3926L-2 168.637ZM-2 153.648L-1.48822 154.152L149.927 4.83564L149.415 4.33119L-2 153.648ZM-2.00001 138.586L-1.48822 139.091L149.927 -10.1536L149.415 -10.6581L-2.00001 138.586ZM-2.00001 123.525L-1.48822 124.029L149.927 -25.215L149.415 -25.7195L-2.00001 123.525ZM-2.00001 108.536L-1.48822 109.04L149.927 -40.2043L149.415 -40.7087L-2.00001 108.536ZM-2.00001 93.4743L-1.48822 93.9787L149.927 -55.2657L149.415 -55.7701L-2.00001 93.4743ZM-2.00001 78.4129L-1.48822 78.9174L149.927 -70.327L149.415 -70.8315L-2.00001 78.4129ZM-2.00001 63.3516L-1.48822 63.9281L149.927 -85.3163L149.415 -85.8207L-2.00001 63.3516ZM-2.00001 48.3623L-1.48822 48.8667L149.927 -100.378L149.415 -100.882L-2.00001 48.3623ZM-2.00001 33.3009L-1.48823 33.8054L149.927 -115.439L149.415 -115.943L-2.00001 33.3009ZM-2.00001 18.2395L-1.48823 18.744L149.927 -130.5L149.415 -131.005L-2.00001 18.2395ZM-2.00001 3.25024L-1.48823 3.7547L149.927 -145.49L149.415 -145.994L-2.00001 3.25024ZM-2.00001 -11.8111L-1.48823 -11.3067L149.927 -160.551L149.415 -161.056L-2.00001 -11.8111ZM-2.00001 -26.8725L-1.48823 -26.368L149.927 -175.612L149.415 -176.117L-2.00001 -26.8725ZM-2.00001 -41.8618L-1.48823 -41.3573L149.927 -190.602L149.415 -191.106L-2.00001 -41.8618ZM-2.00001 -56.9231L-1.48823 -56.4187L149.927 -205.663L149.415 -206.168L-2.00001 -56.9231ZM-2.00001 -71.9845L-1.48823 -71.48L149.927 -220.724L149.415 -221.229L-2.00001 -71.9845ZM-2.00002 -87.0458L-1.48823 -86.5414L149.927 -235.786L149.415 -236.29L-2.00002 -87.0458ZM-2.00002 -102.035L-1.48823 -101.531L149.927 -250.775L149.415 -251.28L-2.00002 -102.035ZM-2.00002 -117.097L-1.48823 -116.592L149.927 -265.836L149.415 -266.341L-2.00002 -117.097ZM-2.00002 -132.086L-1.48823 -131.581L149.927 -280.826L149.415 -281.33L-2.00002 -132.086ZM-2.00002 -147.147L-1.48823 -146.643L149.927 -295.887L149.415 -296.392L-2.00002 -147.147ZM-2.00002 -162.208L-1.48823 -161.704L149.927 -310.948L149.415 -311.453L-2.00002 -162.208ZM-2.00002 -177.27L-1.48823 -176.765L149.927 -326.01L149.415 -326.514L-2.00002 -177.27ZM-2.00002 -192.259L-1.48824 -191.755L149.927 -341.071L149.415 -341.576L-2.00002 -192.259ZM-2.00002 -207.321L-1.48824 -206.816L149.927 -356.06L149.415 -356.565L-2.00002 -207.321ZM-2.00002 -222.382L-1.48824 -221.877L149.927 -371.122L149.415 -371.626L-2.00002 -222.382ZM-2.00002 -237.371L-1.48824 -236.867L149.927 -386.111L149.415 -386.616L-2.00002 -237.371ZM-2.00002 -252.433L-1.48824 -251.928L149.927 -401.172L149.415 -401.677L-2.00002 -252.433ZM-2.00002 -267.494L-1.48824 -266.99L149.927 -416.234L149.415 -416.738L-2.00002 -267.494ZM-2.00002 -282.555L-1.48824 -281.979L149.927 -431.223L149.415 -431.728L-2.00002 -282.555ZM-2.00002 -297.545L-1.48824 -297.04L149.927 -446.284L149.415 -446.789L-2.00002 -297.545ZM-2.00002 -312.606L-1.48824 -312.101L149.927 -461.346L149.415 -461.85L-2.00002 -312.606ZM-2.00003 -327.667L-1.48824 -327.163L149.927 -476.407L149.415 -476.912L-2.00003 -327.667ZM-2.00003 -342.657L-1.48824 -342.152L149.927 -491.396L149.415 -491.901L-2.00003 -342.657ZM-2.00003 -357.718L-1.48824 -357.214L149.927 -506.458L149.415 -506.962L-2.00003 -357.718ZM-2.00003 -372.779L-1.48824 -372.275L149.927 -521.519L149.415 -522.024L-2.00003 -372.779ZM-2.00003 -387.769L-1.48824 -387.264L149.927 -536.508L149.415 -537.013L-2.00003 -387.769ZM-2.00003 -402.83L-1.48824 -402.326L149.927 -551.57L149.415 -552.074L-2.00003 -402.83ZM-2.00003 -417.891L-1.48824 -417.387L149.927 -566.631L149.415 -567.136L-2.00003 -417.891ZM-2.00003 -432.953L-1.48825 -432.448L149.927 -581.693L149.415 -582.197L-2.00003 -432.953ZM-2.00003 -447.942L-1.48825 -447.438L149.927 -596.682L149.415 -597.186L-2.00003 -447.942ZM-2.00003 -463.003L-1.48825 -462.499L149.927 -611.743L149.415 -612.248L-2.00003 -463.003ZM-2.00003 -477.993L-1.48825 -477.488L149.927 -626.733L149.415 -627.237L-2.00003 -477.993ZM-2.00003 -493.054L-1.48825 -492.549L149.927 -641.794L149.415 -642.298L-2.00003 -493.054ZM-2.00003 -508.115L-1.48825 -507.611L149.927 -656.855L149.415 -657.36L-2.00003 -508.115ZM-2.00003 -523.177L-1.48825 -522.672L149.927 -671.917L149.415 -672.421L-2.00003 -523.177ZM-2.00003 -538.166L-1.48825 -537.662L149.927 -686.978L149.415 -687.482L-2.00003 -538.166ZM-2.00004 -553.227L-1.48825 -552.723L149.927 -701.967L149.415 -702.472L-2.00004 -553.227ZM-2.00004 -568.289L-1.48825 -567.784L149.927 -717.029L149.415 -717.533L-2.00004 -568.289ZM-2.00004 -583.278L-1.48825 -582.774L149.927 -732.018L149.415 -732.522L-2.00004 -583.278ZM-2.00004 -598.339L-1.48825 -597.835L149.927 -747.079L149.415 -747.584L-2.00004 -598.339ZM-2.00004 -613.401L-1.48825 -612.896L149.927 -762.141L149.415 -762.645L-2.00004 -613.401ZM-2.00004 -628.462L-1.48825 -627.958L149.927 -777.202L149.415 -777.707L-2.00004 -628.462ZM-2.00004 -643.451L-1.48825 -642.947L149.927 -792.191L149.415 -792.696L-2.00004 -643.451ZM-2.00004 -658.513L-1.48826 -658.008L149.927 -807.253L149.415 -807.757L-2.00004 -658.513ZM-2.00004 -673.574L-1.48826 -673.07L149.927 -822.314L149.415 -822.818L-2.00004 -673.574ZM-2.00004 -688.563L-1.48826 -688.059L149.927 -837.303L149.415 -837.808L-2.00004 -688.563ZM-2.00004 -703.625L-1.48826 -703.12L149.927 -852.365L149.415 -852.869L-2.00004 -703.625ZM129.309 256.339L130.333 256.339L149.927 237.026L149.415 236.521L129.309 256.339Z" fill="url(#paint0_linear)" fill-opacity="0.8"/>
</g>
<defs>
<linearGradient id="paint0_linear" x1="-14" y1="-298.265" x2="157.5" y2="-298.265" gradientUnits="userSpaceOnUse">
<stop stop-color="#93A1FF"/>
<stop offset="1" stop-color="#F0F2FF" stop-opacity="0"/>
</linearGradient>
</defs>
</svg>
