<svg width="300" height="320" viewBox="0 0 300 320" fill="none" xmlns="http://www.w3.org/2000/svg">
<path d="M136.365 268.203L253.512 267.505L252.188 238.63L158.267 236.771L121.203 249.268L136.365 268.203Z" fill="url(#paint0_linear)"/>
<path d="M85.364 170.08C94.0355 167.166 101.92 165.27 107.821 164.072C118.906 162.034 129.419 160.765 137.447 160.461C138.788 160.407 140.022 160.354 141.148 160.3C143.061 160.21 144.652 160.139 145.886 160.121L148.926 160.157L148.89 161.283L145.904 161.247C144.76 161.265 143.186 161.337 141.309 161.426C140.183 161.48 138.931 161.534 137.572 161.587C129.687 161.873 119.335 163.143 108.429 165.145C99.4173 166.951 85.7037 170.455 71.6504 176.785C59.0453 182.453 48.2282 189.712 40.3612 197.775C32.4585 205.785 27.184 214.886 25.0921 224.076C23.1612 232.569 23.6975 240.954 26.6119 248.339C26.9516 249.733 27.6132 251.021 28.2389 252.272L28.7753 253.327C29.0793 253.881 29.3475 254.453 29.6157 255.008C30.0805 255.973 30.5275 256.903 31.0997 257.743L33.7458 261.552C34.0319 261.927 34.2822 262.32 34.5325 262.696C35.0153 263.411 35.4801 264.108 36.0523 264.68L41.3804 270.581L39.6461 271.099L34.3537 265.235C33.7101 264.609 33.2273 263.876 32.7088 263.107C32.4585 262.749 32.2082 262.374 31.94 261.999L29.2938 258.172C28.668 257.278 28.2211 256.331 27.7383 255.329C27.4701 254.793 27.2198 254.239 26.9159 253.667L26.3795 252.612C25.7358 251.324 25.0564 250.001 24.7167 248.571C21.7487 241.115 21.2123 232.587 23.1612 223.969C25.2709 214.636 30.6348 205.392 38.6627 197.257C46.6548 189.068 57.6507 181.684 70.4525 175.944C75.5302 173.62 80.5723 171.689 85.364 170.08Z" fill="url(#paint1_linear)"/>
<path d="M148.923 160.157L157.773 160.264L169.806 161.069C170.629 161.158 171.398 161.247 172.184 161.355L181.392 162.499C183.198 162.785 184.986 163.107 186.828 163.464C187.883 163.661 188.937 163.858 190.028 164.054C199.576 165.914 213.879 169.454 227.843 175.694C240.734 181.38 251.945 188.728 260.295 196.953C268.644 205.159 274.258 214.403 276.565 223.647C279.14 233.713 277.477 242.599 275.617 248.285C275.367 248.946 275.152 249.572 274.92 250.198C274.545 251.289 274.169 252.343 273.722 253.363L270.915 258.566C270.683 259.013 270.45 259.442 270.2 259.871L265.211 266.647L261.296 270.831L259.561 270.295L263.745 265.807L268.34 259.477C268.555 259.102 268.787 258.691 269.02 258.244L271.809 253.059C272.238 252.093 272.596 251.056 272.971 249.966C273.204 249.34 273.418 248.696 273.668 248.052C275.492 242.456 277.137 233.695 274.598 223.79C272.327 214.689 266.803 205.589 258.596 197.507C250.371 189.425 239.322 182.184 226.645 176.588C212.878 170.455 198.807 166.969 189.42 165.145C188.347 164.948 187.275 164.752 186.22 164.555C184.414 164.215 182.644 163.894 180.927 163.625L171.755 162.481C170.986 162.392 170.235 162.284 169.502 162.213L157.112 161.408L148.852 161.319L148.923 160.157Z" fill="url(#paint2_linear)"/>
<path d="M41.3302 270.527L47.6237 276.07C48.2317 276.66 49.0362 277.232 49.8944 277.84C50.3414 278.144 50.8063 278.466 51.2533 278.805L55.7232 281.988C56.7244 282.685 57.8866 283.365 59.1381 284.062C59.8533 284.473 60.5685 284.884 61.2837 285.313L62.6068 286.082C64.1802 287.012 65.8072 287.96 67.6846 288.8C77.4825 293.913 89.9267 298.294 103.748 301.494C118.695 304.963 135.055 306.787 151.075 306.751C167.148 306.769 183.454 304.909 198.223 301.369C214.708 297.436 226.741 292.269 233.928 288.639C242.296 284.169 249.287 279.592 253.578 275.784C254.329 275.122 255.026 274.532 255.67 273.996C256.725 273.102 257.601 272.351 258.226 271.761L259.621 270.277L261.355 270.813L259.943 272.333C259.263 272.959 258.387 273.727 257.315 274.639C256.689 275.176 255.992 275.766 255.241 276.427C250.86 280.307 243.762 284.938 235.269 289.497C227.956 293.198 215.745 298.437 199.01 302.442C184.009 306.036 167.452 307.931 151.11 307.913C134.84 307.949 118.23 306.089 103.032 302.567C89.0148 299.313 76.3561 294.861 66.4509 289.676C64.502 288.836 62.8392 287.834 61.2122 286.887L59.8891 286.118C59.1739 285.689 58.4587 285.278 57.7614 284.884C56.4741 284.151 55.2762 283.454 54.2034 282.703L49.7157 279.503C49.2687 279.163 48.8217 278.859 48.3926 278.555C47.4807 277.911 46.6046 277.321 45.961 276.66L39.7031 271.153L41.3302 270.527Z" fill="url(#paint3_linear)"/>
<path d="M74.6711 170.009L78.9979 173.817L77.8894 174.228C77.7106 174.3 77.3709 174.425 76.9954 174.568C76.4411 174.782 75.7438 175.033 74.9929 175.355C74.2777 175.694 73.2586 176.177 72.1322 176.695C69.9866 177.697 67.555 178.805 64.8552 180.164C55.5757 185.081 46.6539 191.535 40.5033 197.829L37.4638 201.083C36.7844 201.798 36.1407 202.496 35.7116 203.157L31.5993 208.825L27.9161 215.816L26.7361 219.052C25.6991 221.502 25.3057 223.629 25.0018 225.328L24.376 228.635C24.3045 228.957 24.2866 229.136 24.2866 229.19L16.4375 229.1C16.4375 229.1 16.4375 228.743 16.5805 228.063L17.1884 224.827C17.5103 223.075 17.9394 220.697 19.0837 218.015L20.6749 213.813L24.2687 207.144L28.381 201.459C28.9532 200.565 29.7577 199.724 30.5444 198.884L33.6197 195.594C40.1994 188.871 49.6576 182.006 59.5986 176.731C62.4951 175.283 65.0876 174.085 67.1795 173.12C68.2702 172.619 69.2536 172.154 70.0939 171.761C71.1846 171.278 72.0428 170.974 72.7401 170.724C73.0261 170.616 73.2765 170.527 73.4731 170.438L74.6711 170.009Z" fill="url(#paint4_linear)"/>
<path d="M223.532 169.83L228.467 171.761C229.039 171.975 229.629 172.208 230.219 172.476L238.569 176.463C244.719 179.699 256.162 186.315 265.281 195.237C274.31 204.194 278.726 213.188 280.568 217.747L282.552 223.951C282.696 224.416 282.749 224.845 282.803 225.238L283.303 228.653L275.472 229.011L275.043 226.079C275.025 225.936 274.989 225.739 274.972 225.542C274.936 225.292 274.9 225.006 274.829 224.72L272.898 218.641C269.983 211.418 264.744 203.676 258.54 197.525C252.282 191.41 243.128 184.974 233.473 179.896L225.32 175.998C224.98 175.837 224.569 175.694 224.194 175.551C223.908 175.444 223.622 175.337 223.353 175.212L219.188 173.585L223.532 169.83Z" fill="url(#paint5_linear)"/>
<path d="M92.1424 299.313L95.5753 299.385C95.6289 299.403 95.915 299.492 96.4156 299.599L101.797 300.922C104.533 301.602 107.948 302.46 112.042 303.121L120.464 304.534L130.065 305.732L140.524 306.447C141.883 306.572 143.224 306.59 144.655 306.59L151.198 306.662C163.66 306.662 177.821 305.374 189.943 303.104C193.197 302.424 196.094 301.763 198.669 301.173C200.01 300.869 201.207 300.583 202.262 300.35C202.96 300.171 203.675 299.957 204.265 299.778C204.658 299.653 205.016 299.546 205.32 299.474L206.392 299.152L210.04 303.193L208.86 303.551C208.538 303.64 208.27 303.729 207.984 303.819C207.251 304.033 206.357 304.319 205.284 304.588C204.086 304.856 202.924 305.124 201.637 305.41C199.133 305.982 196.022 306.697 192.536 307.43C179.555 309.862 164.537 311.221 151.198 311.221L144.619 311.149C142.992 311.131 141.311 311.114 139.541 310.953L128.688 310.202L114.045 308.235L109.915 307.484C105.427 306.769 101.583 305.803 98.7936 305.106L93.5192 303.819C92.6788 303.622 92.1603 303.461 92.0352 303.425L93.8231 301.405L92.1424 299.313Z" fill="url(#paint6_linear)"/>
<path opacity="0.65" d="M76.1488 165.378L76.8639 166.004L72.4835 167.667L71.7683 167.041L76.1488 165.378ZM67.3878 168.686L68.1209 169.312L67.8348 169.419L64.0801 171.171L63.2576 170.581L67.3878 168.686ZM59.199 172.476L60.0214 173.066L58.2514 173.889C57.5898 174.175 56.9462 174.514 56.1058 174.997L55.194 174.461C56.0701 173.96 56.7495 173.62 57.4468 173.299L59.199 172.476ZM51.475 176.588L52.4048 177.125L48.7037 179.253L47.774 178.716L51.475 176.588ZM44.2696 180.987L45.2708 181.47L41.9631 183.776L40.944 183.293L44.2696 180.987ZM37.6184 185.671L38.6912 186.118C38.2978 186.44 37.9045 186.78 37.529 187.119C37.2251 187.388 36.9211 187.638 36.6172 187.906L35.7947 188.621L34.7041 188.192L35.5265 187.477C35.8305 187.209 36.1344 186.959 36.4384 186.708C36.8317 186.351 37.2251 186.011 37.6184 185.671ZM31.7897 190.695L32.8803 191.125L31.3785 192.412C30.9851 192.805 30.556 193.234 30.1448 193.663L29.0005 193.288C29.4117 192.859 29.8408 192.43 30.2521 192.001L31.7897 190.695ZM26.5152 195.952L27.6774 196.31C26.8907 197.186 26.1219 198.098 25.371 199.009L24.1909 198.688C24.9418 197.74 25.7285 196.846 26.5152 195.952ZM22.0096 201.423L23.2075 201.727C22.5102 202.639 21.8487 203.569 21.205 204.498L19.9892 204.212C20.6508 203.283 21.3302 202.353 22.0096 201.423ZM18.1655 207.055L19.3992 207.323C18.8271 208.271 18.2549 209.219 17.7364 210.166L16.4848 209.934C17.0212 208.968 17.5755 208.003 18.1655 207.055ZM14.9651 212.848L16.2345 213.045L16.0021 213.51C15.6624 214.314 15.3405 215.137 15.0187 215.959L13.7314 215.798C14.0353 214.976 14.3572 214.135 14.7148 213.313L14.9651 212.848ZM12.748 218.766L14.0353 218.909C13.7314 219.893 13.4632 220.894 13.2129 221.877L11.9256 221.77C12.158 220.769 12.4441 219.767 12.748 218.766ZM11.264 224.774L12.5692 224.863C12.3725 225.864 12.2295 226.866 12.0865 227.867L10.7813 227.813C10.9064 226.794 11.0673 225.793 11.264 224.774ZM10.4594 230.835L11.7646 230.871C11.6931 231.89 11.6395 232.891 11.6216 233.874L10.3164 233.857C10.3522 232.855 10.3879 231.854 10.4594 230.835ZM10.4237 236.932L11.7289 236.878L12.158 239.9L10.8528 239.953L10.4237 236.932ZM11.2998 242.957L12.605 242.904C12.6765 243.386 12.748 243.869 12.8553 244.334L13.338 245.854L12.0507 245.979L11.568 244.441C11.4428 243.941 11.3534 243.458 11.2998 242.957ZM12.9983 248.965L14.2857 248.84L15.2333 251.772L13.9817 251.986L13.8029 251.486L12.9983 248.965ZM15.4121 254.883L16.6636 254.686L17.3609 256.117C17.6291 256.617 17.8616 257.118 18.1119 257.618L16.8424 257.815C16.61 257.332 16.3776 256.832 16.1094 256.331L15.4121 254.883ZM18.5231 260.712L19.7389 260.443L21.6878 263.25L20.472 263.519L18.5231 260.712ZM22.403 266.344L23.6188 266.075L24.1373 266.826L25.8895 268.775L24.7273 269.115L22.9572 267.13L22.403 266.344ZM27.1589 271.797L28.3211 271.457L30.7527 274.139L29.5905 274.479L27.1589 271.797ZM79.1525 164.252L83.8012 162.875L84.4091 163.554L79.7604 164.931L79.1525 164.252ZM88.432 161.48L91.847 160.461L93.2058 160.157L93.6886 160.854L92.4012 161.141L89.0578 162.142L88.432 161.48ZM98.069 159.049L102.932 157.94L103.415 158.637L98.5518 159.746L98.069 159.049ZM107.974 157.01C108.815 156.885 109.673 156.742 110.531 156.599L112.998 156.206L113.356 156.939L110.907 157.332C110.048 157.493 109.172 157.618 108.332 157.743L107.974 157.01ZM118.023 155.383L118.881 155.276L123.226 154.829L123.458 155.58L118.38 156.116L118.023 155.383ZM128.393 154.311L131.057 154.042C131.933 153.971 132.773 153.935 133.631 153.899L133.739 154.65C132.898 154.686 132.076 154.722 131.271 154.793L128.625 155.062L128.393 154.311ZM138.852 153.667L144.073 153.434L144.18 154.185L138.959 154.418L138.852 153.667ZM149.365 153.381C151.1 153.399 152.852 153.435 154.622 153.47L154.568 154.221C152.816 154.168 151.082 154.15 149.347 154.132L149.365 153.381ZM159.878 153.685C161.613 153.774 163.365 153.864 165.117 153.989L164.974 154.74C163.24 154.632 161.506 154.525 159.789 154.436L159.878 153.685ZM170.338 154.382C172.072 154.525 173.807 154.686 175.541 154.883L175.309 155.634C173.592 155.455 171.876 155.294 170.159 155.133L170.338 154.382ZM180.69 155.473C182.121 155.652 183.551 155.848 184.981 156.063L185.804 156.188L185.482 156.921L184.659 156.796C183.265 156.599 181.835 156.403 180.422 156.224L180.69 155.473ZM190.864 157.082C192.544 157.404 194.207 157.726 195.852 158.065L195.405 158.78C193.778 158.441 192.115 158.119 190.47 157.797L190.864 157.082ZM200.787 159.156C202.432 159.531 204.041 159.925 205.65 160.336L205.132 161.033C203.54 160.622 201.931 160.247 200.304 159.871L200.787 159.156ZM210.442 161.605C212.033 162.052 213.606 162.499 215.162 162.964L214.554 163.644C213.016 163.179 211.461 162.732 209.87 162.285L210.442 161.605ZM219.793 164.43C220.544 164.681 221.277 164.913 222.01 165.163L224.28 166.057L223.547 166.683L221.312 165.807C220.615 165.575 219.882 165.324 219.131 165.092L219.793 164.43ZM228.643 167.738L229.877 168.221C230.324 168.4 230.789 168.578 231.236 168.757C231.826 168.99 232.434 169.222 233.006 169.455L232.237 170.062C231.683 169.83 231.093 169.598 230.503 169.383C230.056 169.204 229.591 169.025 229.144 168.847L227.91 168.364L228.643 167.738ZM237.136 171.386L236.707 171.672L237.136 171.386L241.159 173.317L240.336 173.907L236.313 171.993L237.136 171.386ZM245.146 175.355L248.847 177.5L247.917 178.037L244.216 175.891L245.146 175.355ZM252.566 179.664C253.424 180.164 254.05 180.576 254.586 180.969L256.035 181.988L255.015 182.471L253.567 181.434C253.049 181.058 252.459 180.665 251.636 180.182L252.566 179.664ZM259.324 184.348L262.632 186.744L261.541 187.155L261.363 186.994L258.287 184.813L259.324 184.348ZM265.529 189.283L268.407 191.822L267.316 192.233L264.438 189.694L265.529 189.283ZM269.23 193.896L270.392 193.556L272.823 196.238L271.661 196.578L269.23 193.896ZM274.075 199.278L275.237 198.938L277.007 200.922L277.544 201.709L276.328 201.995L275.809 201.244L274.075 199.278ZM278.294 204.784L279.51 204.516L281.459 207.323L280.243 207.592L278.294 204.784ZM281.853 210.434L283.122 210.238C283.354 210.72 283.587 211.221 283.855 211.722L284.57 213.152L283.301 213.367L282.586 211.936C282.335 211.436 282.085 210.935 281.853 210.434ZM284.749 216.263L286.001 216.049L286.179 216.549L286.984 219.07L285.697 219.195L284.749 216.263ZM286.626 222.181L287.914 222.056L288.396 223.594C288.522 224.094 288.593 224.595 288.665 225.078L287.359 225.131C287.288 224.649 287.234 224.166 287.109 223.701L286.626 222.181ZM287.806 228.153L289.112 228.099L289.541 231.121L288.236 231.175L287.806 228.153ZM288.325 234.16L289.63 234.178C289.612 235.18 289.576 236.199 289.487 237.218L288.182 237.182C288.271 236.163 288.307 235.162 288.325 234.16ZM287.878 240.168L289.183 240.24C289.058 241.241 288.897 242.26 288.7 243.261L287.395 243.172C287.592 242.17 287.753 241.169 287.878 240.168ZM286.751 246.158L288.057 246.265C287.806 247.266 287.538 248.267 287.234 249.269L285.947 249.126C286.233 248.142 286.519 247.141 286.751 246.158ZM284.928 252.076L286.215 252.237C285.911 253.059 285.571 253.882 285.232 254.722L284.999 255.187L283.73 254.99L283.962 254.525C284.302 253.721 284.624 252.898 284.928 252.076ZM282.246 257.869L283.497 258.101C282.961 259.067 282.407 260.032 281.817 260.98L280.583 260.712C281.155 259.782 281.71 258.834 282.246 257.869ZM278.741 263.537L279.957 263.823C279.314 264.77 278.634 265.7 277.955 266.612L276.757 266.308C277.436 265.396 278.098 264.466 278.741 263.537ZM274.593 269.043L275.773 269.365C275.023 270.277 274.236 271.189 273.449 272.083L272.287 271.725C273.074 270.849 273.842 269.955 274.593 269.043ZM269.82 274.389L270.964 274.765C270.553 275.194 270.124 275.623 269.712 276.052L268.193 277.357L267.102 276.928L268.604 275.641C268.997 275.23 269.408 274.818 269.82 274.389ZM264.188 279.431L265.278 279.861L264.456 280.576C264.134 280.844 263.848 281.094 263.544 281.362C263.151 281.702 262.757 282.042 262.346 282.382L261.273 281.935C261.667 281.613 262.06 281.273 262.453 280.933C262.757 280.665 263.061 280.415 263.365 280.147L264.188 279.431ZM257.983 284.259L259.003 284.742L255.695 287.048L254.676 286.565L257.983 284.259ZM251.261 288.782L252.19 289.319L248.489 291.446L247.56 290.91L251.261 288.782ZM243.876 293.038L244.788 293.574C243.912 294.075 243.233 294.414 242.535 294.736L240.765 295.559L239.943 294.969L241.731 294.146C242.375 293.842 243.036 293.503 243.876 293.038ZM235.884 296.864L236.707 297.454L232.577 299.349L231.844 298.723L232.112 298.616L235.884 296.864ZM227.481 300.386L228.196 301.012L223.816 302.657L223.1 302.031L227.481 300.386ZM32.6479 275.802L35.5265 278.341L34.4359 278.752L31.5573 276.213L32.6479 275.802ZM38.423 280.88L38.6018 281.041L41.6592 283.222L40.6401 283.687L37.3323 281.291L38.423 280.88ZM44.9669 285.582L46.4151 286.619C46.9336 286.994 47.5237 287.388 48.3461 287.871L47.4164 288.389C46.5582 287.888 45.9324 287.477 45.396 287.084L43.9656 286.065L44.9669 285.582ZM52.0472 289.998L55.7482 292.144L54.8185 292.68L51.1174 290.535L52.0472 289.998ZM59.6281 294.146L63.651 296.077L62.8285 296.667L63.2576 296.381L62.8285 296.667L58.8056 294.736L59.6281 294.146ZM67.7096 297.972C68.2818 298.205 68.8718 298.437 69.4439 298.652C69.8909 298.831 70.3558 299.009 70.8028 299.188L72.0365 299.671L71.3034 300.297L70.0697 299.814C69.6227 299.635 69.1579 299.456 68.7109 299.296C68.1209 299.063 67.513 298.831 66.9408 298.598L67.7096 297.972ZM76.3991 301.37L78.634 302.246C79.3313 302.478 80.0644 302.728 80.7974 302.961L80.1538 303.622C79.4028 303.372 78.6698 303.14 77.9188 302.889L75.6481 301.995L76.3991 301.37ZM85.4103 304.391C86.948 304.856 88.5035 305.303 90.0948 305.732L89.5405 306.412C87.9492 305.965 86.3758 305.518 84.8203 305.053L85.4103 304.391ZM94.8507 307.002C96.442 307.413 98.0512 307.788 99.6603 308.164L99.1776 308.861C97.5505 308.486 95.9235 308.092 94.3143 307.681L94.8507 307.002ZM104.559 309.254C106.186 309.594 107.831 309.916 109.494 310.238L109.101 310.953C107.42 310.649 105.757 310.309 104.112 309.97L104.559 309.254ZM114.482 311.114L115.305 311.239C116.699 311.436 118.13 311.632 119.542 311.811L119.274 312.544C117.844 312.365 116.413 312.169 114.983 311.954L114.161 311.829L114.482 311.114ZM124.674 312.419C126.39 312.598 128.107 312.759 129.823 312.92L129.644 313.671C127.91 313.528 126.176 313.349 124.441 313.17L124.674 312.419ZM134.99 313.295C136.725 313.402 138.459 313.51 140.175 313.599L140.086 314.35C138.352 314.261 136.599 314.171 134.847 314.046L134.99 313.295ZM145.396 313.796C147.148 313.849 148.883 313.885 150.617 313.885L150.599 314.636C148.865 314.618 147.095 314.583 145.342 314.529L145.396 313.796ZM155.784 313.849L161.005 313.617L161.112 314.368L155.891 314.6L155.784 313.849ZM166.226 313.402C167.048 313.367 167.889 313.331 168.693 313.259L171.339 312.991L171.572 313.742L168.908 314.01C168.032 314.082 167.191 314.118 166.315 314.153L166.226 313.402ZM176.489 312.455L181.566 311.918L181.942 312.652L181.084 312.759L176.721 313.206L176.489 312.455ZM186.626 311.114L189.076 310.721C189.934 310.578 190.81 310.434 191.65 310.309L192.008 311.042C191.168 311.168 190.309 311.311 189.451 311.454L186.984 311.847L186.626 311.114ZM196.567 309.38L201.43 308.271L201.913 308.968L197.05 310.077L196.567 309.38ZM206.276 307.18L207.581 306.876L210.942 305.875L211.55 306.555L208.135 307.574L206.794 307.878L206.276 307.18ZM215.573 304.498L220.222 303.122L220.83 303.801L216.181 305.178L215.573 304.498Z" fill="url(#paint7_linear)"/>
<path d="M3.70316 217.926C3.93559 217.854 4.16803 217.819 4.40046 217.854C4.65077 217.89 4.86533 217.979 5.02624 218.105C5.1514 218.23 5.22292 218.391 5.16928 218.552L4.93685 219.16C4.90109 219.285 4.86533 219.374 4.82957 219.499C4.75805 219.678 4.68653 219.893 4.59714 220.143C4.52562 220.429 3.98923 220.644 3.45285 220.59C2.93434 220.536 2.59463 220.25 2.66615 219.946C2.75555 219.678 2.84494 219.428 2.91646 219.231C2.9701 219.124 2.98798 219.034 3.00586 218.945L3.25617 218.319C3.30981 218.14 3.47073 218.015 3.70316 217.926ZM1.45034 231.335C1.61126 231.282 1.77217 231.246 1.96885 231.246C2.21916 231.246 2.45159 231.318 2.66615 231.425C2.84494 231.55 2.95222 231.675 2.93434 231.836C2.93434 232.14 2.46947 232.39 1.95097 232.372C1.41458 232.372 1.00335 232.122 0.985475 231.8C0.967596 231.782 1.00335 231.782 1.00335 231.782C0.985475 231.604 1.18215 231.443 1.45034 231.335ZM2.98798 245.782C3.07738 245.746 3.20253 245.728 3.30981 245.711C3.56012 245.693 3.8462 245.728 4.04287 245.818C4.25743 245.907 4.40046 246.032 4.4541 246.175C4.48986 246.336 4.56138 246.497 4.63289 246.676L6.29569 251.933C6.49236 252.719 6.88571 253.488 7.27906 254.311L7.3327 254.4C7.72605 255.187 8.08364 255.956 8.45911 256.706L8.54851 256.85C8.83458 257.44 9.13853 258.03 9.40672 258.602C9.90735 259.585 10.3543 260.551 10.8728 261.427C11.5523 262.392 12.1959 263.34 12.8038 264.216L13.823 265.664C14.6097 266.826 15.3606 267.881 16.0043 268.829C16.5049 269.437 17.0055 269.991 17.4704 270.474C17.7207 270.76 17.971 271.028 18.2034 271.278C19.4371 272.673 20.1523 273.46 20.1523 273.46C20.4026 273.728 20.2417 274.05 19.7768 274.193L19.7232 274.21C19.2405 274.354 18.6683 274.246 18.418 273.96C18.418 273.96 17.6671 273.12 16.4513 271.779C16.2367 271.529 16.0043 271.278 15.754 271.01C15.2712 270.509 14.7348 269.919 14.1806 269.258V269.222C13.6799 268.525 13.1793 267.792 12.6429 266.987L9.03126 261.802C8.44123 260.837 7.99424 259.853 7.47574 258.816C7.20754 258.28 6.93935 257.726 6.6354 257.153C6.43873 256.706 6.20629 256.277 5.99174 255.848L5.38383 254.615C4.97261 253.828 4.56138 253.005 4.32894 252.129C3.93559 250.878 3.52437 249.608 3.13102 248.357L2.66615 246.909C2.63039 246.748 2.54099 246.587 2.48735 246.408C2.43372 246.14 2.61251 245.907 2.98798 245.782ZM74.363 159.603C85.8059 155.759 98.0712 152.809 110.855 150.842C111.088 150.806 111.338 150.824 111.57 150.896C111.803 150.967 111.981 151.092 112.053 151.253C112.196 151.539 111.874 151.861 111.356 151.95C98.7864 153.899 86.6641 156.796 75.4 160.586L75.2212 160.64C72.5572 161.534 69.911 162.499 67.3006 163.518L67.1575 163.59C66.9072 163.697 66.6212 163.787 66.3708 163.894C65.8881 164.073 65.2981 164.001 64.9941 163.733C64.8332 163.608 64.7796 163.465 64.8511 163.304C64.8868 163.161 65.0478 163.018 65.2623 162.928C65.5484 162.821 65.8523 162.714 66.1563 162.589L66.2099 162.571C68.8203 161.534 71.5559 160.55 74.363 159.603ZM61.5791 164.43C62.0261 164.287 62.5983 164.359 62.8843 164.591C63.1883 164.842 63.1168 165.199 62.6519 165.378H62.634C62.2407 165.557 61.597 165.503 61.2931 165.253C60.9891 165.002 61.0785 164.663 61.4719 164.466C61.5076 164.448 61.5613 164.43 61.5791 164.43ZM45.9703 172.047C46.3637 171.922 46.8643 171.958 47.1504 172.136C47.347 172.244 47.4364 172.387 47.4543 172.548C47.4364 172.691 47.347 172.834 47.1682 172.941C46.7749 173.156 46.1312 173.156 45.7558 172.923C45.3803 172.691 45.4161 172.333 45.7915 172.119H45.8094C45.863 172.083 45.8988 172.065 45.9703 172.047ZM29.5569 182.936C29.8966 182.828 30.3079 182.846 30.6297 182.971C30.8443 183.061 30.9694 183.186 31.0231 183.329C31.0588 183.472 31.0052 183.633 30.8443 183.758C30.3794 184.134 29.9145 184.491 29.4675 184.849C20.8139 191.679 16.0579 198.294 12.5714 203.122L11.9099 204.033H11.892C10.9265 205.66 10.1755 207.091 9.56764 208.235C9.35309 208.664 9.15641 209.04 8.95974 209.397C8.95974 209.397 8.95974 209.397 8.95974 209.415C8.79882 209.683 8.22668 209.862 7.72605 209.755C7.20754 209.665 6.93935 209.344 7.08239 209.04C7.27906 208.7 7.45786 208.325 7.69029 207.913C8.31607 206.733 9.08489 205.285 10.0861 203.622V203.604C10.3365 203.283 10.551 202.961 10.8013 202.621C14.3057 197.758 19.0974 191.089 27.8763 184.187C28.3411 183.812 28.7881 183.436 29.253 183.079C29.3424 183.025 29.4497 182.971 29.5569 182.936ZM135.261 148.375C135.368 148.339 135.529 148.321 135.672 148.303C135.922 148.285 136.19 148.339 136.387 148.428C136.584 148.535 136.727 148.661 136.745 148.822C136.78 149.125 136.369 149.412 135.851 149.429C135.6 149.447 135.332 149.394 135.135 149.304C134.921 149.197 134.796 149.072 134.778 148.911C134.76 148.696 134.921 148.482 135.261 148.375ZM155.786 148.142C155.965 148.088 156.144 148.053 156.341 148.071C156.877 148.088 157.288 148.339 157.288 148.661C157.252 148.947 156.788 149.215 156.269 149.197C155.733 149.179 155.304 148.911 155.321 148.607C155.321 148.41 155.5 148.231 155.786 148.142ZM160.346 148.321C160.524 148.267 160.703 148.231 160.918 148.231C168.981 148.589 176.956 149.358 184.626 150.431C193.119 151.611 201.576 153.274 209.729 155.383C209.961 155.437 210.176 155.544 210.265 155.705C210.355 155.848 210.355 156.009 210.247 156.134C210.051 156.402 209.425 156.545 208.942 156.438C200.896 154.364 192.582 152.719 184.161 151.557C176.616 150.484 168.731 149.751 160.757 149.394C160.506 149.376 160.256 149.322 160.095 149.197C159.916 149.09 159.827 148.929 159.863 148.786C159.899 148.571 160.077 148.41 160.346 148.321ZM6.18841 211.257C6.42085 211.185 6.70692 211.149 6.97511 211.203C7.49362 211.293 7.76181 211.614 7.61877 211.918C7.47574 212.186 6.90359 212.365 6.38509 212.276C5.90234 212.169 5.61627 211.865 5.74142 211.579C5.74142 211.579 5.72355 211.561 5.74142 211.561C5.81294 211.436 5.97386 211.328 6.18841 211.257ZM230.88 162.392C231.202 162.285 231.595 162.285 231.899 162.41C232.364 162.589 232.471 162.946 232.185 163.197C231.899 163.447 231.274 163.518 230.827 163.358C230.362 163.179 230.254 162.821 230.54 162.571C230.63 162.499 230.737 162.446 230.88 162.392ZM247.222 169.597C247.58 169.472 248.027 169.508 248.348 169.651C248.581 169.758 248.688 169.884 248.706 170.044C248.742 170.188 248.652 170.348 248.492 170.456C248.152 170.688 247.508 170.724 247.097 170.527C247.097 170.527 247.079 170.509 247.061 170.527C246.9 170.42 246.757 170.295 246.739 170.152C246.739 169.991 246.793 169.848 246.972 169.723C247.061 169.669 247.133 169.633 247.222 169.597ZM250.601 171.385C250.995 171.26 251.477 171.296 251.799 171.493C252.89 172.119 253.945 172.744 254.964 173.316L257.163 174.586C257.449 174.747 257.717 174.926 258.003 175.087C259.63 176.034 261.168 176.928 262.402 177.858L269.107 182.632C270.018 183.257 270.573 183.722 270.859 183.991L271.091 184.187C271.252 184.348 271.359 184.42 271.395 184.455C271.52 184.581 271.574 184.724 271.52 184.884C271.485 185.028 271.324 185.171 271.091 185.242C270.626 185.421 270.036 185.331 269.75 185.081C269.75 185.081 269.554 184.92 269.196 184.598C268.91 184.33 268.427 183.883 267.605 183.365C266.335 182.453 264.565 181.201 262.366 179.628L260.846 178.537C259.738 177.643 258.182 176.749 256.519 175.802L254.66 174.729C253.319 173.942 251.907 173.12 250.423 172.262C250.423 172.262 250.423 172.262 250.405 172.244C250.029 172.029 250.029 171.672 250.405 171.457C250.476 171.439 250.53 171.403 250.601 171.385ZM280.174 193.86C280.192 193.86 280.192 193.86 280.21 193.842C280.693 193.699 281.3 193.806 281.515 194.092C281.515 194.092 281.587 194.164 281.712 194.289L283.482 196.274C283.696 196.524 283.929 196.774 284.179 197.043C284.68 197.561 285.198 198.133 285.752 198.795V198.83C286.45 199.85 287.236 200.976 288.113 202.228C288.577 202.889 289.042 203.604 289.543 204.32L290.902 206.25C291.492 207.216 291.957 208.217 292.475 209.254C292.743 209.791 293.012 210.345 293.298 210.899C293.691 211.704 294.102 212.526 294.513 213.349L294.567 213.456C294.978 214.243 295.389 215.065 295.604 215.941L297.249 221.144C297.32 221.305 297.374 221.466 297.428 221.645C297.553 221.931 297.16 222.235 296.659 222.306C296.14 222.36 295.64 222.163 295.497 221.859C295.461 221.698 295.407 221.555 295.354 221.377L295.246 221.09C294.71 219.428 294.192 217.765 293.655 216.102C293.476 215.298 293.065 214.511 292.654 213.688L292.618 213.653C292.404 213.206 292.189 212.777 291.974 212.347L291.402 211.221C291.098 210.613 290.812 210.041 290.544 209.469C290.044 208.468 289.597 207.52 289.06 206.626L286.128 202.406C285.323 201.262 284.59 200.189 283.929 199.224C283.428 198.616 282.927 198.062 282.445 197.561C282.194 197.275 281.962 197.025 281.73 196.774C280.514 195.398 279.781 194.629 279.763 194.611C279.566 194.343 279.727 194.021 280.174 193.86ZM297.535 235.716C297.696 235.662 297.857 235.644 298.036 235.644C298.304 235.644 298.554 235.716 298.733 235.823C298.93 235.93 299.019 236.074 299.019 236.234C299.001 236.538 298.536 236.807 298 236.789C297.75 236.789 297.517 236.717 297.303 236.61C297.124 236.503 297.017 236.36 297.034 236.199C297.052 235.984 297.231 235.823 297.535 235.716ZM295.836 247.516C296.033 247.445 296.283 247.427 296.516 247.445C297.034 247.499 297.392 247.802 297.303 248.106C297.231 248.357 297.142 248.589 297.07 248.786C297.017 248.911 296.963 249.018 296.945 249.108L296.695 249.733C296.605 250.037 296.051 250.234 295.533 250.18C295.014 250.109 294.656 249.805 294.782 249.501L294.996 248.875C295.05 248.768 295.068 248.661 295.103 248.536C295.193 248.339 295.264 248.124 295.336 247.892C295.425 247.749 295.586 247.606 295.836 247.516ZM28.8954 282.757C29.3603 282.596 29.9324 282.668 30.2185 282.918C30.2364 282.936 30.433 283.097 30.7906 283.418C31.0409 283.669 31.5237 284.08 32.3819 284.652C33.9374 285.761 36.2081 287.388 39.1404 289.444C40.231 290.32 41.7686 291.196 43.3599 292.126C43.6281 292.269 43.9321 292.448 44.2181 292.609C45.8988 293.592 47.6868 294.629 49.582 295.737C49.7787 295.845 49.8681 295.988 49.8681 296.131C49.8681 296.292 49.7787 296.417 49.5999 296.542C49.2423 296.757 48.5807 296.739 48.2053 296.542L47.8119 296.31C46.0776 295.273 44.3969 294.325 42.8414 293.413C42.5375 293.234 42.2335 293.055 41.9296 292.877C40.3204 291.947 38.8006 291.071 37.6027 290.141L30.8979 285.367C30.0218 284.777 29.4497 284.312 29.1457 284.008L28.8954 283.794C28.7524 283.651 28.6451 283.579 28.6272 283.544C28.6272 283.544 28.6272 283.544 28.6093 283.526C28.3232 283.275 28.4484 282.918 28.9133 282.739L28.8954 282.757ZM51.7454 297.454C52.103 297.329 52.55 297.364 52.8718 297.508C53.0864 297.597 53.2115 297.74 53.2294 297.901C53.2294 298.062 53.1758 298.205 52.9791 298.312C52.6573 298.545 51.9957 298.562 51.6202 298.366C51.209 298.169 51.1375 297.811 51.4772 297.579C51.5487 297.525 51.656 297.49 51.7454 297.454ZM68.123 304.659C68.427 304.552 68.8382 304.552 69.1422 304.677C69.3746 304.767 69.5176 304.91 69.5713 305.035C69.6428 305.196 69.5713 305.339 69.4282 305.446C69.16 305.714 68.5164 305.768 68.0694 305.607C67.837 305.535 67.6939 305.392 67.6403 305.249C67.5867 305.106 67.6403 304.945 67.8012 304.838C67.8727 304.767 67.98 304.695 68.123 304.659ZM90.1327 311.65C90.4009 311.561 90.7227 311.561 91.0267 311.632C99.0903 313.688 107.404 315.333 115.808 316.496C123.335 317.586 131.22 318.301 139.212 318.659C139.748 318.695 140.142 318.963 140.124 319.267C140.07 319.589 139.605 319.821 139.051 319.803C130.952 319.428 122.995 318.695 115.343 317.604C106.85 316.424 98.4109 314.761 90.24 312.651C89.7572 312.526 89.5069 312.204 89.7394 311.9C89.8288 311.793 89.9539 311.722 90.1327 311.65ZM292.797 255.812C293.047 255.723 293.315 255.705 293.584 255.759C293.816 255.812 294.031 255.902 294.174 256.045C294.281 256.188 294.317 256.331 294.227 256.492C294.227 256.492 294.227 256.492 294.227 256.51C294.066 256.778 293.494 256.957 292.994 256.85C292.475 256.76 292.207 256.438 292.35 256.134C292.439 255.991 292.6 255.884 292.797 255.812ZM291.456 258.316C291.671 258.244 291.974 258.208 292.243 258.262C292.761 258.369 293.047 258.673 292.886 258.977C292.69 259.353 292.475 259.746 292.243 260.193C291.635 261.337 290.866 262.785 289.9 264.413L289.883 264.43C289.668 264.752 289.436 265.056 289.185 265.378C285.699 270.259 280.889 276.928 272.11 283.848C271.663 284.205 271.181 284.581 270.716 284.956C270.412 285.189 269.768 285.26 269.357 285.081C268.928 284.885 268.821 284.545 269.142 284.295C269.607 283.919 270.072 283.561 270.501 283.186C279.155 276.356 283.929 269.759 287.379 264.931L288.041 264.019C289.024 262.392 289.793 260.944 290.401 259.782C290.616 259.371 290.83 258.995 291.027 258.637C291.009 258.62 291.009 258.62 291.009 258.62C291.081 258.494 291.241 258.387 291.456 258.316ZM143.217 318.927C143.378 318.874 143.557 318.838 143.753 318.856C144.29 318.874 144.701 319.142 144.683 319.446C144.665 319.75 144.182 320 143.664 320C143.128 319.982 142.698 319.714 142.716 319.41C142.716 319.195 142.913 319.017 143.217 318.927ZM163.707 318.677C163.85 318.623 163.975 318.605 164.118 318.587C164.386 318.587 164.637 318.623 164.851 318.73C165.048 318.82 165.173 318.963 165.173 319.106C165.227 319.41 164.833 319.696 164.279 319.714C164.279 319.714 164.279 319.714 164.261 319.714C164.029 319.714 163.761 319.678 163.582 319.571C163.385 319.481 163.26 319.338 163.224 319.195C163.188 318.999 163.385 318.784 163.707 318.677ZM188.381 316.156C188.452 316.138 188.542 316.12 188.613 316.102C204.24 313.688 219.133 309.826 232.668 304.534C232.972 304.409 233.294 304.284 233.598 304.177C234.045 303.998 234.671 304.069 234.975 304.337C235.279 304.588 235.171 304.963 234.742 305.124C234.563 305.178 234.42 305.249 234.259 305.303C234.099 305.374 233.938 305.428 233.795 305.5C220.17 310.81 204.973 314.779 189.149 317.229C188.613 317.3 188.077 317.139 187.952 316.817C187.791 316.549 187.987 316.281 188.381 316.156ZM253.015 295.022C253.426 294.879 253.909 294.915 254.231 295.112C254.606 295.326 254.588 295.702 254.195 295.916C253.82 296.149 253.194 296.131 252.818 295.898C252.443 295.666 252.443 295.326 252.836 295.112C252.89 295.058 252.961 295.04 253.015 295.022ZM237.37 302.639C237.817 302.478 238.39 302.567 238.676 302.8C238.997 303.05 238.908 303.408 238.461 303.587C238.05 303.783 237.406 303.712 237.084 303.461C236.78 303.211 236.87 302.853 237.299 302.675C237.335 302.639 237.353 302.639 237.37 302.639Z" fill="url(#paint8_linear)"/>
<path d="M249.849 232.873L229.932 244.441L222.601 223.504L193.207 211.453C189.792 210.041 186.842 210.81 185.322 213.474L162.365 253.613C161.489 255.115 160.863 255.83 159.164 256.903L139.426 267.756L134.705 242.456C134.705 242.456 138.639 241.366 142.697 240.275L120.598 176.106C119.079 171.671 116.129 167.505 112.714 164.967L61.3636 126.758C56.7507 123.325 53.6575 117.675 52.692 112.669L36.4574 119.785L34.8125 114.868L54.48 103.658C54.8018 103.354 55.1415 103.121 55.5349 102.889L92.6885 82.7924C95.1558 81.4514 96.2823 78.1258 95.7101 73.8884L93.3858 56.9565L89.935 31.7822L87.2173 33.0158L69.5882 12.9908L89.7026 1.35122V1.3691C92.7421 -0.490365 97.6769 0.886357 102.165 6.21445L131.38 40.704L148.097 60.443C151.137 64.0547 154.784 66.1644 157.859 66.075L185.108 65.3777L203.792 64.8771C211.48 64.6804 220.491 77.357 219.007 86.3504L217.738 94.1459L213.357 120.876L210.228 139.989C209.638 143.547 210.765 148.178 213.25 152.362L224.103 170.76L250.404 215.387C255.106 223.379 254.266 231.121 249.849 232.873Z" fill="url(#paint9_linear)"/>
<path d="M131.36 40.6863L97.478 60.8007L93.3836 56.9209L89.9328 31.7465L87.2151 32.9802L69.5859 12.9551L89.7004 1.31558V1.33346C92.7399 -0.52601 97.6746 0.850713 102.162 6.17881L131.36 40.6863Z" fill="url(#paint10_linear)"/>
<path opacity="0.47" d="M218.993 86.3325L217.724 94.128L192.228 108.593L175.814 103.515L164.461 85.4028L185.112 65.342L203.796 64.8414C211.466 64.6804 220.477 77.357 218.993 86.3325Z" fill="url(#paint11_linear)"/>
<path opacity="0.5" d="M224.091 170.76L197.88 186.655L181.18 176.195L178.355 126.669H179.768L213.346 120.858L210.217 139.971C209.627 143.529 210.753 148.16 213.238 152.344L224.091 170.76Z" fill="url(#paint12_linear)"/>
<path d="M127.573 72.2794L81.6409 18.0508C73.9527 8.96805 64.9593 11.2745 66.4254 21.9486L75.2042 85.7069C75.7943 89.9443 74.6679 93.2699 72.1826 94.6109L35.029 114.725C28.8069 118.087 32.2398 132.194 40.8398 138.594L92.1898 176.803C95.6048 179.342 98.5549 183.508 100.075 187.942L123.05 254.597C126.894 265.754 137.997 272.172 141.859 265.45L164.816 225.31C166.336 222.646 169.304 221.877 172.701 223.29L224.051 244.37C232.651 247.892 236.084 237.754 229.862 227.205L192.708 164.18C190.241 159.996 189.115 155.365 189.687 151.79L198.466 98.1689C199.932 89.1934 190.938 76.499 183.25 76.7135L137.318 77.9114C134.278 78.0008 130.631 75.891 127.573 72.2794Z" fill="url(#paint13_radial)"/>
<path d="M72.2008 94.6286C72.2365 94.6108 72.2723 94.575 72.308 94.5571C71.7717 95.7551 70.9671 96.6669 69.9301 97.2212L32.7586 117.336C32.7049 117.371 32.6513 117.407 32.5977 117.443C33.0983 116.263 33.9207 115.315 35.0293 114.707L72.2008 94.6286Z" fill="url(#paint14_linear)"/>
<path d="M164.46 225.954L141.861 265.467C141.342 266.379 140.681 267.059 139.93 267.506L162.565 227.938C163.066 227.062 163.692 226.401 164.46 225.954Z" fill="url(#paint15_linear)"/>
<path d="M229.987 244.405C231.524 241.026 230.952 235.483 227.627 229.816L190.473 166.808C188.006 162.606 186.879 157.994 187.451 154.418L196.23 100.779C197.696 91.8036 188.703 79.127 181.015 79.3237L135.064 80.5216C132.025 80.5931 128.36 78.4834 125.32 74.8896L79.3876 20.661C74.9535 15.4223 70.0903 13.9741 67.0508 15.7442C69.2321 10.8452 75.8296 11.167 81.6405 18.0685L127.573 72.2971C130.63 75.8908 134.278 78.0185 137.335 77.9291L183.268 76.7312C190.956 76.5345 199.949 89.2111 198.465 98.2045L189.686 151.843C189.114 155.401 190.241 160.032 192.708 164.216L229.879 227.241C234.349 234.804 233.831 242.188 229.987 244.405Z" fill="url(#paint16_linear)"/>
<defs>
<linearGradient id="paint0_linear" x1="121.21" y1="252.493" x2="253.517" y2="252.493" gradientUnits="userSpaceOnUse">
<stop offset="0.1502" stop-opacity="0.6"/>
<stop offset="0.1895" stop-color="#121212" stop-opacity="0.5634"/>
<stop offset="0.4159" stop-color="#767676" stop-opacity="0.3522"/>
<stop offset="0.5985" stop-color="#C0C0C0" stop-opacity="0.1819"/>
<stop offset="0.7284" stop-color="#EDEDED" stop-opacity="0.0607"/>
<stop offset="0.7936" stop-color="white" stop-opacity="0"/>
</linearGradient>
<linearGradient id="paint1_linear" x1="200.602" y1="150.182" x2="89.6708" y2="310.621" gradientUnits="userSpaceOnUse">
<stop stop-color="#3B00E9"/>
<stop offset="0.443" stop-color="#3308B7" stop-opacity="0.557"/>
<stop offset="1" stop-color="#2A117C" stop-opacity="0"/>
</linearGradient>
<linearGradient id="paint2_linear" x1="258.134" y1="188.738" x2="148.624" y2="347.122" gradientUnits="userSpaceOnUse">
<stop stop-color="#3B00E9"/>
<stop offset="0.443" stop-color="#3308B7" stop-opacity="0.557"/>
<stop offset="1" stop-color="#2A117C" stop-opacity="0"/>
</linearGradient>
<linearGradient id="paint3_linear" x1="285.592" y1="205.584" x2="173.198" y2="368.139" gradientUnits="userSpaceOnUse">
<stop stop-color="#3B00E9"/>
<stop offset="0.443" stop-color="#3308B7" stop-opacity="0.557"/>
<stop offset="1" stop-color="#2A117C" stop-opacity="0"/>
</linearGradient>
<linearGradient id="paint4_linear" x1="32.7353" y1="192.17" x2="46.6581" y2="216.283" gradientUnits="userSpaceOnUse">
<stop stop-color="#E5024E"/>
<stop offset="0.233" stop-color="#C4016C" stop-opacity="0.8232"/>
<stop offset="0.7556" stop-color="#7F00AB" stop-opacity="0.4264"/>
<stop offset="1" stop-color="#6400C4" stop-opacity="0.2409"/>
</linearGradient>
<linearGradient id="paint5_linear" x1="211.839" y1="176.583" x2="252.25" y2="246.57" gradientUnits="userSpaceOnUse">
<stop stop-color="#E5024E"/>
<stop offset="0.233" stop-color="#C4016C" stop-opacity="0.8232"/>
<stop offset="0.7556" stop-color="#7F00AB" stop-opacity="0.4264"/>
<stop offset="1" stop-color="#6400C4" stop-opacity="0.2409"/>
</linearGradient>
<linearGradient id="paint6_linear" x1="118.94" y1="283.851" x2="150.079" y2="337.78" gradientUnits="userSpaceOnUse">
<stop stop-color="#E5024E"/>
<stop offset="0.233" stop-color="#C4016C" stop-opacity="0.8232"/>
<stop offset="0.7556" stop-color="#7F00AB" stop-opacity="0.4264"/>
<stop offset="1" stop-color="#6400C4" stop-opacity="0.2409"/>
</linearGradient>
<linearGradient id="paint7_linear" x1="50.9902" y1="176.861" x2="149.999" y2="348.335" gradientUnits="userSpaceOnUse">
<stop stop-color="#3B00E9" stop-opacity="0.5"/>
<stop offset="1" stop-color="#310AA8" stop-opacity="0.403"/>
</linearGradient>
<linearGradient id="paint8_linear" x1="162.273" y1="324.454" x2="139.199" y2="141.881" gradientUnits="userSpaceOnUse">
<stop stop-color="#3B00E9" stop-opacity="0.2"/>
<stop offset="0.443" stop-color="#3308B7" stop-opacity="0.1114"/>
<stop offset="1" stop-color="#2A117C" stop-opacity="0"/>
</linearGradient>
<linearGradient id="paint9_linear" x1="220.676" y1="48.0477" x2="102.046" y2="194.747" gradientUnits="userSpaceOnUse">
<stop stop-color="#7F3DFF"/>
<stop offset="1" stop-color="#3922AA"/>
</linearGradient>
<linearGradient id="paint10_linear" x1="72.3329" y1="-2.54622" x2="98.3498" y2="30.8232" gradientUnits="userSpaceOnUse">
<stop stop-color="white"/>
<stop offset="1" stop-color="#8E52FF" stop-opacity="0"/>
</linearGradient>
<linearGradient id="paint11_linear" x1="183.945" y1="68.4203" x2="199.45" y2="96.2186" gradientUnits="userSpaceOnUse">
<stop stop-color="#7238EF" stop-opacity="0"/>
<stop offset="0.5561" stop-color="white"/>
<stop offset="1" stop-color="#8E52FF" stop-opacity="0"/>
</linearGradient>
<linearGradient id="paint12_linear" x1="190.047" y1="129.011" x2="205.318" y2="170.299" gradientUnits="userSpaceOnUse">
<stop stop-color="#7238EF" stop-opacity="0"/>
<stop offset="0.5561" stop-color="white"/>
<stop offset="1" stop-color="#8E52FF" stop-opacity="0"/>
</linearGradient>
<radialGradient id="paint13_radial" cx="0" cy="0" r="1" gradientUnits="userSpaceOnUse" gradientTransform="translate(169.404 82.2116) scale(185.556)">
<stop stop-color="#ECE2FF"/>
<stop offset="1" stop-color="#8E52FF"/>
</radialGradient>
<linearGradient id="paint14_linear" x1="58.8264" y1="91.2671" x2="44.9799" y2="123.312" gradientUnits="userSpaceOnUse">
<stop stop-color="#D6BFFF" stop-opacity="0"/>
<stop offset="0.5829" stop-color="white"/>
<stop offset="1" stop-color="#8E52FF" stop-opacity="0"/>
</linearGradient>
<linearGradient id="paint15_linear" x1="160.479" y1="227.542" x2="142.453" y2="269.259" gradientUnits="userSpaceOnUse">
<stop stop-color="#D6BFFF" stop-opacity="0"/>
<stop offset="0.5829" stop-color="white"/>
<stop offset="1" stop-color="#8E52FF" stop-opacity="0"/>
</linearGradient>
<linearGradient id="paint16_linear" x1="61.2569" y1="-56.4772" x2="273.917" y2="269.3" gradientUnits="userSpaceOnUse">
<stop offset="0.1811" stop-color="#D6BFFF" stop-opacity="0"/>
<stop offset="0.5829" stop-color="white"/>
<stop offset="0.9209" stop-color="#8E52FF" stop-opacity="0"/>
</linearGradient>
</defs>
</svg>
