<?xml version="1.0" encoding="utf-8"?>
<!-- Generator: Adobe Illustrator 25.2.3, SVG Export Plug-In . SVG Version: 6.00 Build 0)  -->
<svg version="1.1" id="Layer_1" xmlns="http://www.w3.org/2000/svg" xmlns:xlink="http://www.w3.org/1999/xlink" x="0px" y="0px"
	 viewBox="0 0 20 20" style="enable-background:new 0 0 20 20;" xml:space="preserve">
<style type="text/css">
	.st0{display:none;}
	.st1{display:inline;fill:#1B1C29;}
	.st2{fill:#3721A7;}
</style>
<g class="st0">
	<path class="st1" d="M0.4,10.1c2-4.5,7.7-8.4,14-5.5C14.9,4,15.4,3.4,16,2.8c0.5,0.5,0.8,0.9,1.1,1.2c-4.4,4.4-8.8,8.8-13.2,13.2
		c-0.3-0.3-0.7-0.7-1.1-1.1c0.5-0.4,1-0.8,1.5-1.3C2.5,13.5,1.3,12,0.4,10.1z M7.7,11.1c-0.7-2.2,1.1-4,3.2-3.3
		c0.4-0.4,0.8-0.7,1.1-1C10.9,5.7,8.4,6,7.1,7.4c-1.2,1.3-1.5,3.8-0.4,4.7C7,11.8,7.4,11.5,7.7,11.1z"/>
	<path class="st1" d="M13.9,9.6c1-1,2-2,3.1-3.1c1.1,1,2,2.2,2.6,3.5c-2.2,5-7.9,7.6-12.2,6.1c0.7-0.7,1.3-1.4,2.1-2.1
		C12.1,14.4,14.3,12.2,13.9,9.6z"/>
</g>
<g>
	<path class="st2" d="M16.9,13.5c0,0-0.5,0.5-1.3,1.1l-1.3,0.8c-6.2,2.8-11.8-1-13.8-5.4c0.9-1.8,2.1-3.3,3.9-4.5l1.3-0.7
		c0.5-0.3,1.2-0.5,1.8-0.7c4.2-1.5,9.8,1.1,12,6C18.8,11.4,18,12.6,16.9,13.5z M10,6c-2.3,0-4.1,1.9-4.1,4.1c0,2.3,1.9,4.1,4.1,4.1
		c2.3,0,4.2-1.9,4.2-4.1C14.1,7.9,12.2,6,10,6z"/>
	<path class="st2" d="M10,8.1c1.1,0,2,0.9,2,2c0,1.1-0.9,2-2,2c-1.1,0-2-0.9-2-2C7.9,9,8.8,8.1,10,8.1z"/>
</g>
</svg>
