<svg width="196" height="159" viewBox="0 0 196 159" fill="none" xmlns="http://www.w3.org/2000/svg">
<g style="mix-blend-mode:luminosity">
<path d="M189.15 91.7222V92.484H187.354V97.8165H186.538V92.484H184.742V91.7222H189.15Z" fill="white" fill-opacity="0.5"/>
<path d="M195.625 91.7222V97.8165H194.808V93.0281L192.795 96.3473H192.686L190.673 93.0281V97.8165H189.857V91.7222H190.782L192.741 94.9326L194.7 91.7222H195.625Z" fill="white" fill-opacity="0.5"/>
<path d="M4.46195 158.155C4.13548 158.155 3.91783 157.992 3.91783 157.611V154.564L0.598649 149.34C0.435411 149.068 0.48985 148.796 0.761912 148.578C1.08839 148.415 1.30602 148.469 1.52367 148.741L4.46195 153.366L7.50903 148.741C7.61786 148.578 7.7267 148.524 7.83553 148.469C7.94435 148.469 8.10756 148.469 8.21639 148.578C8.54286 148.741 8.5973 149.013 8.37965 149.285L5.00608 154.509V157.556C5.00608 157.937 4.78843 158.155 4.46195 158.155Z" fill="white" fill-opacity="0.5"/>
<path d="M12.7326 158.155C11.6444 158.155 10.8282 157.883 10.3384 157.393C9.84874 156.903 9.57666 156.087 9.57666 154.999V151.679C9.57666 150.591 9.84874 149.775 10.3384 149.285C10.8282 148.795 11.6444 148.523 12.7326 148.523H14.4738C15.562 148.523 16.3782 148.795 16.8679 149.285C17.3577 149.775 17.6297 150.591 17.6297 151.679V154.999C17.6297 156.087 17.3577 156.849 16.8679 157.393C16.3782 157.883 15.562 158.155 14.4738 158.155H12.7326ZM12.7326 157.066H14.4738C15.0179 157.066 15.3988 157.012 15.7253 156.849C16.0518 156.74 16.2694 156.522 16.3782 156.196C16.487 155.869 16.5959 155.488 16.5959 154.944V151.679C16.5959 151.135 16.5415 150.754 16.3782 150.428C16.2694 150.101 16.0518 149.884 15.7253 149.775C15.3988 149.666 15.0179 149.557 14.4738 149.557H12.7326C12.1885 149.557 11.8076 149.612 11.4811 149.721C11.1546 149.829 10.937 150.047 10.8282 150.373C10.7193 150.7 10.6105 151.081 10.6105 151.625V154.944C10.6105 155.488 10.6649 155.869 10.8282 156.196C10.937 156.522 11.1546 156.74 11.4811 156.849C11.8076 157.012 12.2429 157.066 12.7326 157.066Z" fill="white" fill-opacity="0.5"/>
<path d="M23.3976 158.155C22.3094 158.155 21.4932 157.883 21.0035 157.393C20.5137 156.903 20.2417 156.087 20.2417 154.999V149.068C20.2417 148.904 20.2961 148.741 20.4049 148.687C20.5138 148.578 20.6226 148.523 20.7858 148.523C20.9491 148.523 21.1123 148.578 21.1667 148.687C21.2755 148.795 21.2755 148.904 21.2755 149.068V154.999C21.2755 155.543 21.3299 155.924 21.4932 156.25C21.602 156.577 21.8197 156.794 22.1461 156.903C22.4726 157.012 22.8535 157.121 23.3976 157.121H25.1388C25.6829 157.121 26.0638 157.066 26.3903 156.903C26.7168 156.794 26.9344 156.577 27.0432 156.25C27.1521 155.924 27.2609 155.543 27.2609 154.999V149.068C27.2609 148.904 27.3153 148.741 27.4241 148.687C27.533 148.578 27.6418 148.523 27.805 148.523C27.9682 148.523 28.1315 148.578 28.1859 148.687C28.2947 148.795 28.2947 148.904 28.2947 149.068V154.999C28.2947 156.087 28.0226 156.849 27.5329 157.393C27.0432 157.883 26.2271 158.155 25.1388 158.155H23.3976Z" fill="white" fill-opacity="0.5"/>
<path d="M37.4359 158.154C37.2726 158.263 37.1638 158.263 37.055 158.209C36.9462 158.154 36.8373 158.1 36.7285 157.937L34.4432 154.182H32.2123V157.556C32.2123 157.937 32.049 158.1 31.6681 158.1C31.2873 158.1 31.124 157.937 31.124 157.556V149.013C31.124 148.632 31.2873 148.469 31.6681 148.469H35.0417C35.9123 148.469 36.5653 148.686 37.0006 149.176C37.4359 149.611 37.7079 150.264 37.7079 151.135V151.57C37.7079 152.332 37.5447 152.931 37.1638 153.366C36.8373 153.801 36.2932 154.073 35.6403 154.182L37.5991 157.393C37.8168 157.719 37.7624 157.991 37.4359 158.154ZM32.2123 153.203H35.0961C35.6403 153.203 36.0756 153.094 36.3476 152.822C36.6197 152.55 36.7285 152.169 36.7285 151.625V151.189C36.7285 150.645 36.6197 150.21 36.3476 149.992C36.0756 149.72 35.6947 149.611 35.0961 149.611H32.2123V153.203Z" fill="white" fill-opacity="0.5"/>
<path d="M47.1759 158.155C46.0877 158.155 45.2715 157.883 44.7818 157.393C44.2921 156.903 44.02 156.087 44.02 154.999V151.679C44.02 150.591 44.2921 149.775 44.7818 149.285C45.2715 148.795 46.0877 148.523 47.1759 148.523H48.9171C49.8422 148.523 50.4951 148.687 50.9848 149.068C51.4745 149.448 51.6922 150.047 51.801 150.809C51.801 150.972 51.801 151.135 51.6922 151.19C51.5833 151.244 51.4745 151.353 51.3113 151.353C50.9848 151.353 50.8216 151.19 50.7671 150.809C50.7127 150.319 50.5495 149.993 50.2774 149.829C50.0054 149.666 49.5701 149.557 48.9715 149.557H47.2303C46.6862 149.557 46.3053 149.612 45.9789 149.775C45.6524 149.884 45.4347 150.101 45.3259 150.428C45.2171 150.754 45.1083 151.135 45.1083 151.679V154.999C45.1083 155.543 45.1627 155.924 45.3259 156.25C45.4347 156.577 45.6524 156.794 45.9789 156.903C46.3053 157.012 46.6862 157.121 47.2303 157.121H48.9715C49.4612 157.121 49.7877 157.066 50.0598 156.958C50.3318 156.849 50.4951 156.685 50.6039 156.413C50.7127 156.141 50.7671 155.76 50.7671 155.325V154.563H49.4613C49.1348 154.563 48.9171 154.4 48.9171 154.019C48.9171 153.693 49.0804 153.475 49.4613 153.475H51.2569C51.5833 153.475 51.801 153.638 51.801 154.019V155.325C51.801 156.305 51.5833 157.066 51.0936 157.502C50.6039 157.937 49.8966 158.209 48.9171 158.209H47.1759V158.155Z" fill="white" fill-opacity="0.5"/>
<path d="M53.7052 158.1C53.3787 157.991 53.2699 157.719 53.3787 157.393L56.8611 148.959C56.9699 148.687 57.1876 148.523 57.4596 148.523H57.5141C57.7861 148.523 58.0038 148.687 58.0582 148.959L61.595 157.393C61.7038 157.719 61.6494 157.937 61.3229 158.1C60.9964 158.209 60.7788 158.155 60.6156 157.828L59.745 155.815H55.2287L54.4125 157.828C54.2493 158.1 54.0317 158.209 53.7052 158.1ZM55.6096 154.727H59.3641L57.4596 150.21L55.6096 154.727Z" fill="white" fill-opacity="0.5"/>
<path d="M65.4042 158.155C65.241 158.155 65.0777 158.1 65.0233 158.046C64.9145 157.937 64.8601 157.828 64.8601 157.665V149.666H61.9763C61.813 149.666 61.6498 149.612 61.5954 149.557C61.4865 149.448 61.4321 149.34 61.4321 149.176C61.4321 149.013 61.4865 148.85 61.5954 148.796C61.7042 148.687 61.813 148.632 61.9763 148.632H68.8322C68.9954 148.632 69.1587 148.687 69.2131 148.796C69.3219 148.904 69.3219 149.013 69.3219 149.176C69.3219 149.34 69.2675 149.503 69.2131 149.557C69.1043 149.666 68.9954 149.666 68.8322 149.666H65.9483V157.665C65.9483 157.828 65.8939 157.937 65.7851 158.046C65.6763 158.155 65.5675 158.155 65.4042 158.155Z" fill="white" fill-opacity="0.5"/>
<path d="M71.716 158.155C71.3351 158.155 71.1719 157.991 71.1719 157.611V149.068C71.1719 148.687 71.3351 148.523 71.716 148.523H76.994C77.3749 148.523 77.5381 148.687 77.5381 149.068C77.5381 149.448 77.3749 149.612 76.994 149.612H72.2601V152.768H75.3072C75.6881 152.768 75.8514 152.931 75.8514 153.312C75.8514 153.693 75.6881 153.856 75.3072 153.856H72.2601V157.121H76.994C77.3749 157.121 77.5381 157.284 77.5381 157.665C77.5381 158.046 77.3749 158.209 76.994 158.209H71.716V158.155Z" fill="white" fill-opacity="0.5"/>
<path d="M81.7822 158.154C81.5646 158.154 81.4013 157.991 81.2925 157.719L78.5719 149.285C78.5175 149.122 78.5175 148.959 78.6263 148.795C78.7351 148.632 78.8983 148.578 79.0616 148.578C79.1704 148.578 79.2792 148.632 79.3336 148.686C79.388 148.741 79.4969 148.85 79.5513 148.959L81.9999 156.576H81.7278L84.0131 149.013C84.0676 148.85 84.1219 148.741 84.2308 148.686C84.3396 148.632 84.4484 148.578 84.5573 148.578C84.6661 148.578 84.8293 148.632 84.9381 148.686C85.047 148.741 85.1558 148.85 85.1558 149.013L87.4411 156.576H87.1691L89.6176 148.959C89.672 148.85 89.7264 148.741 89.8353 148.686C89.9441 148.632 89.9985 148.578 90.1073 148.578C90.325 148.578 90.4338 148.632 90.5427 148.795C90.6515 148.959 90.6515 149.122 90.597 149.285L87.8764 157.719C87.7676 157.991 87.6044 158.154 87.3323 158.154H87.2779C87.0058 158.154 86.7882 157.991 86.7338 157.719L84.3396 150.101H84.6117L82.2175 157.719C82.1631 157.882 82.1087 157.991 81.9999 158.046C82.0543 158.1 81.9454 158.154 81.7822 158.154Z" fill="white" fill-opacity="0.5"/>
<path d="M91.5221 158.1C91.1956 157.991 91.0868 157.719 91.1956 157.393L94.678 148.959C94.7868 148.687 95.0045 148.523 95.2765 148.523H95.331C95.603 148.523 95.8207 148.687 95.8751 148.959L99.4119 157.393C99.5207 157.719 99.4663 157.937 99.1398 158.1C98.8133 158.209 98.5957 158.155 98.4325 157.828L97.5618 155.815H92.9912L92.175 157.828C92.0662 158.1 91.8486 158.209 91.5221 158.1ZM93.4265 154.727H97.181L95.2765 150.21L93.4265 154.727Z" fill="white" fill-opacity="0.5"/>
<path d="M103.493 158.154C103.166 158.154 102.949 157.991 102.949 157.61V154.563L99.6294 149.339C99.4662 149.067 99.5206 148.795 99.7927 148.578C100.119 148.414 100.337 148.469 100.554 148.741L103.493 153.366L106.54 148.741C106.649 148.578 106.757 148.523 106.866 148.469C106.975 148.469 107.138 148.469 107.247 148.578C107.574 148.741 107.628 149.013 107.41 149.285L104.037 154.509V157.556C104.037 157.937 103.874 158.154 103.493 158.154Z" fill="white" fill-opacity="0.5"/>
<path d="M116.443 158.155C116.28 158.155 116.116 158.1 116.062 158.046C115.953 157.937 115.899 157.828 115.899 157.665V149.666H113.015C112.852 149.666 112.688 149.612 112.634 149.557C112.525 149.448 112.471 149.34 112.471 149.176C112.471 149.013 112.525 148.85 112.634 148.796C112.743 148.687 112.852 148.632 113.015 148.632H119.871C120.034 148.632 120.197 148.687 120.252 148.796C120.361 148.904 120.361 149.013 120.361 149.176C120.361 149.34 120.306 149.503 120.252 149.557C120.143 149.666 120.034 149.666 119.871 149.666H116.987V157.665C116.987 157.828 116.933 157.937 116.824 158.046C116.715 158.1 116.606 158.155 116.443 158.155Z" fill="white" fill-opacity="0.5"/>
<path d="M124.496 158.155C123.408 158.155 122.591 157.883 122.102 157.393C121.612 156.903 121.34 156.087 121.34 154.999V151.679C121.34 150.591 121.612 149.775 122.102 149.285C122.591 148.795 123.408 148.523 124.496 148.523H126.237C127.325 148.523 128.141 148.795 128.631 149.285C129.121 149.775 129.393 150.591 129.393 151.679V154.999C129.393 156.087 129.121 156.849 128.631 157.393C128.141 157.883 127.325 158.155 126.237 158.155H124.496ZM124.496 157.066H126.237C126.781 157.066 127.162 157.012 127.488 156.849C127.815 156.74 128.033 156.522 128.141 156.196C128.25 155.869 128.359 155.488 128.359 154.944V151.679C128.359 151.135 128.305 150.754 128.141 150.428C128.033 150.101 127.815 149.884 127.488 149.775C127.162 149.666 126.781 149.557 126.237 149.557H124.496C123.952 149.557 123.571 149.612 123.244 149.721C122.918 149.829 122.7 150.047 122.591 150.373C122.483 150.7 122.374 151.081 122.374 151.625V154.944C122.374 155.488 122.428 155.869 122.591 156.196C122.7 156.522 122.918 156.74 123.244 156.849C123.571 157.012 124.006 157.066 124.496 157.066Z" fill="white" fill-opacity="0.5"/>
<path d="M139.187 158.155C139.024 158.155 138.861 158.1 138.807 158.046C138.698 157.937 138.643 157.828 138.643 157.665V149.666H135.759C135.596 149.666 135.433 149.612 135.379 149.557C135.27 149.448 135.215 149.34 135.215 149.176C135.215 149.013 135.27 148.85 135.379 148.796C135.487 148.687 135.596 148.632 135.759 148.632H142.615C142.779 148.632 142.942 148.687 142.996 148.796C143.105 148.904 143.105 149.013 143.105 149.176C143.105 149.34 143.051 149.503 142.996 149.557C142.888 149.666 142.779 149.666 142.615 149.666H139.732V157.665C139.732 157.828 139.677 157.937 139.568 158.046C139.46 158.155 139.351 158.155 139.187 158.155Z" fill="white" fill-opacity="0.5"/>
<path d="M151.267 158.154C151.104 158.263 150.995 158.263 150.886 158.209C150.777 158.154 150.668 158.1 150.56 157.937L148.274 154.182H146.043V157.556C146.043 157.937 145.88 158.1 145.499 158.1C145.118 158.1 144.955 157.937 144.955 157.556V149.013C144.955 148.632 145.118 148.469 145.499 148.469H148.873C149.743 148.469 150.396 148.686 150.832 149.176C151.267 149.611 151.539 150.264 151.539 151.135V151.57C151.539 152.332 151.376 152.931 150.995 153.366C150.668 153.801 150.124 154.073 149.471 154.182L151.43 157.393C151.648 157.719 151.593 157.991 151.267 158.154ZM146.043 153.203H148.927C149.471 153.203 149.907 153.094 150.179 152.822C150.451 152.55 150.56 152.169 150.56 151.625V151.189C150.56 150.645 150.451 150.21 150.179 149.992C149.907 149.72 149.526 149.611 148.927 149.611H146.043V153.203Z" fill="white" fill-opacity="0.5"/>
<path d="M153.335 158.1C153.008 157.991 152.899 157.719 153.008 157.393L156.49 148.959C156.599 148.687 156.817 148.523 157.089 148.523H157.143C157.416 148.523 157.633 148.687 157.688 148.959L161.224 157.393C161.333 157.719 161.279 157.937 160.952 158.1C160.626 158.209 160.408 158.155 160.245 157.828L159.374 155.815H154.804L153.988 157.828C153.879 158.1 153.661 158.209 153.335 158.1ZM155.239 154.727H158.993L157.089 150.21L155.239 154.727Z" fill="white" fill-opacity="0.5"/>
<path d="M163.782 158.155C163.401 158.155 163.238 157.991 163.238 157.611V149.068C163.238 148.687 163.401 148.523 163.782 148.523H167.264C168.516 148.523 169.441 148.795 169.985 149.394C170.529 149.993 170.856 150.863 170.856 152.115V154.563C170.856 155.815 170.584 156.685 169.985 157.284C169.386 157.883 168.516 158.155 167.264 158.155H163.782ZM164.326 157.066H167.264C167.917 157.066 168.407 157.012 168.788 156.849C169.169 156.685 169.441 156.413 169.604 156.032C169.767 155.652 169.822 155.162 169.822 154.509V152.06C169.822 151.462 169.767 150.918 169.604 150.591C169.441 150.265 169.169 149.938 168.788 149.775C168.407 149.612 167.917 149.557 167.264 149.557H164.326V157.066Z" fill="white" fill-opacity="0.5"/>
<path d="M174.066 158.155C173.903 158.155 173.739 158.1 173.685 158.046C173.576 157.937 173.576 157.828 173.576 157.665V149.122C173.576 148.959 173.631 148.796 173.685 148.741C173.794 148.632 173.903 148.632 174.066 148.632C174.229 148.632 174.392 148.687 174.447 148.741C174.556 148.85 174.556 148.959 174.556 149.122V157.665C174.556 157.828 174.501 157.991 174.447 158.046C174.338 158.1 174.229 158.155 174.066 158.155Z" fill="white" fill-opacity="0.5"/>
<path d="M178.038 158.155C177.657 158.155 177.494 157.991 177.494 157.611V149.068C177.494 148.687 177.657 148.523 178.038 148.523C178.201 148.523 178.419 148.632 178.582 148.85L184.513 156.413H184.241V149.068C184.241 148.687 184.404 148.523 184.785 148.523C185.111 148.523 185.329 148.687 185.329 149.068V157.611C185.329 157.991 185.166 158.155 184.785 158.155C184.567 158.155 184.404 158.046 184.241 157.828L178.31 150.265H178.582V157.611C178.582 157.937 178.364 158.155 178.038 158.155Z" fill="white" fill-opacity="0.5"/>
<path d="M191.097 158.155C190.009 158.155 189.192 157.883 188.703 157.393C188.213 156.903 187.941 156.087 187.941 154.999V151.679C187.941 150.591 188.213 149.775 188.703 149.285C189.192 148.795 190.009 148.523 191.097 148.523H192.838C193.763 148.523 194.416 148.687 194.906 149.068C195.395 149.448 195.613 150.047 195.722 150.809C195.722 150.972 195.722 151.135 195.613 151.19C195.504 151.244 195.395 151.353 195.232 151.353C194.906 151.353 194.742 151.19 194.688 150.809C194.634 150.319 194.47 149.993 194.198 149.829C193.926 149.666 193.491 149.557 192.892 149.557H191.151C190.607 149.557 190.226 149.612 189.9 149.775C189.573 149.884 189.356 150.101 189.247 150.428C189.138 150.754 189.029 151.135 189.029 151.679V154.999C189.029 155.543 189.084 155.924 189.247 156.25C189.356 156.577 189.573 156.794 189.9 156.903C190.226 157.012 190.607 157.121 191.151 157.121H192.892C193.382 157.121 193.709 157.066 193.981 156.958C194.253 156.849 194.416 156.685 194.525 156.413C194.634 156.141 194.688 155.76 194.688 155.325V154.563H193.382C193.056 154.563 192.838 154.4 192.838 154.019C192.838 153.693 193.001 153.475 193.382 153.475H195.178C195.504 153.475 195.722 153.638 195.722 154.019V155.325C195.722 156.305 195.504 157.066 195.015 157.502C194.525 157.937 193.817 158.209 192.838 158.209H191.097V158.155Z" fill="white" fill-opacity="0.5"/>
<path d="M4.95153 102.49C3.59121 102.49 2.44857 102 1.46915 101.02C0.489719 100.041 0 98.8983 0 97.538C0 96.1777 0.489719 95.035 1.46915 94.0011C2.44857 93.0217 3.59121 92.4775 4.95153 92.4775C6.31184 92.4775 7.50892 92.9673 8.48834 94.0011C9.46777 94.9806 9.95749 96.1777 9.95749 97.538C9.95749 98.8983 9.46777 100.041 8.48834 101.02C7.50892 102 6.31184 102.49 4.95153 102.49ZM0.92502 137.695V106.299H9.03247V137.695H0.92502Z" fill="white"/>
<path d="M33.899 105.374C37.327 105.374 40.1565 106.517 42.3874 108.856C44.6183 111.142 45.7609 114.352 45.7609 118.433V137.75H37.6535V119.467C37.6535 117.399 37.1093 115.767 35.9667 114.679C34.824 113.59 33.3005 112.992 31.4504 112.992C29.3284 112.992 27.696 113.645 26.4445 114.951C25.193 116.257 24.5401 118.216 24.5401 120.773V137.75H16.4326V106.353H24.5401V109.89C26.4989 106.843 29.6548 105.374 33.899 105.374Z" fill="white"/>
<path d="M72.8041 106.245H81.7278L69.8115 137.641H60.5613L48.645 106.245H57.5686L65.1864 128.228L72.8041 106.245Z" fill="white"/>
<path d="M91.1951 125.289C92.2833 129.207 95.2216 131.22 100.064 131.22C103.166 131.22 105.506 130.187 107.084 128.064L113.613 131.819C110.512 136.281 105.941 138.566 99.9011 138.566C94.7319 138.566 90.5421 136.988 87.3862 133.832C84.2303 130.676 82.6523 126.759 82.6523 121.97C82.6523 117.236 84.1759 113.264 87.2774 110.108C90.3789 106.952 94.351 105.374 99.1937 105.374C103.819 105.374 107.628 106.952 110.62 110.162C113.613 113.373 115.137 117.291 115.137 121.97C115.137 123.004 115.028 124.147 114.81 125.289H91.1951ZM91.0863 119.032H107.084C106.648 116.91 105.669 115.277 104.2 114.243C102.731 113.21 101.098 112.665 99.2482 112.665C97.0717 112.665 95.276 113.21 93.8613 114.352C92.501 115.441 91.576 117.019 91.0863 119.032Z" fill="white"/>
<path d="M127.108 115.168C127.108 115.984 127.652 116.692 128.794 117.236C129.883 117.78 131.243 118.215 132.821 118.596C134.399 118.977 136.031 119.521 137.609 120.12C139.187 120.718 140.547 121.752 141.636 123.167C142.724 124.582 143.322 126.377 143.322 128.5C143.322 131.71 142.125 134.213 139.731 135.954C137.337 137.695 134.29 138.566 130.699 138.566C124.224 138.566 119.871 136.063 117.477 131.111L124.496 127.139C125.421 129.86 127.488 131.22 130.644 131.22C133.528 131.22 134.997 130.295 134.997 128.5C134.997 127.683 134.453 126.976 133.311 126.432C132.222 125.888 130.862 125.452 129.284 125.017C127.706 124.582 126.074 124.092 124.496 123.439C122.918 122.786 121.557 121.807 120.469 120.446C119.381 119.086 118.782 117.399 118.782 115.331C118.782 112.23 119.925 109.781 122.21 107.986C124.496 106.19 127.325 105.319 130.699 105.319C133.256 105.319 135.596 105.918 137.664 107.061C139.731 108.203 141.418 109.836 142.615 112.012L135.705 115.767C134.725 113.645 133.039 112.556 130.699 112.556C129.665 112.556 128.794 112.774 128.087 113.264C127.434 113.753 127.108 114.406 127.108 115.168Z" fill="white"/>
<path d="M148.546 137.695V91.8247H156.653V137.695H148.546Z" fill="white"/>
<path d="M190.825 133.723C187.614 136.934 183.642 138.512 179.017 138.512C174.392 138.512 170.42 136.934 167.21 133.723C163.999 130.513 162.421 126.595 162.421 121.915C162.421 117.29 163.999 113.318 167.21 110.108C170.42 106.897 174.338 105.319 179.017 105.319C183.642 105.319 187.614 106.897 190.825 110.108C194.035 113.318 195.667 117.236 195.667 121.915C195.667 126.595 194.035 130.513 190.825 133.723ZM172.923 128.173C174.555 129.805 176.569 130.622 178.963 130.622C181.411 130.622 183.425 129.805 185.057 128.173C186.689 126.541 187.506 124.473 187.506 121.97C187.506 119.467 186.689 117.399 185.057 115.767C183.425 114.134 181.411 113.318 178.963 113.318C176.514 113.318 174.501 114.134 172.923 115.767C171.291 117.399 170.529 119.467 170.529 121.97C170.529 124.473 171.345 126.541 172.923 128.173Z" fill="white"/>
</g>
<g style="mix-blend-mode:luminosity">
<path d="M76.6758 40.8583L68.4116 51.7993L79.3524 60.0637L87.6166 49.1227L76.6758 40.8583Z" fill="white" fill-opacity="0.8"/>
<path d="M77.3313 62.7931L74.393 66.7109C70.8018 71.4448 65.1973 74.2744 59.2119 74.2744H51.4854L66.3944 54.5767L77.3313 62.7931Z" fill="white" fill-opacity="0.55"/>
<path d="M120.915 74.2197H98.171L82.4458 62.3575L90.7165 51.4204L120.915 74.2197Z" fill="white"/>
<path d="M143.986 0L117.977 8.8694L125.051 14.0931L108.51 36.3482L89.9549 22.3096H67.2104L111.176 55.5562L136.151 22.3096L143.986 28.1318V0Z" fill="white"/>
</g>
</svg>
