<svg width="750" height="444" viewBox="0 0 750 444" fill="none" xmlns="http://www.w3.org/2000/svg">
<path d="M750 184.278V254.408H257.071L186.964 184.278H750Z" fill="url(#paint0_linear)"/>
<path d="M293.822 89.7139L222.016 0L150.186 89.7139H186.962V184.279L257.069 254.409V89.7139H293.822Z" fill="url(#paint1_linear)"/>
<path opacity="0.2" d="M222 192L187 148L188 185L195 192H222Z" fill="#000515"/>
<path opacity="0.2" d="M275.917 184.278H257.071V254.408H258.032L275.917 184.278Z" fill="#000515"/>
<path d="M750.001 280.498V350.628H180.123L110.016 280.498H750.001Z" fill="url(#paint2_linear)"/>
<path d="M216.895 185.911L145.066 96.2197L73.2368 185.911H110.012V280.499L180.12 350.629V185.911H216.895Z" fill="url(#paint3_linear)"/>
<path opacity="0.2" d="M148 284.5L110 237V280.5L113 283.5L148 284.5Z" fill="#000515"/>
<path opacity="0.2" d="M198.989 280.498H180.121V350.628H181.105L198.989 280.498Z" fill="#000515"/>
<path d="M750 373.7V443.831H106.881L36.7729 373.7H750Z" fill="url(#paint4_linear)"/>
<path d="M143.636 279.112L71.8293 189.398L0 279.112H36.7753V373.699L106.883 443.83V279.112H143.636Z" fill="url(#paint5_linear)"/>
<path opacity="0.2" d="M125.73 373.7H106.884V443.831H107.846L125.73 373.7Z" fill="#000515"/>
<path d="M341.395 210.011H308.196V235.563H341.395V210.011Z" fill="url(#paint6_linear)"/>
<path d="M309.561 232.434H309.471V216.919H309.561C310.097 216.919 310.544 216.472 310.544 215.935C310.544 215.399 310.097 214.952 309.561 214.952H309.471V214.929H304.933V214.952H304.844C304.307 214.952 303.86 215.399 303.86 215.935C303.86 216.472 304.307 216.919 304.844 216.919H304.933V232.434H304.844C304.307 232.434 303.86 232.881 303.86 233.417C303.86 233.954 304.307 234.401 304.844 234.401H304.933V234.893H309.471V234.401H309.561C310.097 234.401 310.544 233.954 310.544 233.417C310.544 232.881 310.097 232.434 309.561 232.434Z" fill="#857DEF"/>
<path d="M307.213 234.893V214.974L304.933 214.951V214.974H304.844C304.307 214.974 303.86 215.421 303.86 215.957C303.86 216.494 304.307 216.941 304.844 216.941H304.933V232.456H304.844C304.307 232.456 303.86 232.903 303.86 233.439C303.86 233.976 304.307 234.423 304.844 234.423H304.933V234.915H307.213V234.893Z" fill="#DDE8FE"/>
<path d="M318.103 232.434H318.013V216.919H318.103C318.639 216.919 319.086 216.472 319.086 215.935C319.086 215.399 318.639 214.952 318.103 214.952H318.013V214.929H313.475V214.952H313.385C312.849 214.952 312.402 215.399 312.402 215.935C312.402 216.472 312.849 216.919 313.385 216.919H313.475V232.434H313.385C312.849 232.434 312.402 232.881 312.402 233.417C312.402 233.954 312.849 234.401 313.385 234.401H313.475V234.893H318.013V234.401H318.103C318.639 234.401 319.086 233.954 319.086 233.417C319.086 232.881 318.639 232.434 318.103 232.434Z" fill="#857DEF"/>
<path d="M315.755 234.893V214.974L313.475 214.951V214.974H313.385C312.849 214.974 312.402 215.421 312.402 215.957C312.402 216.494 312.849 216.941 313.385 216.941H313.475V232.456H313.385C312.849 232.456 312.402 232.903 312.402 233.439C312.402 233.976 312.849 234.423 313.385 234.423H313.475V234.915H315.755V234.893Z" fill="#DDE8FE"/>
<path d="M334.061 232.434H333.972V216.919H334.061C334.598 216.919 335.045 216.472 335.045 215.935C335.045 215.399 334.598 214.952 334.061 214.952H333.972V214.929H329.433V214.952H329.344C328.807 214.952 328.36 215.399 328.36 215.935C328.36 216.472 328.807 216.919 329.344 216.919H329.433V232.434H329.344C328.807 232.434 328.36 232.881 328.36 233.417C328.36 233.954 328.807 234.401 329.344 234.401H329.433V234.893H333.972V234.401H334.061C334.598 234.401 335.045 233.954 335.045 233.417C335.045 232.881 334.598 232.434 334.061 232.434Z" fill="#857DEF"/>
<path d="M331.713 234.892V214.973L329.433 214.951V214.973H329.344C328.807 214.973 328.36 215.42 328.36 215.957C328.36 216.493 328.807 216.941 329.344 216.941H329.433V232.456H329.344C328.807 232.456 328.36 232.903 328.36 233.439C328.36 233.976 328.807 234.423 329.344 234.423H329.433V234.915H331.713V234.892Z" fill="#DDE8FE"/>
<path d="M342.601 232.434H342.512V216.919H342.601C343.138 216.919 343.585 216.472 343.585 215.935C343.585 215.399 343.138 214.952 342.601 214.952H342.512V214.929H337.974V214.952H337.884C337.348 214.952 336.901 215.399 336.901 215.935C336.901 216.472 337.348 216.919 337.884 216.919H337.974V232.434H337.884C337.348 232.434 336.901 232.881 336.901 233.417C336.901 233.954 337.348 234.401 337.884 234.401H337.974V234.893H342.512V234.401H342.601C343.138 234.401 343.585 233.954 343.585 233.417C343.585 232.881 343.16 232.434 342.601 232.434Z" fill="#857DEF"/>
<path d="M340.254 234.893V214.974L337.974 214.951V214.974H337.884C337.348 214.974 336.901 215.421 336.901 215.957C336.901 216.494 337.348 216.941 337.884 216.941H337.974V232.456H337.884C337.348 232.456 336.901 232.903 336.901 233.439C336.901 233.976 337.348 234.423 337.884 234.423H337.974V234.915H340.254V234.893Z" fill="#DDE8FE"/>
<path d="M348.661 238.068H298.853V234.848C298.853 234.446 299.188 234.111 299.59 234.111H347.901C348.304 234.111 348.639 234.446 348.639 234.848V238.068H348.661Z" fill="#9F92F7"/>
<path d="M349.374 238.917H298.134C297.754 238.917 297.463 238.626 297.463 238.246V236.749C297.463 236.369 297.754 236.078 298.134 236.078H349.374C349.754 236.078 350.044 236.369 350.044 236.749V238.246C350.044 238.604 349.731 238.917 349.374 238.917Z" fill="#857DEF"/>
<path d="M350.985 240.884H296.549C296.191 240.884 295.901 240.593 295.901 240.236V238.693C295.901 238.335 296.191 238.045 296.549 238.045H350.985C351.343 238.045 351.634 238.335 351.634 238.693V240.236C351.634 240.593 351.343 240.884 350.985 240.884Z" fill="#DDE8FE"/>
<path d="M345.353 215.354H302.05C300.999 215.354 300.127 214.504 300.127 213.431V212.895H347.254V213.431C347.276 214.504 346.404 215.354 345.353 215.354Z" fill="#9F92F7"/>
<path d="M348.081 208.982L323.714 197.826L299.368 208.982H348.081Z" fill="#9F92F7"/>
<path d="M344.187 209.071L323.732 199.682L303.231 209.071L323.709 208.982L344.187 209.071Z" fill="url(#paint7_linear)"/>
<path d="M341.662 209.988L323.711 201.717L306.564 209.988L306.34 209.541L323.711 201.158L341.886 209.519L341.662 209.988Z" fill="#9F92F7"/>
<path d="M348.748 212.939H298.716C297.509 212.939 296.547 211.955 296.547 210.771V209.787C296.547 209.34 296.905 208.982 297.352 208.982H350.157C350.604 208.982 350.961 209.34 350.961 209.787V210.771C350.917 211.978 349.955 212.939 348.748 212.939Z" fill="#857DEF"/>
<path opacity="0.5" d="M324.361 224.453H323.154C321.969 224.453 321.008 225.414 321.008 226.599V234.088H326.507V226.599C326.507 225.414 325.546 224.453 324.361 224.453Z" fill="#0B0754"/>
<path d="M330.84 203.482H316.667V208.602H330.84V203.482Z" fill="#DDE8FE"/>
<path d="M330.305 203.951H317.205V208.154H330.305V203.951Z" fill="#9F92F7"/>
<path d="M320.219 206.009C320.443 206.121 320.555 206.322 320.555 206.568C320.555 207.037 320.264 207.417 319.705 207.417H318.431V204.712H319.593C320.063 204.712 320.443 205.07 320.443 205.54C320.443 205.718 320.354 205.897 320.219 206.009ZM319.102 205.338V205.785H319.549C319.817 205.785 319.817 205.338 319.549 205.338H319.102ZM319.102 206.344V206.814H319.66C319.929 206.814 319.929 206.344 319.66 206.344H319.102Z" fill="white"/>
<path d="M322.524 207.082H321.451L321.294 207.417H320.624V207.328L321.831 204.69H322.122L323.351 207.328V207.417H322.681L322.524 207.082ZM321.987 205.785L321.697 206.501H322.3L321.987 205.785Z" fill="white"/>
<path d="M324.422 206.098V207.417C324.176 207.417 323.952 207.417 323.707 207.417V204.712H323.952L325.316 206.053V204.734C325.562 204.734 325.786 204.734 326.032 204.734V207.439H325.786L324.422 206.098Z" fill="white"/>
<path d="M326.728 207.417V204.712C326.952 204.712 327.198 204.712 327.421 204.712V205.74H327.466C328.159 205.74 328.114 205.226 328.114 204.712C328.36 204.712 328.584 204.712 328.83 204.712C328.83 205.271 328.852 205.763 328.316 206.12L329.053 207.305V207.417H328.293L327.69 206.366C327.6 206.389 327.511 206.389 327.421 206.389V207.417C327.198 207.417 326.974 207.417 326.728 207.417Z" fill="white"/>
<path d="M267.465 315.955H257.337V334.287H267.465V315.955Z" fill="url(#paint8_linear)"/>
<path d="M279.45 305.716H269.323V334.331H279.45V305.716Z" fill="#0041F9"/>
<path d="M291.322 291.789H281.195V334.287H291.322V291.789Z" fill="url(#paint9_linear)"/>
<path d="M292.954 335.18H256.425V336.678H292.954V335.18Z" fill="url(#paint10_linear)"/>
<path opacity="0.3" d="M256.425 334.286H266.552V326.574C262.997 326.462 259.577 325.746 256.425 324.517V334.286Z" fill="#60768E"/>
<path opacity="0.3" d="M268.384 334.309H278.511V324.517C275.359 325.746 271.939 326.462 268.384 326.551V334.309Z" fill="#4DBBC9"/>
<path opacity="0.2" d="M280.278 323.78V334.265H290.405V316.224C287.588 319.398 284.145 321.991 280.278 323.78Z" fill="#F5763D"/>
<path opacity="0.3" d="M256.425 315.955V324.517C259.577 325.747 262.997 326.462 266.552 326.574V315.955H256.425Z" fill="#8091A5"/>
<path opacity="0.3" d="M268.384 305.718V326.576C271.939 326.464 275.359 325.771 278.511 324.542V305.718H268.384V305.718Z" fill="#71C9D4"/>
<path opacity="0.2" d="M290.405 316.246V291.789H280.278V323.803C284.145 321.992 287.588 319.399 290.405 316.246Z" fill="#F79164"/>
<path d="M251.326 292.906C255.171 295.164 256.356 297.288 256.088 318.772H244.574L244.418 291.386C244.418 291.386 248.33 291.14 251.326 292.906Z" fill="url(#paint11_linear)"/>
<path d="M237.801 292.906C233.956 295.164 232.771 297.288 233.039 318.772H244.553L244.709 291.386C244.732 291.386 240.797 291.14 237.801 292.906Z" fill="url(#paint12_linear)"/>
<path d="M244.418 313.785L239.344 311.237V322.727C239.344 322.727 241.311 325.075 244.418 325.075C248.085 325.075 249.493 322.906 249.493 322.906V312.913L244.418 313.785Z" fill="#FFDBA8"/>
<path d="M249.472 315.709C249.472 315.709 247.057 317.944 239.322 322.147L239.345 314.636L249.472 315.709Z" fill="#F0BD6D"/>
<path d="M244.531 293.129C244.487 293.129 244.442 293.129 244.419 293.129C242.497 293.129 234.784 293.599 235.991 304.464C235.991 304.464 237.266 314.323 237.534 314.792C237.802 315.262 242.765 317.989 244.419 317.855C246.074 317.967 251.037 315.262 251.305 314.792C251.573 314.323 252.848 304.464 252.848 304.464C253.764 293.554 246.521 293.129 244.531 293.129Z" fill="#FFDBA8"/>
<path d="M236.773 310.277C236.773 310.277 235.633 310.813 234.806 308.198C233.777 304.889 233.889 303.838 234.716 303.838C235.991 303.838 236.348 304.621 236.348 304.621L236.773 310.277Z" fill="#FFDBA8"/>
<path d="M244.688 291.385C244.643 291.385 244.598 291.385 244.553 291.385C244.509 291.385 244.464 291.385 244.397 291.385C242.206 291.407 234.069 293.062 235.946 304.195C235.946 304.195 240.954 303.569 244.397 301.602C248.332 299.366 250.925 295.856 250.925 295.856C251.461 292.503 246.722 291.385 244.688 291.385Z" fill="url(#paint13_linear)"/>
<path d="M245.939 336.747H242.809C242.809 336.747 237.444 327 237.466 326.15C237.488 325.301 244.419 323.177 244.419 323.177C244.419 323.177 249.985 323.199 250.768 323.49C252.645 324.183 248.778 333.595 245.939 336.747Z" fill="#F2F2F2"/>
<path d="M250.723 294.874C250.723 294.874 249.806 299.792 252.802 304.174C255.775 308.555 254.881 297.176 254.881 297.176C254.881 297.176 253.674 293.13 250.723 294.874Z" fill="url(#paint14_linear)"/>
<path d="M252.041 310.209C252.041 310.209 253.293 310.522 253.919 307.84C254.656 304.754 254.5 304.084 253.673 303.95C252.957 303.838 252.197 304.598 252.197 304.598L252.041 310.209Z" fill="#FFDBA8"/>
<path d="M245.466 323.153H243.365V336.723H245.466V323.153Z" fill="#F8F8F8"/>
<path d="M249.491 319.756C249.491 319.756 248.753 322.304 244.416 323.154C244.416 323.154 245.981 327.379 250.095 325.747C254.365 324.071 252.263 320.807 249.491 319.756Z" fill="#8ACFEC"/>
<path d="M239.32 319.666C239.32 319.666 240.035 322.304 244.395 323.154C244.395 323.154 242.83 327.379 238.716 325.747C234.446 324.07 236.57 320.717 239.32 319.666Z" fill="#8ACFEC"/>
<path d="M234.604 329.235L235.722 327.603L236.281 326.798L234.224 323.423L233.464 322.171L233.441 322.148C233.441 322.148 225.46 325.792 225.438 325.815C224.879 326.441 223.828 331.94 223.158 336.724H240.282L234.604 329.235Z" fill="#DDE8FE"/>
<path d="M254.074 329.235L245.937 336.746H265.498C264.805 331.962 263.777 326.44 263.218 325.837C263.195 325.814 255.214 322.17 255.214 322.17L252.398 326.82L254.074 329.235Z" fill="#DDE8FE"/>
<path d="M236.301 326.798L235.742 327.625L234.602 329.234L240.303 336.746H242.784L241.913 333.683L238.894 323.333L237.978 320.225L233.484 322.17L234.244 323.444L236.301 326.798Z" fill="#857DEF"/>
<path d="M254.074 329.235L252.375 326.798L255.214 322.17L250.833 320.315L249.938 323.333L247.055 332.946L245.937 336.746H248.374L254.074 329.235Z" fill="#857DEF"/>
<path d="M243.57 327.245C243.57 327.67 243.928 328.028 244.353 328.028V326.463C243.906 326.463 243.57 326.82 243.57 327.245Z" fill="#F7F7F7"/>
<path d="M244.35 326.463V328.028C244.35 328.028 244.35 328.028 244.373 328.028C244.797 328.028 245.155 327.67 245.155 327.245C245.133 326.798 244.775 326.463 244.35 326.463Z" fill="white"/>
<path d="M244.241 327.245C244.241 327.334 244.174 327.424 244.062 327.424C243.973 327.424 243.883 327.357 243.883 327.245C243.883 327.155 243.95 327.066 244.062 327.066C244.152 327.066 244.241 327.155 244.241 327.245Z" fill="#C9C9C9"/>
<path d="M244.844 327.245C244.844 327.334 244.777 327.423 244.665 327.423C244.576 327.423 244.486 327.356 244.486 327.245C244.486 327.155 244.553 327.066 244.665 327.066C244.777 327.066 244.844 327.155 244.844 327.245Z" fill="#D4D4D4"/>
<path d="M243.57 333.816C243.57 334.241 243.928 334.599 244.353 334.599V333.034C243.928 333.011 243.57 333.369 243.57 333.816Z" fill="#F7F7F7"/>
<path d="M244.35 333.012V334.577C244.35 334.577 244.35 334.577 244.373 334.577C244.797 334.577 245.155 334.219 245.155 333.795C245.133 333.37 244.797 333.012 244.35 333.012Z" fill="white"/>
<path d="M244.241 333.794C244.241 333.883 244.174 333.972 244.062 333.972C243.973 333.972 243.883 333.905 243.883 333.794C243.883 333.704 243.95 333.615 244.062 333.615C244.152 333.637 244.241 333.704 244.241 333.794Z" fill="#C9C9C9"/>
<path d="M244.867 333.794C244.867 333.883 244.8 333.972 244.688 333.972C244.598 333.972 244.509 333.905 244.509 333.794C244.509 333.704 244.576 333.615 244.688 333.615C244.777 333.615 244.867 333.704 244.867 333.794Z" fill="#D4D4D4"/>
<path d="M383.568 225.288C384.304 225.672 384.88 226.2 385.296 226.872C385.712 227.544 385.92 228.32 385.92 229.2C385.92 230.576 385.432 231.72 384.456 232.632C383.48 233.544 382.288 234 380.88 234H373.68V217.2H380.352C381.728 217.2 382.888 217.648 383.832 218.544C384.792 219.424 385.272 220.528 385.272 221.856C385.272 223.312 384.704 224.456 383.568 225.288ZM380.352 219.792H376.44V224.208H380.352C380.96 224.208 381.472 224 381.888 223.584C382.304 223.152 382.512 222.624 382.512 222C382.512 221.376 382.304 220.856 381.888 220.44C381.472 220.008 380.96 219.792 380.352 219.792ZM380.88 231.408C381.52 231.408 382.056 231.184 382.488 230.736C382.936 230.272 383.16 229.712 383.16 229.056C383.16 228.4 382.936 227.848 382.488 227.4C382.056 226.936 381.52 226.704 380.88 226.704H376.44V231.408H380.88Z" fill="#3721A7"/>
<path d="M390.609 219.72C390.289 220.04 389.905 220.2 389.457 220.2C389.009 220.2 388.617 220.04 388.281 219.72C387.961 219.384 387.801 218.992 387.801 218.544C387.801 218.096 387.961 217.712 388.281 217.392C388.601 217.056 388.993 216.888 389.457 216.888C389.921 216.888 390.313 217.056 390.633 217.392C390.953 217.712 391.113 218.096 391.113 218.544C391.113 218.992 390.945 219.384 390.609 219.72ZM388.161 234V222H390.753V234H388.161Z" fill="#3721A7"/>
<path d="M403.314 222H405.858V233.448C405.858 235.272 405.258 236.672 404.058 237.648C402.858 238.624 401.402 239.112 399.69 239.112C396.922 239.112 395.026 238.144 394.002 236.208L396.234 234.912C396.858 236.144 398.026 236.76 399.738 236.76C400.858 236.76 401.73 236.464 402.354 235.872C402.994 235.296 403.314 234.488 403.314 233.448V231.984C402.338 233.376 400.946 234.072 399.138 234.072C397.442 234.072 396.01 233.472 394.842 232.272C393.674 231.056 393.09 229.592 393.09 227.88C393.09 226.168 393.674 224.712 394.842 223.512C396.01 222.296 397.442 221.688 399.138 221.688C400.946 221.688 402.338 222.384 403.314 223.776V222ZM396.762 230.568C397.498 231.288 398.41 231.648 399.498 231.648C400.586 231.648 401.49 231.288 402.21 230.568C402.946 229.848 403.314 228.952 403.314 227.88C403.314 226.808 402.946 225.912 402.21 225.192C401.49 224.472 400.586 224.112 399.498 224.112C398.41 224.112 397.498 224.472 396.762 225.192C396.042 225.912 395.682 226.808 395.682 227.88C395.682 228.952 396.042 229.848 396.762 230.568Z" fill="#3721A7"/>
<path d="M424.935 225.288C425.671 225.672 426.247 226.2 426.663 226.872C427.079 227.544 427.287 228.32 427.287 229.2C427.287 230.576 426.799 231.72 425.823 232.632C424.847 233.544 423.655 234 422.247 234H415.047V217.2H421.719C423.095 217.2 424.255 217.648 425.199 218.544C426.159 219.424 426.639 220.528 426.639 221.856C426.639 223.312 426.071 224.456 424.935 225.288ZM421.719 219.792H417.807V224.208H421.719C422.327 224.208 422.839 224 423.255 223.584C423.671 223.152 423.879 222.624 423.879 222C423.879 221.376 423.671 220.856 423.255 220.44C422.839 220.008 422.327 219.792 421.719 219.792ZM422.247 231.408C422.887 231.408 423.423 231.184 423.855 230.736C424.303 230.272 424.527 229.712 424.527 229.056C424.527 228.4 424.303 227.848 423.855 227.4C423.423 226.936 422.887 226.704 422.247 226.704H417.807V231.408H422.247Z" fill="#3721A7"/>
<path d="M439.149 222H441.741V234H439.149V232.272C438.173 233.632 436.773 234.312 434.949 234.312C433.301 234.312 431.893 233.704 430.725 232.488C429.557 231.256 428.973 229.76 428.973 228C428.973 226.224 429.557 224.728 430.725 223.512C431.893 222.296 433.301 221.688 434.949 221.688C436.773 221.688 438.173 222.36 439.149 223.704V222ZM432.645 230.76C433.365 231.48 434.269 231.84 435.357 231.84C436.445 231.84 437.349 231.48 438.069 230.76C438.789 230.024 439.149 229.104 439.149 228C439.149 226.896 438.789 225.984 438.069 225.264C437.349 224.528 436.445 224.16 435.357 224.16C434.269 224.16 433.365 224.528 432.645 225.264C431.925 225.984 431.565 226.896 431.565 228C431.565 229.104 431.925 230.024 432.645 230.76Z" fill="#3721A7"/>
<path d="M451.074 221.688C452.45 221.688 453.562 222.128 454.41 223.008C455.258 223.888 455.682 225.096 455.682 226.632V234H453.09V226.896C453.09 226 452.85 225.312 452.37 224.832C451.89 224.352 451.234 224.112 450.402 224.112C449.49 224.112 448.754 224.4 448.194 224.976C447.634 225.536 447.354 226.4 447.354 227.568V234H444.762V222H447.354V223.536C448.138 222.304 449.378 221.688 451.074 221.688Z" fill="#3721A7"/>
<path d="M469.081 234H465.985L461.065 228.456V234H458.473V217.2H461.065V227.304L465.721 222H468.889L463.609 227.88L469.081 234Z" fill="#3721A7"/>
<path d="M472.309 225.312C472.309 225.712 472.525 226.032 472.957 226.272C473.405 226.496 473.941 226.696 474.565 226.872C475.205 227.032 475.845 227.224 476.485 227.448C477.125 227.672 477.661 228.056 478.093 228.6C478.541 229.128 478.765 229.8 478.765 230.616C478.765 231.768 478.317 232.672 477.421 233.328C476.541 233.984 475.429 234.312 474.085 234.312C472.901 234.312 471.885 234.064 471.037 233.568C470.189 233.072 469.573 232.384 469.189 231.504L471.421 230.208C471.837 231.36 472.725 231.936 474.085 231.936C475.445 231.936 476.125 231.488 476.125 230.592C476.125 230.208 475.901 229.896 475.453 229.656C475.021 229.416 474.485 229.216 473.845 229.056C473.221 228.88 472.589 228.68 471.949 228.456C471.309 228.232 470.765 227.864 470.317 227.352C469.885 226.824 469.669 226.16 469.669 225.36C469.669 224.256 470.085 223.368 470.917 222.696C471.765 222.024 472.813 221.688 474.061 221.688C475.053 221.688 475.933 221.912 476.701 222.36C477.485 222.792 478.085 223.4 478.501 224.184L476.317 225.408C475.901 224.496 475.149 224.04 474.061 224.04C473.565 224.04 473.149 224.152 472.813 224.376C472.477 224.584 472.309 224.896 472.309 225.312Z" fill="#3721A7"/>
<path d="M323.568 315.288C324.304 315.672 324.88 316.2 325.296 316.872C325.712 317.544 325.92 318.32 325.92 319.2C325.92 320.576 325.432 321.72 324.456 322.632C323.48 323.544 322.288 324 320.88 324H313.68V307.2H320.352C321.728 307.2 322.888 307.648 323.832 308.544C324.792 309.424 325.272 310.528 325.272 311.856C325.272 313.312 324.704 314.456 323.568 315.288ZM320.352 309.792H316.44V314.208H320.352C320.96 314.208 321.472 314 321.888 313.584C322.304 313.152 322.512 312.624 322.512 312C322.512 311.376 322.304 310.856 321.888 310.44C321.472 310.008 320.96 309.792 320.352 309.792ZM320.88 321.408C321.52 321.408 322.056 321.184 322.488 320.736C322.936 320.272 323.16 319.712 323.16 319.056C323.16 318.4 322.936 317.848 322.488 317.4C322.056 316.936 321.52 316.704 320.88 316.704H316.44V321.408H320.88Z" fill="#3721A7"/>
<path d="M330.609 309.72C330.289 310.04 329.905 310.2 329.457 310.2C329.009 310.2 328.617 310.04 328.281 309.72C327.961 309.384 327.801 308.992 327.801 308.544C327.801 308.096 327.961 307.712 328.281 307.392C328.601 307.056 328.993 306.888 329.457 306.888C329.921 306.888 330.313 307.056 330.633 307.392C330.953 307.712 331.113 308.096 331.113 308.544C331.113 308.992 330.945 309.384 330.609 309.72ZM328.161 324V312H330.753V324H328.161Z" fill="#3721A7"/>
<path d="M343.314 312H345.858V323.448C345.858 325.272 345.258 326.672 344.058 327.648C342.858 328.624 341.402 329.112 339.69 329.112C336.922 329.112 335.026 328.144 334.002 326.208L336.234 324.912C336.858 326.144 338.026 326.76 339.738 326.76C340.858 326.76 341.73 326.464 342.354 325.872C342.994 325.296 343.314 324.488 343.314 323.448V321.984C342.338 323.376 340.946 324.072 339.138 324.072C337.442 324.072 336.01 323.472 334.842 322.272C333.674 321.056 333.09 319.592 333.09 317.88C333.09 316.168 333.674 314.712 334.842 313.512C336.01 312.296 337.442 311.688 339.138 311.688C340.946 311.688 342.338 312.384 343.314 313.776V312ZM336.762 320.568C337.498 321.288 338.41 321.648 339.498 321.648C340.586 321.648 341.49 321.288 342.21 320.568C342.946 319.848 343.314 318.952 343.314 317.88C343.314 316.808 342.946 315.912 342.21 315.192C341.49 314.472 340.586 314.112 339.498 314.112C338.41 314.112 337.498 314.472 336.762 315.192C336.042 315.912 335.682 316.808 335.682 317.88C335.682 318.952 336.042 319.848 336.762 320.568Z" fill="#3721A7"/>
<path d="M364.935 315.288C365.671 315.672 366.247 316.2 366.663 316.872C367.079 317.544 367.287 318.32 367.287 319.2C367.287 320.576 366.799 321.72 365.823 322.632C364.847 323.544 363.655 324 362.247 324H355.047V307.2H361.719C363.095 307.2 364.255 307.648 365.199 308.544C366.159 309.424 366.639 310.528 366.639 311.856C366.639 313.312 366.071 314.456 364.935 315.288ZM361.719 309.792H357.807V314.208H361.719C362.327 314.208 362.839 314 363.255 313.584C363.671 313.152 363.879 312.624 363.879 312C363.879 311.376 363.671 310.856 363.255 310.44C362.839 310.008 362.327 309.792 361.719 309.792ZM362.247 321.408C362.887 321.408 363.423 321.184 363.855 320.736C364.303 320.272 364.527 319.712 364.527 319.056C364.527 318.4 364.303 317.848 363.855 317.4C363.423 316.936 362.887 316.704 362.247 316.704H357.807V321.408H362.247Z" fill="#3721A7"/>
<path d="M372.12 314.016C372.776 312.528 374.008 311.784 375.816 311.784V314.592C374.824 314.528 373.96 314.768 373.224 315.312C372.488 315.84 372.12 316.72 372.12 317.952V324H369.528V312H372.12V314.016Z" fill="#3721A7"/>
<path d="M382.832 324.312C381.072 324.312 379.576 323.704 378.344 322.488C377.112 321.272 376.496 319.776 376.496 318C376.496 316.224 377.112 314.728 378.344 313.512C379.576 312.296 381.072 311.688 382.832 311.688C384.608 311.688 386.104 312.296 387.32 313.512C388.552 314.728 389.168 316.224 389.168 318C389.168 319.776 388.552 321.272 387.32 322.488C386.104 323.704 384.608 324.312 382.832 324.312ZM380.168 320.712C380.888 321.432 381.776 321.792 382.832 321.792C383.888 321.792 384.776 321.432 385.496 320.712C386.216 319.992 386.576 319.088 386.576 318C386.576 316.912 386.216 316.008 385.496 315.288C384.776 314.568 383.888 314.208 382.832 314.208C381.776 314.208 380.888 314.568 380.168 315.288C379.448 316.008 379.088 316.912 379.088 318C379.088 319.088 379.448 319.992 380.168 320.712Z" fill="#3721A7"/>
<path d="M402.12 324H399.024L394.104 318.456V324H391.512V307.2H394.104V317.304L398.76 312H401.928L396.648 317.88L402.12 324Z" fill="#3721A7"/>
<path d="M404.943 319.104C405.135 320.016 405.575 320.72 406.263 321.216C406.951 321.696 407.791 321.936 408.783 321.936C410.159 321.936 411.191 321.44 411.879 320.448L414.015 321.696C412.831 323.44 411.079 324.312 408.759 324.312C406.807 324.312 405.231 323.72 404.031 322.536C402.831 321.336 402.231 319.824 402.231 318C402.231 316.208 402.823 314.712 404.007 313.512C405.191 312.296 406.711 311.688 408.567 311.688C410.327 311.688 411.767 312.304 412.887 313.536C414.023 314.768 414.591 316.264 414.591 318.024C414.591 318.296 414.559 318.656 414.495 319.104H404.943ZM404.919 316.992H411.975C411.799 316.016 411.391 315.28 410.751 314.784C410.127 314.288 409.391 314.04 408.543 314.04C407.583 314.04 406.783 314.304 406.143 314.832C405.503 315.36 405.095 316.08 404.919 316.992Z" fill="#3721A7"/>
<path d="M419.464 314.016C420.12 312.528 421.352 311.784 423.16 311.784V314.592C422.168 314.528 421.304 314.768 420.568 315.312C419.832 315.84 419.464 316.72 419.464 317.952V324H416.872V312H419.464V314.016Z" fill="#3721A7"/>
<path d="M426.981 315.312C426.981 315.712 427.197 316.032 427.629 316.272C428.077 316.496 428.613 316.696 429.237 316.872C429.877 317.032 430.517 317.224 431.157 317.448C431.797 317.672 432.333 318.056 432.765 318.6C433.213 319.128 433.437 319.8 433.437 320.616C433.437 321.768 432.989 322.672 432.093 323.328C431.213 323.984 430.101 324.312 428.757 324.312C427.573 324.312 426.557 324.064 425.709 323.568C424.861 323.072 424.245 322.384 423.861 321.504L426.093 320.208C426.509 321.36 427.397 321.936 428.757 321.936C430.117 321.936 430.797 321.488 430.797 320.592C430.797 320.208 430.573 319.896 430.125 319.656C429.693 319.416 429.157 319.216 428.517 319.056C427.893 318.88 427.261 318.68 426.621 318.456C425.981 318.232 425.437 317.864 424.989 317.352C424.557 316.824 424.341 316.16 424.341 315.36C424.341 314.256 424.757 313.368 425.589 312.696C426.437 312.024 427.485 311.688 428.733 311.688C429.725 311.688 430.605 311.912 431.373 312.36C432.157 312.792 432.757 313.4 433.173 314.184L430.989 315.408C430.573 314.496 429.821 314.04 428.733 314.04C428.237 314.04 427.821 314.152 427.485 314.376C427.149 314.584 426.981 314.896 426.981 315.312Z" fill="#3721A7"/>
<path d="M246.256 420L242.704 413.88H239.44V420H236.68V403.2H243.4C244.904 403.2 246.176 403.728 247.216 404.784C248.272 405.824 248.8 407.096 248.8 408.6C248.8 409.672 248.488 410.656 247.864 411.552C247.256 412.432 246.456 413.072 245.464 413.472L249.28 420H246.256ZM239.44 405.792V411.408H243.4C244.136 411.408 244.76 411.136 245.272 410.592C245.784 410.048 246.04 409.384 246.04 408.6C246.04 407.816 245.784 407.152 245.272 406.608C244.76 406.064 244.136 405.792 243.4 405.792H239.44Z" fill="#3721A7"/>
<path d="M252.638 415.104C252.83 416.016 253.27 416.72 253.958 417.216C254.646 417.696 255.486 417.936 256.478 417.936C257.854 417.936 258.886 417.44 259.574 416.448L261.71 417.696C260.526 419.44 258.774 420.312 256.454 420.312C254.502 420.312 252.926 419.72 251.726 418.536C250.526 417.336 249.926 415.824 249.926 414C249.926 412.208 250.518 410.712 251.702 409.512C252.886 408.296 254.406 407.688 256.262 407.688C258.022 407.688 259.462 408.304 260.582 409.536C261.718 410.768 262.286 412.264 262.286 414.024C262.286 414.296 262.254 414.656 262.19 415.104H252.638ZM252.614 412.992H259.67C259.494 412.016 259.086 411.28 258.446 410.784C257.822 410.288 257.086 410.04 256.238 410.04C255.278 410.04 254.478 410.304 253.838 410.832C253.198 411.36 252.79 412.08 252.614 412.992Z" fill="#3721A7"/>
<path d="M270.888 410.496H267.912V416.256C267.912 416.752 268.024 417.112 268.248 417.336C268.472 417.544 268.8 417.664 269.232 417.696C269.68 417.712 270.232 417.704 270.888 417.672V420C268.904 420.24 267.48 420.072 266.616 419.496C265.752 418.904 265.32 417.824 265.32 416.256V410.496H263.112V408H265.32V405.408L267.912 404.64V408H270.888V410.496Z" fill="#3721A7"/>
<path d="M282.251 408H284.843V420H282.251V418.272C281.275 419.632 279.875 420.312 278.051 420.312C276.403 420.312 274.995 419.704 273.827 418.488C272.659 417.256 272.075 415.76 272.075 414C272.075 412.224 272.659 410.728 273.827 409.512C274.995 408.296 276.403 407.688 278.051 407.688C279.875 407.688 281.275 408.36 282.251 409.704V408ZM275.747 416.76C276.467 417.48 277.371 417.84 278.459 417.84C279.547 417.84 280.451 417.48 281.171 416.76C281.891 416.024 282.251 415.104 282.251 414C282.251 412.896 281.891 411.984 281.171 411.264C280.451 410.528 279.547 410.16 278.459 410.16C277.371 410.16 276.467 410.528 275.747 411.264C275.027 411.984 274.667 412.896 274.667 414C274.667 415.104 275.027 416.024 275.747 416.76Z" fill="#3721A7"/>
<path d="M290.312 405.72C289.992 406.04 289.608 406.2 289.16 406.2C288.712 406.2 288.32 406.04 287.984 405.72C287.664 405.384 287.504 404.992 287.504 404.544C287.504 404.096 287.664 403.712 287.984 403.392C288.304 403.056 288.696 402.888 289.16 402.888C289.624 402.888 290.016 403.056 290.336 403.392C290.656 403.712 290.816 404.096 290.816 404.544C290.816 404.992 290.648 405.384 290.312 405.72ZM287.864 420V408H290.456V420H287.864Z" fill="#3721A7"/>
<path d="M293.465 420V402.48H296.057V420H293.465Z" fill="#3721A7"/>
<path d="M313.179 420.312C310.651 420.312 308.555 419.48 306.891 417.816C305.227 416.136 304.395 414.064 304.395 411.6C304.395 409.136 305.227 407.072 306.891 405.408C308.555 403.728 310.651 402.888 313.179 402.888C314.699 402.888 316.099 403.248 317.379 403.968C318.675 404.688 319.683 405.664 320.403 406.896L318.003 408.288C317.555 407.456 316.899 406.8 316.035 406.32C315.187 405.824 314.235 405.576 313.179 405.576C311.387 405.576 309.931 406.144 308.811 407.28C307.707 408.416 307.155 409.856 307.155 411.6C307.155 413.344 307.707 414.784 308.811 415.92C309.931 417.056 311.387 417.624 313.179 417.624C314.235 417.624 315.195 417.384 316.059 416.904C316.923 416.408 317.571 415.744 318.003 414.912L320.403 416.28C319.699 417.512 318.699 418.496 317.403 419.232C316.123 419.952 314.715 420.312 313.179 420.312Z" fill="#3721A7"/>
<path d="M322.645 420V402.48H325.237V420H322.645Z" fill="#3721A7"/>
<path d="M330.695 405.72C330.375 406.04 329.991 406.2 329.543 406.2C329.095 406.2 328.703 406.04 328.367 405.72C328.047 405.384 327.887 404.992 327.887 404.544C327.887 404.096 328.047 403.712 328.367 403.392C328.687 403.056 329.079 402.888 329.543 402.888C330.007 402.888 330.399 403.056 330.719 403.392C331.039 403.712 331.199 404.096 331.199 404.544C331.199 404.992 331.031 405.384 330.695 405.72ZM328.247 420V408H330.839V420H328.247Z" fill="#3721A7"/>
<path d="M335.888 415.104C336.08 416.016 336.52 416.72 337.208 417.216C337.896 417.696 338.736 417.936 339.728 417.936C341.104 417.936 342.136 417.44 342.824 416.448L344.96 417.696C343.776 419.44 342.024 420.312 339.704 420.312C337.752 420.312 336.176 419.72 334.976 418.536C333.776 417.336 333.176 415.824 333.176 414C333.176 412.208 333.768 410.712 334.952 409.512C336.136 408.296 337.656 407.688 339.512 407.688C341.272 407.688 342.712 408.304 343.832 409.536C344.968 410.768 345.536 412.264 345.536 414.024C345.536 414.296 345.504 414.656 345.44 415.104H335.888ZM335.864 412.992H342.92C342.744 412.016 342.336 411.28 341.696 410.784C341.072 410.288 340.336 410.04 339.488 410.04C338.528 410.04 337.728 410.304 337.088 410.832C336.448 411.36 336.04 412.08 335.864 412.992Z" fill="#3721A7"/>
<path d="M354.129 407.688C355.505 407.688 356.617 408.128 357.465 409.008C358.313 409.888 358.737 411.096 358.737 412.632V420H356.145V412.896C356.145 412 355.905 411.312 355.425 410.832C354.945 410.352 354.289 410.112 353.457 410.112C352.545 410.112 351.809 410.4 351.249 410.976C350.689 411.536 350.409 412.4 350.409 413.568V420H347.817V408H350.409V409.536C351.193 408.304 352.433 407.688 354.129 407.688Z" fill="#3721A7"/>
<path d="M368.224 410.496H365.248V416.256C365.248 416.752 365.36 417.112 365.584 417.336C365.808 417.544 366.136 417.664 366.568 417.696C367.016 417.712 367.568 417.704 368.224 417.672V420C366.24 420.24 364.816 420.072 363.952 419.496C363.088 418.904 362.656 417.824 362.656 416.256V410.496H360.448V408H362.656V405.408L365.248 404.64V408H368.224V410.496Z" fill="#3721A7"/>
<path d="M372.457 411.312C372.457 411.712 372.673 412.032 373.105 412.272C373.553 412.496 374.089 412.696 374.713 412.872C375.353 413.032 375.993 413.224 376.633 413.448C377.273 413.672 377.809 414.056 378.241 414.6C378.689 415.128 378.913 415.8 378.913 416.616C378.913 417.768 378.465 418.672 377.569 419.328C376.689 419.984 375.577 420.312 374.233 420.312C373.049 420.312 372.033 420.064 371.185 419.568C370.337 419.072 369.721 418.384 369.337 417.504L371.569 416.208C371.985 417.36 372.873 417.936 374.233 417.936C375.593 417.936 376.273 417.488 376.273 416.592C376.273 416.208 376.049 415.896 375.601 415.656C375.169 415.416 374.633 415.216 373.993 415.056C373.369 414.88 372.737 414.68 372.097 414.456C371.457 414.232 370.913 413.864 370.465 413.352C370.033 412.824 369.817 412.16 369.817 411.36C369.817 410.256 370.233 409.368 371.065 408.696C371.913 408.024 372.961 407.688 374.209 407.688C375.201 407.688 376.081 407.912 376.849 408.36C377.633 408.792 378.233 409.4 378.649 410.184L376.465 411.408C376.049 410.496 375.297 410.04 374.209 410.04C373.713 410.04 373.297 410.152 372.961 410.376C372.625 410.584 372.457 410.896 372.457 411.312Z" fill="#3721A7"/>
<path d="M202.577 408.285C206.516 405.989 210.778 406.157 213.839 407.918C216.899 409.69 217.286 422.417 215.844 423.413C214.403 424.409 202.901 430.772 200.958 431.936C198.701 433.288 190.261 431.59 190.261 429.241C190.261 427.837 189.905 416.735 192.945 414.166C194.805 412.583 198.618 410.591 202.577 408.285Z" fill="#DDE8FE"/>
<path d="M205.605 411.882L207.402 414.199L206.796 416.694L208.196 427.901L206.148 429.075L205.584 417.239L203.484 414.954L204.216 412.06L205.605 411.882Z" fill="url(#paint15_linear)"/>
<path opacity="0.5" d="M209.157 417.877C209.596 411.881 207.643 408.254 206.995 406.692C208.165 406.482 209.283 406.43 210.327 406.566C210.996 408.159 212.344 412.206 211.644 417.238C211.111 421.127 209.972 424.912 209.137 427.344C208.771 427.554 208.405 427.763 208.029 427.983C208.635 425.541 208.917 421.169 209.157 417.877Z" fill="url(#paint16_linear)"/>
<path d="M209.471 417.742C209.92 411.536 208.04 408.475 207.476 406.996C206.463 407.028 207.465 406.472 206.431 406.734C209.44 405.98 212.198 406.325 214.183 407.762C216.167 409.198 216.857 412.542 216.982 416.159C217.076 419.241 216.794 422.721 216.188 423.256C215.259 424.084 212.208 425.594 208.343 427.858C208.949 425.405 209.231 421.034 209.471 417.742Z" fill="url(#paint17_radial)"/>
<path d="M192.651 414.177C194.114 412.94 197.06 411.43 200.058 409.721C199.139 410.246 199.107 410.623 198.272 411.105C198.93 413.181 200.267 414.544 201.928 417.311C203.871 420.551 205.584 426.642 206.023 429.189C203.652 430.573 201.646 431.737 200.946 432.156C198 433.928 190.019 431.59 190.019 429.231C190.019 427.837 189.611 416.756 192.651 414.177Z" fill="url(#paint18_radial)"/>
<path d="M206.054 429.178C206.629 428.843 207.235 428.487 207.841 428.141C207.235 428.497 206.629 428.843 206.054 429.178Z" fill="#E6E7E8"/>
<path d="M209.471 417.742C209.92 411.536 208.04 408.475 207.476 406.996C206.463 407.028 207.465 406.472 206.431 406.734C209.44 405.98 212.198 406.325 214.183 407.762C216.167 409.198 216.857 412.542 216.982 416.159C217.076 419.241 216.794 422.721 216.188 423.256C215.259 424.084 212.208 425.594 208.343 427.858C208.949 425.405 209.231 421.034 209.471 417.742Z" fill="url(#paint19_linear)"/>
<path opacity="0.5" d="M215.028 415.153C214.829 412.154 214.307 409.313 213.231 407.259C214.693 408.863 215.362 411.714 215.623 414.786C215.874 417.857 215.769 421.348 215.195 421.914C215.122 421.988 215.028 422.072 214.923 422.155C215.163 420.384 215.195 417.669 215.028 415.153Z" fill="url(#paint20_linear)"/>
<path d="M192.651 414.177C194.114 412.94 197.06 411.43 200.058 409.721C199.139 410.246 199.107 410.623 198.272 411.105C198.93 413.181 200.267 414.544 201.928 417.311C203.871 420.551 205.584 426.642 206.023 429.189C203.652 430.573 201.646 431.737 200.946 432.156C198 433.928 190.019 431.59 190.019 429.231C190.019 427.837 189.611 416.756 192.651 414.177Z" fill="url(#paint21_linear)"/>
<path d="M206.054 429.178C206.629 428.843 207.235 428.487 207.841 428.141C207.235 428.497 206.629 428.843 206.054 429.178Z" fill="url(#paint22_radial)"/>
<path d="M206.901 407.595C208.029 407.972 208.948 409.786 208.823 412.019C208.677 414.702 207.841 415.614 207.841 415.614L205.386 412.019L203.934 416.589C203.934 416.589 201.688 415.981 200.267 414.545C198.846 413.109 197.551 411.746 198.303 410.54C199.212 409.104 205.459 407.112 206.901 407.595Z" fill="white"/>
<path opacity="0.5" d="M198.095 410.708C198.805 412.679 200.205 414.87 201.793 417.522C203.736 420.762 205.449 426.852 205.888 429.4C205.669 429.526 205.449 429.651 205.24 429.777C204.729 428.068 203.674 425.06 201.908 421.873C199.495 417.543 196.027 413.287 195.274 412.417C196.079 411.935 197.144 411.232 198.095 410.708Z" fill="url(#paint23_linear)"/>
<path d="M198.23 410.508C198.94 412.479 200.34 414.67 201.928 417.322C203.871 420.562 205.584 426.652 206.023 429.2C205.804 429.326 205.584 429.452 205.375 429.577C204.863 427.869 203.808 424.86 202.043 421.673C199.63 417.343 196.161 413.087 195.409 412.217C196.224 411.735 197.29 411.032 198.23 410.508Z" fill="url(#paint24_linear)"/>
<path d="M209.472 417.742C209.91 411.735 207.957 408.118 207.309 406.546C208.479 406.336 209.597 406.284 210.642 406.42C211.31 408.024 212.658 412.071 211.958 417.103C211.415 420.992 210.286 424.776 209.451 427.209C209.085 427.418 208.719 427.628 208.343 427.848C208.949 425.405 209.231 421.034 209.472 417.742Z" fill="url(#paint25_linear)"/>
<path d="M193.614 413.895C195.369 414.293 197.552 416.107 197.908 419.472C198.242 422.596 198.075 430.081 198.075 430.081C198.075 430.081 199.245 420.227 198.022 417.144C196.706 413.832 194.345 413.454 194.345 413.454L193.614 413.895Z" fill="#45108A"/>
<path d="M203.945 416.599L205.397 412.028L207.852 415.614L208.061 415.037L205.408 411.745L203.621 416.463L203.945 416.599Z" fill="url(#paint26_radial)"/>
<path d="M211.591 395.265C212.166 397.75 212.051 405.193 210.191 406.786C208.718 408.044 207.392 407.216 207.298 409.04C207.204 410.864 207.977 411.043 206.859 411.839C205.793 412.605 199.64 412.049 199.787 410.089C199.922 408.254 200.34 407.594 199.484 405.885C198.638 404.176 196.172 401.44 196.538 398.997C196.893 396.576 209.554 386.459 211.591 395.265Z" fill="url(#paint27_radial)"/>
<path d="M212.564 394.94C213.536 394.563 213.672 391.868 208.72 388.545C204.907 385.987 197.438 386.501 195.223 391.638C192.925 396.974 195.014 399.92 196.769 403.778C197.824 406.105 199.704 406.44 199.704 406.44C199.704 406.44 198.921 404.071 198.242 403.211C197.249 401.953 196.539 400.287 197.302 399.322C197.73 398.787 198.399 398.494 199.318 399.427C200.854 400.968 202.473 395.915 206.348 395.118C209.608 394.437 211.582 395.317 212.564 394.94Z" fill="url(#paint28_linear)"/>
<path opacity="0.8" d="M206.233 408.128C206.682 408.139 207.131 408.128 207.81 407.919C207.507 408.107 207.319 408.411 207.288 409.04C207.194 410.864 207.967 411.043 206.849 411.839C206.463 412.112 205.408 412.269 204.227 412.269C202.503 410.518 202.639 407.625 202.639 407.625C202.639 407.625 204.875 408.086 206.233 408.128Z" fill="url(#paint29_linear)"/>
<path opacity="0.6" d="M211.32 395.454C211.32 395.454 211.853 400.633 211.09 402.719C210.338 404.805 205.93 399.962 205.439 397.991C204.948 396.02 206.797 394.238 211.32 395.454Z" fill="url(#paint30_linear)"/>
<path opacity="0.8" d="M198.565 401.786C198.565 401.786 197.238 400.392 197.719 399.69C198.199 398.977 199.024 400.057 199.024 400.057L198.565 401.786Z" fill="url(#paint31_linear)"/>
<path opacity="0.5" d="M205.804 394.438C207.82 393.966 211.622 394.668 213.074 393.966C213.022 394.49 212.824 394.846 212.563 394.941C211.581 395.318 209.606 394.438 206.336 395.109C203.474 395.696 201.844 398.61 200.57 399.47C200.841 398.893 203.714 394.941 205.804 394.438Z" fill="url(#paint32_linear)"/>
<defs>
<linearGradient id="paint0_linear" x1="186.964" y1="219.705" x2="717.065" y2="219.705" gradientUnits="userSpaceOnUse">
<stop stop-color="white"/>
<stop offset="1" stop-color="white" stop-opacity="0"/>
</linearGradient>
<linearGradient id="paint1_linear" x1="222.005" y1="6.32647" x2="222.005" y2="213.507" gradientUnits="userSpaceOnUse">
<stop stop-color="#6B2CFF"/>
<stop offset="1" stop-color="#2B1C87"/>
</linearGradient>
<linearGradient id="paint2_linear" x1="110.016" y1="315.924" x2="712.564" y2="315.924" gradientUnits="userSpaceOnUse">
<stop stop-color="white"/>
<stop offset="1" stop-color="white" stop-opacity="0"/>
</linearGradient>
<linearGradient id="paint3_linear" x1="145.065" y1="102.541" x2="145.065" y2="309.721" gradientUnits="userSpaceOnUse">
<stop stop-color="#FF0054"/>
<stop offset="1" stop-color="#FF0054"/>
</linearGradient>
<linearGradient id="paint4_linear" x1="36.7729" y1="409.127" x2="708.279" y2="409.127" gradientUnits="userSpaceOnUse">
<stop stop-color="white"/>
<stop offset="1" stop-color="white" stop-opacity="0"/>
</linearGradient>
<linearGradient id="paint5_linear" x1="71.8225" y1="195.728" x2="71.8225" y2="402.908" gradientUnits="userSpaceOnUse">
<stop stop-color="#FFE278"/>
<stop offset="0.642" stop-color="#FBB632"/>
<stop offset="1" stop-color="#F89C09"/>
</linearGradient>
<linearGradient id="paint6_linear" x1="308.185" y1="222.792" x2="341.382" y2="222.792" gradientUnits="userSpaceOnUse">
<stop stop-color="#4502C6"/>
<stop offset="1" stop-color="#8F54FF"/>
</linearGradient>
<linearGradient id="paint7_linear" x1="303.231" y1="204.382" x2="344.192" y2="204.382" gradientUnits="userSpaceOnUse">
<stop stop-color="#4502C6"/>
<stop offset="1" stop-color="#8F54FF"/>
</linearGradient>
<linearGradient id="paint8_linear" x1="257.346" y1="325.113" x2="267.478" y2="325.113" gradientUnits="userSpaceOnUse">
<stop stop-color="#4502C6"/>
<stop offset="1" stop-color="#8F54FF"/>
</linearGradient>
<linearGradient id="paint9_linear" x1="281.203" y1="313.028" x2="291.335" y2="313.028" gradientUnits="userSpaceOnUse">
<stop stop-color="#FF0054"/>
<stop offset="1" stop-color="#FF0054" stop-opacity="0.4482"/>
</linearGradient>
<linearGradient id="paint10_linear" x1="256.429" y1="335.928" x2="292.969" y2="335.928" gradientUnits="userSpaceOnUse">
<stop stop-color="#4502C6"/>
<stop offset="1" stop-color="#8F54FF"/>
</linearGradient>
<linearGradient id="paint11_linear" x1="244.408" y1="305.069" x2="256.121" y2="305.069" gradientUnits="userSpaceOnUse">
<stop stop-color="#6B2CFF"/>
<stop offset="1" stop-color="#2B1C87"/>
</linearGradient>
<linearGradient id="paint12_linear" x1="233.013" y1="305.069" x2="244.725" y2="305.069" gradientUnits="userSpaceOnUse">
<stop stop-color="#6B2CFF"/>
<stop offset="1" stop-color="#2B1C87"/>
</linearGradient>
<linearGradient id="paint13_linear" x1="235.678" y1="297.779" x2="250.985" y2="297.779" gradientUnits="userSpaceOnUse">
<stop stop-color="#6B2CFF"/>
<stop offset="1" stop-color="#2B1C87"/>
</linearGradient>
<linearGradient id="paint14_linear" x1="250.595" y1="299.812" x2="254.997" y2="299.812" gradientUnits="userSpaceOnUse">
<stop stop-color="#6B2CFF"/>
<stop offset="1" stop-color="#2B1C87"/>
</linearGradient>
<linearGradient id="paint15_linear" x1="205.338" y1="428.595" x2="206.515" y2="411.832" gradientUnits="userSpaceOnUse">
<stop stop-color="#6B2CFF"/>
<stop offset="1" stop-color="#2B1C87"/>
</linearGradient>
<linearGradient id="paint16_linear" x1="211.841" y1="417.234" x2="206.999" y2="417.234" gradientUnits="userSpaceOnUse">
<stop stop-color="white"/>
<stop offset="1" stop-color="#BCBEC0"/>
</linearGradient>
<radialGradient id="paint17_radial" cx="0" cy="0" r="1" gradientUnits="userSpaceOnUse" gradientTransform="translate(205.586 413.365) rotate(180) scale(13.9189 13.9678)">
<stop stop-color="#45108A"/>
<stop offset="1" stop-color="#25054D"/>
</radialGradient>
<radialGradient id="paint18_radial" cx="0" cy="0" r="1" gradientUnits="userSpaceOnUse" gradientTransform="translate(199.319 416.94) rotate(180) scale(16.3607 16.4182)">
<stop stop-color="#45108A"/>
<stop offset="1" stop-color="#25054D"/>
</radialGradient>
<linearGradient id="paint19_linear" x1="211.711" y1="431.946" x2="211.711" y2="411.941" gradientUnits="userSpaceOnUse">
<stop stop-color="#4502C6"/>
<stop offset="1" stop-color="#8F54FF"/>
</linearGradient>
<linearGradient id="paint20_linear" x1="214.678" y1="421.881" x2="214.393" y2="407.521" gradientUnits="userSpaceOnUse">
<stop stop-color="white"/>
<stop offset="1" stop-color="#BCBEC0"/>
</linearGradient>
<linearGradient id="paint21_linear" x1="198.015" y1="431.945" x2="198.015" y2="411.941" gradientUnits="userSpaceOnUse">
<stop stop-color="#4502C6"/>
<stop offset="1" stop-color="#8F54FF"/>
</linearGradient>
<radialGradient id="paint22_radial" cx="0" cy="0" r="1" gradientUnits="userSpaceOnUse" gradientTransform="translate(204.643 408.656) rotate(180) scale(36.1152 36.2422)">
<stop offset="0.3788" stop-color="white"/>
<stop offset="0.4675" stop-color="#F4F2F9"/>
<stop offset="0.6315" stop-color="#D8D0E8"/>
<stop offset="0.8509" stop-color="#AA99CC"/>
<stop offset="1" stop-color="#8770B8"/>
</radialGradient>
<linearGradient id="paint23_linear" x1="205.886" y1="420.242" x2="195.264" y2="420.242" gradientUnits="userSpaceOnUse">
<stop stop-color="white"/>
<stop offset="1" stop-color="#BCBEC0"/>
</linearGradient>
<linearGradient id="paint24_linear" x1="206.026" y1="420.042" x2="195.405" y2="420.042" gradientUnits="userSpaceOnUse">
<stop stop-color="#6B2CFF"/>
<stop offset="1" stop-color="#2B1C87"/>
</linearGradient>
<linearGradient id="paint25_linear" x1="212.153" y1="417.093" x2="207.311" y2="417.093" gradientUnits="userSpaceOnUse">
<stop stop-color="#6B2CFF"/>
<stop offset="1" stop-color="#2B1C87"/>
</linearGradient>
<radialGradient id="paint26_radial" cx="0" cy="0" r="1" gradientUnits="userSpaceOnUse" gradientTransform="translate(205.638 412.758) rotate(180) scale(3.34939 3.36118)">
<stop stop-color="white"/>
<stop offset="1"/>
</radialGradient>
<radialGradient id="paint27_radial" cx="0" cy="0" r="1" gradientUnits="userSpaceOnUse" gradientTransform="translate(206.356 399.783) rotate(180) scale(9.97401 10.0091)">
<stop offset="0.0303" stop-color="#FEDFCB"/>
<stop offset="1" stop-color="#F9B69E"/>
</radialGradient>
<linearGradient id="paint28_linear" x1="201.421" y1="407.456" x2="205.64" y2="383.48" gradientUnits="userSpaceOnUse">
<stop stop-color="#6B2CFF"/>
<stop offset="1" stop-color="#2B1C87"/>
</linearGradient>
<linearGradient id="paint29_linear" x1="203.73" y1="410.767" x2="207.541" y2="407.019" gradientUnits="userSpaceOnUse">
<stop stop-color="white" stop-opacity="0"/>
<stop offset="1" stop-color="#DBAC9B"/>
</linearGradient>
<linearGradient id="paint30_linear" x1="211.44" y1="396.619" x2="207.323" y2="400.506" gradientUnits="userSpaceOnUse">
<stop stop-color="white"/>
<stop offset="1" stop-color="white" stop-opacity="0"/>
</linearGradient>
<linearGradient id="paint31_linear" x1="197.912" y1="401.03" x2="199.505" y2="400.182" gradientUnits="userSpaceOnUse">
<stop stop-color="white" stop-opacity="0"/>
<stop offset="1" stop-color="#DBAC9B"/>
</linearGradient>
<linearGradient id="paint32_linear" x1="206.126" y1="400.719" x2="207.735" y2="391.574" gradientUnits="userSpaceOnUse">
<stop stop-color="white"/>
<stop offset="1" stop-color="#BCBEC0"/>
</linearGradient>
</defs>
</svg>
