<svg width="580" height="530" viewBox="0 0 580 530" fill="none" xmlns="http://www.w3.org/2000/svg">
<g opacity="0.15">
<path opacity="0.0909" d="M264.905 322.195L349.281 289.738C354.043 287 360.017 285.524 366.023 285.573C368.612 285.607 371.051 285.939 373.324 286.503C375.481 287.034 377.987 288.079 379.729 289.091L442.136 325.646C442.202 325.679 443.945 326.708 443.994 326.758C448.939 329.711 451.179 334.341 450.914 339.335C450.632 344.429 446.782 350.22 441.257 353.423L389.353 403.401C384.691 406.089 378.85 407.566 372.943 407.583C367.799 407.583 363.12 406.471 359.419 404.347L263.279 347.947C258.433 345.143 255.679 340.746 255.712 335.867C255.729 330.541 259.064 325.563 264.905 322.195Z" fill="#9FA5D0"/>
<path opacity="0.1818" d="M265.27 322.26L349.646 289.804C354.375 287.066 360.382 285.639 366.305 285.756C368.877 285.805 371.3 286.22 373.54 286.801C375.465 287.315 378.285 288.56 379.862 289.456L441.92 325.811C442.036 325.878 443.679 326.857 443.762 326.923C448.591 329.927 450.2 334.523 449.653 339.434C449.138 343.998 444.89 350.369 439.912 353.24L388.971 402.77C384.425 405.392 378.717 406.836 372.959 406.852C367.948 406.869 363.368 405.79 359.768 403.716L263.627 346.735C258.981 344.047 256.376 339.866 256.426 335.236C256.492 330.209 259.678 325.48 265.27 322.26Z" fill="#8F95BB"/>
<path opacity="0.2727" d="M265.637 322.327L350.013 289.871C354.726 287.15 360.749 285.756 366.606 285.938C369.162 286.021 371.568 286.486 373.775 287.1C375.484 287.564 378.62 289.025 380.03 289.838L441.74 325.994C441.923 326.094 443.433 327.006 443.565 327.122C448.294 330.176 449.257 334.689 448.444 339.551C447.763 343.583 443.051 350.519 438.621 353.074L388.625 402.14C384.195 404.695 378.62 406.106 373.028 406.122C368.15 406.139 363.669 405.094 360.168 403.086L264.028 345.541C259.581 342.969 257.125 339.003 257.191 334.639C257.241 329.893 260.294 325.413 265.637 322.327Z" fill="#7F84A7"/>
<path opacity="0.3636" d="M265.999 322.394L350.375 289.938C355.071 287.233 361.094 285.889 366.885 286.121C369.441 286.238 371.813 286.769 373.971 287.399C375.464 287.831 378.915 289.49 380.143 290.203L441.521 326.161C441.754 326.293 443.147 327.14 443.33 327.289C447.959 330.392 449.353 335.138 447.179 339.651C447.179 343.235 441.14 350.652 437.273 352.892L388.241 401.51C383.91 404.016 378.484 405.36 373.041 405.393C368.296 405.41 363.915 404.414 360.514 402.456L264.373 344.347C260.125 341.891 257.819 338.124 257.902 334.026C258.001 329.562 260.905 325.331 265.999 322.394Z" fill="#6F7492"/>
<path opacity="0.4545" d="M266.365 322.459L350.741 290.003C355.42 287.298 361.46 286.004 367.168 286.303C369.707 286.452 372.063 287.033 374.187 287.697C375.465 288.078 379.231 289.97 380.277 290.567L441.306 326.326C441.605 326.491 442.866 327.271 443.098 327.47C447.612 330.607 448.64 335.402 445.936 339.766C445.936 342.836 439.265 350.8 435.947 352.725L387.876 400.895C383.662 403.334 378.352 404.645 373.092 404.678C368.479 404.712 364.198 403.733 360.896 401.841L264.755 343.151C260.707 340.811 258.549 337.26 258.666 333.411C258.765 329.229 261.52 325.264 266.365 322.459Z" fill="#5F637D"/>
<path opacity="0.5455" d="M266.732 322.525L351.108 290.069C355.754 287.381 361.827 286.137 367.469 286.485C369.991 286.651 372.314 287.315 374.421 287.978C375.483 288.31 379.565 290.418 380.445 290.932L441.142 326.491C441.491 326.69 442.652 327.404 442.918 327.636C447.332 330.822 447.962 335.651 444.727 339.849C444.727 342.404 437.409 350.933 434.655 352.526L387.53 400.231C383.432 402.604 378.255 403.882 373.144 403.915C368.664 403.948 364.482 403.019 361.28 401.16L265.139 341.906C261.289 339.683 259.265 336.347 259.414 332.747C259.531 328.897 262.136 325.18 266.732 322.525Z" fill="#505368"/>
<path opacity="0.6364" d="M267.096 322.592L351.472 290.136C356.102 287.465 362.191 286.253 367.75 286.668C370.272 286.867 372.562 287.581 374.636 288.278C375.482 288.56 379.879 290.899 380.576 291.298L440.926 326.658C441.34 326.89 442.369 327.554 442.685 327.819C446.982 331.055 447.248 335.917 443.464 339.965C443.464 342.006 435.516 351.083 433.309 352.36L387.147 399.618C383.148 401.924 378.121 403.168 373.159 403.202C368.812 403.235 364.73 402.355 361.61 400.547L265.47 340.729C261.819 338.621 259.944 335.502 260.11 332.15C260.293 328.582 262.732 325.114 267.096 322.592Z" fill="#404253"/>
<path opacity="0.7273" d="M267.461 322.658L351.837 290.202C356.45 287.547 362.54 286.369 368.049 286.85C370.554 287.083 372.811 287.863 374.868 288.576C375.499 288.792 380.211 291.364 380.742 291.662L440.743 326.823C441.208 327.089 442.12 327.686 442.485 327.985C446.683 331.27 446.567 336.165 442.253 340.048C442.253 341.574 433.658 351.199 432.015 352.161L386.799 398.954C382.916 401.194 378.021 402.388 373.226 402.438C369.011 402.488 365.029 401.625 362.009 399.883L265.868 339.5C262.4 337.509 260.691 334.605 260.89 331.502C261.056 328.25 263.346 325.031 267.461 322.658Z" fill="#30323E"/>
<path opacity="0.8182" d="M267.827 322.725L352.203 290.269C356.799 287.614 362.906 286.502 368.332 287.033C370.837 287.282 373.044 288.129 375.085 288.875C375.5 289.025 380.528 291.829 380.876 292.045L440.545 327.006C441.076 327.305 441.872 327.836 442.254 328.184C446.336 331.503 445.855 336.431 440.993 340.181C440.993 341.21 431.767 351.365 430.656 352.012L386.402 398.357C382.635 400.53 377.856 401.692 373.227 401.742C369.128 401.792 365.262 400.978 362.342 399.286L266.201 338.323C262.932 336.448 261.372 333.743 261.588 330.906C261.82 327.919 263.961 324.965 267.827 322.725Z" fill="#20212A"/>
<path opacity="0.9091" d="M268.209 322.791L352.585 290.335C357.164 287.696 363.287 286.618 368.63 287.215C371.119 287.497 373.31 288.393 375.317 289.156C375.516 289.239 380.859 292.293 381.042 292.392L440.362 327.138C440.943 327.47 441.624 327.935 442.055 328.316C446.037 331.685 445.174 336.646 439.782 340.23C439.782 340.744 429.925 351.464 429.361 351.779L386.053 397.659C382.403 399.766 377.757 400.895 373.293 400.944C369.327 400.994 365.561 400.214 362.74 398.588L266.599 337.061C263.529 335.285 262.119 332.813 262.351 330.224C262.567 327.586 264.575 324.881 268.209 322.791Z" fill="#101115"/>
<path opacity="0.15" d="M363.088 397.992L266.947 335.9C261.156 332.565 261.886 326.724 268.574 322.858L352.95 290.402C359.637 286.536 369.742 286.121 375.533 289.473L440.147 327.338C445.938 330.673 445.207 336.514 438.52 340.38L385.671 397.079C379.001 400.912 368.879 401.344 363.088 397.992Z" fill="black"/>
</g>
<path d="M363.086 397.859L266.946 342.023C264.357 340.53 263.08 338.555 263.03 336.464C263.03 336.398 263.03 323.007 263.03 322.941C263.08 320.402 264.955 324.799 268.555 322.725L352.931 290.269C359.618 286.403 369.724 285.988 375.515 289.34L440.128 327.205C442.053 328.317 443.464 323.588 443.961 325.098C444.127 325.596 444.028 338.505 444.028 339.02C444.077 341.608 442.202 344.363 438.502 346.503L385.653 396.946C378.999 400.779 368.877 401.211 363.086 397.859Z" fill="url(#paint0_linear)"/>
<path d="M363.088 384.485L266.947 328.649C261.156 325.314 261.886 319.473 268.574 315.607L352.95 283.151C359.637 279.285 369.742 278.87 375.533 282.222L440.147 320.087C445.938 323.422 445.207 329.263 438.52 333.129L385.671 383.573C379.001 387.406 368.879 387.82 363.088 384.485Z" fill="url(#paint1_linear)"/>
<path d="M440.146 320.053L375.532 282.188C369.741 278.853 359.636 279.267 352.949 283.117L310.437 299.461C310.835 299.777 311.267 300.092 311.764 300.374L407.905 356.21C409.233 356.973 410.809 357.537 412.501 357.919L438.536 333.079C445.223 329.246 445.937 323.405 440.146 320.053Z" fill="url(#paint2_linear)"/>
<path d="M438.538 331.885L385.689 382.328C379.002 386.195 368.896 386.609 363.105 383.258L266.965 327.422C264.559 326.028 263.298 324.219 263.098 322.294C262.8 324.667 264.061 326.957 266.965 328.633L363.105 384.9C368.896 388.236 379.002 387.821 385.689 383.971L438.538 333.097C442.454 330.84 444.312 327.903 444.03 325.182C443.715 327.554 441.873 329.96 438.538 331.885Z" fill="white"/>
<path d="M510.568 187.675V368.275C510.568 384.37 500.778 391.77 488.699 384.801L287.872 268.749L267.462 256.951L252.578 248.339C240.498 241.37 230.725 222.67 230.725 206.591V25.9913C230.725 9.87941 240.498 2.49546 252.578 9.46458L488.699 145.893C500.778 152.879 510.568 171.58 510.568 187.675Z" fill="url(#paint3_linear)"/>
<path d="M491.517 372.223L258.715 237.719C249.008 231.547 242.985 219.201 242.985 206.591V24.7962C242.985 21.8095 246.237 19.951 248.826 21.461C249.124 21.6435 249.357 21.7763 249.506 21.8593L482.557 156.529C494.122 163.2 498.287 175.047 498.287 187.658V368.855C498.287 372.057 494.819 374.082 492.031 372.489C491.816 372.389 491.633 372.29 491.517 372.223Z" fill="url(#paint4_linear)"/>
<path d="M482.559 156.529L249.691 21.3285C249.542 21.2455 249.31 21.1128 249.011 20.9302C246.423 19.4203 243.004 21.8097 243.004 24.813V206.591C243.004 219.218 249.011 231.547 258.735 237.72L491.536 372.224C491.653 372.29 491.835 372.389 492.051 372.522C494.838 374.115 498.306 372.107 498.306 368.888V187.675C498.29 175.047 494.125 163.2 482.559 156.529ZM495.834 368.872C495.834 369.934 494.938 370.597 494.092 370.597C493.793 370.597 493.511 370.514 493.245 370.365L259.946 235.579C251.168 230.004 245.444 218.588 245.444 206.574V24.7964C245.444 23.917 246.19 23.3694 246.871 23.3694C247.119 23.3694 247.352 23.4358 247.584 23.5686L481.332 158.637C493.312 165.539 495.834 178.233 495.834 187.641V368.872Z" fill="#AFB6E5"/>
<path d="M498.769 140.069L262.632 3.62316C257.853 0.868695 253.439 0.354308 249.839 1.74813C249.374 1.93066 239.418 7.70507 238.987 7.95396C238.987 7.95396 238.97 7.97056 238.954 7.97056C242.687 6.1619 247.416 6.49377 252.56 9.46394L488.697 145.909C500.777 152.878 510.55 171.579 510.55 187.674V368.274C510.55 378.313 506.734 384.983 500.943 386.875C501.407 386.908 502.005 386.709 502.851 386.228C503.133 386.062 513.603 379.79 513.869 379.607C518.017 376.703 520.605 370.73 520.605 362.45V181.833C520.622 165.738 510.832 147.038 498.769 140.069Z" fill="url(#paint5_linear)"/>
<path d="M494.903 142.624L258.766 6.17833C253.987 3.42387 249.573 2.90948 245.973 4.30331C245.508 4.48583 239.418 7.72149 238.987 7.9538C238.987 7.9538 238.97 7.97039 238.954 7.97039C242.687 6.16174 247.416 6.4936 252.56 9.46377L488.697 145.909C500.777 152.878 510.55 171.579 510.55 187.674V368.274C510.55 378.313 506.734 384.983 500.943 386.875C501.407 386.908 502.005 386.709 502.851 386.228C503.133 386.062 509.737 382.328 510.002 382.146C514.151 379.242 516.739 373.268 516.739 364.988V184.389C516.756 168.277 506.966 149.593 494.903 142.624Z" fill="url(#paint6_linear)"/>
<path d="M489.759 145.378L253.622 8.94901C248.677 6.095 244.114 5.68017 240.464 7.27311C243.583 6.77531 247.184 7.5386 251.001 9.74548L487.137 146.191C499.217 153.16 508.991 171.86 508.991 187.956V368.539C508.991 378.03 505.572 384.468 500.296 386.742C507.033 385.68 511.612 378.744 511.612 367.742V187.143C511.612 171.047 501.822 152.347 489.759 145.378Z" fill="white"/>
<path d="M271.179 41.6709H270.001V238.731H271.179V41.6709Z" fill="#3C0862"/>
<path d="M299.787 58.0986H298.608V255.159H299.787V58.0986Z" fill="#3C0862"/>
<path d="M328.393 74.5088H327.215V271.569H328.393V74.5088Z" fill="#3C0862"/>
<path d="M357.017 90.9365H355.838V287.997H357.017V90.9365Z" fill="#3C0862"/>
<path d="M385.623 107.347H384.445V304.407H385.623V107.347Z" fill="#3C0862"/>
<path d="M414.23 123.774H413.052V320.834H414.23V123.774Z" fill="#3C0862"/>
<path d="M442.853 140.185H441.675V337.245H442.853V140.185Z" fill="#3C0862"/>
<path d="M471.457 156.611H470.279V353.671H471.457V156.611Z" fill="#3C0862"/>
<path d="M249.923 52.1361L249.334 53.1562L491.507 193.023L492.096 192.003L249.923 52.1361Z" fill="#3C0862"/>
<path d="M249.917 73.9584L249.328 74.9785L491.501 214.845L492.09 213.825L249.917 73.9584Z" fill="#3C0862"/>
<path d="M249.924 95.7904L249.334 96.8105L491.507 236.677L492.096 235.657L249.924 95.7904Z" fill="#3C0862"/>
<path d="M249.914 117.615L249.325 118.635L491.497 258.501L492.086 257.481L249.914 117.615Z" fill="#3C0862"/>
<path d="M249.921 139.446L249.332 140.466L491.504 280.333L492.093 279.313L249.921 139.446Z" fill="#3C0862"/>
<path d="M249.911 161.27L249.322 162.291L491.494 302.157L492.084 301.137L249.911 161.27Z" fill="#3C0862"/>
<path d="M249.917 183.102L249.328 184.123L491.501 323.989L492.09 322.969L249.917 183.102Z" fill="#3C0862"/>
<path d="M249.909 204.928L249.319 205.948L491.492 345.814L492.081 344.794L249.909 204.928Z" fill="#3C0862"/>
<g opacity="0.28">
<path opacity="0.28" d="M510.566 230.684V274.606L447.263 327.107L341.316 230.468L287.869 268.748L267.46 256.951L342.345 203.222L447.678 299.296L510.533 247.177L510.118 246.746L498.005 234.616L510.566 230.684Z" fill="black"/>
</g>
<g opacity="0.2">
<path opacity="0.0476" d="M195.266 287.582C193.557 288.561 192.461 290.203 192.461 291.929C192.461 293.821 193.507 295.679 195.548 296.857C195.448 296.907 211.228 306.647 211.344 306.714L222.81 313.699C222.827 313.716 226.179 315.757 226.212 315.773C227.855 316.719 229.896 317.234 231.97 317.234C233.778 317.234 235.421 316.852 236.715 316.105C236.782 316.105 245.659 309.7 245.692 309.684C247.401 308.705 248.496 307.062 248.496 305.336C248.496 303.445 247.451 301.586 245.41 300.408C245.51 300.358 229.896 290.718 229.779 290.651L218.38 283.699C218.363 283.682 215.144 281.724 215.128 281.708C213.485 280.762 211.444 280.248 209.37 280.248C207.561 280.248 205.918 280.629 204.624 281.376C204.558 281.376 195.299 287.549 195.266 287.582Z" fill="#ABB2E2"/>
<path opacity="0.0952" d="M195.716 287.431C194.09 288.36 192.928 290.003 192.928 291.646C192.928 293.454 193.774 295.296 195.716 296.424C195.533 296.541 210.534 305.883 210.749 305.999L221.833 312.719C221.867 312.736 225.086 314.694 225.119 314.71C226.712 315.606 228.67 316.121 230.678 316.121C232.42 316.121 233.996 315.756 235.257 315.059C235.373 315.059 243.869 308.969 243.952 308.919C245.578 307.99 246.74 306.347 246.74 304.704C246.74 302.896 245.894 301.054 243.952 299.926C244.135 299.809 229.3 290.567 229.085 290.434L218.067 283.747C218.034 283.731 214.947 281.856 214.914 281.839C213.321 280.943 211.363 280.429 209.355 280.429C207.613 280.429 206.037 280.794 204.776 281.491C204.643 281.491 195.799 287.381 195.716 287.431Z" fill="#A7ADDF"/>
<path opacity="0.1429" d="M196.163 287.299C194.637 288.179 193.375 289.822 193.375 291.381C193.375 293.09 194.023 294.949 195.864 296.011C195.582 296.177 209.803 305.137 210.135 305.32L220.821 311.791C220.87 311.824 223.94 313.682 223.99 313.699C225.516 314.562 227.425 315.043 229.349 315.06C231.025 315.076 232.552 314.728 233.78 314.064C233.962 314.064 242.06 308.273 242.192 308.207C243.719 307.327 244.98 305.685 244.98 304.125C244.98 302.416 244.333 300.557 242.491 299.495C242.773 299.329 228.702 290.452 228.37 290.27L217.734 283.831C217.684 283.798 214.747 282.023 214.698 281.99C213.171 281.127 211.263 280.646 209.338 280.629C207.662 280.612 206.136 280.961 204.908 281.625C204.742 281.625 196.296 287.216 196.163 287.299Z" fill="#A3A9DC"/>
<path opacity="0.1905" d="M196.61 287.149C195.166 287.979 193.839 289.622 193.839 291.098C193.839 292.708 194.287 294.566 196.029 295.579C195.648 295.794 209.105 304.373 209.536 304.622L219.84 310.828C219.907 310.861 222.827 312.636 222.893 312.669C224.37 313.499 226.195 313.964 228.054 313.98C229.663 313.997 231.14 313.665 232.318 313.051C232.551 313.051 240.283 307.575 240.449 307.476C241.893 306.646 243.22 305.003 243.22 303.527C243.22 301.917 242.772 300.059 241.03 299.063C241.411 298.847 228.104 290.352 227.656 290.103L217.401 283.93C217.335 283.897 214.547 282.188 214.464 282.171C212.987 281.342 211.162 280.877 209.304 280.86C207.694 280.844 206.217 281.176 205.039 281.79C204.824 281.756 196.792 287.05 196.61 287.149Z" fill="#9FA4D8"/>
<path opacity="0.2381" d="M197.076 287.018C195.716 287.798 194.322 289.44 194.322 290.834C194.322 292.344 194.571 294.202 196.213 295.148C195.732 295.43 208.409 303.611 208.957 303.926L218.88 309.883C218.963 309.933 221.734 311.609 221.817 311.642C223.244 312.438 225.002 312.886 226.778 312.903C228.321 312.92 229.732 312.621 230.876 312.024C231.175 312.024 238.509 306.846 238.725 306.73C240.086 305.95 241.479 304.308 241.479 302.914C241.479 301.404 241.231 299.545 239.588 298.6C240.069 298.318 227.525 290.22 226.977 289.905L217.104 283.981C217.021 283.931 214.366 282.322 214.283 282.289C212.856 281.492 211.097 281.044 209.322 281.028C207.779 281.011 206.368 281.31 205.223 281.907C204.925 281.89 197.275 286.885 197.076 287.018Z" fill="#9BA0D5"/>
<path opacity="0.2857" d="M197.524 286.868C196.246 287.598 194.769 289.241 194.769 290.535C194.769 291.962 194.835 293.804 196.362 294.7C195.798 295.032 207.695 302.831 208.342 303.212L217.883 308.904C217.983 308.97 220.605 310.546 220.721 310.58C222.098 311.343 223.774 311.774 225.5 311.791C226.976 311.807 228.337 311.525 229.449 310.978C229.797 310.978 236.75 306.116 237.015 305.967C238.293 305.237 239.77 303.594 239.77 302.3C239.77 300.873 239.703 299.031 238.177 298.135C238.741 297.803 226.976 290.07 226.313 289.689L216.821 284.014C216.722 283.964 214.216 282.438 214.1 282.404C212.723 281.641 211.047 281.21 209.321 281.193C207.844 281.176 206.484 281.459 205.372 282.006C205.007 282.023 197.772 286.719 197.524 286.868Z" fill="#979BD2"/>
<path opacity="0.3333" d="M197.97 286.735C196.775 287.415 195.232 289.058 195.232 290.269C195.232 291.597 195.1 293.455 196.527 294.285C195.863 294.666 206.98 302.084 207.743 302.532L216.903 307.974C217.019 308.041 219.491 309.534 219.624 309.584C220.952 310.314 222.561 310.712 224.204 310.745C225.614 310.778 226.925 310.513 227.987 309.999C228.402 309.999 234.973 305.435 235.272 305.269C236.466 304.589 238.009 302.946 238.009 301.735C238.009 300.408 238.142 298.549 236.715 297.72C237.379 297.338 226.378 289.987 225.614 289.539L216.505 284.13C216.389 284.063 214.032 282.636 213.9 282.587C212.589 281.857 210.963 281.458 209.32 281.425C207.909 281.392 206.599 281.657 205.537 282.172C205.105 282.155 198.269 286.552 197.97 286.735Z" fill="#9397CF"/>
<path opacity="0.381" d="M198.418 286.585C197.307 287.232 195.697 288.858 195.697 289.987C195.697 291.215 195.365 293.073 196.693 293.836C195.929 294.268 206.283 301.303 207.163 301.818L215.924 306.995C216.057 307.078 218.38 308.471 218.529 308.521C219.79 309.201 221.333 309.6 222.91 309.633C224.254 309.666 225.515 309.417 226.527 308.936C227.008 308.936 233.181 304.688 233.529 304.489C234.641 303.842 236.251 302.216 236.251 301.087C236.251 299.86 236.583 298.001 235.255 297.238C236.018 296.806 225.78 289.837 224.901 289.323L216.173 284.162C216.04 284.096 213.817 282.752 213.667 282.702C212.406 282.022 210.863 281.624 209.287 281.591C207.943 281.557 206.682 281.79 205.67 282.271C205.188 282.287 198.767 286.386 198.418 286.585Z" fill="#8F92CC"/>
<path opacity="0.4286" d="M198.868 286.453C197.839 287.05 196.163 288.693 196.163 289.721C196.163 290.866 195.632 292.708 196.86 293.422C195.997 293.92 205.571 300.557 206.567 301.138L214.946 306.066C215.096 306.149 217.269 307.46 217.435 307.509C218.647 308.156 220.124 308.538 221.617 308.571C222.911 308.604 224.089 308.389 225.085 307.941C225.616 307.941 231.423 303.992 231.805 303.776C232.834 303.179 234.526 301.536 234.51 300.507C234.51 299.362 235.041 297.52 233.813 296.807C234.676 296.309 225.201 289.721 224.205 289.157L215.859 284.262C215.71 284.179 213.636 282.935 213.47 282.869C212.258 282.221 210.782 281.84 209.288 281.807C207.994 281.773 206.816 281.989 205.837 282.437C205.289 282.421 199.266 286.22 198.868 286.453Z" fill="#8B8EC9"/>
<path opacity="0.4762" d="M199.316 286.303C198.387 286.85 196.612 288.493 196.612 289.439C196.612 290.484 195.882 292.326 197.01 292.99C196.064 293.537 204.859 299.793 205.954 300.424L213.952 305.086C214.117 305.186 216.142 306.397 216.324 306.464C217.486 307.077 218.88 307.426 220.307 307.476C221.535 307.509 222.663 307.31 223.609 306.912C224.206 306.912 229.615 303.278 230.047 303.029C230.976 302.481 232.752 300.838 232.752 299.893C232.752 298.847 233.482 297.005 232.353 296.342C233.299 295.794 224.604 289.588 223.509 288.958L215.544 284.312C215.379 284.212 213.454 283.067 213.271 282.984C212.11 282.37 210.716 282.005 209.289 281.972C208.061 281.939 206.933 282.121 205.987 282.536C205.389 282.553 199.748 286.071 199.316 286.303Z" fill="#8789C6"/>
<path opacity="0.5238" d="M199.78 286.171C198.934 286.669 197.092 288.312 197.092 289.174C197.092 290.12 196.163 291.979 197.192 292.559C196.146 293.157 204.161 299.031 205.372 299.728L212.988 304.141C213.171 304.241 215.046 305.369 215.245 305.436C216.357 306.016 217.684 306.348 219.028 306.398C220.19 306.431 221.268 306.265 222.164 305.9C222.811 305.9 227.839 302.565 228.304 302.3C229.15 301.802 230.992 300.159 230.992 299.296C230.992 298.35 231.921 296.492 230.892 295.911C231.938 295.314 224.006 289.49 222.795 288.793L215.212 284.396C215.029 284.296 213.237 283.217 213.038 283.151C211.926 282.57 210.599 282.239 209.255 282.189C208.093 282.139 207.015 282.321 206.119 282.687C205.472 282.67 200.245 285.906 199.78 286.171Z" fill="#8385C2"/>
<path opacity="0.5714" d="M200.229 286.021C199.466 286.469 197.557 288.111 197.557 288.891C197.557 289.738 196.446 291.596 197.358 292.127C196.213 292.791 203.465 298.266 204.775 299.03L212.01 303.178C212.209 303.294 213.935 304.306 214.167 304.406C215.212 304.953 216.474 305.269 217.751 305.318C218.846 305.368 219.859 305.202 220.721 304.87C221.435 304.87 226.081 301.851 226.579 301.552C227.342 301.104 229.25 299.461 229.25 298.681C229.25 297.835 230.362 295.977 229.449 295.446C230.594 294.782 223.426 289.339 222.115 288.576L214.914 284.444C214.715 284.328 213.072 283.349 212.856 283.266C211.811 282.719 210.55 282.403 209.272 282.354C208.177 282.304 207.165 282.453 206.302 282.785C205.572 282.802 200.743 285.739 200.229 286.021Z" fill="#7F80BF"/>
<path opacity="0.619" d="M200.677 285.888C199.997 286.287 198.005 287.929 198.005 288.626C198.005 289.39 196.695 291.231 197.508 291.713C196.263 292.426 202.734 297.52 204.161 298.35L210.998 302.249C211.214 302.382 212.79 303.295 213.039 303.394C214.034 303.892 215.229 304.191 216.424 304.257C217.453 304.307 218.415 304.174 219.245 303.875C220.008 303.875 224.272 301.154 224.82 300.839C225.5 300.441 227.491 298.798 227.491 298.101C227.491 297.338 228.802 295.496 227.989 295.015C229.234 294.301 222.829 289.24 221.402 288.411L214.582 284.528C214.366 284.412 212.856 283.516 212.624 283.433C211.628 282.935 210.434 282.62 209.239 282.57C208.21 282.52 207.248 282.653 206.418 282.951C205.655 282.935 201.241 285.573 200.677 285.888Z" fill="#7B7CBC"/>
<path opacity="0.6667" d="M201.123 285.755C200.525 286.104 198.468 287.747 198.468 288.344C198.468 289.008 196.958 290.85 197.671 291.264C196.344 292.028 202.019 296.74 203.562 297.636L210.016 301.27C210.249 301.403 211.676 302.232 211.941 302.332C212.887 302.797 213.999 303.079 215.127 303.145C216.09 303.195 217.002 303.079 217.782 302.83C218.612 302.83 222.495 300.424 223.075 300.075C223.673 299.727 225.73 298.084 225.73 297.487C225.73 296.823 227.24 294.981 226.527 294.566C227.854 293.803 222.229 289.124 220.686 288.228L214.248 284.594C214.015 284.461 212.655 283.665 212.406 283.565C211.46 283.101 210.348 282.818 209.22 282.752C208.258 282.702 207.345 282.802 206.565 283.067C205.752 283.067 201.72 285.407 201.123 285.755Z" fill="#7777B9"/>
<path opacity="0.7143" d="M201.572 285.606C201.058 285.905 198.934 287.547 198.934 288.062C198.934 288.626 197.225 290.484 197.839 290.833C196.412 291.662 201.323 295.993 202.966 296.939L209.039 300.324C209.288 300.473 210.566 301.203 210.848 301.32C211.744 301.751 212.789 302.017 213.835 302.083C214.731 302.133 215.593 302.05 216.324 301.817C217.22 301.817 220.704 299.71 221.335 299.345C221.849 299.046 223.973 297.404 223.973 296.889C223.973 296.325 225.682 294.467 225.068 294.118C226.495 293.289 221.633 288.991 219.991 288.045L213.934 284.677C213.685 284.544 212.474 283.83 212.192 283.731C211.296 283.299 210.25 283.034 209.205 282.968C208.309 282.918 207.446 283.001 206.716 283.217C205.837 283.2 202.219 285.241 201.572 285.606Z" fill="#7373B6"/>
<path opacity="0.7619" d="M202.037 285.474C201.606 285.723 199.399 287.365 199.399 287.797C199.399 288.278 197.491 290.12 198.005 290.418C196.478 291.298 200.61 295.247 202.369 296.259L208.06 299.379C208.326 299.528 209.454 300.175 209.753 300.291C210.599 300.69 211.562 300.938 212.557 301.005C213.387 301.071 214.183 300.988 214.897 300.806C215.843 300.806 218.946 299.014 219.626 298.615C220.057 298.367 222.264 296.724 222.264 296.292C222.264 295.811 224.172 293.969 223.658 293.671C225.185 292.791 221.086 288.875 219.327 287.863L213.652 284.744C213.387 284.594 212.308 283.98 212.026 283.864C211.18 283.466 210.218 283.217 209.239 283.151C208.409 283.084 207.612 283.151 206.899 283.333C205.937 283.333 202.717 285.075 202.037 285.474Z" fill="#6F6EB3"/>
<path opacity="0.8095" d="M202.483 285.324C202.135 285.523 199.861 287.166 199.861 287.515C199.861 287.896 197.771 289.738 198.169 289.987C196.559 290.916 199.911 294.484 201.77 295.562L207.063 298.433C207.345 298.599 208.324 299.146 208.656 299.262C209.436 299.628 210.348 299.843 211.261 299.926C212.024 299.993 212.771 299.943 213.435 299.793C214.447 299.793 217.168 298.3 217.882 297.885C218.23 297.686 220.503 296.043 220.503 295.695C220.503 295.313 222.594 293.471 222.196 293.223C223.805 292.293 220.487 288.759 218.628 287.68L213.335 284.826C213.053 284.661 212.124 284.146 211.808 284.03C211.029 283.665 210.116 283.433 209.203 283.366C208.44 283.3 207.693 283.35 207.03 283.499C206.017 283.466 203.213 284.909 202.483 285.324Z" fill="#6B6AB0"/>
<path opacity="0.8571" d="M202.932 285.191C202.683 285.341 200.327 286.983 200.327 287.249C200.327 287.531 198.037 289.389 198.336 289.555C196.627 290.551 199.198 293.72 201.173 294.848L206.085 297.454C206.383 297.636 207.213 298.084 207.561 298.217C208.291 298.532 209.121 298.748 209.967 298.831C210.664 298.897 211.361 298.864 211.975 298.764C213.037 298.764 215.377 297.586 216.14 297.138C216.389 296.989 218.745 295.346 218.745 295.081C218.745 294.799 221.035 292.957 220.736 292.774C222.445 291.779 219.89 288.626 217.916 287.481L213.004 284.876C212.722 284.71 211.925 284.262 211.594 284.146C210.863 283.814 210.034 283.615 209.188 283.532C208.491 283.466 207.794 283.482 207.18 283.598C206.118 283.598 203.712 284.743 202.932 285.191Z" fill="#6765AC"/>
<path opacity="0.9048" d="M203.381 285.043C203.215 285.142 200.776 286.785 200.776 286.968C200.776 287.15 198.287 289.009 198.486 289.125C196.678 290.17 198.486 292.958 200.577 294.152L205.107 296.509C205.422 296.691 206.103 297.056 206.468 297.189C207.148 297.471 207.911 297.67 208.675 297.753C209.322 297.819 209.936 297.819 210.533 297.737C211.661 297.737 213.619 296.857 214.416 296.392C214.582 296.293 217.021 294.65 217.021 294.468C217.021 294.285 219.51 292.427 219.311 292.311C221.119 291.265 219.327 288.494 217.237 287.283L212.707 284.927C212.408 284.744 211.744 284.396 211.412 284.263C210.732 283.981 209.985 283.782 209.206 283.699C208.575 283.632 207.944 283.632 207.347 283.699C206.202 283.732 204.194 284.578 203.381 285.043Z" fill="#6361A9"/>
<path opacity="0.9524" d="M203.828 284.91C203.745 284.96 201.24 286.603 201.24 286.702C201.24 286.802 198.552 288.644 198.651 288.71C196.743 289.805 197.772 292.211 199.979 293.472L204.127 295.563C204.459 295.762 204.99 296.028 205.371 296.16C206.002 296.409 206.682 296.575 207.379 296.675C207.96 296.741 208.524 296.758 209.072 296.725C210.25 296.708 211.826 296.16 212.672 295.663C212.755 295.613 215.261 293.97 215.261 293.871C215.261 293.771 217.949 291.929 217.849 291.863C219.758 290.768 218.729 288.362 216.538 287.101L212.39 285.01C212.075 284.827 211.561 284.562 211.195 284.429C210.565 284.18 209.885 283.998 209.188 283.915C208.607 283.832 208.043 283.815 207.495 283.865C206.301 283.865 204.691 284.412 203.828 284.91Z" fill="#5F5CA6"/>
<path opacity="0.2" d="M210.949 294.915L216.408 291.414C218.399 290.269 218.15 288.244 215.844 286.917L212.077 285.075C209.77 283.748 206.286 283.598 204.278 284.76L198.819 288.261C196.828 289.406 197.077 291.43 199.383 292.758L203.15 294.6C205.456 295.927 208.941 296.076 210.949 294.915Z" fill="#5B58A3"/>
</g>
<path d="M442.353 307.825L459.244 298.167L537.348 233.404L520.44 243.045L442.353 307.825Z" fill="url(#paint7_linear)"/>
<path d="M210.101 301.768L226.992 292.111L353.333 201.612L336.424 211.252L210.101 301.768Z" fill="url(#paint8_linear)"/>
<path d="M337.453 184.007L354.344 174.35L459.694 270.424L442.802 280.081L337.453 184.007Z" fill="url(#paint9_linear)"/>
<path d="M493.127 215.401L510.019 205.744L576.59 184.853L559.699 194.51L493.127 215.401Z" fill="url(#paint10_linear)"/>
<path d="M532.422 255.357L549.314 245.7L576.593 184.853L559.701 194.51L532.422 255.357Z" fill="url(#paint11_linear)"/>
<path d="M493.128 215.402L505.225 227.531L505.64 227.963L442.801 280.082L337.452 184.007L190.104 289.739L210.099 301.769L336.423 211.253L442.37 307.892L520.474 243.129L520.723 243.378L532.421 255.358L559.7 194.511L493.128 215.402Z" fill="url(#paint12_linear)"/>
<path d="M559.217 195.539L575.628 185.483L558.57 194.859L493.127 215.401L494.355 216.629L559.217 195.539Z" fill="url(#paint13_radial)"/>
<path d="M337.452 185.617L442.801 281.691L505.64 229.572L505.225 229.157L504.76 228.693L442.801 280.082L337.452 184.007L190.104 289.739L191.332 290.469L337.452 185.617Z" fill="url(#paint14_radial)"/>
<path d="M205.236 329.563C183.731 317.151 155.091 310.315 124.576 310.315C94.3437 310.315 66.0358 317.052 44.8629 329.264C24.6027 340.962 13.4355 356.245 13.4355 372.274C13.4355 374.099 13.5849 382.362 13.867 384.154C16.0904 370.117 26.8926 356.942 44.8629 346.571C66.0358 334.342 94.3437 327.622 124.576 327.622C155.091 327.622 183.731 334.458 205.236 346.87C223.521 357.423 234.506 370.797 236.746 385.001C237.028 383.209 237.177 374.945 237.177 373.12C237.177 356.925 225.828 341.444 205.236 329.563Z" fill="url(#paint15_linear)"/>
<path d="M126.038 445.515C93.7147 445.515 63.2165 438.181 40.152 424.874C16.1915 411.018 3 392.351 3 372.273C3 352.362 16.009 333.877 39.6376 320.237C62.3702 307.112 92.52 299.894 124.561 299.894C156.885 299.894 187.383 307.228 210.431 320.536C234.391 334.375 247.599 353.042 247.599 373.12C247.599 393.031 234.59 411.516 210.962 425.156C188.229 438.281 158.079 445.515 126.038 445.515ZM124.561 310.298C94.3286 310.298 66.0207 317.035 44.8479 329.247C24.5877 340.945 13.4205 356.228 13.4205 372.257C13.4205 388.452 24.7702 403.933 45.3623 415.814C66.867 428.225 95.5067 435.062 126.022 435.062C156.254 435.062 184.562 428.325 205.735 416.112C225.995 404.414 237.162 389.132 237.162 373.103C237.162 356.908 225.813 341.427 205.221 329.546C183.732 317.134 155.076 310.298 124.561 310.298Z" fill="url(#paint16_linear)"/>
<path d="M247.55 375.326C246.62 394.408 233.728 412.03 210.962 425.172C188.229 438.297 158.079 445.515 126.038 445.515C93.7147 445.515 63.2165 438.181 40.152 424.873C16.6561 411.317 3.53098 393.097 3.01659 373.468V389.779L3 390.044C3.19912 409.939 16.3741 428.441 40.152 442.163C63.2165 455.471 93.7147 462.805 126.038 462.805C158.079 462.805 188.229 455.571 210.962 442.462C234.01 429.154 246.952 411.234 247.566 391.886L247.533 391.571V375.326H247.55Z" fill="url(#paint17_linear)"/>
<path d="M205.236 328.318C183.731 315.906 155.092 309.07 124.577 309.07C94.3442 309.07 66.0363 315.807 44.8634 328.019C24.5866 339.717 13.4194 355 13.4194 371.029C13.4194 371.311 13.436 371.609 13.436 371.891C13.8343 356.178 24.9517 341.227 44.8468 329.745C66.0197 317.516 94.3276 310.795 124.56 310.795C155.075 310.795 183.715 317.632 205.219 330.044C225.463 341.725 236.746 356.858 237.145 372.738C237.145 372.456 237.161 372.157 237.161 371.875C237.178 355.68 225.828 340.215 205.236 328.318Z" fill="url(#paint18_radial)"/>
<path d="M210.962 423.928C188.229 437.053 158.079 444.271 126.038 444.271C93.7147 444.271 63.2165 436.937 40.152 423.629C16.54 409.99 3.38164 391.655 3.01659 371.892C3.01659 372.174 3 372.473 3 372.755C3 392.833 16.1915 411.516 40.1686 425.339C63.2331 438.646 93.7313 445.98 126.055 445.98C158.096 445.98 188.246 438.746 210.978 425.637C234.607 411.998 247.616 393.513 247.616 373.601C247.616 373.319 247.599 373.02 247.599 372.738C247.218 392.335 234.242 410.488 210.962 423.928Z" fill="url(#paint19_radial)"/>
<path d="M197.82 442.213C197.82 444.27 198.534 445.731 199.679 446.444C199.712 446.461 216.006 455.819 216.056 455.836C217.251 456.516 216.488 454.99 218.313 453.928C221.98 451.804 224.967 446.66 224.967 442.445C224.967 440.354 226.891 440.338 225.713 439.641C225.68 439.624 209.153 430.233 209.12 430.216C207.926 429.569 206.283 429.685 204.474 430.73C200.79 432.854 197.82 437.998 197.82 442.213Z" fill="url(#paint20_linear)"/>
<path d="M214.349 451.655C214.349 455.87 217.335 457.563 221.002 455.455C224.67 453.331 227.656 448.187 227.656 443.973C227.656 439.758 224.67 438.066 221.002 440.173C217.335 442.313 214.349 447.441 214.349 451.655Z" fill="url(#paint21_linear)"/>
<path d="M220.685 440.022C222.443 439.01 224.053 438.86 225.231 439.458C224.119 439.142 222.742 439.375 221.249 440.238C217.582 442.362 214.595 447.505 214.595 451.72C214.595 453.91 215.408 455.42 216.702 456.067C215.076 455.619 214.031 453.993 214.031 451.488C214.031 447.29 217.018 442.146 220.685 440.022Z" fill="url(#paint22_radial)"/>
<path d="M212.057 456.367C212.057 460.068 213.335 462.706 215.409 463.967C215.475 464 323.015 528.647 323.082 528.697C325.239 529.908 323.862 527.154 327.147 525.262C333.768 521.446 339.127 512.187 339.127 504.604C339.127 500.854 342.595 500.82 340.471 499.559C340.405 499.526 232.45 434.813 232.384 434.78C230.227 433.618 227.273 433.834 224.021 435.709C217.417 439.525 212.057 448.784 212.057 456.367Z" fill="url(#paint23_linear)"/>
<path d="M320.03 521.197C320.03 528.78 325.389 531.85 332.01 528.034C338.631 524.217 343.99 514.958 343.99 507.375C343.99 499.792 338.631 496.722 332.01 500.539C325.389 504.355 320.03 513.598 320.03 521.197Z" fill="url(#paint24_linear)"/>
<path d="M331.429 500.239C334.599 498.414 337.486 498.165 339.627 499.227C337.635 498.663 335.146 499.077 332.475 500.637C325.854 504.454 320.495 513.713 320.495 521.296C320.495 525.245 321.955 527.966 324.278 529.128C321.357 528.315 319.466 525.394 319.466 520.897C319.449 513.314 324.825 504.072 331.429 500.239Z" fill="url(#paint25_radial)"/>
<path d="M218.826 297.654V352.511C218.826 378.23 176.944 399.071 125.29 399.071V297.637H218.826V297.654Z" fill="url(#paint26_linear)"/>
<path d="M125.292 251.094C176.946 251.094 218.827 271.935 218.827 297.671H125.292L89.9648 254.545C100.867 252.322 112.797 251.094 125.292 251.094Z" fill="url(#paint27_linear)"/>
<path d="M125.291 270.575V376.704L54.9365 406.871C40.517 398.674 31.7559 387.955 31.7559 376.207V270.575H125.291Z" fill="url(#paint28_linear)"/>
<path d="M54.9365 270.575V406.871C40.517 398.674 31.7559 387.955 31.7559 376.207V270.575H54.9365Z" fill="#5A43DB"/>
<path d="M89.9646 227.448L125.291 270.574L54.9365 301.238C47.5857 297.056 41.6951 292.244 37.6962 286.935C33.8466 281.841 31.7559 276.315 31.7559 270.574C31.7559 251.077 55.8159 234.384 89.9646 227.448Z" fill="#986DFF"/>
<path d="M54.9546 373.7L54.938 406.87C72.0621 416.61 97.2339 422.766 125.293 422.766C176.964 422.766 218.828 401.925 218.828 376.206V343.053H125.293L54.9546 373.7Z" fill="url(#paint29_linear)"/>
<path d="M54.9541 373.701C55.6676 374.116 56.3811 374.53 57.1278 374.929C74.2021 383.972 98.4281 389.614 125.292 389.614C176.963 389.614 218.828 368.773 218.828 343.053H125.292L54.9541 373.701Z" fill="url(#paint30_linear)"/>
<defs>
<linearGradient id="paint0_linear" x1="270.29" y1="343.595" x2="461.227" y2="343.595" gradientUnits="userSpaceOnUse">
<stop stop-color="#7F3DFF"/>
<stop offset="0.4171" stop-color="#7583FF"/>
<stop offset="1" stop-color="#B9C0FF"/>
</linearGradient>
<linearGradient id="paint1_linear" x1="378.582" y1="289.824" x2="330.141" y2="356.638" gradientUnits="userSpaceOnUse">
<stop stop-color="#505EDE"/>
<stop offset="0.7139" stop-color="#BEC5FF"/>
</linearGradient>
<linearGradient id="paint2_linear" x1="388.373" y1="291.604" x2="366.75" y2="333.768" gradientUnits="userSpaceOnUse">
<stop offset="0.1818" stop-color="#4D5A96"/>
<stop offset="0.2483" stop-color="#6A75A7"/>
<stop offset="0.3644" stop-color="#979FC2"/>
<stop offset="0.4813" stop-color="#BDC2D8"/>
<stop offset="0.5972" stop-color="#DADCE9"/>
<stop offset="0.712" stop-color="#EEF0F5"/>
<stop offset="0.825" stop-color="#FBFBFD"/>
<stop offset="0.9343" stop-color="white"/>
</linearGradient>
<linearGradient id="paint3_linear" x1="38.3282" y1="124.203" x2="645.923" y2="257.543" gradientUnits="userSpaceOnUse">
<stop stop-color="#AFB6E5"/>
<stop offset="0.1449" stop-color="#B6BCE8"/>
<stop offset="0.3485" stop-color="#C8CDF1"/>
<stop offset="0.5808" stop-color="#E5E9FF"/>
<stop offset="0.8551" stop-color="#F5F6FF"/>
<stop offset="1" stop-color="white"/>
</linearGradient>
<linearGradient id="paint4_linear" x1="254.727" y1="22.3244" x2="503.321" y2="396.135" gradientUnits="userSpaceOnUse">
<stop stop-color="#2D1B86"/>
<stop offset="1" stop-color="#6D34DB"/>
</linearGradient>
<linearGradient id="paint5_linear" x1="553.456" y1="358.325" x2="323.503" y2="-0.245208" gradientUnits="userSpaceOnUse">
<stop stop-color="#2D1B86"/>
<stop offset="1" stop-color="#6D34DB"/>
</linearGradient>
<linearGradient id="paint6_linear" x1="316.649" y1="-32.217" x2="524.225" y2="383.657" gradientUnits="userSpaceOnUse">
<stop offset="0.2861" stop-color="#BEC5FF"/>
<stop offset="1" stop-color="#505EDE"/>
</linearGradient>
<linearGradient id="paint7_linear" x1="442.347" y1="270.611" x2="537.343" y2="270.611" gradientUnits="userSpaceOnUse">
<stop stop-color="#3922AA"/>
<stop offset="1" stop-color="#7F3DFF"/>
</linearGradient>
<linearGradient id="paint8_linear" x1="210.097" y1="251.682" x2="353.325" y2="251.682" gradientUnits="userSpaceOnUse">
<stop stop-color="#3922AA"/>
<stop offset="1" stop-color="#7F3DFF"/>
</linearGradient>
<linearGradient id="paint9_linear" x1="544.54" y1="372.315" x2="341.786" y2="170.769" gradientUnits="userSpaceOnUse">
<stop stop-color="#C0BFF6"/>
<stop offset="0.2309" stop-color="#C5C4F7"/>
<stop offset="0.5031" stop-color="#D3D2F9"/>
<stop offset="0.7949" stop-color="#EAEAFC"/>
<stop offset="1" stop-color="white"/>
</linearGradient>
<linearGradient id="paint10_linear" x1="493.12" y1="200.13" x2="576.594" y2="200.13" gradientUnits="userSpaceOnUse">
<stop stop-color="#CCCBF8"/>
<stop offset="0.0494" stop-color="#D4D3F9"/>
<stop offset="0.2055" stop-color="#E7E7FC"/>
<stop offset="0.3852" stop-color="#F5F4FE"/>
<stop offset="0.6075" stop-color="#FDFDFF"/>
<stop offset="1" stop-color="white"/>
</linearGradient>
<linearGradient id="paint11_linear" x1="532.42" y1="220.103" x2="576.597" y2="220.103" gradientUnits="userSpaceOnUse">
<stop stop-color="#3922AA"/>
<stop offset="1" stop-color="#7F3DFF"/>
</linearGradient>
<linearGradient id="paint12_linear" x1="558.187" y1="187.07" x2="194.334" y2="314.379" gradientUnits="userSpaceOnUse">
<stop stop-color="#7583FF"/>
<stop offset="1" stop-color="#DBDFFF"/>
</linearGradient>
<radialGradient id="paint13_radial" cx="0" cy="0" r="1" gradientUnits="userSpaceOnUse" gradientTransform="translate(555.839 159.618) scale(66.7396)">
<stop stop-color="white"/>
<stop offset="1" stop-color="white"/>
</radialGradient>
<radialGradient id="paint14_radial" cx="0" cy="0" r="1" gradientUnits="userSpaceOnUse" gradientTransform="translate(429.952 95.5921) scale(255.253 228.131)">
<stop stop-color="white"/>
<stop offset="1" stop-color="white"/>
</radialGradient>
<linearGradient id="paint15_linear" x1="239.615" y1="347.648" x2="4.68035" y2="347.648" gradientUnits="userSpaceOnUse">
<stop stop-color="#B9BFEA"/>
<stop offset="0.2475" stop-color="#E5E9FF"/>
<stop offset="0.702" stop-color="#AFB6E5"/>
<stop offset="0.9464" stop-color="#BAC0EA"/>
<stop offset="1" stop-color="#BDC3EC"/>
</linearGradient>
<linearGradient id="paint16_linear" x1="70.6758" y1="169.793" x2="146.788" y2="452.496" gradientUnits="userSpaceOnUse">
<stop stop-color="#AFB6E5"/>
<stop offset="0.1449" stop-color="#B6BCE8"/>
<stop offset="0.3485" stop-color="#C8CDF1"/>
<stop offset="0.5808" stop-color="#E5E9FF"/>
<stop offset="0.9546" stop-color="#F5F4FC"/>
<stop offset="1" stop-color="#F7F6FB"/>
</linearGradient>
<linearGradient id="paint17_linear" x1="3.0099" y1="418.135" x2="247.577" y2="418.135" gradientUnits="userSpaceOnUse">
<stop stop-color="#B9BFEA"/>
<stop offset="0.1061" stop-color="#E5E9FF"/>
<stop offset="0.1717" stop-color="white"/>
<stop offset="0.404" stop-color="#DFE3FC"/>
<stop offset="0.702" stop-color="#AFB6E5"/>
<stop offset="0.9464" stop-color="#BAC0EA"/>
<stop offset="1" stop-color="#BDC3EC"/>
</linearGradient>
<radialGradient id="paint18_radial" cx="0" cy="0" r="1" gradientUnits="userSpaceOnUse" gradientTransform="translate(131.535 310.558) scale(134.726)">
<stop stop-color="white"/>
<stop offset="1" stop-color="white" stop-opacity="0"/>
</radialGradient>
<radialGradient id="paint19_radial" cx="0" cy="0" r="1" gradientUnits="userSpaceOnUse" gradientTransform="translate(135.796 444.538) scale(180.933)">
<stop stop-color="white"/>
<stop offset="1" stop-color="white" stop-opacity="0"/>
</radialGradient>
<linearGradient id="paint20_linear" x1="216.431" y1="433.959" x2="204.642" y2="453.549" gradientUnits="userSpaceOnUse">
<stop stop-color="#B9BFEA"/>
<stop offset="0.1061" stop-color="#E5E9FF"/>
<stop offset="0.1717" stop-color="white"/>
<stop offset="0.404" stop-color="#DFE3FC"/>
<stop offset="0.702" stop-color="#AFB6E5"/>
<stop offset="0.9464" stop-color="#BAC0EA"/>
<stop offset="1" stop-color="#BDC3EC"/>
</linearGradient>
<linearGradient id="paint21_linear" x1="239.441" y1="451.954" x2="201.759" y2="443.507" gradientUnits="userSpaceOnUse">
<stop stop-color="#9F79C8"/>
<stop offset="0.1367" stop-color="#A580CB"/>
<stop offset="0.3288" stop-color="#B492D3"/>
<stop offset="0.5529" stop-color="#CDB0E1"/>
<stop offset="0.5808" stop-color="#D1B4E3"/>
<stop offset="0.7644" stop-color="#DBC4E9"/>
<stop offset="1" stop-color="#EBDEF3"/>
</linearGradient>
<radialGradient id="paint22_radial" cx="0" cy="0" r="1" gradientUnits="userSpaceOnUse" gradientTransform="translate(217.233 444.736) rotate(180) scale(7.1888)">
<stop stop-color="white"/>
<stop offset="0.0152" stop-color="#F7F7F7"/>
<stop offset="0.132" stop-color="#BEBEBE"/>
<stop offset="0.252" stop-color="#8B8B8B"/>
<stop offset="0.3727" stop-color="#606060"/>
<stop offset="0.4942" stop-color="#3E3E3E"/>
<stop offset="0.6167" stop-color="#232323"/>
<stop offset="0.7407" stop-color="#0F0F0F"/>
<stop offset="0.8672" stop-color="#040404"/>
<stop offset="1"/>
</radialGradient>
<linearGradient id="paint23_linear" x1="284.494" y1="465.696" x2="263.669" y2="500.302" gradientUnits="userSpaceOnUse">
<stop stop-color="#3B3ABA"/>
<stop offset="0.1433" stop-color="#564BD7"/>
<stop offset="0.2273" stop-color="#6152E3"/>
<stop offset="0.399" stop-color="#4528C9"/>
<stop offset="0.4832" stop-color="#4221A9"/>
<stop offset="0.5739" stop-color="#401B8D"/>
<stop offset="0.6263" stop-color="#3F1982"/>
<stop offset="0.8687" stop-color="#5E239E"/>
<stop offset="1" stop-color="#491C8B"/>
</linearGradient>
<linearGradient id="paint24_linear" x1="323.258" y1="509.184" x2="349.659" y2="524.552" gradientUnits="userSpaceOnUse">
<stop offset="0.0808" stop-color="#3F1982"/>
<stop offset="1" stop-color="#5E239E"/>
</linearGradient>
<radialGradient id="paint25_radial" cx="0" cy="0" r="1" gradientUnits="userSpaceOnUse" gradientTransform="translate(325.215 508.725) rotate(180) scale(12.9393)">
<stop stop-color="white"/>
<stop offset="0.0133" stop-color="#FAFAFD"/>
<stop offset="0.1476" stop-color="#C9C8ED"/>
<stop offset="0.2851" stop-color="#9E9DDF"/>
<stop offset="0.4234" stop-color="#7C7BD3"/>
<stop offset="0.563" stop-color="#6160CA"/>
<stop offset="0.7044" stop-color="#4E4CC4"/>
<stop offset="0.8486" stop-color="#4341C0"/>
<stop offset="1" stop-color="#3F3DBF"/>
</radialGradient>
<linearGradient id="paint26_linear" x1="172.06" y1="295.266" x2="172.06" y2="349.24" gradientUnits="userSpaceOnUse">
<stop stop-color="#FF0054"/>
<stop offset="0.2072" stop-color="#F10670"/>
<stop offset="0.7476" stop-color="#CE15B6"/>
<stop offset="1" stop-color="#C01BD1"/>
</linearGradient>
<linearGradient id="paint27_linear" x1="89.9692" y1="274.374" x2="218.831" y2="274.374" gradientUnits="userSpaceOnUse">
<stop stop-color="#FF0054"/>
<stop offset="0.2072" stop-color="#F10670"/>
<stop offset="0.7476" stop-color="#CE15B6"/>
<stop offset="1" stop-color="#C01BD1"/>
</linearGradient>
<linearGradient id="paint28_linear" x1="76.7576" y1="293.701" x2="80.9562" y2="365.077" gradientUnits="userSpaceOnUse">
<stop stop-color="#6B2CFF"/>
<stop offset="1" stop-color="#2B1C87"/>
</linearGradient>
<linearGradient id="paint29_linear" x1="54.9363" y1="382.908" x2="218.833" y2="382.908" gradientUnits="userSpaceOnUse">
<stop stop-color="#FFA500"/>
<stop offset="1" stop-color="#8C682F"/>
</linearGradient>
<linearGradient id="paint30_linear" x1="54.9463" y1="366.333" x2="218.832" y2="366.333" gradientUnits="userSpaceOnUse">
<stop stop-color="#FFE278"/>
<stop offset="0.642" stop-color="#FBB632"/>
<stop offset="1" stop-color="#F89C09"/>
</linearGradient>
</defs>
</svg>
