<?xml version="1.0" encoding="utf-8"?>
<!-- Generator: Adobe Illustrator 25.3.0, SVG Export Plug-In . SVG Version: 6.00 Build 0)  -->
<svg version="1.1" id="Layer_1" xmlns="http://www.w3.org/2000/svg" xmlns:xlink="http://www.w3.org/1999/xlink" x="0px" y="0px"
	 viewBox="0 0 75 75" style="enable-background:new 0 0 75 75;" xml:space="preserve">
<style type="text/css">
	.st0{fill:url(#SVGID_1_);}
	.st1{fill:url(#SVGID_2_);}
	.st2{fill:url(#SVGID_3_);}
	.st3{fill:url(#SVGID_4_);}
	.st4{fill:url(#SVGID_5_);}
	.st5{fill:url(#SVGID_6_);}
	.st6{fill:url(#SVGID_7_);}
	.st7{fill:url(#SVGID_8_);}
	.st8{fill:url(#SVGID_9_);}
	.st9{fill:url(#SVGID_10_);}
</style>
<g>
	
		<linearGradient id="SVGID_1_" gradientUnits="userSpaceOnUse" x1="36.9465" y1="31.014" x2="37.9101" y2="5.9594" gradientTransform="matrix(1 0 0 -1 0 76)">
		<stop  offset="0" style="stop-color:#4502C6"/>
		<stop  offset="1" style="stop-color:#803EFF"/>
	</linearGradient>
	<path class="st0" d="M50.1,45.2v26.4L45,68.1l-0.6-0.5L37.4,63l-12.6,8.6V45.2H50.1z"/>
	
		<linearGradient id="SVGID_2_" gradientUnits="userSpaceOnUse" x1="44.6512" y1="30.096" x2="44.6512" y2="8.3545" gradientTransform="matrix(1 0 0 -1 0 76)">
		<stop  offset="0" style="stop-color:#954CE2;stop-opacity:0"/>
		<stop  offset="0.1824" style="stop-color:#A257DF;stop-opacity:0.1824"/>
		<stop  offset="0.5201" style="stop-color:#C473D8;stop-opacity:0.5201"/>
		<stop  offset="0.973" style="stop-color:#FBA1CC;stop-opacity:0.973"/>
		<stop  offset="1" style="stop-color:#FFA4CB"/>
	</linearGradient>
	<path class="st1" d="M45,46.3v21.8l-0.6-0.5V46.3H45z"/>
	
		<linearGradient id="SVGID_3_" gradientUnits="userSpaceOnUse" x1="47.4194" y1="28.2405" x2="47.4194" y2="6.499" gradientTransform="matrix(1 0 0 -1 0 76)">
		<stop  offset="0" style="stop-color:#954CE2;stop-opacity:0"/>
		<stop  offset="0.1824" style="stop-color:#A257DF;stop-opacity:0.1824"/>
		<stop  offset="0.5201" style="stop-color:#C473D8;stop-opacity:0.5201"/>
		<stop  offset="0.973" style="stop-color:#FBA1CC;stop-opacity:0.973"/>
		<stop  offset="1" style="stop-color:#FFA4CB"/>
	</linearGradient>
	<path class="st2" d="M47.7,48.1v21.8l-0.6-0.5V48.1H47.7z"/>
	
		<linearGradient id="SVGID_4_" gradientUnits="userSpaceOnUse" x1="30.195" y1="30.096" x2="30.195" y2="8.3545" gradientTransform="matrix(1 0 0 -1 0 76)">
		<stop  offset="0" style="stop-color:#954CE2;stop-opacity:0"/>
		<stop  offset="0.1824" style="stop-color:#A257DF;stop-opacity:0.1824"/>
		<stop  offset="0.5201" style="stop-color:#C473D8;stop-opacity:0.5201"/>
		<stop  offset="0.973" style="stop-color:#FBA1CC;stop-opacity:0.973"/>
		<stop  offset="1" style="stop-color:#FFA4CB"/>
	</linearGradient>
	<path class="st3" d="M29.9,46.3v21.8l0.6-0.5V46.3H29.9z"/>
	
		<linearGradient id="SVGID_5_" gradientUnits="userSpaceOnUse" x1="27.5037" y1="28.2405" x2="27.5037" y2="6.499" gradientTransform="matrix(1 0 0 -1 0 76)">
		<stop  offset="0" style="stop-color:#954CE2;stop-opacity:0"/>
		<stop  offset="0.1824" style="stop-color:#A257DF;stop-opacity:0.1824"/>
		<stop  offset="0.5201" style="stop-color:#C473D8;stop-opacity:0.5201"/>
		<stop  offset="0.973" style="stop-color:#FBA1CC;stop-opacity:0.973"/>
		<stop  offset="1" style="stop-color:#FFA4CB"/>
	</linearGradient>
	<path class="st4" d="M27.2,48.1v21.8l0.6-0.5V48.1H27.2z"/>
	
		<linearGradient id="SVGID_6_" gradientUnits="userSpaceOnUse" x1="37.5" y1="77.0992" x2="37.5" y2="23.8141" gradientTransform="matrix(1 0 0 -1 0 76)">
		<stop  offset="0" style="stop-color:#DBDFFF"/>
		<stop  offset="1" style="stop-color:#7583FF"/>
	</linearGradient>
	<path class="st5" d="M40.2,4.8l3,4.4c0.8,1.2,2.2,1.6,3.5,1.3L51.9,9c2.2-0.6,4.3,1.2,4.1,3.4l-0.5,5.3c-0.2,1.4,0.6,2.7,1.8,3.2
		l4.8,2.2c2.1,0.9,2.5,3.6,0.9,5.2l-3.8,3.8c-1,1-1.2,2.5-0.6,3.7l2.3,4.8c1,2-0.4,4.4-2.6,4.6L53,45.7c-1.4,0.1-2.5,1.1-2.8,2.4
		l-1.4,5.2c-0.5,2.2-3.2,3.2-5,1.8l-4.4-3.1c-1.2-0.8-2.6-0.8-3.8,0l-4.4,3.1c-1.8,1.3-4.4,0.4-5-1.8l-1.3-5.2
		c-0.3-1.3-1.5-2.3-2.8-2.4l-5.3-0.4c-2.2-0.2-3.6-2.5-2.6-4.6l2.3-4.8c0.6-1.2,0.3-2.7-0.6-3.7L12,28.5c-1.6-1.6-1.2-4.3,0.9-5.2
		l4.8-2.2c1.2-0.5,2-1.8,1.8-3.2L19,12.5c-0.2-2.2,1.9-4,4.1-3.4l5.2,1.5c1.3,0.4,2.8-0.2,3.5-1.3l3.1-4.5C36.2,3,39,3,40.2,4.8z"/>
	
		<linearGradient id="SVGID_7_" gradientUnits="userSpaceOnUse" x1="37.4328" y1="34.3367" x2="37.4328" y2="21.5342" gradientTransform="matrix(1 0 0 -1 0 76)">
		<stop  offset="0" style="stop-color:#FFFFFF;stop-opacity:0"/>
		<stop  offset="1" style="stop-color:#4651C8"/>
	</linearGradient>
	<path class="st6" d="M58.3,45.3L53,45.7c-1.4,0.1-2.5,1.1-2.8,2.4l-1.4,5.2c-0.5,2.2-3.2,3.2-5,1.8L39.3,52c-1.2-0.8-2.6-0.8-3.8,0
		l-4.4,3.1c-1.8,1.3-4.4,0.4-5-1.8l-1.3-5.2c-0.3-1.3-1.5-2.3-2.8-2.4l-5.4-0.4c-1.9-0.2-3.2-1.8-2.9-3.6c0.2,1.5,1.3,2.7,2.9,2.8
		L22,45c1.4,0.1,2.5,1.1,2.8,2.4l1.3,5.2c0.5,2.2,3.2,3.2,5,1.8l4.4-3.1c1.2-0.8,2.6-0.8,3.8,0l4.4,3.1c1.8,1.3,4.4,0.4,5-1.8
		l1.3-5.2c0.3-1.3,1.5-2.3,2.8-2.4l5.3-0.4c1.6-0.2,2.8-1.4,2.9-2.8C61.4,43.5,60.2,45.2,58.3,45.3z"/>
	
		<linearGradient id="SVGID_8_" gradientUnits="userSpaceOnUse" x1="37.5384" y1="72.2206" x2="37.5384" y2="62.3288" gradientTransform="matrix(1 0 0 -1 0 76)">
		<stop  offset="0" style="stop-color:#FFFFFF"/>
		<stop  offset="1" style="stop-color:#EBEDFF;stop-opacity:0"/>
	</linearGradient>
	<path class="st7" d="M56,12.7c-0.2-1.8-2.2-3.2-4.1-2.7l-5.2,1.5c-1.3,0.4-2.8-0.2-3.5-1.3l-3-4.4c-1.3-1.8-4-1.8-5.3,0l-3,4.4
		c-0.8,1.2-2.2,1.6-3.5,1.3L23.2,10c-1.9-0.5-3.8,0.8-4.1,2.7v-0.2c-0.2-2.2,1.9-4,4.1-3.4l5.2,1.5c1.3,0.4,2.7-0.2,3.5-1.3l3-4.5
		c1.3-1.8,4-1.8,5.3,0l3,4.4c0.8,1.2,2.2,1.6,3.5,1.3L51.9,9c2.2-0.6,4.3,1.2,4.1,3.4V12.7z"/>
	<g>
		
			<linearGradient id="SVGID_9_" gradientUnits="userSpaceOnUse" x1="36.723" y1="34.8885" x2="37.6866" y2="56.5703" gradientTransform="matrix(1 0 0 -1 0 76)">
			<stop  offset="0" style="stop-color:#ECECFF"/>
			<stop  offset="0.9375" style="stop-color:#FFFFFF"/>
		</linearGradient>
		<path class="st8" d="M37.9,18.7l3.4,6c0.1,0.2,0.3,0.3,0.5,0.4l6.8,1.3c0.5,0.1,0.8,0.8,0.4,1.2l-4.7,5.1C44,32.8,44,33,44,33.3
			l0.8,6.8c0.1,0.5-0.5,1-1,0.8L37.7,38c-0.2-0.1-0.4-0.1-0.6,0l-6.2,2.9c-0.5,0.2-1.1-0.2-1-0.8l0.8-6.8c0-0.2-0.1-0.5-0.2-0.6
			l-4.7-5.1c-0.4-0.4-0.2-1.1,0.4-1.2L33,25c0.2-0.1,0.4-0.2,0.5-0.4l3.4-6C36.9,18.1,37.6,18.1,37.9,18.7z"/>
	</g>
	<g>
		
			<radialGradient id="SVGID_10_" cx="3.8074" cy="72.1724" r="0.9996" gradientTransform="matrix(20.6714 0 0 -20.6714 -41.3577 1522.5607)" gradientUnits="userSpaceOnUse">
			<stop  offset="0.8229" style="stop-color:#C6CCFF"/>
			<stop  offset="0.9153" style="stop-color:#FDFDFF"/>
			<stop  offset="1" style="stop-color:#FFFFFF"/>
		</radialGradient>
		<path class="st9" d="M37.3,10C26,10,16.7,19.2,16.7,30.7c0,11.4,9.2,20.7,20.7,20.7c11.4,0,20.7-9.2,20.7-20.7
			C58,19.3,48.7,10,37.3,10z M37.3,47c-9,0-16.3-7.3-16.3-16.3c0-9,7.3-16.3,16.3-16.3c9,0,16.3,7.3,16.3,16.3
			C53.6,39.7,46.3,47,37.3,47z"/>
	</g>
</g>
</svg>
