<?xml version="1.0" encoding="utf-8"?>
<!-- Generator: Adobe Illustrator 25.3.0, SVG Export Plug-In . SVG Version: 6.00 Build 0)  -->
<svg version="1.1" id="Layer_1" xmlns="http://www.w3.org/2000/svg" xmlns:xlink="http://www.w3.org/1999/xlink" x="0px" y="0px"
	 viewBox="0 0 75 75" style="enable-background:new 0 0 75 75;" xml:space="preserve">
<style type="text/css">
	.st0{fill:url(#SVGID_1_);}
	.st1{fill:url(#SVGID_2_);}
	.st2{fill:url(#SVGID_3_);fill-opacity:0.5;}
	.st3{fill:url(#SVGID_4_);fill-opacity:0.5;}
	.st4{fill:url(#SVGID_5_);fill-opacity:0.5;}
	.st5{fill:url(#SVGID_6_);}
	.st6{fill:none;stroke:url(#SVGID_7_);}
	.st7{fill:url(#SVGID_8_);}
	.st8{fill:url(#SVGID_9_);}
</style>
<g>
	
		<linearGradient id="SVGID_1_" gradientUnits="userSpaceOnUse" x1="32.0964" y1="69.7585" x2="32.0964" y2="25.5965" gradientTransform="matrix(1 0 0 -1 0 76)">
		<stop  offset="0" style="stop-color:#DBDFFF"/>
		<stop  offset="1" style="stop-color:#7583FF"/>
	</linearGradient>
	<path class="st0" d="M58.5,53.4H5.7c-2.3,0-4.1-1.8-4.1-4.1V14.1c0-2.3,1.8-4.1,4.1-4.1h52.8c2.3,0,4.1,1.8,4.1,4.1v35.2
		C62.6,51.5,60.7,53.4,58.5,53.4z"/>
	<g>
		
			<linearGradient id="SVGID_2_" gradientUnits="userSpaceOnUse" x1="31.7156" y1="31.3566" x2="32.4327" y2="57.2293" gradientTransform="matrix(1 0 0 -1 0 76)">
			<stop  offset="0" style="stop-color:#ECECFF"/>
			<stop  offset="0.9375" style="stop-color:#FFFFFF"/>
		</linearGradient>
		<path class="st1" d="M49.9,44.4H14.3c0-2.6-2.1-4.6-4.6-4.6V22c2.5,0,4.6-2.1,4.6-4.6h35.6c0,2.6,2.1,4.6,4.6,4.6v17.8
			C52,39.8,49.9,41.9,49.9,44.4z"/>
	</g>
	
		<linearGradient id="SVGID_3_" gradientUnits="userSpaceOnUse" x1="33.116" y1="52.5874" x2="33.116" y2="50.9647" gradientTransform="matrix(1 0 0 -1 0 76)">
		<stop  offset="0" style="stop-color:#DBDFFF"/>
		<stop  offset="1" style="stop-color:#7583FF"/>
	</linearGradient>
	<path class="st2" d="M20,23.6h26.3c0.4,0,0.8,0.4,0.8,0.8v0c0,0.4-0.4,0.8-0.8,0.8H20c-0.4,0-0.8-0.4-0.8-0.8v0
		C19.2,23.9,19.5,23.6,20,23.6z"/>
	
		<linearGradient id="SVGID_4_" gradientUnits="userSpaceOnUse" x1="33.116" y1="46.2105" x2="33.116" y2="44.5878" gradientTransform="matrix(1 0 0 -1 0 76)">
		<stop  offset="0" style="stop-color:#DBDFFF"/>
		<stop  offset="1" style="stop-color:#7583FF"/>
	</linearGradient>
	<path class="st3" d="M20,29.9h26.3c0.4,0,0.8,0.4,0.8,0.8v0c0,0.4-0.4,0.8-0.8,0.8H20c-0.4,0-0.8-0.4-0.8-0.8v0
		C19.2,30.3,19.5,29.9,20,29.9z"/>
	
		<linearGradient id="SVGID_5_" gradientUnits="userSpaceOnUse" x1="33.116" y1="39.8337" x2="33.116" y2="38.2111" gradientTransform="matrix(1 0 0 -1 0 76)">
		<stop  offset="0" style="stop-color:#DBDFFF"/>
		<stop  offset="1" style="stop-color:#7583FF"/>
	</linearGradient>
	<path class="st4" d="M20,36.3h26.3c0.4,0,0.8,0.4,0.8,0.8v0c0,0.4-0.4,0.8-0.8,0.8H20c-0.4,0-0.8-0.4-0.8-0.8v0
		C19.2,36.7,19.5,36.3,20,36.3z"/>
	<g>
		
			<linearGradient id="SVGID_6_" gradientUnits="userSpaceOnUse" x1="56.3619" y1="11" x2="56.3619" y2="44.2264" gradientTransform="matrix(1 0 0 -1 0 76)">
			<stop  offset="0" style="stop-color:#4502C6"/>
			<stop  offset="1" style="stop-color:#803EFF"/>
		</linearGradient>
		<path class="st5" d="M56.4,65c9.4,0,17-7.7,17-17.1c0-9.5-7.6-17.1-17-17.1s-17,7.7-17,17.1C39.4,57.3,47,65,56.4,65z"/>
	</g>
	
		<linearGradient id="SVGID_7_" gradientUnits="userSpaceOnUse" x1="56.2319" y1="43.3727" x2="56.2319" y2="14.0103" gradientTransform="matrix(1 0 0 -1 0 76)">
		<stop  offset="0" style="stop-color:#954CE2;stop-opacity:0"/>
		<stop  offset="0.1824" style="stop-color:#A257DF;stop-opacity:0.1824"/>
		<stop  offset="0.5201" style="stop-color:#C473D8;stop-opacity:0.5201"/>
		<stop  offset="0.973" style="stop-color:#FBA1CC;stop-opacity:0.973"/>
		<stop  offset="1" style="stop-color:#FFA4CB"/>
	</linearGradient>
	<path class="st6" d="M70.5,47.9c0,7.9-6.4,14.2-14.2,14.2c-7.9,0-14.2-6.4-14.2-14.2s6.4-14.2,14.2-14.2
		C64.1,33.6,70.5,40,70.5,47.9z"/>
	
		<linearGradient id="SVGID_8_" gradientUnits="userSpaceOnUse" x1="56.3575" y1="36.466" x2="56.3575" y2="19.3476" gradientTransform="matrix(1 0 0 -1 0 76)">
		<stop  offset="0" style="stop-color:#FDFDFF"/>
		<stop  offset="1" style="stop-color:#C6CCFF"/>
	</linearGradient>
	<path class="st7" d="M54.4,56.7c-0.6,0-1.2-0.3-1.6-0.7l-6.1-6.6c-0.8-0.9-0.8-2.3,0.1-3.1c0.9-0.8,2.3-0.8,3.1,0.1l4.5,4.9
		l8.4-9.4c0.8-0.9,2.2-1,3.1-0.2c0.9,0.8,1,2.2,0.2,3.1L56.1,56C55.6,56.4,55.1,56.7,54.4,56.7C54.4,56.7,54.4,56.7,54.4,56.7z"/>
	
		<linearGradient id="SVGID_9_" gradientUnits="userSpaceOnUse" x1="32.0964" y1="60.8997" x2="32.0964" y2="66" gradientTransform="matrix(1 0 0 -1 0 76)">
		<stop  offset="0" style="stop-color:#EBEDFF;stop-opacity:0"/>
		<stop  offset="1" style="stop-color:#FFFFFF"/>
	</linearGradient>
	<path class="st8" d="M62.6,14.1v1c0-2.3-1.8-4.1-4.1-4.1H5.7c-2.3,0-4.1,1.8-4.1,4.1v-1c0-2.3,1.8-4.1,4.1-4.1h52.8
		C60.7,10,62.6,11.8,62.6,14.1z"/>
</g>
</svg>
