<?xml version="1.0" encoding="utf-8"?>
<!-- Generator: Adobe Illustrator 25.3.0, SVG Export Plug-In . SVG Version: 6.00 Build 0)  -->
<svg version="1.1" id="Layer_1" xmlns="http://www.w3.org/2000/svg" xmlns:xlink="http://www.w3.org/1999/xlink" x="0px" y="0px"
	 viewBox="0 0 75 75" style="enable-background:new 0 0 75 75;" xml:space="preserve">
<style type="text/css">
	.st0{fill:url(#SVGID_1_);}
	.st1{fill:url(#SVGID_2_);}
	.st2{fill:url(#SVGID_3_);}
	.st3{fill:url(#SVGID_4_);}
	.st4{fill:none;stroke:url(#SVGID_5_);}
	.st5{fill:url(#SVGID_6_);}
	.st6{fill:url(#SVGID_7_);}
	.st7{fill:url(#SVGID_8_);}
</style>
<g>
	
		<linearGradient id="SVGID_1_" gradientUnits="userSpaceOnUse" x1="37.5" y1="74.8709" x2="37.5" y2="11.7639" gradientTransform="matrix(1 0 0 -1 0 76)">
		<stop  offset="0" style="stop-color:#DBDFFF"/>
		<stop  offset="1" style="stop-color:#7583FF"/>
	</linearGradient>
	<path class="st0" d="M62.2,16.7L37.5,6.5l-26,10.8v13.5c0,16.4,9.9,31.2,25.1,37.4c0.3,0.1,1,0.3,1,0.3s0.5-0.2,0.8-0.3
		c15.2-6.2,25.1-21,25.1-37.4V17.3L62.2,16.7z"/>
	<g>
		
			<linearGradient id="SVGID_2_" gradientUnits="userSpaceOnUse" x1="35.3887" y1="12.3206" x2="38.1442" y2="61.6076" gradientTransform="matrix(1 0 0 -1 0 76)">
			<stop  offset="0" style="stop-color:#ECECFF"/>
			<stop  offset="0.9375" style="stop-color:#FFFFFF"/>
		</linearGradient>
		<path class="st1" d="M58.7,30.8c0,14-8.2,26.8-21.2,32.5c-12.7-5.6-21.2-18.2-21.2-32.5V20.5l21.2-8.8l21.2,8.8V30.8z"/>
	</g>
	<g>
		
			<linearGradient id="SVGID_3_" gradientUnits="userSpaceOnUse" x1="37.4851" y1="15.6155" x2="37.4851" y2="59.9237" gradientTransform="matrix(1 0 0 -1 0 76)">
			<stop  offset="0" style="stop-color:#4502C6"/>
			<stop  offset="1" style="stop-color:#803EFF"/>
		</linearGradient>
		<path class="st2" d="M56.2,31.6c0,12.3-7.3,23.7-18.7,28.8c-11.2-5-18.7-16.1-18.7-28.8v-9.1l18.7-7.8l18.7,7.8V31.6z"/>
	</g>
	
		<linearGradient id="SVGID_4_" gradientUnits="userSpaceOnUse" x1="37.5" y1="65.471" x2="37.5" y2="58.5031" gradientTransform="matrix(1 0 0 -1 0 76)">
		<stop  offset="0" style="stop-color:#FFFFFF"/>
		<stop  offset="1" style="stop-color:#EBEDFF;stop-opacity:0"/>
	</linearGradient>
	<path class="st3" d="M62.2,16.7L37.5,6.5L11.5,17.3v1.3L37.5,7.8L62.2,18l1.3,0.5v-1.3L62.2,16.7z"/>
	
		<linearGradient id="SVGID_5_" gradientUnits="userSpaceOnUse" x1="37.5" y1="18.2756" x2="37.5" y2="59.028" gradientTransform="matrix(1 0 0 -1 0 76)">
		<stop  offset="0" style="stop-color:#A85CDE;stop-opacity:0.1795"/>
		<stop  offset="1" style="stop-color:#FBA1CC;stop-opacity:0.973"/>
	</linearGradient>
	<path class="st4" d="M53.4,32.1c0,10.7-6.1,20.5-15.9,24.9C28,52.7,21.6,43,21.6,32.1v-7.8l15.9-6.7l15.9,6.7V32.1z"/>
	
		<linearGradient id="SVGID_6_" gradientUnits="userSpaceOnUse" x1="46.8985" y1="72.6512" x2="46.8985" y2="40.0091" gradientTransform="matrix(1 0 0 -1 0 76)">
		<stop  offset="0" style="stop-color:#A2ACFF"/>
		<stop  offset="1" style="stop-color:#7583FF;stop-opacity:0"/>
	</linearGradient>
	<path class="st5" d="M55.7,37.5c0.4-1.9,0.6-3.9,0.6-5.9v-9.1l-18.7-7.8v22.8H55.7z"/>
	
		<linearGradient id="SVGID_7_" gradientUnits="userSpaceOnUse" x1="28.4298" y1="12.5633" x2="28.4298" y2="37.4702" gradientTransform="matrix(1 0 0 -1 0 76)">
		<stop  offset="0" style="stop-color:#A2ACFF"/>
		<stop  offset="1" style="stop-color:#7583FF;stop-opacity:0"/>
	</linearGradient>
	<path class="st6" d="M19.3,37.5c1.9,10.1,8.8,18.7,18.2,22.9c0,0,0,0,0,0V37.5H19.3z"/>
	
		<linearGradient id="SVGID_8_" gradientUnits="userSpaceOnUse" x1="39.0122" y1="49.6083" x2="34.6763" y2="30.8195" gradientTransform="matrix(1 0 0 -1 0 76)">
		<stop  offset="0" style="stop-color:#FDFDFF"/>
		<stop  offset="1" style="stop-color:#C6CCFF"/>
	</linearGradient>
	<path class="st7" d="M48.6,28.6c-1-1-2.5-1-3.4,0L34.8,39l-5-5c-0.9-1-2.5-0.9-3.4,0c-0.9,1-0.9,2.5,0,3.4l6.7,6.7c1,1,2.5,1,3.4,0
		L48.6,32C49.5,31.1,49.5,29.5,48.6,28.6z"/>
</g>
</svg>
