<svg width="580" height="530" viewBox="0 0 580 530" fill="none" xmlns="http://www.w3.org/2000/svg">
<path d="M289.575 510.252C413.053 510.252 513.151 480.686 513.151 444.215C513.151 407.745 413.053 378.179 289.575 378.179C166.098 378.179 66 407.745 66 444.215C66 480.686 166.098 510.252 289.575 510.252Z" fill="url(#paint0_radial)"/>
<path d="M270.377 305.12C276.722 304.865 283.172 304.729 289.623 304.729C297.802 304.729 305.936 304.94 313.95 305.346L314.251 305.361L318.22 302.113V295.828L266.979 295.573V301.858L270.076 305.12H270.377Z" fill="url(#paint1_linear)"/>
<path d="M365.087 311.212L365.387 311.272L372.484 309.964V312.715L372.785 312.775C387.46 315.948 400.631 320.128 410.584 325.15C422.733 331.284 429.965 338.606 429.469 346.41L429.454 346.59L484.319 354.965C484.319 354.965 484.95 349.522 484.199 348.455C476.951 338.246 460.518 332.352 442.475 325.15C427.349 319.105 409.487 314.234 390.873 310.61L392.376 309.212L379.867 307.453V302.31L365.402 304.987L334.279 299.574L321.574 299.544V305.829L321.874 305.844C336.775 306.866 351.555 308.671 365.087 311.212Z" fill="url(#paint2_linear)"/>
<path d="M356.786 381.62C336.368 384.883 313.469 386.627 289.577 386.627C269.369 386.627 249.703 385.379 231.69 382.989L230.878 382.883L199.364 414.158L191.064 416.112V422.397L192.101 422.592C221.541 428.035 254.83 430.937 289.532 430.937H289.577C330.579 430.937 369.16 426.923 401.848 419.555L402.81 419.345V413.06L357.568 381.53L356.786 381.62Z" fill="url(#paint3_linear)"/>
<path d="M150.108 348.723L150.063 348.543C148.123 340.529 154.393 332.936 165.985 326.531L166.211 326.41H165.985V323.554L171.744 323.629L171.985 323.523C182.585 318.697 196.282 314.713 211.363 311.736L211.664 311.675L211.528 308.819L218.82 310.352L219.121 310.307C232.789 307.977 247.584 306.368 262.439 305.496L262.739 305.481L262.439 305.255V299.211L220.309 302.248L205.604 301.286V306.278L194.388 307.917L194.282 309.465C186.735 310.833 179.292 312.382 172.075 314.126L141.974 316.818V323.102L141.673 323.208L158.513 323.433L151.281 326.546L132.727 326.756L132.441 326.876C118.323 332.936 106.775 340.123 99.6635 348.167L93.3335 351.971V358.256L149.341 348.828L150.108 348.723Z" fill="url(#paint4_linear)"/>
<path d="M486.905 362.269L486.86 362.029L428.251 351.008L428.161 351.203C423.65 360.826 402.946 364.886 375.581 371.712C374.033 372.103 374.905 378.147 374.905 378.147L428.612 411.3L429.634 411.932L430.416 411.676C472.847 397.558 490.032 379.41 486.905 362.269Z" fill="url(#paint5_linear)"/>
<path d="M212.475 379.876V373.591L202.656 377.801C175.457 371.501 158.467 362.78 152.287 353.458L152.152 353.263L98.2192 364.374L91.8892 359.638V365.923C91.6787 383.755 113.405 402.083 160.857 415.405L161.729 415.645L211.903 380.267L212.475 379.876Z" fill="url(#paint6_linear)"/>
<path d="M289.575 424.641H289.53C254.828 424.641 221.539 421.739 192.1 416.297L191.062 416.101L230.861 376.588L231.673 376.693C249.686 379.084 269.352 380.331 289.56 380.331C313.452 380.331 336.351 378.602 356.769 375.325L357.536 375.204L402.778 413.034L401.816 413.244C369.143 420.627 330.577 424.641 289.575 424.641ZM161.743 409.365L160.871 409.125C113.418 395.803 91.6919 377.46 91.9024 359.643V359.387L152.15 346.983L152.285 347.178C159.126 357.507 179.214 367.085 211.751 373.46L212.473 373.596L211.916 373.986L161.743 409.365ZM429.632 405.651L428.609 405.02L374.902 371.866C374.902 371.866 423.377 355.087 428.143 344.923L428.233 344.727L486.842 355.748L486.887 355.989C490 373.129 472.829 391.262 430.398 405.396L429.632 405.651ZM93.3608 352.004L93.4511 351.779C98.0971 339.705 112.802 329.06 132.483 320.625L132.769 320.505L166.223 320.129L165.998 320.249C154.39 326.654 148.12 334.247 150.075 342.261L150.12 342.442L149.383 342.562L93.3608 352.004ZM484.301 348.667L429.436 340.292L429.451 340.111C429.947 332.308 422.715 324.985 410.567 318.851C400.628 313.829 387.442 309.649 372.767 306.477L372.466 306.417L389.036 303.951L389.336 304.011C408.507 307.68 426.91 312.656 442.457 318.866C462.379 326.82 477.881 336.924 484.181 348.456L484.301 348.667ZM171.756 317.347L141.7 316.941L142.001 316.836C158.044 310.927 176.793 306.251 196.189 302.838L196.49 302.793L211.691 305.394L211.39 305.454C196.309 308.431 182.612 312.401 172.012 317.242L171.756 317.347ZM365.385 304.973L365.084 304.913C351.552 302.372 336.787 300.583 321.857 299.545L321.556 299.53L326.954 296.328L327.239 296.343C344.876 297.455 362.708 299.425 379.563 302.252L379.864 302.297L365.385 304.973ZM218.833 304.086L205.632 301.304L205.932 301.259C222.787 298.688 240.499 296.929 257.985 295.997L258.271 295.982L262.767 299.214L262.466 299.23C247.611 300.087 232.816 301.695 219.149 304.041L218.833 304.086ZM314.249 299.079L313.948 299.064C305.934 298.658 297.8 298.448 289.62 298.448C283.17 298.448 276.705 298.583 270.375 298.839L270.074 298.854L266.977 295.591L267.262 295.576C274.66 295.305 282.163 295.17 289.635 295.17C299.108 295.17 308.58 295.395 317.947 295.831L318.233 295.847L314.249 299.079Z" fill="url(#paint7_linear)"/>
<g opacity="0.5608">
<path opacity="0.5608" d="M228.382 21.4741L231.479 370.766L231.058 370.781L227.976 21.4892L228.382 21.4741Z" fill="url(#paint8_linear)"/>
<g opacity="0.5608">
<path opacity="0.5608" d="M229.735 21.5487C229.72 20.6916 229.028 20 228.156 20C227.299 20 226.607 20.7067 226.607 21.5787C226.607 22.4358 227.314 23.1274 228.186 23.1274C229.058 23.1124 229.75 22.4057 229.735 21.5487Z" fill="url(#paint9_linear)"/>
</g>
</g>
<g opacity="0.5608">
<path opacity="0.5608" d="M307.001 220.739L308.369 375.41H307.963L306.595 220.739H307.001Z" fill="url(#paint10_linear)"/>
<g opacity="0.5608">
<path opacity="0.5608" d="M308.354 220.8C308.339 219.943 307.647 219.251 306.775 219.251C305.918 219.266 305.227 219.958 305.227 220.83C305.242 221.687 305.933 222.378 306.805 222.378C307.677 222.378 308.369 221.672 308.354 220.8Z" fill="url(#paint11_linear)"/>
</g>
</g>
<g opacity="0.5608">
<path opacity="0.5608" d="M324.517 169.979L326.486 391.589H326.065L324.111 169.979H324.517Z" fill="url(#paint12_linear)"/>
<g opacity="0.5608">
<path opacity="0.5608" d="M325.871 170.04C325.856 169.183 325.164 168.491 324.292 168.491C323.435 168.491 322.743 169.198 322.743 170.07C322.758 170.927 323.45 171.619 324.322 171.619C325.194 171.604 325.886 170.897 325.871 170.04Z" fill="url(#paint13_linear)"/>
</g>
</g>
<g opacity="0.5608">
<path opacity="0.5608" d="M284.825 360.888L284.99 379.653L281.667 379.683L281.517 362.287L272.676 353.596L272.435 327.554L277.713 322.187L277.502 298.295L263.925 284.959L263.474 233.477L276.044 220.682L275.217 126.619L278.54 126.589L279.382 222.02L266.797 234.815L267.233 283.545L280.81 296.882L281.051 323.525L275.773 328.893L275.984 352.198L284.825 360.888Z" fill="url(#paint14_linear)"/>
<g opacity="0.5608">
<path opacity="0.5608" d="M286.825 129.416L276.751 112.305L266.978 129.596L286.825 129.416Z" fill="url(#paint15_linear)"/>
</g>
</g>
<g opacity="0.5608">
<path opacity="0.5608" d="M291.487 339.354L291.667 359.938L291.607 360.013L288.87 362.794L289.021 379.604L288.615 379.619L288.465 362.614L288.525 362.554L291.246 359.772L291.066 339.534L286.51 335.054L286.314 312.32H286.72L286.931 334.873L291.487 339.354Z" fill="url(#paint16_linear)"/>
<g opacity="0.5608">
<path opacity="0.5608" d="M288.074 312.396C288.059 311.539 287.368 310.848 286.495 310.848C285.638 310.848 284.947 311.554 284.947 312.426C284.947 313.283 285.653 313.975 286.526 313.975C287.398 313.96 288.089 313.253 288.074 312.396Z" fill="url(#paint17_linear)"/>
</g>
</g>
<g opacity="0.5608">
<path opacity="0.5608" d="M278.767 373.503L278.812 379.697L278.406 379.712L278.346 373.668L269.384 364.872L268.903 310.804H269.324L269.805 364.692L278.767 373.503Z" fill="url(#paint18_linear)"/>
<g opacity="0.5608">
<path opacity="0.5608" d="M270.677 310.863C270.662 310.006 269.97 309.314 269.098 309.314C268.241 309.329 267.549 310.021 267.549 310.893C267.549 311.75 268.256 312.441 269.128 312.441C269.985 312.426 270.677 311.72 270.677 310.863Z" fill="url(#paint19_linear)"/>
</g>
</g>
<g opacity="0.5608">
<path opacity="0.5608" d="M268.51 142.541L269.172 216.23H268.751L268.104 142.541H268.51Z" fill="url(#paint20_linear)"/>
<g opacity="0.5608">
<path opacity="0.5608" d="M269.864 142.6C269.849 141.743 269.157 141.051 268.285 141.051C267.428 141.051 266.736 141.758 266.736 142.63C266.751 143.487 267.443 144.179 268.315 144.179C269.187 144.164 269.879 143.457 269.864 142.6Z" fill="url(#paint21_linear)"/>
</g>
</g>
<path d="M272.9 201.196L277.019 198.955L271.456 198.113L267.352 200.354L272.9 201.196Z" fill="url(#paint22_linear)"/>
<path d="M271.757 196.112L275.877 193.872L271.486 193.195L267.367 195.436L271.757 196.112Z" fill="url(#paint23_linear)"/>
<path d="M276.914 210.503L281.019 208.277L281.064 201.902L276.959 204.143L276.914 210.503Z" fill="url(#paint24_linear)"/>
<path d="M274.81 196.081L278.914 193.856L278.854 193.841L274.734 196.081H274.81Z" fill="#B4B4B4"/>
<path d="M276.971 201.812L281.076 199.572L281.091 196.986L276.986 199.211L276.971 201.812Z" fill="#190E7F"/>
<path d="M273.29 191.976L270.238 184.669L274.343 182.428L277.395 189.736C277.5 190.021 277.605 190.292 277.71 190.562C277.846 190.908 277.951 191.239 278.071 191.57C278.147 191.78 278.222 191.976 278.282 192.186C278.477 192.758 278.673 193.314 278.853 193.84L274.748 196.081C274.568 195.569 274.388 195.013 274.177 194.427C274.117 194.231 274.027 194.021 273.967 193.81C273.741 193.224 273.531 192.607 273.29 191.976Z" fill="url(#paint25_linear)"/>
<path d="M270.237 184.671L274.342 182.431L269.741 181.754L265.636 183.979L270.237 184.671Z" fill="url(#paint26_linear)"/>
<path d="M282.489 202.637L286.594 200.397L281.076 199.57L276.971 201.81L282.489 202.637Z" fill="url(#paint27_linear)"/>
<path d="M282.476 204.953L286.596 202.728V200.397L282.491 202.638L282.476 204.953Z" fill="url(#paint28_linear)"/>
<path d="M282.507 200.037L286.612 197.797L286.627 195.481L282.522 197.722L282.507 200.037Z" fill="url(#paint29_linear)"/>
<path d="M282.521 197.719L286.626 195.479L282.205 194.817L278.101 197.058L282.521 197.719Z" fill="url(#paint30_linear)"/>
<path d="M284.054 186.743L288.158 184.503L283.452 183.812L279.333 186.037L284.054 186.743Z" fill="url(#paint31_linear)"/>
<path d="M278.101 197.06L282.205 194.819L288.159 184.505L284.055 186.745L278.101 197.06Z" fill="url(#paint32_linear)"/>
<path d="M267.35 200.353L267.335 202.683L272.898 203.51L272.853 209.9L276.912 210.517L276.958 204.157L282.476 204.969L282.491 202.653L276.973 201.811L276.988 199.225L282.506 200.037L282.521 197.721L278.1 197.06L284.054 186.745L279.348 186.039L276.326 192.489C275.68 193.797 275.289 194.94 274.822 196.083L274.747 196.068C274.326 194.865 273.875 193.466 273.289 191.963L270.237 184.656L265.636 183.964L271.755 196.083L267.365 195.406L267.35 197.736L272.913 198.578L272.898 201.165L267.35 200.353Z" fill="url(#paint33_linear)"/>
<path d="M363.941 115.504L372.722 110.722L360.829 108.918L352.048 113.699L363.941 115.504Z" fill="url(#paint34_linear)"/>
<path d="M361.476 104.618L370.272 99.837L360.89 98.3936L352.094 103.175L361.476 104.618Z" fill="url(#paint35_linear)"/>
<path d="M372.495 135.412L381.291 130.631L381.381 117.023L372.585 121.805L372.495 135.412Z" fill="url(#paint36_linear)"/>
<path d="M367.999 104.574L376.795 99.7923L376.645 99.7622L367.849 104.544L367.999 104.574Z" fill="#B4B4B4"/>
<path d="M372.617 116.798L381.413 112.016L381.443 106.483L372.647 111.265L372.617 116.798Z" fill="#190E7F"/>
<path d="M364.755 95.7798L358.245 80.1578L367.04 75.3765L373.551 90.9984C373.776 91.5999 374.002 92.1862 374.212 92.7726C374.483 93.5244 374.724 94.216 374.979 94.9378C375.13 95.3888 375.295 95.8098 375.445 96.2458C375.866 97.4788 376.272 98.6666 376.648 99.7642L367.852 104.545C367.476 103.448 367.071 102.245 366.65 101.027C366.499 100.606 366.334 100.155 366.183 99.7191C365.732 98.4561 365.281 97.148 364.755 95.7798Z" fill="url(#paint37_linear)"/>
<path d="M358.229 80.1568L367.025 75.3754L357.177 73.917L348.381 78.6983L358.229 80.1568Z" fill="url(#paint38_linear)"/>
<path d="M384.435 118.587L393.23 113.805L381.413 112.016L372.617 116.797L384.435 118.587Z" fill="url(#paint39_linear)"/>
<path d="M384.406 123.548L393.202 118.766L393.232 113.805L384.436 118.586L384.406 123.548Z" fill="url(#paint40_linear)"/>
<path d="M384.465 113.008L393.261 108.226L393.291 103.28L384.495 108.061L384.465 113.008Z" fill="url(#paint41_linear)"/>
<path d="M384.496 108.062L393.292 103.281L383.82 101.867L375.039 106.649L384.496 108.062Z" fill="url(#paint42_linear)"/>
<path d="M387.774 84.6067L396.57 79.8253L386.481 78.3218L377.7 83.1031L387.774 84.6067Z" fill="url(#paint43_linear)"/>
<path d="M375.039 106.649L383.82 101.867L396.57 79.8252L387.774 84.6065L375.039 106.649Z" fill="url(#paint44_linear)"/>
<path d="M352.049 113.7L352.019 118.692L363.912 120.451L363.822 134.103L372.512 135.411L372.602 121.804L384.42 123.548L384.45 118.602L372.632 116.812L372.663 111.279L384.481 113.023L384.511 108.062L375.053 106.648L387.788 84.6063L377.714 83.1027L371.249 96.9054C369.866 99.717 369.024 102.138 368.017 104.574L367.866 104.558C366.979 101.972 366.002 99.0103 364.769 95.7927L358.258 80.1708L348.41 78.6973L361.506 104.619L352.124 103.175L352.094 108.167L363.987 109.956L363.957 115.489L352.049 113.7Z" fill="url(#paint45_linear)"/>
<path d="M285.92 323.916L281.815 321.675L287.379 320.833L291.483 323.074L285.92 323.916Z" fill="url(#paint46_linear)"/>
<path d="M287.063 318.817L282.958 316.592L287.348 315.915L291.453 318.14L287.063 318.817Z" fill="url(#paint47_linear)"/>
<path d="M281.921 333.222L277.801 330.982L277.771 324.622L281.876 326.862L281.921 333.222Z" fill="url(#paint48_linear)"/>
<path d="M284.026 318.803L279.906 316.562H279.981L284.086 318.788L284.026 318.803Z" fill="#B4B4B4"/>
<path d="M281.861 324.517L277.757 322.292L277.742 319.706L281.846 321.931L281.861 324.517Z" fill="#190E7F"/>
<path d="M285.543 314.699L288.595 307.392L284.491 305.152L281.438 312.459C281.333 312.745 281.228 313.015 281.123 313.286C280.987 313.632 280.882 313.963 280.762 314.293C280.687 314.504 280.611 314.699 280.551 314.91C280.356 315.481 280.16 316.038 279.98 316.564L284.085 318.804C284.265 318.293 284.446 317.737 284.656 317.15C284.716 316.955 284.806 316.744 284.867 316.534C285.077 315.947 285.288 315.331 285.543 314.699Z" fill="url(#paint49_linear)"/>
<path d="M288.595 307.39L284.475 305.15L289.076 304.458L293.196 306.699L288.595 307.39Z" fill="url(#paint50_linear)"/>
<path d="M276.34 325.357L272.22 323.117L277.753 322.29L281.858 324.515L276.34 325.357Z" fill="url(#paint51_linear)"/>
<path d="M276.34 327.673L272.235 325.433L272.22 323.118L276.34 325.358V327.673Z" fill="url(#paint52_linear)"/>
<path d="M276.326 322.757L272.206 320.517L272.191 318.201L276.311 320.426L276.326 322.757Z" fill="url(#paint53_linear)"/>
<path d="M276.311 320.424L272.191 318.199L276.626 317.538L280.731 319.778L276.311 320.424Z" fill="url(#paint54_linear)"/>
<path d="M274.778 309.467L270.659 307.227L275.38 306.535L279.485 308.76L274.778 309.467Z" fill="url(#paint55_linear)"/>
<path d="M280.733 319.779L276.628 317.539L270.659 307.225L274.778 309.465L280.733 319.779Z" fill="url(#paint56_linear)"/>
<path d="M291.483 323.073L291.498 325.403L285.935 326.23L285.98 332.62L281.921 333.237L281.876 326.877L276.358 327.689L276.342 325.373L281.861 324.531L281.846 321.945L276.327 322.757L276.312 320.442L280.733 319.78L274.779 309.466L279.485 308.759L282.507 315.209C283.154 316.517 283.545 317.66 284.011 318.803L284.086 318.788C284.507 317.585 284.958 316.187 285.544 314.683L288.597 307.376L293.197 306.684L287.078 318.803L291.468 318.126L291.483 320.457L285.92 321.299L285.935 323.885L291.483 323.073Z" fill="url(#paint57_linear)"/>
<path d="M357.431 329.6L353.326 327.36L358.889 326.518L362.994 328.758L357.431 329.6Z" fill="url(#paint58_linear)"/>
<path d="M358.573 324.502L354.469 322.262L358.859 321.585L362.964 323.825L358.573 324.502Z" fill="url(#paint59_linear)"/>
<path d="M353.432 338.907L349.312 336.667L349.267 330.307L353.387 332.547L353.432 338.907Z" fill="url(#paint60_linear)"/>
<path d="M355.522 324.486L351.417 322.246L351.492 322.23L355.597 324.471L355.522 324.486Z" fill="#B4B4B4"/>
<path d="M353.372 330.202L349.252 327.962V325.376L353.357 327.616L353.372 330.202Z" fill="#190E7F"/>
<path d="M357.054 320.365L360.106 313.058L356.001 310.818L352.949 318.125C352.844 318.411 352.739 318.681 352.633 318.952C352.498 319.298 352.393 319.629 352.273 319.96C352.197 320.17 352.122 320.365 352.062 320.576C351.867 321.147 351.671 321.704 351.491 322.23L355.595 324.47C355.776 323.959 355.956 323.403 356.167 322.816C356.227 322.621 356.317 322.41 356.377 322.2C356.588 321.613 356.798 321.012 357.054 320.365Z" fill="url(#paint61_linear)"/>
<path d="M360.091 313.06L355.986 310.835L360.587 310.143L364.706 312.383L360.091 313.06Z" fill="url(#paint62_linear)"/>
<path d="M347.836 331.042L343.731 328.802L349.249 327.96L353.369 330.2L347.836 331.042Z" fill="url(#paint63_linear)"/>
<path d="M347.851 333.358L343.746 331.118L343.731 328.802L347.836 331.043L347.851 333.358Z" fill="url(#paint64_linear)"/>
<path d="M347.821 328.427L343.717 326.187L343.702 323.871L347.821 326.111V328.427Z" fill="url(#paint65_linear)"/>
<path d="M347.821 326.109L343.702 323.869L348.122 323.208L352.242 325.448L347.821 326.109Z" fill="url(#paint66_linear)"/>
<path d="M346.289 315.148L342.169 312.908L346.891 312.201L350.995 314.441L346.289 315.148Z" fill="url(#paint67_linear)"/>
<path d="M352.243 325.449L348.124 323.209L342.169 312.909L346.289 315.149L352.243 325.449Z" fill="url(#paint68_linear)"/>
<path d="M362.994 328.757L363.009 331.088L357.446 331.915L357.491 338.305L353.431 338.921L353.386 332.561L347.868 333.373L347.853 331.058L353.371 330.216L353.356 327.63L347.838 328.442L347.823 326.126L352.244 325.465L346.29 315.15L350.996 314.444L354.018 320.894C354.664 322.202 355.055 323.345 355.521 324.487L355.597 324.472C356.018 323.269 356.469 321.871 357.055 320.368L360.107 313.06L364.708 312.369L358.589 324.487L362.979 323.811L362.994 326.141L357.431 326.983L357.446 329.569L362.994 328.757Z" fill="url(#paint69_linear)"/>
<path d="M348.786 182.233L346.801 181.151C347.598 181.587 348.485 181.692 349.523 181.542C349.538 181.542 349.553 181.542 349.583 181.527C350.891 181.331 352.139 180.76 352.831 180.264L354.815 181.346C354.139 181.827 352.891 182.414 351.568 182.609C351.553 182.609 351.537 182.609 351.507 182.624C350.47 182.79 349.583 182.669 348.786 182.233Z" fill="url(#paint70_linear)"/>
<path d="M346.77 178.338L344.786 177.255L351.928 176.173L353.912 177.255L346.77 178.338Z" fill="url(#paint71_linear)"/>
<path d="M347.164 174.7L345.179 173.618L351.915 172.61L353.9 173.693L347.164 174.7Z" fill="url(#paint72_linear)"/>
<path d="M346.563 185.016L344.578 183.933C344.172 183.707 343.781 183.437 343.45 183.106C342.548 182.279 341.886 181.061 341.556 179.633L343.54 180.715C343.871 182.144 344.533 183.362 345.435 184.189C345.781 184.519 346.157 184.79 346.563 185.016Z" fill="url(#paint73_linear)"/>
<path d="M343.269 177.182L341.285 176.1C341.225 176.46 341.225 176.821 341.225 177.047C341.225 177.212 341.255 177.453 341.255 177.784L343.239 178.866C343.239 178.535 343.209 178.295 343.209 178.129C343.224 177.904 343.224 177.558 343.269 177.182Z" fill="url(#paint74_linear)"/>
<path d="M341.6 181.016L339.601 179.933V178.023L341.585 179.106L341.6 181.016Z" fill="url(#paint75_linear)"/>
<path d="M341.585 179.105L339.601 178.023L341.27 177.782L343.254 178.865L341.585 179.105Z" fill="url(#paint76_linear)"/>
<path d="M353.086 167.167C352.35 166.897 351.102 166.611 349.358 166.867C349.327 166.867 349.297 166.882 349.267 166.882C347.057 167.213 344.922 168.37 343.419 170.235C342.531 171.332 341.855 172.686 341.539 174.174L343.524 175.257C343.84 173.768 344.516 172.415 345.403 171.317C346.907 169.453 349.057 168.295 351.252 167.964C351.282 167.964 351.312 167.949 351.342 167.949C353.086 167.709 354.334 167.994 355.071 168.25L353.086 167.167Z" fill="url(#paint77_linear)"/>
<path d="M341.6 175.542L339.601 174.46L341.54 174.174L343.525 175.256L341.6 175.542Z" fill="url(#paint78_linear)"/>
<path d="M351.343 167.935C353.087 167.695 354.335 167.981 355.072 168.236L354.35 171.048C353.764 170.822 352.802 170.612 351.523 170.792C351.508 170.792 351.478 170.792 351.463 170.807C350.215 170.988 349.028 171.589 348.125 172.687C347.659 173.243 347.298 173.935 347.163 174.701L353.899 173.694L353.914 175.589L346.757 176.671C346.727 177.002 346.727 177.288 346.727 177.483C346.727 177.739 346.727 177.994 346.757 178.34L353.914 177.273L353.929 179.167L347.193 180.174C347.374 180.851 347.674 181.392 348.095 181.768C349.043 182.58 350.155 182.836 351.508 182.64C351.523 182.64 351.539 182.64 351.569 182.625C352.877 182.43 354.125 181.858 354.816 181.362L355.252 183.963C354.44 184.595 352.847 185.392 350.997 185.662C350.967 185.662 350.937 185.677 350.907 185.677C348.832 185.963 346.832 185.497 345.434 184.189C344.532 183.362 343.87 182.144 343.54 180.716L341.6 181.001L341.585 179.107L343.254 178.851C343.254 178.521 343.224 178.28 343.224 178.115C343.224 177.889 343.224 177.543 343.284 177.167L341.615 177.423L341.6 175.528L343.54 175.243C343.855 173.754 344.532 172.401 345.419 171.303C346.923 169.439 349.073 168.281 351.268 167.951C351.298 167.951 351.328 167.951 351.343 167.935Z" fill="url(#paint79_linear)"/>
<path d="M341.6 177.437L339.616 176.355L339.601 174.46L341.6 175.543V177.437Z" fill="url(#paint80_linear)"/>
<path d="M239.144 362.783L236.212 361.189C237.37 361.821 238.693 361.986 240.211 361.776C240.241 361.776 240.272 361.761 240.287 361.761C242.211 361.475 244.06 360.633 245.053 359.911L247.985 361.505C246.977 362.227 245.143 363.069 243.219 363.354C243.188 363.354 243.158 363.369 243.143 363.369C241.64 363.58 240.317 363.414 239.144 362.783Z" fill="url(#paint81_linear)"/>
<path d="M236.184 357.036L233.252 355.442L243.777 353.863L246.694 355.457L236.184 357.036Z" fill="url(#paint82_linear)"/>
<path d="M236.756 351.699L233.839 350.105L243.748 348.616L246.665 350.21L236.756 351.699Z" fill="url(#paint83_linear)"/>
<path d="M235.883 366.856L232.951 365.262C232.349 364.931 231.793 364.541 231.282 364.059C229.959 362.841 228.982 361.052 228.485 358.947L231.417 360.541C231.913 362.646 232.891 364.435 234.214 365.653C234.725 366.119 235.281 366.525 235.883 366.856Z" fill="url(#paint84_linear)"/>
<path d="M231.043 355.337L228.111 353.744C228.021 354.285 228.036 354.796 228.036 355.127C228.036 355.367 228.081 355.728 228.081 356.209L231.013 357.803C231.013 357.322 230.968 356.961 230.968 356.721C230.953 356.39 230.953 355.879 231.043 355.337Z" fill="url(#paint85_linear)"/>
<path d="M228.561 360.963L225.644 359.369L225.629 356.587L228.546 358.181L228.561 360.963Z" fill="url(#paint86_linear)"/>
<path d="M228.546 358.18L225.629 356.586L228.08 356.21L231.012 357.804L228.546 358.18Z" fill="url(#paint87_linear)"/>
<path d="M245.492 340.589C244.41 340.198 242.56 339.777 240.004 340.138C239.959 340.138 239.929 340.153 239.884 340.153C236.636 340.649 233.494 342.333 231.268 345.085C229.96 346.694 228.968 348.694 228.502 350.889L231.434 352.482C231.9 350.287 232.892 348.288 234.2 346.679C236.426 343.927 239.568 342.228 242.816 341.747C242.861 341.747 242.906 341.732 242.936 341.732C245.507 341.371 247.342 341.792 248.424 342.183L245.492 340.589Z" fill="url(#paint88_linear)"/>
<path d="M228.56 352.919L225.644 351.325L228.485 350.904L231.417 352.498L228.56 352.919Z" fill="url(#paint89_linear)"/>
<path d="M242.918 341.733C245.489 341.372 247.324 341.793 248.406 342.184L247.339 346.319C246.467 345.988 245.053 345.687 243.174 345.943C243.144 345.943 243.114 345.958 243.084 345.958C241.249 346.229 239.49 347.116 238.182 348.725C237.491 349.536 236.964 350.559 236.754 351.687L246.662 350.198L246.677 352.98L236.152 354.558C236.107 355.039 236.107 355.46 236.107 355.746C236.107 356.122 236.122 356.498 236.167 357.009L246.692 355.43L246.707 358.212L236.799 359.701C237.07 360.708 237.521 361.49 238.137 362.061C239.535 363.249 241.174 363.625 243.144 363.339C243.174 363.339 243.204 363.324 243.219 363.324C245.144 363.038 246.993 362.196 247.985 361.475L248.632 365.309C247.444 366.241 245.083 367.399 242.377 367.805C242.332 367.805 242.287 367.82 242.242 367.82C239.175 368.256 236.243 367.549 234.198 365.625C232.875 364.407 231.897 362.617 231.401 360.512L228.544 360.948L228.529 358.152L230.98 357.791C230.98 357.31 230.935 356.949 230.935 356.708C230.935 356.378 230.935 355.866 231.01 355.325L228.559 355.701L228.544 352.904L231.386 352.483C231.852 350.288 232.845 348.289 234.153 346.68C236.378 343.928 239.52 342.229 242.768 341.748C242.843 341.748 242.873 341.748 242.918 341.733Z" fill="url(#paint90_linear)"/>
<path d="M228.575 355.714L225.659 354.12L225.644 351.323L228.56 352.917L228.575 355.714Z" fill="url(#paint91_linear)"/>
<path d="M348.049 299.783L339.479 295.122L339.403 285.154L347.974 289.815L348.049 299.783Z" fill="url(#paint92_linear)"/>
<path d="M350.74 230.74L342.169 226.079C344.199 227.176 347.327 228.093 351.913 229.101C356.153 230.018 359.701 231.251 362.633 232.845L371.203 237.506C368.286 235.912 364.723 234.679 360.483 233.762C355.897 232.754 352.77 231.837 350.74 230.74Z" fill="url(#paint93_linear)"/>
<path d="M346.53 252.301L355.1 256.962C357.536 258.285 358.378 259.954 358.393 262.495C358.423 266.856 355.265 270.043 347.597 271.201C340.425 272.208 331.058 270.269 326.578 267.983L318.007 263.322C322.488 265.608 331.855 267.547 339.027 266.54C346.695 265.382 349.853 262.21 349.823 257.834C349.808 255.293 348.966 253.624 346.53 252.301Z" fill="url(#paint94_linear)"/>
<path d="M322.217 287.65L313.646 282.989L317.992 263.307L326.562 267.968L322.217 287.65Z" fill="url(#paint95_linear)"/>
<path d="M360.962 198.686L352.392 194.024C359.594 193.603 365.849 194.536 369.833 196.099L378.404 200.76C374.419 199.197 368.149 198.249 360.962 198.686Z" fill="url(#paint96_linear)"/>
<path d="M347.341 190.46L338.786 185.799L352.318 183.754L360.888 188.415L347.341 190.46Z" fill="url(#paint97_linear)"/>
<path d="M347.416 201.344L338.846 196.683L338.786 185.797L347.341 190.458L347.416 201.344Z" fill="url(#paint98_linear)"/>
<path d="M335.161 250.361L326.59 245.7C318.546 241.324 315.284 234.739 315.314 227.477C315.223 213.884 324.2 201.886 338.859 196.699L347.43 201.36C332.77 206.562 323.794 218.56 323.884 232.138C323.854 239.4 327.117 245.985 335.161 250.361Z" fill="url(#paint99_linear)"/>
<path d="M360.889 188.415L360.964 198.669C368.166 198.248 374.421 199.18 378.405 200.744L374.225 219.719C370.677 218.245 363.851 216.501 357.205 217.433C350.95 218.38 347.522 221.478 347.552 225.793C347.582 229.883 350.74 231.582 360.498 233.732C375.608 236.979 381.968 244.392 382.164 256.887C382.224 269.276 375.263 280.132 361.52 285.995L361.61 297.738L348.078 299.768L348.003 289.799C347.808 289.83 347.597 289.86 347.402 289.89C337.298 291.303 328.201 290.175 322.247 287.634L326.592 267.953C331.073 270.238 340.44 272.178 347.612 271.17C355.28 270.013 358.438 266.84 358.408 262.465C358.393 258.029 355.852 256.255 346.695 254.316C330.141 250.932 323.871 242.167 323.901 232.108C323.811 218.516 332.787 206.517 347.447 201.33L347.372 190.444L360.889 188.415Z" fill="url(#paint100_linear)"/>
<path d="M288.627 267.996L285.966 266.538L285.936 263.425L288.612 264.884L288.627 267.996Z" fill="url(#paint101_linear)"/>
<path d="M289.471 246.449L286.795 244.99C287.426 245.336 288.404 245.622 289.832 245.937C291.155 246.223 292.268 246.614 293.17 247.11L295.846 248.569C294.929 248.073 293.832 247.682 292.508 247.396C291.08 247.065 290.118 246.795 289.471 246.449Z" fill="url(#paint102_linear)"/>
<path d="M288.162 253.173L290.839 254.632C291.605 255.053 291.861 255.564 291.861 256.361C291.876 257.729 290.884 258.706 288.493 259.082C286.253 259.398 283.336 258.797 281.938 258.075L279.261 256.616C280.66 257.323 283.576 257.94 285.817 257.624C288.207 257.263 289.2 256.271 289.185 254.902C289.185 254.106 288.914 253.594 288.162 253.173Z" fill="url(#paint103_linear)"/>
<path d="M280.584 264.207L277.908 262.749L279.261 256.614L281.937 258.058L280.584 264.207Z" fill="url(#paint104_linear)"/>
<path d="M292.655 236.435L289.979 234.977C292.219 234.842 294.173 235.142 295.421 235.623L298.098 237.082C296.865 236.601 294.91 236.315 292.655 236.435Z" fill="url(#paint105_linear)"/>
<path d="M288.418 233.88L285.741 232.422L289.966 231.79L292.643 233.248L288.418 233.88Z" fill="url(#paint106_linear)"/>
<path d="M288.435 237.279L285.773 235.821L285.743 232.423L288.419 233.881L288.435 237.279Z" fill="url(#paint107_linear)"/>
<path d="M284.612 252.569L281.936 251.111C279.425 249.743 278.402 247.683 278.417 245.428C278.387 241.188 281.184 237.444 285.77 235.82L288.446 237.278C283.875 238.902 281.063 242.646 281.094 246.886C281.079 249.141 282.101 251.201 284.612 252.569Z" fill="url(#paint108_linear)"/>
<path d="M292.644 233.25L292.659 236.453C294.899 236.318 296.854 236.618 298.102 237.1L296.794 243.024C295.681 242.558 293.561 242.016 291.486 242.317C289.531 242.618 288.464 243.58 288.479 244.933C288.479 246.211 289.471 246.737 292.523 247.414C297.245 248.436 299.229 250.737 299.289 254.631C299.304 258.495 297.139 261.878 292.854 263.713L292.884 267.381L288.659 268.013L288.644 264.9C288.584 264.915 288.524 264.915 288.464 264.93C285.306 265.366 282.48 265.021 280.615 264.224L281.968 258.074C283.367 258.781 286.284 259.397 288.524 259.082C290.915 258.721 291.907 257.728 291.892 256.36C291.892 254.977 291.095 254.421 288.238 253.819C283.066 252.767 281.111 250.03 281.126 246.888C281.096 242.648 283.893 238.904 288.479 237.28L288.464 233.882L292.644 233.25Z" fill="url(#paint109_linear)"/>
<path d="M329.69 164.044L327.676 162.962L327.661 160.616L329.675 161.714L329.69 164.044Z" fill="url(#paint110_linear)"/>
<path d="M330.321 147.864L328.306 146.767C328.787 147.022 329.509 147.233 330.592 147.473C331.584 147.684 332.426 147.984 333.103 148.345L335.117 149.443C334.426 149.067 333.599 148.781 332.606 148.571C331.524 148.33 330.802 148.12 330.321 147.864Z" fill="url(#paint111_linear)"/>
<path d="M329.33 152.915L331.345 154.013C331.916 154.328 332.112 154.719 332.112 155.306C332.127 156.328 331.375 157.08 329.586 157.351C327.902 157.591 325.706 157.125 324.654 156.599L322.639 155.501C323.692 156.042 325.887 156.494 327.571 156.253C329.375 155.982 330.112 155.231 330.097 154.208C330.097 153.607 329.901 153.216 329.33 152.915Z" fill="url(#paint112_linear)"/>
<path d="M323.631 161.201L321.617 160.119L322.639 155.503L324.654 156.585L323.631 161.201Z" fill="url(#paint113_linear)"/>
<path d="M332.712 140.345L330.697 139.248C332.381 139.142 333.855 139.368 334.787 139.729L336.802 140.826C335.87 140.466 334.396 140.24 332.712 140.345Z" fill="url(#paint114_linear)"/>
<path d="M329.525 138.407L327.51 137.325L330.682 136.844L332.697 137.941L329.525 138.407Z" fill="url(#paint115_linear)"/>
<path d="M329.54 140.964L327.525 139.882L327.51 137.326L329.525 138.408L329.54 140.964Z" fill="url(#paint116_linear)"/>
<path d="M326.668 152.465L324.653 151.368C322.774 150.345 322.007 148.796 322.007 147.097C321.992 143.91 324.097 141.098 327.525 139.88L329.54 140.978C326.097 142.196 323.992 145.008 324.022 148.195C324.022 149.894 324.773 151.428 326.668 152.465Z" fill="url(#paint117_linear)"/>
<path d="M332.697 137.942L332.712 140.348C334.396 140.242 335.87 140.468 336.802 140.829L335.825 145.279C334.998 144.933 333.389 144.527 331.825 144.738C330.352 144.964 329.555 145.685 329.555 146.693C329.555 147.655 330.307 148.046 332.592 148.557C336.14 149.324 337.629 151.053 337.674 153.985C337.689 156.887 336.05 159.443 332.833 160.811L332.848 163.563L329.675 164.044L329.66 161.713C329.615 161.713 329.57 161.728 329.525 161.728C327.149 162.059 325.029 161.803 323.631 161.202L324.653 156.586C325.706 157.127 327.901 157.578 329.585 157.338C331.389 157.067 332.126 156.315 332.111 155.293C332.111 154.256 331.51 153.835 329.359 153.383C325.48 152.587 324.007 150.542 324.007 148.181C323.992 144.994 326.097 142.182 329.525 140.964L329.51 138.408L332.697 137.942Z" fill="url(#paint118_linear)"/>
<path d="M212.952 145.079L209.569 143.245L209.539 139.306L212.922 141.155L212.952 145.079Z" fill="url(#paint119_linear)"/>
<path d="M214.006 117.835L210.623 116C211.419 116.437 212.652 116.797 214.472 117.188C216.141 117.549 217.554 118.045 218.697 118.662L222.08 120.496C220.922 119.865 219.524 119.383 217.855 119.023C216.05 118.632 214.817 118.271 214.006 117.835Z" fill="url(#paint120_linear)"/>
<path d="M212.351 126.346L215.734 128.181C216.697 128.707 217.028 129.368 217.028 130.361C217.043 132.09 215.795 133.338 212.772 133.789C209.946 134.18 206.247 133.413 204.473 132.511L201.09 130.676C202.864 131.579 206.563 132.345 209.389 131.954C212.412 131.503 213.66 130.24 213.645 128.526C213.645 127.519 213.314 126.872 212.351 126.346Z" fill="url(#paint121_linear)"/>
<path d="M202.758 140.3L199.375 138.451L201.09 130.692L204.473 132.527L202.758 140.3Z" fill="url(#paint122_linear)"/>
<path d="M218.035 105.192L214.652 103.358C217.494 103.193 219.96 103.553 221.539 104.185L224.922 106.019C223.343 105.388 220.877 105.027 218.035 105.192Z" fill="url(#paint123_linear)"/>
<path d="M212.667 101.944L209.284 100.109L214.636 99.2974L218.004 101.147L212.667 101.944Z" fill="url(#paint124_linear)"/>
<path d="M212.697 106.242L209.314 104.408L209.284 100.107L212.667 101.942L212.697 106.242Z" fill="url(#paint125_linear)"/>
<path d="M207.855 125.581L204.472 123.746C201.299 122.017 200.006 119.416 200.021 116.559C199.991 111.192 203.524 106.471 209.313 104.411L212.696 106.245C206.907 108.29 203.374 113.026 203.404 118.394C203.404 121.251 204.682 123.852 207.855 125.581Z" fill="url(#paint126_linear)"/>
<path d="M218.004 101.147L218.034 105.192C220.876 105.027 223.342 105.387 224.92 106.019L223.266 113.507C221.868 112.92 219.177 112.229 216.545 112.605C214.08 112.98 212.726 114.198 212.741 115.897C212.756 117.506 213.989 118.183 217.854 119.04C223.808 120.318 226.334 123.25 226.409 128.166C226.439 133.053 223.687 137.338 218.259 139.654L218.29 144.285L212.952 145.081L212.922 141.142C212.847 141.157 212.772 141.172 212.681 141.172C208.697 141.728 205.103 141.292 202.758 140.285L204.472 132.512C206.246 133.414 209.945 134.181 212.772 133.79C215.794 133.339 217.042 132.076 217.027 130.362C217.012 128.617 216.019 127.911 212.411 127.144C205.885 125.806 203.404 122.348 203.419 118.378C203.389 113.011 206.923 108.289 212.711 106.229L212.681 101.929L218.004 101.147Z" fill="url(#paint127_linear)"/>
<path d="M219.913 249.654L211.072 244.858L211.012 234.588L219.853 239.4L219.913 249.654Z" fill="url(#paint128_linear)"/>
<path d="M208.246 251.412L199.42 246.616L199.36 236.347L208.186 241.158L208.246 251.412Z" fill="url(#paint129_linear)"/>
<path d="M233.462 197.48C231.537 196.428 229.252 195.826 226.636 195.646L235.477 200.457C238.093 200.638 240.378 201.239 242.303 202.292L233.462 197.48Z" fill="url(#paint130_linear)"/>
<path d="M229.568 210.877L220.727 206.065C221.314 206.381 221.795 206.787 222.156 207.283C222.907 208.321 223.313 209.899 223.328 212.004C223.343 213.628 223.043 215.087 222.426 216.425C221.825 217.763 220.682 218.936 219.028 219.928C217.419 220.906 215.63 221.567 213.691 221.883C211.751 222.199 208.548 222.71 204.068 223.371L212.909 228.183C217.389 227.521 220.592 227.025 222.532 226.694C224.471 226.379 226.26 225.717 227.869 224.74C229.538 223.732 230.666 222.574 231.267 221.236C231.884 219.913 232.184 218.44 232.169 216.816C232.154 214.711 231.763 213.117 230.997 212.095C230.636 211.614 230.155 211.208 229.568 210.877Z" fill="url(#paint131_linear)"/>
<path d="M211.719 228.377L202.894 223.566L204.051 223.385L212.892 228.197L211.719 228.377Z" fill="#7F3DFF"/>
<path d="M227.342 187.059C226.996 186.368 226.47 185.826 225.778 185.451L216.937 180.639C217.644 181.015 218.17 181.556 218.501 182.248C219.027 183.285 219.283 184.353 219.298 185.451C219.298 186.894 219.087 188.172 218.651 189.345C218.215 190.503 217.283 191.525 215.839 192.427C214.817 193.089 213.419 193.6 211.645 193.961C209.87 194.322 207.735 194.697 205.194 195.073L202.713 195.434L211.554 200.246L214.035 199.885C216.561 199.509 218.711 199.148 220.485 198.772C222.26 198.426 223.658 197.915 224.68 197.238C226.124 196.351 227.056 195.314 227.492 194.156C227.928 192.983 228.139 191.705 228.139 190.262C228.124 189.149 227.868 188.082 227.342 187.059Z" fill="url(#paint132_linear)"/>
<path d="M229.914 168.717L238.755 173.528C238.319 173.288 237.868 173.077 237.402 172.897C235.117 172.01 232.831 171.558 230.501 171.558C229.569 171.558 228.411 171.619 227.043 171.739L218.202 166.928C219.57 166.807 220.728 166.747 221.66 166.747C223.99 166.762 226.291 167.198 228.561 168.085C229.027 168.281 229.493 168.491 229.914 168.717Z" fill="url(#paint133_linear)"/>
<path d="M215.391 173.288L206.55 168.476L210.579 167.86L219.42 172.671L215.391 173.288Z" fill="url(#paint134_linear)"/>
<path d="M219.358 162.657L210.517 157.861L218.125 156.703L226.966 161.515L219.358 162.657Z" fill="url(#paint135_linear)"/>
<path d="M219.418 172.67L210.577 167.859L210.517 157.86L219.358 162.656L219.418 172.67Z" fill="url(#paint136_linear)"/>
<path d="M207.78 174.431L198.939 169.62L198.864 159.591L207.705 164.402L207.78 174.431Z" fill="url(#paint137_linear)"/>
<path d="M207.705 164.4L198.864 159.589L206.487 158.461L215.328 163.258L207.705 164.4Z" fill="url(#paint138_linear)"/>
<path d="M195.933 242.993L187.092 238.197L186.671 171.454L195.512 176.265L195.933 242.993Z" fill="url(#paint139_linear)"/>
<path d="M245.145 204.38C247.536 206.74 248.739 210.153 248.769 214.604C248.784 217.836 248.197 220.798 247.01 223.535C245.807 226.256 244.183 228.602 242.078 230.587C239.657 232.917 236.981 234.736 234.064 235.999C232.2 236.811 229.959 237.503 227.463 238.059L227.523 248.509L219.915 249.652L219.855 239.397L215.811 240.014L215.886 250.253L208.263 251.411L208.203 241.157L195.934 242.991L195.513 176.263L207.782 174.429L207.707 164.4L215.33 163.257L215.39 173.286L219.419 172.669L219.359 162.656L226.967 161.498L227.027 171.722C228.395 171.602 229.553 171.542 230.485 171.542C232.816 171.557 235.116 171.993 237.387 172.88C239.747 173.827 241.507 175.286 242.664 177.27C243.822 179.27 244.423 181.661 244.438 184.442C244.469 187.66 243.702 190.622 242.123 193.328C240.559 196.02 238.349 198.275 235.462 200.094V200.44C239.522 200.711 242.754 202.019 245.145 204.38ZM231.267 221.249C231.884 219.926 232.184 218.453 232.169 216.829C232.154 214.724 231.763 213.13 230.997 212.108C230.23 211.055 228.937 210.409 227.102 210.108C225.839 209.898 224.14 209.958 221.945 210.243C219.75 210.544 217.48 210.875 215.104 211.236L211.631 211.762L211.721 228.376L212.879 228.196C217.359 227.534 220.562 227.038 222.502 226.707C224.441 226.392 226.23 225.73 227.839 224.753C229.523 223.745 230.651 222.588 231.267 221.249ZM211.465 186.111L211.571 200.215L214.052 199.854C216.578 199.478 218.728 199.117 220.502 198.741C222.276 198.395 223.674 197.884 224.697 197.208C226.14 196.32 227.072 195.283 227.508 194.125C227.944 192.952 228.155 191.674 228.155 190.231C228.14 189.133 227.884 188.066 227.358 187.028C226.847 185.991 225.93 185.314 224.637 184.969C223.464 184.668 222.02 184.638 220.276 184.848C219.419 184.954 218.382 185.089 217.164 185.254C215.946 185.42 214.548 185.63 212.984 185.871L211.465 186.111Z" fill="url(#paint140_linear)"/>
<path d="M195.512 176.264L186.671 171.453L198.94 169.618L207.781 174.43L195.512 176.264Z" fill="url(#paint141_linear)"/>
<defs>
<radialGradient id="paint0_radial" cx="0" cy="0" r="1" gradientUnits="userSpaceOnUse" gradientTransform="translate(289.581 444.208) scale(223.588 66.0305)">
<stop stop-color="#5E05C5" stop-opacity="0.6"/>
<stop offset="0.1472" stop-color="#8744D4" stop-opacity="0.503"/>
<stop offset="0.2962" stop-color="#AB7CE1" stop-opacity="0.4047"/>
<stop offset="0.4412" stop-color="#C9ABEC" stop-opacity="0.3091"/>
<stop offset="0.5784" stop-color="#E0D0F4" stop-opacity="0.2186"/>
<stop offset="0.7059" stop-color="#F1EAFA" stop-opacity="0.1345"/>
<stop offset="0.8202" stop-color="#FBF9FE" stop-opacity="0.0592"/>
<stop offset="0.91" stop-color="white" stop-opacity="0"/>
</radialGradient>
<linearGradient id="paint1_linear" x1="266.97" y1="300.476" x2="318.212" y2="300.476" gradientUnits="userSpaceOnUse">
<stop stop-color="#3721A7"/>
<stop offset="0.592" stop-color="#5247B5"/>
<stop offset="1" stop-color="#6663BF"/>
</linearGradient>
<linearGradient id="paint2_linear" x1="321.546" y1="327.238" x2="484.548" y2="327.238" gradientUnits="userSpaceOnUse">
<stop stop-color="#3721A7"/>
<stop offset="0.592" stop-color="#5247B5"/>
<stop offset="1" stop-color="#6663BF"/>
</linearGradient>
<linearGradient id="paint3_linear" x1="191.065" y1="406.204" x2="402.802" y2="406.204" gradientUnits="userSpaceOnUse">
<stop stop-color="#3721A7"/>
<stop offset="0.592" stop-color="#5247B5"/>
<stop offset="1" stop-color="#6663BF"/>
</linearGradient>
<linearGradient id="paint4_linear" x1="93.3646" y1="328.753" x2="262.766" y2="328.753" gradientUnits="userSpaceOnUse">
<stop stop-color="#3721A7"/>
<stop offset="0.592" stop-color="#5247B5"/>
<stop offset="1" stop-color="#6663BF"/>
</linearGradient>
<linearGradient id="paint5_linear" x1="374.676" y1="381.473" x2="487.268" y2="381.473" gradientUnits="userSpaceOnUse">
<stop stop-color="#3721A7"/>
<stop offset="0.592" stop-color="#5247B5"/>
<stop offset="1" stop-color="#6663BF"/>
</linearGradient>
<linearGradient id="paint6_linear" x1="91.8993" y1="384.451" x2="212.471" y2="384.451" gradientUnits="userSpaceOnUse">
<stop stop-color="#3721A7"/>
<stop offset="0.592" stop-color="#5247B5"/>
<stop offset="1" stop-color="#6663BF"/>
</linearGradient>
<linearGradient id="paint7_linear" x1="91.8974" y1="359.898" x2="487.265" y2="359.898" gradientUnits="userSpaceOnUse">
<stop stop-color="#7583FF"/>
<stop offset="1" stop-color="#DBDFFF"/>
</linearGradient>
<linearGradient id="paint8_linear" x1="227.972" y1="196.127" x2="231.476" y2="196.127" gradientUnits="userSpaceOnUse">
<stop stop-color="#D6BFFF"/>
<stop offset="1" stop-color="#8E52FF" stop-opacity="0.1"/>
</linearGradient>
<linearGradient id="paint9_linear" x1="226.621" y1="21.5595" x2="229.74" y2="21.5595" gradientUnits="userSpaceOnUse">
<stop stop-color="#D6BFFF"/>
<stop offset="1" stop-color="#8E52FF" stop-opacity="0.1"/>
</linearGradient>
<linearGradient id="paint10_linear" x1="306.593" y1="298.076" x2="308.376" y2="298.076" gradientUnits="userSpaceOnUse">
<stop stop-color="#D6BFFF"/>
<stop offset="1" stop-color="#8E52FF" stop-opacity="0.1"/>
</linearGradient>
<linearGradient id="paint11_linear" x1="305.241" y1="220.819" x2="308.361" y2="220.819" gradientUnits="userSpaceOnUse">
<stop stop-color="#D6BFFF"/>
<stop offset="1" stop-color="#8E52FF" stop-opacity="0.1"/>
</linearGradient>
<linearGradient id="paint12_linear" x1="324.109" y1="280.784" x2="326.483" y2="280.784" gradientUnits="userSpaceOnUse">
<stop stop-color="#D6BFFF"/>
<stop offset="1" stop-color="#8E52FF" stop-opacity="0.1"/>
</linearGradient>
<linearGradient id="paint13_linear" x1="322.758" y1="170.054" x2="325.878" y2="170.054" gradientUnits="userSpaceOnUse">
<stop stop-color="#D6BFFF"/>
<stop offset="1" stop-color="#8E52FF" stop-opacity="0.1"/>
</linearGradient>
<linearGradient id="paint14_linear" x1="263.472" y1="253.132" x2="284.99" y2="253.132" gradientUnits="userSpaceOnUse">
<stop stop-color="#D6BFFF"/>
<stop offset="1" stop-color="#8E52FF" stop-opacity="0.1"/>
</linearGradient>
<linearGradient id="paint15_linear" x1="266.974" y1="120.953" x2="286.83" y2="120.953" gradientUnits="userSpaceOnUse">
<stop stop-color="#D6BFFF"/>
<stop offset="1" stop-color="#8E52FF" stop-opacity="0.1"/>
</linearGradient>
<linearGradient id="paint16_linear" x1="286.31" y1="345.967" x2="291.668" y2="345.967" gradientUnits="userSpaceOnUse">
<stop stop-color="#D6BFFF"/>
<stop offset="1" stop-color="#8E52FF" stop-opacity="0.1"/>
</linearGradient>
<linearGradient id="paint17_linear" x1="284.959" y1="312.403" x2="288.078" y2="312.403" gradientUnits="userSpaceOnUse">
<stop stop-color="#D6BFFF"/>
<stop offset="1" stop-color="#8E52FF" stop-opacity="0.1"/>
</linearGradient>
<linearGradient id="paint18_linear" x1="268.909" y1="345.251" x2="278.817" y2="345.251" gradientUnits="userSpaceOnUse">
<stop stop-color="#D6BFFF"/>
<stop offset="1" stop-color="#8E52FF" stop-opacity="0.1"/>
</linearGradient>
<linearGradient id="paint19_linear" x1="267.557" y1="310.875" x2="270.676" y2="310.875" gradientUnits="userSpaceOnUse">
<stop stop-color="#D6BFFF"/>
<stop offset="1" stop-color="#8E52FF" stop-opacity="0.1"/>
</linearGradient>
<linearGradient id="paint20_linear" x1="268.099" y1="179.387" x2="269.165" y2="179.387" gradientUnits="userSpaceOnUse">
<stop stop-color="#D6BFFF"/>
<stop offset="1" stop-color="#8E52FF" stop-opacity="0.1"/>
</linearGradient>
<linearGradient id="paint21_linear" x1="266.747" y1="142.616" x2="269.866" y2="142.616" gradientUnits="userSpaceOnUse">
<stop stop-color="#D6BFFF"/>
<stop offset="1" stop-color="#8E52FF" stop-opacity="0.1"/>
</linearGradient>
<linearGradient id="paint22_linear" x1="273.202" y1="199.764" x2="268.833" y2="199.312" gradientUnits="userSpaceOnUse">
<stop stop-color="#3721A7"/>
<stop offset="0.592" stop-color="#5247B5"/>
<stop offset="1" stop-color="#6663BF"/>
</linearGradient>
<linearGradient id="paint23_linear" x1="271.991" y1="194.679" x2="267.573" y2="194.327" gradientUnits="userSpaceOnUse">
<stop stop-color="#3721A7"/>
<stop offset="0.592" stop-color="#5247B5"/>
<stop offset="1" stop-color="#6663BF"/>
</linearGradient>
<linearGradient id="paint24_linear" x1="278.977" y1="203.888" x2="279.027" y2="213.629" gradientUnits="userSpaceOnUse">
<stop stop-color="#5247B5"/>
<stop offset="1" stop-color="#D6BFFF"/>
</linearGradient>
<linearGradient id="paint25_linear" x1="278.847" y1="189.253" x2="270.24" y2="189.253" gradientUnits="userSpaceOnUse">
<stop stop-color="#3721A7"/>
<stop offset="0.592" stop-color="#5247B5"/>
<stop offset="1" stop-color="#6663BF"/>
</linearGradient>
<linearGradient id="paint26_linear" x1="274.349" y1="183.209" x2="265.634" y2="183.209" gradientUnits="userSpaceOnUse">
<stop stop-color="#5247B5"/>
<stop offset="1" stop-color="#D6BFFF"/>
</linearGradient>
<linearGradient id="paint27_linear" x1="279.702" y1="200.994" x2="283.518" y2="201.195" gradientUnits="userSpaceOnUse">
<stop stop-color="#3721A7"/>
<stop offset="0.592" stop-color="#5247B5"/>
<stop offset="1" stop-color="#6663BF"/>
</linearGradient>
<linearGradient id="paint28_linear" x1="286.603" y1="202.68" x2="282.479" y2="202.68" gradientUnits="userSpaceOnUse">
<stop stop-color="#5247B5"/>
<stop offset="1" stop-color="#D6BFFF"/>
</linearGradient>
<linearGradient id="paint29_linear" x1="286.631" y1="197.756" x2="282.507" y2="197.756" gradientUnits="userSpaceOnUse">
<stop stop-color="#5247B5"/>
<stop offset="1" stop-color="#D6BFFF"/>
</linearGradient>
<linearGradient id="paint30_linear" x1="280.968" y1="196.065" x2="285.185" y2="196.668" gradientUnits="userSpaceOnUse">
<stop stop-color="#3721A7"/>
<stop offset="0.592" stop-color="#5247B5"/>
<stop offset="1" stop-color="#6663BF"/>
</linearGradient>
<linearGradient id="paint31_linear" x1="288.161" y1="185.277" x2="279.338" y2="185.277" gradientUnits="userSpaceOnUse">
<stop stop-color="#5247B5"/>
<stop offset="1" stop-color="#D6BFFF"/>
</linearGradient>
<linearGradient id="paint32_linear" x1="288.161" y1="190.783" x2="278.096" y2="190.783" gradientUnits="userSpaceOnUse">
<stop stop-color="#3721A7"/>
<stop offset="0.592" stop-color="#5247B5"/>
<stop offset="1" stop-color="#6663BF"/>
</linearGradient>
<linearGradient id="paint33_linear" x1="275.561" y1="209.792" x2="274.958" y2="189.305" gradientUnits="userSpaceOnUse">
<stop stop-color="#7583FF"/>
<stop offset="1" stop-color="#DBDFFF"/>
</linearGradient>
<linearGradient id="paint34_linear" x1="364.567" y1="112.435" x2="355.224" y2="111.469" gradientUnits="userSpaceOnUse">
<stop stop-color="#3721A7"/>
<stop offset="0.592" stop-color="#5247B5"/>
<stop offset="1" stop-color="#6663BF"/>
</linearGradient>
<linearGradient id="paint35_linear" x1="361.979" y1="101.564" x2="352.53" y2="100.812" gradientUnits="userSpaceOnUse">
<stop stop-color="#3721A7"/>
<stop offset="0.592" stop-color="#5247B5"/>
<stop offset="1" stop-color="#6663BF"/>
</linearGradient>
<linearGradient id="paint36_linear" x1="376.915" y1="121.256" x2="377.023" y2="142.088" gradientUnits="userSpaceOnUse">
<stop stop-color="#5247B5"/>
<stop offset="1" stop-color="#D6BFFF"/>
</linearGradient>
<linearGradient id="paint37_linear" x1="376.643" y1="89.9652" x2="358.235" y2="89.9652" gradientUnits="userSpaceOnUse">
<stop stop-color="#3721A7"/>
<stop offset="0.592" stop-color="#5247B5"/>
<stop offset="1" stop-color="#6663BF"/>
</linearGradient>
<linearGradient id="paint38_linear" x1="367.024" y1="77.0343" x2="348.388" y2="77.0343" gradientUnits="userSpaceOnUse">
<stop stop-color="#5247B5"/>
<stop offset="1" stop-color="#D6BFFF"/>
</linearGradient>
<linearGradient id="paint39_linear" x1="378.474" y1="115.071" x2="386.635" y2="115.501" gradientUnits="userSpaceOnUse">
<stop stop-color="#3721A7"/>
<stop offset="0.592" stop-color="#5247B5"/>
<stop offset="1" stop-color="#6663BF"/>
</linearGradient>
<linearGradient id="paint40_linear" x1="393.229" y1="118.675" x2="384.41" y2="118.675" gradientUnits="userSpaceOnUse">
<stop stop-color="#5247B5"/>
<stop offset="1" stop-color="#D6BFFF"/>
</linearGradient>
<linearGradient id="paint41_linear" x1="393.285" y1="108.141" x2="384.466" y2="108.141" gradientUnits="userSpaceOnUse">
<stop stop-color="#5247B5"/>
<stop offset="1" stop-color="#D6BFFF"/>
</linearGradient>
<linearGradient id="paint42_linear" x1="381.178" y1="104.533" x2="390.198" y2="105.821" gradientUnits="userSpaceOnUse">
<stop stop-color="#3721A7"/>
<stop offset="0.592" stop-color="#5247B5"/>
<stop offset="1" stop-color="#6663BF"/>
</linearGradient>
<linearGradient id="paint43_linear" x1="396.563" y1="81.4608" x2="377.695" y2="81.4608" gradientUnits="userSpaceOnUse">
<stop stop-color="#5247B5"/>
<stop offset="1" stop-color="#D6BFFF"/>
</linearGradient>
<linearGradient id="paint44_linear" x1="396.563" y1="93.2315" x2="375.037" y2="93.2315" gradientUnits="userSpaceOnUse">
<stop stop-color="#3721A7"/>
<stop offset="0.592" stop-color="#5247B5"/>
<stop offset="1" stop-color="#6663BF"/>
</linearGradient>
<linearGradient id="paint45_linear" x1="369.616" y1="133.883" x2="368.327" y2="90.0708" gradientUnits="userSpaceOnUse">
<stop stop-color="#7583FF"/>
<stop offset="1" stop-color="#DBDFFF"/>
</linearGradient>
<linearGradient id="paint46_linear" x1="285.628" y1="322.483" x2="289.996" y2="322.031" gradientUnits="userSpaceOnUse">
<stop stop-color="#3721A7"/>
<stop offset="0.592" stop-color="#5247B5"/>
<stop offset="1" stop-color="#6663BF"/>
</linearGradient>
<linearGradient id="paint47_linear" x1="286.838" y1="317.397" x2="291.256" y2="317.045" gradientUnits="userSpaceOnUse">
<stop stop-color="#3721A7"/>
<stop offset="0.592" stop-color="#5247B5"/>
<stop offset="1" stop-color="#6663BF"/>
</linearGradient>
<linearGradient id="paint48_linear" x1="279.853" y1="326.606" x2="279.802" y2="336.348" gradientUnits="userSpaceOnUse">
<stop stop-color="#5247B5"/>
<stop offset="1" stop-color="#D6BFFF"/>
</linearGradient>
<linearGradient id="paint49_linear" x1="279.98" y1="311.975" x2="288.588" y2="311.975" gradientUnits="userSpaceOnUse">
<stop stop-color="#3721A7"/>
<stop offset="0.592" stop-color="#5247B5"/>
<stop offset="1" stop-color="#6663BF"/>
</linearGradient>
<linearGradient id="paint50_linear" x1="284.478" y1="305.927" x2="293.192" y2="305.927" gradientUnits="userSpaceOnUse">
<stop stop-color="#5247B5"/>
<stop offset="1" stop-color="#D6BFFF"/>
</linearGradient>
<linearGradient id="paint51_linear" x1="279.122" y1="323.713" x2="275.305" y2="323.914" gradientUnits="userSpaceOnUse">
<stop stop-color="#3721A7"/>
<stop offset="0.592" stop-color="#5247B5"/>
<stop offset="1" stop-color="#6663BF"/>
</linearGradient>
<linearGradient id="paint52_linear" x1="272.223" y1="325.399" x2="276.347" y2="325.399" gradientUnits="userSpaceOnUse">
<stop stop-color="#5247B5"/>
<stop offset="1" stop-color="#D6BFFF"/>
</linearGradient>
<linearGradient id="paint53_linear" x1="272.197" y1="320.474" x2="276.32" y2="320.474" gradientUnits="userSpaceOnUse">
<stop stop-color="#5247B5"/>
<stop offset="1" stop-color="#D6BFFF"/>
</linearGradient>
<linearGradient id="paint54_linear" x1="277.859" y1="318.784" x2="273.641" y2="319.386" gradientUnits="userSpaceOnUse">
<stop stop-color="#3721A7"/>
<stop offset="0.592" stop-color="#5247B5"/>
<stop offset="1" stop-color="#6663BF"/>
</linearGradient>
<linearGradient id="paint55_linear" x1="270.666" y1="307.999" x2="279.489" y2="307.999" gradientUnits="userSpaceOnUse">
<stop stop-color="#5247B5"/>
<stop offset="1" stop-color="#D6BFFF"/>
</linearGradient>
<linearGradient id="paint56_linear" x1="270.666" y1="313.501" x2="280.732" y2="313.501" gradientUnits="userSpaceOnUse">
<stop stop-color="#3721A7"/>
<stop offset="0.592" stop-color="#5247B5"/>
<stop offset="1" stop-color="#6663BF"/>
</linearGradient>
<linearGradient id="paint57_linear" x1="283.267" y1="332.51" x2="283.869" y2="312.023" gradientUnits="userSpaceOnUse">
<stop stop-color="#7583FF"/>
<stop offset="1" stop-color="#DBDFFF"/>
</linearGradient>
<linearGradient id="paint58_linear" x1="357.135" y1="328.162" x2="361.504" y2="327.71" gradientUnits="userSpaceOnUse">
<stop stop-color="#3721A7"/>
<stop offset="0.592" stop-color="#5247B5"/>
<stop offset="1" stop-color="#6663BF"/>
</linearGradient>
<linearGradient id="paint59_linear" x1="358.346" y1="323.077" x2="362.764" y2="322.725" gradientUnits="userSpaceOnUse">
<stop stop-color="#3721A7"/>
<stop offset="0.592" stop-color="#5247B5"/>
<stop offset="1" stop-color="#6663BF"/>
</linearGradient>
<linearGradient id="paint60_linear" x1="351.361" y1="332.286" x2="351.311" y2="342.027" gradientUnits="userSpaceOnUse">
<stop stop-color="#5247B5"/>
<stop offset="1" stop-color="#D6BFFF"/>
</linearGradient>
<linearGradient id="paint61_linear" x1="351.488" y1="317.65" x2="360.096" y2="317.65" gradientUnits="userSpaceOnUse">
<stop stop-color="#3721A7"/>
<stop offset="0.592" stop-color="#5247B5"/>
<stop offset="1" stop-color="#6663BF"/>
</linearGradient>
<linearGradient id="paint62_linear" x1="355.985" y1="311.606" x2="364.7" y2="311.606" gradientUnits="userSpaceOnUse">
<stop stop-color="#5247B5"/>
<stop offset="1" stop-color="#D6BFFF"/>
</linearGradient>
<linearGradient id="paint63_linear" x1="350.629" y1="329.393" x2="346.813" y2="329.594" gradientUnits="userSpaceOnUse">
<stop stop-color="#3721A7"/>
<stop offset="0.592" stop-color="#5247B5"/>
<stop offset="1" stop-color="#6663BF"/>
</linearGradient>
<linearGradient id="paint64_linear" x1="343.731" y1="331.078" x2="347.854" y2="331.078" gradientUnits="userSpaceOnUse">
<stop stop-color="#5247B5"/>
<stop offset="1" stop-color="#D6BFFF"/>
</linearGradient>
<linearGradient id="paint65_linear" x1="343.705" y1="326.153" x2="347.828" y2="326.153" gradientUnits="userSpaceOnUse">
<stop stop-color="#5247B5"/>
<stop offset="1" stop-color="#D6BFFF"/>
</linearGradient>
<linearGradient id="paint66_linear" x1="349.366" y1="324.463" x2="345.149" y2="325.066" gradientUnits="userSpaceOnUse">
<stop stop-color="#3721A7"/>
<stop offset="0.592" stop-color="#5247B5"/>
<stop offset="1" stop-color="#6663BF"/>
</linearGradient>
<linearGradient id="paint67_linear" x1="342.174" y1="313.674" x2="350.997" y2="313.674" gradientUnits="userSpaceOnUse">
<stop stop-color="#5247B5"/>
<stop offset="1" stop-color="#D6BFFF"/>
</linearGradient>
<linearGradient id="paint68_linear" x1="342.174" y1="319.18" x2="352.24" y2="319.18" gradientUnits="userSpaceOnUse">
<stop stop-color="#3721A7"/>
<stop offset="0.592" stop-color="#5247B5"/>
<stop offset="1" stop-color="#6663BF"/>
</linearGradient>
<linearGradient id="paint69_linear" x1="354.774" y1="338.19" x2="355.377" y2="317.703" gradientUnits="userSpaceOnUse">
<stop stop-color="#7583FF"/>
<stop offset="1" stop-color="#DBDFFF"/>
</linearGradient>
<linearGradient id="paint70_linear" x1="346.798" y1="181.492" x2="354.809" y2="181.492" gradientUnits="userSpaceOnUse">
<stop stop-color="#3721A7"/>
<stop offset="0.592" stop-color="#5247B5"/>
<stop offset="1" stop-color="#6663BF"/>
</linearGradient>
<linearGradient id="paint71_linear" x1="344.778" y1="177.256" x2="353.917" y2="177.256" gradientUnits="userSpaceOnUse">
<stop stop-color="#3721A7"/>
<stop offset="0.592" stop-color="#5247B5"/>
<stop offset="1" stop-color="#6663BF"/>
</linearGradient>
<linearGradient id="paint72_linear" x1="346.672" y1="173.848" x2="363.316" y2="172.759" gradientUnits="userSpaceOnUse">
<stop stop-color="#5247B5"/>
<stop offset="1" stop-color="#D6BFFF"/>
</linearGradient>
<linearGradient id="paint73_linear" x1="341.547" y1="182.324" x2="346.568" y2="182.324" gradientUnits="userSpaceOnUse">
<stop stop-color="#3721A7"/>
<stop offset="0.592" stop-color="#5247B5"/>
<stop offset="1" stop-color="#6663BF"/>
</linearGradient>
<linearGradient id="paint74_linear" x1="341.23" y1="177.484" x2="343.274" y2="177.484" gradientUnits="userSpaceOnUse">
<stop stop-color="#3721A7"/>
<stop offset="0.592" stop-color="#5247B5"/>
<stop offset="1" stop-color="#6663BF"/>
</linearGradient>
<linearGradient id="paint75_linear" x1="339.596" y1="179.519" x2="341.596" y2="179.519" gradientUnits="userSpaceOnUse">
<stop stop-color="#5247B5"/>
<stop offset="1" stop-color="#D6BFFF"/>
</linearGradient>
<linearGradient id="paint76_linear" x1="342.713" y1="178.988" x2="340.263" y2="177.957" gradientUnits="userSpaceOnUse">
<stop stop-color="#5247B5"/>
<stop offset="1" stop-color="#D6BFFF"/>
</linearGradient>
<linearGradient id="paint77_linear" x1="341.538" y1="171.007" x2="355.082" y2="171.007" gradientUnits="userSpaceOnUse">
<stop stop-color="#5247B5"/>
<stop offset="1" stop-color="#D6BFFF"/>
</linearGradient>
<linearGradient id="paint78_linear" x1="339.606" y1="174.856" x2="343.529" y2="174.856" gradientUnits="userSpaceOnUse">
<stop stop-color="#5247B5"/>
<stop offset="1" stop-color="#D6BFFF"/>
</linearGradient>
<linearGradient id="paint79_linear" x1="341.585" y1="176.808" x2="355.245" y2="176.808" gradientUnits="userSpaceOnUse">
<stop stop-color="#7583FF"/>
<stop offset="1" stop-color="#DBDFFF"/>
</linearGradient>
<linearGradient id="paint80_linear" x1="339.606" y1="175.95" x2="341.606" y2="175.95" gradientUnits="userSpaceOnUse">
<stop stop-color="#5247B5"/>
<stop offset="1" stop-color="#D6BFFF"/>
</linearGradient>
<linearGradient id="paint81_linear" x1="236.221" y1="361.678" x2="248.008" y2="361.678" gradientUnits="userSpaceOnUse">
<stop stop-color="#3721A7"/>
<stop offset="0.592" stop-color="#5247B5"/>
<stop offset="1" stop-color="#6663BF"/>
</linearGradient>
<linearGradient id="paint82_linear" x1="233.253" y1="355.444" x2="246.7" y2="355.444" gradientUnits="userSpaceOnUse">
<stop stop-color="#3721A7"/>
<stop offset="0.592" stop-color="#5247B5"/>
<stop offset="1" stop-color="#6663BF"/>
</linearGradient>
<linearGradient id="paint83_linear" x1="236.036" y1="350.428" x2="260.526" y2="348.826" gradientUnits="userSpaceOnUse">
<stop stop-color="#5247B5"/>
<stop offset="1" stop-color="#D6BFFF"/>
</linearGradient>
<linearGradient id="paint84_linear" x1="228.494" y1="362.9" x2="235.882" y2="362.9" gradientUnits="userSpaceOnUse">
<stop stop-color="#3721A7"/>
<stop offset="0.592" stop-color="#5247B5"/>
<stop offset="1" stop-color="#6663BF"/>
</linearGradient>
<linearGradient id="paint85_linear" x1="228.03" y1="355.777" x2="231.037" y2="355.777" gradientUnits="userSpaceOnUse">
<stop stop-color="#3721A7"/>
<stop offset="0.592" stop-color="#5247B5"/>
<stop offset="1" stop-color="#6663BF"/>
</linearGradient>
<linearGradient id="paint86_linear" x1="225.624" y1="358.775" x2="228.567" y2="358.775" gradientUnits="userSpaceOnUse">
<stop stop-color="#5247B5"/>
<stop offset="1" stop-color="#D6BFFF"/>
</linearGradient>
<linearGradient id="paint87_linear" x1="230.21" y1="357.993" x2="226.605" y2="356.477" gradientUnits="userSpaceOnUse">
<stop stop-color="#5247B5"/>
<stop offset="1" stop-color="#D6BFFF"/>
</linearGradient>
<linearGradient id="paint88_linear" x1="228.485" y1="346.251" x2="248.412" y2="346.251" gradientUnits="userSpaceOnUse">
<stop stop-color="#5247B5"/>
<stop offset="1" stop-color="#D6BFFF"/>
</linearGradient>
<linearGradient id="paint89_linear" x1="225.639" y1="351.914" x2="231.411" y2="351.914" gradientUnits="userSpaceOnUse">
<stop stop-color="#5247B5"/>
<stop offset="1" stop-color="#D6BFFF"/>
</linearGradient>
<linearGradient id="paint90_linear" x1="228.55" y1="354.784" x2="248.649" y2="354.784" gradientUnits="userSpaceOnUse">
<stop stop-color="#7583FF"/>
<stop offset="1" stop-color="#DBDFFF"/>
</linearGradient>
<linearGradient id="paint91_linear" x1="225.639" y1="353.521" x2="228.582" y2="353.521" gradientUnits="userSpaceOnUse">
<stop stop-color="#5247B5"/>
<stop offset="1" stop-color="#D6BFFF"/>
</linearGradient>
<linearGradient id="paint92_linear" x1="339.408" y1="292.474" x2="348.049" y2="292.474" gradientUnits="userSpaceOnUse">
<stop stop-color="#3721A7"/>
<stop offset="0.592" stop-color="#5247B5"/>
<stop offset="1" stop-color="#6663BF"/>
</linearGradient>
<linearGradient id="paint93_linear" x1="342.174" y1="231.789" x2="371.2" y2="231.789" gradientUnits="userSpaceOnUse">
<stop stop-color="#5247B5"/>
<stop offset="1" stop-color="#D6BFFF"/>
</linearGradient>
<linearGradient id="paint94_linear" x1="317.996" y1="261.88" x2="358.385" y2="261.88" gradientUnits="userSpaceOnUse">
<stop stop-color="#3721A7"/>
<stop offset="0.592" stop-color="#5247B5"/>
<stop offset="1" stop-color="#6663BF"/>
</linearGradient>
<linearGradient id="paint95_linear" x1="313.653" y1="275.483" x2="326.565" y2="275.483" gradientUnits="userSpaceOnUse">
<stop stop-color="#5247B5"/>
<stop offset="1" stop-color="#D6BFFF"/>
</linearGradient>
<linearGradient id="paint96_linear" x1="360.804" y1="196.378" x2="379.23" y2="198.974" gradientUnits="userSpaceOnUse">
<stop stop-color="#5247B5"/>
<stop offset="1" stop-color="#D6BFFF"/>
</linearGradient>
<linearGradient id="paint97_linear" x1="338.778" y1="187.106" x2="360.885" y2="187.106" gradientUnits="userSpaceOnUse">
<stop stop-color="#5247B5"/>
<stop offset="1" stop-color="#D6BFFF"/>
</linearGradient>
<linearGradient id="paint98_linear" x1="343.098" y1="199.666" x2="343.098" y2="177.831" gradientUnits="userSpaceOnUse">
<stop stop-color="#5247B5"/>
<stop offset="1" stop-color="#D6BFFF"/>
</linearGradient>
<linearGradient id="paint99_linear" x1="331.36" y1="247.686" x2="331.36" y2="193.065" gradientUnits="userSpaceOnUse">
<stop stop-color="#5247B5"/>
<stop offset="1" stop-color="#D6BFFF"/>
</linearGradient>
<linearGradient id="paint100_linear" x1="322.223" y1="244.104" x2="382.151" y2="244.104" gradientUnits="userSpaceOnUse">
<stop stop-color="#7583FF"/>
<stop offset="1" stop-color="#DBDFFF"/>
</linearGradient>
<linearGradient id="paint101_linear" x1="285.938" y1="265.708" x2="288.634" y2="265.708" gradientUnits="userSpaceOnUse">
<stop stop-color="#3721A7"/>
<stop offset="0.592" stop-color="#5247B5"/>
<stop offset="1" stop-color="#6663BF"/>
</linearGradient>
<linearGradient id="paint102_linear" x1="286.803" y1="246.772" x2="295.86" y2="246.772" gradientUnits="userSpaceOnUse">
<stop stop-color="#5247B5"/>
<stop offset="1" stop-color="#D6BFFF"/>
</linearGradient>
<linearGradient id="paint103_linear" x1="279.258" y1="256.165" x2="291.86" y2="256.165" gradientUnits="userSpaceOnUse">
<stop stop-color="#3721A7"/>
<stop offset="0.592" stop-color="#5247B5"/>
<stop offset="1" stop-color="#6663BF"/>
</linearGradient>
<linearGradient id="paint104_linear" x1="277.903" y1="260.407" x2="281.932" y2="260.407" gradientUnits="userSpaceOnUse">
<stop stop-color="#5247B5"/>
<stop offset="1" stop-color="#D6BFFF"/>
</linearGradient>
<linearGradient id="paint105_linear" x1="292.613" y1="235.723" x2="298.362" y2="236.533" gradientUnits="userSpaceOnUse">
<stop stop-color="#5247B5"/>
<stop offset="1" stop-color="#D6BFFF"/>
</linearGradient>
<linearGradient id="paint106_linear" x1="285.742" y1="232.831" x2="292.64" y2="232.831" gradientUnits="userSpaceOnUse">
<stop stop-color="#5247B5"/>
<stop offset="1" stop-color="#D6BFFF"/>
</linearGradient>
<linearGradient id="paint107_linear" x1="287.092" y1="236.752" x2="287.092" y2="229.938" gradientUnits="userSpaceOnUse">
<stop stop-color="#5247B5"/>
<stop offset="1" stop-color="#D6BFFF"/>
</linearGradient>
<linearGradient id="paint108_linear" x1="283.427" y1="251.733" x2="283.427" y2="234.691" gradientUnits="userSpaceOnUse">
<stop stop-color="#5247B5"/>
<stop offset="1" stop-color="#D6BFFF"/>
</linearGradient>
<linearGradient id="paint109_linear" x1="280.578" y1="250.618" x2="299.277" y2="250.618" gradientUnits="userSpaceOnUse">
<stop stop-color="#7583FF"/>
<stop offset="1" stop-color="#DBDFFF"/>
</linearGradient>
<linearGradient id="paint110_linear" x1="327.662" y1="162.337" x2="329.688" y2="162.337" gradientUnits="userSpaceOnUse">
<stop stop-color="#3721A7"/>
<stop offset="0.592" stop-color="#5247B5"/>
<stop offset="1" stop-color="#6663BF"/>
</linearGradient>
<linearGradient id="paint111_linear" x1="328.31" y1="148.105" x2="335.116" y2="148.105" gradientUnits="userSpaceOnUse">
<stop stop-color="#5247B5"/>
<stop offset="1" stop-color="#D6BFFF"/>
</linearGradient>
<linearGradient id="paint112_linear" x1="322.642" y1="155.16" x2="332.112" y2="155.16" gradientUnits="userSpaceOnUse">
<stop stop-color="#3721A7"/>
<stop offset="0.592" stop-color="#5247B5"/>
<stop offset="1" stop-color="#6663BF"/>
</linearGradient>
<linearGradient id="paint113_linear" x1="321.623" y1="158.351" x2="324.651" y2="158.351" gradientUnits="userSpaceOnUse">
<stop stop-color="#5247B5"/>
<stop offset="1" stop-color="#D6BFFF"/>
</linearGradient>
<linearGradient id="paint114_linear" x1="332.679" y1="139.8" x2="337" y2="140.408" gradientUnits="userSpaceOnUse">
<stop stop-color="#5247B5"/>
<stop offset="1" stop-color="#D6BFFF"/>
</linearGradient>
<linearGradient id="paint115_linear" x1="327.514" y1="137.628" x2="332.698" y2="137.628" gradientUnits="userSpaceOnUse">
<stop stop-color="#5247B5"/>
<stop offset="1" stop-color="#D6BFFF"/>
</linearGradient>
<linearGradient id="paint116_linear" x1="328.527" y1="140.574" x2="328.527" y2="135.454" gradientUnits="userSpaceOnUse">
<stop stop-color="#5247B5"/>
<stop offset="1" stop-color="#D6BFFF"/>
</linearGradient>
<linearGradient id="paint117_linear" x1="325.775" y1="151.832" x2="325.775" y2="139.025" gradientUnits="userSpaceOnUse">
<stop stop-color="#5247B5"/>
<stop offset="1" stop-color="#D6BFFF"/>
</linearGradient>
<linearGradient id="paint118_linear" x1="323.632" y1="150.994" x2="337.685" y2="150.994" gradientUnits="userSpaceOnUse">
<stop stop-color="#7583FF"/>
<stop offset="1" stop-color="#DBDFFF"/>
</linearGradient>
<linearGradient id="paint119_linear" x1="209.537" y1="142.196" x2="212.946" y2="142.196" gradientUnits="userSpaceOnUse">
<stop stop-color="#3721A7"/>
<stop offset="0.592" stop-color="#5247B5"/>
<stop offset="1" stop-color="#6663BF"/>
</linearGradient>
<linearGradient id="paint120_linear" x1="210.629" y1="118.252" x2="222.081" y2="118.252" gradientUnits="userSpaceOnUse">
<stop stop-color="#5247B5"/>
<stop offset="1" stop-color="#D6BFFF"/>
</linearGradient>
<linearGradient id="paint121_linear" x1="201.09" y1="130.126" x2="217.025" y2="130.126" gradientUnits="userSpaceOnUse">
<stop stop-color="#3721A7"/>
<stop offset="0.592" stop-color="#5247B5"/>
<stop offset="1" stop-color="#6663BF"/>
</linearGradient>
<linearGradient id="paint122_linear" x1="199.376" y1="135.494" x2="204.47" y2="135.494" gradientUnits="userSpaceOnUse">
<stop stop-color="#5247B5"/>
<stop offset="1" stop-color="#D6BFFF"/>
</linearGradient>
<linearGradient id="paint123_linear" x1="217.98" y1="104.283" x2="225.25" y2="105.307" gradientUnits="userSpaceOnUse">
<stop stop-color="#5247B5"/>
<stop offset="1" stop-color="#D6BFFF"/>
</linearGradient>
<linearGradient id="paint124_linear" x1="209.289" y1="100.624" x2="218.011" y2="100.624" gradientUnits="userSpaceOnUse">
<stop stop-color="#5247B5"/>
<stop offset="1" stop-color="#D6BFFF"/>
</linearGradient>
<linearGradient id="paint125_linear" x1="210.993" y1="105.578" x2="210.993" y2="96.9632" gradientUnits="userSpaceOnUse">
<stop stop-color="#5247B5"/>
<stop offset="1" stop-color="#D6BFFF"/>
</linearGradient>
<linearGradient id="paint126_linear" x1="206.362" y1="124.527" x2="206.362" y2="102.977" gradientUnits="userSpaceOnUse">
<stop stop-color="#5247B5"/>
<stop offset="1" stop-color="#D6BFFF"/>
</linearGradient>
<linearGradient id="paint127_linear" x1="202.756" y1="123.114" x2="226.401" y2="123.114" gradientUnits="userSpaceOnUse">
<stop stop-color="#7583FF"/>
<stop offset="1" stop-color="#DBDFFF"/>
</linearGradient>
<linearGradient id="paint128_linear" x1="215.866" y1="238.573" x2="214.484" y2="250.777" gradientUnits="userSpaceOnUse">
<stop stop-color="#3721A7"/>
<stop offset="0.592" stop-color="#5247B5"/>
<stop offset="1" stop-color="#6663BF"/>
</linearGradient>
<linearGradient id="paint129_linear" x1="203.957" y1="240.377" x2="203.497" y2="250.969" gradientUnits="userSpaceOnUse">
<stop stop-color="#3721A7"/>
<stop offset="0.592" stop-color="#5247B5"/>
<stop offset="1" stop-color="#6663BF"/>
</linearGradient>
<linearGradient id="paint130_linear" x1="226.642" y1="198.963" x2="242.301" y2="198.963" gradientUnits="userSpaceOnUse">
<stop stop-color="#3721A7"/>
<stop offset="0.592" stop-color="#5247B5"/>
<stop offset="1" stop-color="#6663BF"/>
</linearGradient>
<linearGradient id="paint131_linear" x1="204.056" y1="217.137" x2="232.172" y2="217.137" gradientUnits="userSpaceOnUse">
<stop stop-color="#3721A7"/>
<stop offset="0.592" stop-color="#5247B5"/>
<stop offset="1" stop-color="#6663BF"/>
</linearGradient>
<linearGradient id="paint132_linear" x1="210.586" y1="190.821" x2="229.007" y2="188.863" gradientUnits="userSpaceOnUse">
<stop stop-color="#3721A7"/>
<stop offset="0.592" stop-color="#5247B5"/>
<stop offset="1" stop-color="#6663BF"/>
</linearGradient>
<linearGradient id="paint133_linear" x1="218.191" y1="170.137" x2="238.75" y2="170.137" gradientUnits="userSpaceOnUse">
<stop stop-color="#3721A7"/>
<stop offset="0.592" stop-color="#5247B5"/>
<stop offset="1" stop-color="#6663BF"/>
</linearGradient>
<linearGradient id="paint134_linear" x1="217.762" y1="175.15" x2="205.673" y2="163.58" gradientUnits="userSpaceOnUse">
<stop stop-color="#3721A7"/>
<stop offset="0.592" stop-color="#5247B5"/>
<stop offset="1" stop-color="#6663BF"/>
</linearGradient>
<linearGradient id="paint135_linear" x1="223.843" y1="164.065" x2="214" y2="155.603" gradientUnits="userSpaceOnUse">
<stop stop-color="#5247B5"/>
<stop offset="1" stop-color="#D6BFFF"/>
</linearGradient>
<linearGradient id="paint136_linear" x1="210.524" y1="165.262" x2="219.418" y2="165.262" gradientUnits="userSpaceOnUse">
<stop stop-color="#3721A7"/>
<stop offset="0.592" stop-color="#5247B5"/>
<stop offset="1" stop-color="#6663BF"/>
</linearGradient>
<linearGradient id="paint137_linear" x1="198.864" y1="167.011" x2="207.773" y2="167.011" gradientUnits="userSpaceOnUse">
<stop stop-color="#3721A7"/>
<stop offset="0.592" stop-color="#5247B5"/>
<stop offset="1" stop-color="#6663BF"/>
</linearGradient>
<linearGradient id="paint138_linear" x1="217.977" y1="171.184" x2="203.816" y2="158.491" gradientUnits="userSpaceOnUse">
<stop stop-color="#5247B5"/>
<stop offset="1" stop-color="#D6BFFF"/>
</linearGradient>
<linearGradient id="paint139_linear" x1="189.67" y1="240.341" x2="192.894" y2="174.947" gradientUnits="userSpaceOnUse">
<stop stop-color="#3721A7"/>
<stop offset="0.592" stop-color="#5247B5"/>
<stop offset="1" stop-color="#6663BF"/>
</linearGradient>
<linearGradient id="paint140_linear" x1="195.511" y1="206.46" x2="248.768" y2="206.46" gradientUnits="userSpaceOnUse">
<stop stop-color="#7583FF"/>
<stop offset="1" stop-color="#DBDFFF"/>
</linearGradient>
<linearGradient id="paint141_linear" x1="186.676" y1="172.942" x2="207.775" y2="172.942" gradientUnits="userSpaceOnUse">
<stop stop-color="#5247B5"/>
<stop offset="1" stop-color="#D6BFFF"/>
</linearGradient>
</defs>
</svg>
