<svg width="324" height="412" viewBox="0 0 324 412" fill="none" xmlns="http://www.w3.org/2000/svg">
<path opacity="0.19" d="M161.287 410.889C156.705 410.889 152.323 409.956 149.053 408.089L6.18297 325.673C2.9799 323.828 1.22266 321.273 1.22266 318.451C1.22266 315.074 3.75842 311.674 8.1849 309.118L147.052 229.035C155.348 224.236 167.983 223.724 175.19 227.88L318.06 310.274C321.263 312.118 323.021 314.674 323.021 317.496C323.021 320.873 320.485 324.273 316.058 326.828L177.169 406.934C172.632 409.556 166.804 410.889 161.287 410.889ZM162.933 225.613C157.506 225.613 151.767 226.924 147.296 229.502L8.45182 309.607C4.2033 312.052 1.7565 315.296 1.7565 318.473C1.7565 321.073 3.42477 323.473 6.4499 325.228L149.32 407.623C156.372 411.689 168.761 411.178 176.925 406.467L315.791 326.384C320.04 323.94 322.487 320.695 322.487 317.518C322.487 314.918 320.818 312.518 317.793 310.763L174.901 228.369C171.72 226.524 167.427 225.613 162.933 225.613Z" stroke="url(#paint0_linear)" stroke-miterlimit="10"/>
<path d="M126.745 251.811C132.703 251.811 137.533 246.986 137.533 241.034C137.533 235.082 132.703 230.257 126.745 230.257C120.787 230.257 115.957 235.082 115.957 241.034C115.957 246.986 120.787 251.811 126.745 251.811Z" fill="url(#paint1_radial)"/>
<path d="M129.816 241.034C129.816 242.723 128.437 244.101 126.746 244.101C125.056 244.101 123.677 242.723 123.677 241.034C123.677 239.346 125.056 237.968 126.746 237.968C128.437 237.968 129.816 239.346 129.816 241.034Z" fill="#6EE8FC"/>
<path opacity="0.33" d="M148.497 384.38L46.6655 325.651C38.9248 321.184 39.9035 313.385 48.8232 308.252L146.317 252.034C155.259 246.878 168.761 246.323 176.501 250.789L278.332 309.518C286.073 313.985 285.094 321.784 276.175 326.917L178.681 383.135C169.762 388.291 156.237 388.846 148.497 384.38Z" fill="#08080C" fill-opacity="0.3"/>
<path d="M296.55 257.478V236.457H242.231L178.014 199.415C169.45 194.482 154.48 195.082 144.582 200.793L82.7891 236.457H28.4258V258.678H28.4703C28.2256 262.033 30.0941 265.255 34.2091 267.632L146.984 332.672C155.548 337.605 170.518 337.005 180.416 331.295L288.387 269.01C294.103 265.722 296.861 261.455 296.55 257.478Z" fill="#312A91"/>
<path d="M296.55 257.478V236.457H242.231L178.014 199.415C169.45 194.482 154.48 195.082 144.582 200.793L82.7891 236.457H28.4258V258.678H28.4703C28.2256 262.033 30.0941 265.255 34.2091 267.632L146.984 332.672C155.548 337.605 170.518 337.005 180.416 331.295L288.387 269.01C294.103 265.722 296.861 261.455 296.55 257.478Z" fill="url(#paint2_linear)"/>
<path d="M178.014 199.415C173.899 197.037 168.294 195.971 162.488 196.104V335.983C168.761 335.828 175.278 334.25 180.417 331.295L288.387 269.01C294.104 265.721 296.839 261.455 296.528 257.478V236.457H242.209L178.014 199.415Z" fill="url(#paint3_linear)"/>
<path d="M146.984 310.429L34.209 245.389C25.6452 240.456 26.7129 231.813 36.6113 226.102L144.582 163.817C154.48 158.107 169.45 157.485 178.014 162.44L290.789 227.48C299.352 232.413 298.285 241.056 288.386 246.767L180.416 309.052C170.54 314.762 155.57 315.384 146.984 310.429Z" fill="#312A91"/>
<path d="M146.984 310.429L34.209 245.389C25.6452 240.456 26.7129 231.813 36.6113 226.102L144.582 163.817C154.48 158.107 169.45 157.485 178.014 162.44L290.789 227.48C299.352 232.413 298.285 241.056 288.386 246.767L180.416 309.052C170.54 314.762 155.57 315.384 146.984 310.429Z" fill="url(#paint4_linear)"/>
<path d="M150.011 296.053L59.1461 243.656C52.2506 239.679 53.1181 232.724 61.0813 228.124L148.076 177.95C156.039 173.35 168.117 172.861 175.013 176.839L265.878 229.235C272.773 233.213 271.906 240.168 263.943 244.767L176.948 294.942C168.985 299.541 156.907 300.052 150.011 296.053Z" fill="#5CFFF3"/>
<path d="M61.0817 234.924L148.076 184.749C156.04 180.15 168.118 179.661 175.013 183.638L265.878 236.035C267.591 237.012 268.815 238.19 269.571 239.457C271.573 235.768 270.416 231.857 265.878 229.235L175.013 176.839C168.118 172.861 156.04 173.35 148.076 177.95L61.0817 228.124C55.0759 231.59 53.1185 236.39 55.4541 240.257C56.4773 238.323 58.3457 236.479 61.0817 234.924Z" fill="#42E8E0"/>
<path d="M150.788 310.43L38.0127 245.39C29.4489 240.457 27.4025 233.19 40.415 226.102L148.385 163.818C153.257 161.018 159.351 159.44 165.29 159.151C158.217 158.84 150.498 160.418 144.582 163.818L36.6113 226.102C26.7129 231.813 25.6452 240.434 34.209 245.39L146.984 310.43C151.344 312.94 157.349 314.007 163.511 313.718C158.729 313.496 154.235 312.429 150.788 310.43Z" fill="url(#paint5_linear)"/>
<path opacity="0.15" d="M288.409 256.167L180.416 318.451C170.518 324.162 155.548 324.784 146.984 319.829L34.2091 254.789C30.0941 252.411 28.2256 249.189 28.4703 245.834H28.4258V250.434H28.4703C28.2256 253.789 30.0941 257.011 34.2091 259.389L146.984 324.428C155.548 329.361 170.518 328.761 180.416 323.051L288.387 260.766C294.103 257.478 296.839 253.211 296.528 249.234V244.634C296.861 248.612 294.103 252.878 288.409 256.167Z" fill="url(#paint6_linear)"/>
<path d="M268.815 250.034C270.039 250.745 270.039 251.9 268.815 252.611C267.592 253.322 265.59 253.322 264.367 252.611C263.143 251.9 263.143 250.745 264.367 250.034C265.59 249.323 267.592 249.323 268.815 250.034Z" fill="#FCCC6B"/>
<path d="M275.753 246.034C276.976 246.745 276.976 247.901 275.753 248.612C274.53 249.323 272.528 249.323 271.304 248.612C270.081 247.901 270.081 246.745 271.304 246.034C272.528 245.323 274.53 245.323 275.753 246.034Z" fill="#FCCC6B"/>
<path d="M282.694 242.034C283.918 242.745 283.918 243.901 282.694 244.612C281.471 245.323 279.469 245.323 278.246 244.612C277.022 243.901 277.022 242.745 278.246 242.034C279.469 241.323 281.471 241.323 282.694 242.034Z" fill="#FCCC6B"/>
<path d="M152.702 283.365L81.434 242.256C76.0288 239.123 76.6961 233.679 82.9466 230.08L151.19 190.727C157.44 187.127 166.894 186.727 172.321 189.86L243.59 230.968C248.995 234.101 248.328 239.546 242.077 243.145L173.834 282.498C167.583 286.098 158.13 286.498 152.702 283.365Z" fill="#511FF3"/>
<path d="M249.316 90.6836C222.132 76.2249 195.555 51.5752 173.285 20.1747L172.988 20.0066C150.718 27.2489 124.141 23.0587 96.9565 8.01801L95.9219 7.44897L97.3833 55.1705C102.543 129.145 129.392 161.348 172.613 230.137L173.66 230.706C216.881 208.824 243.729 205.759 248.89 137.371L250.351 91.2398L249.316 90.6836Z" fill="#C2BEF4"/>
<path d="M258.46 83.2347C231.276 68.7889 204.699 44.1392 182.416 12.7257L182.119 12.5576C159.849 19.7999 133.272 15.6097 106.088 0.569038L105.053 0L96.207 7.60441L96.9571 8.01826C124.142 23.059 150.718 27.2491 172.988 20.0068L173.286 20.175C195.556 51.5884 222.132 76.2381 249.317 90.6839L250.352 91.24L248.89 137.371C245.528 182.001 232.905 198.801 212.536 211.178C237.988 197.055 254.244 180.087 258.021 129.922L259.482 83.7908L258.46 83.2347Z" fill="url(#paint7_linear)"/>
<path d="M259.494 83.7908L258.46 83.2347C231.275 68.7889 204.698 44.1392 182.415 12.7257L182.118 12.5576L172.975 20.0068L173.272 20.175C195.542 51.5884 222.119 76.2381 249.303 90.6839L250.338 91.24L259.494 83.7908Z" fill="url(#paint8_linear)"/>
<path d="M250.35 91.2274L248.889 137.358C245.526 181.989 232.904 198.788 212.535 211.165C237.987 197.043 254.243 180.075 258.019 129.909L259.481 83.7782L250.35 91.2274Z" fill="url(#paint9_linear)"/>
<path d="M246.497 92.5208C219.92 78.3854 193.938 54.2918 172.16 23.5767L171.862 23.4215C150.084 30.4957 124.102 26.409 97.5252 11.7045L96.5035 11.1355L87.8516 18.5718L88.5887 18.9727C115.165 33.6771 141.147 37.7768 162.926 30.6897L163.223 30.8449C185.002 61.56 210.984 85.6536 237.56 99.789L238.582 100.332L237.146 145.441C233.848 189.076 221.524 205.514 201.607 217.606C226.49 203.793 242.384 187.214 246.083 138.16L247.518 93.051L246.497 92.5208Z" fill="url(#paint10_linear)"/>
<path d="M247.505 93.0637L246.483 92.5205C219.906 78.3851 193.925 54.2915 172.146 23.5765L171.849 23.4213L162.912 30.7024L163.21 30.8576C184.988 61.5726 210.97 85.6662 237.547 99.8016L238.568 100.345L247.505 93.0637Z" fill="url(#paint11_linear)"/>
<path d="M238.568 100.344L237.133 145.453C233.835 189.088 221.51 205.526 201.594 217.618C226.476 203.806 242.37 187.226 246.069 138.172L247.505 93.0632L238.568 100.344Z" fill="url(#paint12_linear)"/>
<path d="M231.948 105.492C204.764 91.046 178.187 66.3963 155.917 34.9828L155.62 34.8147C133.35 42.057 106.773 37.8668 79.5886 22.8261L78.541 22.2571L80.0024 69.9786C85.1625 143.954 112.011 176.156 155.232 244.932L156.279 245.501C199.5 223.619 226.349 220.554 231.509 152.166L232.983 106.048L231.948 105.492Z" fill="url(#paint13_linear)"/>
<path d="M241.092 98.0555C213.907 83.5967 187.331 58.9471 165.061 27.5465L164.763 27.3784C142.493 34.6207 115.917 30.4305 88.7321 15.3898L87.6975 14.8208L78.8516 22.4252L79.6017 22.8391C106.786 37.8798 133.363 42.0699 155.633 34.8276L155.93 34.9958C178.187 66.3963 204.764 91.046 231.949 105.492L232.983 106.048L231.522 152.179C228.159 196.809 215.537 213.609 195.168 225.985C220.62 211.863 236.876 194.895 240.652 144.729L242.114 98.5986L241.092 98.0555Z" fill="url(#paint14_linear)"/>
<path d="M242.126 98.5986L241.091 98.0425C213.907 83.5967 187.33 58.9471 165.06 27.5465L164.763 27.3784L155.619 34.8276L155.917 34.9958C178.187 66.3963 204.763 91.046 231.948 105.492L232.982 106.048L242.126 98.5986Z" fill="url(#paint15_linear)"/>
<path d="M232.982 106.048L231.521 152.179C228.158 196.81 215.536 213.609 195.167 225.986C220.618 211.863 236.875 194.896 240.651 144.73L242.113 98.599L232.982 106.048Z" fill="url(#paint16_linear)"/>
<path d="M150.394 213.635C116.847 161.336 99.9698 135.031 95.896 77.6354L94.9648 47.5023C116.511 56.6587 137.151 59.5685 155.761 56.0896C174.359 79.7564 195.012 99.2459 216.558 113.459L215.627 142.596C211.553 195.581 194.676 203.574 161.128 219.468C159.37 220.309 157.585 221.149 155.761 222.016C153.938 219.171 152.14 216.377 150.394 213.635Z" fill="url(#paint17_linear)"/>
<path d="M152.257 212.756C118.709 160.456 101.832 134.151 97.7583 76.7557L96.8789 48.2909C96.2452 48.0322 95.5985 47.7865 94.9648 47.5149L95.896 77.648C99.9698 135.043 116.847 161.348 150.394 213.648C152.153 216.39 153.938 219.183 155.774 222.041C156.408 221.744 157.016 221.459 157.637 221.162C155.8 218.291 154.002 215.497 152.257 212.756Z" fill="#610866"/>
<path d="M126.263 110.29L150.835 160.547L194.133 117.83L174.101 100.694L150.835 137.552L139.842 112.773L126.263 110.29Z" fill="white"/>
<defs>
<linearGradient id="paint0_linear" x1="0.110477" y1="317.991" x2="324.109" y2="317.991" gradientUnits="userSpaceOnUse">
<stop stop-color="#E5024E"/>
<stop offset="0.4942" stop-color="#AF017F"/>
<stop offset="1" stop-color="#7C01AE"/>
</linearGradient>
<radialGradient id="paint1_radial" cx="0" cy="0" r="1" gradientUnits="userSpaceOnUse" gradientTransform="translate(126.746 241.031) scale(10.783 10.7719)">
<stop stop-color="#42E8E0"/>
<stop offset="0.0225" stop-color="#3FD8D7"/>
<stop offset="0.0983" stop-color="#36A9BA"/>
<stop offset="0.1786" stop-color="#2E7FA0"/>
<stop offset="0.2622" stop-color="#275C8B"/>
<stop offset="0.35" stop-color="#223F79"/>
<stop offset="0.4433" stop-color="#1D296C"/>
<stop offset="0.5449" stop-color="#1A1962"/>
<stop offset="0.6608" stop-color="#19105D"/>
<stop offset="0.8226" stop-color="#180D5B"/>
</radialGradient>
<linearGradient id="paint2_linear" x1="62.2456" y1="194.949" x2="190.716" y2="267.262" gradientUnits="userSpaceOnUse">
<stop stop-color="#111119"/>
<stop offset="0.2237" stop-color="#191426"/>
<stop offset="0.6351" stop-color="#2F1E48"/>
<stop offset="1" stop-color="#46276B"/>
</linearGradient>
<linearGradient id="paint3_linear" x1="275.72" y1="205.067" x2="138.631" y2="282.311" gradientUnits="userSpaceOnUse">
<stop stop-color="#111119"/>
<stop offset="0.2237" stop-color="#191426"/>
<stop offset="0.6351" stop-color="#2F1E48"/>
<stop offset="1" stop-color="#46276B"/>
</linearGradient>
<linearGradient id="paint4_linear" x1="28.4301" y1="236.447" x2="296.584" y2="236.447" gradientUnits="userSpaceOnUse">
<stop stop-color="#2D2E43"/>
<stop offset="0.1461" stop-color="#312F4C"/>
<stop offset="0.3803" stop-color="#3B3163"/>
<stop offset="0.6733" stop-color="#4C3489"/>
<stop offset="1" stop-color="#6238BC"/>
</linearGradient>
<linearGradient id="paint5_linear" x1="28.4301" y1="236.451" x2="165.29" y2="236.451" gradientUnits="userSpaceOnUse">
<stop stop-color="#3A2C65"/>
<stop offset="0.4505" stop-color="#482F84"/>
<stop offset="1" stop-color="#5B34AE"/>
</linearGradient>
<linearGradient id="paint6_linear" x1="28.4302" y1="286.212" x2="296.565" y2="286.212" gradientUnits="userSpaceOnUse">
<stop stop-color="#FF0054" stop-opacity="0.2"/>
<stop offset="0.5" stop-color="#FF0054" stop-opacity="0.9"/>
<stop offset="1" stop-color="#FF0054" stop-opacity="0.3"/>
</linearGradient>
<linearGradient id="paint7_linear" x1="72.2549" y1="48.1311" x2="134.697" y2="79.9526" gradientUnits="userSpaceOnUse">
<stop stop-color="#AEB7FF"/>
<stop offset="0.7139" stop-color="#F2F3FF"/>
<stop offset="1" stop-color="#DBDFFF"/>
</linearGradient>
<linearGradient id="paint8_linear" x1="177.858" y1="8.79447" x2="245.92" y2="87.0065" gradientUnits="userSpaceOnUse">
<stop stop-color="#7583FF"/>
<stop offset="0.7139" stop-color="#F2F3FF"/>
<stop offset="1" stop-color="#DBDFFF"/>
</linearGradient>
<linearGradient id="paint9_linear" x1="212.537" y1="147.484" x2="259.493" y2="147.484" gradientUnits="userSpaceOnUse">
<stop stop-color="#98A3FF"/>
<stop offset="0.593" stop-color="#7583FF"/>
<stop offset="1" stop-color="#7583FF"/>
</linearGradient>
<linearGradient id="paint10_linear" x1="87.8457" y1="114.38" x2="247.509" y2="114.38" gradientUnits="userSpaceOnUse">
<stop stop-color="#FF6FFF"/>
<stop offset="0.6387" stop-color="#D436E0"/>
<stop offset="1" stop-color="#C01BD1"/>
</linearGradient>
<linearGradient id="paint11_linear" x1="162.918" y1="61.8828" x2="247.508" y2="61.8828" gradientUnits="userSpaceOnUse">
<stop stop-color="#FF6FFF"/>
<stop offset="0.6387" stop-color="#D436E0"/>
<stop offset="1" stop-color="#C01BD1"/>
</linearGradient>
<linearGradient id="paint12_linear" x1="234.598" y1="84.637" x2="219.835" y2="213.598" gradientUnits="userSpaceOnUse">
<stop stop-color="#D30045"/>
<stop offset="0.6091" stop-color="#A21377"/>
<stop offset="1" stop-color="#871D92"/>
</linearGradient>
<linearGradient id="paint13_linear" x1="154.938" y1="244.378" x2="155.804" y2="55.542" gradientUnits="userSpaceOnUse">
<stop stop-color="#7583FF"/>
<stop offset="1" stop-color="#DBDFFF"/>
</linearGradient>
<linearGradient id="paint14_linear" x1="62.1252" y1="66.6337" x2="124.567" y2="98.4551" gradientUnits="userSpaceOnUse">
<stop stop-color="#AEB7FF"/>
<stop offset="0.7139" stop-color="#F2F3FF"/>
<stop offset="1" stop-color="#DBDFFF"/>
</linearGradient>
<linearGradient id="paint15_linear" x1="160.178" y1="23.2479" x2="228.24" y2="101.46" gradientUnits="userSpaceOnUse">
<stop stop-color="#7583FF"/>
<stop offset="0.7139" stop-color="#F2F3FF"/>
<stop offset="1" stop-color="#DBDFFF"/>
</linearGradient>
<linearGradient id="paint16_linear" x1="195.171" y1="162.299" x2="242.127" y2="162.299" gradientUnits="userSpaceOnUse">
<stop stop-color="#98A3FF"/>
<stop offset="0.593" stop-color="#7583FF"/>
<stop offset="1" stop-color="#7583FF"/>
</linearGradient>
<linearGradient id="paint17_linear" x1="157.135" y1="37.3657" x2="151.075" y2="227.823" gradientUnits="userSpaceOnUse">
<stop offset="0.0625" stop-color="#FF0054"/>
<stop offset="1" stop-color="#871D92"/>
</linearGradient>
</defs>
</svg>
