<svg width="70" height="72" viewBox="0 0 70 72" fill="none" xmlns="http://www.w3.org/2000/svg">
<path d="M67.7168 53.4394C66.3395 51.7332 64.4688 49.7598 62.557 48.7525C60.1724 47.4985 56.02 46.2857 53.2448 45.5456C51.5591 45.0934 50.3874 43.5722 50.3874 41.8454V39.6664H39.9651H29.5428V41.8454C29.5428 43.5927 28.3711 45.1139 26.6854 45.5456C23.9103 46.2857 19.7578 47.4985 17.3732 48.7525C15.4614 49.7598 13.5907 51.7332 12.2134 53.4394C10.7128 55.2895 9.93164 57.6125 9.93164 59.9765V67.8497C9.93164 69.6793 11.4117 71.1799 13.2618 71.1799H66.6684C68.4979 71.1799 69.9986 69.6999 69.9986 67.8497V59.9765C69.9986 57.6125 69.2174 55.2895 67.7168 53.4394Z" fill="url(#paint0_linear)"/>
<path d="M53.5136 20.0957C53.5136 20.0957 56.3916 17.485 56.926 18.8828C57.4605 20.2807 57.3372 24.9882 56.186 26.7355C55.0348 28.4828 53.637 30.2302 53.1642 29.6135C52.6914 28.9968 53.5136 20.0957 53.5136 20.0957Z" fill="url(#paint1_linear)"/>
<path d="M26.418 20.0957C26.418 20.0957 23.54 17.485 23.0055 18.8828C22.4711 20.2807 22.5944 24.9882 23.7456 26.7355C24.8968 28.4828 26.2946 30.2302 26.7674 29.6135C27.2402 29.0173 26.418 20.0957 26.418 20.0957Z" fill="url(#paint2_linear)"/>
<path d="M38.7918 46.3679H36.9211C36.0577 46.3679 35.0093 45.8128 34.5365 45.1756C33.0359 43.1405 31.1446 41.1876 29.5618 39.6458C27.3828 37.5285 26.0671 34.7944 25.9027 31.8959L25.0187 15.5944C24.7309 7.61832 31.4119 0.916809 39.9635 0.916809C48.5151 0.916809 55.2166 7.61832 54.9083 15.5944L54.0244 31.8959C53.8599 34.7944 52.5648 37.5285 50.3652 39.6458C48.7618 41.1876 46.8911 43.1405 45.3905 45.1756C44.9177 45.8128 43.8487 46.3679 43.0059 46.3679H41.1353H38.7918Z" fill="url(#paint3_linear)"/>
<path d="M54.0045 31.8963C53.84 34.7948 52.5244 37.5288 50.3454 39.6462C48.742 41.1879 46.8713 43.1408 45.3706 45.176C44.8978 45.8132 43.8289 46.3682 42.9861 46.3682H36.8807C36.0379 46.3682 34.9895 45.8132 34.4961 45.176C32.9955 43.1408 31.1248 41.1879 29.5214 39.6462C27.3423 37.5288 26.0267 34.7948 25.8828 31.8963V30.889C26.0267 33.7875 27.3423 36.5215 29.5214 38.6389C31.1248 40.1806 32.9955 42.1335 34.4961 44.1687C34.9895 44.8059 36.0379 45.361 36.8807 45.361H42.9861C43.8289 45.361 44.8978 44.8059 45.3706 44.1687C46.8713 42.1335 48.742 40.1806 50.3454 38.6389C52.5244 36.5215 53.84 33.7875 54.0045 30.889V31.8963Z" fill="url(#paint4_linear)"/>
<path d="M54.8888 15.5944L54.8477 16.3755C54.4571 8.97507 48.0434 2.97249 39.944 2.97249C31.8446 2.97249 25.4309 8.99563 25.0403 16.3961L24.9992 15.5944C24.7114 7.61832 31.3924 0.916809 39.944 0.916809C48.4956 0.916809 55.1971 7.61832 54.8888 15.5944Z" fill="url(#paint5_linear)"/>
<path d="M69.9771 66.6983V67.8495C69.9771 69.6996 68.497 71.1797 66.6469 71.1797H13.2404C11.4108 71.1797 9.91016 69.6996 9.91016 67.8495V66.6983C9.91016 68.5484 11.4108 70.0285 13.2404 70.0285H66.6469C68.497 70.0285 69.9771 68.5484 69.9771 66.6983Z" fill="url(#paint6_linear)"/>
<path d="M22.3082 15.43H16.799C16.5729 15.43 16.4084 15.615 16.4084 15.8206V38.4125C16.4084 38.5358 16.3673 38.6386 16.2851 38.7208L7.05507 47.9508C6.78783 48.2181 6.31503 48.033 6.31503 47.6425V15.8206C6.31503 15.5944 6.13001 15.43 5.92445 15.43H0.394669C0.0657606 15.43 -0.11925 15.0394 0.0863174 14.7927L11.0636 1.30746C11.2281 1.12245 11.5159 1.12245 11.6803 1.30746L22.6166 14.7722C22.8221 15.0394 22.6371 15.43 22.3082 15.43Z" fill="url(#paint7_linear)"/>
<path opacity="0.36" d="M22.3082 15.183H21.7121L11.6803 2.8284C11.5159 2.64338 11.2075 2.64338 11.0636 2.8284L1.01137 15.183H0.394669C0.0657606 15.183 -0.11925 14.7924 0.0863174 14.5252L11.0431 1.06051C11.2075 0.8755 11.5159 0.8755 11.6598 1.06051L22.6166 14.5252C22.8221 14.7924 22.6371 15.183 22.3082 15.183Z" fill="url(#paint8_linear)"/>
<path d="M8.82125 54.056C9.71815 54.056 10.4452 53.3289 10.4452 52.432C10.4452 51.5351 9.71815 50.808 8.82125 50.808C7.92435 50.808 7.19727 51.5351 7.19727 52.432C7.19727 53.3289 7.92435 54.056 8.82125 54.056Z" fill="url(#paint9_linear)"/>
<path d="M12.7275 50.1503C13.6244 50.1503 14.3515 49.4232 14.3515 48.5263C14.3515 47.6294 13.6244 46.9023 12.7275 46.9023C11.8306 46.9023 11.1035 47.6294 11.1035 48.5263C11.1035 49.4232 11.8306 50.1503 12.7275 50.1503Z" fill="url(#paint10_linear)"/>
<path d="M16.6533 46.2238C17.5502 46.2238 18.2773 45.4967 18.2773 44.5998C18.2773 43.7029 17.5502 42.9758 16.6533 42.9758C15.7564 42.9758 15.0293 43.7029 15.0293 44.5998C15.0293 45.4967 15.7564 46.2238 16.6533 46.2238Z" fill="url(#paint11_linear)"/>
<defs>
<linearGradient id="paint0_linear" x1="39.9661" y1="70.2682" x2="39.9661" y2="39.7141" gradientUnits="userSpaceOnUse">
<stop stop-color="#DBDFFF"/>
<stop offset="0.701" stop-color="#7583FF"/>
<stop offset="0.9346" stop-color="#7A65FF"/>
</linearGradient>
<linearGradient id="paint1_linear" x1="56.1453" y1="28.6707" x2="53.8662" y2="19.4537" gradientUnits="userSpaceOnUse">
<stop stop-color="#DBDFFF"/>
<stop offset="1" stop-color="#7583FF"/>
</linearGradient>
<linearGradient id="paint2_linear" x1="23.7968" y1="28.6707" x2="26.0759" y2="19.4537" gradientUnits="userSpaceOnUse">
<stop stop-color="#DBDFFF"/>
<stop offset="1" stop-color="#7583FF"/>
</linearGradient>
<linearGradient id="paint3_linear" x1="39.9689" y1="1.19659" x2="39.9689" y2="54.0212" gradientUnits="userSpaceOnUse">
<stop stop-color="#DBDFFF"/>
<stop offset="1" stop-color="#7583FF"/>
</linearGradient>
<linearGradient id="paint4_linear" x1="39.9447" y1="57.614" x2="39.9447" y2="37.1154" gradientUnits="userSpaceOnUse">
<stop stop-color="#DBDFFF"/>
<stop offset="1" stop-color="#7583FF" stop-opacity="0"/>
</linearGradient>
<linearGradient id="paint5_linear" x1="39.9347" y1="15.8768" x2="39.9347" y2="0.89358" gradientUnits="userSpaceOnUse">
<stop stop-color="#EBEDFF" stop-opacity="0"/>
<stop offset="1" stop-color="white"/>
</linearGradient>
<linearGradient id="paint6_linear" x1="39.9344" y1="63.9334" x2="39.9344" y2="70.307" gradientUnits="userSpaceOnUse">
<stop stop-color="#DBDFFF" stop-opacity="0"/>
<stop offset="1" stop-color="#7583FF"/>
</linearGradient>
<linearGradient id="paint7_linear" x1="11.3558" y1="3.23528" x2="11.3558" y2="51.1472" gradientUnits="userSpaceOnUse">
<stop offset="0.1613" stop-color="#803EFF"/>
<stop offset="1" stop-color="#4502C6"/>
</linearGradient>
<linearGradient id="paint8_linear" x1="11.357" y1="0.254891" x2="11.357" y2="14.1178" gradientUnits="userSpaceOnUse">
<stop stop-color="white"/>
<stop offset="1" stop-color="#EBEDFF" stop-opacity="0"/>
</linearGradient>
<linearGradient id="paint9_linear" x1="7.19151" y1="52.4308" x2="10.4469" y2="52.4308" gradientUnits="userSpaceOnUse">
<stop stop-color="#803EFF"/>
<stop offset="1" stop-color="#4502C6"/>
</linearGradient>
<linearGradient id="paint10_linear" x1="11.106" y1="48.5169" x2="14.3614" y2="48.5169" gradientUnits="userSpaceOnUse">
<stop stop-color="#803EFF"/>
<stop offset="1" stop-color="#4502C6"/>
</linearGradient>
<linearGradient id="paint11_linear" x1="15.0194" y1="44.6027" x2="18.2748" y2="44.6027" gradientUnits="userSpaceOnUse">
<stop stop-color="#803EFF"/>
<stop offset="1" stop-color="#4502C6"/>
</linearGradient>
</defs>
</svg>
