<?xml version="1.0" encoding="utf-8"?>
<!-- Generator: Adobe Illustrator 25.2.0, SVG Export Plug-In . SVG Version: 6.00 Build 0)  -->
<svg version="1.1" id="Layer_1" xmlns="http://www.w3.org/2000/svg" xmlns:xlink="http://www.w3.org/1999/xlink" x="0px" y="0px"
	 viewBox="0 0 1317 146" style="enable-background:new 0 0 1317 146;" xml:space="preserve">
<style type="text/css">
	.st0{display:none;fill:none;stroke:url(#SVGID_1_);}
	.st1{fill:#2D2E43;}
	.st2{fill:#A49BDC;fill-opacity:0.3;}
	.st3{fill:url(#SVGID_2_);}
</style>
<linearGradient id="SVGID_1_" gradientUnits="userSpaceOnUse" x1="10.2038" y1="-0.2082" x2="1325.2036" y2="-48.2082" gradientTransform="matrix(1 0 0 1 0 108)">
	<stop  offset="0" style="stop-color:#F8B409;stop-opacity:0"/>
	<stop  offset="0.2917" style="stop-color:#F8B409"/>
	<stop  offset="1" style="stop-color:#FF0054"/>
</linearGradient>
<rect x="-2.5" y="11.5" class="st0" width="1329" height="145"/>
<rect class="st1" width="1317" height="146"/>
<rect x="8" y="7" class="st2" width="4" height="4"/>
<rect x="528" y="7" class="st2" width="4" height="4"/>
<rect x="28" y="7" class="st2" width="4" height="4"/>
<rect x="548" y="7" class="st2" width="4" height="4"/>
<rect x="48" y="7" class="st2" width="4" height="4"/>
<rect x="568" y="7" class="st2" width="4" height="4"/>
<rect x="68" y="7" class="st2" width="4" height="4"/>
<rect x="588" y="7" class="st2" width="4" height="4"/>
<rect x="88" y="7" class="st2" width="4" height="4"/>
<rect x="608" y="7" class="st2" width="4" height="4"/>
<rect x="108" y="7" class="st2" width="4" height="4"/>
<rect x="628" y="7" class="st2" width="4" height="4"/>
<rect x="128" y="7" class="st2" width="4" height="4"/>
<rect x="648" y="7" class="st2" width="4" height="4"/>
<rect x="148" y="7" class="st2" width="4" height="4"/>
<rect x="668" y="7" class="st2" width="4" height="4"/>
<rect x="168" y="7" class="st2" width="4" height="4"/>
<rect x="688" y="7" class="st2" width="4" height="4"/>
<rect x="188" y="7" class="st2" width="4" height="4"/>
<rect x="708" y="7" class="st2" width="4" height="4"/>
<rect x="208" y="7" class="st2" width="4" height="4"/>
<rect x="728" y="7" class="st2" width="4" height="4"/>
<rect x="228" y="7" class="st2" width="4" height="4"/>
<rect x="748" y="7" class="st2" width="4" height="4"/>
<rect x="248" y="7" class="st2" width="4" height="4"/>
<rect x="768" y="7" class="st2" width="4" height="4"/>
<rect x="268" y="7" class="st2" width="4" height="4"/>
<rect x="788" y="7" class="st2" width="4" height="4"/>
<rect x="288" y="7" class="st2" width="4" height="4"/>
<rect x="808" y="7" class="st2" width="4" height="4"/>
<rect x="308" y="7" class="st2" width="4" height="4"/>
<rect x="828" y="7" class="st2" width="4" height="4"/>
<rect x="328" y="7" class="st2" width="4" height="4"/>
<rect x="848" y="7" class="st2" width="4" height="4"/>
<rect x="348" y="7" class="st2" width="4" height="4"/>
<rect x="868" y="7" class="st2" width="4" height="4"/>
<rect x="368" y="7" class="st2" width="4" height="4"/>
<rect x="888" y="7" class="st2" width="4" height="4"/>
<rect x="388" y="7" class="st2" width="4" height="4"/>
<rect x="908" y="7" class="st2" width="4" height="4"/>
<rect x="408" y="7" class="st2" width="4" height="4"/>
<rect x="928" y="7" class="st2" width="4" height="4"/>
<rect x="428" y="7" class="st2" width="4" height="4"/>
<rect x="948" y="7" class="st2" width="4" height="4"/>
<rect x="448" y="7" class="st2" width="4" height="4"/>
<rect x="968" y="7" class="st2" width="4" height="4"/>
<rect x="468" y="7" class="st2" width="4" height="4"/>
<rect x="988" y="7" class="st2" width="4" height="4"/>
<rect x="488" y="7" class="st2" width="4" height="4"/>
<rect x="1008" y="7" class="st2" width="4" height="4"/>
<rect x="508" y="7" class="st2" width="4" height="4"/>
<rect x="1028" y="7" class="st2" width="4" height="4"/>
<rect x="8" y="25" class="st2" width="4" height="4"/>
<rect x="528" y="25" class="st2" width="4" height="4"/>
<rect x="28" y="25" class="st2" width="4" height="4"/>
<rect x="548" y="25" class="st2" width="4" height="4"/>
<rect x="48" y="25" class="st2" width="4" height="4"/>
<rect x="568" y="25" class="st2" width="4" height="4"/>
<rect x="68" y="25" class="st2" width="4" height="4"/>
<rect x="588" y="25" class="st2" width="4" height="4"/>
<rect x="88" y="25" class="st2" width="4" height="4"/>
<rect x="608" y="25" class="st2" width="4" height="4"/>
<rect x="108" y="25" class="st2" width="4" height="4"/>
<rect x="628" y="25" class="st2" width="4" height="4"/>
<rect x="128" y="25" class="st2" width="4" height="4"/>
<rect x="648" y="25" class="st2" width="4" height="4"/>
<rect x="148" y="25" class="st2" width="4" height="4"/>
<rect x="668" y="25" class="st2" width="4" height="4"/>
<rect x="168" y="25" class="st2" width="4" height="4"/>
<rect x="688" y="25" class="st2" width="4" height="4"/>
<rect x="188" y="25" class="st2" width="4" height="4"/>
<rect x="708" y="25" class="st2" width="4" height="4"/>
<rect x="208" y="25" class="st2" width="4" height="4"/>
<rect x="728" y="25" class="st2" width="4" height="4"/>
<rect x="228" y="25" class="st2" width="4" height="4"/>
<rect x="748" y="25" class="st2" width="4" height="4"/>
<rect x="248" y="25" class="st2" width="4" height="4"/>
<rect x="768" y="25" class="st2" width="4" height="4"/>
<rect x="268" y="25" class="st2" width="4" height="4"/>
<rect x="788" y="25" class="st2" width="4" height="4"/>
<rect x="288" y="25" class="st2" width="4" height="4"/>
<rect x="808" y="25" class="st2" width="4" height="4"/>
<rect x="308" y="25" class="st2" width="4" height="4"/>
<rect x="828" y="25" class="st2" width="4" height="4"/>
<rect x="328" y="25" class="st2" width="4" height="4"/>
<rect x="848" y="25" class="st2" width="4" height="4"/>
<rect x="348" y="25" class="st2" width="4" height="4"/>
<rect x="868" y="25" class="st2" width="4" height="4"/>
<rect x="368" y="25" class="st2" width="4" height="4"/>
<rect x="888" y="25" class="st2" width="4" height="4"/>
<rect x="388" y="25" class="st2" width="4" height="4"/>
<rect x="908" y="25" class="st2" width="4" height="4"/>
<rect x="408" y="25" class="st2" width="4" height="4"/>
<rect x="928" y="25" class="st2" width="4" height="4"/>
<rect x="428" y="25" class="st2" width="4" height="4"/>
<rect x="948" y="25" class="st2" width="4" height="4"/>
<rect x="448" y="25" class="st2" width="4" height="4"/>
<rect x="968" y="25" class="st2" width="4" height="4"/>
<rect x="468" y="25" class="st2" width="4" height="4"/>
<rect x="988" y="25" class="st2" width="4" height="4"/>
<rect x="488" y="25" class="st2" width="4" height="4"/>
<rect x="1008" y="25" class="st2" width="4" height="4"/>
<rect x="508" y="25" class="st2" width="4" height="4"/>
<rect x="1028" y="25" class="st2" width="4" height="4"/>
<rect x="8" y="43" class="st2" width="4" height="4"/>
<rect x="528" y="43" class="st2" width="4" height="4"/>
<rect x="28" y="43" class="st2" width="4" height="4"/>
<rect x="548" y="43" class="st2" width="4" height="4"/>
<rect x="48" y="43" class="st2" width="4" height="4"/>
<rect x="568" y="43" class="st2" width="4" height="4"/>
<rect x="68" y="43" class="st2" width="4" height="4"/>
<rect x="588" y="43" class="st2" width="4" height="4"/>
<rect x="88" y="43" class="st2" width="4" height="4"/>
<rect x="608" y="43" class="st2" width="4" height="4"/>
<rect x="108" y="43" class="st2" width="4" height="4"/>
<rect x="628" y="43" class="st2" width="4" height="4"/>
<rect x="128" y="43" class="st2" width="4" height="4"/>
<rect x="648" y="43" class="st2" width="4" height="4"/>
<rect x="148" y="43" class="st2" width="4" height="4"/>
<rect x="668" y="43" class="st2" width="4" height="4"/>
<rect x="168" y="43" class="st2" width="4" height="4"/>
<rect x="688" y="43" class="st2" width="4" height="4"/>
<rect x="188" y="43" class="st2" width="4" height="4"/>
<rect x="708" y="43" class="st2" width="4" height="4"/>
<rect x="208" y="43" class="st2" width="4" height="4"/>
<rect x="728" y="43" class="st2" width="4" height="4"/>
<rect x="228" y="43" class="st2" width="4" height="4"/>
<rect x="748" y="43" class="st2" width="4" height="4"/>
<rect x="248" y="43" class="st2" width="4" height="4"/>
<rect x="768" y="43" class="st2" width="4" height="4"/>
<rect x="268" y="43" class="st2" width="4" height="4"/>
<rect x="788" y="43" class="st2" width="4" height="4"/>
<rect x="288" y="43" class="st2" width="4" height="4"/>
<rect x="808" y="43" class="st2" width="4" height="4"/>
<rect x="308" y="43" class="st2" width="4" height="4"/>
<rect x="828" y="43" class="st2" width="4" height="4"/>
<rect x="328" y="43" class="st2" width="4" height="4"/>
<rect x="848" y="43" class="st2" width="4" height="4"/>
<rect x="348" y="43" class="st2" width="4" height="4"/>
<rect x="868" y="43" class="st2" width="4" height="4"/>
<rect x="368" y="43" class="st2" width="4" height="4"/>
<rect x="888" y="43" class="st2" width="4" height="4"/>
<rect x="388" y="43" class="st2" width="4" height="4"/>
<rect x="908" y="43" class="st2" width="4" height="4"/>
<rect x="408" y="43" class="st2" width="4" height="4"/>
<rect x="928" y="43" class="st2" width="4" height="4"/>
<rect x="428" y="43" class="st2" width="4" height="4"/>
<rect x="948" y="43" class="st2" width="4" height="4"/>
<rect x="448" y="43" class="st2" width="4" height="4"/>
<rect x="968" y="43" class="st2" width="4" height="4"/>
<rect x="468" y="43" class="st2" width="4" height="4"/>
<rect x="988" y="43" class="st2" width="4" height="4"/>
<rect x="488" y="43" class="st2" width="4" height="4"/>
<rect x="1008" y="43" class="st2" width="4" height="4"/>
<rect x="508" y="43" class="st2" width="4" height="4"/>
<rect x="1028" y="43" class="st2" width="4" height="4"/>
<rect x="8" y="61" class="st2" width="4" height="4"/>
<rect x="528" y="61" class="st2" width="4" height="4"/>
<rect x="28" y="61" class="st2" width="4" height="4"/>
<rect x="548" y="61" class="st2" width="4" height="4"/>
<rect x="48" y="61" class="st2" width="4" height="4"/>
<rect x="568" y="61" class="st2" width="4" height="4"/>
<rect x="68" y="61" class="st2" width="4" height="4"/>
<rect x="588" y="61" class="st2" width="4" height="4"/>
<rect x="88" y="61" class="st2" width="4" height="4"/>
<rect x="608" y="61" class="st2" width="4" height="4"/>
<rect x="108" y="61" class="st2" width="4" height="4"/>
<rect x="628" y="61" class="st2" width="4" height="4"/>
<rect x="128" y="61" class="st2" width="4" height="4"/>
<rect x="648" y="61" class="st2" width="4" height="4"/>
<rect x="148" y="61" class="st2" width="4" height="4"/>
<rect x="668" y="61" class="st2" width="4" height="4"/>
<rect x="168" y="61" class="st2" width="4" height="4"/>
<rect x="688" y="61" class="st2" width="4" height="4"/>
<rect x="188" y="61" class="st2" width="4" height="4"/>
<rect x="708" y="61" class="st2" width="4" height="4"/>
<rect x="208" y="61" class="st2" width="4" height="4"/>
<rect x="728" y="61" class="st2" width="4" height="4"/>
<rect x="228" y="61" class="st2" width="4" height="4"/>
<rect x="748" y="61" class="st2" width="4" height="4"/>
<rect x="248" y="61" class="st2" width="4" height="4"/>
<rect x="768" y="61" class="st2" width="4" height="4"/>
<rect x="268" y="61" class="st2" width="4" height="4"/>
<rect x="788" y="61" class="st2" width="4" height="4"/>
<rect x="288" y="61" class="st2" width="4" height="4"/>
<rect x="808" y="61" class="st2" width="4" height="4"/>
<rect x="308" y="61" class="st2" width="4" height="4"/>
<rect x="828" y="61" class="st2" width="4" height="4"/>
<rect x="328" y="61" class="st2" width="4" height="4"/>
<rect x="848" y="61" class="st2" width="4" height="4"/>
<rect x="348" y="61" class="st2" width="4" height="4"/>
<rect x="868" y="61" class="st2" width="4" height="4"/>
<rect x="368" y="61" class="st2" width="4" height="4"/>
<rect x="888" y="61" class="st2" width="4" height="4"/>
<rect x="388" y="61" class="st2" width="4" height="4"/>
<rect x="908" y="61" class="st2" width="4" height="4"/>
<rect x="408" y="61" class="st2" width="4" height="4"/>
<rect x="928" y="61" class="st2" width="4" height="4"/>
<rect x="428" y="61" class="st2" width="4" height="4"/>
<rect x="948" y="61" class="st2" width="4" height="4"/>
<rect x="448" y="61" class="st2" width="4" height="4"/>
<rect x="968" y="61" class="st2" width="4" height="4"/>
<rect x="468" y="61" class="st2" width="4" height="4"/>
<rect x="988" y="61" class="st2" width="4" height="4"/>
<rect x="488" y="61" class="st2" width="4" height="4"/>
<rect x="1008" y="61" class="st2" width="4" height="4"/>
<rect x="508" y="61" class="st2" width="4" height="4"/>
<rect x="1028" y="61" class="st2" width="4" height="4"/>
<rect x="8" y="79" class="st2" width="4" height="4"/>
<rect x="528" y="79" class="st2" width="4" height="4"/>
<rect x="28" y="79" class="st2" width="4" height="4"/>
<rect x="548" y="79" class="st2" width="4" height="4"/>
<rect x="48" y="79" class="st2" width="4" height="4"/>
<rect x="568" y="79" class="st2" width="4" height="4"/>
<rect x="68" y="79" class="st2" width="4" height="4"/>
<rect x="588" y="79" class="st2" width="4" height="4"/>
<rect x="88" y="79" class="st2" width="4" height="4"/>
<rect x="608" y="79" class="st2" width="4" height="4"/>
<rect x="108" y="79" class="st2" width="4" height="4"/>
<rect x="628" y="79" class="st2" width="4" height="4"/>
<rect x="128" y="79" class="st2" width="4" height="4"/>
<rect x="648" y="79" class="st2" width="4" height="4"/>
<rect x="148" y="79" class="st2" width="4" height="4"/>
<rect x="668" y="79" class="st2" width="4" height="4"/>
<rect x="168" y="79" class="st2" width="4" height="4"/>
<rect x="688" y="79" class="st2" width="4" height="4"/>
<rect x="188" y="79" class="st2" width="4" height="4"/>
<rect x="708" y="79" class="st2" width="4" height="4"/>
<rect x="208" y="79" class="st2" width="4" height="4"/>
<rect x="728" y="79" class="st2" width="4" height="4"/>
<rect x="228" y="79" class="st2" width="4" height="4"/>
<rect x="748" y="79" class="st2" width="4" height="4"/>
<rect x="248" y="79" class="st2" width="4" height="4"/>
<rect x="768" y="79" class="st2" width="4" height="4"/>
<rect x="268" y="79" class="st2" width="4" height="4"/>
<rect x="788" y="79" class="st2" width="4" height="4"/>
<rect x="288" y="79" class="st2" width="4" height="4"/>
<rect x="808" y="79" class="st2" width="4" height="4"/>
<rect x="308" y="79" class="st2" width="4" height="4"/>
<rect x="828" y="79" class="st2" width="4" height="4"/>
<rect x="328" y="79" class="st2" width="4" height="4"/>
<rect x="848" y="79" class="st2" width="4" height="4"/>
<rect x="348" y="79" class="st2" width="4" height="4"/>
<rect x="868" y="79" class="st2" width="4" height="4"/>
<rect x="368" y="79" class="st2" width="4" height="4"/>
<rect x="888" y="79" class="st2" width="4" height="4"/>
<rect x="388" y="79" class="st2" width="4" height="4"/>
<rect x="908" y="79" class="st2" width="4" height="4"/>
<rect x="408" y="79" class="st2" width="4" height="4"/>
<rect x="928" y="79" class="st2" width="4" height="4"/>
<rect x="428" y="79" class="st2" width="4" height="4"/>
<rect x="948" y="79" class="st2" width="4" height="4"/>
<rect x="448" y="79" class="st2" width="4" height="4"/>
<rect x="968" y="79" class="st2" width="4" height="4"/>
<rect x="468" y="79" class="st2" width="4" height="4"/>
<rect x="988" y="79" class="st2" width="4" height="4"/>
<rect x="488" y="79" class="st2" width="4" height="4"/>
<rect x="1008" y="79" class="st2" width="4" height="4"/>
<rect x="508" y="79" class="st2" width="4" height="4"/>
<rect x="1028" y="79" class="st2" width="4" height="4"/>
<rect x="8" y="97" class="st2" width="4" height="4"/>
<rect x="528" y="97" class="st2" width="4" height="4"/>
<rect x="28" y="97" class="st2" width="4" height="4"/>
<rect x="548" y="97" class="st2" width="4" height="4"/>
<rect x="48" y="97" class="st2" width="4" height="4"/>
<rect x="568" y="97" class="st2" width="4" height="4"/>
<rect x="68" y="97" class="st2" width="4" height="4"/>
<rect x="588" y="97" class="st2" width="4" height="4"/>
<rect x="88" y="97" class="st2" width="4" height="4"/>
<rect x="608" y="97" class="st2" width="4" height="4"/>
<rect x="108" y="97" class="st2" width="4" height="4"/>
<rect x="628" y="97" class="st2" width="4" height="4"/>
<rect x="128" y="97" class="st2" width="4" height="4"/>
<rect x="648" y="97" class="st2" width="4" height="4"/>
<rect x="148" y="97" class="st2" width="4" height="4"/>
<rect x="668" y="97" class="st2" width="4" height="4"/>
<rect x="168" y="97" class="st2" width="4" height="4"/>
<rect x="688" y="97" class="st2" width="4" height="4"/>
<rect x="188" y="97" class="st2" width="4" height="4"/>
<rect x="708" y="97" class="st2" width="4" height="4"/>
<rect x="208" y="97" class="st2" width="4" height="4"/>
<rect x="728" y="97" class="st2" width="4" height="4"/>
<rect x="228" y="97" class="st2" width="4" height="4"/>
<rect x="748" y="97" class="st2" width="4" height="4"/>
<rect x="248" y="97" class="st2" width="4" height="4"/>
<rect x="768" y="97" class="st2" width="4" height="4"/>
<rect x="268" y="97" class="st2" width="4" height="4"/>
<rect x="788" y="97" class="st2" width="4" height="4"/>
<rect x="288" y="97" class="st2" width="4" height="4"/>
<rect x="808" y="97" class="st2" width="4" height="4"/>
<rect x="308" y="97" class="st2" width="4" height="4"/>
<rect x="828" y="97" class="st2" width="4" height="4"/>
<rect x="328" y="97" class="st2" width="4" height="4"/>
<rect x="848" y="97" class="st2" width="4" height="4"/>
<rect x="348" y="97" class="st2" width="4" height="4"/>
<rect x="868" y="97" class="st2" width="4" height="4"/>
<rect x="368" y="97" class="st2" width="4" height="4"/>
<rect x="888" y="97" class="st2" width="4" height="4"/>
<rect x="388" y="97" class="st2" width="4" height="4"/>
<rect x="908" y="97" class="st2" width="4" height="4"/>
<rect x="408" y="97" class="st2" width="4" height="4"/>
<rect x="928" y="97" class="st2" width="4" height="4"/>
<rect x="428" y="97" class="st2" width="4" height="4"/>
<rect x="948" y="97" class="st2" width="4" height="4"/>
<rect x="448" y="97" class="st2" width="4" height="4"/>
<rect x="968" y="97" class="st2" width="4" height="4"/>
<rect x="468" y="97" class="st2" width="4" height="4"/>
<rect x="988" y="97" class="st2" width="4" height="4"/>
<rect x="488" y="97" class="st2" width="4" height="4"/>
<rect x="1008" y="97" class="st2" width="4" height="4"/>
<rect x="508" y="97" class="st2" width="4" height="4"/>
<rect x="1028" y="97" class="st2" width="4" height="4"/>
<rect x="8" y="115" class="st2" width="4" height="4"/>
<rect x="528" y="115" class="st2" width="4" height="4"/>
<rect x="28" y="115" class="st2" width="4" height="4"/>
<rect x="548" y="115" class="st2" width="4" height="4"/>
<rect x="48" y="115" class="st2" width="4" height="4"/>
<rect x="568" y="115" class="st2" width="4" height="4"/>
<rect x="68" y="115" class="st2" width="4" height="4"/>
<rect x="588" y="115" class="st2" width="4" height="4"/>
<rect x="88" y="115" class="st2" width="4" height="4"/>
<rect x="608" y="115" class="st2" width="4" height="4"/>
<rect x="108" y="115" class="st2" width="4" height="4"/>
<rect x="628" y="115" class="st2" width="4" height="4"/>
<rect x="128" y="115" class="st2" width="4" height="4"/>
<rect x="648" y="115" class="st2" width="4" height="4"/>
<rect x="148" y="115" class="st2" width="4" height="4"/>
<rect x="668" y="115" class="st2" width="4" height="4"/>
<rect x="168" y="115" class="st2" width="4" height="4"/>
<rect x="688" y="115" class="st2" width="4" height="4"/>
<rect x="188" y="115" class="st2" width="4" height="4"/>
<rect x="708" y="115" class="st2" width="4" height="4"/>
<rect x="208" y="115" class="st2" width="4" height="4"/>
<rect x="728" y="115" class="st2" width="4" height="4"/>
<rect x="228" y="115" class="st2" width="4" height="4"/>
<rect x="748" y="115" class="st2" width="4" height="4"/>
<rect x="248" y="115" class="st2" width="4" height="4"/>
<rect x="768" y="115" class="st2" width="4" height="4"/>
<rect x="268" y="115" class="st2" width="4" height="4"/>
<rect x="788" y="115" class="st2" width="4" height="4"/>
<rect x="288" y="115" class="st2" width="4" height="4"/>
<rect x="808" y="115" class="st2" width="4" height="4"/>
<rect x="308" y="115" class="st2" width="4" height="4"/>
<rect x="828" y="115" class="st2" width="4" height="4"/>
<rect x="328" y="115" class="st2" width="4" height="4"/>
<rect x="848" y="115" class="st2" width="4" height="4"/>
<rect x="348" y="115" class="st2" width="4" height="4"/>
<rect x="868" y="115" class="st2" width="4" height="4"/>
<rect x="368" y="115" class="st2" width="4" height="4"/>
<rect x="888" y="115" class="st2" width="4" height="4"/>
<rect x="388" y="115" class="st2" width="4" height="4"/>
<rect x="908" y="115" class="st2" width="4" height="4"/>
<rect x="408" y="115" class="st2" width="4" height="4"/>
<rect x="928" y="115" class="st2" width="4" height="4"/>
<rect x="428" y="115" class="st2" width="4" height="4"/>
<rect x="948" y="115" class="st2" width="4" height="4"/>
<rect x="448" y="115" class="st2" width="4" height="4"/>
<rect x="968" y="115" class="st2" width="4" height="4"/>
<rect x="468" y="115" class="st2" width="4" height="4"/>
<rect x="988" y="115" class="st2" width="4" height="4"/>
<rect x="488" y="115" class="st2" width="4" height="4"/>
<rect x="1008" y="115" class="st2" width="4" height="4"/>
<rect x="508" y="115" class="st2" width="4" height="4"/>
<rect x="1028" y="115" class="st2" width="4" height="4"/>
<rect x="8" y="133" class="st2" width="4" height="4"/>
<rect x="528" y="133" class="st2" width="4" height="4"/>
<rect x="28" y="133" class="st2" width="4" height="4"/>
<rect x="548" y="133" class="st2" width="4" height="4"/>
<rect x="48" y="133" class="st2" width="4" height="4"/>
<rect x="568" y="133" class="st2" width="4" height="4"/>
<rect x="68" y="133" class="st2" width="4" height="4"/>
<rect x="588" y="133" class="st2" width="4" height="4"/>
<rect x="88" y="133" class="st2" width="4" height="4"/>
<rect x="608" y="133" class="st2" width="4" height="4"/>
<rect x="108" y="133" class="st2" width="4" height="4"/>
<rect x="628" y="133" class="st2" width="4" height="4"/>
<rect x="128" y="133" class="st2" width="4" height="4"/>
<rect x="648" y="133" class="st2" width="4" height="4"/>
<rect x="148" y="133" class="st2" width="4" height="4"/>
<rect x="668" y="133" class="st2" width="4" height="4"/>
<rect x="168" y="133" class="st2" width="4" height="4"/>
<rect x="688" y="133" class="st2" width="4" height="4"/>
<rect x="188" y="133" class="st2" width="4" height="4"/>
<rect x="708" y="133" class="st2" width="4" height="4"/>
<rect x="208" y="133" class="st2" width="4" height="4"/>
<rect x="728" y="133" class="st2" width="4" height="4"/>
<rect x="228" y="133" class="st2" width="4" height="4"/>
<rect x="748" y="133" class="st2" width="4" height="4"/>
<rect x="248" y="133" class="st2" width="4" height="4"/>
<rect x="768" y="133" class="st2" width="4" height="4"/>
<rect x="268" y="133" class="st2" width="4" height="4"/>
<rect x="788" y="133" class="st2" width="4" height="4"/>
<rect x="288" y="133" class="st2" width="4" height="4"/>
<rect x="808" y="133" class="st2" width="4" height="4"/>
<rect x="308" y="133" class="st2" width="4" height="4"/>
<rect x="828" y="133" class="st2" width="4" height="4"/>
<rect x="328" y="133" class="st2" width="4" height="4"/>
<rect x="848" y="133" class="st2" width="4" height="4"/>
<rect x="348" y="133" class="st2" width="4" height="4"/>
<rect x="868" y="133" class="st2" width="4" height="4"/>
<rect x="368" y="133" class="st2" width="4" height="4"/>
<rect x="888" y="133" class="st2" width="4" height="4"/>
<rect x="388" y="133" class="st2" width="4" height="4"/>
<rect x="908" y="133" class="st2" width="4" height="4"/>
<rect x="408" y="133" class="st2" width="4" height="4"/>
<rect x="928" y="133" class="st2" width="4" height="4"/>
<rect x="428" y="133" class="st2" width="4" height="4"/>
<rect x="948" y="133" class="st2" width="4" height="4"/>
<rect x="448" y="133" class="st2" width="4" height="4"/>
<rect x="968" y="133" class="st2" width="4" height="4"/>
<rect x="468" y="133" class="st2" width="4" height="4"/>
<rect x="988" y="133" class="st2" width="4" height="4"/>
<rect x="488" y="133" class="st2" width="4" height="4"/>
<rect x="1008" y="133" class="st2" width="4" height="4"/>
<rect x="508" y="133" class="st2" width="4" height="4"/>
<rect x="1028" y="133" class="st2" width="4" height="4"/>
<linearGradient id="SVGID_2_" gradientUnits="userSpaceOnUse" x1="892.4753" y1="-257.8133" x2="622.0133" y2="228.2717" gradientTransform="matrix(1 0 0 1 0 108)">
	<stop  offset="0" style="stop-color:#000000"/>
	<stop  offset="1" style="stop-color:#2D2E43;stop-opacity:0"/>
</linearGradient>
<rect x="220" class="st3" width="1097" height="146"/>
</svg>
