<svg width="482" height="482" viewBox="0 0 482 482" fill="none" xmlns="http://www.w3.org/2000/svg">
<ellipse opacity="0.5" cx="241" cy="241" rx="241" ry="241" fill="url(#paint0_linear)"/>
<ellipse cx="241" cy="241" rx="202" ry="202" fill="url(#paint1_linear)"/>
<circle cx="241" cy="241" r="169" fill="url(#paint2_linear)"/>
<path d="M217.078 270.334L195.769 298.562L167.633 277.253L188.85 249.117L217.078 270.334Z" fill="url(#paint3_linear)"/>
<path d="M190.279 259.403L177.881 275.817L194.295 288.215L206.693 271.801L190.279 259.403Z" fill="white"/>
<path d="M162.375 284.263L124 335H143.833C159.239 335 173.629 327.804 182.947 315.535L190.511 305.48L162.375 284.263Z" fill="#98A2FF"/>
<path d="M138.852 327.62L163.851 294.595L180.271 306.956L177.135 311.108C169.294 321.439 156.933 327.62 143.926 327.62H138.852Z" fill="white"/>
<path d="M224.919 276.33L203.61 304.466L244.015 335H302.592L224.919 276.33Z" fill="url(#paint4_linear)"/>
<path d="M246.505 327.62L213.942 302.99L226.303 286.662L280.637 327.62H246.505Z" fill="white"/>
<path d="M362 143.862L295.12 166.647L313.293 180.208L272.796 234.818L222.89 201.425H164.405L277.593 286.939L341.89 201.425L362 216.277V143.862Z" fill="url(#paint5_linear)"/>
<path d="M186.36 208.804H220.676L274.549 244.781L323.625 178.639L310.802 169.138L354.62 154.193V201.609L340.414 191.093L276.117 276.607L186.36 208.804Z" fill="white"/>
<path d="M354.62 154.194L362 143.862L295.12 166.647L310.802 169.138L354.62 154.194Z" fill="url(#paint6_linear)"/>
<path d="M323.625 178.639L313.293 180.207L272.796 234.818L274.549 244.781L323.625 178.639Z" fill="url(#paint7_linear)"/>
<path d="M222.89 201.425L220.676 208.805H186.36L164.405 201.425H222.89Z" fill="url(#paint8_linear)"/>
<path d="M340.414 191.093L341.89 201.425L362 216.276L354.62 201.609L340.414 191.093Z" fill="url(#paint9_linear)"/>
<path d="M194.293 288.23L195.769 298.562L167.633 277.252L177.965 275.869L194.293 288.23Z" fill="url(#paint10_linear)"/>
<path d="M217.078 270.334L206.747 271.81L190.327 259.449L188.851 249.117L217.078 270.334Z" fill="url(#paint11_linear)"/>
<path d="M195.769 298.562L217.078 270.334L206.746 271.81L194.293 288.23" fill="url(#paint12_linear)"/>
<path d="M226.303 286.662L224.919 276.33L203.61 304.466L213.942 302.99L226.303 286.662Z" fill="url(#paint13_linear)"/>
<path d="M302.592 335L280.637 327.62H246.505L244.015 335H302.592Z" fill="url(#paint14_linear)"/>
<path d="M203.61 304.466L213.942 302.99L246.505 327.62L244.015 335L203.61 304.466Z" fill="url(#paint15_linear)"/>
<path d="M180.179 306.956L190.511 305.48L162.375 284.263L163.759 294.595L180.179 306.956Z" fill="url(#paint16_linear)"/>
<path d="M163.759 294.595L162.375 284.263L124 335L138.852 327.62L163.759 294.595Z" fill="url(#paint17_linear)"/>
<path d="M277.593 286.939L276.117 276.607L186.36 208.805L164.405 201.425L277.593 286.939Z" fill="url(#paint18_linear)"/>
<g style="mix-blend-mode:screen">
<path d="M221.8 202.4H76L76.1 201.8C84.7 165.4 105.5 132.5 134.8 109C164.5 85.1 201.9 72 240.1 72C240.6 72 241.1 72 241.7 72V73C241.2 73 240.7 73 240.1 73C162.1 73 95.3 125.8 77.3 201.4H221.8V202.4Z" fill="url(#paint19_linear)"/>
<path d="M380.2 335H247.8V334H379.7C399.8 305.6 410.4 272.2 410.4 237.3C410.4 226.5 409.4 215.7 407.3 205.2L408.3 205C410.4 215.6 411.4 226.4 411.4 237.3C411.4 272.5 400.7 306.2 380.3 334.8L380.2 335Z" fill="url(#paint20_linear)"/>
</g>
<defs>
<linearGradient id="paint0_linear" x1="241" y1="0" x2="241" y2="482" gradientUnits="userSpaceOnUse">
<stop stop-color="#8647FF" stop-opacity="0.12"/>
<stop offset="0.46875" stop-color="#3E52D7" stop-opacity="0"/>
<stop offset="1" stop-color="#3EAEFF" stop-opacity="0.17"/>
</linearGradient>
<linearGradient id="paint1_linear" x1="241" y1="39" x2="241" y2="443" gradientUnits="userSpaceOnUse">
<stop stop-color="#8647FF" stop-opacity="0.12"/>
<stop offset="0.46875" stop-color="#3E52D7" stop-opacity="0"/>
<stop offset="1" stop-color="#3EAEFF" stop-opacity="0.17"/>
</linearGradient>
<linearGradient id="paint2_linear" x1="241" y1="72" x2="241" y2="410" gradientUnits="userSpaceOnUse">
<stop stop-color="#8647FF" stop-opacity="0.19"/>
<stop offset="0.46875" stop-color="#3E52D7" stop-opacity="0"/>
<stop offset="1" stop-color="#3EAEFF" stop-opacity="0.26"/>
</linearGradient>
<linearGradient id="paint3_linear" x1="119.028" y1="333.412" x2="350.771" y2="144.985" gradientUnits="userSpaceOnUse">
<stop stop-color="#B397E2"/>
<stop offset="0.2836" stop-color="#C7B3EA"/>
<stop offset="0.7565" stop-color="#E5DCF6"/>
<stop offset="1" stop-color="#F1ECFA"/>
</linearGradient>
<linearGradient id="paint4_linear" x1="163.036" y1="387.537" x2="394.779" y2="199.11" gradientUnits="userSpaceOnUse">
<stop stop-color="#B397E2"/>
<stop offset="0.2836" stop-color="#C7B3EA"/>
<stop offset="0.7565" stop-color="#E5DCF6"/>
<stop offset="1" stop-color="#F1ECFA"/>
</linearGradient>
<linearGradient id="paint5_linear" x1="343.451" y1="203.198" x2="196.656" y2="252.29" gradientUnits="userSpaceOnUse">
<stop stop-color="#C3AEE8"/>
<stop offset="0.6598" stop-color="#D9DAF4"/>
<stop offset="1" stop-color="#EFEAF9"/>
</linearGradient>
<linearGradient id="paint6_linear" x1="369.5" y1="141" x2="301" y2="167" gradientUnits="userSpaceOnUse">
<stop stop-color="white"/>
<stop offset="0.3493" stop-color="#ECE5F8"/>
<stop offset="1" stop-color="#F18DF3"/>
</linearGradient>
<linearGradient id="paint7_linear" x1="318.548" y1="180.569" x2="288.467" y2="219.554" gradientUnits="userSpaceOnUse">
<stop stop-color="#CC8BFF"/>
<stop offset="0.192708" stop-color="#C8AEF2"/>
<stop offset="1" stop-color="#EFEAF9"/>
</linearGradient>
<linearGradient id="paint8_linear" x1="165.52" y1="204.11" x2="223.757" y2="205.554" gradientUnits="userSpaceOnUse">
<stop stop-color="#CBB9EC"/>
<stop offset="0.7783" stop-color="#EAE2F8"/>
<stop offset="0.9765" stop-color="white"/>
</linearGradient>
<linearGradient id="paint9_linear" x1="343.193" y1="197.266" x2="361.001" y2="212.186" gradientUnits="userSpaceOnUse">
<stop stop-color="#AF9AD4"/>
<stop offset="0.3093" stop-color="#BEADDD"/>
<stop offset="1" stop-color="#DED5EF"/>
</linearGradient>
<linearGradient id="paint10_linear" x1="181.682" y1="275.762" x2="181.682" y2="295.875" gradientUnits="userSpaceOnUse">
<stop stop-color="#C3AEE8"/>
<stop offset="0.6598" stop-color="#E3D9F4"/>
<stop offset="1" stop-color="#EFEAF9"/>
</linearGradient>
<linearGradient id="paint11_linear" x1="188.876" y1="260.455" x2="217.044" y2="260.455" gradientUnits="userSpaceOnUse">
<stop stop-color="#EAE2F8"/>
<stop offset="1" stop-color="#CBB9EC"/>
</linearGradient>
<linearGradient id="paint12_linear" x1="194.324" y1="284.452" x2="217.044" y2="284.452" gradientUnits="userSpaceOnUse">
<stop stop-color="#AF9AD4"/>
<stop offset="0.3093" stop-color="#BEADDD"/>
<stop offset="1" stop-color="#DED5EF"/>
</linearGradient>
<linearGradient id="paint13_linear" x1="207.171" y1="304.473" x2="226.664" y2="280.89" gradientUnits="userSpaceOnUse">
<stop stop-color="#CBB9EC"/>
<stop offset="0.2141" stop-color="#D1C1EE"/>
<stop offset="0.5463" stop-color="#E1D7F4"/>
<stop offset="0.9533" stop-color="#FCFAFE"/>
<stop offset="1" stop-color="white"/>
</linearGradient>
<linearGradient id="paint14_linear" x1="244.04" y1="331.304" x2="302.623" y2="331.304" gradientUnits="userSpaceOnUse">
<stop stop-color="#DED5EF"/>
<stop offset="1" stop-color="#98A2FF"/>
</linearGradient>
<linearGradient id="paint15_linear" x1="203.611" y1="319.006" x2="246.514" y2="319.006" gradientUnits="userSpaceOnUse">
<stop stop-color="#C3AEE8"/>
<stop offset="0.6598" stop-color="#E3D9F4"/>
<stop offset="1" stop-color="#EFEAF9"/>
</linearGradient>
<linearGradient id="paint16_linear" x1="162.335" y1="295.593" x2="190.503" y2="295.593" gradientUnits="userSpaceOnUse">
<stop stop-color="#EAE2F8"/>
<stop offset="1" stop-color="#CBB9EC"/>
</linearGradient>
<linearGradient id="paint17_linear" x1="124" y1="309.614" x2="163.777" y2="309.614" gradientUnits="userSpaceOnUse">
<stop stop-color="#CBB9EC"/>
<stop offset="0.6507" stop-color="#ECE5F8"/>
<stop offset="1" stop-color="white"/>
</linearGradient>
<linearGradient id="paint18_linear" x1="276.501" y1="285.664" x2="177.355" y2="203.363" gradientUnits="userSpaceOnUse">
<stop stop-color="#97A9EA"/>
<stop offset="0.6598" stop-color="#E3D9F4"/>
<stop offset="1" stop-color="#EFEAF9"/>
</linearGradient>
<linearGradient id="paint19_linear" x1="172.101" y1="81.6753" x2="149.014" y2="201.806" gradientUnits="userSpaceOnUse">
<stop stop-color="#55BEFF" stop-opacity="0"/>
<stop offset="0.7187" stop-color="#81CDFF" stop-opacity="0.4312"/>
<stop offset="1" stop-color="#94D3FF" stop-opacity="0.6"/>
</linearGradient>
<linearGradient id="paint20_linear" x1="308.917" y1="340.328" x2="413.265" y2="221.371" gradientUnits="userSpaceOnUse">
<stop stop-color="#94D3FF" stop-opacity="0.6"/>
<stop offset="0.2813" stop-color="#81CDFF" stop-opacity="0.4312"/>
<stop offset="1" stop-color="#55BEFF" stop-opacity="0"/>
</linearGradient>
</defs>
</svg>
