<svg width="18" height="18" viewBox="0 0 18 18" fill="none" xmlns="http://www.w3.org/2000/svg">
<path d="M11.9883 15.8906L14.8008 18V15.8906H18V6.36328H11.6367V0H0V9.52734H3.19922V11.6367L6.01172 9.52734H6.36328V15.8906H11.9883ZM16.9453 14.8359H13.7461V15.8906L12.3398 14.8359H7.41797V7.41797H16.9453V14.8359ZM5.66016 8.47266L4.25391 9.52734V8.47266H1.05469V1.05469H10.582V6.36328H8.27051L5.83594 1.49414L3.25635 6.65332L4.20117 7.12354L4.84717 5.83154H6.8335L7.09717 6.35889H6.36768V8.46826H5.66016V8.47266ZM6.30176 4.78125H5.37012L5.83594 3.84961L6.30176 4.78125ZM11.4258 11.9663C10.8589 12.4409 10.3271 12.6914 10.0547 12.6914V13.7461C10.7358 13.7461 11.5488 13.2495 12.1641 12.7222C12.7793 13.2495 13.5923 13.7461 14.2734 13.7461V12.6914C14.001 12.6914 13.4692 12.4453 12.9023 11.9663C13.21 11.5928 13.5308 11.105 13.6714 10.582H14.8008V9.52734H12.6914V8.47266H11.6367V9.52734H9.52734V10.582H10.6567C10.7974 11.1094 11.1182 11.5972 11.4258 11.9663ZM12.1641 11.2061C11.9971 10.9907 11.8652 10.7798 11.7729 10.582H12.5508C12.4629 10.7798 12.3311 10.9907 12.1641 11.2061Z" fill="white"/>
</svg>
