<svg width="850" height="620" viewBox="0 0 850 620" fill="none" xmlns="http://www.w3.org/2000/svg">
<path d="M431.99 326.97V382.23L379.36 410.85V355.59L431.99 326.97Z" fill="url(#paint0_linear)"/>
<path d="M379.36 355.59V410.85L331.81 379.42V324.17L379.36 355.59Z" fill="url(#paint1_linear)"/>
<path d="M384.18 295.55L431.99 326.97L379.36 355.59L331.81 324.17L384.18 295.55Z" fill="url(#paint2_linear)"/>
<path d="M369.05 327.02L364.64 324.47L357.34 328.69L361.75 331.24L369.05 327.02Z" fill="url(#paint3_linear)"/>
<path d="M391.02 326.22L386.61 323.67L367.62 334.63L372.03 337.18L391.02 326.22Z" fill="url(#paint4_linear)"/>
<path d="M415.91 323.72L411.5 321.17L377.91 340.56L382.32 343.11L415.91 323.72Z" fill="url(#paint5_linear)"/>
<path d="M381.77 321.38C377.39 323.91 370.06 323.9 365.65 321.35C361.24 318.8 361.22 314.58 365.6 312.05C372.76 307.92 388.73 308.03 388.73 308.03C388.73 308.03 388.63 317.42 381.77 321.38Z" fill="url(#paint6_radial)"/>
<path d="M369.01 318.73L368.72 318.9C367.99 319.15 367.11 318.98 366.67 318.56C365.34 316.95 365.92 314.92 368.11 313.66C368.26 313.58 368.55 313.24 369.43 313.41L370.16 313.67C370.75 313.84 370.75 314.18 370.31 314.43C370.16 314.51 370.02 314.6 369.87 314.68C368.26 315.61 367.98 317.13 369.01 318.23C369.3 318.4 369.15 318.65 369.01 318.73Z" fill="#FFE278"/>
<path d="M353.18 143.02V426.87L291.16 460.6V176.74L353.18 143.02Z" fill="url(#paint7_linear)"/>
<path d="M291.16 176.74V460.6L235.13 423.57V139.71L291.16 176.74Z" fill="url(#paint8_linear)"/>
<path d="M296.85 105.99L353.18 143.02L291.16 176.74L235.13 139.71L296.85 105.99Z" fill="url(#paint9_linear)"/>
<path d="M288.87 133.14L301.29 140.31C301.75 140.58 301.75 140.93 301.45 141.28L295.22 147.89C294.76 148.33 293.69 148.42 293.08 148.06L275.29 137.79C274.68 137.44 274.83 136.82 275.59 136.55L287.04 132.95C287.8 132.88 288.56 132.97 288.87 133.14Z" fill="url(#paint10_linear)"/>
<path d="M268.7 133.99L281.12 141.16C281.58 141.43 281.58 141.78 281.28 142.13L275.05 148.74C274.59 149.18 273.52 149.27 272.91 148.91L255.12 138.64C254.51 138.29 254.66 137.67 255.42 137.4L266.87 133.8C267.63 133.72 268.24 133.72 268.7 133.99Z" fill="url(#paint11_linear)"/>
<path d="M287.4 144.79L299.82 151.96C300.28 152.23 300.28 152.58 299.98 152.93L293.75 159.54C293.29 159.98 292.22 160.07 291.61 159.71L273.67 149.35C273.06 149 273.21 148.38 273.97 148.11L285.42 144.51C286.33 144.52 287.1 144.61 287.4 144.79Z" fill="url(#paint12_linear)"/>
<path d="M300.039 135.02C299.619 134.78 299.609 134.38 300.039 134.14L305.219 131.15C305.639 130.91 306.329 130.91 306.749 131.15C307.169 131.39 307.179 131.79 306.749 132.03L301.569 135.02C301.149 135.26 300.459 135.26 300.039 135.02Z" fill="#FFE278"/>
<path d="M333.57 141.42C333.52 141.05 333.17 140.7 332.64 140.49L324.67 137.3C323.69 136.91 322.34 137.04 321.66 137.61C320.98 138.18 321.23 138.95 322.22 139.35L324.91 140.43L301.04 141.13L299.23 130.64C299.16 130.24 298.82 129.87 298.27 129.62C297.73 129.37 297.03 129.25 296.34 129.29L265.63 131.26C264.21 131.35 263.19 132.09 263.36 132.91C263.43 133.26 263.71 133.57 264.11 133.8C264.65 134.11 265.43 134.29 266.24 134.23L294.33 132.42L296.12 142.82C296.26 143.62 297.46 144.22 298.85 144.18L324.78 143.42L323.51 144.12C322.65 144.59 322.62 145.38 323.44 145.88C323.45 145.89 323.47 145.89 323.48 145.9C324.31 146.38 325.65 146.39 326.5 145.93L332.9 142.41C333.38 142.17 333.62 141.8 333.57 141.42Z" fill="url(#paint13_linear)"/>
<path d="M303.73 138.38C303.6 138.3 303.5 138.21 303.45 138.1C303.3 137.77 303.64 137.43 304.22 137.34L311.25 136.29C311.83 136.2 312.42 136.4 312.57 136.74C312.72 137.07 312.38 137.41 311.8 137.5L304.77 138.55C304.38 138.6 303.99 138.53 303.73 138.38Z" fill="#FFE278"/>
<path d="M294.22 132.89C293.96 132.74 293.84 132.51 293.93 132.29L295.74 128.23C295.89 127.9 296.48 127.7 297.06 127.79C297.64 127.88 297.99 128.22 297.84 128.55L296.03 132.61C295.88 132.94 295.29 133.14 294.71 133.05C294.52 133.02 294.35 132.97 294.22 132.89Z" fill="#FFE278"/>
<path d="M279.15 318.54V408.52L193.44 455.12V365.15L279.15 318.54Z" fill="url(#paint14_linear)"/>
<path d="M193.44 365.15V455.12L116 403.95V313.97L193.44 365.15Z" fill="url(#paint15_linear)"/>
<path d="M201.29 267.36L279.15 318.54L193.44 365.15L116 313.97L201.29 267.36Z" fill="url(#paint16_linear)"/>
<path d="M194.02 303.65C195.19 302.98 196.16 302.42 197.32 301.74C197.71 301.97 198.1 302.19 198.49 302.42C199.08 302.76 199.86 303.21 200.45 303.55C200.84 303.78 201.23 303.78 201.62 303.55C202.4 303.1 203.17 302.65 204.15 302.09C205.13 302.65 206.3 303.33 207.28 303.9C206.5 304.35 205.73 304.8 204.95 305.25C204.17 305.7 204.17 305.7 204.95 306.15C206.12 306.83 205.93 306.71 206.9 306.15C207.48 305.81 208.26 305.36 208.84 305.03C210.01 305.71 210.99 306.27 211.97 306.84C211.19 307.29 210.42 307.74 209.64 308.19C208.86 308.64 209.06 308.53 209.64 309.09C210.42 309.77 211.4 310.56 212.19 311.23C213.56 312.92 213.18 314.5 211.04 315.73C208.9 316.96 205.79 317.41 203.05 316.73C202.85 316.62 202.66 316.73 202.46 316.62C202.66 316.96 203.05 317.18 203.24 317.52C205.01 319.89 203.27 322.25 198.98 323.37C196.64 324.04 194.3 323.81 192.16 323.25C190.6 322.8 189.23 322.23 187.86 321.67C187.47 321.44 187.08 321.44 186.69 321.67C185.91 322.12 185.14 322.57 184.16 323.13C183.18 322.57 182.01 321.89 181.03 321.32C181.42 321.1 181.61 320.98 182 320.76C182.19 320.65 182.58 320.42 182.78 320.31C183.95 319.64 183.94 319.41 182.58 318.85C182.19 318.62 181.99 318.74 181.61 318.96C180.83 319.41 180.06 319.86 179.08 320.42C178.1 319.86 176.93 319.18 175.95 318.61C176.73 318.16 177.5 317.71 178.28 317.26C178.86 316.92 178.86 316.92 178.28 316.58C177.3 316.02 176.13 315.34 175.15 314.77C176.32 314.1 177.29 313.54 178.45 312.86C178.84 313.09 179.23 313.31 179.62 313.54C180.21 313.88 180.99 313.88 181.57 313.54C186.23 310.85 190.7 308.27 195.17 305.69C195.75 305.35 195.75 304.9 195.16 304.56C194.81 304.1 194.41 303.87 194.02 303.65ZM185.52 316.69C187.08 317.59 188.45 318.38 190.21 319.17C191.19 319.73 192.36 319.96 193.92 319.96C196.84 320.08 198.79 318.51 197.8 317.04C197.6 316.7 197.41 316.59 197.21 316.25C195.84 315.01 193.88 314.11 192.12 313.09C189.79 314.22 187.65 315.45 185.52 316.69ZM195.23 311.08C196.6 311.87 197.97 312.66 199.14 313.34C199.73 313.68 200.31 313.79 200.9 313.91C202.66 314.25 204.21 314.03 205.38 313.13C206.55 312.46 206.54 311.56 205.56 310.54C204.38 309.41 202.43 308.51 200.67 307.49C199.12 308.83 197.18 309.96 195.23 311.08Z" fill="url(#paint17_linear)"/>
<path d="M210.58 336.09C199.29 338.77 180.18 338.96 165.52 330.49C158.68 326.54 154.75 321.8 153.55 316.4C152.75 312.35 153.31 308.41 156.02 304.59C157.19 305.27 158.17 305.83 159.15 306.4C159.35 306.51 159.35 306.74 159.15 306.85C156.64 311.91 157.06 316.64 160.4 321.48C167.87 332.07 187.59 337.62 206.48 334.39C207.26 334.17 207.84 334.28 208.24 334.73C208.82 335.08 209.6 335.53 210.58 336.09Z" fill="url(#paint18_linear)"/>
<path d="M180.31 290.56C192.58 287.77 211.1 288.14 224.98 296.16C238.86 303.95 239.9 314.87 234.87 322.07C233.89 321.51 232.72 320.83 231.74 320.26C231.54 320.15 231.54 319.92 231.74 319.81C234.25 314.52 233.63 309.23 229.71 304.27C221.86 294.35 202.73 289.36 184.61 292.37C183.64 292.48 183.25 292.48 182.46 292.03C181.87 291.47 181.09 291.02 180.31 290.56Z" fill="url(#paint19_linear)"/>
<path d="M222.37 317.99C226.45 315.63 233.47 315.65 237.58 318.02C241.69 320.39 241.71 324.44 237.63 326.8C233.55 329.16 226.53 329.14 222.42 326.77C218.31 324.4 218.29 320.35 222.37 317.99Z" fill="url(#paint20_linear)"/>
<path d="M233.91 324.65C236.24 323.3 236.43 321.39 234.28 320.15C232.13 318.91 229.01 318.9 226.48 320.14C224.15 321.49 223.96 323.4 226.11 324.64C228.26 325.88 231.58 326 233.91 324.65Z" fill="url(#paint21_linear)"/>
<path d="M154.04 300.53C158.12 298.17 165.14 298.19 169.25 300.56C173.36 302.93 173.38 306.98 169.3 309.34C165.22 311.7 158.2 311.68 154.09 309.31C149.98 306.94 149.96 302.89 154.04 300.53Z" fill="url(#paint22_linear)"/>
<path d="M165.58 307.2C167.91 305.85 168.1 303.94 165.95 302.7C163.8 301.46 160.68 301.45 158.15 302.69C155.82 304.04 155.63 305.95 157.78 307.19C160.13 308.54 163.25 308.54 165.58 307.2Z" fill="url(#paint23_linear)"/>
<path d="M445.39 575.5L310.71 592.72L387.3 542.26L445.39 575.5Z" fill="url(#paint24_linear)"/>
<path d="M458.51 49.42V379.93L405.88 408.55V78.04L458.51 49.42Z" fill="url(#paint25_linear)"/>
<path d="M405.88 78.04V408.55L358.33 377.13V46.62L405.88 78.04Z" fill="url(#paint26_linear)"/>
<path d="M410.7 18L458.51 49.42L405.88 78.04L358.33 46.62L410.7 18Z" fill="url(#paint27_linear)"/>
<path d="M390.43 49.0801L385.73 46.3601L375.6 52.2101L380.3 54.9301L390.43 49.0801Z" fill="url(#paint28_linear)"/>
<path d="M404.51 51.8201L399.81 49.1001L385 57.6501L389.7 60.3701L404.51 51.8201Z" fill="url(#paint29_linear)"/>
<path d="M419.37 54.1L414.67 51.38L394.41 63.08L399.11 65.8L419.37 54.1Z" fill="url(#paint30_linear)"/>
<path d="M435.79 55.48L431.09 52.76L403.82 68.5L408.52 71.22L435.79 55.48Z" fill="url(#paint31_linear)"/>
<path d="M377.26 42.74C380.86 44.1 398.41 51.89 432.01 50.6L436.1 55.3L445.11 45.57L426.5 41.3L429.65 46.5401C429.65 46.5401 403.56 49.8301 377.73 42.2901C377.57 42.2001 377.42 42.29 377.26 42.38C376.95 42.38 376.95 42.56 377.26 42.74Z" fill="url(#paint32_linear)"/>
<path opacity="0.2" d="M426.24 95.9399H425.07V332.26H426.24V95.9399Z" fill="url(#paint33_linear)"/>
<path opacity="0.2" d="M436.93 83.11H435.76V319.43H436.93V83.11Z" fill="url(#paint34_linear)"/>
<path opacity="0.2" d="M447.62 70.28H446.45V306.6H447.62V70.28Z" fill="url(#paint35_linear)"/>
<path d="M445.39 575.5L387.3 542.26L419.73 492.63L468.38 509.03L445.39 575.5Z" fill="url(#paint36_linear)"/>
<path d="M491.37 548.18L445.39 575.5L468.38 509.03L491.37 548.18Z" fill="url(#paint37_linear)"/>
<path d="M587 424.11V446.83L301.39 601.86V579.14L587 424.11Z" fill="url(#paint38_linear)"/>
<path d="M301.39 579.14V601.86L256 571.86V549.15L301.39 579.14Z" fill="url(#paint39_linear)"/>
<path d="M541.36 394.12L587 424.11L301.39 579.14L256 549.15L541.36 394.12Z" fill="url(#paint40_linear)"/>
<path d="M586.99 424.12L514.14 463.66L468.67 433.62L541.36 394.13L586.99 424.12Z" fill="url(#paint41_linear)"/>
<path d="M587 371.41V424.15L536.76 451.46V398.73L587 371.41Z" fill="url(#paint42_linear)"/>
<path d="M536.76 398.73V451.46L491.37 421.47V368.73L536.76 398.73Z" fill="url(#paint43_linear)"/>
<path d="M541.36 341.42L587 371.41L536.76 398.73L491.37 368.73L541.36 341.42Z" fill="url(#paint44_linear)"/>
<path d="M351.62 499.09V551.82L301.39 579.14V526.41L351.62 499.09Z" fill="url(#paint45_linear)"/>
<path d="M301.39 526.41V579.14L256 549.15V496.41L301.39 526.41Z" fill="url(#paint46_linear)"/>
<path d="M287.89 517.48L256 526.41L255.85 502.05L287.89 517.48Z" fill="url(#paint47_linear)"/>
<path d="M305.99 469.1L351.62 499.09L301.39 526.41L256 496.41L305.99 469.1Z" fill="url(#paint48_linear)"/>
<path d="M330.77 441.43V494.16L280.54 521.48V468.75L330.77 441.43Z" fill="url(#paint49_linear)"/>
<path d="M280.54 468.75V521.48L235.15 491.49V438.75L280.54 468.75Z" fill="url(#paint50_linear)"/>
<path d="M285.14 411.44L330.77 441.43L280.54 468.75L235.15 438.75L285.14 411.44Z" fill="url(#paint51_linear)"/>
<path d="M349.2 388.7V441.43L298.97 468.75V416.01L349.2 388.7Z" fill="url(#paint52_linear)"/>
<path d="M298.97 416.01V468.75L253.58 438.75V386.02L298.97 416.01Z" fill="url(#paint53_linear)"/>
<path d="M303.57 358.7L349.2 388.7L298.97 416.01L253.58 386.02L303.57 358.7Z" fill="url(#paint54_linear)"/>
<path opacity="0.49" d="M290.65 463.25L330.77 494.16V451.45L298.97 468.75L290.65 463.25Z" fill="url(#paint55_linear)"/>
<path d="M486.644 91.61L488.778 90.2394V90.2507C489.284 89.9136 489.845 89.7227 490.486 89.7227C491.317 89.7227 492.227 90.0035 493.193 90.5652L726.589 225.322C730.824 227.771 734.273 234.4 734.273 240.096V415.443C734.273 418.184 733.442 420.206 732.06 421.071L732.015 421.093C732.004 421.093 732.004 421.105 731.992 421.105L729.307 422.756L727.813 422.925L728.161 420.914C728.015 420.835 727.869 420.768 727.712 420.689L494.328 285.932C490.093 283.483 486.644 276.855 486.644 271.147V95.8117C486.644 94.1603 486.958 92.8009 487.497 91.7673L486.644 91.61Z" fill="url(#paint56_linear)"/>
<path d="M484.43 97.238V272.585C484.43 278.292 487.879 284.92 492.115 287.369L725.521 422.115C726.487 422.677 727.397 422.958 728.229 422.958C730.565 422.958 732.071 420.565 732.071 416.869V241.511C732.071 235.803 728.622 229.175 724.386 226.737L490.991 91.9803C490.025 91.4298 489.115 91.1377 488.284 91.1377C485.947 91.1377 484.43 93.5306 484.43 97.238Z" fill="url(#paint57_linear)"/>
<path d="M727.015 350.799C713.815 344.384 704.389 287.459 677.999 274.259C650.98 260.744 618.007 293.886 600.706 285.898C576.204 274.585 581.439 186.361 545.995 164.869C519.055 148.534 500.417 198.101 489.104 193.955V279.168L726.071 418.296L727.015 350.799Z" fill="url(#paint58_linear)"/>
<path d="M728.734 271.989L724.813 269.72C724.274 269.405 724.083 268.72 724.397 268.17C724.712 267.63 725.409 267.439 725.937 267.754L729.857 270.023C730.397 270.338 730.588 271.023 730.273 271.574C730.06 271.933 729.678 272.135 729.296 272.135C729.105 272.135 728.902 272.091 728.734 271.989ZM718.937 266.327L715.017 264.058C714.477 263.743 714.286 263.058 714.601 262.508C714.916 261.968 715.612 261.777 716.14 262.092L720.061 264.361C720.6 264.676 720.791 265.361 720.477 265.912C720.263 266.271 719.892 266.473 719.499 266.473C719.308 266.473 719.117 266.428 718.937 266.327ZM709.152 260.665L705.231 258.396C704.692 258.081 704.501 257.396 704.816 256.845C705.13 256.306 705.827 256.115 706.355 256.43L710.276 258.699C710.815 259.014 711.006 259.699 710.691 260.249C710.478 260.609 710.096 260.811 709.714 260.811C709.523 260.811 709.321 260.766 709.152 260.665ZM699.356 254.992L695.435 252.722C694.896 252.408 694.705 251.723 695.019 251.172C695.334 250.633 696.03 250.442 696.558 250.756L700.479 253.026C701.019 253.34 701.21 254.026 700.895 254.576C700.682 254.936 700.3 255.138 699.918 255.138C699.727 255.149 699.536 255.104 699.356 254.992ZM689.559 249.33L685.65 247.06C685.111 246.746 684.92 246.06 685.234 245.51C685.549 244.971 686.245 244.791 686.773 245.094L690.683 247.364C691.222 247.678 691.413 248.363 691.099 248.914C690.885 249.273 690.503 249.476 690.121 249.476C689.93 249.487 689.739 249.442 689.559 249.33ZM679.774 243.667L675.865 241.398C675.325 241.083 675.134 240.398 675.449 239.848C675.764 239.308 676.46 239.129 676.988 239.432L680.898 241.701C681.437 242.016 681.628 242.701 681.313 243.252C681.1 243.611 680.718 243.813 680.336 243.813C680.145 243.825 679.954 243.769 679.774 243.667ZM669.978 238.005L666.068 235.736C665.529 235.421 665.338 234.736 665.653 234.186C665.967 233.646 666.664 233.455 667.192 233.77L671.101 236.039C671.641 236.354 671.832 237.039 671.517 237.59C671.304 237.949 670.933 238.151 670.54 238.151C670.349 238.163 670.158 238.106 669.978 238.005ZM660.193 232.343L656.272 230.074C655.733 229.759 655.542 229.074 655.856 228.523C656.171 227.984 656.867 227.793 657.395 228.108L661.316 230.377C661.855 230.692 662.046 231.377 661.732 231.927C661.518 232.287 661.136 232.489 660.754 232.489C660.563 232.489 660.372 232.444 660.193 232.343ZM650.396 226.681L646.475 224.412C645.936 224.097 645.745 223.412 646.06 222.861C646.374 222.322 647.071 222.131 647.599 222.446L651.52 224.715C652.059 225.029 652.25 225.715 651.935 226.265C651.722 226.625 651.351 226.827 650.958 226.827C650.778 226.827 650.576 226.782 650.396 226.681ZM640.611 221.019L636.69 218.749C636.151 218.435 635.96 217.75 636.275 217.199C636.589 216.66 637.286 216.469 637.814 216.783L641.734 219.053C642.274 219.367 642.465 220.053 642.15 220.603C641.937 220.963 641.566 221.165 641.173 221.165C640.982 221.165 640.791 221.12 640.611 221.019ZM630.815 215.345L626.894 213.076C626.355 212.761 626.164 212.076 626.478 211.526C626.793 210.986 627.489 210.795 628.017 211.11L631.938 213.379C632.477 213.694 632.668 214.379 632.354 214.93C632.14 215.289 631.758 215.491 631.376 215.491C631.197 215.503 630.994 215.458 630.815 215.345ZM621.029 209.683L617.109 207.414C616.569 207.099 616.378 206.414 616.693 205.864C617.008 205.324 617.704 205.133 618.232 205.448L622.153 207.717C622.692 208.032 622.883 208.717 622.569 209.268C622.355 209.627 621.973 209.829 621.591 209.829C621.4 209.841 621.198 209.784 621.029 209.683ZM611.233 204.021L607.312 201.752C606.773 201.437 606.582 200.752 606.897 200.201C607.211 199.662 607.908 199.471 608.436 199.786L612.356 202.055C612.896 202.37 613.087 203.055 612.772 203.605C612.559 203.965 612.188 204.167 611.795 204.167C611.604 204.178 611.413 204.122 611.233 204.021ZM601.448 198.359L597.527 196.09C596.988 195.775 596.797 195.09 597.111 194.539C597.426 194 598.122 193.809 598.65 194.124L602.571 196.393C603.111 196.707 603.301 197.393 602.987 197.943C602.773 198.303 602.403 198.505 602.01 198.505C601.819 198.505 601.616 198.46 601.448 198.359ZM591.651 192.697L587.731 190.427C587.191 190.113 587 189.428 587.315 188.877C587.629 188.338 588.326 188.147 588.854 188.461L592.775 190.731C593.314 191.045 593.505 191.731 593.19 192.281C592.977 192.641 592.595 192.843 592.213 192.843C592.022 192.843 591.831 192.798 591.651 192.697ZM581.866 187.035L577.945 184.765C577.406 184.451 577.215 183.765 577.53 183.215C577.844 182.676 578.541 182.485 579.069 182.799L582.99 185.069C583.529 185.383 583.72 186.068 583.405 186.619C583.192 186.978 582.81 187.181 582.428 187.181C582.237 187.181 582.035 187.136 581.866 187.035ZM572.07 181.361L568.149 179.092C567.61 178.777 567.419 178.092 567.733 177.542C568.048 177.002 568.744 176.811 569.272 177.126L573.193 179.395C573.732 179.71 573.923 180.395 573.609 180.946C573.395 181.305 573.025 181.507 572.631 181.507C572.441 181.519 572.25 181.474 572.07 181.361ZM562.273 175.699L558.364 173.43C557.825 173.115 557.634 172.43 557.948 171.879C558.263 171.34 558.959 171.149 559.487 171.464L563.397 173.733C563.936 174.048 564.127 174.733 563.812 175.283C563.599 175.643 563.228 175.845 562.835 175.845C562.644 175.856 562.453 175.811 562.273 175.699ZM552.488 170.037L548.579 167.768C548.039 167.453 547.848 166.768 548.163 166.217C548.477 165.678 549.174 165.487 549.702 165.802L553.612 168.071C554.151 168.385 554.342 169.071 554.027 169.621C553.814 169.981 553.432 170.183 553.05 170.183C552.859 170.194 552.668 170.138 552.488 170.037ZM542.692 164.375L542.063 164.015C541.523 163.701 541.344 163.015 541.647 162.465C541.961 161.926 542.658 161.746 543.197 162.049L543.826 162.409C544.366 162.723 544.545 163.409 544.242 163.959C544.029 164.319 543.647 164.521 543.265 164.521C543.062 164.532 542.871 164.476 542.692 164.375Z" fill="url(#paint59_linear)"/>
<g opacity="0.2">
<path opacity="0.2" d="M729.296 323.039C729.689 323.039 730.06 322.836 730.273 322.477C730.588 321.938 730.397 321.241 729.857 320.926L544.77 213.862C544.242 213.548 543.534 213.728 543.231 214.278C542.916 214.817 543.107 215.514 543.647 215.828L728.734 322.893C728.914 322.994 729.105 323.039 729.296 323.039Z" fill="url(#paint60_linear)"/>
</g>
<path opacity="0.8" d="M486.981 238.118C488.082 237.118 489.553 234.905 491.261 232.332C498.822 220.94 512.91 199.752 540.254 212.481C562.251 222.715 567.891 239.657 573.34 256.037C578.496 271.518 583.361 286.134 600.853 296.234C619.187 306.805 629.972 292.043 641.398 276.405C652.958 260.587 664.912 244.241 685.134 256.082C712.287 271.99 719.365 305.861 724.05 328.274C726.105 338.082 727.768 345.968 730.352 349.653V416.858C730.352 419.037 729.701 421.228 728.24 421.228C727.723 421.228 727.083 421.014 726.398 420.621L492.98 285.864C490.149 284.235 487.677 280.292 486.655 276.27C486.722 254.453 486.823 238.253 486.981 238.118Z" fill="url(#paint61_linear)"/>
<path d="M486.98 238.118C488.081 237.118 489.553 234.905 491.261 232.332C498.822 220.94 512.91 199.752 540.254 212.481C562.251 222.715 567.891 239.657 573.34 256.037C578.496 271.518 583.361 286.134 600.853 296.234C619.187 306.805 629.972 292.043 641.398 276.405C652.958 260.587 664.911 244.241 685.133 256.082C712.287 271.99 719.365 305.861 724.049 328.274C726.105 338.104 727.779 346.013 730.363 349.687V352.642C730.071 352.642 729.779 352.529 729.566 352.316C726.015 348.766 724.173 339.936 721.836 328.746C716.961 305.412 710.276 273.439 683.987 258.048C665.529 247.24 654.699 262.058 643.229 277.753C631.714 293.504 619.805 309.794 599.729 298.2C581.485 287.662 576.249 271.956 571.194 256.756C565.655 240.095 560.409 224.367 539.299 214.537C513.718 202.628 500.844 222.008 493.148 233.59C491.283 236.399 489.812 238.612 488.508 239.803C488.048 240.219 487.329 240.185 486.913 239.724C486.475 239.253 486.509 238.534 486.98 238.118Z" fill="url(#paint62_radial)"/>
<path d="M730.363 352.63C730.655 352.63 730.948 352.518 731.161 352.305C731.599 351.866 731.599 351.147 731.161 350.709C728.094 347.642 726.308 339.093 724.038 328.274C719.354 305.861 712.276 271.99 685.122 256.082C664.9 244.241 652.947 260.598 641.387 276.405C629.961 292.043 619.176 306.805 600.842 296.234C583.338 286.134 578.474 271.507 573.328 256.037C567.88 239.657 562.24 222.727 540.243 212.481C512.898 199.752 498.822 220.94 491.25 232.332C489.542 234.905 488.07 237.118 486.969 238.118C486.509 238.534 486.475 239.253 486.891 239.713C487.306 240.174 488.025 240.207 488.486 239.792C489.789 238.601 491.261 236.388 493.126 233.579C500.821 221.996 513.696 202.617 539.277 214.526C560.386 224.356 565.622 240.084 571.171 256.745C576.227 271.945 581.462 287.65 599.707 298.188C619.783 309.782 631.691 293.492 643.207 277.742C654.677 262.047 665.518 247.218 683.965 258.037C710.254 273.439 716.938 305.401 721.814 328.735C724.151 339.924 726.004 348.766 729.543 352.305C729.79 352.518 730.071 352.63 730.363 352.63Z" fill="url(#paint63_radial)"/>
<path d="M532.255 209.886C532.255 214.155 535.277 219.368 538.996 221.514C542.726 223.659 545.737 221.941 545.737 217.672C545.737 213.402 542.715 208.19 538.996 206.044C535.277 203.898 532.255 205.617 532.255 209.886Z" fill="url(#paint64_linear)"/>
<path d="M538.434 222.503C534.334 220.132 531.121 214.594 531.121 209.886C531.121 206.303 533.019 203.988 535.974 203.988C537.12 203.988 538.322 204.348 539.569 205.067C543.669 207.437 546.883 212.976 546.883 217.683C546.883 221.267 544.984 223.581 542.04 223.581C540.883 223.581 539.67 223.222 538.434 222.503ZM533.379 209.886C533.379 213.729 536.21 218.604 539.558 220.537C540.434 221.042 541.288 221.312 542.018 221.312C543.636 221.312 544.602 219.952 544.602 217.672C544.602 213.83 541.771 208.954 538.423 207.022C537.547 206.516 536.693 206.246 535.963 206.246C534.356 206.246 533.379 207.606 533.379 209.886Z" fill="#EBDEF3"/>
<path d="M538.355 306.39L540.119 307.423V118.797L538.355 117.651V306.39Z" fill="url(#paint65_radial)"/>
<path d="M531.139 161.13C531.139 165.399 534.161 170.612 537.879 172.757C541.609 174.903 544.62 173.184 544.62 168.915C544.62 164.646 541.598 159.433 537.879 157.288C534.161 155.131 531.139 156.849 531.139 161.13Z" fill="url(#paint66_linear)"/>
<path d="M537.318 173.734C533.217 171.364 530.004 165.825 530.004 161.118C530.004 157.534 531.903 155.22 534.857 155.22C536.003 155.22 537.205 155.579 538.452 156.298C542.553 158.669 545.766 164.207 545.766 168.915C545.766 172.498 543.867 174.813 540.924 174.813C539.767 174.813 538.553 174.453 537.318 173.734ZM532.262 161.129C532.262 164.971 535.093 169.847 538.441 171.779C539.317 172.285 540.171 172.554 540.901 172.554C542.519 172.554 543.485 171.195 543.485 168.915C543.485 165.072 540.654 160.197 537.306 158.264C536.43 157.759 535.576 157.489 534.846 157.489C533.239 157.489 532.262 158.848 532.262 161.129Z" fill="#DAB1F3"/>
<path d="M542.467 219.514L569.688 310.918L495.103 299.211L542.467 219.514Z" fill="url(#paint67_linear)"/>
<path d="M488.901 285.337L508.18 255.891L489.272 254.88L542.467 219.514L547.556 258.015L528.649 256.992L509.382 286.438L488.901 285.337Z" fill="url(#paint68_linear)"/>
<path d="M538.007 210.718L542.467 219.514L547.557 258.015L543.085 249.207L538.007 210.718Z" fill="url(#paint69_linear)"/>
<path d="M528.649 256.993L524.178 248.196L504.911 277.642L509.382 286.438L528.649 256.993Z" fill="url(#paint70_linear)"/>
<path d="M484.43 276.54L488.901 285.337L509.382 286.438L504.911 277.641L484.43 276.54Z" fill="url(#paint71_linear)"/>
<path d="M484.801 246.072L489.272 254.88L508.18 255.891L503.708 247.095L484.801 246.072Z" fill="url(#paint72_linear)"/>
<path d="M484.43 276.541L503.708 247.095L484.801 246.073L538.007 210.718L543.085 249.207L524.178 248.196L504.911 277.642L484.43 276.541Z" fill="url(#paint73_linear)"/>
<path opacity="0.5" d="M524.178 248.196L530.323 247.488C536.064 246.825 540.254 241.759 539.839 236.006L538.007 210.718L543.085 249.218L524.178 248.196Z" fill="url(#paint74_linear)"/>
<path opacity="0.5" d="M484.43 276.541L504.911 277.642L524.178 248.196L506.731 271.159C504.821 273.777 501.844 275.406 498.619 275.62L484.43 276.541Z" fill="url(#paint75_linear)"/>
<path opacity="0.4" d="M543.085 249.207L547.556 258.014L528.66 256.992L538.603 255.284C541.479 254.79 543.456 252.116 543.085 249.207Z" fill="url(#paint76_linear)"/>
<path opacity="0.5" d="M504.91 277.642L509.382 286.449L488.901 285.348L503.427 284.753C505.203 284.686 506.438 282.967 505.944 281.259L504.91 277.642Z" fill="url(#paint77_linear)"/>
<defs>
<linearGradient id="paint0_linear" x1="400.125" y1="343.247" x2="408.988" y2="384.22" gradientUnits="userSpaceOnUse">
<stop stop-color="#2A2B3F"/>
<stop offset="1" stop-color="#2A2B3F" stop-opacity="0"/>
</linearGradient>
<linearGradient id="paint1_linear" x1="369.643" y1="348.998" x2="341.396" y2="386.186" gradientUnits="userSpaceOnUse">
<stop stop-color="#383954"/>
<stop offset="0.0183" stop-color="#383954" stop-opacity="0.9781"/>
<stop offset="0.8329" stop-color="#383954" stop-opacity="0"/>
</linearGradient>
<linearGradient id="paint2_linear" x1="428.191" y1="328.162" x2="350.56" y2="323.83" gradientUnits="userSpaceOnUse">
<stop stop-color="#383954"/>
<stop offset="1" stop-color="#383954" stop-opacity="0.5374"/>
</linearGradient>
<linearGradient id="paint3_linear" x1="366.736" y1="325.839" x2="363.242" y2="331.891" gradientUnits="userSpaceOnUse">
<stop stop-color="#FF0054"/>
<stop offset="0.9958" stop-color="#FF0054" stop-opacity="0.1202"/>
<stop offset="1" stop-color="#FF0054" stop-opacity="0.1165"/>
</linearGradient>
<linearGradient id="paint4_linear" x1="369.675" y1="336.021" x2="379.168" y2="319.578" gradientUnits="userSpaceOnUse">
<stop stop-color="#803EFF" stop-opacity="0.1"/>
<stop offset="0.0653" stop-color="#803EFF" stop-opacity="0.1587"/>
<stop offset="1" stop-color="#803EFF"/>
</linearGradient>
<linearGradient id="paint5_linear" x1="380.191" y1="341.827" x2="396.481" y2="313.613" gradientUnits="userSpaceOnUse">
<stop stop-color="#1BFDEF" stop-opacity="0.0248"/>
<stop offset="0.2346" stop-color="#60E6A7" stop-opacity="0.5"/>
<stop offset="0.78" stop-color="#EDB814" stop-opacity="0.9731"/>
<stop offset="1" stop-color="#F8B409"/>
</linearGradient>
<radialGradient id="paint6_radial" cx="0" cy="0" r="1" gradientUnits="userSpaceOnUse" gradientTransform="translate(374.212 320.268) rotate(-29.928) scale(25.5185 17.3564)">
<stop stop-color="#FFD97A"/>
<stop offset="0.3102" stop-color="#F8B409"/>
<stop offset="0.5571" stop-color="#FBC532" stop-opacity="0.7136"/>
<stop offset="1" stop-color="#FFE278" stop-opacity="0.2"/>
</radialGradient>
<linearGradient id="paint7_linear" x1="298.879" y1="194.122" x2="336.067" y2="366.051" gradientUnits="userSpaceOnUse">
<stop stop-color="#2A2B3F"/>
<stop offset="1" stop-color="#2A2B3F" stop-opacity="0"/>
</linearGradient>
<linearGradient id="paint8_linear" x1="331.017" y1="210.802" x2="194.656" y2="390.324" gradientUnits="userSpaceOnUse">
<stop stop-color="#383954"/>
<stop offset="0.0183" stop-color="#383954" stop-opacity="0.9781"/>
<stop offset="0.8329" stop-color="#383954" stop-opacity="0"/>
</linearGradient>
<linearGradient id="paint9_linear" x1="348.701" y1="144.417" x2="257.228" y2="139.313" gradientUnits="userSpaceOnUse">
<stop stop-color="#383954"/>
<stop offset="1" stop-color="#383954" stop-opacity="0.5374"/>
</linearGradient>
<linearGradient id="paint10_linear" x1="270.652" y1="144.28" x2="298.821" y2="135.4" gradientUnits="userSpaceOnUse">
<stop stop-color="#FFE278" stop-opacity="0.13"/>
<stop offset="1" stop-color="#F8B409"/>
</linearGradient>
<linearGradient id="paint11_linear" x1="274.917" y1="137.483" x2="269.34" y2="147.142" gradientUnits="userSpaceOnUse">
<stop stop-color="#F8B409"/>
<stop offset="0.358" stop-color="#FBC532" stop-opacity="0.7136"/>
<stop offset="1" stop-color="#FFE278" stop-opacity="0.2"/>
</linearGradient>
<linearGradient id="paint12_linear" x1="293.547" y1="148.24" x2="287.97" y2="157.899" gradientUnits="userSpaceOnUse">
<stop stop-color="#F8B409"/>
<stop offset="0.358" stop-color="#FBC532" stop-opacity="0.7136"/>
<stop offset="1" stop-color="#FFE278" stop-opacity="0.2"/>
</linearGradient>
<linearGradient id="paint13_linear" x1="276.517" y1="124.52" x2="298.37" y2="162.367" gradientUnits="userSpaceOnUse">
<stop stop-color="#FF0054" stop-opacity="0.1165"/>
<stop offset="1" stop-color="#FF0054"/>
</linearGradient>
<linearGradient id="paint14_linear" x1="227.258" y1="345.038" x2="241.691" y2="411.764" gradientUnits="userSpaceOnUse">
<stop stop-color="#2A2B3F"/>
<stop offset="1" stop-color="#2A2B3F" stop-opacity="0"/>
</linearGradient>
<linearGradient id="paint15_linear" x1="177.617" y1="354.404" x2="131.616" y2="414.966" gradientUnits="userSpaceOnUse">
<stop stop-color="#383954"/>
<stop offset="0.0183" stop-color="#383954" stop-opacity="0.9781"/>
<stop offset="0.8329" stop-color="#383954" stop-opacity="0"/>
</linearGradient>
<linearGradient id="paint16_linear" x1="272.964" y1="320.472" x2="146.54" y2="313.418" gradientUnits="userSpaceOnUse">
<stop stop-color="#383954"/>
<stop offset="1" stop-color="#383954" stop-opacity="0.5374"/>
</linearGradient>
<linearGradient id="paint17_linear" x1="179.776" y1="321.808" x2="196.821" y2="297.804" gradientUnits="userSpaceOnUse">
<stop stop-color="#FFE278" stop-opacity="0.3"/>
<stop offset="0.0782" stop-color="#FED963" stop-opacity="0.3504"/>
<stop offset="0.1871" stop-color="#FDD04D" stop-opacity="0.4205"/>
<stop offset="0.3069" stop-color="#FCCA3E" stop-opacity="0.4977"/>
<stop offset="0.4448" stop-color="#FBC635" stop-opacity="0.5865"/>
<stop offset="0.642" stop-color="#FBC532" stop-opacity="0.7136"/>
<stop offset="1" stop-color="#F8B409"/>
</linearGradient>
<linearGradient id="paint18_linear" x1="205.247" y1="341.36" x2="179.107" y2="298.618" gradientUnits="userSpaceOnUse">
<stop stop-color="#FF0054"/>
<stop offset="0.978" stop-color="#FF0054" stop-opacity="0"/>
</linearGradient>
<linearGradient id="paint19_linear" x1="190.144" y1="286.394" x2="216.541" y2="331.759" gradientUnits="userSpaceOnUse">
<stop stop-color="#FF0054"/>
<stop offset="0.936" stop-color="#FF0054" stop-opacity="0"/>
</linearGradient>
<linearGradient id="paint20_linear" x1="240.531" y1="316.326" x2="231.753" y2="331.53" gradientUnits="userSpaceOnUse">
<stop stop-color="#803EFF" stop-opacity="0.1"/>
<stop offset="0.0653" stop-color="#803EFF" stop-opacity="0.1587"/>
<stop offset="1" stop-color="#803EFF"/>
</linearGradient>
<linearGradient id="paint21_linear" x1="226.695" y1="324.428" x2="230.507" y2="317.826" gradientUnits="userSpaceOnUse">
<stop stop-color="#3D3E4F" stop-opacity="0"/>
<stop offset="0.1172" stop-color="#413E5B" stop-opacity="0.1172"/>
<stop offset="0.3281" stop-color="#4D3E7A" stop-opacity="0.3281"/>
<stop offset="0.6082" stop-color="#613EAD" stop-opacity="0.6082"/>
<stop offset="0.9438" stop-color="#7B3EF3" stop-opacity="0.9438"/>
<stop offset="1" stop-color="#803EFF"/>
</linearGradient>
<linearGradient id="paint22_linear" x1="172.162" y1="298.894" x2="163.384" y2="314.098" gradientUnits="userSpaceOnUse">
<stop stop-color="#803EFF" stop-opacity="0.1"/>
<stop offset="0.0653" stop-color="#803EFF" stop-opacity="0.1587"/>
<stop offset="1" stop-color="#803EFF"/>
</linearGradient>
<linearGradient id="paint23_linear" x1="157.743" y1="307.333" x2="161.684" y2="300.508" gradientUnits="userSpaceOnUse">
<stop stop-color="#3D3E4F" stop-opacity="0"/>
<stop offset="0.1172" stop-color="#413E5B" stop-opacity="0.1172"/>
<stop offset="0.3281" stop-color="#4D3E7A" stop-opacity="0.3281"/>
<stop offset="0.6082" stop-color="#613EAD" stop-opacity="0.6082"/>
<stop offset="0.9438" stop-color="#7B3EF3" stop-opacity="0.9438"/>
<stop offset="1" stop-color="#803EFF"/>
</linearGradient>
<linearGradient id="paint24_linear" x1="416.246" y1="558.932" x2="364.562" y2="584.417" gradientUnits="userSpaceOnUse">
<stop/>
<stop offset="0.453125" stop-color="#12121B" stop-opacity="0.46"/>
<stop offset="1" stop-color="#383954" stop-opacity="0"/>
</linearGradient>
<linearGradient id="paint25_linear" x1="405.568" y1="105.876" x2="448.084" y2="302.439" gradientUnits="userSpaceOnUse">
<stop stop-color="#2A2B3F"/>
<stop offset="1" stop-color="#2A2B3F" stop-opacity="0"/>
</linearGradient>
<linearGradient id="paint26_linear" x1="460.72" y1="124.089" x2="302.77" y2="332.034" gradientUnits="userSpaceOnUse">
<stop stop-color="#383954"/>
<stop offset="0.0183" stop-color="#383954" stop-opacity="0.9781"/>
<stop offset="0.8329" stop-color="#383954" stop-opacity="0"/>
</linearGradient>
<linearGradient id="paint27_linear" x1="454.712" y1="50.6124" x2="377.081" y2="46.281" gradientUnits="userSpaceOnUse">
<stop stop-color="#383954"/>
<stop offset="1" stop-color="#383954" stop-opacity="0.5374"/>
</linearGradient>
<linearGradient id="paint28_linear" x1="387.902" y1="47.8348" x2="383.052" y2="56.2342" gradientUnits="userSpaceOnUse">
<stop stop-color="#FF0054"/>
<stop offset="1" stop-color="#FF0054" stop-opacity="0.1165"/>
</linearGradient>
<linearGradient id="paint29_linear" x1="387.2" y1="59.1041" x2="394.603" y2="46.2831" gradientUnits="userSpaceOnUse">
<stop stop-color="#803EFF" stop-opacity="0.1"/>
<stop offset="0.0653" stop-color="#803EFF" stop-opacity="0.1587"/>
<stop offset="1" stop-color="#803EFF"/>
</linearGradient>
<linearGradient id="paint30_linear" x1="396.759" y1="64.4491" x2="406.583" y2="47.4349" gradientUnits="userSpaceOnUse">
<stop stop-color="#1BFDEF" stop-opacity="0"/>
<stop offset="0.1174" stop-color="#1FFCEA" stop-opacity="0.1174"/>
<stop offset="0.2485" stop-color="#2CF7DD" stop-opacity="0.2485"/>
<stop offset="0.3863" stop-color="#42F0C7" stop-opacity="0.3863"/>
<stop offset="0.5287" stop-color="#60E6A7" stop-opacity="0.5287"/>
<stop offset="0.6747" stop-color="#87D97F" stop-opacity="0.6747"/>
<stop offset="0.8237" stop-color="#B6CA4E" stop-opacity="0.8237"/>
<stop offset="0.9725" stop-color="#EDB814" stop-opacity="0.9725"/>
<stop offset="1" stop-color="#F8B409"/>
</linearGradient>
<linearGradient id="paint31_linear" x1="406.2" y1="69.8625" x2="419.423" y2="46.9601" gradientUnits="userSpaceOnUse">
<stop stop-color="#1BFDEF" stop-opacity="0"/>
<stop offset="0.1812" stop-color="#1BFAEA" stop-opacity="0.1812"/>
<stop offset="0.3834" stop-color="#19F0DD" stop-opacity="0.3834"/>
<stop offset="0.5959" stop-color="#17E1C7" stop-opacity="0.5959"/>
<stop offset="0.8138" stop-color="#13CBA8" stop-opacity="0.8138"/>
<stop offset="1" stop-color="#10B487"/>
</linearGradient>
<linearGradient id="paint32_linear" x1="377.596" y1="47.8301" x2="437.851" y2="64.324" gradientUnits="userSpaceOnUse">
<stop stop-color="#FF0054" stop-opacity="0.1165"/>
<stop offset="0.00415373" stop-color="#FF0054" stop-opacity="0.1202"/>
<stop offset="1" stop-color="#FF0054"/>
</linearGradient>
<linearGradient id="paint33_linear" x1="424.015" y1="95.957" x2="427.341" y2="335.448" gradientUnits="userSpaceOnUse">
<stop stop-color="#E5024E" stop-opacity="0"/>
<stop offset="0.2995" stop-color="#E5024E"/>
<stop offset="0.6203" stop-color="#6B2CFF"/>
<stop offset="1" stop-color="#6B2CFF" stop-opacity="0"/>
</linearGradient>
<linearGradient id="paint34_linear" x1="434.833" y1="92.1567" x2="438.16" y2="331.647" gradientUnits="userSpaceOnUse">
<stop stop-color="#E5024E" stop-opacity="0"/>
<stop offset="0.2995" stop-color="#E5024E"/>
<stop offset="0.6203" stop-color="#6B2CFF"/>
<stop offset="1" stop-color="#6B2CFF" stop-opacity="0"/>
</linearGradient>
<linearGradient id="paint35_linear" x1="446.09" y1="119.883" x2="449.416" y2="359.374" gradientUnits="userSpaceOnUse">
<stop stop-color="#E5024E" stop-opacity="0"/>
<stop offset="0.2995" stop-color="#E5024E"/>
<stop offset="0.6203" stop-color="#6B2CFF"/>
<stop offset="1" stop-color="#6B2CFF" stop-opacity="0"/>
</linearGradient>
<linearGradient id="paint36_linear" x1="416.621" y1="558.292" x2="443.71" y2="500.193" gradientUnits="userSpaceOnUse">
<stop stop-color="#383954"/>
<stop offset="1" stop-color="#1A1B36" stop-opacity="0.15"/>
</linearGradient>
<linearGradient id="paint37_linear" x1="465.824" y1="584.584" x2="474.306" y2="509.238" gradientUnits="userSpaceOnUse">
<stop stop-color="#383954"/>
<stop offset="0.9203" stop-color="#383954" stop-opacity="0.2168"/>
<stop offset="1" stop-color="#383954" stop-opacity="0.149"/>
</linearGradient>
<linearGradient id="paint38_linear" x1="526.749" y1="388.13" x2="363.129" y2="635.588" gradientUnits="userSpaceOnUse">
<stop stop-color="#2A2B3F"/>
<stop offset="1" stop-color="#2A2B3F"/>
</linearGradient>
<linearGradient id="paint39_linear" x1="299.352" y1="568.561" x2="258.077" y2="582.432" gradientUnits="userSpaceOnUse">
<stop stop-color="#383954"/>
<stop offset="1" stop-color="#383954" stop-opacity="0.7"/>
</linearGradient>
<linearGradient id="paint40_linear" x1="559.267" y1="405.501" x2="270.554" y2="575.521" gradientUnits="userSpaceOnUse">
<stop stop-color="#383954"/>
<stop offset="1" stop-color="#383954" stop-opacity="0.7"/>
</linearGradient>
<linearGradient id="paint41_linear" x1="570.025" y1="404.02" x2="481.608" y2="456.087" gradientUnits="userSpaceOnUse">
<stop/>
<stop offset="0.2" stop-color="#07070A" stop-opacity="0.94"/>
<stop offset="0.5442" stop-color="#191A26" stop-opacity="0.8368"/>
<stop offset="0.9885" stop-color="#373853" stop-opacity="0.7035"/>
<stop offset="1" stop-color="#383954" stop-opacity="0.7"/>
</linearGradient>
<linearGradient id="paint42_linear" x1="587.387" y1="372.859" x2="536.833" y2="449.317" gradientUnits="userSpaceOnUse">
<stop stop-color="#DBDFFF"/>
<stop offset="1" stop-color="#7583FF"/>
</linearGradient>
<linearGradient id="paint43_linear" x1="534.788" y1="447.347" x2="490.114" y2="367.031" gradientUnits="userSpaceOnUse">
<stop offset="0.0214" stop-color="#4D5BD7"/>
<stop offset="1" stop-color="#7583FF"/>
</linearGradient>
<linearGradient id="paint44_linear" x1="535.338" y1="404.245" x2="542.441" y2="341.157" gradientUnits="userSpaceOnUse">
<stop stop-color="white"/>
<stop offset="0.4439" stop-color="#DBDFFF"/>
<stop offset="1" stop-color="#A7B1FF"/>
</linearGradient>
<linearGradient id="paint45_linear" x1="352.015" y1="500.538" x2="301.46" y2="576.997" gradientUnits="userSpaceOnUse">
<stop stop-color="#B574FF"/>
<stop offset="1" stop-color="#7330F2"/>
</linearGradient>
<linearGradient id="paint46_linear" x1="302.166" y1="527.935" x2="257.968" y2="546.469" gradientUnits="userSpaceOnUse">
<stop stop-color="#4502C6"/>
<stop offset="1" stop-color="#803EFF"/>
</linearGradient>
<linearGradient id="paint47_linear" x1="263.12" y1="528.531" x2="271.643" y2="510.252" gradientUnits="userSpaceOnUse">
<stop stop-color="#1A1B36" stop-opacity="0.15"/>
<stop offset="0.2282" stop-color="#251658" stop-opacity="0.344"/>
<stop offset="1" stop-color="#4805C9"/>
</linearGradient>
<linearGradient id="paint48_linear" x1="299.966" y1="531.925" x2="307.069" y2="468.836" gradientUnits="userSpaceOnUse">
<stop stop-color="#8457D2"/>
<stop offset="1" stop-color="#D5B0FF"/>
</linearGradient>
<linearGradient id="paint49_linear" x1="331.163" y1="442.878" x2="280.609" y2="519.337" gradientUnits="userSpaceOnUse">
<stop stop-color="#B574FF"/>
<stop offset="1" stop-color="#7330F2"/>
</linearGradient>
<linearGradient id="paint50_linear" x1="281.315" y1="470.275" x2="237.117" y2="488.809" gradientUnits="userSpaceOnUse">
<stop stop-color="#4502C6"/>
<stop offset="1" stop-color="#803EFF"/>
</linearGradient>
<linearGradient id="paint51_linear" x1="279.114" y1="474.265" x2="286.217" y2="411.176" gradientUnits="userSpaceOnUse">
<stop stop-color="#8457D2"/>
<stop offset="1" stop-color="#D5B0FF"/>
</linearGradient>
<linearGradient id="paint52_linear" x1="349.592" y1="390.143" x2="299.038" y2="466.602" gradientUnits="userSpaceOnUse">
<stop stop-color="#B574FF"/>
<stop offset="1" stop-color="#7330F2"/>
</linearGradient>
<linearGradient id="paint53_linear" x1="299.744" y1="417.54" x2="255.546" y2="436.074" gradientUnits="userSpaceOnUse">
<stop stop-color="#4502C6"/>
<stop offset="1" stop-color="#803EFF"/>
</linearGradient>
<linearGradient id="paint54_linear" x1="297.543" y1="421.53" x2="304.646" y2="358.441" gradientUnits="userSpaceOnUse">
<stop stop-color="#8457D2"/>
<stop offset="1" stop-color="#D5B0FF"/>
</linearGradient>
<linearGradient id="paint55_linear" x1="331.41" y1="491.574" x2="304.678" y2="447.376" gradientUnits="userSpaceOnUse">
<stop offset="0.2904" stop-color="#1A1B36" stop-opacity="0.15"/>
<stop offset="0.3976" stop-color="#251658" stop-opacity="0.344"/>
<stop offset="0.7602" stop-color="#4805C9"/>
</linearGradient>
<linearGradient id="paint56_linear" x1="731.505" y1="229.914" x2="463.128" y2="287.928" gradientUnits="userSpaceOnUse">
<stop stop-color="#9899C1"/>
<stop offset="0.0405" stop-color="#9495BC"/>
<stop offset="0.6991" stop-color="#4E4F69"/>
<stop offset="1" stop-color="#333449"/>
</linearGradient>
<linearGradient id="paint57_linear" x1="729.203" y1="230.9" x2="460.827" y2="288.913" gradientUnits="userSpaceOnUse">
<stop stop-color="#66678F"/>
<stop offset="0.6282" stop-color="#3A3B56"/>
<stop offset="1" stop-color="#242539"/>
</linearGradient>
<linearGradient id="paint58_linear" x1="595.553" y1="333.673" x2="669.561" y2="164.136" gradientUnits="userSpaceOnUse">
<stop stop-color="#643AFF"/>
<stop offset="0.4098" stop-color="#6138E0"/>
<stop offset="1" stop-color="#5B34AE"/>
</linearGradient>
<linearGradient id="paint59_linear" x1="541.5" y1="217.02" x2="730.427" y2="217.02" gradientUnits="userSpaceOnUse">
<stop stop-color="#E5024E" stop-opacity="0"/>
<stop offset="0.2995" stop-color="#E5024E"/>
<stop offset="0.6203" stop-color="#6B2CFF"/>
<stop offset="1" stop-color="#6B2CFF" stop-opacity="0"/>
</linearGradient>
<linearGradient id="paint60_linear" x1="543.08" y1="268.373" x2="730.429" y2="268.373" gradientUnits="userSpaceOnUse">
<stop stop-color="#E5024E" stop-opacity="0"/>
<stop offset="0.2995" stop-color="#E5024E"/>
<stop offset="0.6203" stop-color="#6B2CFF"/>
<stop offset="1" stop-color="#6B2CFF" stop-opacity="0"/>
</linearGradient>
<linearGradient id="paint61_linear" x1="597.388" y1="352.549" x2="651.682" y2="236.419" gradientUnits="userSpaceOnUse">
<stop stop-color="#5513AB"/>
<stop offset="1" stop-color="#C211A1"/>
</linearGradient>
<radialGradient id="paint62_radial" cx="0" cy="0" r="1" gradientUnits="userSpaceOnUse" gradientTransform="translate(584.558 249.193) rotate(180) scale(153.004)">
<stop stop-color="#FF63CE"/>
<stop offset="0.6566" stop-color="#9F19AB"/>
<stop offset="0.7846" stop-color="#9017A5"/>
<stop offset="1" stop-color="#6D1499"/>
</radialGradient>
<radialGradient id="paint63_radial" cx="0" cy="0" r="1" gradientUnits="userSpaceOnUse" gradientTransform="translate(540.333 205.016) rotate(180) scale(58.8435)">
<stop stop-color="white"/>
<stop offset="1" stop-color="#A563FC"/>
</radialGradient>
<linearGradient id="paint64_linear" x1="560.378" y1="187.99" x2="533.738" y2="220.127" gradientUnits="userSpaceOnUse">
<stop offset="0.0354" stop-color="#9F19AB"/>
<stop offset="0.2438" stop-color="#AE25B1"/>
<stop offset="0.6455" stop-color="#D744BF"/>
<stop offset="1" stop-color="#FF63CE"/>
</linearGradient>
<radialGradient id="paint65_radial" cx="0" cy="0" r="1" gradientUnits="userSpaceOnUse" gradientTransform="translate(539.227 212.535) rotate(-90) scale(87.7381 38.8857)">
<stop stop-color="white"/>
<stop offset="1" stop-color="#A563FC" stop-opacity="0"/>
</radialGradient>
<linearGradient id="paint66_linear" x1="559.261" y1="139.226" x2="532.622" y2="171.363" gradientUnits="userSpaceOnUse">
<stop offset="0.0354" stop-color="#9524D6"/>
<stop offset="0.2945" stop-color="#9D33DC"/>
<stop offset="0.7943" stop-color="#B25CED"/>
<stop offset="1" stop-color="#BC6EF4"/>
</linearGradient>
<linearGradient id="paint67_linear" x1="532.393" y1="228.238" x2="532.393" y2="309.208" gradientUnits="userSpaceOnUse">
<stop stop-opacity="0.3"/>
<stop offset="1" stop-color="#353535" stop-opacity="0"/>
</linearGradient>
<linearGradient id="paint68_linear" x1="552.561" y1="239.455" x2="483.399" y2="274.567" gradientUnits="userSpaceOnUse">
<stop stop-color="#8C74BF"/>
<stop offset="1" stop-color="#423991"/>
</linearGradient>
<linearGradient id="paint69_linear" x1="548.501" y1="231.457" x2="537" y2="237.296" gradientUnits="userSpaceOnUse">
<stop stop-color="#8C74BF"/>
<stop offset="1" stop-color="#423991"/>
</linearGradient>
<linearGradient id="paint70_linear" x1="530.357" y1="260.425" x2="503.149" y2="274.238" gradientUnits="userSpaceOnUse">
<stop stop-color="#8C74BF"/>
<stop offset="1" stop-color="#423991"/>
</linearGradient>
<linearGradient id="paint71_linear" x1="504.796" y1="277.481" x2="488.96" y2="285.521" gradientUnits="userSpaceOnUse">
<stop stop-color="#8C74BF"/>
<stop offset="1" stop-color="#423991"/>
</linearGradient>
<linearGradient id="paint72_linear" x1="503.769" y1="247.285" x2="489.152" y2="254.706" gradientUnits="userSpaceOnUse">
<stop stop-color="#8C74BF"/>
<stop offset="1" stop-color="#423991"/>
</linearGradient>
<linearGradient id="paint73_linear" x1="538.033" y1="210.738" x2="534.344" y2="279.248" gradientUnits="userSpaceOnUse">
<stop stop-color="#DBDFFF"/>
<stop offset="0.7834" stop-color="#8B97FF"/>
<stop offset="1" stop-color="#B2BAFF"/>
</linearGradient>
<linearGradient id="paint74_linear" x1="546.192" y1="243.483" x2="515.51" y2="215.053" gradientUnits="userSpaceOnUse">
<stop stop-color="white"/>
<stop offset="0.1998" stop-color="#F8F5FF"/>
<stop offset="0.5433" stop-color="#E4D9FF"/>
<stop offset="0.9865" stop-color="#C4ACFF"/>
<stop offset="1" stop-color="#C3ABFF"/>
</linearGradient>
<linearGradient id="paint75_linear" x1="509.327" y1="272.587" x2="497.244" y2="248.148" gradientUnits="userSpaceOnUse">
<stop stop-color="white" stop-opacity="0.4"/>
<stop offset="0.1998" stop-color="#F8F5FF" stop-opacity="0.3201"/>
<stop offset="0.5433" stop-color="#E4D9FF" stop-opacity="0.1827"/>
<stop offset="0.9865" stop-color="#C4ACFF" stop-opacity="0.01"/>
<stop offset="1" stop-color="#C3ABFF" stop-opacity="0"/>
</linearGradient>
<linearGradient id="paint76_linear" x1="545.481" y1="258.804" x2="535.673" y2="253.019" gradientUnits="userSpaceOnUse">
<stop stop-color="white" stop-opacity="0.4"/>
<stop offset="0.1998" stop-color="#F8F5FF" stop-opacity="0.3201"/>
<stop offset="0.5433" stop-color="#E4D9FF" stop-opacity="0.1827"/>
<stop offset="0.9865" stop-color="#C4ACFF" stop-opacity="0.01"/>
<stop offset="1" stop-color="#C3ABFF" stop-opacity="0"/>
</linearGradient>
<linearGradient id="paint77_linear" x1="507.025" y1="287.486" x2="496.399" y2="281.219" gradientUnits="userSpaceOnUse">
<stop stop-color="white" stop-opacity="0.4"/>
<stop offset="0.1998" stop-color="#F8F5FF" stop-opacity="0.3201"/>
<stop offset="0.5433" stop-color="#E4D9FF" stop-opacity="0.1827"/>
<stop offset="0.9865" stop-color="#C4ACFF" stop-opacity="0.01"/>
<stop offset="1" stop-color="#C3ABFF" stop-opacity="0"/>
</linearGradient>
</defs>
</svg>
