<svg width="218" height="53" viewBox="0 0 218 53" fill="none" xmlns="http://www.w3.org/2000/svg">
<path d="M80.8262 45.8199L80.8261 45.8199L80.8275 45.8221L83.1346 49.4529V51.5561C83.1346 51.7084 83.1786 51.8337 83.2712 51.9197C83.3625 52.0045 83.4858 52.0369 83.6153 52.0369C83.7525 52.0369 83.8759 51.9905 83.9645 51.8956C84.0524 51.8014 84.0961 51.67 84.0961 51.518V49.4152L86.4382 45.7887C86.5241 45.6796 86.5674 45.5557 86.5401 45.4326C86.5133 45.3123 86.4247 45.2182 86.3008 45.1529C86.1957 45.0587 86.0529 45.059 85.9839 45.0592C85.9812 45.0592 85.9785 45.0592 85.976 45.0592H85.9524L85.9313 45.0697L85.931 45.0699C85.8507 45.1101 85.7552 45.1578 85.6644 45.2941L85.6641 45.2945L83.6168 48.402L81.6436 45.2959L81.6441 45.2956L81.6373 45.2871C81.5538 45.1828 81.4597 45.1066 81.3429 45.0806C81.2261 45.0546 81.1064 45.0834 80.9814 45.1459L80.972 45.1506L80.9637 45.1573C80.8554 45.2439 80.7819 45.3483 80.7569 45.467C80.7318 45.5866 80.7586 45.7073 80.8262 45.8199Z" fill="white" fill-opacity="0.6" stroke="#9E9EA0" stroke-width="0.2"/>
<path d="M92.3682 51.4745L92.3683 51.4746L92.3718 51.4707C92.7355 51.0666 92.9306 50.5071 92.9306 49.7284V47.4057C92.9306 46.6305 92.7371 46.0285 92.3682 45.6596C91.9993 45.2907 91.3974 45.0973 90.6222 45.0973H89.4037C88.6285 45.0973 88.0266 45.2907 87.6577 45.6596C87.2888 46.0285 87.0953 46.6305 87.0953 47.4057V49.7284C87.0953 50.5036 87.2888 51.1056 87.6577 51.4745C88.0266 51.8434 88.6285 52.0369 89.4037 52.0369H90.6222C91.3974 52.0369 91.9993 51.8434 92.3682 51.4745ZM91.4663 50.9282L91.4596 50.9304L91.4532 50.9336C91.2456 51.0374 90.9978 51.0753 90.6222 51.0753H89.4037C89.0652 51.0753 88.7798 51.0371 88.5727 50.9336L88.5663 50.9304L88.5596 50.9282C88.361 50.862 88.2322 50.7331 88.1659 50.5345L88.1637 50.5277L88.1605 50.5214C88.0567 50.3138 88.0188 50.066 88.0188 49.6903V47.3677C88.0188 47.002 88.0915 46.747 88.1659 46.5235C88.2321 46.3249 88.361 46.196 88.5596 46.1298C88.7745 46.0582 89.0296 46.0207 89.4037 46.0207H90.6222C90.9878 46.0207 91.2428 46.0934 91.4663 46.1679C91.6649 46.2341 91.7938 46.363 91.86 46.5616L91.8622 46.5683L91.8654 46.5747C91.9692 46.7822 92.0071 47.0301 92.0071 47.4057V49.6903C92.0071 50.056 91.9344 50.311 91.86 50.5345C91.7938 50.7331 91.6649 50.862 91.4663 50.9282Z" fill="white" fill-opacity="0.6" stroke="#9E9EA0" stroke-width="0.2"/>
<path d="M95.6269 50.5726L95.6246 50.5658L95.6214 50.5595C95.5177 50.3519 95.4797 50.1041 95.4797 49.7284V45.578C95.4797 45.5748 95.4797 45.5715 95.4797 45.5682C95.4798 45.4642 95.4799 45.3542 95.3847 45.2516C95.3494 45.1925 95.2917 45.1553 95.236 45.133C95.1744 45.1083 95.1043 45.0973 95.037 45.0973C94.9682 45.0973 94.9064 45.1088 94.8489 45.1344C94.7961 45.1579 94.7513 45.1911 94.7101 45.2306C94.6513 45.2659 94.6142 45.3235 94.592 45.3791C94.5673 45.4406 94.5562 45.5108 94.5562 45.578V49.7284C94.5562 50.5036 94.7497 51.1056 95.1186 51.4745C95.4875 51.8434 96.0895 52.0369 96.8647 52.0369H98.0831C98.8583 52.0369 99.4602 51.8434 99.8291 51.4745L99.8292 51.4746L99.8327 51.4707C100.196 51.0666 100.391 50.5071 100.391 49.7284V45.578C100.391 45.5748 100.391 45.5715 100.391 45.5683C100.392 45.4643 100.392 45.3542 100.296 45.2516C100.261 45.1925 100.203 45.1553 100.148 45.133C100.086 45.1083 100.016 45.0973 99.9488 45.0973C99.88 45.0973 99.8182 45.1088 99.7606 45.1344C99.708 45.1579 99.6631 45.1911 99.6219 45.2306C99.5631 45.2659 99.526 45.3235 99.5038 45.3791C99.4791 45.4406 99.468 45.5108 99.468 45.578V49.7284C99.468 50.094 99.3954 50.3491 99.3209 50.5726C99.2547 50.7712 99.1258 50.9 98.9272 50.9662L98.9205 50.9685L98.9141 50.9716C98.7065 51.0754 98.4587 51.1134 98.0831 51.1134H96.8647C96.499 51.1134 96.244 51.0407 96.0205 50.9662C95.8219 50.9 95.6931 50.7712 95.6269 50.5726Z" fill="white" fill-opacity="0.6" stroke="#9E9EA0" stroke-width="0.2"/>
<path d="M106.11 51.8366L106.11 51.8366L106.112 51.84C106.203 51.9764 106.298 52.0241 106.379 52.0643L106.379 52.0644C106.43 52.0899 106.488 52.1055 106.554 52.0981C106.616 52.0912 106.677 52.0649 106.741 52.0235C106.869 51.9577 106.961 51.8615 106.988 51.7338C107.015 51.6075 106.972 51.4757 106.889 51.35L105.594 49.2277C106.004 49.135 106.354 48.945 106.578 48.6491C106.864 48.3196 106.981 47.874 106.981 47.3296V47.025C106.981 46.3956 106.784 45.9122 106.458 45.5856C106.128 45.215 105.638 45.0592 105.015 45.0592H102.654C102.509 45.0592 102.382 45.0898 102.293 45.1789C102.204 45.268 102.173 45.3951 102.173 45.5399V51.518C102.173 51.6628 102.204 51.79 102.293 51.8791C102.382 51.9681 102.509 51.9988 102.654 51.9988C102.799 51.9988 102.926 51.9681 103.015 51.8791C103.104 51.79 103.135 51.6628 103.135 51.518V49.2572H104.54L106.11 51.8366ZM105.858 46.2961L105.858 46.2965L105.866 46.3034C106.018 46.4247 106.095 46.6858 106.095 47.063V47.3677C106.095 47.7366 106.021 47.9713 105.858 48.1346C105.696 48.2965 105.425 48.3719 105.053 48.3719H103.135V46.0588H105.053C105.462 46.0588 105.695 46.1335 105.858 46.2961Z" fill="white" fill-opacity="0.6" stroke="#9E9EA0" stroke-width="0.2"/>
<path d="M116.842 46.7965V46.7894L116.841 46.7824C116.763 46.2413 116.606 45.7899 116.232 45.4991C115.864 45.2131 115.381 45.0973 114.724 45.0973H113.505C112.73 45.0973 112.128 45.2907 111.759 45.6596C111.39 46.0285 111.197 46.6305 111.197 47.4057V49.7284C111.197 50.5036 111.39 51.1056 111.759 51.4745C112.112 51.8274 112.678 52.0197 113.405 52.0358V52.0749H113.505H114.724C115.428 52.0749 115.949 51.8788 116.313 51.5547C116.688 51.2212 116.842 50.6515 116.842 49.9569V49.043C116.842 48.8907 116.798 48.7654 116.705 48.6794C116.614 48.5946 116.491 48.5622 116.361 48.5622H115.104C114.952 48.5622 114.827 48.6063 114.741 48.6989C114.656 48.7902 114.624 48.9135 114.624 49.043C114.624 49.1953 114.668 49.3206 114.76 49.4066C114.852 49.4914 114.975 49.5238 115.104 49.5238H115.918V49.9569C115.918 50.2553 115.881 50.5075 115.811 50.6813C115.745 50.8462 115.651 50.9403 115.486 51.0063C115.312 51.076 115.097 51.1134 114.762 51.1134H113.543C113.178 51.1134 112.923 51.0407 112.699 50.9662C112.501 50.9 112.372 50.7712 112.306 50.5726L112.303 50.5658L112.3 50.5595C112.196 50.3519 112.158 50.1041 112.158 49.7284V47.4057C112.158 47.0401 112.231 46.785 112.306 46.5616C112.372 46.363 112.501 46.2341 112.699 46.1679L112.706 46.1656L112.712 46.1625C112.92 46.0587 113.168 46.0207 113.543 46.0207H114.762C115.171 46.0207 115.455 46.0955 115.624 46.1968C115.776 46.2877 115.882 46.4784 115.919 46.8075L115.919 46.8075L115.919 46.8106C115.94 46.9534 115.983 47.0736 116.067 47.1575C116.153 47.2441 116.268 47.2773 116.399 47.2773C116.48 47.2773 116.545 47.2499 116.595 47.2218C116.617 47.2096 116.638 47.1962 116.656 47.185C116.658 47.1838 116.66 47.1825 116.662 47.1813C116.681 47.1686 116.696 47.1594 116.71 47.1525C116.789 47.1131 116.818 47.0377 116.83 46.9779C116.842 46.9205 116.842 46.8549 116.842 46.8016L116.842 46.7965Z" fill="white" fill-opacity="0.6" stroke="#9E9EA0" stroke-width="0.2"/>
<path d="M117.753 51.3656L117.752 51.3655L117.75 51.3722C117.706 51.5031 117.703 51.6346 117.754 51.749C117.805 51.865 117.906 51.9484 118.042 51.9936C118.172 52.0371 118.293 52.0408 118.402 51.996C118.509 51.9517 118.59 51.866 118.654 51.7598L118.658 51.7532L118.661 51.746L119.207 50.3995H122.234L122.817 51.7481L122.817 51.7481L122.82 51.7531C122.883 51.8806 122.966 51.9718 123.08 52.0121C123.192 52.0515 123.313 52.0346 123.436 51.9936L123.442 51.9914L123.449 51.9882C123.576 51.9245 123.668 51.8415 123.708 51.7274C123.747 51.6159 123.73 51.4951 123.689 51.3722L123.69 51.3721L123.687 51.3651L121.215 45.472C121.164 45.2376 120.97 45.0973 120.739 45.0973H120.701C120.464 45.0973 120.278 45.2419 120.189 45.4642C120.189 45.4644 120.189 45.4646 120.189 45.4647L117.753 51.3656ZM119.555 49.438L120.702 46.6382L121.883 49.438H119.555Z" fill="white" fill-opacity="0.6" stroke="#9E9EA0" stroke-width="0.2"/>
<path d="M125.923 51.9312C125.96 51.9681 126.017 51.993 126.069 52.0086C126.126 52.0255 126.192 52.0366 126.26 52.0366C126.263 52.0366 126.267 52.0366 126.27 52.0366C126.377 52.0367 126.492 52.0368 126.597 51.9312C126.641 51.8872 126.678 51.8392 126.704 51.7821C126.729 51.7245 126.741 51.6627 126.741 51.5939V46.0966H128.659C128.662 46.0966 128.665 46.0966 128.669 46.0966C128.776 46.0967 128.89 46.0968 128.996 45.9912C129.033 45.9543 129.058 45.8967 129.073 45.8445C129.09 45.7883 129.101 45.7215 129.101 45.654C129.101 45.6507 129.101 45.6475 129.102 45.6442C129.102 45.5402 129.102 45.4301 129.006 45.3275C128.971 45.2684 128.913 45.2312 128.858 45.2089C128.796 45.1843 128.726 45.1732 128.659 45.1732H123.861C123.792 45.1732 123.731 45.1848 123.673 45.2104C123.62 45.2338 123.575 45.267 123.534 45.3066C123.475 45.3419 123.438 45.3994 123.416 45.455C123.392 45.5166 123.38 45.5867 123.38 45.654C123.38 45.7227 123.392 45.7845 123.418 45.8421C123.443 45.8993 123.48 45.9472 123.524 45.9912C123.561 46.0281 123.619 46.053 123.671 46.0686C123.727 46.0855 123.794 46.0966 123.861 46.0966H125.779V51.5939C125.779 51.6627 125.791 51.7245 125.816 51.7821C125.842 51.8392 125.879 51.8872 125.923 51.9312Z" fill="white" fill-opacity="0.6" stroke="#9E9EA0" stroke-width="0.2"/>
<path d="M134.371 51.1134H131.158V49.0288H133.191C133.335 49.0288 133.463 48.9981 133.552 48.9091C133.641 48.82 133.671 48.6928 133.671 48.548C133.671 48.4032 133.641 48.276 133.552 48.187C133.463 48.0979 133.335 48.0673 133.191 48.0673H131.158V46.0588H134.371C134.516 46.0588 134.643 46.0281 134.732 45.9391C134.821 45.85 134.852 45.7229 134.852 45.578C134.852 45.4332 134.821 45.3061 134.732 45.217C134.643 45.1279 134.516 45.0973 134.371 45.0973H130.678C130.533 45.0973 130.406 45.1279 130.317 45.217C130.228 45.3061 130.197 45.4332 130.197 45.578V51.5561C130.197 51.7009 130.228 51.8281 130.317 51.9171C130.384 51.985 130.475 52.019 130.578 52.0313V52.0749H130.678H134.371C134.516 52.0749 134.643 52.0443 134.732 51.9552C134.821 51.8661 134.852 51.739 134.852 51.5942C134.852 51.4493 134.821 51.3222 134.732 51.2331C134.643 51.1441 134.516 51.1134 134.371 51.1134Z" fill="white" fill-opacity="0.6" stroke="#9E9EA0" stroke-width="0.2"/>
<path d="M137.283 51.6627L137.283 51.6628L137.285 51.6692C137.367 51.8732 137.507 52.0366 137.721 52.0366C137.786 52.0366 137.851 52.0262 137.899 52.0023C137.92 51.9915 137.957 51.9689 137.974 51.9256C137.976 51.92 137.978 51.9144 137.98 51.9089C138.053 51.8463 138.09 51.755 138.12 51.6636L138.12 51.6636L138.121 51.662L139.605 46.9377L141.089 51.6571C141.139 51.8944 141.334 52.0366 141.566 52.0366H141.604C141.722 52.0366 141.821 52.0007 141.902 51.9321C141.981 51.8653 142.037 51.7729 142.078 51.6692L142.078 51.6692L142.08 51.6627L143.984 45.7617C143.984 45.7616 143.984 45.7614 143.984 45.7613C144.029 45.6253 144.031 45.4776 143.934 45.332C143.89 45.2663 143.84 45.2132 143.772 45.179C143.705 45.1453 143.63 45.1351 143.546 45.1351C143.489 45.1351 143.445 45.1503 143.406 45.1695C143.39 45.1775 143.375 45.1866 143.361 45.1945L143.357 45.1967C143.342 45.2055 143.327 45.2137 143.311 45.2218C143.205 45.2751 143.153 45.3783 143.119 45.4481C143.117 45.4511 143.116 45.4541 143.114 45.4569L143.111 45.4638L143.108 45.471L141.591 50.1911L140.181 45.5238C140.174 45.3678 140.067 45.2685 139.974 45.2218C139.892 45.1809 139.761 45.1351 139.663 45.1351C139.562 45.1351 139.468 45.1826 139.398 45.2176C139.395 45.219 139.392 45.2204 139.389 45.2218C139.273 45.2799 139.225 45.394 139.187 45.5081L139.187 45.5081L139.186 45.5108L137.772 50.1911L136.255 45.471L136.252 45.4638L136.249 45.4569C136.204 45.366 136.118 45.2806 136.081 45.2434C136.08 45.2424 136.079 45.2415 136.078 45.2406C136.022 45.185 135.921 45.1351 135.817 45.1351C135.68 45.1351 135.529 45.1823 135.429 45.332C135.332 45.4775 135.334 45.6253 135.379 45.7612C135.379 45.7614 135.379 45.7616 135.379 45.7617L137.283 51.6627Z" fill="white" fill-opacity="0.6" stroke="#9E9EA0" stroke-width="0.2"/>
<path d="M144.217 51.3656L144.217 51.3655L144.215 51.3722C144.171 51.5031 144.168 51.6346 144.218 51.749C144.27 51.865 144.371 51.9484 144.507 51.9936C144.636 52.0367 144.758 52.0414 144.864 51.9951C144.97 51.9485 145.043 51.8579 145.088 51.7458C145.088 51.7457 145.088 51.7456 145.088 51.7455L145.634 50.3995H148.699L149.282 51.7481L149.282 51.7481L149.284 51.7531C149.348 51.8806 149.431 51.9718 149.545 52.0121C149.657 52.0515 149.778 52.0346 149.901 51.9936L149.907 51.9914L149.914 51.9882C150.041 51.9245 150.132 51.8415 150.173 51.7274C150.212 51.6159 150.195 51.4951 150.154 51.3722L150.154 51.3721L150.152 51.3651L147.68 45.472C147.629 45.2376 147.435 45.0973 147.204 45.0973H147.166C146.929 45.0973 146.743 45.2419 146.654 45.4642C146.654 45.4644 146.654 45.4646 146.654 45.4647L144.217 51.3656ZM146.02 49.438L147.167 46.6382L148.347 49.438H146.02Z" fill="white" fill-opacity="0.6" stroke="#9E9EA0" stroke-width="0.2"/>
<path d="M150.123 45.8199L150.123 45.8199L150.124 45.8221L152.431 49.4529V51.5561C152.431 51.7084 152.475 51.8337 152.568 51.9197C152.659 52.0045 152.783 52.0369 152.912 52.0369C153.065 52.0369 153.192 51.9927 153.278 51.8929C153.362 51.7959 153.393 51.6632 153.393 51.518V49.4152L155.735 45.7887C155.821 45.6796 155.864 45.5557 155.837 45.4326C155.81 45.3123 155.722 45.2182 155.598 45.1529C155.493 45.0587 155.35 45.059 155.281 45.0592C155.278 45.0592 155.275 45.0592 155.273 45.0592H155.249L155.228 45.0697L155.228 45.0699C155.148 45.1101 155.052 45.1578 154.961 45.2941L154.961 45.2945L152.914 48.402L150.94 45.2959L150.941 45.2956L150.934 45.2871C150.851 45.1828 150.757 45.1066 150.64 45.0806C150.523 45.0546 150.403 45.0834 150.278 45.1459L150.269 45.1506L150.261 45.1573C150.152 45.2439 150.079 45.3483 150.054 45.467C150.029 45.5866 150.055 45.7073 150.123 45.8199Z" fill="white" fill-opacity="0.6" stroke="#9E9EA0" stroke-width="0.2"/>
<path d="M162.286 51.9499L162.301 51.9427L162.312 51.9312C162.356 51.8872 162.393 51.8392 162.418 51.7821C162.444 51.7245 162.456 51.6627 162.456 51.5939V46.0966H164.374C164.377 46.0966 164.38 46.0966 164.383 46.0966C164.491 46.0967 164.605 46.0968 164.711 45.9912C164.748 45.9543 164.773 45.8967 164.788 45.8445C164.805 45.7883 164.816 45.7215 164.816 45.654C164.816 45.6507 164.816 45.6475 164.816 45.6442C164.816 45.5402 164.817 45.4301 164.721 45.3275C164.686 45.2684 164.628 45.2312 164.573 45.2089C164.511 45.1843 164.441 45.1732 164.374 45.1732H159.576C159.507 45.1732 159.446 45.1848 159.388 45.2104C159.335 45.2338 159.29 45.267 159.249 45.3066C159.19 45.3419 159.153 45.3994 159.131 45.455C159.106 45.5166 159.095 45.5867 159.095 45.654C159.095 45.7227 159.107 45.7845 159.132 45.8421C159.158 45.8993 159.195 45.9472 159.239 45.9912C159.276 46.0281 159.333 46.053 159.386 46.0686C159.442 46.0855 159.509 46.0966 159.576 46.0966H161.494V51.5939C161.494 51.6627 161.506 51.7245 161.531 51.7821C161.557 51.8392 161.594 51.8872 161.638 51.9312C161.675 51.9681 161.732 51.993 161.784 52.0086C161.841 52.0255 161.907 52.0366 161.975 52.0366C162.113 52.0366 162.207 51.9896 162.283 51.9514L162.286 51.9499Z" fill="white" fill-opacity="0.6" stroke="#9E9EA0" stroke-width="0.2"/>
<path d="M170.575 51.4745L170.575 51.4746L170.579 51.4707C170.943 51.0666 171.138 50.5071 171.138 49.7284V47.4057C171.138 46.6305 170.944 46.0285 170.575 45.6596C170.206 45.2907 169.604 45.0973 168.829 45.0973H167.611C166.836 45.0973 166.234 45.2907 165.865 45.6596C165.496 46.0285 165.302 46.6305 165.302 47.4057V49.7284C165.302 50.5036 165.496 51.1056 165.865 51.4745C166.234 51.8434 166.836 52.0369 167.611 52.0369H168.829C169.604 52.0369 170.206 51.8434 170.575 51.4745ZM169.673 50.9282L169.667 50.9304L169.66 50.9336C169.453 51.0374 169.205 51.0753 168.829 51.0753H167.611C167.272 51.0753 166.987 51.0371 166.78 50.9336L166.773 50.9304L166.767 50.9282C166.568 50.862 166.439 50.7331 166.373 50.5345L166.371 50.5277L166.368 50.5214C166.264 50.3138 166.226 50.066 166.226 49.6903V47.3677C166.226 47.002 166.298 46.747 166.373 46.5235C166.439 46.3249 166.568 46.196 166.767 46.1298C166.982 46.0582 167.237 46.0207 167.611 46.0207H168.829C169.195 46.0207 169.45 46.0934 169.673 46.1679C169.872 46.2341 170.001 46.363 170.067 46.5616L170.069 46.5683L170.072 46.5747C170.176 46.7822 170.214 47.0301 170.214 47.4057V49.6903C170.214 50.056 170.141 50.311 170.067 50.5345C170.001 50.7331 169.872 50.862 169.673 50.9282Z" fill="white" fill-opacity="0.6" stroke="#9E9EA0" stroke-width="0.2"/>
<path d="M177.556 51.9312C177.593 51.9681 177.65 51.993 177.702 52.0086C177.759 52.0255 177.825 52.0366 177.893 52.0366C177.896 52.0366 177.899 52.0366 177.903 52.0366C178.01 52.0367 178.124 52.0368 178.23 51.9312C178.274 51.8872 178.311 51.8392 178.336 51.7821C178.362 51.7245 178.374 51.6627 178.374 51.5939V46.0966H180.292C180.295 46.0966 180.298 46.0966 180.301 46.0966C180.409 46.0967 180.523 46.0968 180.629 45.9912C180.666 45.9543 180.691 45.8967 180.706 45.8445C180.723 45.7883 180.734 45.7215 180.734 45.654C180.734 45.6507 180.734 45.6475 180.734 45.6442C180.734 45.5402 180.735 45.4301 180.639 45.3275C180.604 45.2684 180.546 45.2312 180.491 45.2089C180.429 45.1843 180.359 45.1732 180.292 45.1732H175.494C175.425 45.1732 175.363 45.1848 175.306 45.2104C175.253 45.2338 175.208 45.267 175.167 45.3066C175.108 45.3419 175.071 45.3994 175.049 45.455C175.024 45.5166 175.013 45.5867 175.013 45.654C175.013 45.7227 175.025 45.7845 175.05 45.8421C175.076 45.8993 175.113 45.9472 175.157 45.9912C175.194 46.0281 175.251 46.053 175.303 46.0686C175.36 46.0855 175.426 46.0966 175.494 46.0966H177.412V51.5939C177.412 51.6627 177.424 51.7245 177.449 51.7821C177.475 51.8392 177.512 51.8872 177.556 51.9312Z" fill="white" fill-opacity="0.6" stroke="#9E9EA0" stroke-width="0.2"/>
<path d="M185.766 51.8366L185.766 51.8366L185.768 51.84C185.859 51.9764 185.955 52.0241 186.035 52.0643L186.035 52.0644C186.086 52.0899 186.144 52.1055 186.21 52.0981C186.272 52.0912 186.334 52.0649 186.397 52.0235C186.526 51.9577 186.617 51.8615 186.644 51.7338C186.671 51.6075 186.628 51.4757 186.545 51.35L185.25 49.2277C185.66 49.135 186.011 48.945 186.234 48.6491C186.521 48.3196 186.637 47.874 186.637 47.3296V47.025C186.637 46.3956 186.44 45.9122 186.115 45.5856C185.784 45.215 185.295 45.0592 184.671 45.0592H182.31C182.166 45.0592 182.038 45.0898 181.949 45.1789C181.86 45.268 181.83 45.3951 181.83 45.5399V51.518C181.83 51.6628 181.86 51.79 181.949 51.8791C182.038 51.9681 182.166 51.9988 182.31 51.9988C182.455 51.9988 182.582 51.9681 182.671 51.8791C182.761 51.79 182.791 51.6628 182.791 51.518V49.2572H184.196L185.766 51.8366ZM185.514 46.2961L185.514 46.2965L185.523 46.3034C185.674 46.4247 185.752 46.6858 185.752 47.063V47.3677C185.752 47.7366 185.678 47.9713 185.514 48.1346C185.352 48.2965 185.081 48.3719 184.709 48.3719H182.791V46.0588H184.709C185.118 46.0588 185.352 46.1335 185.514 46.2961Z" fill="white" fill-opacity="0.6" stroke="#9E9EA0" stroke-width="0.2"/>
<path d="M187.471 51.3656L187.471 51.3655L187.469 51.3722C187.425 51.5031 187.421 51.6346 187.472 51.749C187.524 51.865 187.625 51.9484 187.761 51.9936C187.89 52.0367 188.012 52.0414 188.118 51.9951C188.224 51.9485 188.297 51.8578 188.342 51.7457C188.342 51.7457 188.342 51.7456 188.342 51.7455L188.888 50.3995H191.953L192.536 51.7481L192.536 51.7481L192.538 51.7531C192.602 51.8806 192.685 51.9718 192.799 52.0121C192.911 52.0515 193.032 52.0346 193.154 51.9936L193.161 51.9914L193.168 51.9882C193.295 51.9245 193.386 51.8415 193.427 51.7274C193.466 51.6159 193.449 51.4951 193.408 51.3722L193.408 51.3721L193.405 51.3651L190.934 45.472C190.883 45.2376 190.689 45.0973 190.457 45.0973H190.419C190.182 45.0973 189.997 45.2419 189.908 45.4642C189.908 45.4644 189.908 45.4646 189.908 45.4647L187.471 51.3656ZM189.274 49.438L190.421 46.6382L191.601 49.438H189.274Z" fill="white" fill-opacity="0.6" stroke="#9E9EA0" stroke-width="0.2"/>
<path d="M194.623 51.5561C194.623 51.7009 194.653 51.8281 194.742 51.9172C194.831 52.0062 194.959 52.0369 195.103 52.0369H197.54C198.429 52.0369 199.069 51.8437 199.515 51.3983C199.96 50.953 200.153 50.3126 200.153 49.4238V47.7103C200.153 46.8168 199.92 46.1812 199.518 45.7392C199.109 45.2889 198.426 45.0973 197.54 45.0973H195.103C194.959 45.0973 194.831 45.1279 194.742 45.217C194.653 45.3061 194.623 45.4332 194.623 45.578V51.5561ZM197.54 51.0753H195.584V46.0207H197.54C197.994 46.0207 198.32 46.0591 198.567 46.1649C198.805 46.2671 198.981 46.4743 199.088 46.6889C199.191 46.894 199.23 47.2528 199.23 47.6723V49.3857C199.23 49.8399 199.192 50.1655 199.086 50.4125C198.982 50.6554 198.81 50.827 198.567 50.9311C198.32 51.037 197.994 51.0753 197.54 51.0753Z" fill="white" fill-opacity="0.6" stroke="#9E9EA0" stroke-width="0.2"/>
<path d="M202.611 51.9499L202.625 51.9427L202.637 51.9312C202.674 51.8943 202.699 51.8366 202.714 51.7845C202.731 51.7283 202.742 51.6615 202.742 51.5939V45.6159C202.742 45.6126 202.742 45.6094 202.742 45.6061C202.743 45.4984 202.743 45.3843 202.637 45.2786C202.6 45.2417 202.542 45.2168 202.49 45.2012C202.434 45.1843 202.367 45.1732 202.3 45.1732C202.296 45.1732 202.293 45.1732 202.29 45.1732C202.182 45.1731 202.068 45.173 201.962 45.2786C201.926 45.3155 201.901 45.3732 201.885 45.4253C201.868 45.4815 201.857 45.5483 201.857 45.6159V51.5939C201.857 51.5972 201.857 51.6004 201.857 51.6037C201.857 51.7114 201.857 51.8255 201.962 51.9312C201.999 51.9681 202.057 51.993 202.109 52.0086C202.165 52.0255 202.232 52.0366 202.3 52.0366C202.438 52.0366 202.532 51.9896 202.608 51.9515L202.611 51.9499Z" fill="white" fill-opacity="0.6" stroke="#9E9EA0" stroke-width="0.2"/>
<path d="M205.561 51.5561V46.9481L209.341 51.7693C209.466 51.9348 209.606 52.0369 209.801 52.0369C209.946 52.0369 210.073 52.0062 210.162 51.9172C210.252 51.8281 210.282 51.7009 210.282 51.5561V45.578C210.282 45.4257 210.238 45.3004 210.145 45.2144C210.054 45.1296 209.931 45.0973 209.801 45.0973C209.657 45.0973 209.529 45.1279 209.44 45.217C209.351 45.3061 209.321 45.4332 209.321 45.578V50.186L205.54 45.3648C205.412 45.1949 205.233 45.0973 205.08 45.0973C204.935 45.0973 204.808 45.1279 204.719 45.217C204.63 45.3061 204.599 45.4332 204.599 45.578V51.5561C204.599 51.7009 204.63 51.8281 204.719 51.9172C204.808 52.0062 204.935 52.0369 205.08 52.0369C205.217 52.0369 205.339 51.9908 205.427 51.9029C205.515 51.815 205.561 51.6931 205.561 51.5561Z" fill="white" fill-opacity="0.6" stroke="#9E9EA0" stroke-width="0.2"/>
<path d="M217.553 46.7965V46.7894L217.552 46.7824C217.474 46.2413 217.317 45.7899 216.943 45.4991C216.575 45.2131 216.092 45.0973 215.435 45.0973H214.216C213.441 45.0973 212.839 45.2907 212.47 45.6596C212.101 46.0285 211.908 46.6305 211.908 47.4057V49.7284C211.908 50.5036 212.101 51.1056 212.47 51.4745C212.823 51.8274 213.389 52.0197 214.116 52.0358V52.0749H214.216H215.435C216.139 52.0749 216.66 51.8788 217.024 51.5547C217.399 51.2212 217.553 50.6515 217.553 49.9569V49.043C217.553 48.8907 217.509 48.7654 217.416 48.6794C217.325 48.5946 217.201 48.5622 217.072 48.5622H215.815C215.663 48.5622 215.538 48.6063 215.452 48.6989C215.367 48.7902 215.335 48.9135 215.335 49.043C215.335 49.1953 215.379 49.3206 215.471 49.4066C215.563 49.4914 215.686 49.5238 215.815 49.5238H216.629V49.9569C216.629 50.2553 216.592 50.5075 216.522 50.6813C216.456 50.8462 216.362 50.9403 216.197 51.0063C216.023 51.076 215.808 51.1134 215.473 51.1134H214.254C213.889 51.1134 213.634 51.0407 213.41 50.9662C213.212 50.9 213.083 50.7712 213.016 50.5726L213.014 50.5658L213.011 50.5595C212.907 50.3519 212.869 50.1041 212.869 49.7284V47.4057C212.869 47.0401 212.942 46.785 213.016 46.5616C213.083 46.363 213.212 46.2341 213.41 46.1679L213.417 46.1656L213.423 46.1625C213.631 46.0587 213.879 46.0207 214.254 46.0207H215.473C215.882 46.0207 216.166 46.0955 216.335 46.1968C216.487 46.2877 216.593 46.4784 216.63 46.8075L216.63 46.8075L216.63 46.8106C216.651 46.9534 216.694 47.0736 216.778 47.1575C216.864 47.2441 216.979 47.2773 217.11 47.2773C217.191 47.2773 217.256 47.2499 217.306 47.2218C217.328 47.2096 217.349 47.1962 217.367 47.185C217.369 47.1838 217.371 47.1825 217.373 47.1813C217.392 47.1686 217.407 47.1594 217.421 47.1525C217.5 47.1131 217.529 47.0377 217.541 46.9779C217.553 46.9205 217.553 46.8549 217.553 46.8016L217.553 46.7965Z" fill="white" fill-opacity="0.6" stroke="#9E9EA0" stroke-width="0.2"/>
<path d="M83.9571 12.9844C83.0052 12.9844 82.2056 12.6417 81.5202 11.9563C80.8349 11.2709 80.4922 10.4713 80.4922 9.51942C80.4922 8.56749 80.8349 7.76788 81.5202 7.04442C82.2056 6.35904 83.0052 5.97827 83.9571 5.97827C84.909 5.97827 85.7467 6.32096 86.4321 7.04442C87.1174 7.7298 87.4601 8.56749 87.4601 9.51942C87.4601 10.4713 87.1174 11.2709 86.4321 11.9563C85.7467 12.6417 84.909 12.9844 83.9571 12.9844ZM81.1395 37.6201V15.6498H86.8128V37.6201H81.1395Z" fill="white"/>
<path d="M104.215 15.0024C106.613 15.0024 108.593 15.8021 110.154 17.4394C111.716 19.0386 112.515 21.2851 112.515 24.1409V37.6582H106.842V24.8643C106.842 23.4174 106.461 22.2751 105.661 21.5136C104.862 20.752 103.796 20.3332 102.501 20.3332C101.016 20.3332 99.8739 20.7901 98.9982 21.704C98.1224 22.6178 97.6655 23.9886 97.6655 25.7782V37.6582H91.9922V15.6878H97.6655V18.1628C99.0363 16.0305 101.245 15.0024 104.215 15.0024Z" fill="white"/>
<path d="M131.437 15.6116H137.682L129.343 37.5819H122.87L114.531 15.6116H120.776L126.106 30.9946L131.437 15.6116Z" fill="white"/>
<path d="M144.306 28.9386C145.068 31.6801 147.124 33.089 150.512 33.089C152.683 33.089 154.32 32.3655 155.424 30.8805L159.993 33.5078C157.823 36.6301 154.625 38.2293 150.398 38.2293C146.781 38.2293 143.849 37.1251 141.641 34.9166C139.432 32.7082 138.328 29.9666 138.328 26.6159C138.328 23.3032 139.394 20.5236 141.565 18.3151C143.735 16.1067 146.514 15.0024 149.903 15.0024C153.14 15.0024 155.805 16.1067 157.899 18.3532C159.993 20.5997 161.06 23.3413 161.06 26.6159C161.06 27.3393 160.983 28.139 160.831 28.9386H144.306V28.9386ZM144.23 24.5597H155.424C155.12 23.0747 154.434 21.9324 153.406 21.209C152.378 20.4855 151.236 20.1047 149.941 20.1047C148.418 20.1047 147.162 20.4855 146.172 21.2851C145.22 22.0467 144.573 23.1509 144.23 24.5597Z" fill="white"/>
<path d="M169.439 21.8563C169.439 22.4274 169.819 22.9224 170.619 23.3032C171.381 23.684 172.332 23.9886 173.437 24.2551C174.541 24.5217 175.683 24.9024 176.787 25.3213C177.892 25.7401 178.843 26.4636 179.605 27.4536C180.367 28.4436 180.785 29.7001 180.785 31.1851C180.785 33.4316 179.948 35.1832 178.272 36.4016C176.597 37.6201 174.465 38.2293 171.952 38.2293C167.421 38.2293 164.375 36.4778 162.699 33.0128L167.611 30.2332C168.258 32.137 169.705 33.089 171.914 33.089C173.932 33.089 174.96 32.4416 174.96 31.1851C174.96 30.6139 174.579 30.1189 173.779 29.7382C173.018 29.3574 172.066 29.0528 170.962 28.7482C169.858 28.4436 168.715 28.1009 167.611 27.644C166.507 27.187 165.555 26.5016 164.793 25.5497C164.032 24.5978 163.613 23.4174 163.613 21.9705C163.613 19.8001 164.413 18.0867 166.012 16.8301C167.611 15.5736 169.591 14.9644 171.952 14.9644C173.741 14.9644 175.379 15.3832 176.825 16.1828C178.272 16.9824 179.453 18.1247 180.29 19.6478L175.455 22.2751C174.769 20.7901 173.589 20.0286 171.952 20.0286C171.228 20.0286 170.619 20.1809 170.124 20.5236C169.667 20.8663 169.439 21.3232 169.439 21.8563Z" fill="white"/>
<path d="M184.441 37.62V5.52124H190.115V37.62H184.441Z" fill="white"/>
<path d="M214.024 34.8405C211.778 37.087 208.998 38.1912 205.762 38.1912C202.525 38.1912 199.746 37.087 197.499 34.8405C195.253 32.5939 194.148 29.8524 194.148 26.5778C194.148 23.3413 195.253 20.5617 197.499 18.3151C199.746 16.0686 202.487 14.9644 205.762 14.9644C208.998 14.9644 211.778 16.0686 214.024 18.3151C216.271 20.5617 217.413 23.3032 217.413 26.5778C217.413 29.8524 216.271 32.5939 214.024 34.8405ZM201.497 30.9566C202.639 32.0989 204.048 32.6701 205.724 32.6701C207.437 32.6701 208.846 32.0989 209.988 30.9566C211.13 29.8143 211.702 28.3674 211.702 26.6159C211.702 24.8643 211.13 23.4174 209.988 22.2751C208.846 21.1328 207.437 20.5617 205.724 20.5617C204.01 20.5617 202.601 21.1328 201.497 22.2751C200.355 23.4174 199.822 24.8643 199.822 26.6159C199.822 28.3674 200.393 29.8143 201.497 30.9566Z" fill="white"/>
<path d="M17.6268 28.5914L11.8438 36.2476L19.4997 42.0307L25.2828 34.3745L17.6268 28.5914Z" fill="#F8B409"/>
<path d="M18.0862 43.9408L16.0301 46.6823C13.517 49.995 9.59518 51.975 5.4068 51.975H0L10.4329 38.1912L18.0862 43.9408Z" fill="#FF0054"/>
<path d="M48.5839 51.9369H32.6681L21.6641 43.6361L27.4516 35.9827L48.5839 51.9369Z" fill="#803EFF"/>
<path d="M64.7293 0L46.5289 6.20652L51.4788 9.8619L39.9037 25.4353L26.9197 15.6115H11.0039L41.7694 38.8765L59.2463 15.6115L64.7293 19.6857V0Z" fill="#803EFF"/>
</svg>
