<svg width="92" height="61" viewBox="0 0 92 61" fill="none" xmlns="http://www.w3.org/2000/svg">
<mask id="mask0" mask-type="alpha" maskUnits="userSpaceOnUse" x="0" y="0" width="92" height="61">
<rect width="92" height="61" rx="8" fill="#C4C4C4"/>
</mask>
<g mask="url(#mask0)">
<path d="M96 -1H-3V61H96V-1Z" fill="#012169"/>
<path d="M96 -1V5.9316L74.0682 19.6667L57.5682 30L74.0682 40.3333L96 54.0684V61H84.931L54.75 42.0983L46.5 36.9316L38.25 42.0983L8.06903 61H-3V54.0684L18.9318 40.3333L35.4318 30L18.9318 19.6667L-3 5.9316V-1H8.06903L38.25 17.9017L46.5 23.0684L54.75 17.9017L84.931 -1H96Z" fill="white"/>
<path d="M53.8788 30L70.3788 40.3333L96 56.3789V61H88.6204L55.6212 40.3333L51.45 37.7211L46.5 34.6211L41.55 37.7211L37.3788 40.3333L4.37963 61H-3V56.3789L22.6212 40.3333L39.1212 30L22.6212 19.6667L-3 3.62107V-1H4.37963L37.3788 19.6667L41.55 22.2789L46.5 25.3789L51.45 22.2789L55.6212 19.6667L88.6204 -1H96V3.62107L70.3788 19.6667L53.8788 30Z" fill="#C8102E"/>
<path d="M54.75 61H38.25V40.3333H-3V19.6667H38.25V-1H54.75V19.6667H96V40.3333H54.75V61Z" fill="white"/>
<path d="M51.45 61H41.55V36.2H-3V23.8H41.55V-1H51.45V23.8H96V36.2H51.45V61Z" fill="#C8102E"/>
</g>
</svg>
