<svg width="580" height="530" viewBox="0 0 580 530" fill="none" xmlns="http://www.w3.org/2000/svg">
<path d="M224.642 183.716L245.546 158L234.37 161.475V161.349L234.08 161.564L221.226 165.567L225.607 167.876L119.417 246.932V270.294L41 341.404L127.393 274.208V250.942L227.026 176.78L227.041 176.862L224.642 183.716Z" fill="url(#paint0_linear)"/>
<path d="M421.173 372.749H454.938L433.218 288.168L421.173 295.23V372.749Z" fill="#FEA432"/>
<path d="M473.097 372.75H506.625L484.629 335.353L473.097 341.234V372.75Z" fill="#FFB95F"/>
<path d="M369.793 372.749H412.321L380.955 240.13L369.793 248.573V372.749Z" fill="#E78502"/>
<path d="M311.429 372.75H346.1L329.117 192.523L311.429 203.996V372.75Z" fill="#CC7900"/>
<path d="M432.79 372.75H469.823V315.073L432.79 287.738V372.75Z" fill="#FFB95F"/>
<path d="M484.631 372.75H521.664V362.68L484.631 335.353V372.75Z" fill="#FDCC8A"/>
<path d="M380.958 372.749H417.984V267.465L380.958 240.13V372.749Z" fill="#FEA432"/>
<path d="M329.119 372.75H366.144V219.858L329.119 192.523V372.75Z" fill="#E78502"/>
<path d="M515.092 341.168L538.18 351.92L520.914 323.643L522.258 331.143L522.251 331.158L444.079 270.295V246.933L329.119 171.308L436.103 250.943V274.209L519.89 339.378L519.875 339.415L515.092 341.168Z" fill="#FEA432"/>
<path d="M141.486 372.749H107.721L129.441 288.168L141.486 295.23V372.749Z" fill="#7468FA"/>
<path d="M89.5655 372.748H56.0376L78.0256 335.351L89.5655 341.232V372.748Z" fill="#928CFA"/>
<path d="M192.867 372.746H150.332L181.706 240.127L192.867 248.571V372.746Z" fill="#483FCC"/>
<path d="M251.234 372.748H216.555L233.545 192.521L251.234 203.994V372.748Z" fill="#3832A0"/>
<path d="M129.867 372.747H92.8413V315.071L129.867 287.736V372.747Z" fill="#928CFA"/>
<path d="M78.0259 372.748H41.0005V362.678L78.0259 335.351V372.748Z" fill="#C2BCFC"/>
<path d="M181.705 372.746H144.68V267.462L181.705 240.127V372.746Z" fill="#7468FA"/>
<path d="M233.545 372.748H196.52V219.856L233.545 192.521V372.748Z" fill="url(#paint1_linear)"/>
<path d="M256.967 209.885L306.297 259.215L259.536 305.976L307.136 353.583L288.259 372.46" stroke="url(#paint2_linear)" stroke-miterlimit="10"/>
<defs>
<linearGradient id="paint0_linear" x1="41" y1="249.7" x2="245.542" y2="249.7" gradientUnits="userSpaceOnUse">
<stop stop-color="#4502C6"/>
<stop offset="1" stop-color="#8F54FF"/>
</linearGradient>
<linearGradient id="paint1_linear" x1="211.515" y1="378.715" x2="218.927" y2="205.081" gradientUnits="userSpaceOnUse">
<stop stop-color="#4502C6"/>
<stop offset="1" stop-color="#8F54FF"/>
</linearGradient>
<linearGradient id="paint2_linear" x1="256.703" y1="291.174" x2="307.663" y2="291.174" gradientUnits="userSpaceOnUse">
<stop stop-color="#4502C6"/>
<stop offset="1" stop-color="#8F54FF"/>
</linearGradient>
</defs>
</svg>
