<svg width="580" height="530" viewBox="0 0 580 530" fill="none" xmlns="http://www.w3.org/2000/svg">
<path d="M160.327 110.412C163.802 108.409 166.616 110.197 166.632 114.4L167.079 255.236C167.096 259.439 164.282 264.487 160.823 266.489L92.7224 305.811C89.2471 307.813 86.4337 306.026 86.4171 301.806L85.9703 160.97C85.9537 156.767 88.7671 151.719 92.226 149.717L160.327 110.412Z" fill="url(#paint0_linear)"/>
<path d="M88.8813 164.066L89.0137 202.146V203.122L89.0799 226.027V227.019L89.1792 270.71L89.1958 271.703L89.2785 299.556C89.2785 301.393 91.281 302.534 92.8532 301.624L162.973 261.144C163.718 260.714 164.165 259.92 164.165 259.059L164.065 217.073V216.08L163.966 194.748V193.755L163.883 170.867V169.874L163.767 123.569C163.751 121.732 161.765 120.59 160.176 121.5L159.547 121.865L94.7067 159.316L90.0729 161.997C89.3282 162.411 88.8813 163.205 88.8813 164.066Z" fill="url(#paint1_linear)"/>
<path d="M164.68 110.014L156.77 105.414C156.753 105.414 156.753 105.397 156.736 105.397C156.637 105.331 156.521 105.281 156.422 105.232C156.405 105.232 156.389 105.215 156.372 105.215C156.339 105.199 156.306 105.199 156.273 105.182C156.207 105.165 156.157 105.132 156.091 105.116C156.041 105.099 155.992 105.099 155.926 105.083C155.892 105.066 155.843 105.066 155.81 105.05C155.777 105.05 155.76 105.033 155.743 105.033C155.611 105.033 155.479 105.017 155.346 105C155.33 105 155.313 105 155.297 105C155.181 105 155.065 105 154.949 105C154.916 105 154.899 105 154.866 105.017C154.8 105.017 154.751 105.033 154.684 105.033C154.618 105.033 154.552 105.05 154.486 105.05C154.436 105.05 154.386 105.066 154.353 105.083C154.271 105.099 154.188 105.116 154.105 105.132C154.055 105.149 154.006 105.149 153.956 105.165C153.907 105.182 153.873 105.199 153.824 105.215C153.675 105.265 153.542 105.314 153.393 105.364C153.344 105.381 153.294 105.397 153.245 105.414C153.195 105.43 153.145 105.463 153.112 105.48C153.062 105.496 153.013 105.513 152.98 105.546C152.798 105.629 152.616 105.728 152.417 105.827L84.3162 145.132C84.1176 145.248 83.919 145.381 83.7204 145.513C83.6542 145.563 83.6046 145.596 83.5384 145.645C83.406 145.745 83.2736 145.844 83.1412 145.943C83.075 145.993 83.0088 146.059 82.9426 146.109C82.8102 146.208 82.6944 146.324 82.562 146.44C82.4958 146.489 82.4461 146.556 82.3799 146.605C82.3468 146.638 82.3303 146.655 82.2972 146.688C82.2475 146.738 82.1814 146.804 82.1317 146.87C81.9993 147.002 81.8669 147.135 81.7511 147.284C81.718 147.317 81.6849 147.35 81.6518 147.383C81.5856 147.449 81.5359 147.532 81.4697 147.598C81.387 147.697 81.3208 147.78 81.238 147.88C81.2049 147.913 81.1718 147.946 81.1553 147.995C81.0725 148.095 80.9898 148.211 80.907 148.326C80.8574 148.393 80.8077 148.442 80.7747 148.508C80.7581 148.525 80.7416 148.542 80.7416 148.558C80.6092 148.74 80.4933 148.922 80.3775 149.104C80.3609 149.121 80.3609 149.137 80.3444 149.154C80.3278 149.203 80.2947 149.237 80.2782 149.286C80.1954 149.402 80.1292 149.534 80.0465 149.65C80.0134 149.717 79.9803 149.766 79.9472 149.832C79.9141 149.899 79.881 149.965 79.8313 150.031C79.7982 150.081 79.7651 150.147 79.732 150.196C79.6493 150.345 79.5831 150.478 79.5169 150.627C79.5003 150.66 79.4838 150.693 79.4672 150.726C79.4672 150.743 79.4507 150.743 79.4507 150.759C79.3514 150.941 79.2687 151.14 79.1859 151.338C79.1694 151.371 79.1528 151.405 79.1363 151.438C79.1032 151.504 79.0866 151.57 79.0535 151.636C79.0204 151.736 78.9708 151.835 78.9377 151.934C78.9046 152.017 78.8715 152.1 78.8549 152.182C78.8218 152.265 78.7887 152.348 78.7722 152.431C78.7556 152.48 78.7391 152.53 78.7225 152.58C78.6729 152.712 78.6398 152.828 78.6067 152.96C78.5736 153.043 78.557 153.126 78.5239 153.208C78.5239 153.225 78.5074 153.258 78.5074 153.275C78.4743 153.407 78.4412 153.539 78.4081 153.672C78.375 153.788 78.3419 153.904 78.3253 154.019C78.3253 154.036 78.3088 154.052 78.3088 154.069C78.2922 154.135 78.2922 154.201 78.2757 154.268C78.226 154.483 78.1929 154.714 78.1598 154.93C78.1598 154.963 78.1433 155.012 78.1433 155.045C78.1267 155.178 78.1267 155.294 78.1102 155.426C78.1102 155.509 78.0936 155.592 78.0936 155.674C78.0771 155.923 78.0605 156.171 78.0605 156.419L78.5074 297.255C78.5074 299.423 79.2687 300.945 80.4602 301.64L88.3708 306.241C87.1627 305.546 86.418 304.023 86.418 301.855L85.9712 161.02C85.9712 160.772 85.9877 160.523 86.0043 160.275C86.0043 160.192 86.0208 160.11 86.0208 160.027C86.0374 159.861 86.0539 159.712 86.0705 159.547C86.1036 159.332 86.1367 159.1 86.1863 158.885C86.2029 158.802 86.2194 158.719 86.236 158.637C86.2691 158.521 86.2856 158.405 86.3187 158.289C86.3518 158.14 86.3849 157.975 86.4346 157.826C86.4511 157.743 86.4842 157.66 86.5173 157.577C86.5669 157.395 86.6331 157.23 86.6828 157.048C86.7159 156.965 86.749 156.882 86.7655 156.8C86.8317 156.618 86.8979 156.436 86.9641 156.27C86.9972 156.204 87.0138 156.138 87.0469 156.071C87.1462 155.84 87.2455 155.592 87.3613 155.36C87.3779 155.327 87.3944 155.294 87.411 155.261C87.5103 155.062 87.6096 154.863 87.7254 154.665C87.7585 154.599 87.7916 154.532 87.8413 154.466C87.9405 154.284 88.0564 154.102 88.1722 153.92C88.2053 153.87 88.2219 153.837 88.255 153.788C88.3874 153.573 88.5363 153.357 88.6853 153.142C88.7349 153.076 88.768 153.026 88.8177 152.96C88.9335 152.811 89.0328 152.662 89.1487 152.53C89.2149 152.431 89.2976 152.348 89.3803 152.249C89.4796 152.133 89.5624 152.033 89.6617 151.918C89.7941 151.769 89.9265 151.636 90.0589 151.504C90.1416 151.421 90.2244 151.338 90.3071 151.256C90.3733 151.189 90.423 151.14 90.4892 151.09C90.605 150.974 90.7374 150.858 90.8698 150.759C90.936 150.709 91.0022 150.643 91.0684 150.594C91.2008 150.494 91.3332 150.395 91.4656 150.296C91.5318 150.246 91.5814 150.213 91.6476 150.163C91.8462 150.031 92.0448 149.899 92.2434 149.783L160.328 110.412C160.51 110.296 160.692 110.213 160.89 110.13C160.94 110.114 160.99 110.081 161.023 110.064C161.122 110.014 161.221 109.981 161.321 109.948C161.47 109.899 161.602 109.849 161.751 109.799C161.85 109.766 161.933 109.75 162.032 109.717C162.115 109.7 162.198 109.683 162.281 109.667C162.396 109.65 162.496 109.634 162.612 109.617C162.678 109.617 162.727 109.601 162.794 109.601C162.942 109.584 163.091 109.584 163.24 109.601C163.257 109.601 163.273 109.601 163.29 109.601C163.439 109.617 163.604 109.634 163.753 109.667C163.787 109.667 163.836 109.683 163.869 109.7C163.985 109.733 164.101 109.766 164.2 109.799C164.233 109.816 164.266 109.816 164.3 109.832C164.415 109.882 164.548 109.948 164.68 110.014Z" fill="url(#paint2_linear)"/>
<path d="M112.418 143.377C112.551 143.377 112.667 143.344 112.782 143.278L138.235 129.062C138.599 128.864 138.732 128.384 138.533 128.02C138.335 127.655 137.855 127.523 137.491 127.722L112.054 141.954C111.69 142.153 111.558 142.633 111.756 142.997C111.889 143.245 112.153 143.377 112.418 143.377Z" fill="url(#paint3_linear)"/>
<path d="M399.203 309.072C399.203 308.989 399.203 308.923 399.203 308.84V304.19H396.174C395.959 304.041 395.761 303.908 395.529 303.776L271.094 231.935C265.649 228.791 256.117 229.188 249.828 232.812L77.2175 332.473C76.0921 333.118 75.1488 333.83 74.3875 334.574H72.0044V339.539C72.054 341.492 73.2622 343.346 75.6784 344.752L200.113 416.593C205.558 419.738 215.091 419.34 221.379 415.716L393.99 316.056C397.316 314.136 399.054 311.687 399.17 309.353H399.186V309.072H399.203Z" fill="#2B1C87"/>
<path d="M200.129 411.993L75.6775 340.152C70.2327 337.007 70.9112 331.513 77.2 327.872L249.81 228.211C256.099 224.571 265.632 224.19 271.076 227.334L395.511 299.175C400.956 302.32 400.278 307.814 393.989 311.455L221.379 411.116C215.106 414.74 205.574 415.137 200.129 411.993Z" fill="url(#paint4_linear)"/>
<path opacity="0.5" d="M215.504 407.971L93.3696 337.454L261.23 240.557L383.348 311.057L215.504 407.971Z" fill="#17181B"/>
<path d="M215.7 404.149L93.5649 333.648L261.426 236.735L383.544 307.236L215.7 404.149Z" fill="url(#paint5_linear)"/>
<path d="M215.504 398.77L93.3696 328.253L261.23 231.34L383.348 301.857L215.504 398.77Z" fill="url(#paint6_linear)"/>
<path d="M235.924 270.263L238.572 260.003C238.836 258.944 240.541 258.215 242.362 258.381C244.182 258.53 245.44 259.523 245.175 260.565L243.619 266.606C243.47 267.169 244.281 267.665 245.258 267.599L271.406 266.176C273.243 266.076 274.881 266.854 275.047 267.913C275.212 268.973 273.872 269.916 272.035 270.015L238.522 271.836C236.966 271.951 235.692 271.157 235.924 270.263Z" fill="url(#paint7_linear)"/>
<path d="M329.133 315.924L276.688 285.639C275.38 284.877 275.38 283.669 276.688 282.908C277.995 282.147 280.113 282.147 281.421 282.908L333.866 313.193C335.173 313.955 335.173 315.163 333.866 315.924C332.558 316.685 330.44 316.685 329.133 315.924Z" fill="url(#paint8_linear)"/>
<path d="M202.943 289.312L205.59 279.052C205.855 277.992 207.56 277.264 209.38 277.43C211.201 277.579 212.458 278.572 212.194 279.614L210.638 285.655C210.489 286.217 211.3 286.714 212.276 286.648L238.424 285.224C240.261 285.125 241.9 285.903 242.065 286.962C242.231 288.021 240.89 288.965 239.053 289.064L205.541 290.884C204.002 290.984 202.711 290.206 202.943 289.312Z" fill="url(#paint9_linear)"/>
<path d="M296.149 334.972L243.704 304.686C242.397 303.925 242.397 302.717 243.704 301.956C245.012 301.194 247.13 301.194 248.437 301.956L300.882 332.241C302.19 333.002 302.19 334.211 300.882 334.972C299.575 335.733 297.457 335.733 296.149 334.972Z" fill="url(#paint10_linear)"/>
<path d="M169.96 308.36L172.608 298.099C172.872 297.04 174.577 296.312 176.397 296.478C178.218 296.626 179.476 297.619 179.211 298.662L177.655 304.703C177.506 305.265 178.317 305.762 179.294 305.696L205.442 304.272C207.279 304.173 208.917 304.951 209.082 306.01C209.248 307.069 207.907 308.013 206.07 308.112L172.558 309.932C171.019 310.032 169.728 309.254 169.96 308.36Z" fill="url(#paint11_linear)"/>
<path d="M263.166 354.02L210.721 323.734C209.413 322.973 209.413 321.765 210.721 321.004C212.028 320.242 214.147 320.242 215.454 321.004L267.899 351.289C269.206 352.05 269.206 353.258 267.899 354.02C266.592 354.764 264.473 354.764 263.166 354.02Z" fill="url(#paint12_linear)"/>
<path d="M136.892 327.441L139.54 317.18C139.804 316.121 141.509 315.393 143.33 315.558C145.15 315.707 146.408 316.7 146.143 317.743L144.587 323.783C144.438 324.346 145.249 324.843 146.226 324.776L172.374 323.353C174.211 323.254 175.849 324.032 176.015 325.091C176.18 326.15 174.84 327.093 173.003 327.193L139.49 329.013C137.951 329.112 136.66 328.335 136.892 327.441Z" fill="url(#paint13_linear)"/>
<path d="M230.101 373.101L177.656 342.816C176.348 342.054 176.348 340.846 177.656 340.085C178.963 339.324 181.082 339.324 182.389 340.085L234.834 370.371C236.141 371.132 236.141 372.34 234.834 373.101C233.527 373.862 231.408 373.862 230.101 373.101Z" fill="url(#paint14_linear)"/>
<path d="M364.085 263.196L364.035 263.676L351.59 256.494C351.375 256.659 351.176 256.825 350.928 256.957C347.42 258.976 341.727 258.976 338.218 256.957C334.71 254.938 334.71 251.645 338.218 249.626C338.466 249.477 338.764 249.361 339.029 249.245V245.041L335.339 244.048L334.594 246.68L320.858 238.753C318.442 237.362 314.321 238.041 313.527 239.944L311.772 244.197L310.167 244.032V248.401C310.167 248.434 310.167 248.467 310.167 248.5V248.533C310.217 249.146 310.647 249.741 311.425 250.188L349.224 272.017C350.283 272.629 351.805 272.877 353.262 272.695L367.097 270.925C369.331 270.643 370.605 269.485 370.506 268.326V264.123L364.085 263.196Z" fill="#17181B"/>
<path d="M369.246 262.485L351.604 252.29C351.389 252.456 351.191 252.621 350.943 252.754C347.434 254.773 341.741 254.773 338.233 252.754C334.724 250.735 334.724 247.441 338.233 245.422C338.481 245.273 338.779 245.157 339.043 245.042L320.856 234.533C318.439 233.142 314.319 233.821 313.524 235.724L310.281 243.618C309.933 244.462 310.363 245.356 311.439 245.985L349.238 267.813C350.297 268.426 351.82 268.674 353.276 268.492L367.111 266.721C370.471 266.291 371.679 263.891 369.246 262.485Z" fill="url(#paint15_linear)"/>
<path d="M385.781 287.459H383.166L286.352 231.555C284.002 230.198 279.898 230.363 277.184 231.936L271.292 235.345H268.909V238.142C268.909 238.191 268.909 238.257 268.909 238.307V238.688H268.926C269.025 239.449 269.505 240.177 270.481 240.74L368.338 297.24C370.688 298.597 374.792 298.431 377.506 296.859L383.563 293.367C385.069 292.506 385.798 291.398 385.781 290.338H385.798V287.459H385.781Z" fill="#6F6578"/>
<path d="M368.306 294.442L270.449 237.943C268.099 236.586 268.397 234.219 271.111 232.647L277.168 229.155C279.883 227.583 283.987 227.417 286.337 228.774L384.193 285.274C386.543 286.631 386.246 288.998 383.532 290.57L377.474 294.062C374.777 295.634 370.673 295.799 368.306 294.442Z" fill="url(#paint16_linear)"/>
<path d="M346.362 280.491C346.395 280.325 346.395 280.176 346.362 280.011V277.727L332.924 271.786L296.68 250.867C295.505 250.189 293.453 250.272 292.096 251.049L289.448 252.572L287.959 251.91V254.243C287.942 254.69 288.19 255.104 288.737 255.418L337.657 283.668C338.832 284.347 340.884 284.264 342.241 283.486L345.269 281.732C345.898 281.401 346.262 280.954 346.362 280.491Z" fill="#58535E"/>
<path d="M337.654 281.417L288.733 253.167C287.558 252.489 287.707 251.297 289.064 250.519L292.093 248.765C293.45 247.987 295.502 247.888 296.677 248.583L345.597 276.833C346.772 277.511 346.623 278.703 345.266 279.481L342.238 281.235C340.881 282.013 338.829 282.096 337.654 281.417Z" fill="url(#paint17_linear)"/>
<path d="M284.947 385.032L284.649 369.393H143.482L143.664 384.585C143.615 385.015 143.664 384.585 143.714 385.015C144.029 387.481 145.981 390.03 149.473 392.049L202.15 422.467C209.184 426.521 219.825 426.968 225.915 423.46L280.876 391.718C283.954 389.964 285.278 387.531 284.947 385.032Z" fill="url(#paint18_linear)"/>
<path d="M280.676 376.526L225.716 408.267C219.626 411.776 208.984 411.346 201.951 407.274L149.274 376.857C142.241 372.802 141.479 366.662 147.569 363.137L202.53 331.395C208.62 327.887 219.262 328.317 226.295 332.388L278.972 362.806C286.005 366.861 286.767 373.001 280.676 376.526Z" fill="url(#paint19_linear)"/>
<path d="M189.305 357.196C175.602 365.106 175.602 377.949 189.305 385.859C203.007 393.77 225.233 393.77 238.936 385.859C252.639 377.949 252.639 365.106 238.936 357.196L214.112 371.528L189.305 357.196Z" fill="white"/>
<path d="M189.752 350.213L214.577 364.545L239.401 350.213C225.681 342.302 203.455 342.302 189.752 350.213Z" fill="white"/>
<path d="M291.861 165.505V207.143L428.973 286.829L429.089 246.316L291.861 165.505Z" fill="url(#paint20_linear)"/>
<path d="M507.021 201.335L429.089 246.316L318.92 183.015L396.835 138.033L507.021 201.335Z" fill="url(#paint21_linear)"/>
<path d="M438.06 190.642L410.042 206.827C403.488 210.617 392.83 210.617 386.277 206.827L358.258 190.642C351.705 186.852 351.705 180.696 358.258 176.923L386.277 160.737C392.83 156.948 403.488 156.948 410.042 160.737L438.06 176.923C444.613 180.696 444.613 186.852 438.06 190.642Z" fill="url(#paint22_linear)"/>
<path d="M461.442 199.283L425.017 220.317C423.28 221.326 420.45 221.326 418.695 220.317C416.958 219.307 416.958 217.669 418.695 216.676L455.121 195.642C456.858 194.632 459.688 194.632 461.442 195.642C463.197 196.651 463.197 198.29 461.442 199.283Z" fill="url(#paint23_linear)"/>
<path d="M471.917 205.322L435.492 226.356C433.754 227.366 430.924 227.366 429.17 226.356C427.432 225.347 427.432 223.708 429.17 222.716L465.595 201.681C467.333 200.672 470.163 200.672 471.917 201.681C473.655 202.691 473.655 204.329 471.917 205.322Z" fill="url(#paint24_linear)"/>
<path d="M393.591 136.196L369.776 122.444L299.226 163.189H291.861V167.442L321.071 184.306L399.002 139.324V135.055L393.591 136.196Z" fill="url(#paint25_linear)"/>
<path d="M369.776 118.189L291.861 163.187L321.071 180.051L399.002 135.053L369.776 118.189Z" fill="url(#paint26_linear)"/>
<path d="M325.708 160.639C327.399 160.639 328.77 159.846 328.77 158.868C328.77 157.89 327.399 157.097 325.708 157.097C324.017 157.097 322.646 157.89 322.646 158.868C322.646 159.846 324.017 160.639 325.708 160.639Z" fill="url(#paint27_linear)"/>
<path d="M328.768 160.639C327.08 161.615 324.332 161.615 322.644 160.639C320.956 159.662 320.956 158.074 322.644 157.097C324.332 156.121 327.08 156.121 328.768 157.097C330.456 158.074 330.456 159.662 328.768 160.639ZM323.985 157.875C323.042 158.421 323.042 159.315 323.985 159.861C324.928 160.407 326.484 160.407 327.427 159.861C328.371 159.315 328.371 158.421 327.427 157.875C326.484 157.329 324.928 157.329 323.985 157.875Z" fill="url(#paint28_linear)"/>
<path d="M363.687 136.94C364.878 137.635 364.878 138.743 363.687 139.439C362.495 140.134 360.559 140.134 359.367 139.439C358.176 138.743 358.176 137.635 359.367 136.94C360.559 136.261 362.495 136.261 363.687 136.94Z" fill="url(#paint29_linear)"/>
<path d="M364.579 139.967C362.891 140.944 360.144 140.944 358.456 139.967C356.768 138.991 356.768 137.402 358.456 136.426C360.144 135.449 362.891 135.449 364.579 136.426C366.267 137.402 366.267 138.991 364.579 139.967ZM359.796 137.203C358.853 137.75 358.853 138.643 359.796 139.189C360.74 139.736 362.295 139.736 363.239 139.189C364.182 138.643 364.182 137.75 363.239 137.203C362.295 136.641 360.756 136.641 359.796 137.203Z" fill="url(#paint30_linear)"/>
<path d="M428.974 286.829L507.021 242.36V201.334L429.089 246.316L428.974 286.829Z" fill="url(#paint31_linear)"/>
<path d="M291.861 198.984V194.879L428.973 274.366V278.669L291.861 198.984Z" fill="#A293B7"/>
<path d="M291.861 189.336V185.232L428.973 264.719V269.005L291.861 189.336Z" fill="#A293B7"/>
<path d="M291.911 179.671V175.567L429.039 255.054V259.34L291.911 179.671Z" fill="#A293B7"/>
<path d="M429.04 259.34L507.02 214.888V210.337L429.04 255.053V259.34Z" fill="#8B7E9E"/>
<path d="M429.04 269.005L507.02 224.553V220.002L429.04 264.718V269.005Z" fill="#8B7E9E"/>
<path d="M429.04 278.669L507.02 234.217V229.649L429.04 274.366V278.669Z" fill="#8B7E9E"/>
<path d="M364.565 180.565C361.503 182.336 361.503 185.215 364.565 186.986L392.583 203.171C395.645 204.942 400.643 204.942 403.721 203.171L431.739 186.986C434.8 185.215 434.8 182.336 431.739 180.565L403.721 164.38C400.659 162.609 395.661 162.609 392.583 164.38L364.565 180.565Z" fill="url(#paint32_linear)"/>
<defs>
<linearGradient id="paint0_linear" x1="125.302" y1="140.185" x2="128.353" y2="310.015" gradientUnits="userSpaceOnUse">
<stop stop-color="#B2BAFF"/>
<stop offset="1" stop-color="#DBDFFF"/>
</linearGradient>
<linearGradient id="paint1_linear" x1="126.159" y1="206.528" x2="134.736" y2="324.584" gradientUnits="userSpaceOnUse">
<stop stop-color="#8F54FF"/>
<stop offset="1" stop-color="#4502C6"/>
</linearGradient>
<linearGradient id="paint2_linear" x1="123.651" y1="303.152" x2="120.278" y2="140.285" gradientUnits="userSpaceOnUse">
<stop stop-color="#8E52FF"/>
<stop offset="1" stop-color="#D6BFFF"/>
</linearGradient>
<linearGradient id="paint3_linear" x1="111.658" y1="135.515" x2="138.633" y2="135.515" gradientUnits="userSpaceOnUse">
<stop stop-color="#8E52FF"/>
<stop offset="1" stop-color="#D6BFFF"/>
</linearGradient>
<linearGradient id="paint4_linear" x1="54.4098" y1="461.376" x2="88.9362" y2="218.339" gradientUnits="userSpaceOnUse">
<stop stop-color="#2B1C87"/>
<stop offset="1" stop-color="#6B2CFF"/>
</linearGradient>
<linearGradient id="paint5_linear" x1="184.171" y1="384.411" x2="262.21" y2="23.2397" gradientUnits="userSpaceOnUse">
<stop stop-color="#9A8CA5"/>
<stop offset="1" stop-color="#F0F6FF"/>
</linearGradient>
<linearGradient id="paint6_linear" x1="113.787" y1="527.783" x2="149.808" y2="223.645" gradientUnits="userSpaceOnUse">
<stop offset="1.1e-07" stop-color="#B782FF"/>
<stop offset="1" stop-color="#F0F6FF"/>
</linearGradient>
<linearGradient id="paint7_linear" x1="236.761" y1="384.402" x2="259.999" y2="241.557" gradientUnits="userSpaceOnUse">
<stop stop-color="#FF0054"/>
<stop offset="1" stop-color="#FF0054"/>
</linearGradient>
<linearGradient id="paint8_linear" x1="290.037" y1="393.069" x2="313.275" y2="250.224" gradientUnits="userSpaceOnUse">
<stop stop-color="#FF0054"/>
<stop offset="1" stop-color="#FF0054"/>
</linearGradient>
<linearGradient id="paint9_linear" x1="207.65" y1="379.667" x2="230.888" y2="236.821" gradientUnits="userSpaceOnUse">
<stop stop-color="#FF0054"/>
<stop offset="1" stop-color="#FF0054"/>
</linearGradient>
<linearGradient id="paint10_linear" x1="260.924" y1="388.332" x2="284.162" y2="245.488" gradientUnits="userSpaceOnUse">
<stop stop-color="#FF0054"/>
<stop offset="1" stop-color="#FF0054"/>
</linearGradient>
<linearGradient id="paint11_linear" x1="178.537" y1="374.929" x2="201.775" y2="232.085" gradientUnits="userSpaceOnUse">
<stop stop-color="#FF0054"/>
<stop offset="1" stop-color="#FF0054"/>
</linearGradient>
<linearGradient id="paint12_linear" x1="231.811" y1="383.596" x2="255.049" y2="240.751" gradientUnits="userSpaceOnUse">
<stop stop-color="#FF0054"/>
<stop offset="1" stop-color="#FF0054"/>
</linearGradient>
<linearGradient id="paint13_linear" x1="149.35" y1="370.181" x2="172.588" y2="227.336" gradientUnits="userSpaceOnUse">
<stop stop-color="#FF0054"/>
<stop offset="1" stop-color="#FF0054"/>
</linearGradient>
<linearGradient id="paint14_linear" x1="202.627" y1="378.848" x2="225.865" y2="236.003" gradientUnits="userSpaceOnUse">
<stop stop-color="#FF0054"/>
<stop offset="1" stop-color="#FF0054"/>
</linearGradient>
<linearGradient id="paint15_linear" x1="328.358" y1="258.156" x2="335.746" y2="245.361" gradientUnits="userSpaceOnUse">
<stop stop-color="#8E52FF"/>
<stop offset="1" stop-color="#D6BFFF"/>
</linearGradient>
<linearGradient id="paint16_linear" x1="322.479" y1="269.847" x2="331.661" y2="254.264" gradientUnits="userSpaceOnUse">
<stop offset="1.1e-07" stop-color="#AC9DC0"/>
<stop offset="1" stop-color="#F0F6FF"/>
</linearGradient>
<linearGradient id="paint17_linear" x1="310.309" y1="266.319" x2="314.486" y2="259.132" gradientUnits="userSpaceOnUse">
<stop offset="1.1e-07" stop-color="#AC9DC0"/>
<stop offset="1" stop-color="#F0F6FF"/>
</linearGradient>
<linearGradient id="paint18_linear" x1="229.426" y1="397.623" x2="202.472" y2="397.623" gradientUnits="userSpaceOnUse">
<stop stop-color="#4502C6"/>
<stop offset="1" stop-color="#7132E8"/>
</linearGradient>
<linearGradient id="paint19_linear" x1="154.107" y1="368.016" x2="420.93" y2="376.101" gradientUnits="userSpaceOnUse">
<stop stop-color="#8E52FF"/>
<stop offset="1" stop-color="#D6BFFF"/>
</linearGradient>
<linearGradient id="paint20_linear" x1="467.19" y1="321.675" x2="227.025" y2="108.006" gradientUnits="userSpaceOnUse">
<stop offset="1.1e-07" stop-color="#AC9DC0"/>
<stop offset="1" stop-color="#F0F6FF"/>
</linearGradient>
<linearGradient id="paint21_linear" x1="650.062" y1="328.624" x2="503.251" y2="75.4566" gradientUnits="userSpaceOnUse">
<stop offset="1.1e-07" stop-color="#EADAFF"/>
<stop offset="1" stop-color="#F0F6FF"/>
</linearGradient>
<linearGradient id="paint22_linear" x1="530.6" y1="147.59" x2="389.472" y2="288.637" gradientUnits="userSpaceOnUse">
<stop stop-color="#8E52FF"/>
<stop offset="1" stop-color="#D6BFFF"/>
</linearGradient>
<linearGradient id="paint23_linear" x1="558.592" y1="175.602" x2="417.467" y2="316.646" gradientUnits="userSpaceOnUse">
<stop stop-color="#8F54FF"/>
<stop offset="1" stop-color="#4502C6"/>
</linearGradient>
<linearGradient id="paint24_linear" x1="565.579" y1="182.593" x2="424.454" y2="323.637" gradientUnits="userSpaceOnUse">
<stop stop-color="#8F54FF"/>
<stop offset="1" stop-color="#4502C6"/>
</linearGradient>
<linearGradient id="paint25_linear" x1="333.978" y1="144.092" x2="276.383" y2="108.095" gradientUnits="userSpaceOnUse">
<stop stop-color="#4502C6"/>
<stop offset="1" stop-color="#7132E8"/>
</linearGradient>
<linearGradient id="paint26_linear" x1="446.095" y1="160.26" x2="299.369" y2="147.523" gradientUnits="userSpaceOnUse">
<stop stop-color="#8E52FF"/>
<stop offset="1" stop-color="#D6BFFF"/>
</linearGradient>
<linearGradient id="paint27_linear" x1="330.051" y1="159.769" x2="319.744" y2="155.73" gradientUnits="userSpaceOnUse">
<stop stop-color="#393243"/>
<stop offset="1" stop-color="#82788B"/>
</linearGradient>
<linearGradient id="paint28_linear" x1="328.774" y1="160.637" x2="325.7" y2="155.336" gradientUnits="userSpaceOnUse">
<stop offset="1.1e-07" stop-color="#AC9DC0"/>
<stop offset="1" stop-color="#F0F6FF"/>
</linearGradient>
<linearGradient id="paint29_linear" x1="365.865" y1="139.09" x2="355.559" y2="135.05" gradientUnits="userSpaceOnUse">
<stop stop-color="#393243"/>
<stop offset="1" stop-color="#82788B"/>
</linearGradient>
<linearGradient id="paint30_linear" x1="364.59" y1="139.957" x2="361.516" y2="134.656" gradientUnits="userSpaceOnUse">
<stop offset="1.1e-07" stop-color="#AC9DC0"/>
<stop offset="1" stop-color="#F0F6FF"/>
</linearGradient>
<linearGradient id="paint31_linear" x1="476.398" y1="317.788" x2="456.335" y2="141.779" gradientUnits="userSpaceOnUse">
<stop offset="1.1e-07" stop-color="#8873A0"/>
<stop offset="1" stop-color="#F0F6FF"/>
</linearGradient>
<linearGradient id="paint32_linear" x1="501.79" y1="155.463" x2="391.362" y2="265.827" gradientUnits="userSpaceOnUse">
<stop stop-color="#4502C6"/>
<stop offset="1" stop-color="#8F54FF"/>
</linearGradient>
</defs>
</svg>
