<svg width="92" height="61" viewBox="0 0 92 61" fill="none" xmlns="http://www.w3.org/2000/svg">
<mask id="mask0" mask-type="alpha" maskUnits="userSpaceOnUse" x="0" y="0" width="92" height="61">
<rect width="92" height="61" rx="8" fill="#C4C4C4"/>
</mask>
<g mask="url(#mask0)">
<path d="M118 -0.999512H-0.000183776V61.1058H118V-0.999512Z" fill="white"/>
<path d="M-0.000181638 61.1054H97V56.328H-0.000181638V61.1054ZM-0.000181638 51.5507H97V46.7734H-0.000181638V51.5507ZM-0.000181638 41.996H97V37.2187H-0.000181638V41.996ZM-0.000181638 32.4413H97V27.664H-0.000181638V32.4413ZM-0.000181638 22.8867H97V18.1093H-0.000181638V22.8867ZM-0.000181638 13.332H97V8.55467H-0.000181638V13.332ZM-0.000181638 3.77734H97V-1H-0.000181638V3.77734Z" fill="#B22234"/>
<path d="M47.1992 -1H-0.00085476V32.4414H47.1992V-1Z" fill="#3C3B6E"/>
<path d="M4.63048 26.7178L3.54698 30.0524L6.38281 27.9914H2.8772L5.71399 30.0524L4.63048 26.7178Z" fill="white"/>
<path d="M4.63048 20.2676L3.54698 23.6022L6.38281 21.5412H2.8772L5.71303 23.6022L4.63048 20.2676Z" fill="white"/>
<path d="M4.63048 13.8164L3.54698 17.151L6.38281 15.09H2.8772L5.71303 17.151L4.63048 13.8164Z" fill="white"/>
<path d="M4.63048 7.36523L3.54698 10.6998L6.38281 8.63887H2.8772L5.71303 10.6998L4.63048 7.36523Z" fill="white"/>
<path d="M4.63048 0.914551L3.54698 4.24913L6.38281 2.18819H2.8772L5.71303 4.24913L4.63048 0.914551Z" fill="white"/>
<path d="M12.2169 26.7178L11.1334 30.0524L13.9692 27.9914H10.4636L13.3004 30.0524L12.2169 26.7178Z" fill="white"/>
<path d="M12.2169 20.2676L11.1334 23.6022L13.9692 21.5412H10.4636L13.2995 23.6022L12.2169 20.2676Z" fill="white"/>
<path d="M12.2169 13.8164L11.1334 17.151L13.9692 15.09H10.4636L13.2995 17.151L12.2169 13.8164Z" fill="white"/>
<path d="M12.2169 7.36523L11.1334 10.6998L13.9692 8.63887H10.4636L13.2995 10.6998L12.2169 7.36523Z" fill="white"/>
<path d="M12.2169 0.914551L11.1334 4.24913L13.9692 2.18819H10.4636L13.2995 4.24913L12.2169 0.914551Z" fill="white"/>
<path d="M19.8058 26.7178L18.7223 30.0524L21.5581 27.9914H18.0525L20.8893 30.0524L19.8058 26.7178Z" fill="white"/>
<path d="M19.8058 20.2676L18.7223 23.6022L21.5581 21.5412H18.0525L20.8883 23.6022L19.8058 20.2676Z" fill="white"/>
<path d="M19.8058 13.8164L18.7223 17.151L21.5581 15.09H18.0525L20.8883 17.151L19.8058 13.8164Z" fill="white"/>
<path d="M19.8058 7.36523L18.7223 10.6998L21.5581 8.63887H18.0525L20.8883 10.6998L19.8058 7.36523Z" fill="white"/>
<path d="M19.8058 0.914551L18.7223 4.24913L21.5581 2.18819H18.0525L20.8883 4.24913L19.8058 0.914551Z" fill="white"/>
<path d="M27.3932 26.7178L26.3097 30.0524L29.1455 27.9914H25.6399L28.4757 30.0524L27.3932 26.7178Z" fill="white"/>
<path d="M27.3932 20.2676L26.3097 23.6022L29.1455 21.5412H25.6399L28.4757 23.6022L27.3932 20.2676Z" fill="white"/>
<path d="M27.3932 13.8164L26.3097 17.151L29.1455 15.09H25.6399L28.4757 17.151L27.3932 13.8164Z" fill="white"/>
<path d="M27.3932 7.36523L26.3097 10.6998L29.1455 8.63887H25.6399L28.4757 10.6998L27.3932 7.36523Z" fill="white"/>
<path d="M27.3932 0.914551L26.3097 4.24913L29.1455 2.18819H25.6399L28.4757 4.24913L27.3932 0.914551Z" fill="white"/>
<path d="M34.9806 26.7178L33.8971 30.0524L36.7329 27.9914H33.2273L36.0641 30.0524L34.9806 26.7178Z" fill="white"/>
<path d="M34.9806 20.2676L33.8971 23.6022L36.7329 21.5412H33.2273L36.0631 23.6022L34.9806 20.2676Z" fill="white"/>
<path d="M34.9806 13.8164L33.8971 17.151L36.7329 15.09H33.2273L36.0631 17.151L34.9806 13.8164Z" fill="white"/>
<path d="M34.9806 7.36523L33.8971 10.6998L36.7329 8.63887H33.2273L36.0631 10.6998L34.9806 7.36523Z" fill="white"/>
<path d="M34.9806 0.914551L33.8971 4.24913L36.7329 2.18819H33.2273L36.0631 4.24913L34.9806 0.914551Z" fill="white"/>
<path d="M42.5685 26.7178L41.485 30.0524L44.3208 27.9914H40.8152L43.652 30.0524L42.5685 26.7178Z" fill="white"/>
<path d="M42.5685 20.2676L41.485 23.6022L44.3208 21.5412H40.8152L43.651 23.6022L42.5685 20.2676Z" fill="white"/>
<path d="M42.5685 13.8164L41.485 17.151L44.3208 15.09H40.8152L43.651 17.151L42.5685 13.8164Z" fill="white"/>
<path d="M42.5685 7.36523L41.485 10.6998L44.3208 8.63887H40.8152L43.651 10.6998L42.5685 7.36523Z" fill="white"/>
<path d="M42.5685 0.914551L41.485 4.24913L44.3208 2.18819H40.8152L43.651 4.24913L42.5685 0.914551Z" fill="white"/>
</g>
</svg>
