<svg width="492" height="267" viewBox="0 0 492 267" fill="none" xmlns="http://www.w3.org/2000/svg">
<path d="M481.759 267H10.241C4.58599 267 0 260.606 0 252.72V89H492V252.72C492 260.606 487.414 267 481.759 267Z" fill="url(#paint0_radial)"/>
<path d="M0 8.74423V89H206.719C214.023 89 221.027 91.474 226.192 95.8845L243.877 110.984C245.046 111.982 246.954 111.982 248.123 110.984L265.808 95.8845C270.973 91.474 277.977 89 285.281 89H492V8.74423C492 3.91571 487.414 0 481.759 0H10.241C4.58599 0 0 3.91571 0 8.74423Z" fill="white"/>
<path d="M192.108 57.48H202.028V61H188.428V38.6H201.868V42.12H192.108V47.944H201.068V51.432H192.108V57.48ZM219.764 59.304C218.186 60.712 216.148 61.416 213.652 61.416C211.156 61.416 209.119 60.712 207.54 59.304C205.962 57.8747 205.172 55.9653 205.172 53.576V38.6H208.852V53.352C208.852 54.7173 209.247 55.8053 210.036 56.616C210.847 57.4267 212.052 57.832 213.652 57.832C215.252 57.832 216.447 57.4267 217.236 56.616C218.047 55.8053 218.452 54.7173 218.452 53.352V38.6H222.132V53.576C222.132 55.9653 221.343 57.8747 219.764 59.304ZM239.133 61L234.397 52.84H230.045V61H226.365V38.6H235.325C237.33 38.6 239.026 39.304 240.413 40.712C241.821 42.0987 242.525 43.7947 242.525 45.8C242.525 47.2293 242.109 48.5413 241.277 49.736C240.466 50.9093 239.4 51.7627 238.077 52.296L243.165 61H239.133ZM230.045 42.056V49.544H235.325C236.306 49.544 237.138 49.1813 237.821 48.456C238.504 47.7307 238.845 46.8453 238.845 45.8C238.845 44.7547 238.504 43.8693 237.821 43.144C237.138 42.4187 236.306 42.056 235.325 42.056H230.045ZM260.171 59.304C258.592 60.712 256.555 61.416 254.059 61.416C251.563 61.416 249.525 60.712 247.947 59.304C246.368 57.8747 245.579 55.9653 245.579 53.576V38.6H249.259V53.352C249.259 54.7173 249.653 55.8053 250.443 56.616C251.253 57.4267 252.459 57.832 254.059 57.832C255.659 57.832 256.853 57.4267 257.643 56.616C258.453 55.8053 258.859 54.7173 258.859 53.352V38.6H262.539V53.576C262.539 55.9653 261.749 57.8747 260.171 59.304ZM274.227 61.416C272.073 61.416 270.238 60.9253 268.723 59.944C267.23 58.9627 266.185 57.6187 265.587 55.912L268.755 54.056C269.651 56.5733 271.507 57.832 274.323 57.832C275.71 57.832 276.745 57.5653 277.427 57.032C278.131 56.4773 278.483 55.7627 278.483 54.888C278.483 53.9707 278.11 53.2773 277.363 52.808C276.617 52.3173 275.294 51.784 273.395 51.208C272.329 50.888 271.465 50.5893 270.803 50.312C270.142 50.0347 269.438 49.6507 268.691 49.16C267.966 48.648 267.422 48.0187 267.059 47.272C266.697 46.5253 266.515 45.6507 266.515 44.648C266.515 42.664 267.219 41.096 268.627 39.944C270.035 38.7707 271.731 38.184 273.715 38.184C275.507 38.184 277.075 38.6213 278.419 39.496C279.763 40.3707 280.798 41.576 281.523 43.112L278.419 44.904C277.481 42.8133 275.913 41.768 273.715 41.768C272.649 41.768 271.795 42.024 271.155 42.536C270.515 43.0267 270.195 43.6987 270.195 44.552C270.195 45.384 270.515 46.0453 271.155 46.536C271.817 47.0053 273.001 47.5067 274.707 48.04C275.561 48.3173 276.179 48.5307 276.563 48.68C276.969 48.808 277.523 49.0213 278.227 49.32C278.953 49.6187 279.497 49.9173 279.859 50.216C280.222 50.5147 280.606 50.888 281.011 51.336C281.438 51.784 281.737 52.296 281.907 52.872C282.078 53.448 282.163 54.0987 282.163 54.824C282.163 56.8507 281.427 58.4613 279.955 59.656C278.505 60.8293 276.595 61.416 274.227 61.416ZM293.978 38.6C297.05 38.6 299.599 39.6773 301.626 41.832C303.674 43.9867 304.698 46.6427 304.698 49.8C304.698 52.936 303.674 55.592 301.626 57.768C299.599 59.9227 297.05 61 293.978 61H285.178V38.6H293.978ZM293.978 57.48C296.09 57.48 297.807 56.7547 299.13 55.304C300.474 53.8533 301.146 52.0187 301.146 49.8C301.146 47.56 300.474 45.7253 299.13 44.296C297.807 42.8453 296.09 42.12 293.978 42.12H288.858V57.48H293.978Z" fill="#3721A7"/>
<rect x="285" y="112.224" width="43" height="101" rx="21.5" fill="url(#paint1_radial)"/>
<rect x="365" y="178.224" width="40" height="117" rx="20" transform="rotate(90 365 178.224)" fill="white"/>
<path d="M143.631 136.6H146.831V159H143.151V140.536L138.639 141.816L137.743 138.68L143.631 136.6ZM162.065 158.68C161.596 159.149 161.03 159.384 160.369 159.384C159.708 159.384 159.142 159.149 158.673 158.68C158.204 158.211 157.969 157.645 157.969 156.984C157.969 156.323 158.193 155.757 158.641 155.288C159.11 154.819 159.686 154.584 160.369 154.584C161.03 154.584 161.596 154.819 162.065 155.288C162.534 155.757 162.769 156.323 162.769 156.984C162.769 157.645 162.534 158.211 162.065 158.68ZM192.813 136.6H196.013V159H192.333V140.536L187.821 141.816L186.925 138.68L192.813 136.6ZM237.136 143.832C237.136 145.539 236.688 147.043 235.792 148.344L228.72 159H224.496L229.616 151.48H229.232C226.906 151.48 224.997 150.776 223.504 149.368C222.032 147.939 221.296 146.093 221.296 143.832C221.296 141.571 222.032 139.736 223.504 138.328C224.997 136.899 226.906 136.184 229.232 136.184C231.557 136.184 233.456 136.899 234.928 138.328C236.4 139.736 237.136 141.571 237.136 143.832ZM224.976 143.832C224.976 145.069 225.37 146.072 226.16 146.84C226.97 147.608 227.994 147.992 229.232 147.992C230.469 147.992 231.482 147.619 232.272 146.872C233.061 146.104 233.456 145.091 233.456 143.832C233.456 142.573 233.061 141.571 232.272 140.824C231.482 140.056 230.469 139.672 229.232 139.672C227.994 139.672 226.97 140.056 226.16 140.824C225.37 141.571 224.976 142.573 224.976 143.832ZM268.813 145.048C270.946 145.048 272.749 145.688 274.221 146.968C275.693 148.227 276.429 149.976 276.429 152.216C276.429 154.456 275.672 156.216 274.157 157.496C272.642 158.776 270.786 159.416 268.589 159.416C266.818 159.416 265.25 159.011 263.885 158.2C262.52 157.368 261.549 156.173 260.973 154.616L264.141 152.792C264.738 154.819 266.221 155.832 268.589 155.832C269.848 155.832 270.85 155.512 271.597 154.872C272.365 154.211 272.749 153.325 272.749 152.216C272.749 151.107 272.376 150.232 271.629 149.592C270.882 148.952 269.89 148.632 268.653 148.632H262.125L262.989 136.6H275.469V140.056H266.381L265.997 145.048H268.813ZM350.061 156.248C348.525 158.36 346.37 159.416 343.597 159.416C340.824 159.416 338.658 158.36 337.101 156.248C335.565 154.136 334.797 151.32 334.797 147.8C334.797 144.28 335.565 141.464 337.101 139.352C338.658 137.24 340.824 136.184 343.597 136.184C346.37 136.184 348.525 137.24 350.061 139.352C351.618 141.464 352.397 144.28 352.397 147.8C352.397 151.32 351.618 154.136 350.061 156.248ZM343.597 155.832C345.261 155.832 346.53 155.139 347.405 153.752C348.28 152.365 348.717 150.381 348.717 147.8C348.717 145.219 348.28 143.235 347.405 141.848C346.53 140.461 345.261 139.768 343.597 139.768C341.954 139.768 340.685 140.461 339.789 141.848C338.914 143.235 338.477 145.219 338.477 147.8C338.477 150.381 338.914 152.365 339.789 153.752C340.685 155.139 341.954 155.832 343.597 155.832Z" fill="#3721A7"/>
<path d="M305.835 136.6H309.035V159H305.355V140.536L300.843 141.816L299.947 138.68L305.835 136.6Z" fill="#FF0054"/>
<path d="M293.181 189.808C295.379 189.808 297.256 190.629 298.813 192.272C300.371 193.893 301.149 195.877 301.149 198.224C301.149 200.592 300.371 202.586 298.813 204.208C297.256 205.829 295.379 206.64 293.181 206.64C290.749 206.64 288.883 205.744 287.581 203.952V212.624H284.125V190.224H287.581V192.528C288.883 190.714 290.749 189.808 293.181 189.808ZM289.021 201.904C289.981 202.864 291.187 203.344 292.637 203.344C294.088 203.344 295.293 202.864 296.253 201.904C297.213 200.922 297.693 199.696 297.693 198.224C297.693 196.752 297.213 195.536 296.253 194.576C295.293 193.594 294.088 193.104 292.637 193.104C291.187 193.104 289.981 193.594 289.021 194.576C288.061 195.536 287.581 196.752 287.581 198.224C287.581 199.696 288.061 200.922 289.021 201.904ZM307.546 187.184C307.119 187.61 306.607 187.824 306.01 187.824C305.412 187.824 304.89 187.61 304.442 187.184C304.015 186.736 303.802 186.213 303.802 185.616C303.802 185.018 304.015 184.506 304.442 184.08C304.868 183.632 305.391 183.408 306.01 183.408C306.628 183.408 307.151 183.632 307.578 184.08C308.004 184.506 308.218 185.018 308.218 185.616C308.218 186.213 307.994 186.736 307.546 187.184ZM304.282 206.224V190.224H307.738V206.224H304.282ZM320.806 189.808C323.004 189.808 324.881 190.629 326.438 192.272C327.996 193.893 328.774 195.877 328.774 198.224C328.774 200.592 327.996 202.586 326.438 204.208C324.881 205.829 323.004 206.64 320.806 206.64C318.374 206.64 316.508 205.744 315.206 203.952V212.624H311.75V190.224H315.206V192.528C316.508 190.714 318.374 189.808 320.806 189.808ZM316.646 201.904C317.606 202.864 318.812 203.344 320.262 203.344C321.713 203.344 322.918 202.864 323.878 201.904C324.838 200.922 325.318 199.696 325.318 198.224C325.318 196.752 324.838 195.536 323.878 194.576C322.918 193.594 321.713 193.104 320.262 193.104C318.812 193.104 317.606 193.594 316.646 194.576C315.686 195.536 315.206 196.752 315.206 198.224C315.206 199.696 315.686 200.922 316.646 201.904Z" fill="#FF0054"/>
<defs>
<radialGradient id="paint0_radial" cx="0" cy="0" r="1" gradientUnits="userSpaceOnUse" gradientTransform="translate(245.288 93.5837) scale(255.734 177.007)">
<stop stop-color="#CDD2FF"/>
<stop offset="1" stop-color="#F0F2FF"/>
</radialGradient>
<radialGradient id="paint1_radial" cx="0" cy="0" r="1" gradientUnits="userSpaceOnUse" gradientTransform="translate(311.5 153.105) rotate(90) scale(60.119 683.759)">
<stop stop-color="white"/>
<stop offset="1" stop-color="white" stop-opacity="0"/>
</radialGradient>
</defs>
</svg>
