<svg width="580" height="530" viewBox="0 0 580 530" fill="none" xmlns="http://www.w3.org/2000/svg">
<path d="M136.446 231.357L297.164 137.958L383.132 387.118L222.415 480.517L136.446 231.357Z" fill="url(#paint0_linear)"/>
<path d="M136.446 231.357L222.415 480.517L49 380.395L136.446 231.357Z" fill="url(#paint1_linear)"/>
<path d="M170.897 210.503L268.236 153.943L441.994 254.258L344.655 310.828L170.897 210.503Z" fill="url(#paint2_linear)"/>
<path d="M344.655 310.829L441.993 254.258L354.547 403.307L257.208 459.866L344.655 310.829Z" fill="url(#paint3_linear)"/>
<path d="M170.898 210.503L344.656 310.828L257.21 459.866L170.898 210.503Z" fill="url(#paint4_linear)"/>
<path d="M285.495 45.0958L357.932 3L444.275 252.449L371.839 294.544L285.495 45.0958Z" fill="url(#paint5_linear)"/>
<path d="M285.496 45.0962L371.839 294.545L198.049 194.209L285.496 45.0962Z" fill="url(#paint6_linear)"/>
<path d="M409.994 271.645L443.942 251.914L530.296 501.287L496.337 521.018L409.994 271.645Z" fill="url(#paint7_linear)"/>
<path d="M409.993 271.645L496.337 521.018L322.922 420.896L409.993 271.645Z" fill="url(#paint8_linear)"/>
<path d="M285.495 45.0962C285.495 45.0962 334.55 208.64 371.839 294.545L285.495 45.0962Z" fill="url(#paint9_radial)"/>
<path d="M136.446 234.024C136.446 234.024 185.5 397.568 222.789 483.473L136.446 234.024Z" fill="url(#paint10_radial)"/>
<path d="M413.836 278.507C413.836 278.507 462.891 442.051 500.18 527.956L413.836 278.507Z" fill="url(#paint11_radial)"/>
<g opacity="0.75">
<path opacity="0.75" d="M245.894 174.756C246.857 175.313 247.703 175.944 248.41 176.651C249.127 177.357 249.716 178.117 250.198 178.931C250.679 179.745 251.043 180.612 251.3 181.522C251.557 182.432 251.707 183.374 251.761 184.348C251.814 185.494 251.814 186.597 251.761 187.678C251.707 188.588 251.557 189.359 251.3 189.98C251.043 190.601 250.679 191.04 250.208 191.307C249.737 191.575 249.148 191.65 248.453 191.543C247.757 191.436 246.932 191.104 245.99 190.558L241.044 187.71C240.905 187.624 240.776 187.496 240.669 187.314C240.562 187.132 240.509 186.961 240.509 186.8V172.261C240.509 172.101 240.562 171.983 240.669 171.929C240.776 171.876 240.894 171.887 241.044 171.962L245.894 174.756ZM249.106 182.817C249.084 182.325 248.999 181.832 248.859 181.34C248.72 180.848 248.517 180.376 248.249 179.905C247.982 179.434 247.65 179.006 247.243 178.599C246.836 178.192 246.354 177.828 245.787 177.497L243.164 175.976V186.104L245.894 187.678C246.429 187.988 246.89 188.17 247.286 188.224C247.682 188.277 248.003 188.235 248.271 188.085C248.528 187.935 248.731 187.689 248.87 187.346C249.009 187.003 249.095 186.607 249.116 186.136C249.159 185.076 249.159 183.963 249.106 182.817Z" fill="black"/>
<path opacity="0.75" d="M256.268 180.516C256.407 180.602 256.535 180.73 256.643 180.912C256.75 181.094 256.803 181.266 256.803 181.426V183.182C256.803 183.343 256.75 183.46 256.643 183.514C256.535 183.578 256.418 183.557 256.268 183.482L254.576 182.508C254.437 182.422 254.309 182.294 254.202 182.112C254.095 181.93 254.041 181.758 254.041 181.598V179.842C254.041 179.681 254.095 179.564 254.202 179.499C254.309 179.446 254.426 179.456 254.576 179.531L256.268 180.516ZM256.696 196.136C256.696 196.297 256.643 196.415 256.536 196.468C256.428 196.532 256.311 196.511 256.161 196.436L254.673 195.58C254.533 195.494 254.405 195.365 254.298 195.183C254.191 195.001 254.137 194.83 254.137 194.67V184.188C254.137 184.028 254.191 183.91 254.298 183.857C254.405 183.792 254.523 183.814 254.673 183.889L256.161 184.745C256.3 184.831 256.428 184.959 256.536 185.141C256.643 185.323 256.696 185.495 256.696 185.655V196.136Z" fill="black"/>
<path opacity="0.75" d="M264.949 198.159C264.949 197.999 264.906 197.827 264.809 197.677C264.713 197.517 264.552 197.324 264.328 197.11C264.103 196.885 263.792 196.618 263.418 196.318C263.043 196.007 262.55 195.611 261.962 195.119C261.384 194.637 260.912 194.177 260.527 193.727C260.152 193.288 259.842 192.849 259.617 192.41C259.392 191.982 259.232 191.543 259.135 191.104C259.05 190.665 258.996 190.226 258.996 189.776C258.996 189.327 259.082 188.941 259.274 188.61C259.456 188.278 259.724 188.042 260.067 187.914C260.409 187.774 260.838 187.742 261.33 187.828C261.822 187.903 262.401 188.128 263.032 188.492C263.675 188.866 264.242 189.273 264.745 189.734C265.248 190.194 265.677 190.654 266.03 191.125C266.383 191.597 266.662 192.068 266.854 192.539C267.047 193.01 267.165 193.427 267.186 193.802C267.197 193.973 267.154 194.091 267.036 194.145C266.918 194.198 266.801 194.187 266.651 194.102L265.141 193.235C264.949 193.117 264.799 192.999 264.702 192.86C264.606 192.721 264.499 192.56 264.381 192.389C264.263 192.217 264.103 192.035 263.91 191.832C263.717 191.639 263.418 191.425 263.032 191.2C262.647 190.976 262.294 190.847 261.994 190.804C261.694 190.761 261.544 190.922 261.544 191.265C261.544 191.425 261.576 191.586 261.651 191.746C261.726 191.907 261.865 192.078 262.058 192.292C262.251 192.507 262.54 192.753 262.904 193.063C263.268 193.374 263.728 193.759 264.306 194.219C265.473 195.172 266.287 196.093 266.769 196.982C267.25 197.87 267.486 198.759 267.486 199.658C267.486 200.108 267.39 200.493 267.197 200.804C267.004 201.114 266.715 201.339 266.34 201.457C265.966 201.574 265.505 201.585 264.97 201.478C264.424 201.371 263.814 201.114 263.139 200.718C262.443 200.322 261.833 199.872 261.309 199.38C260.773 198.887 260.334 198.384 259.97 197.87C259.606 197.356 259.328 196.864 259.125 196.371C258.932 195.879 258.825 195.451 258.814 195.087C258.803 194.915 258.846 194.798 258.964 194.744C259.071 194.691 259.199 194.701 259.349 194.787L260.859 195.654C261.052 195.772 261.202 195.9 261.298 196.061C261.394 196.221 261.512 196.403 261.63 196.618C261.748 196.832 261.93 197.046 262.154 197.281C262.379 197.517 262.711 197.763 263.15 198.02C263.343 198.138 263.546 198.234 263.76 198.331C263.964 198.416 264.167 198.48 264.338 198.513C264.52 198.545 264.66 198.545 264.777 198.502C264.895 198.427 264.949 198.32 264.949 198.159Z" fill="black"/>
<path opacity="0.75" d="M271.663 198.748C271.631 198.962 271.62 199.208 271.62 199.508C271.62 199.807 271.631 200.075 271.663 200.321C271.706 200.814 271.792 201.264 271.942 201.67C272.091 202.077 272.263 202.452 272.477 202.784C272.691 203.116 272.927 203.405 273.194 203.651C273.451 203.897 273.719 204.101 273.997 204.261C274.318 204.454 274.597 204.582 274.821 204.647C275.046 204.711 275.228 204.732 275.389 204.722C275.549 204.7 275.678 204.647 275.796 204.572C275.913 204.497 276.01 204.39 276.117 204.272C276.192 204.186 276.288 204.101 276.395 204.026C276.502 203.951 276.62 203.951 276.77 204.036L278.258 204.893C278.397 204.978 278.526 205.107 278.643 205.289C278.751 205.471 278.804 205.642 278.793 205.803C278.783 206.113 278.686 206.434 278.504 206.777C278.322 207.12 278.033 207.387 277.648 207.58C277.262 207.773 276.77 207.837 276.17 207.773C275.571 207.708 274.854 207.441 274.019 206.959C273.301 206.542 272.648 206.028 272.081 205.417C271.503 204.807 271.01 204.143 270.582 203.426C270.154 202.709 269.822 201.97 269.586 201.21C269.34 200.45 269.201 199.711 269.147 198.983C269.126 198.694 269.104 198.394 269.104 198.062C269.104 197.731 269.115 197.431 269.147 197.163C269.19 196.499 269.329 195.921 269.576 195.429C269.822 194.947 270.154 194.583 270.571 194.358C270.989 194.123 271.492 194.037 272.07 194.101C272.648 194.155 273.301 194.401 274.019 194.808C274.854 195.29 275.571 195.846 276.17 196.478C276.77 197.11 277.262 197.741 277.648 198.384C278.033 199.015 278.312 199.615 278.504 200.171C278.686 200.728 278.783 201.167 278.793 201.488C278.804 201.66 278.761 201.777 278.643 201.831C278.536 201.884 278.408 201.874 278.258 201.788L276.77 200.932C276.631 200.846 276.502 200.707 276.395 200.514C276.288 200.321 276.203 200.129 276.117 199.947C276.01 199.7 275.903 199.486 275.796 199.272C275.689 199.058 275.549 198.865 275.389 198.662C275.228 198.459 275.046 198.266 274.821 198.073C274.597 197.88 274.329 197.698 273.997 197.506C273.719 197.345 273.451 197.238 273.194 197.185C272.927 197.131 272.691 197.142 272.477 197.217C272.263 197.292 272.081 197.452 271.942 197.709C271.802 197.966 271.695 198.298 271.663 198.748Z" fill="black"/>
<path opacity="0.75" d="M283.033 195.975C283.172 196.061 283.3 196.189 283.407 196.371C283.514 196.553 283.568 196.725 283.568 196.885V198.641C283.568 198.801 283.514 198.919 283.407 198.983C283.3 199.037 283.182 199.026 283.033 198.951L281.341 197.977C281.202 197.891 281.073 197.763 280.966 197.581C280.859 197.399 280.806 197.228 280.806 197.067V195.311C280.806 195.151 280.859 195.033 280.966 194.979C281.073 194.915 281.191 194.937 281.341 195.012L283.033 195.975ZM283.461 211.595C283.461 211.756 283.407 211.873 283.3 211.927C283.193 211.991 283.075 211.97 282.925 211.895L281.437 211.038C281.298 210.953 281.17 210.824 281.063 210.642C280.956 210.46 280.902 210.289 280.902 210.128V199.647C280.902 199.487 280.956 199.369 281.063 199.315C281.17 199.251 281.287 199.273 281.437 199.347L282.925 200.204C283.065 200.29 283.193 200.418 283.3 200.6C283.407 200.782 283.461 200.953 283.461 201.114V211.595Z" fill="black"/>
<path opacity="0.75" d="M291.683 217.162C291.276 216.927 290.912 216.67 290.591 216.402C290.27 216.124 289.991 215.856 289.745 215.578C289.499 215.299 289.296 215.042 289.124 214.785C288.953 214.529 288.814 214.304 288.717 214.111V218.907C288.717 219.068 288.664 219.186 288.557 219.239C288.45 219.303 288.332 219.282 288.182 219.207L286.694 218.351C286.555 218.265 286.426 218.136 286.319 217.954C286.212 217.772 286.159 217.601 286.159 217.441V202.666C286.159 202.506 286.212 202.388 286.319 202.334C286.426 202.27 286.544 202.292 286.694 202.367L288.182 203.223C288.321 203.309 288.45 203.437 288.557 203.619C288.664 203.801 288.717 203.972 288.717 204.133V204.647C288.824 204.572 288.964 204.508 289.124 204.443C289.296 204.39 289.499 204.358 289.745 204.358C289.991 204.358 290.27 204.411 290.591 204.508C290.912 204.604 291.276 204.765 291.683 205C292.336 205.375 292.925 205.867 293.46 206.467C293.995 207.066 294.445 207.72 294.809 208.415C295.184 209.122 295.473 209.85 295.687 210.61C295.901 211.37 296.019 212.109 296.051 212.816C296.062 213.051 296.072 213.319 296.072 213.618C296.072 213.918 296.062 214.175 296.051 214.389C296.03 215.064 295.901 215.663 295.687 216.167C295.473 216.68 295.173 217.077 294.809 217.344C294.434 217.612 293.985 217.751 293.46 217.73C292.925 217.74 292.336 217.548 291.683 217.162ZM293.503 212.773C293.546 212.377 293.546 211.959 293.503 211.509C293.428 210.492 293.16 209.636 292.721 208.951C292.272 208.266 291.736 207.741 291.094 207.366C290.452 206.992 289.916 206.906 289.478 207.088C289.039 207.27 288.792 207.752 288.717 208.522C288.696 208.737 288.675 209.015 288.675 209.358C288.675 209.7 288.685 209.989 288.717 210.235C288.782 211.049 289.039 211.809 289.478 212.516C289.916 213.222 290.452 213.758 291.094 214.122C291.736 214.486 292.282 214.593 292.721 214.421C293.16 214.25 293.428 213.704 293.503 212.773Z" fill="black"/>
<path opacity="0.75" d="M300.858 221.638C300.858 221.798 300.805 221.916 300.697 221.98C300.59 222.044 300.473 222.023 300.323 221.948L298.835 221.092C298.695 221.006 298.567 220.877 298.46 220.695C298.353 220.513 298.299 220.342 298.299 220.182V205.418C298.299 205.258 298.353 205.14 298.46 205.086C298.567 205.022 298.685 205.033 298.835 205.118L300.323 205.975C300.462 206.06 300.59 206.189 300.697 206.371C300.805 206.553 300.858 206.724 300.858 206.885V221.638Z" fill="black"/>
<path opacity="0.75" d="M305.687 209.047C305.826 209.133 305.954 209.261 306.062 209.443C306.169 209.625 306.222 209.796 306.222 209.957V211.713C306.222 211.873 306.169 211.991 306.062 212.055C305.954 212.119 305.837 212.098 305.687 212.023L303.995 211.049C303.856 210.963 303.728 210.835 303.621 210.653C303.514 210.471 303.46 210.299 303.46 210.139V208.383C303.46 208.223 303.514 208.105 303.621 208.051C303.728 207.987 303.845 208.008 303.995 208.083L305.687 209.047ZM306.115 224.667C306.115 224.827 306.062 224.945 305.954 225.009C305.847 225.063 305.73 225.052 305.58 224.977L304.092 224.121C303.952 224.035 303.824 223.907 303.717 223.725C303.61 223.543 303.556 223.371 303.556 223.211V212.73C303.556 212.569 303.61 212.451 303.717 212.398C303.824 212.334 303.942 212.355 304.092 212.43L305.58 213.286C305.719 213.372 305.847 213.501 305.954 213.683C306.062 213.865 306.115 214.036 306.115 214.196V224.667Z" fill="black"/>
<path opacity="0.75" d="M318.393 231.754C318.393 231.915 318.339 232.032 318.232 232.086C318.125 232.15 318.007 232.129 317.858 232.054L316.369 231.197C316.23 231.112 316.102 230.983 315.995 230.801C315.888 230.619 315.834 230.448 315.834 230.287V224.57C315.834 223.671 315.652 222.847 315.288 222.097C314.924 221.348 314.357 220.748 313.597 220.309C312.901 219.913 312.355 219.86 311.959 220.17C311.562 220.481 311.359 221.08 311.359 221.99V227.707C311.359 227.868 311.305 227.986 311.198 228.05C311.091 228.103 310.974 228.093 310.824 228.018L309.336 227.161C309.196 227.076 309.068 226.947 308.961 226.765C308.854 226.583 308.8 226.412 308.8 226.251V215.77C308.8 215.61 308.854 215.492 308.961 215.438C309.068 215.385 309.186 215.395 309.336 215.47L310.824 216.327C310.963 216.412 311.091 216.541 311.198 216.723C311.305 216.905 311.359 217.076 311.359 217.237V217.751C311.702 217.558 312.098 217.462 312.558 217.472C313.018 217.483 313.554 217.665 314.185 218.029C314.978 218.489 315.652 219.014 316.187 219.614C316.723 220.202 317.151 220.834 317.483 221.509C317.815 222.183 318.04 222.868 318.179 223.585C318.318 224.303 318.382 225.009 318.382 225.716V231.754H318.393Z" fill="black"/>
<path opacity="0.75" d="M320.48 227.719C320.48 226.884 320.588 226.156 320.812 225.535C321.037 224.924 321.358 224.464 321.776 224.154C322.193 223.843 322.697 223.704 323.296 223.736C323.896 223.768 324.559 223.993 325.287 224.41C326.015 224.828 326.679 225.374 327.279 226.016C327.878 226.669 328.381 227.376 328.799 228.125C329.217 228.875 329.538 229.678 329.773 230.513C329.998 231.348 330.116 232.14 330.116 232.9V233.917C330.116 234.078 330.062 234.196 329.955 234.249C329.848 234.313 329.73 234.292 329.581 234.217L323.028 230.438C323.028 230.78 323.093 231.123 323.21 231.455C323.339 231.787 323.5 232.108 323.714 232.408C323.928 232.708 324.163 232.986 324.442 233.232C324.72 233.478 324.998 233.693 325.287 233.853C325.705 234.099 326.048 234.239 326.304 234.292C326.561 234.346 326.786 234.346 326.947 234.292C327.086 234.26 327.204 234.239 327.3 234.249C327.397 234.26 327.514 234.303 327.675 234.399L329.249 235.309C329.388 235.395 329.516 235.523 329.634 235.716C329.741 235.898 329.795 236.069 329.784 236.23C329.773 236.433 329.666 236.647 329.484 236.861C329.291 237.086 329.013 237.236 328.628 237.333C328.253 237.429 327.782 237.429 327.225 237.333C326.669 237.236 326.026 236.979 325.298 236.551C324.57 236.123 323.906 235.598 323.307 234.967C322.707 234.335 322.204 233.618 321.787 232.836C321.369 232.054 321.048 231.23 320.823 230.352C320.598 229.506 320.48 228.629 320.48 227.719ZM325.287 227.119C324.913 226.894 324.581 226.776 324.313 226.744C324.046 226.712 323.821 226.755 323.639 226.851C323.457 226.948 323.318 227.098 323.221 227.28C323.125 227.472 323.061 227.676 323.039 227.879L327.471 230.438C327.45 230.202 327.397 229.935 327.322 229.646C327.247 229.357 327.129 229.068 326.968 228.768C326.808 228.468 326.594 228.179 326.326 227.901C326.048 227.622 325.705 227.365 325.287 227.119Z" fill="black"/>
</g>
<g opacity="0.75">
<path opacity="0.75" d="M213.015 256.614C213.797 257.064 214.482 257.577 215.071 258.166C215.67 258.744 216.163 259.333 216.559 259.922C216.955 260.511 217.255 261.078 217.458 261.635C217.661 262.192 217.779 262.663 217.801 263.07C217.811 263.241 217.769 263.337 217.672 263.38C217.576 263.423 217.458 263.412 217.33 263.337L216.109 262.631C215.906 262.513 215.766 262.384 215.659 262.245C215.563 262.106 215.467 261.935 215.392 261.742C215.22 261.303 214.953 260.864 214.6 260.415C214.246 259.965 213.722 259.537 213.015 259.13C212.715 258.959 212.426 258.83 212.148 258.744C211.87 258.659 211.634 258.627 211.431 258.648C211.227 258.67 211.067 258.744 210.949 258.884C210.831 259.012 210.778 259.205 210.778 259.462C210.778 259.772 210.831 260.051 210.938 260.308C211.045 260.564 211.238 260.843 211.495 261.132C211.762 261.421 212.105 261.753 212.533 262.128C212.962 262.502 213.497 262.952 214.139 263.476C214.835 264.055 215.445 264.601 215.949 265.136C216.452 265.661 216.869 266.185 217.19 266.699C217.512 267.213 217.747 267.727 217.908 268.241C218.068 268.765 218.143 269.29 218.143 269.847C218.143 270.446 218.025 270.939 217.79 271.324C217.554 271.709 217.223 271.956 216.794 272.073C216.366 272.191 215.831 272.18 215.199 272.031C214.567 271.881 213.861 271.581 213.09 271.131C212.437 270.757 211.816 270.307 211.216 269.782C210.617 269.258 210.092 268.69 209.632 268.091C209.172 267.491 208.797 266.86 208.519 266.217C208.24 265.575 208.08 264.954 208.048 264.344C208.037 264.172 208.08 264.076 208.176 264.033C208.272 263.99 208.39 264.001 208.519 264.076L209.739 264.783C209.932 264.9 210.092 265.029 210.189 265.168C210.296 265.307 210.381 265.478 210.456 265.682C210.542 265.907 210.638 266.132 210.756 266.378C210.874 266.624 211.024 266.86 211.227 267.117C211.42 267.363 211.677 267.62 211.966 267.877C212.266 268.134 212.63 268.391 213.079 268.647C213.433 268.851 213.764 269.011 214.096 269.14C214.428 269.268 214.707 269.333 214.953 269.333C215.199 269.333 215.392 269.279 215.542 269.151C215.692 269.033 215.767 268.819 215.767 268.508C215.767 268.219 215.681 267.93 215.52 267.641C215.36 267.352 215.113 267.052 214.782 266.731C214.45 266.41 214.043 266.046 213.55 265.639C213.058 265.232 212.49 264.761 211.859 264.204C211.281 263.712 210.767 263.22 210.328 262.748C209.889 262.277 209.525 261.796 209.247 261.314C208.968 260.832 208.754 260.329 208.604 259.815C208.454 259.301 208.39 258.744 208.39 258.145C208.39 257.545 208.508 257.053 208.743 256.678C208.979 256.303 209.3 256.057 209.707 255.929C210.114 255.8 210.596 255.8 211.163 255.918C211.752 255.993 212.362 256.239 213.015 256.614Z" fill="black"/>
<path opacity="0.75" d="M219.899 264.943C219.899 264.793 219.942 264.697 220.038 264.643C220.134 264.59 220.242 264.6 220.37 264.675L221.698 265.446C221.826 265.521 221.933 265.639 222.029 265.8C222.126 265.96 222.169 266.11 222.169 266.26V271.356C222.169 272.159 222.318 272.887 222.618 273.54C222.918 274.193 223.4 274.718 224.074 275.103C224.695 275.456 225.166 275.488 225.487 275.199C225.809 274.91 225.98 274.354 225.98 273.561V268.465C225.98 268.315 226.023 268.219 226.119 268.166C226.215 268.112 226.322 268.123 226.451 268.198L227.779 268.969C227.907 269.043 228.014 269.161 228.11 269.322C228.207 269.482 228.25 269.632 228.25 269.782V279.128C228.25 279.278 228.207 279.375 228.11 279.428C228.014 279.482 227.907 279.471 227.779 279.396L226.451 278.625C226.322 278.55 226.215 278.433 226.119 278.272C226.023 278.111 225.98 277.962 225.98 277.812V277.351C225.712 277.501 225.38 277.587 224.984 277.608C224.588 277.63 224.106 277.48 223.55 277.148C222.843 276.741 222.254 276.27 221.783 275.745C221.312 275.221 220.948 274.664 220.67 274.075C220.391 273.486 220.188 272.876 220.081 272.234C219.974 271.591 219.91 270.971 219.91 270.339V264.943H219.899Z" fill="black"/>
<path opacity="0.75" d="M232.488 276.184C232.467 276.366 232.456 276.602 232.456 276.869C232.456 277.137 232.467 277.372 232.488 277.587C232.52 278.025 232.606 278.422 232.735 278.786C232.863 279.15 233.024 279.481 233.216 279.771C233.409 280.06 233.623 280.317 233.859 280.541C234.094 280.766 234.33 280.948 234.576 281.087C234.865 281.259 235.111 281.366 235.315 281.43C235.507 281.494 235.679 281.516 235.818 281.494C235.957 281.473 236.075 281.43 236.171 281.366C236.268 281.291 236.364 281.205 236.46 281.098C236.535 281.023 236.61 280.948 236.706 280.873C236.803 280.798 236.91 280.809 237.038 280.884L238.366 281.655C238.494 281.73 238.612 281.847 238.708 282.008C238.805 282.169 238.848 282.319 238.837 282.468C238.826 282.747 238.741 283.036 238.58 283.336C238.419 283.646 238.162 283.882 237.82 284.053C237.477 284.224 237.038 284.278 236.503 284.224C235.968 284.171 235.325 283.924 234.587 283.496C233.944 283.122 233.366 282.672 232.852 282.126C232.338 281.58 231.9 280.991 231.514 280.349C231.129 279.706 230.84 279.053 230.625 278.368C230.411 277.694 230.283 277.03 230.229 276.387C230.208 276.131 230.197 275.863 230.197 275.563C230.197 275.274 230.208 274.996 230.229 274.76C230.262 274.171 230.39 273.647 230.615 273.218C230.84 272.78 231.129 272.469 231.503 272.255C231.878 272.052 232.317 271.977 232.842 272.019C233.356 272.073 233.944 272.287 234.576 272.651C235.325 273.079 235.957 273.582 236.492 274.139C237.028 274.707 237.467 275.263 237.809 275.831C238.152 276.398 238.409 276.923 238.569 277.426C238.73 277.918 238.816 278.315 238.826 278.604C238.837 278.753 238.794 278.861 238.698 278.914C238.601 278.968 238.484 278.957 238.355 278.882L237.028 278.111C236.899 278.036 236.792 277.918 236.696 277.736C236.599 277.565 236.524 277.394 236.45 277.233C236.353 277.019 236.257 276.816 236.16 276.634C236.064 276.452 235.946 276.27 235.807 276.088C235.668 275.906 235.497 275.734 235.304 275.563C235.101 275.392 234.865 275.231 234.565 275.06C234.319 274.921 234.084 274.824 233.848 274.782C233.612 274.739 233.398 274.749 233.206 274.814C233.013 274.878 232.852 275.028 232.724 275.253C232.606 275.488 232.531 275.799 232.488 276.184Z" fill="black"/>
<path opacity="0.75" d="M242.573 282.009C242.552 282.191 242.541 282.426 242.541 282.694C242.541 282.962 242.552 283.197 242.573 283.411C242.605 283.85 242.691 284.246 242.82 284.61C242.948 284.974 243.109 285.306 243.301 285.595C243.494 285.884 243.708 286.141 243.944 286.366C244.179 286.591 244.415 286.773 244.661 286.912C244.95 287.083 245.196 287.19 245.4 287.255C245.603 287.319 245.764 287.34 245.903 287.319C246.042 287.297 246.16 287.255 246.256 287.19C246.353 287.116 246.449 287.03 246.545 286.923C246.62 286.848 246.695 286.773 246.791 286.698C246.888 286.634 246.995 286.634 247.123 286.709L248.451 287.479C248.579 287.554 248.697 287.672 248.793 287.833C248.89 287.993 248.933 288.143 248.922 288.293C248.911 288.572 248.826 288.861 248.665 289.16C248.504 289.471 248.247 289.706 247.905 289.878C247.562 290.049 247.123 290.102 246.588 290.049C246.053 289.995 245.41 289.749 244.672 289.321C244.029 288.946 243.451 288.497 242.937 287.951C242.423 287.405 241.984 286.816 241.599 286.173C241.214 285.531 240.925 284.878 240.71 284.193C240.496 283.518 240.368 282.855 240.314 282.212C240.293 281.955 240.282 281.688 240.282 281.388C240.282 281.099 240.293 280.82 240.314 280.585C240.346 279.996 240.475 279.471 240.7 279.043C240.925 278.604 241.214 278.294 241.588 278.08C241.963 277.876 242.402 277.801 242.927 277.844C243.44 277.898 244.029 278.112 244.661 278.476C245.41 278.904 246.042 279.407 246.577 279.964C247.113 280.531 247.552 281.088 247.894 281.655C248.237 282.223 248.494 282.747 248.654 283.251C248.815 283.743 248.901 284.139 248.911 284.428C248.922 284.578 248.879 284.685 248.783 284.739C248.686 284.792 248.569 284.782 248.44 284.707L247.113 283.936C246.984 283.861 246.877 283.743 246.781 283.561C246.684 283.39 246.609 283.219 246.534 283.058C246.438 282.844 246.342 282.64 246.245 282.458C246.149 282.276 246.031 282.094 245.892 281.912C245.753 281.73 245.582 281.559 245.389 281.388C245.196 281.217 244.95 281.056 244.65 280.885C244.404 280.745 244.168 280.649 243.933 280.606C243.697 280.563 243.483 280.574 243.291 280.638C243.098 280.703 242.937 280.852 242.809 281.077C242.691 281.313 242.616 281.613 242.573 282.009Z" fill="black"/>
<path opacity="0.75" d="M250.367 287.211C250.367 286.462 250.464 285.82 250.667 285.263C250.87 284.717 251.149 284.31 251.523 284.032C251.898 283.764 252.348 283.636 252.872 283.657C253.408 283.678 253.997 283.882 254.65 284.257C255.303 284.631 255.891 285.113 256.427 285.691C256.962 286.269 257.412 286.901 257.776 287.575C258.14 288.25 258.439 288.957 258.643 289.695C258.846 290.434 258.953 291.141 258.953 291.826V292.725C258.953 292.875 258.911 292.971 258.814 293.025C258.718 293.078 258.611 293.068 258.482 292.993L252.648 289.62C252.648 289.931 252.701 290.231 252.819 290.53C252.926 290.83 253.076 291.108 253.269 291.376C253.451 291.644 253.675 291.89 253.911 292.115C254.157 292.34 254.403 292.522 254.66 292.672C255.035 292.886 255.335 293.014 255.57 293.068C255.806 293.11 255.999 293.121 256.148 293.068C256.277 293.036 256.384 293.025 256.459 293.025C256.534 293.025 256.652 293.078 256.791 293.153L258.193 293.956C258.322 294.031 258.439 294.149 258.536 294.31C258.632 294.47 258.675 294.631 258.664 294.77C258.654 294.952 258.568 295.134 258.397 295.337C258.225 295.53 257.979 295.68 257.637 295.766C257.294 295.851 256.876 295.851 256.384 295.766C255.891 295.68 255.313 295.455 254.66 295.07C254.007 294.695 253.418 294.224 252.883 293.656C252.348 293.089 251.898 292.457 251.534 291.761C251.159 291.066 250.87 290.327 250.678 289.556C250.464 288.807 250.367 288.014 250.367 287.211ZM254.65 286.676C254.307 286.483 254.018 286.366 253.782 286.344C253.547 286.323 253.343 286.355 253.183 286.441C253.022 286.526 252.894 286.655 252.808 286.826C252.722 286.997 252.669 287.179 252.637 287.361L256.587 289.642C256.566 289.428 256.523 289.192 256.459 288.935C256.395 288.678 256.288 288.421 256.148 288.154C255.999 287.886 255.806 287.629 255.57 287.383C255.335 287.126 255.024 286.89 254.65 286.676Z" fill="black"/>
<path opacity="0.75" d="M265.805 298.345C265.805 298.195 265.763 298.056 265.688 297.917C265.602 297.778 265.463 297.607 265.259 297.414C265.056 297.221 264.788 296.975 264.446 296.707C264.103 296.44 263.675 296.076 263.15 295.637C262.636 295.208 262.208 294.791 261.876 294.395C261.544 293.999 261.266 293.613 261.063 293.228C260.859 292.842 260.72 292.457 260.634 292.072C260.549 291.686 260.517 291.29 260.517 290.883C260.517 290.476 260.602 290.134 260.763 289.845C260.923 289.556 261.159 289.342 261.469 289.224C261.78 289.095 262.155 289.074 262.594 289.138C263.033 289.202 263.546 289.406 264.114 289.738C264.681 290.07 265.195 290.434 265.645 290.84C266.094 291.247 266.48 291.665 266.79 292.082C267.101 292.5 267.347 292.928 267.529 293.335C267.711 293.742 267.797 294.127 267.829 294.459C267.839 294.609 267.797 294.716 267.7 294.769C267.604 294.823 267.486 294.802 267.358 294.727L266.009 293.945C265.837 293.849 265.698 293.731 265.613 293.602C265.527 293.474 265.431 293.335 265.324 293.185C265.217 293.035 265.077 292.864 264.906 292.692C264.735 292.521 264.467 292.328 264.125 292.125C263.771 291.922 263.461 291.804 263.193 291.772C262.925 291.74 262.786 291.879 262.786 292.179C262.786 292.328 262.818 292.468 262.883 292.607C262.947 292.746 263.065 292.907 263.247 293.089C263.429 293.271 263.675 293.506 263.996 293.774C264.317 294.041 264.735 294.395 265.249 294.802C266.287 295.658 267.015 296.472 267.443 297.264C267.872 298.056 268.086 298.848 268.086 299.651C268.086 300.058 268 300.39 267.818 300.668C267.636 300.947 267.39 301.139 267.058 301.257C266.726 301.364 266.319 301.375 265.837 301.268C265.356 301.161 264.81 300.947 264.199 300.593C263.579 300.24 263.043 299.844 262.561 299.394C262.09 298.955 261.694 298.506 261.362 298.056C261.041 297.596 260.784 297.157 260.613 296.718C260.442 296.279 260.345 295.904 260.335 295.572C260.324 295.423 260.367 295.315 260.463 295.262C260.559 295.208 260.677 295.219 260.806 295.294L262.155 296.076C262.326 296.172 262.465 296.3 262.551 296.44C262.636 296.589 262.733 296.75 262.851 296.932C262.958 297.114 263.118 297.317 263.311 297.521C263.504 297.724 263.803 297.949 264.199 298.174C264.371 298.27 264.553 298.367 264.745 298.452C264.927 298.538 265.099 298.591 265.259 298.624C265.42 298.656 265.548 298.645 265.655 298.613C265.752 298.591 265.805 298.495 265.805 298.345Z" fill="black"/>
<path opacity="0.75" d="M274.884 303.591C274.884 303.441 274.842 303.302 274.767 303.163C274.681 303.024 274.542 302.853 274.338 302.66C274.135 302.467 273.867 302.221 273.525 301.953C273.182 301.686 272.754 301.322 272.229 300.883C271.715 300.454 271.287 300.037 270.955 299.641C270.623 299.245 270.345 298.859 270.142 298.474C269.938 298.088 269.799 297.703 269.713 297.318C269.628 296.932 269.596 296.536 269.596 296.129C269.596 295.722 269.681 295.38 269.842 295.091C270.003 294.802 270.238 294.588 270.549 294.47C270.859 294.341 271.234 294.32 271.673 294.384C272.112 294.448 272.625 294.652 273.193 294.984C273.76 295.316 274.274 295.68 274.724 296.086C275.173 296.493 275.559 296.911 275.869 297.328C276.18 297.746 276.426 298.174 276.597 298.581C276.769 298.988 276.876 299.373 276.897 299.705C276.908 299.855 276.865 299.962 276.769 300.016C276.672 300.069 276.555 300.048 276.426 299.973L275.077 299.191C274.906 299.095 274.767 298.977 274.681 298.849C274.595 298.72 274.499 298.581 274.392 298.431C274.285 298.281 274.146 298.11 273.974 297.939C273.803 297.767 273.535 297.575 273.193 297.371C272.84 297.168 272.54 297.05 272.261 297.018C271.994 296.986 271.855 297.125 271.855 297.425C271.855 297.575 271.887 297.714 271.951 297.853C272.015 297.992 272.133 298.153 272.315 298.335C272.497 298.517 272.743 298.752 273.064 299.02C273.386 299.288 273.803 299.641 274.317 300.048C275.355 300.904 276.083 301.718 276.512 302.51C276.94 303.302 277.154 304.094 277.154 304.897C277.154 305.304 277.068 305.636 276.886 305.914C276.704 306.193 276.458 306.386 276.126 306.503C275.794 306.61 275.388 306.621 274.906 306.514C274.424 306.418 273.878 306.193 273.268 305.84C272.647 305.486 272.112 305.09 271.63 304.64C271.159 304.202 270.763 303.752 270.431 303.302C270.11 302.842 269.853 302.403 269.681 301.964C269.51 301.525 269.414 301.15 269.403 300.818C269.392 300.669 269.435 300.562 269.531 300.508C269.628 300.454 269.746 300.465 269.874 300.54L271.223 301.322C271.394 301.418 271.533 301.546 271.619 301.686C271.705 301.836 271.801 301.996 271.919 302.178C272.026 302.36 272.187 302.564 272.379 302.767C272.572 302.97 272.872 303.195 273.268 303.42C273.439 303.516 273.621 303.613 273.814 303.698C273.996 303.784 274.167 303.838 274.328 303.87C274.488 303.902 274.617 303.891 274.724 303.859C274.831 303.838 274.884 303.741 274.884 303.591Z" fill="black"/>
<path opacity="0.75" d="M282.11 300.315L284.54 301.718C284.669 301.793 284.776 301.911 284.872 302.071C284.968 302.232 285.011 302.382 285.011 302.532V303.859C285.011 304.009 284.968 304.105 284.872 304.159C284.776 304.212 284.669 304.202 284.54 304.127L282.11 302.724V310.208C282.11 310.358 282.067 310.454 281.971 310.507C281.874 310.561 281.767 310.55 281.639 310.475L280.311 309.705C280.183 309.63 280.076 309.512 279.979 309.351C279.883 309.191 279.84 309.041 279.84 308.891V301.407L278.684 300.744C278.555 300.669 278.448 300.551 278.352 300.39C278.256 300.23 278.213 300.08 278.213 299.93V298.602C278.213 298.453 278.256 298.356 278.352 298.303C278.448 298.249 278.555 298.26 278.684 298.335L279.84 298.999V298.099C279.84 297.457 279.926 296.954 280.086 296.6C280.247 296.247 280.483 296.022 280.782 295.915C281.082 295.808 281.446 295.819 281.874 295.947C282.303 296.076 282.774 296.29 283.298 296.59L284.711 297.403C284.84 297.478 284.947 297.596 285.043 297.757C285.14 297.917 285.182 298.067 285.182 298.217V299.545C285.182 299.694 285.14 299.791 285.043 299.844C284.947 299.898 284.84 299.887 284.711 299.812L283.47 299.095C283.031 298.838 282.688 298.731 282.452 298.784C282.217 298.827 282.099 299.106 282.099 299.62V300.315H282.11Z" fill="black"/>
<path opacity="0.75" d="M286.403 303.345C286.403 303.196 286.446 303.099 286.543 303.046C286.639 302.992 286.746 303.003 286.874 303.078L288.202 303.849C288.33 303.924 288.437 304.041 288.534 304.202C288.63 304.362 288.673 304.512 288.673 304.662V309.758C288.673 310.561 288.823 311.289 289.123 311.942C289.422 312.595 289.904 313.12 290.579 313.505C291.2 313.859 291.671 313.891 291.992 313.602C292.313 313.313 292.484 312.756 292.484 311.964V306.868C292.484 306.718 292.527 306.621 292.623 306.568C292.72 306.514 292.827 306.525 292.955 306.6L294.283 307.371C294.411 307.446 294.518 307.564 294.615 307.724C294.711 307.885 294.754 308.035 294.754 308.185V317.531C294.754 317.681 294.711 317.777 294.615 317.831C294.518 317.884 294.411 317.873 294.283 317.798L292.955 317.028C292.827 316.953 292.72 316.835 292.623 316.674C292.527 316.514 292.484 316.364 292.484 316.214V315.754C292.217 315.904 291.885 315.989 291.489 316.011C291.093 316.032 290.611 315.882 290.054 315.55C289.347 315.143 288.759 314.672 288.288 314.148C287.817 313.623 287.453 313.066 287.174 312.478C286.896 311.889 286.692 311.279 286.585 310.636C286.468 310.005 286.414 309.373 286.414 308.741V303.345H286.403Z" fill="black"/>
<path opacity="0.75" d="M299.444 320.217C299.444 320.367 299.401 320.464 299.305 320.517C299.208 320.571 299.101 320.56 298.973 320.485L297.645 319.714C297.517 319.639 297.41 319.521 297.313 319.361C297.217 319.2 297.174 319.05 297.174 318.901V305.743C297.174 305.593 297.217 305.497 297.313 305.443C297.41 305.39 297.517 305.4 297.645 305.475L298.973 306.246C299.101 306.321 299.208 306.439 299.305 306.599C299.401 306.76 299.444 306.91 299.444 307.06V320.217Z" fill="black"/>
<path opacity="0.75" d="M231.814 291.74C231.942 291.815 232.049 291.932 232.146 292.093C232.242 292.253 232.285 292.403 232.285 292.553V293.977C232.285 294.127 232.242 294.223 232.146 294.277C232.049 294.33 231.942 294.32 231.814 294.245L228.666 292.425V303.409C228.666 303.559 228.623 303.655 228.527 303.709C228.431 303.762 228.324 303.752 228.195 303.677L226.782 302.863C226.654 302.788 226.547 302.67 226.45 302.51C226.354 302.349 226.311 302.199 226.311 302.049V291.065L223.163 289.245C223.035 289.17 222.928 289.052 222.832 288.892C222.735 288.731 222.692 288.581 222.692 288.431V287.008C222.692 286.858 222.735 286.761 222.832 286.708C222.928 286.654 223.035 286.665 223.163 286.74L231.814 291.74Z" fill="black"/>
<path opacity="0.75" d="M236.931 300.712C236.236 300.305 235.732 300.198 235.422 300.369C235.111 300.54 234.962 301.033 234.962 301.836V307.05C234.962 307.199 234.919 307.296 234.822 307.349C234.726 307.403 234.619 307.392 234.49 307.317L233.163 306.546C233.034 306.471 232.927 306.354 232.831 306.193C232.735 306.033 232.692 305.883 232.692 305.733V296.386C232.692 296.237 232.735 296.14 232.831 296.087C232.927 296.033 233.034 296.044 233.163 296.119L234.49 296.89C234.619 296.965 234.726 297.082 234.822 297.243C234.919 297.403 234.962 297.553 234.962 297.703V298.164C235.261 298.014 235.583 297.96 235.936 297.982C236.278 298.003 236.728 298.174 237.295 298.506L238.077 298.956C238.205 299.031 238.313 299.149 238.409 299.309C238.505 299.47 238.548 299.62 238.548 299.77V301.097C238.548 301.247 238.505 301.343 238.409 301.397C238.313 301.45 238.205 301.44 238.077 301.365L236.931 300.712Z" fill="black"/>
<path opacity="0.75" d="M239.853 302.553C239.896 302.296 240.003 302.06 240.175 301.836C240.346 301.611 240.581 301.45 240.892 301.343C241.202 301.236 241.577 301.225 242.027 301.311C242.476 301.386 243.001 301.6 243.59 301.943C244.179 302.285 244.714 302.681 245.196 303.142C245.677 303.602 246.084 304.095 246.427 304.641C246.769 305.187 247.037 305.775 247.219 306.418C247.401 307.06 247.497 307.713 247.497 308.398V314.297C247.497 314.447 247.455 314.544 247.358 314.597C247.262 314.651 247.155 314.64 247.026 314.565L245.699 313.794C245.57 313.719 245.463 313.601 245.367 313.441C245.271 313.28 245.228 313.13 245.228 312.98V312.317C244.982 312.563 244.628 312.691 244.168 312.702C243.708 312.713 243.119 312.509 242.412 312.103C241.909 311.814 241.459 311.482 241.063 311.096C240.667 310.711 240.335 310.304 240.067 309.876C239.8 309.437 239.596 308.987 239.447 308.527C239.297 308.066 239.232 307.606 239.232 307.146C239.232 306.225 239.521 305.668 240.089 305.476C240.656 305.283 241.427 305.369 242.38 305.733L245.228 306.814C245.228 306.268 245.067 305.786 244.757 305.379C244.446 304.972 244.05 304.63 243.59 304.362C243.301 304.191 243.065 304.105 242.905 304.105C242.744 304.105 242.583 304.137 242.433 304.212C242.326 304.255 242.23 304.277 242.144 304.266C242.059 304.255 241.962 304.223 241.855 304.159L240.228 303.217C240.11 303.152 240.014 303.056 239.928 302.928C239.843 302.799 239.821 302.671 239.853 302.553ZM242.765 309.897C243.162 310.122 243.515 310.261 243.825 310.315C244.136 310.368 244.393 310.347 244.607 310.25C244.821 310.154 244.971 310.004 245.078 309.801C245.185 309.597 245.238 309.351 245.238 309.073V308.869L242.862 307.981C242.38 307.799 242.037 307.735 241.834 307.799C241.62 307.863 241.523 308.045 241.523 308.345C241.523 308.623 241.652 308.901 241.898 309.18C242.134 309.458 242.434 309.704 242.765 309.897Z" fill="black"/>
<path opacity="0.75" d="M253.322 307.564C253.686 307.778 254.007 308.003 254.296 308.249C254.585 308.495 254.831 308.741 255.045 308.988C255.259 309.234 255.441 309.469 255.591 309.694C255.741 309.919 255.87 310.123 255.955 310.294V306.022C255.955 305.872 255.998 305.776 256.095 305.722C256.191 305.669 256.298 305.68 256.426 305.755L257.754 306.525C257.882 306.6 257.989 306.718 258.086 306.879C258.182 307.039 258.225 307.189 258.225 307.339V320.497C258.225 320.647 258.182 320.743 258.086 320.796C257.989 320.85 257.882 320.839 257.754 320.764L256.426 319.993C256.298 319.918 256.191 319.801 256.095 319.64C255.998 319.48 255.955 319.33 255.955 319.18V318.719C255.859 318.784 255.741 318.848 255.591 318.901C255.441 318.955 255.259 318.976 255.045 318.976C254.831 318.976 254.574 318.923 254.296 318.848C254.007 318.762 253.686 318.612 253.322 318.409C252.744 318.077 252.208 317.638 251.737 317.103C251.266 316.568 250.859 315.989 250.527 315.368C250.196 314.748 249.939 314.094 249.746 313.409C249.553 312.735 249.446 312.082 249.425 311.45C249.414 311.247 249.403 311.011 249.403 310.744C249.403 310.476 249.414 310.24 249.425 310.048C249.446 309.448 249.553 308.913 249.746 308.463C249.939 308.003 250.196 307.66 250.527 307.414C250.859 307.168 251.266 307.061 251.737 307.071C252.208 307.061 252.744 307.232 253.322 307.564ZM251.694 311.482C251.662 311.836 251.662 312.21 251.694 312.606C251.759 313.516 251.994 314.276 252.39 314.887C252.786 315.497 253.268 315.968 253.846 316.3C254.414 316.632 254.895 316.717 255.292 316.546C255.688 316.386 255.902 315.957 255.966 315.272C255.987 315.09 255.998 314.833 255.998 314.533C255.998 314.234 255.987 313.966 255.966 313.752C255.913 313.024 255.688 312.349 255.292 311.718C254.906 311.097 254.424 310.615 253.846 310.283C253.279 309.951 252.786 309.866 252.39 310.015C252.005 310.165 251.769 310.647 251.694 311.482Z" fill="black"/>
<path opacity="0.75" d="M262.528 309.276C262.657 309.351 262.764 309.469 262.86 309.629C262.957 309.79 263 309.94 263 310.09V311.653C263 311.803 262.957 311.899 262.86 311.953C262.764 312.006 262.657 311.995 262.528 311.92L261.03 311.053C260.901 310.978 260.794 310.861 260.698 310.7C260.601 310.539 260.559 310.389 260.559 310.24V308.676C260.559 308.527 260.601 308.43 260.698 308.377C260.794 308.323 260.901 308.334 261.03 308.409L262.528 309.276ZM262.914 323.194C262.914 323.344 262.871 323.44 262.775 323.494C262.678 323.547 262.571 323.536 262.443 323.461L261.115 322.691C260.987 322.616 260.88 322.498 260.783 322.337C260.687 322.177 260.644 322.027 260.644 321.877V312.531C260.644 312.381 260.687 312.284 260.783 312.231C260.88 312.177 260.987 312.188 261.115 312.263L262.443 313.034C262.571 313.109 262.678 313.227 262.775 313.387C262.871 313.548 262.914 313.698 262.914 313.847V323.194Z" fill="black"/>
<path opacity="0.75" d="M273.856 329.51C273.856 329.66 273.814 329.757 273.717 329.81C273.621 329.864 273.514 329.853 273.385 329.778L272.058 329.007C271.929 328.932 271.822 328.815 271.726 328.654C271.63 328.493 271.587 328.344 271.587 328.194V323.098C271.587 322.295 271.426 321.556 271.094 320.892C270.762 320.218 270.27 319.693 269.595 319.297C268.974 318.944 268.493 318.901 268.139 319.179C267.786 319.458 267.604 319.993 267.604 320.796V325.892C267.604 326.042 267.561 326.138 267.465 326.192C267.369 326.245 267.262 326.234 267.133 326.16L265.806 325.389C265.677 325.314 265.57 325.196 265.474 325.035C265.377 324.875 265.334 324.725 265.334 324.575V315.229C265.334 315.079 265.377 314.982 265.474 314.929C265.57 314.875 265.677 314.886 265.806 314.961L267.133 315.732C267.262 315.807 267.369 315.925 267.465 316.085C267.561 316.246 267.604 316.396 267.604 316.546V317.006C267.904 316.835 268.257 316.749 268.675 316.76C269.082 316.77 269.563 316.931 270.12 317.252C270.827 317.659 271.426 318.13 271.908 318.665C272.39 319.201 272.764 319.757 273.064 320.357C273.353 320.956 273.557 321.567 273.685 322.209C273.814 322.851 273.867 323.483 273.867 324.104V329.51H273.856Z" fill="black"/>
<path opacity="0.75" d="M280.152 335.688C280.398 335.827 280.644 335.934 280.901 335.988C281.158 336.052 281.394 336.041 281.597 335.977C281.811 335.913 281.982 335.774 282.111 335.56C282.239 335.346 282.314 335.046 282.314 334.66V333.922C282.218 333.986 282.1 334.05 281.95 334.104C281.8 334.157 281.618 334.179 281.404 334.179C281.19 334.179 280.933 334.136 280.655 334.05C280.366 333.965 280.045 333.825 279.681 333.611C279.102 333.279 278.567 332.84 278.096 332.305C277.625 331.77 277.218 331.192 276.886 330.571C276.554 329.95 276.298 329.286 276.105 328.612C275.912 327.937 275.805 327.273 275.784 326.652C275.773 326.449 275.762 326.203 275.762 325.935C275.762 325.667 275.762 325.443 275.784 325.239C275.805 324.64 275.912 324.104 276.105 323.655C276.298 323.194 276.554 322.852 276.886 322.606C277.218 322.359 277.625 322.252 278.096 322.263C278.567 322.274 279.092 322.445 279.681 322.788C280.045 322.991 280.366 323.226 280.655 323.473C280.944 323.719 281.19 323.965 281.404 324.211C281.618 324.458 281.8 324.693 281.95 324.918C282.1 325.143 282.218 325.346 282.314 325.518V325.057C282.314 324.907 282.357 324.811 282.453 324.757C282.55 324.704 282.657 324.715 282.785 324.79L284.113 325.56C284.241 325.635 284.348 325.753 284.445 325.914C284.541 326.074 284.584 326.224 284.584 326.374V335.785C284.584 337.401 284.188 338.397 283.406 338.761C282.625 339.125 281.533 338.911 280.152 338.108C279.563 337.765 279.006 337.358 278.503 336.887C278 336.416 277.561 335.924 277.186 335.399C276.811 334.885 276.512 334.371 276.298 333.857C276.073 333.354 275.955 332.883 275.934 332.476C275.923 332.327 275.966 332.219 276.062 332.166C276.158 332.112 276.276 332.123 276.405 332.198L277.593 332.883C277.754 332.98 277.893 333.119 278.01 333.311C278.128 333.504 278.225 333.675 278.31 333.836C278.46 334.147 278.664 334.457 278.931 334.757C279.177 335.057 279.584 335.367 280.152 335.688ZM278.053 326.695C278.021 327.049 278.021 327.423 278.053 327.819C278.128 328.729 278.353 329.489 278.749 330.1C279.145 330.71 279.627 331.181 280.194 331.513C280.762 331.845 281.244 331.93 281.64 331.759C282.025 331.599 282.25 331.17 282.314 330.485C282.336 330.303 282.346 330.046 282.346 329.746C282.346 329.447 282.336 329.179 282.314 328.965C282.261 328.237 282.036 327.562 281.64 326.931C281.254 326.299 280.773 325.828 280.194 325.496C279.627 325.164 279.135 325.079 278.749 325.229C278.353 325.378 278.118 325.871 278.053 326.695Z" fill="black"/>
</g>
<g opacity="0.75">
<path opacity="0.75" d="M110.764 347.517C110.903 347.603 111.031 347.732 111.138 347.914C111.245 348.096 111.299 348.267 111.299 348.427V350.023C111.299 350.183 111.245 350.301 111.138 350.365C111.031 350.429 110.914 350.408 110.764 350.333L107.231 348.299V360.632C107.231 360.793 107.177 360.911 107.07 360.975C106.963 361.028 106.845 361.018 106.695 360.943L105.111 360.022C104.972 359.936 104.843 359.808 104.736 359.626C104.629 359.444 104.576 359.273 104.576 359.112V346.768L101.043 344.734C100.903 344.648 100.775 344.52 100.668 344.338C100.561 344.156 100.507 343.984 100.507 343.824V342.229C100.507 342.068 100.561 341.95 100.668 341.897C100.775 341.843 100.893 341.854 101.043 341.929L110.764 347.517Z" fill="black"/>
<path opacity="0.75" d="M116.511 357.581C115.729 357.131 115.162 357.002 114.819 357.195C114.477 357.388 114.295 357.945 114.295 358.844V364.689C114.295 364.85 114.241 364.968 114.134 365.032C114.027 365.085 113.909 365.075 113.759 365L112.271 364.143C112.132 364.058 112.003 363.929 111.896 363.747C111.789 363.565 111.736 363.394 111.736 363.233V352.752C111.736 352.592 111.789 352.474 111.896 352.41C112.003 352.345 112.121 352.367 112.271 352.442L113.759 353.298C113.898 353.384 114.027 353.512 114.134 353.694C114.241 353.876 114.295 354.048 114.295 354.208V354.722C114.637 354.562 115.001 354.487 115.387 354.519C115.772 354.551 116.275 354.744 116.907 355.108L117.785 355.621C117.924 355.707 118.052 355.836 118.159 356.018C118.266 356.2 118.32 356.371 118.32 356.531V358.02C118.32 358.18 118.266 358.298 118.159 358.351C118.052 358.405 117.935 358.394 117.785 358.319L116.511 357.581Z" fill="black"/>
<path opacity="0.75" d="M119.777 359.658C119.831 359.369 119.949 359.101 120.141 358.855C120.334 358.609 120.602 358.427 120.944 358.309C121.287 358.191 121.715 358.181 122.218 358.266C122.722 358.352 123.31 358.587 123.974 358.973C124.638 359.358 125.237 359.808 125.783 360.322C126.319 360.836 126.779 361.392 127.165 362.013C127.55 362.623 127.85 363.287 128.053 364.005C128.267 364.722 128.364 365.461 128.364 366.221V372.837C128.364 372.998 128.31 373.115 128.203 373.18C128.096 373.233 127.978 373.222 127.828 373.147L126.34 372.291C126.201 372.205 126.073 372.077 125.965 371.895C125.858 371.713 125.805 371.542 125.805 371.381V370.642C125.527 370.921 125.13 371.06 124.617 371.07C124.103 371.081 123.439 370.856 122.647 370.396C122.09 370.075 121.576 369.7 121.137 369.261C120.687 368.833 120.323 368.373 120.024 367.88C119.724 367.388 119.488 366.884 119.328 366.36C119.167 365.835 119.082 365.321 119.082 364.808C119.082 363.769 119.403 363.148 120.045 362.934C120.687 362.72 121.544 362.816 122.615 363.223L125.816 364.443C125.816 363.833 125.634 363.287 125.28 362.838C124.927 362.388 124.488 362.003 123.963 361.692C123.642 361.499 123.385 361.414 123.203 361.403C123.021 361.392 122.85 361.446 122.679 361.521C122.561 361.574 122.454 361.596 122.358 361.585C122.261 361.574 122.154 361.531 122.036 361.467L120.216 360.418C120.088 360.343 119.97 360.236 119.884 360.086C119.788 359.926 119.756 359.786 119.777 359.658ZM123.053 367.891C123.492 368.148 123.889 368.308 124.242 368.362C124.584 368.415 124.873 368.394 125.109 368.287C125.345 368.18 125.516 368.019 125.644 367.784C125.762 367.548 125.826 367.281 125.826 366.959V366.735L123.161 365.739C122.625 365.536 122.24 365.461 122.004 365.535C121.769 365.61 121.651 365.803 121.651 366.156C121.651 366.467 121.79 366.788 122.069 367.099C122.347 367.409 122.679 367.677 123.053 367.891Z" fill="black"/>
<path opacity="0.75" d="M134.894 365.279C135.301 365.514 135.665 365.771 135.986 366.039C136.308 366.317 136.586 366.585 136.832 366.863C137.078 367.142 137.282 367.399 137.453 367.656C137.624 367.913 137.764 368.137 137.86 368.33V363.534C137.86 363.373 137.913 363.255 138.02 363.202C138.128 363.148 138.245 363.159 138.395 363.234L139.883 364.09C140.022 364.176 140.151 364.305 140.258 364.487C140.365 364.669 140.419 364.84 140.419 365.001V379.764C140.419 379.925 140.365 380.042 140.258 380.107C140.151 380.16 140.033 380.149 139.883 380.074L138.395 379.218C138.256 379.132 138.128 379.004 138.02 378.822C137.913 378.64 137.86 378.469 137.86 378.308V377.794C137.753 377.869 137.614 377.933 137.453 377.998C137.282 378.062 137.078 378.083 136.832 378.083C136.586 378.083 136.308 378.03 135.986 377.933C135.665 377.837 135.301 377.676 134.894 377.441C134.241 377.066 133.652 376.574 133.117 375.974C132.593 375.375 132.132 374.722 131.768 374.026C131.393 373.319 131.104 372.591 130.89 371.831C130.676 371.071 130.548 370.332 130.526 369.625C130.516 369.39 130.505 369.122 130.505 368.823C130.505 368.523 130.516 368.266 130.526 368.041C130.548 367.367 130.676 366.778 130.89 366.264C131.104 365.75 131.404 365.354 131.768 365.086C132.143 364.818 132.593 364.679 133.117 364.701C133.652 364.701 134.241 364.904 134.894 365.279ZM133.074 369.668C133.031 370.064 133.031 370.482 133.074 370.932C133.149 371.949 133.417 372.805 133.856 373.49C134.295 374.175 134.841 374.7 135.483 375.075C136.126 375.439 136.661 375.535 137.1 375.353C137.539 375.171 137.785 374.689 137.86 373.919C137.881 373.704 137.903 373.426 137.903 373.083C137.903 372.741 137.892 372.452 137.86 372.206C137.796 371.392 137.539 370.632 137.1 369.925C136.661 369.219 136.126 368.683 135.483 368.319C134.841 367.945 134.295 367.848 133.856 368.02C133.417 368.191 133.149 368.737 133.074 369.668Z" fill="black"/>
<path opacity="0.75" d="M145.225 367.195C145.364 367.28 145.493 367.409 145.6 367.591C145.707 367.773 145.76 367.944 145.76 368.105V369.861C145.76 370.021 145.707 370.139 145.6 370.192C145.493 370.257 145.375 370.235 145.225 370.16L143.544 369.186C143.405 369.1 143.276 368.972 143.169 368.79C143.062 368.608 143.009 368.437 143.009 368.276V366.52C143.009 366.36 143.062 366.242 143.169 366.188C143.276 366.124 143.394 366.146 143.544 366.221L145.225 367.195ZM145.664 382.815C145.664 382.975 145.61 383.093 145.503 383.157C145.396 383.222 145.278 383.2 145.129 383.125L143.64 382.269C143.501 382.183 143.373 382.055 143.266 381.873C143.159 381.691 143.105 381.519 143.105 381.359V370.878C143.105 370.717 143.159 370.599 143.266 370.535C143.373 370.482 143.491 370.492 143.64 370.567L145.129 371.424C145.268 371.509 145.396 371.638 145.503 371.82C145.61 372.002 145.664 372.173 145.664 372.334V382.815Z" fill="black"/>
<path opacity="0.75" d="M157.933 389.892C157.933 390.052 157.88 390.17 157.773 390.224C157.666 390.288 157.548 390.266 157.398 390.192L155.91 389.335C155.771 389.249 155.642 389.121 155.535 388.939C155.428 388.757 155.375 388.586 155.375 388.425V382.708C155.375 381.809 155.193 380.984 154.829 380.235C154.465 379.486 153.897 378.886 153.137 378.447C152.441 378.051 151.895 377.997 151.499 378.308C151.103 378.618 150.9 379.218 150.9 380.128V385.845C150.9 386.006 150.846 386.123 150.739 386.177C150.632 386.241 150.514 386.22 150.364 386.145L148.876 385.288C148.737 385.203 148.608 385.074 148.501 384.892C148.394 384.71 148.341 384.539 148.341 384.378V373.897C148.341 373.736 148.394 373.619 148.501 373.565C148.608 373.512 148.726 373.522 148.876 373.597L150.364 374.454C150.503 374.539 150.632 374.668 150.739 374.85C150.846 375.032 150.9 375.203 150.9 375.364V375.878C151.242 375.685 151.638 375.589 152.099 375.599C152.559 375.61 153.094 375.792 153.726 376.156C154.518 376.616 155.193 377.141 155.728 377.741C156.263 378.329 156.691 378.972 157.023 379.635C157.345 380.299 157.58 380.995 157.719 381.712C157.858 382.43 157.923 383.136 157.923 383.843V389.892H157.933Z" fill="black"/>
<path opacity="0.75" d="M164.998 396.829C165.277 396.99 165.555 397.097 165.844 397.172C166.133 397.236 166.39 397.236 166.626 397.161C166.861 397.086 167.054 396.936 167.204 396.701C167.354 396.465 167.429 396.133 167.429 395.694V394.859C167.322 394.934 167.182 394.998 167.022 395.063C166.851 395.127 166.647 395.148 166.401 395.148C166.155 395.148 165.876 395.095 165.555 394.998C165.234 394.902 164.87 394.741 164.463 394.506C163.81 394.131 163.221 393.639 162.686 393.039C162.161 392.44 161.701 391.787 161.337 391.091C160.962 390.384 160.673 389.656 160.459 388.896C160.245 388.136 160.117 387.397 160.095 386.691C160.084 386.455 160.074 386.198 160.074 385.888C160.074 385.588 160.084 385.331 160.095 385.117C160.117 384.442 160.245 383.854 160.459 383.34C160.673 382.826 160.973 382.43 161.337 382.162C161.712 381.894 162.161 381.755 162.686 381.777C163.221 381.787 163.81 381.98 164.463 382.365C164.87 382.601 165.234 382.858 165.555 383.126C165.876 383.404 166.155 383.672 166.401 383.95C166.647 384.228 166.851 384.485 167.022 384.742C167.193 384.999 167.332 385.224 167.429 385.417V384.903C167.429 384.742 167.482 384.624 167.589 384.56C167.696 384.507 167.814 384.517 167.964 384.592L169.452 385.449C169.591 385.534 169.72 385.663 169.827 385.845C169.934 386.027 169.987 386.198 169.987 386.359V396.915C169.987 398.724 169.548 399.848 168.66 400.255C167.782 400.662 166.562 400.426 164.998 399.527C164.335 399.142 163.714 398.681 163.146 398.157C162.579 397.632 162.086 397.075 161.669 396.497C161.251 395.919 160.919 395.341 160.673 394.774C160.427 394.206 160.288 393.682 160.266 393.221C160.256 393.05 160.299 392.932 160.416 392.879C160.534 392.825 160.652 392.836 160.802 392.921L162.14 393.692C162.322 393.799 162.483 393.96 162.611 394.174C162.74 394.388 162.857 394.581 162.943 394.763C163.114 395.116 163.35 395.459 163.639 395.791C163.906 396.123 164.367 396.465 164.998 396.829ZM162.643 386.744C162.6 387.14 162.6 387.558 162.643 388.007C162.718 389.025 162.986 389.881 163.425 390.566C163.874 391.251 164.41 391.776 165.052 392.151C165.694 392.515 166.23 392.611 166.669 392.429C167.108 392.247 167.354 391.765 167.429 390.994C167.45 390.78 167.472 390.502 167.472 390.159C167.472 389.817 167.461 389.528 167.429 389.281C167.364 388.468 167.108 387.708 166.669 387.001C166.23 386.294 165.694 385.759 165.052 385.395C164.41 385.02 163.864 384.924 163.425 385.095C162.975 385.256 162.718 385.813 162.643 386.744Z" fill="black"/>
<path opacity="0.75" d="M100.196 368.19C101.074 368.693 101.844 369.272 102.508 369.925C103.172 370.578 103.729 371.241 104.178 371.905C104.628 372.569 104.96 373.211 105.185 373.822C105.409 374.443 105.538 374.978 105.57 375.428C105.581 375.62 105.538 375.738 105.42 375.781C105.313 375.824 105.185 375.813 105.035 375.727L103.664 374.935C103.44 374.807 103.279 374.667 103.161 374.496C103.054 374.336 102.947 374.143 102.861 373.929C102.669 373.436 102.369 372.944 101.973 372.441C101.577 371.937 100.977 371.456 100.196 370.995C99.8531 370.803 99.5319 370.653 99.2214 370.556C98.911 370.46 98.6433 370.428 98.4185 370.449C98.1937 370.471 98.0117 370.567 97.8832 370.717C97.7547 370.867 97.6905 371.081 97.6905 371.37C97.6905 371.713 97.7547 372.034 97.8725 372.323C98.0009 372.612 98.2044 372.922 98.5041 373.243C98.8039 373.575 99.1893 373.939 99.6711 374.357C100.153 374.774 100.752 375.278 101.47 375.866C102.251 376.52 102.926 377.13 103.504 377.729C104.071 378.318 104.532 378.907 104.896 379.474C105.249 380.052 105.527 380.631 105.699 381.209C105.881 381.787 105.966 382.386 105.966 383.007C105.966 383.682 105.838 384.228 105.57 384.656C105.302 385.084 104.938 385.363 104.457 385.491C103.975 385.62 103.375 385.609 102.669 385.438C101.962 385.266 101.17 384.934 100.292 384.431C99.564 384.014 98.8574 383.5 98.1937 382.911C97.5299 382.322 96.9411 381.69 96.4165 381.005C95.9026 380.32 95.4851 379.624 95.1746 378.907C94.8641 378.19 94.6821 377.483 94.6393 376.798C94.6286 376.605 94.6714 376.487 94.7892 376.445C94.8962 376.402 95.0247 376.412 95.1746 376.498L96.5449 377.29C96.7698 377.419 96.9411 377.558 97.0588 377.719C97.1766 377.879 97.2729 378.072 97.3479 378.297C97.4442 378.543 97.5513 378.8 97.6798 379.078C97.8082 379.346 97.9902 379.624 98.2044 379.903C98.4292 380.181 98.7075 380.459 99.0394 380.748C99.3713 381.037 99.7888 381.326 100.281 381.616C100.677 381.84 101.052 382.022 101.416 382.172C101.78 382.322 102.101 382.386 102.38 382.386C102.658 382.386 102.872 382.322 103.043 382.183C103.215 382.044 103.3 381.808 103.3 381.466C103.3 381.134 103.215 380.813 103.022 380.502C102.829 380.192 102.562 379.849 102.187 379.485C101.812 379.121 101.352 378.714 100.806 378.254C100.26 377.804 99.6175 377.269 98.9002 376.637C98.2472 376.081 97.6691 375.535 97.1873 375.01C96.6948 374.475 96.288 373.939 95.9668 373.393C95.6456 372.847 95.4101 372.291 95.2495 371.713C95.0889 371.134 95.014 370.503 95.014 369.828C95.014 369.154 95.1425 368.608 95.4101 368.19C95.6778 367.773 96.0311 367.494 96.4914 367.345C96.9518 367.205 97.4978 367.205 98.1294 367.334C98.7825 367.494 99.457 367.773 100.196 368.19Z" fill="black"/>
<path opacity="0.75" d="M111.448 386.434C111.448 386.894 111.555 387.333 111.769 387.73C111.983 388.136 112.39 388.5 112.979 388.843L114.178 389.528C114.317 389.614 114.445 389.742 114.552 389.924C114.659 390.106 114.713 390.278 114.713 390.438V391.926C114.713 392.087 114.659 392.205 114.552 392.258C114.445 392.322 114.327 392.301 114.178 392.226L112.722 391.391C111.49 390.684 110.548 389.796 109.885 388.736C109.221 387.676 108.9 386.434 108.9 385.021V380.182L107.604 379.432C107.465 379.347 107.336 379.218 107.229 379.036C107.122 378.854 107.069 378.683 107.069 378.522V377.034C107.069 376.874 107.122 376.756 107.229 376.702C107.336 376.638 107.454 376.66 107.604 376.735L108.9 377.484V373.812C108.9 373.651 108.953 373.533 109.06 373.48C109.167 373.416 109.285 373.437 109.435 373.512L110.923 374.369C111.062 374.454 111.191 374.583 111.298 374.765C111.405 374.947 111.458 375.118 111.458 375.279V378.951L113.985 380.407C114.124 380.492 114.253 380.621 114.36 380.803C114.467 380.985 114.52 381.156 114.52 381.317V382.805C114.52 382.965 114.467 383.083 114.36 383.137C114.253 383.201 114.135 383.18 113.985 383.105L111.458 381.649V386.434H111.448Z" fill="black"/>
<path opacity="0.75" d="M121.383 387.397C120.601 386.947 120.034 386.819 119.691 387.011C119.349 387.204 119.167 387.761 119.167 388.66V394.506C119.167 394.666 119.113 394.784 119.006 394.837C118.899 394.902 118.781 394.88 118.631 394.805L117.143 393.949C117.004 393.863 116.876 393.735 116.768 393.553C116.661 393.371 116.608 393.199 116.608 393.039V382.558C116.608 382.397 116.661 382.279 116.768 382.226C116.876 382.172 116.993 382.183 117.143 382.258L118.631 383.114C118.771 383.2 118.899 383.329 119.006 383.511C119.113 383.693 119.167 383.864 119.167 384.024V384.538C119.509 384.378 119.873 384.303 120.259 384.335C120.644 384.367 121.147 384.56 121.779 384.924L122.667 385.438C122.807 385.523 122.935 385.652 123.042 385.834C123.149 386.016 123.203 386.187 123.203 386.348V387.836C123.203 387.996 123.149 388.114 123.042 388.168C122.935 388.232 122.817 388.21 122.667 388.136L121.383 387.397Z" fill="black"/>
<path opacity="0.75" d="M124.658 389.474C124.711 389.185 124.829 388.918 125.022 388.671C125.215 388.425 125.482 388.232 125.825 388.125C126.167 388.008 126.596 387.997 127.099 388.083C127.602 388.168 128.191 388.404 128.855 388.789C129.518 389.175 130.118 389.624 130.664 390.138C131.199 390.652 131.659 391.209 132.045 391.819C132.43 392.429 132.73 393.093 132.934 393.81C133.148 394.528 133.244 395.266 133.244 396.026V402.643C133.244 402.803 133.19 402.921 133.083 402.985C132.976 403.049 132.859 403.028 132.709 402.953L131.221 402.097C131.071 402.011 130.953 401.883 130.846 401.701C130.739 401.519 130.685 401.347 130.685 401.187V400.448C130.407 400.726 130.011 400.865 129.497 400.876C128.983 400.887 128.319 400.662 127.527 400.202C126.97 399.881 126.467 399.495 126.017 399.067C125.568 398.639 125.204 398.178 124.904 397.686C124.604 397.193 124.369 396.69 124.208 396.166C124.048 395.641 123.962 395.127 123.962 394.613C123.962 393.575 124.283 392.954 124.925 392.74C125.568 392.526 126.424 392.622 127.495 393.029L130.696 394.249C130.696 393.639 130.514 393.093 130.171 392.643C129.818 392.183 129.379 391.808 128.855 391.498C128.523 391.305 128.276 391.219 128.094 391.219C127.912 391.219 127.73 391.262 127.559 391.337C127.441 391.391 127.334 391.412 127.238 391.401C127.142 391.391 127.035 391.348 126.917 391.284L125.097 390.234C124.968 390.16 124.851 390.052 124.765 389.903C124.669 389.742 124.636 389.603 124.658 389.474ZM127.934 397.707C128.383 397.964 128.769 398.125 129.122 398.178C129.465 398.232 129.754 398.21 129.989 398.103C130.225 397.996 130.396 397.836 130.514 397.6C130.632 397.365 130.696 397.097 130.696 396.776V396.551L128.03 395.555C127.495 395.352 127.109 395.277 126.874 395.352C126.638 395.427 126.521 395.62 126.521 395.973C126.521 396.283 126.66 396.604 126.938 396.915C127.227 397.225 127.559 397.493 127.934 397.707Z" fill="black"/>
<path opacity="0.75" d="M139.208 402.461C139.208 402.921 139.315 403.36 139.529 403.756C139.743 404.152 140.15 404.527 140.739 404.869L141.938 405.565C142.077 405.651 142.206 405.779 142.313 405.961C142.42 406.143 142.473 406.315 142.473 406.475V407.963C142.473 408.124 142.42 408.242 142.313 408.306C142.206 408.359 142.088 408.349 141.938 408.274L140.482 407.439C139.251 406.732 138.309 405.844 137.645 404.784C136.981 403.724 136.66 402.482 136.66 401.069V396.23L135.364 395.48C135.225 395.395 135.097 395.266 134.99 395.084C134.883 394.902 134.829 394.731 134.829 394.57V393.082C134.829 392.921 134.883 392.804 134.99 392.74C135.097 392.675 135.215 392.697 135.364 392.772L136.66 393.521V389.849C136.66 389.688 136.713 389.571 136.82 389.506C136.927 389.442 137.045 389.463 137.195 389.538L138.683 390.395C138.822 390.481 138.951 390.609 139.058 390.791C139.165 390.973 139.219 391.144 139.219 391.305V394.977L141.745 396.433C141.884 396.519 142.013 396.647 142.12 396.829C142.227 397.011 142.28 397.182 142.28 397.343V398.831C142.28 398.992 142.227 399.11 142.12 399.174C142.013 399.227 141.895 399.217 141.745 399.142L139.219 397.686V402.461H139.208Z" fill="black"/>
<path opacity="0.75" d="M143.877 403.541C143.877 402.706 143.984 401.978 144.209 401.357C144.434 400.747 144.755 400.286 145.172 399.976C145.59 399.665 146.093 399.537 146.693 399.558C147.281 399.591 147.945 399.815 148.684 400.233C149.412 400.65 150.076 401.196 150.675 401.839C151.264 402.492 151.778 403.198 152.195 403.948C152.613 404.697 152.934 405.5 153.17 406.335C153.395 407.16 153.512 407.963 153.512 408.723V409.74C153.512 409.9 153.459 410.018 153.352 410.072C153.245 410.136 153.127 410.115 152.977 410.04L146.425 406.271C146.425 406.614 146.489 406.956 146.607 407.288C146.735 407.62 146.896 407.941 147.11 408.241C147.324 408.541 147.56 408.819 147.838 409.065C148.117 409.312 148.395 409.526 148.684 409.686C149.101 409.922 149.444 410.072 149.701 410.125C149.958 410.179 150.172 410.179 150.343 410.125C150.483 410.093 150.6 410.072 150.697 410.082C150.782 410.093 150.911 410.136 151.071 410.232L152.645 411.142C152.784 411.228 152.913 411.356 153.031 411.549C153.138 411.731 153.191 411.902 153.18 412.063C153.17 412.266 153.063 412.481 152.881 412.695C152.688 412.919 152.41 413.069 152.024 413.166C151.649 413.262 151.178 413.262 150.622 413.166C150.065 413.069 149.423 412.812 148.695 412.384C147.967 411.967 147.303 411.431 146.703 410.8C146.104 410.168 145.601 409.451 145.183 408.669C144.766 407.888 144.444 407.063 144.22 406.196C143.995 405.318 143.877 404.44 143.877 403.541ZM148.684 402.931C148.309 402.706 147.977 402.588 147.71 402.567C147.442 402.535 147.217 402.578 147.035 402.674C146.853 402.77 146.714 402.909 146.618 403.102C146.521 403.295 146.457 403.498 146.436 403.702L150.868 406.26C150.847 406.025 150.793 405.757 150.718 405.468C150.643 405.179 150.525 404.89 150.365 404.59C150.204 404.29 149.99 404.001 149.712 403.723C149.444 403.434 149.101 403.177 148.684 402.931Z" fill="black"/>
<path opacity="0.75" d="M160.095 421.003C160.374 421.164 160.652 421.271 160.941 421.346C161.23 421.41 161.487 421.41 161.722 421.335C161.958 421.26 162.151 421.11 162.301 420.875C162.45 420.639 162.525 420.308 162.525 419.869V419.034C162.418 419.108 162.279 419.173 162.119 419.237C161.947 419.301 161.744 419.323 161.498 419.323C161.251 419.323 160.973 419.269 160.652 419.173C160.331 419.076 159.967 418.916 159.56 418.68C158.907 418.306 158.318 417.813 157.783 417.214C157.258 416.614 156.798 415.961 156.434 415.265C156.059 414.558 155.77 413.83 155.556 413.07C155.342 412.31 155.224 411.571 155.192 410.865C155.181 410.629 155.17 410.362 155.17 410.062C155.17 409.762 155.181 409.505 155.192 409.28C155.213 408.606 155.342 408.017 155.556 407.503C155.77 406.989 156.07 406.593 156.434 406.326C156.808 406.058 157.258 405.919 157.783 405.94C158.318 405.951 158.907 406.144 159.56 406.529C159.967 406.765 160.331 407.021 160.652 407.289C160.973 407.567 161.251 407.835 161.498 408.113C161.744 408.392 161.947 408.649 162.119 408.906C162.29 409.163 162.429 409.387 162.525 409.58V409.066C162.525 408.906 162.579 408.788 162.686 408.724C162.793 408.659 162.911 408.681 163.061 408.756L164.549 409.612C164.688 409.698 164.816 409.826 164.924 410.008C165.031 410.19 165.084 410.362 165.084 410.522V421.078C165.084 422.888 164.645 424.012 163.757 424.419C162.879 424.836 161.658 424.59 160.095 423.691C159.431 423.305 158.81 422.845 158.243 422.32C157.676 421.785 157.183 421.239 156.766 420.661C156.348 420.083 156.016 419.505 155.77 418.937C155.524 418.37 155.385 417.845 155.352 417.385C155.342 417.214 155.385 417.096 155.502 417.042C155.609 416.989 155.738 416.999 155.888 417.085L157.226 417.856C157.408 417.963 157.569 418.124 157.697 418.338C157.825 418.552 157.943 418.755 158.029 418.926C158.2 419.28 158.436 419.622 158.725 419.954C159.003 420.286 159.463 420.639 160.095 421.003ZM157.74 410.908C157.697 411.304 157.697 411.721 157.74 412.171C157.815 413.188 158.082 414.045 158.521 414.73C158.971 415.415 159.506 415.939 160.149 416.314C160.791 416.678 161.326 416.775 161.765 416.593C162.204 416.411 162.45 415.929 162.525 415.158C162.547 414.944 162.568 414.666 162.568 414.323C162.568 413.98 162.558 413.691 162.525 413.445C162.461 412.631 162.204 411.871 161.765 411.165C161.326 410.458 160.791 409.923 160.149 409.559C159.506 409.184 158.96 409.088 158.521 409.259C158.082 409.43 157.815 409.976 157.74 410.908Z" fill="black"/>
<path opacity="0.75" d="M170.875 424.343L166.989 411.796C166.978 411.742 166.968 411.689 166.968 411.624C166.968 411.464 167.021 411.346 167.128 411.292C167.235 411.228 167.353 411.25 167.503 411.325L168.97 412.17C169.13 412.256 169.27 412.395 169.377 412.588C169.494 412.781 169.569 412.941 169.612 413.08L172.224 421.538L174.837 416.089C174.879 415.992 174.954 415.917 175.072 415.864C175.19 415.81 175.329 415.832 175.479 415.917L176.946 416.763C177.085 416.849 177.213 416.977 177.32 417.159C177.427 417.341 177.481 417.513 177.481 417.673C177.481 417.737 177.47 417.78 177.46 417.823L171.946 429.311C171.903 429.407 171.828 429.482 171.711 429.535C171.593 429.589 171.454 429.567 171.304 429.482L169.837 428.636C169.698 428.55 169.569 428.422 169.462 428.24C169.355 428.058 169.302 427.887 169.302 427.726C169.302 427.662 169.312 427.619 169.323 427.576L170.875 424.343Z" fill="black"/>
</g>
<g opacity="0.75">
<path opacity="0.75" d="M398.762 409.044C400.218 409.89 401.331 410.918 402.092 412.127C402.852 413.337 403.226 414.633 403.226 416.014C403.226 416.988 403.034 417.716 402.638 418.176C402.241 418.637 401.674 418.819 400.914 418.722L403.323 425.071C403.355 425.167 403.376 425.253 403.376 425.317C403.376 425.435 403.333 425.521 403.258 425.563C403.184 425.606 403.098 425.595 402.991 425.542L401.503 424.685C401.267 424.546 401.096 424.386 400.989 424.193C400.882 424 400.796 423.84 400.753 423.7L398.462 417.694L396.139 416.356V421.035C396.139 421.185 396.096 421.281 396 421.334C395.903 421.388 395.796 421.377 395.668 421.302L394.255 420.489C394.126 420.414 394.019 420.296 393.923 420.135C393.827 419.975 393.784 419.825 393.784 419.675V406.699C393.784 406.55 393.827 406.453 393.923 406.4C394.019 406.346 394.126 406.357 394.255 406.432L398.762 409.044ZM396.139 413.862L398.676 415.328C399.34 415.714 399.875 415.885 400.271 415.842C400.668 415.8 400.871 415.414 400.871 414.654C400.871 413.905 400.678 413.284 400.271 412.802C399.875 412.32 399.34 411.881 398.676 411.496L396.139 410.029V413.862Z" fill="black"/>
<path opacity="0.75" d="M407.231 413.733C407.36 413.808 407.467 413.926 407.563 414.086C407.659 414.247 407.702 414.397 407.702 414.547V416.11C407.702 416.26 407.659 416.356 407.563 416.41C407.467 416.463 407.36 416.452 407.231 416.377L405.722 415.51C405.593 415.435 405.486 415.318 405.39 415.157C405.293 414.996 405.25 414.846 405.25 414.697V413.134C405.25 412.984 405.293 412.887 405.39 412.834C405.486 412.78 405.593 412.791 405.722 412.866L407.231 413.733ZM407.616 427.672C407.616 427.822 407.574 427.918 407.477 427.972C407.381 428.026 407.274 428.015 407.145 427.94L405.818 427.169C405.689 427.094 405.582 426.976 405.486 426.816C405.39 426.655 405.347 426.505 405.347 426.355V416.998C405.347 416.848 405.39 416.752 405.486 416.699C405.582 416.645 405.689 416.656 405.818 416.731L407.145 417.502C407.274 417.577 407.381 417.694 407.477 417.855C407.574 418.015 407.616 418.165 407.616 418.315V427.672Z" fill="black"/>
<path opacity="0.75" d="M414.983 429.471C414.983 429.321 414.94 429.182 414.865 429.042C414.779 428.903 414.64 428.732 414.437 428.539C414.233 428.336 413.965 428.1 413.623 427.833C413.28 427.565 412.852 427.201 412.327 426.762C411.814 426.334 411.385 425.916 411.053 425.52C410.711 425.124 410.443 424.739 410.24 424.353C410.036 423.968 409.887 423.582 409.812 423.197C409.726 422.812 409.694 422.415 409.694 422.009C409.694 421.602 409.779 421.259 409.94 420.97C410.101 420.681 410.336 420.467 410.647 420.349C410.957 420.221 411.332 420.199 411.771 420.264C412.21 420.328 412.724 420.531 413.291 420.863C413.858 421.195 414.372 421.559 414.822 421.966C415.272 422.373 415.657 422.79 415.967 423.208C416.278 423.625 416.524 424.054 416.706 424.46C416.888 424.867 416.985 425.253 417.006 425.584C417.017 425.734 416.974 425.841 416.878 425.895C416.781 425.948 416.663 425.938 416.535 425.863L415.186 425.081C415.015 424.985 414.876 424.867 414.79 424.739C414.704 424.61 414.608 424.471 414.501 424.321C414.394 424.171 414.255 424 414.083 423.829C413.912 423.657 413.644 423.465 413.291 423.261C412.938 423.058 412.627 422.94 412.36 422.908C412.092 422.876 411.953 423.004 411.953 423.315C411.953 423.465 411.985 423.604 412.049 423.743C412.113 423.882 412.231 424.043 412.413 424.225C412.595 424.407 412.841 424.642 413.163 424.91C413.484 425.178 413.901 425.531 414.415 425.948C415.454 426.805 416.182 427.619 416.61 428.411C417.038 429.203 417.252 429.995 417.252 430.798C417.252 431.205 417.167 431.537 416.985 431.826C416.813 432.104 416.556 432.297 416.224 432.415C415.893 432.522 415.486 432.533 415.004 432.426C414.522 432.329 413.976 432.104 413.366 431.751C412.745 431.398 412.199 430.991 411.728 430.552C411.257 430.113 410.85 429.663 410.529 429.203C410.197 428.743 409.951 428.304 409.779 427.865C409.608 427.426 409.512 427.051 409.501 426.719C409.49 426.569 409.533 426.462 409.63 426.409C409.726 426.355 409.844 426.366 409.972 426.441L411.321 427.222C411.492 427.319 411.632 427.447 411.717 427.586C411.803 427.726 411.899 427.897 412.017 428.079C412.124 428.261 412.285 428.464 412.477 428.668C412.681 428.882 412.97 429.096 413.366 429.321C413.537 429.417 413.719 429.514 413.912 429.588C414.094 429.674 414.265 429.728 414.426 429.76C414.586 429.792 414.715 429.781 414.822 429.749C414.929 429.717 414.983 429.621 414.983 429.471Z" fill="black"/>
<path opacity="0.75" d="M421.404 432.18V435.627C421.404 435.777 421.362 435.873 421.265 435.927C421.169 435.98 421.062 435.97 420.933 435.895L419.606 435.124C419.477 435.049 419.37 434.931 419.274 434.77C419.178 434.61 419.135 434.46 419.135 434.31V421.142C419.135 420.992 419.178 420.896 419.274 420.842C419.37 420.789 419.477 420.799 419.606 420.874L420.933 421.645C421.062 421.72 421.169 421.838 421.265 421.998C421.362 422.159 421.404 422.309 421.404 422.459V428.786L424.327 427.758C424.391 427.737 424.488 427.715 424.595 427.694C424.702 427.683 424.841 427.715 425.002 427.812L426.79 428.839C426.907 428.904 427.004 429.011 427.089 429.15C427.175 429.289 427.207 429.428 427.207 429.567C427.207 429.632 427.196 429.696 427.186 429.739C427.164 429.792 427.111 429.824 427.014 429.856L422.935 431.28L427.4 438.775C427.475 438.892 427.517 438.989 427.539 439.053C427.56 439.117 427.571 439.181 427.571 439.256C427.571 439.385 427.528 439.481 427.453 439.524C427.368 439.567 427.271 439.556 427.154 439.492L425.451 438.507C425.28 438.411 425.13 438.282 425.002 438.132C424.884 437.982 424.787 437.854 424.734 437.757L421.404 432.18Z" fill="black"/>
<path opacity="0.75" d="M361.838 418.989L365.167 414.279C365.21 414.236 365.296 414.182 365.403 414.097C365.51 414.011 365.681 414.043 365.917 414.172L367.105 414.857C367.233 414.932 367.34 415.05 367.437 415.21C367.533 415.371 367.576 415.521 367.576 415.671V428.646C367.576 428.796 367.533 428.892 367.437 428.946C367.34 429 367.233 428.989 367.105 428.914L365.692 428.09C365.563 428.015 365.456 427.897 365.36 427.736C365.263 427.576 365.221 427.426 365.221 427.276V419.428L362.951 422.629C362.897 422.704 362.812 422.769 362.705 422.822C362.598 422.876 362.469 422.854 362.298 422.758L361.388 422.233C361.227 422.137 361.088 422.009 360.981 421.827C360.874 421.655 360.799 421.495 360.735 421.355L358.465 415.521V423.368C358.465 423.518 358.422 423.614 358.326 423.668C358.23 423.721 358.123 423.711 357.994 423.636L356.581 422.822C356.452 422.747 356.345 422.629 356.249 422.469C356.153 422.308 356.11 422.158 356.11 422.009V409.033C356.11 408.883 356.153 408.787 356.249 408.733C356.345 408.68 356.452 408.69 356.581 408.765L357.769 409.45C358.005 409.59 358.176 409.761 358.283 409.964C358.39 410.178 358.476 410.328 358.519 410.425L361.838 418.989Z" fill="black"/>
<path opacity="0.75" d="M370.145 422.801C370.188 422.544 370.295 422.308 370.466 422.084C370.637 421.859 370.873 421.698 371.183 421.591C371.494 421.484 371.868 421.473 372.318 421.559C372.768 421.634 373.292 421.848 373.881 422.191C374.47 422.533 375.016 422.929 375.487 423.39C375.969 423.85 376.376 424.353 376.718 424.899C377.061 425.445 377.329 426.034 377.511 426.676C377.693 427.308 377.789 427.972 377.789 428.657V434.556C377.789 434.706 377.746 434.802 377.65 434.856C377.553 434.909 377.446 434.899 377.318 434.824L375.99 434.053C375.862 433.978 375.755 433.86 375.658 433.7C375.562 433.539 375.519 433.389 375.519 433.239V432.575C375.273 432.822 374.92 432.95 374.459 432.961C373.999 432.972 373.41 432.768 372.704 432.361C372.2 432.072 371.751 431.74 371.355 431.355C370.958 430.97 370.627 430.563 370.359 430.124C370.091 429.685 369.888 429.235 369.738 428.775C369.588 428.304 369.513 427.843 369.513 427.394C369.513 426.473 369.802 425.916 370.37 425.724C370.937 425.531 371.708 425.617 372.661 425.981L375.509 427.062C375.509 426.516 375.348 426.034 375.037 425.627C374.727 425.221 374.331 424.878 373.86 424.61C373.571 424.439 373.346 424.353 373.175 424.353C373.014 424.353 372.853 424.385 372.704 424.46C372.596 424.503 372.5 424.525 372.414 424.514C372.329 424.503 372.232 424.471 372.125 424.407L370.498 423.465C370.38 423.4 370.284 423.304 370.198 423.176C370.113 423.047 370.123 422.929 370.145 422.801ZM373.068 430.156C373.464 430.381 373.817 430.52 374.127 430.573C374.438 430.627 374.695 430.606 374.909 430.509C375.123 430.413 375.273 430.263 375.38 430.06C375.487 429.856 375.541 429.61 375.541 429.332V429.128L373.164 428.24C372.682 428.058 372.34 427.993 372.136 428.058C371.922 428.111 371.826 428.304 371.826 428.604C371.826 428.882 371.954 429.171 372.2 429.449C372.447 429.728 372.736 429.963 373.068 430.156Z" fill="black"/>
<path opacity="0.75" d="M388.677 440.83C388.677 440.98 388.634 441.076 388.538 441.13C388.441 441.184 388.334 441.173 388.206 441.098L386.878 440.327C386.75 440.252 386.643 440.134 386.546 439.974C386.45 439.813 386.407 439.663 386.407 439.513V434.417C386.407 433.614 386.246 432.876 385.915 432.212C385.583 431.538 385.09 431.013 384.405 430.617C383.784 430.264 383.302 430.221 382.949 430.499C382.596 430.777 382.414 431.313 382.414 432.116V437.212C382.414 437.362 382.371 437.458 382.275 437.511C382.178 437.565 382.071 437.554 381.943 437.479L380.615 436.708C380.487 436.634 380.38 436.516 380.283 436.355C380.187 436.195 380.144 436.045 380.144 435.895V426.538C380.144 426.388 380.187 426.292 380.283 426.238C380.38 426.185 380.487 426.195 380.615 426.27L381.943 427.041C382.071 427.116 382.178 427.234 382.275 427.394C382.371 427.555 382.414 427.705 382.414 427.855V428.315C382.713 428.144 383.077 428.058 383.484 428.069C383.891 428.079 384.373 428.24 384.94 428.561C385.647 428.968 386.246 429.439 386.728 429.974C387.21 430.51 387.595 431.066 387.884 431.666C388.174 432.266 388.388 432.876 388.505 433.518C388.623 434.16 388.687 434.792 388.687 435.424V440.83H388.677Z" fill="black"/>
<path opacity="0.75" d="M391 434.845C391.043 434.588 391.15 434.353 391.321 434.128C391.492 433.903 391.728 433.743 392.038 433.636C392.349 433.529 392.724 433.518 393.173 433.603C393.623 433.678 394.147 433.893 394.736 434.235C395.336 434.578 395.871 434.974 396.342 435.434C396.824 435.895 397.231 436.398 397.573 436.944C397.916 437.49 398.184 438.079 398.376 438.721C398.558 439.353 398.655 440.016 398.655 440.702V446.601C398.655 446.75 398.612 446.847 398.515 446.9C398.419 446.954 398.312 446.943 398.184 446.868L396.856 446.097C396.728 446.022 396.62 445.905 396.524 445.744C396.428 445.583 396.385 445.434 396.385 445.284V444.62C396.139 444.866 395.785 444.995 395.325 445.005C394.865 445.016 394.276 444.813 393.569 444.406C393.066 444.117 392.616 443.785 392.22 443.399C391.824 443.014 391.492 442.607 391.225 442.168C390.957 441.729 390.754 441.28 390.604 440.819C390.454 440.348 390.39 439.888 390.39 439.438C390.39 438.518 390.679 437.961 391.246 437.768C391.814 437.575 392.584 437.661 393.537 438.025L396.385 439.106C396.385 438.56 396.224 438.079 395.914 437.672C395.603 437.265 395.207 436.922 394.736 436.655C394.447 436.483 394.222 436.398 394.051 436.398C393.89 436.398 393.73 436.43 393.58 436.505C393.473 436.548 393.377 436.569 393.291 436.558C393.205 436.548 393.109 436.516 393.002 436.451L391.375 435.509C391.257 435.445 391.16 435.349 391.075 435.22C390.989 435.092 390.978 434.963 391 434.845ZM393.923 442.2C394.319 442.425 394.672 442.564 394.983 442.618C395.293 442.671 395.55 442.65 395.764 442.554C395.978 442.457 396.128 442.307 396.235 442.104C396.342 441.901 396.396 441.654 396.396 441.365V441.162L394.019 440.273C393.537 440.091 393.195 440.027 392.991 440.091C392.788 440.156 392.681 440.338 392.681 440.637C392.681 440.916 392.809 441.194 393.055 441.483C393.291 441.761 393.591 441.997 393.923 442.2Z" fill="black"/>
<path opacity="0.75" d="M404.971 452.789C405.218 452.928 405.464 453.035 405.721 453.088C405.978 453.153 406.213 453.142 406.417 453.078C406.631 453.013 406.802 452.874 406.931 452.66C407.059 452.446 407.134 452.146 407.134 451.761V451.022C407.038 451.086 406.92 451.151 406.77 451.204C406.62 451.258 406.438 451.279 406.213 451.279C405.999 451.279 405.742 451.236 405.464 451.151C405.186 451.065 404.854 450.915 404.49 450.712C403.911 450.38 403.376 449.941 402.905 449.406C402.434 448.87 402.027 448.292 401.695 447.671C401.363 447.04 401.096 446.386 400.903 445.712C400.71 445.038 400.603 444.374 400.582 443.753C400.571 443.549 400.561 443.303 400.561 443.036C400.561 442.768 400.561 442.543 400.582 442.34C400.603 441.74 400.71 441.205 400.903 440.744C401.096 440.284 401.353 439.941 401.695 439.695C402.027 439.449 402.434 439.331 402.905 439.342C403.376 439.353 403.901 439.524 404.49 439.867C404.854 440.081 405.175 440.306 405.464 440.552C405.753 440.798 405.999 441.044 406.213 441.29C406.427 441.537 406.609 441.772 406.77 441.997C406.92 442.222 407.038 442.425 407.134 442.597V442.136C407.134 441.986 407.177 441.89 407.273 441.836C407.37 441.783 407.477 441.794 407.605 441.869L408.933 442.639C409.061 442.714 409.168 442.832 409.264 442.993C409.361 443.153 409.404 443.303 409.404 443.453V452.864C409.404 454.48 409.008 455.476 408.226 455.851C407.444 456.225 406.352 456 404.961 455.197C404.361 454.855 403.815 454.448 403.312 453.966C402.809 453.485 402.359 452.992 401.995 452.478C401.631 451.964 401.321 451.45 401.107 450.937C400.882 450.423 400.764 449.962 400.743 449.555C400.732 449.406 400.775 449.299 400.871 449.245C400.967 449.191 401.085 449.202 401.214 449.277L402.402 449.962C402.563 450.059 402.702 450.198 402.819 450.401C402.937 450.594 403.034 450.765 403.119 450.926C403.269 451.236 403.473 451.547 403.74 451.847C404.008 452.146 404.404 452.467 404.971 452.789ZM402.873 443.785C402.841 444.138 402.841 444.513 402.873 444.909C402.948 445.819 403.173 446.579 403.569 447.189C403.965 447.8 404.447 448.271 405.025 448.603C405.592 448.935 406.074 449.02 406.47 448.849C406.866 448.688 407.091 448.26 407.145 447.575C407.166 447.393 407.177 447.136 407.177 446.836C407.177 446.536 407.166 446.269 407.145 446.055C407.091 445.327 406.866 444.641 406.47 444.02C406.085 443.4 405.603 442.918 405.025 442.586C404.457 442.254 403.965 442.168 403.569 442.318C403.173 442.457 402.937 442.95 402.873 443.785Z" fill="black"/>
<path opacity="0.75" d="M411.373 449.256C411.373 448.506 411.469 447.853 411.673 447.307C411.866 446.761 412.155 446.355 412.529 446.076C412.904 445.809 413.354 445.68 413.889 445.702C414.424 445.723 415.013 445.926 415.666 446.301C416.319 446.676 416.908 447.158 417.443 447.736C417.979 448.314 418.428 448.945 418.803 449.62C419.178 450.294 419.467 451.001 419.67 451.75C419.874 452.489 419.981 453.206 419.981 453.881V454.78C419.981 454.93 419.938 455.026 419.841 455.08C419.745 455.133 419.638 455.123 419.51 455.048L413.664 451.675C413.664 451.986 413.718 452.286 413.835 452.585C413.953 452.885 414.092 453.164 414.285 453.431C414.478 453.699 414.692 453.945 414.938 454.17C415.184 454.395 415.431 454.577 415.688 454.727C416.062 454.941 416.362 455.069 416.598 455.123C416.833 455.166 417.026 455.176 417.176 455.123C417.304 455.091 417.411 455.08 417.486 455.08C417.561 455.08 417.679 455.133 417.818 455.208L419.22 456.011C419.349 456.086 419.467 456.204 419.563 456.365C419.659 456.525 419.702 456.686 419.692 456.825C419.681 457.007 419.595 457.2 419.424 457.392C419.253 457.585 418.996 457.735 418.664 457.821C418.321 457.906 417.904 457.906 417.411 457.821C416.919 457.735 416.341 457.499 415.688 457.125C415.034 456.75 414.446 456.279 413.91 455.712C413.375 455.144 412.925 454.513 412.551 453.817C412.176 453.121 411.887 452.382 411.694 451.6C411.469 450.851 411.373 450.059 411.373 449.256ZM415.655 448.721C415.313 448.528 415.024 448.421 414.788 448.389C414.553 448.367 414.349 448.399 414.189 448.485C414.028 448.571 413.9 448.699 413.814 448.87C413.728 449.042 413.675 449.224 413.643 449.406L417.593 451.686C417.572 451.472 417.529 451.236 417.465 450.98C417.401 450.723 417.293 450.466 417.154 450.198C417.004 449.93 416.812 449.673 416.576 449.427C416.341 449.17 416.03 448.935 415.655 448.721Z" fill="black"/>
<path opacity="0.75" d="M424.145 452.415C424.424 452.19 424.766 452.083 425.162 452.104C425.558 452.125 425.976 452.265 426.404 452.511C427.143 452.939 427.742 453.442 428.203 454.02C428.674 454.609 429.038 455.23 429.306 455.894C429.455 455.712 429.648 455.583 429.862 455.498C430.087 455.412 430.323 455.369 430.569 455.369C430.815 455.369 431.083 455.401 431.35 455.487C431.618 455.573 431.886 455.68 432.143 455.83C432.806 456.215 433.363 456.665 433.802 457.168C434.241 457.682 434.605 458.228 434.873 458.817C435.151 459.406 435.344 460.016 435.451 460.647C435.558 461.279 435.622 461.911 435.622 462.542V467.938C435.622 468.088 435.579 468.184 435.483 468.238C435.386 468.291 435.279 468.281 435.151 468.206L433.823 467.435C433.695 467.36 433.588 467.242 433.492 467.082C433.395 466.921 433.352 466.771 433.352 466.621V461.322C433.352 460.412 433.202 459.684 432.892 459.149C432.592 458.613 432.164 458.185 431.618 457.864C431.147 457.596 430.751 457.543 430.419 457.693C430.087 457.853 429.905 458.356 429.884 459.213V464.609C429.884 464.759 429.841 464.855 429.744 464.908C429.648 464.962 429.541 464.951 429.413 464.876L428.085 464.105C427.957 464.031 427.849 463.913 427.753 463.752C427.657 463.592 427.614 463.442 427.614 463.292V458.003C427.614 457.093 427.464 456.365 427.164 455.83C426.865 455.294 426.436 454.866 425.89 454.545C425.409 454.267 425.002 454.213 424.67 454.384C424.338 454.556 424.167 455.091 424.167 455.99V461.29C424.167 461.44 424.124 461.536 424.027 461.59C423.931 461.643 423.824 461.632 423.696 461.557L422.368 460.787C422.24 460.712 422.133 460.594 422.036 460.433C421.94 460.273 421.897 460.123 421.897 459.973V450.616C421.897 450.466 421.94 450.37 422.036 450.316C422.133 450.263 422.24 450.273 422.368 450.348L423.696 451.119C423.824 451.194 423.931 451.312 424.027 451.472C424.124 451.633 424.167 451.783 424.167 451.933V452.415H424.145Z" fill="black"/>
<path opacity="0.75" d="M437.496 464.34C437.496 463.591 437.592 462.938 437.796 462.392C437.999 461.846 438.278 461.439 438.652 461.161C439.027 460.893 439.477 460.765 440.012 460.786C440.547 460.807 441.136 461.011 441.789 461.386C442.442 461.76 443.031 462.242 443.566 462.82C444.102 463.398 444.551 464.03 444.926 464.704C445.301 465.379 445.59 466.085 445.793 466.835C445.997 467.574 446.104 468.291 446.104 468.965V469.865C446.104 470.014 446.061 470.111 445.965 470.164C445.868 470.218 445.761 470.207 445.633 470.132L439.787 466.76C439.787 467.07 439.841 467.37 439.958 467.67C440.076 467.97 440.215 468.248 440.408 468.516C440.59 468.783 440.815 469.03 441.05 469.254C441.297 469.479 441.543 469.661 441.8 469.811C442.175 470.025 442.474 470.154 442.71 470.207C442.945 470.25 443.138 470.261 443.288 470.207C443.416 470.175 443.524 470.164 443.598 470.164C443.673 470.164 443.791 470.218 443.93 470.293L445.333 471.096C445.461 471.171 445.579 471.289 445.675 471.449C445.772 471.61 445.815 471.77 445.804 471.909C445.793 472.091 445.697 472.284 445.536 472.477C445.365 472.67 445.119 472.819 444.776 472.905C444.434 472.991 444.016 472.991 443.524 472.905C443.031 472.819 442.453 472.584 441.8 472.209C441.147 471.835 440.558 471.363 440.023 470.796C439.487 470.229 439.038 469.597 438.663 468.901C438.288 468.205 437.999 467.466 437.807 466.685C437.592 465.936 437.496 465.143 437.496 464.34ZM441.778 463.805C441.436 463.612 441.147 463.505 440.911 463.473C440.676 463.452 440.472 463.484 440.312 463.57C440.151 463.655 440.023 463.784 439.937 463.955C439.851 464.126 439.798 464.308 439.766 464.49L443.716 466.771C443.695 466.556 443.652 466.321 443.588 466.064C443.524 465.807 443.416 465.55 443.277 465.282C443.127 465.015 442.935 464.758 442.699 464.512C442.464 464.265 442.153 464.019 441.778 463.805Z" fill="black"/>
<path opacity="0.75" d="M456.532 480.003C456.532 480.153 456.489 480.249 456.393 480.303C456.297 480.356 456.19 480.346 456.061 480.271L454.734 479.5C454.605 479.425 454.498 479.307 454.402 479.147C454.305 478.986 454.262 478.836 454.262 478.686V473.59C454.262 472.787 454.102 472.049 453.77 471.385C453.438 470.721 452.946 470.186 452.26 469.79C451.64 469.436 451.158 469.393 450.794 469.672C450.44 469.95 450.258 470.486 450.258 471.288V476.384C450.258 476.534 450.216 476.631 450.119 476.684C450.023 476.738 449.916 476.727 449.787 476.652L448.46 475.881C448.331 475.806 448.224 475.689 448.128 475.528C448.032 475.367 447.989 475.218 447.989 475.068V465.711C447.989 465.561 448.032 465.464 448.128 465.411C448.224 465.357 448.331 465.368 448.46 465.443L449.787 466.214C449.916 466.289 450.023 466.407 450.119 466.567C450.216 466.728 450.258 466.878 450.258 467.027V467.488C450.558 467.317 450.922 467.231 451.329 467.242C451.736 467.252 452.218 467.413 452.785 467.734C453.492 468.141 454.091 468.612 454.573 469.147C455.055 469.683 455.44 470.239 455.729 470.839C456.018 471.438 456.232 472.049 456.35 472.691C456.468 473.333 456.532 473.965 456.532 474.597V480.003Z" fill="black"/>
<path opacity="0.75" d="M461.831 479.832C461.831 480.249 461.927 480.635 462.12 480.988C462.312 481.352 462.676 481.673 463.201 481.984L464.272 482.605C464.4 482.68 464.507 482.797 464.603 482.958C464.7 483.118 464.743 483.268 464.743 483.418V484.746C464.743 484.896 464.7 484.992 464.603 485.046C464.507 485.099 464.4 485.088 464.272 485.013L462.976 484.264C461.884 483.632 461.038 482.84 460.449 481.887C459.861 480.934 459.561 479.832 459.561 478.579V474.265L458.405 473.601C458.276 473.526 458.169 473.408 458.073 473.248C457.976 473.087 457.934 472.937 457.934 472.787V471.46C457.934 471.31 457.976 471.213 458.073 471.16C458.169 471.106 458.276 471.117 458.405 471.192L459.561 471.856V468.58C459.561 468.43 459.604 468.334 459.7 468.28C459.796 468.227 459.903 468.237 460.032 468.312L461.36 469.083C461.488 469.158 461.595 469.276 461.691 469.436C461.788 469.597 461.831 469.747 461.831 469.897V473.173L464.09 474.479C464.218 474.554 464.325 474.671 464.421 474.832C464.518 474.993 464.561 475.143 464.561 475.292V476.62C464.561 476.77 464.518 476.866 464.421 476.92C464.325 476.973 464.218 476.963 464.09 476.888L461.831 475.582V479.832Z" fill="black"/>
</g>
<path d="M285.495 45.0958C285.495 45.0958 331.145 22.4099 357.932 3L285.495 45.0958Z" fill="url(#paint12_radial)"/>
<path d="M285.495 45.0958L306.447 105.627V105.606C302.946 71.593 316.467 38.0513 342.579 15.9756L357.932 3L285.495 45.0958Z" fill="url(#paint13_radial)"/>
<defs>
<linearGradient id="paint0_linear" x1="305.806" y1="453.607" x2="227.96" y2="209.384" gradientUnits="userSpaceOnUse">
<stop stop-color="#6321E3"/>
<stop offset="1" stop-color="#9452FF"/>
</linearGradient>
<linearGradient id="paint1_linear" x1="202.775" y1="271.933" x2="135.614" y2="430.678" gradientUnits="userSpaceOnUse">
<stop stop-color="#C19DFD"/>
<stop offset="1" stop-color="#9473FF"/>
</linearGradient>
<linearGradient id="paint2_linear" x1="324.752" y1="234.539" x2="227.445" y2="223.091" gradientUnits="userSpaceOnUse">
<stop stop-color="#FF6FFF"/>
<stop offset="0.6387" stop-color="#D436E0"/>
<stop offset="1" stop-color="#C01BD1"/>
</linearGradient>
<linearGradient id="paint3_linear" x1="384.457" y1="292.229" x2="277.991" y2="490.279" gradientUnits="userSpaceOnUse">
<stop stop-color="#D30045"/>
<stop offset="0.6091" stop-color="#A21377"/>
<stop offset="1" stop-color="#871D92"/>
</linearGradient>
<linearGradient id="paint4_linear" x1="356.969" y1="309.361" x2="166.933" y2="343.704" gradientUnits="userSpaceOnUse">
<stop stop-color="#FF8CCF"/>
<stop offset="0.4145" stop-color="#FF5FA8"/>
<stop offset="1" stop-color="#FF2373"/>
</linearGradient>
<linearGradient id="paint5_linear" x1="501.809" y1="478.245" x2="306.431" y2="8.11616" gradientUnits="userSpaceOnUse">
<stop stop-color="#8E52FF"/>
<stop offset="1" stop-color="#D6BFFF"/>
</linearGradient>
<linearGradient id="paint6_linear" x1="198.052" y1="169.822" x2="371.841" y2="169.822" gradientUnits="userSpaceOnUse">
<stop stop-color="#B99FFF"/>
<stop offset="1" stop-color="#DBDFFF"/>
</linearGradient>
<linearGradient id="paint7_linear" x1="424.279" y1="262.813" x2="514.718" y2="506.654" gradientUnits="userSpaceOnUse">
<stop stop-color="#FFA500"/>
<stop offset="1" stop-color="#8C682F"/>
</linearGradient>
<linearGradient id="paint8_linear" x1="322.924" y1="396.332" x2="496.338" y2="396.332" gradientUnits="userSpaceOnUse">
<stop stop-color="#FFE278"/>
<stop offset="0.642" stop-color="#FBB632"/>
<stop offset="1" stop-color="#F89C09"/>
</linearGradient>
<radialGradient id="paint9_radial" cx="0" cy="0" r="1" gradientUnits="userSpaceOnUse" gradientTransform="translate(328.668 169.822) scale(93.3289)">
<stop stop-color="white"/>
<stop offset="1" stop-color="#B9C1FF" stop-opacity="0"/>
</radialGradient>
<radialGradient id="paint10_radial" cx="0" cy="0" r="1" gradientUnits="userSpaceOnUse" gradientTransform="translate(179.616 358.751) scale(93.3289)">
<stop stop-color="white"/>
<stop offset="1" stop-color="#B9C1FF" stop-opacity="0"/>
</radialGradient>
<radialGradient id="paint11_radial" cx="0" cy="0" r="1" gradientUnits="userSpaceOnUse" gradientTransform="translate(457.013 403.232) scale(93.3289)">
<stop stop-color="white"/>
<stop offset="1" stop-color="#B9C1FF" stop-opacity="0"/>
</radialGradient>
<radialGradient id="paint12_radial" cx="0" cy="0" r="1" gradientUnits="userSpaceOnUse" gradientTransform="translate(321.713 24.0479) scale(29.6208)">
<stop stop-color="white"/>
<stop offset="1" stop-color="#B9C1FF" stop-opacity="0"/>
</radialGradient>
<radialGradient id="paint13_radial" cx="0" cy="0" r="1" gradientUnits="userSpaceOnUse" gradientTransform="translate(303.396 24.8046) scale(44.4128)">
<stop stop-color="white"/>
<stop offset="1" stop-color="#B9C1FF" stop-opacity="0"/>
</radialGradient>
</defs>
</svg>
