<svg width="850" height="620" viewBox="0 0 850 620" fill="none" xmlns="http://www.w3.org/2000/svg">
<path d="M560.776 473.25L544.656 467.61L552.946 462.69L560.776 473.25Z" fill="url(#paint0_linear)"/>
<path d="M560.716 455.75V472.92L548.836 449.79L560.716 455.75Z" fill="url(#paint1_linear)"/>
<path d="M560.716 455.75V472.92L572.596 449.79L560.716 455.75Z" fill="url(#paint2_linear)"/>
<path d="M572.596 449.79L560.716 455.75L548.836 449.79L550.196 449.12L554.306 447.08L568.876 447.76L571.306 449.08L572.596 449.79Z" fill="url(#paint3_linear)"/>
<path opacity="0.39" d="M571.306 449.08L560.716 454.4L550.196 449.12L554.306 447.08L568.876 447.76L571.306 449.08Z" fill="url(#paint4_linear)"/>
<path d="M560.446 424.44V453.23L573.166 447.57L560.446 424.44Z" fill="url(#paint5_linear)"/>
<path d="M560.446 453.23V424.44L548.906 447.33L560.446 453.23Z" fill="url(#paint6_linear)"/>
<path d="M560.446 424.44L560.426 439.61L565.076 432.86L560.446 424.44Z" fill="url(#paint7_linear)"/>
<path opacity="0.46" d="M560.446 424.44L560.426 448.54L565.076 432.86L560.446 424.44Z" fill="url(#paint8_linear)"/>
<path opacity="0.46" d="M560.446 424.44C560.446 424.44 561.576 444.44 560.446 453.23V424.44Z" fill="url(#paint9_radial)"/>
<path opacity="0.46" d="M572.596 449.79L560.716 455.75V472.92L561.316 466.34C561.846 460.45 564.956 455.11 569.806 451.73L572.596 449.79Z" fill="url(#paint10_linear)"/>
<path opacity="0.46" d="M572.596 449.79L560.716 455.75V472.92L561.386 459.31C561.476 457.44 562.506 455.75 564.106 454.8L572.596 449.79Z" fill="url(#paint11_linear)"/>
<path d="M420.176 489.09C420.176 478.13 420.176 463.52 420.176 452.56C420.176 447.08 420.176 439.76 420.176 434.28C420.176 423.3 420.176 408.67 420.176 397.69C420.176 386.71 420.176 372.06 420.176 361.07C420.176 344.59 420.176 322.61 420.176 306.12C420.176 295.13 420.176 280.48 420.176 269.49C420.176 264 420.176 256.67 420.176 251.18C420.176 240.2 420.176 225.55 420.176 214.56C420.176 203.58 420.176 188.95 420.176 177.97C420.176 172.49 420.176 165.17 420.176 159.69C420.176 148.73 420.176 134.12 420.176 123.16C420.176 123.19 420.176 123.21 420.186 123.24C420.196 123.27 420.196 123.3 420.206 123.33C420.216 123.36 420.226 123.39 420.246 123.43C420.266 123.46 420.286 123.5 420.306 123.53V488.73C420.286 488.76 420.266 488.8 420.246 488.83C420.226 488.86 420.216 488.89 420.206 488.93C420.196 488.96 420.186 488.99 420.186 489.02C420.186 489.04 420.176 489.06 420.176 489.09Z" fill="#6D6F8B"/>
<path d="M450.026 141.14V174.19V207.21V240.2V273.17V306.13V339.09V372.06V405.05V438.07V471.12C450.026 471.04 449.996 470.96 449.946 470.9C449.896 470.84 449.826 470.79 449.726 470.76C449.626 470.73 449.516 470.71 449.376 470.7C449.236 470.7 449.086 470.71 448.906 470.74V141.52C449.076 141.55 449.236 141.56 449.376 141.56C449.516 141.56 449.626 141.54 449.726 141.5C449.826 141.47 449.896 141.42 449.946 141.36C449.996 141.3 450.026 141.22 450.026 141.14Z" fill="url(#paint12_linear)"/>
<path d="M431.625 138.47L448.915 141.52V470.73L431.625 473.78V138.47Z" fill="#46475F"/>
<path d="M429.146 137.05C429.246 137.2 429.385 137.36 429.565 137.5C429.745 137.65 429.946 137.79 430.176 137.92C430.406 138.05 430.646 138.16 430.896 138.26C431.146 138.35 431.395 138.43 431.635 138.47V473.78C431.395 473.82 431.136 473.89 430.896 473.99C430.646 474.08 430.406 474.2 430.176 474.33C429.946 474.46 429.745 474.6 429.565 474.75C429.385 474.9 429.246 475.05 429.146 475.2C429.146 475.2 429.146 137.05 429.146 137.05Z" fill="url(#paint13_linear)"/>
<path d="M448.916 141.52L606.036 87.0898C606.136 87.1198 606.226 87.1298 606.326 87.1398C606.426 87.1498 606.526 87.1498 606.636 87.1398C606.736 87.1298 606.846 87.1198 606.956 87.0998C607.066 87.0798 607.166 87.0498 607.276 87.0098L596.956 90.5798L586.966 94.0398L577.296 97.3898L567.926 100.63L558.846 103.77L550.036 106.82L541.496 109.78L533.206 112.65L517.326 118.14L509.716 120.77L502.316 123.33L495.116 125.82L488.116 128.24L481.296 130.6L474.656 132.9L468.186 135.14L461.876 137.32L455.726 139.45L449.726 141.52C449.676 141.54 449.626 141.55 449.566 141.56C449.506 141.57 449.446 141.57 449.376 141.58C449.306 141.59 449.236 141.58 449.156 141.57C449.076 141.56 448.996 141.53 448.916 141.52Z" fill="#313242"/>
<path d="M431.625 473.78L448.915 470.73L606.035 525.16L586.796 530.59L431.625 473.78Z" fill="#3B3C50"/>
<path d="M586.796 81.6497L606.035 87.0897L448.915 141.52L431.625 138.47L586.796 81.6497Z" fill="#303142"/>
<path d="M429.146 475.2C429.246 475.05 429.385 474.89 429.565 474.75C429.745 474.6 429.946 474.46 430.176 474.33C430.406 474.2 430.646 474.09 430.896 473.99C431.146 473.9 431.395 473.82 431.635 473.78L586.796 530.59C586.526 530.67 586.295 530.8 586.125 530.99C585.955 531.17 585.836 531.4 585.776 531.66C585.716 531.92 585.706 532.21 585.766 532.52C585.826 532.83 585.936 533.15 586.116 533.47C586.116 533.47 429.146 475.2 429.146 475.2Z" fill="url(#paint14_linear)"/>
<path d="M585.726 532.11C585.726 518.53 585.726 500.43 585.726 486.85C585.726 480.07 585.726 471.02 585.726 464.24C585.726 450.68 585.726 432.6 585.726 419.04C585.726 412.26 585.726 403.23 585.726 396.45C585.726 382.9 585.726 364.83 585.726 351.28C585.726 344.51 585.726 335.47 585.726 328.7C585.726 315.15 585.726 297.09 585.726 283.54C585.726 269.99 585.726 251.93 585.726 238.38C585.726 231.6 585.726 222.57 585.726 215.79C585.726 202.23 585.726 184.16 585.726 170.6C585.726 157.03 585.726 138.95 585.726 125.38C585.726 118.59 585.726 109.54 585.726 102.76C585.726 95.9698 585.726 86.9198 585.726 80.1298C585.726 80.0198 585.736 79.9198 585.746 79.7998C585.766 79.6898 585.786 79.5798 585.816 79.4598C585.846 79.3498 585.886 79.2298 585.936 79.1098C585.986 78.9898 586.046 78.8798 586.106 78.7598V533.46C586.036 533.34 585.986 533.22 585.936 533.11C585.886 532.99 585.846 532.88 585.816 532.76C585.786 532.65 585.756 532.53 585.746 532.42C585.736 532.32 585.726 532.21 585.726 532.11Z" fill="url(#paint15_linear)"/>
<path d="M626.515 55.0296V105.2V155.4V205.63V255.88V306.13V356.38V406.63V456.86V507.06V557.23C626.515 557.4 626.495 557.57 626.455 557.73C626.415 557.88 626.355 558.03 626.275 558.15C626.195 558.28 626.095 558.39 625.975 558.48C625.855 558.57 625.715 558.65 625.565 558.7V53.5596C625.725 53.6096 625.855 53.6896 625.975 53.7796C626.095 53.8696 626.195 53.9896 626.275 54.1096C626.355 54.2396 626.415 54.3796 626.455 54.5296C626.495 54.6896 626.515 54.8496 626.515 55.0296Z" fill="#575977"/>
<path d="M604.695 565.05C597.205 561.98 587.216 557.88 579.716 554.8C576.186 553.35 571.475 551.42 567.945 549.97C561.275 547.23 552.395 543.59 545.725 540.85C542.575 539.56 538.375 537.83 535.225 536.54C496.955 520.84 458.696 505.13 420.426 489.43C420.356 489.4 420.295 489.36 420.255 489.32C420.215 489.27 420.186 489.22 420.176 489.16C420.166 489.1 420.166 489.03 420.186 488.96C420.206 488.89 420.246 488.81 420.296 488.72L602.826 563.36C602.936 563.56 603.065 563.74 603.195 563.91C603.335 564.08 603.486 564.24 603.646 564.38C603.806 564.52 603.976 564.65 604.146 564.76C604.316 564.87 604.515 564.97 604.695 565.05Z" fill="#3B3C50"/>
<path d="M579.725 57.4497C576.195 58.8997 571.486 60.8297 567.956 62.2797C561.286 65.0197 552.406 68.6597 545.736 71.3997C539.546 73.9397 531.296 77.3197 525.116 79.8597C522.186 81.0597 518.275 82.6697 515.345 83.8697C509.785 86.1497 502.375 89.1897 496.815 91.4697C491.625 93.5997 484.705 96.4397 479.505 98.5697C477.035 99.5797 473.746 100.93 471.276 101.95C466.576 103.88 460.305 106.45 455.595 108.38C451.185 110.19 445.295 112.61 440.875 114.42C438.765 115.28 435.956 116.44 433.856 117.3C429.826 118.95 424.456 121.16 420.426 122.81C420.356 122.84 420.295 122.88 420.255 122.92C420.215 122.97 420.186 123.02 420.176 123.08C420.166 123.14 420.166 123.21 420.186 123.28C420.206 123.35 420.246 123.43 420.296 123.52C420.296 153.84 420.296 184.25 420.296 214.69C420.296 245.13 420.296 275.63 420.296 306.12C420.296 336.61 420.296 367.1 420.296 397.55C420.296 428 420.296 458.4 420.296 488.72C431.296 493.22 442.906 497.97 455.146 502.97C468.036 508.24 481.666 513.82 496.076 519.71C511.326 525.94 527.485 532.55 544.605 539.56C562.825 547.01 582.205 554.94 602.826 563.37C602.826 520.65 602.826 477.82 602.826 434.93C602.826 392.04 602.826 349.09 602.826 306.13C602.826 263.18 602.826 220.23 602.826 177.33C602.826 134.43 602.826 91.5997 602.826 48.8897C602.936 48.6897 603.065 48.5097 603.195 48.3397C603.335 48.1697 603.486 48.0097 603.646 47.8697C603.806 47.7297 603.976 47.5997 604.146 47.4897C604.316 47.3797 604.496 47.2897 604.676 47.2097C597.206 50.2797 587.215 54.3797 579.725 57.4497ZM586.116 306.12C586.116 343.93 586.116 381.75 586.116 419.62C586.116 457.49 586.116 495.42 586.116 533.47C568.916 527.08 552.726 521.07 537.426 515.39C522.916 510 509.166 504.9 496.086 500.04C483.636 495.42 471.756 491.01 460.396 486.79C449.546 482.76 439.136 478.9 429.136 475.18C429.136 446.89 429.136 418.68 429.136 390.51C429.136 362.34 429.136 334.22 429.136 306.1C429.136 277.98 429.136 249.86 429.136 221.69C429.136 193.52 429.136 165.32 429.136 137.02C435.026 134.83 441.075 132.59 447.255 130.29C443.555 131.66 429.136 137.02 429.136 137.02C429.236 137.17 429.376 137.33 429.556 137.47C429.736 137.62 429.936 137.76 430.166 137.89C430.396 138.02 430.636 138.13 430.886 138.23C431.136 138.32 431.385 138.4 431.625 138.44L586.116 81.8997C586.116 118.9 586.116 155.79 586.116 192.62C586.116 230.49 586.116 268.31 586.116 306.12Z" fill="url(#paint16_linear)"/>
<path d="M602.845 48.8897C603.035 48.5497 603.275 48.2497 603.535 47.9897C603.805 47.7297 604.095 47.5097 604.405 47.3497C604.705 47.1897 605.025 47.0797 605.335 47.0297C605.645 46.9797 605.945 46.9997 606.215 47.0897V565.16C605.945 565.25 605.645 565.27 605.335 565.23C605.025 565.18 604.715 565.08 604.405 564.91C604.105 564.75 603.805 564.53 603.535 564.27C603.265 564.01 603.035 563.7 602.845 563.36C602.845 563.36 602.845 48.8897 602.845 48.8897Z" fill="#575977"/>
<path d="M606.215 47.0896C605.945 46.9996 605.645 46.9796 605.335 47.0196C605.025 47.0696 604.715 47.1696 604.405 47.3396C604.095 47.5096 603.805 47.7196 603.535 47.9796C603.265 48.2396 603.035 48.5496 602.845 48.8896V563.37C603.035 563.71 603.275 564.01 603.535 564.28C603.805 564.54 604.095 564.76 604.405 564.92C604.715 565.08 605.025 565.19 605.335 565.24C605.645 565.28 605.945 565.27 606.215 565.17L625.565 558.7V53.5596L606.215 47.0896Z" fill="#3F4056"/>
<path d="M602.845 48.8897C603.035 48.5497 603.275 48.2497 603.535 47.9897C603.805 47.7297 604.095 47.5097 604.405 47.3497C604.705 47.1897 605.025 47.0797 605.335 47.0297C605.645 46.9797 605.945 46.9997 606.215 47.0897V565.16C605.945 565.25 605.645 565.27 605.335 565.23C605.025 565.18 604.715 565.08 604.405 564.91C604.105 564.75 603.805 564.53 603.535 564.27C603.265 564.01 603.035 563.7 602.845 563.36C602.845 563.36 602.845 48.8897 602.845 48.8897Z" fill="url(#paint17_linear)"/>
<path d="M420.436 122.82C424.466 121.17 429.836 118.96 433.866 117.31C435.976 116.45 438.786 115.29 440.886 114.43C445.296 112.62 451.186 110.2 455.606 108.39C460.306 106.46 466.576 103.89 471.286 101.96C473.756 100.95 477.046 99.5997 479.516 98.5797C484.706 96.4497 491.626 93.6097 496.826 91.4797C502.386 89.1997 509.796 86.1597 515.356 83.8797C518.286 82.6797 522.196 81.0697 525.126 79.8697C531.316 77.3297 539.566 73.9497 545.746 71.4097C552.416 68.6697 561.296 65.0297 567.966 62.2897C571.496 60.8397 576.206 58.9097 579.736 57.4597C587.226 54.3897 597.216 50.2897 604.716 47.2097C604.536 47.2797 604.356 47.3797 604.186 47.4897C604.016 47.5997 603.846 47.7297 603.686 47.8697C603.526 48.0097 603.376 48.1697 603.236 48.3397C603.096 48.5097 602.976 48.6997 602.866 48.8897L420.316 123.52C420.256 123.44 420.226 123.36 420.206 123.28C420.186 123.21 420.186 123.14 420.196 123.08C420.206 123.02 420.236 122.97 420.276 122.92C420.306 122.88 420.366 122.84 420.436 122.82Z" fill="url(#paint18_linear)"/>
<path d="M586.116 78.7695C585.936 79.0895 585.816 79.4095 585.766 79.7195C585.706 80.0295 585.716 80.3195 585.776 80.5795C585.836 80.8395 585.955 81.0695 586.125 81.2495C586.295 81.4295 586.516 81.5695 586.796 81.6495L431.625 138.47C431.385 138.43 431.125 138.36 430.885 138.26C430.635 138.17 430.395 138.05 430.165 137.92C429.935 137.79 429.736 137.65 429.556 137.5C429.376 137.35 429.235 137.2 429.135 137.05C429.145 137.05 586.116 78.7695 586.116 78.7695Z" fill="url(#paint19_linear)"/>
<path d="M504.496 181.15L503.106 181.05V166.81L504.496 166.72V181.15Z" fill="url(#paint20_linear)"/>
<path d="M508.586 166.77V181.1L504.496 181.15V166.72L508.586 166.77Z" fill="url(#paint21_linear)"/>
<path d="M504.496 269.51L503.106 269.41V256.69L504.496 256.59V269.51Z" fill="url(#paint22_linear)"/>
<path d="M508.586 256.64V268.7L504.496 269.51V256.59L508.586 256.64Z" fill="url(#paint23_linear)"/>
<path d="M499.576 258.64L494.086 257.17V180.8L499.576 179.33V258.64Z" fill="url(#paint24_linear)"/>
<path d="M510.346 181.15L510.206 255.82L517.776 257.04V180.92L510.346 181.15Z" fill="url(#paint25_linear)"/>
<path d="M517.776 180.92V257.04L499.576 258.64V179.33L517.776 180.92Z" fill="url(#paint26_linear)"/>
<path d="M517.776 257.04L499.576 258.64L494.086 257.17L510.206 255.82L517.776 257.04Z" fill="url(#paint27_linear)"/>
<path d="M494.086 180.8H500.116L510.196 181.15L517.776 180.92L499.576 179.33L494.086 180.8Z" fill="url(#paint28_linear)"/>
<path d="M499.576 179.33C499.576 179.33 500.336 215.88 500.336 225.37C500.336 234.86 499.576 258.64 499.576 258.64V179.33Z" fill="url(#paint29_linear)"/>
<path d="M364.396 181.34L363.006 181.24V167L364.396 166.91V181.34Z" fill="url(#paint30_linear)"/>
<path d="M368.486 166.96V181.29L364.396 181.34V166.91L368.486 166.96Z" fill="url(#paint31_linear)"/>
<path d="M364.396 253.02L363.006 252.93V240.2L364.396 240.11V253.02Z" fill="url(#paint32_linear)"/>
<path d="M368.486 240.16V252.21L364.396 253.02V240.11L368.486 240.16Z" fill="url(#paint33_linear)"/>
<path d="M359.476 242.15L353.986 240.68V180.99L359.476 179.52V242.15Z" fill="url(#paint34_linear)"/>
<path d="M370.245 181.34L370.105 239.34L377.675 240.56V181.11L370.245 181.34Z" fill="url(#paint35_linear)"/>
<path d="M377.676 181.11V240.56L359.476 242.15V179.52L377.676 181.11Z" fill="url(#paint36_linear)"/>
<path d="M377.676 240.56L359.476 242.15L353.986 240.68L370.106 239.34L377.676 240.56Z" fill="url(#paint37_linear)"/>
<path d="M353.986 180.99H360.016L370.096 181.34L377.676 181.11L359.476 179.52L353.986 180.99Z" fill="url(#paint38_linear)"/>
<path d="M359.476 179.52C359.476 179.52 360.236 200.91 360.236 210.4C360.236 219.89 359.476 242.15 359.476 242.15V179.52Z" fill="url(#paint39_linear)"/>
<path d="M459.226 204.76L457.826 204.67V190.42L459.226 190.33V204.76Z" fill="url(#paint40_linear)"/>
<path d="M463.306 190.38V204.71L459.226 204.76V190.33L463.306 190.38Z" fill="url(#paint41_linear)"/>
<path d="M459.226 262.8L457.826 262.71V249.98L459.226 249.89V262.8Z" fill="url(#paint42_linear)"/>
<path d="M463.306 249.93V261.99L459.226 262.8V249.89L463.306 249.93Z" fill="url(#paint43_linear)"/>
<path d="M454.296 251.93L448.806 250.46V204.41L454.296 202.94V251.93Z" fill="url(#paint44_linear)"/>
<path d="M465.066 204.76L464.926 249.11L472.496 250.34V204.54L465.066 204.76Z" fill="url(#paint45_linear)"/>
<path d="M472.496 204.54V250.34L454.296 251.93V202.94L472.496 204.54Z" fill="url(#paint46_linear)"/>
<path d="M472.496 250.34L454.296 251.93L448.806 250.46L464.926 249.11L472.496 250.34Z" fill="url(#paint47_linear)"/>
<path d="M448.806 204.41H454.836L464.926 204.76L472.496 204.54L454.296 202.94L448.806 204.41Z" fill="url(#paint48_linear)"/>
<path d="M454.296 202.94C454.296 202.94 455.056 216.75 455.056 226.24C455.056 235.73 454.296 251.93 454.296 251.93V202.94Z" fill="url(#paint49_linear)"/>
<path d="M412.416 228.08L411.016 227.99V213.74L412.416 213.65V228.08Z" fill="url(#paint50_linear)"/>
<g opacity="0.71">
<path opacity="0.71" d="M416.506 213.7V228.03L412.416 228.08V213.65L416.506 213.7Z" fill="url(#paint51_linear)"/>
</g>
<path d="M412.416 270.96L411.016 270.87V258.14L412.416 258.04V270.96Z" fill="url(#paint52_linear)"/>
<g opacity="0.71">
<path opacity="0.71" d="M416.506 258.09V270.15L412.416 270.96V258.04L416.506 258.09Z" fill="url(#paint53_linear)"/>
</g>
<g opacity="0.71">
<path opacity="0.71" d="M407.486 260.09L402.006 258.62V227.73L407.486 226.26V260.09Z" fill="url(#paint54_linear)"/>
</g>
<path d="M418.266 228.08L418.125 257.27L425.695 258.5V227.86L418.266 228.08Z" fill="url(#paint55_linear)"/>
<path d="M425.696 227.86V258.5L407.486 260.09V226.26L425.696 227.86Z" fill="url(#paint56_linear)"/>
<path d="M425.696 258.5L407.486 260.09L402.006 258.62L418.126 257.27L425.696 258.5Z" fill="url(#paint57_linear)"/>
<path d="M402.006 227.73H408.026L418.116 228.08L425.696 227.86L407.486 226.26L402.006 227.73Z" fill="url(#paint58_linear)"/>
<path d="M407.486 226.26C407.486 226.26 408.246 240.07 408.246 249.56C408.246 259.05 407.486 260.09 407.486 260.09V226.26Z" fill="url(#paint59_linear)"/>
<path d="M504.496 181.15L503.106 181.05V166.81L504.496 166.72V181.15Z" fill="url(#paint60_linear)"/>
<path d="M508.586 166.77V181.1L504.496 181.15V166.72L508.586 166.77Z" fill="url(#paint61_linear)"/>
<path d="M504.496 269.51L503.106 269.41V256.69L504.496 256.59V269.51Z" fill="url(#paint62_linear)"/>
<path d="M508.586 256.64V268.7L504.496 269.51V256.59L508.586 256.64Z" fill="url(#paint63_linear)"/>
<path d="M499.576 258.64L494.086 257.17V180.8L499.576 179.33V258.64Z" fill="url(#paint64_linear)"/>
<path d="M510.346 181.15L510.206 255.82L517.776 257.04V180.92L510.346 181.15Z" fill="url(#paint65_linear)"/>
<path d="M517.776 180.92V257.04L499.576 258.64V179.33L517.776 180.92Z" fill="url(#paint66_linear)"/>
<path d="M517.776 257.04L499.576 258.64L494.086 257.17L510.206 255.82L517.776 257.04Z" fill="url(#paint67_linear)"/>
<path d="M494.086 180.8H500.116L510.196 181.15L517.776 180.92L499.576 179.33L494.086 180.8Z" fill="url(#paint68_linear)"/>
<path d="M499.576 179.33C499.576 179.33 500.336 215.88 500.336 225.37C500.336 234.86 499.576 258.64 499.576 258.64V179.33Z" fill="url(#paint69_linear)"/>
<path d="M364.396 181.34L363.006 181.24V167L364.396 166.91V181.34Z" fill="url(#paint70_linear)"/>
<path d="M368.486 166.96V181.29L364.396 181.34V166.91L368.486 166.96Z" fill="url(#paint71_linear)"/>
<path d="M364.396 253.02L363.006 252.93V240.2L364.396 240.11V253.02Z" fill="url(#paint72_linear)"/>
<path d="M368.486 240.16V252.21L364.396 253.02V240.11L368.486 240.16Z" fill="url(#paint73_linear)"/>
<path d="M359.476 242.15L353.986 240.68V180.99L359.476 179.52V242.15Z" fill="url(#paint74_linear)"/>
<path d="M370.245 181.34L370.105 239.34L377.675 240.56V181.11L370.245 181.34Z" fill="url(#paint75_linear)"/>
<path d="M377.676 181.11V240.56L359.476 242.15V179.52L377.676 181.11Z" fill="url(#paint76_linear)"/>
<path d="M377.676 240.56L359.476 242.15L353.986 240.68L370.106 239.34L377.676 240.56Z" fill="url(#paint77_linear)"/>
<path d="M353.986 180.99H360.016L370.096 181.34L377.676 181.11L359.476 179.52L353.986 180.99Z" fill="url(#paint78_linear)"/>
<path d="M359.476 179.52C359.476 179.52 360.236 200.91 360.236 210.4C360.236 219.89 359.476 242.15 359.476 242.15V179.52Z" fill="url(#paint79_linear)"/>
<path d="M459.226 204.76L457.826 204.67V190.42L459.226 190.33V204.76Z" fill="url(#paint80_linear)"/>
<path d="M463.306 190.38V204.71L459.226 204.76V190.33L463.306 190.38Z" fill="url(#paint81_linear)"/>
<path d="M459.226 262.8L457.826 262.71V249.98L459.226 249.89V262.8Z" fill="url(#paint82_linear)"/>
<path d="M463.306 249.93V261.99L459.226 262.8V249.89L463.306 249.93Z" fill="url(#paint83_linear)"/>
<path d="M454.296 251.93L448.806 250.46V204.41L454.296 202.94V251.93Z" fill="url(#paint84_linear)"/>
<path d="M465.066 204.76L464.926 249.11L472.496 250.34V204.54L465.066 204.76Z" fill="url(#paint85_linear)"/>
<path d="M472.496 204.54V250.34L454.296 251.93V202.94L472.496 204.54Z" fill="url(#paint86_linear)"/>
<path d="M472.496 250.34L454.296 251.93L448.806 250.46L464.926 249.11L472.496 250.34Z" fill="url(#paint87_linear)"/>
<path d="M448.806 204.41H454.836L464.926 204.76L472.496 204.54L454.296 202.94L448.806 204.41Z" fill="url(#paint88_linear)"/>
<path d="M454.296 202.94C454.296 202.94 455.056 216.75 455.056 226.24C455.056 235.73 454.296 251.93 454.296 251.93V202.94Z" fill="url(#paint89_linear)"/>
<path d="M412.416 228.08L411.016 227.99V213.74L412.416 213.65V228.08Z" fill="url(#paint90_linear)"/>
<g opacity="0.71">
<path opacity="0.71" d="M416.506 213.7V228.03L412.416 228.08V213.65L416.506 213.7Z" fill="url(#paint91_linear)"/>
</g>
<path d="M412.416 270.96L411.016 270.87V258.14L412.416 258.04V270.96Z" fill="url(#paint92_linear)"/>
<g opacity="0.71">
<path opacity="0.71" d="M416.506 258.09V270.15L412.416 270.96V258.04L416.506 258.09Z" fill="url(#paint93_linear)"/>
</g>
<g opacity="0.71">
<path opacity="0.71" d="M407.486 260.09L402.006 258.62V227.73L407.486 226.26V260.09Z" fill="url(#paint94_linear)"/>
</g>
<path d="M418.266 228.08L418.125 257.27L425.695 258.5V227.86L418.266 228.08Z" fill="url(#paint95_linear)"/>
<path d="M425.696 227.86V258.5L407.486 260.09V226.26L425.696 227.86Z" fill="url(#paint96_linear)"/>
<path d="M425.696 258.5L407.486 260.09L402.006 258.62L418.126 257.27L425.696 258.5Z" fill="url(#paint97_linear)"/>
<path d="M402.006 227.73H408.026L418.116 228.08L425.696 227.86L407.486 226.26L402.006 227.73Z" fill="url(#paint98_linear)"/>
<path d="M407.486 226.26C407.486 226.26 408.246 240.07 408.246 249.56C408.246 259.05 407.486 260.09 407.486 260.09V226.26Z" fill="url(#paint99_linear)"/>
<path opacity="0.31" d="M420.176 397.46L429.686 386.36C430.216 385.74 431.116 385.61 431.806 386.04L449.916 401.46V385.94L431.386 371.14C430.706 370.75 429.846 370.89 429.326 371.48L420.176 381.94V397.46V397.46Z" fill="#171822"/>
<path d="M493.006 450.28L481.286 457.05L484.326 448L492.086 441.94V436.96L486.596 441.25L489.536 432.5L492.066 424.97L491.336 425.39L486.626 428.11L485.206 428.93L484.026 432.43L480.126 444.03L479.096 447.09L477.566 448.28L472.556 452.19V456.61V457.17L476.576 454.03L476.826 453.84L473.886 462.6C473.256 464.47 473.516 465.95 474.316 466.64L474.306 466.65L474.456 466.74C474.526 466.79 474.606 466.84 474.686 466.88L478.076 468.92L479.256 468.04L478.666 465.81L478.546 465.71L486.466 461.14L492.086 457.9L494.786 449.24L493.006 450.28Z" fill="#6D1EDE"/>
<path d="M495.626 439.08L492.076 436.97L489.286 441.55L489.436 443.76L495.626 439.08Z" fill="url(#paint100_linear)"/>
<path d="M498.326 451.38L494.776 449.26L486.306 454.2L482.306 460.27L483.026 461.87L495.266 458.25L498.326 451.38Z" fill="url(#paint101_linear)"/>
<path d="M496.546 452.4L484.826 459.17L487.866 450.12L495.626 444.06V439.08L490.136 443.37L493.076 434.62L495.606 427.09L494.876 427.51L490.166 430.23L488.746 431.05L487.566 434.55L483.666 446.15L482.636 449.21L481.106 450.4L476.096 454.31V458.73V459.29L480.116 456.15L480.366 455.96L477.426 464.72C476.306 468.06 478.016 470.19 480.616 468.69L490.016 463.27L495.636 460.03L498.336 451.37L496.546 452.4Z" fill="url(#paint102_linear)"/>
<path d="M495.606 427.09L492.056 424.97L485.196 428.93L488.746 431.05L495.606 427.09Z" fill="url(#paint103_linear)"/>
<path d="M476.106 454.32L472.556 452.2L472.546 457.14L476.106 459.3V454.32Z" fill="url(#paint104_linear)"/>
<path d="M537.595 290.87L483.079 330.69L495.232 332.097C495.205 332.097 495.179 332.097 495.161 332.105C494.879 332.185 494.782 332.967 494.694 333.257C493.751 336.105 492.738 338.927 491.68 341.74C489.309 348.025 486.701 354.249 483.581 360.2C482.056 363.109 480.417 365.966 478.505 368.638C476.874 370.915 474.98 373.341 472.503 374.748C471.525 375.302 470.432 375.644 469.304 375.486C472.653 375.943 475.993 376.409 479.342 376.866C486.375 377.833 493.407 378.8 500.44 379.767C506.662 380.62 512.875 381.481 519.097 382.334C520.489 382.527 521.891 382.721 523.283 382.914C526.711 383.38 529.496 380.321 531.453 377.912C535.498 372.919 538.485 367.039 541.156 361.228C543.799 355.47 546.144 349.581 548.285 343.621C548.77 342.276 549.237 340.922 549.695 339.577C550.057 338.522 550.4 337.468 550.744 336.413L564.095 338.733L537.595 290.87Z" fill="url(#paint105_linear)"/>
<path d="M522.825 387.96L468.67 380.163C467.145 379.943 465.956 379.284 465.03 378.308C464.105 377.332 463.426 376.04 462.933 374.554C462.43 373.069 462.113 371.39 461.875 369.641C461.637 367.891 461.496 366.08 461.346 364.322C461.161 362.081 460.976 360.05 460.721 358.257C460.465 356.464 460.13 354.917 459.663 353.633C459.196 352.35 458.588 351.321 457.786 350.592C456.975 349.853 455.962 349.405 454.684 349.273L508.213 354.89C509.562 355.031 510.628 355.506 511.474 356.297C512.32 357.079 512.955 358.178 513.439 359.558C513.924 360.938 514.268 362.599 514.532 364.516C514.796 366.432 514.99 368.603 515.167 371.012C515.308 372.893 515.457 374.845 515.704 376.708C515.942 378.58 516.286 380.374 516.806 381.965C517.326 383.556 518.022 384.936 519 385.982C519.978 387.019 521.221 387.722 522.825 387.96Z" fill="url(#paint106_linear)"/>
<path d="M477.571 390.526C480.761 383.846 483.881 377.121 487.37 370.59C488.974 367.584 490.675 364.621 492.561 361.782C494.438 358.943 496.509 356.165 499.021 353.853C501.577 351.497 504.829 349.519 508.442 349.8C507.243 349.686 506.036 349.563 504.838 349.449C501.797 349.15 498.765 348.851 495.725 348.552C491.706 348.157 487.679 347.761 483.66 347.366C479.509 346.952 475.35 346.548 471.199 346.135C467.762 345.801 464.325 345.458 460.879 345.115C459.011 344.931 457.133 344.746 455.265 344.561C450.832 344.122 447.113 346.864 444.249 349.968C439.314 355.312 435.824 361.975 432.546 368.41C428.932 375.504 425.636 382.756 422.023 389.85C420.331 393.164 418.586 396.451 416.612 399.616C414.752 402.596 412.655 405.892 409.676 407.888C408.381 408.758 407.006 409.013 405.49 408.705C408.231 409.25 410.972 409.795 413.712 410.34C419.652 411.518 425.583 412.696 431.523 413.874C437.34 415.025 443.165 416.186 448.982 417.337C450.823 417.706 452.657 418.067 454.498 418.436C455.468 418.629 456.472 418.884 457.46 418.928C459.434 419.007 461.187 417.61 462.509 416.291C464.369 414.428 465.902 412.23 467.312 410.015C470.432 405.11 473.041 399.888 475.579 394.667C476.249 393.278 476.91 391.898 477.571 390.526C477.412 390.861 478.073 389.463 477.571 390.526Z" fill="url(#paint107_linear)"/>
<path d="M449.467 420.801C448.056 419.333 447.034 417.46 446.276 415.324C445.51 413.188 445.007 410.806 444.637 408.336C444.267 405.866 444.029 403.308 443.8 400.82C443.535 397.946 443.262 395.335 442.901 393.023C442.54 390.711 442.073 388.689 441.438 387.002C440.803 385.314 439.984 383.951 438.891 382.949C437.807 381.947 436.45 381.297 434.74 381.033L385.053 373.482C386.675 373.728 387.961 374.335 388.993 375.275C390.024 376.216 390.808 377.482 391.416 379.064C392.024 380.637 392.465 382.518 392.817 384.672C393.17 386.826 393.434 389.261 393.69 391.942C393.91 394.254 394.148 396.645 394.501 398.948C394.862 401.251 395.338 403.475 396.069 405.461C396.801 407.448 397.77 409.206 399.11 410.569C400.449 411.94 402.141 412.925 404.327 413.364L454.957 423.772C452.666 423.315 450.877 422.269 449.467 420.801Z" fill="url(#paint108_linear)"/>
<path d="M550.735 336.413C551.907 336.888 553.071 337.362 554.243 337.828C554.34 337.863 554.701 337.951 554.745 338.03C554.842 338.197 554.472 338.98 554.41 339.191C554.058 340.281 553.696 341.362 553.326 342.452C551.378 348.148 549.255 353.783 546.875 359.312C544.407 365.043 541.684 370.713 538.335 375.979C536.864 378.29 535.26 380.541 533.409 382.58C531.558 384.619 529.355 386.589 526.72 387.529C524.49 388.329 521.864 388.224 519.917 386.782C517.722 385.164 516.797 382.334 516.25 379.785C514.964 373.816 515.396 367.601 514.056 361.641C513.51 359.233 512.567 356.49 510.143 355.383C507.64 354.231 505.049 355.136 502.969 356.71C500.713 358.415 498.915 360.71 497.303 363.004C495.567 365.465 494.024 368.05 492.561 370.669C486.322 381.851 481.475 393.726 475.508 405.048C472.768 410.244 469.824 415.658 465.656 419.869C463.787 421.75 461.522 423.464 458.843 423.93C456.332 424.361 453.467 423.693 451.335 422.322C446.532 419.227 445.271 412.802 444.549 407.571C443.72 401.559 443.703 395.388 442.222 389.481C441.605 387.019 440.662 384.409 438.662 382.73C436.811 381.165 434.194 380.673 431.832 381.024C426.606 381.815 422.34 386.193 419.088 390.026C415.405 394.359 412.302 399.176 409.447 404.073C406.239 409.593 403.349 415.289 400.652 421.073C395.443 432.22 390.861 443.674 386.833 455.294C386.075 457.474 385.344 459.663 384.639 461.87C383.449 461.492 382.259 461.105 381.07 460.727C380.858 460.657 380.153 460.534 380.091 460.358C380.047 460.235 380.25 459.865 380.294 459.742C380.47 459.206 380.647 458.679 380.823 458.143C382.559 452.965 384.419 447.831 386.357 442.733C390.905 430.804 395.928 419.016 401.912 407.73C404.662 402.543 407.632 397.445 411.007 392.636C414.25 388.021 417.899 383.503 422.402 380.048C426.879 376.62 432.475 374.528 438.045 376.48C443.456 378.37 445.835 383.793 446.972 388.997C448.303 395.071 448.338 401.33 449.273 407.457C450.004 412.239 451.634 419.183 457.839 418.902C460.421 418.788 462.536 416.406 464.061 414.56C465.973 412.248 467.568 409.69 469.075 407.105C472.301 401.559 475.077 395.757 477.844 389.964C480.629 384.136 483.352 378.273 486.339 372.55C489.177 367.1 492.218 361.615 496.166 356.877C499.62 352.737 504.388 348.702 510.161 350.047C515.986 351.401 517.969 357.457 518.797 362.696C519.308 365.887 519.458 369.113 519.749 372.322C519.978 374.862 520.207 377.482 520.93 379.943C521.221 380.919 521.617 382.07 522.534 382.624C523.644 383.292 525.151 382.976 526.253 382.466C528.729 381.305 530.642 379.011 532.255 376.884C535.947 372.014 538.75 366.45 541.297 360.912C543.949 355.145 546.276 349.229 548.409 343.252C549.211 340.984 549.995 338.707 550.735 336.413Z" fill="url(#paint109_linear)"/>
<path d="M385.741 368.682C381.123 368.014 376.795 369.931 373.182 372.682C368.978 375.882 365.559 380.084 362.519 384.365C356.094 393.419 351.079 403.475 346.567 413.584C342.152 423.482 338.195 433.582 334.67 443.832C334.317 444.851 333.974 445.871 333.639 446.891C333.551 447.172 333.507 447.111 333.621 447.225C333.797 447.392 334.388 447.445 334.608 447.506C336.177 447.954 337.746 448.394 339.314 448.842C344.681 450.363 350.048 451.893 355.415 453.413C361.029 455.004 366.652 456.604 372.266 458.195C374.143 458.731 376.029 459.259 377.906 459.795C378.435 459.945 378.963 460.094 379.492 460.243C379.589 460.27 379.95 460.446 380.056 460.402C380.197 460.349 380.426 459.259 380.488 459.083C380.664 458.538 380.849 458.002 381.034 457.457C381.44 456.27 381.845 455.083 382.259 453.897C383.105 451.462 383.987 449.044 384.877 446.627C386.807 441.432 388.825 436.272 390.958 431.156C395.399 420.493 400.299 409.953 406.23 400.02C409.095 395.221 412.223 390.544 415.889 386.316C419.229 382.466 423.16 378.695 427.981 376.796C430.378 375.847 432.925 375.495 435.48 375.864C433.832 375.627 432.176 375.389 430.528 375.143C426.562 374.572 422.596 374.001 418.63 373.42C413.854 372.726 409.077 372.04 404.3 371.346C400.158 370.748 396.008 370.15 391.865 369.544C389.856 369.254 387.847 368.964 385.837 368.674C385.793 368.691 385.767 368.682 385.741 368.682Z" fill="url(#paint110_linear)"/>
<path d="M569.551 340.746L542.963 293.164L537.596 290.87L564.078 338.733L569.551 340.746Z" fill="url(#paint111_linear)"/>
<path d="M550.736 336.413L554.772 338.048L569.551 340.747L563.876 338.742L550.736 336.413Z" fill="#86839A"/>
<path d="M386.349 442.742C388.393 437.265 390.526 431.824 392.808 426.444C395.109 421.073 397.576 415.764 400.229 410.551C402.882 405.339 405.711 400.214 408.91 395.3C412.126 390.421 415.607 385.639 419.987 381.684C422.182 379.732 424.614 377.974 427.355 376.831C430.078 375.68 433.136 375.152 436.08 375.724C437.543 376.005 438.97 376.497 440.239 377.288C441.508 378.071 442.61 379.108 443.509 380.295C445.316 382.668 446.329 385.507 446.999 388.356C448.33 394.087 448.435 399.968 449.167 405.752C449.528 408.635 449.96 411.553 451.141 414.226C451.74 415.544 452.569 416.793 453.732 417.672C454.886 418.568 456.376 418.981 457.839 418.902C456.376 418.999 454.869 418.612 453.688 417.724C452.498 416.854 451.643 415.597 451.018 414.278C449.784 411.597 449.308 408.67 448.894 405.778C448.127 399.985 447.986 394.104 446.638 388.435C445.959 385.622 444.937 382.835 443.174 380.541C442.302 379.398 441.235 378.405 440.01 377.658C438.785 376.91 437.41 376.436 435.992 376.172C433.154 375.636 430.193 376.154 427.549 377.288C424.879 378.414 422.517 380.145 420.358 382.088C416.013 385.965 412.523 390.703 409.289 395.546C406.072 400.416 403.225 405.514 400.546 410.71C397.867 415.896 395.391 421.188 393.046 426.541C390.693 431.894 388.473 437.301 386.349 442.742Z" fill="white"/>
<path d="M469.066 407.114C473.482 399.326 476.998 391.098 480.955 383.081L483.872 377.042C484.868 375.038 485.784 372.998 486.842 371.029C488.922 367.074 491.125 363.153 493.769 359.505C495.1 357.694 496.51 355.936 498.122 354.345C499.735 352.78 501.542 351.339 503.666 350.451C504.714 350.012 505.834 349.704 506.979 349.59C508.125 349.493 509.28 349.607 510.39 349.88C512.628 350.433 514.603 351.893 515.863 353.783C517.158 355.664 517.925 357.826 518.436 360.015C518.956 362.204 519.212 364.437 519.414 366.661L519.908 373.35C520.093 375.574 520.322 377.807 520.93 379.96C520.278 377.816 520.005 375.583 519.776 373.359L519.141 366.687C518.912 364.472 518.63 362.248 518.092 360.094C517.564 357.94 516.779 355.831 515.51 354.029C514.268 352.218 512.391 350.873 510.267 350.346C509.209 350.091 508.107 349.994 507.015 350.082C505.931 350.196 504.864 350.486 503.86 350.917C501.833 351.77 500.079 353.185 498.493 354.723C496.924 356.288 495.531 358.028 494.218 359.83C491.592 363.426 489.389 367.32 487.291 371.258C485.238 375.222 483.343 379.275 481.334 383.266L475.412 395.3C473.429 399.299 471.358 403.264 469.066 407.114Z" fill="white"/>
<path d="M421.91 518.464V542.69C421.91 554.042 403.418 563.249 380.609 563.249V518.464H421.91V518.464Z" fill="url(#paint112_linear)"/>
<path d="M380.597 497.905C403.406 497.905 421.897 507.112 421.897 518.464H380.597L365.005 499.426C369.817 498.451 375.083 497.905 380.597 497.905Z" fill="url(#paint113_linear)"/>
<path d="M380.598 506.5V553.366L349.531 566.695C343.16 563.067 339.297 558.333 339.297 553.145V506.5H380.598Z" fill="url(#paint114_linear)"/>
<path d="M349.531 506.5V566.682C343.16 563.067 339.297 558.333 339.297 553.145V506.5H349.531Z" fill="#5A43DB"/>
<path d="M365.006 487.462L380.597 506.5L349.531 520.05C346.28 518.203 343.679 516.071 341.924 513.73C340.22 511.48 339.297 509.049 339.297 506.5C339.297 497.891 349.921 490.531 365.006 487.462Z" fill="#986DFF"/>
<path d="M349.53 552.052V566.695C357.098 570.999 368.203 573.717 380.596 573.717C403.405 573.717 421.896 564.51 421.896 553.158V538.515H380.596L349.53 552.052Z" fill="url(#paint115_linear)"/>
<path d="M349.53 552.053C349.842 552.235 350.167 552.417 350.492 552.599C358.035 556.592 368.724 559.088 380.596 559.088C403.405 559.088 421.897 549.882 421.897 538.529H380.596L349.53 552.053Z" fill="url(#paint116_linear)"/>
<path d="M255.832 398.009C254.83 396.672 254.66 394.826 255.531 393.287L277.167 355.182L285.355 358.407L263.042 397.544C261.858 399.617 259.232 400.347 257.151 399.17C256.615 398.872 256.173 398.465 255.832 398.009Z" fill="url(#paint117_linear)"/>
<path d="M300.706 356.718C312.352 347.996 320.414 331.502 318.807 318.113C318.079 312.036 315.62 308.069 312.093 306.312L303.296 302.456L307.388 308.137L309.48 314.766L308.841 324.54L305.456 334.483L300.107 344.374L290.491 353.187L283.197 356.426L274.97 357.152L283.635 360.932C288.096 362.951 294.239 361.562 300.706 356.718Z" fill="url(#paint118_linear)"/>
<path d="M296.506 311.539C300.236 308.746 303.819 307.174 307.051 306.753C299.725 300.907 294.584 303.334 288.1 308.189C276.83 316.63 269.175 333.032 270.666 345.533C271.028 348.536 271.874 350.95 273.187 352.703C274.152 353.992 276.418 357.017 279.707 356.654C278.982 355.035 278.469 353.133 278.209 350.917C276.562 337.257 284.86 320.261 296.506 311.539Z" fill="url(#paint119_linear)"/>
<path d="M310.35 314.427C308.719 300.756 298.327 297.756 286.673 306.484C275.027 315.206 266.73 332.202 268.368 345.868C269.975 359.257 280.603 361.754 292.249 353.032C303.901 344.318 311.957 327.816 310.35 314.427ZM276.783 355.369C275.376 354.874 274.15 354.006 273.185 352.717C271.872 350.964 271.026 348.549 270.664 345.547C269.167 333.038 276.822 316.635 288.1 308.189C294.584 303.334 300.406 302.384 304.124 305.446C304.636 305.863 305.107 306.359 305.539 306.935C306.942 308.808 307.85 311.389 308.236 314.623C309.723 327.002 302.308 342.725 291.006 351.189C285.571 355.26 280.505 356.668 276.783 355.369Z" fill="url(#paint120_linear)"/>
<defs>
<linearGradient id="paint0_linear" x1="571.926" y1="476.761" x2="551.759" y2="466.634" gradientUnits="userSpaceOnUse">
<stop stop-color="#2A2B3F"/>
<stop offset="1" stop-color="#2A2B3F" stop-opacity="0"/>
</linearGradient>
<linearGradient id="paint1_linear" x1="558.725" y1="463.037" x2="549.103" y2="456.763" gradientUnits="userSpaceOnUse">
<stop stop-color="#871D92"/>
<stop offset="0.3909" stop-color="#A21377"/>
<stop offset="1" stop-color="#D30045"/>
</linearGradient>
<linearGradient id="paint2_linear" x1="566.588" y1="453.333" x2="564.24" y2="472.503" gradientUnits="userSpaceOnUse">
<stop stop-color="#9742C7"/>
<stop offset="0.3007" stop-color="#AE36AC"/>
<stop offset="0.9449" stop-color="#E71666"/>
<stop offset="1" stop-color="#EC1360"/>
</linearGradient>
<linearGradient id="paint3_linear" x1="548.836" y1="451.417" x2="572.597" y2="451.417" gradientUnits="userSpaceOnUse">
<stop stop-color="#7F001C"/>
<stop offset="0.3539" stop-color="#700061"/>
<stop offset="0.6515" stop-color="#650094"/>
<stop offset="0.8755" stop-color="#5E00B3"/>
<stop offset="1" stop-color="#5B00BF"/>
</linearGradient>
<linearGradient id="paint4_linear" x1="550.197" y1="450.74" x2="571.303" y2="450.74" gradientUnits="userSpaceOnUse">
<stop stop-color="#7F001C"/>
<stop offset="0.3539" stop-color="#700061"/>
<stop offset="0.6515" stop-color="#650094"/>
<stop offset="0.8755" stop-color="#5E00B3"/>
<stop offset="1" stop-color="#5B00BF"/>
</linearGradient>
<linearGradient id="paint5_linear" x1="560.445" y1="438.836" x2="573.164" y2="438.836" gradientUnits="userSpaceOnUse">
<stop stop-color="#FF6FFF"/>
<stop offset="0.6387" stop-color="#D436E0"/>
<stop offset="1" stop-color="#C01BD1"/>
</linearGradient>
<linearGradient id="paint6_linear" x1="551.473" y1="431.549" x2="561.35" y2="444.912" gradientUnits="userSpaceOnUse">
<stop stop-color="#FF0054"/>
<stop offset="0.2072" stop-color="#F10670"/>
<stop offset="0.7476" stop-color="#CE15B6"/>
<stop offset="1" stop-color="#C01BD1"/>
</linearGradient>
<linearGradient id="paint7_linear" x1="563.265" y1="423.446" x2="561.81" y2="438.52" gradientUnits="userSpaceOnUse">
<stop stop-color="#C01BD1" stop-opacity="0"/>
<stop offset="0.1461" stop-color="#C836D7" stop-opacity="0.0441"/>
<stop offset="0.4615" stop-color="#DB7DE5" stop-opacity="0.1392"/>
<stop offset="0.9187" stop-color="#FAECFB" stop-opacity="0.2771"/>
<stop offset="0.9947" stop-color="white" stop-opacity="0.3"/>
</linearGradient>
<linearGradient id="paint8_linear" x1="563.337" y1="422.707" x2="561.026" y2="446.648" gradientUnits="userSpaceOnUse">
<stop stop-color="#C01BD1" stop-opacity="0"/>
<stop offset="0.1461" stop-color="#C836D7" stop-opacity="0.0441"/>
<stop offset="0.4615" stop-color="#DB7DE5" stop-opacity="0.1392"/>
<stop offset="0.9187" stop-color="#FAECFB" stop-opacity="0.2771"/>
<stop offset="0.9947" stop-color="white" stop-opacity="0.3"/>
</linearGradient>
<radialGradient id="paint9_radial" cx="0" cy="0" r="1" gradientUnits="userSpaceOnUse" gradientTransform="translate(560.695 438.836) scale(10.1806)">
<stop offset="0.00534759" stop-color="white" stop-opacity="0.7"/>
<stop offset="0.0813" stop-color="#FAECFB" stop-opacity="0.6465"/>
<stop offset="0.5385" stop-color="#DB7DE5" stop-opacity="0.3248"/>
<stop offset="0.8539" stop-color="#C836D7" stop-opacity="0.1028"/>
<stop offset="1" stop-color="#C01BD1" stop-opacity="0"/>
</radialGradient>
<linearGradient id="paint10_linear" x1="573.378" y1="456.872" x2="564.589" y2="462.052" gradientUnits="userSpaceOnUse">
<stop stop-color="#C01BD1" stop-opacity="0"/>
<stop offset="0.1461" stop-color="#C836D7" stop-opacity="0.0441"/>
<stop offset="0.4615" stop-color="#DB7DE5" stop-opacity="0.1392"/>
<stop offset="0.9187" stop-color="#FAECFB" stop-opacity="0.2771"/>
<stop offset="0.9947" stop-color="white" stop-opacity="0.3"/>
</linearGradient>
<linearGradient id="paint11_linear" x1="573.378" y1="456.872" x2="564.589" y2="462.052" gradientUnits="userSpaceOnUse">
<stop stop-color="#C01BD1" stop-opacity="0"/>
<stop offset="0.1461" stop-color="#C836D7" stop-opacity="0.0735"/>
<stop offset="0.4615" stop-color="#DB7DE5" stop-opacity="0.232"/>
<stop offset="0.9187" stop-color="#FAECFB" stop-opacity="0.4618"/>
<stop offset="0.9947" stop-color="white" stop-opacity="0.5"/>
</linearGradient>
<linearGradient id="paint12_linear" x1="448.911" y1="306.123" x2="450.021" y2="306.123" gradientUnits="userSpaceOnUse">
<stop stop-color="#46475F"/>
<stop offset="0.4573" stop-color="#66678F"/>
<stop offset="1" stop-color="#575977" stop-opacity="0"/>
</linearGradient>
<linearGradient id="paint13_linear" x1="429.144" y1="306.123" x2="431.629" y2="306.123" gradientUnits="userSpaceOnUse">
<stop stop-color="#66678F"/>
<stop offset="0.5151" stop-color="#8485AD"/>
<stop offset="1" stop-color="#66678F"/>
</linearGradient>
<linearGradient id="paint14_linear" x1="508.565" y1="501.797" x2="507.733" y2="504.054" gradientUnits="userSpaceOnUse">
<stop stop-color="#575977"/>
<stop offset="0.4573" stop-color="#66678F"/>
<stop offset="1" stop-color="#575977"/>
</linearGradient>
<linearGradient id="paint15_linear" x1="590.857" y1="533.371" x2="581.013" y2="78.883" gradientUnits="userSpaceOnUse">
<stop stop-color="#66678F"/>
<stop offset="0.4438" stop-color="#41425D"/>
<stop offset="0.8047" stop-color="#28293B"/>
<stop offset="1" stop-color="#1F202E"/>
</linearGradient>
<linearGradient id="paint16_linear" x1="617.855" y1="65.102" x2="451.043" y2="501.379" gradientUnits="userSpaceOnUse">
<stop stop-color="#58597A"/>
<stop offset="0.995" stop-color="#414359"/>
</linearGradient>
<linearGradient id="paint17_linear" x1="602.847" y1="306.123" x2="606.214" y2="306.123" gradientUnits="userSpaceOnUse">
<stop stop-color="#66678F"/>
<stop offset="0.5151" stop-color="#8485AD"/>
<stop offset="1" stop-color="#66678F"/>
</linearGradient>
<linearGradient id="paint18_linear" x1="512.409" y1="85.1486" x2="512.674" y2="85.8024" gradientUnits="userSpaceOnUse">
<stop stop-color="#66678F"/>
<stop offset="0.5151" stop-color="#8485AD"/>
<stop offset="1" stop-color="#66678F"/>
</linearGradient>
<linearGradient id="paint19_linear" x1="507.581" y1="107.776" x2="508.383" y2="110.003" gradientUnits="userSpaceOnUse">
<stop stop-color="#575977" stop-opacity="0"/>
<stop offset="0.4573" stop-color="#66678F"/>
<stop offset="1" stop-color="#575977"/>
</linearGradient>
<linearGradient id="paint20_linear" x1="503.954" y1="166.932" x2="503.657" y2="180.577" gradientUnits="userSpaceOnUse">
<stop stop-color="#B903E5" stop-opacity="0.5"/>
<stop offset="0.0931" stop-color="#A409E5" stop-opacity="0.5"/>
<stop offset="0.4155" stop-color="#5E1FE7" stop-opacity="0.5"/>
<stop offset="0.6848" stop-color="#2B2EE8" stop-opacity="0.5"/>
<stop offset="0.8874" stop-color="#0C37E9" stop-opacity="0.5"/>
<stop offset="1" stop-color="#003BE9" stop-opacity="0.5"/>
</linearGradient>
<linearGradient id="paint21_linear" x1="506.544" y1="181.469" x2="506.544" y2="167.04" gradientUnits="userSpaceOnUse">
<stop stop-color="#422AA2"/>
<stop offset="0.4621" stop-color="#5522AE"/>
<stop offset="1" stop-color="#7117BE"/>
</linearGradient>
<linearGradient id="paint22_linear" x1="503.801" y1="269.369" x2="503.801" y2="258.738" gradientUnits="userSpaceOnUse">
<stop stop-color="#B903E5" stop-opacity="0.5"/>
<stop offset="0.0931" stop-color="#A409E5" stop-opacity="0.5"/>
<stop offset="0.4155" stop-color="#5E1FE7" stop-opacity="0.5"/>
<stop offset="0.6848" stop-color="#2B2EE8" stop-opacity="0.5"/>
<stop offset="0.8874" stop-color="#0C37E9" stop-opacity="0.5"/>
<stop offset="1" stop-color="#003BE9" stop-opacity="0.5"/>
</linearGradient>
<linearGradient id="paint23_linear" x1="506.544" y1="269.418" x2="506.544" y2="256.713" gradientUnits="userSpaceOnUse">
<stop stop-color="#B903E5" stop-opacity="0.2"/>
<stop offset="0.0931" stop-color="#A409E5" stop-opacity="0.2"/>
<stop offset="0.4155" stop-color="#5E1FE7" stop-opacity="0.2"/>
<stop offset="0.6848" stop-color="#2B2EE8" stop-opacity="0.2"/>
<stop offset="0.8874" stop-color="#0C37E9" stop-opacity="0.2"/>
<stop offset="1" stop-color="#003BE9" stop-opacity="0.2"/>
</linearGradient>
<linearGradient id="paint24_linear" x1="494.089" y1="218.984" x2="499.575" y2="218.984" gradientUnits="userSpaceOnUse">
<stop stop-color="#B903E5" stop-opacity="0.2"/>
<stop offset="0.0931" stop-color="#A409E5" stop-opacity="0.2"/>
<stop offset="0.4155" stop-color="#5E1FE7" stop-opacity="0.2"/>
<stop offset="0.6848" stop-color="#2B2EE8" stop-opacity="0.2"/>
<stop offset="0.8874" stop-color="#0C37E9" stop-opacity="0.2"/>
<stop offset="1" stop-color="#003BE9" stop-opacity="0.2"/>
</linearGradient>
<linearGradient id="paint25_linear" x1="501.63" y1="251.108" x2="544.813" y2="139.919" gradientUnits="userSpaceOnUse">
<stop stop-color="#B903E5" stop-opacity="0.2"/>
<stop offset="0.0931" stop-color="#A409E5" stop-opacity="0.2"/>
<stop offset="0.4155" stop-color="#5E1FE7" stop-opacity="0.2"/>
<stop offset="0.6848" stop-color="#2B2EE8" stop-opacity="0.2"/>
<stop offset="0.8874" stop-color="#0C37E9" stop-opacity="0.2"/>
<stop offset="1" stop-color="#003BE9" stop-opacity="0.2"/>
</linearGradient>
<linearGradient id="paint26_linear" x1="507.756" y1="258.462" x2="509.535" y2="180.598" gradientUnits="userSpaceOnUse">
<stop stop-color="#B903E5" stop-opacity="0.5"/>
<stop offset="0.0931" stop-color="#A409E5" stop-opacity="0.5"/>
<stop offset="0.4155" stop-color="#5E1FE7" stop-opacity="0.5"/>
<stop offset="0.6848" stop-color="#2B2EE8" stop-opacity="0.5"/>
<stop offset="0.8874" stop-color="#0C37E9" stop-opacity="0.5"/>
<stop offset="1" stop-color="#003BE9" stop-opacity="0.5"/>
</linearGradient>
<linearGradient id="paint27_linear" x1="504.416" y1="261.014" x2="509.589" y2="247.694" gradientUnits="userSpaceOnUse">
<stop stop-color="#B903E5" stop-opacity="0.2"/>
<stop offset="0.0931" stop-color="#A409E5" stop-opacity="0.2"/>
<stop offset="0.4155" stop-color="#5E1FE7" stop-opacity="0.2"/>
<stop offset="0.6848" stop-color="#2B2EE8" stop-opacity="0.2"/>
<stop offset="0.8874" stop-color="#0C37E9" stop-opacity="0.2"/>
<stop offset="1" stop-color="#003BE9" stop-opacity="0.2"/>
</linearGradient>
<linearGradient id="paint28_linear" x1="504.457" y1="184.664" x2="509.491" y2="171.702" gradientUnits="userSpaceOnUse">
<stop stop-color="#B903E5" stop-opacity="0.2"/>
<stop offset="0.0931" stop-color="#A409E5" stop-opacity="0.2"/>
<stop offset="0.4155" stop-color="#5E1FE7" stop-opacity="0.2"/>
<stop offset="0.6848" stop-color="#2B2EE8" stop-opacity="0.2"/>
<stop offset="0.8874" stop-color="#0C37E9" stop-opacity="0.2"/>
<stop offset="1" stop-color="#003BE9" stop-opacity="0.2"/>
</linearGradient>
<linearGradient id="paint29_linear" x1="499.713" y1="179.329" x2="500.01" y2="255.561" gradientUnits="userSpaceOnUse">
<stop stop-color="#B903E5" stop-opacity="0.2"/>
<stop offset="0.1499" stop-color="#C83AED" stop-opacity="0.2"/>
<stop offset="0.4208" stop-color="#E29AFA" stop-opacity="0.2"/>
<stop offset="0.5428" stop-color="#ECC0FF" stop-opacity="0.2"/>
<stop offset="0.6579" stop-color="#A497F8" stop-opacity="0.2"/>
<stop offset="0.7794" stop-color="#5E70F2" stop-opacity="0.2"/>
<stop offset="0.8811" stop-color="#2B53ED" stop-opacity="0.2"/>
<stop offset="0.9575" stop-color="#0C42EA" stop-opacity="0.2"/>
<stop offset="1" stop-color="#003BE9" stop-opacity="0.2"/>
</linearGradient>
<linearGradient id="paint30_linear" x1="363.854" y1="167.121" x2="363.557" y2="180.766" gradientUnits="userSpaceOnUse">
<stop stop-color="#1BF0F1" stop-opacity="0.5"/>
<stop offset="0.4378" stop-color="#1DC2F3" stop-opacity="0.5"/>
<stop offset="0.799" stop-color="#1EA3F4" stop-opacity="0.5"/>
<stop offset="1" stop-color="#1E97F5" stop-opacity="0.5"/>
</linearGradient>
<linearGradient id="paint31_linear" x1="366.444" y1="181.659" x2="366.444" y2="167.229" gradientUnits="userSpaceOnUse">
<stop stop-color="#1F1FF3" stop-opacity="0.5"/>
<stop offset="0.1264" stop-color="#1A3DF3" stop-opacity="0.5"/>
<stop offset="0.4369" stop-color="#0F83F4" stop-opacity="0.5"/>
<stop offset="0.6963" stop-color="#07B6F5" stop-opacity="0.5"/>
<stop offset="0.8915" stop-color="#02D5F5" stop-opacity="0.5"/>
<stop offset="1" stop-color="#00E1F5" stop-opacity="0.5"/>
</linearGradient>
<linearGradient id="paint32_linear" x1="363.701" y1="252.881" x2="363.701" y2="242.25" gradientUnits="userSpaceOnUse">
<stop stop-color="#1BF0F1" stop-opacity="0.5"/>
<stop offset="0.4378" stop-color="#1DC2F3" stop-opacity="0.5"/>
<stop offset="0.799" stop-color="#1EA3F4" stop-opacity="0.5"/>
<stop offset="1" stop-color="#1E97F5" stop-opacity="0.5"/>
</linearGradient>
<linearGradient id="paint33_linear" x1="366.444" y1="252.93" x2="366.444" y2="240.225" gradientUnits="userSpaceOnUse">
<stop stop-color="#1BF0F1" stop-opacity="0.2"/>
<stop offset="0.4378" stop-color="#1DC2F3" stop-opacity="0.2"/>
<stop offset="0.799" stop-color="#1EA3F4" stop-opacity="0.2"/>
<stop offset="1" stop-color="#1E97F5" stop-opacity="0.2"/>
</linearGradient>
<linearGradient id="paint34_linear" x1="353.989" y1="210.835" x2="359.474" y2="210.835" gradientUnits="userSpaceOnUse">
<stop stop-color="#1BF0F1" stop-opacity="0.2"/>
<stop offset="0.4378" stop-color="#1DC2F3" stop-opacity="0.2"/>
<stop offset="0.799" stop-color="#1EA3F4" stop-opacity="0.2"/>
<stop offset="1" stop-color="#1E97F5" stop-opacity="0.2"/>
</linearGradient>
<linearGradient id="paint35_linear" x1="364.244" y1="235.971" x2="398.175" y2="148.604" gradientUnits="userSpaceOnUse">
<stop stop-color="#1BF0F1" stop-opacity="0.2"/>
<stop offset="0.4378" stop-color="#1DC2F3" stop-opacity="0.2"/>
<stop offset="0.799" stop-color="#1EA3F4" stop-opacity="0.2"/>
<stop offset="1" stop-color="#1E97F5" stop-opacity="0.2"/>
</linearGradient>
<linearGradient id="paint36_linear" x1="367.844" y1="242.055" x2="369.25" y2="180.565" gradientUnits="userSpaceOnUse">
<stop stop-color="#1BF0F1" stop-opacity="0.5"/>
<stop offset="0.4378" stop-color="#1DC2F3" stop-opacity="0.5"/>
<stop offset="0.799" stop-color="#1EA3F4" stop-opacity="0.5"/>
<stop offset="1" stop-color="#1E97F5" stop-opacity="0.5"/>
</linearGradient>
<linearGradient id="paint37_linear" x1="364.316" y1="244.527" x2="369.489" y2="231.206" gradientUnits="userSpaceOnUse">
<stop stop-color="#1BF0F1" stop-opacity="0.2"/>
<stop offset="0.4378" stop-color="#1DC2F3" stop-opacity="0.2"/>
<stop offset="0.799" stop-color="#1EA3F4" stop-opacity="0.2"/>
<stop offset="1" stop-color="#1E97F5" stop-opacity="0.2"/>
</linearGradient>
<linearGradient id="paint38_linear" x1="364.356" y1="184.854" x2="369.391" y2="171.891" gradientUnits="userSpaceOnUse">
<stop stop-color="#1BF0F1" stop-opacity="0.2"/>
<stop offset="0.4378" stop-color="#1DC2F3" stop-opacity="0.2"/>
<stop offset="0.799" stop-color="#1EA3F4" stop-opacity="0.2"/>
<stop offset="1" stop-color="#1E97F5" stop-opacity="0.2"/>
</linearGradient>
<linearGradient id="paint39_linear" x1="359.674" y1="179.518" x2="359.909" y2="239.72" gradientUnits="userSpaceOnUse">
<stop stop-color="#1BF0F1" stop-opacity="0.2"/>
<stop offset="0.0969" stop-color="#3AF3F2" stop-opacity="0.2"/>
<stop offset="0.4044" stop-color="#9AFCF6" stop-opacity="0.2"/>
<stop offset="0.5428" stop-color="#C0FFF8" stop-opacity="0.2"/>
<stop offset="0.7031" stop-color="#7CD3F7" stop-opacity="0.2"/>
<stop offset="0.8399" stop-color="#49B3F6" stop-opacity="0.2"/>
<stop offset="0.9428" stop-color="#2A9FF5" stop-opacity="0.2"/>
<stop offset="1" stop-color="#1E97F5" stop-opacity="0.2"/>
</linearGradient>
<linearGradient id="paint40_linear" x1="458.675" y1="190.544" x2="458.378" y2="204.189" gradientUnits="userSpaceOnUse">
<stop stop-color="#E5024E" stop-opacity="0.5"/>
<stop offset="0.0301" stop-color="#DF0254" stop-opacity="0.5"/>
<stop offset="0.3749" stop-color="#990193" stop-opacity="0.5"/>
<stop offset="0.6629" stop-color="#6601C2" stop-opacity="0.5"/>
<stop offset="0.8795" stop-color="#4700DE" stop-opacity="0.5"/>
<stop offset="1" stop-color="#3B00E9" stop-opacity="0.5"/>
</linearGradient>
<linearGradient id="paint41_linear" x1="461.265" y1="205.082" x2="461.265" y2="190.652" gradientUnits="userSpaceOnUse">
<stop stop-color="#892AA2"/>
<stop offset="0.4164" stop-color="#9C2396"/>
<stop offset="1" stop-color="#BE1780"/>
</linearGradient>
<linearGradient id="paint42_linear" x1="458.522" y1="262.659" x2="458.522" y2="252.029" gradientUnits="userSpaceOnUse">
<stop stop-color="#E5024E" stop-opacity="0.5"/>
<stop offset="0.0301" stop-color="#DF0254" stop-opacity="0.5"/>
<stop offset="0.3749" stop-color="#990193" stop-opacity="0.5"/>
<stop offset="0.6629" stop-color="#6601C2" stop-opacity="0.5"/>
<stop offset="0.8795" stop-color="#4700DE" stop-opacity="0.5"/>
<stop offset="1" stop-color="#3B00E9" stop-opacity="0.5"/>
</linearGradient>
<linearGradient id="paint43_linear" x1="461.265" y1="262.709" x2="461.265" y2="250.004" gradientUnits="userSpaceOnUse">
<stop stop-color="#E5024E" stop-opacity="0.2"/>
<stop offset="0.0301" stop-color="#DF0254" stop-opacity="0.2"/>
<stop offset="0.3749" stop-color="#990193" stop-opacity="0.2"/>
<stop offset="0.6629" stop-color="#6601C2" stop-opacity="0.2"/>
<stop offset="0.8795" stop-color="#4700DE" stop-opacity="0.2"/>
<stop offset="1" stop-color="#3B00E9" stop-opacity="0.2"/>
</linearGradient>
<linearGradient id="paint44_linear" x1="448.81" y1="227.436" x2="454.296" y2="227.436" gradientUnits="userSpaceOnUse">
<stop stop-color="#E5024E" stop-opacity="0.2"/>
<stop offset="0.0301" stop-color="#DF0254" stop-opacity="0.2"/>
<stop offset="0.3749" stop-color="#990193" stop-opacity="0.2"/>
<stop offset="0.6629" stop-color="#6601C2" stop-opacity="0.2"/>
<stop offset="0.8795" stop-color="#4700DE" stop-opacity="0.2"/>
<stop offset="1" stop-color="#3B00E9" stop-opacity="0.2"/>
</linearGradient>
<linearGradient id="paint45_linear" x1="461.286" y1="246.854" x2="487.647" y2="178.978" gradientUnits="userSpaceOnUse">
<stop stop-color="#E5024E" stop-opacity="0.2"/>
<stop offset="0.0301" stop-color="#DF0254" stop-opacity="0.2"/>
<stop offset="0.3749" stop-color="#990193" stop-opacity="0.2"/>
<stop offset="0.6629" stop-color="#6601C2" stop-opacity="0.2"/>
<stop offset="0.8795" stop-color="#4700DE" stop-opacity="0.2"/>
<stop offset="1" stop-color="#3B00E9" stop-opacity="0.2"/>
</linearGradient>
<linearGradient id="paint46_linear" x1="462.82" y1="251.9" x2="463.919" y2="203.805" gradientUnits="userSpaceOnUse">
<stop stop-color="#E5024E" stop-opacity="0.5"/>
<stop offset="0.0301" stop-color="#DF0254" stop-opacity="0.5"/>
<stop offset="0.3749" stop-color="#990193" stop-opacity="0.5"/>
<stop offset="0.6629" stop-color="#6601C2" stop-opacity="0.5"/>
<stop offset="0.8795" stop-color="#4700DE" stop-opacity="0.5"/>
<stop offset="1" stop-color="#3B00E9" stop-opacity="0.5"/>
</linearGradient>
<linearGradient id="paint47_linear" x1="459.137" y1="254.305" x2="464.31" y2="240.984" gradientUnits="userSpaceOnUse">
<stop stop-color="#E5024E" stop-opacity="0.2"/>
<stop offset="0.0301" stop-color="#DF0254" stop-opacity="0.2"/>
<stop offset="0.3749" stop-color="#990193" stop-opacity="0.2"/>
<stop offset="0.6629" stop-color="#6601C2" stop-opacity="0.2"/>
<stop offset="0.8795" stop-color="#4700DE" stop-opacity="0.2"/>
<stop offset="1" stop-color="#3B00E9" stop-opacity="0.2"/>
</linearGradient>
<linearGradient id="paint48_linear" x1="459.178" y1="208.277" x2="464.212" y2="195.314" gradientUnits="userSpaceOnUse">
<stop stop-color="#E5024E" stop-opacity="0.2"/>
<stop offset="0.0301" stop-color="#DF0254" stop-opacity="0.2"/>
<stop offset="0.3749" stop-color="#990193" stop-opacity="0.2"/>
<stop offset="0.6629" stop-color="#6601C2" stop-opacity="0.2"/>
<stop offset="0.8795" stop-color="#4700DE" stop-opacity="0.2"/>
<stop offset="1" stop-color="#3B00E9" stop-opacity="0.2"/>
</linearGradient>
<linearGradient id="paint49_linear" x1="454.537" y1="202.941" x2="454.72" y2="250.028" gradientUnits="userSpaceOnUse">
<stop stop-color="#E5024E" stop-opacity="0.2"/>
<stop offset="0.1518" stop-color="#ED3A78" stop-opacity="0.2"/>
<stop offset="0.4213" stop-color="#FA9AC0" stop-opacity="0.2"/>
<stop offset="0.5428" stop-color="#FFC0DC" stop-opacity="0.2"/>
<stop offset="0.6038" stop-color="#DFA0DE" stop-opacity="0.2"/>
<stop offset="0.7446" stop-color="#995CE3" stop-opacity="0.2"/>
<stop offset="0.8623" stop-color="#662AE6" stop-opacity="0.2"/>
<stop offset="0.9508" stop-color="#470CE8" stop-opacity="0.2"/>
<stop offset="1" stop-color="#3B00E9" stop-opacity="0.2"/>
</linearGradient>
<linearGradient id="paint50_linear" x1="411.868" y1="213.865" x2="411.571" y2="227.509" gradientUnits="userSpaceOnUse">
<stop stop-color="#E59903" stop-opacity="0.5"/>
<stop offset="0.0853" stop-color="#D28910" stop-opacity="0.5"/>
<stop offset="0.4104" stop-color="#8C4F3F" stop-opacity="0.5"/>
<stop offset="0.6821" stop-color="#592462" stop-opacity="0.5"/>
<stop offset="0.8864" stop-color="#3A0A77" stop-opacity="0.5"/>
<stop offset="1" stop-color="#2E007F" stop-opacity="0.5"/>
</linearGradient>
<linearGradient id="paint51_linear" x1="414.458" y1="228.402" x2="414.458" y2="213.972" gradientUnits="userSpaceOnUse">
<stop stop-color="#3B00E9" stop-opacity="0.2"/>
<stop offset="0.0972" stop-color="#4509DD" stop-opacity="0.2777"/>
<stop offset="0.272" stop-color="#5F23BE" stop-opacity="0.4176"/>
<stop offset="0.5045" stop-color="#8A4C8B" stop-opacity="0.6036"/>
<stop offset="0.7823" stop-color="#C58345" stop-opacity="0.8259"/>
<stop offset="1" stop-color="#F7B30A"/>
</linearGradient>
<linearGradient id="paint52_linear" x1="411.715" y1="270.819" x2="411.715" y2="260.188" gradientUnits="userSpaceOnUse">
<stop stop-color="#E59903" stop-opacity="0.5"/>
<stop offset="0.2359" stop-color="#C56D45" stop-opacity="0.5"/>
<stop offset="0.5063" stop-color="#A33F8B" stop-opacity="0.5"/>
<stop offset="0.7326" stop-color="#8B1DBE" stop-opacity="0.5"/>
<stop offset="0.9027" stop-color="#7C08DD" stop-opacity="0.5"/>
<stop offset="0.9973" stop-color="#7600E9" stop-opacity="0.5"/>
</linearGradient>
<linearGradient id="paint53_linear" x1="414.458" y1="270.868" x2="414.458" y2="258.163" gradientUnits="userSpaceOnUse">
<stop stop-color="#3B00E9" stop-opacity="0.2"/>
<stop offset="0.0972" stop-color="#4509DD" stop-opacity="0.2777"/>
<stop offset="0.272" stop-color="#5F23BE" stop-opacity="0.4176"/>
<stop offset="0.5045" stop-color="#8A4C8B" stop-opacity="0.6036"/>
<stop offset="0.7823" stop-color="#C58345" stop-opacity="0.8259"/>
<stop offset="1" stop-color="#F7B30A"/>
</linearGradient>
<linearGradient id="paint54_linear" x1="405.434" y1="214.852" x2="403.795" y2="284.083" gradientUnits="userSpaceOnUse">
<stop stop-color="#F7B30A"/>
<stop offset="0.2177" stop-color="#C58345" stop-opacity="0.8259"/>
<stop offset="0.4955" stop-color="#8A4C8B" stop-opacity="0.6036"/>
<stop offset="0.728" stop-color="#5F23BE" stop-opacity="0.4176"/>
<stop offset="0.9028" stop-color="#4509DD" stop-opacity="0.2777"/>
<stop offset="1" stop-color="#3B00E9" stop-opacity="0.2"/>
</linearGradient>
<linearGradient id="paint55_linear" x1="416.946" y1="256.241" x2="434.896" y2="210.022" gradientUnits="userSpaceOnUse">
<stop stop-color="#E59903" stop-opacity="0.2"/>
<stop offset="0.3054" stop-color="#E66202" stop-opacity="0.2"/>
<stop offset="0.6239" stop-color="#E83001" stop-opacity="0.2"/>
<stop offset="0.8656" stop-color="#E91100" stop-opacity="0.2"/>
<stop offset="1" stop-color="#E90500" stop-opacity="0.2"/>
</linearGradient>
<linearGradient id="paint56_linear" x1="415.703" y1="197.392" x2="416.889" y2="259.682" gradientUnits="userSpaceOnUse">
<stop stop-color="#EEAF1B"/>
<stop offset="0.2595" stop-color="#CA8C44" stop-opacity="0.8703"/>
<stop offset="0.7662" stop-color="#874B91" stop-opacity="0.6169"/>
<stop offset="1" stop-color="#6D31AF" stop-opacity="0.5"/>
</linearGradient>
<linearGradient id="paint57_linear" x1="412.33" y1="262.465" x2="417.503" y2="249.144" gradientUnits="userSpaceOnUse">
<stop stop-color="#E59903" stop-opacity="0.2"/>
<stop offset="0.3054" stop-color="#E66202" stop-opacity="0.2"/>
<stop offset="0.6239" stop-color="#E83001" stop-opacity="0.2"/>
<stop offset="0.8656" stop-color="#E91100" stop-opacity="0.2"/>
<stop offset="1" stop-color="#E90500" stop-opacity="0.2"/>
</linearGradient>
<linearGradient id="paint58_linear" x1="412.371" y1="231.597" x2="417.405" y2="218.634" gradientUnits="userSpaceOnUse">
<stop stop-color="#E59903" stop-opacity="0.2"/>
<stop offset="0.3054" stop-color="#E66202" stop-opacity="0.2"/>
<stop offset="0.6239" stop-color="#E83001" stop-opacity="0.2"/>
<stop offset="0.8656" stop-color="#E91100" stop-opacity="0.2"/>
<stop offset="1" stop-color="#E90500" stop-opacity="0.2"/>
</linearGradient>
<linearGradient id="paint59_linear" x1="407.76" y1="226.261" x2="407.886" y2="258.776" gradientUnits="userSpaceOnUse">
<stop stop-color="#E59903" stop-opacity="0.2"/>
<stop offset="0.1499" stop-color="#EDB03A" stop-opacity="0.2"/>
<stop offset="0.4208" stop-color="#FAD89A" stop-opacity="0.2"/>
<stop offset="0.5428" stop-color="#FFE8C0" stop-opacity="0.2"/>
<stop offset="0.6473" stop-color="#F9A98A" stop-opacity="0.2"/>
<stop offset="0.7725" stop-color="#F26350" stop-opacity="0.2"/>
<stop offset="0.8774" stop-color="#ED3025" stop-opacity="0.2"/>
<stop offset="0.9562" stop-color="#EA110A" stop-opacity="0.2"/>
<stop offset="1" stop-color="#E90500" stop-opacity="0.2"/>
</linearGradient>
<linearGradient id="paint60_linear" x1="503.954" y1="166.932" x2="503.657" y2="180.577" gradientUnits="userSpaceOnUse">
<stop stop-color="#B903E5" stop-opacity="0.5"/>
<stop offset="0.0931" stop-color="#A409E5" stop-opacity="0.5"/>
<stop offset="0.4155" stop-color="#5E1FE7" stop-opacity="0.5"/>
<stop offset="0.6848" stop-color="#2B2EE8" stop-opacity="0.5"/>
<stop offset="0.8874" stop-color="#0C37E9" stop-opacity="0.5"/>
<stop offset="1" stop-color="#003BE9" stop-opacity="0.5"/>
</linearGradient>
<linearGradient id="paint61_linear" x1="506.544" y1="181.469" x2="506.544" y2="167.04" gradientUnits="userSpaceOnUse">
<stop stop-color="#422AA2"/>
<stop offset="0.4621" stop-color="#5522AE"/>
<stop offset="1" stop-color="#7117BE"/>
</linearGradient>
<linearGradient id="paint62_linear" x1="503.801" y1="269.369" x2="503.801" y2="258.738" gradientUnits="userSpaceOnUse">
<stop stop-color="#B903E5" stop-opacity="0.5"/>
<stop offset="0.0931" stop-color="#A409E5" stop-opacity="0.5"/>
<stop offset="0.4155" stop-color="#5E1FE7" stop-opacity="0.5"/>
<stop offset="0.6848" stop-color="#2B2EE8" stop-opacity="0.5"/>
<stop offset="0.8874" stop-color="#0C37E9" stop-opacity="0.5"/>
<stop offset="1" stop-color="#003BE9" stop-opacity="0.5"/>
</linearGradient>
<linearGradient id="paint63_linear" x1="506.544" y1="269.418" x2="506.544" y2="256.713" gradientUnits="userSpaceOnUse">
<stop stop-color="#B903E5" stop-opacity="0.2"/>
<stop offset="0.0931" stop-color="#A409E5" stop-opacity="0.2"/>
<stop offset="0.4155" stop-color="#5E1FE7" stop-opacity="0.2"/>
<stop offset="0.6848" stop-color="#2B2EE8" stop-opacity="0.2"/>
<stop offset="0.8874" stop-color="#0C37E9" stop-opacity="0.2"/>
<stop offset="1" stop-color="#003BE9" stop-opacity="0.2"/>
</linearGradient>
<linearGradient id="paint64_linear" x1="494.089" y1="218.984" x2="499.575" y2="218.984" gradientUnits="userSpaceOnUse">
<stop stop-color="#B903E5" stop-opacity="0.2"/>
<stop offset="0.0931" stop-color="#A409E5" stop-opacity="0.2"/>
<stop offset="0.4155" stop-color="#5E1FE7" stop-opacity="0.2"/>
<stop offset="0.6848" stop-color="#2B2EE8" stop-opacity="0.2"/>
<stop offset="0.8874" stop-color="#0C37E9" stop-opacity="0.2"/>
<stop offset="1" stop-color="#003BE9" stop-opacity="0.2"/>
</linearGradient>
<linearGradient id="paint65_linear" x1="501.63" y1="251.108" x2="544.813" y2="139.919" gradientUnits="userSpaceOnUse">
<stop stop-color="#B903E5" stop-opacity="0.2"/>
<stop offset="0.0931" stop-color="#A409E5" stop-opacity="0.2"/>
<stop offset="0.4155" stop-color="#5E1FE7" stop-opacity="0.2"/>
<stop offset="0.6848" stop-color="#2B2EE8" stop-opacity="0.2"/>
<stop offset="0.8874" stop-color="#0C37E9" stop-opacity="0.2"/>
<stop offset="1" stop-color="#003BE9" stop-opacity="0.2"/>
</linearGradient>
<linearGradient id="paint66_linear" x1="507.756" y1="258.462" x2="509.535" y2="180.598" gradientUnits="userSpaceOnUse">
<stop stop-color="#B903E5" stop-opacity="0.5"/>
<stop offset="0.0931" stop-color="#A409E5" stop-opacity="0.5"/>
<stop offset="0.4155" stop-color="#5E1FE7" stop-opacity="0.5"/>
<stop offset="0.6848" stop-color="#2B2EE8" stop-opacity="0.5"/>
<stop offset="0.8874" stop-color="#0C37E9" stop-opacity="0.5"/>
<stop offset="1" stop-color="#003BE9" stop-opacity="0.5"/>
</linearGradient>
<linearGradient id="paint67_linear" x1="504.416" y1="261.014" x2="509.589" y2="247.694" gradientUnits="userSpaceOnUse">
<stop stop-color="#B903E5" stop-opacity="0.2"/>
<stop offset="0.0931" stop-color="#A409E5" stop-opacity="0.2"/>
<stop offset="0.4155" stop-color="#5E1FE7" stop-opacity="0.2"/>
<stop offset="0.6848" stop-color="#2B2EE8" stop-opacity="0.2"/>
<stop offset="0.8874" stop-color="#0C37E9" stop-opacity="0.2"/>
<stop offset="1" stop-color="#003BE9" stop-opacity="0.2"/>
</linearGradient>
<linearGradient id="paint68_linear" x1="504.457" y1="184.664" x2="509.491" y2="171.702" gradientUnits="userSpaceOnUse">
<stop stop-color="#B903E5" stop-opacity="0.2"/>
<stop offset="0.0931" stop-color="#A409E5" stop-opacity="0.2"/>
<stop offset="0.4155" stop-color="#5E1FE7" stop-opacity="0.2"/>
<stop offset="0.6848" stop-color="#2B2EE8" stop-opacity="0.2"/>
<stop offset="0.8874" stop-color="#0C37E9" stop-opacity="0.2"/>
<stop offset="1" stop-color="#003BE9" stop-opacity="0.2"/>
</linearGradient>
<linearGradient id="paint69_linear" x1="499.713" y1="179.329" x2="500.01" y2="255.561" gradientUnits="userSpaceOnUse">
<stop stop-color="#B903E5" stop-opacity="0.2"/>
<stop offset="0.1499" stop-color="#C83AED" stop-opacity="0.2"/>
<stop offset="0.4208" stop-color="#E29AFA" stop-opacity="0.2"/>
<stop offset="0.5428" stop-color="#ECC0FF" stop-opacity="0.2"/>
<stop offset="0.6579" stop-color="#A497F8" stop-opacity="0.2"/>
<stop offset="0.7794" stop-color="#5E70F2" stop-opacity="0.2"/>
<stop offset="0.8811" stop-color="#2B53ED" stop-opacity="0.2"/>
<stop offset="0.9575" stop-color="#0C42EA" stop-opacity="0.2"/>
<stop offset="1" stop-color="#003BE9" stop-opacity="0.2"/>
</linearGradient>
<linearGradient id="paint70_linear" x1="363.854" y1="167.121" x2="363.557" y2="180.766" gradientUnits="userSpaceOnUse">
<stop stop-color="#1BF0F1" stop-opacity="0.5"/>
<stop offset="0.4378" stop-color="#1DC2F3" stop-opacity="0.5"/>
<stop offset="0.799" stop-color="#1EA3F4" stop-opacity="0.5"/>
<stop offset="1" stop-color="#1E97F5" stop-opacity="0.5"/>
</linearGradient>
<linearGradient id="paint71_linear" x1="366.444" y1="181.659" x2="366.444" y2="167.229" gradientUnits="userSpaceOnUse">
<stop stop-color="#1F1FF3" stop-opacity="0.5"/>
<stop offset="0.1264" stop-color="#1A3DF3" stop-opacity="0.5"/>
<stop offset="0.4369" stop-color="#0F83F4" stop-opacity="0.5"/>
<stop offset="0.6963" stop-color="#07B6F5" stop-opacity="0.5"/>
<stop offset="0.8915" stop-color="#02D5F5" stop-opacity="0.5"/>
<stop offset="1" stop-color="#00E1F5" stop-opacity="0.5"/>
</linearGradient>
<linearGradient id="paint72_linear" x1="363.701" y1="252.881" x2="363.701" y2="242.25" gradientUnits="userSpaceOnUse">
<stop stop-color="#1BF0F1" stop-opacity="0.5"/>
<stop offset="0.4378" stop-color="#1DC2F3" stop-opacity="0.5"/>
<stop offset="0.799" stop-color="#1EA3F4" stop-opacity="0.5"/>
<stop offset="1" stop-color="#1E97F5" stop-opacity="0.5"/>
</linearGradient>
<linearGradient id="paint73_linear" x1="366.444" y1="252.93" x2="366.444" y2="240.225" gradientUnits="userSpaceOnUse">
<stop stop-color="#1BF0F1" stop-opacity="0.2"/>
<stop offset="0.4378" stop-color="#1DC2F3" stop-opacity="0.2"/>
<stop offset="0.799" stop-color="#1EA3F4" stop-opacity="0.2"/>
<stop offset="1" stop-color="#1E97F5" stop-opacity="0.2"/>
</linearGradient>
<linearGradient id="paint74_linear" x1="353.989" y1="210.835" x2="359.474" y2="210.835" gradientUnits="userSpaceOnUse">
<stop stop-color="#1BF0F1" stop-opacity="0.2"/>
<stop offset="0.4378" stop-color="#1DC2F3" stop-opacity="0.2"/>
<stop offset="0.799" stop-color="#1EA3F4" stop-opacity="0.2"/>
<stop offset="1" stop-color="#1E97F5" stop-opacity="0.2"/>
</linearGradient>
<linearGradient id="paint75_linear" x1="364.244" y1="235.971" x2="398.175" y2="148.604" gradientUnits="userSpaceOnUse">
<stop stop-color="#1BF0F1" stop-opacity="0.2"/>
<stop offset="0.4378" stop-color="#1DC2F3" stop-opacity="0.2"/>
<stop offset="0.799" stop-color="#1EA3F4" stop-opacity="0.2"/>
<stop offset="1" stop-color="#1E97F5" stop-opacity="0.2"/>
</linearGradient>
<linearGradient id="paint76_linear" x1="367.844" y1="242.055" x2="369.25" y2="180.565" gradientUnits="userSpaceOnUse">
<stop stop-color="#1BF0F1" stop-opacity="0.5"/>
<stop offset="0.4378" stop-color="#1DC2F3" stop-opacity="0.5"/>
<stop offset="0.799" stop-color="#1EA3F4" stop-opacity="0.5"/>
<stop offset="1" stop-color="#1E97F5" stop-opacity="0.5"/>
</linearGradient>
<linearGradient id="paint77_linear" x1="364.316" y1="244.527" x2="369.489" y2="231.206" gradientUnits="userSpaceOnUse">
<stop stop-color="#1BF0F1" stop-opacity="0.2"/>
<stop offset="0.4378" stop-color="#1DC2F3" stop-opacity="0.2"/>
<stop offset="0.799" stop-color="#1EA3F4" stop-opacity="0.2"/>
<stop offset="1" stop-color="#1E97F5" stop-opacity="0.2"/>
</linearGradient>
<linearGradient id="paint78_linear" x1="364.356" y1="184.854" x2="369.391" y2="171.891" gradientUnits="userSpaceOnUse">
<stop stop-color="#1BF0F1" stop-opacity="0.2"/>
<stop offset="0.4378" stop-color="#1DC2F3" stop-opacity="0.2"/>
<stop offset="0.799" stop-color="#1EA3F4" stop-opacity="0.2"/>
<stop offset="1" stop-color="#1E97F5" stop-opacity="0.2"/>
</linearGradient>
<linearGradient id="paint79_linear" x1="359.674" y1="179.518" x2="359.909" y2="239.72" gradientUnits="userSpaceOnUse">
<stop stop-color="#1BF0F1" stop-opacity="0.2"/>
<stop offset="0.0969" stop-color="#3AF3F2" stop-opacity="0.2"/>
<stop offset="0.4044" stop-color="#9AFCF6" stop-opacity="0.2"/>
<stop offset="0.5428" stop-color="#C0FFF8" stop-opacity="0.2"/>
<stop offset="0.7031" stop-color="#7CD3F7" stop-opacity="0.2"/>
<stop offset="0.8399" stop-color="#49B3F6" stop-opacity="0.2"/>
<stop offset="0.9428" stop-color="#2A9FF5" stop-opacity="0.2"/>
<stop offset="1" stop-color="#1E97F5" stop-opacity="0.2"/>
</linearGradient>
<linearGradient id="paint80_linear" x1="458.675" y1="190.544" x2="458.378" y2="204.189" gradientUnits="userSpaceOnUse">
<stop stop-color="#E5024E" stop-opacity="0.5"/>
<stop offset="0.0301" stop-color="#DF0254" stop-opacity="0.5"/>
<stop offset="0.3749" stop-color="#990193" stop-opacity="0.5"/>
<stop offset="0.6629" stop-color="#6601C2" stop-opacity="0.5"/>
<stop offset="0.8795" stop-color="#4700DE" stop-opacity="0.5"/>
<stop offset="1" stop-color="#3B00E9" stop-opacity="0.5"/>
</linearGradient>
<linearGradient id="paint81_linear" x1="461.265" y1="205.082" x2="461.265" y2="190.652" gradientUnits="userSpaceOnUse">
<stop stop-color="#892AA2"/>
<stop offset="0.4164" stop-color="#9C2396"/>
<stop offset="1" stop-color="#BE1780"/>
</linearGradient>
<linearGradient id="paint82_linear" x1="458.522" y1="262.659" x2="458.522" y2="252.029" gradientUnits="userSpaceOnUse">
<stop stop-color="#E5024E" stop-opacity="0.5"/>
<stop offset="0.0301" stop-color="#DF0254" stop-opacity="0.5"/>
<stop offset="0.3749" stop-color="#990193" stop-opacity="0.5"/>
<stop offset="0.6629" stop-color="#6601C2" stop-opacity="0.5"/>
<stop offset="0.8795" stop-color="#4700DE" stop-opacity="0.5"/>
<stop offset="1" stop-color="#3B00E9" stop-opacity="0.5"/>
</linearGradient>
<linearGradient id="paint83_linear" x1="461.265" y1="262.709" x2="461.265" y2="250.004" gradientUnits="userSpaceOnUse">
<stop stop-color="#E5024E" stop-opacity="0.2"/>
<stop offset="0.0301" stop-color="#DF0254" stop-opacity="0.2"/>
<stop offset="0.3749" stop-color="#990193" stop-opacity="0.2"/>
<stop offset="0.6629" stop-color="#6601C2" stop-opacity="0.2"/>
<stop offset="0.8795" stop-color="#4700DE" stop-opacity="0.2"/>
<stop offset="1" stop-color="#3B00E9" stop-opacity="0.2"/>
</linearGradient>
<linearGradient id="paint84_linear" x1="448.81" y1="227.436" x2="454.296" y2="227.436" gradientUnits="userSpaceOnUse">
<stop stop-color="#E5024E" stop-opacity="0.2"/>
<stop offset="0.0301" stop-color="#DF0254" stop-opacity="0.2"/>
<stop offset="0.3749" stop-color="#990193" stop-opacity="0.2"/>
<stop offset="0.6629" stop-color="#6601C2" stop-opacity="0.2"/>
<stop offset="0.8795" stop-color="#4700DE" stop-opacity="0.2"/>
<stop offset="1" stop-color="#3B00E9" stop-opacity="0.2"/>
</linearGradient>
<linearGradient id="paint85_linear" x1="461.286" y1="246.854" x2="487.647" y2="178.978" gradientUnits="userSpaceOnUse">
<stop stop-color="#E5024E" stop-opacity="0.2"/>
<stop offset="0.0301" stop-color="#DF0254" stop-opacity="0.2"/>
<stop offset="0.3749" stop-color="#990193" stop-opacity="0.2"/>
<stop offset="0.6629" stop-color="#6601C2" stop-opacity="0.2"/>
<stop offset="0.8795" stop-color="#4700DE" stop-opacity="0.2"/>
<stop offset="1" stop-color="#3B00E9" stop-opacity="0.2"/>
</linearGradient>
<linearGradient id="paint86_linear" x1="462.82" y1="251.9" x2="463.919" y2="203.805" gradientUnits="userSpaceOnUse">
<stop stop-color="#E5024E" stop-opacity="0.5"/>
<stop offset="0.0301" stop-color="#DF0254" stop-opacity="0.5"/>
<stop offset="0.3749" stop-color="#990193" stop-opacity="0.5"/>
<stop offset="0.6629" stop-color="#6601C2" stop-opacity="0.5"/>
<stop offset="0.8795" stop-color="#4700DE" stop-opacity="0.5"/>
<stop offset="1" stop-color="#3B00E9" stop-opacity="0.5"/>
</linearGradient>
<linearGradient id="paint87_linear" x1="459.137" y1="254.305" x2="464.31" y2="240.984" gradientUnits="userSpaceOnUse">
<stop stop-color="#E5024E" stop-opacity="0.2"/>
<stop offset="0.0301" stop-color="#DF0254" stop-opacity="0.2"/>
<stop offset="0.3749" stop-color="#990193" stop-opacity="0.2"/>
<stop offset="0.6629" stop-color="#6601C2" stop-opacity="0.2"/>
<stop offset="0.8795" stop-color="#4700DE" stop-opacity="0.2"/>
<stop offset="1" stop-color="#3B00E9" stop-opacity="0.2"/>
</linearGradient>
<linearGradient id="paint88_linear" x1="459.178" y1="208.277" x2="464.212" y2="195.314" gradientUnits="userSpaceOnUse">
<stop stop-color="#E5024E" stop-opacity="0.2"/>
<stop offset="0.0301" stop-color="#DF0254" stop-opacity="0.2"/>
<stop offset="0.3749" stop-color="#990193" stop-opacity="0.2"/>
<stop offset="0.6629" stop-color="#6601C2" stop-opacity="0.2"/>
<stop offset="0.8795" stop-color="#4700DE" stop-opacity="0.2"/>
<stop offset="1" stop-color="#3B00E9" stop-opacity="0.2"/>
</linearGradient>
<linearGradient id="paint89_linear" x1="454.537" y1="202.941" x2="454.72" y2="250.028" gradientUnits="userSpaceOnUse">
<stop stop-color="#E5024E" stop-opacity="0.2"/>
<stop offset="0.1518" stop-color="#ED3A78" stop-opacity="0.2"/>
<stop offset="0.4213" stop-color="#FA9AC0" stop-opacity="0.2"/>
<stop offset="0.5428" stop-color="#FFC0DC" stop-opacity="0.2"/>
<stop offset="0.6038" stop-color="#DFA0DE" stop-opacity="0.2"/>
<stop offset="0.7446" stop-color="#995CE3" stop-opacity="0.2"/>
<stop offset="0.8623" stop-color="#662AE6" stop-opacity="0.2"/>
<stop offset="0.9508" stop-color="#470CE8" stop-opacity="0.2"/>
<stop offset="1" stop-color="#3B00E9" stop-opacity="0.2"/>
</linearGradient>
<linearGradient id="paint90_linear" x1="411.868" y1="213.865" x2="411.571" y2="227.509" gradientUnits="userSpaceOnUse">
<stop stop-color="#E59903" stop-opacity="0.5"/>
<stop offset="0.0853" stop-color="#D28910" stop-opacity="0.5"/>
<stop offset="0.4104" stop-color="#8C4F3F" stop-opacity="0.5"/>
<stop offset="0.6821" stop-color="#592462" stop-opacity="0.5"/>
<stop offset="0.8864" stop-color="#3A0A77" stop-opacity="0.5"/>
<stop offset="1" stop-color="#2E007F" stop-opacity="0.5"/>
</linearGradient>
<linearGradient id="paint91_linear" x1="414.458" y1="228.402" x2="414.458" y2="213.972" gradientUnits="userSpaceOnUse">
<stop stop-color="#3B00E9" stop-opacity="0.2"/>
<stop offset="0.0972" stop-color="#4509DD" stop-opacity="0.2777"/>
<stop offset="0.272" stop-color="#5F23BE" stop-opacity="0.4176"/>
<stop offset="0.5045" stop-color="#8A4C8B" stop-opacity="0.6036"/>
<stop offset="0.7823" stop-color="#C58345" stop-opacity="0.8259"/>
<stop offset="1" stop-color="#F7B30A"/>
</linearGradient>
<linearGradient id="paint92_linear" x1="411.715" y1="270.819" x2="411.715" y2="260.188" gradientUnits="userSpaceOnUse">
<stop stop-color="#E59903" stop-opacity="0.5"/>
<stop offset="0.2359" stop-color="#C56D45" stop-opacity="0.5"/>
<stop offset="0.5063" stop-color="#A33F8B" stop-opacity="0.5"/>
<stop offset="0.7326" stop-color="#8B1DBE" stop-opacity="0.5"/>
<stop offset="0.9027" stop-color="#7C08DD" stop-opacity="0.5"/>
<stop offset="0.9973" stop-color="#7600E9" stop-opacity="0.5"/>
</linearGradient>
<linearGradient id="paint93_linear" x1="414.458" y1="270.868" x2="414.458" y2="258.163" gradientUnits="userSpaceOnUse">
<stop stop-color="#3B00E9" stop-opacity="0.2"/>
<stop offset="0.0972" stop-color="#4509DD" stop-opacity="0.2777"/>
<stop offset="0.272" stop-color="#5F23BE" stop-opacity="0.4176"/>
<stop offset="0.5045" stop-color="#8A4C8B" stop-opacity="0.6036"/>
<stop offset="0.7823" stop-color="#C58345" stop-opacity="0.8259"/>
<stop offset="1" stop-color="#F7B30A"/>
</linearGradient>
<linearGradient id="paint94_linear" x1="405.434" y1="214.852" x2="403.795" y2="284.083" gradientUnits="userSpaceOnUse">
<stop stop-color="#F7B30A"/>
<stop offset="0.2177" stop-color="#C58345" stop-opacity="0.8259"/>
<stop offset="0.4955" stop-color="#8A4C8B" stop-opacity="0.6036"/>
<stop offset="0.728" stop-color="#5F23BE" stop-opacity="0.4176"/>
<stop offset="0.9028" stop-color="#4509DD" stop-opacity="0.2777"/>
<stop offset="1" stop-color="#3B00E9" stop-opacity="0.2"/>
</linearGradient>
<linearGradient id="paint95_linear" x1="416.946" y1="256.241" x2="434.896" y2="210.022" gradientUnits="userSpaceOnUse">
<stop stop-color="#E59903" stop-opacity="0.2"/>
<stop offset="0.3054" stop-color="#E66202" stop-opacity="0.2"/>
<stop offset="0.6239" stop-color="#E83001" stop-opacity="0.2"/>
<stop offset="0.8656" stop-color="#E91100" stop-opacity="0.2"/>
<stop offset="1" stop-color="#E90500" stop-opacity="0.2"/>
</linearGradient>
<linearGradient id="paint96_linear" x1="415.703" y1="197.392" x2="416.889" y2="259.682" gradientUnits="userSpaceOnUse">
<stop stop-color="#EEAF1B"/>
<stop offset="0.2595" stop-color="#CA8C44" stop-opacity="0.8703"/>
<stop offset="0.7662" stop-color="#874B91" stop-opacity="0.6169"/>
<stop offset="1" stop-color="#6D31AF" stop-opacity="0.5"/>
</linearGradient>
<linearGradient id="paint97_linear" x1="412.33" y1="262.465" x2="417.503" y2="249.144" gradientUnits="userSpaceOnUse">
<stop stop-color="#E59903" stop-opacity="0.2"/>
<stop offset="0.3054" stop-color="#E66202" stop-opacity="0.2"/>
<stop offset="0.6239" stop-color="#E83001" stop-opacity="0.2"/>
<stop offset="0.8656" stop-color="#E91100" stop-opacity="0.2"/>
<stop offset="1" stop-color="#E90500" stop-opacity="0.2"/>
</linearGradient>
<linearGradient id="paint98_linear" x1="412.371" y1="231.597" x2="417.405" y2="218.634" gradientUnits="userSpaceOnUse">
<stop stop-color="#E59903" stop-opacity="0.2"/>
<stop offset="0.3054" stop-color="#E66202" stop-opacity="0.2"/>
<stop offset="0.6239" stop-color="#E83001" stop-opacity="0.2"/>
<stop offset="0.8656" stop-color="#E91100" stop-opacity="0.2"/>
<stop offset="1" stop-color="#E90500" stop-opacity="0.2"/>
</linearGradient>
<linearGradient id="paint99_linear" x1="407.76" y1="226.261" x2="407.886" y2="258.776" gradientUnits="userSpaceOnUse">
<stop stop-color="#E59903" stop-opacity="0.2"/>
<stop offset="0.1499" stop-color="#EDB03A" stop-opacity="0.2"/>
<stop offset="0.4208" stop-color="#FAD89A" stop-opacity="0.2"/>
<stop offset="0.5428" stop-color="#FFE8C0" stop-opacity="0.2"/>
<stop offset="0.6473" stop-color="#F9A98A" stop-opacity="0.2"/>
<stop offset="0.7725" stop-color="#F26350" stop-opacity="0.2"/>
<stop offset="0.8774" stop-color="#ED3025" stop-opacity="0.2"/>
<stop offset="0.9562" stop-color="#EA110A" stop-opacity="0.2"/>
<stop offset="1" stop-color="#E90500" stop-opacity="0.2"/>
</linearGradient>
<linearGradient id="paint100_linear" x1="489.282" y1="440.363" x2="495.625" y2="440.363" gradientUnits="userSpaceOnUse">
<stop stop-color="#35007F"/>
<stop offset="0.1507" stop-color="#3C068B"/>
<stop offset="0.4218" stop-color="#4E15AA"/>
<stop offset="0.7793" stop-color="#6C2DDC"/>
<stop offset="1" stop-color="#803EFF"/>
</linearGradient>
<linearGradient id="paint101_linear" x1="481.664" y1="458.431" x2="498.704" y2="452.463" gradientUnits="userSpaceOnUse">
<stop stop-color="#35007F"/>
<stop offset="0.1507" stop-color="#3C068B"/>
<stop offset="0.4218" stop-color="#4E15AA"/>
<stop offset="0.7793" stop-color="#6C2DDC"/>
<stop offset="1" stop-color="#803EFF"/>
</linearGradient>
<linearGradient id="paint102_linear" x1="483.568" y1="467.702" x2="480.602" y2="428.522" gradientUnits="userSpaceOnUse">
<stop stop-color="#8F56FE"/>
<stop offset="0.0611" stop-color="#9560FE"/>
<stop offset="0.2759" stop-color="#A97FFD"/>
<stop offset="0.3957" stop-color="#B18BFD"/>
<stop offset="1" stop-color="white"/>
</linearGradient>
<linearGradient id="paint103_linear" x1="485.198" y1="428.01" x2="495.605" y2="428.01" gradientUnits="userSpaceOnUse">
<stop stop-color="#B18BFD"/>
<stop offset="0.3029" stop-color="#A97FFD"/>
<stop offset="0.8455" stop-color="#9560FE"/>
<stop offset="1" stop-color="#8F56FE"/>
</linearGradient>
<linearGradient id="paint104_linear" x1="473.435" y1="458.134" x2="475.267" y2="453.263" gradientUnits="userSpaceOnUse">
<stop stop-color="#6941BA"/>
<stop offset="0.3862" stop-color="#6235BA"/>
<stop offset="1" stop-color="#511ABB"/>
</linearGradient>
<linearGradient id="paint105_linear" x1="493.387" y1="368.651" x2="551.965" y2="308.196" gradientUnits="userSpaceOnUse">
<stop stop-color="#C66300"/>
<stop offset="1" stop-color="#FED665"/>
</linearGradient>
<linearGradient id="paint106_linear" x1="454.686" y1="368.613" x2="522.828" y2="368.613" gradientUnits="userSpaceOnUse">
<stop offset="0.3706" stop-color="#6A3A5E"/>
<stop offset="0.7942" stop-color="#A1588F"/>
<stop offset="0.9949" stop-color="#BD67A8"/>
</linearGradient>
<linearGradient id="paint107_linear" x1="452.784" y1="416.539" x2="460.786" y2="344.821" gradientUnits="userSpaceOnUse">
<stop stop-color="#8D1B8C"/>
<stop offset="0.1401" stop-color="#921E92"/>
<stop offset="0.322" stop-color="#A227A2"/>
<stop offset="0.5269" stop-color="#BB36BD"/>
<stop offset="0.7472" stop-color="#DE4BE2"/>
<stop offset="0.8166" stop-color="#EA52EF"/>
<stop offset="1" stop-color="#F4A7F7"/>
</linearGradient>
<linearGradient id="paint108_linear" x1="385.058" y1="398.64" x2="454.958" y2="398.64" gradientUnits="userSpaceOnUse">
<stop offset="0.00507614" stop-color="#320C7C"/>
<stop offset="1" stop-color="#745AA6"/>
</linearGradient>
<linearGradient id="paint109_linear" x1="477.846" y1="425.898" x2="451.496" y2="358.133" gradientUnits="userSpaceOnUse">
<stop stop-color="#4021AF"/>
<stop offset="0.4873" stop-color="#9897A9"/>
<stop offset="0.4975" stop-color="#D3D8FF"/>
<stop offset="1" stop-color="#A3ACFF"/>
</linearGradient>
<linearGradient id="paint110_linear" x1="377.547" y1="463.795" x2="391.857" y2="355.842" gradientUnits="userSpaceOnUse">
<stop stop-color="#4535AE"/>
<stop offset="0.8122" stop-color="#9879E6"/>
<stop offset="1" stop-color="white"/>
</linearGradient>
<linearGradient id="paint111_linear" x1="558.167" y1="291.226" x2="548.712" y2="342.066" gradientUnits="userSpaceOnUse">
<stop offset="0.5025" stop-color="#D9D9DF"/>
<stop offset="1" stop-color="white"/>
</linearGradient>
<linearGradient id="paint112_linear" x1="401.252" y1="517.409" x2="401.252" y2="541.243" gradientUnits="userSpaceOnUse">
<stop stop-color="#FF0054"/>
<stop offset="0.2072" stop-color="#F10670"/>
<stop offset="0.7476" stop-color="#CE15B6"/>
<stop offset="1" stop-color="#C01BD1"/>
</linearGradient>
<linearGradient id="paint113_linear" x1="365.003" y1="508.184" x2="421.905" y2="508.184" gradientUnits="userSpaceOnUse">
<stop stop-color="#FF0054"/>
<stop offset="0.2072" stop-color="#F10670"/>
<stop offset="0.7476" stop-color="#CE15B6"/>
<stop offset="1" stop-color="#C01BD1"/>
</linearGradient>
<linearGradient id="paint114_linear" x1="359.169" y1="516.717" x2="361.023" y2="548.235" gradientUnits="userSpaceOnUse">
<stop stop-color="#6B2CFF"/>
<stop offset="1" stop-color="#2B1C87"/>
</linearGradient>
<linearGradient id="paint115_linear" x1="349.531" y1="556.11" x2="421.904" y2="556.11" gradientUnits="userSpaceOnUse">
<stop stop-color="#FFA500"/>
<stop offset="1" stop-color="#8C682F"/>
</linearGradient>
<linearGradient id="paint116_linear" x1="349.536" y1="548.791" x2="421.905" y2="548.791" gradientUnits="userSpaceOnUse">
<stop stop-color="#FFE278"/>
<stop offset="0.642" stop-color="#FBB632"/>
<stop offset="1" stop-color="#F89C09"/>
</linearGradient>
<linearGradient id="paint117_linear" x1="261.903" y1="366.609" x2="277.373" y2="387.266" gradientUnits="userSpaceOnUse">
<stop stop-color="#960196" stop-opacity="0.6729"/>
<stop offset="0.745" stop-color="#D00261" stop-opacity="0.9166"/>
<stop offset="1" stop-color="#E5024E"/>
</linearGradient>
<linearGradient id="paint118_linear" x1="283.412" y1="317.345" x2="308.52" y2="350.872" gradientUnits="userSpaceOnUse">
<stop stop-color="#4502C6"/>
<stop offset="1" stop-color="#8F54FF"/>
</linearGradient>
<linearGradient id="paint119_linear" x1="279.058" y1="314.965" x2="299.3" y2="341.993" gradientUnits="userSpaceOnUse">
<stop stop-color="#2B1C87"/>
<stop offset="1" stop-color="#5226D0"/>
</linearGradient>
<linearGradient id="paint120_linear" x1="277.11" y1="313.646" x2="301.452" y2="346.149" gradientUnits="userSpaceOnUse">
<stop stop-color="#8D1B8C"/>
<stop offset="0.1401" stop-color="#921E92"/>
<stop offset="0.322" stop-color="#A227A2"/>
<stop offset="0.5269" stop-color="#BB36BD"/>
<stop offset="0.7472" stop-color="#DE4BE2"/>
<stop offset="0.8166" stop-color="#EA52EF"/>
<stop offset="1" stop-color="#F4A7F7"/>
</linearGradient>
</defs>
</svg>
