<?xml version="1.0" encoding="utf-8"?>
<!-- Generator: Adobe Illustrator 25.2.0, SVG Export Plug-In . SVG Version: 6.00 Build 0)  -->
<svg version="1.1" id="Layer_1" xmlns="http://www.w3.org/2000/svg" xmlns:xlink="http://www.w3.org/1999/xlink" x="0px" y="0px"
	 viewBox="0 0 28.4 60" style="enable-background:new 0 0 28.4 60;" xml:space="preserve">
<style type="text/css">
	.st0{clip-path:url(#SVGID_2_);}
	.st1{opacity:5.000000e-02;fill:url(#SVGID_3_);enable-background:new    ;}
	.st2{fill:url(#SVGID_4_);}
	.st3{fill:url(#SVGID_5_);}
	.st4{fill:url(#SVGID_6_);}
	.st5{fill:url(#SVGID_7_);}
	.st6{fill:#DCEEFF;}
	.st7{fill:url(#SVGID_8_);}
	.st8{fill:url(#SVGID_9_);}
	.st9{fill:url(#SVGID_10_);}
	.st10{fill:url(#SVGID_11_);}
	.st11{fill:url(#SVGID_12_);}
	.st12{fill:url(#SVGID_13_);}
	.st13{fill:url(#SVGID_14_);}
	.st14{fill:url(#SVGID_15_);}
	.st15{fill:url(#SVGID_16_);}
	.st16{fill:url(#SVGID_17_);}
	.st17{fill:url(#SVGID_18_);}
	.st18{fill:url(#SVGID_19_);}
	.st19{opacity:0.1;fill:url(#SVGID_20_);enable-background:new    ;}
	.st20{opacity:0.5;}
	.st21{opacity:0.31;fill:url(#SVGID_21_);enable-background:new    ;}
	.st22{opacity:0.7;fill:#7950E6;enable-background:new    ;}
	.st23{opacity:0.31;fill:url(#SVGID_22_);enable-background:new    ;}
	.st24{opacity:0.31;fill:url(#SVGID_23_);enable-background:new    ;}
	.st25{opacity:0.31;fill:url(#SVGID_24_);enable-background:new    ;}
	.st26{opacity:0.7;}
	.st27{opacity:0.5;fill:#7950E6;enable-background:new    ;}
</style>
<g>
	<g>
		<defs>
			<rect id="SVGID_1_" width="28.4" height="60"/>
		</defs>
		<clipPath id="SVGID_2_">
			<use xlink:href="#SVGID_1_"  style="overflow:visible;"/>
		</clipPath>
		<g class="st0">
			
				<linearGradient id="SVGID_3_" gradientUnits="userSpaceOnUse" x1="286.4644" y1="-332.1019" x2="277.0064" y2="-332.1019" gradientTransform="matrix(1 0 0 -1 -276 -304)">
				<stop  offset="0" style="stop-color:#2B1C87"/>
				<stop  offset="0.5134" style="stop-color:#6B2CFF"/>
				<stop  offset="1" style="stop-color:#241476"/>
			</linearGradient>
			<path class="st1" d="M1,25.4v8c0.4-0.4,1-0.8,1.5-1.1c2.2-1.3,5-1.9,7.9-2v-7.6c-3.1,0-6.1,0.7-8.4,2C1.7,25,1.3,25.2,1,25.4z"/>
			
				<linearGradient id="SVGID_4_" gradientUnits="userSpaceOnUse" x1="290.4597" y1="-353.987" x2="290.4597" y2="-363.1473" gradientTransform="matrix(1 0 0 -1 -276 -304)">
				<stop  offset="0" style="stop-color:#E80AEA;stop-opacity:0.2"/>
				<stop  offset="0.2955" style="stop-color:#E241E2;stop-opacity:0.1409"/>
				<stop  offset="0.6224" style="stop-color:#DC77D9;stop-opacity:7.551240e-02"/>
				<stop  offset="0.8673" style="stop-color:#D899D4;stop-opacity:2.654930e-02"/>
				<stop  offset="1" style="stop-color:#D7A6D2;stop-opacity:0"/>
			</linearGradient>
			<path class="st2" d="M23.9,49.9H5V60h18.9V49.9z"/>
			
				<linearGradient id="SVGID_5_" gradientUnits="userSpaceOnUse" x1="276.2844" y1="-355.1137" x2="304.1516" y2="-355.1137" gradientTransform="matrix(1 0 0 -1 -276 -304)">
				<stop  offset="0" style="stop-color:#DB7DFF;stop-opacity:0.1"/>
				<stop  offset="0.4807" style="stop-color:#B7A3FF;stop-opacity:0.1481"/>
				<stop  offset="1" style="stop-color:#8CD0FF;stop-opacity:0.2"/>
			</linearGradient>
			<path class="st3" d="M4.4,45.8c-5.4,2.9-5.4,7.6,0,10.6c5.4,2.9,14.3,2.9,19.7,0c5.4-2.9,5.4-7.6,0-10.6
				C18.6,42.9,9.8,42.9,4.4,45.8z"/>
			
				<linearGradient id="SVGID_6_" gradientUnits="userSpaceOnUse" x1="281.0082" y1="-353.9052" x2="299.9181" y2="-353.9052" gradientTransform="matrix(1 0 0 -1 -276 -304)">
				<stop  offset="0" style="stop-color:#A5CBFA"/>
				<stop  offset="0.3632" style="stop-color:#A8CDFA"/>
				<stop  offset="0.6668" style="stop-color:#B3D4FC"/>
				<stop  offset="0.9482" style="stop-color:#C4DFFE"/>
				<stop  offset="1" style="stop-color:#C8E2FF"/>
			</linearGradient>
			<path class="st4" d="M22.7,47.2C22.7,47.2,22.7,47.2,22.7,47.2c-0.5-0.4-1-0.8-1.6-1.2c-3.7-2.1-9.7-2.1-13.4,0
				c-0.6,0.4-1.1,0.8-1.5,1.2c0,0,0,0-0.1,0H5.3c-0.1,0-0.2,0.1-0.2,0.2v2.4c0,1.4,0.9,2.8,2.8,3.9c3.7,2.1,9.7,2.1,13.4,0
				c1.8-1.1,2.8-2.5,2.8-3.9v-2.6c0-0.1,0-0.1-0.1-0.1L22.7,47.2L22.7,47.2z"/>
			
				<linearGradient id="SVGID_7_" gradientUnits="userSpaceOnUse" x1="281.0048" y1="-353.9052" x2="299.9147" y2="-353.9052" gradientTransform="matrix(1 0 0 -1 -276 -304)">
				<stop  offset="0" style="stop-color:#E80AEA;stop-opacity:0.4"/>
				<stop  offset="0.1525" style="stop-color:#E241E2;stop-opacity:0.2818"/>
				<stop  offset="0.3212" style="stop-color:#DC77D9;stop-opacity:0.151"/>
				<stop  offset="0.4475" style="stop-color:#D899D4;stop-opacity:5.309860e-02"/>
				<stop  offset="0.516" style="stop-color:#D7A6D2;stop-opacity:0"/>
				<stop  offset="0.5895" style="stop-color:#B0B4DD;stop-opacity:3.034880e-02"/>
				<stop  offset="0.6773" style="stop-color:#88C3E9;stop-opacity:6.663310e-02"/>
				<stop  offset="0.7639" style="stop-color:#69CEF1;stop-opacity:0.1024"/>
				<stop  offset="0.8479" style="stop-color:#53D6F8;stop-opacity:0.1371"/>
				<stop  offset="0.928" style="stop-color:#46DBFC;stop-opacity:0.1702"/>
				<stop  offset="1" style="stop-color:#41DDFD;stop-opacity:0.2"/>
			</linearGradient>
			<path class="st5" d="M22.7,47.2c-0.4-0.4-0.9-0.8-1.6-1.2c-3.7-2.1-9.7-2.1-13.4,0c-0.6,0.4-1.1,0.8-1.6,1.2H5.3
				c-0.1,0-0.3,0.1-0.3,0.3v2.4c0,1.4,0.9,2.8,2.8,3.9c3.7,2.1,9.7,2.1,13.4,0c1.8-1.1,2.8-2.5,2.8-3.9v-2.7H22.7z"/>
			<path class="st6" d="M23.6,48.9c-0.3,0.7-0.9,1.4-1.7,2c-0.1,0.1-0.2,0.1-0.3,0.2c-0.2,0.1-0.3,0.2-0.5,0.3
				c-0.7,0.4-1.6,0.8-2.5,1c-3.5,1-7.9,0.7-10.9-1c-3.7-2.1-3.7-5.6,0-7.7s9.7-2.1,13.4,0C23.6,45.1,24.4,47.1,23.6,48.9z"/>
			
				<linearGradient id="SVGID_8_" gradientUnits="userSpaceOnUse" x1="281.0042" y1="-354.2713" x2="299.9153" y2="-354.2713" gradientTransform="matrix(1 0 0 -1 -276 -304)">
				<stop  offset="0" style="stop-color:#E80AEA;stop-opacity:0.3"/>
				<stop  offset="0.1193" style="stop-color:#EE4EF0;stop-opacity:0.3694"/>
				<stop  offset="0.2621" style="stop-color:#F599F6;stop-opacity:0.4524"/>
				<stop  offset="0.3805" style="stop-color:#FBD0FB;stop-opacity:0.5212"/>
				<stop  offset="0.4684" style="stop-color:#FEF2FE;stop-opacity:0.5723"/>
				<stop  offset="0.516" style="stop-color:#FFFFFF;stop-opacity:0.6"/>
				<stop  offset="0.5597" style="stop-color:#E1FAFF;stop-opacity:0.609"/>
				<stop  offset="0.6381" style="stop-color:#B0F1FE;stop-opacity:0.6252"/>
				<stop  offset="0.7162" style="stop-color:#88EAFE;stop-opacity:0.6414"/>
				<stop  offset="0.7924" style="stop-color:#69E4FD;stop-opacity:0.6571"/>
				<stop  offset="0.8662" style="stop-color:#53E0FD;stop-opacity:0.6724"/>
				<stop  offset="0.9367" style="stop-color:#46DEFD;stop-opacity:0.6869"/>
				<stop  offset="1" style="stop-color:#41DDFD;stop-opacity:0.7"/>
			</linearGradient>
			<path class="st7" d="M21.1,51.4c-3.7,2.1-9.7,2.1-13.4,0C5.9,50.4,5,48.9,5,47.5c0,1.4,1,2.7,2.8,3.8c3.7,2.1,9.7,2.1,13.4,0
				c1.8-1.1,2.7-2.4,2.8-3.8C23.9,48.9,23,50.4,21.1,51.4z"/>
			
				<linearGradient id="SVGID_9_" gradientUnits="userSpaceOnUse" x1="289.0308" y1="-348.0852" x2="288.9448" y2="-351.0084" gradientTransform="matrix(1 0 0 -1 -276 -304)">
				<stop  offset="0" style="stop-color:#433FAB"/>
				<stop  offset="0.31" style="stop-color:#372DA3"/>
				<stop  offset="1" style="stop-color:#1E0793"/>
			</linearGradient>
			<path class="st8" d="M14.4,44.6l-2.9-1.4v3.2l2.9,1.5V44.6z"/>
			
				<linearGradient id="SVGID_10_" gradientUnits="userSpaceOnUse" x1="291.7599" y1="-347.9726" x2="291.8037" y2="-351.0392" gradientTransform="matrix(1 0 0 -1 -276 -304)">
				<stop  offset="0" style="stop-color:#6663BF"/>
				<stop  offset="0.408" style="stop-color:#5247B5"/>
				<stop  offset="1" style="stop-color:#3721A7"/>
			</linearGradient>
			<path class="st9" d="M14.4,44.6l2.7-1.3v3.3l-2.7,1.3V44.6z"/>
			
				<linearGradient id="SVGID_11_" gradientUnits="userSpaceOnUse" x1="290.3681" y1="-345.6937" x2="290.2805" y2="-348.6287" gradientTransform="matrix(1 0 0 -1 -276 -304)">
				<stop  offset="0" style="stop-color:#2B1C87"/>
				<stop  offset="0.2784" style="stop-color:#2C1C8A"/>
				<stop  offset="0.4527" style="stop-color:#311D92"/>
				<stop  offset="0.5984" style="stop-color:#391FA1"/>
				<stop  offset="0.7284" style="stop-color:#4422B5"/>
				<stop  offset="0.8479" style="stop-color:#5226D0"/>
				<stop  offset="0.9582" style="stop-color:#632AF1"/>
				<stop  offset="1" style="stop-color:#6B2CFF"/>
			</linearGradient>
			<path class="st10" d="M17.1,43.3l-2.8-1.5l-2.8,1.4l2.9,1.4L17.1,43.3z"/>
			
				<radialGradient id="SVGID_12_" cx="14.1304" cy="54.0279" r="0.1422" gradientTransform="matrix(14.3548 0 0 -14.3548 -188.5008 819.4678)" gradientUnits="userSpaceOnUse">
				<stop  offset="0" style="stop-color:#FFFFFF;stop-opacity:0.6"/>
				<stop  offset="1" style="stop-color:#6B2CFF;stop-opacity:0"/>
			</radialGradient>
			<path class="st11" d="M17.1,43.3l-2.7,1.3l-2.9-1.4l0.1,0l2.9,1.4L17.1,43.3L17.1,43.3z"/>
			
				<linearGradient id="SVGID_13_" gradientUnits="userSpaceOnUse" x1="292.768" y1="-336.9277" x2="288.8628" y2="-346.1696" gradientTransform="matrix(1 0 0 -1 -276 -304)">
				<stop  offset="0" style="stop-color:#2B1C87"/>
				<stop  offset="0.5134" style="stop-color:#6B2CFF"/>
				<stop  offset="1" style="stop-color:#241476"/>
			</linearGradient>
			<path class="st12" d="M14.4,43l-2.9-1.4c0,0,0.1-2.6,0.5-3.3c0,0,1-1.9,1.1-2.6l2-3.3l2.7-0.4l0.6,1.3l-0.6,2.8l-2.2,5.1L14.4,43
				z"/>
			
				<linearGradient id="SVGID_14_" gradientUnits="userSpaceOnUse" x1="292.3788" y1="-332.6189" x2="285.6761" y2="-340.811" gradientTransform="matrix(1 0 0 -1 -276 -304)">
				<stop  offset="0" style="stop-color:#6663BF"/>
				<stop  offset="0.3032" style="stop-color:#5247B5"/>
				<stop  offset="0.7433" style="stop-color:#3721A7"/>
				<stop  offset="1" style="stop-color:#241087"/>
			</linearGradient>
			<path class="st13" d="M11.1,38.1l-2.9-1.3c0,0,0.1-5.3,4.3-7.6c0,0,1.9-1.2,3.7-0.5l3,1.5l-0.8,0.9l-1.6,0.1l-1.8,1l-1.1,2
				l-0.8,1.4L11.1,38.1z"/>
			
				<linearGradient id="SVGID_15_" gradientUnits="userSpaceOnUse" x1="287.0651" y1="-340.4557" x2="296.3317" y2="-340.4557" gradientTransform="matrix(1 0 0 -1 -276 -304)">
				<stop  offset="0" style="stop-color:#3721A7"/>
				<stop  offset="0.592" style="stop-color:#5247B5"/>
				<stop  offset="1" style="stop-color:#6663BF"/>
			</linearGradient>
			<path class="st14" d="M11.1,38.1l2.7-1.3c0,0-0.1-2.5,2-3.7c2.1-1.2,2.2,2.6,0.6,4.4c-1.7,1.8-1.9,3.8-1.9,5.5l2.5-1.2
				c0,0,0-2,1-3.2c1-1.2,3.1-4.2,2.3-7.1c-0.8-2.9-5.1-1.7-7.5,1.4C12.6,33,11.3,34.7,11.1,38.1z"/>
			
				<radialGradient id="SVGID_16_" cx="7.7529" cy="55.8491" r="0.1422" gradientTransform="matrix(26.4092 0 0 -26.4092 -188.7282 1512.8812)" gradientUnits="userSpaceOnUse">
				<stop  offset="0" style="stop-color:#FFFFFF;stop-opacity:0.6"/>
				<stop  offset="1" style="stop-color:#6B2CFF;stop-opacity:0"/>
			</radialGradient>
			<path class="st15" d="M16.5,37.5c-1.6,1.8-1.9,3.7-1.9,5.5L14.4,43c0-1.8,0.2-3.7,1.9-5.5c1.4-1.5,1.5-4.5,0.2-4.6
				C18,32.8,17.9,35.9,16.5,37.5z"/>
			
				<radialGradient id="SVGID_17_" cx="5.1234" cy="57.2567" r="0.1422" gradientTransform="matrix(46.3735 0 0 -46.3735 -223.7035 2686.9194)" gradientUnits="userSpaceOnUse">
				<stop  offset="0" style="stop-color:#FFFFFF;stop-opacity:0.6"/>
				<stop  offset="1" style="stop-color:#6B2CFF;stop-opacity:0"/>
			</radialGradient>
			<path class="st16" d="M20,31.1c-1.2-2.2-5.1-0.9-7.3,2c0,0-1.3,1.7-1.6,5l-0.1,0c0.2-3.4,1.6-5.1,1.6-5.1
				C14.9,30,18.9,28.7,20,31.1z"/>
			
				<radialGradient id="SVGID_18_" cx="23.8584" cy="50.5045" r="0.1422" gradientTransform="matrix(8.2081 0 0 -8.2081 -181.3501 460.7647)" gradientUnits="userSpaceOnUse">
				<stop  offset="0" style="stop-color:#FFFFFF;stop-opacity:0.6"/>
				<stop  offset="1" style="stop-color:#6B2CFF;stop-opacity:0"/>
			</radialGradient>
			<path class="st17" d="M14.4,44.6v3.3C14.4,47.9,14.6,46.7,14.4,44.6z"/>
			
				<radialGradient id="SVGID_19_" cx="1.7586" cy="60.7033" r="0.1422" gradientTransform="matrix(293.0259 -1.3418 -1.3418 -293.0259 -425.2026 17836.2637)" gradientUnits="userSpaceOnUse">
				<stop  offset="0" style="stop-color:#FF0054;stop-opacity:0.28"/>
				<stop  offset="1" style="stop-color:#D7A6D2;stop-opacity:0"/>
			</radialGradient>
			<path class="st18" d="M5,47.7c0,1.4,0.9,2.7,2.7,3.8c3.6,2.1,9.5,2.1,13.2,0c1.8-1.1,2.7-2.4,2.7-3.8V0H5V47.7z"/>
			
				<linearGradient id="SVGID_20_" gradientUnits="userSpaceOnUse" x1="293.346" y1="-322.0071" x2="302.8039" y2="-322.0071" gradientTransform="matrix(1 0 0 -1 -276 -304)">
				<stop  offset="0" style="stop-color:#2B1C87"/>
				<stop  offset="0.5134" style="stop-color:#6B2CFF"/>
				<stop  offset="1" style="stop-color:#241476"/>
			</linearGradient>
			<path class="st19" d="M26.8,15.3v8c-0.4-0.4-1-0.8-1.5-1.1c-2.2-1.3-5-1.9-7.9-2v-7.6c3.1,0,6.1,0.7,8.4,2
				C26.1,14.9,26.5,15.1,26.8,15.3z"/>
			<g class="st20">
				
					<linearGradient id="SVGID_21_" gradientUnits="userSpaceOnUse" x1="274.8144" y1="-322.9948" x2="287.1655" y2="-325.554" gradientTransform="matrix(1 0 0 -1 -276 -304)">
					<stop  offset="0" style="stop-color:#C4A3FF"/>
					<stop  offset="1" style="stop-color:#7F60D7"/>
				</linearGradient>
				<path class="st21" d="M9,19.1c-0.3,0-0.5-0.1-0.8-0.2C7,18.7,6,18.3,5,17.8c-0.3-0.1-0.6-0.3-0.9-0.5c-0.1-0.1-0.3-0.2-0.4-0.2
					C3.6,17,3.5,17,3.3,16.9c-0.1-0.1-0.2-0.1-0.3-0.2c0,0,0,0,0,0c-0.4-0.3-0.7-0.5-1-0.8c-1-1-1.5-2.1-1.5-3.3l0,8.6v0.2
					c0,1.1,0.5,2.3,1.5,3.3c0.3,0.3,0.6,0.6,1,0.8c0,0,0,0,0,0c0.2,0.1,0.4,0.3,0.6,0.4C3.8,26,4,26.1,4.1,26.1
					c0.3,0.2,0.6,0.3,0.9,0.5c1,0.5,2,0.8,3.2,1.1c0.3,0.1,0.5,0.1,0.8,0.2c0.6,0.1,1.3,0.2,1.9,0.2l0-8.8
					C10.2,19.3,9.6,19.2,9,19.1z"/>
				<path class="st22" d="M4.3,18.8c-0.9-0.4-1.9,0.5-1.9,1.5c0,1,0.2,2.3,1.8,3.2c1.7,1,2.5-0.4,2.5-1.5
					C6.6,20.7,5.8,19.5,4.3,18.8z"/>
			</g>
			
				<linearGradient id="SVGID_22_" gradientUnits="userSpaceOnUse" x1="276.8389" y1="-343.3199" x2="286.3223" y2="-343.3199" gradientTransform="matrix(1 0 0 -1 -276 -304)">
				<stop  offset="0" style="stop-color:#A06AFF"/>
				<stop  offset="0.6093" style="stop-color:#7E66D9"/>
				<stop  offset="1" style="stop-color:#6663BF"/>
			</linearGradient>
			<path class="st23" d="M4.8,37.3c-0.9-0.5-1.6-1.1-2.2-1.7c-1.1-1.2-1.7-2.4-1.7-3.7v7.4v0.2c0,2,1.4,3.9,4,5.4
				c1.6,0.9,3.5,1.6,5.5,1.9v-7.6C8.3,38.8,6.4,38.2,4.8,37.3z"/>
			
				<linearGradient id="SVGID_23_" gradientUnits="userSpaceOnUse" x1="293.346" y1="-347.4431" x2="302.8294" y2="-347.4431" gradientTransform="matrix(1 0 0 -1 -276 -304)">
				<stop  offset="0" style="stop-color:#C4A3FF"/>
				<stop  offset="1" style="stop-color:#7F60D7"/>
			</linearGradient>
			<path class="st24" d="M22.9,41.4c0.9-0.5,1.6-1.1,2.2-1.7c1.1-1.2,1.7-2.4,1.7-3.7v7.4v0.2c0,2-1.4,3.9-4,5.4
				c-1.6,0.9-3.5,1.6-5.5,1.9v-7.6C19.4,43,21.3,42.3,22.9,41.4z"/>
			
				<linearGradient id="SVGID_24_" gradientUnits="userSpaceOnUse" x1="293.0616" y1="-334.4479" x2="302.8863" y2="-334.4479" gradientTransform="matrix(1 0 0 -1 -276 -304)">
				<stop  offset="0" style="stop-color:#C4A3FF"/>
				<stop  offset="1" style="stop-color:#7F60D7"/>
			</linearGradient>
			<path class="st25" d="M25.5,25.8c-0.3,0.3-0.6,0.5-0.9,0.8c-0.2,0.1-0.4,0.3-0.6,0.4c-0.1,0.1-0.2,0.2-0.4,0.2
				c-1.3,0.7-2.7,1.2-4.3,1.5c-0.8,0.1-1.5,0.2-2.3,0.3v8.5c0.8,0,1.6-0.1,2.3-0.3c1.6-0.3,3.1-0.8,4.3-1.5c0.3-0.2,0.7-0.4,1-0.6
				c0.3-0.2,0.6-0.5,0.9-0.8c0.8-0.8,1.2-1.6,1.4-2.5v-1.2v-7.3C26.7,24.2,26.3,25.1,25.5,25.8z"/>
			<g class="st26">
				<g class="st26">
					<path class="st27" d="M21.7,30.1v4.9c-0.4,0.1-0.8,0.3-1.2,0.4v-4.9C21,30.3,21.3,30.2,21.7,30.1z"/>
					<path class="st27" d="M23.9,29v4.9c-0.1,0-0.1,0.1-0.2,0.1c-0.3,0.2-0.6,0.3-1,0.5v-4.9c0.3-0.1,0.6-0.3,1-0.5
						C23.8,29.1,23.8,29.1,23.9,29z"/>
					<path class="st27" d="M26.1,27.1V32c-0.2,0.2-0.4,0.5-0.6,0.7c-0.2,0.2-0.4,0.4-0.6,0.5v-4.9c0.2-0.2,0.4-0.4,0.6-0.5
						C25.7,27.5,25.9,27.3,26.1,27.1z"/>
				</g>
			</g>
		</g>
	</g>
</g>
</svg>
