<?xml version="1.0" encoding="utf-8"?>
<!-- Generator: Adobe Illustrator 25.0.0, SVG Export Plug-In . SVG Version: 6.00 Build 0)  -->
<svg version="1.1" id="Layer_1" xmlns="http://www.w3.org/2000/svg" xmlns:xlink="http://www.w3.org/1999/xlink" x="0px" y="0px"
	 viewBox="0 0 18 12" style="enable-background:new 0 0 18 12;" xml:space="preserve">
<style type="text/css">
	.st0{clip-path:url(#SVGID_2_);}
	.st1{clip-path:url(#SVGID_4_);fill:#E91E26;}
	.st2{clip-path:url(#SVGID_4_);fill:#2E6934;}
	.st3{clip-path:url(#SVGID_4_);}
	.st4{clip-path:url(#SVGID_6_);fill:#F4EB32;}
	.st5{clip-path:url(#SVGID_6_);}
	.st6{fill:#010101;}
	.st7{fill:none;}
	.st8{clip-path:url(#SVGID_6_);fill:#010101;}
	.st9{fill:#E91E26;}
	.st10{clip-path:url(#SVGID_6_);fill:#FFFFFF;}
	.st11{clip-path:url(#SVGID_6_);fill:#E91E26;}
	.st12{clip-path:url(#SVGID_6_);fill:#2D2D86;}
</style>
<g>
	<defs>
		<rect id="SVGID_1_" width="18" height="12"/>
	</defs>
	<clipPath id="SVGID_2_">
		<use xlink:href="#SVGID_1_"  style="overflow:visible;"/>
	</clipPath>
	<g class="st0">
		<g>
			<defs>
				<rect id="SVGID_3_" x="-1.3" width="20.6" height="12"/>
			</defs>
			<clipPath id="SVGID_4_">
				<use xlink:href="#SVGID_3_"  style="overflow:visible;"/>
			</clipPath>
			<rect x="5.9" class="st1" width="13.4" height="12"/>
			<rect x="-1.3" class="st2" width="7.2" height="12"/>
			<g class="st3">
				<defs>
					<rect id="SVGID_5_" x="-1.3" width="20.6" height="12"/>
				</defs>
				<clipPath id="SVGID_6_">
					<use xlink:href="#SVGID_5_"  style="overflow:visible;"/>
				</clipPath>
				<path class="st4" d="M8.3,7.9c-0.9,0-5.1-2.6-5.1-3l0.2-0.4c0.4,0.6,4.7,3.1,5.1,3L8.3,7.9L8.3,7.9z"/>
				<path class="st4" d="M3.3,4.4C3.3,4.6,4.4,5.3,5.8,6.2s2.6,1.4,2.7,1.3c0,0,0-0.1,0-0.1c0,0-0.1,0-0.1,0
					C8.1,7.3,7.1,6.9,5.9,6.1S3.6,4.7,3.3,4.4C3.4,4.4,3.4,4.3,3.3,4.4L3.3,4.4L3.3,4.4L3.3,4.4L3.3,4.4z M8.3,7.9
					C8.3,7.9,8.2,7.9,8.3,7.9c-0.4,0-1.5-0.5-2.7-1.2C4.2,5.8,3,5,3.1,4.8l0-0.1l0,0C3.1,5.1,5.5,6.5,5.6,6.6C7,7.4,8.2,7.9,8.3,7.9
					L8.3,7.9L8.3,7.9z"/>
				<g class="st5">
					<path class="st6" d="M8.2,7.9C8.2,7.9,8.2,7.9,8.2,7.9c-0.4,0-1.4-0.6-2.6-1.3C4,5.7,3.2,5.1,3.1,4.9c0,0,0,0,0-0.1l0-0.1
						c0,0,0,0,0,0l0,0c0,0,0,0,0,0.1C3.2,5.1,4,5.7,5.6,6.6C6.8,7.3,7.8,7.8,8.2,7.9C8.2,7.9,8.3,7.9,8.2,7.9L8.2,7.9
						C8.3,7.8,8.3,7.8,8.2,7.9C8,7.8,6.9,7.4,5.6,6.6c0,0,0,0-0.1-0.1C4,5.6,3.2,5,3.2,4.8c0,0.2,0.4,0.6,2.4,1.7c0,0,0.1,0,0.1,0.1
						C6.9,7.3,8,7.8,8.2,7.9c0.1-0.1,0.1-0.1,0.1-0.1l0,0C8.3,7.8,8.3,7.8,8.2,7.9L8.2,7.9C8.3,7.9,8.2,7.9,8.2,7.9L8.2,7.9z
						 M8.5,7.5C8.3,7.5,7.1,7,5.8,6.2C4.3,5.3,3.3,4.6,3.3,4.4l0-0.1c0,0,0,0,0,0l0,0.1C3.3,4.6,4.6,5.4,5.8,6.2
						C7.2,7,8.3,7.5,8.5,7.5C8.5,7.5,8.5,7.5,8.5,7.5C8.5,7.5,8.5,7.5,8.5,7.5C8.5,7.4,8.5,7.4,8.5,7.5C8,7.3,7,6.8,5.9,6.1
						C4.7,5.5,3.6,4.7,3.4,4.4c0,0,0-0.1,0-0.1c0,0,0,0.1,0,0.1c0.2,0.3,1.4,1.1,2.4,1.7C7,6.8,8,7.3,8.5,7.5
						C8.5,7.4,8.6,7.4,8.5,7.5C8.6,7.4,8.6,7.4,8.5,7.5C8.5,7.5,8.5,7.5,8.5,7.5L8.5,7.5z"/>
				</g>
				<path class="st4" d="M5.9,5.1c0.9,0,2-0.1,2.7-0.4L8.4,4.5C8.1,4.7,6.9,4.8,5.9,4.8c-1.2,0-2.1-0.1-2.5-0.4L3.3,4.7
					C4.1,5,4.9,5.1,5.9,5.1L5.9,5.1z"/>
				<path class="st4" d="M8.6,4.7c0,0-0.4,0.2-1.1,0.3c-0.4,0.1-1,0.1-1.6,0.1c-0.6,0-1.2,0-1.6-0.1c-0.6-0.1-1-0.2-1.1-0.3
					c0,0,0,0,0-0.1c0.4,0.1,0.7,0.2,1.1,0.3C4.7,5,5.3,5,5.9,5C6.6,5,7.1,5,7.5,4.9C8.2,4.8,8.5,4.7,8.6,4.7L8.6,4.7L8.6,4.7z
					 M8.5,4.5c-0.1,0.1-0.4,0.2-1,0.3C7.1,4.8,6.6,4.9,5.9,4.9c-0.6,0-1.1,0-1.5-0.1C3.8,4.7,3.5,4.5,3.3,4.5c0,0,0,0,0-0.1
					c0.1,0,0.4,0.2,1,0.3c0.4,0.1,0.9,0.1,1.5,0.1c0.7,0,1.2-0.1,1.6-0.1C8.1,4.6,8.4,4.4,8.5,4.5L8.5,4.5L8.5,4.5z"/>
				<g class="st5">
					<path class="st6" d="M5.9,5.1c-0.5,0-1.1,0-1.6-0.1c-0.6-0.1-1-0.2-1.1-0.3l0,0l0,0c0.4,0.1,0.7,0.2,1.1,0.3
						C4.8,5,5.4,5,5.9,5.1C6.5,5,7,5,7.5,4.9c0.6-0.1,1-0.2,1-0.3l0.1,0.1c0,0.1-0.5,0.2-1.1,0.3C7,5.1,6.5,5.1,5.9,5.1L5.9,5.1
						L5.9,5.1z M3.3,4.7L3.3,4.7C3.4,4.8,3.7,4.9,4.3,5c0.5,0.1,1,0.1,1.6,0.1v0l0,0c0.6,0,1.1,0,1.6-0.1c0.6-0.1,1-0.3,1.1-0.3
						l0-0.1c0,0.1-0.4,0.2-1,0.3C7,5,6.5,5,5.9,5C5.4,5,4.8,5,4.3,4.9C3.9,4.9,3.6,4.8,3.3,4.7L3.3,4.7z M5.9,4.9
						c-0.5,0-1.1,0-1.5-0.1c-0.5-0.1-0.9-0.2-1-0.2l0,0l0-0.1c0,0,0,0,0,0c0.1,0,0.4,0.2,1,0.3C4.7,4.7,5.2,4.8,5.9,4.9
						c0.5-0.1,1-0.1,1.6-0.2c0.6-0.1,0.9-0.2,1-0.3l0.1,0.1c-0.1,0.1-0.4,0.2-1,0.3C7,4.8,6.5,4.9,5.9,4.9C5.9,4.9,5.9,4.9,5.9,4.9
						L5.9,4.9z M3.4,4.4L3.4,4.4L3.4,4.4c0.2,0.1,0.5,0.2,1,0.3c0.4,0.1,1,0.1,1.5,0.1v0l0,0c0.5,0,1,0,1.6-0.1
						c0.6-0.1,0.9-0.2,1-0.3l0-0.1c0,0-0.3,0.2-1,0.3C7,4.8,6.5,4.8,5.9,4.8c-0.7,0-1.2-0.1-1.5-0.1C3.7,4.6,3.4,4.5,3.4,4.4
						L3.4,4.4z"/>
				</g>
				<path class="st4" d="M2.9,6.2c0.6,0.3,1.8,0.5,3,0.5c1.1,0,2.5-0.2,3-0.4l0-0.3c-0.2,0.3-1.7,0.5-3,0.5c-1.3,0-2.5-0.2-3-0.5
					L2.9,6.2L2.9,6.2z"/>
				<path class="st4" d="M8.9,6.1L8.9,6.1C8.8,6.3,8.3,6.4,7.7,6.5C7.3,6.6,6.7,6.7,5.9,6.7c-0.7,0-1.3-0.1-1.7-0.1
					C3.4,6.4,3,6.3,2.9,6.2V6.1c0.3,0.2,1,0.3,1.3,0.4c0.4,0.1,1,0.1,1.7,0.1c0.8,0,1.4-0.1,1.8-0.1C8.2,6.4,8.8,6.2,8.9,6.1
					L8.9,6.1z M8.9,5.9L8.9,5.9C8.8,6,8.3,6.2,7.7,6.3C7.3,6.3,6.7,6.4,5.9,6.4c-0.7,0-1.3-0.1-1.7-0.1C3.4,6.2,3,6,2.9,5.9l0-0.1
					c0.3,0.2,1,0.3,1.3,0.4c0.4,0.1,1,0.1,1.7,0.1c0.8,0,1.4-0.1,1.8-0.1C8.2,6.1,8.8,6,8.9,5.9L8.9,5.9z"/>
				<g class="st5">
					<path class="st6" d="M5.9,6.7c-0.6,0-1.2,0-1.7-0.1C3.5,6.4,3,6.3,2.9,6.2l0-0.1c0.3,0.2,1,0.3,1.3,0.3
						C4.7,6.5,5.3,6.6,5.9,6.7c0.7-0.1,1.3-0.1,1.8-0.2c0.4-0.1,1.1-0.2,1.2-0.3l0,0.1C8.8,6.3,8.3,6.4,7.7,6.5
						C7.2,6.6,6.6,6.7,5.9,6.7L5.9,6.7z M2.9,6.1L2.9,6.1C3,6.2,3.4,6.4,4.1,6.5c0.5,0.1,1.1,0.1,1.7,0.1c0.7,0,1.3,0,1.8-0.1
						c0.6-0.1,1.1-0.2,1.2-0.3l0-0.1C8.8,6.2,8.2,6.4,7.7,6.5C7.2,6.6,6.6,6.6,5.9,6.6c-0.6,0-1.2,0-1.7-0.1
						C3.9,6.4,3.2,6.3,2.9,6.1L2.9,6.1z M5.9,6.4c-0.6,0-1.2,0-1.7-0.1C3.5,6.2,3,6,2.9,6l0-0.1c0.3,0.2,1,0.3,1.3,0.3
						C4.7,6.3,5.3,6.3,5.9,6.4c0.7-0.1,1.3-0.1,1.8-0.2C8.2,6.1,8.8,6,8.9,5.9l0,0.1C8.8,6,8.3,6.2,7.7,6.3C7.2,6.4,6.6,6.4,5.9,6.4
						L5.9,6.4z M2.9,5.9L2.9,5.9C3,6,3.4,6.2,4.1,6.3c0.5,0.1,1.1,0.1,1.7,0.1c0.7,0,1.3,0,1.8-0.1C8.3,6.2,8.8,6,8.9,5.9l0-0.1
						C8.8,6,8.2,6.2,7.7,6.2C7.2,6.3,6.6,6.3,5.9,6.3c-0.6,0-1.2,0-1.7-0.1C3.9,6.2,3.2,6,2.9,5.9L2.9,5.9z"/>
				</g>
				<path class="st4" d="M5.9,7.8c-1.3,0-2.4-0.3-2.6-0.4l0.2,0.3c0.4,0.2,1.5,0.4,2.5,0.4c1,0,1.8-0.1,2.4-0.4l0.2-0.3
					C8.1,7.6,6.7,7.8,5.9,7.8L5.9,7.8z"/>
				<path class="st4" d="M8.4,7.6c0,0-0.1,0.1-0.1,0.1C8,7.8,7.6,7.9,7.4,8C7,8,6.4,8.1,5.9,8.1c-1.1,0-2.1-0.2-2.5-0.4l0-0.1l0,0
					l0.1,0C4.2,7.9,5.1,8,5.9,8C6.4,8,7,8,7.4,7.9C8,7.8,8.3,7.7,8.4,7.6L8.4,7.6L8.4,7.6z M8.6,7.4C8.6,7.4,8.6,7.4,8.6,7.4
					C8.5,7.4,8.5,7.4,8.6,7.4C8.3,7.5,7.9,7.6,7.3,7.7C6.9,7.8,6.7,7.8,5.9,7.8c-1.5,0-2.4-0.3-2.6-0.4l0-0.1C4.1,7.6,5,7.8,5.9,7.8
					c0.7,0,1-0.1,1.4-0.1C8,7.5,8.4,7.4,8.6,7.4C8.5,7.4,8.5,7.4,8.6,7.4L8.6,7.4L8.6,7.4z"/>
				<g class="st5">
					<path class="st6" d="M5.9,8.1C5.9,8.1,5.9,8.1,5.9,8.1c-1.2,0-2.1-0.2-2.5-0.4l0-0.1c0,0,0,0,0,0h0l0.1,0C4.1,7.9,5,8,5.9,8.1
						C5.9,8,5.9,8,5.9,8.1C6.5,8,7,8,7.4,7.9c0.7-0.1,0.9-0.2,1-0.3c0,0,0,0,0,0c0,0,0,0,0,0l0,0l0,0c0,0,0,0,0,0
						c0,0-0.1,0.1-0.1,0.1C8.1,7.8,7.6,7.9,7.4,8C7,8.1,6.4,8.1,5.9,8.1L5.9,8.1z M3.4,7.6L3.4,7.6c0.5,0.3,1.5,0.5,2.5,0.5
						C6.4,8.1,7,8,7.4,8c0.2,0,0.6-0.1,0.9-0.2c0,0,0-0.1,0.1-0.1c-0.1,0-0.3,0.1-1,0.3C7,8,6.5,8,5.9,8l0,0C5,8,4.1,7.9,3.4,7.6
						L3.4,7.6L3.4,7.6z M5.9,7.9L5.9,7.9c-1.3,0-2.2-0.3-2.6-0.4l0-0.1C4.2,7.6,5.1,7.8,5.9,7.9c0.6-0.1,1-0.1,1.3-0.2l0.1,0
						c0.7-0.1,1-0.2,1.1-0.3l0.1,0l0,0l-0.1,0C8.4,7.4,8,7.6,7.3,7.7l-0.1,0C6.9,7.7,6.6,7.8,5.9,7.9C5.1,7.8,4.2,7.6,3.2,7.4l0,0.1
						C3.7,7.6,4.6,7.8,5.9,7.9c0.7,0,0.9-0.1,1.3-0.1l0.2,0c0.5-0.1,1-0.2,1.2-0.3l0.1-0.1l0,0.1C8.3,7.5,7.9,7.7,7.3,7.7l-0.2,0
						C6.9,7.8,6.6,7.8,5.9,7.9C5.9,7.9,5.9,7.9,5.9,7.9L5.9,7.9z"/>
				</g>
				<path class="st4" d="M5.9,3.3c1.5,0,2.7,1.2,2.7,2.7c0,1.5-1.2,2.7-2.7,2.7C4.4,8.7,3.2,7.5,3.2,6C3.2,4.5,4.4,3.3,5.9,3.3
					L5.9,3.3z M5.9,3.1c1.6,0,2.9,1.3,2.9,2.9c0,1.6-1.3,2.9-2.9,2.9S3,7.6,3,6C3,4.4,4.3,3.1,5.9,3.1L5.9,3.1z"/>
				<path class="st4" d="M5.9,3c1.6,0,3,1.3,3,3c0,1.6-1.3,3-3,3c-1.6,0-3-1.3-3-3C2.9,4.4,4.3,3,5.9,3L5.9,3z M5.9,3.1
					c1.6,0,2.9,1.3,2.9,2.9c0,1.6-1.3,2.9-2.9,2.9C4.3,8.9,3,7.6,3,6C3,4.4,4.3,3.1,5.9,3.1L5.9,3.1z"/>
				<g class="st5">
					<path class="st6" d="M5.9,9c-1.6,0-3-1.3-3-3c0-1.6,1.3-3,3-3c1.6,0,3,1.3,3,3C8.9,7.6,7.5,9,5.9,9L5.9,9z M5.9,3
						c-1.6,0-3,1.3-3,3c0,1.6,1.3,3,3,3c1.6,0,3-1.3,3-3C8.9,4.4,7.5,3,5.9,3L5.9,3z M5.9,8.9C4.3,8.9,3,7.6,3,6
						c0-1.6,1.3-2.9,2.9-2.9c1.6,0,2.9,1.3,2.9,2.9C8.8,7.6,7.5,8.9,5.9,8.9L5.9,8.9z M5.9,3.1C4.3,3.1,3,4.4,3,6
						c0,1.6,1.3,2.9,2.9,2.9c1.6,0,2.9-1.3,2.9-2.9C8.8,4.4,7.5,3.1,5.9,3.1L5.9,3.1z"/>
				</g>
				<path class="st4" d="M5.9,3.3c1.5,0,2.7,1.2,2.7,2.7c0,1.5-1.2,2.7-2.7,2.7C4.4,8.7,3.2,7.5,3.2,6C3.2,4.5,4.4,3.3,5.9,3.3
					L5.9,3.3z M5.9,3.3c1.5,0,2.7,1.2,2.7,2.7S7.4,8.7,5.9,8.7C4.5,8.7,3.3,7.5,3.3,6S4.5,3.3,5.9,3.3L5.9,3.3z"/>
				<g class="st5">
					<path class="st6" d="M5.9,8.7C4.4,8.7,3.2,7.5,3.2,6c0-1.5,1.2-2.7,2.7-2.7c1.5,0,2.7,1.2,2.7,2.7C8.6,7.5,7.4,8.7,5.9,8.7
						L5.9,8.7z M5.9,3.3C4.4,3.3,3.2,4.5,3.2,6s1.2,2.7,2.7,2.7c1.5,0,2.7-1.2,2.7-2.7S7.4,3.3,5.9,3.3L5.9,3.3z M5.9,8.7
						C4.4,8.7,3.2,7.5,3.2,6c0-1.5,1.2-2.7,2.7-2.7c1.5,0,2.7,1.2,2.7,2.7C8.6,7.5,7.4,8.7,5.9,8.7L5.9,8.7z M5.9,3.4
						C4.5,3.4,3.3,4.5,3.3,6c0,1.5,1.2,2.6,2.6,2.6c1.5,0,2.6-1.2,2.6-2.6C8.6,4.5,7.4,3.4,5.9,3.4L5.9,3.4z"/>
				</g>
				<rect x="5.8" y="3" class="st4" width="0.3" height="6"/>
				<g class="st5">
					<path class="st7" d="M5.8,3H6H5.8z"/>
				</g>
				<g class="st5">
					<path class="st7" d="M5.8,9H6H5.8z"/>
				</g>
				<path class="st4" d="M6,3L6,3l0.1,6H6L6,3L6,3z M5.8,3L5.8,3l0.1,6H5.8V3L5.8,3z"/>
				<g class="st5">
					<path class="st6" d="M6.1,9L6.1,9L6,3l0.1,0L6.1,9C6.1,9,6.1,9,6.1,9C6.1,9,6.1,9,6.1,9L6.1,9z M6.1,3L6.1,3l0,6l0,0L6.1,3
						L6.1,3z M5.8,9L5.8,9L5.7,3l0.1,0L5.8,9C5.8,9,5.8,9,5.8,9C5.8,9,5.8,9,5.8,9L5.8,9z M5.8,3L5.8,3l0,6l0,0L5.8,3L5.8,3z"/>
				</g>
				<path class="st4" d="M2.9,5.9c0.4-0.3,1.7-0.6,3-0.6c1.2,0,2.7,0.3,3,0.6l0,0.3c-0.3-0.2-1.4-0.5-3-0.5c-1.6,0-2.7,0.3-3,0.6
					V5.9L2.9,5.9z"/>
				<g class="st5">
					<path class="st6" d="M2.9,6.1l0-0.2c0,0,0,0,0,0V6.1L2.9,6.1z"/>
				</g>
				<g class="st5">
					<path class="st6" d="M8.9,6.1l0-0.2c0,0,0,0,0,0V6.1L8.9,6.1z"/>
				</g>
				<path class="st4" d="M5.9,5.5c0.7,0,1.4,0.1,1.9,0.2C8.4,5.8,8.8,6,8.9,6.1v0.1C8.7,6,8.2,5.9,7.8,5.8C7.3,5.7,6.6,5.6,5.9,5.5
					C5.2,5.6,4.5,5.7,4,5.8C3.5,5.9,3,6,2.9,6.2V6.1c0-0.1,0.5-0.3,1-0.4C4.5,5.6,5.2,5.5,5.9,5.5L5.9,5.5z M5.9,5.3
					c0.7,0,1.4,0.1,1.9,0.2c0.6,0.1,0.9,0.3,1.1,0.4l0,0.1C8.7,5.7,8.2,5.6,7.8,5.5C7.3,5.4,6.6,5.4,5.9,5.3C5.2,5.4,4.5,5.4,4,5.5
					C3.6,5.6,3,5.8,2.9,5.9V5.9c0-0.1,0.5-0.3,1-0.4C4.5,5.4,5.2,5.3,5.9,5.3L5.9,5.3z"/>
				<g class="st5">
					<path class="st6" d="M2.9,6.2C2.9,6.2,2.9,6.2,2.9,6.2C2.9,6.2,2.9,6.2,2.9,6.2L2.9,6.2c0-0.2,0.5-0.4,1-0.5
						c0.6-0.1,1.3-0.2,2-0.2c0.7,0,1.4,0.1,1.9,0.2c0.6,0.1,1,0.3,1.1,0.4l0,0.1C8.7,6,8.1,5.9,7.8,5.8C7.3,5.7,6.6,5.6,5.9,5.6
						c-0.7,0-1.4,0.1-2,0.2C3.5,5.9,3,6.1,2.9,6.2C2.9,6.2,2.9,6.2,2.9,6.2L2.9,6.2z M5.9,5.6c0.7,0,1.3,0.1,1.9,0.2
						C8.2,5.8,8.7,6,8.9,6.2l0-0.1C8.8,6,8.4,5.8,7.8,5.7C7.3,5.6,6.6,5.6,5.9,5.6c-0.7,0-1.4,0-2,0.1c-0.6,0.1-1,0.3-1,0.4v0
						C3,6,3.6,5.8,4,5.8C4.5,5.7,5.2,5.6,5.9,5.6L5.9,5.6z M2.9,6C2.9,6,2.9,6,2.9,6C2.9,6,2.9,5.9,2.9,6L2.9,6c0-0.2,0.5-0.4,1-0.5
						c0.6-0.1,1.3-0.2,2-0.2c0.7,0,1.4,0.1,1.9,0.2c0.6,0.1,1,0.3,1.1,0.4l0,0.1C8.7,5.7,8.1,5.6,7.8,5.5C7.3,5.4,6.6,5.4,5.9,5.4
						c-0.7,0-1.4,0.1-2,0.2C3.5,5.6,3,5.8,2.9,6C2.9,6,2.9,6,2.9,6L2.9,6z M5.9,5.3c0.7,0,1.3,0.1,1.9,0.2c0.3,0.1,0.9,0.2,1.1,0.4
						l0-0.1C8.8,5.7,8.4,5.6,7.8,5.5C7.3,5.4,6.6,5.3,5.9,5.3c-0.7,0-1.4,0-2,0.1c-0.6,0.1-1,0.3-1,0.4l0,0C3,5.7,3.6,5.6,4,5.5
						C4.5,5.4,5.2,5.3,5.9,5.3L5.9,5.3z"/>
				</g>
				<path class="st4" d="M5.9,4C7,4,8,4.1,8.4,4.4l0.2,0.3C8.2,4.4,7.1,4.2,5.9,4.3c-1,0-2.1,0.1-2.6,0.4l0.2-0.3
					C3.9,4.1,4.9,4,5.9,4L5.9,4z"/>
				<g class="st5">
					<path class="st7" d="M8.4,4.4l0.1,0.2L8.4,4.4z"/>
				</g>
				<path class="st4" d="M5.9,4.2c0.6,0,1.2,0,1.7,0.1c0.5,0.1,0.9,0.2,0.9,0.3l0,0.1c-0.1-0.1-0.5-0.2-1-0.3
					C7.1,4.3,6.5,4.3,5.9,4.2C5.2,4.3,4.6,4.3,4.2,4.4C3.7,4.5,3.3,4.6,3.2,4.7l0-0.1c0.2-0.1,0.4-0.2,0.9-0.3
					C4.6,4.2,5.2,4.2,5.9,4.2L5.9,4.2z M5.9,4c0.6,0,1.2,0,1.7,0.1c0.4,0.1,0.7,0.2,0.9,0.3l0.1,0.1c-0.1-0.1-0.6-0.3-1-0.3
					C7.1,4.1,6.5,4,5.9,4C5.3,4,4.7,4.1,4.2,4.2C3.8,4.2,3.5,4.3,3.4,4.4l0.1-0.1c0.2-0.1,0.4-0.2,0.8-0.2C4.7,4,5.3,4,5.9,4L5.9,4z
					"/>
				<g class="st5">
					<path class="st6" d="M8.6,4.7C8.6,4.7,8.6,4.7,8.6,4.7c-0.2-0.1-0.5-0.2-1-0.3C7.2,4.3,6.6,4.3,6,4.3H5.9H5.8
						c-0.7,0-1.2,0-1.7,0.1C3.7,4.5,3.3,4.6,3.2,4.7l0-0.1c0.2-0.1,0.5-0.2,0.9-0.3c0.4-0.1,1-0.1,1.8-0.1h0c0.7,0,1.2,0,1.7,0.1
						C8.1,4.4,8.5,4.5,8.6,4.7L8.6,4.7C8.6,4.7,8.6,4.7,8.6,4.7C8.6,4.7,8.6,4.7,8.6,4.7L8.6,4.7z M5.9,4.2L5.9,4.2
						c-0.8,0-1.3,0-1.8,0.1C3.8,4.4,3.5,4.5,3.3,4.6l0,0.1c0.1-0.1,0.4-0.2,0.9-0.3c0.5-0.1,1-0.1,1.7-0.1L5.9,4.2L5.9,4.2
						c0.7,0.1,1.3,0.1,1.7,0.2c0.5,0.1,0.8,0.2,1,0.3l0-0.1C8.5,4.6,8.1,4.4,7.6,4.3C7.2,4.3,6.6,4.2,5.9,4.2L5.9,4.2z M8.5,4.5
						C8.5,4.5,8.5,4.5,8.5,4.5c-0.1-0.1-0.6-0.3-1-0.3C7.1,4.1,6.6,4,5.9,4c-0.7,0-1.2,0-1.7,0.1C3.9,4.2,3.5,4.3,3.4,4.4l0-0.1
						c0.2-0.1,0.4-0.2,0.8-0.2C4.7,4,5.2,4,5.9,4h0c0.6,0,1.2,0,1.6,0.1C8,4.1,8.3,4.3,8.4,4.4L8.5,4.5C8.5,4.5,8.5,4.5,8.5,4.5
						C8.5,4.5,8.5,4.5,8.5,4.5L8.5,4.5z M5.9,4c0.7,0,1.2,0,1.6,0.1c0.3,0.1,0.7,0.2,0.9,0.3l0-0.1C8.3,4.3,8,4.2,7.6,4.1
						C7.1,4,6.6,4,5.9,4L5.9,4C5.2,4,4.7,4,4.2,4.1C3.9,4.2,3.6,4.2,3.5,4.3L3.4,4.4c0.1-0.1,0.4-0.2,0.8-0.3C4.7,4.1,5.2,4,5.9,4
						L5.9,4z"/>
				</g>
				<path class="st4" d="M7.4,7.2C6.8,7.1,6.3,7.1,5.9,7.1c-1.8,0-2.4,0.4-2.5,0.5L3.3,7.4C3.7,7,4.7,6.9,5.9,6.9
					c0.6,0,1.1,0.1,1.6,0.1L7.4,7.2L7.4,7.2z"/>
				<g class="st5">
					<path class="st7" d="M3.3,7.4l0.1,0.2L3.3,7.4z"/>
				</g>
				<path class="st4" d="M5.9,7.1c0.5,0,1,0,1.5,0.1l0,0.1C6.9,7.2,6.4,7.2,5.9,7.1c-0.7,0.1-1.4,0.1-2,0.3C3.7,7.4,3.4,7.6,3.4,7.7
					l0-0.1c0-0.1,0.2-0.2,0.6-0.3C4.6,7.1,5.2,7.1,5.9,7.1L5.9,7.1z M5.9,6.8c0.5,0,1.1,0,1.6,0.1l0,0.1C7,6.9,6.6,6.9,5.9,6.8
					C5.2,6.9,4.5,7,3.9,7.1C3.6,7.2,3.3,7.3,3.3,7.4l0-0.1c0-0.1,0.3-0.2,0.6-0.3C4.5,6.9,5.2,6.8,5.9,6.8L5.9,6.8z"/>
				<g class="st5">
					<path class="st6" d="M3.4,7.7C3.4,7.7,3.4,7.7,3.4,7.7L3.4,7.7c0-0.1,0.2-0.3,0.5-0.4c0.7-0.2,1.3-0.2,2-0.2c0.5,0,1,0,1.5,0.1
						l0,0.1C7,7.2,6.5,7.2,6,7.2H5.9H5.8c-0.7,0-1.4,0.1-1.9,0.2C3.7,7.5,3.4,7.6,3.4,7.7C3.4,7.7,3.4,7.7,3.4,7.7
						C3.4,7.7,3.4,7.7,3.4,7.7L3.4,7.7z M5.9,7.1c-0.7,0-1.3,0-2,0.2C3.6,7.4,3.4,7.6,3.4,7.6l0,0c0.1-0.1,0.4-0.2,0.5-0.3
						C4.5,7.2,5.1,7.2,5.9,7.1L5.9,7.1L5.9,7.1C6.5,7.2,7,7.2,7.4,7.3l0-0.1C6.9,7.1,6.4,7.1,5.9,7.1L5.9,7.1z M3.3,7.5
						C3.3,7.5,3.3,7.5,3.3,7.5L3.3,7.5c0-0.2,0.4-0.3,0.6-0.4c0.6-0.2,1.2-0.2,2.1-0.2c0.5,0,1.1,0,1.6,0.1l0,0.1
						C7,6.9,6.5,6.9,5.9,6.9C5.1,6.9,4.4,7,3.9,7.2C3.6,7.2,3.3,7.4,3.3,7.5C3.3,7.5,3.3,7.5,3.3,7.5C3.3,7.5,3.3,7.5,3.3,7.5
						L3.3,7.5z M5.9,6.8c-0.8,0-1.5,0.1-2.1,0.2C3.5,7.2,3.2,7.3,3.2,7.4l0,0c0.1-0.1,0.5-0.3,0.6-0.3C4.4,7,5.1,6.9,5.9,6.8
						C6.5,6.9,7,6.9,7.5,7l0-0.1C7,6.9,6.4,6.9,5.9,6.8L5.9,6.8z"/>
				</g>
				<path class="st8" d="M5.4,7C5.4,7,5.4,7,5.4,7C5.4,7,5.4,7,5.4,7C5.4,7,5.4,7,5.4,7C5.4,7,5.4,7,5.4,7C5.4,7,5.4,7,5.4,7
					C5.4,7,5.4,7,5.4,7C5.4,7,5.4,7,5.4,7C5.4,7,5.4,7,5.4,7C5.4,7,5.4,7,5.4,7C5.4,7,5.4,7,5.4,7C5.4,7,5.4,7,5.4,7L5.4,7z M5.4,7
					C5.4,7,5.4,7,5.4,7C5.4,7,5.4,7,5.4,7C5.4,7,5.4,7,5.4,7C5.4,7,5.4,7,5.4,7C5.4,7,5.4,7,5.4,7C5.4,7,5.4,7,5.4,7
					C5.4,7,5.4,7,5.4,7C5.4,7,5.4,7,5.4,7C5.4,7,5.4,7,5.4,7L5.4,7z M5.4,7L5.4,7C5.5,7,5.5,7,5.4,7C5.5,7,5.5,7,5.4,7
					C5.5,7,5.5,7,5.4,7C5.5,7,5.5,7,5.4,7C5.5,7,5.5,7,5.4,7C5.5,7,5.5,7,5.4,7C5.5,7,5.5,7,5.4,7C5.5,7,5.5,7,5.4,7
					C5.5,7,5.5,7,5.4,7C5.5,7,5.5,7,5.4,7C5.5,7,5.5,7,5.4,7C5.5,7,5.5,7,5.4,7C5.5,7,5.5,7,5.4,7C5.5,7,5.5,7,5.4,7
					C5.5,7,5.5,7,5.4,7C5.5,7,5.5,7,5.4,7L5.4,7C5.5,7,5.5,7,5.4,7C5.5,7,5.5,7,5.4,7C5.5,7,5.5,7,5.4,7C5.5,7,5.5,7,5.4,7
					C5.5,7,5.5,7,5.4,7C5.5,7,5.5,7,5.4,7C5.5,7,5.5,7,5.4,7C5.5,7,5.5,7,5.4,7C5.5,7,5.5,7,5.4,7C5.5,7,5.5,7,5.4,7
					C5.5,7,5.5,7,5.4,7C5.5,7,5.5,7,5.4,7C5.5,7,5.5,7,5.4,7C5.5,7,5.5,7,5.4,7C5.4,7,5.4,7,5.4,7L5.4,7z M5.5,7L5.5,7
					C5.5,7,5.5,7,5.5,7C5.5,7,5.5,7,5.5,7C5.5,7,5.5,7,5.5,7C5.5,7,5.5,7,5.5,7C5.5,7,5.5,7,5.5,7C5.5,7,5.5,7,5.5,7
					C5.5,7,5.5,7,5.5,7C5.5,7,5.5,7,5.5,7C5.5,7,5.5,7,5.5,7L5.5,7C5.5,7,5.5,7,5.5,7C5.5,7,5.5,7,5.5,7C5.5,7,5.5,7,5.5,7
					C5.5,7,5.5,7,5.5,7L5.5,7z M5.5,7L5.5,7C5.5,7,5.5,7,5.5,7C5.5,7,5.5,7,5.5,7C5.5,7,5.5,7,5.5,7C5.5,7,5.5,7,5.5,7L5.5,7z
					 M5.5,7L5.5,7C5.5,7,5.5,7,5.5,7C5.5,7,5.5,7,5.5,7C5.5,7,5.5,7,5.5,7C5.6,7,5.6,7,5.5,7C5.6,7,5.6,7,5.5,7C5.6,7,5.5,7,5.5,7
					C5.5,7,5.5,7,5.5,7C5.5,7,5.5,7,5.5,7C5.5,7,5.5,7,5.5,7C5.5,7,5.5,7,5.5,7C5.5,7,5.5,7,5.5,7C5.6,7,5.6,7,5.5,7L5.5,7L5.5,7
					L5.5,7C5.6,7,5.6,7,5.5,7C5.6,7,5.6,7,5.5,7C5.5,7,5.5,7,5.5,7C5.5,7,5.5,7,5.5,7C5.5,7,5.5,7,5.5,7L5.5,7z M5.5,7
					C5.5,7,5.5,7,5.5,7C5.5,7,5.5,7,5.5,7C5.5,7,5.6,7,5.5,7C5.6,7,5.6,7,5.5,7C5.6,7,5.6,7,5.5,7C5.6,7,5.6,7,5.5,7
					C5.5,7,5.5,7,5.5,7C5.5,7,5.5,7,5.5,7L5.5,7z M5.6,7L5.6,7L5.6,7L5.6,7C5.6,7,5.6,7,5.6,7C5.6,7,5.6,7,5.6,7C5.6,7,5.6,7,5.6,7
					C5.6,7,5.6,7,5.6,7C5.6,7,5.6,7,5.6,7C5.6,7,5.6,7,5.6,7C5.6,7,5.6,7,5.6,7L5.6,7L5.6,7L5.6,7C5.6,7,5.6,7,5.6,7
					C5.6,7,5.6,7,5.6,7C5.6,7,5.6,7,5.6,7C5.6,7,5.6,7,5.6,7C5.6,7,5.6,7,5.6,7L5.6,7L5.6,7L5.6,7C5.6,7,5.6,7,5.6,7
					C5.6,7,5.6,7,5.6,7C5.6,7,5.6,7,5.6,7C5.6,7,5.6,7,5.6,7C5.6,7,5.6,7,5.6,7L5.6,7L5.6,7L5.6,7z M5.7,7L5.7,7C5.7,7,5.7,7,5.7,7
					C5.7,7,5.7,7,5.7,7C5.6,7,5.6,7,5.7,7C5.6,7,5.6,7,5.7,7C5.6,7,5.6,7,5.7,7C5.6,7,5.6,7,5.7,7C5.7,7,5.7,7,5.7,7
					C5.7,7,5.7,7,5.7,7C5.7,7,5.7,7,5.7,7L5.7,7C5.6,7,5.6,7,5.7,7C5.6,7,5.6,7,5.7,7C5.7,7,5.7,7,5.7,7C5.7,7,5.7,7,5.7,7L5.7,7z
					 M5.6,7L5.6,7C5.7,7,5.7,7,5.6,7C5.7,7,5.7,7,5.6,7C5.7,7,5.6,7,5.6,7C5.6,7,5.6,7,5.6,7L5.6,7z M5.7,7L5.7,7L5.7,7L5.7,7
					C5.7,7,5.7,7,5.7,7C5.7,7,5.7,7,5.7,7C5.7,7,5.7,7,5.7,7C5.7,7,5.7,7,5.7,7C5.7,7,5.7,7,5.7,7L5.7,7L5.7,7L5.7,7
					C5.7,7,5.7,7,5.7,7C5.7,7,5.7,7,5.7,7C5.7,7,5.7,7,5.7,7C5.7,7,5.7,7,5.7,7C5.7,7,5.7,7,5.7,7L5.7,7L5.7,7z M5.7,7L5.7,7
					C5.7,7,5.7,7,5.7,7C5.7,7,5.7,7,5.7,7C5.7,7,5.7,7,5.7,7C5.7,7,5.7,7,5.7,7L5.7,7L5.7,7L5.7,7L5.7,7L5.7,7L5.7,7L5.7,7L5.7,7
					L5.7,7L5.7,7L5.7,7C5.7,7,5.7,7,5.7,7C5.7,7,5.7,7,5.7,7C5.7,7,5.7,7,5.7,7C5.7,7,5.7,7,5.7,7L5.7,7z M5.7,7C5.7,7,5.7,7,5.7,7
					C5.8,7,5.8,7,5.7,7C5.8,7,5.8,7,5.7,7C5.8,7,5.8,7,5.7,7C5.8,7,5.8,7,5.7,7C5.8,7,5.8,7,5.7,7C5.8,7,5.8,7,5.7,7
					C5.7,7,5.7,7,5.7,7C5.7,7,5.7,7,5.7,7L5.7,7z M5.7,7C5.7,7,5.7,7,5.7,7C5.7,7,5.8,7,5.7,7C5.8,7,5.8,7,5.7,7C5.8,7,5.8,7,5.7,7
					C5.8,7,5.8,7,5.7,7C5.8,7,5.8,7,5.7,7C5.8,7,5.8,7,5.7,7C5.7,7,5.7,7,5.7,7L5.7,7z M5.8,7L5.8,7C5.8,7,5.8,7,5.8,7
					C5.8,7,5.8,7,5.8,7C5.8,7,5.8,7,5.8,7C5.8,7,5.8,7,5.8,7C5.8,7,5.8,7,5.8,7C5.8,7,5.8,7,5.8,7C5.8,7,5.8,7,5.8,7
					C5.8,7,5.8,7,5.8,7C5.8,7,5.8,7,5.8,7L5.8,7C5.8,7,5.8,7,5.8,7C5.8,7,5.8,7,5.8,7C5.8,7,5.8,7,5.8,7C5.8,7,5.8,7,5.8,7L5.8,7z
					 M5.8,7L5.8,7C5.8,7,5.8,7,5.8,7C5.8,7,5.8,7,5.8,7C5.8,7,5.8,7,5.8,7C5.8,7,5.8,7,5.8,7L5.8,7z M5.8,7L5.8,7L5.8,7L5.8,7L5.8,7
					L5.8,7z M5.9,7L5.9,7L5.9,7L5.9,7L5.9,7L5.9,7z M5.9,7L5.9,7L5.9,7L5.9,7L5.9,7L5.9,7z M5.9,7L5.9,7L5.9,7L5.9,7
					C5.9,7,5.9,7,5.9,7C5.9,7,5.9,7,5.9,7C5.9,7,5.9,7,5.9,7C5.9,7,5.9,7,5.9,7C5.9,7,5.9,7,5.9,7C5.9,7,5.9,7,5.9,7
					C5.9,7,5.9,7,5.9,7L5.9,7L5.9,7L5.9,7C5.9,7,5.9,7,5.9,7C5.9,7,5.9,7,5.9,7C5.9,7,5.9,7,5.9,7C5.9,7,5.9,7,5.9,7
					C5.9,7,5.9,7,5.9,7L5.9,7L5.9,7L5.9,7C5.9,7,5.9,7,5.9,7C5.9,7,5.9,7,5.9,7C5.9,7,5.9,7,5.9,7C5.9,7,5.9,7,5.9,7
					C5.9,7,5.9,7,5.9,7L5.9,7L5.9,7L5.9,7z M5.9,7L5.9,7L5.9,7L5.9,7L5.9,7L5.9,7z M5.9,7L5.9,7L5.9,7L5.9,7L5.9,7L5.9,7z M6,7L6,7
					L6,7L6,7C6,7,6,7,6,7C6,7,6,7,6,7C6,7,6,7,6,7C6,7,6,7,6,7C6,7,6,7,6,7L6,7L6,7L6,7C6,7,6,7,6,7C6,7,6,7,6,7C6,7,6,7,6,7
					C6,7,6,7,6,7C6,7,6,7,6,7L6,7L6,7L6,7z M6,7C6,7,6,7,6,7C6,7,6,7,6,7C6,7,6,7,6,7C6,7,6,7,6,7C6,7,6,7,6,7C6,7,6,7,6,7
					C6,7,6,7,6,7C6,7,6,7,6,7C6,7,6,7,6,7C6,7,6,7,6,7C6,7,6,7,6,7C6,7,6,7,6,7C6,7,6,7,6,7C6,7,6,7,6,7L6,7C6,7,6,7,6,7
					C6,7,6,7,6,7C6,7,6,7,6,7C6,7,6,7,6,7C6,7,6,7,6,7C6,7,6,7,6,7C6,7,6,7,6,7L6,7C6,7,6,7,6,7C6,7,6,7,6,7L6,7C6,7,6,7,6,7L6,7z
					 M6,7C6,7,6,7,6,7C6,7,6,7,6,7C6,7,6,7,6,7C6,7,6,7,6,7C6,7,6,7,6,7C6,7,6,7,6,7C6,7,6,7,6,7C6,7,6,7,6,7C6,7,6,7,6,7L6,7L6,7z
					 M6.1,7L6.1,7C6.1,7,6.1,7,6.1,7C6,7,6,7,6.1,7C6,7,6,7,6.1,7C6,7,6,7,6.1,7C6,7,6,7,6.1,7C6,7,6,7,6.1,7C6.1,7,6.1,7,6.1,7
					C6.1,7,6.1,7,6.1,7C6.1,7,6.1,7,6.1,7L6.1,7L6.1,7L6.1,7L6.1,7L6.1,7z M6,7C6,7,6,7,6,7C6,7,6,7,6,7C6.1,7,6.1,7,6,7
					C6.1,7,6.1,7,6,7C6.1,7,6.1,7,6,7C6.1,7,6.1,7,6,7C6.1,7,6.1,7,6,7C6,7,6,7,6,7L6,7z M6.1,7C6.1,7,6.1,7,6.1,7
					C6.1,7,6.1,7,6.1,7C6.1,7,6.1,7,6.1,7C6.1,7,6.1,7,6.1,7C6.1,7,6.1,7,6.1,7C6.1,7,6.1,7,6.1,7C6.1,7,6.1,7,6.1,7
					C6.1,7,6.1,7,6.1,7C6.1,7,6.1,7,6.1,7L6.1,7z M6.1,7C6.1,7,6.1,7,6.1,7C6.1,7,6.1,7,6.1,7C6.1,7,6.1,7,6.1,7C6.1,7,6.1,7,6.1,7
					C6.1,7,6.1,7,6.1,7C6.1,7,6.1,7,6.1,7C6.1,7,6.1,7,6.1,7C6.1,7,6.1,7,6.1,7L6.1,7z M6.1,7L6.1,7L6.1,7L6.1,7C6.2,7,6.2,7,6.1,7
					C6.2,7,6.2,7,6.1,7C6.2,7,6.2,7,6.1,7L6.1,7C6.2,7,6.2,7,6.1,7C6.2,7,6.2,7,6.1,7C6.2,7,6.2,7,6.1,7C6.2,7,6.2,7,6.1,7L6.1,7
					L6.1,7L6.1,7z M6.2,7L6.2,7C6.2,7,6.2,7,6.2,7C6.2,7,6.2,7,6.2,7C6.2,7,6.2,7,6.2,7C6.2,7,6.2,7,6.2,7C6.2,7,6.2,7,6.2,7
					C6.2,7,6.2,7,6.2,7C6.2,7,6.2,7,6.2,7C6.2,7,6.2,7,6.2,7C6.2,7,6.2,7,6.2,7L6.2,7C6.2,7,6.2,7,6.2,7C6.2,7,6.2,7,6.2,7
					C6.2,7,6.2,7,6.2,7C6.2,7,6.2,7,6.2,7L6.2,7z M6.2,7L6.2,7C6.2,7,6.2,7,6.2,7C6.2,7,6.2,7,6.2,7C6.2,7,6.2,7,6.2,7
					C6.2,7,6.2,7,6.2,7L6.2,7z M6.2,7L6.2,7C6.2,7,6.2,7,6.2,7C6.2,7,6.2,7,6.2,7C6.2,7,6.2,7,6.2,7C6.2,7,6.2,7,6.2,7
					C6.2,7,6.2,7,6.2,7C6.2,7,6.2,7,6.2,7C6.2,7,6.2,7,6.2,7C6.2,7,6.2,7,6.2,7C6.2,7,6.2,7,6.2,7C6.2,7,6.2,7,6.2,7
					C6.2,7,6.2,7,6.2,7C6.2,7,6.2,7,6.2,7C6.2,7,6.2,7,6.2,7C6.2,7,6.2,7,6.2,7C6.2,7,6.2,7,6.2,7C6.2,7,6.2,7,6.2,7L6.2,7
					C6.2,7,6.2,7,6.2,7C6.2,7,6.2,7,6.2,7C6.2,7,6.2,7,6.2,7C6.2,7,6.2,7,6.2,7C6.2,7,6.2,7,6.2,7C6.2,7,6.2,7,6.2,7
					C6.2,7,6.2,7,6.2,7C6.2,7,6.2,7,6.2,7C6.2,7,6.2,7,6.2,7C6.2,7,6.2,7,6.2,7C6.2,7,6.2,7,6.2,7C6.2,7,6.2,7,6.2,7
					C6.2,7,6.2,7,6.2,7C6.2,7,6.2,7,6.2,7C6.2,7,6.2,7,6.2,7L6.2,7z M6.2,7L6.2,7L6.2,7L6.2,7C6.3,7,6.3,7,6.2,7C6.3,7,6.3,7,6.2,7
					C6.3,7,6.3,7,6.2,7C6.3,7,6.3,7,6.2,7C6.3,7,6.3,7,6.2,7C6.3,7,6.3,7,6.2,7C6.3,7,6.3,7,6.2,7C6.3,7,6.3,7,6.2,7
					C6.3,7,6.3,7,6.2,7C6.3,7,6.3,7,6.2,7L6.2,7L6.2,7L6.2,7z M6.3,7C6.3,7,6.3,7,6.3,7C6.3,7,6.3,7,6.3,7C6.3,7,6.3,7,6.3,7
					C6.3,7,6.3,7,6.3,7C6.3,7,6.3,7,6.3,7C6.3,7,6.3,7,6.3,7C6.3,7,6.3,7,6.3,7C6.3,7,6.3,7,6.3,7L6.3,7z M6.3,7L6.3,7
					C6.3,7,6.3,7,6.3,7C6.3,7,6.3,7,6.3,7C6.3,7,6.3,7,6.3,7C6.3,7,6.3,7,6.3,7C6.3,7,6.3,7,6.3,7C6.3,7,6.3,7,6.3,7
					C6.3,7,6.3,7,6.3,7C6.3,7,6.3,7,6.3,7C6.3,7,6.3,7,6.3,7L6.3,7C6.3,7,6.3,7,6.3,7C6.3,7,6.3,7,6.3,7C6.3,7,6.3,7,6.3,7
					C6.3,7,6.3,7,6.3,7L6.3,7z M6.3,7L6.3,7C6.3,7,6.3,7,6.3,7C6.3,7,6.3,7,6.3,7C6.3,7,6.3,7,6.3,7C6.3,7,6.3,7,6.3,7L6.3,7z
					 M6.3,7L6.3,7L6.3,7L6.3,7L6.3,7L6.3,7z M6.3,7L6.3,7L6.3,7L6.3,7L6.3,7z M6.4,7L6.4,7C6.4,7,6.4,7,6.4,7C6.4,7,6.3,7,6.4,7
					C6.3,7,6.3,7,6.4,7C6.3,7,6.3,7,6.4,7L6.4,7L6.4,7L6.4,7L6.4,7L6.4,7L6.4,7L6.4,7L6.4,7L6.4,7L6.4,7L6.4,7C6.4,7,6.4,7,6.4,7
					C6.4,7,6.4,7,6.4,7C6.4,7,6.4,7,6.4,7C6.4,7,6.4,7,6.4,7L6.4,7z M6.4,7C6.4,7,6.4,7,6.4,7C6.4,7,6.4,7,6.4,7C6.4,7,6.4,7,6.4,7
					C6.4,7,6.4,7,6.4,7C6.4,7,6.4,7,6.4,7C6.4,7,6.4,7,6.4,7C6.4,7,6.4,7,6.4,7C6.4,7,6.4,7,6.4,7C6.4,7,6.4,7,6.4,7
					C6.4,7,6.4,7,6.4,7C6.4,7,6.4,7,6.4,7C6.4,7,6.4,7,6.4,7C6.4,7,6.4,7,6.4,7C6.4,7,6.4,7,6.4,7L6.4,7C6.4,7,6.4,7,6.4,7
					C6.4,7,6.4,7,6.4,7C6.4,7,6.4,7,6.4,7C6.4,7,6.4,7,6.4,7C6.4,7,6.4,7,6.4,7C6.4,7,6.4,7,6.4,7C6.4,7,6.4,7,6.4,7L6.4,7
					C6.4,7,6.4,7,6.4,7C6.4,7,6.4,7,6.4,7L6.4,7C6.4,7,6.4,7,6.4,7L6.4,7z M6.4,7C6.4,7,6.4,7,6.4,7C6.4,7,6.4,7,6.4,7
					C6.4,7,6.4,7,6.4,7C6.4,7,6.4,7,6.4,7C6.4,7,6.4,7,6.4,7C6.4,7,6.4,7,6.4,7C6.4,7,6.4,7,6.4,7C6.4,7,6.4,7,6.4,7
					C6.4,7,6.4,7,6.4,7L6.4,7L6.4,7z M6.4,7C6.4,7,6.4,7,6.4,7C6.4,7,6.4,7,6.4,7C6.5,7,6.5,7,6.4,7C6.5,7,6.5,7,6.4,7
					C6.5,7,6.5,7,6.4,7C6.5,7,6.5,7,6.4,7C6.4,7,6.4,7,6.4,7C6.4,7,6.4,7,6.4,7C6.4,7,6.4,7,6.4,7L6.4,7z M6.4,7C6.4,7,6.4,7,6.4,7
					C6.4,7,6.4,7,6.4,7C6.4,7,6.4,7,6.4,7C6.5,7,6.5,7,6.4,7C6.5,7,6.5,7,6.4,7C6.5,7,6.4,7,6.4,7C6.4,7,6.4,7,6.4,7
					C6.4,7,6.4,7,6.4,7L6.4,7z M6.5,7.1L6.5,7.1L6.5,7.1L6.5,7.1C6.5,7,6.5,7,6.5,7.1C6.5,7,6.5,7,6.5,7.1C6.5,7,6.5,7,6.5,7.1
					C6.5,7,6.5,7,6.5,7.1C6.5,7,6.5,7,6.5,7.1C6.5,7,6.5,7,6.5,7.1C6.5,7,6.5,7,6.5,7.1C6.5,7,6.5,7,6.5,7.1C6.5,7,6.5,7,6.5,7.1
					C6.5,7,6.5,7,6.5,7.1L6.5,7.1L6.5,7.1z M6.5,7C6.5,7,6.5,7,6.5,7C6.5,7,6.5,7,6.5,7C6.5,7,6.5,7,6.5,7C6.5,7,6.5,7,6.5,7
					C6.5,7,6.5,7,6.5,7C6.5,7,6.5,7,6.5,7C6.5,7,6.5,7,6.5,7C6.5,7,6.5,7,6.5,7L6.5,7z M6.5,7L6.5,7L6.5,7L6.5,7C6.5,7,6.5,7,6.5,7
					C6.5,7,6.5,7,6.5,7C6.6,7,6.6,7,6.5,7L6.5,7C6.6,7,6.5,7,6.5,7C6.5,7,6.5,7,6.5,7C6.5,7,6.5,7,6.5,7C6.5,7,6.5,7,6.5,7L6.5,7
					L6.5,7L6.5,7z M6.6,7C6.6,7,6.6,7,6.6,7C6.6,7,6.6,7,6.6,7C6.6,7,6.6,7,6.6,7C6.6,7,6.6,7,6.6,7C6.6,7,6.6,7,6.6,7
					C6.6,7,6.6,7,6.6,7C6.6,7,6.6,7,6.6,7C6.6,7,6.6,7,6.6,7C6.6,7,6.6,7,6.6,7L6.6,7z M6.6,7C6.6,7,6.6,7,6.6,7C6.6,7,6.6,7,6.6,7
					C6.6,7,6.6,7,6.6,7C6.6,7,6.6,7,6.6,7C6.6,7,6.6,7,6.6,7C6.6,7,6.6,7,6.6,7C6.6,7,6.6,7,6.6,7C6.6,7,6.6,7,6.6,7L6.6,7z M6.6,7
					L6.6,7L6.6,7L6.6,7L6.6,7L6.6,7z M6.6,7.1L6.6,7.1C6.6,7.1,6.6,7.1,6.6,7.1C6.6,7.1,6.6,7.1,6.6,7.1C6.6,7.1,6.6,7,6.6,7.1
					L6.6,7.1L6.6,7.1L6.6,7.1C6.6,7.1,6.6,7.1,6.6,7.1C6.6,7.1,6.6,7.1,6.6,7.1C6.6,7.1,6.6,7.1,6.6,7.1L6.6,7.1z M6.6,7L6.6,7
					C6.6,7,6.6,7,6.6,7C6.6,7,6.6,7,6.6,7C6.6,7,6.6,7,6.6,7C6.6,7,6.6,7,6.6,7C6.6,7,6.6,7,6.6,7C6.6,7,6.6,7,6.6,7
					C6.6,7,6.6,7,6.6,7C6.6,7,6.6,7,6.6,7C6.6,7,6.6,7,6.6,7L6.6,7C6.6,7,6.6,7,6.6,7C6.6,7,6.6,7,6.6,7C6.6,7,6.6,7,6.6,7
					C6.6,7,6.6,7,6.6,7L6.6,7z M6.6,7L6.6,7C6.6,7,6.6,7,6.6,7C6.6,7,6.6,7,6.6,7C6.6,7,6.6,7,6.6,7C6.6,7,6.6,7,6.6,7L6.6,7z"/>
				<path class="st8" d="M6.7,7L6.7,7C6.7,7,6.7,7,6.7,7C6.7,7,6.7,7,6.7,7C6.7,7,6.7,7,6.7,7C6.7,7,6.7,7,6.7,7C6.7,7,6.7,7,6.7,7
					C6.7,7,6.7,7,6.7,7C6.7,7,6.7,7,6.7,7C6.7,7,6.7,7,6.7,7C6.7,7,6.7,7,6.7,7L6.7,7C6.7,7,6.7,7,6.7,7C6.7,7,6.7,7,6.7,7
					C6.7,7,6.7,7,6.7,7C6.7,7,6.7,7,6.7,7C6.7,7,6.7,7,6.7,7C6.7,7,6.7,7,6.7,7C6.7,7,6.7,7,6.7,7C6.7,7,6.7,7,6.7,7L6.7,7z M6.7,7
					L6.7,7C6.7,7.1,6.7,7.1,6.7,7C6.7,7.1,6.7,7.1,6.7,7C6.7,7,6.7,7,6.7,7C6.7,7,6.7,7,6.7,7L6.7,7L6.7,7L6.7,7L6.7,7L6.7,7L6.7,7
					L6.7,7L6.7,7L6.7,7L6.7,7L6.7,7C6.7,7,6.7,7,6.7,7C6.7,7,6.7,7,6.7,7C6.7,7,6.7,7,6.7,7C6.7,7,6.7,7,6.7,7L6.7,7z M6.7,7
					C6.7,7,6.7,7,6.7,7C6.7,7,6.7,7,6.7,7C6.7,7,6.7,7,6.7,7C6.7,7,6.7,7,6.7,7C6.7,7,6.7,7,6.7,7C6.7,7,6.7,7.1,6.7,7
					C6.7,7.1,6.7,7.1,6.7,7C6.7,7.1,6.7,7.1,6.7,7C6.7,7,6.7,7,6.7,7L6.7,7z M6.7,7C6.7,7,6.7,7,6.7,7C6.7,7,6.7,7,6.7,7
					C6.7,7,6.7,7,6.7,7C6.7,7,6.7,7,6.7,7C6.7,7,6.7,7,6.7,7C6.7,7,6.7,7,6.7,7C6.7,7,6.7,7,6.7,7C6.7,7,6.7,7,6.7,7L6.7,7z
					 M6.8,7.1L6.8,7.1C6.8,7.1,6.8,7.1,6.8,7.1C6.8,7.1,6.8,7.1,6.8,7.1C6.8,7.1,6.8,7.1,6.8,7.1C6.8,7,6.8,7,6.8,7.1
					C6.8,7,6.8,7,6.8,7.1C6.8,7,6.8,7,6.8,7.1C6.8,7,6.8,7,6.8,7.1C6.8,7,6.8,7,6.8,7.1C6.8,7,6.8,7,6.8,7.1L6.8,7.1L6.8,7.1
					L6.8,7.1L6.8,7.1L6.8,7.1z M6.8,7C6.8,7,6.8,7,6.8,7C6.8,7.1,6.8,7.1,6.8,7C6.8,7.1,6.8,7.1,6.8,7C6.8,7,6.8,7,6.8,7
					C6.8,7,6.8,7,6.8,7C6.8,7,6.8,7,6.8,7C6.8,7,6.8,7,6.8,7C6.8,7,6.8,7,6.8,7L6.8,7z M6.8,7.1L6.8,7.1C6.8,7.1,6.8,7.1,6.8,7.1
					C6.8,7.1,6.8,7.1,6.8,7.1C6.8,7.1,6.8,7.1,6.8,7.1C6.8,7.1,6.8,7,6.8,7.1C6.8,7,6.8,7,6.8,7.1C6.8,7,6.8,7,6.8,7.1
					C6.8,7,6.8,7,6.8,7.1C6.8,7,6.8,7,6.8,7.1C6.8,7,6.8,7,6.8,7.1L6.8,7.1C6.8,7,6.8,7.1,6.8,7.1C6.8,7.1,6.8,7.1,6.8,7.1
					C6.8,7.1,6.8,7.1,6.8,7.1C6.8,7.1,6.8,7.1,6.8,7.1L6.8,7.1z M6.8,7L6.8,7C6.8,7,6.8,7,6.8,7C6.8,7,6.8,7,6.8,7
					C6.8,7,6.8,7,6.8,7C6.8,7,6.8,7,6.8,7L6.8,7z M6.9,7.1L6.9,7.1C6.9,7.1,6.9,7.1,6.9,7.1C6.9,7.1,6.9,7.1,6.9,7.1
					C6.9,7.1,6.9,7.1,6.9,7.1C6.9,7.1,6.9,7.1,6.9,7.1C6.9,7,6.9,7,6.9,7.1C6.9,7,6.9,7,6.9,7.1C6.9,7,6.9,7,6.9,7.1
					C6.9,7,6.9,7,6.9,7.1C6.9,7,6.9,7,6.9,7.1C6.9,7,6.9,7,6.9,7.1L6.9,7.1C6.9,7,6.9,7,6.9,7.1C6.9,7,6.9,7,6.9,7.1
					C6.9,7,6.9,7,6.9,7.1C6.9,7,6.9,7,6.9,7.1C6.9,7,6.9,7,6.9,7.1C6.9,7,6.9,7,6.9,7.1C6.9,7.1,6.9,7.1,6.9,7.1
					C6.9,7.1,6.9,7.1,6.9,7.1C6.9,7.1,6.9,7.1,6.9,7.1C6.9,7.1,6.9,7.1,6.9,7.1L6.9,7.1z M6.9,7.1C6.9,7,6.9,7,6.9,7.1
					C6.9,7,6.9,7,6.9,7.1C7,7,7,7,6.9,7.1C7,7,7,7,6.9,7.1C7,7.1,7,7.1,6.9,7.1C7,7.1,7,7.1,6.9,7.1C6.9,7.1,6.9,7.1,6.9,7.1
					C6.9,7.1,6.9,7.1,6.9,7.1C6.9,7.1,6.9,7.1,6.9,7.1L6.9,7.1z M6.9,7.1C6.9,7.1,6.9,7.1,6.9,7.1C6.9,7.1,6.9,7.1,6.9,7.1
					C6.9,7.1,6.9,7.1,6.9,7.1C7,7.1,7,7.1,6.9,7.1C7,7.1,7,7,6.9,7.1C7,7,7,7,6.9,7.1C6.9,7,6.9,7,6.9,7.1C6.9,7,6.9,7,6.9,7.1
					L6.9,7.1z M7,7.1L7,7.1L7,7.1L7,7.1L7,7.1L7,7.1z M7,7.1L7,7.1C7,7.1,7,7.1,7,7.1C7,7.1,7,7.1,7,7.1C7,7.1,7,7.1,7,7.1
					C7,7.1,7,7.1,7,7.1C7,7.1,7,7.1,7,7.1L7,7.1L7,7.1L7,7.1C7,7.1,7,7.1,7,7.1C7,7.1,7,7.1,7,7.1C7,7.1,7,7.1,7,7.1
					C7,7.1,7,7.1,7,7.1C7,7.1,7,7.1,7,7.1C7,7.1,7,7.1,7,7.1L7,7.1L7,7.1L7,7.1L7,7.1L7,7.1z M7,7.1L7,7.1L7,7.1L7,7.1
					C7,7,7,7,7,7.1C7,7,7,7,7,7.1C7.1,7,7.1,7,7,7.1C7.1,7,7.1,7.1,7,7.1C7.1,7,7.1,7,7,7.1C7.1,7,7.1,7,7,7.1
					C7.1,7.1,7.1,7.1,7,7.1L7,7.1L7,7.1L7,7.1C7.1,7.1,7.1,7.1,7,7.1C7.1,7.1,7.1,7.1,7,7.1C7.1,7.1,7.1,7.1,7,7.1
					C7.1,7.1,7.1,7.1,7,7.1C7.1,7.1,7.1,7.1,7,7.1L7,7.1L7,7.1L7,7.1C7.1,7.1,7.1,7.1,7,7.1C7,7.1,7,7.1,7,7.1C7,7.1,7,7.1,7,7.1
					C7,7.1,7,7.1,7,7.1C7,7.1,7,7.1,7,7.1L7,7.1L7,7.1z M7.1,7.1L7.1,7.1L7.1,7.1L7.1,7.1L7.1,7.1C7.1,7.1,7.1,7.1,7.1,7.1
					C7.1,7.1,7.1,7.1,7.1,7.1C7.1,7.1,7.1,7.1,7.1,7.1C7.1,7.1,7.1,7.1,7.1,7.1C7.1,7.1,7.1,7.1,7.1,7.1C7.1,7.1,7.1,7.1,7.1,7.1
					C7.1,7.1,7.1,7.1,7.1,7.1C7.1,7.1,7.1,7.1,7.1,7.1L7.1,7.1L7.1,7.1z M7.1,7.1C7.1,7.1,7.1,7.1,7.1,7.1C7.1,7.1,7.1,7.1,7.1,7.1
					C7.1,7.1,7.1,7.1,7.1,7.1C7.1,7.1,7.1,7.1,7.1,7.1C7.1,7.1,7.1,7.1,7.1,7.1C7.1,7.1,7.1,7.1,7.1,7.1C7.1,7.1,7.1,7.1,7.1,7.1
					C7.1,7.1,7.1,7.1,7.1,7.1L7.1,7.1z M7.1,7.1C7.1,7.1,7.1,7.1,7.1,7.1C7.1,7.1,7.1,7.1,7.1,7.1C7.1,7.1,7.1,7.1,7.1,7.1
					C7.1,7.1,7.1,7.1,7.1,7.1C7.1,7.1,7.1,7.1,7.1,7.1C7.1,7.1,7.1,7.1,7.1,7.1C7.1,7.1,7.1,7.1,7.1,7.1C7.1,7.1,7.1,7.1,7.1,7.1
					C7.1,7.1,7.2,7.1,7.1,7.1C7.2,7.1,7.2,7.1,7.1,7.1C7.2,7.1,7.2,7.1,7.1,7.1C7.2,7.1,7.1,7.1,7.1,7.1C7.1,7.1,7.1,7.1,7.1,7.1
					C7.1,7.1,7.1,7.1,7.1,7.1L7.1,7.1C7.1,7.1,7.1,7.1,7.1,7.1C7.1,7.1,7.1,7.1,7.1,7.1C7.1,7.1,7.1,7.1,7.1,7.1
					C7.2,7.1,7.2,7.1,7.1,7.1C7.2,7.1,7.2,7.1,7.1,7.1C7.2,7.1,7.2,7.1,7.1,7.1C7.2,7.1,7.2,7.1,7.1,7.1L7.1,7.1
					C7.2,7.1,7.2,7.1,7.1,7.1C7.2,7.1,7.2,7.1,7.1,7.1L7.1,7.1C7.1,7.1,7.1,7.1,7.1,7.1L7.1,7.1z M7.2,7.1C7.1,7.1,7.1,7.1,7.2,7.1
					C7.1,7.1,7.1,7.1,7.2,7.1C7.1,7.1,7.1,7.1,7.2,7.1C7.1,7.1,7.1,7.1,7.2,7.1C7.1,7.1,7.1,7.1,7.2,7.1C7.1,7.1,7.1,7.1,7.2,7.1
					C7.1,7.1,7.1,7.1,7.2,7.1C7.1,7.1,7.1,7.1,7.2,7.1C7.1,7.1,7.1,7.1,7.2,7.1L7.2,7.1L7.2,7.1z M7.2,7.1L7.2,7.1L7.2,7.1L7.2,7.1
					C7.2,7.1,7.2,7.1,7.2,7.1C7.2,7.1,7.2,7.1,7.2,7.1C7.2,7.1,7.2,7.1,7.2,7.1C7.2,7.1,7.2,7.1,7.2,7.1C7.2,7.1,7.2,7.1,7.2,7.1
					L7.2,7.1L7.2,7.1L7.2,7.1C7.2,7.1,7.2,7.1,7.2,7.1C7.2,7.1,7.2,7.1,7.2,7.1C7.2,7.1,7.2,7.1,7.2,7.1C7.2,7.1,7.2,7.1,7.2,7.1
					C7.2,7.1,7.2,7.1,7.2,7.1L7.2,7.1L7.2,7.1L7.2,7.1z M7.2,7.1C7.2,7.1,7.2,7.1,7.2,7.1C7.2,7.1,7.2,7.1,7.2,7.1
					C7.2,7.1,7.2,7.1,7.2,7.1C7.2,7.1,7.2,7.1,7.2,7.1C7.2,7.1,7.2,7.1,7.2,7.1C7.2,7.1,7.2,7.1,7.2,7.1C7.2,7.1,7.2,7.1,7.2,7.1
					C7.2,7.1,7.2,7.1,7.2,7.1C7.2,7.1,7.2,7.1,7.2,7.1L7.2,7.1z M7.2,7.1C7.2,7.1,7.2,7.1,7.2,7.1C7.2,7.1,7.2,7.1,7.2,7.1
					C7.2,7.1,7.2,7.1,7.2,7.1C7.2,7.1,7.2,7.1,7.2,7.1C7.2,7.1,7.2,7.1,7.2,7.1C7.2,7.1,7.2,7.1,7.2,7.1C7.2,7.1,7.2,7.1,7.2,7.1
					C7.2,7.1,7.2,7.1,7.2,7.1L7.2,7.1z"/>
				<g class="st5">
					<path class="st9" d="M7.4,7.3C7.4,7.3,7.4,7.3,7.4,7.3C7.4,7.3,7.3,7.3,7.4,7.3L7.5,7c0,0,0,0,0,0c0,0,0,0,0,0L7.4,7.3
						C7.4,7.3,7.4,7.3,7.4,7.3L7.4,7.3z"/>
				</g>
				<path class="st4" d="M3.4,4.3c0.9,0,5.1,2.6,5.1,3.1L8.3,7.8c-0.1-0.6-4.4-3.1-5.1-3L3.4,4.3L3.4,4.3z"/>
				<g class="st5">
					<path class="st6" d="M8.3,7.8l0.2-0.4c0,0,0,0,0,0c0,0,0,0,0,0L8.3,7.8L8.3,7.8z"/>
				</g>
				<g class="st5">
					<path class="st6" d="M3.2,4.7l0.2-0.4c0,0,0,0,0,0c0,0,0,0,0,0L3.2,4.7L3.2,4.7z"/>
				</g>
				<path class="st4" d="M3.2,4.7C3.3,4.6,4.6,5.2,5.9,6c1.3,0.8,2.5,1.7,2.4,1.8l0,0.1l0,0c0,0,0,0,0-0.1C8.2,7.6,7.3,6.9,5.9,6
					C4.4,5.2,3.3,4.7,3.2,4.7L3.2,4.7L3.2,4.7z M8.6,7.4c0.1-0.2-1-1.1-2.5-1.9C4.6,4.7,3.6,4.2,3.4,4.3l0,0.1c0,0,0,0,0,0
					c0,0,0.1,0,0.1,0c0.3,0,1.3,0.4,2.6,1.2C6.7,5.9,8.5,7.1,8.6,7.4C8.5,7.5,8.5,7.5,8.6,7.4L8.6,7.4L8.6,7.4z"/>
				<g class="st5">
					<path class="st6" d="M8.3,7.9L8.3,7.9C8.3,7.9,8.3,7.9,8.3,7.9C8.3,7.9,8.3,7.9,8.3,7.9c-0.1-0.3-1-1-2.4-1.9
						C4.7,5.3,3.5,4.8,3.2,4.8c0,0-0.1,0-0.1,0l0,0c0,0,0,0,0,0l0-0.1c0,0,0,0,0.1,0c0.3,0,1.5,0.5,2.6,1.2c1.2,0.7,2.4,1.6,2.4,1.8
						C8.3,7.8,8.3,7.8,8.3,7.9L8.3,7.9C8.3,7.9,8.3,7.9,8.3,7.9C8.3,7.9,8.3,7.9,8.3,7.9L8.3,7.9z M3.2,4.8c0.3,0,1.4,0.5,2.7,1.2
						c1.4,0.9,2.3,1.6,2.4,1.8c0,0,0,0,0,0.1l0,0c0,0,0,0,0,0C8.3,7.5,7,6.7,5.9,6C4.7,5.3,3.6,4.7,3.2,4.8C3.2,4.7,3.2,4.7,3.2,4.8
						L3.2,4.8C3.2,4.8,3.2,4.8,3.2,4.8L3.2,4.8z M8.5,7.5C8.5,7.5,8.5,7.5,8.5,7.5C8.5,7.5,8.5,7.5,8.5,7.5L8.5,7.5
						C8.5,7.5,8.5,7.5,8.5,7.5L8.5,7.5L8.5,7.5C8.5,7.5,8.5,7.5,8.5,7.5c0-0.4-1.9-1.6-2.5-1.9C4.8,4.8,3.8,4.4,3.5,4.4
						c0,0-0.1,0-0.1,0c0,0,0,0,0,0c0,0,0.1,0,0.1,0c0.3,0,1.3,0.4,2.6,1.2C6.5,5.8,8.6,7.1,8.5,7.5C8.5,7.4,8.5,7.4,8.5,7.5L8.5,7.5
						c0.1-0.3-1-1.1-2.4-2C4.5,4.6,3.6,4.2,3.4,4.3l0,0.1c0,0,0,0,0,0l0-0.1c0,0,0.1,0,0.1,0c0.4,0,1.6,0.7,2.6,1.2
						C7.4,6.2,8.7,7.2,8.5,7.5L8.5,7.5C8.5,7.5,8.5,7.5,8.5,7.5L8.5,7.5z"/>
				</g>
				<path class="st10" d="M4.1,6.3c0,0.5,0.2,0.9,0.5,1.3C5,7.9,5.4,8.1,5.9,8.1c0.5,0,0.9-0.2,1.3-0.5c0.3-0.3,0.5-0.8,0.5-1.3l0,0
					V4L4.1,4L4.1,6.3L4.1,6.3z"/>
				<g class="st5">
					<path class="st6" d="M5.9,8.1C5.4,8.1,5,7.9,4.6,7.6C4.3,7.3,4.1,6.8,4.1,6.3l0-2.4l3.6,0l0,2.4c0,0.5-0.2,0.9-0.5,1.3
						C6.8,7.9,6.4,8.1,5.9,8.1L5.9,8.1z M7.7,4L4.1,4l0,2.4c0,0.5,0.2,0.9,0.5,1.2C5,7.9,5.4,8.1,5.9,8.1c0.5,0,0.9-0.2,1.3-0.5
						c0.3-0.3,0.5-0.8,0.5-1.2V4L7.7,4z"/>
				</g>
				<path class="st11" d="M4.2,6.3L4.2,6.3c0,0.5,0.2,0.9,0.5,1.2C5,7.8,5.4,8,5.9,8c0.5,0,0.9-0.2,1.2-0.5c0.3-0.3,0.5-0.7,0.5-1.2
					l0,0V4L4.2,4L4.2,6.3L4.2,6.3z M6.9,4.7l0,1.5l0,0.2l0,0c0,0,0,0.1,0,0.1c0,0.2-0.1,0.4-0.3,0.6C6.4,7.2,6.2,7.4,5.9,7.4
					c-0.3,0-0.5-0.1-0.7-0.3C5,6.9,4.9,6.6,4.9,6.3V4.7L6.9,4.7L6.9,4.7z"/>
				<g class="st5">
					<path class="st6" d="M5.9,8C5.4,8,5,7.9,4.7,7.5C4.4,7.2,4.2,6.8,4.2,6.3l0-2.3l3.4,0l0,2.3c0,0.5-0.2,0.9-0.5,1.2
						C6.8,7.9,6.4,8,5.9,8L5.9,8z M7.6,4L4.2,4l0,2.3c0,0.5,0.2,0.9,0.5,1.2C5,7.9,5.5,8,5.9,8c0.5,0,0.9-0.2,1.2-0.5
						c0.3-0.3,0.5-0.7,0.5-1.2V4L7.6,4z M5.9,7.4c-0.3,0-0.5-0.1-0.7-0.3C5,6.9,4.9,6.6,4.9,6.3l0-1.6l2,0l0,1.5l0,0.2
						c0,0,0,0.1,0,0.1c0,0.2-0.1,0.4-0.3,0.6C6.4,7.3,6.2,7.4,5.9,7.4L5.9,7.4z M4.9,4.7l0,1.6c0,0.3,0.1,0.5,0.3,0.7
						c0.2,0.2,0.4,0.3,0.7,0.3c0.3,0,0.5-0.1,0.7-0.3c0.2-0.2,0.3-0.4,0.3-0.6c0,0,0-0.1,0-0.1l0-1.6L4.9,4.7L4.9,4.7z"/>
				</g>
				<path class="st12" d="M5.7,6.1L5.7,6.1c0,0.1,0,0.1,0.1,0.2c0,0,0.1,0.1,0.2,0.1c0.1,0,0.1,0,0.2-0.1c0,0,0.1-0.1,0.1-0.2V5.7
					l-0.4,0L5.7,6.1L5.7,6.1z"/>
				<path class="st10" d="M6,5.8C6,5.8,6,5.8,6,5.8C6,5.9,6,5.9,6,5.8C6.1,5.9,6.1,5.9,6,5.8C6.1,5.8,6.1,5.8,6,5.8L6,5.8z"/>
				<path class="st10" d="M5.9,5.9C5.9,5.9,5.9,6,5.9,5.9C5.9,6,5.9,6,5.9,5.9C5.9,6,6,6,5.9,5.9C6,6,5.9,5.9,5.9,5.9L5.9,5.9z"/>
				<path class="st10" d="M6,6.1C6,6.1,6,6.1,6,6.1C6,6.1,6,6.2,6,6.1C6.1,6.2,6.1,6.1,6,6.1C6.1,6.1,6.1,6.1,6,6.1L6,6.1z"/>
				<path class="st10" d="M5.8,6.1C5.8,6.1,5.8,6.1,5.8,6.1C5.8,6.1,5.8,6.2,5.8,6.1C5.8,6.2,5.8,6.1,5.8,6.1
					C5.8,6.1,5.8,6.1,5.8,6.1L5.8,6.1z"/>
				<path class="st10" d="M5.8,5.8C5.8,5.8,5.8,5.8,5.8,5.8C5.8,5.9,5.8,5.9,5.8,5.8C5.8,5.9,5.8,5.9,5.8,5.8
					C5.8,5.8,5.8,5.8,5.8,5.8L5.8,5.8z"/>
				<path class="st12" d="M5.7,6.8L5.7,6.8c0,0.1,0,0.1,0.1,0.2c0,0,0.1,0.1,0.2,0.1C6,7.1,6,7.1,6.1,7c0,0,0.1-0.1,0.1-0.2V6.5
					l-0.4,0L5.7,6.8L5.7,6.8z"/>
				<path class="st10" d="M6,6.6C6,6.6,6,6.6,6,6.6C6,6.7,6,6.7,6,6.6C6.1,6.7,6.1,6.7,6,6.6C6.1,6.6,6.1,6.6,6,6.6L6,6.6z"/>
				<path class="st10" d="M5.9,6.7C5.9,6.7,5.9,6.7,5.9,6.7C5.9,6.8,5.9,6.8,5.9,6.7C5.9,6.8,6,6.8,5.9,6.7C6,6.7,5.9,6.7,5.9,6.7
					L5.9,6.7z"/>
				<path class="st10" d="M6,6.8C6,6.8,6,6.9,6,6.8C6,6.9,6,6.9,6,6.8C6.1,6.9,6.1,6.9,6,6.8C6.1,6.9,6.1,6.8,6,6.8L6,6.8z"/>
				<path class="st10" d="M5.8,6.8C5.8,6.8,5.8,6.9,5.8,6.8C5.8,6.9,5.8,6.9,5.8,6.8C5.8,6.9,5.8,6.9,5.8,6.8
					C5.8,6.9,5.8,6.8,5.8,6.8L5.8,6.8z"/>
				<path class="st10" d="M5.8,6.6C5.8,6.6,5.7,6.6,5.8,6.6C5.7,6.7,5.8,6.7,5.8,6.6C5.8,6.7,5.8,6.7,5.8,6.6
					C5.8,6.6,5.8,6.6,5.8,6.6L5.8,6.6z"/>
				<path class="st12" d="M5.1,6.1L5.1,6.1c0,0.1,0,0.1,0.1,0.2c0,0,0.1,0.1,0.2,0.1c0.1,0,0.1,0,0.2-0.1c0,0,0.1-0.1,0.1-0.2V5.8
					l-0.4,0L5.1,6.1L5.1,6.1z"/>
				<path class="st10" d="M5.4,5.8C5.4,5.8,5.4,5.8,5.4,5.8C5.4,5.9,5.4,5.9,5.4,5.8C5.4,5.9,5.5,5.9,5.4,5.8
					C5.5,5.8,5.4,5.8,5.4,5.8L5.4,5.8z"/>
				<path class="st10" d="M5.3,5.9C5.3,5.9,5.2,6,5.3,5.9C5.2,6,5.3,6,5.3,5.9C5.3,6,5.3,6,5.3,5.9C5.3,6,5.3,5.9,5.3,5.9L5.3,5.9z"
					/>
				<path class="st10" d="M5.4,6.1C5.4,6.1,5.4,6.1,5.4,6.1C5.4,6.1,5.4,6.2,5.4,6.1C5.4,6.2,5.5,6.1,5.4,6.1
					C5.5,6.1,5.4,6.1,5.4,6.1L5.4,6.1z"/>
				<path class="st10" d="M5.2,6.1C5.1,6.1,5.1,6.1,5.2,6.1C5.1,6.1,5.1,6.2,5.2,6.1C5.2,6.2,5.2,6.1,5.2,6.1
					C5.2,6.1,5.2,6.1,5.2,6.1L5.2,6.1z"/>
				<path class="st10" d="M5.2,5.8C5.1,5.8,5.1,5.8,5.2,5.8C5.1,5.9,5.1,5.9,5.2,5.8C5.2,5.9,5.2,5.9,5.2,5.8
					C5.2,5.8,5.2,5.8,5.2,5.8L5.2,5.8z"/>
				<path class="st12" d="M6.3,6.1L6.3,6.1c0,0.1,0,0.1,0.1,0.2c0,0,0.1,0.1,0.2,0.1c0.1,0,0.1,0,0.2-0.1c0,0,0.1-0.1,0.1-0.2V5.8
					l-0.4,0L6.3,6.1L6.3,6.1z"/>
				<path class="st10" d="M6.7,5.8C6.6,5.8,6.6,5.8,6.7,5.8C6.6,5.9,6.6,5.9,6.7,5.8C6.7,5.9,6.7,5.9,6.7,5.8
					C6.7,5.8,6.7,5.8,6.7,5.8L6.7,5.8z"/>
				<path class="st10" d="M6.5,5.9C6.5,5.9,6.5,6,6.5,5.9C6.5,6,6.5,6,6.5,5.9C6.6,6,6.6,6,6.5,5.9C6.6,6,6.6,5.9,6.5,5.9L6.5,5.9z"
					/>
				<path class="st10" d="M6.7,6.1C6.6,6.1,6.6,6.1,6.7,6.1C6.6,6.1,6.6,6.2,6.7,6.1C6.7,6.2,6.7,6.1,6.7,6.1
					C6.7,6.1,6.7,6.1,6.7,6.1L6.7,6.1z"/>
				<path class="st10" d="M6.4,6.1C6.4,6.1,6.4,6.1,6.4,6.1C6.4,6.1,6.4,6.2,6.4,6.1C6.4,6.2,6.5,6.1,6.4,6.1
					C6.5,6.1,6.4,6.1,6.4,6.1L6.4,6.1z"/>
				<path class="st10" d="M6.4,5.8C6.4,5.8,6.4,5.8,6.4,5.8C6.4,5.9,6.4,5.9,6.4,5.8C6.4,5.9,6.5,5.9,6.4,5.8
					C6.5,5.8,6.4,5.8,6.4,5.8L6.4,5.8z"/>
				<path class="st12" d="M5.7,5.3L5.7,5.3c0,0.1,0,0.1,0.1,0.2c0,0,0.1,0.1,0.2,0.1s0.1,0,0.2-0.1c0,0,0.1-0.1,0.1-0.2V5L5.7,5
					L5.7,5.3L5.7,5.3z"/>
				<path class="st10" d="M6,5C6,5,6,5.1,6,5C6,5.1,6,5.1,6,5C6.1,5.1,6.1,5.1,6,5C6.1,5.1,6.1,5,6,5L6,5z"/>
				<path class="st10" d="M5.9,5.2C5.9,5.2,5.9,5.2,5.9,5.2C5.9,5.2,5.9,5.3,5.9,5.2C5.9,5.3,6,5.2,5.9,5.2C6,5.2,5.9,5.2,5.9,5.2
					L5.9,5.2z"/>
				<path class="st10" d="M6,5.3C6,5.3,6,5.3,6,5.3C6,5.4,6,5.4,6,5.3C6.1,5.4,6.1,5.4,6,5.3C6.1,5.3,6.1,5.3,6,5.3L6,5.3z"/>
				<path class="st10" d="M5.8,5.3C5.8,5.3,5.8,5.3,5.8,5.3C5.8,5.4,5.8,5.4,5.8,5.3C5.8,5.4,5.8,5.4,5.8,5.3
					C5.8,5.3,5.8,5.3,5.8,5.3L5.8,5.3z"/>
				<path class="st10" d="M5.8,5C5.8,5,5.8,5.1,5.8,5C5.8,5.1,5.8,5.1,5.8,5C5.8,5.1,5.8,5.1,5.8,5C5.8,5.1,5.8,5,5.8,5L5.8,5z"/>
				<path class="st4" d="M4.4,4.6c0-0.2,0.1-0.2,0.1-0.2c0,0,0.1,0,0.1,0.2L4.4,4.6L4.4,4.6z"/>
				<path class="st4" d="M4.3,4.4l0,0.2l0.1,0c0-0.2,0.1-0.2,0.1-0.2c0,0,0.1,0,0.1,0.2h0.1l0-0.2L4.3,4.4L4.3,4.4z"/>
				<g class="st5">
					<path class="st6" d="M4.8,4.6H4.7c0-0.2-0.1-0.2-0.1-0.2c0,0-0.1,0-0.1,0.2l-0.1,0l0-0.2l0.5,0L4.8,4.6L4.8,4.6z M4.5,4.4
						l-0.2,0l0,0.2l0.1,0C4.4,4.5,4.5,4.4,4.5,4.4L4.5,4.4z M4.5,4.4c0,0,0.1,0.1,0.1,0.2l0.1,0l0-0.2L4.5,4.4L4.5,4.4z"/>
				</g>
				<path class="st4" d="M4.3,4.6h0.5c0,0,0,0,0,0c0,0,0,0,0,0L4.3,4.6C4.3,4.7,4.3,4.7,4.3,4.6C4.3,4.6,4.3,4.6,4.3,4.6L4.3,4.6z"
					/>
				<g class="st5">
					<path class="st6" d="M4.8,4.7H4.3c0,0,0,0,0,0c0,0,0,0,0,0L4.8,4.7C4.8,4.6,4.8,4.6,4.8,4.7C4.8,4.7,4.8,4.7,4.8,4.7L4.8,4.7z
						 M4.3,4.6L4.3,4.6l0.5,0c0,0,0,0,0,0L4.3,4.6L4.3,4.6z"/>
				</g>
				<path class="st4" d="M4.5,4.6c0-0.1,0.1-0.1,0.1-0.1s0.1,0,0.1,0.1H4.5L4.5,4.6z"/>
				<g class="st5">
					<path class="st6" d="M4.6,4.6H4.5c0-0.1,0.1-0.1,0.1-0.1C4.5,4.5,4.6,4.5,4.6,4.6L4.6,4.6L4.6,4.6z M4.5,4.5c0,0-0.1,0-0.1,0.1
						l0.1,0C4.6,4.5,4.5,4.5,4.5,4.5L4.5,4.5z"/>
				</g>
				<path class="st4" d="M4.3,4.4h0.5c0,0,0,0,0,0c0,0,0,0,0,0L4.3,4.4C4.3,4.4,4.3,4.4,4.3,4.4C4.3,4.4,4.3,4.4,4.3,4.4L4.3,4.4z"
					/>
				<g class="st5">
					<path class="st6" d="M4.8,4.4H4.3c0,0,0,0,0,0c0,0,0,0,0,0L4.8,4.4C4.8,4.3,4.8,4.4,4.8,4.4C4.8,4.4,4.8,4.4,4.8,4.4L4.8,4.4z
						 M4.3,4.4L4.3,4.4l0.5,0c0,0,0,0,0,0L4.3,4.4L4.3,4.4z"/>
				</g>
				<path class="st4" d="M4.3,4.4h0.5c0,0,0,0,0,0s0,0,0,0L4.3,4.4C4.3,4.4,4.3,4.4,4.3,4.4C4.3,4.4,4.3,4.4,4.3,4.4L4.3,4.4z"/>
				<g class="st5">
					<path class="st6" d="M4.8,4.4H4.3c0,0,0,0,0,0s0,0,0,0L4.8,4.4C4.8,4.4,4.8,4.4,4.8,4.4C4.8,4.4,4.8,4.4,4.8,4.4L4.8,4.4z
						 M4.3,4.4L4.3,4.4l0.5,0c0,0,0,0,0,0L4.3,4.4L4.3,4.4z"/>
				</g>
				<path class="st4" d="M4.5,4.1L4.5,4.1L4.5,4.1L4.5,4.1L4.5,4.1l0.1,0v0h0v0h0v0.1c0,0,0,0,0,0L4.5,4.1C4.5,4.2,4.5,4.1,4.5,4.1
					L4.5,4.1L4.5,4.1z"/>
				<g class="st5">
					<path class="st6" d="M4.6,4.2H4.5l0,0V4.1l0,0l0,0L4.6,4.2L4.6,4.2L4.6,4.2L4.6,4.2L4.6,4.2L4.6,4.2L4.6,4.2L4.6,4.2L4.6,4.2
						L4.6,4.2z M4.5,4.1L4.5,4.1L4.5,4.1l0.1,0.1l0,0V4.1L4.5,4.1l0.1,0L4.5,4.1L4.5,4.1L4.5,4.1L4.5,4.1L4.5,4.1L4.5,4.1L4.5,4.1z"
						/>
				</g>
				<polygon class="st4" points="4.6,4.2 4.6,4.4 4.5,4.4 4.5,4.2 4.6,4.2 				"/>
				<g class="st5">
					<path class="st6" d="M4.6,4.4l-0.1,0l0-0.2l0.1,0L4.6,4.4L4.6,4.4z M4.6,4.2l-0.1,0l0,0.2l0.1,0L4.6,4.2L4.6,4.2z"/>
				</g>
				<path class="st4" d="M4.6,4.2L4.6,4.2L4.6,4.2L4.6,4.2L4.6,4.2L4.6,4.2L4.6,4.2l0.1,0v0h0v0.1c0,0,0,0,0,0L4.6,4.2
					C4.6,4.2,4.6,4.2,4.6,4.2L4.6,4.2L4.6,4.2z"/>
				<g class="st5">
					<path class="st6" d="M4.8,4.3H4.6l0,0V4.2l0,0l0,0L4.8,4.3L4.8,4.3L4.8,4.3L4.8,4.3L4.8,4.3L4.8,4.3L4.8,4.3L4.8,4.3L4.8,4.3
						L4.8,4.3z M4.6,4.2L4.6,4.2L4.6,4.2l0.1,0.1l0,0V4.2L4.6,4.2l0.1,0L4.6,4.2L4.6,4.2L4.6,4.2L4.6,4.2L4.6,4.2L4.6,4.2L4.6,4.2z"
						/>
				</g>
				<polygon class="st4" points="4.8,4.2 4.8,4.4 4.6,4.4 4.6,4.2 				"/>
				<g class="st5">
					<path class="st6" d="M4.8,4.4H4.6l0-0.1l0.1,0L4.8,4.4L4.8,4.4z M4.7,4.2l-0.1,0l0,0.1L4.7,4.2L4.7,4.2L4.7,4.2z"/>
				</g>
				<path class="st4" d="M4.3,4.2L4.3,4.2L4.3,4.2L4.3,4.2L4.3,4.2L4.3,4.2L4.3,4.2l0.1,0v0h0v0.1c0,0,0,0,0,0L4.3,4.2
					C4.3,4.2,4.3,4.2,4.3,4.2L4.3,4.2L4.3,4.2z"/>
				<g class="st5">
					<path class="st6" d="M4.4,4.3H4.3l0,0V4.2l0,0l0,0L4.4,4.3L4.4,4.3L4.4,4.3L4.4,4.3L4.4,4.3L4.4,4.3L4.4,4.3L4.4,4.3L4.4,4.3
						L4.4,4.3z M4.3,4.2L4.3,4.2L4.3,4.2l0.1,0.1l0,0V4.2L4.3,4.2l0.1,0L4.3,4.2L4.3,4.2L4.3,4.2L4.3,4.2L4.3,4.2L4.3,4.2L4.3,4.2z"
						/>
				</g>
				<polygon class="st4" points="4.4,4.2 4.4,4.4 4.3,4.4 4.3,4.2 				"/>
				<g class="st5">
					<path class="st6" d="M4.4,4.4H4.3l0-0.1l0.1,0L4.4,4.4L4.4,4.4z M4.4,4.2l-0.1,0l0,0.1L4.4,4.2L4.4,4.2L4.4,4.2z"/>
				</g>
				<path class="st8" d="M4.5,4.2C4.5,4.2,4.6,4.2,4.5,4.2L4.5,4.2L4.5,4.2L4.5,4.2L4.5,4.2z"/>
				<path class="st8" d="M4.7,4.3C4.7,4.3,4.7,4.3,4.7,4.3L4.7,4.3L4.7,4.3L4.7,4.3L4.7,4.3z"/>
				<path class="st8" d="M4.4,4.3C4.4,4.3,4.4,4.3,4.4,4.3L4.4,4.3L4.4,4.3L4.4,4.3L4.4,4.3z"/>
				<path class="st4" d="M5.8,4.1L5.8,4.1L5.8,4.1L5.8,4.1L5.8,4.1l0.1,0v0h0v0h0v0.1c0,0,0,0,0,0L5.8,4.1C5.8,4.2,5.8,4.1,5.8,4.1
					L5.8,4.1L5.8,4.1z"/>
				<g class="st5">
					<path class="st6" d="M6,4.2H5.8l0,0V4.1l0,0l0,0L6,4.2L6,4.2L6,4.2L6,4.2L6,4.2L6,4.2L6,4.2L6,4.2L6,4.2L6,4.2z M5.9,4.1
						L5.9,4.1L5.9,4.1L6,4.2l0,0V4.1L5.9,4.1l0.1,0L5.9,4.1L5.9,4.1L5.9,4.1L5.9,4.1L5.9,4.1L5.9,4.1L5.9,4.1z"/>
				</g>
				<polygon class="st4" points="6,4.2 6,4.4 5.8,4.4 5.9,4.2 6,4.2 				"/>
				<g class="st5">
					<path class="st6" d="M6,4.4l-0.1,0l0-0.2l0.1,0L6,4.4L6,4.4z M6,4.2l-0.1,0l0,0.2l0.1,0L6,4.2L6,4.2z"/>
				</g>
				<path class="st4" d="M6,4.2L6,4.2L6,4.2L6,4.2L6,4.2L6,4.2L6,4.2l0.1,0v0h0v0.1c0,0,0,0,0,0L6,4.2C6,4.2,6,4.2,6,4.2L6,4.2
					L6,4.2z"/>
				<g class="st5">
					<path class="st6" d="M6.1,4.3H6l0,0V4.2l0,0l0,0L6.1,4.3L6.1,4.3L6.1,4.3L6.1,4.3L6.1,4.3L6.1,4.3L6.1,4.3L6.1,4.3L6.1,4.3
						L6.1,4.3z M6,4.2L6,4.2L6,4.2l0.1,0.1l0,0V4.2L6,4.2l0.1,0L6,4.2L6,4.2L6,4.2L6,4.2L6,4.2L6,4.2L6,4.2z"/>
				</g>
				<polygon class="st4" points="6.1,4.2 6.1,4.4 6,4.4 6,4.2 				"/>
				<g class="st5">
					<path class="st6" d="M6,4.4l0-0.1l0.1,0l0,0.1L6,4.4L6,4.4z M6.1,4.2L6,4.3l0,0.1L6.1,4.2L6.1,4.2L6.1,4.2z"/>
				</g>
				<path class="st4" d="M5.7,4.2L5.7,4.2L5.7,4.2L5.7,4.2L5.7,4.2L5.7,4.2L5.7,4.2l0.1,0v0h0l0,0.1c0,0,0,0,0,0L5.7,4.2
					C5.7,4.2,5.7,4.2,5.7,4.2L5.7,4.2L5.7,4.2z"/>
				<g class="st5">
					<path class="st6" d="M5.8,4.3H5.7l0,0V4.2l0,0l0,0L5.8,4.3L5.8,4.3L5.8,4.3L5.8,4.3L5.8,4.3L5.8,4.3L5.8,4.3L5.8,4.3L5.8,4.3
						L5.8,4.3z M5.7,4.2L5.7,4.2L5.7,4.2l0.1,0.1l0,0V4.2L5.7,4.2l0.1,0L5.7,4.2L5.7,4.2L5.7,4.2L5.7,4.2L5.7,4.2L5.7,4.2L5.7,4.2z"
						/>
				</g>
				<polygon class="st4" points="5.8,4.2 5.8,4.4 5.7,4.4 5.7,4.2 				"/>
				<g class="st5">
					<path class="st6" d="M5.8,4.4H5.7l0-0.1l0.1,0L5.8,4.4L5.8,4.4z M5.8,4.2l-0.1,0l0,0.1L5.8,4.2L5.8,4.2L5.8,4.2z"/>
				</g>
				<path class="st4" d="M5.8,4.6c0-0.2,0.1-0.2,0.1-0.2c0,0,0.1,0,0.1,0.2L5.8,4.6L5.8,4.6z"/>
				<path class="st4" d="M5.7,4.4l0,0.2h0.1c0-0.2,0.1-0.2,0.1-0.2c0,0,0.1,0,0.1,0.2h0.1l0-0.2L5.7,4.4L5.7,4.4z"/>
				<g class="st5">
					<path class="st6" d="M6.2,4.6H6c0-0.2-0.1-0.2-0.1-0.2c0,0-0.1,0-0.1,0.2l-0.1,0l0-0.2l0.5,0L6.2,4.6L6.2,4.6z M5.9,4.4l-0.2,0
						l0,0.2l0.1,0C5.8,4.5,5.9,4.4,5.9,4.4L5.9,4.4z M5.9,4.4C6,4.4,6,4.5,6,4.6l0.1,0l0-0.2L5.9,4.4L5.9,4.4z"/>
				</g>
				<path class="st4" d="M5.7,4.6h0.5c0,0,0,0,0,0c0,0,0,0,0,0L5.7,4.6C5.6,4.7,5.6,4.7,5.7,4.6C5.6,4.6,5.6,4.6,5.7,4.6L5.7,4.6z"
					/>
				<g class="st5">
					<path class="st6" d="M6.2,4.7H5.7c0,0,0,0,0,0c0,0,0,0,0,0L6.2,4.7C6.2,4.6,6.2,4.6,6.2,4.7C6.2,4.7,6.2,4.7,6.2,4.7L6.2,4.7z
						 M5.7,4.6L5.7,4.6l0.5,0c0,0,0,0,0,0L5.7,4.6L5.7,4.6z"/>
				</g>
				<path class="st4" d="M5.8,4.6c0-0.1,0.1-0.1,0.1-0.1S6,4.5,6,4.6H5.8L5.8,4.6z"/>
				<g class="st5">
					<path class="st6" d="M6,4.6H5.8c0-0.1,0.1-0.1,0.1-0.1C5.9,4.5,6,4.5,6,4.6L6,4.6L6,4.6z M5.9,4.5c0,0-0.1,0-0.1,0.1l0.1,0
						C6,4.5,5.9,4.5,5.9,4.5L5.9,4.5z"/>
				</g>
				<path class="st4" d="M5.7,4.4h0.5c0,0,0,0,0,0c0,0,0,0,0,0L5.7,4.4C5.7,4.4,5.6,4.4,5.7,4.4C5.6,4.4,5.7,4.4,5.7,4.4L5.7,4.4z"
					/>
				<g class="st5">
					<path class="st6" d="M6.2,4.4H5.7c0,0,0,0,0,0c0,0,0,0,0,0L6.2,4.4C6.2,4.3,6.2,4.4,6.2,4.4C6.2,4.4,6.2,4.4,6.2,4.4L6.2,4.4z
						 M5.7,4.4L5.7,4.4l0.5,0c0,0,0,0,0,0L5.7,4.4L5.7,4.4z"/>
				</g>
				<path class="st4" d="M5.7,4.4h0.5c0,0,0,0,0,0c0,0,0,0,0,0L5.7,4.4C5.7,4.4,5.7,4.4,5.7,4.4C5.7,4.4,5.7,4.4,5.7,4.4L5.7,4.4z"
					/>
				<g class="st5">
					<path class="st6" d="M6.1,4.4H5.7c0,0,0,0,0,0s0,0,0,0L6.1,4.4C6.2,4.4,6.2,4.4,6.1,4.4C6.2,4.4,6.2,4.4,6.1,4.4L6.1,4.4z
						 M5.7,4.4L5.7,4.4l0.5,0c0,0,0,0,0,0L5.7,4.4L5.7,4.4z"/>
				</g>
				<path class="st8" d="M5.9,4.2C5.9,4.2,5.9,4.2,5.9,4.2L5.9,4.2L5.9,4.2L5.9,4.2L5.9,4.2z"/>
				<path class="st8" d="M6.1,4.3C6.1,4.3,6.1,4.3,6.1,4.3L6.1,4.3L6.1,4.3L6.1,4.3L6.1,4.3z"/>
				<path class="st8" d="M5.7,4.3C5.7,4.3,5.8,4.3,5.7,4.3L5.7,4.3L5.7,4.3L5.7,4.3L5.7,4.3z"/>
				<path class="st4" d="M7.2,4.1L7.2,4.1L7.2,4.1L7.2,4.1L7.2,4.1l0.1,0v0h0v0h0v0.1c0,0,0,0,0,0L7.2,4.1C7.2,4.2,7.2,4.1,7.2,4.1
					L7.2,4.1L7.2,4.1z"/>
				<g class="st5">
					<path class="st6" d="M7.3,4.2H7.2l0,0V4.1l0,0l0,0L7.3,4.2L7.3,4.2L7.3,4.2L7.3,4.2L7.3,4.2L7.3,4.2L7.3,4.2L7.3,4.2L7.3,4.2
						L7.3,4.2z M7.2,4.1L7.2,4.1L7.2,4.1l0.1,0.1l0,0V4.1L7.2,4.1l0.1,0L7.2,4.1L7.2,4.1L7.2,4.1L7.2,4.1L7.2,4.1L7.2,4.1L7.2,4.1z"
						/>
				</g>
				<polygon class="st4" points="7.3,4.2 7.3,4.4 7.2,4.4 7.2,4.2 				"/>
				<g class="st5">
					<path class="st6" d="M7.3,4.4l-0.1,0l0-0.2l0.1,0L7.3,4.4L7.3,4.4z M7.3,4.2l-0.1,0l0,0.2l0.1,0L7.3,4.2L7.3,4.2z"/>
				</g>
				<path class="st4" d="M7.3,4.2L7.3,4.2L7.3,4.2L7.3,4.2L7.3,4.2L7.3,4.2L7.3,4.2l0.1,0v0h0v0.1c0,0,0,0,0,0L7.3,4.2
					C7.4,4.2,7.3,4.2,7.3,4.2L7.3,4.2L7.3,4.2z"/>
				<g class="st5">
					<path class="st6" d="M7.5,4.3H7.4l0,0V4.2l0,0l0,0L7.5,4.3L7.5,4.3L7.5,4.3L7.5,4.3L7.5,4.3L7.5,4.3L7.5,4.3L7.5,4.3L7.5,4.3
						L7.5,4.3z M7.4,4.2L7.4,4.2L7.4,4.2l0.1,0.1l0,0V4.2L7.4,4.2l0.1,0L7.4,4.2L7.4,4.2L7.4,4.2L7.4,4.2L7.4,4.2L7.4,4.2L7.4,4.2z"
						/>
				</g>
				<polygon class="st4" points="7.5,4.2 7.5,4.4 7.4,4.4 7.4,4.2 				"/>
				<g class="st5">
					<path class="st6" d="M7.5,4.4H7.4l0-0.1l0.1,0L7.5,4.4L7.5,4.4z M7.5,4.2l-0.1,0l0,0.1L7.5,4.2L7.5,4.2L7.5,4.2z"/>
				</g>
				<path class="st4" d="M7,4.2L7,4.2L7,4.2L7,4.2L7,4.2L7,4.2L7,4.2l0.1,0v0h0v0.1c0,0,0,0,0,0L7,4.2C7,4.2,7,4.2,7,4.2L7,4.2
					L7,4.2z"/>
				<g class="st5">
					<path class="st6" d="M7.2,4.3H7l0,0V4.2l0,0l0,0L7.2,4.3L7.2,4.3L7.2,4.3L7.2,4.3L7.2,4.3L7.2,4.3L7.2,4.3L7.2,4.3L7.2,4.3
						L7.2,4.3z M7.1,4.2L7.1,4.2L7.1,4.2l0.1,0.1l0,0V4.2L7.1,4.2l0.1,0L7.1,4.2L7.1,4.2L7.1,4.2L7.1,4.2L7.1,4.2L7.1,4.2L7.1,4.2z"
						/>
				</g>
				<polygon class="st4" points="7.2,4.2 7.2,4.4 7,4.4 7,4.2 				"/>
				<g class="st5">
					<path class="st6" d="M7.2,4.4H7l0-0.1l0.1,0L7.2,4.4L7.2,4.4z M7.2,4.2L7,4.3l0,0.1L7.2,4.2L7.2,4.2L7.2,4.2z"/>
				</g>
				<path class="st4" d="M7.1,4.6c0-0.2,0.1-0.2,0.1-0.2c0,0,0.1,0,0.1,0.2L7.1,4.6L7.1,4.6z"/>
				<path class="st4" d="M7,4.4l0,0.2h0.1c0-0.2,0.1-0.2,0.1-0.2c0,0,0.1,0,0.1,0.2h0.1l0-0.2L7,4.4L7,4.4z"/>
				<g class="st5">
					<path class="st6" d="M7.5,4.6H7.4c0-0.1-0.1-0.2-0.1-0.2c0,0-0.1,0-0.1,0.2L7,4.6l0-0.2l0.5,0L7.5,4.6L7.5,4.6z M7.3,4.4L7,4.4
						l0,0.2l0.1,0C7.1,4.5,7.2,4.4,7.3,4.4L7.3,4.4z M7.3,4.4c0,0,0.1,0.1,0.1,0.2l0.1,0l0-0.2L7.3,4.4L7.3,4.4z"/>
				</g>
				<path class="st4" d="M7,4.6h0.5c0,0,0,0,0,0c0,0,0,0,0,0L7,4.6C7,4.7,7,4.7,7,4.6C7,4.6,7,4.6,7,4.6L7,4.6z"/>
				<g class="st5">
					<path class="st6" d="M7.5,4.7H7c0,0,0,0,0,0c0,0,0,0,0,0L7.5,4.7C7.5,4.6,7.5,4.6,7.5,4.7C7.5,4.7,7.5,4.7,7.5,4.7L7.5,4.7z
						 M7,4.6L7,4.6l0.5,0c0,0,0,0,0,0L7,4.6L7,4.6z"/>
				</g>
				<path class="st4" d="M7.2,4.6c0-0.1,0.1-0.1,0.1-0.1c0,0,0.1,0,0.1,0.1H7.2L7.2,4.6z"/>
				<g class="st5">
					<path class="st6" d="M7.3,4.6l-0.1,0c0-0.1,0.1-0.1,0.1-0.1C7.3,4.5,7.3,4.5,7.3,4.6L7.3,4.6L7.3,4.6z M7.3,4.5
						c0,0-0.1,0-0.1,0.1l0.1,0C7.3,4.5,7.3,4.5,7.3,4.5L7.3,4.5z"/>
				</g>
				<path class="st4" d="M7,4.4h0.5c0,0,0,0,0,0c0,0,0,0,0,0L7,4.4C7,4.4,7,4.4,7,4.4C7,4.4,7,4.4,7,4.4L7,4.4z"/>
				<g class="st5">
					<path class="st6" d="M7.5,4.4H7c0,0,0,0,0,0c0,0,0,0,0,0L7.5,4.4C7.5,4.3,7.5,4.4,7.5,4.4C7.5,4.4,7.5,4.4,7.5,4.4L7.5,4.4z
						 M7,4.4L7,4.4l0.5,0c0,0,0,0,0,0L7,4.4L7,4.4z"/>
				</g>
				<path class="st4" d="M7,4.4h0.5c0,0,0,0,0,0c0,0,0,0,0,0L7,4.4C7,4.4,7,4.4,7,4.4C7,4.4,7,4.4,7,4.4L7,4.4z"/>
				<g class="st5">
					<path class="st6" d="M7.5,4.4H7c0,0,0,0,0,0c0,0,0,0,0,0L7.5,4.4C7.5,4.4,7.5,4.4,7.5,4.4C7.5,4.4,7.5,4.4,7.5,4.4L7.5,4.4z
						 M7,4.4L7,4.4l0.5,0c0,0,0,0,0,0L7,4.4L7,4.4z"/>
				</g>
				<path class="st8" d="M7.3,4.2C7.3,4.2,7.3,4.2,7.3,4.2L7.3,4.2L7.3,4.2L7.3,4.2L7.3,4.2z"/>
				<path class="st8" d="M7.4,4.3C7.4,4.3,7.4,4.3,7.4,4.3L7.4,4.3L7.4,4.3L7.4,4.3L7.4,4.3z"/>
				<path class="st8" d="M7.1,4.3C7.1,4.3,7.1,4.3,7.1,4.3L7.1,4.3L7.1,4.3L7.1,4.3L7.1,4.3z"/>
				<path class="st4" d="M4.5,5.5L4.5,5.5L4.5,5.5L4.5,5.5L4.5,5.5l0.1,0v0h0v0h0v0.1c0,0,0,0,0,0L4.5,5.5C4.5,5.5,4.5,5.5,4.5,5.5
					L4.5,5.5L4.5,5.5z"/>
				<g class="st5">
					<path class="st6" d="M4.6,5.5H4.5l0,0V5.5l0,0l0,0L4.6,5.5L4.6,5.5L4.6,5.5L4.6,5.5L4.6,5.5L4.6,5.5L4.6,5.5L4.6,5.5L4.6,5.5
						L4.6,5.5z M4.5,5.5L4.5,5.5L4.5,5.5l0.1,0.1l0,0V5.5L4.5,5.5l0.1,0L4.5,5.5L4.5,5.5L4.5,5.5L4.5,5.5L4.5,5.5L4.5,5.5L4.5,5.5z"
						/>
				</g>
				<polygon class="st4" points="4.6,5.5 4.6,5.7 4.5,5.7 4.5,5.5 4.6,5.5 				"/>
				<g class="st5">
					<path class="st6" d="M4.6,5.7l-0.1,0l0-0.2l0.1,0L4.6,5.7L4.6,5.7z M4.6,5.5l-0.1,0l0,0.2l0.1,0L4.6,5.5L4.6,5.5z"/>
				</g>
				<path class="st4" d="M4.6,5.6L4.6,5.6L4.6,5.6L4.6,5.6L4.6,5.6L4.6,5.6L4.6,5.6l0.1,0v0h0v0.1c0,0,0,0,0,0L4.6,5.6
					C4.6,5.6,4.6,5.6,4.6,5.6L4.6,5.6L4.6,5.6z"/>
				<g class="st5">
					<path class="st6" d="M4.8,5.6H4.6l0,0V5.6l0,0l0,0L4.8,5.6L4.8,5.6L4.8,5.6L4.8,5.6L4.8,5.6L4.8,5.6L4.8,5.6L4.8,5.6L4.8,5.6
						L4.8,5.6z M4.6,5.6L4.6,5.6L4.6,5.6l0.1,0.1l0,0V5.6L4.6,5.6l0.1,0L4.6,5.6L4.6,5.6L4.6,5.6L4.6,5.6L4.6,5.6L4.6,5.6L4.6,5.6z"
						/>
				</g>
				<polygon class="st4" points="4.8,5.6 4.8,5.7 4.6,5.7 4.6,5.6 				"/>
				<g class="st5">
					<path class="st6" d="M4.8,5.7H4.6l0-0.1l0.1,0L4.8,5.7L4.8,5.7z M4.7,5.6l-0.1,0l0,0.1L4.7,5.6L4.7,5.6L4.7,5.6z"/>
				</g>
				<path class="st4" d="M4.3,5.6L4.3,5.6L4.3,5.6L4.3,5.6L4.3,5.6L4.3,5.6L4.3,5.6l0.1,0v0h0v0.1c0,0,0,0,0,0L4.3,5.6
					C4.3,5.6,4.3,5.6,4.3,5.6L4.3,5.6L4.3,5.6z"/>
				<g class="st5">
					<path class="st6" d="M4.4,5.6H4.3l0,0V5.6l0,0l0,0L4.4,5.6L4.4,5.6L4.4,5.6L4.4,5.6L4.4,5.6L4.4,5.6L4.4,5.6L4.4,5.6L4.4,5.6
						L4.4,5.6z M4.3,5.6L4.3,5.6L4.3,5.6l0.1,0.1l0,0V5.6L4.3,5.6l0.1,0L4.3,5.6L4.3,5.6L4.3,5.6L4.3,5.6L4.3,5.6L4.3,5.6L4.3,5.6z"
						/>
				</g>
				<polygon class="st4" points="4.4,5.6 4.4,5.7 4.3,5.7 4.3,5.6 				"/>
				<g class="st5">
					<path class="st6" d="M4.5,5.7H4.3l0-0.1l0.1,0L4.5,5.7L4.5,5.7z M4.4,5.6l-0.1,0l0,0.1L4.4,5.6L4.4,5.6L4.4,5.6z"/>
				</g>
				<path class="st4" d="M4.4,6c0-0.2,0.1-0.2,0.1-0.2c0,0,0.1,0,0.1,0.2L4.4,6L4.4,6z"/>
				<path class="st4" d="M4.3,5.8l0,0.2h0.1c0-0.2,0.1-0.2,0.1-0.2c0,0,0.1,0,0.1,0.2h0.1l0-0.2L4.3,5.8L4.3,5.8z"/>
				<g class="st5">
					<path class="st6" d="M4.8,6H4.7c0-0.2-0.1-0.2-0.1-0.2c0,0-0.1,0-0.1,0.2L4.3,6l0-0.2l0.5,0L4.8,6L4.8,6z M4.5,5.8l-0.2,0
						l0,0.2l0.1,0C4.4,5.9,4.5,5.8,4.5,5.8L4.5,5.8z M4.6,5.8c0,0,0.1,0.1,0.1,0.2l0.1,0l0-0.2L4.6,5.8L4.6,5.8z"/>
				</g>
				<path class="st4" d="M4.3,6h0.5c0,0,0,0,0,0c0,0,0,0,0,0L4.3,6C4.3,6.1,4.3,6,4.3,6C4.3,6,4.3,6,4.3,6L4.3,6z"/>
				<g class="st5">
					<path class="st6" d="M4.8,6.1H4.3c0,0,0,0,0,0c0,0,0,0,0,0L4.8,6.1C4.8,6,4.8,6,4.8,6.1C4.8,6.1,4.8,6.1,4.8,6.1L4.8,6.1z
						 M4.3,6L4.3,6l0.5,0c0,0,0,0,0,0L4.3,6L4.3,6z"/>
				</g>
				<path class="st4" d="M4.5,6c0-0.1,0.1-0.1,0.1-0.1s0.1,0,0.1,0.1H4.5L4.5,6z"/>
				<g class="st5">
					<path class="st6" d="M4.6,6L4.5,6c0-0.1,0.1-0.1,0.1-0.1C4.5,5.9,4.6,5.9,4.6,6L4.6,6L4.6,6z M4.5,5.9c0,0-0.1,0-0.1,0.1l0.1,0
						C4.6,5.9,4.5,5.9,4.5,5.9L4.5,5.9z"/>
				</g>
				<path class="st4" d="M4.3,5.7h0.5c0,0,0,0,0,0s0,0,0,0L4.3,5.7C4.3,5.8,4.3,5.8,4.3,5.7C4.3,5.8,4.3,5.7,4.3,5.7L4.3,5.7z"/>
				<g class="st5">
					<path class="st6" d="M4.8,5.8H4.3c0,0,0,0,0,0s0,0,0,0L4.8,5.8C4.8,5.7,4.8,5.7,4.8,5.8C4.8,5.8,4.8,5.8,4.8,5.8L4.8,5.8z
						 M4.3,5.7L4.3,5.7l0.5,0c0,0,0,0,0,0L4.3,5.7L4.3,5.7z"/>
				</g>
				<path class="st4" d="M4.3,5.8h0.5c0,0,0,0,0,0s0,0,0,0L4.3,5.8C4.3,5.8,4.3,5.8,4.3,5.8C4.3,5.8,4.3,5.8,4.3,5.8L4.3,5.8z"/>
				<g class="st5">
					<path class="st6" d="M4.8,5.8H4.3c0,0,0,0,0,0c0,0,0,0,0,0L4.8,5.8C4.8,5.8,4.8,5.8,4.8,5.8C4.8,5.8,4.8,5.8,4.8,5.8L4.8,5.8z
						 M4.3,5.8L4.3,5.8l0.5,0c0,0,0,0,0,0L4.3,5.8L4.3,5.8z"/>
				</g>
				<path class="st8" d="M4.5,5.6C4.5,5.6,4.6,5.6,4.5,5.6L4.5,5.6L4.5,5.6L4.5,5.6L4.5,5.6z"/>
				<path class="st8" d="M4.7,5.7C4.7,5.7,4.7,5.7,4.7,5.7L4.7,5.7L4.7,5.7L4.7,5.7L4.7,5.7z"/>
				<path class="st8" d="M4.4,5.7C4.4,5.7,4.4,5.7,4.4,5.7L4.4,5.7L4.4,5.7L4.4,5.7L4.4,5.7z"/>
				<path class="st4" d="M7.1,6.9L7.1,6.9L7.1,6.9L7.1,6.9L7.1,6.9L7.1,6.9L7.1,6.9L7.2,7L7.1,6.9L7.2,7l0,0c0,0,0,0,0,0L7.1,6.9
					C7.1,7,7.1,7,7.1,6.9L7.1,6.9L7.1,6.9z"/>
				<g class="st5">
					<path class="st6" d="M7.2,7.1L7.2,7.1L7.1,7l0,0l0,0l0,0l0,0l0,0l0,0l0,0L7.2,7.1L7.2,7.1L7.2,7.1L7.2,7.1L7.2,7.1L7.2,7.1z
						 M7.1,6.9L7.1,6.9l0.1,0.2l0,0l0,0L7.1,6.9L7.2,7L7.1,6.9L7.1,6.9L7.1,6.9L7.1,6.9L7.1,6.9L7.1,6.9L7.1,6.9L7.1,6.9z"/>
				</g>
				<polygon class="st4" points="7.1,7.1 7,7.2 6.9,7.1 7.1,7 				"/>
				<g class="st5">
					<path class="st6" d="M7,7.2L7,7.2l0-0.2l0.1,0.1L7,7.2L7,7.2z M7.1,7L6.9,7.1L7,7.2L7.1,7L7.1,7L7.1,7z"/>
				</g>
				<path class="st4" d="M7.1,7.1L7.1,7.1L7.1,7.1L7.1,7.1L7.1,7.1L7.1,7.1L7.1,7.1l0.1,0.1L7.1,7.1l0.1,0.1l0,0c0,0,0,0,0,0
					L7.1,7.1C7.1,7.2,7.1,7.2,7.1,7.1L7.1,7.1L7.1,7.1z"/>
				<g class="st5">
					<path class="st6" d="M7.2,7.3L7.2,7.3L7.1,7.2l0,0l0,0l0,0l0,0l0,0l0,0l0,0L7.2,7.3L7.2,7.3L7.2,7.3L7.2,7.3L7.2,7.3L7.2,7.3z
						 M7.1,7.1L7.1,7.1l0.1,0.2l0,0l0,0L7.1,7.1l0.1,0.1L7.1,7.1L7.1,7.1L7.1,7.1L7.1,7.1L7.1,7.1L7.1,7.1L7.1,7.1L7.1,7.1z"/>
				</g>
				<polygon class="st4" points="7.2,7.3 7.1,7.3 7,7.3 7.1,7.2 7.2,7.3 				"/>
				<g class="st5">
					<path class="st6" d="M7.1,7.4L7.1,7.4l0-0.2L7.1,7.4L7.1,7.4L7.1,7.4z M7.1,7.2L7.1,7.2l0,0.1L7.1,7.2L7.1,7.2L7.1,7.2z"/>
				</g>
				<path class="st4" d="M6.9,6.9L6.9,6.9L6.9,6.9L6.9,6.9L6.9,6.9L6.9,6.9L6.9,6.9L7,7L6.9,6.9L7,7l0,0c0,0,0,0,0,0L6.9,6.9
					C6.9,6.9,6.9,6.9,6.9,6.9L6.9,6.9L6.9,6.9z"/>
				<g class="st5">
					<path class="st6" d="M7,7.1L7,7.1L6.9,7l0,0l0,0l0,0l0,0l0,0l0,0l0,0L7,7.1L7,7.1L7,7.1L7,7.1L7,7.1L7,7.1z M6.9,6.9L6.9,6.9
						L7,7l0,0l0,0L6.9,6.9L7,7L6.9,6.9L6.9,6.9L6.9,6.9L6.9,6.9L6.9,6.9L6.9,6.9L6.9,6.9L6.9,6.9z"/>
				</g>
				<polygon class="st4" points="7,7 6.9,7.1 6.8,7 6.9,7 				"/>
				<g class="st5">
					<path class="st6" d="M6.9,7.1L6.9,7.1l0-0.2L6.9,7.1L6.9,7.1L6.9,7.1z M6.9,7L6.9,7l0,0.1L6.9,7L6.9,7L6.9,7z"/>
				</g>
				<path class="st4" d="M6.7,7.3c0.1-0.1,0.2-0.1,0.2-0.1c0,0,0.1,0.1-0.1,0.2L6.7,7.3L6.7,7.3z"/>
				<path class="st4" d="M6.8,7.1L6.6,7.2l0.1,0.1c0.1-0.1,0.2,0,0.2,0c0,0,0.1,0.1,0,0.2L7,7.6l0.1-0.2L6.8,7.1L6.8,7.1z"/>
				<g class="st5">
					<path class="st6" d="M7,7.6L7,7.6c0-0.2-0.1-0.3-0.1-0.3l0,0c0,0,0,0-0.1,0c0,0-0.1,0-0.1,0.1L6.6,7.2l0.2-0.1l0.3,0.3L7,7.6
						L7,7.6z M6.9,7.3C6.9,7.3,6.9,7.3,6.9,7.3c0,0.1,0,0.2,0,0.2L7,7.5l0.1-0.1L6.9,7.3L6.9,7.3z M6.7,7.1L6.6,7.2l0.1,0.1
						c0.1-0.1,0.2-0.1,0.2-0.1L6.7,7.1L6.7,7.1z"/>
				</g>
				<path class="st4" d="M6.6,7.2L7,7.6c0,0,0,0,0,0c0,0,0,0,0,0L6.6,7.2C6.6,7.2,6.6,7.2,6.6,7.2C6.6,7.2,6.6,7.2,6.6,7.2L6.6,7.2z
					"/>
				<g class="st5">
					<path class="st6" d="M6.9,7.6L6.9,7.6L6.6,7.2c0,0,0,0,0,0l0,0L6.9,7.6C7,7.6,7,7.6,6.9,7.6L6.9,7.6L6.9,7.6z M6.6,7.2l0.4,0.4
						l0,0L6.6,7.2L6.6,7.2L6.6,7.2L6.6,7.2z"/>
				</g>
				<path class="st4" d="M6.7,7.3c0.1-0.1,0.1,0,0.1,0C6.9,7.3,6.9,7.4,6.7,7.3L6.7,7.3L6.7,7.3z"/>
				<g class="st5">
					<path class="st6" d="M6.8,7.4L6.7,7.3c0.1-0.1,0.1-0.1,0.1-0.1C6.9,7.3,6.9,7.4,6.8,7.4L6.8,7.4L6.8,7.4z M6.8,7.3
						C6.8,7.3,6.8,7.3,6.8,7.3l0,0.1C6.9,7.4,6.9,7.3,6.8,7.3C6.9,7.3,6.8,7.3,6.8,7.3L6.8,7.3z"/>
				</g>
				<path class="st4" d="M6.8,7l0.3,0.3c0,0,0,0,0,0c0,0,0,0,0,0L6.8,7C6.8,7,6.8,7,6.8,7C6.8,7,6.8,7,6.8,7L6.8,7z"/>
				<g class="st5">
					<path class="st6" d="M7.1,7.4L7.1,7.4L6.8,7c0,0,0,0,0,0l0,0L7.1,7.4C7.2,7.4,7.2,7.4,7.1,7.4L7.1,7.4L7.1,7.4z M6.8,7L6.8,7
						l0.3,0.4l0,0L6.8,7L6.8,7z"/>
				</g>
				<path class="st4" d="M6.8,7l0.3,0.3c0,0,0,0,0,0c0,0,0,0,0,0L6.8,7C6.7,7.1,6.7,7.1,6.8,7C6.8,7,6.8,7,6.8,7L6.8,7z"/>
				<g class="st5">
					<path class="st6" d="M7.1,7.4L7.1,7.4L6.7,7.1c0,0,0,0,0,0l0,0L7.1,7.4C7.1,7.4,7.1,7.4,7.1,7.4L7.1,7.4L7.1,7.4z M6.8,7.1
						L6.8,7.1l0.3,0.4l0,0L6.8,7.1L6.8,7.1z"/>
				</g>
				<path class="st8" d="M7.1,7.1C7.1,7.1,7.1,7.1,7.1,7.1L7.1,7.1L7.1,7.1L7.1,7.1L7.1,7.1z"/>
				<path class="st8" d="M7.1,7.2C7.1,7.2,7.1,7.2,7.1,7.2L7.1,7.2L7.1,7.2L7.1,7.2L7.1,7.2z"/>
				<path class="st8" d="M6.9,7C6.9,7,6.9,7,6.9,7L6.9,7L6.9,7L6.9,7L6.9,7z"/>
				<path class="st4" d="M7.2,5.5L7.2,5.5L7.2,5.5L7.2,5.5L7.2,5.5l0.1,0v0h0v0h0v0.1c0,0,0,0,0,0L7.2,5.5C7.2,5.5,7.2,5.5,7.2,5.5
					L7.2,5.5L7.2,5.5z"/>
				<g class="st5">
					<path class="st6" d="M7.3,5.5H7.2l0,0V5.5l0,0l0,0L7.3,5.5L7.3,5.5L7.3,5.5L7.3,5.5L7.3,5.5L7.3,5.5L7.3,5.5L7.3,5.5L7.3,5.5
						L7.3,5.5z M7.2,5.5L7.2,5.5L7.2,5.5l0.1,0.1l0,0V5.5L7.2,5.5l0.1,0L7.2,5.5L7.2,5.5L7.2,5.5L7.2,5.5L7.2,5.5L7.2,5.5L7.2,5.5z"
						/>
				</g>
				<polygon class="st4" points="7.3,5.5 7.3,5.7 7.2,5.7 7.2,5.5 				"/>
				<g class="st5">
					<path class="st6" d="M7.3,5.7l-0.1,0l0-0.2l0.1,0L7.3,5.7L7.3,5.7z M7.3,5.5l-0.1,0l0,0.2l0.1,0L7.3,5.5L7.3,5.5z"/>
				</g>
				<path class="st4" d="M7.3,5.6L7.3,5.6L7.3,5.6L7.3,5.6L7.3,5.6L7.3,5.6L7.3,5.6l0.1,0v0h0v0.1c0,0,0,0,0,0L7.3,5.6
					C7.3,5.6,7.3,5.6,7.3,5.6L7.3,5.6L7.3,5.6z"/>
				<g class="st5">
					<path class="st6" d="M7.5,5.6H7.4l0,0V5.6l0,0l0,0L7.5,5.6L7.5,5.6L7.5,5.6L7.5,5.6L7.5,5.6L7.5,5.6L7.5,5.6L7.5,5.6L7.5,5.6
						L7.5,5.6z M7.4,5.6L7.4,5.6L7.4,5.6l0.1,0.1l0,0V5.6L7.4,5.6l0.1,0L7.4,5.6L7.4,5.6L7.4,5.6L7.4,5.6L7.4,5.6L7.4,5.6L7.4,5.6z"
						/>
				</g>
				<polygon class="st4" points="7.5,5.6 7.5,5.7 7.4,5.7 7.4,5.6 				"/>
				<g class="st5">
					<path class="st6" d="M7.5,5.7H7.4l0-0.1l0.1,0L7.5,5.7L7.5,5.7z M7.5,5.6l-0.1,0l0,0.1L7.5,5.6L7.5,5.6L7.5,5.6z"/>
				</g>
				<path class="st4" d="M7,5.6L7,5.6L7,5.6L7,5.6L7,5.6L7,5.6L7,5.6l0.1,0v0h0v0.1c0,0,0,0,0,0L7,5.6C7,5.6,7,5.6,7,5.6L7,5.6
					L7,5.6z"/>
				<g class="st5">
					<path class="st6" d="M7.2,5.6H7l0,0V5.6l0,0l0,0L7.2,5.6L7.2,5.6L7.2,5.6L7.2,5.6L7.2,5.6L7.2,5.6L7.2,5.6L7.2,5.6L7.2,5.6
						L7.2,5.6z M7.1,5.6L7.1,5.6L7.1,5.6l0.1,0.1l0,0V5.6L7.1,5.6l0.1,0L7.1,5.6L7.1,5.6L7.1,5.6L7.1,5.6L7.1,5.6L7.1,5.6L7.1,5.6z"
						/>
				</g>
				<polygon class="st4" points="7.2,5.6 7.2,5.7 7,5.7 7,5.6 				"/>
				<g class="st5">
					<path class="st6" d="M7,5.7l0-0.1l0.1,0l0,0.1L7,5.7L7,5.7z M7.2,5.6L7,5.6l0,0.1L7.2,5.6L7.2,5.6L7.2,5.6z"/>
				</g>
				<path class="st4" d="M7.1,6c0-0.2,0.1-0.2,0.1-0.2c0,0,0.1,0,0.1,0.2L7.1,6L7.1,6z"/>
				<path class="st4" d="M7,5.8L7,6l0.1,0c0-0.2,0.1-0.2,0.1-0.2c0,0,0.1,0,0.1,0.2h0.1l0-0.2L7,5.8L7,5.8z"/>
				<g class="st5">
					<path class="st6" d="M7.5,6H7.4c0-0.2-0.1-0.2-0.1-0.2c0,0-0.1,0-0.1,0.2L7,6l0-0.2l0.5,0L7.5,6L7.5,6z M7.2,5.8L7,5.8L7,6
						l0.1,0C7.1,5.9,7.2,5.8,7.2,5.8L7.2,5.8z M7.3,5.8c0,0,0.1,0.1,0.1,0.2l0.1,0l0-0.2L7.3,5.8L7.3,5.8z"/>
				</g>
				<path class="st4" d="M7,6h0.5c0,0,0,0,0,0c0,0,0,0,0,0L7,6C7,6.1,7,6,7,6C7,6,7,6,7,6L7,6z"/>
				<g class="st5">
					<path class="st6" d="M7.5,6.1H7c0,0,0,0,0,0c0,0,0,0,0,0L7.5,6.1C7.5,6,7.5,6,7.5,6.1C7.5,6.1,7.5,6.1,7.5,6.1L7.5,6.1z M7,6
						L7,6l0.5,0c0,0,0,0,0,0L7,6L7,6z"/>
				</g>
				<path class="st4" d="M7.2,6c0-0.1,0.1-0.1,0.1-0.1s0.1,0,0.1,0.1H7.2L7.2,6z"/>
				<g class="st5">
					<path class="st6" d="M7.3,6H7.2c0-0.1,0.1-0.1,0.1-0.1C7.3,5.9,7.3,5.9,7.3,6L7.3,6L7.3,6z M7.3,5.9c0,0-0.1,0-0.1,0.1l0.1,0
						C7.3,5.9,7.3,5.9,7.3,5.9L7.3,5.9z"/>
				</g>
				<path class="st4" d="M7,5.7h0.5c0,0,0,0,0,0s0,0,0,0L7,5.7C7,5.8,7,5.8,7,5.7C7,5.8,7,5.7,7,5.7L7,5.7z"/>
				<g class="st5">
					<path class="st6" d="M7.5,5.8H7c0,0,0,0,0,0c0,0,0,0,0,0L7.5,5.8C7.5,5.7,7.5,5.7,7.5,5.8C7.5,5.8,7.5,5.8,7.5,5.8L7.5,5.8z
						 M7,5.7L7,5.7l0.5,0c0,0,0,0,0,0L7,5.7L7,5.7z"/>
				</g>
				<path class="st4" d="M7,5.8h0.5c0,0,0,0,0,0c0,0,0,0,0,0L7,5.8C7,5.8,7,5.8,7,5.8C7,5.8,7,5.8,7,5.8L7,5.8z"/>
				<g class="st5">
					<path class="st6" d="M7.5,5.8H7c0,0,0,0,0,0c0,0,0,0,0,0L7.5,5.8C7.5,5.8,7.5,5.8,7.5,5.8C7.5,5.8,7.5,5.8,7.5,5.8L7.5,5.8z
						 M7,5.8L7,5.8l0.5,0c0,0,0,0,0,0L7,5.8L7,5.8z"/>
				</g>
				<path class="st8" d="M7.3,5.6C7.2,5.6,7.3,5.6,7.3,5.6L7.3,5.6L7.3,5.6L7.3,5.6L7.3,5.6z"/>
				<path class="st8" d="M7.4,5.7C7.4,5.7,7.4,5.7,7.4,5.7L7.4,5.7L7.4,5.7L7.4,5.7L7.4,5.7z"/>
				<path class="st8" d="M7.1,5.7C7.1,5.7,7.1,5.7,7.1,5.7L7.1,5.7L7.1,5.7L7.1,5.7L7.1,5.7z"/>
				<path class="st4" d="M4.6,7L4.6,7L4.6,7L4.6,7L4.6,7L4.6,7L4.6,7L4.7,7L4.6,7l0.1-0.1l0,0c0,0,0,0,0,0L4.6,7
					C4.7,7.1,4.6,7.1,4.6,7L4.6,7L4.6,7z"/>
				<g class="st5">
					<path class="st6" d="M4.6,7.1L4.6,7.1L4.6,7.1L4.6,7.1L4.6,7.1L4.6,7.1L4.6,7.1l0-0.1l0,0l0,0l0,0l0,0l0.1,0l0,0L4.6,7.1
						L4.6,7.1z M4.6,7L4.6,7L4.6,7L4.6,7l0.1,0L4.6,7L4.6,7L4.6,7L4.6,7L4.6,7L4.6,7L4.6,7L4.6,7L4.6,7L4.6,7z"/>
				</g>
				<polygon class="st4" points="4.7,7 4.9,7.1 4.8,7.2 4.7,7.1 				"/>
				<g class="st5">
					<path class="st6" d="M4.8,7.2L4.7,7.1L4.7,7l0.2,0.1L4.8,7.2L4.8,7.2z M4.7,7L4.7,7l0.1,0.2l0.1-0.1L4.7,7L4.7,7z"/>
				</g>
				<path class="st4" d="M4.8,7L4.8,7L4.8,7L4.8,7L4.8,7L4.8,7L4.8,7l0.1-0.1L4.8,7l0.1-0.1l0,0c0,0,0,0,0,0L4.8,7
					C4.8,7,4.8,7,4.8,7L4.8,7L4.8,7z"/>
				<g class="st5">
					<path class="st6" d="M4.8,7.1L4.8,7.1L4.8,7.1L4.8,7.1L4.8,7.1L4.8,7.1L4.8,7.1l0-0.1l0,0l0,0l0,0l0,0l0.1,0l0,0L4.8,7.1
						L4.8,7.1z M4.8,7L4.8,7L4.8,7L4.8,7l0.1,0L4.8,7L4.8,7L4.8,7L4.8,7L4.8,7L4.8,7L4.8,7L4.8,7L4.8,7L4.8,7z"/>
				</g>
				<polygon class="st4" points="4.9,7 5,7 4.9,7.1 4.8,7 				"/>
				<g class="st5">
					<path class="st6" d="M4.9,7.1L4.9,7.1l0-0.2L5,7L4.9,7.1L4.9,7.1z M4.9,7L4.9,7l0,0.1L4.9,7L4.9,7L4.9,7z"/>
				</g>
				<path class="st4" d="M4.5,7.2L4.5,7.2L4.5,7.2L4.5,7.2L4.5,7.2L4.5,7.2L4.5,7.2l0.1-0.1L4.5,7.2l0.1-0.1l0,0c0,0,0,0,0,0
					L4.5,7.2C4.6,7.3,4.6,7.3,4.5,7.2L4.5,7.2L4.5,7.2z"/>
				<g class="st5">
					<path class="st6" d="M4.6,7.3L4.6,7.3L4.6,7.3L4.6,7.3L4.6,7.3L4.6,7.3L4.6,7.3l0-0.1l0,0l0,0l0,0l0,0l0.1,0l0,0L4.6,7.3
						L4.6,7.3z M4.6,7.2L4.6,7.2L4.6,7.2L4.6,7.2l0.1,0L4.6,7.2L4.6,7.2L4.6,7.2L4.6,7.2L4.6,7.2L4.6,7.2L4.6,7.2L4.6,7.2L4.6,7.2
						L4.6,7.2z"/>
				</g>
				<polygon class="st4" points="4.7,7.2 4.8,7.3 4.7,7.3 4.6,7.3 				"/>
				<g class="st5">
					<path class="st6" d="M4.7,7.4L4.7,7.4l0-0.2l0.1,0.1L4.7,7.4L4.7,7.4z M4.7,7.2L4.7,7.2l0,0.1L4.7,7.2L4.7,7.2L4.7,7.2z"/>
				</g>
				<path class="st4" d="M5,7.5C4.8,7.3,4.9,7.2,4.9,7.2c0,0,0.1-0.1,0.2,0.1L5,7.5L5,7.5z"/>
				<path class="st4" d="M4.7,7.4l0.1,0.1l0.1-0.1c-0.1-0.1,0-0.2,0-0.2c0,0,0.1-0.1,0.2,0l0.1-0.1L5.1,7.1L4.7,7.4L4.7,7.4z"/>
				<g class="st5">
					<path class="st6" d="M4.9,7.6L4.7,7.4l0.3-0.3l0.2,0.1L5.1,7.3C5.1,7.3,5,7.2,5,7.2c0,0-0.1,0-0.1,0l0,0c0,0-0.1,0.1,0,0.2
						L4.9,7.6L4.9,7.6z M4.9,7.3L4.7,7.4l0.1,0.1l0.1-0.1C4.9,7.4,4.9,7.3,4.9,7.3C4.9,7.3,4.9,7.3,4.9,7.3L4.9,7.3z M5,7.2
						c0.1,0,0.1,0,0.1,0.1l0.1-0.1L5.1,7.1L5,7.2C4.9,7.2,5,7.2,5,7.2L5,7.2z"/>
				</g>
				<path class="st4" d="M4.9,7.6l0.4-0.4c0,0,0,0,0,0s0,0,0,0L4.9,7.6C4.9,7.6,4.9,7.6,4.9,7.6C4.9,7.6,4.8,7.6,4.9,7.6L4.9,7.6z"
					/>
				<g class="st5">
					<path class="st6" d="M4.9,7.6L4.9,7.6C4.8,7.6,4.8,7.6,4.9,7.6l0.3-0.4c0,0,0,0,0,0c0,0,0,0,0,0L4.9,7.6L4.9,7.6z M5.2,7.2
						L4.9,7.6l0,0l0,0l0,0L5.2,7.2L5.2,7.2L5.2,7.2L5.2,7.2z"/>
				</g>
				<path class="st4" d="M5,7.4c-0.1-0.1,0-0.1,0-0.1S5,7.3,5,7.4L5,7.4L5,7.4z"/>
				<g class="st5">
					<path class="st6" d="M5,7.4L5,7.4c-0.1-0.1-0.1-0.1,0-0.2c0,0,0.1,0,0.2,0L5,7.4L5,7.4z M4.9,7.3c0,0,0,0.1,0,0.1l0.1-0.1
						C5,7.3,4.9,7.3,4.9,7.3L4.9,7.3L4.9,7.3z"/>
				</g>
				<path class="st4" d="M4.7,7.4L5,7c0,0,0,0,0,0c0,0,0,0,0,0L4.7,7.4C4.7,7.4,4.7,7.4,4.7,7.4C4.7,7.4,4.7,7.4,4.7,7.4L4.7,7.4z"
					/>
				<g class="st5">
					<path class="st6" d="M4.7,7.4L4.7,7.4L4.7,7.4L5,7l0,0c0,0,0,0,0,0L4.7,7.4L4.7,7.4z M4.7,7.4L4.7,7.4L4.7,7.4L5,7l0,0l0,0
						L4.7,7.4L4.7,7.4L4.7,7.4L4.7,7.4z"/>
				</g>
				<path class="st4" d="M4.7,7.4L5,7c0,0,0,0,0,0c0,0,0,0,0,0L4.7,7.4C4.7,7.4,4.7,7.4,4.7,7.4C4.7,7.4,4.7,7.4,4.7,7.4L4.7,7.4z"
					/>
				<g class="st5">
					<path class="st6" d="M4.7,7.4L4.7,7.4C4.7,7.4,4.7,7.4,4.7,7.4L5,7l0,0c0,0,0,0,0,0L4.7,7.4L4.7,7.4z M4.7,7.4L4.7,7.4L4.7,7.4
						l0.3-0.3l0,0l0,0L4.7,7.4L4.7,7.4L4.7,7.4L4.7,7.4z"/>
				</g>
				<path class="st8" d="M4.7,7.1C4.7,7.1,4.7,7.1,4.7,7.1L4.7,7.1L4.7,7.1L4.7,7.1L4.7,7.1z"/>
				<path class="st8" d="M4.9,7C4.9,7,4.9,7,4.9,7L4.9,7L4.9,7L4.9,7L4.9,7z"/>
				<path class="st8" d="M4.7,7.3C4.7,7.2,4.7,7.2,4.7,7.3L4.7,7.3L4.7,7.3L4.7,7.3L4.7,7.3z"/>
			</g>
		</g>
	</g>
</g>
</svg>
