<?xml version="1.0" encoding="utf-8"?>
<!-- Generator: Adobe Illustrator 25.2.3, SVG Export Plug-In . SVG Version: 6.00 Build 0)  -->
<svg version="1.1" id="Layer_1" xmlns="http://www.w3.org/2000/svg" xmlns:xlink="http://www.w3.org/1999/xlink" x="0px" y="0px"
	 viewBox="0 0 77 75" style="enable-background:new 0 0 77 75;" xml:space="preserve">
<style type="text/css">
	.st0{fill:url(#SVGID_1_);}
	.st1{fill-rule:evenodd;clip-rule:evenodd;fill:url(#SVGID_2_);}
	.st2{fill:url(#SVGID_3_);}
	.st3{fill:url(#SVGID_4_);}
	.st4{fill:url(#SVGID_5_);}
	.st5{fill:url(#SVGID_6_);}
</style>
<g>
	
		<linearGradient id="SVGID_1_" gradientUnits="userSpaceOnUse" x1="420.4307" y1="-292.8769" x2="492.4164" y2="-292.8769" gradientTransform="matrix(1 0 0 -1 -296 -310)">
		<stop  offset="0" style="stop-color:#FFFFFF"/>
		<stop  offset="1" style="stop-color:#C6CBFF"/>
	</linearGradient>
	<path class="st0" d="M175.5-33.3c-5.3-4.4-12-6.6-19.1-6.1c-12.6,0.9-23,10.6-24.5,22.9c-2,16.4,11.8,30.4,28.4,29.2
		c13.6-1,24.6-13.3,24.6-26.7v-28l-1.6,1.6c-0.5,0.5-1.4,0.5-2,0l-2.3-2.3c-0.5-0.5-0.5-1.4,0-1.9l8.3-8.1c0.4-0.4,1-0.4,1.3,0
		l8.3,8.1c0.5,0.5,0.5,1.4,0,1.9l-2.3,2.3c-0.5,0.5-1.4,0.5-2,0L191-42v27.9c0,17.5-13.9,32.3-31.8,32.8
		c-19.4,0.5-35.2-15.6-33.5-34.9c1.4-15.7,14.7-28.3,30.8-29.1c8.5-0.4,16.6,2.3,22.9,7.6c1.3,1.1,1.4,3.2,0.1,4.4
		C178.4-32.3,176.7-32.3,175.5-33.3z"/>
	
		<linearGradient id="SVGID_2_" gradientUnits="userSpaceOnUse" x1="453.6593" y1="-318.7572" x2="453.6593" y2="-275.872" gradientTransform="matrix(1 0 0 -1 -296 -310)">
		<stop  offset="0" style="stop-color:#FFFFFF"/>
		<stop  offset="1" style="stop-color:#C6CBFF"/>
	</linearGradient>
	<path class="st1" d="M157.7,8C169.5,8,179-1.5,179-13.3c0-11.8-9.6-21.3-21.3-21.3c-11.8,0-21.3,9.6-21.3,21.3
		C136.3-1.5,145.9,8,157.7,8z M159,3v-3.1c2.3-0.3,4-1.1,5.3-2.4c1.3-1.2,2-2.8,2-4.7c0-1.5-0.5-2.9-1.6-4c-1.1-1.1-3-2.2-5.7-3.2
		v-8.1c1.8,0.4,3,1.4,3.5,2.9l3.3-1.3c-0.4-1.2-1.2-2.3-2.4-3.1c-1.2-0.9-2.6-1.5-4.3-1.7V-29h-3v3.1c-2.2,0.2-3.9,0.9-5.3,2.2
		c-1.4,1.2-2,2.7-2,4.4c0,1.6,0.6,2.9,1.7,4.1c1.1,1.2,3,2.2,5.6,3.2v8.7c-1.2-0.2-2.3-0.8-3.2-1.6c-0.9-0.8-1.5-1.8-1.8-3l-3.3,1.2
		c0.5,1.8,1.5,3.3,3,4.5c1.5,1.2,3.3,1.9,5.3,2.1V3H159z M156-15.5c-2.4-1.1-3.7-2.3-3.7-3.8c0-0.8,0.3-1.6,1-2.2
		c0.7-0.6,1.6-1,2.7-1.2V-15.5z M159-10.9c2.4,1,3.7,2.3,3.7,3.8c0,2-1.2,3.2-3.7,3.7V-10.9z"/>
</g>
<g>
	
		<linearGradient id="SVGID_3_" gradientUnits="userSpaceOnUse" x1="334.5" y1="-356.5421" x2="334.5" y2="-328.6104" gradientTransform="matrix(1 0 0 -1 -296 -310)">
		<stop  offset="0" style="stop-color:#3721A7"/>
		<stop  offset="1" style="stop-color:#803EFF"/>
	</linearGradient>
	<path class="st2" d="M6.3,19.8v18.6c0,0.7,0.5,1.3,1.2,1.5L38.2,46c0.2,0,0.4,0,0.6,0l30.7-6.2c0.7-0.1,1.2-0.8,1.2-1.5V19.8
		c0-0.8-0.7-1.5-1.5-1.5H7.8C7,18.3,6.3,18.9,6.3,19.8z"/>
	
		<linearGradient id="SVGID_4_" gradientUnits="userSpaceOnUse" x1="334.4997" y1="-376.8791" x2="334.4997" y2="-352.2324" gradientTransform="matrix(1 0 0 -1 -296 -310)">
		<stop  offset="0" style="stop-color:#3721A7"/>
		<stop  offset="1" style="stop-color:#803EFF"/>
	</linearGradient>
	<path class="st3" d="M69.2,41.9V64c0,1.3-1.1,2.4-2.4,2.4H10.3c-1.3,0-2.4-1.1-2.4-2.4V41.9l30,6c0.2,0,0.5,0.1,0.7,0.1
		c0.2,0,0.5,0,0.7-0.1L69.2,41.9z"/>
	
		<linearGradient id="SVGID_5_" gradientUnits="userSpaceOnUse" x1="334.5018" y1="-359.4087" x2="334.5018" y2="-352.8754" gradientTransform="matrix(1 0 0 -1 -296 -310)">
		<stop  offset="0" style="stop-color:#3721A7"/>
		<stop  offset="1" style="stop-color:#803EFF"/>
	</linearGradient>
	<path class="st4" d="M41.2,49.3h-5.3c-0.8,0-1.5-0.7-1.5-1.5v-3.4c0-0.8,0.7-1.5,1.5-1.5h5.3c0.8,0,1.5,0.7,1.5,1.5v3.4
		C42.7,48.6,42,49.3,41.2,49.3z"/>
	
		<linearGradient id="SVGID_6_" gradientUnits="userSpaceOnUse" x1="334.5037" y1="-328.2511" x2="334.5037" y2="-318.653" gradientTransform="matrix(1 0 0 -1 -296 -310)">
		<stop  offset="0" style="stop-color:#3721A7"/>
		<stop  offset="1" style="stop-color:#803EFF"/>
	</linearGradient>
	<path class="st5" d="M49.6,18.1H47v-4.4c0-1.4-1.1-2.5-2.5-2.5H32.6c-1.4,0-2.5,1.1-2.5,2.5v4.4h-2.6v-4.4c0-2.8,2.3-5.1,5.1-5.1
		h11.9c2.8,0,5.1,2.3,5.1,5.1V18.1z"/>
</g>
</svg>
