<?xml version="1.0" encoding="utf-8"?>
<!-- Generator: Adobe Illustrator 25.2.3, SVG Export Plug-In . SVG Version: 6.00 Build 0)  -->
<svg version="1.1" id="Layer_1" xmlns="http://www.w3.org/2000/svg" xmlns:xlink="http://www.w3.org/1999/xlink" x="0px" y="0px"
	 viewBox="0 0 77 75" style="enable-background:new 0 0 77 75;" xml:space="preserve">
<style type="text/css">
	.st0{fill:url(#SVGID_1_);}
	.st1{fill-rule:evenodd;clip-rule:evenodd;fill:url(#SVGID_2_);}
</style>
<g>
	
		<linearGradient id="SVGID_1_" gradientUnits="userSpaceOnUse" x1="297.4572" y1="-347.5" x2="369.443" y2="-347.5" gradientTransform="matrix(1 0 0 -1 -296 -310)">
		<stop  offset="0" style="stop-color:#FFFFFF"/>
		<stop  offset="1" style="stop-color:#C6CBFF"/>
	</linearGradient>
	<path class="st0" d="M52.5,21.3c-5.3-4.4-12-6.6-19.1-6.1c-12.6,0.9-23,10.6-24.5,22.9c-2,16.4,11.8,30.4,28.4,29.2
		C50.9,66.3,62,54,62,40.6v-28l-1.6,1.6c-0.5,0.5-1.4,0.5-2,0L56.1,12c-0.5-0.5-0.5-1.4,0-1.9l8.3-8.1c0.4-0.4,1-0.4,1.3,0l8.3,8.1
		c0.5,0.5,0.5,1.4,0,1.9l-2.3,2.3c-0.5,0.5-1.4,0.5-2,0L68,12.7v27.9C68,58,54.1,72.8,36.3,73.3C16.9,73.9,1.1,57.7,2.8,38.4
		C4.2,22.7,17.5,10.1,33.5,9.3c8.5-0.4,16.6,2.3,22.9,7.6c1.3,1.1,1.4,3.2,0.1,4.4C55.4,22.3,53.7,22.3,52.5,21.3z"/>
	
		<linearGradient id="SVGID_2_" gradientUnits="userSpaceOnUse" x1="330.6859" y1="-373.3803" x2="330.6859" y2="-330.4951" gradientTransform="matrix(1 0 0 -1 -296 -310)">
		<stop  offset="0" style="stop-color:#FFFFFF"/>
		<stop  offset="1" style="stop-color:#C6CBFF"/>
	</linearGradient>
	<path class="st1" d="M34.7,62.7c11.8,0,21.3-9.6,21.3-21.3C56,29.5,46.5,20,34.7,20s-21.3,9.6-21.3,21.3
		C13.3,53.1,22.9,62.7,34.7,62.7z M36,57.6v-3.1c2.3-0.3,4-1.1,5.3-2.4c1.3-1.2,2-2.8,2-4.7c0-1.5-0.5-2.9-1.6-4
		c-1.1-1.1-3-2.2-5.7-3.2v-8.1c1.8,0.4,3,1.4,3.5,2.9l3.3-1.3c-0.4-1.2-1.2-2.3-2.4-3.1c-1.2-0.9-2.6-1.5-4.3-1.7v-3.2h-3v3.1
		c-2.2,0.2-3.9,0.9-5.3,2.2c-1.4,1.2-2,2.7-2,4.4c0,1.6,0.6,2.9,1.7,4.1c1.1,1.2,3,2.2,5.6,3.2v8.7c-1.2-0.2-2.3-0.8-3.2-1.6
		c-0.9-0.8-1.5-1.8-1.8-3l-3.3,1.2c0.5,1.8,1.5,3.3,3,4.5c1.5,1.2,3.3,1.9,5.3,2.1v3.1H36z M33,39.1c-2.4-1.1-3.7-2.3-3.7-3.8
		c0-0.8,0.3-1.6,1-2.2c0.7-0.6,1.6-1,2.7-1.2V39.1z M36,43.7c2.4,1,3.7,2.3,3.7,3.8c0,2-1.2,3.2-3.7,3.7V43.7z"/>
</g>
</svg>
