<?xml version="1.0" encoding="utf-8"?>
<!-- Generator: Adobe Illustrator 25.2.0, SVG Export Plug-In . SVG Version: 6.00 Build 0)  -->
<svg version="1.1" id="Layer_1" xmlns="http://www.w3.org/2000/svg" xmlns:xlink="http://www.w3.org/1999/xlink" x="0px" y="0px"
	 viewBox="0 0 50 50" style="enable-background:new 0 0 50 50;" xml:space="preserve">
<style type="text/css">
	.st0{fill:url(#SVGID_1_);}
	.st1{fill:url(#SVGID_2_);}
	.st2{fill:url(#SVGID_3_);fill-opacity:0.5;}
	.st3{fill:url(#SVGID_4_);fill-opacity:0.5;}
	.st4{fill:url(#SVGID_5_);fill-opacity:0.5;}
	.st5{fill:url(#SVGID_6_);}
	.st6{fill:none;stroke:url(#SVGID_7_);}
	.st7{fill:url(#SVGID_8_);}
	.st8{fill:url(#SVGID_9_);}
</style>
<g>
	
		<linearGradient id="SVGID_1_" gradientUnits="userSpaceOnUse" x1="302.3226" y1="-322.7274" x2="302.3226" y2="-352.7814" gradientTransform="matrix(1 0 0 -1 -281 -319)">
		<stop  offset="0" style="stop-color:#DBDFFF"/>
		<stop  offset="1" style="stop-color:#7583FF"/>
	</linearGradient>
	<path class="st0" d="M39.3,35.8H3.4c-1.5,0-2.8-1.3-2.8-2.8V9.1c0-1.5,1.2-2.8,2.8-2.8h35.9c1.5,0,2.8,1.3,2.8,2.8V33
		C42.1,34.6,40.8,35.8,39.3,35.8z"/>
	<g>
		
			<linearGradient id="SVGID_2_" gradientUnits="userSpaceOnUse" x1="302.0634" y1="-348.8614" x2="302.5514" y2="-331.254" gradientTransform="matrix(1 0 0 -1 -281 -319)">
			<stop  offset="0" style="stop-color:#ECECFF"/>
			<stop  offset="0.9375" style="stop-color:#FFFFFF"/>
		</linearGradient>
		<path class="st1" d="M33.4,29.7H9.2c0-1.7-1.4-3.2-3.1-3.2V14.5c1.7,0,3.1-1.4,3.1-3.2h24.2c0,1.7,1.4,3.2,3.1,3.2v12.1
			C34.8,26.6,33.4,28,33.4,29.7z"/>
	</g>
	
		<linearGradient id="SVGID_3_" gradientUnits="userSpaceOnUse" x1="303.0163" y1="-334.413" x2="303.0163" y2="-335.5172" gradientTransform="matrix(1 0 0 -1 -281 -319)">
		<stop  offset="0" style="stop-color:#DBDFFF"/>
		<stop  offset="1" style="stop-color:#7583FF"/>
	</linearGradient>
	<path class="st2" d="M13.1,15.5H31c0.3,0,0.5,0.2,0.5,0.5v0c0,0.3-0.2,0.5-0.5,0.5H13.1c-0.3,0-0.5-0.2-0.5-0.5v0
		C12.5,15.7,12.8,15.5,13.1,15.5z"/>
	
		<linearGradient id="SVGID_4_" gradientUnits="userSpaceOnUse" x1="303.0163" y1="-338.7527" x2="303.0163" y2="-339.8571" gradientTransform="matrix(1 0 0 -1 -281 -319)">
		<stop  offset="0" style="stop-color:#DBDFFF"/>
		<stop  offset="1" style="stop-color:#7583FF"/>
	</linearGradient>
	<path class="st3" d="M13.1,19.8H31c0.3,0,0.5,0.2,0.5,0.5v0c0,0.3-0.2,0.5-0.5,0.5H13.1c-0.3,0-0.5-0.2-0.5-0.5v0
		C12.5,20.1,12.8,19.8,13.1,19.8z"/>
	
		<linearGradient id="SVGID_5_" gradientUnits="userSpaceOnUse" x1="303.0163" y1="-343.0923" x2="303.0163" y2="-344.1966" gradientTransform="matrix(1 0 0 -1 -281 -319)">
		<stop  offset="0" style="stop-color:#DBDFFF"/>
		<stop  offset="1" style="stop-color:#7583FF"/>
	</linearGradient>
	<path class="st4" d="M13.1,24.2H31c0.3,0,0.5,0.2,0.5,0.5v0c0,0.3-0.2,0.5-0.5,0.5H13.1c-0.3,0-0.5-0.2-0.5-0.5v0
		C12.5,24.4,12.8,24.2,13.1,24.2z"/>
	<g>
		
			<linearGradient id="SVGID_6_" gradientUnits="userSpaceOnUse" x1="318.8364" y1="-362.7148" x2="318.8364" y2="-340.1029" gradientTransform="matrix(1 0 0 -1 -281 -319)">
			<stop  offset="0" style="stop-color:#4502C6"/>
			<stop  offset="1" style="stop-color:#803EFF"/>
		</linearGradient>
		<path class="st5" d="M37.8,43.7c6.4,0,11.6-5.2,11.6-11.7c0-6.4-5.2-11.7-11.6-11.7c-6.4,0-11.6,5.2-11.6,11.7
			C26.3,38.5,31.4,43.7,37.8,43.7z"/>
	</g>
	
		<linearGradient id="SVGID_7_" gradientUnits="userSpaceOnUse" x1="318.748" y1="-340.519" x2="318.748" y2="-360.8192" gradientTransform="matrix(1 0 0 -1 -281 -319)">
		<stop  offset="0" style="stop-color:#954CE2;stop-opacity:0"/>
		<stop  offset="0.1824" style="stop-color:#A257DF;stop-opacity:0.1824"/>
		<stop  offset="0.5201" style="stop-color:#C473D8;stop-opacity:0.5201"/>
		<stop  offset="0.973" style="stop-color:#FBA1CC;stop-opacity:0.973"/>
		<stop  offset="1" style="stop-color:#FFA4CB"/>
	</linearGradient>
	<path class="st6" d="M47.4,32.1c0,5.4-4.3,9.7-9.7,9.7c-5.4,0-9.7-4.3-9.7-9.7c0-5.4,4.3-9.7,9.7-9.7
		C43.1,22.4,47.4,26.7,47.4,32.1z"/>
	
		<linearGradient id="SVGID_8_" gradientUnits="userSpaceOnUse" x1="318.8332" y1="-345.3842" x2="318.8332" y2="-357.034" gradientTransform="matrix(1 0 0 -1 -281 -319)">
		<stop  offset="0" style="stop-color:#FDFDFF"/>
		<stop  offset="1" style="stop-color:#C6CCFF"/>
	</linearGradient>
	<path class="st7" d="M36.5,38.1c-0.4,0-0.8-0.2-1.1-0.5l-4.2-4.5c-0.6-0.6-0.5-1.5,0.1-2.1c0.6-0.6,1.5-0.5,2.1,0.1l3.1,3.3
		l5.7-6.4c0.6-0.6,1.5-0.7,2.1-0.1c0.6,0.6,0.7,1.5,0.1,2.1l-6.8,7.6C37.3,37.9,36.9,38.1,36.5,38.1C36.5,38.1,36.5,38.1,36.5,38.1z
		"/>
	
		<linearGradient id="SVGID_9_" gradientUnits="userSpaceOnUse" x1="302.3226" y1="-328.7562" x2="302.3226" y2="-325.2852" gradientTransform="matrix(1 0 0 -1 -281 -319)">
		<stop  offset="0" style="stop-color:#EBEDFF;stop-opacity:0"/>
		<stop  offset="1" style="stop-color:#FFFFFF"/>
	</linearGradient>
	<path class="st8" d="M42.1,9.1v0.7c0-1.5-1.2-2.8-2.8-2.8H3.4C1.8,7,0.6,8.2,0.6,9.8V9.1c0-1.5,1.2-2.8,2.8-2.8h35.9
		C40.8,6.3,42.1,7.5,42.1,9.1z"/>
</g>
</svg>
