<?xml version="1.0" encoding="utf-8"?>
<!-- Generator: Adobe Illustrator 25.2.0, SVG Export Plug-In . SVG Version: 6.00 Build 0)  -->
<svg version="1.1" id="Layer_1" xmlns="http://www.w3.org/2000/svg" xmlns:xlink="http://www.w3.org/1999/xlink" x="0px" y="0px"
	 viewBox="0 0 50 50" style="enable-background:new 0 0 50 50;" xml:space="preserve">
<style type="text/css">
	.st0{fill:url(#SVGID_1_);}
	.st1{fill:url(#SVGID_2_);}
	.st2{fill:url(#SVGID_3_);}
	.st3{fill:url(#SVGID_4_);}
	.st4{fill:none;stroke:url(#SVGID_5_);}
	.st5{fill:url(#SVGID_6_);}
	.st6{fill:url(#SVGID_7_);}
	.st7{fill:url(#SVGID_8_);}
</style>
<g>
	
		<linearGradient id="SVGID_1_" gradientUnits="userSpaceOnUse" x1="306" y1="-315.1935" x2="306" y2="-365.1756" gradientTransform="matrix(1 0 0 -1 -281 -319)">
		<stop  offset="0" style="stop-color:#DBDFFF"/>
		<stop  offset="1" style="stop-color:#7583FF"/>
	</linearGradient>
	<path class="st0" d="M44.6,8.6L25,0.4L4.4,9v10.7c0,13,7.8,24.7,19.9,29.6c0.3,0.1,0.8,0.2,0.8,0.2s0.4-0.1,0.6-0.2
		c12-4.9,19.9-16.6,19.9-29.6V9L44.6,8.6z"/>
	<g>
		
			<linearGradient id="SVGID_2_" gradientUnits="userSpaceOnUse" x1="304.3279" y1="-364.7346" x2="306.5103" y2="-325.6982" gradientTransform="matrix(1 0 0 -1 -281 -319)">
			<stop  offset="0" style="stop-color:#ECECFF"/>
			<stop  offset="0.9375" style="stop-color:#FFFFFF"/>
		</linearGradient>
		<path class="st1" d="M41.8,19.7c0,11.1-6.5,21.2-16.8,25.8c-10-4.4-16.8-14.4-16.8-25.8v-8.2l16.8-7l16.8,7V19.7z"/>
	</g>
	<g>
		
			<linearGradient id="SVGID_3_" gradientUnits="userSpaceOnUse" x1="305.9882" y1="-362.1251" x2="305.9882" y2="-327.032" gradientTransform="matrix(1 0 0 -1 -281 -319)">
			<stop  offset="0" style="stop-color:#4502C6"/>
			<stop  offset="1" style="stop-color:#803EFF"/>
		</linearGradient>
		<path class="st2" d="M39.8,20.3c0,9.8-5.7,18.8-14.8,22.8c-8.9-3.9-14.8-12.8-14.8-22.8v-7.2L25,6.9l14.8,6.2V20.3z"/>
	</g>
	
		<linearGradient id="SVGID_4_" gradientUnits="userSpaceOnUse" x1="306" y1="-322.6383" x2="306" y2="-328.1571" gradientTransform="matrix(1 0 0 -1 -281 -319)">
		<stop  offset="0" style="stop-color:#FFFFFF"/>
		<stop  offset="1" style="stop-color:#EBEDFF;stop-opacity:0"/>
	</linearGradient>
	<path class="st3" d="M44.6,8.6L25,0.4L4.4,9v1L25,1.5l19.6,8.1l1,0.4V9L44.6,8.6z"/>
	
		<linearGradient id="SVGID_5_" gradientUnits="userSpaceOnUse" x1="306" y1="-360.1209" x2="306" y2="-327.6399" gradientTransform="matrix(1 0 0 -1 -281 -319)">
		<stop  offset="0" style="stop-color:#A85CDE;stop-opacity:0.1795"/>
		<stop  offset="1" style="stop-color:#FBA1CC;stop-opacity:0.973"/>
	</linearGradient>
	<path class="st4" d="M37.6,20.7c0,8.4-4.9,16.2-12.6,19.7C17.5,37,12.4,29.4,12.4,20.7v-6.1L25,9.3l12.6,5.3V20.7z"/>
	
		<linearGradient id="SVGID_6_" gradientUnits="userSpaceOnUse" x1="313.4438" y1="-316.9515" x2="313.4438" y2="-342.8047" gradientTransform="matrix(1 0 0 -1 -281 -319)">
		<stop  offset="0" style="stop-color:#A2ACFF"/>
		<stop  offset="1" style="stop-color:#7583FF;stop-opacity:0"/>
	</linearGradient>
	<path class="st5" d="M39.4,25c0.3-1.5,0.4-3.1,0.4-4.7v-7.2L25,7v18H39.4z"/>
	
		<linearGradient id="SVGID_7_" gradientUnits="userSpaceOnUse" x1="298.8163" y1="-364.5424" x2="298.8163" y2="-344.8156" gradientTransform="matrix(1 0 0 -1 -281 -319)">
		<stop  offset="0" style="stop-color:#A2ACFF"/>
		<stop  offset="1" style="stop-color:#7583FF;stop-opacity:0"/>
	</linearGradient>
	<path class="st6" d="M10.6,25c1.5,8,6.9,14.8,14.4,18.1c0,0,0,0,0,0V25H10.6z"/>
	
		<linearGradient id="SVGID_8_" gradientUnits="userSpaceOnUse" x1="307.1978" y1="-335.202" x2="303.7636" y2="-350.0831" gradientTransform="matrix(1 0 0 -1 -281 -319)">
		<stop  offset="0" style="stop-color:#FDFDFF"/>
		<stop  offset="1" style="stop-color:#C6CCFF"/>
	</linearGradient>
	<path class="st7" d="M33.8,18c-0.8-0.8-2-0.8-2.7,0l-8.2,8.2l-4-4c-0.7-0.8-2-0.7-2.7,0c-0.7,0.8-0.7,2,0,2.7l5.3,5.3
		c0.8,0.8,2,0.8,2.7,0l9.5-9.5C34.5,19.9,34.5,18.7,33.8,18z"/>
</g>
</svg>
