<?xml version="1.0" encoding="utf-8"?>
<!-- Generator: Adobe Illustrator 25.2.0, SVG Export Plug-In . SVG Version: 6.00 Build 0)  -->
<svg version="1.1" id="Layer_1" xmlns="http://www.w3.org/2000/svg" xmlns:xlink="http://www.w3.org/1999/xlink" x="0px" y="0px"
	 viewBox="0 0 50 50" style="enable-background:new 0 0 50 50;" xml:space="preserve">
<style type="text/css">
	.st0{fill:url(#SVGID_1_);}
	.st1{fill:url(#SVGID_2_);}
	.st2{fill:url(#SVGID_3_);}
	.st3{fill:url(#SVGID_4_);}
	.st4{fill:url(#SVGID_5_);}
	.st5{fill:url(#SVGID_6_);}
	.st6{fill:url(#SVGID_7_);}
	.st7{fill:url(#SVGID_8_);}
	.st8{fill:url(#SVGID_9_);}
	.st9{fill:url(#SVGID_10_);}
</style>
<g>
	
		<linearGradient id="SVGID_1_" gradientUnits="userSpaceOnUse" x1="305.6026" y1="-349.3732" x2="306.2943" y2="-367.3562" gradientTransform="matrix(1 0 0 -1 -281 -319)">
		<stop  offset="0" style="stop-color:#4502C6"/>
		<stop  offset="1" style="stop-color:#803EFF"/>
	</linearGradient>
	<path class="st0" d="M34.1,30.5v18.9L30.4,47l-0.4-0.3l-5-3.4l-9.1,6.2V30.5H34.1z"/>
	
		<linearGradient id="SVGID_2_" gradientUnits="userSpaceOnUse" x1="311.1326" y1="-350.0321" x2="311.1326" y2="-365.6371" gradientTransform="matrix(1 0 0 -1 -281 -319)">
		<stop  offset="0" style="stop-color:#954CE2;stop-opacity:0"/>
		<stop  offset="0.1824" style="stop-color:#A257DF;stop-opacity:0.1824"/>
		<stop  offset="0.5201" style="stop-color:#C473D8;stop-opacity:0.5201"/>
		<stop  offset="0.973" style="stop-color:#FBA1CC;stop-opacity:0.973"/>
		<stop  offset="1" style="stop-color:#FFA4CB"/>
	</linearGradient>
	<path class="st1" d="M30.4,31.3V47l-0.4-0.3V31.3H30.4z"/>
	
		<linearGradient id="SVGID_3_" gradientUnits="userSpaceOnUse" x1="313.1194" y1="-351.3638" x2="313.1194" y2="-366.9689" gradientTransform="matrix(1 0 0 -1 -281 -319)">
		<stop  offset="0" style="stop-color:#954CE2;stop-opacity:0"/>
		<stop  offset="0.1824" style="stop-color:#A257DF;stop-opacity:0.1824"/>
		<stop  offset="0.5201" style="stop-color:#C473D8;stop-opacity:0.5201"/>
		<stop  offset="0.973" style="stop-color:#FBA1CC;stop-opacity:0.973"/>
		<stop  offset="1" style="stop-color:#FFA4CB"/>
	</linearGradient>
	<path class="st2" d="M32.3,32.6v15.7L31.9,48V32.6H32.3z"/>
	
		<linearGradient id="SVGID_4_" gradientUnits="userSpaceOnUse" x1="300.7568" y1="-350.0321" x2="300.7568" y2="-365.6371" gradientTransform="matrix(1 0 0 -1 -281 -319)">
		<stop  offset="0" style="stop-color:#954CE2;stop-opacity:0"/>
		<stop  offset="0.1824" style="stop-color:#A257DF;stop-opacity:0.1824"/>
		<stop  offset="0.5201" style="stop-color:#C473D8;stop-opacity:0.5201"/>
		<stop  offset="0.973" style="stop-color:#FBA1CC;stop-opacity:0.973"/>
		<stop  offset="1" style="stop-color:#FFA4CB"/>
	</linearGradient>
	<path class="st3" d="M19.5,31.3V47l0.4-0.3V31.3H19.5z"/>
	
		<linearGradient id="SVGID_5_" gradientUnits="userSpaceOnUse" x1="298.825" y1="-351.3638" x2="298.825" y2="-366.9689" gradientTransform="matrix(1 0 0 -1 -281 -319)">
		<stop  offset="0" style="stop-color:#954CE2;stop-opacity:0"/>
		<stop  offset="0.1824" style="stop-color:#A257DF;stop-opacity:0.1824"/>
		<stop  offset="0.5201" style="stop-color:#C473D8;stop-opacity:0.5201"/>
		<stop  offset="0.973" style="stop-color:#FBA1CC;stop-opacity:0.973"/>
		<stop  offset="1" style="stop-color:#FFA4CB"/>
	</linearGradient>
	<path class="st4" d="M17.6,32.6v15.7L18,48V32.6H17.6z"/>
	
		<linearGradient id="SVGID_6_" gradientUnits="userSpaceOnUse" x1="306" y1="-316.2953" x2="306" y2="-354.5409" gradientTransform="matrix(1 0 0 -1 -281 -319)">
		<stop  offset="0" style="stop-color:#DBDFFF"/>
		<stop  offset="1" style="stop-color:#7583FF"/>
	</linearGradient>
	<path class="st5" d="M26.9,1.5l2.2,3.1c0.6,0.8,1.5,1.2,2.5,0.9l3.7-1c1.5-0.4,3.1,0.8,2.9,2.4l-0.4,3.8c-0.1,1,0.4,1.9,1.3,2.3
		l3.5,1.6c1.5,0.7,1.8,2.6,0.7,3.8l-2.8,2.7c-0.7,0.7-0.9,1.8-0.4,2.6l1.7,3.5c0.7,1.4-0.3,3.1-1.9,3.3l-3.8,0.3
		c-1,0.1-1.8,0.8-2,1.7l-1,3.8c-0.4,1.5-2.3,2.3-3.6,1.3l-3.1-2.2c-0.8-0.6-1.9-0.6-2.7,0l-3.1,2.2c-1.3,0.9-3.1,0.3-3.6-1.3
		l-0.9-3.7c-0.2-0.9-1-1.7-2-1.7l-3.8-0.3c-1.6-0.1-2.6-1.8-1.9-3.3l1.7-3.5c0.4-0.9,0.2-1.9-0.4-2.6l-2.8-2.7
		c-1.2-1.2-0.8-3.1,0.7-3.8l3.5-1.6c0.9-0.4,1.4-1.3,1.3-2.3l-0.4-3.8c-0.2-1.6,1.4-2.9,2.9-2.4l3.7,1c0.9,0.3,2-0.1,2.5-0.9
		l2.2-3.2C24.1,0.2,26,0.2,26.9,1.5z"/>
	
		<linearGradient id="SVGID_7_" gradientUnits="userSpaceOnUse" x1="305.9519" y1="-346.9882" x2="305.9519" y2="-356.1772" gradientTransform="matrix(1 0 0 -1 -281 -319)">
		<stop  offset="0" style="stop-color:#FFFFFF;stop-opacity:0"/>
		<stop  offset="1" style="stop-color:#4651C8"/>
	</linearGradient>
	<path class="st6" d="M39.9,30.6l-3.8,0.3c-1,0.1-1.8,0.8-2,1.7l-1,3.8c-0.4,1.5-2.3,2.3-3.6,1.3l-3.1-2.2c-0.8-0.6-1.9-0.6-2.7,0
		l-3.1,2.2c-1.3,0.9-3.1,0.3-3.6-1.3l-0.9-3.8c-0.2-0.9-1-1.7-2-1.7L10,30.6c-1.4-0.1-2.3-1.3-2.1-2.6c0.1,1,0.9,1.9,2.1,2l3.9,0.3
		c1,0.1,1.8,0.8,2,1.7l0.9,3.8c0.4,1.5,2.3,2.3,3.6,1.3l3.1-2.2c0.8-0.6,1.9-0.6,2.7,0l3.1,2.2c1.3,0.9,3.1,0.3,3.6-1.3l0.9-3.8
		c0.2-0.9,1-1.7,2-1.7l3.8-0.3c1.2-0.1,2-1,2.1-2C42.2,29.3,41.3,30.5,39.9,30.6z"/>
	
		<linearGradient id="SVGID_8_" gradientUnits="userSpaceOnUse" x1="306.0276" y1="-319.7968" x2="306.0276" y2="-326.8967" gradientTransform="matrix(1 0 0 -1 -281 -319)">
		<stop  offset="0" style="stop-color:#FFFFFF"/>
		<stop  offset="1" style="stop-color:#EBEDFF;stop-opacity:0"/>
	</linearGradient>
	<path class="st7" d="M38.2,7.2c-0.2-1.3-1.5-2.3-2.9-1.9l-3.7,1c-0.9,0.3-2-0.1-2.5-0.9l-2.2-3.1c-0.9-1.3-2.9-1.3-3.8,0L21,5.4
		c-0.6,0.8-1.5,1.2-2.5,0.9l-3.7-1c-1.4-0.4-2.7,0.6-2.9,1.9V7.1c-0.2-1.6,1.4-2.9,2.9-2.4l3.7,1C19.4,6,20.4,5.6,21,4.7l2.2-3.2
		c0.9-1.3,2.9-1.3,3.8,0l2.2,3.1c0.6,0.8,1.6,1.2,2.5,0.9l3.7-1c1.5-0.4,3.1,0.8,2.9,2.4V7.2z"/>
	<g>
		
			<linearGradient id="SVGID_9_" gradientUnits="userSpaceOnUse" x1="305.4422" y1="-346.5922" x2="306.1339" y2="-331.03" gradientTransform="matrix(1 0 0 -1 -281 -319)">
			<stop  offset="0" style="stop-color:#ECECFF"/>
			<stop  offset="0.9375" style="stop-color:#FFFFFF"/>
		</linearGradient>
		<path class="st8" d="M25.3,11.5l2.4,4.3c0.1,0.1,0.2,0.2,0.3,0.3l4.9,0.9c0.4,0.1,0.6,0.6,0.3,0.9l-3.4,3.6
			c-0.1,0.1-0.2,0.3-0.1,0.4l0.6,4.9c0.1,0.4-0.4,0.7-0.7,0.6l-4.5-2.1c-0.2-0.1-0.3-0.1-0.4,0l-4.5,2.1c-0.4,0.2-0.8-0.1-0.7-0.6
			l0.6-4.9c0-0.2-0.1-0.3-0.1-0.4l-3.4-3.6c-0.3-0.3-0.1-0.8,0.3-0.9l4.9-0.9c0.2-0.1,0.3-0.1,0.3-0.3l2.4-4.3
			C24.6,11.1,25.1,11.1,25.3,11.5z"/>
	</g>
	<g>
		
			<radialGradient id="SVGID_10_" cx="24.8402" cy="17.8983" r="21.4424" gradientTransform="matrix(0.6917 0 0 0.6917 7.7086 7.7086)" gradientUnits="userSpaceOnUse">
			<stop  offset="0.8229" style="stop-color:#C6CCFF"/>
			<stop  offset="0.9153" style="stop-color:#FDFDFF"/>
			<stop  offset="1" style="stop-color:#FFFFFF"/>
		</radialGradient>
		<path class="st9" d="M24.9,5.2C16.7,5.2,10,11.9,10,20.1c0,8.2,6.6,14.8,14.8,14.8c8.2,0,14.8-6.6,14.8-14.8
			C39.7,11.9,33.1,5.2,24.9,5.2z M24.9,31.8c-6.5,0-11.7-5.2-11.7-11.7c0-6.5,5.2-11.7,11.7-11.7c6.5,0,11.7,5.2,11.7,11.7
			C36.6,26.5,31.3,31.8,24.9,31.8z"/>
	</g>
</g>
</svg>
