<svg width="78" height="79" viewBox="0 0 78 79" fill="none" xmlns="http://www.w3.org/2000/svg">
<g filter="url(#filter0_d)">
<path d="M66.0364 62.8934C58.9662 69.7494 47.7181 70.1779 38.5054 69.9637C29.5069 69.8565 17.8303 68.8924 11.1886 61.9293C4.43971 54.9662 3.90409 43.7181 4.01121 34.3983C4.11834 25.3998 5.18958 13.7232 12.0456 7.08147C18.9015 0.439741 30.5781 -0.0958824 39.5766 0.0112423C48.7893 0.118367 60.0374 1.08249 66.8934 8.04559C73.6423 14.9016 74.1779 26.5782 73.9636 35.5766C73.8565 44.7894 73.1066 56.1446 66.0364 62.8934Z" fill="url(#paint0_linear)"/>
</g>
<path d="M40.9701 68.9996C40.1131 68.9996 39.2561 68.9996 38.5063 68.9996C28.865 68.7853 18.0454 67.8212 11.9393 61.2866C5.61899 54.6449 4.97624 44.0395 5.08336 34.5054C5.19049 25.5069 6.26173 14.2589 12.7963 7.9385C19.1167 1.83239 29.9363 1.08252 37.5421 1.08252C38.292 1.08252 38.9348 1.08252 39.6846 1.08252C49.1116 1.29677 59.7169 2.26089 66.1444 8.7955C72.4648 15.1159 73.1075 25.9354 72.8933 35.5767C72.679 45.6464 71.7149 55.9304 65.1803 62.1436C58.9671 68.2497 49.0045 68.9996 40.9701 68.9996Z" fill="url(#paint1_linear)"/>
<path d="M73.0001 33.7555C72.8929 24.8642 71.8217 15.6515 66.1441 9.86674C59.7166 3.33214 49.1112 2.36802 39.5772 2.15377C38.9344 2.15377 38.1845 2.15377 37.4347 2.15377C29.9359 2.15377 19.1163 2.90364 12.796 9.00975C6.26138 15.3301 5.29726 26.4711 5.08301 35.5767C5.08301 36.1123 5.08301 36.755 5.08301 37.2907C5.08301 36.3265 5.08301 35.4695 5.08301 34.5054C5.29726 25.5069 6.26138 14.2589 12.796 7.9385C19.1163 1.83239 29.9359 1.08252 37.5418 1.08252C38.2917 1.08252 38.9344 1.08252 39.6843 1.08252C49.1112 1.29677 59.7166 2.26089 66.1441 8.7955C72.0359 14.7945 73.0001 24.5428 73.0001 33.7555Z" fill="url(#paint2_linear)"/>
<path d="M73.0001 32.6841C73.0001 33.6482 73.0001 34.6123 73.0001 35.5764C72.7858 45.6462 71.8217 55.9301 65.2871 62.1434C59.0738 68.1423 49.0041 68.9993 40.9698 68.9993C40.1128 68.9993 39.2558 68.9993 38.5059 68.9993C28.8647 68.8922 18.0451 67.821 11.939 61.2864C6.04713 55.0731 5.08301 45.2177 5.08301 36.2192C5.08301 45.0034 6.26138 54.2161 11.939 60.2151C18.0451 66.7497 28.7576 67.7139 38.5059 67.9281C39.3629 67.9281 40.1128 67.9281 40.9698 67.9281C49.0041 67.9281 59.0738 67.1782 65.2871 61.0721C71.7146 54.8589 72.7858 44.5749 73.0001 34.5052C73.0001 33.8625 73.0001 33.3268 73.0001 32.6841Z" fill="url(#paint3_linear)"/>
<g filter="url(#filter1_d)">
<path d="M53.5556 56.072H24.8792C23.2668 56.072 22 54.8052 22 53.1929V18.7581C22 17.1457 23.2668 15.8789 24.8792 15.8789H53.5556C55.168 15.8789 56.4348 17.1457 56.4348 18.7581V53.308C56.4348 54.8052 55.168 56.072 53.5556 56.072Z" fill="url(#paint4_linear)"/>
</g>
<g filter="url(#filter2_d)">
<path d="M44.3419 18.6432H34.0921C32.4797 18.6432 31.2129 17.3763 31.2129 15.8792C31.2129 14.382 32.4797 13 34.0921 13H44.3419C45.9542 13 47.221 14.2668 47.221 15.8792C47.221 17.4915 45.9542 18.6432 44.3419 18.6432ZM34.0921 14.1517C33.0556 14.1517 32.3646 14.8427 32.3646 15.8792C32.3646 16.9157 33.0556 17.6067 34.0921 17.6067H44.3419C45.2632 17.6067 46.0694 16.8005 46.0694 15.8792C46.0694 14.9578 45.2632 14.1517 44.3419 14.1517H34.0921Z" fill="url(#paint5_linear)"/>
</g>
<rect x="32.3652" y="14.1519" width="13.82" height="3.455" rx="1.5" fill="#5E2CE8"/>
<g filter="url(#filter3_d)">
<path d="M34.0921 33.1544H28.3338C27.2973 33.1544 26.376 32.3482 26.376 31.1966V25.3231C26.376 24.2866 27.1821 23.3652 28.2186 23.3652H33.977C35.0135 23.3652 35.9348 24.1714 35.9348 25.3231V31.1966C35.9348 32.2331 35.1286 33.1544 34.0921 33.1544Z" fill="url(#paint6_linear)"/>
</g>
<path d="M50.4527 40.6398H28.0968C27.2026 40.6398 26.6064 40.0639 26.6064 39.4881C26.6064 38.7971 27.3516 38.3364 28.0968 38.3364H50.4527C51.3469 38.3364 51.9431 38.9123 51.9431 39.4881C51.9431 40.0639 51.3469 40.6398 50.4527 40.6398Z" fill="url(#paint7_linear)"/>
<path d="M50.4527 47.5499H28.0968C27.2026 47.5499 26.6064 46.9741 26.6064 46.3982C26.6064 45.7072 27.3516 45.2466 28.0968 45.2466H50.4527C51.3469 45.2466 51.9431 45.8224 51.9431 46.3982C51.9431 46.9741 51.3469 47.5499 50.4527 47.5499Z" fill="url(#paint8_linear)"/>
<path d="M50.5614 26.8199H41.5784C40.8874 26.8199 40.4268 26.2441 40.4268 25.6683C40.4268 24.9773 41.0026 24.5166 41.5784 24.5166H50.5614C51.2524 24.5166 51.7131 25.0924 51.7131 25.6683C51.8282 26.2441 51.2524 26.8199 50.5614 26.8199Z" fill="url(#paint9_linear)"/>
<path d="M50.5614 33.7301H41.5784C40.8874 33.7301 40.4268 33.1543 40.4268 32.5784C40.4268 31.8874 41.0026 31.4268 41.5784 31.4268H50.5614C51.2524 31.4268 51.7131 32.0026 51.7131 32.5784C51.8282 33.1543 51.2524 33.7301 50.5614 33.7301Z" fill="url(#paint10_linear)"/>
<defs>
<filter id="filter0_d" x="0" y="0" width="78" height="78.0033" filterUnits="userSpaceOnUse" color-interpolation-filters="sRGB">
<feFlood flood-opacity="0" result="BackgroundImageFix"/>
<feColorMatrix in="SourceAlpha" type="matrix" values="0 0 0 0 0 0 0 0 0 0 0 0 0 0 0 0 0 0 127 0"/>
<feOffset dy="4"/>
<feGaussianBlur stdDeviation="2"/>
<feColorMatrix type="matrix" values="0 0 0 0 0.0446078 0 0 0 0 0 0 0 0 0 0.270833 0 0 0 0.44 0"/>
<feBlend mode="normal" in2="BackgroundImageFix" result="effect1_dropShadow"/>
<feBlend mode="normal" in="SourceGraphic" in2="effect1_dropShadow" result="shape"/>
</filter>
<filter id="filter1_d" x="18" y="15.8789" width="42.4348" height="48.1931" filterUnits="userSpaceOnUse" color-interpolation-filters="sRGB">
<feFlood flood-opacity="0" result="BackgroundImageFix"/>
<feColorMatrix in="SourceAlpha" type="matrix" values="0 0 0 0 0 0 0 0 0 0 0 0 0 0 0 0 0 0 127 0"/>
<feOffset dy="4"/>
<feGaussianBlur stdDeviation="2"/>
<feColorMatrix type="matrix" values="0 0 0 0 0.0901961 0 0 0 0 0.0392157 0 0 0 0 0.364706 0 0 0 0.32 0"/>
<feBlend mode="normal" in2="BackgroundImageFix" result="effect1_dropShadow"/>
<feBlend mode="normal" in="SourceGraphic" in2="effect1_dropShadow" result="shape"/>
</filter>
<filter id="filter2_d" x="30.2129" y="13" width="18.0081" height="7.64316" filterUnits="userSpaceOnUse" color-interpolation-filters="sRGB">
<feFlood flood-opacity="0" result="BackgroundImageFix"/>
<feColorMatrix in="SourceAlpha" type="matrix" values="0 0 0 0 0 0 0 0 0 0 0 0 0 0 0 0 0 0 127 0"/>
<feOffset dy="1"/>
<feGaussianBlur stdDeviation="0.5"/>
<feColorMatrix type="matrix" values="0 0 0 0 0.0941176 0 0 0 0 0.0392157 0 0 0 0 0.368627 0 0 0 0.25 0"/>
<feBlend mode="normal" in2="BackgroundImageFix" result="effect1_dropShadow"/>
<feBlend mode="normal" in="SourceGraphic" in2="effect1_dropShadow" result="shape"/>
</filter>
<filter id="filter3_d" x="22.376" y="21.3652" width="17.5588" height="17.7892" filterUnits="userSpaceOnUse" color-interpolation-filters="sRGB">
<feFlood flood-opacity="0" result="BackgroundImageFix"/>
<feColorMatrix in="SourceAlpha" type="matrix" values="0 0 0 0 0 0 0 0 0 0 0 0 0 0 0 0 0 0 127 0"/>
<feOffset dy="2"/>
<feGaussianBlur stdDeviation="2"/>
<feColorMatrix type="matrix" values="0 0 0 0 0.501961 0 0 0 0 0.243137 0 0 0 0 1 0 0 0 0.21 0"/>
<feBlend mode="normal" in2="BackgroundImageFix" result="effect1_dropShadow"/>
<feBlend mode="normal" in="SourceGraphic" in2="effect1_dropShadow" result="shape"/>
</filter>
<linearGradient id="paint0_linear" x1="39.0318" y1="70.0521" x2="39.0318" y2="0.436098" gradientUnits="userSpaceOnUse">
<stop stop-color="#201684"/>
<stop offset="0.2213" stop-color="#2E189D"/>
<stop offset="0.7462" stop-color="#4D1DD5"/>
<stop offset="1" stop-color="#591FEB"/>
</linearGradient>
<linearGradient id="paint1_linear" x1="39.0327" y1="68.9816" x2="39.0327" y2="1.49377" gradientUnits="userSpaceOnUse">
<stop stop-color="#2F2593"/>
<stop offset="0.2213" stop-color="#3D27AC"/>
<stop offset="0.7462" stop-color="#5C2CE4"/>
<stop offset="1" stop-color="#682EFA"/>
</linearGradient>
<linearGradient id="paint2_linear" x1="39.0323" y1="37.2491" x2="39.0323" y2="1.30309" gradientUnits="userSpaceOnUse">
<stop stop-color="#2F2593" stop-opacity="0"/>
<stop offset="0.2533" stop-color="#4A42B1" stop-opacity="0.2533"/>
<stop offset="0.7566" stop-color="#7C76E9" stop-opacity="0.7566"/>
<stop offset="1" stop-color="#908BFF"/>
</linearGradient>
<linearGradient id="paint3_linear" x1="39.0323" y1="68.979" x2="39.0323" y2="32.8842" gradientUnits="userSpaceOnUse">
<stop stop-color="#07006B"/>
<stop offset="0.414" stop-color="#3315AC" stop-opacity="0.586"/>
<stop offset="0.8098" stop-color="#5927E4" stop-opacity="0.1902"/>
<stop offset="1" stop-color="#682EFA" stop-opacity="0"/>
</linearGradient>
<linearGradient id="paint4_linear" x1="39.1999" y1="56.1214" x2="39.1999" y2="15.8598" gradientUnits="userSpaceOnUse">
<stop stop-color="#BDA6FB"/>
<stop offset="1" stop-color="#F0EAFE"/>
</linearGradient>
<linearGradient id="paint5_linear" x1="39.1995" y1="18.7535" x2="39.1995" y2="13.1935" gradientUnits="userSpaceOnUse">
<stop stop-color="#E5DBFE"/>
<stop offset="1" stop-color="white"/>
</linearGradient>
<linearGradient id="paint6_linear" x1="31.1588" y1="33.4459" x2="31.1588" y2="19.175" gradientUnits="userSpaceOnUse">
<stop stop-color="#EDE6FE"/>
<stop offset="0.1339" stop-color="#F1ECFE"/>
<stop offset="0.6046" stop-color="#FBFAFF"/>
<stop offset="1" stop-color="white"/>
</linearGradient>
<linearGradient id="paint7_linear" x1="39.2605" y1="40.6008" x2="39.2605" y2="38.2355" gradientUnits="userSpaceOnUse">
<stop stop-color="#E0D4FE"/>
<stop offset="0.3661" stop-color="#F1EBFF"/>
<stop offset="0.7108" stop-color="#FBFAFF"/>
<stop offset="1" stop-color="white"/>
</linearGradient>
<linearGradient id="paint8_linear" x1="39.2605" y1="47.511" x2="39.2605" y2="45.1457" gradientUnits="userSpaceOnUse">
<stop stop-color="#E0D4FE"/>
<stop offset="0.3661" stop-color="#F1EBFF"/>
<stop offset="0.7108" stop-color="#FBFAFF"/>
<stop offset="1" stop-color="white"/>
</linearGradient>
<linearGradient id="paint9_linear" x1="46.0736" y1="26.8288" x2="46.0736" y2="24.4635" gradientUnits="userSpaceOnUse">
<stop stop-color="#E0D4FE"/>
<stop offset="0.3661" stop-color="#F1EBFF"/>
<stop offset="0.7108" stop-color="#FBFAFF"/>
<stop offset="1" stop-color="white"/>
</linearGradient>
<linearGradient id="paint10_linear" x1="46.0736" y1="33.739" x2="46.0736" y2="31.3737" gradientUnits="userSpaceOnUse">
<stop stop-color="#E0D4FE"/>
<stop offset="0.3661" stop-color="#F1EBFF"/>
<stop offset="0.7108" stop-color="#FBFAFF"/>
<stop offset="1" stop-color="white"/>
</linearGradient>
</defs>
</svg>
