<svg width="28" height="145" viewBox="0 0 28 145" fill="none" xmlns="http://www.w3.org/2000/svg">
<path d="M0.289059 144.472C5.52388 144.99 9.52779 144.015 12.3077 141.56C15.0876 139.105 16.4776 135.295 16.4776 130.122V84.3368C16.4776 80.5888 17.3005 78.0371 18.9463 76.6817C20.5921 75.3263 23.296 74.6486 27.0371 74.6486V69.9947C23.2891 69.9947 20.5921 69.317 18.9463 67.9616C17.3005 66.6062 16.4776 64.0545 16.4776 60.3065V14.5208C16.4776 9.35515 15.0876 5.53795 12.3077 3.08305C9.52779 0.628149 5.52388 -0.339981 0.289059 0.17866V4.92941C4.16849 4.47992 7.01065 4.99165 8.81552 6.47842C10.6273 7.96519 11.5263 10.6483 11.5263 14.5208V60.3065C11.5263 67.028 14.1126 71.032 19.2782 72.3251C14.1126 73.6182 11.5263 77.6222 11.5263 84.3437V130.129C11.5263 134.009 10.6204 136.685 8.81552 138.172C7.00373 139.659 4.16158 140.205 0.289059 139.818V144.472Z" fill="url(#paint0_linear)"/>
<defs>
<linearGradient id="paint0_linear" x1="27.0373" y1="72.3248" x2="0.290311" y2="72.323" gradientUnits="userSpaceOnUse">
<stop stop-color="#803EFF"/>
<stop offset="1" stop-color="#E3D8FF" stop-opacity="0"/>
</linearGradient>
</defs>
</svg>
