<svg width="28" height="145" viewBox="0 0 28 145" fill="none" xmlns="http://www.w3.org/2000/svg">
<path d="M27.2676 144.472C22.0328 144.99 18.0289 144.015 15.2489 141.56C12.469 139.105 11.0791 135.295 11.0791 130.122V84.3368C11.0791 80.5888 10.2562 78.0371 8.61033 76.6817C6.96451 75.3263 4.26066 74.6486 0.519531 74.6486V69.9947C4.26758 69.9947 6.96451 69.317 8.61033 67.9616C10.2562 66.6062 11.0791 64.0545 11.0791 60.3065V14.5208C11.0791 9.35515 12.469 5.53795 15.2489 3.08305C18.0289 0.628149 22.0328 -0.339981 27.2676 0.17866V4.92941C23.3881 4.47992 20.546 4.99165 18.7411 6.47842C16.9293 7.96519 16.0304 10.6483 16.0304 14.5208V60.3065C16.0304 67.028 13.4441 71.032 8.2784 72.3251C13.4441 73.6182 16.0304 77.6222 16.0304 84.3437V130.129C16.0304 134.009 16.9363 136.685 18.7411 138.172C20.5529 139.659 23.3951 140.205 27.2676 139.818V144.472Z" fill="url(#paint0_linear)"/>
<defs>
<linearGradient id="paint0_linear" x1="0.519315" y1="72.3248" x2="27.2663" y2="72.323" gradientUnits="userSpaceOnUse">
<stop stop-color="#803EFF"/>
<stop offset="1" stop-color="#E3D8FF" stop-opacity="0"/>
</linearGradient>
</defs>
</svg>
