<svg width="323" height="285" viewBox="0 0 323 285" fill="none" xmlns="http://www.w3.org/2000/svg">
<path d="M91.4472 121.741C100.845 118.585 109.39 116.533 115.785 115.236C127.798 113.03 139.192 111.655 147.892 111.326C149.346 111.268 150.683 111.21 151.903 111.152C153.977 111.055 155.701 110.978 157.038 110.958L160.332 110.997L160.294 112.217L157.058 112.178C155.817 112.197 154.112 112.275 152.078 112.372C150.857 112.43 149.501 112.488 148.028 112.546C139.483 112.856 128.263 114.23 116.443 116.398C106.678 118.353 91.8154 122.147 76.5851 129C62.9243 135.136 51.2013 142.995 42.6754 151.725C34.1108 160.397 28.3946 170.25 26.1275 180.2C24.0348 189.395 24.6161 198.474 27.7745 206.468C28.1427 207.978 28.8596 209.372 29.5378 210.727L30.1191 211.869C30.4485 212.469 30.7392 213.088 31.0299 213.689C31.5337 214.734 32.0181 215.74 32.6381 216.65L35.5059 220.773C35.816 221.18 36.0872 221.606 36.3585 222.012C36.8817 222.787 37.3855 223.541 38.0056 224.161L43.7799 230.549L41.9003 231.11L36.1647 224.761C35.4672 224.083 34.944 223.29 34.3821 222.457C34.1108 222.07 33.8395 221.664 33.5489 221.257L30.6811 217.115C30.0029 216.147 29.5185 215.121 28.9953 214.037C28.7046 213.456 28.4333 212.856 28.1039 212.237L27.5226 211.095C26.8251 209.701 26.0887 208.268 25.7206 206.72C22.504 198.648 21.9227 189.414 24.0348 180.084C26.3213 169.979 32.1343 159.972 40.8346 151.164C49.4961 142.298 61.4129 134.304 75.2868 128.09C80.7899 125.554 86.2542 123.483 91.4472 121.741Z" fill="url(#paint0_linear)"/>
<path d="M160.332 110.978L169.923 111.094L182.964 111.965C183.855 112.062 184.689 112.159 185.541 112.275L195.52 113.514C197.477 113.823 199.415 114.172 201.411 114.559C202.554 114.772 203.697 114.985 204.879 115.198C215.227 117.211 230.728 121.044 245.862 127.799C259.832 133.955 271.982 141.911 281.031 150.815C290.08 159.701 296.164 169.708 298.664 179.716C301.454 190.614 299.652 200.235 297.637 206.391C297.366 207.107 297.133 207.784 296.881 208.462C296.474 209.643 296.067 210.785 295.583 211.888L292.579 217.502C292.328 217.986 292.076 218.45 291.804 218.915L286.398 226.251L282.155 230.781L280.275 230.2L284.809 225.342L289.789 218.489C290.022 218.083 290.274 217.637 290.526 217.153L293.548 211.54C294.013 210.494 294.401 209.372 294.808 208.191C295.06 207.513 295.292 206.817 295.564 206.12C297.54 200.061 299.323 190.576 296.571 179.852C294.11 169.999 288.123 160.146 279.229 151.396C270.315 142.647 258.34 134.807 244.602 128.748C229.682 122.108 214.432 118.334 204.259 116.359C203.097 116.146 201.934 115.933 200.791 115.72C198.834 115.353 196.915 115.004 195.055 114.714L185.115 113.475C184.282 113.378 183.468 113.262 182.673 113.185L169.245 112.313L160.293 112.217L160.332 110.978Z" fill="url(#paint1_linear)"/>
<path d="M43.7242 230.472L50.5449 236.472C51.2037 237.111 52.0757 237.731 53.0058 238.389C53.4902 238.718 53.994 239.066 54.4785 239.434L59.3227 242.88C60.4078 243.635 61.6673 244.37 63.0237 245.125C63.7988 245.57 64.5739 246.016 65.3489 246.48L66.7828 247.313C68.488 248.319 70.2513 249.345 72.2859 250.255C82.9045 255.791 96.3908 260.534 111.369 263.999C127.568 267.754 145.298 269.729 162.66 269.69C180.08 269.709 197.752 267.696 213.757 263.863C231.623 259.605 244.663 254.01 252.453 250.081C261.521 245.241 269.098 240.286 273.748 236.163C274.562 235.446 275.318 234.808 276.015 234.227C277.158 233.259 278.108 232.446 278.786 231.807L280.298 230.201L282.177 230.781L280.646 232.427C279.91 233.104 278.961 233.937 277.798 234.924C277.12 235.505 276.364 236.143 275.55 236.86C270.803 241.06 263.11 246.074 253.906 251.01C245.981 255.017 232.747 260.689 214.61 265.025C198.352 268.915 180.409 270.967 162.699 270.948C145.066 270.987 127.065 268.974 110.594 265.16C95.4026 261.637 81.6837 256.817 70.9489 251.203C68.8368 250.294 67.0347 249.21 65.2714 248.184L63.8375 247.351C63.0625 246.887 62.2874 246.441 61.5317 246.016C60.1365 245.222 58.8383 244.467 57.6757 243.654L52.812 240.189C52.3276 239.821 51.8432 239.492 51.3781 239.163C50.3899 238.466 49.4404 237.827 48.7429 237.111L41.9609 231.149L43.7242 230.472Z" fill="url(#paint2_linear)"/>
<path d="M79.8608 121.644L84.55 125.767L83.3486 126.212C83.1548 126.29 82.7867 126.425 82.3798 126.58C81.7791 126.812 81.0234 127.083 80.2095 127.432C79.4345 127.799 78.33 128.322 77.1092 128.883C74.784 129.968 72.1487 131.168 69.2228 132.639C59.1662 137.962 49.4971 144.95 42.8314 151.764L39.5373 155.287C38.801 156.061 38.1034 156.816 37.6384 157.533L33.1817 163.669L29.19 171.238L27.9111 174.741C26.7873 177.393 26.361 179.697 26.0316 181.536L25.3534 185.117C25.2759 185.465 25.2565 185.659 25.2565 185.717L16.75 185.62C16.75 185.62 16.75 185.233 16.905 184.497L17.5638 180.994C17.9126 179.097 18.3777 176.522 19.6178 173.619L21.3423 169.07L25.2371 161.849L29.6938 155.694C30.3139 154.726 31.1858 153.816 32.0384 152.906L35.3713 149.344C42.502 142.066 52.7524 134.633 63.526 128.922C66.6651 127.354 69.4747 126.057 71.7418 125.012C72.9238 124.47 73.9895 123.967 74.9003 123.541C76.0823 123.018 77.0123 122.689 77.768 122.418C78.0781 122.302 78.3494 122.205 78.5625 122.108L79.8608 121.644Z" fill="url(#paint3_linear)"/>
<path d="M241.193 121.469L246.541 123.56C247.161 123.792 247.801 124.044 248.44 124.334L257.489 128.651C264.155 132.155 276.556 139.317 286.438 148.976C296.224 158.675 301.01 168.411 303.006 173.347L305.156 180.065C305.311 180.568 305.369 181.032 305.428 181.458L305.97 185.156L297.483 185.543L297.018 182.368C296.999 182.213 296.96 182 296.941 181.787C296.902 181.516 296.863 181.207 296.785 180.897L294.693 174.315C291.534 166.495 285.857 158.113 279.133 151.454C272.351 144.834 262.43 137.865 251.967 132.368L243.131 128.148C242.763 127.974 242.317 127.819 241.91 127.664C241.6 127.548 241.29 127.432 240.999 127.296L236.484 125.535L241.193 121.469Z" fill="url(#paint4_linear)"/>
<path d="M98.796 261.656L102.516 261.734C102.574 261.753 102.884 261.85 103.427 261.966L109.26 263.398C112.224 264.134 115.925 265.063 120.363 265.779L129.489 267.309L139.894 268.606L151.23 269.38C152.703 269.515 154.156 269.535 155.706 269.535L162.798 269.612C176.304 269.612 191.65 268.218 204.788 265.76C208.315 265.024 211.454 264.308 214.244 263.669C215.697 263.34 216.995 263.031 218.139 262.779C218.894 262.585 219.669 262.353 220.309 262.16C220.735 262.024 221.123 261.908 221.452 261.83L222.615 261.482L226.568 265.857L225.289 266.244C224.94 266.341 224.649 266.438 224.339 266.534C223.545 266.767 222.576 267.076 221.413 267.367C220.115 267.657 218.856 267.947 217.46 268.257C214.748 268.877 211.376 269.651 207.598 270.445C193.53 273.077 177.253 274.548 162.798 274.548L155.667 274.471C153.904 274.452 152.083 274.432 150.164 274.258L138.402 273.445L122.533 271.316L118.057 270.503C113.193 269.728 109.027 268.683 106.004 267.928L100.288 266.534C99.3773 266.321 98.8153 266.147 98.6797 266.108L100.617 263.921L98.796 261.656Z" fill="url(#paint5_linear)"/>
<path opacity="0.65" d="M81.4672 116.65L82.2423 117.327L77.4949 119.108L76.7199 118.431L81.4672 116.65ZM71.9725 120.212L72.767 120.889L72.4569 121.005L68.3878 122.902L67.4964 122.263L71.9725 120.212ZM63.0979 124.315L63.9892 124.954L62.0709 125.845C61.3539 126.154 60.6564 126.522 59.7456 127.045L58.7574 126.464C59.7069 125.922 60.4432 125.554 61.1989 125.206L63.0979 124.315ZM54.727 128.768L55.7346 129.348L51.7236 131.652L50.716 131.071L54.727 128.768ZM46.9181 133.549L48.0032 134.071L44.4185 136.569L43.314 136.046L46.9181 133.549ZM39.7099 138.62L40.8725 139.104C40.4462 139.453 40.0199 139.821 39.613 140.188C39.2836 140.479 38.9542 140.75 38.6248 141.04L37.7334 141.814L36.5514 141.35L37.4428 140.576C37.7722 140.305 38.1016 140.014 38.431 139.743C38.8573 139.356 39.2836 138.969 39.7099 138.62ZM33.393 144.041L34.575 144.505L32.9473 145.899C32.521 146.325 32.056 146.789 31.6103 147.254L30.3702 146.847C30.8158 146.383 31.2809 145.918 31.7266 145.454L33.393 144.041ZM27.6768 149.732L28.9363 150.119C28.0837 151.067 27.2505 152.055 26.4366 153.042L25.1578 152.693C25.9716 151.687 26.8242 150.7 27.6768 149.732ZM22.7938 155.655L24.092 155.984C23.3363 156.971 22.6194 157.978 21.9218 158.985L20.6042 158.675C21.3211 157.668 22.0575 156.662 22.7938 155.655ZM18.6277 161.772L19.9647 162.062C19.3447 163.088 18.7246 164.114 18.1627 165.14L16.8063 164.869C17.3876 163.824 17.9883 162.798 18.6277 161.772ZM15.1593 168.044L16.535 168.257L16.2831 168.76C15.915 169.631 15.5662 170.522 15.2174 171.412L13.8222 171.238C14.1517 170.347 14.5004 169.438 14.888 168.547L15.1593 168.044ZM12.7565 174.451L14.1517 174.606C13.8222 175.671 13.5316 176.755 13.2603 177.819L11.8652 177.703C12.1171 176.619 12.4271 175.535 12.7565 174.451ZM11.1482 180.955L12.5627 181.052C12.3496 182.136 12.1946 183.22 12.0396 184.304L10.625 184.227C10.7607 183.143 10.9351 182.039 11.1482 180.955ZM10.2763 187.498L11.6908 187.537C11.6133 188.64 11.5745 189.724 11.5551 190.808L10.1406 190.789C10.16 189.705 10.1988 188.601 10.2763 187.498ZM10.2375 194.099L11.652 194.041L12.1171 197.312L10.7026 197.37L10.2375 194.099ZM11.187 200.622L12.6015 200.564C12.679 201.087 12.7565 201.61 12.8728 202.113L13.396 203.758L12.0008 203.913L11.4776 202.248C11.342 201.706 11.2451 201.164 11.187 200.622ZM13.0278 207.127L14.4229 206.991L15.4499 210.166L14.0935 210.398L13.8998 209.856L13.0278 207.127ZM15.6437 213.553L17.0001 213.34L17.7558 214.889C18.0464 215.431 18.2983 215.973 18.5696 216.515L17.1938 216.728C16.9419 216.205 16.69 215.663 16.3994 215.121L15.6437 213.553ZM19.0153 219.864L20.3329 219.573L22.445 222.613L21.1274 222.903L19.0153 219.864ZM23.2201 225.942L24.5377 225.652L25.0996 226.465L26.9986 228.575L25.7391 228.942L23.8208 226.794L23.2201 225.942ZM28.3743 231.846L29.6338 231.478L32.2691 234.382L31.0096 234.75L28.3743 231.846ZM84.7225 115.411L89.7606 113.92L90.4194 114.656L85.3814 116.146L84.7225 115.411ZM94.7792 112.43L98.4802 111.326L99.9528 110.997L100.476 111.752L99.0809 112.062L95.4574 113.146L94.7792 112.43ZM105.223 109.797L110.494 108.597L111.017 109.352L105.747 110.552L105.223 109.797ZM115.958 107.571C116.869 107.436 117.799 107.281 118.729 107.126L121.403 106.7L121.791 107.494L119.136 107.92C118.206 108.094 117.256 108.229 116.346 108.365L115.958 107.571ZM126.848 105.81L127.778 105.693L132.487 105.209L132.739 106.023L127.236 106.603L126.848 105.81ZM138.087 104.648L140.974 104.358C141.923 104.28 142.834 104.242 143.764 104.203L143.88 105.016C142.97 105.055 142.078 105.093 141.206 105.171L138.339 105.461L138.087 104.648ZM149.422 103.951L155.08 103.7L155.197 104.513L149.538 104.764L149.422 103.951ZM160.816 103.661C162.695 103.68 164.594 103.719 166.513 103.758L166.455 104.571C164.556 104.513 162.676 104.493 160.796 104.474L160.816 103.661ZM172.21 103.99C174.089 104.087 175.988 104.184 177.887 104.319L177.732 105.132C175.852 105.016 173.973 104.9 172.113 104.803L172.21 103.99ZM183.545 104.726C185.425 104.88 187.304 105.055 189.184 105.268L188.932 106.081C187.072 105.887 185.211 105.713 183.351 105.539L183.545 104.726ZM194.764 105.926C196.314 106.119 197.865 106.332 199.415 106.565L200.306 106.7L199.957 107.494L199.066 107.358C197.555 107.145 196.004 106.932 194.474 106.739L194.764 105.926ZM205.79 107.668C207.611 108.016 209.413 108.365 211.196 108.733L210.712 109.507C208.948 109.139 207.146 108.791 205.364 108.442L205.79 107.668ZM216.544 109.913C218.327 110.32 220.071 110.746 221.815 111.191L221.253 111.946C219.528 111.501 217.784 111.094 216.021 110.688L216.544 109.913ZM227.008 112.565C228.732 113.049 230.437 113.533 232.123 114.036L231.464 114.772C229.798 114.269 228.112 113.785 226.388 113.301L227.008 112.565ZM237.142 115.604C237.956 115.875 238.75 116.127 239.544 116.398L242.005 117.366L241.211 118.043L238.789 117.095C238.033 116.843 237.239 116.572 236.425 116.321L237.142 115.604ZM246.733 119.205L248.07 119.728C248.555 119.921 249.059 120.115 249.543 120.308C250.182 120.56 250.841 120.812 251.461 121.063L250.628 121.721C250.027 121.47 249.388 121.218 248.749 120.986C248.264 120.792 247.76 120.599 247.276 120.405L245.939 119.882L246.733 119.205ZM255.937 123.154L255.472 123.464L255.937 123.154L260.297 125.244L259.406 125.883L255.046 123.812L255.937 123.154ZM264.618 127.432L268.629 129.755L267.622 130.335L263.611 128.013L264.618 127.432ZM272.66 132.097C273.59 132.639 274.268 133.084 274.849 133.51L276.419 134.613L275.314 135.136L273.745 134.013C273.183 133.607 272.543 133.181 271.652 132.658L272.66 132.097ZM279.984 137.169L283.569 139.763L282.387 140.208L282.193 140.034L278.86 137.672L279.984 137.169ZM286.708 142.511L289.828 145.26L288.646 145.705L285.526 142.957L286.708 142.511ZM290.719 147.525L291.979 147.157L294.614 150.061L293.354 150.429L290.719 147.525ZM295.97 153.351L297.23 152.984L299.148 155.132L299.729 155.984L298.412 156.294L297.85 155.481L295.97 153.351ZM300.543 159.314L301.861 159.023L303.973 162.062L302.655 162.353L300.543 159.314ZM304.399 165.431L305.775 165.218C306.027 165.74 306.279 166.282 306.569 166.824L307.344 168.373L305.969 168.605L305.194 167.057C304.922 166.495 304.651 165.953 304.399 165.431ZM307.538 171.741L308.895 171.509L309.088 172.051L309.96 174.78L308.565 174.916L307.538 171.741ZM309.573 178.148L310.968 178.013L311.491 179.678C311.627 180.22 311.704 180.762 311.782 181.284L310.367 181.342C310.29 180.82 310.232 180.297 310.096 179.794L309.573 178.148ZM310.852 184.614L312.266 184.556L312.731 187.827L311.317 187.885L310.852 184.614ZM311.414 191.099L312.828 191.118C312.809 192.202 312.77 193.305 312.673 194.409L311.259 194.37C311.355 193.267 311.394 192.183 311.414 191.099ZM310.929 197.622L312.344 197.699C312.208 198.783 312.034 199.887 311.82 200.971L310.406 200.874C310.619 199.771 310.794 198.687 310.929 197.622ZM309.708 204.087L311.123 204.204C310.852 205.288 310.561 206.372 310.232 207.456L308.836 207.301C309.146 206.236 309.457 205.171 309.708 204.087ZM307.732 210.514L309.127 210.688C308.798 211.579 308.43 212.469 308.061 213.379L307.809 213.882L306.434 213.669L306.686 213.166C307.054 212.276 307.403 211.385 307.732 210.514ZM304.825 216.786L306.182 217.038C305.601 218.083 305 219.128 304.36 220.154L303.023 219.864C303.643 218.838 304.244 217.812 304.825 216.786ZM301.028 222.903L302.345 223.213C301.648 224.239 300.911 225.245 300.175 226.232L298.877 225.903C299.613 224.916 300.33 223.929 301.028 222.903ZM296.532 228.884L297.811 229.233C296.997 230.22 296.145 231.207 295.292 232.175L294.032 231.788C294.885 230.839 295.718 229.872 296.532 228.884ZM291.358 234.653L292.599 235.059C292.153 235.524 291.688 235.989 291.242 236.453L289.595 237.866L288.413 237.402L290.041 236.008C290.467 235.582 290.913 235.117 291.358 234.653ZM285.255 240.112L286.437 240.576L285.545 241.351C285.197 241.641 284.887 241.912 284.557 242.202C284.131 242.57 283.705 242.938 283.259 243.306L282.096 242.822C282.523 242.473 282.949 242.105 283.375 241.738C283.705 241.447 284.034 241.176 284.363 240.886L285.255 240.112ZM278.531 245.338L279.635 245.861L276.051 248.358L274.946 247.835L278.531 245.338ZM271.245 250.255L272.253 250.836L268.242 253.139L267.234 252.559L271.245 250.255ZM263.242 254.862L264.231 255.443C263.281 255.985 262.545 256.353 261.789 256.701L259.871 257.591L258.98 256.953L260.917 256.062C261.615 255.733 262.332 255.365 263.242 254.862ZM254.581 259.005L255.472 259.643L250.996 261.695L250.202 261.018L250.492 260.902L254.581 259.005ZM245.474 262.799L246.249 263.476L241.502 265.257L240.726 264.579L245.474 262.799ZM34.3231 236.201L37.4428 238.95L36.2608 239.395L33.1411 236.647L34.3231 236.201ZM40.5818 241.68L40.7756 241.854L44.0891 244.215L42.9846 244.719L39.3805 242.125L40.5818 241.68ZM47.6738 246.771L49.2433 247.893C49.8053 248.3 50.4447 248.726 51.336 249.248L50.3284 249.81C49.3983 249.268 48.7202 248.823 48.1388 248.397L46.5887 247.293L47.6738 246.771ZM55.3471 251.571L59.3581 253.894L58.3505 254.475L54.3395 252.152L55.3471 251.571ZM63.5629 256.043L67.9227 258.133L67.0314 258.753L67.4964 258.443L67.0314 258.753L62.6716 256.662L63.5629 256.043ZM72.3213 260.205C72.9414 260.456 73.5808 260.708 74.2009 260.94C74.6853 261.134 75.1891 261.327 75.6735 261.521L77.0105 262.044L76.2161 262.721L74.8791 262.199C74.3946 262.005 73.8908 261.811 73.4064 261.637C72.767 261.385 72.1082 261.134 71.4881 260.882L72.3213 260.205ZM81.7385 263.863L84.1606 264.812C84.9163 265.063 85.7108 265.334 86.5052 265.586L85.8077 266.302C84.9938 266.031 84.1994 265.78 83.3855 265.509L80.9247 264.541L81.7385 263.863ZM91.5045 267.154C93.1709 267.657 94.8567 268.141 96.5812 268.606L95.9806 269.341C94.256 268.857 92.5508 268.374 90.8651 267.87L91.5045 267.154ZM101.736 269.98C103.46 270.425 105.204 270.832 106.948 271.238L106.425 271.993C104.661 271.587 102.898 271.161 101.154 270.716L101.736 269.98ZM112.257 272.4C114.021 272.768 115.803 273.116 117.605 273.465L117.179 274.239C115.358 273.91 113.555 273.542 111.773 273.174L112.257 272.4ZM123.011 274.413L123.903 274.549C125.414 274.762 126.964 274.974 128.495 275.168L128.204 275.962C126.654 275.768 125.104 275.555 123.554 275.323L122.663 275.207L123.011 274.413ZM134.056 275.826C135.916 276.02 137.777 276.194 139.637 276.368L139.443 277.181C137.564 277.026 135.684 276.833 133.804 276.639L134.056 275.826ZM145.237 276.794C147.116 276.91 148.996 277.026 150.856 277.123L150.759 277.936C148.88 277.839 146.981 277.743 145.082 277.607L145.237 276.794ZM156.514 277.317C158.413 277.375 160.293 277.413 162.172 277.413L162.153 278.226C160.273 278.207 158.355 278.168 156.456 278.11L156.514 277.317ZM167.772 277.394L173.43 277.142L173.547 277.955L167.888 278.207L167.772 277.394ZM179.088 276.891C179.98 276.852 180.89 276.813 181.762 276.736L184.63 276.446L184.882 277.259L181.995 277.549C181.045 277.626 180.135 277.665 179.185 277.704L179.088 276.891ZM190.211 275.884L195.714 275.304L196.121 276.097L195.191 276.213L190.463 276.697L190.211 275.884ZM201.197 274.432L203.852 274.007C204.782 273.852 205.732 273.697 206.642 273.561L207.03 274.355C206.119 274.49 205.189 274.645 204.259 274.8L201.585 275.226L201.197 274.432ZM211.971 272.555L217.242 271.355L217.765 272.11L212.494 273.31L211.971 272.555ZM222.493 270.154L223.907 269.825L227.55 268.741L228.209 269.477L224.508 270.58L223.055 270.909L222.493 270.154ZM232.569 267.27L237.607 265.78L238.266 266.515L233.228 268.006L232.569 267.27Z" fill="url(#paint6_linear)"/>
<path d="M2.95072 173.541C3.20262 173.464 3.45452 173.425 3.70643 173.464C3.9777 173.502 4.21023 173.599 4.38462 173.735C4.52026 173.87 4.59777 174.044 4.53963 174.219L4.28773 174.877C4.24898 175.012 4.21023 175.109 4.17147 175.245C4.09396 175.438 4.01646 175.67 3.91957 175.941C3.84206 176.251 3.26076 176.483 2.67945 176.425C2.11751 176.367 1.74935 176.058 1.82686 175.729C1.92374 175.438 2.02063 175.167 2.09814 174.954C2.15627 174.838 2.17565 174.741 2.19502 174.645L2.4663 173.967C2.52443 173.754 2.69882 173.619 2.95072 173.541ZM0.509227 188.059C0.683619 188.001 0.858012 187.962 1.07116 187.962C1.34244 187.962 1.59434 188.04 1.82686 188.156C2.02063 188.292 2.13689 188.427 2.11751 188.601C2.11751 188.93 1.61371 189.201 1.05178 189.182C0.470473 189.182 0.0248025 188.911 0.00542555 188.563C-0.0139514 188.543 0.0248025 188.543 0.0248025 188.543C0.00542555 188.33 0.218572 188.156 0.509227 188.059ZM2.17565 203.681C2.27253 203.642 2.40817 203.623 2.52443 203.603C2.79571 203.584 3.10574 203.623 3.31889 203.719C3.55141 203.816 3.70643 203.952 3.76456 204.107C3.80331 204.281 3.88082 204.455 3.95833 204.649L5.76038 210.34C5.97353 211.191 6.39982 212.024 6.82612 212.914L6.88425 213.011C7.31054 213.863 7.69808 214.695 8.105 215.508L8.20188 215.663C8.51191 216.302 8.84132 216.941 9.13198 217.56C9.67453 218.625 10.159 219.67 10.7209 220.618C11.4572 221.664 12.1548 222.69 12.8136 223.638L13.9181 225.206C14.7707 226.464 15.5845 227.607 16.2821 228.632C16.8246 229.291 17.3672 229.891 17.871 230.413C18.1616 230.684 18.4329 230.975 18.6848 231.265C20.0218 232.775 20.7969 233.627 20.7969 233.627C21.0682 233.917 20.8938 234.265 20.39 234.42L20.3319 234.44C19.8087 234.595 19.1886 234.478 18.9173 234.169C18.9173 234.169 18.1035 233.259 16.7859 231.807C16.5534 231.536 16.3014 231.265 16.0302 230.975C15.507 230.433 14.9257 229.794 14.325 229.078V229.039C13.7824 228.284 13.2399 227.49 12.6586 226.619L8.74444 221.006C8.105 219.96 7.62057 218.896 7.05864 217.773C6.76799 217.192 6.47733 216.592 6.14792 215.973C5.93478 215.489 5.68288 215.024 5.45035 214.56L4.79154 213.224C4.34587 212.372 3.90019 211.482 3.64829 210.533C3.222 209.178 2.77633 207.804 2.35004 206.449L1.84624 204.881C1.80748 204.707 1.7106 204.532 1.65247 204.339C1.57496 204.068 1.76873 203.816 2.17565 203.681ZM79.5285 110.397C91.9297 106.235 105.222 103.041 119.077 100.912C119.329 100.873 119.6 100.893 119.852 100.97C120.104 101.047 120.298 101.183 120.375 101.357C120.53 101.667 120.181 102.015 119.619 102.112C105.997 104.222 92.8598 107.358 80.6523 111.462L80.4586 111.52C77.5714 112.488 74.7036 113.533 71.8746 114.636L71.7196 114.714C71.4483 114.83 71.1383 114.927 70.867 115.043C70.3438 115.236 69.7044 115.159 69.375 114.869C69.2006 114.733 69.1424 114.578 69.2199 114.404C69.2587 114.249 69.4331 114.094 69.6656 113.998C69.9756 113.881 70.305 113.765 70.6345 113.63L70.6926 113.61C73.5216 112.488 76.4863 111.404 79.5285 110.397ZM65.674 115.604C66.1584 115.449 66.7784 115.527 67.0885 115.778C67.4179 116.049 67.3404 116.437 66.8366 116.63H66.8172C66.3909 116.824 65.6933 116.766 65.3639 116.495C65.0345 116.224 65.1314 115.856 65.5577 115.643C65.5964 115.643 65.6546 115.624 65.674 115.604ZM48.7579 123.87C49.1842 123.734 49.7267 123.773 50.0367 123.967C50.2499 124.083 50.3468 124.238 50.3661 124.412C50.3468 124.567 50.2499 124.722 50.0561 124.838C49.6298 125.07 48.9323 125.07 48.5253 124.818C48.1184 124.567 48.1572 124.18 48.5641 123.947H48.5835C48.6416 123.909 48.6804 123.889 48.7579 123.87ZM30.9698 135.639C31.338 135.523 31.7836 135.542 32.1324 135.678C32.365 135.775 32.5006 135.91 32.5587 136.065C32.5975 136.22 32.5393 136.394 32.3649 136.53C31.8611 136.936 31.3573 137.323 30.8729 137.71C21.5139 145.124 16.3596 152.287 12.5811 157.513L11.8641 158.5H11.8447C10.7984 160.262 9.98456 161.811 9.32575 163.049C9.09322 163.514 8.88007 163.92 8.66693 164.308C8.66693 164.308 8.66693 164.308 8.66693 164.327C8.49254 164.617 7.87247 164.811 7.32992 164.695C6.76799 164.598 6.47733 164.25 6.63235 163.92C6.84549 163.553 7.03926 163.146 7.29116 162.701C7.96936 161.423 8.80257 159.855 9.88768 158.055V158.036C10.159 157.687 10.3915 157.339 10.6628 156.971C14.4606 151.706 19.6537 144.486 29.1678 137.014C29.6716 136.607 30.156 136.201 30.6598 135.813C30.7373 135.736 30.8535 135.697 30.9698 135.639ZM145.526 98.2212C145.643 98.1825 145.817 98.1632 145.972 98.1438C146.243 98.1245 146.534 98.1825 146.747 98.2793C146.96 98.3955 147.115 98.531 147.135 98.7052C147.173 99.0343 146.728 99.344 146.166 99.3633C145.895 99.3827 145.604 99.3246 145.391 99.2278C145.158 99.1117 145.023 98.9762 145.003 98.802C144.984 98.589 145.158 98.3568 145.526 98.2212ZM167.771 97.989C167.965 97.9309 168.159 97.8922 168.372 97.9115C168.953 97.9309 169.399 98.2019 169.399 98.5503C169.36 98.86 168.856 99.1504 168.294 99.131C167.713 99.1117 167.248 98.8213 167.267 98.4923C167.267 98.26 167.461 98.0857 167.771 97.989ZM172.712 98.1632C172.906 98.1051 173.1 98.0664 173.332 98.0664C182.071 98.4535 190.713 99.2859 199.026 100.447C208.23 101.725 217.396 103.525 226.231 105.809C226.483 105.867 226.716 105.984 226.813 106.158C226.91 106.313 226.91 106.487 226.793 106.622C226.58 106.913 225.902 107.068 225.379 106.951C216.659 104.706 207.649 102.925 198.522 101.667C190.345 100.505 181.8 99.7118 173.158 99.3246C172.887 99.3053 172.615 99.2472 172.441 99.1117C172.247 98.9955 172.15 98.8213 172.189 98.6665C172.228 98.4342 172.422 98.26 172.712 98.1632ZM5.64412 166.301C5.89602 166.224 6.20605 166.185 6.49671 166.243C7.05864 166.34 7.34929 166.689 7.19428 167.018C7.03926 167.308 6.4192 167.502 5.85727 167.405C5.33409 167.289 5.02406 166.96 5.1597 166.65C5.1597 166.65 5.14032 166.631 5.1597 166.631C5.23721 166.495 5.4116 166.379 5.64412 166.301ZM249.154 113.417C249.503 113.301 249.929 113.301 250.259 113.436C250.763 113.63 250.879 114.017 250.569 114.288C250.259 114.559 249.581 114.636 249.096 114.462C248.592 114.269 248.476 113.881 248.786 113.61C248.883 113.514 248.999 113.456 249.154 113.417ZM266.865 121.218C267.252 121.082 267.737 121.121 268.086 121.276C268.338 121.392 268.454 121.528 268.473 121.702C268.512 121.857 268.415 122.031 268.241 122.147C267.873 122.399 267.175 122.437 266.729 122.225C266.729 122.225 266.71 122.205 266.691 122.225C266.516 122.108 266.361 121.973 266.342 121.818C266.342 121.644 266.4 121.489 266.594 121.353C266.691 121.295 266.768 121.237 266.865 121.218ZM270.527 123.134C270.953 122.999 271.477 123.038 271.825 123.25C273.007 123.928 274.151 124.605 275.255 125.225L277.639 126.599C277.949 126.774 278.239 126.967 278.549 127.141C280.313 128.167 281.979 129.135 283.316 130.142L290.582 135.31C291.571 135.988 292.171 136.491 292.481 136.781L292.733 136.994C292.908 137.168 293.024 137.246 293.063 137.285C293.198 137.42 293.256 137.575 293.198 137.749C293.159 137.904 292.985 138.059 292.733 138.136C292.229 138.33 291.59 138.233 291.28 137.962C291.28 137.962 291.067 137.788 290.679 137.439C290.369 137.149 289.846 136.665 288.955 136.104C287.579 135.117 285.661 133.762 283.277 132.058L281.63 130.877C280.429 129.909 278.743 128.942 276.941 127.916L274.926 126.754C273.472 125.902 271.942 125.012 270.333 124.083C270.333 124.083 270.333 124.083 270.314 124.063C269.907 123.831 269.907 123.444 270.314 123.212C270.392 123.192 270.45 123.154 270.527 123.134ZM302.577 147.486C302.596 147.486 302.596 147.486 302.615 147.467C303.139 147.312 303.797 147.428 304.03 147.738C304.03 147.738 304.107 147.815 304.243 147.951L306.161 150.099C306.394 150.37 306.646 150.641 306.917 150.932C307.46 151.493 308.022 152.112 308.622 152.829V152.867C309.378 153.971 310.231 155.19 311.18 156.545C311.684 157.262 312.188 158.036 312.73 158.81L314.203 160.901C314.842 161.946 315.346 163.03 315.908 164.153C316.199 164.733 316.489 165.334 316.799 165.934C317.226 166.805 317.671 167.695 318.117 168.586L318.175 168.702C318.621 169.553 319.066 170.444 319.299 171.392L321.082 177.025C321.159 177.2 321.217 177.374 321.275 177.567C321.411 177.877 320.985 178.206 320.442 178.284C319.88 178.342 319.338 178.129 319.183 177.8C319.144 177.626 319.086 177.471 319.028 177.277L318.911 176.967C318.33 175.167 317.768 173.367 317.187 171.567C316.993 170.696 316.547 169.844 316.102 168.953L316.063 168.915C315.831 168.431 315.598 167.966 315.365 167.502L314.745 166.282C314.416 165.624 314.106 165.004 313.815 164.385C313.273 163.301 312.788 162.275 312.207 161.307L309.029 156.739C308.157 155.5 307.363 154.339 306.646 153.293C306.103 152.635 305.561 152.035 305.038 151.493C304.766 151.183 304.514 150.912 304.262 150.641C302.945 149.151 302.15 148.318 302.131 148.299C301.918 148.009 302.092 147.641 302.577 147.486ZM321.392 192.802C321.566 192.744 321.74 192.724 321.934 192.724C322.225 192.724 322.496 192.802 322.69 192.918C322.903 193.034 323 193.189 323 193.363C322.981 193.692 322.477 193.983 321.896 193.963C321.624 193.963 321.372 193.886 321.14 193.77C320.946 193.654 320.83 193.499 320.849 193.324C320.869 193.092 321.062 192.899 321.392 192.802ZM319.551 205.578C319.764 205.5 320.035 205.481 320.287 205.5C320.849 205.558 321.237 205.887 321.14 206.217C321.062 206.488 320.965 206.739 320.888 206.952C320.83 207.088 320.772 207.204 320.752 207.301L320.481 207.978C320.384 208.307 319.783 208.52 319.221 208.462C318.66 208.385 318.272 208.055 318.408 207.726L318.64 207.049C318.698 206.933 318.718 206.817 318.756 206.681C318.853 206.468 318.931 206.236 319.008 205.984C319.105 205.829 319.28 205.675 319.551 205.578ZM30.2529 243.731C30.7567 243.557 31.3767 243.634 31.6868 243.906C31.7061 243.925 31.9193 244.099 32.3068 244.447C32.5781 244.719 33.1013 245.164 34.0314 245.783C35.7172 246.983 38.178 248.745 41.3559 250.971C42.5379 251.919 44.2043 252.868 45.9288 253.875C46.2195 254.029 46.5489 254.223 46.8589 254.397C48.6804 255.462 50.618 256.585 52.672 257.785C52.8852 257.901 52.982 258.056 52.982 258.211C52.982 258.385 52.8852 258.52 52.6914 258.656C52.3038 258.888 51.5869 258.869 51.18 258.656L50.7537 258.404C48.8741 257.281 47.0527 256.256 45.3669 255.268C45.0375 255.075 44.7081 254.881 44.3787 254.688C42.6347 253.681 40.9877 252.732 39.6894 251.726L32.4231 246.557C31.4736 245.919 30.8535 245.415 30.5241 245.086L30.2529 244.854C30.0978 244.699 29.9816 244.622 29.9622 244.583C29.9622 244.583 29.9622 244.583 29.9428 244.564C29.6328 244.293 29.7684 243.906 30.2722 243.712L30.2529 243.731ZM55.0166 259.624C55.4042 259.488 55.8886 259.527 56.2374 259.682C56.4699 259.779 56.6055 259.933 56.6249 260.108C56.6249 260.282 56.5668 260.437 56.3536 260.553C56.0048 260.805 55.2879 260.824 54.881 260.611C54.4353 260.398 54.3578 260.011 54.726 259.759C54.8035 259.721 54.9197 259.662 55.0166 259.624ZM72.7659 267.425C73.0953 267.309 73.541 267.309 73.8704 267.444C74.1223 267.541 74.2773 267.696 74.3355 267.831C74.413 268.006 74.3355 268.16 74.1804 268.277C73.8898 268.567 73.1922 268.625 72.7078 268.451C72.4559 268.373 72.3009 268.218 72.2427 268.064C72.1846 267.909 72.2427 267.735 72.4171 267.618C72.4946 267.56 72.6109 267.483 72.7659 267.425ZM96.619 275.013C96.9096 274.916 97.2584 274.916 97.5878 274.994C106.327 277.22 115.337 279.001 124.444 280.259C132.602 281.44 141.147 282.214 149.809 282.601C150.39 282.64 150.816 282.93 150.797 283.259C150.739 283.608 150.235 283.859 149.634 283.84C140.857 283.433 132.234 282.64 123.94 281.459C114.736 280.181 105.59 278.381 96.7352 276.097C96.212 275.961 95.9408 275.613 96.1927 275.284C96.2896 275.168 96.4252 275.071 96.619 275.013ZM316.257 214.54C316.528 214.443 316.819 214.424 317.109 214.482C317.361 214.54 317.594 214.637 317.749 214.792C317.865 214.947 317.904 215.102 317.807 215.276C317.807 215.276 317.807 215.276 317.807 215.295C317.633 215.586 317.013 215.779 316.47 215.663C315.908 215.566 315.617 215.218 315.772 214.889C315.869 214.734 316.044 214.618 316.257 214.54ZM314.804 217.27C315.036 217.192 315.365 217.153 315.656 217.212C316.218 217.328 316.528 217.657 316.354 217.986C316.141 218.392 315.908 218.818 315.656 219.302C314.997 220.541 314.164 222.109 313.118 223.871L313.098 223.89C312.866 224.238 312.614 224.567 312.343 224.916C308.564 230.2 303.352 237.421 293.838 244.912C293.353 245.299 292.83 245.706 292.326 246.112C291.997 246.364 291.299 246.441 290.854 246.248C290.389 246.035 290.272 245.667 290.621 245.396C291.125 244.99 291.629 244.602 292.094 244.196C301.472 236.801 306.646 229.658 310.386 224.432L311.103 223.445C312.168 221.683 313.001 220.115 313.66 218.857C313.893 218.412 314.125 218.005 314.339 217.618C314.319 217.599 314.319 217.599 314.319 217.599C314.397 217.444 314.571 217.328 314.804 217.27ZM154.149 282.872C154.324 282.814 154.517 282.775 154.73 282.795C155.312 282.814 155.757 283.104 155.738 283.433C155.719 283.762 155.196 284.034 154.634 284.034C154.052 284.014 153.587 283.724 153.607 283.395C153.607 283.162 153.82 282.988 154.149 282.872ZM176.355 282.62C176.51 282.562 176.646 282.543 176.801 282.524C177.091 282.524 177.363 282.562 177.595 282.678C177.808 282.775 177.944 282.93 177.944 283.085C178.002 283.414 177.576 283.724 176.975 283.743C176.975 283.743 176.975 283.743 176.956 283.743C176.704 283.743 176.413 283.704 176.22 283.588C176.006 283.492 175.871 283.337 175.832 283.182C175.793 282.949 176.006 282.737 176.355 282.62ZM203.095 279.891C203.173 279.872 203.27 279.852 203.347 279.833C220.283 277.22 236.424 273.038 251.092 267.309C251.421 267.173 251.77 267.038 252.1 266.922C252.584 266.728 253.262 266.805 253.592 267.096C253.921 267.367 253.805 267.773 253.34 267.947C253.146 268.006 252.991 268.083 252.817 268.141C252.642 268.218 252.468 268.277 252.313 268.354C237.548 274.103 221.077 278.4 203.929 281.052C203.347 281.13 202.766 280.956 202.63 280.607C202.456 280.298 202.669 280.027 203.095 279.891ZM273.143 256.991C273.589 256.836 274.112 256.875 274.461 257.088C274.868 257.32 274.848 257.727 274.422 257.959C274.015 258.211 273.337 258.191 272.93 257.94C272.523 257.688 272.523 257.32 272.949 257.088C273.007 257.049 273.085 257.01 273.143 256.991ZM256.188 265.237C256.673 265.063 257.293 265.16 257.603 265.412C257.952 265.683 257.855 266.07 257.37 266.263C256.925 266.476 256.227 266.399 255.878 266.128C255.549 265.857 255.646 265.47 256.111 265.276C256.149 265.257 256.169 265.237 256.188 265.237Z" fill="url(#paint7_linear)"/>
<path d="M262.122 171.462V243.024C262.122 245.122 261.385 246.567 260.239 247.357L260.13 247.439C260.103 247.439 260.103 247.439 260.103 247.466L236.998 260.928L238.28 247.793L232.661 244.55L86.5557 160.262C82.7639 158.082 79.6814 152.741 79.6814 148.38V98.8103L65.6602 84.9667L88.7925 71.4773L173.493 139.878C174.148 140.396 174.775 140.805 175.457 141.213C176.084 141.568 176.739 141.867 177.367 142.113L262.122 171.462Z" fill="url(#paint8_linear)"/>
<path d="M262.121 171.462V243.024C262.121 245.123 261.385 246.567 260.239 247.357L260.13 247.439C260.103 247.439 260.103 247.439 260.103 247.466L236.997 260.928L238.28 247.793L232.66 244.55L238.989 184.925L262.121 171.462Z" fill="url(#paint9_linear)"/>
<path d="M238.962 184.925V256.487C238.962 260.847 235.907 262.618 232.088 260.411L72.5344 168.411C68.7427 166.231 65.6602 160.889 65.6602 156.556V84.9673L150.388 153.341C151.015 153.859 151.67 154.295 152.325 154.676C152.952 155.058 153.634 155.357 154.234 155.575L238.962 184.925Z" fill="url(#paint10_linear)"/>
<path d="M255.933 97.4754L86.4501 0.569778C85.3589 -0.0570015 84.3769 -0.138755 83.6131 0.18826V0.161009L83.5312 0.215511C83.4494 0.242763 83.3676 0.297265 83.313 0.351768L65.5 10.5437L74.9384 16.7298V67.3627C74.9384 69.7063 76.3842 72.5404 78.3756 74.1483L161.194 141.023C161.739 141.459 162.312 141.813 162.885 142.004L241.393 169.228L241.202 177.976L259.07 167.865L259.043 167.838C259.752 167.375 260.188 166.476 260.188 165.222V104.833C260.216 102.135 258.279 98.8379 255.933 97.4754Z" fill="url(#paint11_linear)"/>
<path d="M64 13.4049V73.712C64 76.0556 65.4458 78.8898 67.4371 80.4976L150.255 147.372C150.801 147.808 151.374 148.163 151.947 148.353L238.611 178.384C240.603 179.065 242.048 177.894 242.048 175.55V115.216C242.048 112.518 240.139 109.193 237.766 107.831L68.2828 10.9523C65.9095 9.58976 64 10.6798 64 13.4049Z" fill="url(#paint12_linear)"/>
<path d="M160.133 163.315L144.502 154.294C142.265 153.014 140.465 149.553 140.465 146.582V136.281C140.465 133.311 142.265 131.948 144.502 133.229L160.133 142.249C162.37 143.53 164.17 146.991 164.17 149.961V160.262C164.17 163.26 162.37 164.623 160.133 163.315Z" fill="url(#paint13_linear)"/>
<path d="M186.425 69.6794L183.779 71.478L179.114 65.4827V51.1486C179.114 46.5976 175.896 41.0383 171.94 38.7765L138.333 19.3736C134.377 17.0844 131.158 18.9103 131.158 23.4612V37.7954L128.512 39.594L123.848 33.5987V19.2646C123.848 10.1081 130.34 6.40194 138.333 11.0074L171.94 30.3831C179.933 34.9885 186.425 46.1888 186.425 55.3453V69.6794Z" fill="url(#paint14_linear)"/>
<path d="M183.784 71.4777L176.474 67.2537V52.9195C176.474 48.3686 173.255 42.8093 169.299 40.5475L135.692 21.1718C131.737 18.8827 128.518 20.7085 128.518 25.2595V39.5937L121.207 35.3697V21.0355C121.207 11.8791 127.699 8.17294 135.692 12.7784L169.299 32.1541C177.292 36.7595 183.784 47.9598 183.784 57.1162V71.4777Z" fill="url(#paint15_linear)"/>
<defs>
<linearGradient id="paint0_linear" x1="216.355" y1="100.156" x2="96.2976" y2="273.97" gradientUnits="userSpaceOnUse">
<stop stop-color="#3B00E9"/>
<stop offset="0.443" stop-color="#3308B7" stop-opacity="0.557"/>
<stop offset="1" stop-color="#2A117C" stop-opacity="0"/>
</linearGradient>
<linearGradient id="paint1_linear" x1="278.708" y1="141.899" x2="160.188" y2="313.487" gradientUnits="userSpaceOnUse">
<stop stop-color="#3B00E9"/>
<stop offset="0.443" stop-color="#3308B7" stop-opacity="0.557"/>
<stop offset="1" stop-color="#2A117C" stop-opacity="0"/>
</linearGradient>
<linearGradient id="paint2_linear" x1="308.463" y1="160.138" x2="186.822" y2="336.244" gradientUnits="userSpaceOnUse">
<stop stop-color="#3B00E9"/>
<stop offset="0.443" stop-color="#3308B7" stop-opacity="0.557"/>
<stop offset="1" stop-color="#2A117C" stop-opacity="0"/>
</linearGradient>
<linearGradient id="paint3_linear" x1="34.4316" y1="145.614" x2="49.4978" y2="171.733" gradientUnits="userSpaceOnUse">
<stop stop-color="#E5024E"/>
<stop offset="0.233" stop-color="#C4016C" stop-opacity="0.8232"/>
<stop offset="0.7556" stop-color="#7F00AB" stop-opacity="0.4264"/>
<stop offset="1" stop-color="#6400C4" stop-opacity="0.2409"/>
</linearGradient>
<linearGradient id="paint4_linear" x1="228.54" y1="128.739" x2="272.269" y2="204.55" gradientUnits="userSpaceOnUse">
<stop stop-color="#E5024E"/>
<stop offset="0.233" stop-color="#C4016C" stop-opacity="0.8232"/>
<stop offset="0.7556" stop-color="#7F00AB" stop-opacity="0.4264"/>
<stop offset="1" stop-color="#6400C4" stop-opacity="0.2409"/>
</linearGradient>
<linearGradient id="paint5_linear" x1="127.857" y1="244.874" x2="161.552" y2="303.29" gradientUnits="userSpaceOnUse">
<stop stop-color="#E5024E"/>
<stop offset="0.233" stop-color="#C4016C" stop-opacity="0.8232"/>
<stop offset="0.7556" stop-color="#7F00AB" stop-opacity="0.4264"/>
<stop offset="1" stop-color="#6400C4" stop-opacity="0.2409"/>
</linearGradient>
<linearGradient id="paint6_linear" x1="54.2204" y1="129.04" x2="161.36" y2="314.781" gradientUnits="userSpaceOnUse">
<stop stop-color="#3B00E9" stop-opacity="0.5"/>
<stop offset="1" stop-color="#310AA8" stop-opacity="0.403"/>
</linearGradient>
<linearGradient id="paint7_linear" x1="174.82" y1="288.833" x2="149.863" y2="91.1624" gradientUnits="userSpaceOnUse">
<stop stop-color="#3B00E9" stop-opacity="0.2"/>
<stop offset="0.443" stop-color="#3308B7" stop-opacity="0.1114"/>
<stop offset="1" stop-color="#2A117C" stop-opacity="0"/>
</linearGradient>
<linearGradient id="paint8_linear" x1="95.7096" y1="82.7735" x2="261.263" y2="258.792" gradientUnits="userSpaceOnUse">
<stop stop-color="#2D1B86"/>
<stop offset="1" stop-color="#6D34DB"/>
</linearGradient>
<linearGradient id="paint9_linear" x1="230.728" y1="196.214" x2="270.26" y2="238.245" gradientUnits="userSpaceOnUse">
<stop stop-color="#7A43F0"/>
<stop offset="1" stop-color="#6D34DB"/>
</linearGradient>
<linearGradient id="paint10_linear" x1="242.75" y1="268.015" x2="100.624" y2="281.586" gradientUnits="userSpaceOnUse">
<stop stop-color="#3922AA"/>
<stop offset="1" stop-color="#7F3DFF"/>
</linearGradient>
<linearGradient id="paint11_linear" x1="222.356" y1="252.584" x2="157.839" y2="56.1116" gradientUnits="userSpaceOnUse">
<stop stop-color="#6A74E0"/>
<stop offset="1" stop-color="#B3BBFF"/>
</linearGradient>
<linearGradient id="paint12_linear" x1="151.305" y1="216.571" x2="153.351" y2="69.83" gradientUnits="userSpaceOnUse">
<stop stop-color="#7583FF"/>
<stop offset="1" stop-color="#DBDFFF"/>
</linearGradient>
<linearGradient id="paint13_linear" x1="148.903" y1="155.154" x2="157.244" y2="140.693" gradientUnits="userSpaceOnUse">
<stop stop-color="#E89018"/>
<stop offset="0.2615" stop-color="#EEA632"/>
<stop offset="1" stop-color="#FFE278"/>
</linearGradient>
<linearGradient id="paint14_linear" x1="124.36" y1="19.7685" x2="186.937" y2="19.7685" gradientUnits="userSpaceOnUse">
<stop stop-color="#341F9C"/>
<stop offset="1" stop-color="#5B2ECC"/>
</linearGradient>
<linearGradient id="paint15_linear" x1="121.718" y1="19.8977" x2="184.295" y2="19.8977" gradientUnits="userSpaceOnUse">
<stop stop-color="#5C30D5"/>
<stop offset="1" stop-color="#7F3DFF"/>
</linearGradient>
</defs>
</svg>
