<svg width="55" height="55" viewBox="0 0 55 55" fill="none" xmlns="http://www.w3.org/2000/svg">
<path d="M43.2136 6H10.7864C7.58252 6 5 8.58252 5 11.7864V44.2136C5 47.4175 7.58252 50 10.7864 50H43.2136C46.4175 50 49 47.4175 49 44.2136V11.7864C49 8.58252 46.3981 6 43.2136 6ZM44.9612 41.7476C44.9612 44.0777 43.0777 45.9612 40.7476 45.9612H13.2524C10.9223 45.9612 9.03883 44.0777 9.03883 41.7476V14.2524C9.03883 11.9223 10.9223 10.0388 13.2524 10.0388H40.7476C43.0777 10.0388 44.9612 11.9223 44.9612 14.2524V41.7476Z" fill="url(#paint0_linear)"/>
<path d="M40.7474 12.9707H13.2523C12.5532 12.9707 11.9707 13.5532 11.9707 14.2523V41.7474C11.9707 42.4464 12.5532 43.029 13.2523 43.029H40.7474C41.4464 43.029 42.029 42.4464 42.029 41.7474V14.2523C42.029 13.5338 41.4464 12.9707 40.7474 12.9707Z" fill="url(#paint1_linear)"/>
<g filter="url(#filter0_d)">
<path d="M38.0097 29.4569H35.7185C35.4855 30.8161 34.9418 32.0783 34.1651 33.1657L35.7962 34.7967C36.3593 35.3598 36.3593 36.2919 35.7962 36.8744C35.5049 37.1657 35.136 37.3016 34.767 37.3016C34.3981 37.3016 34.0097 37.1657 33.7379 36.8744L32.0874 35.2239C31 35.9812 29.7573 36.5055 28.3981 36.7191V39.088C28.3981 39.9035 27.7379 40.5637 26.9224 40.5637C26.1068 40.5637 25.4466 39.9035 25.4466 39.088V36.6996C24.1068 36.4666 22.8835 35.9229 21.835 35.1657L20.1068 36.8938C19.8156 37.1851 19.4466 37.321 19.0777 37.321C18.7088 37.321 18.3204 37.1851 18.0486 36.8938C17.4855 36.3113 17.4855 35.3987 18.0486 34.8161L19.7767 33.088C19.0389 32.0394 18.5146 30.7967 18.301 29.4763H15.8156C15 29.4763 14.3398 28.8161 14.3398 28.0006C14.3398 27.1851 15 26.5249 15.8156 26.5249H18.2816C18.4952 25.2045 19.0195 23.9812 19.7573 22.9132L18.0292 21.1851C17.4661 20.622 17.4661 19.6899 18.0292 19.1074C18.5923 18.5443 19.5243 18.5443 20.1068 19.1074L21.8156 20.8161C22.8835 20.0589 24.1068 19.5152 25.4466 19.2822V16.9132C25.4466 16.0977 26.1068 15.4375 26.9224 15.4375C27.7379 15.4375 28.3981 16.0977 28.3981 16.9132V19.2822C29.7573 19.4958 31.0195 20.02 32.0874 20.7773L33.7379 19.1268C34.301 18.5637 35.233 18.5637 35.8156 19.1268C36.3981 19.7093 36.3981 20.622 35.8156 21.2045L34.1845 22.8356C34.9612 23.9229 35.5049 25.1657 35.7379 26.5443H38.0097C38.8253 26.5443 39.4855 27.2045 39.4855 28.02C39.4661 28.8161 38.8059 29.4569 38.0097 29.4569Z" fill="url(#paint2_linear)"/>
</g>
<g filter="url(#filter1_d)">
<path d="M26.9996 22.0771C23.7375 22.0771 21.0967 24.7373 21.0967 27.9801C21.0967 31.2422 23.7569 33.883 26.9996 33.883C30.2617 33.883 32.9025 31.2228 32.9025 27.9801C32.9025 24.7373 30.2617 22.0771 26.9996 22.0771ZM26.9996 30.349C25.6986 30.349 24.6501 29.3005 24.6501 27.9995C24.6501 26.6985 25.6986 25.65 26.9996 25.65C28.3006 25.65 29.3491 26.6985 29.3491 27.9995C29.3491 29.3005 28.3006 30.349 26.9996 30.349Z" fill="url(#paint3_linear)"/>
</g>
<defs>
<filter id="filter0_d" x="10.3398" y="13.4375" width="33.1456" height="33.1262" filterUnits="userSpaceOnUse" color-interpolation-filters="sRGB">
<feFlood flood-opacity="0" result="BackgroundImageFix"/>
<feColorMatrix in="SourceAlpha" type="matrix" values="0 0 0 0 0 0 0 0 0 0 0 0 0 0 0 0 0 0 127 0"/>
<feOffset dy="2"/>
<feGaussianBlur stdDeviation="2"/>
<feColorMatrix type="matrix" values="0 0 0 0 0.501961 0 0 0 0 0.243137 0 0 0 0 1 0 0 0 0.4 0"/>
<feBlend mode="normal" in2="BackgroundImageFix" result="effect1_dropShadow"/>
<feBlend mode="normal" in="SourceGraphic" in2="effect1_dropShadow" result="shape"/>
</filter>
<filter id="filter1_d" x="19.0967" y="22.0771" width="15.8058" height="15.8058" filterUnits="userSpaceOnUse" color-interpolation-filters="sRGB">
<feFlood flood-opacity="0" result="BackgroundImageFix"/>
<feColorMatrix in="SourceAlpha" type="matrix" values="0 0 0 0 0 0 0 0 0 0 0 0 0 0 0 0 0 0 127 0"/>
<feOffset dy="2"/>
<feGaussianBlur stdDeviation="1"/>
<feColorMatrix type="matrix" values="0 0 0 0 0.0901961 0 0 0 0 0.0392157 0 0 0 0 0.364706 0 0 0 0.3 0"/>
<feBlend mode="normal" in2="BackgroundImageFix" result="effect1_dropShadow"/>
<feBlend mode="normal" in="SourceGraphic" in2="effect1_dropShadow" result="shape"/>
</filter>
<linearGradient id="paint0_linear" x1="26.9776" y1="50.0541" x2="26.9776" y2="5.97907" gradientUnits="userSpaceOnUse">
<stop stop-color="#BDA6FB"/>
<stop offset="1" stop-color="#F0EAFE"/>
</linearGradient>
<linearGradient id="paint1_linear" x1="26.9845" y1="43.0659" x2="26.9845" y2="5.90276" gradientUnits="userSpaceOnUse">
<stop stop-color="#BDA6FB"/>
<stop offset="1" stop-color="#F0EAFE"/>
</linearGradient>
<linearGradient id="paint2_linear" x1="26.9217" y1="41.3119" x2="26.9217" y2="4.6823" gradientUnits="userSpaceOnUse">
<stop stop-color="#EDE6FE"/>
<stop offset="0.1339" stop-color="#F1ECFE"/>
<stop offset="0.6046" stop-color="#FBFAFF"/>
<stop offset="1" stop-color="white"/>
</linearGradient>
<linearGradient id="paint3_linear" x1="26.9936" y1="33.8975" x2="26.9936" y2="22.0715" gradientUnits="userSpaceOnUse">
<stop stop-color="#BDA6FB"/>
<stop offset="1" stop-color="#F0EAFE"/>
</linearGradient>
</defs>
</svg>
