<svg width="55" height="55" viewBox="0 0 55 55" fill="none" xmlns="http://www.w3.org/2000/svg">
<path d="M5 42.7656C5 44.9982 6.80678 46.8107 9.04432 46.8107H46.915C49.1405 46.8107 50.9593 44.9982 50.9593 42.7536V41.4092H5V42.7656Z" fill="url(#paint0_linear)"/>
<path d="M7.69238 38.7085H48.2553V11.8808C48.2553 10.2844 46.975 9 45.3836 9H10.5641C8.97269 9 7.69238 10.2844 7.69238 11.8808V38.7085Z" fill="url(#paint1_linear)"/>
<g filter="url(#filter0_d)">
<path d="M29.3135 15.7574H32.0057V13.0566H34.7099V15.7574H37.4021V31.9621H34.7099V34.6628H32.0057V31.9621H29.3135V15.7574Z" fill="url(#paint2_linear)"/>
</g>
<g filter="url(#filter1_d)">
<path d="M18.5449 21.1598H21.2491V18.459H23.9413V21.1598H26.6336V31.9629H23.9413V34.6636H21.2491V31.9629H18.5449V21.1598Z" fill="url(#paint3_linear)"/>
</g>
<defs>
<filter id="filter0_d" x="25.3135" y="11.0566" width="16.0887" height="29.6062" filterUnits="userSpaceOnUse" color-interpolation-filters="sRGB">
<feFlood flood-opacity="0" result="BackgroundImageFix"/>
<feColorMatrix in="SourceAlpha" type="matrix" values="0 0 0 0 0 0 0 0 0 0 0 0 0 0 0 0 0 0 127 0"/>
<feOffset dy="2"/>
<feGaussianBlur stdDeviation="2"/>
<feColorMatrix type="matrix" values="0 0 0 0 0.501961 0 0 0 0 0.243137 0 0 0 0 1 0 0 0 0.21 0"/>
<feBlend mode="normal" in2="BackgroundImageFix" result="effect1_dropShadow"/>
<feBlend mode="normal" in="SourceGraphic" in2="effect1_dropShadow" result="shape"/>
</filter>
<filter id="filter1_d" x="14.5449" y="16.459" width="16.0886" height="24.2046" filterUnits="userSpaceOnUse" color-interpolation-filters="sRGB">
<feFlood flood-opacity="0" result="BackgroundImageFix"/>
<feColorMatrix in="SourceAlpha" type="matrix" values="0 0 0 0 0 0 0 0 0 0 0 0 0 0 0 0 0 0 127 0"/>
<feOffset dy="2"/>
<feGaussianBlur stdDeviation="2"/>
<feColorMatrix type="matrix" values="0 0 0 0 0.501961 0 0 0 0 0.243137 0 0 0 0 1 0 0 0 0.21 0"/>
<feBlend mode="normal" in2="BackgroundImageFix" result="effect1_dropShadow"/>
<feBlend mode="normal" in="SourceGraphic" in2="effect1_dropShadow" result="shape"/>
</filter>
<linearGradient id="paint0_linear" x1="27.9563" y1="46.8174" x2="27.9563" y2="41.4066" gradientUnits="userSpaceOnUse">
<stop stop-color="#BDA6FB"/>
<stop offset="1" stop-color="#F0EAFE"/>
</linearGradient>
<linearGradient id="paint1_linear" x1="27.9532" y1="38.745" x2="27.9532" y2="8.98587" gradientUnits="userSpaceOnUse">
<stop stop-color="#BDA6FB"/>
<stop offset="1" stop-color="#F0EAFE"/>
</linearGradient>
<linearGradient id="paint2_linear" x1="33.3607" y1="35.3062" x2="33.3607" y2="3.80818" gradientUnits="userSpaceOnUse">
<stop stop-color="#EDE6FE"/>
<stop offset="0.1339" stop-color="#F1ECFE"/>
<stop offset="0.6046" stop-color="#FBFAFF"/>
<stop offset="1" stop-color="white"/>
</linearGradient>
<linearGradient id="paint3_linear" x1="22.5922" y1="35.1461" x2="22.5922" y2="11.5226" gradientUnits="userSpaceOnUse">
<stop stop-color="#EDE6FE"/>
<stop offset="0.1339" stop-color="#F1ECFE"/>
<stop offset="0.6046" stop-color="#FBFAFF"/>
<stop offset="1" stop-color="white"/>
</linearGradient>
</defs>
</svg>
