<?xml version="1.0" encoding="utf-8"?>
<!-- Generator: Adobe Illustrator 25.2.3, SVG Export Plug-In . SVG Version: 6.00 Build 0)  -->
<svg version="1.1" id="Layer_1" xmlns="http://www.w3.org/2000/svg" xmlns:xlink="http://www.w3.org/1999/xlink" x="0px" y="0px"
	 viewBox="0 0 20 20" style="enable-background:new 0 0 20 20;" xml:space="preserve">
<style type="text/css">
	.st0{fill:#FFFFFF;}
</style>
<g>
	<path class="st0" d="M16.1,9.4l-3.5-3.5c-0.2-0.2-0.6-0.2-0.8,0s-0.2,0.6,0,0.8l2.6,2.6H1.7v1.1h12.7L11.8,13
		c-0.2,0.2-0.2,0.6,0,0.8s0.6,0.2,0.8,0l3.5-3.5C16.4,10,16.4,9.6,16.1,9.4z"/>
	<path class="st0" d="M16.1,0.4h-5.9c-1.1,0-2,0.9-2,2v2.2h1.1V2.4c0-0.5,0.4-0.9,0.9-0.9h5.9c0.9,0,1.7,0.7,1.7,1.7v13.7
		c0,0.9-0.7,1.7-1.7,1.7h-5.9c-0.5,0-0.9-0.4-0.9-0.9v-2.2H8.1v2.2c0,1.1,0.9,2,2,2h5.9c1.5,0,2.8-1.2,2.8-2.8V3.1
		C18.9,1.6,17.7,0.4,16.1,0.4z"/>
</g>
</svg>
