<?xml version="1.0" encoding="utf-8"?>
<!-- Generator: Adobe Illustrator 25.3.0, SVG Export Plug-In . SVG Version: 6.00 Build 0)  -->
<svg version="1.1" id="Layer_1" xmlns="http://www.w3.org/2000/svg" xmlns:xlink="http://www.w3.org/1999/xlink" x="0px" y="0px"
	 viewBox="0 0 33 33" style="enable-background:new 0 0 33 33;" xml:space="preserve">
<style type="text/css">
	.st0{fill:url(#SVGID_1_);}
	.st1{fill:url(#SVGID_2_);}
	.st2{fill:url(#SVGID_3_);}
	.st3{fill:url(#SVGID_4_);}
	.st4{fill:url(#SVGID_5_);}
</style>
<g>
	
		<linearGradient id="SVGID_1_" gradientUnits="userSpaceOnUse" x1="298.0475" y1="-357.7812" x2="299.8282" y2="-357.7812" gradientTransform="matrix(1 0 0 -1 -289.5 -346.5)">
		<stop  offset="0" style="stop-color:#803EFF"/>
		<stop  offset="0.272" style="stop-color:#742AEA"/>
		<stop  offset="0.7391" style="stop-color:#620BCB"/>
		<stop  offset="1" style="stop-color:#5B00BF"/>
	</linearGradient>
	<path class="st0" d="M9.6,9.5H9.2L8.6,13h1.8L9.6,9.5z"/>
	
		<linearGradient id="SVGID_2_" gradientUnits="userSpaceOnUse" x1="313.3484" y1="-364.3267" x2="316.2928" y2="-364.3267" gradientTransform="matrix(1 0 0 -1 -289.5 -346.5)">
		<stop  offset="0" style="stop-color:#803EFF"/>
		<stop  offset="0.272" style="stop-color:#742AEA"/>
		<stop  offset="0.7391" style="stop-color:#620BCB"/>
		<stop  offset="1" style="stop-color:#5B00BF"/>
	</linearGradient>
	<path class="st1" d="M25.3,19.1c0.6-0.7,1.1-1.5,1.5-2.5h-2.9C24.2,17.6,24.7,18.4,25.3,19.1z"/>
	
		<linearGradient id="SVGID_3_" gradientUnits="userSpaceOnUse" x1="305.2195" y1="-365.6667" x2="320.9992" y2="-365.6667" gradientTransform="matrix(1 0 0 -1 -289.5 -346.5)">
		<stop  offset="0" style="stop-color:#803EFF"/>
		<stop  offset="0.272" style="stop-color:#742AEA"/>
		<stop  offset="0.7391" style="stop-color:#620BCB"/>
		<stop  offset="1" style="stop-color:#5B00BF"/>
	</linearGradient>
	<path class="st2" d="M28.9,6.8H17.9l2.3,18.3c0,0.7-0.2,1.5-0.7,2l-3.9,4.4h13.1c1.5,0,2.6-1.2,2.6-2.6V9.5
		C31.5,8.1,30.3,6.8,28.9,6.8z M28.9,16.6h-0.2c-0.5,1.6-1.3,2.9-2.1,3.9c0.6,0.6,1.3,1.1,2,1.6c0.4,0.3,0.4,0.9,0.1,1.2
		c-0.3,0.4-0.9,0.4-1.2,0.1c-0.7-0.6-1.4-1.1-2.1-1.7c-0.7,0.6-1.3,1.1-2.1,1.7c-0.4,0.3-0.9,0.2-1.2-0.1c-0.3-0.4-0.2-0.9,0.1-1.2
		c0.7-0.5,1.3-1,2-1.6c-0.8-1-1.6-2.2-2.1-3.9h-0.2c-0.5,0-0.9-0.4-0.9-0.9c0-0.5,0.4-0.9,0.9-0.9h2.6v-0.9c0-0.5,0.4-0.9,0.9-0.9
		c0.5,0,0.9,0.4,0.9,0.9v0.9h2.7c0.5,0,0.9,0.4,0.9,0.9C29.7,16.2,29.3,16.6,28.9,16.6z"/>
	
		<linearGradient id="SVGID_4_" gradientUnits="userSpaceOnUse" x1="291.0008" y1="-360.3597" x2="307.9706" y2="-360.3597" gradientTransform="matrix(1 0 0 -1 -289.5 -346.5)">
		<stop  offset="0" style="stop-color:#803EFF"/>
		<stop  offset="0.272" style="stop-color:#742AEA"/>
		<stop  offset="0.7391" style="stop-color:#620BCB"/>
		<stop  offset="1" style="stop-color:#5B00BF"/>
	</linearGradient>
	<path class="st3" d="M4.1,26.2c5.3,0,9,0,13.9,0c0.3-0.3,0.5-0.5,0.5-0.9c0-0.1-2.7-21.5-2.7-21.6c-0.2-1.3-1.3-2.3-2.6-2.3H4.1
		c-1.5,0-2.6,1.2-2.6,2.6v19.5C1.5,25,2.7,26.2,4.1,26.2z M7.7,8.5c0.1-0.4,0.4-0.7,0.9-0.7h1.8c0.4,0,0.8,0.3,0.9,0.7l1.8,8.8
		c0.1,0.5-0.2,0.9-0.7,1c-0.5,0.1-0.9-0.2-1-0.7l-0.6-2.8H8.2l-0.6,2.8c-0.1,0.5-0.6,0.8-1,0.7c-0.5-0.1-0.8-0.6-0.7-1L7.7,8.5z"/>
	
		<linearGradient id="SVGID_5_" gradientUnits="userSpaceOnUse" x1="301.2703" y1="-376.1086" x2="305.8896" y2="-376.1086" gradientTransform="matrix(1 0 0 -1 -289.5 -346.5)">
		<stop  offset="0" style="stop-color:#803EFF"/>
		<stop  offset="0.272" style="stop-color:#742AEA"/>
		<stop  offset="0.7391" style="stop-color:#620BCB"/>
		<stop  offset="1" style="stop-color:#5B00BF"/>
	</linearGradient>
	<path class="st4" d="M13.4,31.2c1.7-1.8,0.7-0.7,3-3.2h-4.6l0.1,1.2C12,30,12.6,30.8,13.4,31.2z"/>
</g>
</svg>
