<svg width="78" height="79" viewBox="0 0 78 79" fill="none" xmlns="http://www.w3.org/2000/svg">
<g filter="url(#filter0_d)">
<path d="M66.0364 62.8934C58.9662 69.7494 47.7181 70.1779 38.5054 69.9637C29.5069 69.8565 17.8303 68.8924 11.1886 61.9293C4.43971 54.9662 3.90409 43.7181 4.01121 34.3983C4.11834 25.3998 5.18958 13.7232 12.0456 7.08147C18.9015 0.439741 30.5781 -0.0958824 39.5766 0.0112423C48.7893 0.118367 60.0374 1.08249 66.8934 8.04559C73.6423 14.9016 74.1779 26.5782 73.9636 35.5766C73.8565 44.7894 73.1066 56.1446 66.0364 62.8934Z" fill="url(#paint0_linear)"/>
</g>
<path d="M40.9701 68.9996C40.1131 68.9996 39.2561 68.9996 38.5063 68.9996C28.865 68.7853 18.0454 67.8212 11.9393 61.2866C5.61899 54.6449 4.97624 44.0395 5.08336 34.5054C5.19049 25.5069 6.26173 14.2589 12.7963 7.9385C19.1167 1.83239 29.9363 1.08252 37.5421 1.08252C38.292 1.08252 38.9348 1.08252 39.6846 1.08252C49.1116 1.29677 59.7169 2.26089 66.1444 8.7955C72.4648 15.1159 73.1075 25.9354 72.8933 35.5767C72.679 45.6464 71.7149 55.9304 65.1803 62.1436C58.9671 68.2497 49.0045 68.9996 40.9701 68.9996Z" fill="url(#paint1_linear)"/>
<path d="M73.0001 33.7555C72.8929 24.8642 71.8217 15.6515 66.1441 9.86674C59.7166 3.33214 49.1112 2.36802 39.5772 2.15377C38.9344 2.15377 38.1845 2.15377 37.4347 2.15377C29.9359 2.15377 19.1163 2.90364 12.796 9.00975C6.26138 15.3301 5.29726 26.4711 5.08301 35.5767C5.08301 36.1123 5.08301 36.755 5.08301 37.2907C5.08301 36.3265 5.08301 35.4695 5.08301 34.5054C5.29726 25.5069 6.26138 14.2589 12.796 7.9385C19.1163 1.83239 29.9359 1.08252 37.5418 1.08252C38.2917 1.08252 38.9344 1.08252 39.6843 1.08252C49.1112 1.29677 59.7166 2.26089 66.1441 8.7955C72.0359 14.7945 73.0001 24.5428 73.0001 33.7555Z" fill="url(#paint2_linear)"/>
<path d="M73.0001 32.6841C73.0001 33.6482 73.0001 34.6123 73.0001 35.5764C72.7858 45.6462 71.8217 55.9301 65.2871 62.1434C59.0738 68.1423 49.0041 68.9993 40.9698 68.9993C40.1128 68.9993 39.2558 68.9993 38.5059 68.9993C28.8647 68.8922 18.0451 67.821 11.939 61.2864C6.04713 55.0731 5.08301 45.2177 5.08301 36.2192C5.08301 45.0034 6.26138 54.2161 11.939 60.2151C18.0451 66.7497 28.7576 67.7139 38.5059 67.9281C39.3629 67.9281 40.1128 67.9281 40.9698 67.9281C49.0041 67.9281 59.0738 67.1782 65.2871 61.0721C71.7146 54.8589 72.7858 44.5749 73.0001 34.5052C73.0001 33.8625 73.0001 33.3268 73.0001 32.6841Z" fill="url(#paint3_linear)"/>
<g filter="url(#filter1_d)">
<path d="M45.7447 50.6181H19.6156C18.1477 50.6181 17 49.4437 17 47.9758V16.6156C17 15.1477 18.1477 14 19.6156 14H45.7447C47.2126 14 48.3602 15.1477 48.3602 16.6156V48.0826C48.3602 49.4437 47.2126 50.6181 45.7447 50.6181Z" fill="url(#paint4_linear)"/>
</g>
<path d="M42.9157 36.5525H22.5516C21.7242 36.5525 21.1904 36.0187 21.1904 35.5116C21.1904 34.871 21.8577 34.4707 22.5516 34.4707H42.9157C43.7431 34.4707 44.2769 35.0045 44.2769 35.5116C44.2769 36.0187 43.7164 36.5525 42.9157 36.5525Z" fill="url(#paint5_linear)"/>
<path d="M42.9157 42.8513H22.5516C21.7242 42.8513 21.1904 42.3175 21.1904 41.8104C21.1904 41.1699 21.8577 40.7695 22.5516 40.7695H42.9157C43.7431 40.7695 44.2769 41.3033 44.2769 41.8104C44.2769 42.3175 43.7164 42.8513 42.9157 42.8513Z" fill="url(#paint6_linear)"/>
<g filter="url(#filter2_d)">
<path d="M58.1817 49.5239L57.8081 49.684C56.6071 50.2445 55.6996 51.2587 55.2726 52.4864L55.1391 52.8601C54.1783 55.6358 51.0023 56.9169 48.36 55.6091L47.9863 55.4223C46.812 54.8351 45.4508 54.755 44.2231 55.1821L43.8495 55.3155C41.0737 56.2763 38.1112 54.5949 37.4973 51.7391L37.3906 51.3655C37.1237 50.0844 36.323 48.9634 35.2287 48.2695L34.8818 48.056C32.3996 46.4813 31.8659 43.1184 33.7074 40.8498L33.9743 40.5295C34.8017 39.5153 35.202 38.2075 35.0419 36.8997L35.0152 36.4994C34.6949 33.5902 36.9902 31.0547 39.9261 31.1081H40.3264C41.6342 31.1348 42.9153 30.601 43.8228 29.6935L44.1164 29.4C46.1981 27.3449 49.6144 27.5584 51.4026 29.8537L51.6428 30.174C52.4435 31.2149 53.6445 31.8821 54.9523 32.0422L55.3527 32.0956C58.2618 32.4159 60.2102 35.245 59.5429 38.0741L59.4362 38.4477C59.1159 39.7288 59.3561 41.0633 60.05 42.1843L60.2635 42.5312C61.8115 45.0133 60.824 48.2962 58.1817 49.5239Z" fill="url(#paint7_linear)"/>
</g>
<path d="M41 42.4038L45.4305 46.8342L54.2647 38" stroke="url(#paint8_linear)" stroke-width="3" stroke-miterlimit="10" stroke-linecap="round" stroke-linejoin="round"/>
<path d="M32.0795 32.1759H22.3912C22.0976 32.1759 21.8574 31.9357 21.8574 31.6421V28.9198C21.8574 25.9572 24.2595 23.5552 27.222 23.5552C30.1846 23.5552 32.5866 25.9572 32.5866 28.9198V31.6154C32.6133 31.9357 32.3731 32.1759 32.0795 32.1759Z" fill="url(#paint9_linear)"/>
<path d="M27.2493 24.5157C29.0034 24.5157 30.4254 23.0937 30.4254 21.3396C30.4254 19.5855 29.0034 18.1636 27.2493 18.1636C25.4952 18.1636 24.0732 19.5855 24.0732 21.3396C24.0732 23.0937 25.4952 24.5157 27.2493 24.5157Z" fill="url(#paint10_linear)"/>
<path d="M43.7961 22.3811H35.6024C34.9619 22.3811 34.5615 21.8473 34.5615 21.3402C34.5615 20.6997 35.0953 20.2993 35.6024 20.2993H43.7961C44.4367 20.2993 44.837 20.8331 44.837 21.3402C44.9438 21.874 44.4367 22.3811 43.7961 22.3811Z" fill="url(#paint11_linear)"/>
<defs>
<filter id="filter0_d" x="0" y="0" width="78" height="78.0033" filterUnits="userSpaceOnUse" color-interpolation-filters="sRGB">
<feFlood flood-opacity="0" result="BackgroundImageFix"/>
<feColorMatrix in="SourceAlpha" type="matrix" values="0 0 0 0 0 0 0 0 0 0 0 0 0 0 0 0 0 0 127 0"/>
<feOffset dy="4"/>
<feGaussianBlur stdDeviation="2"/>
<feColorMatrix type="matrix" values="0 0 0 0 0.0446078 0 0 0 0 0 0 0 0 0 0.270833 0 0 0 0.44 0"/>
<feBlend mode="normal" in2="BackgroundImageFix" result="effect1_dropShadow"/>
<feBlend mode="normal" in="SourceGraphic" in2="effect1_dropShadow" result="shape"/>
</filter>
<filter id="filter1_d" x="13" y="14" width="39.3602" height="44.6181" filterUnits="userSpaceOnUse" color-interpolation-filters="sRGB">
<feFlood flood-opacity="0" result="BackgroundImageFix"/>
<feColorMatrix in="SourceAlpha" type="matrix" values="0 0 0 0 0 0 0 0 0 0 0 0 0 0 0 0 0 0 127 0"/>
<feOffset dy="4"/>
<feGaussianBlur stdDeviation="2"/>
<feColorMatrix type="matrix" values="0 0 0 0 0.0901961 0 0 0 0 0.0392157 0 0 0 0 0.364706 0 0 0 0.32 0"/>
<feBlend mode="normal" in2="BackgroundImageFix" result="effect1_dropShadow"/>
<feBlend mode="normal" in="SourceGraphic" in2="effect1_dropShadow" result="shape"/>
</filter>
<filter id="filter2_d" x="28.6104" y="27.9858" width="36.3893" height="36.138" filterUnits="userSpaceOnUse" color-interpolation-filters="sRGB">
<feFlood flood-opacity="0" result="BackgroundImageFix"/>
<feColorMatrix in="SourceAlpha" type="matrix" values="0 0 0 0 0 0 0 0 0 0 0 0 0 0 0 0 0 0 127 0"/>
<feOffset dy="4"/>
<feGaussianBlur stdDeviation="2"/>
<feColorMatrix type="matrix" values="0 0 0 0 0.0901961 0 0 0 0 0.0392157 0 0 0 0 0.364706 0 0 0 0.32 0"/>
<feBlend mode="normal" in2="BackgroundImageFix" result="effect1_dropShadow"/>
<feBlend mode="normal" in="SourceGraphic" in2="effect1_dropShadow" result="shape"/>
</filter>
<linearGradient id="paint0_linear" x1="39.0318" y1="70.0521" x2="39.0318" y2="0.436098" gradientUnits="userSpaceOnUse">
<stop stop-color="#201684"/>
<stop offset="0.2213" stop-color="#2E189D"/>
<stop offset="0.7462" stop-color="#4D1DD5"/>
<stop offset="1" stop-color="#591FEB"/>
</linearGradient>
<linearGradient id="paint1_linear" x1="39.0327" y1="68.9816" x2="39.0327" y2="1.49377" gradientUnits="userSpaceOnUse">
<stop stop-color="#2F2593"/>
<stop offset="0.2213" stop-color="#3D27AC"/>
<stop offset="0.7462" stop-color="#5C2CE4"/>
<stop offset="1" stop-color="#682EFA"/>
</linearGradient>
<linearGradient id="paint2_linear" x1="39.0323" y1="37.2491" x2="39.0323" y2="1.30309" gradientUnits="userSpaceOnUse">
<stop stop-color="#2F2593" stop-opacity="0"/>
<stop offset="0.2533" stop-color="#4A42B1" stop-opacity="0.2533"/>
<stop offset="0.7566" stop-color="#7C76E9" stop-opacity="0.7566"/>
<stop offset="1" stop-color="#908BFF"/>
</linearGradient>
<linearGradient id="paint3_linear" x1="39.0323" y1="68.979" x2="39.0323" y2="32.8842" gradientUnits="userSpaceOnUse">
<stop stop-color="#07006B"/>
<stop offset="0.414" stop-color="#3315AC" stop-opacity="0.586"/>
<stop offset="0.8098" stop-color="#5927E4" stop-opacity="0.1902"/>
<stop offset="1" stop-color="#682EFA" stop-opacity="0"/>
</linearGradient>
<linearGradient id="paint4_linear" x1="32.6642" y1="50.6631" x2="32.6642" y2="13.9826" gradientUnits="userSpaceOnUse">
<stop stop-color="#BDA6FB"/>
<stop offset="1" stop-color="#F0EAFE"/>
</linearGradient>
<linearGradient id="paint5_linear" x1="32.7337" y1="36.5159" x2="32.7337" y2="34.3615" gradientUnits="userSpaceOnUse">
<stop stop-color="#E0D4FE"/>
<stop offset="0.3661" stop-color="#F1EBFF"/>
<stop offset="0.7108" stop-color="#FBFAFF"/>
<stop offset="1" stop-color="white"/>
</linearGradient>
<linearGradient id="paint6_linear" x1="32.7337" y1="42.8094" x2="32.7337" y2="40.655" gradientUnits="userSpaceOnUse">
<stop stop-color="#E0D4FE"/>
<stop offset="0.3661" stop-color="#F1EBFF"/>
<stop offset="0.7108" stop-color="#FBFAFF"/>
<stop offset="1" stop-color="white"/>
</linearGradient>
<linearGradient id="paint7_linear" x1="44.9995" y1="28" x2="44.9995" y2="55" gradientUnits="userSpaceOnUse">
<stop stop-color="white"/>
<stop offset="1" stop-color="#F0EAFE"/>
</linearGradient>
<linearGradient id="paint8_linear" x1="47.6393" y1="48.1612" x2="47.6393" y2="36.6522" gradientUnits="userSpaceOnUse">
<stop stop-color="#4502C6"/>
<stop offset="1" stop-color="#803EFF"/>
</linearGradient>
<linearGradient id="paint9_linear" x1="27.2415" y1="23.7001" x2="27.2415" y2="31.787" gradientUnits="userSpaceOnUse">
<stop stop-color="white"/>
<stop offset="0.3954" stop-color="#FBFAFF"/>
<stop offset="0.8661" stop-color="#F1ECFE"/>
<stop offset="1" stop-color="#EDE6FE"/>
</linearGradient>
<linearGradient id="paint10_linear" x1="27.2421" y1="27.7942" x2="27.2421" y2="18.5319" gradientUnits="userSpaceOnUse">
<stop stop-color="#E0D4FE"/>
<stop offset="0.3661" stop-color="#F1EBFF"/>
<stop offset="1" stop-color="white"/>
</linearGradient>
<linearGradient id="paint11_linear" x1="39.7118" y1="22.3939" x2="39.7118" y2="20.2398" gradientUnits="userSpaceOnUse">
<stop stop-color="#E0D4FE"/>
<stop offset="0.3661" stop-color="#F1EBFF"/>
<stop offset="0.7108" stop-color="#FBFAFF"/>
<stop offset="1" stop-color="white"/>
</linearGradient>
</defs>
</svg>
