<svg width="1539" height="177" viewBox="0 0 1539 177" fill="none" xmlns="http://www.w3.org/2000/svg">
<path d="M0 127.365V128.557L56.7926 176.915L57.4925 176.319L0 127.365ZM0 109.657V110.848L77.6899 177L78.3898 176.404L0 109.657ZM0 91.8629V93.0548L98.4872 176.915L99.1871 176.319L0 91.8629ZM0 74.0693V75.2612L119.384 176.915L120.084 176.319L0 74.0693ZM0 56.3607V57.5527L140.282 177L140.982 176.404L0 56.3607ZM0 38.5671V39.759L161.079 176.915L161.779 176.319L0 38.5671ZM0 20.7734V21.9654L181.976 176.915L182.676 176.319L0 20.7734ZM0 2.9798V4.25685L202.874 177L203.574 176.404L0 2.9798ZM17.2978 0L16.5978 0.59596L223.671 176.915L224.371 176.319L17.2978 0ZM38.195 0L37.4951 0.59596L244.568 176.915L245.268 176.319L38.195 0ZM59.0923 0L58.3924 0.59596L265.466 176.915L266.165 176.319L59.0923 0ZM79.8896 0L79.1897 0.59596L286.263 176.915L286.963 176.319L79.8896 0ZM100.787 0L100.087 0.59596L307.16 176.915L307.86 176.319L100.787 0ZM121.684 0L120.984 0.59596L328.057 176.915L328.757 176.319L121.684 0ZM142.481 0L141.782 0.59596L348.955 176.915L349.655 176.319L142.481 0ZM163.379 0L162.679 0.59596L369.752 176.915L370.452 176.319L163.379 0ZM184.276 0L183.576 0.59596L390.649 176.915L391.349 176.319L184.276 0ZM205.073 0L204.373 0.59596L411.447 176.915L412.146 176.319L205.073 0ZM225.971 0L225.271 0.59596L432.344 176.915L433.044 176.319L225.971 0ZM246.868 0L246.168 0.59596L453.241 176.915L453.941 176.319L246.868 0ZM267.765 0L266.965 0.59596L474.038 176.915L474.738 176.319L267.765 0ZM288.563 0L287.863 0.59596L494.936 176.915L495.636 176.319L288.563 0ZM309.46 0L308.76 0.59596L515.833 176.915L516.533 176.319L309.46 0ZM330.357 0L329.657 0.59596L536.73 176.915L537.43 176.319L330.357 0ZM351.154 0L350.454 0.59596L557.528 176.915L558.227 176.319L351.154 0ZM372.052 0L371.352 0.59596L578.425 176.915L579.125 176.319L372.052 0ZM392.949 0L392.249 0.59596L599.322 176.915L600.022 176.319L392.949 0ZM413.746 0L413.046 0.59596L620.119 176.915L620.819 176.319L413.746 0ZM434.644 0L433.944 0.59596L641.017 176.915L641.717 176.319L434.644 0ZM455.541 0L454.841 0.59596L661.914 176.915L662.614 176.319L455.541 0ZM476.438 0L475.738 0.59596L682.811 176.915L683.511 176.319L476.438 0ZM497.235 0L496.536 0.59596L703.609 176.915L704.309 176.319L497.235 0ZM518.133 0L517.433 0.59596L724.506 176.915L725.206 176.319L518.133 0ZM538.93 0L538.23 0.59596L745.303 176.915L746.003 176.319L538.93 0ZM559.827 0L559.127 0.59596L766.2 176.915L766.9 176.319L559.827 0ZM580.725 0L580.025 0.59596L787.098 176.915L787.798 176.319L580.725 0ZM601.622 0L600.922 0.59596L807.995 176.915L808.695 176.319L601.622 0ZM622.419 0L621.719 0.59596L828.892 176.915L829.592 176.319L622.419 0ZM643.316 0L642.617 0.59596L849.69 176.915L850.39 176.319L643.316 0ZM664.214 0L663.514 0.59596L870.587 176.915L871.287 176.319L664.214 0ZM685.011 0L684.311 0.59596L891.384 176.915L892.084 176.319L685.011 0ZM705.908 0L705.208 0.59596L912.281 176.915L912.981 176.319L705.908 0ZM726.806 0L726.106 0.59596L933.179 176.915L933.879 176.319L726.806 0ZM747.703 0L746.903 0.59596L953.976 176.915L954.676 176.319L747.703 0ZM768.5 0L767.8 0.59596L974.873 176.915L975.573 176.319L768.5 0ZM789.397 0L788.698 0.59596L995.771 176.915L996.471 176.319L789.397 0ZM810.295 0L809.595 0.59596L1016.67 176.915L1017.37 176.319L810.295 0ZM831.092 0L830.392 0.59596L1037.47 176.915L1038.17 176.319L831.092 0ZM851.989 0L851.289 0.59596L1058.36 176.915L1059.06 176.319L851.989 0ZM872.887 0L872.187 0.59596L1079.26 176.915L1079.96 176.319L872.887 0ZM893.684 0L892.984 0.59596L1100.06 176.915L1100.76 176.319L893.684 0ZM914.581 0L913.881 0.59596L1120.95 176.915L1121.65 176.319L914.581 0ZM935.478 0L934.779 0.59596L1141.85 176.915L1142.55 176.319L935.478 0ZM956.376 0L955.676 0.59596L1162.75 176.915L1163.45 176.319L956.376 0ZM977.173 0L976.473 0.59596L1183.55 176.915L1184.25 176.319L977.173 0ZM998.07 0L997.37 0.59596L1204.44 176.915L1205.14 176.319L998.07 0ZM1018.87 0L1018.17 0.59596L1225.24 176.915L1225.94 176.319L1018.87 0ZM1039.77 0L1039.06 0.59596L1246.14 176.915L1246.84 176.319L1039.77 0ZM1060.66 0L1059.96 0.59596L1267.04 176.915L1267.74 176.319L1060.66 0ZM1081.56 0L1080.86 0.59596L1287.93 176.915L1288.63 176.319L1081.56 0ZM1102.36 0L1101.66 0.59596L1308.83 176.915L1309.53 176.319L1102.36 0ZM1123.25 0L1122.55 0.59596L1329.63 176.915L1330.33 176.319L1123.25 0ZM1144.15 0L1143.45 0.59596L1350.52 176.915L1351.22 176.319L1144.15 0ZM1164.95 0L1164.25 0.59596L1371.32 176.915L1372.02 176.319L1164.95 0ZM1185.85 0L1185.15 0.59596L1392.22 176.915L1392.92 176.319L1185.85 0ZM1206.74 0L1206.04 0.59596L1413.12 176.915L1413.82 176.319L1206.74 0ZM1227.64 0L1226.94 0.59596L1434.01 176.915L1434.71 176.319L1227.64 0ZM1248.44 0L1247.74 0.59596L1454.81 176.915L1455.51 176.319L1248.44 0ZM1269.34 0L1268.64 0.59596L1475.71 176.915L1476.41 176.319L1269.34 0ZM1290.23 0L1289.53 0.59596L1496.61 176.915L1497.31 176.319L1290.23 0ZM1311.03 0L1310.33 0.59596L1517.4 176.915L1518.1 176.319L1311.03 0ZM1331.93 0L1331.23 0.59596L1538.3 176.915L1539 176.319L1331.93 0ZM0 152.906V154.098L26.7965 176.915L27.4964 176.319L0 152.906Z" fill="url(#paint0_linear)"/>
<path d="M0 127.365V128.557L56.7926 176.915L57.4925 176.319L0 127.365ZM0 109.657V110.848L77.6899 177L78.3898 176.404L0 109.657ZM0 91.8629V93.0548L98.4872 176.915L99.1871 176.319L0 91.8629ZM0 74.0693V75.2612L119.384 176.915L120.084 176.319L0 74.0693ZM0 56.3607V57.5527L140.282 177L140.982 176.404L0 56.3607ZM0 38.5671V39.759L161.079 176.915L161.779 176.319L0 38.5671ZM0 20.7734V21.9654L181.976 176.915L182.676 176.319L0 20.7734ZM0 2.9798V4.25685L202.874 177L203.574 176.404L0 2.9798ZM17.2978 0L16.5978 0.59596L223.671 176.915L224.371 176.319L17.2978 0ZM38.195 0L37.4951 0.59596L244.568 176.915L245.268 176.319L38.195 0ZM59.0923 0L58.3924 0.59596L265.466 176.915L266.165 176.319L59.0923 0ZM79.8896 0L79.1897 0.59596L286.263 176.915L286.963 176.319L79.8896 0ZM100.787 0L100.087 0.59596L307.16 176.915L307.86 176.319L100.787 0ZM121.684 0L120.984 0.59596L328.057 176.915L328.757 176.319L121.684 0ZM142.481 0L141.782 0.59596L348.955 176.915L349.655 176.319L142.481 0ZM163.379 0L162.679 0.59596L369.752 176.915L370.452 176.319L163.379 0ZM184.276 0L183.576 0.59596L390.649 176.915L391.349 176.319L184.276 0ZM205.073 0L204.373 0.59596L411.447 176.915L412.146 176.319L205.073 0ZM225.971 0L225.271 0.59596L432.344 176.915L433.044 176.319L225.971 0ZM246.868 0L246.168 0.59596L453.241 176.915L453.941 176.319L246.868 0ZM267.765 0L266.965 0.59596L474.038 176.915L474.738 176.319L267.765 0ZM288.563 0L287.863 0.59596L494.936 176.915L495.636 176.319L288.563 0ZM309.46 0L308.76 0.59596L515.833 176.915L516.533 176.319L309.46 0ZM330.357 0L329.657 0.59596L536.73 176.915L537.43 176.319L330.357 0ZM351.154 0L350.454 0.59596L557.528 176.915L558.227 176.319L351.154 0ZM372.052 0L371.352 0.59596L578.425 176.915L579.125 176.319L372.052 0ZM392.949 0L392.249 0.59596L599.322 176.915L600.022 176.319L392.949 0ZM413.746 0L413.046 0.59596L620.119 176.915L620.819 176.319L413.746 0ZM434.644 0L433.944 0.59596L641.017 176.915L641.717 176.319L434.644 0ZM455.541 0L454.841 0.59596L661.914 176.915L662.614 176.319L455.541 0ZM476.438 0L475.738 0.59596L682.811 176.915L683.511 176.319L476.438 0ZM497.235 0L496.536 0.59596L703.609 176.915L704.309 176.319L497.235 0ZM518.133 0L517.433 0.59596L724.506 176.915L725.206 176.319L518.133 0ZM538.93 0L538.23 0.59596L745.303 176.915L746.003 176.319L538.93 0ZM559.827 0L559.127 0.59596L766.2 176.915L766.9 176.319L559.827 0ZM580.725 0L580.025 0.59596L787.098 176.915L787.798 176.319L580.725 0ZM601.622 0L600.922 0.59596L807.995 176.915L808.695 176.319L601.622 0ZM622.419 0L621.719 0.59596L828.892 176.915L829.592 176.319L622.419 0ZM643.316 0L642.617 0.59596L849.69 176.915L850.39 176.319L643.316 0ZM664.214 0L663.514 0.59596L870.587 176.915L871.287 176.319L664.214 0ZM685.011 0L684.311 0.59596L891.384 176.915L892.084 176.319L685.011 0ZM705.908 0L705.208 0.59596L912.281 176.915L912.981 176.319L705.908 0ZM726.806 0L726.106 0.59596L933.179 176.915L933.879 176.319L726.806 0ZM747.703 0L746.903 0.59596L953.976 176.915L954.676 176.319L747.703 0ZM768.5 0L767.8 0.59596L974.873 176.915L975.573 176.319L768.5 0ZM789.397 0L788.698 0.59596L995.771 176.915L996.471 176.319L789.397 0ZM810.295 0L809.595 0.59596L1016.67 176.915L1017.37 176.319L810.295 0ZM831.092 0L830.392 0.59596L1037.47 176.915L1038.17 176.319L831.092 0ZM851.989 0L851.289 0.59596L1058.36 176.915L1059.06 176.319L851.989 0ZM872.887 0L872.187 0.59596L1079.26 176.915L1079.96 176.319L872.887 0ZM893.684 0L892.984 0.59596L1100.06 176.915L1100.76 176.319L893.684 0ZM914.581 0L913.881 0.59596L1120.95 176.915L1121.65 176.319L914.581 0ZM935.478 0L934.779 0.59596L1141.85 176.915L1142.55 176.319L935.478 0ZM956.376 0L955.676 0.59596L1162.75 176.915L1163.45 176.319L956.376 0ZM977.173 0L976.473 0.59596L1183.55 176.915L1184.25 176.319L977.173 0ZM998.07 0L997.37 0.59596L1204.44 176.915L1205.14 176.319L998.07 0ZM1018.87 0L1018.17 0.59596L1225.24 176.915L1225.94 176.319L1018.87 0ZM1039.77 0L1039.06 0.59596L1246.14 176.915L1246.84 176.319L1039.77 0ZM1060.66 0L1059.96 0.59596L1267.04 176.915L1267.74 176.319L1060.66 0ZM1081.56 0L1080.86 0.59596L1287.93 176.915L1288.63 176.319L1081.56 0ZM1102.36 0L1101.66 0.59596L1308.83 176.915L1309.53 176.319L1102.36 0ZM1123.25 0L1122.55 0.59596L1329.63 176.915L1330.33 176.319L1123.25 0ZM1144.15 0L1143.45 0.59596L1350.52 176.915L1351.22 176.319L1144.15 0ZM1164.95 0L1164.25 0.59596L1371.32 176.915L1372.02 176.319L1164.95 0ZM1185.85 0L1185.15 0.59596L1392.22 176.915L1392.92 176.319L1185.85 0ZM1206.74 0L1206.04 0.59596L1413.12 176.915L1413.82 176.319L1206.74 0ZM1227.64 0L1226.94 0.59596L1434.01 176.915L1434.71 176.319L1227.64 0ZM1248.44 0L1247.74 0.59596L1454.81 176.915L1455.51 176.319L1248.44 0ZM1269.34 0L1268.64 0.59596L1475.71 176.915L1476.41 176.319L1269.34 0ZM1290.23 0L1289.53 0.59596L1496.61 176.915L1497.31 176.319L1290.23 0ZM1311.03 0L1310.33 0.59596L1517.4 176.915L1518.1 176.319L1311.03 0ZM1331.93 0L1331.23 0.59596L1538.3 176.915L1539 176.319L1331.93 0ZM0 152.906V154.098L26.7965 176.915L27.4964 176.319L0 152.906Z" fill="url(#paint1_linear)"/>
<defs>
<linearGradient id="paint0_linear" x1="769.5" y1="0" x2="769.5" y2="177.085" gradientUnits="userSpaceOnUse">
<stop stop-color="#EEE9F9"/>
<stop offset="1" stop-color="white" stop-opacity="0"/>
</linearGradient>
<linearGradient id="paint1_linear" x1="1356.32" y1="48.5283" x2="530.431" y2="48.5283" gradientUnits="userSpaceOnUse">
<stop stop-color="white"/>
<stop offset="1" stop-color="white" stop-opacity="0"/>
</linearGradient>
</defs>
</svg>
