<?xml version="1.0" encoding="utf-8"?>
<!-- Generator: Adobe Illustrator 25.3.0, SVG Export Plug-In . SVG Version: 6.00 Build 0)  -->
<svg version="1.1" id="Layer_1" xmlns="http://www.w3.org/2000/svg" xmlns:xlink="http://www.w3.org/1999/xlink" x="0px" y="0px"
	 viewBox="0 0 32 32" style="enable-background:new 0 0 32 32;" xml:space="preserve">
<style type="text/css">
	.st0{fill:#FF0054;}
	.st1{fill:url(#SVGID_1_);}
	.st2{fill:url(#SVGID_2_);}
	.st3{fill:url(#SVGID_3_);}
	.st4{fill:url(#SVGID_4_);}
</style>
<g>
	<path class="st0" d="M21,28.8c-0.1,0.1-0.3,0.1-0.4,0.1c-0.3,0-0.6-0.2-0.8-0.5l-2.9-5.3H19l2.4,4.5C21.6,28,21.5,28.6,21,28.8z
		 M13.1,23.1l-2.4,4.5c-0.2,0.4-0.1,1,0.4,1.2c0.1,0.1,0.3,0.1,0.4,0.1c0.3,0,0.6-0.2,0.8-0.5l2.9-5.3H13.1z M31.7,4
		c0-0.5-0.4-0.9-0.9-0.9H1.2C0.7,3.1,0.3,3.5,0.3,4c0,0.5,0.4,0.9,0.9,0.9h29.6C31.3,4.9,31.7,4.5,31.7,4z"/>
	
		<linearGradient id="SVGID_1_" gradientUnits="userSpaceOnUse" x1="4.4359" y1="12.1676" x2="27.0789" y2="29.1175" gradientTransform="matrix(1 0 0 -1 0 34)">
		<stop  offset="0" style="stop-color:#FF0054"/>
		<stop  offset="1" style="stop-color:#FF0054;stop-opacity:0.4482"/>
	</linearGradient>
	<path class="st1" d="M3.6,4v17.6c0,0.8,0.7,1.5,1.5,1.5H27c0.8,0,1.5-0.7,1.5-1.5V4H3.6z M25.7,21.3H6.3c-0.5,0-1-0.4-1-1V6.8
		c0-0.5,0.4-1,1-1h19.3c0.5,0,1,0.4,1,1v13.5C26.6,20.8,26.2,21.3,25.7,21.3z"/>
	
		<linearGradient id="SVGID_2_" gradientUnits="userSpaceOnUse" x1="11.1255" y1="25.3358" x2="10.9686" y2="16.5538" gradientTransform="matrix(1 0 0 -1 0 34)">
		<stop  offset="0" style="stop-color:#803EFF"/>
		<stop  offset="8.860001e-02" style="stop-color:#8647FF;stop-opacity:0.9637"/>
		<stop  offset="1" style="stop-color:#C0A0FF;stop-opacity:0.5905"/>
	</linearGradient>
	<path class="st2" d="M12.4,10.3v6.2h-1v1h-0.8v-1h-1v-6.2h1V9h0.8v1.3H12.4z"/>
	
		<linearGradient id="SVGID_3_" gradientUnits="userSpaceOnUse" x1="16.627" y1="23.3286" x2="16.2611" y2="14.6508" gradientTransform="matrix(1 0 0 -1 0 34)">
		<stop  offset="0" style="stop-color:#10B487"/>
		<stop  offset="0.1862" style="stop-color:#13CBA8;stop-opacity:0.9442"/>
		<stop  offset="0.4041" style="stop-color:#17E1C7;stop-opacity:0.8788"/>
		<stop  offset="0.6166" style="stop-color:#19F0DD;stop-opacity:0.815"/>
		<stop  offset="0.8188" style="stop-color:#1BFAEA;stop-opacity:0.7543"/>
		<stop  offset="1" style="stop-color:#1BFDEF;stop-opacity:0.7"/>
	</linearGradient>
	<path class="st3" d="M17.8,12.1h-1v-1.3H16v1.3h-1v6.2h1v1h0.8v-1h1V12.1z"/>
	
		<linearGradient id="SVGID_4_" gradientUnits="userSpaceOnUse" x1="21.8322" y1="25.6584" x2="21.8322" y2="16.6614" gradientTransform="matrix(1 0 0 -1 0 34)">
		<stop  offset="0" style="stop-color:#F8B409"/>
		<stop  offset="0.358" style="stop-color:#FBC532;stop-opacity:0.7136"/>
		<stop  offset="1" style="stop-color:#FFE278;stop-opacity:0.2"/>
	</linearGradient>
	<path class="st4" d="M23.2,9.7h-1V8.4h-0.8v1.3h-1v6.2h1v1h0.8v-1h1V9.7z"/>
</g>
</svg>
