<?xml version="1.0" encoding="utf-8"?>
<!-- Generator: Adobe Illustrator 25.2.2, SVG Export Plug-In . SVG Version: 6.00 Build 0)  -->
<svg version="1.1" id="Layer_1" xmlns="http://www.w3.org/2000/svg" xmlns:xlink="http://www.w3.org/1999/xlink" x="0px" y="0px"
	 viewBox="0 0 20 20" style="enable-background:new 0 0 20 20;" xml:space="preserve">
<style type="text/css">
	.st0{fill:url(#SVGID_1_);}
	.st1{fill:url(#SVGID_2_);}
	.st2{fill:url(#SVGID_3_);}
</style>
<g>
	
		<linearGradient id="SVGID_1_" gradientUnits="userSpaceOnUse" x1="312.5264" y1="-367.6249" x2="312.295" y2="-383.6209" gradientTransform="matrix(1 0 0 -1 -296 -364)">
		<stop  offset="0" style="stop-color:#FF0054;stop-opacity:0.1165"/>
		<stop  offset="1" style="stop-color:#FF0054"/>
	</linearGradient>
	<path class="st0" d="M16.7,6.7V3.6h-0.7v3.1c-0.6,0.2-1,0.7-1,1.4v7.2c0,0.6,0.4,1.2,1,1.4v3.1h0.7v-3.1c0.6-0.2,1-0.7,1-1.3V8
		C17.7,7.4,17.3,6.9,16.7,6.7z"/>
	
		<linearGradient id="SVGID_2_" gradientUnits="userSpaceOnUse" x1="306.1131" y1="-364.2165" x2="305.8911" y2="-379.5567" gradientTransform="matrix(1 0 0 -1 -296 -364)">
		<stop  offset="0" style="stop-color:#803EFF"/>
		<stop  offset="1" style="stop-color:#803EFF;stop-opacity:0.1"/>
	</linearGradient>
	<path class="st1" d="M10.3,3.3V0.2H9.7v3.1c-0.6,0.2-1,0.7-1,1.4v6.5c0,0.6,0.4,1.2,1,1.4v3.1h0.7v-3.1c0.6-0.2,1-0.7,1-1.3V4.6
		C11.3,4,10.9,3.4,10.3,3.3z"/>
	
		<linearGradient id="SVGID_3_" gradientUnits="userSpaceOnUse" x1="299.709" y1="-366.3832" x2="299.4776" y2="-382.3792" gradientTransform="matrix(1 0 0 -1 -296 -364)">
		<stop  offset="0" style="stop-color:#1BFDEF;stop-opacity:2.484070e-02"/>
		<stop  offset="0.1174" style="stop-color:#1FFCEA;stop-opacity:0.1393"/>
		<stop  offset="0.2485" style="stop-color:#2CF7DD;stop-opacity:0.2672"/>
		<stop  offset="0.3863" style="stop-color:#42F0C7;stop-opacity:0.4015"/>
		<stop  offset="0.5287" style="stop-color:#60E6A7;stop-opacity:0.5404"/>
		<stop  offset="0.6747" style="stop-color:#87D97F;stop-opacity:0.6828"/>
		<stop  offset="0.8237" style="stop-color:#B6CA4E;stop-opacity:0.8281"/>
		<stop  offset="0.9725" style="stop-color:#EDB814;stop-opacity:0.9731"/>
		<stop  offset="1" style="stop-color:#F8B409"/>
	</linearGradient>
	<path class="st2" d="M3.9,5.5V2.4H3.3v3.1c-0.6,0.2-1,0.7-1,1.4v7.2c0,0.6,0.4,1.2,1,1.4v3.1h0.7v-3.1c0.6-0.2,1-0.7,1-1.3V6.8
		C4.9,6.2,4.5,5.6,3.9,5.5z"/>
</g>
</svg>
