<?xml version="1.0" encoding="utf-8"?>
<!-- Generator: Adobe Illustrator 25.3.0, SVG Export Plug-In . SVG Version: 6.00 Build 0)  -->
<svg version="1.1" id="Layer_1" xmlns="http://www.w3.org/2000/svg" xmlns:xlink="http://www.w3.org/1999/xlink" x="0px" y="0px"
	 viewBox="0 0 32 32" style="enable-background:new 0 0 32 32;" xml:space="preserve">
<style type="text/css">
	.st0{fill:url(#SVGID_1_);}
	.st1{fill:url(#SVGID_2_);}
	.st2{fill:url(#SVGID_3_);}
	.st3{fill:url(#SVGID_4_);}
	.st4{fill:#FF0054;}
</style>
<g>
	
		<radialGradient id="SVGID_1_" cx="-15.771" cy="49.7654" r="1" gradientTransform="matrix(13.8324 0 0 -13.8324 232.8566 707.6343)" gradientUnits="userSpaceOnUse">
		<stop  offset="0.345" style="stop-color:#1BFDEF;stop-opacity:0.7"/>
		<stop  offset="0.5475" style="stop-color:#1BFDEF;stop-opacity:0.7"/>
		<stop  offset="0.6295" style="stop-color:#1BFAEA;stop-opacity:0.7543"/>
		<stop  offset="0.721" style="stop-color:#19F0DD;stop-opacity:0.815"/>
		<stop  offset="0.8172" style="stop-color:#17E1C7;stop-opacity:0.8788"/>
		<stop  offset="0.9158" style="stop-color:#13CBA8;stop-opacity:0.9442"/>
		<stop  offset="1" style="stop-color:#10B487"/>
	</radialGradient>
	<path class="st0" d="M12.3,5.8C6.7,7.2,2.3,11.7,1,17.4c0.6-0.2,1.3-0.3,2-0.3c1.4,0,2.6,0.4,3.5,1C7,12.5,9.2,7.9,12.3,5.8z"/>
	
		<radialGradient id="SVGID_2_" cx="-15.7584" cy="49.7527" r="1" gradientTransform="matrix(13.6923 0 0 -13.6923 233.3263 700.9675)" gradientUnits="userSpaceOnUse">
		<stop  offset="0.4886" style="stop-color:#1BFDEF;stop-opacity:0.7"/>
		<stop  offset="0.5812" style="stop-color:#1BFAEA;stop-opacity:0.7543"/>
		<stop  offset="0.6847" style="stop-color:#19F0DD;stop-opacity:0.815"/>
		<stop  offset="0.7933" style="stop-color:#17E1C7;stop-opacity:0.8788"/>
		<stop  offset="0.9048" style="stop-color:#13CBA8;stop-opacity:0.9442"/>
		<stop  offset="1" style="stop-color:#10B487"/>
	</radialGradient>
	<path class="st1" d="M19.7,5.8c3,2.2,5.2,6.8,5.7,12.3c0.9-0.6,2.1-1,3.5-1c0.7,0,1.4,0.1,2,0.3C29.7,11.7,25.3,7.2,19.7,5.8z"/>
	
		<radialGradient id="SVGID_3_" cx="-15.7278" cy="49.7217" r="1.0001" gradientTransform="matrix(13.3598 0 0 -13.3598 226.2102 680.4135)" gradientUnits="userSpaceOnUse">
		<stop  offset="0" style="stop-color:#FF0054;stop-opacity:0.4482"/>
		<stop  offset="1" style="stop-color:#FF0054"/>
	</radialGradient>
	<path class="st2" d="M16.7,5.3V3.7c0-0.3-0.3-0.6-0.6-0.6c-0.3,0-0.6,0.3-0.6,0.6v1.7C13.7,5.6,12,7,10.6,9.4
		c-1.4,2.4-2.2,5.6-2.4,8.9c1.9-0.9,4.7-1.4,7.9-1.4s6,0.6,7.9,1.4c-0.2-3.4-1.1-6.5-2.4-8.9C20.2,7,18.5,5.6,16.7,5.3z"/>
	
		<linearGradient id="SVGID_4_" gradientUnits="userSpaceOnUse" x1="15.9967" y1="14.8215" x2="15.9967" y2="17.0373" gradientTransform="matrix(1 0 0 -1 0 34)">
		<stop  offset="0" style="stop-color:#FF0054;stop-opacity:0.4482"/>
		<stop  offset="1" style="stop-color:#FF0054"/>
	</linearGradient>
	<path class="st3" d="M16.3,16.9h-0.6v2.3h0.6V16.9z"/>
	<path class="st4" d="M16,28.9l-0.1,0c-2.3-0.7-3.3-2-3.8-3c-0.3-0.6-0.4-1.2-0.4-1.9v-2.8c0-1,0.8-1.7,1.7-1.7h5.1
		c1,0,1.7,0.8,1.7,1.7V24c0,0.7-0.1,1.3-0.4,1.9c-0.5,1-1.5,2.3-3.8,3L16,28.9z M13.5,20.2c-0.6,0-1.1,0.5-1.1,1.1V24
		c0,0.6,0.1,1.1,0.3,1.6c0.4,0.8,1.3,2,3.2,2.6c2-0.6,2.8-1.8,3.2-2.6c0.2-0.5,0.3-1,0.3-1.6v-2.8c0-0.6-0.5-1.1-1.1-1.1H13.5
		L13.5,20.2z"/>
	<path class="st4" d="M15.4,25.3L14,23.9c-0.1-0.1-0.1-0.2,0-0.3l0.2-0.2c0.1-0.1,0.2-0.1,0.3,0l1,1c0.1,0.1,0.2,0.1,0.3,0l2.1-2.1
		c0.1-0.1,0.2-0.1,0.3,0l0.2,0.2c0.1,0.1,0.1,0.2,0,0.3l-2.6,2.6C15.7,25.4,15.5,25.4,15.4,25.3z"/>
</g>
</svg>
