<?xml version="1.0" encoding="utf-8"?>
<!-- Generator: Adobe Illustrator 25.2.2, SVG Export Plug-In . SVG Version: 6.00 Build 0)  -->
<svg version="1.1" id="Layer_1" xmlns="http://www.w3.org/2000/svg" xmlns:xlink="http://www.w3.org/1999/xlink" x="0px" y="0px"
	 viewBox="0 0 20 20" style="enable-background:new 0 0 20 20;" xml:space="preserve">
<style type="text/css">
	.st0{fill:url(#SVGID_1_);}
	.st1{fill:url(#SVGID_2_);}
	.st2{fill:url(#SVGID_3_);}
	.st3{fill:url(#SVGID_4_);}
	.st4{fill:url(#SVGID_5_);}
	.st5{fill:url(#SVGID_6_);}
</style>
<g>
	
		<linearGradient id="SVGID_1_" gradientUnits="userSpaceOnUse" x1="296.2053" y1="-374.6306" x2="300.7656" y2="-383.2147" gradientTransform="matrix(1 0 0 -1 -296 -364)">
		<stop  offset="0" style="stop-color:#3D3E4F;stop-opacity:0"/>
		<stop  offset="0.1172" style="stop-color:#413E5B;stop-opacity:0.1172"/>
		<stop  offset="0.3281" style="stop-color:#4D3E7A;stop-opacity:0.3281"/>
		<stop  offset="0.6082" style="stop-color:#613EAD;stop-opacity:0.6082"/>
		<stop  offset="0.9438" style="stop-color:#7B3EF3;stop-opacity:0.9438"/>
		<stop  offset="1" style="stop-color:#803EFF"/>
	</linearGradient>
	<path class="st0" d="M5.6,18.3c-2.7-1.6-4.4-4.5-4.4-7.6v-0.2H0.1v0.2c0,3.5,1.9,6.8,5,8.6l0.1,0.1l0.5-0.9L5.6,18.3z"/>
	
		<linearGradient id="SVGID_2_" gradientUnits="userSpaceOnUse" x1="311.2142" y1="-383.1098" x2="315.9086" y2="-374.7939" gradientTransform="matrix(1 0 0 -1 -296 -364)">
		<stop  offset="0" style="stop-color:#3D3E4F;stop-opacity:0"/>
		<stop  offset="0.1172" style="stop-color:#413E5B;stop-opacity:0.1172"/>
		<stop  offset="0.3281" style="stop-color:#4D3E7A;stop-opacity:0.3281"/>
		<stop  offset="0.6082" style="stop-color:#613EAD;stop-opacity:0.6082"/>
		<stop  offset="0.9438" style="stop-color:#7B3EF3;stop-opacity:0.9438"/>
		<stop  offset="1" style="stop-color:#803EFF"/>
	</linearGradient>
	<path class="st1" d="M18.8,10.5v0.1c0,3.1-1.7,6.1-4.4,7.7l-0.1,0.1l0.5,0.9l0.1-0.1c3-1.8,4.9-5,4.9-8.6v-0.2L18.8,10.5z"/>
	
		<linearGradient id="SVGID_3_" gradientUnits="userSpaceOnUse" x1="311.1037" y1="-366.6519" x2="301.1113" y2="-365.5789" gradientTransform="matrix(1 0 0 -1 -296 -364)">
		<stop  offset="0" style="stop-color:#3D3E4F;stop-opacity:0"/>
		<stop  offset="0.1172" style="stop-color:#413E5B;stop-opacity:0.1172"/>
		<stop  offset="0.3281" style="stop-color:#4D3E7A;stop-opacity:0.3281"/>
		<stop  offset="0.6082" style="stop-color:#613EAD;stop-opacity:0.6082"/>
		<stop  offset="0.9438" style="stop-color:#7B3EF3;stop-opacity:0.9438"/>
		<stop  offset="1" style="stop-color:#803EFF"/>
	</linearGradient>
	<path class="st2" d="M14.9,2c-1.5-0.9-3.2-1.3-4.9-1.3c-1.7,0-3.5,0.5-5,1.3L4.9,2.1L5.4,3L5.6,3C6.9,2.2,8.4,1.8,10,1.8
		c1.5,0,3.1,0.4,4.4,1.2L14.5,3l0.5-0.9L14.9,2z"/>
	
		<linearGradient id="SVGID_4_" gradientUnits="userSpaceOnUse" x1="306.4819" y1="-369.2667" x2="306.4819" y2="-382.0637" gradientTransform="matrix(1 0 0 -1 -296 -364)">
		<stop  offset="0" style="stop-color:#FF0054"/>
		<stop  offset="1" style="stop-color:#FF0054;stop-opacity:0.1165"/>
	</linearGradient>
	<path class="st3" d="M14.7,5.3H6.2c-0.6,0-1,0.5-1,1v5.5c0,0.6,0.5,1,1,1h8.5c0.6,0,1-0.5,1-1V6.3C15.8,5.7,15.3,5.3,14.7,5.3z
		 M15.1,11.8c0,0.2-0.1,0.3-0.3,0.3H6.1c-0.2,0-0.3-0.1-0.3-0.3V6.3C5.8,6.2,6,6,6.1,6h8.7c0.2,0,0.3,0.1,0.3,0.3V11.8z"/>
	
		<linearGradient id="SVGID_5_" gradientUnits="userSpaceOnUse" x1="301.5282" y1="-371.8156" x2="308.2595" y2="-373.9046" gradientTransform="matrix(1 0 0 -1 -296 -364)">
		<stop  offset="0" style="stop-color:#FFE278;stop-opacity:0.2"/>
		<stop  offset="0.642" style="stop-color:#FBC532;stop-opacity:0.7136"/>
		<stop  offset="1" style="stop-color:#F8B409"/>
	</linearGradient>
	<path class="st4" d="M12.6,9.4l-2.8,1.8c-0.3,0.2-0.6,0-0.6-0.3V7.3c0-0.3,0.4-0.5,0.6-0.3l2.8,1.8C12.9,8.9,12.9,9.2,12.6,9.4z"/>
	
		<linearGradient id="SVGID_6_" gradientUnits="userSpaceOnUse" x1="306.2488" y1="-378.0582" x2="306.2488" y2="-376.0291" gradientTransform="matrix(1 0 0 -1 -296 -364)">
		<stop  offset="0" style="stop-color:#FF0054"/>
		<stop  offset="1" style="stop-color:#FF0054;stop-opacity:0.1165"/>
	</linearGradient>
	<path class="st5" d="M4.2,12.9h12.2c0.3,0,0.6,0.3,0.6,0.6l0,0c0,0.3-0.3,0.6-0.6,0.6H4.2c-0.3,0-0.6-0.3-0.6-0.6l0,0
		C3.6,13.2,3.8,12.9,4.2,12.9z"/>
</g>
</svg>
