<?xml version="1.0" encoding="utf-8"?>
<!-- Generator: Adobe Illustrator 25.2.2, SVG Export Plug-In . SVG Version: 6.00 Build 0)  -->
<svg version="1.1" id="Layer_1" xmlns="http://www.w3.org/2000/svg" xmlns:xlink="http://www.w3.org/1999/xlink" x="0px" y="0px"
	 viewBox="0 0 20 20" style="enable-background:new 0 0 20 20;" xml:space="preserve">
<style type="text/css">
	.st0{fill:url(#SVGID_1_);}
	.st1{fill:url(#SVGID_2_);}
	.st2{fill:url(#SVGID_3_);}
	.st3{fill:url(#SVGID_4_);}
	.st4{fill:url(#SVGID_5_);}
	.st5{fill:url(#SVGID_6_);}
</style>
<g>
	<g>
		
			<linearGradient id="SVGID_1_" gradientUnits="userSpaceOnUse" x1="312.6984" y1="-380.287" x2="315.3745" y2="-382.963" gradientTransform="matrix(1 0 0 -1 -296 -364)">
			<stop  offset="0" style="stop-color:#FF0054;stop-opacity:0"/>
			<stop  offset="1" style="stop-color:#FF0054"/>
		</linearGradient>
		<path class="st0" d="M18.9,19.5c-0.3,0-0.5-0.1-0.7-0.3l-1.7-1.7c-0.4-0.4-0.4-1,0-1.4c0.4-0.4,1-0.4,1.4,0l1.7,1.7
			c0.4,0.4,0.4,1,0,1.4C19.4,19.4,19.1,19.5,18.9,19.5z"/>
	</g>
	
		<radialGradient id="SVGID_2_" cx="16.1428" cy="15.5233" r="6.9862" gradientTransform="matrix(0.6601 0 0 0.6601 3.3987 3.3987)" gradientUnits="userSpaceOnUse">
		<stop  offset="0.6674" style="stop-color:#FF0054;stop-opacity:0"/>
		<stop  offset="1" style="stop-color:#FF0054"/>
	</radialGradient>
	<path class="st1" d="M10.8,10.4c1.8-1.8,4.7-1.8,6.5,0c1.8,1.8,1.8,4.7,0,6.5c-1.8,1.8-4.7,1.8-6.5,0C9,15.1,9,12.2,10.8,10.4z
		 M11.9,11.5c-1.2,1.2-1.2,3.2,0,4.4c1.2,1.2,3.2,1.2,4.4,0c1.2-1.2,1.2-3.2,0-4.4C15,10.3,13.1,10.3,11.9,11.5z"/>
	
		<linearGradient id="SVGID_3_" gradientUnits="userSpaceOnUse" x1="310.2495" y1="-378.5754" x2="296.2337" y2="-365.5131" gradientTransform="matrix(1 0 0 -1 -296 -364)">
		<stop  offset="0" style="stop-color:#3D3E4F;stop-opacity:0"/>
		<stop  offset="0.9062" style="stop-color:#9A66FF"/>
	</linearGradient>
	<path class="st2" d="M2.4,16.7h6.5c0.3,0,0.5-0.2,0.5-0.5c0-0.3-0.2-0.5-0.5-0.5H2.4c-0.7,0-1.3-0.6-1.3-1.3V2.8
		c0-0.7,0.6-1.3,1.3-1.3h11c0.7,0,1.3,0.6,1.3,1.3v5.5c0,0.3,0.2,0.5,0.5,0.5c0.3,0,0.5-0.2,0.5-0.5V2.8c0-1.2-1-2.3-2.3-2.3h-11
		c-1.2,0-2.3,1-2.3,2.3v11.7C0.1,15.7,1.2,16.7,2.4,16.7z"/>
	
		<linearGradient id="SVGID_4_" gradientUnits="userSpaceOnUse" x1="313.5577" y1="-368.2556" x2="299.0505" y2="-368.3708" gradientTransform="matrix(1 0 0 -1 -296 -364)">
		<stop  offset="0" style="stop-color:#3D3E4F;stop-opacity:0"/>
		<stop  offset="0.9062" style="stop-color:#9259FF"/>
	</linearGradient>
	<path class="st3" d="M12.6,4.9V3.7c0-0.4-0.3-0.6-0.6-0.6H3.9c-0.4,0-0.6,0.3-0.6,0.6v1.2c0,0.4,0.3,0.6,0.6,0.6H12
		C12.3,5.6,12.6,5.3,12.6,4.9z"/>
	
		<linearGradient id="SVGID_5_" gradientUnits="userSpaceOnUse" x1="313.5605" y1="-372.2692" x2="299.0459" y2="-372.3846" gradientTransform="matrix(1 0 0 -1 -296 -364)">
		<stop  offset="0" style="stop-color:#3D3E4F;stop-opacity:0"/>
		<stop  offset="0.9062" style="stop-color:#9259FF"/>
	</linearGradient>
	<path class="st4" d="M3.3,7.8v1.2c0,0.4,0.3,0.6,0.6,0.6H11c0.5-0.4,1-0.8,1.6-1V7.8c0-0.4-0.3-0.6-0.6-0.6H3.9
		C3.5,7.1,3.3,7.4,3.3,7.8z"/>
	
		<linearGradient id="SVGID_6_" gradientUnits="userSpaceOnUse" x1="309.2748" y1="-376.3321" x2="299.1069" y2="-376.3885" gradientTransform="matrix(1 0 0 -1 -296 -364)">
		<stop  offset="0" style="stop-color:#3D3E4F;stop-opacity:0"/>
		<stop  offset="0.9062" style="stop-color:#9259FF"/>
	</linearGradient>
	<path class="st5" d="M3.3,11.8V13c0,0.4,0.3,0.6,0.6,0.6h5.3c0-0.9,0.2-1.7,0.6-2.5H3.9C3.5,11.1,3.3,11.4,3.3,11.8z"/>
</g>
</svg>
