<?xml version="1.0" encoding="utf-8"?>
<!-- Generator: Adobe Illustrator 25.2.2, SVG Export Plug-In . SVG Version: 6.00 Build 0)  -->
<svg version="1.1" id="Layer_1" xmlns="http://www.w3.org/2000/svg" xmlns:xlink="http://www.w3.org/1999/xlink" x="0px" y="0px"
	 viewBox="0 0 20 20" style="enable-background:new 0 0 20 20;" xml:space="preserve">
<style type="text/css">
	.st0{fill:url(#SVGID_1_);}
	.st1{fill:url(#SVGID_2_);}
	.st2{fill:url(#SVGID_3_);}
	.st3{fill:url(#SVGID_4_);}
	.st4{fill:#FFE278;}
	.st5{fill:#FF0054;}
</style>
<g>
	<g>
		
			<linearGradient id="SVGID_1_" gradientUnits="userSpaceOnUse" x1="297.8888" y1="-373.759" x2="316.0449" y2="-370.3263" gradientTransform="matrix(1 0 0 -1 -296 -364)">
			<stop  offset="0" style="stop-color:#FF0054;stop-opacity:0.1165"/>
			<stop  offset="1" style="stop-color:#FF0054"/>
		</linearGradient>
		<path class="st0" d="M1,14.5c-0.2,0-0.4-0.1-0.5-0.2c-0.4-0.3-0.4-0.8-0.1-1.2l6.1-7.7c0.1-0.2,0.3-0.3,0.6-0.3
			c0.2,0,0.4,0,0.6,0.2l4.5,3.7l6.1-6.8c0.3-0.3,0.8-0.4,1.2-0.1c0.3,0.3,0.4,0.8,0.1,1.2l-6.7,7.4c-0.3,0.3-0.8,0.4-1.1,0.1
			L7.3,7.2l-5.6,7C1.5,14.4,1.3,14.5,1,14.5z"/>
	</g>
	
		<linearGradient id="SVGID_2_" gradientUnits="userSpaceOnUse" x1="302.3766" y1="-380.6803" x2="307.2146" y2="-372.6078" gradientTransform="matrix(1 0 0 -1 -296 -364)">
		<stop  offset="0" style="stop-color:#FFE278;stop-opacity:0.13"/>
		<stop  offset="1" style="stop-color:#F8B409"/>
	</linearGradient>
	<path class="st1" d="M6.3,8.7h5.6c0.2,0,0.4,0.1,0.4,0.3l1.2,4c0.1,0.3-0.1,0.5-0.4,0.5h-8c-0.3,0-0.5-0.3-0.4-0.5l1.2-4
		C6,8.8,6.1,8.7,6.3,8.7z"/>
	
		<linearGradient id="SVGID_3_" gradientUnits="userSpaceOnUse" x1="300.9091" y1="-377.5074" x2="300.9091" y2="-382.5391" gradientTransform="matrix(1 0 0 -1 -296 -364)">
		<stop  offset="0" style="stop-color:#F8B409"/>
		<stop  offset="0.358" style="stop-color:#FBC532;stop-opacity:0.7136"/>
		<stop  offset="1" style="stop-color:#FFE278;stop-opacity:0.2"/>
	</linearGradient>
	<path class="st2" d="M2.1,13.5h5.6c0.2,0,0.4,0.1,0.4,0.3l1.2,4c0.1,0.3-0.1,0.5-0.4,0.5h-8c-0.3,0-0.5-0.3-0.4-0.5l1.2-4
		C1.8,13.7,1.9,13.5,2.1,13.5z"/>
	
		<linearGradient id="SVGID_4_" gradientUnits="userSpaceOnUse" x1="309.315" y1="-377.5074" x2="309.315" y2="-382.5391" gradientTransform="matrix(1 0 0 -1 -296 -364)">
		<stop  offset="0" style="stop-color:#F8B409"/>
		<stop  offset="0.358" style="stop-color:#FBC532;stop-opacity:0.7136"/>
		<stop  offset="1" style="stop-color:#FFE278;stop-opacity:0.2"/>
	</linearGradient>
	<path class="st3" d="M10.5,13.5h5.6c0.2,0,0.4,0.1,0.4,0.3l1.2,4c0.1,0.3-0.1,0.5-0.4,0.5h-8c-0.3,0-0.5-0.3-0.4-0.5l1.2-4
		C10.2,13.7,10.4,13.5,10.5,13.5z"/>
	<g>
		<path class="st4" d="M9.6,6.8c-0.2,0-0.3-0.2-0.3-0.3V4.2c0-0.2,0.2-0.3,0.3-0.3c0.2,0,0.3,0.2,0.3,0.3v2.3
			C9.9,6.7,9.7,6.8,9.6,6.8z"/>
	</g>
	<g>
		<path class="st5" d="M19,5.9C19,5.9,19,5.9,19,5.9c-0.4,0-0.7-0.3-0.7-0.7l0.1-2l-2.2,0.4c-0.4,0.1-0.7-0.2-0.8-0.5
			c-0.1-0.4,0.2-0.7,0.5-0.8l3-0.6c0.2,0,0.4,0,0.6,0.2c0.2,0.1,0.2,0.3,0.2,0.5l-0.1,2.8C19.7,5.6,19.4,5.9,19,5.9z"/>
	</g>
	<g>
		<path class="st4" d="M11.7,7.4c-0.1,0-0.1,0-0.2,0c-0.2-0.1-0.2-0.3-0.1-0.5l1.2-2c0.1-0.2,0.3-0.2,0.5-0.1
			c0.2,0.1,0.2,0.3,0.1,0.5l-1.2,2C11.9,7.3,11.8,7.4,11.7,7.4z"/>
	</g>
	<g>
		<path class="st4" d="M7.4,7.4c-0.1,0-0.2-0.1-0.3-0.2l-1.2-2C5.8,5,5.9,4.8,6.1,4.7c0.2-0.1,0.4,0,0.5,0.1l1.2,2
			c0.1,0.2,0,0.4-0.1,0.5C7.5,7.3,7.5,7.4,7.4,7.4z"/>
	</g>
</g>
</svg>
