<?xml version="1.0" encoding="utf-8"?>
<!-- Generator: Adobe Illustrator 25.2.2, SVG Export Plug-In . SVG Version: 6.00 Build 0)  -->
<svg version="1.1" id="Layer_1" xmlns="http://www.w3.org/2000/svg" xmlns:xlink="http://www.w3.org/1999/xlink" x="0px" y="0px"
	 viewBox="0 0 20 20" style="enable-background:new 0 0 20 20;" xml:space="preserve">
<style type="text/css">
	.st0{fill:url(#SVGID_1_);}
	.st1{fill:url(#SVGID_2_);}
	.st2{fill:url(#SVGID_3_);}
	.st3{fill:url(#SVGID_4_);}
	.st4{fill:url(#SVGID_5_);}
	.st5{fill:url(#SVGID_6_);}
	.st6{fill:url(#SVGID_7_);}
	.st7{fill:url(#SVGID_8_);}
	.st8{fill:url(#SVGID_9_);}
	.st9{fill:url(#SVGID_10_);}
</style>
<g>
	
		<linearGradient id="SVGID_1_" gradientUnits="userSpaceOnUse" x1="305.3152" y1="-381.5564" x2="305.3152" y2="-375.2238" gradientTransform="matrix(1 0 0 -1 -296 -364)">
		<stop  offset="0" style="stop-color:#FF0054;stop-opacity:0.1165"/>
		<stop  offset="1" style="stop-color:#FF0054"/>
	</linearGradient>
	<path class="st0" d="M2.9,17.2l5.6-5.6c0.4-0.4,1.2-0.4,1.6,0l5.6,5.6H2.9z"/>
	
		<linearGradient id="SVGID_2_" gradientUnits="userSpaceOnUse" x1="296.6395" y1="-371.9525" x2="314.4576" y2="-376.691" gradientTransform="matrix(1 0 0 -1 -296 -364)">
		<stop  offset="0" style="stop-color:#6A19D5;stop-opacity:0.2"/>
		<stop  offset="1" style="stop-color:#894CFF"/>
	</linearGradient>
	<path class="st1" d="M19,11.9l-0.5,1.8L0.1,8.8L0.6,7L19,11.9z"/>
	
		<linearGradient id="SVGID_3_" gradientUnits="userSpaceOnUse" x1="314.6286" y1="-377.7254" x2="294.3109" y2="-368.662" gradientTransform="matrix(1 0 0 -1 -296 -364)">
		<stop  offset="0" style="stop-color:#6A19D5;stop-opacity:0.2"/>
		<stop  offset="1" style="stop-color:#894CFF"/>
	</linearGradient>
	<path class="st2" d="M19,11.9l-0.2,0.6L0.4,7.6L0.6,7L19,11.9z"/>
	
		<linearGradient id="SVGID_4_" gradientUnits="userSpaceOnUse" x1="314.3217" y1="-378.8792" x2="294.0041" y2="-369.8158" gradientTransform="matrix(1 0 0 -1 -296 -364)">
		<stop  offset="0" style="stop-color:#6A19D5;stop-opacity:0.2"/>
		<stop  offset="1" style="stop-color:#894CFF;stop-opacity:0.2"/>
	</linearGradient>
	<path class="st3" d="M18.7,13l-0.2,0.6L0.1,8.8l0.2-0.6L18.7,13z"/>
	
		<linearGradient id="SVGID_5_" gradientUnits="userSpaceOnUse" x1="298.4981" y1="-368.6825" x2="303.3109" y2="-369.9623" gradientTransform="matrix(1 0 0 -1 -296 -364)">
		<stop  offset="0" style="stop-color:#F8B409"/>
		<stop  offset="0.358" style="stop-color:#FBC532;stop-opacity:0.642"/>
		<stop  offset="1" style="stop-color:#FFE278;stop-opacity:0"/>
	</linearGradient>
	<path class="st4" d="M4.9,7.8c1.4,0,2.5-1.1,2.5-2.5S6.3,2.8,4.9,2.8c-1.4,0-2.5,1.1-2.5,2.5S3.5,7.8,4.9,7.8z"/>
	
		<linearGradient id="SVGID_6_" gradientUnits="userSpaceOnUse" x1="300.9843" y1="-371.2589" x2="300.8303" y2="-367.5198" gradientTransform="matrix(1 0 0 -1 -296 -364)">
		<stop  offset="0" style="stop-color:#F8C74D"/>
		<stop  offset="1" style="stop-color:#FFE278;stop-opacity:0"/>
	</linearGradient>
	<path class="st5" d="M4.9,7.3c1.1,0,1.9-0.9,1.9-1.9c0-1.1-0.9-1.9-1.9-1.9C3.8,3.4,3,4.3,3,5.3C3,6.4,3.8,7.3,4.9,7.3z"/>
	
		<linearGradient id="SVGID_7_" gradientUnits="userSpaceOnUse" x1="302.3011" y1="-370.1655" x2="299.6037" y2="-368.5373" gradientTransform="matrix(1 0 0 -1 -296 -364)">
		<stop  offset="0" style="stop-color:#F89C09"/>
		<stop  offset="0.358" style="stop-color:#FBB632;stop-opacity:0.642"/>
		<stop  offset="1" style="stop-color:#FFE278;stop-opacity:0"/>
	</linearGradient>
	<path class="st6" d="M4.9,7c0.9,0,1.6-0.7,1.6-1.6S5.8,3.7,4.9,3.7C4,3.7,3.3,4.4,3.3,5.3S4,7,4.9,7z"/>
	
		<linearGradient id="SVGID_8_" gradientUnits="userSpaceOnUse" x1="310.0969" y1="-371.5238" x2="315.8106" y2="-373.0433" gradientTransform="matrix(1 0 0 -1 -296 -364)">
		<stop  offset="0" style="stop-color:#F8B409"/>
		<stop  offset="0.358" style="stop-color:#FBC532;stop-opacity:0.642"/>
		<stop  offset="1" style="stop-color:#FFE278;stop-opacity:0"/>
	</linearGradient>
	<path class="st7" d="M17,11.2c1.6,0,3-1.3,3-3c0-1.6-1.3-3-3-3c-1.6,0-3,1.3-3,3C14,9.9,15.3,11.2,17,11.2z"/>
	
		<linearGradient id="SVGID_9_" gradientUnits="userSpaceOnUse" x1="313.0485" y1="-374.5835" x2="312.8654" y2="-370.1397" gradientTransform="matrix(1 0 0 -1 -296 -364)">
		<stop  offset="0" style="stop-color:#F8C74D"/>
		<stop  offset="1" style="stop-color:#FFE278;stop-opacity:0"/>
	</linearGradient>
	<path class="st8" d="M17,10.6c1.3,0,2.3-1,2.3-2.3C19.3,7,18.2,6,17,6s-2.3,1-2.3,2.3C14.7,9.6,15.7,10.6,17,10.6z"/>
	
		<linearGradient id="SVGID_10_" gradientUnits="userSpaceOnUse" x1="314.6133" y1="-373.2853" x2="311.4075" y2="-371.3503" gradientTransform="matrix(1 0 0 -1 -296 -364)">
		<stop  offset="0" style="stop-color:#F89C09"/>
		<stop  offset="0.358" style="stop-color:#FBB632;stop-opacity:0.642"/>
		<stop  offset="1" style="stop-color:#FFE278;stop-opacity:0"/>
	</linearGradient>
	<path class="st9" d="M17,10.2c1.1,0,1.9-0.9,1.9-1.9c0-1.1-0.9-1.9-1.9-1.9c-1.1,0-1.9,0.9-1.9,1.9C15,9.4,15.9,10.2,17,10.2z"/>
</g>
</svg>
