<?xml version="1.0" encoding="utf-8"?>
<!-- Generator: Adobe Illustrator 25.2.2, SVG Export Plug-In . SVG Version: 6.00 Build 0)  -->
<svg version="1.1" id="Layer_1" xmlns="http://www.w3.org/2000/svg" xmlns:xlink="http://www.w3.org/1999/xlink" x="0px" y="0px"
	 viewBox="0 0 20 20" style="enable-background:new 0 0 20 20;" xml:space="preserve">
<style type="text/css">
	.st0{fill:url(#SVGID_1_);}
	.st1{fill:url(#SVGID_2_);}
	.st2{fill:url(#SVGID_3_);}
	.st3{fill:url(#SVGID_4_);}
	.st4{fill:url(#SVGID_5_);}
</style>
<g>
	
		<linearGradient id="SVGID_1_" gradientUnits="userSpaceOnUse" x1="296.2053" y1="-374.6305" x2="300.7656" y2="-383.2147" gradientTransform="matrix(1 0 0 -1 -296 -364)">
		<stop  offset="0" style="stop-color:#3D3E4F;stop-opacity:0"/>
		<stop  offset="0.1172" style="stop-color:#413E5B;stop-opacity:0.1172"/>
		<stop  offset="0.3281" style="stop-color:#4D3E7A;stop-opacity:0.3281"/>
		<stop  offset="0.6082" style="stop-color:#613EAD;stop-opacity:0.6082"/>
		<stop  offset="0.9438" style="stop-color:#7B3EF3;stop-opacity:0.9438"/>
		<stop  offset="1" style="stop-color:#803EFF"/>
	</linearGradient>
	<path class="st0" d="M5.6,18.3c-2.7-1.6-4.4-4.5-4.4-7.6v-0.2H0.1v0.2c0,3.5,1.9,6.8,5,8.6l0.1,0.1l0.5-0.9L5.6,18.3z"/>
	
		<linearGradient id="SVGID_2_" gradientUnits="userSpaceOnUse" x1="311.2142" y1="-383.1099" x2="315.9087" y2="-374.794" gradientTransform="matrix(1 0 0 -1 -296 -364)">
		<stop  offset="0" style="stop-color:#3D3E4F;stop-opacity:0"/>
		<stop  offset="0.1172" style="stop-color:#413E5B;stop-opacity:0.1172"/>
		<stop  offset="0.3281" style="stop-color:#4D3E7A;stop-opacity:0.3281"/>
		<stop  offset="0.6082" style="stop-color:#613EAD;stop-opacity:0.6082"/>
		<stop  offset="0.9438" style="stop-color:#7B3EF3;stop-opacity:0.9438"/>
		<stop  offset="1" style="stop-color:#803EFF"/>
	</linearGradient>
	<path class="st1" d="M18.8,10.5v0.1c0,3.1-1.7,6.1-4.4,7.7l-0.1,0.1l0.5,0.9l0.1-0.1c3-1.8,4.9-5,4.9-8.6v-0.2L18.8,10.5z"/>
	
		<linearGradient id="SVGID_3_" gradientUnits="userSpaceOnUse" x1="311.1038" y1="-366.652" x2="301.1114" y2="-365.5789" gradientTransform="matrix(1 0 0 -1 -296 -364)">
		<stop  offset="0" style="stop-color:#3D3E4F;stop-opacity:0"/>
		<stop  offset="0.1172" style="stop-color:#413E5B;stop-opacity:0.1172"/>
		<stop  offset="0.3281" style="stop-color:#4D3E7A;stop-opacity:0.3281"/>
		<stop  offset="0.6082" style="stop-color:#613EAD;stop-opacity:0.6082"/>
		<stop  offset="0.9438" style="stop-color:#7B3EF3;stop-opacity:0.9438"/>
		<stop  offset="1" style="stop-color:#803EFF"/>
	</linearGradient>
	<path class="st2" d="M14.9,2c-1.5-0.9-3.2-1.3-4.9-1.3c-1.7,0-3.5,0.5-5,1.3L4.9,2.1L5.4,3L5.6,3C6.9,2.2,8.4,1.8,10,1.8
		c1.5,0,3.1,0.4,4.4,1.2L14.5,3l0.5-0.9L14.9,2z"/>
	
		<linearGradient id="SVGID_4_" gradientUnits="userSpaceOnUse" x1="305.1476" y1="-379.7673" x2="308.5226" y2="-369.1363" gradientTransform="matrix(1 0 0 -1 -296 -364)">
		<stop  offset="0" style="stop-color:#F8B409"/>
		<stop  offset="0.358" style="stop-color:#FBC532;stop-opacity:0.7136"/>
		<stop  offset="1" style="stop-color:#FFE278;stop-opacity:0.2"/>
	</linearGradient>
	<path class="st3" d="M10.3,16.4c-0.4,0-0.7-0.2-0.9-0.6l-1.2-2.4c0,0,0,0-0.1,0l-2.6-0.4c-0.4-0.1-0.7-0.3-0.8-0.7
		c-0.1-0.4,0-0.8,0.3-1l1.9-1.9c0,0,0,0,0-0.1L6.5,6.8c0-0.3,0-0.6,0.2-0.8c0.2-0.2,0.5-0.4,0.8-0.4c0.2,0,0.3,0,0.5,0.1l2.4,1.2
		c0,0,0,0,0,0s0,0,0,0l2.4-1.2c0.1-0.1,0.3-0.1,0.5-0.1c0.3,0,0.6,0.1,0.8,0.4c0.2,0.2,0.3,0.5,0.2,0.8l-0.5,2.6c0,0,0,0,0,0.1
		l1.9,1.9c0.3,0.3,0.4,0.7,0.3,1c-0.1,0.4-0.4,0.6-0.8,0.7l-2.6,0.4c0,0,0,0,0,0l-1.2,2.4C11.1,16.2,10.7,16.4,10.3,16.4z"/>
	
		<linearGradient id="SVGID_5_" gradientUnits="userSpaceOnUse" x1="302.2332" y1="-375.012" x2="310.1641" y2="-375.012" gradientTransform="matrix(1 0 0 -1 -296 -364)">
		<stop  offset="0" style="stop-color:#F8B409"/>
		<stop  offset="0.358" style="stop-color:#FBC532;stop-opacity:0.7136"/>
		<stop  offset="1" style="stop-color:#FFE278;stop-opacity:0.2"/>
	</linearGradient>
	<path class="st4" d="M10.6,7.4L13,6.1c0.4-0.2,0.9,0.1,0.8,0.6l-0.5,2.6c0,0.2,0,0.4,0.2,0.5l1.9,1.9c0.3,0.3,0.1,0.9-0.3,0.9
		L12.4,13c-0.2,0-0.3,0.1-0.4,0.3l-1.2,2.4c-0.2,0.4-0.8,0.4-1,0l-1.2-2.4C8.6,13.1,8.4,13,8.3,13l-2.6-0.4C5.2,12.5,5,12,5.3,11.7
		l1.9-1.9c0.1-0.1,0.2-0.3,0.2-0.5L6.9,6.7C6.9,6.2,7.3,5.9,7.7,6.1l2.4,1.2C10.2,7.4,10.4,7.4,10.6,7.4z"/>
</g>
</svg>
