<?xml version="1.0" encoding="utf-8"?>
<!-- Generator: Adobe Illustrator 25.2.2, SVG Export Plug-In . SVG Version: 6.00 Build 0)  -->
<svg version="1.1" id="Layer_1" xmlns="http://www.w3.org/2000/svg" xmlns:xlink="http://www.w3.org/1999/xlink" x="0px" y="0px"
	 viewBox="0 0 20 20" style="enable-background:new 0 0 20 20;" xml:space="preserve">
<style type="text/css">
	.st0{fill:url(#SVGID_1_);}
	.st1{fill:url(#SVGID_2_);}
	.st2{fill:url(#SVGID_3_);}
	.st3{fill:url(#SVGID_4_);}
	.st4{fill:url(#SVGID_5_);}
	.st5{fill:url(#SVGID_6_);}
	.st6{fill:url(#SVGID_7_);}
	.st7{fill:url(#SVGID_8_);}
</style>
<g>
	<g>
		
			<linearGradient id="SVGID_1_" gradientUnits="userSpaceOnUse" x1="297.6981" y1="-366.3687" x2="302.6704" y2="-375.2616" gradientTransform="matrix(1 0 0 -1 -296 -364)">
			<stop  offset="0" style="stop-color:#F8B409"/>
			<stop  offset="0.358" style="stop-color:#FBC532;stop-opacity:0.642"/>
			<stop  offset="1" style="stop-color:#FFE278;stop-opacity:0"/>
		</linearGradient>
		<path class="st0" d="M0.1,6.4c0-1.3,0.5-2.5,1.4-3.5C2.5,2,3.7,1.5,5,1.5v0.7c-1.1,0-2.2,0.4-3,1.2c-0.8,0.8-1.2,1.8-1.2,3
			L0.1,6.4z"/>
	</g>
	
		<linearGradient id="SVGID_2_" gradientUnits="userSpaceOnUse" x1="302.6029" y1="-372.208" x2="299.401" y2="-368.5104" gradientTransform="matrix(1 0 0 -1 -296 -364)">
		<stop  offset="0" style="stop-color:#F8B409"/>
		<stop  offset="0.358" style="stop-color:#FBC532;stop-opacity:0.642"/>
		<stop  offset="1" style="stop-color:#FFE278;stop-opacity:0"/>
	</linearGradient>
	<path class="st1" d="M5,3.9C3.7,3.9,2.6,5,2.6,6.4c0,1.3,1.1,2.4,2.4,2.4c1.3,0,2.4-1.1,2.4-2.4C7.4,5,6.3,3.9,5,3.9z"/>
	
		<linearGradient id="SVGID_3_" gradientUnits="userSpaceOnUse" x1="307.0786" y1="-378.5621" x2="312.2698" y2="-369.9667" gradientTransform="matrix(1 0 0 -1 -296 -364)">
		<stop  offset="8.560000e-02" style="stop-color:#FF0054;stop-opacity:0.1165"/>
		<stop  offset="1" style="stop-color:#FF0054"/>
	</linearGradient>
	<path class="st2" d="M13.9,9.9h5.8c0,3.2-2.6,5.8-5.8,5.8S8,13.1,8,9.9c0-3.2,2.6-5.8,5.8-5.8c0,0,0.1,0,0.1,0L13.9,9.9z"/>
	
		<linearGradient id="SVGID_4_" gradientUnits="userSpaceOnUse" x1="313.2801" y1="-372.9029" x2="313.7007" y2="-368.1923" gradientTransform="matrix(1 0 0 -1 -296 -364)">
		<stop  offset="0" style="stop-color:#F8B409"/>
		<stop  offset="0.358" style="stop-color:#FBC532;stop-opacity:0.7136"/>
		<stop  offset="1" style="stop-color:#FFE278;stop-opacity:0.2"/>
	</linearGradient>
	<path class="st3" d="M15.1,8.7l0-4.7h0c2.6,0,4.7,2.1,4.7,4.7c0,0,0,0,0,0L15.1,8.7z"/>
	
		<linearGradient id="SVGID_5_" gradientUnits="userSpaceOnUse" x1="304.5926" y1="-379.0659" x2="304.5926" y2="-382.7159" gradientTransform="matrix(1 0 0 -1 -296 -364)">
		<stop  offset="0" style="stop-color:#613EAD;stop-opacity:0.5327"/>
		<stop  offset="0.7189" style="stop-color:#773EE7;stop-opacity:0.8686"/>
		<stop  offset="1" style="stop-color:#803EFF"/>
	</linearGradient>
	<path class="st4" d="M11.8,18.5H5.4c-0.5,0-0.8-0.4-0.8-0.8v-2.9h8.1v2.9C12.6,18.2,12.3,18.5,11.8,18.5z"/>
	
		<linearGradient id="SVGID_6_" gradientUnits="userSpaceOnUse" x1="304.3167" y1="-380.3782" x2="304.8246" y2="-374.691" gradientTransform="matrix(1 0 0 -1 -296 -364)">
		<stop  offset="0" style="stop-color:#633EB3"/>
		<stop  offset="0.8554" style="stop-color:#7C3EF4"/>
		<stop  offset="1" style="stop-color:#803EFF"/>
	</linearGradient>
	<path class="st5" d="M12.8,15.9H4.4c-0.3,0-0.6-0.3-0.6-0.6v-4c0-0.3,0.3-0.6,0.6-0.6h8.5c0.3,0,0.6,0.3,0.6,0.6v4
		C13.4,15.7,13.2,15.9,12.8,15.9z"/>
	<g>
		
			<linearGradient id="SVGID_7_" gradientUnits="userSpaceOnUse" x1="304.5746" y1="-374.9668" x2="304.7166" y2="-373.3772" gradientTransform="matrix(1 0 0 -1 -296 -364)">
			<stop  offset="0" style="stop-color:#F8B409"/>
			<stop  offset="0.358" style="stop-color:#FBC532;stop-opacity:0.7136"/>
			<stop  offset="1" style="stop-color:#FFE278;stop-opacity:0.2"/>
		</linearGradient>
		<path class="st6" d="M10.5,10.8H9.9c0-0.8-0.7-0.9-1.3-0.9C8,9.9,7.3,10,7.3,10.8H6.7c0-1,0.7-1.6,1.9-1.6
			C9.8,9.2,10.5,9.8,10.5,10.8z"/>
	</g>
	
		<linearGradient id="SVGID_8_" gradientUnits="userSpaceOnUse" x1="304.5313" y1="-380.4969" x2="304.6341" y2="-379.345" gradientTransform="matrix(1 0 0 -1 -296 -364)">
		<stop  offset="0" style="stop-color:#F8B409"/>
		<stop  offset="0.358" style="stop-color:#FBC532;stop-opacity:0.7136"/>
		<stop  offset="1" style="stop-color:#FFE278;stop-opacity:0.2"/>
	</linearGradient>
	<path class="st7" d="M8.9,16.5H8.3c-0.1,0-0.2-0.1-0.2-0.2v-0.6c0-0.1,0.1-0.2,0.2-0.2h0.6c0.1,0,0.2,0.1,0.2,0.2v0.6
		C9.1,16.4,9,16.5,8.9,16.5z"/>
</g>
</svg>
