<?xml version="1.0" encoding="utf-8"?>
<!-- Generator: Adobe Illustrator 25.3.0, SVG Export Plug-In . SVG Version: 6.00 Build 0)  -->
<svg version="1.1" id="Layer_1" xmlns="http://www.w3.org/2000/svg" xmlns:xlink="http://www.w3.org/1999/xlink" x="0px" y="0px"
	 viewBox="0 0 32 32" style="enable-background:new 0 0 32 32;" xml:space="preserve">
<style type="text/css">
	.st0{fill:url(#SVGID_1_);}
	.st1{fill:url(#SVGID_2_);}
	.st2{fill:url(#SVGID_3_);}
	.st3{fill:url(#SVGID_4_);}
	.st4{fill:url(#SVGID_5_);}
	.st5{fill:url(#SVGID_6_);}
	.st6{fill:#FF0054;}
</style>
<g>
	
		<linearGradient id="SVGID_1_" gradientUnits="userSpaceOnUse" x1="5.5335" y1="29.5269" x2="5.301" y2="16.5081" gradientTransform="matrix(1 0 0 -1 0 34)">
		<stop  offset="0" style="stop-color:#FF0054;stop-opacity:0.4482"/>
		<stop  offset="1" style="stop-color:#FF0054"/>
	</linearGradient>
	<path class="st0" d="M8.6,8v3.8l-0.4-0.3l-5.9,6.1V8h2.3V5h1.8v3H8.6z"/>
	
		<linearGradient id="SVGID_2_" gradientUnits="userSpaceOnUse" x1="5.4364" y1="8.9781" x2="5.4364" y2="18.7104" gradientTransform="matrix(1 0 0 -1 0 34)">
		<stop  offset="0" style="stop-color:#FF0054;stop-opacity:0.4482"/>
		<stop  offset="1" style="stop-color:#FF0054"/>
	</linearGradient>
	<path class="st1" d="M8.4,13.5l0.2,0.1v8.5H6.3v2.3H4.6v-2.3H2.3v-2.4L8.4,13.5z"/>
	
		<linearGradient id="SVGID_3_" gradientUnits="userSpaceOnUse" x1="13.6998" y1="25.0939" x2="13.3586" y2="17.0006" gradientTransform="matrix(1 0 0 -1 0 34)">
		<stop  offset="0" style="stop-color:#10B487"/>
		<stop  offset="0.1862" style="stop-color:#13CBA8;stop-opacity:0.9442"/>
		<stop  offset="0.4041" style="stop-color:#17E1C7;stop-opacity:0.8788"/>
		<stop  offset="0.6166" style="stop-color:#19F0DD;stop-opacity:0.815"/>
		<stop  offset="0.8188" style="stop-color:#1BFAEA;stop-opacity:0.7543"/>
		<stop  offset="1" style="stop-color:#1BFDEF;stop-opacity:0.7"/>
	</linearGradient>
	<path class="st2" d="M16.6,12v4.9l-0.3,0.2l-6-4.1v-1h2.3V9h1.8v3H16.6z"/>
	
		<linearGradient id="SVGID_4_" gradientUnits="userSpaceOnUse" x1="13.3582" y1="16.9235" x2="13.5966" y2="4.9987" gradientTransform="matrix(1 0 0 -1 0 34)">
		<stop  offset="0" style="stop-color:#10B487"/>
		<stop  offset="0.1862" style="stop-color:#13CBA8;stop-opacity:0.9442"/>
		<stop  offset="0.4041" style="stop-color:#17E1C7;stop-opacity:0.8788"/>
		<stop  offset="0.6166" style="stop-color:#19F0DD;stop-opacity:0.815"/>
		<stop  offset="0.8188" style="stop-color:#1BFAEA;stop-opacity:0.7543"/>
		<stop  offset="1" style="stop-color:#1BFDEF;stop-opacity:0.7"/>
	</linearGradient>
	<path class="st3" d="M16.3,19l0.3-0.2v7.4h-2.3v2.3h-1.8v-2.3h-2.3V14.8L16.3,19z"/>
	
		<linearGradient id="SVGID_5_" gradientUnits="userSpaceOnUse" x1="21.573" y1="30.5355" x2="21.573" y2="17.8083" gradientTransform="matrix(1 0 0 -1 0 34)">
		<stop  offset="0" style="stop-color:#F8B409"/>
		<stop  offset="0.358" style="stop-color:#FBC532;stop-opacity:0.7136"/>
		<stop  offset="1" style="stop-color:#FFE278;stop-opacity:0.2"/>
	</linearGradient>
	<path class="st4" d="M24.7,6.5V11l-6.3,4.5V6.5h2.3v-3h1.8v3H24.7z"/>
	
		<linearGradient id="SVGID_6_" gradientUnits="userSpaceOnUse" x1="21.8869" y1="19.5167" x2="21.2311" y2="10.0365" gradientTransform="matrix(1 0 0 -1 0 34)">
		<stop  offset="0" style="stop-color:#F8B409"/>
		<stop  offset="0.358" style="stop-color:#FBC532;stop-opacity:0.7136"/>
		<stop  offset="1" style="stop-color:#FFE278;stop-opacity:0.2"/>
	</linearGradient>
	<path class="st5" d="M18.4,17.4l6.3-4.5v7.7h-2.3V23h-1.8v-2.3h-2.3V17.4z"/>
	<path class="st6" d="M29.7,9.8L29,14l-1.3-1.9l-11.3,8.2L8.6,15l-0.2-0.1l-6.1,6.3V19l5.9-6.1l0.4,0.3l7.7,5.3l10.5-7.6L25.5,9
		L29.7,9.8z"/>
</g>
</svg>
