<?xml version="1.0" encoding="utf-8"?>
<!-- Generator: Adobe Illustrator 25.3.0, SVG Export Plug-In . SVG Version: 6.00 Build 0)  -->
<svg version="1.1" id="Layer_1" xmlns="http://www.w3.org/2000/svg" xmlns:xlink="http://www.w3.org/1999/xlink" x="0px" y="0px"
	 viewBox="0 0 32 32" style="enable-background:new 0 0 32 32;" xml:space="preserve">
<style type="text/css">
	.st0{fill:url(#SVGID_1_);}
	.st1{opacity:0.3;enable-background:new    ;}
	.st2{fill:url(#SVGID_2_);}
	.st3{fill:url(#SVGID_3_);}
</style>
<g>
	
		<linearGradient id="SVGID_1_" gradientUnits="userSpaceOnUse" x1="1" y1="18" x2="25.6178" y2="18" gradientTransform="matrix(1 0 0 -1 0 34)">
		<stop  offset="0" style="stop-color:#FF0054"/>
		<stop  offset="1" style="stop-color:#FF0054;stop-opacity:0.4482"/>
	</linearGradient>
	<path class="st0" d="M25.2,7.4L25.2,5c0-1.4-0.9-2.4-1.9-2.3l-21,3.1C1.6,5.9,1,6.9,1,8.1v15.1c0,1.2,0.6,2.2,1.3,2.2l2.8,0.1v3.8
		l2.1-3.7l16.6,0.7c1,0,1.8-1,1.8-2.3c0-0.1,0-0.2,0-0.3L25.2,7.4z M22,23.7L7.3,23.1c0,0-0.1,0-0.1,0c-0.2,0-0.4,0-0.7,0.1
		c-0.2,0.1-0.4,0-0.6,0C5.7,23.1,5.4,23,5.2,23l-0.6,0c-0.6,0-1-0.5-1-1.1V9.1c0-0.5,0.4-1,0.9-1.1l17-2.5c0.6-0.1,1.2,0.4,1.2,1
		l0,0.9c0,0,0.3,11.4,0.4,15.1C23.1,23.2,22.6,23.7,22,23.7z"/>
	<path class="st1" d="M25.6,23.7c0,0.1,0,0.2,0,0.3c-1.1,0.5-2.3,0.7-3.6,0.7c-4.9,0-8.9-4-8.9-8.9c0-4.9,4-8.9,8.9-8.9
		c1.1,0,2.2,0.2,3.2,0.6L25.6,23.7z"/>
	
		<linearGradient id="SVGID_2_" gradientUnits="userSpaceOnUse" x1="21.8743" y1="10.724" x2="22.1723" y2="24.6527" gradientTransform="matrix(1 0 0 -1 0 34)">
		<stop  offset="0" style="stop-color:#6A3EC4"/>
		<stop  offset="1" style="stop-color:#803EFF"/>
	</linearGradient>
	<path class="st2" d="M22.1,23.4c4.9,0,8.9-4,8.9-8.9c0-4.9-4-8.9-8.9-8.9c-4.9,0-8.9,4-8.9,8.9C13.1,19.4,17.1,23.4,22.1,23.4z"/>
	
		<linearGradient id="SVGID_3_" gradientUnits="userSpaceOnUse" x1="23.3043" y1="22.5732" x2="23.0808" y2="16.4654" gradientTransform="matrix(1 0 0 -1 0 34)">
		<stop  offset="0" style="stop-color:#FFE278"/>
		<stop  offset="0.642" style="stop-color:#FBC532"/>
		<stop  offset="1" style="stop-color:#F8B409"/>
	</linearGradient>
	<path class="st3" d="M25.7,14.5l-4.8,3.4v-6.8L25.7,14.5z"/>
</g>
</svg>
