<?xml version="1.0" encoding="utf-8"?>
<!-- Generator: Adobe Illustrator 25.3.0, SVG Export Plug-In . SVG Version: 6.00 Build 0)  -->
<svg version="1.1" id="Layer_1" xmlns="http://www.w3.org/2000/svg" xmlns:xlink="http://www.w3.org/1999/xlink" x="0px" y="0px"
	 viewBox="0 0 32 32" style="enable-background:new 0 0 32 32;" xml:space="preserve">
<style type="text/css">
	.st0{fill:url(#SVGID_1_);}
	.st1{fill:url(#SVGID_2_);}
	.st2{fill:url(#SVGID_3_);}
	.st3{fill:url(#SVGID_4_);}
	.st4{fill:url(#SVGID_5_);}
	.st5{fill:url(#SVGID_6_);}
	.st6{fill:url(#SVGID_7_);}
</style>
<g>
	
		<linearGradient id="SVGID_1_" gradientUnits="userSpaceOnUse" x1="21.9349" y1="19.526" x2="21.9349" y2="2.8678" gradientTransform="matrix(1 0 0 -1 0 34)">
		<stop  offset="0" style="stop-color:#FF0054"/>
		<stop  offset="1" style="stop-color:#FF0054;stop-opacity:0.4482"/>
	</linearGradient>
	<path class="st0" d="M25,30.7c0-0.1-0.1-0.1-0.1-0.2c-0.6-1.1-1.1-2.2-1.7-3.3c-0.1-0.1-0.1-0.2-0.3-0.1c-0.7,0.1-1.4,0.1-2.1,0
		c-0.1,0-0.2,0-0.2,0.1c-0.6,1.1-1.1,2.2-1.7,3.3c0,0.1-0.1,0.1-0.1,0.2c0-0.1-0.1-0.1-0.1-0.1c-0.4-0.4-0.7-0.9-1.1-1.3
		c-0.1-0.1-0.2-0.1-0.2-0.1c-0.5-0.1-1.1-0.1-1.6-0.1c-0.1,0-0.1,0-0.2,0c0-0.1,0.1-0.1,0.1-0.2c0.6-1.1,1.1-2.2,1.7-3.4
		c0.1-0.1,0-0.2,0-0.3c-3.1-3.3-1.8-8.8,2.5-10.3c3.4-1.3,7.3,0.7,8.3,4.2c0.6,2.3,0.1,4.3-1.4,6.1c-0.1,0.1-0.1,0.2,0,0.3
		c0.6,1.1,1.2,2.3,1.7,3.4c0,0,0,0.1,0.1,0.2c-0.1,0-0.2,0-0.2,0c-0.5,0-1.1,0.1-1.7,0.2c-0.1,0-0.2,0.1-0.2,0.1
		c-0.4,0.4-0.7,0.9-1.1,1.3C25.1,30.6,25.1,30.7,25,30.7z M21,22.1c-0.1-0.1-0.1-0.1-0.2-0.2c-0.5-0.5-1-1-1.5-1.5
		c-0.1-0.1-0.1-0.1-0.2-0.2c-0.3-0.2-0.7-0.1-0.9,0.2c-0.2,0.3-0.2,0.7,0.1,0.9c0.7,0.7,1.4,1.4,2.1,2.1c0.4,0.4,0.7,0.4,1.1,0
		c1.2-1.2,2.4-2.4,3.7-3.7c0,0,0.1-0.1,0.1-0.1c0.2-0.2,0.2-0.5,0.1-0.7c-0.1-0.2-0.3-0.4-0.6-0.4c-0.2,0-0.4,0.1-0.6,0.2
		c-1,1-2.1,2.1-3.1,3.1C21,22,21,22,21,22.1z"/>
	
		<linearGradient id="SVGID_2_" gradientUnits="userSpaceOnUse" x1="3.64" y1="16.5729" x2="19.239" y2="16.5729" gradientTransform="matrix(1 0 0 -1 0 34)">
		<stop  offset="0" style="stop-color:#1BFDEF;stop-opacity:0.4"/>
		<stop  offset="0.1812" style="stop-color:#1BFAEA;stop-opacity:0.5087"/>
		<stop  offset="0.3834" style="stop-color:#19F0DD;stop-opacity:0.6301"/>
		<stop  offset="0.5959" style="stop-color:#17E1C7;stop-opacity:0.7575"/>
		<stop  offset="0.8138" style="stop-color:#13CBA8;stop-opacity:0.8883"/>
		<stop  offset="1" style="stop-color:#10B487"/>
	</linearGradient>
	<path class="st1" d="M14.5,16.6c0-2.7,0-5.4,0-8.1c-0.1,0-0.1,0-0.2,0.1c-2.9,1-5.9,1.9-8.8,2.8c-0.2,0-0.2,0.1-0.2,0.3
		c0,5.6,0,11.2,0,16.7c0,0.1,0,0.1,0,0.2c-0.5,0-1.1,0-1.6,0c0-0.1,0-0.1,0-0.2c0-5.9,0-11.8,0-17.7c0-0.1,0-0.2,0.2-0.2
		c4-1.4,8-2.8,12-4.2c0.1,0,0.2,0,0.3,0c1,0.6,2,1.2,3,1.8c0.1,0.1,0.1,0.1,0.1,0.2c0,1.3,0,2.5,0,3.8c0,0.1,0,0.2-0.1,0.2
		c-2,0.9-3.5,2.3-4.5,4.2C14.6,16.5,14.5,16.6,14.5,16.6C14.5,16.6,14.5,16.6,14.5,16.6z"/>
	
		<linearGradient id="SVGID_3_" gradientUnits="userSpaceOnUse" x1="18.8972" y1="22.609" x2="18.8972" y2="32.616" gradientTransform="matrix(1 0 0 -1 0 34)">
		<stop  offset="0" style="stop-color:#1BFDEF;stop-opacity:0.4"/>
		<stop  offset="0.1174" style="stop-color:#1FFCEA;stop-opacity:0.4704"/>
		<stop  offset="0.2485" style="stop-color:#2CF7DD;stop-opacity:0.5491"/>
		<stop  offset="0.3863" style="stop-color:#42F0C7;stop-opacity:0.6318"/>
		<stop  offset="0.5287" style="stop-color:#60E6A7;stop-opacity:0.7172"/>
		<stop  offset="0.6747" style="stop-color:#87D97F;stop-opacity:0.8048"/>
		<stop  offset="0.8237" style="stop-color:#B6CA4E;stop-opacity:0.8942"/>
		<stop  offset="0.9725" style="stop-color:#EDB814;stop-opacity:0.9835"/>
		<stop  offset="1" style="stop-color:#F8B409"/>
	</linearGradient>
	<path class="st2" d="M26.8,12.5c-1.5-0.7-3.1-1-4.8-0.9c0-2.8,0-5.6,0-8.5c-3.7,1.2-7.4,2.4-11,3.6c0-0.1,0-0.1,0-0.1
		c0-0.2,0-0.5,0-0.7c0-0.2,0-0.2,0.2-0.3c1.6-0.6,3.3-1.2,4.9-1.8C18.4,3,20.7,2.1,23,1.3c0.1,0,0.2,0,0.2,0c1.1,1,2.3,1.9,3.4,2.9
		c0.1,0.1,0.1,0.2,0.1,0.3c0,2.6,0,5.2,0,7.8C26.8,12.3,26.8,12.4,26.8,12.5z"/>
	
		<linearGradient id="SVGID_4_" gradientUnits="userSpaceOnUse" x1="7.0231" y1="6.9582" x2="12.8095" y2="6.9582" gradientTransform="matrix(1 0 0 -1 0 34)">
		<stop  offset="0" style="stop-color:#803EFF"/>
		<stop  offset="8.860001e-02" style="stop-color:#8647FF;stop-opacity:0.9637"/>
		<stop  offset="1" style="stop-color:#C0A0FF;stop-opacity:0.5905"/>
	</linearGradient>
	<path class="st3" d="M7,28.5c0-0.1,0-0.1,0-0.2c0-0.7,0-1.5,0-2.3c0-0.1,0-0.2,0.2-0.2c1.5-0.1,3-0.2,4.4-0.3c0.3,0,0.7,0,1-0.1
		c0.1,0,0.1,0,0.2,0c0,1,0,2,0,3C10.9,28.5,9,28.5,7,28.5z"/>
	
		<linearGradient id="SVGID_5_" gradientUnits="userSpaceOnUse" x1="7.0231" y1="20.6926" x2="12.8186" y2="20.6926" gradientTransform="matrix(1 0 0 -1 0 34)">
		<stop  offset="0" style="stop-color:#803EFF"/>
		<stop  offset="8.860001e-02" style="stop-color:#8647FF;stop-opacity:0.9637"/>
		<stop  offset="1" style="stop-color:#C0A0FF;stop-opacity:0.5905"/>
	</linearGradient>
	<path class="st4" d="M7,15.6c0-0.1,0-0.1,0-0.1c0-0.8,0-1.6,0-2.3c0-0.1,0-0.2,0.1-0.2c1.8-0.6,3.7-1.2,5.5-1.8c0,0,0.1,0,0.1,0
		c0,0.1,0,0.1,0,0.2c0,0.9,0,1.8,0,2.6c0,0.1,0,0.2-0.2,0.2c-1.8,0.5-3.6,1-5.5,1.5C7.1,15.5,7.1,15.5,7,15.6z"/>
	
		<linearGradient id="SVGID_6_" gradientUnits="userSpaceOnUse" x1="7.0231" y1="16.0556" x2="12.8186" y2="16.0556" gradientTransform="matrix(1 0 0 -1 0 34)">
		<stop  offset="0" style="stop-color:#803EFF"/>
		<stop  offset="8.860001e-02" style="stop-color:#8647FF;stop-opacity:0.9637"/>
		<stop  offset="1" style="stop-color:#C0A0FF;stop-opacity:0.5905"/>
	</linearGradient>
	<path class="st5" d="M7,19.9c0-0.1,0-0.1,0-0.1c0-0.7,0-1.5,0-2.2c0-0.1,0-0.2,0.2-0.2c1.8-0.5,3.6-0.9,5.5-1.4c0,0,0.1,0,0.2,0
		c0,0.1,0,0.1,0,0.2c0,0.8,0,1.7,0,2.5c0,0.1,0,0.2-0.1,0.2C10.8,19.2,9,19.6,7,19.9C7.1,19.9,7.1,19.9,7,19.9z"/>
	
		<linearGradient id="SVGID_7_" gradientUnits="userSpaceOnUse" x1="7.0231" y1="11.4662" x2="12.8186" y2="11.4662" gradientTransform="matrix(1 0 0 -1 0 34)">
		<stop  offset="0" style="stop-color:#803EFF"/>
		<stop  offset="8.860001e-02" style="stop-color:#8647FF;stop-opacity:0.9637"/>
		<stop  offset="1" style="stop-color:#C0A0FF;stop-opacity:0.5905"/>
	</linearGradient>
	<path class="st6" d="M7,24.2c0-0.4,0-0.7,0-1c0-0.4,0-0.8,0-1.2c0-0.1,0-0.2,0.2-0.2c1.3-0.2,2.6-0.4,3.9-0.6
		c0.5-0.1,1.1-0.2,1.6-0.3c0,0,0.1,0,0.2,0c0,0.1,0,0.1,0,0.2c0,0.8,0,1.7,0,2.5c0,0.1,0,0.2-0.2,0.2C11,23.8,9.4,24,7.8,24.2
		C7.6,24.2,7.3,24.2,7,24.2z"/>
</g>
</svg>
