<?xml version="1.0" encoding="utf-8"?>
<!-- Generator: Adobe Illustrator 25.3.0, SVG Export Plug-In . SVG Version: 6.00 Build 0)  -->
<svg version="1.1" id="Layer_1" xmlns="http://www.w3.org/2000/svg" xmlns:xlink="http://www.w3.org/1999/xlink" x="0px" y="0px"
	 viewBox="0 0 32 32" style="enable-background:new 0 0 32 32;" xml:space="preserve">
<style type="text/css">
	.st0{fill:url(#SVGID_1_);}
	.st1{fill:url(#SVGID_2_);}
	.st2{fill:url(#SVGID_3_);}
	.st3{fill:url(#SVGID_4_);}
	.st4{fill:url(#SVGID_5_);}
</style>
<g>
	
		<linearGradient id="SVGID_1_" gradientUnits="userSpaceOnUse" x1="20.8174" y1="11.7149" x2="25.9999" y2="19.309" gradientTransform="matrix(1 0 0 -1 0 34)">
		<stop  offset="0" style="stop-color:#1BFDEF;stop-opacity:0.4"/>
		<stop  offset="0.1812" style="stop-color:#1BFAEA;stop-opacity:0.5087"/>
		<stop  offset="0.3834" style="stop-color:#19F0DD;stop-opacity:0.6301"/>
		<stop  offset="0.5959" style="stop-color:#17E1C7;stop-opacity:0.7575"/>
		<stop  offset="0.8138" style="stop-color:#13CBA8;stop-opacity:0.8883"/>
		<stop  offset="1" style="stop-color:#10B487"/>
	</linearGradient>
	<path class="st0" d="M25.6,14.4V21c-0.7,0.2-1.4,0.7-2.2,1.7c-0.2,0.3-0.6,0.5-1,0.7c0-0.2,0-0.3,0-0.5c0-0.2-0.1-0.4-0.2-0.6V17h1
		l-1-1.5v-1H25.6z"/>
	
		<linearGradient id="SVGID_2_" gradientUnits="userSpaceOnUse" x1="20.2191" y1="12.1865" x2="20.2191" y2="24.9427" gradientTransform="matrix(1 0 0 -1 0 34)">
		<stop  offset="0" style="stop-color:#1BFDEF;stop-opacity:0.13"/>
		<stop  offset="0.5287" style="stop-color:#60E6A7;stop-opacity:0.7172"/>
		<stop  offset="0.6747" style="stop-color:#87D97F;stop-opacity:0.8048"/>
		<stop  offset="0.8237" style="stop-color:#B6CA4E;stop-opacity:0.8942"/>
		<stop  offset="0.9725" style="stop-color:#EDB814;stop-opacity:0.9835"/>
		<stop  offset="1" style="stop-color:#F8B409"/>
	</linearGradient>
	<path class="st1" d="M21.9,15.5L20.8,17h1.1v4.8c-0.3-0.3-0.8-0.6-1.4-0.6l-1.9,0c0,0,0,0,0,0v-6.5h1l-1-1.5V7.6h3.3V15.5
		L21.9,15.5z"/>
	
		<linearGradient id="SVGID_3_" gradientUnits="userSpaceOnUse" x1="13.6184" y1="13.9535" x2="19.5161" y2="22.5959" gradientTransform="matrix(1 0 0 -1 0 34)">
		<stop  offset="0" style="stop-color:#6A4CAD;stop-opacity:0.4"/>
		<stop  offset="0.393" style="stop-color:#8B57F1;stop-opacity:0.9142"/>
		<stop  offset="0.9438" style="stop-color:#8C57F3;stop-opacity:0.9438"/>
		<stop  offset="1" style="stop-color:#9259FF"/>
	</linearGradient>
	<path class="st2" d="M18.2,13.4l-1,1.4h1v6.5h0c-0.6,0-2.1,0-3.3-0.4v-1h1l-1-1.6v-7.8h3.3V13.4L18.2,13.4z"/>
	
		<linearGradient id="SVGID_4_" gradientUnits="userSpaceOnUse" x1="12.8492" y1="11.178" x2="12.682" y2="17.4311" gradientTransform="matrix(1 0 0 -1 0 34)">
		<stop  offset="8.560000e-02" style="stop-color:#FF0054;stop-opacity:0.1165"/>
		<stop  offset="0.9217" style="stop-color:#FF0054"/>
	</linearGradient>
	<path class="st3" d="M14.4,18.5l-1,1.4h1v0.9c-0.4-0.1-0.8-0.2-1.3-0.2c-0.7,0-1.4,0.2-2.1,0.4v-4.4h3.3V18.5z"/>
	
		<linearGradient id="SVGID_5_" gradientUnits="userSpaceOnUse" x1="25.4406" y1="26.4831" x2="4.5959" y2="10.5086" gradientTransform="matrix(1 0 0 -1 0 34)">
		<stop  offset="1.570000e-02" style="stop-color:#8B57F1;stop-opacity:0"/>
		<stop  offset="1" style="stop-color:#9259FF"/>
	</linearGradient>
	<path class="st4" d="M16,3.5c6.1,0,11.2,4.2,12.7,9.8l2.4,2.9C30.9,8,24.2,1.5,16,1.5C7.6,1.5,0.8,8.3,0.8,16.7
		c0,4.1,1.6,7.9,4.3,10.6c0.3,0.3,0.5,0.5,0.8,0.7c0.3,0.2,0.5,0.5,0.8,0.7c0.3,0.3,0.7,0.5,1,0.7c0.3,0.2,0.5,0.3,0.8,0.5
		c0.4,0.2,0.9,0.5,1.3,0.7l1.2-1.4c0.1-0.1,0.1-0.2,0-0.3c0,0,0,0,0,0c0,0,0-0.1-0.1-0.1l-0.3-0.2c0,0,0.9-1,2.8-0.9
		c1.9,0.2,3.8,1.1,5.7,0.4c1.8-0.7,4-1.1,5.7-3.2c1.7-2,1.7-2,1.5-2.5c-0.2-0.5-1-0.5-2.2,1c-1.2,1.5-4.5,2.3-6,2.2l-1.5-0.9l2-0.5
		l1.9-0.3c0.4-0.1,0.7-0.5,0.7-0.9c-0.1-0.4-0.4-0.7-0.8-0.7l-1.9,0c0,0-2.6,0.1-4.5-0.5c-1.9-0.6-4.5,0.9-5.2,2.5
		c-0.2,0.4-0.7,0.9-1.4,1.5l-0.4-0.3c-0.1-0.1-0.3-0.1-0.4,0l-0.2,0.2c-2.3-2.4-3.7-5.6-3.7-9.1C2.9,9.4,8.8,3.5,16,3.5z M6.9,26
		c0.2,0,0.4,0.2,0.4,0.4c0,0,0,0.1,0,0.1c0,0.1-0.2,0.3-0.3,0.3c-0.2,0-0.4-0.2-0.4-0.4c0-0.2,0.1-0.3,0.2-0.3C6.8,26,6.9,26,6.9,26
		z"/>
</g>
</svg>
