<?xml version="1.0" encoding="utf-8"?>
<!-- Generator: Adobe Illustrator 25.2.2, SVG Export Plug-In . SVG Version: 6.00 Build 0)  -->
<svg version="1.1" id="Layer_1" xmlns="http://www.w3.org/2000/svg" xmlns:xlink="http://www.w3.org/1999/xlink" x="0px" y="0px"
	 viewBox="0 0 20 20" style="enable-background:new 0 0 20 20;" xml:space="preserve">
<style type="text/css">
	.st0{fill:url(#SVGID_1_);}
	.st1{fill:url(#SVGID_2_);}
	.st2{fill:url(#SVGID_3_);}
	.st3{fill:url(#SVGID_4_);}
	.st4{fill:url(#SVGID_5_);}
	.st5{fill:url(#SVGID_6_);}
	.st6{fill:url(#SVGID_7_);}
	.st7{fill:url(#SVGID_8_);}
	.st8{fill:url(#SVGID_9_);}
	.st9{fill:url(#SVGID_10_);}
	.st10{fill:url(#SVGID_11_);}
	.st11{fill:url(#SVGID_12_);}
	.st12{fill:url(#SVGID_13_);}
	.st13{fill:url(#SVGID_14_);}
	.st14{fill:url(#SVGID_15_);}
</style>
<g>
	
		<linearGradient id="SVGID_1_" gradientUnits="userSpaceOnUse" x1="296.2567" y1="-374.6273" x2="300.7931" y2="-383.1663" gradientTransform="matrix(1 0 0 -1 -296 -364)">
		<stop  offset="0" style="stop-color:#FF0054;stop-opacity:0"/>
		<stop  offset="1" style="stop-color:#FF0054"/>
	</linearGradient>
	<path class="st0" d="M5.6,18.2c-2.7-1.6-4.4-4.5-4.4-7.6v-0.1h-1v0.1c0,3.5,1.9,6.8,4.9,8.5l0.1,0.1l0.5-0.9L5.6,18.2z"/>
	
		<linearGradient id="SVGID_2_" gradientUnits="userSpaceOnUse" x1="311.1868" y1="-383.062" x2="315.8566" y2="-374.7898" gradientTransform="matrix(1 0 0 -1 -296 -364)">
		<stop  offset="0" style="stop-color:#FF0054;stop-opacity:0"/>
		<stop  offset="1" style="stop-color:#FF0054"/>
	</linearGradient>
	<path class="st1" d="M18.8,10.5v0.1c0,3.1-1.7,6-4.4,7.6l-0.1,0.1l0.5,0.9l0.1-0.1c3-1.8,4.9-5,4.9-8.6v-0.2L18.8,10.5z"/>
	
		<linearGradient id="SVGID_3_" gradientUnits="userSpaceOnUse" x1="311.0769" y1="-366.6905" x2="301.137" y2="-365.6231" gradientTransform="matrix(1 0 0 -1 -296 -364)">
		<stop  offset="0" style="stop-color:#FF0054;stop-opacity:0"/>
		<stop  offset="1" style="stop-color:#FF0054"/>
	</linearGradient>
	<path class="st2" d="M14.9,2.1c-1.5-0.9-3.2-1.3-4.9-1.3c-1.7,0-3.5,0.5-4.9,1.3L4.9,2.2l0.5,0.9L5.6,3C6.9,2.2,8.4,1.8,10,1.8
		c1.5,0,3,0.4,4.4,1.2l0.1,0.1L15,2.2L14.9,2.1z"/>
	
		<linearGradient id="SVGID_4_" gradientUnits="userSpaceOnUse" x1="303.991" y1="-369.0071" x2="308.069" y2="-374.3571" gradientTransform="matrix(1 0 0 -1 -296 -364)">
		<stop  offset="0" style="stop-color:#B57FFF"/>
		<stop  offset="0.2577" style="stop-color:#AB73FF"/>
		<stop  offset="0.7192" style="stop-color:#9254FF"/>
		<stop  offset="1" style="stop-color:#803EFF"/>
	</linearGradient>
	<path class="st3" d="M8.6,4.6l5.2,0.8l1.4,3l-3.8,2.2L6.2,9.9l-1.4-3L8.6,4.6z"/>
	
		<linearGradient id="SVGID_5_" gradientUnits="userSpaceOnUse" x1="311.7576" y1="-372.3947" x2="307.7351" y2="-377.8072" gradientTransform="matrix(1 0 0 -1 -296 -364)">
		<stop  offset="0" style="stop-color:#693EC2;stop-opacity:0.6537"/>
		<stop  offset="1" style="stop-color:#803EFF"/>
	</linearGradient>
	<path class="st4" d="M16.8,10.6l-1.5-2.2l-3.8,2.2l0.4,2.8L16.8,10.6z"/>
	
		<linearGradient id="SVGID_6_" gradientUnits="userSpaceOnUse" x1="307.5546" y1="-375.0696" x2="300.9886" y2="-376.6076" gradientTransform="matrix(1 0 0 -1 -296 -364)">
		<stop  offset="0" style="stop-color:#693EC2;stop-opacity:0.6537"/>
		<stop  offset="1" style="stop-color:#803EFF"/>
	</linearGradient>
	<path class="st5" d="M6.2,9.9L5,12.4l6.8,1l-0.4-2.8L6.2,9.9z"/>
	
		<linearGradient id="SVGID_7_" gradientUnits="userSpaceOnUse" x1="304.7022" y1="-375.227" x2="298.905" y2="-372.8018" gradientTransform="matrix(1 0 0 -1 -296 -364)">
		<stop  offset="0" style="stop-color:#693EC2;stop-opacity:0.6537"/>
		<stop  offset="1" style="stop-color:#803EFF"/>
	</linearGradient>
	<path class="st6" d="M4.8,6.8l1.4,3L5,12.4L3.2,8.5L4.8,6.8z"/>
	
		<linearGradient id="SVGID_8_" gradientUnits="userSpaceOnUse" x1="309.8267" y1="-372.0286" x2="312.7756" y2="-372.0286" gradientTransform="matrix(1 0 0 -1 -296 -364)">
		<stop  offset="0" style="stop-color:#3D3E4F;stop-opacity:0"/>
		<stop  offset="0.1172" style="stop-color:#413E5B;stop-opacity:0.1172"/>
		<stop  offset="0.3281" style="stop-color:#4D3E7A;stop-opacity:0.3281"/>
		<stop  offset="0.6082" style="stop-color:#613EAD;stop-opacity:0.6082"/>
		<stop  offset="0.9438" style="stop-color:#7B3EF3;stop-opacity:0.9438"/>
		<stop  offset="1" style="stop-color:#803EFF"/>
	</linearGradient>
	<path class="st7" d="M13.8,5.4L15,6.7l1.8,3.9l-1.5-2.2L13.8,5.4z"/>
	
		<linearGradient id="SVGID_9_" gradientUnits="userSpaceOnUse" x1="312.2548" y1="-373.1019" x2="306.1441" y2="-382.3053" gradientTransform="matrix(1 0 0 -1 -296 -364)">
		<stop  offset="0" style="stop-color:#3D3E4F;stop-opacity:0"/>
		<stop  offset="0.1172" style="stop-color:#413E5B;stop-opacity:0.1172"/>
		<stop  offset="0.3281" style="stop-color:#4D3E7A;stop-opacity:0.3281"/>
		<stop  offset="0.6082" style="stop-color:#613EAD;stop-opacity:0.6082"/>
		<stop  offset="0.9438" style="stop-color:#7B3EF3;stop-opacity:0.9438"/>
		<stop  offset="1" style="stop-color:#803EFF"/>
	</linearGradient>
	<path class="st8" d="M16.8,10.6L10,16.3l1.8-2.9L16.8,10.6z"/>
	
		<linearGradient id="SVGID_10_" gradientUnits="userSpaceOnUse" x1="302.9871" y1="-373.6461" x2="305.7307" y2="-379.9564" gradientTransform="matrix(1 0 0 -1 -296 -364)">
		<stop  offset="0" style="stop-color:#3D3E4F;stop-opacity:0"/>
		<stop  offset="0.1172" style="stop-color:#413E5B;stop-opacity:0.1172"/>
		<stop  offset="0.3281" style="stop-color:#4D3E7A;stop-opacity:0.3281"/>
		<stop  offset="0.6082" style="stop-color:#613EAD;stop-opacity:0.6082"/>
		<stop  offset="0.9438" style="stop-color:#7B3EF3;stop-opacity:0.9438"/>
		<stop  offset="1" style="stop-color:#803EFF"/>
	</linearGradient>
	<path class="st9" d="M5,12.4l5,3.9l1.8-2.9L5,12.4z"/>
	
		<linearGradient id="SVGID_11_" gradientUnits="userSpaceOnUse" x1="307.8414" y1="-372.9739" x2="311.486" y2="-368.6237" gradientTransform="matrix(1 0 0 -1 -296 -364)">
		<stop  offset="0" style="stop-color:#3D3E4F;stop-opacity:0"/>
		<stop  offset="0.1172" style="stop-color:#413E5B;stop-opacity:0.1172"/>
		<stop  offset="0.3281" style="stop-color:#4D3E7A;stop-opacity:0.3281"/>
		<stop  offset="0.6082" style="stop-color:#613EAD;stop-opacity:0.6082"/>
		<stop  offset="0.9438" style="stop-color:#7B3EF3;stop-opacity:0.9438"/>
		<stop  offset="1" style="stop-color:#803EFF"/>
	</linearGradient>
	<path class="st10" d="M13.8,5.4L10,7.6l5.2,0.8L13.8,5.4z"/>
	
		<linearGradient id="SVGID_12_" gradientUnits="userSpaceOnUse" x1="304.277" y1="-373.007" x2="302.4743" y2="-370.5381" gradientTransform="matrix(1 0 0 -1 -296 -364)">
		<stop  offset="0" style="stop-color:#3D3E4F;stop-opacity:0"/>
		<stop  offset="0.1172" style="stop-color:#413E5B;stop-opacity:0.1172"/>
		<stop  offset="0.3281" style="stop-color:#4D3E7A;stop-opacity:0.3281"/>
		<stop  offset="0.6082" style="stop-color:#613EAD;stop-opacity:0.6082"/>
		<stop  offset="0.9438" style="stop-color:#7B3EF3;stop-opacity:0.9438"/>
		<stop  offset="1" style="stop-color:#803EFF"/>
	</linearGradient>
	<path class="st11" d="M4.8,6.8L10,7.6L6.2,9.9L4.8,6.8z"/>
	
		<linearGradient id="SVGID_13_" gradientUnits="userSpaceOnUse" x1="301.4548" y1="-368.8349" x2="308.1889" y2="-373.7359" gradientTransform="matrix(1 0 0 -1 -296 -364)">
		<stop  offset="0" style="stop-color:#F7E9FF;stop-opacity:0.4"/>
		<stop  offset="0.1199" style="stop-color:#EFDDFF;stop-opacity:0.472"/>
		<stop  offset="0.3356" style="stop-color:#D9BEFF;stop-opacity:0.6013"/>
		<stop  offset="0.6221" style="stop-color:#B68BFF;stop-opacity:0.7733"/>
		<stop  offset="0.9654" style="stop-color:#8545FF;stop-opacity:0.9793"/>
		<stop  offset="1" style="stop-color:#803EFF"/>
	</linearGradient>
	<path class="st12" d="M8.6,4.6l1.4,3L4.8,6.8L8.6,4.6z"/>
	
		<linearGradient id="SVGID_14_" gradientUnits="userSpaceOnUse" x1="304.425" y1="-377.3311" x2="305.64" y2="-380.7799" gradientTransform="matrix(1 0 0 -1 -296 -364)">
		<stop  offset="0" style="stop-color:#3D3E4F;stop-opacity:0"/>
		<stop  offset="0.1172" style="stop-color:#413E5B;stop-opacity:0.1172"/>
		<stop  offset="0.3281" style="stop-color:#4D3E7A;stop-opacity:0.3281"/>
		<stop  offset="0.6082" style="stop-color:#613EAD;stop-opacity:0.6082"/>
		<stop  offset="0.9438" style="stop-color:#7B3EF3;stop-opacity:0.9438"/>
		<stop  offset="1" style="stop-color:#803EFF"/>
	</linearGradient>
	<path class="st13" d="M10,16.3l-0.3-3.2l-2.8-0.4L10,16.3z"/>
	
		<linearGradient id="SVGID_15_" gradientUnits="userSpaceOnUse" x1="310.1349" y1="-376.2081" x2="306.5687" y2="-380.2446" gradientTransform="matrix(1 0 0 -1 -296 -364)">
		<stop  offset="0" style="stop-color:#3D3E4F;stop-opacity:0"/>
		<stop  offset="0.1172" style="stop-color:#413E5B;stop-opacity:0.1172"/>
		<stop  offset="0.3281" style="stop-color:#4D3E7A;stop-opacity:0.3281"/>
		<stop  offset="0.6082" style="stop-color:#613EAD;stop-opacity:0.6082"/>
		<stop  offset="0.9438" style="stop-color:#7B3EF3;stop-opacity:0.9438"/>
		<stop  offset="1" style="stop-color:#803EFF"/>
	</linearGradient>
	<path class="st14" d="M10,16.3l3.5-3.8l1.7-1L10,16.3z"/>
</g>
</svg>
