<?xml version="1.0" encoding="utf-8"?>
<!-- Generator: Adobe Illustrator 25.2.2, SVG Export Plug-In . SVG Version: 6.00 Build 0)  -->
<svg version="1.1" id="Layer_1" xmlns="http://www.w3.org/2000/svg" xmlns:xlink="http://www.w3.org/1999/xlink" x="0px" y="0px"
	 viewBox="0 0 20 20" style="enable-background:new 0 0 20 20;" xml:space="preserve">
<style type="text/css">
	.st0{fill:url(#SVGID_1_);}
	.st1{fill:url(#SVGID_2_);}
	.st2{fill:url(#SVGID_3_);}
	.st3{fill:url(#SVGID_4_);}
	.st4{fill:url(#SVGID_5_);}
	.st5{fill:url(#SVGID_6_);}
	.st6{fill:url(#SVGID_7_);}
</style>
<g>
	
		<linearGradient id="SVGID_1_" gradientUnits="userSpaceOnUse" x1="306.7857" y1="-369.3644" x2="306.7857" y2="-371.0904" gradientTransform="matrix(1 0 0 -1 -296 -364)">
		<stop  offset="0" style="stop-color:#F8B409"/>
		<stop  offset="0.358" style="stop-color:#FBC532;stop-opacity:0.7136"/>
		<stop  offset="1" style="stop-color:#FFE278;stop-opacity:0.2"/>
	</linearGradient>
	<path class="st0" d="M12.8,7.2h-0.5V6.4c0-0.3-0.2-0.5-0.5-0.5H9.7c-0.3,0-0.5,0.2-0.5,0.5v0.8H8.8V6.4c0-0.5,0.4-0.9,0.9-0.9h2.1
		c0.5,0,0.9,0.4,0.9,0.9L12.8,7.2L12.8,7.2z"/>
	
		<linearGradient id="SVGID_2_" gradientUnits="userSpaceOnUse" x1="306.7719" y1="-371.0558" x2="306.7719" y2="-375.8882" gradientTransform="matrix(1 0 0 -1 -296 -364)">
		<stop  offset="0" style="stop-color:#FF0054;stop-opacity:0.3"/>
		<stop  offset="1" style="stop-color:#FF0054"/>
	</linearGradient>
	<path class="st1" d="M5,7.4v3.4C5,10.9,5.1,11,5.2,11l5.5,1.1c0,0,0.1,0,0.1,0l5.5-1.1c0.1,0,0.2-0.1,0.2-0.3V7.4
		c0-0.2-0.1-0.3-0.3-0.3h-11C5.1,7.1,5,7.3,5,7.4z"/>
	
		<linearGradient id="SVGID_3_" gradientUnits="userSpaceOnUse" x1="304.0865" y1="-375.0826" x2="310.7646" y2="-380.9917" gradientTransform="matrix(1 0 0 -1 -296 -364)">
		<stop  offset="0" style="stop-color:#FF0054;stop-opacity:0.3"/>
		<stop  offset="1" style="stop-color:#FF0054"/>
	</linearGradient>
	<path class="st2" d="M16.3,11.4v4c0,0.2-0.2,0.4-0.4,0.4H5.7c-0.2,0-0.4-0.2-0.4-0.4v-4l5.4,1.1c0,0,0.1,0,0.1,0c0,0,0.1,0,0.1,0
		L16.3,11.4z"/>
	
		<linearGradient id="SVGID_4_" gradientUnits="userSpaceOnUse" x1="306.7679" y1="-376.6445" x2="306.7679" y2="-375.5745" gradientTransform="matrix(1 0 0 -1 -296 -364)">
		<stop  offset="0" style="stop-color:#F8B409"/>
		<stop  offset="0.358" style="stop-color:#FBC532;stop-opacity:0.7136"/>
		<stop  offset="1" style="stop-color:#FFE278;stop-opacity:0.2"/>
	</linearGradient>
	<path class="st3" d="M11.3,12.7h-1c-0.1,0-0.3-0.1-0.3-0.3v-0.6c0-0.2,0.1-0.3,0.3-0.3h1c0.1,0,0.3,0.1,0.3,0.3v0.6
		C11.5,12.6,11.4,12.7,11.3,12.7z"/>
	
		<linearGradient id="SVGID_5_" gradientUnits="userSpaceOnUse" x1="296.0887" y1="-378.8916" x2="301.7114" y2="-378.8916" gradientTransform="matrix(1 0 0 -1 -296 -364)">
		<stop  offset="0" style="stop-color:#3D3E4F;stop-opacity:0"/>
		<stop  offset="0.1172" style="stop-color:#413E5B;stop-opacity:0.1172"/>
		<stop  offset="0.3281" style="stop-color:#4D3E7A;stop-opacity:0.3281"/>
		<stop  offset="0.6082" style="stop-color:#613EAD;stop-opacity:0.6082"/>
		<stop  offset="0.9438" style="stop-color:#7B3EF3;stop-opacity:0.9438"/>
		<stop  offset="1" style="stop-color:#803EFF"/>
	</linearGradient>
	<path class="st4" d="M5.6,18.3c-2.7-1.6-4.4-4.5-4.4-7.7v-0.2H0.1v0.2c0,3.5,1.9,6.8,5,8.6l0.1,0.1l0.5-0.9L5.6,18.3z"/>
	
		<linearGradient id="SVGID_6_" gradientUnits="userSpaceOnUse" x1="310.3036" y1="-378.8503" x2="315.9113" y2="-378.8503" gradientTransform="matrix(1 0 0 -1 -296 -364)">
		<stop  offset="0" style="stop-color:#3D3E4F;stop-opacity:0"/>
		<stop  offset="0.1172" style="stop-color:#413E5B;stop-opacity:0.1172"/>
		<stop  offset="0.3281" style="stop-color:#4D3E7A;stop-opacity:0.3281"/>
		<stop  offset="0.6082" style="stop-color:#613EAD;stop-opacity:0.6082"/>
		<stop  offset="0.9438" style="stop-color:#7B3EF3;stop-opacity:0.9438"/>
		<stop  offset="1" style="stop-color:#803EFF"/>
	</linearGradient>
	<path class="st5" d="M18.9,10.5v0.1c0,3.2-1.7,6.1-4.4,7.7l-0.1,0.1l0.5,0.9l0.1-0.1c3.1-1.8,5-5.1,5-8.6v-0.2L18.9,10.5z"/>
	
		<linearGradient id="SVGID_7_" gradientUnits="userSpaceOnUse" x1="311.1302" y1="-365.8462" x2="301.3302" y2="-365.8928" gradientTransform="matrix(1 0 0 -1 -296 -364)">
		<stop  offset="0" style="stop-color:#3D3E4F;stop-opacity:0"/>
		<stop  offset="0.1172" style="stop-color:#413E5B;stop-opacity:0.1172"/>
		<stop  offset="0.3281" style="stop-color:#4D3E7A;stop-opacity:0.3281"/>
		<stop  offset="0.6082" style="stop-color:#613EAD;stop-opacity:0.6082"/>
		<stop  offset="0.9438" style="stop-color:#7B3EF3;stop-opacity:0.9438"/>
		<stop  offset="1" style="stop-color:#803EFF"/>
	</linearGradient>
	<path class="st6" d="M14.9,2c-1.5-0.9-3.2-1.3-4.9-1.3c-1.7,0-3.5,0.5-5,1.3L4.9,2.1L5.4,3L5.6,3C6.9,2.2,8.4,1.8,10,1.8
		c1.5,0,3.1,0.4,4.4,1.2L14.5,3l0.5-0.9L14.9,2z"/>
</g>
</svg>
