<?xml version="1.0" encoding="utf-8"?>
<!-- Generator: Adobe Illustrator 25.2.2, SVG Export Plug-In . SVG Version: 6.00 Build 0)  -->
<svg version="1.1" id="Layer_1" xmlns="http://www.w3.org/2000/svg" xmlns:xlink="http://www.w3.org/1999/xlink" x="0px" y="0px"
	 viewBox="0 0 20 20" style="enable-background:new 0 0 20 20;" xml:space="preserve">
<style type="text/css">
	.st0{fill:url(#SVGID_1_);}
	.st1{fill:url(#SVGID_2_);}
	.st2{fill:url(#SVGID_3_);}
	.st3{fill:url(#SVGID_4_);}
</style>
<g>
	
		<linearGradient id="SVGID_1_" gradientUnits="userSpaceOnUse" x1="296.305" y1="-370.7655" x2="309.8726" y2="-366.9844" gradientTransform="matrix(1 0 0 -1 -296 -364)">
		<stop  offset="0" style="stop-color:#FF0054"/>
		<stop  offset="1" style="stop-color:#FF0054;stop-opacity:0"/>
	</linearGradient>
	<path class="st0" d="M17.5,3.7l-1.1,0.4l-0.6,0.2c-1.5-1.5-3.5-2.5-5.8-2.5c-4.5,0-8.1,3.6-8.1,8.1c0,0,0,0,0,0L1,10.9L0.2,9.7
		C0.3,4.4,4.6,0.2,10,0.2C13,0.2,15.7,1.6,17.5,3.7z"/>
	
		<linearGradient id="SVGID_2_" gradientUnits="userSpaceOnUse" x1="299.0681" y1="-381.103" x2="314.2864" y2="-377.8816" gradientTransform="matrix(1 0 0 -1 -296 -364)">
		<stop  offset="0" style="stop-color:#3D3E4F;stop-opacity:0"/>
		<stop  offset="0.1172" style="stop-color:#413E5B;stop-opacity:0.1172"/>
		<stop  offset="0.3281" style="stop-color:#4D3E7A;stop-opacity:0.3281"/>
		<stop  offset="0.6082" style="stop-color:#613EAD;stop-opacity:0.6082"/>
		<stop  offset="0.9438" style="stop-color:#7B3EF3;stop-opacity:0.9438"/>
		<stop  offset="1" style="stop-color:#803EFF"/>
	</linearGradient>
	<path class="st1" d="M19.8,10.4c-0.2,5.2-4.5,9.4-9.8,9.4c-3,0-5.7-1.4-7.5-3.5l1.7-0.6c1.5,1.5,3.5,2.5,5.8,2.5c4.4,0,8-3.6,8.1-8
		l1-0.8L19.8,10.4z"/>
	
		<linearGradient id="SVGID_3_" gradientUnits="userSpaceOnUse" x1="308.3418" y1="-376.6949" x2="303.7133" y2="-371.3499" gradientTransform="matrix(1 0 0 -1 -296 -364)">
		<stop  offset="0" style="stop-color:#F8B409"/>
		<stop  offset="0.358" style="stop-color:#FBC532;stop-opacity:0.7136"/>
		<stop  offset="1" style="stop-color:#FFE278;stop-opacity:0.2"/>
	</linearGradient>
	<path class="st2" d="M10,6.5c-1.9,0-3.5,1.6-3.5,3.5c0,1.9,1.6,3.5,3.5,3.5s3.5-1.6,3.5-3.5C13.5,8.1,11.9,6.5,10,6.5z"/>
	
		<linearGradient id="SVGID_4_" gradientUnits="userSpaceOnUse" x1="307.2534" y1="-375.4394" x2="304.801" y2="-372.6074" gradientTransform="matrix(1 0 0 -1 -296 -364)">
		<stop  offset="0" style="stop-color:#F8B409"/>
		<stop  offset="0.358" style="stop-color:#FBC532;stop-opacity:0.7136"/>
		<stop  offset="1" style="stop-color:#FFE278;stop-opacity:0.2"/>
	</linearGradient>
	<path class="st3" d="M10,8.2C9,8.2,8.2,9,8.2,10c0,1,0.8,1.8,1.8,1.8s1.8-0.8,1.8-1.8C11.9,9,11,8.2,10,8.2z"/>
</g>
</svg>
