<?xml version="1.0" encoding="utf-8"?>
<!-- Generator: Adobe Illustrator 25.2.2, SVG Export Plug-In . SVG Version: 6.00 Build 0)  -->
<svg version="1.1" id="Layer_1" xmlns="http://www.w3.org/2000/svg" xmlns:xlink="http://www.w3.org/1999/xlink" x="0px" y="0px"
	 viewBox="0 0 20 20" style="enable-background:new 0 0 20 20;" xml:space="preserve">
<style type="text/css">
	.st0{fill:url(#SVGID_1_);}
	.st1{fill:url(#SVGID_2_);}
	.st2{fill:url(#SVGID_3_);}
	.st3{fill:url(#SVGID_4_);}
	.st4{fill:url(#SVGID_5_);}
	.st5{fill:url(#SVGID_6_);}
	.st6{fill:url(#SVGID_7_);}
</style>
<g>
	
		<linearGradient id="SVGID_1_" gradientUnits="userSpaceOnUse" x1="305.6046" y1="-378.6399" x2="306.371" y2="-370.0551" gradientTransform="matrix(1 0 0 -1 -296 -364)">
		<stop  offset="0" style="stop-color:#F8B409"/>
		<stop  offset="0.358" style="stop-color:#FBC532;stop-opacity:0.7136"/>
		<stop  offset="1" style="stop-color:#FFE278;stop-opacity:0.2"/>
	</linearGradient>
	<path class="st0" d="M7,7.6c0-0.3,0-0.7,0-1c0.1,0,0.3,0,0.4,0c0.2,0,0.4,0,0.6,0c0.1,0,0.2,0,0.2-0.2c0-0.3,0-0.5,0-0.8
		c0.3,0,0.6,0,1,0c0,0.2,0,0.5,0,0.7c0,0.2,0,0.2,0.2,0.2c0.3,0,0.3,0,0.3-0.3c0-0.2,0-0.4,0-0.6c0.3,0,0.6,0,1,0c0,0.2,0,0.5,0,0.7
		c0,0.2,0,0.2,0.2,0.2c0.3,0.1,0.6,0.1,0.9,0.2c0.7,0.2,1,0.7,1,1.4c0,0.6-0.4,1.3-1,1.5c0,0-0.1,0-0.1,0.1c0.1,0,0.3,0.1,0.4,0.1
		c0.9,0.3,1.3,1.3,0.9,2.2c-0.2,0.5-0.6,0.9-1.1,1c-0.4,0.1-0.7,0.2-1.1,0.3c-0.1,0-0.2,0.1-0.2,0.2c0,0.3,0,0.5,0,0.8
		c-0.3,0-0.6,0-1,0c0-0.1,0-0.2,0-0.3c0-0.1,0-0.2,0-0.3c0-0.4,0-0.4-0.4-0.4c-0.1,0-0.1,0.1-0.1,0.2c0,0.3,0,0.5,0,0.8
		c-0.3,0-0.6,0-1,0c0-0.3,0-0.5,0-0.7c0-0.2,0-0.2-0.2-0.2c-0.3,0-0.6,0-1,0c0-0.3,0-0.7,0-1c0.1,0,0.3,0,0.4,0
		c0.2,0,0.3-0.1,0.3-0.3c0-1.4,0-2.8,0-4.2c0-0.2-0.1-0.3-0.3-0.3C7.3,7.6,7.2,7.6,7,7.6z M9.2,12.4c0.5,0,0.9,0,1.4,0
		c0.3,0,0.6-0.1,0.8-0.3c0.5-0.4,0.4-1.1-0.2-1.4c-0.1,0-0.2-0.1-0.3-0.1c-0.5-0.1-1.1-0.1-1.6-0.1c0,0,0,0,0,0
		C9.2,11.1,9.2,11.7,9.2,12.4z M9.2,9.4c0.4,0,0.8,0,1.2,0c0.2,0,0.3-0.1,0.4-0.1c0.4-0.2,0.5-0.5,0.5-0.9c0-0.3-0.2-0.6-0.6-0.7
		c-0.5-0.1-1-0.1-1.5-0.1C9.2,8.2,9.2,8.8,9.2,9.4z"/>
	
		<linearGradient id="SVGID_2_" gradientUnits="userSpaceOnUse" x1="314.8163" y1="-380.0347" x2="299.6278" y2="-380.5387" gradientTransform="matrix(1 0 0 -1 -296 -364)">
		<stop  offset="0" style="stop-color:#FF0054"/>
		<stop  offset="0.978" style="stop-color:#FF0054;stop-opacity:0"/>
	</linearGradient>
	<path class="st1" d="M18.2,13.7c-1,2.5-3.9,5.5-8.4,5.5c-2.1,0-4-0.6-5.6-1.9c-1.2-0.9-2.1-2.1-2.8-3.6c0.3,0,0.6,0,0.9,0
		c0,0,0.1,0.1,0.1,0.1c0.9,1.7,2.3,3,4.1,3.7c4,1.7,8.5,0.1,10.6-3.7c0.1-0.2,0.2-0.2,0.3-0.2C17.7,13.7,17.9,13.7,18.2,13.7z"/>
	
		<linearGradient id="SVGID_3_" gradientUnits="userSpaceOnUse" x1="297.8251" y1="-367.5524" x2="313.9494" y2="-367.4805" gradientTransform="matrix(1 0 0 -1 -296 -364)">
		<stop  offset="0" style="stop-color:#FF0054"/>
		<stop  offset="0.936" style="stop-color:#FF0054;stop-opacity:0"/>
	</linearGradient>
	<path class="st2" d="M1.4,6.2c1.1-2.7,4.1-5.4,8.3-5.4c4.2,0,7.3,2.7,8.4,5.4c-0.3,0-0.6,0-0.9,0c0,0-0.1-0.1-0.1-0.1
		c-1-1.8-2.5-3.1-4.5-3.8C8.8,0.8,4.5,2.4,2.5,6C2.4,6.2,2.3,6.2,2.1,6.2C1.9,6.2,1.7,6.2,1.4,6.2z"/>
	
		<linearGradient id="SVGID_4_" gradientUnits="userSpaceOnUse" x1="313.5695" y1="-367.7876" x2="313.5695" y2="-373.2254" gradientTransform="matrix(1 0 0 -1 -296 -364)">
		<stop  offset="0" style="stop-color:#3D3E4F;stop-opacity:0"/>
		<stop  offset="0.1172" style="stop-color:#413E5B;stop-opacity:0.1172"/>
		<stop  offset="0.3281" style="stop-color:#4D3E7A;stop-opacity:0.3281"/>
		<stop  offset="0.6082" style="stop-color:#613EAD;stop-opacity:0.6082"/>
		<stop  offset="0.9438" style="stop-color:#7B3EF3;stop-opacity:0.9438"/>
		<stop  offset="1" style="stop-color:#803EFF"/>
	</linearGradient>
	<path class="st3" d="M15.2,7c0-1.3,1.1-2.4,2.4-2.4c1.3,0,2.3,1.1,2.4,2.3c0,1.3-1.1,2.4-2.3,2.4C16.3,9.4,15.2,8.3,15.2,7z"/>
	
		<linearGradient id="SVGID_5_" gradientUnits="userSpaceOnUse" x1="313.5691" y1="-372.1036" x2="313.5691" y2="-369.7422" gradientTransform="matrix(1 0 0 -1 -296 -364)">
		<stop  offset="0" style="stop-color:#3D3E4F;stop-opacity:0"/>
		<stop  offset="0.1172" style="stop-color:#413E5B;stop-opacity:0.1172"/>
		<stop  offset="0.3281" style="stop-color:#4D3E7A;stop-opacity:0.3281"/>
		<stop  offset="0.6082" style="stop-color:#613EAD;stop-opacity:0.6082"/>
		<stop  offset="0.9438" style="stop-color:#7B3EF3;stop-opacity:0.9438"/>
		<stop  offset="1" style="stop-color:#803EFF"/>
	</linearGradient>
	<path class="st4" d="M18.7,7c0-0.7-0.5-1.2-1.2-1.2c-0.7,0-1.2,0.5-1.2,1.2c0,0.7,0.5,1.2,1.2,1.2C18.2,8.3,18.7,7.8,18.7,7z"/>
	
		<linearGradient id="SVGID_6_" gradientUnits="userSpaceOnUse" x1="298.4305" y1="-373.6999" x2="298.4305" y2="-379.1376" gradientTransform="matrix(1 0 0 -1 -296 -364)">
		<stop  offset="0" style="stop-color:#3D3E4F;stop-opacity:0"/>
		<stop  offset="0.1172" style="stop-color:#413E5B;stop-opacity:0.1172"/>
		<stop  offset="0.3281" style="stop-color:#4D3E7A;stop-opacity:0.3281"/>
		<stop  offset="0.6082" style="stop-color:#613EAD;stop-opacity:0.6082"/>
		<stop  offset="0.9438" style="stop-color:#7B3EF3;stop-opacity:0.9438"/>
		<stop  offset="1" style="stop-color:#803EFF"/>
	</linearGradient>
	<path class="st5" d="M0.1,12.9c0-1.3,1.1-2.4,2.4-2.4c1.3,0,2.3,1.1,2.4,2.3c0,1.3-1.1,2.4-2.3,2.4C1.2,15.3,0.1,14.2,0.1,12.9z"/>
	
		<linearGradient id="SVGID_7_" gradientUnits="userSpaceOnUse" x1="298.4305" y1="-378.1966" x2="298.4305" y2="-375.7558" gradientTransform="matrix(1 0 0 -1 -296 -364)">
		<stop  offset="0" style="stop-color:#3D3E4F;stop-opacity:0"/>
		<stop  offset="0.1172" style="stop-color:#413E5B;stop-opacity:0.1172"/>
		<stop  offset="0.3281" style="stop-color:#4D3E7A;stop-opacity:0.3281"/>
		<stop  offset="0.6082" style="stop-color:#613EAD;stop-opacity:0.6082"/>
		<stop  offset="0.9438" style="stop-color:#7B3EF3;stop-opacity:0.9438"/>
		<stop  offset="1" style="stop-color:#803EFF"/>
	</linearGradient>
	<path class="st6" d="M3.6,13c0-0.7-0.5-1.2-1.2-1.2c-0.7,0-1.2,0.5-1.2,1.2c0,0.7,0.5,1.2,1.2,1.2C3.1,14.2,3.6,13.7,3.6,13z"/>
</g>
</svg>
