<?xml version="1.0" encoding="utf-8"?>
<!-- Generator: Adobe Illustrator 25.3.0, SVG Export Plug-In . SVG Version: 6.00 Build 0)  -->
<svg version="1.1" id="Layer_1" xmlns="http://www.w3.org/2000/svg" xmlns:xlink="http://www.w3.org/1999/xlink" x="0px" y="0px"
	 viewBox="0 0 32 32" style="enable-background:new 0 0 32 32;" xml:space="preserve">
<style type="text/css">
	.st0{fill:url(#SVGID_1_);}
	.st1{fill:url(#SVGID_2_);}
	.st2{fill:url(#SVGID_3_);}
	.st3{fill:url(#SVGID_4_);}
	.st4{fill:url(#SVGID_5_);}
</style>
<g>
	
		<linearGradient id="SVGID_1_" gradientUnits="userSpaceOnUse" x1="31.344" y1="22.0747" x2="9.1527" y2="4.1738" gradientTransform="matrix(1 0 0 -1 0 34)">
		<stop  offset="0" style="stop-color:#FFFFFF;stop-opacity:0.1"/>
		<stop  offset="0.1089" style="stop-color:#F7F3FF;stop-opacity:0.198"/>
		<stop  offset="0.3049" style="stop-color:#E3D4FF;stop-opacity:0.3744"/>
		<stop  offset="0.5654" style="stop-color:#C1A1FF;stop-opacity:0.6088"/>
		<stop  offset="0.8771" style="stop-color:#935BFF;stop-opacity:0.8894"/>
		<stop  offset="1" style="stop-color:#803EFF"/>
	</linearGradient>
	<path class="st0" d="M28.7,10.2l-1.5,0.7c0.8,1.7,1.2,3.4,1.2,5.2c0,6.8-5.6,12.4-12.4,12.4c-2.5,0-4.9-0.8-7-2.2
		c0.3-0.9,0.1-1.9-0.6-2.6c-1-1-2.5-1-3.5,0c-1,1-1,2.5,0,3.5c0.8,0.8,2,0.9,3,0.4c2.4,1.7,5.2,2.6,8,2.6c7.7,0,14-6.3,14-14
		C30,14,29.6,12.1,28.7,10.2z M7.3,25.9c-0.3,0.3-0.8,0.3-1.2,0c-0.3-0.3-0.3-0.8,0-1.2c0.3-0.3,0.8-0.3,1.2,0
		C7.6,25,7.6,25.5,7.3,25.9z"/>
	
		<linearGradient id="SVGID_2_" gradientUnits="userSpaceOnUse" x1="0.3108" y1="17.5817" x2="23.6854" y2="31.0444" gradientTransform="matrix(1 0 0 -1 0 34)">
		<stop  offset="0" style="stop-color:#FF0054;stop-opacity:0.1165"/>
		<stop  offset="1" style="stop-color:#FF0054"/>
	</linearGradient>
	<path class="st1" d="M23.5,8.5c1,1,2.5,1,3.5,0c1-1,1-2.5,0-3.5c-0.8-0.8-2-0.9-3-0.4C21.6,2.9,18.9,2,16,2C8.3,2,2,8.3,2,16
		c0,2,0.5,3.9,1.3,5.9l1.5-0.7C4,19.5,3.6,17.7,3.6,16C3.6,9.2,9.2,3.6,16,3.6c2.5,0,4.9,0.8,7,2.2C22.7,6.7,22.8,7.8,23.5,8.5z
		 M24.7,6.1c0.3-0.3,0.8-0.3,1.2,0c0.3,0.3,0.3,0.8,0,1.2c-0.3,0.3-0.8,0.3-1.2,0C24.4,7,24.4,6.5,24.7,6.1z"/>
	
		<linearGradient id="SVGID_3_" gradientUnits="userSpaceOnUse" x1="11.273" y1="24.7072" x2="11.0531" y2="12.3958" gradientTransform="matrix(1 0 0 -1 0 34)">
		<stop  offset="0" style="stop-color:#FF0054;stop-opacity:0.4482"/>
		<stop  offset="1" style="stop-color:#FF0054"/>
	</linearGradient>
	<path class="st2" d="M13.1,11.6v8.7h-1.4v1.4h-1.1v-1.4H9.2v-8.7h1.4V9.8h1.1v1.8H13.1z"/>
	
		<linearGradient id="SVGID_4_" gradientUnits="userSpaceOnUse" x1="16.3549" y1="21.8936" x2="15.8419" y2="9.7283" gradientTransform="matrix(1 0 0 -1 0 34)">
		<stop  offset="0" style="stop-color:#10B487"/>
		<stop  offset="0.1862" style="stop-color:#13CBA8;stop-opacity:0.9442"/>
		<stop  offset="0.4041" style="stop-color:#17E1C7;stop-opacity:0.8788"/>
		<stop  offset="0.6166" style="stop-color:#19F0DD;stop-opacity:0.815"/>
		<stop  offset="0.8188" style="stop-color:#1BFAEA;stop-opacity:0.7543"/>
		<stop  offset="1" style="stop-color:#1BFDEF;stop-opacity:0.7"/>
	</linearGradient>
	<path class="st3" d="M18,14.1h-1.4v-1.8h-1.1v1.8h-1.4v8.7h1.4v1.4h1.1v-1.4H18V14.1z"/>
	
		<linearGradient id="SVGID_5_" gradientUnits="userSpaceOnUse" x1="21.066" y1="25.1595" x2="21.066" y2="12.5469" gradientTransform="matrix(1 0 0 -1 0 34)">
		<stop  offset="0" style="stop-color:#F8B409"/>
		<stop  offset="0.358" style="stop-color:#FBC532;stop-opacity:0.7136"/>
		<stop  offset="1" style="stop-color:#FFE278;stop-opacity:0.2"/>
	</linearGradient>
	<path class="st4" d="M23,10.7h-1.4V8.9h-1.1v1.8h-1.4v8.7h1.4v1.4h1.1v-1.4H23V10.7z"/>
</g>
</svg>
