<svg width="92" height="61" viewBox="0 0 92 61" fill="none" xmlns="http://www.w3.org/2000/svg">
<mask id="mask0" mask-type="alpha" maskUnits="userSpaceOnUse" x="0" y="0" width="92" height="61">
<rect width="92" height="61" rx="8" fill="#C4C4C4"/>
</mask>
<g mask="url(#mask0)">
<mask id="mask1" mask-type="alpha" maskUnits="userSpaceOnUse" x="-3" y="-2" width="135" height="67">
<path d="M131.145 -2H-3V65H131.145V-2Z" fill="#012169"/>
</mask>
<g mask="url(#mask1)">
<path d="M131.144 -2H-3.00098V65H131.144V-2Z" fill="#012169"/>
<path d="M-3.00098 -2L64.0715 31.5L-3.00098 -2ZM64.0715 -2L-3.00098 32.3816Z" fill="black"/>
<path d="M62.3078 35.0265L30.5367 19.1581L-2.11705 35.0265L-4.76465 28.8555L22.5939 14.7502L-4.76465 1.52652L-2.11705 -4.64453L30.5367 11.2239L62.3078 -4.64453L65.838 1.52652L37.5969 14.7502L65.838 28.8555L62.3078 35.0265Z" fill="white"/>
<path d="M-2.99951 -2L64.073 31.5L-2.99951 -2ZM64.073 -2L-2.99951 32.3816Z" fill="black"/>
<path d="M63.1892 34.1442L30.5355 17.3942L-2.11823 34.1442L-3.8833 29.7363L25.2403 14.7495L-3.8833 0.644222L-2.11823 -3.76367L30.5355 12.9863L63.1892 -3.76367L64.9543 0.644222L34.9482 14.7495L64.9543 29.7363L63.1892 34.1442Z" fill="#E4002B"/>
<path d="M30.5353 -2V31.5V-2ZM-3.00098 14.75H64.0715Z" fill="black"/>
<path d="M35.8305 32.3816H24.3575V20.9211H-3.00098V9.46053H24.3575V-2H35.8305V9.46053H64.0715V20.9211H35.8305V32.3816Z" fill="white"/>
<path d="M30.5353 -2V31.5V-2ZM-3.00098 14.75H64.0715Z" fill="black"/>
<path d="M34.0654 32.3816H27.0051V18.2763H-3.00098V12.1053H27.0051V-2H34.0654V12.1053H64.0715V18.2763H34.0654V32.3816Z" fill="#E4002B"/>
<path d="M72.491 50.7783L73.4177 53.655L76.247 52.5845L74.5734 55.1012L77.1748 56.6429L74.1615 56.9053L74.5765 59.8985L72.4931 57.7082L70.4097 59.8985L70.8247 56.9053L67.8115 56.6429L70.4129 55.1012L68.7392 52.5845L71.5686 53.655L72.491 50.7783Z" fill="white"/>
<path d="M45.6785 43L46.6052 45.8767L49.4346 44.8062L47.7609 47.3229L50.3623 48.8646L47.3491 49.127L47.7641 52.1201L45.6807 49.9298L43.5972 52.1201L44.0122 49.127L40.999 48.8646L43.6004 47.3229L41.9267 44.8062L44.7561 45.8767L45.6785 43Z" fill="white"/>
<path d="M72.491 6L73.4177 8.87668L76.247 7.80619L74.5734 10.3229L77.1748 11.8646L74.1615 12.127L74.5765 15.1201L72.4931 12.9298L70.4097 15.1201L70.8247 12.127L67.8115 11.8646L70.4129 10.3229L68.7392 7.80619L71.5686 8.87668L72.491 6Z" fill="white"/>
<path d="M87.4305 19.7139L88.3572 22.5905L91.1865 21.5201L89.5129 24.0367L92.1142 25.5785L89.101 25.8408L89.516 28.834L87.4326 26.6437L85.3492 28.834L85.7642 25.8408L82.751 25.5785L85.3523 24.0367L83.6787 21.5201L86.508 22.5905L87.4305 19.7139Z" fill="white"/>
<path d="M79.2132 33.1865L79.9454 34.9791L81.8786 35.1207L80.3983 36.3697L80.8605 38.2493L79.2142 37.2292L77.5679 38.2493L78.0301 36.3697L76.5498 35.1207L78.483 34.9791L79.2132 33.1865Z" fill="white"/>
</g>
</g>
</svg>
