<svg width="138" height="60" viewBox="0 0 138 60" fill="none" xmlns="http://www.w3.org/2000/svg">
<path d="M65.6266 23.5L61.3141 30L60.7662 30.83L58.7165 33.92C58.96 32.56 59.0716 31.15 59.0716 29.72C59.0716 15.66 47.504 4.26 33.2474 4.26C25.698 4.26 18.8893 7.46 14.1709 12.56L11.8979 11.66C17.0324 5.74 24.6832 2 33.2169 2C46.6618 2 57.9047 11.32 60.6546 23.75L65.6266 23.5Z" fill="#1B007C"/>
<path d="M54.6779 47.61C49.6349 53.57 42.0956 57.42 33.6025 57.54C20.2185 57.75 8.88426 48.65 5.94162 36.31L1 36.64L5.19074 30.09L5.72853 29.26L7.64632 26.25C7.48397 27.38 7.40279 28.54 7.40279 29.71C7.40279 43.77 18.9704 55.17 33.2372 55.17C40.8576 55.17 47.6968 51.92 52.4253 46.75L54.6779 47.61Z" fill="#1B007C"/>
<path d="M47.8693 41.37V43.15C39.2139 43.15 27.565 43.15 18.7472 43.15V41.39H20.3403C20.3403 41.15 20.3403 40.39 20.3403 39.68H21.9639V38.02H44.7034V39.68C44.9368 39.68 45.6369 39.68 46.3269 39.68C46.3269 40.38 46.3269 41.11 46.3269 41.36H47.8693V41.37ZM21.9639 22.68C21.9639 23.19 21.9639 23.96 21.9639 24.47C22.0755 24.47 22.1769 24.47 22.2277 24.47H22.2378C22.2581 24.47 22.248 24.47 22.2277 24.47C22.2175 24.47 22.2175 24.47 22.2074 24.47C24.3991 24.47 27.3012 24.47 29.3408 24.47C33.8664 24.47 39.9343 24.47 44.7034 24.47C44.7034 23.88 44.7034 23.23 44.7034 22.68C37.7324 22.68 28.7421 22.68 21.9639 22.68ZM28.6 37.28L31.8369 37.24L31.4412 25.09H28.9958L28.6 37.28ZM37.5193 25.09H35.0739L34.6781 37.24L37.915 37.28L37.5193 25.09ZM43.435 25.11H41.0708L40.6547 37.3H44.0743L43.435 25.11ZM22.4408 37.3H25.8603L25.4443 25.11H23.08L22.4408 37.3ZM47.504 20.43C42.8972 17.98 38.3108 15.53 33.7141 13.06C33.5619 12.98 33.4402 12.93 33.2981 12.93C33.1459 12.93 33.0343 12.98 32.8821 13.06C28.2855 15.52 23.699 17.98 19.0922 20.43C18.7574 20.61 18.5849 20.81 18.6255 21.2C18.6559 21.47 18.6356 21.99 18.6356 21.99H47.9809C47.9809 21.99 47.9606 21.47 47.9911 21.2C48.0114 20.81 47.8389 20.61 47.504 20.43Z" fill="url(#paint0_linear)"/>
<path d="M80.3906 24.89V25.99H74.3125V15.16H76.6362V24.89H80.3906ZM81.1922 21.74C81.1922 20.41 81.4966 19.34 82.1054 18.52C82.7143 17.7 83.7797 17.29 85.3119 17.29C86.8238 17.29 87.8893 17.7 88.4879 18.51C89.0866 19.32 89.391 20.4 89.391 21.74C89.391 23.07 89.0866 24.15 88.4879 24.96C87.8893 25.78 86.8238 26.19 85.3119 26.19C82.5621 26.19 81.1922 24.71 81.1922 21.74ZM86.7122 24.26C86.9557 23.7 87.0775 22.86 87.0775 21.74C87.0775 20.61 86.9557 19.77 86.7224 19.21C86.4788 18.66 86.0121 18.38 85.3119 18.38C84.6016 18.38 84.1146 18.66 83.871 19.21C83.6275 19.76 83.5057 20.61 83.5057 21.74C83.5057 22.86 83.6275 23.7 83.871 24.26C84.1146 24.82 84.6016 25.1 85.3119 25.1C86.0019 25.1 86.4687 24.82 86.7122 24.26ZM93.6122 24.31C93.8557 24.83 94.2921 25.1 94.9313 25.1C95.4387 25.1 95.804 24.92 96.0475 24.57C96.291 24.22 96.4229 23.68 96.4432 22.95L98.4016 23.02C98.3306 24.08 98.0262 24.87 97.4985 25.4C96.9709 25.93 96.0779 26.19 94.8197 26.19C93.3281 26.19 92.3134 25.79 91.7654 24.98C91.2175 24.17 90.9435 23.09 90.9435 21.74C90.9435 20.36 91.2175 19.28 91.7654 18.48C92.3134 17.68 93.3281 17.29 94.8197 17.29C96.0678 17.29 96.9506 17.54 97.4782 18.05C98.0059 18.56 98.3103 19.31 98.3813 20.31L96.4432 20.52C96.4229 19.78 96.291 19.24 96.0576 18.9C95.8243 18.56 95.4488 18.39 94.9313 18.39C94.2921 18.39 93.8456 18.65 93.6122 19.18C93.3788 19.71 93.2571 20.56 93.2571 21.75C93.2469 22.93 93.3687 23.79 93.6122 24.31ZM100.644 25.59C100.198 25.18 99.9643 24.63 99.9643 23.94C99.9643 23.19 100.248 22.6 100.827 22.19C101.395 21.78 102.268 21.48 103.445 21.29L105.22 20.99V20.12C105.22 18.97 104.774 18.39 103.891 18.39C103.364 18.39 102.968 18.55 102.714 18.87C102.46 19.19 102.318 19.69 102.278 20.37L100.36 20.18C100.441 19.21 100.756 18.49 101.294 18.02C101.831 17.54 102.704 17.3 103.922 17.3C105.109 17.3 106.002 17.55 106.611 18.04C107.219 18.53 107.524 19.27 107.524 20.25V25.99H106.032L105.362 24.88C104.977 25.33 104.541 25.66 104.054 25.88C103.566 26.1 103.029 26.21 102.471 26.21C101.699 26.19 101.091 25.99 100.644 25.59ZM104.368 24.76C104.713 24.57 104.997 24.34 105.22 24.08V21.89L103.759 22.15C102.623 22.36 102.065 22.92 102.065 23.81C102.065 24.19 102.176 24.49 102.4 24.71C102.623 24.93 102.927 25.05 103.303 25.05C103.668 25.05 104.023 24.95 104.368 24.76ZM112.476 25.98H110.162V14.86L112.476 14.56V25.98Z" fill="url(#paint1_linear)"/>
<path d="M81.0806 33.62V34.71H78.1278V44.44H75.8041V34.71H72.8311V33.62H81.0806V33.62ZM85.6062 36.36C86.1034 36.05 86.6716 35.9 87.3211 35.9V37.49C86.3774 37.49 85.6975 37.66 85.3018 38C84.9061 38.34 84.7031 38.85 84.7031 39.54V44.45H82.3896V35.97H83.4043L84.419 37.58C84.7133 37.07 85.109 36.67 85.6062 36.36ZM88.7924 44.05C88.3459 43.64 88.1125 43.09 88.1125 42.4C88.1125 41.65 88.3966 41.06 88.975 40.65C89.5433 40.24 90.4159 39.94 91.593 39.75L93.3687 39.45V38.58C93.3687 37.43 92.9222 36.85 92.0394 36.85C91.5118 36.85 91.1161 37.01 90.8624 37.33C90.6087 37.65 90.4666 38.15 90.4261 38.83L88.5083 38.64C88.5894 37.67 88.904 36.95 89.4418 36.48C89.9796 36 90.8522 35.76 92.0699 35.76C93.2571 35.76 94.15 36.01 94.7588 36.5C95.3677 36.99 95.6721 37.73 95.6721 38.71V44.45H94.1805L93.5108 43.34C93.1252 43.79 92.6888 44.12 92.2018 44.34C91.7147 44.56 91.1769 44.67 90.6188 44.67C89.8477 44.66 89.2388 44.46 88.7924 44.05ZM92.5062 43.22C92.8512 43.03 93.1353 42.8 93.3586 42.54V40.35L91.8974 40.61C90.7609 40.82 90.2028 41.38 90.2028 42.27C90.2028 42.65 90.3144 42.95 90.5377 43.17C90.7609 43.39 91.0653 43.51 91.4408 43.51C91.8061 43.51 92.1612 43.41 92.5062 43.22ZM105.271 36.47C105.768 36.94 106.012 37.61 106.012 38.48V44.45H103.709V38.73C103.709 38.12 103.607 37.68 103.414 37.41C103.221 37.14 102.907 37 102.471 37C101.841 37 101.223 37.21 100.624 37.64V44.46H98.3103V35.98H99.325L100.157 36.79C100.604 36.48 101.091 36.24 101.628 36.05C102.166 35.86 102.663 35.77 103.13 35.77C104.064 35.76 104.784 35.99 105.271 36.47ZM114.485 40.36C114.911 40.74 115.134 41.29 115.134 41.99C115.134 42.83 114.82 43.48 114.19 43.95C113.561 44.42 112.729 44.66 111.694 44.66C110.466 44.66 109.553 44.43 108.955 43.97C108.356 43.51 107.991 42.84 107.859 41.96L109.756 41.78C109.817 42.35 110.01 42.78 110.324 43.1C110.639 43.42 111.096 43.57 111.694 43.57C112.12 43.57 112.476 43.46 112.76 43.24C113.034 43.02 113.176 42.76 113.176 42.45C113.176 42.16 113.034 41.91 112.739 41.71C112.445 41.51 111.968 41.33 111.288 41.16L110.456 40.91C109.655 40.7 109.046 40.39 108.64 39.99C108.224 39.59 108.021 39.03 108.021 38.31C108.021 37.5 108.325 36.87 108.944 36.42C109.563 35.97 110.375 35.75 111.4 35.75C112.567 35.75 113.44 35.97 114.008 36.42C114.576 36.87 114.921 37.53 115.063 38.42L113.145 38.54C113.084 38 112.902 37.58 112.608 37.29C112.313 37 111.907 36.85 111.41 36.85C110.954 36.85 110.609 36.94 110.355 37.12C110.111 37.3 109.99 37.54 109.99 37.84C109.99 38.18 110.132 38.45 110.416 38.65C110.7 38.85 111.146 39.03 111.745 39.2L112.536 39.43C113.409 39.67 114.059 39.98 114.485 40.36ZM122.724 33.39L122.024 34.96C121.841 34.7 121.628 34.49 121.375 34.33C121.131 34.17 120.877 34.09 120.614 34.09C120.289 34.09 120.045 34.19 119.873 34.39C119.7 34.59 119.619 34.85 119.619 35.17V35.96H121.395V37.07H119.619V44.43H117.316V37.07H115.926V35.96H117.316V35.69C117.316 34.72 117.58 34 118.097 33.51C118.625 33.02 119.396 32.78 120.431 32.78C121.182 32.79 121.953 32.99 122.724 33.39ZM129.837 40.46H124.348C124.348 41.61 124.49 42.42 124.774 42.88C125.058 43.34 125.515 43.57 126.164 43.57C127.199 43.57 127.757 43.03 127.828 41.95L129.736 42.02C129.655 42.84 129.33 43.49 128.772 43.96C128.214 44.43 127.321 44.67 126.073 44.67C124.642 44.67 123.617 44.3 122.988 43.57C122.359 42.83 122.044 41.72 122.044 40.22C122.044 38.88 122.339 37.8 122.917 36.99C123.495 36.18 124.54 35.77 126.032 35.77C127.473 35.77 128.467 36.18 129.015 37.01C129.563 37.83 129.837 38.91 129.837 40.22V40.46V40.46ZM124.835 37.43C124.581 37.81 124.429 38.46 124.378 39.36H127.595C127.554 38.52 127.422 37.9 127.179 37.48C126.935 37.06 126.55 36.85 126.002 36.85C125.484 36.85 125.088 37.05 124.835 37.43ZM135.225 36.36C135.723 36.05 136.291 35.9 136.94 35.9V37.49C135.996 37.49 135.317 37.66 134.921 38C134.525 38.34 134.322 38.85 134.322 39.54V44.45H132.009V35.97H133.023L134.038 37.58C134.343 37.07 134.738 36.67 135.225 36.36Z" fill="url(#paint2_linear)"/>
<defs>
<linearGradient id="paint0_linear" x1="33.2893" y1="12.5526" x2="33.2893" y2="42.8753" gradientUnits="userSpaceOnUse">
<stop stop-color="#FF0054"/>
<stop offset="0.1454" stop-color="#E40059"/>
<stop offset="0.4585" stop-color="#9F0065"/>
<stop offset="0.912" stop-color="#310078"/>
<stop offset="1" stop-color="#1B007C"/>
</linearGradient>
<linearGradient id="paint1_linear" x1="93.3967" y1="15.2259" x2="93.3967" y2="25.2913" gradientUnits="userSpaceOnUse">
<stop stop-color="#9A0066"/>
<stop offset="0.7753" stop-color="#380077"/>
<stop offset="1" stop-color="#1B007C"/>
</linearGradient>
<linearGradient id="paint2_linear" x1="104.884" y1="31.9784" x2="104.884" y2="43.6274" gradientUnits="userSpaceOnUse">
<stop stop-color="#9A0066"/>
<stop offset="0.7753" stop-color="#380077"/>
<stop offset="1" stop-color="#1B007C"/>
</linearGradient>
</defs>
</svg>
