<svg width="492" height="267" viewBox="0 0 492 267" fill="none" xmlns="http://www.w3.org/2000/svg">
<path d="M481.759 267H10.241C4.58599 267 0 260.606 0 252.72V89H492V252.72C492 260.606 487.414 267 481.759 267Z" fill="url(#paint0_radial)"/>
<path d="M0 8.74423V89H206.719C214.023 89 221.027 91.474 226.192 95.8845L243.877 110.984C245.046 111.982 246.954 111.982 248.123 110.984L265.808 95.8845C270.973 91.474 277.977 89 285.281 89H492V8.74423C492 3.91571 487.414 0 481.759 0H10.241C4.58599 0 0 3.91571 0 8.74423Z" fill="white"/>
<path d="M204.889 59.304C203.311 60.712 201.273 61.416 198.777 61.416C196.281 61.416 194.244 60.712 192.665 59.304C191.087 57.8747 190.297 55.9653 190.297 53.576V38.6H193.977V53.352C193.977 54.7173 194.372 55.8053 195.161 56.616C195.972 57.4267 197.177 57.832 198.777 57.832C200.377 57.832 201.572 57.4267 202.361 56.616C203.172 55.8053 203.577 54.7173 203.577 53.352V38.6H207.257V53.576C207.257 55.9653 206.468 57.8747 204.889 59.304ZM218.946 61.416C216.791 61.416 214.957 60.9253 213.442 59.944C211.949 58.9627 210.903 57.6187 210.306 55.912L213.474 54.056C214.37 56.5733 216.226 57.832 219.042 57.832C220.429 57.832 221.463 57.5653 222.146 57.032C222.85 56.4773 223.202 55.7627 223.202 54.888C223.202 53.9707 222.829 53.2773 222.082 52.808C221.335 52.3173 220.013 51.784 218.114 51.208C217.047 50.888 216.183 50.5893 215.522 50.312C214.861 50.0347 214.157 49.6507 213.41 49.16C212.685 48.648 212.141 48.0187 211.778 47.272C211.415 46.5253 211.234 45.6507 211.234 44.648C211.234 42.664 211.938 41.096 213.346 39.944C214.754 38.7707 216.45 38.184 218.434 38.184C220.226 38.184 221.794 38.6213 223.138 39.496C224.482 40.3707 225.517 41.576 226.242 43.112L223.138 44.904C222.199 42.8133 220.631 41.768 218.434 41.768C217.367 41.768 216.514 42.024 215.874 42.536C215.234 43.0267 214.914 43.6987 214.914 44.552C214.914 45.384 215.234 46.0453 215.874 46.536C216.535 47.0053 217.719 47.5067 219.426 48.04C220.279 48.3173 220.898 48.5307 221.282 48.68C221.687 48.808 222.242 49.0213 222.946 49.32C223.671 49.6187 224.215 49.9173 224.578 50.216C224.941 50.5147 225.325 50.888 225.73 51.336C226.157 51.784 226.455 52.296 226.626 52.872C226.797 53.448 226.882 54.0987 226.882 54.824C226.882 56.8507 226.146 58.4613 224.674 59.656C223.223 60.8293 221.314 61.416 218.946 61.416ZM238.696 38.6C241.768 38.6 244.318 39.6773 246.344 41.832C248.392 43.9867 249.416 46.6427 249.416 49.8C249.416 52.936 248.392 55.592 246.344 57.768C244.318 59.9227 241.768 61 238.696 61H229.896V38.6H238.696ZM238.696 57.48C240.808 57.48 242.526 56.7547 243.848 55.304C245.192 53.8533 245.864 52.0187 245.864 49.8C245.864 47.56 245.192 45.7253 243.848 44.296C242.526 42.8453 240.808 42.12 238.696 42.12H233.576V57.48H238.696ZM257.101 61.416C253.624 61.416 251.224 60.0507 249.901 57.32L253.069 55.464C253.795 57.0427 255.149 57.832 257.133 57.832C258.413 57.832 259.395 57.5227 260.077 56.904C260.781 56.264 261.133 55.368 261.133 54.216V38.6H264.813V54.216C264.813 56.52 264.088 58.3013 262.637 59.56C261.187 60.7973 259.341 61.416 257.101 61.416ZM277.34 38.6C279.452 38.6 281.212 39.304 282.62 40.712C284.049 42.12 284.764 43.8693 284.764 45.96C284.764 48.0293 284.049 49.7787 282.62 51.208C281.212 52.616 279.452 53.32 277.34 53.32H272.764V61H269.084V38.6H277.34ZM277.34 49.864C278.428 49.864 279.324 49.5013 280.028 48.776C280.732 48.0293 281.084 47.0907 281.084 45.96C281.084 44.8293 280.732 43.9013 280.028 43.176C279.324 42.4293 278.428 42.056 277.34 42.056H272.764V49.864H277.34ZM304.55 38.6L296.742 52.104V61H293.062V52.104L285.254 38.6H289.446L294.918 48.52L300.358 38.6H304.55Z" fill="#3721A7"/>
<rect x="285" y="112.224" width="43" height="101" rx="21.5" fill="url(#paint1_radial)"/>
<rect x="365" y="178.224" width="40" height="117" rx="20" transform="rotate(90 365 178.224)" fill="white"/>
<path d="M132.615 136.6H135.815V159H132.135V140.536L127.623 141.816L126.727 138.68L132.615 136.6ZM176.842 156.248C175.306 158.36 173.151 159.416 170.378 159.416C167.604 159.416 165.439 158.36 163.882 156.248C162.346 154.136 161.578 151.32 161.578 147.8C161.578 144.28 162.346 141.464 163.882 139.352C165.439 137.24 167.604 136.184 170.378 136.184C173.151 136.184 175.306 137.24 176.842 139.352C178.399 141.464 179.178 144.28 179.178 147.8C179.178 151.32 178.399 154.136 176.842 156.248ZM170.378 155.832C172.042 155.832 173.311 155.139 174.186 153.752C175.06 152.365 175.498 150.381 175.498 147.8C175.498 145.219 175.06 143.235 174.186 141.848C173.311 140.461 172.042 139.768 170.378 139.768C168.735 139.768 167.466 140.461 166.57 141.848C165.695 143.235 165.258 145.219 165.258 147.8C165.258 150.381 165.695 152.365 166.57 153.752C167.466 155.139 168.735 155.832 170.378 155.832ZM213.222 145.752C214.843 146.136 216.155 146.893 217.158 148.024C218.182 149.133 218.694 150.531 218.694 152.216C218.694 154.456 217.936 156.216 216.422 157.496C214.907 158.776 213.051 159.416 210.854 159.416C209.147 159.416 207.611 159.021 206.246 158.232C204.902 157.443 203.931 156.291 203.334 154.776L206.47 152.952C207.131 154.872 208.592 155.832 210.854 155.832C212.134 155.832 213.147 155.512 213.894 154.872C214.64 154.211 215.014 153.325 215.014 152.216C215.014 151.107 214.64 150.232 213.894 149.592C213.147 148.952 212.134 148.632 210.854 148.632H210.022L208.55 146.424L213.382 140.056H204.006V136.6H217.766V139.736L213.222 145.752ZM232.022 158.68C231.553 159.149 230.987 159.384 230.326 159.384C229.665 159.384 229.099 159.149 228.63 158.68C228.161 158.211 227.926 157.645 227.926 156.984C227.926 156.323 228.15 155.757 228.598 155.288C229.067 154.819 229.643 154.584 230.326 154.584C230.987 154.584 231.553 154.819 232.022 155.288C232.491 155.757 232.726 156.323 232.726 156.984C232.726 157.645 232.491 158.211 232.022 158.68ZM273.106 143.832C273.106 145.539 272.658 147.043 271.762 148.344L264.69 159H260.466L265.586 151.48H265.202C262.877 151.48 260.968 150.776 259.474 149.368C258.002 147.939 257.266 146.093 257.266 143.832C257.266 141.571 258.002 139.736 259.474 138.328C260.968 136.899 262.877 136.184 265.202 136.184C267.528 136.184 269.426 136.899 270.898 138.328C272.37 139.736 273.106 141.571 273.106 143.832ZM260.946 143.832C260.946 145.069 261.341 146.072 262.13 146.84C262.941 147.608 263.965 147.992 265.202 147.992C266.44 147.992 267.453 147.619 268.242 146.872C269.032 146.104 269.426 145.091 269.426 143.832C269.426 142.573 269.032 141.571 268.242 140.824C267.453 140.056 266.44 139.672 265.202 139.672C263.965 139.672 262.941 140.056 262.13 140.824C261.341 141.571 260.946 142.573 260.946 143.832ZM336.481 136.6H350.721V139.8L342.849 159H338.977L346.721 140.12H336.481V136.6Z" fill="#3721A7"/>
<path d="M309.52 147.352C311.717 148.568 312.816 150.381 312.816 152.792C312.816 154.84 312.101 156.461 310.672 157.656C309.242 158.829 307.344 159.416 304.976 159.416C302.608 159.416 300.698 158.829 299.248 157.656C297.818 156.461 297.104 154.84 297.104 152.792C297.104 151.64 297.392 150.595 297.968 149.656C298.544 148.696 299.354 147.928 300.4 147.352C298.714 146.243 297.872 144.664 297.872 142.616C297.872 140.568 298.554 138.989 299.92 137.88C301.285 136.749 302.97 136.184 304.976 136.184C306.96 136.184 308.634 136.749 310 137.88C311.386 138.989 312.08 140.568 312.08 142.616C312.08 144.664 311.226 146.243 309.52 147.352ZM304.976 139.672C303.973 139.672 303.152 139.939 302.512 140.472C301.872 141.005 301.552 141.773 301.552 142.776C301.552 143.736 301.872 144.493 302.512 145.048C303.173 145.603 303.994 145.88 304.976 145.88C305.936 145.88 306.746 145.603 307.408 145.048C308.069 144.493 308.4 143.736 308.4 142.776C308.4 141.773 308.069 141.005 307.408 140.472C306.768 139.939 305.957 139.672 304.976 139.672ZM304.976 155.928C306.213 155.928 307.216 155.629 307.984 155.032C308.752 154.413 309.136 153.549 309.136 152.44C309.136 151.331 308.752 150.477 307.984 149.88C307.216 149.261 306.213 148.952 304.976 148.952C303.717 148.952 302.704 149.261 301.936 149.88C301.168 150.477 300.784 151.331 300.784 152.44C300.784 153.549 301.168 154.413 301.936 155.032C302.704 155.629 303.717 155.928 304.976 155.928Z" fill="#FF0054"/>
<path d="M293.181 189.808C295.379 189.808 297.256 190.629 298.813 192.272C300.371 193.893 301.149 195.877 301.149 198.224C301.149 200.592 300.371 202.586 298.813 204.208C297.256 205.829 295.379 206.64 293.181 206.64C290.749 206.64 288.883 205.744 287.581 203.952V212.624H284.125V190.224H287.581V192.528C288.883 190.714 290.749 189.808 293.181 189.808ZM289.021 201.904C289.981 202.864 291.187 203.344 292.637 203.344C294.088 203.344 295.293 202.864 296.253 201.904C297.213 200.922 297.693 199.696 297.693 198.224C297.693 196.752 297.213 195.536 296.253 194.576C295.293 193.594 294.088 193.104 292.637 193.104C291.187 193.104 289.981 193.594 289.021 194.576C288.061 195.536 287.581 196.752 287.581 198.224C287.581 199.696 288.061 200.922 289.021 201.904ZM307.546 187.184C307.119 187.61 306.607 187.824 306.01 187.824C305.412 187.824 304.89 187.61 304.442 187.184C304.015 186.736 303.802 186.213 303.802 185.616C303.802 185.018 304.015 184.506 304.442 184.08C304.868 183.632 305.391 183.408 306.01 183.408C306.628 183.408 307.151 183.632 307.578 184.08C308.004 184.506 308.218 185.018 308.218 185.616C308.218 186.213 307.994 186.736 307.546 187.184ZM304.282 206.224V190.224H307.738V206.224H304.282ZM320.806 189.808C323.004 189.808 324.881 190.629 326.438 192.272C327.996 193.893 328.774 195.877 328.774 198.224C328.774 200.592 327.996 202.586 326.438 204.208C324.881 205.829 323.004 206.64 320.806 206.64C318.374 206.64 316.508 205.744 315.206 203.952V212.624H311.75V190.224H315.206V192.528C316.508 190.714 318.374 189.808 320.806 189.808ZM316.646 201.904C317.606 202.864 318.812 203.344 320.262 203.344C321.713 203.344 322.918 202.864 323.878 201.904C324.838 200.922 325.318 199.696 325.318 198.224C325.318 196.752 324.838 195.536 323.878 194.576C322.918 193.594 321.713 193.104 320.262 193.104C318.812 193.104 317.606 193.594 316.646 194.576C315.686 195.536 315.206 196.752 315.206 198.224C315.206 199.696 315.686 200.922 316.646 201.904Z" fill="#FF0054"/>
<defs>
<radialGradient id="paint0_radial" cx="0" cy="0" r="1" gradientUnits="userSpaceOnUse" gradientTransform="translate(245.288 93.5837) scale(255.734 177.007)">
<stop stop-color="#CDD2FF"/>
<stop offset="1" stop-color="#F0F2FF"/>
</radialGradient>
<radialGradient id="paint1_radial" cx="0" cy="0" r="1" gradientUnits="userSpaceOnUse" gradientTransform="translate(311.5 153.105) rotate(90) scale(60.119 683.759)">
<stop stop-color="white"/>
<stop offset="1" stop-color="white" stop-opacity="0"/>
</radialGradient>
</defs>
</svg>
