<svg width="120" height="57" viewBox="0 0 120 57" fill="none" xmlns="http://www.w3.org/2000/svg">
<path d="M77.5096 9C69.0605 9 61.5095 13.4303 61.5095 21.6136C61.5095 30.9995 74.9009 31.6477 74.9009 36.3635C74.9009 38.3491 72.6519 40.1263 68.8092 40.1263C63.3571 40.1263 59.282 37.6431 59.282 37.6431L57.5381 45.9023C57.5381 45.9023 62.2326 48 68.4649 48C77.7026 48 84.9724 43.3529 84.9724 35.0285C84.9724 25.1101 71.5251 24.4812 71.5251 20.1052C71.5251 18.5497 73.3714 16.846 77.2023 16.846C81.5251 16.8448 85.0511 18.6509 85.0511 18.6509L86.758 10.6748C86.758 10.6748 82.92 9 77.5096 9ZM0.204885 9.60243L0 10.8061C0 10.8061 3.55451 11.4639 6.75644 12.7772C10.8791 14.2821 11.1722 15.1592 11.8666 17.8798L19.4319 47.3783H29.5737L45.1974 9.60243H35.0794L25.04 35.2864L20.9435 13.5146C20.5671 11.023 18.6648 9.60243 16.3348 9.60243H0.204885ZM49.2653 9.60243L41.3284 47.3783H50.977L58.8865 9.60243H49.2653ZM103.079 9.60243C100.752 9.60243 99.5193 10.8627 98.6151 13.064L84.4793 47.3783H94.5973L96.5544 41.6588H108.881L110.071 47.3783H119L111.212 9.60243H103.079ZM104.395 19.8076L107.394 33.9827H99.3596L104.395 19.8076Z" fill="url(#paint0_linear)"/>
<defs>
<linearGradient id="paint0_linear" x1="9.11357e-05" y1="28.4991" x2="118.996" y2="28.4991" gradientUnits="userSpaceOnUse">
<stop stop-color="#20225F"/>
<stop offset="0.2" stop-color="#1A1F61"/>
<stop offset="0.4102" stop-color="#172272"/>
<stop offset="0.5952" stop-color="#152682"/>
<stop offset="0.8021" stop-color="#12288E"/>
<stop offset="1" stop-color="#0E2C9A"/>
</linearGradient>
</defs>
</svg>
