<?xml version="1.0" encoding="utf-8"?>
<!-- Generator: Adobe Illustrator 25.3.0, SVG Export Plug-In . SVG Version: 6.00 Build 0)  -->
<svg version="1.1" id="Layer_1" xmlns="http://www.w3.org/2000/svg" xmlns:xlink="http://www.w3.org/1999/xlink" x="0px" y="0px"
	 viewBox="0 0 80 80" style="enable-background:new 0 0 80 80;" xml:space="preserve">
<style type="text/css">
	.st0{fill:url(#SVGID_1_);}
	.st1{fill:url(#SVGID_2_);}
	.st2{fill:url(#SVGID_3_);}
	.st3{fill:url(#SVGID_4_);}
</style>
<g>
	
		<linearGradient id="SVGID_1_" gradientUnits="userSpaceOnUse" x1="287.7134" y1="-280.9946" x2="287.7134" y2="-315.6794" gradientTransform="matrix(1 0 0 -1 -266 -274)">
		<stop  offset="0" style="stop-color:#FFFFFF"/>
		<stop  offset="1" style="stop-color:#C6CBFF"/>
	</linearGradient>
	<path class="st0" d="M35.9,13.3L30.8,16c-0.4-0.2-0.9-0.4-1.2-0.6l-1.7-5.5h-5.3l-1.6,5.6c-0.5,0.2-0.9,0.3-1.2,0.6l-5.1-2.8
		L10.8,17l2.7,5.1c-0.2,0.4-0.4,0.9-0.6,1.2l-5.4,1.6v5.3l5.6,1.6c0.2,0.5,0.3,0.9,0.6,1.2L11,38.2l3.8,3.7l5-2.7
		c0.4,0.2,0.9,0.4,1.2,0.6l1.2,4.4v-3.8c0-1.1,0.1-2.2,0.2-3.3c0.1-0.7,0.1-1.3,0.3-2c-3-1-5.3-4-5.3-7.4c0-4.4,3.5-7.9,7.9-7.9
		c1.2,0,2.4,0.3,3.4,0.8c0.4-0.6,0.8-1,1.2-1.5C31.6,16.9,33.6,15,35.9,13.3z"/>
	
		<linearGradient id="SVGID_2_" gradientUnits="userSpaceOnUse" x1="288.6582" y1="-290.1387" x2="288.6582" y2="-309.6971" gradientTransform="matrix(1 0 0 -1 -266 -274)">
		<stop  offset="0" style="stop-color:#FFFFFF"/>
		<stop  offset="1" style="stop-color:#C6CBFF"/>
	</linearGradient>
	<path class="st1" d="M25.3,17.8c-5.4,0-9.8,4.4-9.8,9.8c0,4.4,2.9,8.1,7,9.4c0.1-0.7,0.1-1.3,0.3-2c-3-1-5.3-4-5.3-7.4
		c0-4.4,3.5-7.9,7.9-7.9c1.2,0,2.4,0.3,3.4,0.8c0.4-0.6,0.8-1,1.2-1.5C28.5,18.2,26.9,17.8,25.3,17.8z"/>
	
		<linearGradient id="SVGID_3_" gradientUnits="userSpaceOnUse" x1="315.749" y1="-278.3999" x2="315.749" y2="-332.4502" gradientTransform="matrix(1 0 0 -1 -266 -274)">
		<stop  offset="0" style="stop-color:#FFFFFF"/>
		<stop  offset="1" style="stop-color:#C6CBFF"/>
	</linearGradient>
	<path class="st2" d="M71.3,28.4c0-0.2-0.1-0.3-0.3-0.4L52.6,16.6c-2.3,1.4-5,3.9-7,6.5c-0.2,0.3-0.6,0.5-0.9,0.5
		c-0.3,0-0.5-0.1-0.7-0.2c-0.5-0.4-0.6-1-0.2-1.6c2.3-2.9,4.4-5,6.8-6.5c0.1-0.1,0.2-0.1,0.4-0.1c2.4-1.4,5.2-2.4,8.9-3.2
		c0.5-0.1,0.5-0.7,0.1-0.9L54.6,9c-0.3,0-0.5,0-0.7,0c-0.1,0-0.2,0-0.3,0.1c-15.5,3-26.6,16.8-26.6,32.7v20.4h30.9
		c9.4-12.3-6.9-16-3.1-27.6c4.3-0.6,8.1,0.9,12,4c0.2,0.2,0.6,0.2,0.8,0l4.6-4c0.2-0.2,0.3-0.4,0.2-0.6L71.3,28.4z"/>
	
		<linearGradient id="SVGID_4_" gradientUnits="userSpaceOnUse" x1="308.8191" y1="-338.2115" x2="308.8191" y2="-344.5703" gradientTransform="matrix(1 0 0 -1 -266 -274)">
		<stop  offset="0" style="stop-color:#FFFFFF"/>
		<stop  offset="1" style="stop-color:#C6CBFF"/>
	</linearGradient>
	<path class="st3" d="M23.9,70.9c-0.4,0-0.8-0.4-0.8-0.8v-4.6c0-0.4,0.4-0.8,0.8-0.8h37.6c0.5,0,0.9,0.4,0.9,0.9v4.4
		c0,0.5-0.4,0.9-0.9,0.9L23.9,70.9L23.9,70.9z"/>
</g>
</svg>
