<?xml version="1.0" encoding="utf-8"?>
<!-- Generator: Adobe Illustrator 25.3.0, SVG Export Plug-In . SVG Version: 6.00 Build 0)  -->
<svg version="1.1" id="Layer_1" xmlns="http://www.w3.org/2000/svg" xmlns:xlink="http://www.w3.org/1999/xlink" x="0px" y="0px"
	 viewBox="0 0 80 80" style="enable-background:new 0 0 80 80;" xml:space="preserve">
<style type="text/css">
	.st0{fill:url(#SVGID_1_);}
</style>
<g>
	
		<linearGradient id="SVGID_1_" gradientUnits="userSpaceOnUse" x1="306" y1="-346.0436" x2="306" y2="-283.773" gradientTransform="matrix(1 0 0 -1 -266 -274)">
		<stop  offset="0" style="stop-color:#3721A7"/>
		<stop  offset="1" style="stop-color:#803EFF"/>
	</linearGradient>
	<path class="st0" d="M64.3,31.9c-0.9-1.9-1.6-3.5-2.5-5.1c-9-15.1-30.2-16.7-41.5-3.1c-0.5,0.6-1.2,1.2-1.9,1.4
		c-1.2,0.4-2.3-0.2-2.9-1.2c-0.6-1-0.6-2.2,0.3-3.3c5.1-6.3,11.6-10.2,19.6-11.4C50.9,7.1,65,16.1,69.7,31.1
		c0.2,0.6,0.4,0.9,1.2,0.8c1.2-0.1,2.4-0.1,3.6,0c1.3,0,1.9,0.9,1.3,2.1c-2.4,5.1-4.8,10.2-7.3,15.3c-0.2,0.4-0.8,0.8-1.3,0.9
		c-0.4,0-1-0.4-1.2-0.8c-1.6-3.3-3.2-6.7-4.7-10c-0.8-1.7-1.7-3.5-2.5-5.2c-0.7-1.4-0.2-2.2,1.4-2.3C61.4,31.9,62.7,31.9,64.3,31.9z
		 M19.9,48c1.6,0,2.1-0.8,1.5-2.2c-2.4-5-4.7-10.1-7.2-15.1c-0.3-0.4-0.8-0.9-1.3-1c-0.7-0.2-1.2,0.4-1.4,1
		c-0.6,1.3-1.3,2.8-1.9,4.1C7.7,38.5,5.9,42.3,4.2,46c-0.6,1.2,0.1,2,1.3,2c1.2,0,2.2,0.1,3.4,0c0.8-0.1,1.2,0.3,1.4,1
		C16.1,67.9,37.8,76.7,55,67.1c3.6-2,6.7-4.6,9.3-7.9c0.8-1,0.8-2.2,0.2-3.3c-0.6-1-1.9-1.5-2.9-1.1c-0.7,0.3-1.3,0.8-1.9,1.3
		c-9.8,11.7-27.3,12.4-37.9,1.5c-2.7-2.8-4.6-5.9-6-9.7C17.3,48,18.6,48,19.9,48z M53.9,25.7c-2.5,0-5,0-7.5,0
		c-0.6,0-1.1,0.2-1.3,0.8c-0.3,0.6,0.1,0.9,0.4,1.2c0.5,0.5,1.1,1.1,1.5,1.5c-2,2-4.1,4-6.1,6.1c-0.1-0.1-0.2-0.2-0.3-0.3
		c-0.9-0.9-1.9-1.9-2.8-2.8c-0.6-0.6-1.2-0.6-1.8,0c-0.1,0.1-0.3,0.3-0.4,0.4c-2.9,2.9-5.8,5.8-8.6,8.6c-0.6,0.6-1.2,1.2-1.7,1.7
		c-0.5,0.5-0.6,1.2-0.1,1.6c0.8,0.9,1.7,1.8,2.6,2.6c0.4,0.4,1,0.4,1.5,0c0.2-0.1,0.3-0.3,0.5-0.4c2.4-2.4,4.7-4.7,7.1-7.1
		c1,1,2,2,2.9,2.9c0.9,0.9,1.3,0.9,2.2,0c2.9-2.9,5.8-5.8,8.6-8.6c0.1-0.2,0.3-0.4,0.4-0.6c0.7,0.8,1.3,1.3,1.9,1.9
		c0.6,0.6,1.5,0.4,1.7-0.4c0.1-0.2,0.1-0.4,0.1-0.6c0-2.5,0-5,0-7.5C54.9,26,54.7,25.7,53.9,25.7z M47.3,40
		c-0.2,0.2-0.3,0.6-0.3,0.8c0,4.3,0,8.5,0,12.8c0,0.2,0.1,0.4,0.1,0.6c1.4,0,2.8,0,4.1,0c0-6,0-12,0-18.1c-0.1,0.1-0.3,0.1-0.3,0.2
		C49.7,37.6,48.4,38.8,47.3,40z M39.2,44.2c-0.6-0.7-1.3-1.4-2.2-2.2c-0.6,0.6-1,1.1-1.5,1.5c-0.3,0.3-0.4,0.6-0.4,1
		c0,3.1,0,6.1,0,9.2c0,0.2,0,0.4,0.1,0.6c1.4,0,2.8,0,4.1,0c0-0.1,0.1-0.2,0.1-0.3c0-3.1,0-6.2,0-9.4C39.4,44.5,39.4,44.3,39.2,44.2
		z M41.4,45.8c-0.1,0.2-0.3,0.4-0.3,0.7c0,2.4,0,4.8,0,7.2c0,0.2,0,0.3,0.1,0.5c1.4,0,2.8,0,4.1,0c0-4.1,0-8.1,0-12.2
		c-0.2,0.1-0.3,0.2-0.3,0.3C43.8,43.5,42.6,44.6,41.4,45.8z M29.6,49.6c-0.1,0.2-0.3,0.4-0.3,0.7c0,1.2,0,2.2,0,3.4
		c0,0.2,0.1,0.4,0.1,0.6c1.4,0,2.7,0,4.1,0c0-2.9,0-5.7,0-8.6c-0.1,0.1-0.2,0.1-0.3,0.2C32,47.1,30.8,48.3,29.6,49.6z"/>
</g>
</svg>
