<?xml version="1.0" encoding="utf-8"?>
<!-- Generator: Adobe Illustrator 25.3.0, SVG Export Plug-In . SVG Version: 6.00 Build 0)  -->
<svg version="1.1" id="Layer_1" xmlns="http://www.w3.org/2000/svg" xmlns:xlink="http://www.w3.org/1999/xlink" x="0px" y="0px"
	 viewBox="0 0 33 33" style="enable-background:new 0 0 33 33;" xml:space="preserve">
<style type="text/css">
	.st0{fill:url(#SVGID_1_);}
	.st1{fill:url(#SVGID_2_);}
	.st2{fill:url(#SVGID_3_);}
	.st3{fill:url(#SVGID_4_);}
	.st4{fill:url(#SVGID_5_);}
	.st5{fill:url(#SVGID_6_);}
	.st6{fill:url(#SVGID_7_);}
	.st7{fill:url(#SVGID_8_);}
	.st8{fill:url(#SVGID_9_);}
	.st9{fill:url(#SVGID_10_);}
	.st10{fill:url(#SVGID_11_);}
	.st11{fill:url(#SVGID_12_);}
	.st12{fill:url(#SVGID_13_);}
</style>
<g>
	
		<linearGradient id="SVGID_1_" gradientUnits="userSpaceOnUse" x1="306" y1="-348.6744" x2="306" y2="-377.0193" gradientTransform="matrix(1 0 0 -1 -289.5 -346.5)">
		<stop  offset="0" style="stop-color:#803EFF"/>
		<stop  offset="0.272" style="stop-color:#742AEA"/>
		<stop  offset="0.7391" style="stop-color:#620BCB"/>
		<stop  offset="1" style="stop-color:#5B00BF"/>
	</linearGradient>
	<path class="st0" d="M26.5,4.6h-0.9v-1c0-1.3-1-2.3-2.2-2.3c-1.2,0-2.2,1-2.2,2.3v1h-2.3v-1c0-1.3-1-2.3-2.2-2.3
		c-1.2,0-2.2,1-2.2,2.3v1h-2.3v-1c0-1.3-1-2.3-2.2-2.3c-1.2,0-2.2,1-2.2,2.3v1H6.5C4.6,4.6,3,6.2,3,8.2v19.9c0,2,1.6,3.5,3.5,3.5
		h19.9c2,0,3.5-1.6,3.5-3.5V8.2C30,6.2,28.4,4.6,26.5,4.6z M22.4,3.6c0-0.6,0.4-1,1-1c0.5,0,1,0.5,1,1v4.1c0,0.6-0.4,1-1,1
		c-0.5,0-1-0.5-1-1V3.6z M15.7,3.6c0-0.6,0.4-1,1-1c0.5,0,1,0.5,1,1v4.1c0,0.6-0.4,1-1,1c-0.5,0-1-0.5-1-1V3.6z M8.9,3.6
		c0-0.6,0.4-1,1-1c0.5,0,1,0.5,1,1v4.1c0,0.6-0.4,1-1,1c-0.5,0-1-0.5-1-1V3.6z M27.9,28.1c0,0.8-0.7,1.5-1.5,1.5H6.5
		c-0.8,0-1.5-0.7-1.5-1.5V9.8h22.8V28.1z"/>
	
		<linearGradient id="SVGID_2_" gradientUnits="userSpaceOnUse" x1="298.3561" y1="-348.6743" x2="298.3561" y2="-377.0193" gradientTransform="matrix(1 0 0 -1 -289.5 -346.5)">
		<stop  offset="0" style="stop-color:#803EFF"/>
		<stop  offset="0.272" style="stop-color:#742AEA"/>
		<stop  offset="0.7391" style="stop-color:#620BCB"/>
		<stop  offset="1" style="stop-color:#5B00BF"/>
	</linearGradient>
	<path class="st1" d="M10.8,13.5H6.9v3.4h3.8V13.5z"/>
	
		<linearGradient id="SVGID_3_" gradientUnits="userSpaceOnUse" x1="303.4576" y1="-348.6743" x2="303.4576" y2="-377.0193" gradientTransform="matrix(1 0 0 -1 -289.5 -346.5)">
		<stop  offset="0" style="stop-color:#803EFF"/>
		<stop  offset="0.272" style="stop-color:#742AEA"/>
		<stop  offset="0.7391" style="stop-color:#620BCB"/>
		<stop  offset="1" style="stop-color:#5B00BF"/>
	</linearGradient>
	<path class="st2" d="M15.9,13.5H12v3.4h3.8V13.5z"/>
	
		<linearGradient id="SVGID_4_" gradientUnits="userSpaceOnUse" x1="308.5514" y1="-348.6743" x2="308.5514" y2="-377.0193" gradientTransform="matrix(1 0 0 -1 -289.5 -346.5)">
		<stop  offset="0" style="stop-color:#803EFF"/>
		<stop  offset="0.272" style="stop-color:#742AEA"/>
		<stop  offset="0.7391" style="stop-color:#620BCB"/>
		<stop  offset="1" style="stop-color:#5B00BF"/>
	</linearGradient>
	<path class="st3" d="M21,13.5h-3.8v3.4H21V13.5z"/>
	
		<linearGradient id="SVGID_5_" gradientUnits="userSpaceOnUse" x1="313.6451" y1="-348.6743" x2="313.6451" y2="-377.0193" gradientTransform="matrix(1 0 0 -1 -289.5 -346.5)">
		<stop  offset="0" style="stop-color:#803EFF"/>
		<stop  offset="0.272" style="stop-color:#742AEA"/>
		<stop  offset="0.7391" style="stop-color:#620BCB"/>
		<stop  offset="1" style="stop-color:#5B00BF"/>
	</linearGradient>
	<path class="st4" d="M26.1,13.5h-3.8v3.4h3.8V13.5z"/>
	
		<linearGradient id="SVGID_6_" gradientUnits="userSpaceOnUse" x1="298.3561" y1="-348.6743" x2="298.3561" y2="-377.0193" gradientTransform="matrix(1 0 0 -1 -289.5 -346.5)">
		<stop  offset="0" style="stop-color:#803EFF"/>
		<stop  offset="0.272" style="stop-color:#742AEA"/>
		<stop  offset="0.7391" style="stop-color:#620BCB"/>
		<stop  offset="1" style="stop-color:#5B00BF"/>
	</linearGradient>
	<path class="st5" d="M10.8,18H6.9v3.4h3.8V18z"/>
	
		<linearGradient id="SVGID_7_" gradientUnits="userSpaceOnUse" x1="303.4576" y1="-348.6743" x2="303.4576" y2="-377.0193" gradientTransform="matrix(1 0 0 -1 -289.5 -346.5)">
		<stop  offset="0" style="stop-color:#803EFF"/>
		<stop  offset="0.272" style="stop-color:#742AEA"/>
		<stop  offset="0.7391" style="stop-color:#620BCB"/>
		<stop  offset="1" style="stop-color:#5B00BF"/>
	</linearGradient>
	<path class="st6" d="M15.9,18H12v3.4h3.8V18z"/>
	
		<linearGradient id="SVGID_8_" gradientUnits="userSpaceOnUse" x1="308.5514" y1="-348.6743" x2="308.5514" y2="-377.0193" gradientTransform="matrix(1 0 0 -1 -289.5 -346.5)">
		<stop  offset="0" style="stop-color:#803EFF"/>
		<stop  offset="0.272" style="stop-color:#742AEA"/>
		<stop  offset="0.7391" style="stop-color:#620BCB"/>
		<stop  offset="1" style="stop-color:#5B00BF"/>
	</linearGradient>
	<path class="st7" d="M21,18h-3.8v3.4H21V18z"/>
	
		<linearGradient id="SVGID_9_" gradientUnits="userSpaceOnUse" x1="313.6451" y1="-348.6743" x2="313.6451" y2="-377.0193" gradientTransform="matrix(1 0 0 -1 -289.5 -346.5)">
		<stop  offset="0" style="stop-color:#803EFF"/>
		<stop  offset="0.272" style="stop-color:#742AEA"/>
		<stop  offset="0.7391" style="stop-color:#620BCB"/>
		<stop  offset="1" style="stop-color:#5B00BF"/>
	</linearGradient>
	<path class="st8" d="M26.1,18h-3.8v3.4h3.8V18z"/>
	
		<linearGradient id="SVGID_10_" gradientUnits="userSpaceOnUse" x1="298.3561" y1="-348.6745" x2="298.3561" y2="-377.0194" gradientTransform="matrix(1 0 0 -1 -289.5 -346.5)">
		<stop  offset="0" style="stop-color:#803EFF"/>
		<stop  offset="0.272" style="stop-color:#742AEA"/>
		<stop  offset="0.7391" style="stop-color:#620BCB"/>
		<stop  offset="1" style="stop-color:#5B00BF"/>
	</linearGradient>
	<path class="st9" d="M10.8,22.6H6.9V26h3.8V22.6z"/>
	
		<linearGradient id="SVGID_11_" gradientUnits="userSpaceOnUse" x1="303.4576" y1="-348.6745" x2="303.4576" y2="-377.0194" gradientTransform="matrix(1 0 0 -1 -289.5 -346.5)">
		<stop  offset="0" style="stop-color:#803EFF"/>
		<stop  offset="0.272" style="stop-color:#742AEA"/>
		<stop  offset="0.7391" style="stop-color:#620BCB"/>
		<stop  offset="1" style="stop-color:#5B00BF"/>
	</linearGradient>
	<path class="st10" d="M15.9,22.6H12V26h3.8V22.6z"/>
	
		<linearGradient id="SVGID_12_" gradientUnits="userSpaceOnUse" x1="308.5514" y1="-348.6745" x2="308.5514" y2="-377.0194" gradientTransform="matrix(1 0 0 -1 -289.5 -346.5)">
		<stop  offset="0" style="stop-color:#803EFF"/>
		<stop  offset="0.272" style="stop-color:#742AEA"/>
		<stop  offset="0.7391" style="stop-color:#620BCB"/>
		<stop  offset="1" style="stop-color:#5B00BF"/>
	</linearGradient>
	<path class="st11" d="M21,22.6h-3.8V26H21V22.6z"/>
	
		<linearGradient id="SVGID_13_" gradientUnits="userSpaceOnUse" x1="313.6451" y1="-348.6745" x2="313.6451" y2="-377.0194" gradientTransform="matrix(1 0 0 -1 -289.5 -346.5)">
		<stop  offset="0" style="stop-color:#803EFF"/>
		<stop  offset="0.272" style="stop-color:#742AEA"/>
		<stop  offset="0.7391" style="stop-color:#620BCB"/>
		<stop  offset="1" style="stop-color:#5B00BF"/>
	</linearGradient>
	<path class="st12" d="M26.1,22.6h-3.8V26h3.8V22.6z"/>
</g>
</svg>
