<?xml version="1.0" encoding="utf-8"?>
<!-- Generator: Adobe Illustrator 25.3.0, SVG Export Plug-In . SVG Version: 6.00 Build 0)  -->
<svg version="1.1" id="Layer_1" xmlns="http://www.w3.org/2000/svg" xmlns:xlink="http://www.w3.org/1999/xlink" x="0px" y="0px"
	 viewBox="0 0 80 80" style="enable-background:new 0 0 80 80;" xml:space="preserve">
<style type="text/css">
	.st0{fill:url(#SVGID_1_);}
	.st1{fill:url(#SVGID_2_);}
</style>
<g>
	<linearGradient id="SVGID_1_" gradientUnits="userSpaceOnUse" x1="39.1501" y1="5.1547" x2="39.1501" y2="67.3497">
		<stop  offset="0" style="stop-color:#FFFFFF"/>
		<stop  offset="1" style="stop-color:#C6CBFF"/>
	</linearGradient>
	<path class="st0" d="M68,25.7v33.6c0,5.8-4.7,10.5-10.5,10.5H20.8c-5.8,0-10.5-4.7-10.5-10.5V22.7c0-5.8,4.7-10.5,10.5-10.5h31.9
		V8.7H20.8c-7.7,0-14,6.3-14,14v36.7c0,7.7,6.3,14,14,14h36.7c7.7,0,14-6.3,14-14V25.7H68z"/>
	
		<linearGradient id="SVGID_2_" gradientUnits="userSpaceOnUse" x1="312.4091" y1="344.5288" x2="312.4091" y2="427.4554" gradientTransform="matrix(1 0 0 1 -266 -354)">
		<stop  offset="0" style="stop-color:#FFFFFF"/>
		<stop  offset="1" style="stop-color:#C6CBFF"/>
	</linearGradient>
	<path class="st1" d="M70,8.7c-3.3,0-6.5,0-9.9,0c-0.8,0-1.4,0.3-1.7,1c-0.3,0.7,0.2,1.1,0.5,1.6c0.7,0.7,1.4,1.4,2,2
		C58.2,16,45.3,29.5,42.7,32.2c-0.1-0.1-0.3-0.3-0.4-0.4c-1.1-1.1-2.4-2.4-3.6-3.6c-0.8-0.8-1.5-0.8-2.4,0c-0.2,0.2-0.3,0.3-0.5,0.5
		c-3.8,3.8-7.6,7.6-11.3,11.3c-0.8,0.8-1.5,1.5-2.3,2.3c-0.7,0.7-0.8,1.5-0.2,2.1c1.1,1.1,2.3,2.4,3.5,3.5c0.6,0.6,1.3,0.5,1.9,0
		c0.3-0.2,0.4-0.4,0.7-0.6c3.1-3.1,6.2-6.2,9.3-9.3c1.3,1.3,2.6,2.6,3.8,3.8c1.1,1.1,1.7,1.1,3,0C48.1,38,62,23.4,65.8,19.6
		c0.2-0.3,0.3-0.5,0.6-0.9c1,1,1.7,1.7,2.4,2.5c0.9,0.8,1.9,0.5,2.3-0.6c0.1-0.3,0.1-0.5,0.1-0.8c0-3.3,0-6.5,0-9.9
		C71.2,9.1,70.9,8.7,70,8.7z M51,38.4c-0.3,0.3-0.3,0.8-0.4,1.1c0,5.7,0,11.2,0,16.8c0,0.3,0.1,0.5,0.1,0.9c1.8,0,3.6,0,5.4,0
		c0-7.9,0-15.8,0-23.8c-0.2,0.2-0.3,0.2-0.4,0.3C54.1,35.2,52.5,36.7,51,38.4z M40.4,43.8c-0.9-1-1.7-1.8-2.9-3
		c-0.8,0.8-1.3,1.4-1.9,2c-0.4,0.3-0.5,0.8-0.5,1.2c0,4,0,8,0,12c0,0.3,0,0.5,0.1,0.9c1.8,0,3.6,0,5.4,0c0-0.2,0.1-0.3,0.1-0.4
		c0-4.1,0-8.2,0-12.3C40.6,44.2,40.5,44,40.4,43.8z M43.3,46c-0.2,0.3-0.3,0.6-0.3,1c0,3.1,0,6.3,0,9.4c0,0.3,0,0.4,0.1,0.7
		c1.8,0,3.6,0,5.4,0c0-5.4,0-10.6,0-16.1c-0.3,0.2-0.3,0.3-0.4,0.3C46.4,42.9,44.7,44.4,43.3,46z M27.7,51c-0.2,0.3-0.3,0.6-0.3,1
		c0,1.5,0,3,0,4.5c0,0.3,0.1,0.5,0.1,0.8c1.8,0,3.5,0,5.4,0c0-3.8,0-7.5,0-11.3c-0.2,0.2-0.3,0.2-0.3,0.3
		C30.9,47.7,29.3,49.3,27.7,51z"/>
</g>
</svg>
