<?xml version="1.0" encoding="utf-8"?>
<!-- Generator: Adobe Illustrator 25.3.0, SVG Export Plug-In . SVG Version: 6.00 Build 0)  -->
<svg version="1.1" id="Layer_1" xmlns="http://www.w3.org/2000/svg" xmlns:xlink="http://www.w3.org/1999/xlink" x="0px" y="0px"
	 viewBox="0 0 33 33" style="enable-background:new 0 0 33 33;" xml:space="preserve">
<style type="text/css">
	.st0{fill:url(#SVGID_1_);}
	.st1{fill:url(#SVGID_2_);}
</style>
<g>
	
		<linearGradient id="SVGID_1_" gradientUnits="userSpaceOnUse" x1="306" y1="-345.4687" x2="306" y2="-378.3028" gradientTransform="matrix(1 0 0 -1 -289.5 -346.5)">
		<stop  offset="0" style="stop-color:#803EFF"/>
		<stop  offset="0.272" style="stop-color:#742AEA"/>
		<stop  offset="0.7391" style="stop-color:#620BCB"/>
		<stop  offset="1" style="stop-color:#5B00BF"/>
	</linearGradient>
	<path class="st0" d="M26.5,9.8l2-2l-1.9-1.9L24.4,8c-1.9-1.4-4.2-2.2-6.5-2.4V2.7h2.7V0h-8.2v2.7h2.7v2.8C12.8,5.8,10.5,6.6,8.6,8
		L6.5,5.9L4.5,7.8l2,2c-3.8,4-4.8,9.8-2.6,14.9c2.2,5,7.1,8.3,12.6,8.3c5.5,0,10.5-3.3,12.6-8.3C31.3,19.7,30.3,13.8,26.5,9.8z
		 M16.5,30.2c-4.5,0-8.5-2.7-10.2-6.8c-1.7-4.1-0.8-8.8,2.4-12c3.1-3.1,7.9-4.1,12-2.4c4.1,1.7,6.8,5.7,6.8,10.2
		C27.5,25.3,22.6,30.2,16.5,30.2z"/>
	
		<linearGradient id="SVGID_2_" gradientUnits="userSpaceOnUse" x1="306.0007" y1="-345.4687" x2="306.0007" y2="-378.3028" gradientTransform="matrix(1 0 0 -1 -289.5 -346.5)">
		<stop  offset="0" style="stop-color:#803EFF"/>
		<stop  offset="0.272" style="stop-color:#742AEA"/>
		<stop  offset="0.7391" style="stop-color:#620BCB"/>
		<stop  offset="1" style="stop-color:#5B00BF"/>
	</linearGradient>
	<path class="st1" d="M16.5,11v8.2H8.3c0,3.3,2,6.3,5.1,7.6c3.1,1.3,6.6,0.6,9-1.8c2.4-2.4,3.1-5.9,1.8-9C22.8,13,19.8,11,16.5,11z"
		/>
</g>
</svg>
