<?xml version="1.0" encoding="utf-8"?>
<!-- Generator: Adobe Illustrator 25.3.0, SVG Export Plug-In . SVG Version: 6.00 Build 0)  -->
<svg version="1.1" id="Layer_1" xmlns="http://www.w3.org/2000/svg" xmlns:xlink="http://www.w3.org/1999/xlink" x="0px" y="0px"
	 viewBox="0 0 80 80" style="enable-background:new 0 0 80 80;" xml:space="preserve">
<style type="text/css">
	.st0{fill:url(#SVGID_1_);}
	.st1{fill:url(#SVGID_2_);}
	.st2{fill:url(#SVGID_3_);}
	.st3{fill:url(#SVGID_4_);}
	.st4{fill:url(#SVGID_5_);}
</style>
<g>
	
		<linearGradient id="SVGID_1_" gradientUnits="userSpaceOnUse" x1="320.8728" y1="-277.7334" x2="307.6253" y2="-331.937" gradientTransform="matrix(1 0 0 -1 -266 -274)">
		<stop  offset="0" style="stop-color:#FFFFFF"/>
		<stop  offset="1" style="stop-color:#C6CBFF"/>
	</linearGradient>
	<path class="st0" d="M70.8,25.4c0.4-1,0.4-1.7-0.4-2.5c-4.5-4.4-8.9-8.9-13.3-13.4c-0.6-0.7-1.2-0.9-2.1-0.4
		c-0.5,0.2-1,0.4-1.5,0.6c-6.6,2.9-12.2,7.5-16.9,13.2c-6.4,7.9-10.9,16.7-13.7,26.4c-0.2,0.7-0.2,1.6,0.1,2.2
		c0.4,0.8,0.2,1.2-0.3,1.8c-0.6,0.5-1.2,1-1.5,1.6c-0.2,0.5-0.2,1.3,0.2,1.7c0.2,0.3,1.2,0.1,1.6,0c0.4-0.1,0.7-0.6,1-0.9
		c3.1-3.1,6.2-6.2,9.4-9.3c3.4-3.3,6.7-6.7,10.1-10c0.6-0.5,1.2-1,1.9-0.3c0.8,0.7,0.2,1.3-0.3,1.9c-0.3,0.3-0.7,0.7-1,1
		c-5.2,5.2-10.5,10.4-15.8,15.6c-0.4,0.4-0.5,1.1-0.7,1.5c0.7,0.3,1.4,0.7,2,0.8c0.4,0.1,0.9-0.1,1.3-0.3c10-2.8,19.1-7.4,27.1-14.1
		C63.6,38.1,67.9,32.3,70.8,25.4z M51.7,28.3c-2.8-2.8-2.8-7.4,0-10.2c2.8-2.8,7.4-2.8,10.2,0c2.9,2.8,2.9,7.3,0.1,10.2
		C59.2,31.1,54.5,31.2,51.7,28.3z"/>
	
		<linearGradient id="SVGID_2_" gradientUnits="userSpaceOnUse" x1="287.4529" y1="-294.9878" x2="282.2379" y2="-316.3257" gradientTransform="matrix(1 0 0 -1 -266 -274)">
		<stop  offset="0" style="stop-color:#FFFFFF"/>
		<stop  offset="1" style="stop-color:#C6CBFF"/>
	</linearGradient>
	<path class="st1" d="M31.1,25.3c-3.5,0-6.9-0.1-10.4-0.1c-0.4,0-1,0.1-1.2,0.4c-4.7,4.5-9.2,9.1-13.8,13.7
		c-0.3,0.3-0.4,1.2-0.2,1.6c0.2,0.4,1,0.7,1.5,0.6c5.2-1.2,10.1-0.3,14.6,2.5c0.1,0,0.2,0,0.6,0.1c2.4-6.6,5.6-12.7,9.6-18.6
		C31.4,25.4,31.3,25.3,31.1,25.3z"/>
	
		<linearGradient id="SVGID_3_" gradientUnits="userSpaceOnUse" x1="314.4781" y1="-318.0475" x2="307.4161" y2="-346.9428" gradientTransform="matrix(1 0 0 -1 -266 -274)">
		<stop  offset="0" style="stop-color:#FFFFFF"/>
		<stop  offset="1" style="stop-color:#C6CBFF"/>
	</linearGradient>
	<path class="st2" d="M54.6,56c-0.2-2,0-4.1,0-6.2c0-0.5,0-0.9-0.1-1.7c-6,4-12.2,7.2-18.9,9.6c0.3,0.7,0.6,1.1,0.8,1.6
		c1.9,3.5,2.6,7.2,2.2,11.2c-0.1,0.7-0.4,1.5-0.4,2.3c0,0.6,0.2,1.4,0.6,1.6c0.4,0.3,1.2,0,1.7-0.3c0.4-0.2,0.8-0.7,1.1-1
		c3.4-3.3,6.6-6.8,10.1-10C53.9,61.2,54.9,59.1,54.6,56z"/>
	
		<linearGradient id="SVGID_4_" gradientUnits="userSpaceOnUse" x1="334.5289" y1="-277.0356" x2="330.7222" y2="-292.6111" gradientTransform="matrix(1 0 0 -1 -266 -274)">
		<stop  offset="0" style="stop-color:#FFFFFF"/>
		<stop  offset="1" style="stop-color:#C6CBFF"/>
	</linearGradient>
	<path class="st3" d="M72.3,21.6c1.6-4.9,2.4-9.6,2.4-14.5c0-1-0.7-1.4-1.7-1.5c-4.6,0-9.2,0.7-13.7,2.1C59.1,7.7,59,7.8,58.9,8
		C63.3,12.4,67.6,16.9,72.3,21.6z"/>
	
		<linearGradient id="SVGID_5_" gradientUnits="userSpaceOnUse" x1="324.1904" y1="-291.5258" x2="321.782" y2="-301.3803" gradientTransform="matrix(1 0 0 -1 -266 -274)">
		<stop  offset="0" style="stop-color:#FFFFFF"/>
		<stop  offset="1" style="stop-color:#C6CBFF"/>
	</linearGradient>
	<path class="st4" d="M60.4,19.7c-1.9-1.9-5.1-1.9-7-0.1c-2,1.9-2.1,5.1-0.1,7.1c2,2,5.1,2.1,7.1,0.1C62.3,25,62.2,21.7,60.4,19.7z"
		/>
</g>
</svg>
