<?xml version="1.0" encoding="utf-8"?>
<!-- Generator: Adobe Illustrator 25.3.0, SVG Export Plug-In . SVG Version: 6.00 Build 0)  -->
<svg version="1.1" id="Layer_1" xmlns="http://www.w3.org/2000/svg" xmlns:xlink="http://www.w3.org/1999/xlink" x="0px" y="0px"
	 viewBox="0 0 80 80" style="enable-background:new 0 0 80 80;" xml:space="preserve">
<style type="text/css">
	.st0{fill:url(#SVGID_1_);}
	.st1{fill:url(#SVGID_2_);}
</style>
<g>
	
		<linearGradient id="SVGID_1_" gradientUnits="userSpaceOnUse" x1="296.9602" y1="-286.007" x2="296.9602" y2="-337.9969" gradientTransform="matrix(1 0 0 -1 -266 -274)">
		<stop  offset="0" style="stop-color:#FFFFFF"/>
		<stop  offset="1" style="stop-color:#C6CBFF"/>
	</linearGradient>
	<path class="st0" d="M15.6,46.9c0-13.4,10.9-24.3,24.3-24.3c3.6,0,7,0.8,10,2.1l2.4-5.6c-3.8-1.6-8-2.6-12.4-2.6
		c-16.8,0-30.5,13.7-30.5,30.5c0,7.9,3,15.2,8,20.6l2.9-6C17.4,57.3,15.6,52.3,15.6,46.9z"/>
	
		<linearGradient id="SVGID_2_" gradientUnits="userSpaceOnUse" x1="310.0031" y1="-270.0919" x2="310.0031" y2="-346.2767" gradientTransform="matrix(1 0 0 -1 -266 -274)">
		<stop  offset="0" style="stop-color:#FFFFFF"/>
		<stop  offset="1" style="stop-color:#C6CBFF"/>
	</linearGradient>
	<path class="st1" d="M61,24.8l1.8-3.9c0.4-0.8,1.3-1,2-0.8l3.6,1.6c1,0.5,2.3-0.4,2.1-1.5l-2-16.4c-0.1-1-1.3-1.6-2.1-1.1l-15.6,8
		c-1.1,0.6-1.1,2.1,0,2.6l3.9,1.9c0.8,0.4,1,1.3,0.8,1.9l-11.3,27c-0.4,0.8-1.3,1.1-2,0.8l-8.3-3.5c-0.8-0.4-1.6,0-2,0.8L17.7,72
		c-0.4,0.8,0,1.6,0.6,2l4.5,2.4c0.8,0.4,1.8,0,2-0.8l0.9-1.8c4.3,2.3,9,3.5,14.2,3.5c16.8,0,30.5-13.7,30.5-30.5
		C70.4,38.3,66.7,30.4,61,24.8z M40,71.1c-4.1,0-8-1-11.4-2.9l7.7-15.8c0.4-0.8,1.1-1.1,1.9-0.8l8,3c0.8,0.3,1.5,0,1.9-0.8l10.3-23
		c3.8,4.3,6,9.9,6,15.9C64.2,60.2,53.4,71.1,40,71.1z"/>
</g>
</svg>
