<?xml version="1.0" encoding="utf-8"?>
<!-- Generator: Adobe Illustrator 25.3.0, SVG Export Plug-In . SVG Version: 6.00 Build 0)  -->
<svg version="1.1" id="Layer_1" xmlns="http://www.w3.org/2000/svg" xmlns:xlink="http://www.w3.org/1999/xlink" x="0px" y="0px"
	 viewBox="0 0 80 80" style="enable-background:new 0 0 80 80;" xml:space="preserve">
<style type="text/css">
	.st0{fill:url(#SVGID_1_);}
	.st1{fill:url(#SVGID_2_);}
	.st2{fill:url(#SVGID_3_);}
	.st3{fill:url(#SVGID_4_);}
	.st4{fill:url(#SVGID_5_);}
	.st5{fill:url(#SVGID_6_);}
	.st6{fill:url(#SVGID_7_);}
</style>
<g>
	
		<linearGradient id="SVGID_1_" gradientUnits="userSpaceOnUse" x1="328.794" y1="-311.3085" x2="328.794" y2="-281.9115" gradientTransform="matrix(1 0 0 -1 -266 -274)">
		<stop  offset="0" style="stop-color:#3721A7"/>
		<stop  offset="1" style="stop-color:#803EFF"/>
	</linearGradient>
	<path class="st0" d="M71.9,13l2.1,0c0,0,0.8-0.6,1-0.7c0.4-0.4,0.8-0.8,1.2-1.1c0.5-0.5,0.9-0.4,1,0.3c0.6,2.1-0.5,4.5-2.4,5.6
		c-1.1,0.6-2.2,0.9-3.5,0.7c-0.4-0.1-0.7,0-1,0.3C66.6,22,62.6,26,58.7,29.9c-0.3,0.3-0.4,0.6-0.3,1c0.6,3.6-2.7,6.6-6.2,5.8
		c-0.2-0.1-0.6-0.2-0.7-0.4c-0.1-0.2,0.2-0.5,0.3-0.7c0.1-0.1,1.4-1.9,1.6-2.3c0-0.1,0.1-0.2,0-0.3l-0.4-1.5c0,0-1.4,0.1-2.1,0.2
		c-0.2,0-0.3,0.2-0.5,0.3c-0.4,0.3-0.7,0.7-1.1,1c-0.2,0.2-0.6,0.5-0.7,0.4c-0.2-0.1-0.4-0.5-0.5-0.7c-0.6-2.8,1.2-5.6,4-6.1
		c0.6-0.1,1.2,0,1.9,0c0.3,0,0.6-0.1,0.8-0.3c4-4,8-8,12-12c0.2-0.2,0.3-0.6,0.2-0.9c-0.4-3.5,2.7-6.4,6.2-5.7
		c0.3,0.1,0.6,0.2,0.7,0.5c0.1,0.1-0.2,0.5-0.3,0.7c0,0-0.1,0.1-0.1,0.1c-0.8,0.7-1.7,1.9-1.7,1.9V13z"/>
	
		<linearGradient id="SVGID_2_" gradientUnits="userSpaceOnUse" x1="336.3295" y1="-311.113" x2="336.3295" y2="-296.9417" gradientTransform="matrix(1 0 0 -1 -266 -274)">
		<stop  offset="0" style="stop-color:#3721A7"/>
		<stop  offset="1" style="stop-color:#803EFF"/>
	</linearGradient>
	<path class="st1" d="M76,29.3c-1.3-1.2-2.5-2.5-3.8-3.7c-0.9-0.9-1.8-1.7-2.8-2.6c-0.4-0.3-0.8-0.3-1.2,0.1
		c-1.4,1.5-2.9,2.9-4.4,4.4c-0.8,0.8-0.8,0.8-0.1,1.7c0,0.1,0.1,0.1,0.1,0.1c2.2,2.2,4.4,4.4,6.6,6.5c1.3,1.2,3,1.3,4.6,0.5
		c1.6-0.8,2.3-2.1,2.4-3.7C77.4,31.2,76.9,30.2,76,29.3z M73.7,33.1c-0.4,0.4-0.8,0.3-1.3-0.1c-1.3-1.3-3.3-3.2-4.6-4.6
		c0.3-0.4,1.2-1.2,1.2-1.2s3.3,3.2,4.6,4.5C74.1,32.3,74.1,32.8,73.7,33.1z"/>
	
		<linearGradient id="SVGID_3_" gradientUnits="userSpaceOnUse" x1="320.5565" y1="-294.5171" x2="320.5565" y2="-281.6555" gradientTransform="matrix(1 0 0 -1 -266 -274)">
		<stop  offset="0" style="stop-color:#3721A7"/>
		<stop  offset="1" style="stop-color:#803EFF"/>
	</linearGradient>
	<path class="st2" d="M55.5,12.5c1.9,1.8,3.7,3.6,5.5,5.4c-0.9,0.8-1.6,1.6-2.5,2.5c-1.7-1.8-3.5-3.6-5.4-5.5
		c-0.3,0.3-0.6,0.5-0.8,0.8c-0.3,0.3-0.7,0.3-0.9-0.1c-1.1-1.7-2.1-3.4-3.2-5.2c-0.1-0.2-0.1-0.8,0.1-1c0.4-0.6,1-1,1.5-1.5
		c0.3-0.3,0.7-0.3,1.1-0.1c1.7,1,3.3,2.1,5,3.1c0.4,0.3,0.5,0.6,0.1,1C55.9,12,55.7,12.2,55.5,12.5z"/>
	
		<linearGradient id="SVGID_4_" gradientUnits="userSpaceOnUse" x1="306.0001" y1="-337.0157" x2="306.0001" y2="-287.645" gradientTransform="matrix(1 0 0 -1 -266 -274)">
		<stop  offset="0" style="stop-color:#3721A7"/>
		<stop  offset="1" style="stop-color:#803EFF"/>
	</linearGradient>
	<path class="st3" d="M69,39.1V57c0,0.6-0.4,1-1,1H12c-0.6,0-1-0.4-1-1V18.2c0-0.6,0.4-1,1-1h34.8V13H12c-2.8,0-5.2,2.3-5.2,5.2V57
		c0,2.8,2.3,5.2,5.2,5.2h56c2.8,0,5.2-2.3,5.2-5.2V39.1H69z"/>
	
		<linearGradient id="SVGID_5_" gradientUnits="userSpaceOnUse" x1="306" y1="-346.6206" x2="306" y2="-339.667" gradientTransform="matrix(1 0 0 -1 -266 -274)">
		<stop  offset="0" style="stop-color:#3721A7"/>
		<stop  offset="1" style="stop-color:#803EFF"/>
	</linearGradient>
	<path class="st4" d="M71.1,72.5H8.9c-4.2,0-7.9-2.8-8.9-6.9h80C79,69.7,75.3,72.5,71.1,72.5z"/>
	
		<linearGradient id="SVGID_6_" gradientUnits="userSpaceOnUse" x1="287.0167" y1="-326.2776" x2="287.0167" y2="-304.165" gradientTransform="matrix(1 0 0 -1 -266 -274)">
		<stop  offset="0" style="stop-color:#3721A7"/>
		<stop  offset="1" style="stop-color:#803EFF"/>
	</linearGradient>
	<path class="st5" d="M25.1,34.4h-1.4c-0.5,0-0.9-0.4-0.9-0.9v-2.7c0-0.5-0.4-0.9-0.9-0.9h-1.6c-0.5,0-0.9,0.4-0.9,0.9v2.7
		c0,0.5-0.4,0.9-0.9,0.9H17c-0.5,0-0.9,0.4-0.9,0.9v10.9c0,0.5,0.4,0.9,0.9,0.9h1.4c0.5,0,0.9,0.4,0.9,0.9V51c0,0.5,0.4,0.9,0.9,0.9
		h1.6c0.5,0,0.9-0.4,0.9-0.9v-2.9c0-0.5,0.4-0.9,0.9-0.9h1.4c0.5,0,0.9-0.4,0.9-0.9V35.4C26.1,34.9,25.7,34.4,25.1,34.4z"/>
	
		<linearGradient id="SVGID_7_" gradientUnits="userSpaceOnUse" x1="300.3423" y1="-326.7243" x2="300.3423" y2="-296.5456" gradientTransform="matrix(1 0 0 -1 -266 -274)">
		<stop  offset="0" style="stop-color:#3721A7"/>
		<stop  offset="1" style="stop-color:#803EFF"/>
	</linearGradient>
	<path class="st6" d="M38.5,26.7h-1.4c-0.5,0-0.9-0.4-0.9-0.9v-2.7c0-0.5-0.4-0.9-0.9-0.9h-1.6c-0.5,0-0.9,0.4-0.9,0.9v2.7
		c0,0.5-0.4,0.9-0.9,0.9h-1.5c-0.5,0-0.9,0.4-0.9,0.9v18.9c0,0.5,0.4,0.9,0.9,0.9h1.5c0.5,0,0.9,0.4,0.9,0.9v2.9
		c0,0.5,0.4,0.9,0.9,0.9h1.6c0.5,0,0.9-0.4,0.9-0.9v-2.9c0-0.5,0.4-0.9,0.9-0.9h1.4c0.5,0,0.9-0.4,0.9-0.9V27.6
		C39.4,27.1,39,26.7,38.5,26.7z"/>
</g>
</svg>
