<svg width="580" height="530" viewBox="0 0 580 530" fill="none" xmlns="http://www.w3.org/2000/svg">
<path d="M282.152 515.574C414.784 515.574 522.303 411.536 522.303 283.199C522.303 154.862 414.784 50.8247 282.152 50.8247C149.52 50.8247 42 154.862 42 283.199C42 411.536 149.52 515.574 282.152 515.574Z" fill="url(#paint0_radial)"/>
<path d="M472.822 253.786C472.822 343.621 399.991 416.452 310.156 416.452C220.321 416.452 147.49 343.621 147.49 253.786C147.49 163.951 220.301 91.1196 310.156 91.1196C399.991 91.1196 472.822 163.931 472.822 253.786Z" fill="url(#paint1_radial)"/>
<path d="M238.632 109.918C237.305 110.857 236.856 110.653 236.856 110.653C236.835 110.633 236.876 110.572 236.937 110.531C236.937 110.531 237.856 109.755 237.938 109.694C238.019 109.633 238.55 109.367 238.897 109.245C238.999 109.204 239.081 109.184 239.122 109.204C239.285 109.224 239.367 109.408 238.632 109.918ZM236.978 108.347C236.937 108.326 236.917 108.347 236.876 108.367C236.652 108.449 236.141 108.694 236.06 108.734C235.958 108.796 235.876 108.898 235.896 108.918C235.937 108.939 236.162 108.877 236.366 108.755C236.468 108.734 236.958 108.408 236.978 108.347ZM240.897 106.591C241.285 106.51 241.285 106.51 241.673 106.346C241.714 106.326 242.061 106.183 242.612 105.897C242.612 105.897 243.265 105.55 243.347 105.468C243.306 105.448 243.306 105.448 243.204 105.489C243.184 105.489 240.816 106.346 238.652 107.489L239.856 107.02C240.203 106.897 240.53 106.673 240.897 106.591ZM238.366 108.02C238.346 108.02 238.346 108 238.326 108C238.366 107.959 238.407 107.938 239.285 107.551C239.591 107.428 239.999 107.244 240.224 107.142C240.265 107.122 240.326 107.081 240.346 107.061C240.285 107.061 240.203 107.081 240.163 107.101C237.57 107.938 235.57 109.265 235.223 109.571C235.427 109.612 238.183 108.265 238.346 108.143C238.346 108.122 238.366 108.081 238.366 108.02ZM241 107.775C241.061 107.734 241.102 107.714 241.163 107.653C241.244 107.571 241.326 107.489 241.408 107.408C241.551 107.265 241.734 107.142 241.877 106.999C241.959 106.918 241.959 106.897 241.979 106.877C241.959 106.857 241.959 106.857 241.898 106.877C241.367 107.04 240.469 107.714 240.408 107.796C240.408 107.796 240.408 107.796 240.408 107.816C240.489 107.857 240.489 107.857 240.265 108.183C240.326 108.183 241 107.775 241 107.775ZM234.529 112.531C234.468 112.531 234.427 112.552 234.366 112.552C234.141 112.613 233.916 112.715 233.916 112.715C233.304 113.021 232.59 113.552 232.549 113.613C232.549 113.613 232.549 113.613 232.549 113.633C232.651 113.633 233.814 113.164 234.304 112.817C234.488 112.715 234.651 112.552 234.529 112.531ZM235.692 115.205C235.631 115.164 235.57 115.124 235.223 115.164C235.162 115.164 235.08 115.185 235.039 115.205C234.488 115.328 233.916 115.43 233.365 115.552C232.671 115.695 230.446 116.777 230.14 117.185C230.14 117.206 230.14 117.226 230.161 117.226C230.344 117.287 230.548 117.185 230.712 117.308C230.977 117.491 230.895 117.614 230.855 117.716C230.753 117.879 229.262 118.981 228.875 119.186C228.711 119.267 228.691 119.267 228.589 119.267C228.487 118.839 228.997 118.696 229.017 118.308C228.732 118.349 227.364 119.084 227.201 119.471C227.18 119.512 227.16 119.573 227.18 119.614C227.262 119.941 227.446 120.227 227.507 120.553C227.527 120.676 227.609 120.798 227.609 120.941C227.609 121.186 227.466 121.411 227.487 121.656C227.487 121.696 227.507 121.758 227.548 121.778C227.976 122.227 231.732 120.023 232.753 118.981C232.977 118.757 233.631 117.451 233.202 117.471C232.733 117.491 232.324 117.716 231.875 117.818C232.753 117.226 233.733 116.818 234.61 116.226C234.59 116.205 235.692 115.266 235.692 115.205ZM224.915 115.042C226.548 114.307 227.936 113.164 229.528 112.368C227.915 113.388 227.915 113.388 227.834 113.47L233.304 110.347C233.406 110.286 233.569 110.184 233.733 109.98C233.672 109.959 233.59 110 233.529 110.02C232.365 110.551 224.608 114.715 222.955 116.063C223.771 115.96 224.302 115.287 224.996 114.94C224.976 114.981 224.955 115.021 224.915 115.042ZM224.935 126.595C224.915 126.595 224.874 126.595 224.853 126.616C224.772 126.657 224.67 126.697 224.486 126.84C223.771 127.391 223.241 128.126 222.465 128.616C221.179 129.412 220.791 129.637 220.73 129.841C220.75 129.841 220.75 129.861 220.771 129.861C220.873 129.882 220.955 129.861 221.281 129.8C221.771 129.698 221.832 129.698 221.914 129.759C222.077 129.882 222.036 130.147 222.261 130.229C222.322 130.249 222.69 130.208 223.037 130.147C225.262 129.739 226.18 128.82 226.18 128.82C226.425 128.514 225.813 127.371 225.813 127.371C225.568 126.861 225.017 126.595 224.935 126.595ZM228.058 117.206C228.017 117.206 227.895 117.206 227.67 117.267C226.486 117.593 225.629 118.328 225.588 118.43L225.609 118.451C225.731 118.451 225.854 118.39 225.956 118.451C225.976 118.532 225.996 118.553 225.874 118.777C225.792 118.92 225.629 119.308 225.874 119.247C226.282 119.124 227.466 118.083 227.589 117.961C228.16 117.451 228.283 117.246 228.058 117.206ZM281.008 95.6705C280.212 96.6503 278.13 97.2015 277.027 97.5077C276.966 97.5281 271.332 99.1611 271.087 99.4877C269.536 101.59 273.455 102.264 273.496 102.243C283.212 101.529 283.335 101.631 284.029 102.223C284.07 102.264 288.601 107.285 287.132 110.02C286.54 111.123 286.54 111.164 286.58 111.327C286.682 111.919 287.397 111.96 287.601 112.45C287.907 113.205 287.601 114.083 288.03 114.817C289.316 114.511 290.336 113.184 291.867 113.858C294.48 115.021 293.276 117.124 293.255 117.144C292.194 118.41 290.234 118.349 289.275 119.778C288.744 120.553 288.234 122.717 288.622 123.983C288.805 124.574 296.399 137.434 300.032 138.659C298.215 111.919 296.868 99.753 295.031 93.9763C296.685 99.059 298.032 109.02 300.032 138.659C309.136 140.414 309.32 140.19 309.912 139.537C310.871 138.455 312.525 130.147 312.525 130.065C312.769 128.841 312.116 127.555 312.81 126.35C313.178 125.738 313.219 125.718 315.505 125.024C322.67 122.86 322.669 122.86 322.853 121.492C323.037 120.084 323.159 119.329 324.445 118.655C327.568 117.063 331.161 116.838 334.284 115.246C335.57 114.593 336.958 114.164 338.142 113.327C338.162 113.307 338.754 112.878 338.02 111.939C336.958 110.572 335.325 109.776 334.305 108.347C333.651 107.448 333.672 106.305 333.223 105.326C332.692 104.183 332.937 103.876 333.57 103.223C334.447 102.325 333.835 101.958 332.018 100.896C326.058 97.3852 326.017 97.3035 325.507 96.5075C325.548 96.4258 325.568 96.3442 325.609 96.2625C325.691 96.2217 325.833 96.1809 325.915 96.14C324.18 94.4458 320.649 95.793 319.791 92.5475C319.608 92.4658 319.383 92.3433 319.199 92.2617C319.22 92.1188 319.281 91.9147 319.322 91.7718C319.404 91.7514 319.485 91.731 319.567 91.7105C318.791 91.6085 316.525 91.4656 316.505 91.4656C314.994 91.3839 313.096 91.7105 312.729 91.7718C311.422 91.9963 310.32 91.1594 309.075 91.0982C307.319 91.0369 303.441 91.0369 301.89 91.0982C299.052 91.2615 299.052 91.2615 298.726 91.486C298.726 91.486 298.726 91.486 298.705 91.486C295.623 91.6493 295.623 91.6493 294.133 91.9351C294.113 91.9351 294.072 91.9147 294.051 91.9555C294.051 91.9759 294.072 91.9555 294.072 91.9555C294.113 91.9555 294.133 91.9555 294.174 91.9759C295.991 92.1188 295.991 92.1188 296.521 92.2413C296.378 92.2617 296.378 92.2617 294.358 92.2209C293.521 92.2209 293.214 92.2004 292.235 92.3025C284.988 93.119 279.763 95.446 279.722 95.4664C279.967 95.691 279.967 95.691 281.008 95.6705ZM253.574 126.35C253.941 125.371 253.778 124.921 253.084 125.024C253.063 125.024 251.002 125.575 250.614 126.493C250.389 127.024 251.267 128.412 251.614 128.616C252.451 129.167 253.553 126.371 253.574 126.35ZM268.311 97.0382C267.862 97.2219 267.372 97.3852 266.903 97.5689C268.393 97.2219 273.21 95.8951 273.966 95.6705C270.74 96.732 268.209 97.5893 265.494 98.1609C264.862 98.3037 264.678 98.4466 264.433 98.6303C264.433 98.8141 264.168 99.7326 263.719 100.161C262.29 99.7326 258.554 101.896 258.411 102.019C258.738 102.162 259.126 102.1 259.432 102.305C259.412 102.345 259.391 102.427 259.391 102.468C259.861 102.407 260.044 102.386 261.636 101.794C258.901 103.284 258.575 102.937 258.37 102.692C256.288 102.733 256.166 103.529 256.125 103.917C254.941 104.693 253.41 104.774 252.369 105.816C252.39 105.856 252.43 105.918 252.471 105.958C252.798 105.979 253.043 105.979 255.207 105.571C256.799 105.244 258.228 104.121 259.983 104.509C259.861 104.815 259.861 104.815 259.493 105.101C260.657 105.326 264.413 103.509 264.066 102.59C263.943 102.55 263.78 102.509 263.637 102.488C263.923 102.1 266.393 100.529 266.944 100.386C270.291 99.5897 271.455 98.3242 271.496 98.0384C271.455 98.018 271.373 97.9976 271.332 97.9771C274.435 97.1607 275.843 96.7932 276.803 96.1604C276.558 96.14 276.558 96.14 276.007 96.2421C276.048 96.2217 283.008 94.058 283.376 93.9559C281.579 94.2213 281.457 94.2213 280.783 94.2825C282.518 93.813 284.294 93.5681 286.029 93.119C284.355 93.119 281.559 93.466 281.539 93.466C281.477 93.466 274.741 94.6295 273.292 95.1807C273.353 95.2623 273.476 95.3644 273.557 95.4052C273.272 95.4868 273.047 95.5685 272.333 95.4868C271.843 95.4256 266.066 96.8341 265.474 97.5485C265.719 97.671 265.801 97.6914 268.311 97.0382ZM241.265 108.673C241.122 108.857 241.04 109.081 240.897 109.245C240.693 109.49 240.653 109.51 239.938 110.061C240.02 109.878 240.101 109.653 240.183 109.469C240.203 109.388 240.265 109.286 240.265 109.184C240.203 109.163 239.611 109.224 239.02 109.837C239.081 109.837 239.162 109.837 239.224 109.837C239.224 109.857 239.224 109.878 239.224 109.898C238.53 110.49 237.591 110.572 236.835 111.021C236.958 111.082 237.08 110.939 237.203 111.021C237.101 111.225 237.101 111.225 237.121 111.266C237.264 111.306 237.264 111.306 239.489 110.572C238.795 110.959 236.917 112 236.754 112.47C236.754 112.49 236.774 112.49 236.774 112.511C236.774 112.511 239.305 111.572 239.632 111.408C239.856 111.286 239.856 111.286 241.265 110.041C241.265 110.061 241.306 110.123 241.265 110.265C241.265 110.286 241.244 110.286 241.244 110.306C241.898 109.694 241.898 109.694 243.612 108.265C243.98 107.959 244 107.938 244.061 107.836C243.939 107.816 243.939 107.816 243.816 107.836C243.796 107.836 241.571 108.49 241.347 108.632C241.306 108.632 241.285 108.653 241.265 108.673ZM265.658 126.514C266.699 126.432 268.985 129.31 269.005 129.331C269.556 130.045 270.128 130.78 270.638 130.678C272.067 130.412 274.21 124.942 274.231 124.881C274.292 124.717 274.333 124.472 274.313 124.309L263.841 121.941C264.127 121.717 264.413 121.492 266.923 120.37C268.026 119.88 268.577 119.635 268.536 119.349C268.454 118.594 264.78 115.124 262.984 114.817C262.188 114.695 261.351 114.94 260.575 114.552C259.759 114.144 259.861 112.837 258.738 112.735C257.717 112.654 255.513 113.491 253.9 114.083C252.267 114.695 252.247 114.695 252.002 114.674C251.9 114.409 251.777 114.144 251.675 111.756C251.022 111.49 248.94 111.837 248.328 111.96C245.184 112.694 235.794 120.574 237.55 121.778C239.305 122.982 245.327 121.737 246.143 121.349C246.021 120.839 245.939 120.512 248.573 120.227C250.797 119.982 251.124 119.451 251.349 119.084C251.9 119.369 253.329 120.614 253.329 120.614C254.104 121.431 254.41 122.554 255.125 123.411C256.023 124.493 258.105 124.37 258.126 126.35C258.126 126.391 257.676 130.841 251.492 132.699C249.634 133.25 247.634 133.148 245.878 134.087C245.102 134.495 245.082 135.801 245.307 136.005C245.654 136.312 246.735 136.454 250.001 135.352C252.492 134.515 252.492 134.515 256.921 136.454C256.554 136.822 256.554 136.822 254.778 137.496C255.758 138.353 263.31 139.925 264.862 139.067C264.8 138.843 264.8 138.843 264.413 138.639C264.208 138.537 264.208 138.537 260.84 135.413C263.474 135.699 264.29 136.026 265.78 137.046C266.066 137.251 266.27 137.393 266.413 137.353C267.25 137.087 268.658 133.923 267.985 133.209C266.515 131.678 263.78 131.882 262.943 129.494C262.29 127.575 265.617 126.514 265.658 126.514ZM231.447 111.592C231.528 111.653 232.12 111.388 232.61 111.082C232.712 111.021 232.875 110.919 232.896 110.878C232.896 110.878 232.896 110.878 232.875 110.878C232.855 110.878 232.835 110.878 232.794 110.898C232.59 110.98 231.447 111.511 231.447 111.592ZM289.356 117.491L290.949 117.165C290.949 117.165 291.357 116.981 291.479 116.675C291.541 116.491 291.479 116.348 291.398 116.246C291.255 116.001 290.969 115.94 290.806 115.716C290.704 115.593 290.683 115.45 290.683 115.389C290.683 115.368 290.683 115.348 290.663 115.328C290.663 115.328 290.459 115.185 289.887 115.266C289.173 115.43 287.132 116.614 288.234 117.287C288.499 117.451 288.907 117.573 289.356 117.491ZM258.003 111.96C258.023 111.96 258.023 111.939 258.044 111.939C257.881 111.694 255.656 111.021 254.002 111.286C252.553 111.531 253.002 112.49 253.349 112.776C254.451 113.654 257.983 111.98 258.003 111.96ZM246.776 104.468C246.327 104.632 245.572 104.958 245.409 105.081C245.49 105.081 245.552 105.04 245.613 105.019C246.327 104.795 247.021 104.856 247.021 104.856C246.96 105.101 246.613 105.101 246.552 105.366C246.633 105.489 247.858 104.999 247.94 104.958C248.368 104.734 249.777 103.509 249.777 103.264C249.593 103.203 249.45 103.366 249.267 103.366C249.43 103.06 249.818 103.08 250.022 102.815C249.981 102.815 249.981 102.815 249.899 102.835C248.634 103.244 246.96 104.019 246.756 104.142C247.042 104.223 247.287 104.019 247.552 104.04C247.593 104.142 247.45 104.223 246.776 104.468ZM240.714 111.164C240.408 111.368 240.306 111.449 240.775 111.735C241.183 111.98 242.183 111.756 243.041 111.021C243.531 110.592 244.551 109.551 244.082 109.51C244.021 109.51 243.939 109.531 243.898 109.531C243.102 109.755 240.836 111.061 240.714 111.164ZM254.451 103.631L254.431 103.611C254.39 103.611 254.349 103.631 254.329 103.631C254.288 103.652 254.268 103.652 254.227 103.652C253.574 103.835 252.961 104.101 252.308 104.285C251.573 104.509 250.797 104.652 250.042 104.897C249.512 105.06 249.185 105.183 249.083 105.244C249.287 105.285 251.451 104.938 252.614 104.611C253.186 104.448 253.472 104.346 254.268 103.795C254.329 103.754 254.39 103.693 254.451 103.631ZM249.062 104.774L249.083 104.795C249.328 104.774 251.553 103.836 252.186 103.529C252.471 103.407 252.533 103.346 252.533 103.223C252.533 103.08 252.328 103.141 252.308 103.019C252.308 102.958 252.349 102.897 252.308 102.815C252.308 102.815 252.308 102.794 252.288 102.794C252.288 102.794 252.267 102.754 252.186 102.733C252.083 102.692 252.022 102.713 251.879 102.754C251.798 102.794 251.675 102.835 251.532 102.937C251.042 103.284 250.716 103.835 250.144 104.06C249.45 104.325 249.205 104.427 249.062 104.774ZM254.227 101.427C255.799 100.651 255.819 100.631 255.839 100.59C255.778 100.59 255.717 100.61 255.676 100.61C255.656 100.61 254.084 101.121 253.635 101.345C253.104 101.611 253.288 101.794 253.288 101.794C253.39 101.835 253.757 101.651 254.227 101.427ZM257.636 100.692C258.309 100.488 258.513 100.427 258.738 100.529C258.738 100.549 258.738 100.59 258.717 100.61C258.513 100.733 258.309 100.814 257.636 101.019C255.819 101.59 255.349 101.815 255.227 101.876C254.819 102.121 254.778 102.611 254.962 102.692C255.002 102.713 255.002 102.713 256.166 102.386C256.635 102.243 257.125 102.366 257.595 102.203C258.718 101.794 259.677 101.059 260.759 100.57C261.432 100.263 262.188 100.182 262.841 99.8551C262.882 99.8347 262.943 99.7938 262.984 99.753C262.943 99.7122 262.943 99.7122 262.453 99.6101C262.453 99.5897 262.433 99.5693 262.433 99.5693C262.535 99.5081 262.657 99.4468 262.78 99.3856C263.719 98.9569 263.719 98.9161 263.739 98.8141C263.637 98.7936 263.535 98.8141 263.433 98.7528C263.576 98.5487 263.923 98.4875 263.861 98.1609C264.066 97.9363 264.372 97.8343 264.555 97.5893C264.494 97.5893 264.413 97.5893 264.351 97.5893C263.229 97.8751 259.126 99.406 258.738 99.6714C258.962 99.7122 259.146 99.6101 259.371 99.5693C259.065 99.8347 258.228 100.018 257.86 100.1C256.615 100.386 255.982 101.1 255.982 101.1C256.105 101.141 257.472 100.733 257.636 100.692ZM244.653 111.204C244.755 111.204 256.166 110.041 259.167 107.04C259.983 106.224 257.962 106.101 257.942 106.101C256.901 106.081 251.777 107.836 250.716 108.265C249.777 108.653 249.022 107.775 249.226 107.53C249.307 107.428 249.471 107.387 249.818 107.285C251.655 106.775 250.757 106.183 250.553 106.163C250.063 106.142 249.654 106.428 249.205 106.469C248.654 106.53 248.144 106.326 247.613 106.387C247.45 106.407 246.919 106.469 246.572 106.571C246.286 106.693 245.388 107.612 245.409 107.857C245.633 107.857 245.654 107.857 246.103 107.693C246.613 107.51 247.307 107.265 247.47 107.367C247.756 107.551 246.837 108.714 246.797 108.755C246.246 109.265 245.449 109.469 244.939 110.061C243.939 111.225 244.327 111.225 244.653 111.204ZM472.333 266.971C472.354 266.706 472.354 266.441 472.354 266.155C471.986 271.523 471.741 273.503 471.537 275.095L471.068 278.545L470.986 279.096C470.904 279.586 470.782 280.26 470.7 280.75C470.741 280.484 470.802 280.137 470.843 279.872C470.639 281.076 470.639 281.076 466.291 290.425C465.556 290.262 465.556 290.262 463.923 291.037C463.433 276.075 467.74 261.093 463.678 246.151C463.556 246.681 463.209 247.396 462.78 247.743C462.372 244.885 462.372 244.885 461.964 244.273L463.637 264.073C464.189 270.36 462.984 276.606 463.107 282.873C463.148 285.281 463.699 287.69 463.413 290.119C462.658 296.671 462.658 296.671 463.025 297.182C464.638 296.835 464.638 296.835 465.556 297.141C464.352 301.244 459.514 311.736 455.922 315.716C453.635 318.145 445.899 326.596 443.654 332.107C443.082 333.495 437.673 344.559 431.835 350.152C429.385 352.479 426.099 353.581 423.609 355.888C421.445 357.888 420.241 360.644 418.22 362.746L409.259 369.891L402.176 374.871C400.4 376.075 395.031 379.729 390.459 378.321C391.459 376.035 391.99 375.463 392.97 374.483C394.399 373.014 394.664 372.748 403.584 356.867C405.87 352.785 406.156 347.927 408.646 343.926C411.32 339.619 415.178 336.128 417.199 331.393C421.588 321.085 420.506 316.39 419.73 312.96C419.24 310.797 419.241 310.797 422.466 303.183C434.611 305.428 442.592 307.572 448.104 310.246C442.511 307.51 434.754 305.449 422.466 303.183C423.629 300.448 423.629 300.448 422.69 297.61C421.282 297.161 419.628 297.712 418.363 296.61C417.077 295.487 418.016 293.507 416.709 292.405C416.526 292.262 416.26 292.058 416.015 292.038C408.708 291.242 401.829 293.936 394.684 294.61C393.256 294.753 385.662 287.506 384.662 285.383C382.253 280.362 379.436 275.524 377.416 270.319C376.068 266.849 380.334 265.42 380.294 262.419C380.232 258.847 377.803 255.765 378.13 252.111C378.13 252.091 386.009 238.414 387.091 236.7C387.458 236.108 390.418 233.801 392.153 232.964C394.072 232.025 394.072 232.025 394.46 224.881C394.501 224.228 394.317 223.248 394.684 222.697C395.93 220.86 398.461 220.88 399.808 219.186C400.89 217.818 400.053 215.899 401.155 214.552C401.339 214.328 401.665 214.083 401.89 213.879C401.89 213.879 401.91 213.879 402.237 214.103C404.054 216.267 404.605 216.144 406.279 215.818C406.401 215.818 406.503 215.818 407.156 215.879C413.035 217.92 417.812 211.429 423.731 213.736C423.997 213.287 424.466 212.736 424.854 212.368C429.406 213.409 429.406 213.409 430.508 212.572C431.325 213.021 431.59 213.164 432.958 214.042C433.468 220.758 433.468 220.758 432.794 221.839C432.509 222.289 432.141 223.125 432.406 223.595C433.305 225.065 445.756 236.394 446.92 237.271C447.144 237.169 447.45 237.047 447.695 236.965C448.43 235.026 447.593 232.842 448.634 230.964C454.309 231.066 453.799 238.945 459.228 239.353C459.535 239.027 460.167 238.782 460.616 238.761C461.147 240.354 461.413 240.721 463.045 240.843C464.291 237.782 464.189 236.026 463.576 224.677C463.127 224.493 462.576 224.126 462.249 223.779C462.209 224.269 462.045 224.942 461.882 225.391C460.494 224.554 460.086 222.86 458.881 221.86C458.881 222.105 458.902 222.431 458.902 222.676C458.738 222.84 458.494 223.085 458.33 223.248C454.636 220.125 453.901 214.552 453.513 211.552C453.288 211.49 452.982 211.388 452.758 211.327C452.737 210.776 452.778 210.062 452.86 209.51C453.839 209.021 455.064 209.49 455.983 208.714C455.656 208.388 455.33 207.837 455.228 207.388C455.697 207.49 456.35 207.673 456.82 207.837C457.146 207.49 457.391 206.857 457.412 206.387C461.372 205.346 461.249 210.756 463.678 212.389C463.882 212.266 464.189 212.103 464.393 212.001C464.576 206.02 459.963 202.101 457.922 197.079C458.065 196.875 458.249 196.61 458.391 196.406C457.738 193.875 457.738 193.875 457.31 193.181C457.432 192.956 457.595 192.65 457.718 192.425C457.35 191.445 457.146 191.037 455.881 191.303C455.044 193.691 459.269 196.569 456.432 198.202C455.779 197.283 455.411 196.161 454.656 195.283C454.921 193.691 454.921 193.691 454.676 192.65C453.819 192.139 453.513 191.915 452.778 191.037C452.88 190.813 453.023 190.527 453.125 190.323C452.717 190.139 452.043 190.098 451.615 190.241C450.88 196.099 455.064 201.162 454.289 207.041C454.044 207.061 453.697 207.081 453.431 207.102C453.268 207.571 452.982 208.184 452.737 208.633C452.227 206.755 449.818 205.326 448.655 205.081C448.022 205.571 448.022 205.571 449.308 212.001C449.716 213.981 450.492 215.899 450.492 217.961C450.492 218.471 450.451 219.145 450.39 219.635L446.614 210.96C443.062 200.733 443.062 200.733 443.021 200.672L431.08 186.628C430.631 186.791 430.12 187.241 429.875 187.628C435.142 198.406 436.713 199.1 438.694 199.978C438.632 200.223 438.571 200.549 438.51 200.794C442.715 205.857 442.715 205.857 442.98 207.122C442.654 206.694 442.225 206.122 441.919 205.673C441.674 205.734 441.368 205.816 441.123 205.877C441.102 206.857 441.102 206.857 441.878 209.592C441.265 210.592 441 211.756 440.347 212.736C440.122 212.695 439.796 212.654 439.571 212.634C439.306 214.042 440.184 215.41 439.735 216.838C439.714 216.818 436.53 214.062 435.509 212.327C440.755 211.613 441.184 211.552 440.265 208.531C439.041 204.53 426.609 190.262 426.507 190.159C424.242 188.2 423.037 189.874 421.588 192.446C419.996 192.446 418.669 190.18 416.975 191.588C416.587 191.915 416.587 191.915 416.526 196.63C412.851 198.079 412.79 198.1 411.361 203.958C412.688 206.061 412.076 209.163 409.606 209.47L400.706 212.429C400.665 212.368 400.665 212.368 400.053 209.796C398.42 209.429 397.624 209.49 393.827 209.776C393.929 209.368 393.929 209.368 394.419 204.856C392.541 204.305 391.929 189.731 391.949 189.588C391.582 189.2 391.173 188.608 390.888 188.139C396.338 188.69 401.604 190.323 407.075 190.711C407.136 190.609 408.993 178.81 397.236 175.544C397.44 175.401 397.705 175.218 397.91 175.054C397.42 174.626 396.766 174.034 396.277 173.605C396.379 173.38 396.521 173.074 396.624 172.85C398.583 172.891 398.583 172.891 399.787 173.687C400.318 173.564 401.012 173.299 401.502 173.095C401.584 172.85 401.686 172.523 401.767 172.278C401.441 171.829 401.033 171.217 400.767 170.747C401.849 171.543 402.257 171.85 404.768 171.972C404.993 171.482 405.136 170.768 405.156 170.217C405.748 170.033 406.483 169.665 406.993 169.318C406.054 167.032 406.054 167.032 406.054 166.91C407.279 166.461 407.279 166.461 409.463 166.502C409.585 166.277 409.749 165.991 409.892 165.767C409.014 163.338 408.769 162.031 408.646 161.317C409.361 160.623 409.361 160.623 411.953 160.704C412.096 160.5 412.28 160.235 412.443 160.031C412.933 159.949 413.586 159.847 414.097 159.765C414.791 159.623 414.811 159.602 414.933 159.48C414.913 159.418 414.872 159.255 413.933 158.173C411.606 155.499 408.34 149.784 408.157 149.253C407.728 148.008 410.259 148.028 410.382 148.028C411.28 148.13 412.464 151.478 412.443 152.274C412.362 154.193 413.954 156.438 415.28 157.969C417.118 160.072 417.26 160.051 417.914 160.031C419.832 159.929 420.894 160.745 421.302 161.031L418.934 160.623C420.282 160.909 421.588 161.256 422.609 161.847C422.813 161.725 423.078 161.562 423.282 161.439C423.323 160.97 423.323 160.97 428.222 161.317H428.263C428.202 161.235 428.14 161.153 428.079 161.072C428.222 160.745 428.263 160.378 428.426 160.051C428.63 159.99 428.63 159.99 429.692 160.092C429.794 159.276 428.365 157.459 428.079 157.091C427.855 156.826 425.772 152.968 425.752 152.927C425.813 152.846 425.895 152.723 425.936 152.642C427.814 152.499 427.936 155.03 429.671 155.091C428.304 152.335 425.772 150.539 423.997 148.09C425.609 148.294 427.099 148.967 428.651 149.416C428.467 149.11 428.242 148.824 428.079 148.518C428.161 148.477 428.263 148.396 428.344 148.355C428.773 148.518 429.161 148.763 429.63 148.845C426.956 146.395 422.894 146.763 420.241 144.293C417.199 141.456 417.199 141.456 413.954 134.25C414.056 134.23 414.199 134.23 414.301 134.209C413.995 133.352 409.83 130.596 408.585 130.188C408.544 130.27 408.463 130.372 408.422 130.453C408.483 130.576 408.544 130.759 408.606 130.882C408.708 131.086 408.708 131.086 412.055 134.556C413.341 135.883 411.892 137.659 412.77 139.047C415.036 142.721 415.036 142.721 416.73 143.823C419.159 145.416 419.24 145.742 419.22 146.559C418.281 147.416 417.852 147.824 419.71 151.253C420.526 152.764 420.384 156.03 420.139 156.499C418.853 156.499 418.159 155.316 417.424 154.07C415.872 151.458 407.524 143.15 407.136 142.884C407.503 144.068 408.238 146.559 406.748 147.253C402.094 149.416 397.032 137.598 396.991 137.475C396.624 136.577 396.603 136.332 397.297 135.822C399.196 134.474 399.196 134.474 399.665 131.045C399.685 130.902 399.787 129.616 397.379 125.922C397.358 125.881 394.113 120.186 393.99 119.186C393.909 118.512 393.909 118.512 394.419 117.41C394.154 116.777 393.46 116.491 393.194 115.858C394.582 116.348 395.276 117.818 396.685 118.308C396.011 117.532 396.011 117.532 395.827 117.063C396.134 117.144 400.135 118.981 400.502 119.859C400.298 119.798 400.053 119.716 399.849 119.635C402.033 121.125 402.604 121.329 402.89 121.451C402.972 121.39 403.053 121.329 403.135 121.268C404.054 121.819 404.258 121.982 404.605 122.268C404.421 122.186 404.176 122.084 403.992 122.023C404.339 122.35 404.686 122.676 407.973 124.656C412.545 127.412 419.485 133.413 420.057 134.474C417.567 133.331 415.77 131.229 413.484 129.8C418.057 133.433 421.894 137.863 426.426 141.558C426.487 141.517 426.589 141.435 426.671 141.394C425.609 140.312 424.242 139.537 423.486 138.169C423.935 138.496 424.364 138.863 424.854 139.149C422.159 136.352 422.057 136.21 421.772 135.842C422.017 136.046 422.262 136.271 422.506 136.495L422.527 136.516L428.998 143.068C435.06 149.6 435.244 149.845 445.042 163.215C447.328 166.624 450.084 171.38 452.227 174.871C450.696 172.707 448.736 170.931 446.287 169.359C448.92 171.033 450.696 172.829 452.227 174.871L457.799 185.771C460.29 191.16 461.147 192.997 462.964 198.426C462.943 198.406 462.923 198.386 462.903 198.345C462.984 199.182 462.984 199.182 468.189 216.471C468.169 216.43 468.128 216.349 468.108 216.308C470.231 229.004 470.333 229.596 471.415 233.189C471.598 234.352 471.782 235.597 471.966 236.965C472.435 241.476 472.639 247.539 472.905 252.091C472.843 256.5 472.537 262.317 472.333 266.971ZM472.354 266.053C472.456 260.868 472.17 251.866 471.455 250.784C471.21 252.336 471.027 253.438 471.455 265.624C471.557 264.848 471.557 264.848 471.721 263.052C471.496 268.666 471.496 268.666 471.802 269.36C472.027 268.523 472.129 268.176 472.354 266.053ZM468.271 216.144C468.312 216.349 468.394 216.614 468.434 216.818L469.251 220.451C469.23 220.39 469.23 220.329 469.21 220.268C469.496 222.431 469.924 224.554 470.353 226.698C469.108 218.716 468.659 217.083 466.801 210.449C466.475 209.429 466.148 208.449 465.862 207.551C467.761 214.062 467.842 214.328 468.638 217.777C468.516 217.206 468.394 216.675 468.271 216.144ZM465.352 205.836C465.434 206.04 465.515 206.244 465.597 206.449C465.352 205.673 465.046 204.918 464.862 204.101C464.944 204.346 465.046 204.611 465.128 204.877L463.188 199.161L463.209 199.243C462.964 198.61 462.923 198.488 462.841 198.386C463.597 200.651 464.536 203.509 465.842 207.53C465.699 207 465.536 206.449 465.352 205.836ZM471.476 233.658C471.231 231.311 470.802 228.984 470.353 226.677C470.618 228.474 470.945 230.596 471.333 233.148C471.374 233.311 471.415 233.475 471.476 233.658ZM378.742 157.234C378.722 157.275 378.701 157.336 378.681 157.377C378.069 158.561 377.62 160.847 377.62 160.868C377.456 161.786 377.518 162.215 377.824 162.603C378.354 163.236 380.763 162.97 382.539 161.827C382.988 161.541 383.396 161.215 383.866 160.97C384.417 160.684 385.152 160.888 385.58 160.296C385.825 159.949 385.723 159.173 385.295 157.969C385.07 157.357 384.805 156.969 384.539 156.581C384.09 155.907 384.05 155.663 384.356 154.948C384.478 154.642 384.703 154.132 384.539 153.519C384.376 152.907 383.886 152.458 383.519 152.213C383.335 152.09 383.07 151.947 382.866 151.845C382.314 151.58 381.702 151.437 381.131 151.192C380.722 151.009 380.579 150.845 380.518 150.784C380.477 150.743 380.457 150.723 380.416 150.723C380.253 150.764 376.599 151.682 378.906 152.948C379.049 153.029 379.13 153.07 379.457 153.111C379.375 153.193 379.232 153.254 379.13 153.315C377.62 154.05 377.252 154.417 376.905 154.785C376.66 155.03 376.395 155.479 376.497 156.132C376.599 156.377 376.721 156.704 377.313 156.989C377.742 157.214 378.273 157.112 378.742 157.234ZM226.65 114.246C226.65 114.225 226.67 114.225 226.65 114.246C226.67 114.225 226.67 114.225 226.65 114.246C226.303 114.43 223.384 116.103 223.241 116.307C223.384 116.307 223.547 116.307 226.65 114.246ZM455.983 226.187C456.003 226.187 456.044 226.167 456.064 226.147C456.064 226.126 456.064 226.106 456.044 226.085C456.024 226.065 454.656 224.289 454.656 224.289C454.411 224.024 454.146 223.942 454.044 223.901C453.595 223.799 453.125 223.799 452.676 223.636C451.88 223.33 451.88 223.33 451.819 223.35C451.451 223.37 451.349 223.677 451.574 224.044C452.043 224.84 455.146 226.473 455.983 226.187ZM426.487 204.346C426.773 204.652 427.385 204.509 427.508 205.061C427.61 205.571 427.405 206.081 427.548 206.571C427.671 206.979 427.957 207.061 428.079 207.081C428.406 207.163 430.1 206.612 430.141 205.265C430.141 205.122 430.12 204.918 430.1 204.754C430.018 204.183 429.814 203.652 429.712 203.081C429.63 202.468 429.671 201.856 429.569 201.243C429.426 200.284 429.079 200.162 428.753 200.141C428.202 200.162 426.875 200.651 426.405 201.529C426.14 202.06 426.079 203.897 426.487 204.346ZM418.036 204.081C418.036 204.081 418.73 203.305 418.73 203.264C418.791 202.999 418.302 202.754 417.465 202.672C416.546 202.591 415.076 202.774 415.648 203.448C415.975 203.815 417.158 204.326 417.648 204.305C417.832 204.264 417.914 204.203 418.036 204.081ZM426.487 196.406C426.344 196.528 426.222 196.651 426.262 196.957C426.283 197.059 426.385 197.283 426.507 197.426C426.528 197.447 427.834 198.998 427.916 199.018C428.222 198.876 427.936 196.549 427.691 195.324C427.691 195.303 427.263 193.466 427.018 193.303C427.018 193.303 426.997 193.303 426.977 193.303C426.956 193.323 426.916 193.364 426.895 193.487C426.895 193.528 426.875 193.568 426.875 193.609C426.773 194.201 426.977 194.773 426.977 195.344C426.956 195.977 426.671 196.222 426.487 196.406ZM461.412 230.351C461.412 230.351 462.188 230.494 462.249 230.433C462.372 230.311 462.535 228.555 462.535 228.555C462.535 228.514 462.535 228.474 462.535 228.453C462.535 228.269 462.494 228.249 462.454 228.229C462.229 228.229 462.045 228.371 461.8 228.371C461.657 228.371 461.474 228.31 461.331 228.208C461.127 228.086 461.004 227.861 460.78 227.759C460.596 227.677 460.514 227.779 460.494 227.82C460.29 228.086 460.514 229.453 461.025 230.066C461.188 230.27 461.351 230.331 461.412 230.351ZM210.238 126.493C210.258 126.514 210.279 126.534 210.299 126.554C210.361 126.554 210.442 126.514 210.503 126.473C211.442 125.84 212.238 125.044 213.157 124.391C214.831 123.227 216.648 122.247 218.301 121.043C218.689 120.757 218.689 120.757 219.179 119.839C219.158 119.818 219.158 119.778 219.138 119.737C218.546 119.859 218.138 120.267 217.627 120.533C218.056 120.165 218.056 120.165 218.117 119.88C218.097 119.88 218.076 119.859 218.056 119.839C217.995 119.859 217.913 119.88 217.852 119.9C215.79 120.757 215.79 120.757 206.686 128.249C205.89 128.902 205.257 129.412 204.604 130.78C204.625 130.8 204.665 130.8 204.686 130.821C206.85 129.78 208.381 127.922 210.238 126.493ZM222.975 117.859C223.2 117.879 223.935 117.471 224.629 117.083C227.446 115.511 228.875 114.879 228.875 114.879C229.773 114.532 230.732 114.287 231.589 113.838C232.283 113.491 234.876 111.674 234.896 111.653C235.407 111.306 235.427 111.245 235.488 111.143C235.121 111.123 234.713 111.347 234.692 111.347C233.896 111.796 233.202 112.429 232.406 112.878C233.386 111.898 234.549 111.123 235.488 110.123C235.447 110.123 235.407 110.123 235.386 110.143C235.345 110.163 232.1 111.837 231.998 112.286C231.916 112.613 231.487 113.45 228.997 114.042C228.977 114.021 228.956 114.001 228.936 113.98C228.997 113.899 229.058 113.838 229.12 113.776C229.14 113.756 229.16 113.736 229.181 113.715C229.528 113.348 230.671 113.123 230.201 112.592C230.14 112.613 223.486 115.818 223.424 116.736C223.465 116.757 223.465 116.757 226.65 114.981C226.323 115.511 225.731 115.695 225.282 116.042C225.364 116.042 225.384 116.042 226.16 115.613C226.364 115.491 226.772 115.287 227.568 115.001C226.833 115.491 224.466 116.736 223.139 117.328C222.73 117.553 222.73 117.818 222.975 117.859ZM204.461 134.352C204.951 134.474 205.319 134.046 205.768 134.066C205.788 134.087 205.809 134.127 205.829 134.148C205.625 134.719 205.074 135.046 204.788 135.577C205.339 135.577 209.809 133.597 212.341 131.556C213.157 130.902 213.484 130.637 213.953 130.453C213.974 130.474 214.014 130.494 214.055 130.514C213.851 130.923 213.851 130.923 213.81 131.004C214.035 131.209 215.729 131.576 215.729 131.576C217.321 131.045 217.321 131.045 218.873 129.29C218.934 129.229 218.934 129.208 218.954 129.208C218.791 129.167 218.791 129.167 217.301 129.963C217.464 129.433 219.015 128.269 220.097 128.31C220.485 128.33 220.546 128.31 220.689 128.208C220.689 128.208 221.506 127.473 221.363 126.799C220.526 126.33 220.179 125.391 220.628 124.84C221.016 124.35 224.466 120.125 224.384 119.798C224.221 119.716 224.057 119.696 223.874 119.635C223.853 119.573 223.833 119.512 223.812 119.471C223.792 119.471 223.792 119.492 223.771 119.492C222.179 120.839 221.097 122.717 219.22 123.778C219.036 123.003 219.832 122.758 220.056 122.207C220.016 122.186 219.954 122.145 219.914 122.105C219.179 122.37 218.566 122.941 217.791 123.105C218.015 122.758 218.383 122.554 218.566 122.166C218.546 122.145 218.505 122.105 218.485 122.084C217.444 122.39 216.668 123.207 215.668 123.595C216.28 122.737 217.301 122.35 217.995 121.594C217.362 121.656 209.197 126.942 209.381 127.922C209.483 127.963 209.605 128.024 209.707 128.085C209.544 128.351 209.544 128.351 208.564 128.943C206.931 129.923 206.87 130.127 206.87 130.351C206.952 130.392 207.074 130.412 207.176 130.392C208.074 130.208 208.83 129.616 209.728 129.412C210.361 129.269 211.014 129.555 211.647 129.412C210.503 130.29 208.973 130.759 208.319 130.943C204.114 132.27 203.706 134.168 204.461 134.352ZM241.877 142.109C242.02 141.741 241.653 141.762 241.367 141.803C241.347 141.803 240.122 142.027 239.816 142.415C239.367 142.966 239.489 143.742 239.673 143.885C240.122 144.272 241.694 142.599 241.877 142.109ZM239.795 139.108C239.856 139.088 240.02 139.006 240.081 138.863C240.224 138.577 239.999 138.108 239.856 137.965C239.591 137.72 239.224 137.557 238.979 137.291C238.53 136.822 238.305 136.189 237.774 135.76C237.693 135.699 237.591 135.618 237.509 135.577C236.999 135.25 236.346 135.311 235.835 135.005C235.509 134.801 235.509 134.352 235.162 134.148C235.121 134.127 235.06 134.127 235.019 134.148C234.549 134.372 232.957 136.618 232.896 136.699C232.692 136.985 232.426 137.393 232.243 137.679L230.508 140.496C231.549 140.578 231.549 140.578 231.63 141.109C231.732 141.762 231.732 141.762 231.834 141.762C231.977 141.741 232.243 141.517 232.814 141.027C233.631 140.333 234.998 139.19 236.59 139.006C237.632 138.904 238.713 139.476 239.795 139.108ZM236.937 141.027C236.917 141.027 234.631 141.517 233.876 142.109C233.427 142.456 233.365 143.415 233.61 143.599C234.08 143.946 236.978 142.231 237.489 141.435C237.652 141.19 237.693 140.904 236.937 141.027ZM231.038 269.911C230.161 270.258 230.671 271.625 231.202 271.829C231.569 271.952 233.835 272.381 233.794 271.442C233.753 270.89 232.181 269.666 231.038 269.911ZM389.275 156.642C389.112 156.663 389.132 156.744 389.193 156.908L390.296 156.989C389.704 156.724 389.459 156.642 389.275 156.642ZM282.988 168.237C284.029 166.869 284.498 165.971 284.355 165.542C284.294 165.522 284.213 165.501 284.172 165.501C283.6 165.685 282.09 166.991 280.906 168.441C279.477 170.196 278.518 172.258 277.109 174.034C276.354 174.973 275.333 175.646 274.619 176.626C274.353 177.014 274.558 177.116 274.68 177.177C274.864 177.279 274.864 177.279 279.089 177.606C281.498 177.81 283.294 178.014 285.172 178.524C285.396 178.586 285.682 178.688 285.886 178.708C286.58 178.749 287.274 178.055 287.948 178.769C288.275 179.116 288.315 179.77 288.336 180.178C288.356 180.627 288.581 180.688 288.703 180.668C289.377 180.586 290.214 179.28 290.295 178.177C290.418 176.402 289.071 173.646 287.723 172.176C287.029 171.421 287.029 171.421 284.539 171.952C283.784 172.115 283.621 171.952 283.437 171.319C283.11 170.115 282.804 169.91 282.355 169.686C282.11 169.563 282.11 169.482 282.233 169.237C282.416 168.91 282.763 168.543 282.988 168.237ZM381.845 146.212C381.988 147.069 381.314 147.885 381.661 148.763C381.927 148.865 382.478 148.804 383.662 147.906C384.09 147.579 384.458 147.293 384.764 147.457C385.968 148.13 384.58 149.416 384.989 150.376C385.825 152.295 386.805 152.56 388.05 152.886C390.01 153.397 390.255 153.458 390.622 153.703C390.684 154.009 390.5 154.336 390.684 154.642C391.214 155.581 392.133 156.214 392.602 157.193C392.847 158.194 391.623 157.622 390.704 157.193C390.316 157.01 390.316 157.01 389.214 156.928C389.663 158.194 391.092 158.826 391.378 160.194C391.541 160.929 390.847 161.337 389.847 161.807C389.581 161.929 389.173 162.133 389.336 162.419C389.418 162.582 389.847 163.072 392.235 163.011C393.235 162.991 395.338 162.929 395.399 163.603C395.44 164.236 394.97 164.215 394.256 164.215C393.562 164.195 393.337 164.399 393.072 164.644C392.562 165.113 392.48 165.828 392.031 166.338C391.48 166.971 390.724 167.338 390.153 167.951C390.153 168.012 390.173 168.094 390.173 168.155C390.479 168.237 390.479 168.237 395.011 167.665C397.297 167.379 399.624 167.563 401.91 167.236C401.931 167.236 401.972 167.236 401.992 167.216L405.932 165.889C405.952 165.848 405.952 165.787 405.972 165.746C405.156 164.93 404.115 165.644 403.217 165.338C402.788 164.154 403.89 163.072 403.441 161.888C402.645 159.765 401.808 159.806 401.135 159.847C399.604 159.929 398.563 157.785 398.563 157.765C398.583 157.745 398.583 157.704 398.604 157.663C398.706 157.643 398.706 157.643 399.89 157.908C400.42 158.092 401.176 158.357 401.114 158.071C401.114 158.051 401.094 158.051 401.094 158.03C401.012 157.928 400.89 157.724 400.461 157.398C398.604 155.969 396.277 155.254 394.603 153.58C393.786 152.784 393.215 151.764 392.215 151.131C390.5 150.049 388.928 149.804 388.152 149.784H388.132C389.132 148.886 390.459 144.477 387.765 144.374C387.275 144.354 386.724 144.436 386.356 144.477C384.662 144.701 384.356 144.742 384.335 144.293C384.315 143.395 385.825 141.741 384.58 141.66C384.539 141.66 381.233 141.721 380.743 142.905C380.702 143.007 380.763 143.191 380.784 143.293C380.947 144.313 381.661 145.171 381.845 146.212ZM162.391 189.588C162.82 188.588 163.045 187.526 163.453 186.526C163.698 185.914 163.963 185.342 164.188 184.73C164.208 184.669 164.249 184.566 164.269 184.505C164.29 184.485 164.453 183.934 164.167 183.995C164.126 183.995 164.065 184.036 164.045 184.056C163.147 184.791 162.126 189.445 162.31 189.731C162.33 189.69 162.371 189.629 162.391 189.588ZM360.106 124.085C360.106 124.023 360.126 123.942 360.106 123.901C359.922 123.574 359.371 122.941 358.738 122.676C358.636 122.635 358.493 122.574 358.371 122.554C357.411 122.288 356.391 122.533 355.431 122.145C354.758 121.88 354.268 121.206 353.451 121.247C352.533 121.472 351.655 121.86 350.737 122.064C349.838 122.268 348.899 122.227 348.022 122.513C347.45 122.697 347.858 123.391 347.43 123.656C346.96 123.942 346.47 123.411 345.98 123.697C345.919 123.738 345.817 123.799 345.735 123.84C345.552 124.636 346.266 125.554 345.409 126.248C345.144 126.146 343.123 124.472 342.796 123.84C342.041 122.411 338.836 121.513 337.938 122.227C338.183 122.962 339.081 122.799 339.469 123.329C339.224 124.391 337.958 124.207 337.468 124.962C337.754 125.166 338.775 125.024 339.346 124.921C340.347 124.738 343.49 125.84 341.735 127.289C342.49 128.208 343.49 127.432 344.327 127.677C345.225 127.922 345.225 128.249 345.225 129.024C345.429 129.208 345.613 129.269 347.368 129.086C348.532 128.963 348.92 128.943 349.287 128.963C350.124 129.024 350.92 129.392 351.757 129.453C351.859 129.453 352.002 129.473 352.104 129.453C352.41 129.453 352.819 129.433 355.166 128.861C357.289 128.351 360.514 126.003 360.351 125.309C360.249 124.86 359.861 124.574 359.738 124.125C359.861 124.064 359.861 124.064 360.106 124.085ZM233.896 266.134C234.815 267.339 240.632 267.767 240.734 267.094C240.795 266.726 233.345 258.153 233.284 258.112C232.528 257.582 230.201 255.989 225.915 256.847C223.527 257.643 221.853 259.255 221.832 259.317C222.138 259.602 223.976 259.337 225.466 258.48C227.609 257.255 229.058 257.949 229.181 258.316C229.058 258.541 228.773 258.827 228.079 258.439C228.058 258.459 228.017 258.48 227.997 258.5C228.079 259.541 229.814 259.97 230.957 260.256C233.059 260.786 233.202 261.235 233.631 262.562C233.835 263.236 233.978 263.624 234.427 264.195C234.733 264.583 234.957 264.869 234.978 265.093C235.039 265.787 234.243 265.747 233.896 266.134ZM243.143 273.238C243.735 273.585 243.265 274.687 244.123 274.769C245.592 274.912 245.429 272.911 246.715 272.789C246.858 272.768 246.98 272.789 247.429 272.85C249.695 273.238 253.614 273.36 253.635 273.36C253.819 273.34 253.941 273.299 253.961 273.115C254.002 272.462 253.451 271.911 253.614 271.217C254.145 269.094 243.347 268.155 242.653 268.278C242.469 268.318 242.449 268.339 242.388 268.421C242.388 268.584 242.388 268.584 242.551 268.727C244.143 270.196 243.633 271.911 243.551 271.993C243.347 272.176 242.49 272.034 241.306 271.829C239.122 271.482 238.917 271.544 238.775 271.584C238.795 271.625 238.815 271.687 238.856 271.707C240.183 272.503 241.796 272.483 243.143 273.238ZM264.902 172.87C263.984 173.217 266.086 174.238 266.535 174.442C269.332 175.748 270.291 174.34 270.312 174.319C270.638 173.564 265.923 172.707 264.902 172.87ZM439.469 346.641C436.407 350.58 436.326 350.621 434.325 351.336C432.692 351.928 432.162 352.662 429.692 356.255C428.467 358.051 428.018 358.398 426.793 359.358C423.078 362.256 418.077 368.666 417.934 369.176C419.281 369.197 419.281 369.197 424.384 364.298C428.549 360.317 432.202 355.847 436.183 351.703C436.162 351.826 436.162 351.826 435.815 352.397C435.979 352.275 435.979 352.275 436.346 351.805C437.285 350.621 440.163 346.743 440.612 345.355C440.592 345.334 440.551 345.314 440.51 345.314C440.224 345.661 440.224 345.661 439.469 346.641ZM336.917 319.778C336.938 319.86 336.917 319.962 336.917 320.043C336.917 320.105 334.652 326.963 328.344 329.27C328.385 329.474 328.528 329.739 328.671 329.923C329.365 330.882 328.997 331.413 328.018 332.862C327.16 334.128 327.915 335.434 327.854 336.72C327.752 339.027 327.956 341.334 327.65 343.62C327.507 344.661 327.426 344.661 326.323 344.518C325.691 344.436 324.915 344.457 324.058 345.232C322.159 346.947 322.118 350.111 319.444 351.213C318.26 351.703 315.423 353.091 314.341 355.418C314.321 355.602 311.096 373.891 303.543 374.095L304.523 375.463C305.38 376.729 304.278 379.464 300.951 378.443C300.808 378.525 300.624 378.647 300.481 378.729C300.624 380.056 300.624 380.056 298.746 381.73C301.175 385.118 301.175 385.118 301.196 385.322C299.175 385.261 299.175 385.261 298.746 385.404C301.563 393.14 301.563 393.14 303.033 394.712C302.033 399.244 302.033 399.244 312.729 404.755C312.627 404.796 301.502 406.572 290.03 390.405C280.967 377.647 275.762 354.316 275.721 354.091C274.762 349.172 272.761 345.416 270.108 343.497C266.617 340.987 262.106 340.333 258.799 337.476C258.697 337.374 245.102 323.942 241.796 319.043C241.592 318.758 241.387 318.349 241.224 318.043C240.183 316.186 242.612 306.204 242.653 306.102C245.184 300.57 245.184 300.57 244.878 299.223C243.898 295.018 241.122 286.036 236.631 293.528C226.548 293.895 222.73 282.485 213.524 281.199C213.218 281.158 212.81 281.097 212.504 281.076C210.442 280.852 210.442 280.852 204.584 277.524C202.032 276.075 199.256 277.565 196.643 276.933C194.092 276.32 191.479 275.912 188.948 275.259C188.213 275.075 187.335 274.565 186.641 274.299C186.254 274.156 185.723 273.952 185.396 273.728C182.926 271.993 183.498 268.931 182.294 266.624C180.803 263.787 177.782 262.338 176.007 259.745C174.639 257.745 173.067 255.908 171.781 253.846C171.169 252.887 170.842 251.356 170.536 249.988C170.107 248.09 169.781 246.579 166.637 244.273C169.148 254.479 170.638 256.602 171.965 258.459C174.863 262.562 174.271 263.44 173.7 264.277C173.639 264.216 167.352 256.091 166.494 254.275C167.005 254.254 167.678 254.234 168.189 254.214C161.065 239.598 161.065 239.598 160.636 239.537C157.37 233.801 159.085 203.06 164.004 196.936C164.412 197.141 164.943 197.426 165.351 197.651C165.412 196.426 165.004 195.303 164.616 194.16C164.616 194.181 164.616 194.201 164.616 194.222C164.616 194.405 164.678 194.609 164.657 194.793C164.657 194.936 164.637 195.242 164.514 195.508C164.392 195.814 164.188 196.038 163.963 196.099C163.943 196.099 163.126 196.263 162.779 195.099C162.371 193.691 162.738 191.976 162.738 191.956C162.738 191.956 162.738 191.956 162.759 191.956C162.902 191.997 163.085 192.589 163.147 192.772C163.249 193.14 163.269 193.14 163.33 193.201C163.392 193.262 163.473 193.283 163.657 193.303C164.004 193.323 164.249 193.385 164.392 193.446C164.024 192.364 163.739 191.262 163.984 190.057C164.984 185.056 164.984 185.056 165.902 182.117C165.759 181.892 165.596 181.607 165.453 181.382C165.657 180.811 165.902 180.015 166.086 179.443C166.454 177.443 166.454 177.443 169.372 170.074C169.311 170.176 169.23 170.319 169.148 170.4L169.107 170.462C173.475 163.215 173.659 162.97 183.518 150.131C185.804 147.559 188.846 144.15 191.132 141.578C190.969 141.782 190.765 142.068 190.642 142.292C194.337 138.618 197.276 136.393 197.297 136.393C195.97 137.618 194.561 138.761 193.255 140.006C193.255 140.006 193.255 140.006 193.275 140.006C197.399 136.495 197.399 136.495 199.664 134.413C198.358 136.026 198.358 136.026 197.909 136.944C198.746 136.148 198.746 136.148 199.256 135.76C199.073 135.985 198.868 136.312 198.725 136.577C199.46 136.067 200.011 135.271 200.95 135.066C201.155 135.25 201.379 135.516 201.522 135.72C202.849 135.863 202.93 135.822 203.38 135.577C203.482 135.638 203.624 135.72 203.727 135.76C203.4 137.128 202.032 137.455 201.175 138.292C203.216 138.598 204.747 137.067 206.625 136.761C206.748 137.74 205.849 138.577 206.237 139.598C208.299 135.577 209.32 133.576 212.79 132.678C213.075 133.086 213.035 133.617 213.32 134.025C217.607 134.23 218.77 133.495 218.954 133.331C222.424 130.596 222.424 130.596 223.506 130.861C221.649 132.862 221.649 132.862 222.649 133.883C223.71 131.413 226.548 130.657 227.854 128.412C227.732 128.392 227.589 128.351 227.466 128.33C227.466 128.33 227.466 128.33 227.487 128.004C228.099 127.412 228.323 127.289 229.671 126.616C229.63 126.493 229.609 126.33 229.569 126.228C228.915 126.269 228.283 126.412 227.629 126.412C227.568 126.289 227.487 126.105 227.425 125.983C227.487 125.881 235.733 114.43 241.836 113.001C242.694 112.837 242.694 112.837 243.225 112.919C235.59 117.41 235.59 117.41 233.957 119.941C234.08 120.043 234.263 120.165 234.386 120.247C234.386 120.798 234.386 120.798 231.528 125.411C233.182 125.473 233.182 125.473 233.284 125.513C233.263 125.534 231.385 127.983 231.712 128.922C233.08 127.718 233.814 125.86 235.672 125.146C237.305 126.861 233.814 127.963 233.569 129.698C236.468 132.29 238.183 126.697 240.571 125.33C241.877 119.716 245.756 123.676 245.796 123.717C245.572 124.146 245.531 124.636 245.225 125.003C244.674 125.575 243.714 125.493 243.306 126.269C242.857 127.106 243.674 128.004 243.184 128.841C243 129.147 242.694 129.494 242.428 129.718C241.224 130.78 241.224 130.78 236.611 132.454C235.223 131.576 233.916 133.168 233.896 133.189C234.141 133.209 234.468 133.311 234.672 133.454C232.671 136.536 229.262 134.883 226.609 135.842C228.834 137.108 229.405 137.006 232.161 136.536C228.119 140.843 228.119 140.843 221.016 142.109C221.71 142.66 222.935 142.17 223.363 143.293C219.709 146.007 211.157 152.356 211.769 155.867C214.484 156.071 214.484 156.071 214.668 157.234C215.219 160.521 215.219 160.521 215.647 160.888C216.893 160.541 217.934 159.459 219.362 159.704C219.648 159.745 220.016 159.847 220.281 159.949C221.853 160.5 222.71 162.174 224.343 162.623C225.956 163.052 227.793 161.745 229.283 163.195C229.569 163.195 229.936 163.215 230.201 163.256C230.242 163.399 230.201 163.664 230.242 163.807C229.997 163.991 229.589 164.358 229.344 164.542C229.814 165.705 230.181 166.624 229.324 169.155C230.916 170.298 232.937 170.788 234.1 172.544C237.774 170.012 235.651 165.991 236.488 162.786C237.142 162.297 237.203 162.215 237.366 162.031C237.019 160.868 238.611 160.357 239.305 160.194C242.49 159.459 242.388 153.907 242.388 153.866C242.347 152.478 240.897 151.641 240.979 150.212C241.061 148.988 242.428 148.62 242.775 147.579C240.979 145.334 243.633 143.395 243.225 141.251C245.49 140.312 247.981 140.823 250.287 140.21C250.716 140.17 250.838 140.149 251.41 140.353C253.941 141.19 254.186 141.619 254.308 141.803C254.635 142.354 254.778 142.517 255.023 142.599C256.043 142.966 257.125 142.476 258.166 142.823C257.105 143.68 256.411 147.273 256.717 147.824C258.473 148.212 259.881 149.845 261.881 149.233C262.208 149.131 262.208 149.131 263.351 147.559C263.861 146.865 264.821 147.436 265.352 146.824C265.821 146.293 265.107 145.722 265.392 145.191C267.209 141.721 267.209 141.721 270.904 148.355C272.373 150.988 272.373 150.988 271.7 151.927C271.251 152.56 271.087 152.846 271.312 153.172C271.883 153.948 273.027 153.744 273.598 154.519C274.027 155.091 273.537 155.744 273.761 156.336C274.129 156.459 274.129 156.459 274.802 156.275C277.864 155.479 280.293 157.561 280.15 157.928C280.048 158.071 279.824 158.194 279.661 158.275C272.333 158.867 267.168 159.337 261.208 159.97C267.699 159.316 273.578 158.806 279.62 158.296C276.497 159.5 276.109 159.663 275.272 160.847C275.374 161.051 275.496 161.337 275.578 161.541C278.334 159.745 279.885 159.582 280.395 159.541C280.395 159.541 280.416 159.541 281.13 159.541C281.967 159.704 282.825 159.888 283.661 160.072C283.804 160.296 283.988 160.582 284.131 160.786C283.376 162.664 283.376 162.664 283.886 163.93C282.273 166.849 271.761 172.074 269.414 170.462C259.126 173.585 259.126 173.585 249.103 184.015C263.657 174.911 263.657 174.911 264.719 175.932C264.29 177.973 262.82 178.382 260.759 178.933C261.351 179.647 261.432 179.749 262.8 180.259C263.372 182.015 263.616 182.75 265.066 183.444C264.637 182.566 265.107 181.382 265.188 181.26C265.209 181.26 265.209 181.239 265.229 181.239C265.249 181.26 265.29 181.28 265.27 181.525C265.229 182.137 265.331 182.586 266.066 182.954C266.372 183.097 267.229 183.423 268.72 183.199C268.944 183.158 268.965 183.158 269.046 183.178C269.046 183.178 269.046 183.199 269.067 183.199C269.067 183.219 269.067 183.24 269.046 183.24C269.046 183.26 268.413 184.158 267.556 184.322C268.393 184.566 269.414 184.852 270.659 185.199C271.618 183.75 271.679 181.77 273.292 180.709C275.374 185.955 263.719 192.731 259.942 192.65C260.024 191.486 260.024 191.486 265.596 187.526C265.596 187.281 265.596 186.934 265.596 186.689C265.066 186.71 264.351 186.526 263.861 186.342C263.963 186.138 264.086 185.873 264.188 185.669C254.533 191.262 254.533 191.262 253.982 191.241C250.655 194.344 250.655 194.344 250.022 200.284C249.532 200.243 242.755 203.917 242.714 203.958C241.122 205.51 241.469 207.816 240.428 209.592C240.244 208.653 239.509 208.02 239.101 207.224C238.611 214.777 238.611 214.777 238.081 215.144C238.081 215.144 238.081 209.959 237.999 208.265L236.835 219.757C237.06 219.839 237.346 219.941 237.55 220.023C237.529 220.288 237.489 220.656 237.468 220.921C237.244 220.982 236.958 221.064 236.733 221.145C236.713 221.37 236.672 221.676 236.631 221.901C236.795 222.084 236.999 222.309 237.142 222.472C237.142 222.472 237.142 222.472 237.223 222.472C233.733 226.473 227.466 227.922 226.405 234.189C225.404 240.251 234.549 245.579 228.854 251.601C224.016 248.804 227.099 241.721 222.057 239.047C222.016 239.027 210.258 240.047 208.768 240.905C208.707 241.15 208.646 241.476 208.585 241.721C209.217 242.231 210.054 242.436 210.626 243.068C210.422 243.232 210.156 243.456 209.973 243.62C209.911 243.599 202.522 241.925 200.603 243.395C199.542 244.211 194.99 248.865 194.214 251.335C193.622 253.234 195.868 254.05 195.909 255.724C195.97 258.337 193.643 260.501 194.459 263.256C195.133 265.481 197.113 269.727 202.951 273.075C205.441 274.503 206.829 271.462 209.013 271.584C210.361 257.357 216.668 262.44 217.382 263.052C216.77 266.522 216.77 266.522 215.137 270.36C216.035 272.279 216.035 272.279 214.79 276.422C218.566 276.688 222.383 274.708 226.139 276.606C226.16 276.626 228.221 280.178 227.527 284.995C226.384 292.956 238.734 287.567 243.531 290.976C244.98 278.157 257.758 280.076 273.945 282.505C274.476 282.587 275.17 282.791 275.66 283.036C279.007 284.648 281.089 287.853 284.213 289.752C288.152 292.14 293.051 291.364 297.032 293.63C300.073 295.365 302.257 298.447 305.156 300.346C306.87 302.183 307.115 305.387 309.871 306.408C314.647 307.592 319.506 308.429 324.2 309.878C327.364 310.858 329.508 313.716 332.814 314.43C333.835 314.655 334.835 313.899 335.856 314.41C337.285 315.145 335.774 316.696 335.999 317.839C336.162 318.451 336.774 319.023 336.917 319.778ZM184.478 172.707C182.049 173.38 179.681 174.075 177.456 174.809C179.701 174.075 182.069 173.38 184.478 172.707ZM257.983 304.183C254.921 304.53 252.022 304.877 249.164 305.244C252.267 304.857 255.166 304.51 257.983 304.183ZM313.28 345.518C312.872 341.579 312.525 337.843 312.178 334.087C312.749 340.517 313.137 344.171 313.259 345.273C313.259 345.355 313.259 345.436 313.28 345.518ZM310.259 310.899C310.238 310.695 310.218 310.49 310.218 310.286C310.218 310.49 310.238 310.695 310.259 310.899ZM257.432 274.075C256.574 274.667 257.676 275.789 258.738 275.953C259.493 276.075 261.902 275.749 262.004 275.504C262.065 275.381 261.881 275.075 260.085 274.524C258.126 273.891 257.84 273.973 257.432 274.075Z" fill="url(#paint2_radial)"/>
<path d="M293.38 68.5009L289.685 64.4592C292.665 59.4582 297.625 50.64 298.217 48.2722C298.809 45.9248 297.258 43.2712 294.768 40.046C290.767 34.8613 289.93 28.5946 292.543 23.2874C295.054 18.1639 300.157 15 305.872 15C314.057 15 320.732 21.6748 320.732 29.8602H314.996C314.996 24.8184 310.894 20.7155 305.852 20.7155C302.341 20.7155 299.197 22.6751 297.666 25.7982C296.013 29.1662 296.605 33.065 299.279 36.5351C302.32 40.4747 304.974 44.8021 303.749 49.6602C303.198 51.8648 300.749 56.5596 298.483 60.6013C302.177 59.6827 306.525 59.2132 309.995 60.6625C315.425 62.9283 321.038 61.8056 323.121 60.3563L326.407 65.0512C322.651 67.6844 314.854 68.8887 307.811 65.9493C303.81 64.2755 295.85 67.2965 293.38 68.5009Z" fill="url(#paint3_radial)"/>
<path d="M312.896 41.1465H290.054V46.8824H312.896V41.1465Z" fill="url(#paint4_radial)"/>
<path d="M457.126 450.507L452.186 445.098C456.166 438.423 462.78 426.645 463.576 423.502C464.372 420.358 462.311 416.827 458.963 412.499C453.615 405.58 452.513 397.21 456.003 390.107C459.351 383.269 466.189 379.043 473.803 379.043C484.744 379.043 493.644 387.943 493.644 398.884H485.989C485.989 392.148 480.518 386.678 473.782 386.678C469.087 386.678 464.903 389.29 462.841 393.475C460.637 397.966 461.412 403.191 464.985 407.825C469.047 413.091 472.578 418.868 470.965 425.339C470.231 428.278 466.965 434.545 463.944 439.954C468.863 438.729 474.701 438.096 479.314 440.015C486.56 443.036 494.052 441.546 496.828 439.607L501.217 445.874C496.195 449.385 485.785 450.997 476.375 447.078C471.047 444.873 460.433 448.915 457.126 450.507Z" fill="url(#paint5_radial)"/>
<path d="M483.192 414.011H452.676V421.665H483.192V414.011Z" fill="url(#paint6_radial)"/>
<path d="M103.606 274.34L101.851 272.421C103.259 270.053 105.606 265.869 105.892 264.746C106.178 263.623 105.443 262.378 104.259 260.847C102.361 258.398 101.973 255.418 103.218 252.907C104.402 250.478 106.831 248.988 109.526 248.988C113.404 248.988 116.568 252.152 116.568 256.03H113.853C113.853 253.642 111.914 251.703 109.526 251.703C107.872 251.703 106.382 252.621 105.647 254.111C104.872 255.703 105.137 257.561 106.403 259.194C107.852 261.072 109.097 263.113 108.525 265.42C108.26 266.461 107.097 268.686 106.035 270.605C107.791 270.176 109.852 269.951 111.485 270.625C114.057 271.686 116.711 271.176 117.711 270.482L119.262 272.707C117.486 273.952 113.792 274.524 110.444 273.136C108.546 272.319 104.79 273.768 103.606 274.34Z" fill="url(#paint7_radial)"/>
<path d="M112.853 261.379H102.034V264.094H112.853V261.379Z" fill="url(#paint8_radial)"/>
<path d="M234.899 463.807H227.53V499.182H234.899V463.807Z" fill="url(#paint9_radial)"/>
<path d="M246.82 430.84L231.164 456.09L215.181 430.84H205.322L205.261 430.881L227.653 466.235L234.777 466.215L256.72 430.84H256.7H246.82Z" fill="url(#paint10_radial)"/>
<path d="M252.7 460.173H208.813V467.542H252.7V460.173Z" fill="url(#paint11_radial)"/>
<path d="M252.7 474.176H208.813V481.545H252.7V474.176Z" fill="url(#paint12_radial)"/>
<path d="M521.984 331.429H516.514V357.741H521.984V331.429Z" fill="url(#paint13_radial)"/>
<path d="M530.864 306.896L519.209 325.675L507.329 306.896H500.001L499.96 306.916L516.596 333.227L521.903 333.207L538.213 306.896H530.864Z" fill="url(#paint14_radial)"/>
<path d="M535.232 328.716H502.592V334.186H535.232V328.716Z" fill="url(#paint15_radial)"/>
<path d="M535.232 339.126H502.592V344.597H535.232V339.126Z" fill="url(#paint16_radial)"/>
<path d="M387.01 464.156H380.152V497.081H387.01V464.156Z" fill="url(#paint17_radial)"/>
<path d="M398.115 433.474L383.541 456.969L368.68 433.474H359.495L359.434 433.495L380.275 466.42L386.888 466.399L407.321 433.474H407.301H398.115Z" fill="url(#paint18_radial)"/>
<path d="M403.582 460.766H362.737V467.625H403.582V460.766Z" fill="url(#paint19_radial)"/>
<path d="M403.582 473.79H362.737V480.649H403.582V473.79Z" fill="url(#paint20_radial)"/>
<path d="M105.706 358.579H89.1724V361.171H105.706V358.579Z" fill="url(#paint21_radial)"/>
<path d="M105.706 363.58H89.1724V366.172H105.706V363.58Z" fill="url(#paint22_radial)"/>
<path d="M104.541 376.135C101.275 376.135 98.2128 374.665 95.9267 371.971C93.6813 369.358 92.4565 365.888 92.4565 362.193C92.4565 358.498 93.6813 355.049 95.9267 352.416C98.2128 349.742 101.275 348.251 104.541 348.251C107.807 348.251 110.869 349.721 113.155 352.416L111.175 354.11C109.378 352.007 107.031 350.864 104.52 350.864C102.01 350.864 99.6621 352.007 97.8658 354.11C96.0287 356.253 95.0081 359.131 95.0081 362.193C95.0081 365.255 96.0287 368.133 97.8658 370.276C99.6621 372.358 102.01 373.522 104.52 373.522C107.031 373.522 109.378 372.379 111.175 370.276L113.155 371.971C110.869 374.665 107.807 376.135 104.541 376.135Z" fill="url(#paint23_radial)"/>
<path d="M98.2591 190.566H76.8057V193.934H98.2591V190.566Z" fill="url(#paint24_radial)"/>
<path d="M98.2596 197.037H76.8062V200.405H98.2596V197.037Z" fill="url(#paint25_radial)"/>
<path d="M96.7704 213.346C92.5246 213.346 88.5646 211.427 85.5844 207.957C82.6858 204.548 81.0732 200.058 81.0732 195.281C81.0732 190.505 82.6654 185.994 85.5844 182.605C88.5442 179.135 92.5246 177.216 96.7704 177.216C101.016 177.216 104.976 179.135 107.956 182.605L105.384 184.789C103.057 182.074 99.9955 180.584 96.7704 180.584C93.5248 180.584 90.4629 182.074 88.1563 184.789C85.7681 187.586 84.4617 191.301 84.4617 195.281C84.4617 199.262 85.7681 202.977 88.1563 205.773C90.4834 208.488 93.5452 209.978 96.7704 209.978C100.016 209.978 103.078 208.488 105.384 205.773L107.956 207.957C104.976 211.427 100.996 213.346 96.7704 213.346Z" fill="url(#paint26_radial)"/>
<path d="M441.613 71.7075H425.61V74.2183H441.613V71.7075Z" fill="url(#paint27_radial)"/>
<path d="M441.613 76.5259H425.609V79.0366H441.613V76.5259Z" fill="url(#paint28_radial)"/>
<path d="M440.491 88.6903C437.327 88.6903 434.367 87.2614 432.142 84.669C429.979 82.1379 428.774 78.7698 428.774 75.1977C428.774 71.6255 429.958 68.2779 432.142 65.7263C434.367 63.1339 437.327 61.7051 440.491 61.7051C443.655 61.7051 446.615 63.1339 448.84 65.7263L446.921 67.3593C445.186 65.3385 442.9 64.2158 440.491 64.2158C438.082 64.2158 435.796 65.3385 434.061 67.3593C432.285 69.4414 431.306 72.2175 431.306 75.1977C431.306 78.1575 432.285 80.954 434.061 83.036C435.796 85.0569 438.082 86.1795 440.491 86.1795C442.9 86.1795 445.186 85.0569 446.921 83.036L448.84 84.669C446.615 87.2614 443.655 88.6903 440.491 88.6903Z" fill="url(#paint29_radial)"/>
<path d="M80.3154 302.713H56.29V306.898H80.3154V302.713Z" fill="url(#paint30_radial)"/>
<path d="M72.5184 298.896H56.2905V294.711H72.5184C77.0091 294.711 80.6629 291.058 80.6629 286.567C80.6629 282.076 77.0091 278.422 72.5184 278.422H62.6388V274.238H72.5184C79.3157 274.238 84.827 279.77 84.827 286.546C84.827 293.323 79.2953 298.896 72.5184 298.896Z" fill="url(#paint31_radial)"/>
<path d="M64.7431 274.359H60.5586V317.225H64.7431V274.359Z" fill="url(#paint32_radial)"/>
<path d="M533.253 218.095H511.433V221.892H533.253V218.095Z" fill="url(#paint33_radial)"/>
<path d="M526.17 214.623H511.432V210.827H526.17C530.252 210.827 533.559 207.52 533.559 203.437C533.559 199.355 530.252 196.048 526.17 196.048H517.209V192.251H526.17C532.334 192.251 537.356 197.273 537.356 203.437C537.335 209.602 532.334 214.623 526.17 214.623Z" fill="url(#paint34_radial)"/>
<path d="M519.087 192.334H515.291V231.261H519.087V192.334Z" fill="url(#paint35_radial)"/>
<path d="M495.906 136.659H466.329V141.803H495.906V136.659Z" fill="url(#paint36_radial)"/>
<path d="M486.273 131.965H466.31V126.821H486.273C491.805 126.821 496.295 122.33 496.295 116.798C496.295 111.266 491.805 106.776 486.273 106.776H474.128V101.632H486.273C494.622 101.632 501.419 108.429 501.419 116.778C501.419 125.126 494.642 131.965 486.273 131.965Z" fill="url(#paint37_radial)"/>
<path d="M476.701 101.775H471.557V154.521H476.701V101.775Z" fill="url(#paint38_radial)"/>
<path d="M316.081 469.911H313.407V500.978H316.081V469.911Z" fill="url(#paint39_radial)"/>
<path d="M314.834 499.162C314.609 499.162 314.385 499.162 314.14 499.141C308.241 498.794 306.689 494.385 306.71 492.099H308.057H309.404C309.404 492.507 309.588 496.182 314.323 496.467C316.712 496.61 318.732 495.773 319.733 494.263C320.468 493.14 320.529 491.793 319.896 490.527C319.304 489.344 318.059 488.69 316.957 488.119L316.671 487.976C315.058 487.119 314.201 486.67 314.14 486.649C314.14 486.649 313.262 486.2 311.568 485.302L311.302 485.159C309.996 484.485 308.22 483.546 307.22 481.587C306.138 479.464 306.261 477.117 307.526 475.177C309.057 472.83 311.976 471.564 315.344 471.768C321.243 472.115 322.795 476.525 322.774 478.811H320.1C320.1 478.402 319.916 474.749 315.181 474.463C312.792 474.32 310.772 475.157 309.771 476.667C309.037 477.79 308.975 479.137 309.608 480.403C310.2 481.587 311.445 482.24 312.527 482.812L312.813 482.954C314.446 483.812 315.303 484.261 315.344 484.281C315.344 484.281 316.201 484.73 317.916 485.628L318.181 485.771C319.488 486.465 321.284 487.384 322.264 489.344C323.346 491.466 323.223 493.814 321.958 495.753C320.529 497.917 317.896 499.162 314.834 499.162Z" fill="url(#paint40_radial)"/>
<path d="M159.782 61.7461H151.78V154.52H159.782V61.7461Z" fill="url(#paint41_radial)"/>
<path d="M156.026 149.07C155.352 149.07 154.658 149.049 153.984 149.008C136.389 147.947 131.755 134.801 131.776 128.004H135.777L139.777 127.984C139.798 129.229 140.349 140.17 154.454 141.007C161.578 141.456 167.62 138.965 170.621 134.393C172.825 131.045 172.988 126.983 171.11 123.268C169.314 119.737 165.62 117.798 162.354 116.083L161.537 115.654C156.72 113.103 154.168 111.776 153.964 111.674C153.964 111.674 151.372 110.347 146.289 107.653L145.493 107.245C141.594 105.203 136.267 102.407 133.327 96.5893C130.102 90.241 130.449 83.26 134.266 77.4425C138.859 70.4614 147.555 66.6443 157.618 67.2363C175.213 68.2977 179.847 81.4433 179.827 88.2406L171.825 88.2202C171.805 87.0159 171.253 76.0748 157.148 75.2175C150.004 74.7888 143.982 77.2587 140.982 81.8311C138.777 85.1787 138.614 89.2408 140.492 92.9559C142.288 96.4872 145.983 98.4264 149.228 100.121L150.065 100.549C154.923 103.121 157.475 104.448 157.638 104.53C157.638 104.53 160.231 105.856 165.313 108.551L166.109 108.959C170.008 111 175.336 113.797 178.296 119.614C181.521 125.963 181.174 132.944 177.357 138.761C173.05 145.314 165.191 149.07 156.026 149.07Z" fill="url(#paint42_radial)"/>
<path d="M155.022 399.263H152.348V430.27H155.022V399.263Z" fill="url(#paint43_radial)"/>
<path d="M153.78 428.453C153.555 428.453 153.331 428.453 153.086 428.433C147.207 428.085 145.655 423.676 145.655 421.411H147.003H148.35C148.35 421.819 148.534 425.473 153.249 425.758C155.637 425.901 157.658 425.085 158.658 423.554C159.393 422.431 159.454 421.084 158.821 419.839C158.229 418.655 156.984 418.002 155.902 417.43L155.617 417.287C154.004 416.43 153.147 416.001 153.086 415.961C153.086 415.961 152.228 415.511 150.514 414.613L150.248 414.47C148.942 413.797 147.166 412.858 146.186 410.919C145.104 408.796 145.227 406.469 146.492 404.53C148.023 402.203 150.942 400.917 154.29 401.121C160.169 401.468 161.72 405.877 161.72 408.143H159.046C159.046 407.734 158.862 404.081 154.147 403.795C151.759 403.652 149.738 404.468 148.738 405.999C148.003 407.122 147.942 408.469 148.574 409.714C149.166 410.898 150.412 411.531 151.493 412.103L151.779 412.245C153.392 413.103 154.249 413.552 154.31 413.572C154.31 413.572 155.168 414.021 156.882 414.919L157.127 415.062C158.434 415.736 160.209 416.675 161.189 418.614C162.271 420.737 162.149 423.064 160.883 425.003C159.454 427.208 156.841 428.453 153.78 428.453Z" fill="url(#paint44_radial)"/>
<defs>
<radialGradient id="paint0_radial" cx="0" cy="0" r="1" gradientUnits="userSpaceOnUse" gradientTransform="translate(282.143 283.194) scale(240.139 232.385)">
<stop offset="0.2836" stop-color="white" stop-opacity="0.1"/>
<stop offset="0.6667" stop-color="#9D94FF" stop-opacity="0.32"/>
<stop offset="1" stop-color="white" stop-opacity="0"/>
</radialGradient>
<radialGradient id="paint1_radial" cx="0" cy="0" r="1" gradientUnits="userSpaceOnUse" gradientTransform="translate(310.146 251.033) scale(166.457)">
<stop offset="0.6915" stop-color="white"/>
<stop offset="0.739" stop-color="#FCFBFF"/>
<stop offset="0.7869" stop-color="#F4EFFF"/>
<stop offset="0.8352" stop-color="#E7DAFF"/>
<stop offset="0.8837" stop-color="#D5BEFF"/>
<stop offset="0.9323" stop-color="#BD99FF"/>
<stop offset="0.9804" stop-color="#A06DFF"/>
<stop offset="1" stop-color="#9359FF"/>
</radialGradient>
<radialGradient id="paint2_radial" cx="0" cy="0" r="1" gradientUnits="userSpaceOnUse" gradientTransform="translate(315.828 247.963) scale(156.921)">
<stop stop-color="#803EFF" stop-opacity="0.2"/>
<stop offset="0.272" stop-color="#742AEA" stop-opacity="0.336"/>
<stop offset="0.7391" stop-color="#620BCB" stop-opacity="0.5696"/>
<stop offset="1" stop-color="#5B00BF" stop-opacity="0.7"/>
</radialGradient>
<radialGradient id="paint3_radial" cx="0" cy="0" r="1" gradientUnits="userSpaceOnUse" gradientTransform="translate(367.978 -1526.83) scale(371.907 3227.02)">
<stop stop-color="#803EFF"/>
<stop offset="1" stop-color="#3721A7"/>
</radialGradient>
<radialGradient id="paint4_radial" cx="0" cy="0" r="1" gradientUnits="userSpaceOnUse" gradientTransform="translate(338.753 -124.155) scale(231.331 345.972)">
<stop stop-color="#803EFF"/>
<stop offset="1" stop-color="#3721A7"/>
</radialGradient>
<radialGradient id="paint5_radial" cx="0" cy="0" r="1" gradientUnits="userSpaceOnUse" gradientTransform="translate(556.722 -1680.46) scale(496.565 4310.49)">
<stop stop-color="#803EFF"/>
<stop offset="1" stop-color="#3721A7"/>
</radialGradient>
<radialGradient id="paint6_radial" cx="0" cy="0" r="1" gradientUnits="userSpaceOnUse" gradientTransform="translate(517.739 193.413) scale(309.061 461.706)">
<stop stop-color="#803EFF"/>
<stop offset="1" stop-color="#3721A7"/>
</radialGradient>
<radialGradient id="paint7_radial" cx="0" cy="0" r="1" gradientUnits="userSpaceOnUse" gradientTransform="translate(302.379 261.811) scale(444.475)">
<stop stop-color="#FF0054" stop-opacity="0.4482"/>
<stop offset="1" stop-color="#FF0054"/>
</radialGradient>
<radialGradient id="paint8_radial" cx="0" cy="0" r="1" gradientUnits="userSpaceOnUse" gradientTransform="translate(302.381 261.812) scale(444.479 444.479)">
<stop stop-color="#FF0054" stop-opacity="0.4482"/>
<stop offset="1" stop-color="#FF0054"/>
</radialGradient>
<radialGradient id="paint9_radial" cx="0" cy="0" r="1" gradientUnits="userSpaceOnUse" gradientTransform="translate(243.241 -555.649) scale(74.6294 2133.7)">
<stop stop-color="#803EFF"/>
<stop offset="1" stop-color="#3721A7"/>
</radialGradient>
<radialGradient id="paint10_radial" cx="0" cy="0" r="1" gradientUnits="userSpaceOnUse" gradientTransform="translate(314.975 -589.204) scale(521.166 2134.93)">
<stop stop-color="#803EFF"/>
<stop offset="1" stop-color="#3721A7"/>
</radialGradient>
<radialGradient id="paint11_radial" cx="0" cy="0" r="1" gradientUnits="userSpaceOnUse" gradientTransform="translate(302.382 247.811) scale(444.469)">
<stop stop-color="#803EFF"/>
<stop offset="1" stop-color="#3721A7"/>
</radialGradient>
<radialGradient id="paint12_radial" cx="0" cy="0" r="1" gradientUnits="userSpaceOnUse" gradientTransform="translate(302.382 261.814) scale(444.469)">
<stop stop-color="#803EFF"/>
<stop offset="1" stop-color="#3721A7"/>
</radialGradient>
<radialGradient id="paint13_radial" cx="0" cy="0" r="1" gradientUnits="userSpaceOnUse" gradientTransform="translate(309.861 220.962) scale(444.471 444.472)">
<stop stop-color="#FF0054" stop-opacity="0.4482"/>
<stop offset="1" stop-color="#FF0054"/>
</radialGradient>
<radialGradient id="paint14_radial" cx="0" cy="0" r="1" gradientUnits="userSpaceOnUse" gradientTransform="translate(309.857 220.963) scale(444.478)">
<stop stop-color="#FF0054" stop-opacity="0.4482"/>
<stop offset="1" stop-color="#FF0054"/>
</radialGradient>
<radialGradient id="paint15_radial" cx="0" cy="0" r="1" gradientUnits="userSpaceOnUse" gradientTransform="translate(309.857 220.961) scale(444.478 444.477)">
<stop stop-color="#FF0054" stop-opacity="0.4482"/>
<stop offset="1" stop-color="#FF0054"/>
</radialGradient>
<radialGradient id="paint16_radial" cx="0" cy="0" r="1" gradientUnits="userSpaceOnUse" gradientTransform="translate(309.857 220.965) scale(444.476 444.477)">
<stop stop-color="#FF0054" stop-opacity="0.4482"/>
<stop offset="1" stop-color="#FF0054"/>
</radialGradient>
<radialGradient id="paint17_radial" cx="0" cy="0" r="1" gradientUnits="userSpaceOnUse" gradientTransform="translate(302.38 261.813) scale(444.475 444.474)">
<stop stop-color="#FF0054" stop-opacity="0.4482"/>
<stop offset="1" stop-color="#FF0054"/>
</radialGradient>
<radialGradient id="paint18_radial" cx="0" cy="0" r="1" gradientUnits="userSpaceOnUse" gradientTransform="translate(302.379 261.81) scale(444.477 444.477)">
<stop stop-color="#FF0054" stop-opacity="0.4482"/>
<stop offset="1" stop-color="#FF0054"/>
</radialGradient>
<radialGradient id="paint19_radial" cx="0" cy="0" r="1" gradientUnits="userSpaceOnUse" gradientTransform="translate(302.376 261.814) scale(444.471 444.472)">
<stop stop-color="#FF0054" stop-opacity="0.4482"/>
<stop offset="1" stop-color="#FF0054"/>
</radialGradient>
<radialGradient id="paint20_radial" cx="0" cy="0" r="1" gradientUnits="userSpaceOnUse" gradientTransform="translate(302.376 261.809) scale(444.482 444.482)">
<stop stop-color="#FF0054" stop-opacity="0.4482"/>
<stop offset="1" stop-color="#FF0054"/>
</radialGradient>
<radialGradient id="paint21_radial" cx="0" cy="0" r="1" gradientUnits="userSpaceOnUse" gradientTransform="translate(124.424 283.87) scale(167.451 156.365)">
<stop stop-color="#803EFF"/>
<stop offset="1" stop-color="#3721A7"/>
</radialGradient>
<radialGradient id="paint22_radial" cx="0" cy="0" r="1" gradientUnits="userSpaceOnUse" gradientTransform="translate(124.424 288.87) scale(167.451 156.365)">
<stop stop-color="#803EFF"/>
<stop offset="1" stop-color="#3721A7"/>
</radialGradient>
<radialGradient id="paint23_radial" cx="0" cy="0" r="1" gradientUnits="userSpaceOnUse" gradientTransform="translate(136.586 -455.312) scale(209.624 1681.84)">
<stop stop-color="#803EFF"/>
<stop offset="1" stop-color="#3721A7"/>
</radialGradient>
<radialGradient id="paint24_radial" cx="0" cy="0" r="1" gradientUnits="userSpaceOnUse" gradientTransform="translate(122.545 93.5033) scale(217.273 203.151)">
<stop stop-color="#803EFF"/>
<stop offset="1" stop-color="#3721A7"/>
</radialGradient>
<radialGradient id="paint25_radial" cx="0" cy="0" r="1" gradientUnits="userSpaceOnUse" gradientTransform="translate(122.546 99.9745) scale(217.273 203.15)">
<stop stop-color="#803EFF"/>
<stop offset="1" stop-color="#3721A7"/>
</radialGradient>
<radialGradient id="paint26_radial" cx="0" cy="0" r="1" gradientUnits="userSpaceOnUse" gradientTransform="translate(138.389 -864.005) scale(272.263 2179.25)">
<stop stop-color="#803EFF"/>
<stop offset="1" stop-color="#3721A7"/>
</radialGradient>
<radialGradient id="paint27_radial" cx="0" cy="0" r="1" gradientUnits="userSpaceOnUse" gradientTransform="translate(295.726 224.546) scale(444.369 444.37)">
<stop stop-color="#FF0054" stop-opacity="0.4482"/>
<stop offset="1" stop-color="#FF0054"/>
</radialGradient>
<radialGradient id="paint28_radial" cx="0" cy="0" r="1" gradientUnits="userSpaceOnUse" gradientTransform="translate(295.725 224.547) scale(444.481 444.481)">
<stop stop-color="#FF0054" stop-opacity="0.4482"/>
<stop offset="1" stop-color="#FF0054"/>
</radialGradient>
<radialGradient id="paint29_radial" cx="0" cy="0" r="1" gradientUnits="userSpaceOnUse" gradientTransform="translate(295.727 224.543) scale(444.476)">
<stop stop-color="#FF0054" stop-opacity="0.4482"/>
<stop offset="1" stop-color="#FF0054"/>
</radialGradient>
<radialGradient id="paint30_radial" cx="0" cy="0" r="1" gradientUnits="userSpaceOnUse" gradientTransform="translate(302.381 261.81) scale(444.479 444.476)">
<stop stop-color="#FF0054" stop-opacity="0.4482"/>
<stop offset="1" stop-color="#FF0054"/>
</radialGradient>
<radialGradient id="paint31_radial" cx="0" cy="0" r="1" gradientUnits="userSpaceOnUse" gradientTransform="translate(302.379 261.811) scale(444.475 444.475)">
<stop stop-color="#FF0054" stop-opacity="0.4482"/>
<stop offset="1" stop-color="#FF0054"/>
</radialGradient>
<radialGradient id="paint32_radial" cx="0" cy="0" r="1" gradientUnits="userSpaceOnUse" gradientTransform="translate(302.378 261.81) scale(444.467)">
<stop stop-color="#FF0054" stop-opacity="0.4482"/>
<stop offset="1" stop-color="#FF0054"/>
</radialGradient>
<radialGradient id="paint33_radial" cx="0" cy="0" r="1" gradientUnits="userSpaceOnUse" gradientTransform="translate(306.115 227.277) scale(444.473)">
<stop stop-color="#FF0054" stop-opacity="0.4482"/>
<stop offset="1" stop-color="#FF0054"/>
</radialGradient>
<radialGradient id="paint34_radial" cx="0" cy="0" r="1" gradientUnits="userSpaceOnUse" gradientTransform="translate(306.113 227.276) scale(444.477 444.477)">
<stop stop-color="#FF0054" stop-opacity="0.4482"/>
<stop offset="1" stop-color="#FF0054"/>
</radialGradient>
<radialGradient id="paint35_radial" cx="0" cy="0" r="1" gradientUnits="userSpaceOnUse" gradientTransform="translate(306.12 227.277) scale(444.462 444.462)">
<stop stop-color="#FF0054" stop-opacity="0.4482"/>
<stop offset="1" stop-color="#FF0054"/>
</radialGradient>
<radialGradient id="paint36_radial" cx="0" cy="0" r="1" gradientUnits="userSpaceOnUse" gradientTransform="translate(529.389 -11.5828) scale(299.551 310.267)">
<stop stop-color="#803EFF"/>
<stop offset="1" stop-color="#3721A7"/>
</radialGradient>
<radialGradient id="paint37_radial" cx="0" cy="0" r="1" gradientUnits="userSpaceOnUse" gradientTransform="translate(541.164 -772.524) scale(355.575 1829.59)">
<stop stop-color="#803EFF"/>
<stop offset="1" stop-color="#3721A7"/>
</radialGradient>
<radialGradient id="paint38_radial" cx="0" cy="0" r="1" gradientUnits="userSpaceOnUse" gradientTransform="translate(482.524 -1418.29) scale(52.0957 3181.46)">
<stop stop-color="#803EFF"/>
<stop offset="1" stop-color="#3721A7"/>
</radialGradient>
<radialGradient id="paint39_radial" cx="0" cy="0" r="1" gradientUnits="userSpaceOnUse" gradientTransform="translate(302.383 261.811) scale(444.475 444.476)">
<stop stop-color="#FF0054" stop-opacity="0.4482"/>
<stop offset="1" stop-color="#FF0054"/>
</radialGradient>
<radialGradient id="paint40_radial" cx="0" cy="0" r="1" gradientUnits="userSpaceOnUse" gradientTransform="translate(302.38 261.811) scale(444.477 444.477)">
<stop stop-color="#FF0054" stop-opacity="0.4482"/>
<stop offset="1" stop-color="#FF0054"/>
</radialGradient>
<radialGradient id="paint41_radial" cx="0" cy="0" r="1" gradientUnits="userSpaceOnUse" gradientTransform="translate(168.84 -2611.9) scale(81.0381 5595.88)">
<stop stop-color="#803EFF"/>
<stop offset="1" stop-color="#3721A7"/>
</radialGradient>
<radialGradient id="paint42_radial" cx="0" cy="0" r="1" gradientUnits="userSpaceOnUse" gradientTransform="translate(236.362 -2292.89) scale(499.853 4939.56)">
<stop stop-color="#803EFF"/>
<stop offset="1" stop-color="#3721A7"/>
</radialGradient>
<radialGradient id="paint43_radial" cx="0" cy="0" r="1" gradientUnits="userSpaceOnUse" gradientTransform="translate(302.385 261.811) scale(444.486 444.487)">
<stop stop-color="#FF0054" stop-opacity="0.4482"/>
<stop offset="1" stop-color="#FF0054"/>
</radialGradient>
<radialGradient id="paint44_radial" cx="0" cy="0" r="1" gradientUnits="userSpaceOnUse" gradientTransform="translate(302.38 261.811) scale(444.475)">
<stop stop-color="#FF0054" stop-opacity="0.4482"/>
<stop offset="1" stop-color="#FF0054"/>
</radialGradient>
</defs>
</svg>
