<?xml version="1.0" encoding="utf-8"?>
<!-- Generator: Adobe Illustrator 25.2.3, SVG Export Plug-In . SVG Version: 6.00 Build 0)  -->
<svg version="1.1" id="Layer_1" xmlns="http://www.w3.org/2000/svg" xmlns:xlink="http://www.w3.org/1999/xlink" x="0px" y="0px"
	 viewBox="0 0 322 388" style="enable-background:new 0 0 322 388;" xml:space="preserve">
<style type="text/css">
	.st0{opacity:0.19;fill:none;stroke:url(#SVGID_1_);stroke-miterlimit:10;enable-background:new    ;}
	.st1{fill:url(#SVGID_2_);}
	.st2{fill:#6EE8FC;}
	.st3{opacity:0.33;fill:#08080C;fill-opacity:0.3;enable-background:new    ;}
	.st4{fill:#312A91;}
	.st5{fill:url(#SVGID_3_);}
	.st6{fill:url(#SVGID_4_);}
	.st7{fill:url(#SVGID_5_);}
	.st8{fill:#5CFFF3;}
	.st9{fill:#42E8E0;}
	.st10{fill:url(#SVGID_6_);}
	.st11{opacity:0.15;fill:url(#SVGID_7_);enable-background:new    ;}
	.st12{fill:#FCCC6B;}
	.st13{fill:#511FF3;}
	.st14{fill:url(#SVGID_8_);}
	.st15{fill:#926DDB;}
	.st16{fill:url(#SVGID_9_);}
	.st17{fill:url(#SVGID_10_);}
	.st18{fill:url(#SVGID_11_);}
	.st19{fill:url(#SVGID_12_);}
	.st20{fill:url(#SVGID_13_);}
	.st21{fill:url(#SVGID_14_);}
	.st22{opacity:0.42;fill:url(#SVGID_15_);enable-background:new    ;}
	.st23{opacity:0.42;fill:url(#SVGID_16_);enable-background:new    ;}
	.st24{fill:url(#SVGID_17_);}
	.st25{fill:url(#SVGID_18_);}
	.st26{fill:url(#SVGID_19_);}
	.st27{fill:url(#SVGID_20_);}
	.st28{fill:url(#SVGID_21_);}
	.st29{fill:url(#SVGID_22_);}
	.st30{fill:url(#SVGID_23_);}
	.st31{opacity:0.42;fill:url(#SVGID_24_);enable-background:new    ;}
	.st32{opacity:0.42;fill:url(#SVGID_25_);enable-background:new    ;}
</style>
<g>
	
		<linearGradient id="SVGID_1_" gradientUnits="userSpaceOnUse" x1="143.989" y1="-107.0352" x2="467.9878" y2="-107.0352" gradientTransform="matrix(1 0 0 -1 -145 188)">
		<stop  offset="0" style="stop-color:#E5024E"/>
		<stop  offset="0.4942" style="stop-color:#AF017F"/>
		<stop  offset="1" style="stop-color:#7C01AE"/>
	</linearGradient>
	<path class="st0" d="M160.2,387.9c-4.6,0-9-0.9-12.2-2.8L5.1,302.7c-3.2-1.8-5-4.4-5-7.2c0-3.4,2.5-6.8,7-9.3l138.9-80.1
		c8.3-4.8,20.9-5.3,28.1-1.2l142.9,82.4c3.2,1.8,5,4.4,5,7.2c0,3.4-2.5,6.8-7,9.3L176,384C171.5,386.6,165.7,387.9,160.2,387.9z
		 M161.8,202.7c-5.4,0-11.2,1.3-15.6,3.9L7.3,286.7c-4.2,2.4-6.7,5.7-6.7,8.9c0,2.6,1.7,5,4.7,6.8l142.9,82.4
		c7.1,4.1,19.4,3.6,27.6-1.2l138.9-80.1c4.2-2.4,6.7-5.7,6.7-8.9c0-2.6-1.7-5-4.7-6.8l-142.9-82.4
		C170.6,203.6,166.3,202.7,161.8,202.7z"/>
	
		<radialGradient id="SVGID_2_" cx="14.2608" cy="370.3349" r="1.0005" gradientTransform="matrix(10.783 0 0 -10.7719 -28.15 4207.3003)" gradientUnits="userSpaceOnUse">
		<stop  offset="0" style="stop-color:#42E8E0"/>
		<stop  offset="2.250000e-02" style="stop-color:#3FD8D7"/>
		<stop  offset="9.830000e-02" style="stop-color:#36A9BA"/>
		<stop  offset="0.1786" style="stop-color:#2E7FA0"/>
		<stop  offset="0.2622" style="stop-color:#275C8B"/>
		<stop  offset="0.35" style="stop-color:#223F79"/>
		<stop  offset="0.4433" style="stop-color:#1D296C"/>
		<stop  offset="0.5449" style="stop-color:#1A1962"/>
		<stop  offset="0.6608" style="stop-color:#19105D"/>
		<stop  offset="0.8226" style="stop-color:#180D5B"/>
	</radialGradient>
	<path class="st1" d="M125.6,228.9c6,0,10.8-4.8,10.8-10.8s-4.8-10.8-10.8-10.8c-6,0-10.8,4.8-10.8,10.8S119.7,228.9,125.6,228.9z"
		/>
	<path class="st2" d="M128.7,218.1c0,1.7-1.4,3.1-3.1,3.1c-1.7,0-3.1-1.4-3.1-3.1c0-1.7,1.4-3.1,3.1-3.1
		C127.3,215,128.7,216.4,128.7,218.1z"/>
	<path class="st3" d="M147.4,361.4L45.5,302.7c-7.7-4.5-6.8-12.3,2.2-17.4l97.5-56.2c8.9-5.2,22.4-5.7,30.2-1.2l101.8,58.7
		c7.7,4.5,6.8,12.3-2.2,17.4l-97.5,56.2C168.6,365.3,155.1,365.9,147.4,361.4z"/>
	<path class="st4" d="M295.4,234.5v-21h-54.3l-64.2-37c-8.6-4.9-23.5-4.3-33.4,1.4l-61.8,35.7H27.3v22.2h0c-0.2,3.4,1.6,6.6,5.7,9
		l112.8,65c8.6,4.9,23.5,4.3,33.4-1.4l108-62.3C293,242.8,295.7,238.5,295.4,234.5z"/>
	
		<linearGradient id="SVGID_3_" gradientUnits="userSpaceOnUse" x1="206.1991" y1="16.1288" x2="334.6688" y2="-56.1842" gradientTransform="matrix(1 0 0 -1 -145 188)">
		<stop  offset="0" style="stop-color:#111119"/>
		<stop  offset="0.2237" style="stop-color:#191426"/>
		<stop  offset="0.6351" style="stop-color:#2F1E48"/>
		<stop  offset="1" style="stop-color:#46276B"/>
	</linearGradient>
	<path class="st5" d="M295.4,234.5v-21h-54.3l-64.2-37c-8.6-4.9-23.5-4.3-33.4,1.4l-61.8,35.7H27.3v22.2h0c-0.2,3.4,1.6,6.6,5.7,9
		l112.8,65c8.6,4.9,23.5,4.3,33.4-1.4l108-62.3C293,242.8,295.7,238.5,295.4,234.5z"/>
	
		<linearGradient id="SVGID_4_" gradientUnits="userSpaceOnUse" x1="419.5487" y1="5.9664" x2="282.4587" y2="-71.2776" gradientTransform="matrix(1 0 0 -1 -145 188)">
		<stop  offset="0" style="stop-color:#111119"/>
		<stop  offset="0.2237" style="stop-color:#191426"/>
		<stop  offset="0.6351" style="stop-color:#2F1E48"/>
		<stop  offset="1" style="stop-color:#46276B"/>
	</linearGradient>
	<path class="st6" d="M176.9,176.5c-4.1-2.4-9.7-3.4-15.5-3.3V313c6.3-0.2,12.8-1.7,17.9-4.7l108-62.3c5.7-3.3,8.5-7.6,8.1-11.5v-21
		h-54.3L176.9,176.5z"/>
	<path class="st4" d="M145.9,287.5l-112.8-65c-8.6-4.9-7.5-13.6,2.4-19.3l108-62.3c9.9-5.7,24.9-6.3,33.4-1.4l112.8,65
		c8.6,4.9,7.5,13.6-2.4,19.3l-108,62.3C169.4,291.8,154.4,292.4,145.9,287.5z"/>
	
		<linearGradient id="SVGID_5_" gradientUnits="userSpaceOnUse" x1="172.3043" y1="-25.49" x2="440.4504" y2="-25.49" gradientTransform="matrix(1 0 0 -1 -145 188)">
		<stop  offset="0" style="stop-color:#2D2E43"/>
		<stop  offset="0.1461" style="stop-color:#312F4C"/>
		<stop  offset="0.3803" style="stop-color:#3B3163"/>
		<stop  offset="0.6733" style="stop-color:#4C3489"/>
		<stop  offset="1" style="stop-color:#6238BC"/>
	</linearGradient>
	<path class="st7" d="M145.9,287.5l-112.8-65c-8.6-4.9-7.5-13.6,2.4-19.3l108-62.3c9.9-5.7,24.9-6.3,33.4-1.4l112.8,65
		c8.6,4.9,7.5,13.6-2.4,19.3l-108,62.3C169.4,291.8,154.4,292.4,145.9,287.5z"/>
	<path class="st8" d="M148.9,273.1L58,220.7c-6.9-4-6-10.9,1.9-15.5l87-50.2c8-4.6,20-5.1,26.9-1.1l90.9,52.4c6.9,4,6,10.9-1.9,15.5
		l-87,50.2C167.9,276.6,155.8,277.1,148.9,273.1z"/>
	<path class="st9" d="M60,212l87-50.2c8-4.6,20-5.1,26.9-1.1l90.9,52.4c1.7,1,2.9,2.2,3.7,3.4c2-3.7,0.8-7.6-3.7-10.2l-90.9-52.4
		c-6.9-4-19-3.5-26.9,1.1l-87,50.2c-6,3.5-8,8.3-5.6,12.1C55.4,215.4,57.2,213.5,60,212z"/>
	
		<linearGradient id="SVGID_6_" gradientUnits="userSpaceOnUse" x1="172.3043" y1="-25.4938" x2="309.1688" y2="-25.4938" gradientTransform="matrix(1 0 0 -1 -145 188)">
		<stop  offset="0" style="stop-color:#3A2C65"/>
		<stop  offset="0.4505" style="stop-color:#482F84"/>
		<stop  offset="1" style="stop-color:#5B34AE"/>
	</linearGradient>
	<path class="st10" d="M149.7,287.5l-112.8-65c-8.6-4.9-10.6-12.2,2.4-19.3l108-62.3c4.9-2.8,11-4.4,16.9-4.7
		c-7.1-0.3-14.8,1.3-20.7,4.7l-108,62.3c-9.9,5.7-11,14.3-2.4,19.3l112.8,65c4.4,2.5,10.4,3.6,16.5,3.3
		C157.6,290.6,153.1,289.5,149.7,287.5z"/>
	
		<linearGradient id="SVGID_7_" gradientUnits="userSpaceOnUse" x1="172.3043" y1="-75.255" x2="440.4329" y2="-75.255" gradientTransform="matrix(1 0 0 -1 -145 188)">
		<stop  offset="0" style="stop-color:#FF0054;stop-opacity:0.2"/>
		<stop  offset="0.5" style="stop-color:#FF0054;stop-opacity:0.9"/>
		<stop  offset="1" style="stop-color:#FF0054;stop-opacity:0.3"/>
	</linearGradient>
	<path class="st11" d="M287.3,233.2l-108,62.3c-9.9,5.7-24.9,6.3-33.4,1.4l-112.8-65c-4.1-2.4-6-5.6-5.7-9h0v4.6h0
		c-0.2,3.4,1.6,6.6,5.7,9l112.8,65c8.6,4.9,23.5,4.3,33.4-1.4l108-62.3c5.7-3.3,8.5-7.6,8.1-11.5v-4.6
		C295.7,225.7,293,229.9,287.3,233.2z"/>
	<path class="st12" d="M267.7,227.1c1.2,0.7,1.2,1.9,0,2.6c-1.2,0.7-3.2,0.7-4.4,0c-1.2-0.7-1.2-1.9,0-2.6
		C264.5,226.4,266.5,226.4,267.7,227.1z"/>
	<path class="st12" d="M274.6,223.1c1.2,0.7,1.2,1.9,0,2.6c-1.2,0.7-3.2,0.7-4.4,0c-1.2-0.7-1.2-1.9,0-2.6
		C271.4,222.4,273.4,222.4,274.6,223.1z"/>
	<path class="st12" d="M281.6,219.1c1.2,0.7,1.2,1.9,0,2.6c-1.2,0.7-3.2,0.7-4.4,0c-1.2-0.7-1.2-1.9,0-2.6
		C278.3,218.4,280.3,218.4,281.6,219.1z"/>
	<path class="st13" d="M151.6,260.4l-71.3-41.1c-5.4-3.1-4.7-8.6,1.5-12.2l68.2-39.4c6.2-3.6,15.7-4,21.1-0.9l71.3,41.1
		c5.4,3.1,4.7,8.6-1.5,12.2l-68.2,39.4C166.5,263.2,157,263.6,151.6,260.4z"/>
	
		<linearGradient id="SVGID_8_" gradientUnits="userSpaceOnUse" x1="350.2311" y1="46.0706" x2="350.5442" y2="65.4706" gradientTransform="matrix(1 0 0 -1 -145 188)">
		<stop  offset="0" style="stop-color:#7F3DFF;stop-opacity:0.6"/>
		<stop  offset="1" style="stop-color:#3922AA"/>
	</linearGradient>
	<path class="st14" d="M209,136.5l-0.6-0.3l-6-3.5l-0.2-0.1l-0.1-28.6l6.8,3.9L209,136.5z"/>
	<path class="st15" d="M208.9,107.9l-6.8-3.9l7.7-4.5l6.8,3.9L208.9,107.9z"/>
	
		<linearGradient id="SVGID_9_" gradientUnits="userSpaceOnUse" x1="358.3374" y1="53.9475" x2="357.2444" y2="85.0815" gradientTransform="matrix(1 0 0 -1 -145 188)">
		<stop  offset="0" style="stop-color:#7F3DFF;stop-opacity:0.6"/>
		<stop  offset="1" style="stop-color:#3922AA"/>
	</linearGradient>
	<path class="st16" d="M216.8,132.2l-7.7,4.4l-0.1-28.6l7.7-4.5L216.8,132.2z"/>
	
		<linearGradient id="SVGID_10_" gradientUnits="userSpaceOnUse" x1="335.9547" y1="150.9283" x2="331.2657" y2="55.1795" gradientTransform="matrix(1 0 0 -1 -145 188)">
		<stop  offset="0" style="stop-color:#7F3DFF;stop-opacity:0.6"/>
		<stop  offset="1" style="stop-color:#3922AA"/>
	</linearGradient>
	<path class="st17" d="M199.5,125.4l-21.1-12.2l-0.2-78.7l21.1,12.2L199.5,125.4z"/>
	<path class="st15" d="M199.3,46.7l-21.1-12.2l30.3-17.4l21,12.2L199.3,46.7z"/>
	
		<linearGradient id="SVGID_11_" gradientUnits="userSpaceOnUse" x1="355.95" y1="201.8313" x2="360.952" y2="73.8538" gradientTransform="matrix(1 0 0 -1 -145 188)">
		<stop  offset="0" style="stop-color:#D6BFFF"/>
		<stop  offset="1" style="stop-color:#8E52FF"/>
	</linearGradient>
	<path class="st18" d="M229.5,29.3l0.2,78.7l-30.3,17.4l-0.2-78.7L229.5,29.3z"/>
	
		<linearGradient id="SVGID_12_" gradientUnits="userSpaceOnUse" x1="347.4862" y1="211.5828" x2="343.4232" y2="154.008" gradientTransform="matrix(1 0 0 -1 -145 188)">
		<stop  offset="0" style="stop-color:#7F3DFF;stop-opacity:0.6"/>
		<stop  offset="1" style="stop-color:#3922AA"/>
	</linearGradient>
	<path class="st19" d="M202.8,37.1l-0.6-0.4l-6-3.4l-0.2-0.1l-0.1-28.6l6.8,3.9L202.8,37.1z"/>
	
		<linearGradient id="SVGID_13_" gradientUnits="userSpaceOnUse" x1="347.0932" y1="166.6261" x2="348.5782" y2="190.2504" gradientTransform="matrix(1 0 0 -1 -145 188)">
		<stop  offset="0" style="stop-color:#D6BFFF"/>
		<stop  offset="1" style="stop-color:#8E52FF"/>
	</linearGradient>
	<path class="st20" d="M202.7,8.4l-6.8-3.9l7.7-4.5l6.8,3.9L202.7,8.4z"/>
	
		<linearGradient id="SVGID_14_" gradientUnits="userSpaceOnUse" x1="348.8853" y1="208.5254" x2="352.9483" y2="147.196" gradientTransform="matrix(1 0 0 -1 -145 188)">
		<stop  offset="0" style="stop-color:#D6BFFF"/>
		<stop  offset="1" style="stop-color:#8E52FF"/>
	</linearGradient>
	<path class="st21" d="M210.5,32.7l-7.7,4.4l-0.1-28.6l7.7-4.5L210.5,32.7z"/>
	
		<linearGradient id="SVGID_15_" gradientUnits="userSpaceOnUse" x1="323.7258" y1="110.6499" x2="395.0768" y2="110.6499" gradientTransform="matrix(1 0 0 -1 -145 188)">
		<stop  offset="0" style="stop-color:#FFFFFF"/>
		<stop  offset="1" style="stop-color:#B28AFF"/>
	</linearGradient>
	<path class="st22" d="M229.5,29.3l-30.3,17.4l0.2,78.7l1.8-72.9c0.1-2.6,1.4-5,3.5-6.5L229.5,29.3z"/>
	
		<linearGradient id="SVGID_16_" gradientUnits="userSpaceOnUse" x1="342.4208" y1="167.4681" x2="360.6778" y2="167.4681" gradientTransform="matrix(1 0 0 -1 -145 188)">
		<stop  offset="0" style="stop-color:#FFFFFF"/>
		<stop  offset="1" style="stop-color:#B28AFF"/>
	</linearGradient>
	<path class="st23" d="M210.4,4l-7.7,4.5l0.1,28.6l1.1-27.5L210.4,4z"/>
	
		<linearGradient id="SVGID_17_" gradientUnits="userSpaceOnUse" x1="303.1407" y1="-45.3616" x2="303.3967" y2="-29.4766" gradientTransform="matrix(1 0 0 -1 -145 188)">
		<stop  offset="0" style="stop-color:#FF3DFE;stop-opacity:0.6"/>
		<stop  offset="1" style="stop-color:#8322AA"/>
	</linearGradient>
	<path class="st24" d="M161.2,228.9l-0.5-0.3l-4.9-2.8l-0.2-0.1l-0.1-23.4l5.5,3.2L161.2,228.9z"/>
	<path class="st15" d="M161.2,205.5l-5.5-3.2l6.3-3.6l5.5,3.2L161.2,205.5z"/>
	
		<linearGradient id="SVGID_18_" gradientUnits="userSpaceOnUse" x1="309.7708" y1="-38.9114" x2="308.8759" y2="-13.4194" gradientTransform="matrix(1 0 0 -1 -145 188)">
		<stop  offset="0" style="stop-color:#FF3DFE"/>
		<stop  offset="1" style="stop-color:#8322AA"/>
	</linearGradient>
	<path class="st25" d="M167.6,225.4l-6.3,3.6l-0.1-23.4l6.3-3.7L167.6,225.4z"/>
	
		<linearGradient id="SVGID_19_" gradientUnits="userSpaceOnUse" x1="291.4315" y1="40.4938" x2="287.5925" y2="-37.9032" gradientTransform="matrix(1 0 0 -1 -145 188)">
		<stop  offset="0" style="stop-color:#FF3DFE;stop-opacity:0.6"/>
		<stop  offset="1" style="stop-color:#8322AA"/>
	</linearGradient>
	<path class="st26" d="M153.4,219.9l-17.2-10l-0.2-64.4l17.3,10L153.4,219.9z"/>
	<path class="st15" d="M153.3,155.4l-17.3-10l24.8-14.3l17.2,10L153.3,155.4z"/>
	
		<linearGradient id="SVGID_20_" gradientUnits="userSpaceOnUse" x1="307.8145" y1="82.173" x2="311.9095" y2="-22.613" gradientTransform="matrix(1 0 0 -1 -145 188)">
		<stop  offset="0" style="stop-color:#FFBFFC"/>
		<stop  offset="1" style="stop-color:#FF52FC"/>
	</linearGradient>
	<path class="st27" d="M178,141.1l0.2,64.4l-24.8,14.3l-0.2-64.5L178,141.1z"/>
	
		<linearGradient id="SVGID_21_" gradientUnits="userSpaceOnUse" x1="300.8738" y1="90.1572" x2="297.5468" y2="43.0159" gradientTransform="matrix(1 0 0 -1 -145 188)">
		<stop  offset="0" style="stop-color:#FF3DFE;stop-opacity:0.6"/>
		<stop  offset="1" style="stop-color:#8322AA"/>
	</linearGradient>
	<path class="st28" d="M156.1,147.5l-0.5-0.3l-4.9-2.8l-0.2-0.1l-0.1-23.4l5.5,3.2L156.1,147.5z"/>
	
		<linearGradient id="SVGID_22_" gradientUnits="userSpaceOnUse" x1="300.5532" y1="53.3477" x2="301.7692" y2="72.6907" gradientTransform="matrix(1 0 0 -1 -145 188)">
		<stop  offset="0" style="stop-color:#D6BFFF"/>
		<stop  offset="1" style="stop-color:#FFACFC"/>
	</linearGradient>
	<path class="st29" d="M156.1,124.1l-5.6-3.2l6.3-3.6l5.5,3.2L156.1,124.1z"/>
	
		<linearGradient id="SVGID_23_" gradientUnits="userSpaceOnUse" x1="302.0224" y1="87.6539" x2="305.3494" y2="37.4379" gradientTransform="matrix(1 0 0 -1 -145 188)">
		<stop  offset="0" style="stop-color:#FFBFFC"/>
		<stop  offset="1" style="stop-color:#FF52FC"/>
	</linearGradient>
	<path class="st30" d="M162.5,143.9l-6.3,3.6l-0.1-23.4l6.3-3.7L162.5,143.9z"/>
	
		<linearGradient id="SVGID_24_" gradientUnits="userSpaceOnUse" x1="281.4198" y1="7.5195" x2="339.8648" y2="7.5195" gradientTransform="matrix(1 0 0 -1 -145 188)">
		<stop  offset="0" style="stop-color:#FFFFFF"/>
		<stop  offset="1" style="stop-color:#B28AFF"/>
	</linearGradient>
	<path class="st31" d="M178,141.1l-24.8,14.3l0.2,64.4l1.5-59.7c0-2.1,1.1-4.1,2.9-5.3L178,141.1z"/>
	
		<linearGradient id="SVGID_25_" gradientUnits="userSpaceOnUse" x1="296.7278" y1="54.05" x2="311.6808" y2="54.05" gradientTransform="matrix(1 0 0 -1 -145 188)">
		<stop  offset="0" style="stop-color:#FFFFFF"/>
		<stop  offset="1" style="stop-color:#B28AFF"/>
	</linearGradient>
	<path class="st32" d="M162.4,120.4l-6.3,3.7l0.1,23.4L157,125L162.4,120.4z"/>
</g>
</svg>
