<svg width="45" height="45" viewBox="0 0 45 45" fill="none" xmlns="http://www.w3.org/2000/svg">
<path d="M38.8086 4.84768C38.7391 4.17024 38.0442 3.81369 37.4535 4.09893L27.7939 9.26888C27.0989 9.62543 27.1337 10.6238 27.8286 10.9803L30.2609 12.1926C30.7126 12.4065 30.9211 12.977 30.7126 13.4405L26.0913 24.2796C25.8828 24.7787 25.3269 24.9927 24.8752 24.7787L19.7674 22.5325C19.3157 22.3185 18.7597 22.5325 18.5512 22.996L14.5554 31.9097C14.3469 32.3732 14.5206 32.908 14.9723 33.1576L17.7868 34.6551C18.2733 34.9047 18.864 34.6908 19.0724 34.1916L21.0878 29.4495C21.2962 28.986 21.8174 28.7721 22.2691 28.9503L27.3074 30.9114C27.7591 31.0896 28.2803 30.8757 28.4888 30.4122L31.4075 23.9943C31.5465 24.7431 31.6508 25.5631 31.6508 26.3475C31.6508 32.8724 26.543 38.1136 20.2191 38.1136C13.9299 38.1136 8.82214 32.8724 8.82214 26.3832C8.82214 19.894 13.9299 14.6528 20.2538 14.6528C22.8251 14.6528 25.1879 15.5085 27.0989 16.9703L28.6278 13.2979C26.1955 11.7291 23.3115 10.7664 20.2191 10.7664C11.8104 10.7664 5 17.7547 5 26.3832C5 35.0117 11.8104 42 20.2191 42C28.6278 42 35.4382 35.0117 35.4382 26.3832C35.4382 23.7447 34.8127 21.2489 33.6661 19.074L35.1949 15.7581C35.4034 15.2945 35.9594 15.0806 36.4111 15.2945L38.7044 16.3285C39.3646 16.6138 40.0942 16.079 39.99 15.3302L38.8086 4.84768Z" fill="url(#paint0_linear)"/>
<defs>
<linearGradient id="paint0_linear" x1="22.495" y1="42.6396" x2="22.495" y2="4.47377" gradientUnits="userSpaceOnUse">
<stop stop-color="#3721A7"/>
<stop offset="1" stop-color="#803EFF"/>
</linearGradient>
</defs>
</svg>
