<svg width="92" height="92" viewBox="0 0 92 92" fill="none" xmlns="http://www.w3.org/2000/svg">
<path d="M73.5424 57.0226V60.0576C73.5424 60.5838 73.1149 61.0113 72.5887 61.0113H19.4118C18.8856 61.0113 18.4581 60.5838 18.4581 60.0576V23.1593C18.4581 22.6331 18.8856 22.2056 19.4118 22.2056H59.4295V18.2593H19.4118C16.7151 18.2593 14.5117 20.4627 14.5117 23.1593V60.0576C14.5117 62.7543 16.6822 64.9577 19.4118 64.9577H72.5887C75.2854 64.9577 77.4888 62.7872 77.4888 60.0576V57.0226H73.5424Z" fill="url(#paint0_linear)"/>
<path fill-rule="evenodd" clip-rule="evenodd" d="M63 20C63 18.3431 64.3431 17 66 17H81C82.6569 17 84 18.3431 84 20V51C84 52.6569 82.6569 54 81 54H66C64.3431 54 63 52.6569 63 51V20ZM65 22C65 20.3431 66.3431 19 68 19H79C80.6569 19 82 20.3431 82 22V44C82 45.6569 80.6569 47 79 47H68C66.3431 47 65 45.6569 65 44V22ZM73 53C74.1046 53 75 52.1046 75 51C75 49.8954 74.1046 49 73 49C71.8954 49 71 49.8954 71 51C71 52.1046 71.8954 53 73 53Z" fill="url(#paint1_linear)"/>
<path d="M75.5811 74.7579H16.4189C12.4396 74.7579 8.9537 72.0612 8 68.1807H84C83.0463 72.0612 79.5604 74.7579 75.5811 74.7579Z" fill="url(#paint2_linear)"/>
<path d="M31.8756 38.583H30.5602C30.0669 38.583 29.6723 38.1884 29.6723 37.6951V35.1628C29.6723 34.6695 29.2776 34.2749 28.7843 34.2749H27.2716C26.7783 34.2749 26.3836 34.6695 26.3836 35.1628V37.6951C26.3836 38.1884 25.989 38.583 25.4957 38.583H24.1145C23.6212 38.583 23.2266 38.9776 23.2266 39.4709V49.7972C23.2266 50.2905 23.6212 50.6851 24.1145 50.6851H25.4299C25.9232 50.6851 26.3179 51.0797 26.3179 51.573V54.3026C26.3179 54.7959 26.7125 55.1905 27.2058 55.1905H28.7186C29.2119 55.1905 29.6065 54.7959 29.6065 54.3026V51.573C29.6065 51.0797 30.0011 50.6851 30.4944 50.6851H31.8099C32.3032 50.6851 32.6978 50.2905 32.6978 49.7972V39.5038C32.7636 39.0105 32.3689 38.583 31.8756 38.583Z" fill="url(#paint3_linear)"/>
<path d="M44.5374 31.2495H43.222C42.7287 31.2495 42.3341 30.8549 42.3341 30.3616V27.8293C42.3341 27.336 41.9394 26.9414 41.4461 26.9414H39.9005C39.4072 26.9414 39.0125 27.336 39.0125 27.8293V30.3616C39.0125 30.8549 38.6179 31.2495 38.1246 31.2495H36.7434C36.2501 31.2495 35.8555 31.6441 35.8555 32.1374V50.0933C35.8555 50.5866 36.2501 50.9812 36.7434 50.9812H38.1246C38.6179 50.9812 39.0125 51.3759 39.0125 51.8691V54.5987C39.0125 55.092 39.4072 55.4866 39.9005 55.4866H41.4132C41.9065 55.4866 42.3012 55.092 42.3012 54.5987V51.8691C42.3012 51.3759 42.6958 50.9812 43.1891 50.9812H44.5045C44.9978 50.9812 45.3925 50.5866 45.3925 50.0933V32.1374C45.4254 31.6441 45.0307 31.2495 44.5374 31.2495Z" fill="url(#paint4_linear)"/>
<defs>
<linearGradient id="paint0_linear" x1="45.9913" y1="65.7437" x2="45.9913" y2="18.8415" gradientUnits="userSpaceOnUse">
<stop stop-color="#3721A7"/>
<stop offset="1" stop-color="#803EFF"/>
</linearGradient>
<linearGradient id="paint1_linear" x1="73.497" y1="54.6228" x2="73.497" y2="17.4613" gradientUnits="userSpaceOnUse">
<stop stop-color="#3721A7"/>
<stop offset="1" stop-color="#803EFF"/>
</linearGradient>
<linearGradient id="paint2_linear" x1="45.9892" y1="74.8686" x2="45.9892" y2="68.2627" gradientUnits="userSpaceOnUse">
<stop stop-color="#3721A7"/>
<stop offset="1" stop-color="#803EFF"/>
</linearGradient>
<linearGradient id="paint3_linear" x1="27.9644" y1="55.5426" x2="27.9644" y2="34.5357" gradientUnits="userSpaceOnUse">
<stop stop-color="#3721A7"/>
<stop offset="1" stop-color="#803EFF"/>
</linearGradient>
<linearGradient id="paint4_linear" x1="40.6236" y1="55.9671" x2="40.6236" y2="27.2973" gradientUnits="userSpaceOnUse">
<stop stop-color="#3721A7"/>
<stop offset="1" stop-color="#803EFF"/>
</linearGradient>
</defs>
</svg>
