<svg width="63" height="65" viewBox="0 0 63 65" fill="none" xmlns="http://www.w3.org/2000/svg">
<g filter="url(#filter0_d)">
<path d="M11.3799 23.6581H5.70904C4.77683 23.6581 4 22.8813 4 21.9491V16.2005C4 15.2683 4.77683 14.4915 5.70904 14.4915H11.3799C12.3121 14.4915 13.089 15.2683 13.089 16.2005V21.9491C13.1667 22.8813 12.3898 23.6581 11.3799 23.6581Z" fill="url(#paint0_linear)"/>
<path d="M11.3799 46.5746H5.70904C4.77683 46.5746 4 45.7978 4 44.8656V39.117C4 38.1848 4.77683 37.408 5.70904 37.408H11.3799C12.3121 37.408 13.089 38.1848 13.089 39.117V44.8656C13.1667 45.7978 12.3898 46.5746 11.3799 46.5746Z" fill="url(#paint1_linear)"/>
<path d="M52.7076 2.99414H14.3319C10.8362 2.99414 8.03955 5.79075 8.03955 9.2865V12.1608H11.4576C13.6328 12.1608 15.4972 13.9475 15.4972 16.2003V21.9489C15.4972 24.124 13.7104 25.9885 11.4576 25.9885H8.03955V35.1551H11.4576C13.6328 35.1551 15.4972 36.9418 15.4972 39.1946V44.9432C15.4972 47.196 13.7104 48.9828 11.4576 48.9828H8.03955V51.857C8.03955 55.3528 10.8362 58.1494 14.3319 58.1494H52.7076C56.2033 58.1494 58.9999 55.3528 58.9999 51.857V9.2865C58.9999 5.79075 56.2033 2.99414 52.7076 2.99414ZM53.7174 50.0703C53.7174 51.3909 52.6299 52.4785 51.3093 52.4785H20.1582C18.8376 52.4785 17.75 51.3909 17.75 50.0703V11.7724C17.75 10.4518 18.8376 9.36419 20.1582 9.36419H51.3869C52.7076 9.36419 53.7951 10.4518 53.7951 11.7724V50.0703H53.7174Z" fill="url(#paint2_linear)"/>
<path d="M44.8614 29.2509H41.9871C41.8318 28.5517 41.521 27.8526 41.1326 27.2311L43.1524 25.2113C43.6185 24.7452 43.6185 23.9684 43.1524 23.4246C42.6863 22.9585 41.9094 22.9585 41.3657 23.4246L39.3459 25.4444C38.7244 25.056 38.0253 24.8229 37.3261 24.6676V21.7156C37.3261 21.0164 36.7823 20.4727 36.0832 20.4727C35.384 20.4727 34.8402 21.0164 34.8402 21.7156V24.6676C34.1411 24.8229 33.4419 25.056 32.8205 25.4444L30.8007 23.4246C30.3346 22.9585 29.5578 22.9585 29.014 23.4246C28.5479 23.8907 28.5479 24.6676 29.014 25.2113L31.0338 27.2311C30.6453 27.8526 30.3346 28.5517 30.1792 29.2509H27.3049C26.6058 29.2509 26.062 29.7947 26.062 30.4938C26.062 31.193 26.6058 31.7368 27.3049 31.7368H30.1792C30.3346 32.4359 30.6453 33.1351 31.0338 33.7565L29.014 35.7763C28.5479 36.2424 28.5479 37.0192 29.014 37.563C29.247 37.7961 29.5578 37.9514 29.8685 37.9514C30.1792 37.9514 30.49 37.7961 30.723 37.563L32.7428 35.5433C33.3643 35.9317 34.0634 36.2424 34.7626 36.3978V39.2721C34.7626 39.9712 35.3063 40.515 36.0055 40.515C36.7046 40.515 37.2484 39.9712 37.2484 39.2721V36.3978C37.9476 36.2424 38.6467 35.9317 39.2682 35.5433L41.288 37.563C41.521 37.7961 41.8318 37.9514 42.1425 37.9514C42.4532 37.9514 42.764 37.7961 42.997 37.563C43.4631 37.0969 43.4631 36.3201 42.997 35.7763L40.9772 33.7565C41.3657 33.1351 41.6764 32.4359 41.8318 31.7368H44.706C45.4052 31.7368 45.949 31.193 45.949 30.4938C46.1043 29.7947 45.4829 29.2509 44.8614 29.2509Z" fill="url(#paint3_linear)"/>
<path d="M36.0833 45.6425C32.0438 45.6425 28.2373 44.0888 25.363 41.2145C22.4887 38.3403 20.9351 34.5338 20.9351 30.4942C20.9351 26.4547 22.4887 22.6482 25.363 19.7739C28.2373 16.8996 32.0438 15.3459 36.0833 15.3459C40.1229 15.3459 43.9294 16.8996 46.8037 19.7739C49.6779 22.6482 51.2316 26.4547 51.2316 30.4942C51.2316 34.5338 49.6779 38.3403 46.8037 41.2145C43.9294 44.0888 40.1229 45.6425 36.0833 45.6425ZM36.0833 18.4533C32.8206 18.4533 29.791 19.6962 27.5382 21.949C25.2853 24.2019 24.0424 27.2315 24.0424 30.4942C24.0424 33.7569 25.2853 36.7866 27.5382 39.0394C29.791 41.2922 32.8206 42.5352 36.0833 42.5352C39.346 42.5352 42.3757 41.2922 44.6285 39.0394C46.8813 36.7866 48.1243 33.7569 48.1243 30.4942C48.1243 27.2315 46.8813 24.2019 44.6285 21.949C42.3757 19.6962 39.346 18.4533 36.0833 18.4533Z" fill="url(#paint4_linear)"/>
</g>
<defs>
<filter id="filter0_d" x="0" y="0.994141" width="62.9999" height="63.1553" filterUnits="userSpaceOnUse" color-interpolation-filters="sRGB">
<feFlood flood-opacity="0" result="BackgroundImageFix"/>
<feColorMatrix in="SourceAlpha" type="matrix" values="0 0 0 0 0 0 0 0 0 0 0 0 0 0 0 0 0 0 127 0"/>
<feOffset dy="2"/>
<feGaussianBlur stdDeviation="2"/>
<feColorMatrix type="matrix" values="0 0 0 0 0 0 0 0 0 0 0 0 0 0 0 0 0 0 0.2 0"/>
<feBlend mode="normal" in2="BackgroundImageFix" result="effect1_dropShadow"/>
<feBlend mode="normal" in="SourceGraphic" in2="effect1_dropShadow" result="shape"/>
</filter>
<linearGradient id="paint0_linear" x1="8.54587" y1="23.8124" x2="8.54587" y2="14.6057" gradientUnits="userSpaceOnUse">
<stop stop-color="#3721A7"/>
<stop offset="1" stop-color="#803EFF"/>
</linearGradient>
<linearGradient id="paint1_linear" x1="8.54587" y1="46.7289" x2="8.54587" y2="37.5222" gradientUnits="userSpaceOnUse">
<stop stop-color="#3721A7"/>
<stop offset="1" stop-color="#803EFF"/>
</linearGradient>
<linearGradient id="paint2_linear" x1="33.5125" y1="59.0778" x2="33.5125" y2="3.6818" gradientUnits="userSpaceOnUse">
<stop stop-color="#3721A7"/>
<stop offset="1" stop-color="#803EFF"/>
</linearGradient>
<linearGradient id="paint3_linear" x1="36.0147" y1="40.8523" x2="36.0147" y2="20.7225" gradientUnits="userSpaceOnUse">
<stop stop-color="#3721A7"/>
<stop offset="1" stop-color="#803EFF"/>
</linearGradient>
<linearGradient id="paint4_linear" x1="36.079" y1="46.1524" x2="36.079" y2="15.7237" gradientUnits="userSpaceOnUse">
<stop stop-color="#3721A7"/>
<stop offset="1" stop-color="#803EFF"/>
</linearGradient>
</defs>
</svg>
