<svg width="92" height="92" viewBox="0 0 92 92" fill="none" xmlns="http://www.w3.org/2000/svg">
<path d="M15 51.9145V59.1385C15 62.8697 18.0166 65.8069 21.6684 65.8069H25.3201C26.3521 65.8069 27.146 65.0131 27.146 63.9811V45.2461H21.6684C18.0166 45.2461 15 48.2627 15 51.9145Z" fill="url(#paint0_linear)"/>
<path d="M57.4707 50.7235V41.0385C57.4707 38.7363 55.5655 36.8311 53.2633 36.8311H38.7357C36.4336 36.8311 34.5283 38.7363 34.5283 41.0385V50.7235C34.5283 53.0257 36.4336 54.9309 38.7357 54.9309H42.9432L49.6909 60.5673C50.0085 60.8054 50.4054 60.9642 50.8817 60.9642C51.1199 60.9642 51.4374 60.8848 51.6756 60.8054C52.3107 60.4879 52.7076 59.8528 52.7076 59.1384V54.9309H53.3427C55.5655 54.9309 57.4707 53.0257 57.4707 50.7235ZM48.4208 47.7069H43.5783C42.5462 47.7069 41.7524 46.913 41.7524 45.881C41.7524 44.849 42.5462 44.0551 43.5783 44.0551H48.4208C49.4528 44.0551 50.2466 44.849 50.2466 45.881C50.2466 46.8336 49.3734 47.7069 48.4208 47.7069Z" fill="url(#paint1_linear)"/>
<path d="M39.292 73.3485C39.292 75.3331 40.8797 77.0002 42.9437 77.0002H48.977C50.9616 77.0002 52.6287 75.4125 52.6287 73.3485C52.6287 71.2845 51.041 69.6968 48.977 69.6968H42.9437C40.9591 69.6968 39.292 71.2845 39.292 73.3485Z" fill="url(#paint2_linear)"/>
<path d="M66.0446 69.4583V69.8552C66.0446 70.8872 65.2507 71.6811 64.2187 71.6811H56.042C56.2008 72.2368 56.2801 72.7925 56.2801 73.3482C56.2801 73.9833 56.2008 74.6977 56.042 75.2534H64.2187C67.2353 75.2534 69.6963 72.7925 69.6963 69.7758V69.3789H66.0446V69.4583Z" fill="url(#paint3_linear)"/>
<path d="M70.3321 45.2461H64.8545V63.9811C64.8545 65.0131 65.6483 65.8069 66.6804 65.8069H70.3321C73.9838 65.8069 77.0005 62.7903 77.0005 59.1385V51.9145C76.9211 48.2627 73.9838 45.2461 70.3321 45.2461Z" fill="url(#paint4_linear)"/>
<path d="M64.4574 22.621C59.5355 17.6991 52.9465 15 45.9606 15C38.9747 15 32.4651 17.6991 27.4638 22.621C22.5419 27.5429 19.8428 34.1319 19.8428 41.1178V41.5941H27.0668V41.1178C27.0668 30.7183 35.5611 22.2241 45.9606 22.2241C56.3601 22.2241 64.8543 30.7183 64.8543 41.1178V41.5941H72.0784V41.1178C72.0784 34.1319 69.3793 27.6223 64.4574 22.621Z" fill="url(#paint5_linear)"/>
<defs>
<linearGradient id="paint0_linear" x1="28" y1="66" x2="17.5" y2="46.5" gradientUnits="userSpaceOnUse">
<stop stop-color="#3721A7"/>
<stop offset="1" stop-color="#803EFF"/>
</linearGradient>
<linearGradient id="paint1_linear" x1="45.9963" y1="61.3704" x2="45.9963" y2="37.1319" gradientUnits="userSpaceOnUse">
<stop stop-color="#3721A7"/>
<stop offset="1" stop-color="#803EFF"/>
</linearGradient>
<linearGradient id="paint2_linear" x1="45.9585" y1="77.1232" x2="45.9585" y2="69.7878" gradientUnits="userSpaceOnUse">
<stop stop-color="#3721A7"/>
<stop offset="1" stop-color="#803EFF"/>
</linearGradient>
<linearGradient id="paint3_linear" x1="62.8672" y1="75.3523" x2="62.8672" y2="69.4521" gradientUnits="userSpaceOnUse">
<stop stop-color="#3721A7"/>
<stop offset="1" stop-color="#803EFF"/>
</linearGradient>
<linearGradient id="paint4_linear" x1="65" y1="66" x2="75.5" y2="46" gradientUnits="userSpaceOnUse">
<stop stop-color="#3721A7"/>
<stop offset="1" stop-color="#803EFF"/>
</linearGradient>
<linearGradient id="paint5_linear" x1="45.9532" y1="42.0417" x2="45.9532" y2="15.3316" gradientUnits="userSpaceOnUse">
<stop stop-color="#3721A7"/>
<stop offset="1" stop-color="#803EFF"/>
</linearGradient>
</defs>
</svg>
