<svg width="45" height="45" viewBox="0 0 45 45" fill="none" xmlns="http://www.w3.org/2000/svg">
<path d="M20.2924 8.30131L17.5305 9.78451C17.3259 9.68222 17.0702 9.57993 16.8656 9.47764L15.945 6.51123H13.0809L12.2114 9.52879C11.9557 9.63108 11.7511 9.68222 11.5466 9.83566L8.78473 8.30131L6.73893 10.296L8.22214 13.0578C8.11985 13.2624 8.01756 13.5181 7.91527 13.7227L5 14.5921V17.4563L8.01756 18.3257C8.11985 18.5815 8.17099 18.786 8.32443 18.9906L6.84122 21.7524L8.88702 23.7471L11.5977 22.2639C11.8023 22.3662 12.058 22.4685 12.2626 22.5708L12.9275 24.9234V22.8776C12.9275 22.2639 12.9786 21.7013 13.0298 21.0876C13.0809 20.7295 13.0809 20.3715 13.1832 20.0135C11.5466 19.4509 10.3191 17.8654 10.3191 16.0242C10.3191 13.6715 12.2114 11.7792 14.5641 11.7792C15.229 11.7792 15.8427 11.9326 16.4053 12.1883C16.6099 11.8815 16.8145 11.6257 17.0702 11.37C17.9908 10.2448 19.0649 9.22192 20.2924 8.30131Z" fill="url(#paint0_linear)"/>
<path d="M14.5632 10.7563C11.648 10.7563 9.24414 13.109 9.24414 16.0754C9.24414 18.4792 10.8296 20.4739 13.0289 21.1388C13.08 20.7808 13.08 20.4228 13.1823 20.0647C11.5457 19.5021 10.3182 17.9166 10.3182 16.0754C10.3182 13.7228 12.2106 11.8304 14.5632 11.8304C15.2281 11.8304 15.8418 11.9838 16.4044 12.2396C16.609 11.9327 16.8136 11.677 17.0693 11.4212C16.3022 10.9609 15.4327 10.7563 14.5632 10.7563Z" fill="url(#paint1_linear)"/>
<path d="M39.4209 16.4847C39.4209 16.3824 39.3697 16.3313 39.2674 16.2801L29.3453 10.0916C28.1178 10.8588 26.6346 12.1885 25.5606 13.6206C25.4583 13.774 25.2537 13.8763 25.0491 13.8763C24.8957 13.8763 24.7934 13.8252 24.6911 13.774C24.4354 13.5695 24.3842 13.2114 24.5888 12.9046C25.8163 11.3191 26.9415 10.1939 28.2712 9.37557C28.3224 9.32442 28.3735 9.32442 28.4758 9.32442C29.7544 8.55725 31.2888 8.0458 33.2834 7.58549C33.5392 7.53435 33.5392 7.22748 33.3346 7.12519L30.4193 6C30.2659 6 30.1636 6 30.0613 6C30.0102 6 29.959 6 29.9079 6.05115C21.5201 7.68779 15.5361 15.1038 15.5361 23.6962V34.6923H32.2094C37.2728 28.0435 28.4758 26.0488 30.5216 19.758C32.8231 19.4511 34.9201 20.2695 37.017 21.9061C37.1193 22.0084 37.3239 22.0084 37.4262 21.9061L39.9323 19.758C40.0346 19.6557 40.0857 19.5534 40.0346 19.4511L39.4209 16.4847Z" fill="url(#paint2_linear)"/>
<path d="M13.8476 39.4489C13.6431 39.4489 13.4385 39.2444 13.4385 39.0398V36.5337C13.4385 36.3291 13.6431 36.1245 13.8476 36.1245H34.1522C34.4079 36.1245 34.6637 36.3291 34.6637 36.636V38.9886C34.6637 39.2444 34.4591 39.5001 34.1522 39.5001H13.8476V39.4489Z" fill="url(#paint3_linear)"/>
<defs>
<linearGradient id="paint0_linear" x1="12.644" y1="25.2333" x2="12.644" y2="6.74079" gradientUnits="userSpaceOnUse">
<stop stop-color="#3721A7"/>
<stop offset="1" stop-color="#803EFF"/>
</linearGradient>
<linearGradient id="paint1_linear" x1="13.1556" y1="21.3135" x2="13.1556" y2="10.8858" gradientUnits="userSpaceOnUse">
<stop stop-color="#3721A7"/>
<stop offset="1" stop-color="#803EFF"/>
</linearGradient>
<linearGradient id="paint2_linear" x1="27.7919" y1="35.1753" x2="27.7919" y2="6.35773" gradientUnits="userSpaceOnUse">
<stop stop-color="#3721A7"/>
<stop offset="1" stop-color="#803EFF"/>
</linearGradient>
<linearGradient id="paint3_linear" x1="24.0481" y1="39.5569" x2="24.0481" y2="36.1666" gradientUnits="userSpaceOnUse">
<stop stop-color="#3721A7"/>
<stop offset="1" stop-color="#803EFF"/>
</linearGradient>
</defs>
</svg>
