<svg width="303" height="148" viewBox="0 0 303 148" fill="none" xmlns="http://www.w3.org/2000/svg">
<mask id="mask0" mask-type="alpha" maskUnits="userSpaceOnUse" x="0" y="0" width="303" height="148">
<rect width="303" height="148" fill="#3721A7"/>
</mask>
<g mask="url(#mask0)">
<path d="M-1 107.376V108.399L47.6372 149.927L48.2366 149.415L-1 107.376ZM-1 92.1684V93.1919L65.5337 150L66.1331 149.488L-1 92.1684ZM-1 76.8879V77.9115L83.3445 149.927L83.9439 149.415L-1 76.8879ZM-1 61.6075V62.6311L101.241 149.927L101.84 149.415L-1 61.6075ZM-1 46.4002V47.4238L119.137 150L119.737 149.488L-1 46.4002ZM-1 31.1198V32.1433L136.948 149.927L137.548 149.415L-1 31.1198ZM-1 15.8393V16.8629L154.845 149.927L155.444 149.415L-1 15.8393ZM-1 0.558923V1.6556L172.741 150L173.34 149.488L-1 0.558923ZM13.8138 -2L13.2144 -1.48822L190.552 149.927L191.151 149.415L13.8138 -2ZM31.7102 -2L31.1108 -1.48822L208.448 149.927L209.048 149.415L31.7102 -2ZM49.6067 -2L49.0073 -1.48822L226.345 149.927L226.944 149.415L49.6067 -2ZM67.4175 -2L66.8181 -1.48822L244.156 149.927L244.755 149.415L67.4175 -2ZM85.3139 -2L84.7145 -1.48822L262.052 149.927L262.651 149.415L85.3139 -2ZM103.21 -2L102.611 -1.48822L279.948 149.927L280.548 149.415L103.21 -2ZM121.021 -2L120.422 -1.48822L297.845 149.927L298.444 149.415L121.021 -2ZM138.918 -2L138.318 -1.48822L315.656 149.927L316.255 149.415L138.918 -2ZM156.814 -2L156.215 -1.48822L333.552 149.927L334.152 149.415L156.814 -2ZM174.625 -2L174.025 -1.48822L351.363 149.927L351.962 149.415L174.625 -2ZM192.521 -2L191.922 -1.48822L369.259 149.927L369.859 149.415L192.521 -2ZM210.418 -2L209.818 -1.48822L387.156 149.927L387.755 149.415L210.418 -2ZM228.314 -2L227.629 -1.48822L404.967 149.927L405.566 149.415L228.314 -2ZM246.125 -2L245.526 -1.48822L422.863 149.927L423.462 149.415L246.125 -2ZM264.021 -2L263.422 -1.48822L440.76 149.927L441.359 149.415L264.021 -2ZM281.918 -2L281.319 -1.48822L458.656 149.927L459.255 149.415L281.918 -2ZM299.729 -2L299.129 -1.48822L476.467 149.927L477.066 149.415L299.729 -2ZM317.625 -2L317.026 -1.48822L494.363 149.927L494.963 149.415L317.625 -2ZM335.522 -2L334.922 -1.48822L512.26 149.927L512.859 149.415L335.522 -2ZM353.332 -2L352.733 -1.48822L530.07 149.927L530.67 149.415L353.332 -2ZM371.229 -2L370.629 -1.48822L547.967 149.927L548.566 149.415L371.229 -2ZM389.125 -2L388.526 -1.48822L565.863 149.927L566.463 149.415L389.125 -2ZM407.022 -2L406.422 -1.48822L583.76 149.927L584.359 149.415L407.022 -2ZM424.833 -2L424.233 -1.48822L601.571 149.927L602.17 149.415L424.833 -2ZM442.729 -2L442.13 -1.48822L619.467 149.927L620.066 149.415L442.729 -2ZM460.54 -2L459.94 -1.48822L637.278 149.927L637.877 149.415L460.54 -2ZM478.436 -2L477.837 -1.48822L655.174 149.927L655.774 149.415L478.436 -2ZM496.333 -2L495.733 -1.48822L673.071 149.927L673.67 149.415L496.333 -2ZM514.229 -2L513.63 -1.48822L690.967 149.927L691.567 149.415L514.229 -2ZM532.04 -2L531.44 -1.48822L708.864 149.927L709.463 149.415L532.04 -2ZM549.936 -2L549.337 -1.48822L726.674 149.927L727.274 149.415L549.936 -2ZM567.833 -2L567.233 -1.48822L744.571 149.927L745.17 149.415L567.833 -2ZM585.644 -2L585.044 -1.48822L762.382 149.927L762.981 149.415L585.644 -2ZM603.54 -2L602.941 -1.48822L780.278 149.927L780.878 149.415L603.54 -2ZM621.437 -2L620.837 -1.48822L798.175 149.927L798.774 149.415L621.437 -2ZM639.333 -2L638.648 -1.48822L815.985 149.927L816.585 149.415L639.333 -2ZM657.144 -2L656.544 -1.48822L833.882 149.927L834.481 149.415L657.144 -2ZM675.04 -2L674.441 -1.48822L851.778 149.927L852.378 149.415L675.04 -2ZM692.937 -2L692.337 -1.48822L869.675 149.927L870.274 149.415L692.937 -2ZM710.747 -2L710.148 -1.48822L887.485 149.927L888.085 149.415L710.747 -2ZM728.644 -2L728.044 -1.48822L905.382 149.927L905.981 149.415L728.644 -2ZM746.54 -2L745.941 -1.48822L923.278 149.927L923.878 149.415L746.54 -2ZM764.351 -2L763.752 -1.48822L941.089 149.927L941.689 149.415L764.351 -2ZM782.248 -2L781.648 -1.48822L958.986 149.927L959.585 149.415L782.248 -2ZM800.144 -2L799.545 -1.48822L976.882 149.927L977.481 149.415L800.144 -2ZM818.04 -2L817.441 -1.48822L994.779 149.927L995.378 149.415L818.04 -2ZM835.851 -2L835.252 -1.48822L1012.59 149.927L1013.19 149.415L835.851 -2ZM853.748 -2L853.148 -1.48822L1030.49 149.927L1031.09 149.415L853.748 -2ZM871.559 -2L870.959 -1.48822L1048.3 149.927L1048.9 149.415L871.559 -2ZM889.455 -2L888.856 -1.48822L1066.19 149.927L1066.79 149.415L889.455 -2ZM907.351 -2L906.752 -1.48822L1084.09 149.927L1084.69 149.415L907.351 -2ZM925.248 -2L924.648 -1.48822L1101.99 149.927L1102.59 149.415L925.248 -2ZM943.059 -2L942.459 -1.48822L1119.88 149.927L1120.48 149.415L943.059 -2ZM960.955 -2L960.356 -1.48822L1137.69 149.927L1138.29 149.415L960.955 -2ZM978.852 -2L978.252 -1.48822L1155.59 149.927L1156.19 149.415L978.852 -2ZM996.662 -2L996.063 -1.48822L1173.4 149.927L1174 149.415L996.662 -2ZM1014.56 -2L1013.96 -1.48822L1191.3 149.927L1191.9 149.415L1014.56 -2ZM1032.46 -2L1031.86 -1.48822L1209.19 149.927L1209.79 149.415L1032.46 -2ZM1050.35 -2L1049.75 -1.48822L1227.09 149.927L1227.69 149.415L1050.35 -2ZM1068.16 -2L1067.56 -1.48822L1244.9 149.927L1245.5 149.415L1068.16 -2ZM1086.06 -2L1085.46 -1.48822L1262.8 149.927L1263.4 149.415L1086.06 -2ZM1103.96 -2L1103.36 -1.48822L1280.69 149.927L1281.29 149.415L1103.96 -2ZM1121.77 -2L1121.17 -1.48822L1298.5 149.927L1299.1 149.415L1121.77 -2ZM1139.66 -2L1139.06 -1.48822L1316.4 149.927L1317 149.415L1139.66 -2ZM-1 129.309V130.333L21.9485 149.927L22.5479 149.415L-1 129.309Z" fill="url(#paint0_linear)" fill-opacity="0.8"/>
</g>
<defs>
<linearGradient id="paint0_linear" x1="658" y1="-14" x2="658" y2="157.5" gradientUnits="userSpaceOnUse">
<stop stop-color="#93A1FF"/>
<stop offset="1" stop-color="#F0F2FF" stop-opacity="0"/>
</linearGradient>
</defs>
</svg>
