<svg width="84" height="70" viewBox="0 0 84 70" fill="none" xmlns="http://www.w3.org/2000/svg">
<g filter="url(#filter0_d)">
<path d="M72.3373 7.41195L74.3763 7.44483C74.3763 7.44483 75.1655 6.91865 75.33 6.78711C75.7246 6.42536 76.0535 6.06361 76.4481 5.70187C76.9414 5.20857 77.2702 5.30723 77.4347 5.96496C77.9609 7.97101 77.0072 10.273 75.1984 11.3254C74.1789 11.9174 73.0937 12.2133 71.9098 11.9502C71.5152 11.8845 71.2521 11.9831 70.989 12.2462C67.24 15.9952 63.4909 19.7443 59.7419 23.4933C59.4459 23.7893 59.3802 24.0524 59.4459 24.4141C59.9721 27.8343 56.9137 30.6954 53.5593 29.9061C53.3291 29.8403 53.0002 29.6759 52.9345 29.5115C52.8687 29.347 53.0989 29.0511 53.2304 28.8537C53.2962 28.7222 54.5459 27.045 54.7432 26.6504C54.7761 26.5517 54.809 26.4531 54.7761 26.3544L54.4143 24.9403C54.4143 24.9403 53.066 25.0061 52.4412 25.1376C52.2767 25.1376 52.1123 25.302 51.9808 25.4336C51.619 25.7624 51.323 26.1242 50.9613 26.4202C50.764 26.5846 50.4351 26.8477 50.2707 26.7819C50.0734 26.7161 49.9089 26.3544 49.8432 26.1242C49.2512 23.4933 50.9942 20.7966 53.658 20.3033C54.2499 20.2047 54.8419 20.3033 55.4338 20.2705C55.6969 20.2376 56.0258 20.1718 56.1902 20.0074C60.005 16.2254 63.7869 12.4435 67.5688 8.62874C67.7661 8.43142 67.8319 8.03679 67.799 7.74081C67.3715 4.4193 70.3313 1.62398 73.7185 2.34747C73.9816 2.41325 74.2776 2.57768 74.3763 2.775C74.442 2.90654 74.1789 3.20252 74.0474 3.43272C74.0145 3.46561 73.9816 3.49849 73.9487 3.53138C73.2252 4.22199 72.3373 5.373 72.3373 5.373V7.41195Z" fill="url(#paint0_linear)"/>
<path d="M76.1517 22.8673C74.9349 21.7163 73.7839 20.4995 72.5671 19.3485C71.7121 18.5263 70.8242 17.7042 69.9362 16.9149C69.5416 16.586 69.2127 16.6189 68.8181 17.0136C67.4698 18.4277 66.0557 19.8089 64.6415 21.1901C63.8852 21.9465 63.8852 21.9794 64.51 22.8015C64.5429 22.8673 64.5758 22.9002 64.6415 22.9331C66.7463 25.0049 68.7852 27.1425 70.9228 29.1157C72.1725 30.2667 73.751 30.3654 75.2967 29.609C76.8094 28.8855 77.5 27.6029 77.5658 26.0901C77.5658 24.7418 77.0396 23.7223 76.1517 22.8673ZM74.047 26.5506C73.6853 26.9123 73.2577 26.8794 72.7973 26.4519C71.5476 25.2351 69.6731 23.3935 68.4235 22.1109C68.7523 21.7163 69.5416 20.9928 69.5416 20.9928C69.5416 20.9928 72.6658 24.0512 73.9483 25.3009C74.3759 25.7284 74.4087 26.1888 74.047 26.5506Z" fill="url(#paint1_linear)"/>
<path d="M56.6846 6.91747C58.4605 8.66044 60.1706 10.3376 61.8807 12.0148C61.0585 12.8041 60.335 13.5605 59.5457 14.3497C57.9014 12.6397 56.1914 10.9296 54.4484 9.12084C54.1195 9.41682 53.9222 9.61414 53.692 9.84434C53.3631 10.1403 53.0672 10.1074 52.8698 9.74568C51.8504 8.10137 50.8309 6.48995 49.8443 4.81275C49.7128 4.58255 49.7785 4.08926 49.9759 3.85905C50.3705 3.33287 50.8967 2.90535 51.3571 2.44495C51.6859 2.11608 52.0477 2.11608 52.4423 2.34629C54.0209 3.33287 55.5994 4.31946 57.2108 5.30604C57.6383 5.56913 57.6712 5.898 57.3095 6.25974C57.1122 6.45706 56.9477 6.65438 56.6846 6.91747Z" fill="url(#paint2_linear)"/>
<path d="M69.5429 32.2069V49.242C69.5429 49.7681 69.1154 50.1957 68.5892 50.1957H15.4123C14.8861 50.1957 14.4586 49.7681 14.4586 49.242V12.3436C14.4586 11.8175 14.8861 11.3899 15.4123 11.3899H48.43V7.4436H15.4123C12.7156 7.4436 10.5122 9.64698 10.5122 12.3436V49.242C10.5122 51.9386 12.6827 54.142 15.4123 54.142H68.5892C71.2859 54.142 73.4893 51.9715 73.4893 49.242V32.2069H69.5429Z" fill="url(#paint3_linear)"/>
<path d="M71.5811 63.942H12.4189C8.43964 63.942 4.9537 61.2453 4 57.3647H80C79.0463 61.2453 75.5604 63.942 71.5811 63.942Z" fill="url(#paint4_linear)"/>
<path d="M27.8756 27.7673H26.5602C26.0669 27.7673 25.6723 27.3727 25.6723 26.8794V24.3472C25.6723 23.8539 25.2776 23.4592 24.7843 23.4592H23.2716C22.7783 23.4592 22.3836 23.8539 22.3836 24.3472V26.8794C22.3836 27.3727 21.989 27.7673 21.4957 27.7673H20.1145C19.6212 27.7673 19.2266 28.162 19.2266 28.6552V38.9815C19.2266 39.4748 19.6212 39.8694 20.1145 39.8694H21.4299C21.9232 39.8694 22.3179 40.2641 22.3179 40.7574V43.4869C22.3179 43.9802 22.7125 44.3748 23.2058 44.3748H24.7186C25.2119 44.3748 25.6065 43.9802 25.6065 43.4869V40.7574C25.6065 40.2641 26.0011 39.8694 26.4944 39.8694H27.8099C28.3032 39.8694 28.6978 39.4748 28.6978 38.9815V28.6881C28.7636 28.1948 28.3689 27.7673 27.8756 27.7673Z" fill="url(#paint5_linear)"/>
<path d="M40.5369 20.4338H39.2215C38.7282 20.4338 38.3336 20.0392 38.3336 19.5459V17.0137C38.3336 16.5204 37.9389 16.1257 37.4456 16.1257H35.9C35.4067 16.1257 35.0121 16.5204 35.0121 17.0137V19.5459C35.0121 20.0392 34.6174 20.4338 34.1241 20.4338H32.7429C32.2496 20.4338 31.855 20.8285 31.855 21.3218V39.2776C31.855 39.7709 32.2496 40.1655 32.7429 40.1655H34.1241C34.6174 40.1655 35.0121 40.5602 35.0121 41.0535V43.783C35.0121 44.2763 35.4067 44.6709 35.9 44.6709H37.4127C37.906 44.6709 38.3007 44.2763 38.3007 43.783V41.0535C38.3007 40.5602 38.6953 40.1655 39.1886 40.1655H40.5041C40.9973 40.1655 41.392 39.7709 41.392 39.2776V21.3218C41.4249 20.8285 41.0302 20.4338 40.5369 20.4338Z" fill="url(#paint6_linear)"/>
</g>
<defs>
<filter id="filter0_d" x="0" y="0.184326" width="84" height="69.7577" filterUnits="userSpaceOnUse" color-interpolation-filters="sRGB">
<feFlood flood-opacity="0" result="BackgroundImageFix"/>
<feColorMatrix in="SourceAlpha" type="matrix" values="0 0 0 0 0 0 0 0 0 0 0 0 0 0 0 0 0 0 127 0"/>
<feOffset dy="2"/>
<feGaussianBlur stdDeviation="2"/>
<feColorMatrix type="matrix" values="0 0 0 0 0 0 0 0 0 0 0 0 0 0 0 0 0 0 0.2 0"/>
<feBlend mode="normal" in2="BackgroundImageFix" result="effect1_dropShadow"/>
<feBlend mode="normal" in="SourceGraphic" in2="effect1_dropShadow" result="shape"/>
</filter>
<linearGradient id="paint0_linear" x1="63.6492" y1="30.5063" x2="63.6492" y2="2.5791" gradientUnits="userSpaceOnUse">
<stop stop-color="#3721A7"/>
<stop offset="1" stop-color="#803EFF"/>
</linearGradient>
<linearGradient id="paint1_linear" x1="70.8093" y1="30.3205" x2="70.8093" y2="16.8578" gradientUnits="userSpaceOnUse">
<stop stop-color="#3721A7"/>
<stop offset="1" stop-color="#803EFF"/>
</linearGradient>
<linearGradient id="paint2_linear" x1="55.8266" y1="14.5545" x2="55.8266" y2="2.336" gradientUnits="userSpaceOnUse">
<stop stop-color="#3721A7"/>
<stop offset="1" stop-color="#803EFF"/>
</linearGradient>
<linearGradient id="paint3_linear" x1="41.9918" y1="54.928" x2="41.9918" y2="8.02582" gradientUnits="userSpaceOnUse">
<stop stop-color="#3721A7"/>
<stop offset="1" stop-color="#803EFF"/>
</linearGradient>
<linearGradient id="paint4_linear" x1="41.9892" y1="64.0527" x2="41.9892" y2="57.4467" gradientUnits="userSpaceOnUse">
<stop stop-color="#3721A7"/>
<stop offset="1" stop-color="#803EFF"/>
</linearGradient>
<linearGradient id="paint5_linear" x1="23.9644" y1="44.7269" x2="23.9644" y2="23.72" gradientUnits="userSpaceOnUse">
<stop stop-color="#3721A7"/>
<stop offset="1" stop-color="#803EFF"/>
</linearGradient>
<linearGradient id="paint6_linear" x1="36.6231" y1="45.1514" x2="36.6231" y2="16.4816" gradientUnits="userSpaceOnUse">
<stop stop-color="#3721A7"/>
<stop offset="1" stop-color="#803EFF"/>
</linearGradient>
</defs>
</svg>
