<svg width="45" height="45" viewBox="0 0 45 45" fill="none" xmlns="http://www.w3.org/2000/svg">
<path d="M3.91449 23.5807C2.6987 23.602 1.80286 22.4928 2.03748 21.2984C4.02114 11.4441 12.745 4 23.1752 4C27.953 4 32.4963 5.53574 36.2716 8.43657C39.9403 11.2521 42.6492 15.2194 43.9077 19.6347C44.1849 20.6372 43.609 21.661 42.6279 21.9596C41.604 22.2582 40.5376 21.6397 40.2816 20.5732C39.4284 16.9684 36.818 13.1925 34.2876 11.5C21.3405 2.84015 8.09511 10.3776 5.72752 22.0023C5.53555 22.8981 4.81034 23.5593 3.91449 23.5807Z" fill="url(#paint0_linear)"/>
<path d="M34.6067 18.9984C33.4686 17.2007 31.1635 16.2019 27.9648 16.3453C21.5891 16.6697 14.0925 21.4738 11.1955 27.1293C9.77122 29.9555 9.74455 32.4258 10.8798 34.1751C10.8798 34.1751 10.8798 34.1751 10.8906 34.1939L10.9774 34.3442L12.9933 37.4888C14.1206 39.2678 16.4257 40.2665 19.6244 40.1232C19.8181 40.1115 20.0117 40.0999 20.2054 40.0883C20.2726 40.0745 20.3211 40.0716 20.3883 40.0579C20.5335 40.0491 20.6492 40.0325 20.7944 40.0238C20.8616 40.01 20.9288 39.9963 21.0257 39.9904C21.1413 39.9738 21.2569 39.9571 21.3726 39.9405C21.4586 39.9159 21.5446 39.8913 21.6226 39.8963C21.7086 39.8717 21.7758 39.8579 21.8618 39.8333C21.8914 39.8413 21.9102 39.8304 21.929 39.8196C22.1978 39.7646 22.4479 39.7204 22.7059 39.6466C22.7543 39.6437 22.7919 39.622 22.8403 39.6191C23.0607 39.567 23.2703 39.4961 23.5095 39.4332C23.5283 39.4223 23.5767 39.4194 23.6142 39.3977C23.6627 39.3948 23.7002 39.3731 23.7378 39.3514C23.8722 39.3239 24.0146 39.2668 24.1678 39.2284C24.2429 39.185 24.3289 39.1604 24.4149 39.1358C24.5681 39.0975 24.7293 39.0295 24.8716 38.9724C24.928 38.9398 24.9952 38.9261 25.0436 38.9232C25.0624 38.9123 25.0812 38.9015 25.0812 38.9015L25.5083 38.73C25.5646 38.6975 25.6506 38.6729 25.7258 38.6295C25.9057 38.5507 26.0856 38.4718 26.2656 38.393C26.2844 38.3822 26.3219 38.3605 26.3516 38.3684C26.5691 38.2679 26.7569 38.1594 26.9744 38.0589L27.106 37.983C27.2671 37.915 27.4174 37.8282 27.5785 37.7602C27.5785 37.7602 27.5785 37.7602 27.5973 37.7494L28.9876 36.9467C29.1082 36.852 29.2397 36.7761 29.3525 36.711C29.4356 36.638 29.5107 36.5946 29.6046 36.5403C29.7174 36.4753 29.8192 36.3914 29.9508 36.3155L29.9963 36.2641C30.0526 36.2316 30.109 36.1991 30.1545 36.1477C30.286 36.0718 30.4067 35.9771 30.5461 35.8715C30.6213 35.8281 30.6856 35.766 30.7795 35.7117C30.8814 35.6279 31.0021 35.5332 31.1227 35.4384C31.1791 35.4059 31.2167 35.3842 31.2622 35.3329C31.281 35.322 31.3185 35.3003 31.3453 35.2599C31.5223 35.1326 31.7072 34.9757 31.8922 34.8188C31.9298 34.7971 31.9377 34.7675 31.9753 34.7458C32.1791 34.5781 32.372 34.3915 32.5649 34.205L32.64 34.1616C32.6855 34.1103 32.731 34.059 32.7766 34.0077C32.8784 33.9238 32.9803 33.8399 33.0525 33.7481C33.1356 33.6751 33.1999 33.6129 33.2722 33.5211C33.3553 33.4481 33.4463 33.3454 33.5294 33.2724C33.6016 33.1806 33.6659 33.1184 33.749 33.0454C33.8213 32.9536 33.8935 32.8618 33.9954 32.7779C34.0488 32.697 34.1131 32.6348 34.1854 32.543C34.2576 32.4512 34.3299 32.3594 34.413 32.2863C34.4585 32.235 34.4852 32.1945 34.5119 32.1541C34.5386 32.1136 34.5574 32.1027 34.5842 32.0622C34.7207 31.9083 34.8652 31.7246 34.9909 31.5519C35.0176 31.5114 35.0256 31.4818 35.0631 31.4601C35.2156 31.2468 35.368 31.0336 35.5016 30.8312C35.5363 30.7611 35.563 30.7206 35.6085 30.6692C35.7154 30.5073 35.8223 30.3454 35.9184 30.1647C35.9451 30.1242 35.9798 30.0541 36.0145 29.984C36.1134 29.8517 36.1828 29.7115 36.2521 29.5712C36.3056 29.4903 36.3402 29.4202 36.3749 29.35C36.4096 29.2799 36.4255 29.2207 36.471 29.1693C36.4869 29.1101 36.5215 29.04 36.5482 28.9995C36.5909 28.8997 36.6443 28.8188 36.6681 28.7299C36.7107 28.6301 36.7454 28.56 36.7692 28.4711C36.8227 28.3901 36.8465 28.3012 36.8891 28.2015C36.9238 28.1314 36.9476 28.0425 36.9714 27.9536C37.0061 27.8835 37.0487 27.7837 37.0725 27.6948C37.0963 27.6059 37.131 27.5358 37.1548 27.4469C37.1787 27.358 37.2025 27.2691 37.2371 27.199C37.2342 27.1505 37.2422 27.1209 37.2501 27.0913C37.2848 27.0212 37.2898 26.9431 37.3057 26.8838C37.3136 26.8542 37.3216 26.8246 37.3295 26.7949C37.3504 26.6576 37.3713 26.5203 37.4111 26.3721C37.4002 26.3533 37.4081 26.3237 37.4161 26.2941C37.437 26.1567 37.45 26.0491 37.4629 25.9414C37.4709 25.9117 37.4788 25.8821 37.468 25.8633C37.4868 25.8525 37.4759 25.8337 37.4759 25.8337C37.473 25.7853 37.4701 25.7368 37.4781 25.7072C37.5098 25.5887 37.4932 25.473 37.5061 25.3654C37.522 25.3061 37.5083 25.2389 37.5053 25.1905C37.5183 25.0828 37.5125 24.9859 37.5067 24.8891C37.4958 24.8703 37.5038 24.8407 37.5117 24.811C37.49 24.7735 37.498 24.7438 37.4951 24.6954C37.4813 24.6282 37.4755 24.5314 37.4618 24.4641C37.4668 24.3861 37.453 24.3189 37.4393 24.2517C37.4255 24.1845 37.4118 24.1173 37.3872 24.0313C37.3951 24.0016 37.4031 23.972 37.3814 23.9344C37.3705 23.9156 37.3676 23.8672 37.3568 23.8484C37.343 23.7812 37.3293 23.714 37.3047 23.628C37.3017 23.5796 37.2692 23.5232 37.2555 23.456C37.2417 23.3888 37.1983 23.3137 37.1846 23.2465C37.1629 23.2089 37.1708 23.1792 37.1491 23.1417L37.1057 23.0665C37.092 22.9993 37.0594 22.943 37.0269 22.8866C37.0131 22.8194 36.9806 22.763 36.9481 22.7067L36.7203 22.3121L34.6067 18.9984ZM32.5035 25.2477C31.2951 27.6237 28.989 30.0072 26.1637 31.8387C25.874 32.0311 25.5922 32.1938 25.2916 32.3673C22.7178 33.8533 19.9154 34.7699 17.5022 34.8856C15.2344 34.9926 13.5069 34.3868 12.7376 33.2278C12.6833 33.1338 12.6291 33.0399 12.5937 32.9351C12.5611 32.8787 12.5286 32.8224 12.5148 32.7552L12.4823 32.6988C12.4685 32.6316 12.4251 32.5565 12.4114 32.4893C12.3868 32.4033 12.3622 32.3173 12.3564 32.2204C12.3318 32.1344 12.318 32.0672 12.3231 31.9892C12.2985 31.9032 12.2926 31.8063 12.2868 31.7095C12.2839 31.6611 12.289 31.583 12.2752 31.5158C12.2808 30.9615 12.3695 30.3341 12.5926 29.6793C12.6085 29.62 12.6164 29.5904 12.6323 29.5311C12.7731 29.1242 12.9515 28.6955 13.1783 28.264C14.3866 25.8881 16.7116 23.4937 19.518 21.673C22.3353 19.8711 25.4946 18.7484 28.1686 18.6073C28.2951 18.6095 28.4404 18.6008 28.5669 18.6029C28.6933 18.605 28.8198 18.6071 28.9463 18.6093C29.0728 18.6114 29.1805 18.6244 29.3069 18.6265C29.4146 18.6395 29.5115 18.6337 29.63 18.6654C29.6488 18.6546 29.6676 18.6437 29.6784 18.6625C29.7565 18.6675 29.8345 18.6726 29.9126 18.6776C29.9422 18.6856 30.0015 18.7014 30.0607 18.7173C30.1092 18.7144 30.1684 18.7303 30.2169 18.7274C30.3058 18.7512 30.3542 18.7483 30.4243 18.783C30.532 18.7959 30.6209 18.8198 30.7206 18.8624C30.7691 18.8595 30.8283 18.8753 30.8876 18.8912C30.9469 18.9071 30.9765 18.915 31.017 18.9418C31.0762 18.9577 31.1355 18.9735 31.2056 19.0082C31.2353 19.0161 31.254 19.0053 31.2837 19.0132C31.3538 19.0479 31.4239 19.0826 31.494 19.1172C31.5641 19.1519 31.6343 19.1866 31.7044 19.2212C31.7232 19.2104 31.734 19.2292 31.7636 19.2371C31.8337 19.2718 31.9147 19.3252 31.9957 19.3787C32.2978 19.5549 32.5545 19.7825 32.7439 20.0238C32.8169 20.1069 32.8899 20.19 32.9442 20.284C33.6839 21.435 33.5305 23.252 32.5035 25.2477Z" fill="url(#paint1_linear)"/>
<g filter="url(#filter0_d)">
<path d="M19.5011 30.6253L19.0396 31.518L20.2314 31.4562L20.6849 30.5932C21.6476 30.4382 22.4641 30.117 23.1534 29.6189C23.8427 29.1207 24.3969 28.4751 24.8237 27.6525C25.0743 27.1321 25.2339 26.7143 25.2324 26.3645C25.2416 26.0335 25.1866 25.7647 25.0406 25.5985C24.8946 25.4323 24.5866 25.1593 24.1008 24.8385C23.5153 24.4752 23.1886 24.2129 23.1126 24.0814C23.0259 23.9311 23.0706 23.7049 23.2519 23.3247C23.3747 23.1035 23.4816 22.9416 23.621 22.836C23.7605 22.7305 23.9028 22.6733 24.0669 22.6538C24.2606 22.6421 24.3712 22.7035 24.3582 22.8112C24.3561 22.9377 24.255 23.1965 24.0469 23.6172L23.8469 24.0082L26.4537 23.8809C26.5685 23.6893 26.6566 23.5383 26.6993 23.4385C27.0568 22.7562 27.1217 22.2177 26.9156 21.8608C26.7095 21.5038 26.2295 21.2799 25.4786 21.2375L25.852 20.4959L24.6603 20.5577L24.2869 21.2993C23.3618 21.4326 22.572 21.7133 21.9253 22.1117C21.2598 22.521 20.7779 23.0747 20.4313 23.7759C20.1777 24.2479 20.0666 24.6628 20.079 25.0313C20.0914 25.3999 20.2057 25.6846 20.3625 25.8696C20.5599 26.0813 20.9271 26.3703 21.4968 26.7929C21.8315 27.0255 21.9913 27.2588 21.9653 27.4742C21.9206 27.7005 21.7769 28.059 21.5075 28.5902C21.4035 28.8006 21.2669 28.9546 21.1275 29.0601C20.988 29.1657 20.8269 29.2337 20.652 29.2345C20.4583 29.2461 20.3665 29.1738 20.3766 29.0177C20.3975 28.8804 20.5679 28.4814 20.8908 27.8692L21.1869 27.2974L18.5801 27.4247L18.3454 27.8859C17.8333 28.908 17.7208 29.6242 18.0346 29.9941C18.3404 30.3937 18.8391 30.6068 19.5011 30.6253Z" fill="url(#paint2_linear)"/>
</g>
<defs>
<filter id="filter0_d" x="13.8604" y="18.4961" width="17.172" height="19.0221" filterUnits="userSpaceOnUse" color-interpolation-filters="sRGB">
<feFlood flood-opacity="0" result="BackgroundImageFix"/>
<feColorMatrix in="SourceAlpha" type="matrix" values="0 0 0 0 0 0 0 0 0 0 0 0 0 0 0 0 0 0 127 0"/>
<feOffset dy="2"/>
<feGaussianBlur stdDeviation="2"/>
<feColorMatrix type="matrix" values="0 0 0 0 0 0 0 0 0 0 0 0 0 0 0 0 0 0 0.2 0"/>
<feBlend mode="normal" in2="BackgroundImageFix" result="effect1_dropShadow"/>
<feBlend mode="normal" in="SourceGraphic" in2="effect1_dropShadow" result="shape"/>
</filter>
<linearGradient id="paint0_linear" x1="22.9827" y1="23.9105" x2="22.9827" y2="4.24413" gradientUnits="userSpaceOnUse">
<stop stop-color="#3721A7"/>
<stop offset="1" stop-color="#803EFF"/>
</linearGradient>
<linearGradient id="paint1_linear" x1="29.0299" y1="37.3165" x2="18.8424" y2="19.6712" gradientUnits="userSpaceOnUse">
<stop stop-color="#3721A7"/>
<stop offset="1" stop-color="#803EFF"/>
</linearGradient>
<linearGradient id="paint2_linear" x1="24.3632" y1="29.2116" x2="20.7235" y2="22.9075" gradientUnits="userSpaceOnUse">
<stop stop-color="#3721A7"/>
<stop offset="1" stop-color="#803EFF"/>
</linearGradient>
</defs>
</svg>
