<svg width="92" height="92" viewBox="0 0 92 92" fill="none" xmlns="http://www.w3.org/2000/svg">
<path d="M47.2131 61.6822C45.373 61.6822 43.6297 61.5853 41.9832 61.3916C41.1116 63.716 39.7557 65.9436 38.2061 67.8806C41.2084 68.3648 44.3076 68.6554 47.4068 68.6554L47.31 61.9727L47.2131 61.6822Z" fill="url(#paint0_linear)"/>
<path d="M39.1747 48.8975C37.722 41.8274 32.4921 36.1132 25.6157 33.9825C23.6787 33.4014 21.7417 33.1108 19.8047 33.1108C14.8653 33.1108 10.1196 34.951 6.43931 38.2439C-1.59927 45.6045 -2.18037 58.0982 5.08341 66.2337C12.3472 74.3691 24.9377 74.8534 33.0732 67.5896C37.2377 63.8124 39.5621 58.5825 39.5621 52.9652C39.659 51.5124 39.4653 50.1565 39.1747 48.8975ZM21.8385 64.8778V66.6211C21.8385 67.6864 20.9669 68.5581 19.9015 68.5581C18.8362 68.5581 17.9645 67.6864 17.9645 66.6211V64.8778C14.6716 64.0061 12.444 61.0038 12.444 57.614C12.444 56.5486 13.3157 55.677 14.381 55.677C15.4464 55.677 16.3181 56.5486 16.3181 57.614C16.3181 59.551 17.8677 61.1006 19.8047 61.1006C21.7417 61.1006 23.2913 59.551 23.2913 57.614C23.2913 55.677 21.7417 54.1274 19.8047 54.1274C16.4149 54.1274 13.4125 51.803 12.5409 48.6069C11.4755 44.636 13.8968 40.4715 17.8677 39.4061V38.5345C17.8677 37.4691 18.7393 36.5975 19.8047 36.5975C20.87 36.5975 21.7417 37.4691 21.7417 38.5345V39.4061C24.9377 40.2778 27.1653 43.2801 27.1653 46.6699C27.1653 47.7352 26.2936 48.6069 25.2283 48.6069C24.1629 48.6069 23.2913 47.7352 23.2913 46.6699C23.2913 44.7329 21.7417 43.1833 19.8047 43.1833C17.8677 43.1833 16.3181 44.7329 16.3181 46.6699C16.3181 48.6069 17.8677 50.1565 19.8047 50.1565C23.1944 50.1565 26.0999 52.3841 27.0684 55.5801C28.1338 59.6478 25.8094 63.8124 21.8385 64.8778Z" fill="url(#paint1_linear)"/>
<path d="M47.2132 57.6142L47.1164 50.5441C45.8573 50.5441 44.6951 50.4473 43.5329 50.4473C43.6298 51.2221 43.6298 51.9969 43.6298 52.7717C43.6298 54.3213 43.4361 55.8709 43.1455 57.4205C44.4046 57.6142 45.7605 57.6142 47.2132 57.6142Z" fill="url(#paint2_linear)"/>
<path d="M68.9078 24.7817C67.5519 25.4597 66.0991 26.0408 64.6464 26.525C60.1913 27.881 54.2834 28.6558 48.1818 28.6558C42.3708 28.6558 36.7535 27.9778 32.3952 26.7187C30.9425 26.3313 29.4897 25.7502 28.1338 25.0723L28.2306 30.6896C30.4582 31.5613 32.5889 32.7235 34.4291 34.1762C34.5259 34.1762 34.5259 34.1762 34.6228 34.1762C38.3999 35.1447 43.2425 35.629 48.1818 35.629C53.896 35.629 59.4165 34.951 63.4842 33.692C67.7456 32.3361 68.7141 30.9802 68.7141 30.7865C68.7141 30.4959 68.7141 30.2054 68.9078 30.0117V24.7817V24.7817Z" fill="url(#paint3_linear)"/>
<path d="M27.9404 19.8425C28.0373 20.3268 29.1995 21.5858 33.4609 22.8449C37.5286 24.0071 42.6617 24.685 48.1822 24.685C53.8963 24.685 59.4168 24.0071 63.4845 22.748C67.7459 21.489 68.8113 20.1331 68.8113 19.8425C68.8113 19.552 67.8428 18.1961 63.5814 16.937C59.5137 15.678 53.9932 15 48.279 15C42.5648 15 37.2381 15.678 33.1704 16.937C28.9089 18.1961 27.9404 19.4551 27.9404 19.8425Z" fill="url(#paint4_linear)"/>
<path d="M91.6669 65.8467C90.311 66.5246 88.9551 67.1057 87.5023 67.4931C83.0472 68.849 77.2362 69.6238 71.1346 69.6238C65.711 69.6238 60.3842 69.0427 56.2196 67.8805C54.4763 67.3963 52.8299 66.8152 51.2803 66.0404L51.3771 71.7546C51.3771 72.0451 52.2488 73.401 56.4133 74.6601C60.3842 75.9191 65.711 76.5002 71.522 76.5002C77.2362 76.5002 82.6598 75.8223 86.6307 74.5632C90.7952 73.2073 91.7637 71.8514 91.7637 71.5609V65.8467H91.6669Z" fill="url(#paint5_linear)"/>
<path d="M68.9069 35.9194C67.551 36.5974 66.0982 37.1785 64.6455 37.6627C60.1904 39.0186 54.2825 39.7934 48.1809 39.7934C45.1786 39.7934 42.1762 39.5997 39.1738 39.2123C40.8203 41.4399 41.9825 43.958 42.7573 46.573C44.5006 46.6698 46.3408 46.7667 48.1809 46.7667C48.2778 46.7667 48.2778 46.7667 48.3746 46.7667C51.6675 43.1832 60.3841 41.4399 68.9069 41.1494V35.9194Z" fill="url(#paint6_linear)"/>
<path d="M87.4068 56.6458C82.9517 57.9049 77.2375 58.5828 71.2328 58.5828C65.4217 58.5828 59.8044 57.9049 55.4462 56.6458C53.9934 56.2584 52.5406 55.6773 51.0879 54.9994L51.1847 59.5513V61.1978C52.7343 63.1348 60.095 65.5561 71.1359 65.5561C76.8501 65.5561 82.2737 64.8781 86.3414 63.6191C90.6029 62.2631 91.5714 61.0041 91.5714 60.7135C91.5714 60.5198 91.6682 60.2293 91.6682 60.0356V54.8057C90.4092 55.5805 88.9564 56.1616 87.4068 56.6458Z" fill="url(#paint7_linear)"/>
<path d="M56.6084 52.9655C60.5792 54.1277 65.7123 54.7088 71.2328 54.7088C76.8501 54.7088 82.2737 54.0308 86.3414 52.8686C90.6997 51.5127 91.7651 50.1568 91.7651 49.8663C91.7651 49.5757 90.7966 48.2198 86.5351 46.9608C82.4674 45.7017 76.9469 45.1206 71.2328 45.1206H70.9422C65.6154 45.1206 60.6761 45.7017 56.8021 46.7671C52.7343 47.9293 51.2816 49.1883 51.0879 49.7694V49.8663C51.0879 49.8663 51.0879 49.8663 51.0879 49.9631C51.1847 50.3505 52.3469 51.7064 56.6084 52.9655Z" fill="url(#paint8_linear)"/>
<defs>
<linearGradient id="paint0_linear" x1="42.8051" y1="68.7776" x2="42.8051" y2="61.4822" gradientUnits="userSpaceOnUse">
<stop stop-color="#3721A7"/>
<stop offset="1" stop-color="#803EFF"/>
</linearGradient>
<linearGradient id="paint1_linear" x1="60.5" y1="95.9999" x2="4" y2="34.9999" gradientUnits="userSpaceOnUse">
<stop stop-color="#3721A7"/>
<stop offset="1" stop-color="#803EFF"/>
</linearGradient>
<linearGradient id="paint2_linear" x1="45.1788" y1="57.7348" x2="45.1788" y2="50.5366" gradientUnits="userSpaceOnUse">
<stop stop-color="#3721A7"/>
<stop offset="1" stop-color="#803EFF"/>
</linearGradient>
<linearGradient id="paint3_linear" x1="29.5" y1="28.4999" x2="69" y2="30.9999" gradientUnits="userSpaceOnUse">
<stop stop-color="#3721A7"/>
<stop offset="1" stop-color="#803EFF"/>
</linearGradient>
<linearGradient id="paint4_linear" x1="107" y1="30" x2="30" y2="12.5" gradientUnits="userSpaceOnUse">
<stop stop-color="#3721A7"/>
<stop offset="1" stop-color="#803EFF"/>
</linearGradient>
<linearGradient id="paint5_linear" x1="52.6367" y1="69.4984" x2="91.8518" y2="72.0075" gradientUnits="userSpaceOnUse">
<stop stop-color="#3721A7"/>
<stop offset="1" stop-color="#803EFF"/>
</linearGradient>
<linearGradient id="paint6_linear" x1="40.1701" y1="39.6376" x2="69.028" y2="40.9695" gradientUnits="userSpaceOnUse">
<stop stop-color="#3721A7"/>
<stop offset="1" stop-color="#803EFF"/>
</linearGradient>
<linearGradient id="paint7_linear" x1="52.4476" y1="58.4906" x2="91.7586" y2="60.9891" gradientUnits="userSpaceOnUse">
<stop stop-color="#3721A7"/>
<stop offset="1" stop-color="#803EFF"/>
</linearGradient>
<linearGradient id="paint8_linear" x1="144" y1="59.0001" x2="54.5" y2="43.5001" gradientUnits="userSpaceOnUse">
<stop stop-color="#3721A7"/>
<stop offset="1" stop-color="#803EFF"/>
</linearGradient>
</defs>
</svg>
