<?xml version="1.0" encoding="utf-8"?>
<!-- Generator: Adobe Illustrator 25.2.0, SVG Export Plug-In . SVG Version: 6.00 Build 0)  -->
<svg version="1.1" id="Layer_1" xmlns="http://www.w3.org/2000/svg" xmlns:xlink="http://www.w3.org/1999/xlink" x="0px" y="0px"
	 viewBox="0 0 1513 768" style="enable-background:new 0 0 1513 768;" xml:space="preserve">
<style type="text/css">
	.st0{opacity:0.3;fill:url(#SVGID_1_);}
</style>
<radialGradient id="SVGID_1_" cx="257.4635" cy="434.1079" r="1" gradientTransform="matrix(-185.002 -805.4999 -1586.9716 364.4854 737895.1875 49982.8281)" gradientUnits="userSpaceOnUse">
	<stop  offset="0" style="stop-color:#D6CFE6"/>
	<stop  offset="1" style="stop-color:#EEE9F9;stop-opacity:0"/>
</radialGradient>
<path class="st0" d="M1512.5,766.2v1.4l-0.7-0.7L1512.5,766.2z M766.4,0h1.4L0.7,767.6L0,766.9L766.4,0z M787.3,0h1.4L21.6,767.6
	l-0.7-0.7L787.3,0z M808.2,0h1.4L42.5,767.6l-0.7-0.7L808.2,0z M829,0h1.5L63.4,767.6l-0.7-0.7L829,0z M849.9,0h1.4L84.2,767.6
	l-0.7-0.7L849.9,0z M870.8,0h1.4L105.1,767.6l-0.7-0.7L870.8,0z M891.6,0h1.4L125.9,767.6l-0.7-0.7L891.6,0z M912.5,0h1.4
	L146.8,767.6l-0.7-0.7L912.5,0z M933.4,0h1.4L167.7,767.6l-0.7-0.7L933.4,0z M954.3,0h1.4L188.6,767.6l-0.7-0.7L954.3,0z M975.1,0
	h1.4l-767,767.6l-0.7-0.7L975.1,0z M996,0h1.4L230.3,767.6l-0.7-0.7L996,0z M1016.9,0h1.4L251.2,767.6l-0.7-0.7L1016.9,0z M1037.7,0
	h1.4L272,767.6l-0.7-0.7L1037.7,0z M1058.6,0h1.4L292.9,767.6l-0.7-0.7L1058.6,0z M1079.5,0h1.4L313.8,767.6l-0.7-0.7L1079.5,0z
	 M1100.3,0h1.4L334.6,767.6l-0.7-0.7L1100.3,0z M1121.2,0h1.4L355.5,767.6l-0.7-0.7L1121.2,0z M1142.1,0h1.4L376.4,767.6l-0.7-0.7
	L1142.1,0z M1162.9,0h1.4L397.2,767.6l-0.7-0.7L1162.9,0z M1183.8,0h1.4L418.1,767.6l-0.7-0.7L1183.8,0z M1204.7,0h1.4L439,767.6
	l-0.7-0.7L1204.7,0z M1225.6,0h1.4L459.9,767.6l-0.7-0.7L1225.6,0z M1246.4,0h1.4L480.7,767.6l-0.7-0.7L1246.4,0z M1267.3,0h1.4
	L501.6,767.6l-0.7-0.7L1267.3,0z M1288.2,0h1.4L522.5,767.6l-0.7-0.7L1288.2,0z M1309,0h1.5L543.4,767.6l-0.7-0.7L1309,0z M1329.9,0
	h1.4L564.2,767.6l-0.7-0.7L1329.9,0z M1350.8,0h1.4L585.1,767.6l-0.7-0.7L1350.8,0z M1371.6,0h1.4L605.9,767.6l-0.7-0.7L1371.6,0z
	 M1392.5,0h1.4L626.8,767.6l-0.7-0.7L1392.5,0z M1413.4,0h1.4L647.7,767.6l-0.7-0.7L1413.4,0z M1434.3,0h1.4L668.6,767.6l-0.7-0.7
	L1434.3,0z M1455.1,0h1.4l-767,767.6l-0.7-0.7L1455.1,0z M1476,0h1.4L710.3,767.6l-0.7-0.7L1476,0z M1496.9,0h1.4L731.2,767.6
	l-0.7-0.7L1496.9,0z M1512.5,5.3v1.4l-760.4,761l-0.7-0.7L1512.5,5.3z M1512.5,26.1v1.4L772.9,767.6l-0.7-0.7L1512.5,26.1z
	 M1512.5,47v1.4L793.8,767.6l-0.7-0.7L1512.5,47z M1512.5,67.9v1.4L814.7,767.6l-0.7-0.7L1512.5,67.9z M1512.5,88.8v1.4l-677,677.4
	l-0.7-0.7L1512.5,88.8z M1512.5,109.7v1.4L856.4,767.6l-0.7-0.7L1512.5,109.7z M1512.5,130.5v1.4L877.3,767.6l-0.7-0.7L1512.5,130.5
	z M1512.5,151.4v1.4L898.1,767.6l-0.7-0.7L1512.5,151.4z M1512.5,172.3v1.4L919,767.6l-0.7-0.7L1512.5,172.3z M1512.5,193.2v1.4
	l-572.6,573l-0.7-0.7L1512.5,193.2z M1512.5,214.1v1.4L960.8,767.6l-0.7-0.7L1512.5,214.1z M1512.5,235v1.4L981.6,767.6l-0.7-0.7
	L1512.5,235z M1512.5,255.8v1.4l-510,510.3l-0.7-0.7L1512.5,255.8z M1512.5,276.7v1.4l-489.1,489.5l-0.7-0.7L1512.5,276.7z
	 M1512.5,297.6v1.4l-468.3,468.6l-0.7-0.7L1512.5,297.6z M1512.5,318.5v1.4l-447.4,447.7l-0.7-0.7L1512.5,318.5z M1512.5,339.4v1.4
	L1086,767.6l-0.7-0.7L1512.5,339.4z M1512.5,360.3v1.4l-405.7,405.9l-0.7-0.7L1512.5,360.3z M1512.5,381.2v1.4l-384.8,385l-0.7-0.7
	L1512.5,381.2z M1512.5,402v1.4l-363.9,364.2l-0.7-0.7L1512.5,402z M1512.5,422.9v1.4l-343.1,343.3l-0.7-0.7L1512.5,422.9z
	 M1512.5,443.8v1.4l-322.2,322.4l-0.7-0.7L1512.5,443.8z M1512.5,464.7v1.4l-301.3,301.5l-0.7-0.7L1512.5,464.7z M1512.5,485.6v1.4
	l-280.4,280.6l-0.7-0.7L1512.5,485.6z M1512.5,506.5v1.4l-259.6,259.8l-0.7-0.7L1512.5,506.5z M1512.5,527.3v1.4l-238.7,238.9
	l-0.7-0.7L1512.5,527.3z M1512.5,548.2v1.4l-217.8,218l-0.7-0.7L1512.5,548.2z M1512.5,569.1v1.4l-197,197.1l-0.7-0.7L1512.5,569.1z
	 M1512.5,590v1.4l-176.1,176.2l-0.7-0.7L1512.5,590z M1512.5,610.9v1.4l-155.2,155.3l-0.7-0.7L1512.5,610.9z M1512.5,631.8v1.4
	l-134.4,134.5l-0.7-0.7L1512.5,631.8z M1512.5,652.6v1.4L1399,767.6l-0.7-0.7L1512.5,652.6z M1512.5,673.5v1.4l-92.6,92.7l-0.7-0.7
	L1512.5,673.5z M1512.5,694.4v1.4l-71.7,71.8l-0.7-0.7L1512.5,694.4z M1512.5,715.3v1.4l-50.9,50.9l-0.7-0.7L1512.5,715.3z
	 M1512.5,736.2v1.4l-30,30l-0.7-0.7L1512.5,736.2z"/>
</svg>
