<svg width="172" height="172" viewBox="0 0 172 172" fill="none" xmlns="http://www.w3.org/2000/svg">
<path d="M152.489 163.276H18.4795C8.86578 163.276 1 155.41 1 145.505V28.6834C1 18.7784 8.86578 10.9126 18.4795 10.9126H152.489C162.103 10.9126 169.969 18.7784 169.969 28.6834V145.505C169.969 155.118 162.103 163.276 152.489 163.276Z" fill="#546CD3"/>
<path d="M152.489 160.363H18.4795C8.86578 160.363 1 152.497 1 142.592V25.7708C1 15.8658 8.86578 8 18.4795 8H152.489C162.103 8 169.969 15.8658 169.969 25.7708V142.592C169.969 152.206 162.103 160.363 152.489 160.363Z" fill="url(#paint0_linear_4341_35)"/>
<g filter="url(#filter0_d_4341_35)">
<path d="M93.2786 117.274H47.672C40.9978 117.274 35.9922 111.712 35.9922 105.594V68.8863C35.9922 62.2122 41.554 57.2065 47.672 57.2065H93.2786C99.9528 57.2065 104.958 62.7683 104.958 68.8863V105.594C104.958 111.712 99.9528 117.274 93.2786 117.274Z" fill="url(#paint1_linear_4341_35)"/>
<path d="M134.988 107.264L110.516 92.803V81.1233L134.988 66.6626V107.264Z" fill="url(#paint2_linear_4341_35)"/>
</g>
<path d="M169.587 25.2469V29.4879C169.587 19.8749 161.756 12.241 152.184 12.241H18.7623C9.19068 12.241 1.35938 19.8749 1.35938 29.4879V25.2469C1.35938 15.6339 9.19068 8 18.7623 8H152.184C161.756 8 169.587 15.6339 169.587 25.2469Z" fill="url(#paint3_linear_4341_35)" fill-opacity="0.7"/>
<defs>
<filter id="filter0_d_4341_35" x="33.9922" y="57.2065" width="102.995" height="64.0673" filterUnits="userSpaceOnUse" color-interpolation-filters="sRGB">
<feFlood flood-opacity="0" result="BackgroundImageFix"/>
<feColorMatrix in="SourceAlpha" type="matrix" values="0 0 0 0 0 0 0 0 0 0 0 0 0 0 0 0 0 0 127 0" result="hardAlpha"/>
<feOffset dy="2"/>
<feGaussianBlur stdDeviation="1"/>
<feComposite in2="hardAlpha" operator="out"/>
<feColorMatrix type="matrix" values="0 0 0 0 0 0 0 0 0 0 0 0 0 0 0 0 0 0 0.34 0"/>
<feBlend mode="normal" in2="BackgroundImageFix" result="effect1_dropShadow_4341_35"/>
<feBlend mode="normal" in="SourceGraphic" in2="effect1_dropShadow_4341_35" result="shape"/>
</filter>
<linearGradient id="paint0_linear_4341_35" x1="85.516" y1="8" x2="85.516" y2="157.859" gradientUnits="userSpaceOnUse">
<stop stop-color="#F2F4FE"/>
<stop offset="1" stop-color="#7583FF"/>
</linearGradient>
<linearGradient id="paint1_linear_4341_35" x1="70.5665" y1="117.22" x2="70.5665" y2="57.7238" gradientUnits="userSpaceOnUse">
<stop stop-color="#4502C6"/>
<stop offset="0.385417" stop-color="#803EFF"/>
<stop offset="1" stop-color="#C1A2FF"/>
</linearGradient>
<linearGradient id="paint2_linear_4341_35" x1="122.784" y1="107.227" x2="122.784" y2="67.0122" gradientUnits="userSpaceOnUse">
<stop stop-color="#4502C6"/>
<stop offset="0.385417" stop-color="#803EFF"/>
<stop offset="1" stop-color="#C1A2FF"/>
</linearGradient>
<linearGradient id="paint3_linear_4341_35" x1="85.4734" y1="8" x2="85.4734" y2="24.8815" gradientUnits="userSpaceOnUse">
<stop stop-color="white"/>
<stop offset="1" stop-color="white" stop-opacity="0"/>
</linearGradient>
</defs>
</svg>
