<svg width="18" height="20" viewBox="0 0 18 20" fill="none" xmlns="http://www.w3.org/2000/svg">
<path d="M15.1788 3.00097H14.6066V2.37676C14.6066 1.59 13.9824 0.946289 13.2151 0.946289C12.4479 0.946289 11.8236 1.59 11.8236 2.37676V3.00097H10.3997V2.37676C10.3997 1.59 9.77547 0.946289 9.00821 0.946289C8.24096 0.946289 7.61675 1.59 7.61675 2.37676V3.00097H6.19928V2.37676C6.19928 1.59 5.58158 0.946289 4.81432 0.946289C4.04707 0.946289 3.42286 1.59 3.42286 2.37676V3.00097H2.69462C1.47872 3.00097 0.483887 3.9893 0.483887 5.2117V17.6958C0.483887 18.9182 1.47872 19.9066 2.69462 19.9066H15.1788C16.4012 19.9066 17.3895 18.9182 17.3895 17.6958V5.2117C17.3895 3.9893 16.4012 3.00097 15.1788 3.00097ZM12.6104 2.37676C12.6104 2.01914 12.8835 1.72655 13.2151 1.72655C13.5532 1.72655 13.8263 2.01914 13.8263 2.37676V4.92561C13.8263 5.28323 13.5532 5.57582 13.2151 5.57582C12.877 5.57582 12.6104 5.28323 12.6104 4.92561V2.37676ZM8.41001 2.37676C8.41001 2.01914 8.6831 1.72655 9.01471 1.72655C9.35283 1.72655 9.62592 2.01914 9.62592 2.37676V4.92561C9.62592 5.28323 9.35283 5.57582 9.01471 5.57582C8.6766 5.57582 8.41001 5.28323 8.41001 4.92561V2.37676ZM4.20312 2.37676C4.20312 2.01914 4.47621 1.72655 4.80782 1.72655C5.14593 1.72655 5.41902 2.01914 5.41902 2.37676V4.92561C5.41902 5.28323 5.14593 5.57582 4.80782 5.57582C4.47621 5.57582 4.20312 5.28323 4.20312 4.92561V2.37676ZM16.0891 17.6958C16.0891 18.1965 15.6794 18.6061 15.1788 18.6061H2.69462C2.19395 18.6061 1.78432 18.1965 1.78432 17.6958V6.25205H16.0891V17.6958Z" fill="#707786"/>
<path d="M5.34689 8.55396H2.9541V10.6802H5.34689V8.55396Z" fill="#707786"/>
<path d="M8.54123 8.55396H6.14844V10.6802H8.54123V8.55396Z" fill="#707786"/>
<path d="M11.7312 8.55396H9.33838V10.6802H11.7312V8.55396Z" fill="#707786"/>
<path d="M14.9196 8.55396H12.5269V10.6802H14.9196V8.55396Z" fill="#707786"/>
<path d="M5.34689 11.3954H2.9541V13.5216H5.34689V11.3954Z" fill="#707786"/>
<path d="M8.54123 11.3954H6.14844V13.5216H8.54123V11.3954Z" fill="#707786"/>
<path d="M11.7312 11.3954H9.33838V13.5216H11.7312V11.3954Z" fill="#707786"/>
<path d="M14.9196 11.3954H12.5269V13.5216H14.9196V11.3954Z" fill="#707786"/>
<path d="M5.34689 14.2303H2.9541V16.3566H5.34689V14.2303Z" fill="#707786"/>
<path d="M8.54123 14.2303H6.14844V16.3566H8.54123V14.2303Z" fill="#707786"/>
<path d="M11.7312 14.2303H9.33838V16.3566H11.7312V14.2303Z" fill="#707786"/>
<path d="M14.9196 14.2303H12.5269V16.3566H14.9196V14.2303Z" fill="#707786"/>
</svg>
