<svg width="1920" height="593" viewBox="0 0 1920 593" fill="none" xmlns="http://www.w3.org/2000/svg">
<g opacity="0.5">
<mask id="mask0_6422_160" style="mask-type:alpha" maskUnits="userSpaceOnUse" x="0" y="0" width="1920" height="593">
<rect width="1920" height="593" fill="#F0F2FF"/>
</mask>
<g mask="url(#mask0_6422_160)">
<path d="M-65.3424 815.946C54.0764 424.696 203.887 311.263 318.927 280.225C549.236 218.085 700.506 469.892 1093.03 533.815C1416.41 586.478 1734.52 484.092 1955.02 387.75" stroke="#FF0054" stroke-width="0.9582" stroke-miterlimit="10"/>
<path d="M-94.0719 805.142C16.2554 448.415 157.562 321.085 276.655 290.891C497.593 234.877 632.41 456.024 1003.31 522.053C1384.42 589.906 1734.97 449.791 1948.64 337.954" stroke="#E6036F" stroke-width="0.9582" stroke-miterlimit="10"/>
<path d="M-122.807 794.347C-21.5802 472.148 111.206 330.792 234.387 301.564C445.866 251.379 563.831 443.526 913.582 510.307C1352.19 594.052 1735.41 415.499 1942.25 288.171" stroke="#CE058B" stroke-width="0.9582" stroke-miterlimit="10"/>
<path d="M-151.527 783.548C-59.401 495.876 64.8179 340.368 192.122 312.228C394.07 267.593 494.921 431.891 823.867 498.542C1319.68 599.015 1735.87 381.195 1935.88 238.366" stroke="#B508A6" stroke-width="0.9582" stroke-miterlimit="10"/>
<path d="M-180.26 772.753C-97.2283 519.597 18.3779 349.784 149.846 322.904C342.213 283.567 425.752 420.85 734.144 486.796C1286.73 604.96 1736.32 346.9 1929.5 188.587" stroke="#9C0AC1" stroke-width="0.9582" stroke-miterlimit="10"/>
<path d="M-208.99 761.957C-135.059 543.328 -28.0632 359.015 107.574 333.579C290.336 299.305 356.368 410.22 644.415 475.052C1253.23 612.07 1736.76 312.617 1923.1 138.805" stroke="#840CDD" stroke-width="0.9582" stroke-miterlimit="10"/>
<path d="M-237.723 751.155C-172.884 567.049 -74.52 368.009 65.2947 344.24C238.453 314.801 286.815 399.875 554.686 463.283C1219.05 620.553 1737.21 278.31 1916.72 89.0032" stroke="#6B0FF8" stroke-width="0.9582" stroke-miterlimit="10"/>
</g>
</g>
</svg>
