<svg width="113" height="72" viewBox="0 0 113 72" fill="none" xmlns="http://www.w3.org/2000/svg">
<path d="M75.2409 31.1546L75.2222 36.4284C75.2222 36.4847 75.2184 36.5372 75.2184 36.5935C75.2184 36.6497 75.2109 36.706 75.2072 36.7622C75.2034 36.856 75.1959 36.9498 75.1884 37.0436C75.1809 37.1261 75.1697 37.2086 75.1584 37.2911C75.1434 37.3849 75.1321 37.4824 75.1096 37.5725C75.1059 37.6062 75.1021 37.6437 75.0946 37.6737C75.0871 37.7262 75.0721 37.7713 75.0608 37.8238C75.0421 37.9138 75.0158 38.0076 74.9933 38.0976C74.9708 38.1801 74.9445 38.2664 74.922 38.3489C74.892 38.4389 74.862 38.5289 74.832 38.619C74.8169 38.6565 74.8057 38.6977 74.7944 38.7352C74.7794 38.7803 74.7569 38.8178 74.7382 38.859C74.7006 38.9566 74.6594 39.0503 74.6181 39.1441C74.5843 39.2229 74.5468 39.3054 74.5093 39.3842C74.4605 39.4779 74.4155 39.5717 74.3629 39.6655C74.3404 39.7142 74.3142 39.7555 74.2916 39.8043C74.2729 39.8343 74.2541 39.868 74.2316 39.8943C74.1678 40.0068 74.0965 40.1194 74.029 40.2281C73.984 40.2994 73.9427 40.3669 73.8939 40.4307C73.8114 40.5507 73.7213 40.6745 73.6275 40.7945C73.5975 40.8395 73.5637 40.8845 73.5299 40.9296C73.5224 40.9408 73.5112 40.9521 73.5037 40.9633C73.4812 40.9896 73.4587 41.0196 73.4361 41.0421C73.3386 41.1621 73.2373 41.2859 73.1285 41.4022C73.1022 41.4359 73.0684 41.4697 73.0422 41.4997C72.9146 41.6385 72.7833 41.7735 72.6444 41.9123C72.6219 41.9348 72.5919 41.9611 72.5694 41.9836C72.5656 41.9873 72.5656 41.9873 72.5619 41.9911C72.4943 42.0586 72.4268 42.1261 72.3593 42.1861C72.3255 42.2161 72.2842 42.2499 72.2505 42.2837C72.1604 42.3624 72.0703 42.4412 71.9765 42.52C71.894 42.595 71.8077 42.6663 71.7176 42.7375C71.6238 42.8163 71.5225 42.8951 71.4212 42.9701C71.3274 43.0413 71.2374 43.1126 71.1398 43.1839C71.0385 43.2589 70.9259 43.3339 70.8209 43.4089C70.7233 43.4765 70.622 43.5477 70.5169 43.6115C70.4081 43.6865 70.2881 43.7578 70.1755 43.829C70.1042 43.8741 70.0367 43.9191 69.9691 43.9641C69.8941 44.0091 69.8153 44.0541 69.7402 44.0991C69.6427 44.1591 69.5451 44.2116 69.4401 44.2679C69.2562 44.3692 69.0686 44.4705 68.8735 44.568C68.8735 44.5717 68.8697 44.5717 68.8697 44.5717C68.7834 44.6167 68.6971 44.658 68.6108 44.703C68.3819 44.8155 68.1456 44.9281 67.9129 45.0331C67.8341 45.0669 67.7553 45.1044 67.6728 45.1381C67.3651 45.2732 67.0537 45.4007 66.731 45.5245C66.6747 45.5432 66.6222 45.562 66.5621 45.5845C66.2957 45.6858 66.0218 45.7795 65.7442 45.8733C65.6916 45.8883 65.6504 45.9033 65.6016 45.9221C65.534 45.9446 65.4627 45.9671 65.399 45.9858C65.2489 46.0346 65.095 46.0796 64.9374 46.1284C64.8061 46.1621 64.6785 46.2034 64.5472 46.2372C64.3896 46.2822 64.232 46.3234 64.0744 46.3647C63.9431 46.3985 63.8118 46.4322 63.6767 46.4622C63.5154 46.4997 63.3578 46.541 63.1964 46.5747C63.0614 46.601 62.93 46.6348 62.7949 46.661C62.6298 46.6948 62.4648 46.7285 62.2997 46.7585C62.2059 46.7735 62.1158 46.7923 62.022 46.8148C61.9882 46.8186 61.9545 46.8223 61.9207 46.8298C61.568 46.8936 61.2153 46.9461 60.8513 46.9986C60.7988 47.0061 60.75 47.0099 60.6975 47.0174C60.386 47.0624 60.0746 47.0961 59.7594 47.1299C59.7106 47.1336 59.6619 47.1411 59.6131 47.1449C59.5418 47.1524 59.4668 47.1561 59.3955 47.1636C59.1966 47.1787 58.9902 47.1974 58.7914 47.2162C58.66 47.2237 58.5362 47.2312 58.4086 47.2387C58.1948 47.2537 57.9846 47.2612 57.7708 47.2687C57.6845 47.2724 57.5982 47.2799 57.5156 47.2837H57.4143C57.2305 47.2912 57.0466 47.2912 56.859 47.2949C56.7314 47.2949 56.6038 47.2987 56.4725 47.2987C56.2774 47.2987 56.0785 47.2987 55.8834 47.2949C55.7821 47.2912 55.6808 47.2949 55.5757 47.2912H55.5307C55.3506 47.2837 55.1705 47.2762 54.9904 47.2687C54.8628 47.2649 54.739 47.2612 54.6114 47.2537C54.4201 47.2424 54.2212 47.2312 54.0298 47.2162C53.9248 47.2087 53.816 47.2049 53.7147 47.1974C53.7072 47.1974 53.7034 47.1937 53.6959 47.1937C53.4595 47.1749 53.2269 47.1486 52.9942 47.1261C52.9267 47.1186 52.8554 47.1149 52.7916 47.1074C52.4877 47.0736 52.1875 47.0324 51.8873 46.9949C51.8873 46.9949 51.8836 46.9949 51.8798 46.9911C51.8348 46.9874 51.7935 46.9799 51.7485 46.9724C51.4896 46.9348 51.2307 46.8936 50.9756 46.8523C50.8705 46.8336 50.7617 46.8148 50.6566 46.7923C50.4615 46.7585 50.2664 46.721 50.0713 46.6835C50.0525 46.6798 50.0263 46.676 50.0075 46.6723C49.9287 46.6535 49.8499 46.6348 49.7674 46.616C49.5535 46.5672 49.3434 46.5222 49.1332 46.4697C49.0169 46.4435 48.8969 46.4097 48.7805 46.3835C48.5929 46.3347 48.3978 46.2859 48.2102 46.2297C48.1502 46.2147 48.0939 46.2034 48.0376 46.1846C47.9851 46.1696 47.9363 46.1546 47.8875 46.1359C47.5836 46.0496 47.2909 45.9558 46.9945 45.8583C46.9382 45.8433 46.8894 45.8283 46.8331 45.8058C46.4955 45.6933 46.1653 45.5695 45.8388 45.4457C45.8088 45.4307 45.7713 45.4232 45.7413 45.412C45.64 45.3669 45.5424 45.3257 45.4373 45.2882C45.336 45.2432 45.231 45.2019 45.1259 45.1569C44.9758 45.0931 44.8295 45.0256 44.6869 44.9618C44.5931 44.9168 44.4955 44.8756 44.4017 44.8306C44.2404 44.7518 44.0865 44.673 43.929 44.5942C43.8502 44.5567 43.7714 44.5192 43.6963 44.478C43.4637 44.3617 43.2386 44.2341 43.0172 44.1066C39.2913 41.9573 37.4339 39.1404 37.4414 36.3234L37.4602 31.3196V31.0608C37.4602 31.1621 37.4639 31.2633 37.4677 31.3684C37.4714 31.4359 37.4752 31.4997 37.4827 31.5634C37.4902 31.7322 37.5127 31.9048 37.5427 32.0736C37.554 32.1561 37.569 32.2423 37.5915 32.3286C37.6065 32.4111 37.6215 32.4974 37.6478 32.5799C37.6628 32.6474 37.6778 32.715 37.7003 32.7787C37.7228 32.865 37.7491 32.9475 37.7754 33.0338C37.7791 33.0525 37.7866 33.0676 37.7904 33.0863C37.8016 33.1088 37.8091 33.1351 37.8129 33.1576C37.8354 33.2213 37.8579 33.2776 37.8767 33.3376C37.8767 33.3414 37.8767 33.3414 37.8767 33.3414C37.8842 33.3676 37.8954 33.3939 37.9029 33.4164C37.918 33.4614 37.9367 33.5027 37.9592 33.5477C37.963 33.5627 37.9705 33.5777 37.9742 33.5927C38.0043 33.6677 38.038 33.739 38.068 33.814C38.0755 33.8327 38.0831 33.8478 38.0906 33.8703C38.1243 33.9453 38.1618 34.0203 38.1956 34.0953C38.2406 34.1778 38.2819 34.2604 38.3269 34.3429C38.3757 34.4254 38.4207 34.5079 38.4695 34.5942C38.4995 34.6467 38.5333 34.6955 38.5633 34.7517C38.6346 34.8643 38.7097 34.9805 38.7885 35.0968C38.811 35.1268 38.8372 35.1643 38.8598 35.1981C38.886 35.2356 38.916 35.2769 38.9423 35.3144C38.9536 35.3294 38.9611 35.3406 38.9723 35.3594C39.0173 35.4194 39.0624 35.4794 39.1112 35.5394C39.3588 35.8583 39.6365 36.1771 39.9404 36.4847C39.9929 36.5409 40.0454 36.5935 40.1017 36.646C40.5107 37.0473 40.9685 37.4337 41.475 37.8088C41.5726 37.8838 41.6701 37.9551 41.7714 38.0226C42.0679 38.2326 42.3756 38.4314 42.6982 38.6265C42.8071 38.6977 42.9234 38.7653 43.0397 38.829C43.2536 38.9528 43.4749 39.0766 43.7001 39.1891C43.7076 39.1929 43.7113 39.1966 43.7188 39.2004C43.7939 39.2454 43.8727 39.2791 43.9515 39.3166C44.0303 39.3542 44.1091 39.3954 44.1879 39.4329C44.2667 39.4704 44.3455 39.5117 44.4242 39.5492C44.443 39.5567 44.458 39.5642 44.4805 39.5717C44.5556 39.6055 44.6344 39.643 44.7132 39.6767C44.8595 39.7443 45.0021 39.8118 45.1522 39.8718C45.1972 39.8905 45.2385 39.9055 45.2835 39.9281C45.3435 39.9506 45.4036 39.9806 45.4636 40.0031C45.5987 40.0593 45.7263 40.1081 45.8613 40.1644C45.9139 40.1831 45.9626 40.2019 46.0152 40.2206C46.2591 40.3144 46.4992 40.4044 46.7468 40.4869C46.7844 40.4982 46.8219 40.5132 46.8594 40.5245C46.9157 40.5432 46.9645 40.5582 47.017 40.577C47.2159 40.6445 47.4222 40.712 47.6249 40.7683C47.7187 40.7983 47.8162 40.8283 47.91 40.8545C48.0151 40.8845 48.1239 40.9183 48.2327 40.9446C48.2552 40.9521 48.2852 40.9596 48.3078 40.9633C48.4128 40.9933 48.5254 41.0271 48.6342 41.0496C48.6905 41.0683 48.7468 41.0796 48.8068 41.0984C48.9194 41.1284 49.0394 41.1584 49.1558 41.1846C49.2533 41.2071 49.3546 41.2334 49.4597 41.2559C49.5685 41.2821 49.6811 41.3084 49.7936 41.3309C49.8912 41.3534 49.9925 41.3759 50.0938 41.3984C50.1163 41.4022 50.1426 41.4059 50.1651 41.4097C50.3339 41.4434 50.5065 41.4772 50.6791 41.5072C50.7842 41.526 50.893 41.5447 50.9981 41.5672C51.2495 41.6122 51.5046 41.6497 51.7598 41.6873C51.8123 41.6948 51.8573 41.7023 51.9099 41.7098C52.21 41.7548 52.5102 41.7885 52.8141 41.8223C52.8817 41.8298 52.953 41.8335 53.0167 41.841C53.2531 41.8635 53.4858 41.8898 53.7184 41.9086C53.8272 41.9198 53.9435 41.9236 54.0524 41.9311C54.2437 41.9461 54.4426 41.9611 54.6339 41.9686C54.7615 41.9761 54.8853 41.9798 55.0054 41.9836C55.1743 41.9911 55.3394 41.9986 55.5045 42.0023C55.5195 42.0061 55.5345 42.0061 55.5532 42.0061C55.6658 42.0061 55.7859 42.0061 55.8984 42.0098C56.041 42.0136 56.1836 42.0136 56.3299 42.0136H56.4913C56.6226 42.0136 56.7464 42.0098 56.8778 42.0098C56.9678 42.0061 57.0616 42.0061 57.1517 42.0061C57.2455 42.0061 57.3355 42.0023 57.4256 41.9986C57.5456 41.9948 57.6657 41.9911 57.7858 41.9836C57.9321 41.9798 58.0747 41.9723 58.221 41.9648C58.2886 41.9611 58.3524 41.9573 58.4161 41.9536C58.5475 41.9461 58.6713 41.9386 58.8026 41.9311C58.9077 41.9236 59.0165 41.9161 59.1216 41.9048C59.2154 41.8973 59.3129 41.8898 59.4105 41.8823C59.5268 41.871 59.6506 41.8598 59.7669 41.8485C59.827 41.841 59.887 41.8373 59.947 41.8298C60.0446 41.8185 60.1384 41.8073 60.236 41.796C60.3935 41.781 60.5511 41.7585 60.705 41.736C60.7575 41.7285 60.8063 41.7248 60.8588 41.7173C60.8738 41.7135 60.8851 41.7135 60.9038 41.7098C61.204 41.6722 61.4929 41.6235 61.7856 41.571C61.8344 41.5635 61.8832 41.556 61.9319 41.5485C62.0633 41.526 62.1871 41.4997 62.3147 41.4772C62.401 41.4622 62.491 41.4434 62.5773 41.4247C62.6561 41.4097 62.7312 41.3947 62.81 41.3759C62.945 41.3497 63.0764 41.3159 63.2114 41.2897C63.2752 41.2746 63.3428 41.2634 63.4028 41.2409C63.4966 41.2221 63.5904 41.1959 63.688 41.1734C63.823 41.1434 63.9544 41.1096 64.0857 41.0758C64.1195 41.0683 64.157 41.0571 64.1908 41.0496C64.2846 41.0271 64.3821 40.9971 64.4759 40.9708C64.5022 40.9671 64.5285 40.9596 64.5547 40.9521C64.686 40.9183 64.8136 40.877 64.945 40.8433C65.0237 40.8208 65.0988 40.7945 65.1738 40.772C65.2526 40.7495 65.3314 40.7233 65.4065 40.7008C65.5228 40.667 65.6354 40.6257 65.7479 40.592C65.7742 40.5807 65.808 40.5732 65.8342 40.562C65.943 40.5282 66.0518 40.4907 66.1569 40.4532C66.1607 40.4532 66.1607 40.4532 66.1607 40.4532C66.2995 40.4044 66.4346 40.3594 66.5696 40.3069C66.6259 40.2844 66.6822 40.2619 66.7385 40.2431C66.7573 40.2356 66.7723 40.2281 66.7948 40.2206C66.9974 40.1456 67.2038 40.0631 67.3989 39.9768C67.4927 39.9431 67.5827 39.9018 67.6728 39.8643C67.6765 39.8643 67.6765 39.8605 67.6803 39.8605C67.7628 39.8268 67.8416 39.7893 67.9204 39.7555C68.1568 39.6505 68.3932 39.538 68.6183 39.4254C68.7009 39.3879 68.7834 39.3429 68.8622 39.3054C68.866 39.3016 68.8697 39.3016 68.8735 39.2979C68.9898 39.2379 69.1099 39.1779 69.2262 39.1141C69.2937 39.0803 69.3613 39.0428 69.4251 39.0091C69.5301 38.9491 69.6389 38.889 69.744 38.829C69.819 38.784 69.8903 38.7428 69.9654 38.694C70.1305 38.5965 70.2843 38.4989 70.4419 38.3939C70.4682 38.3789 70.4982 38.3639 70.5244 38.3414C70.6258 38.2739 70.7271 38.2026 70.8284 38.1388C70.9334 38.0638 71.046 37.9888 71.1473 37.9138C71.2449 37.8425 71.3349 37.7713 71.4287 37.7C71.5263 37.625 71.6238 37.5462 71.7251 37.4674C71.8152 37.3962 71.8977 37.3249 71.984 37.2499C72.0779 37.1711 72.1679 37.0923 72.258 37.0136C72.3593 36.9198 72.4531 36.8298 72.5544 36.7397C72.5619 36.7285 72.5731 36.721 72.5806 36.7135C72.6032 36.691 72.6332 36.6647 72.6557 36.6422C72.7945 36.5034 72.9259 36.3684 73.0534 36.2296C73.0722 36.2071 73.0984 36.1808 73.121 36.1546C73.1285 36.1471 73.1322 36.1396 73.1397 36.1321C73.2448 36.0158 73.3461 35.892 73.4474 35.772C73.4699 35.7495 73.4924 35.7195 73.5149 35.6932C73.5675 35.6295 73.6087 35.5619 73.6575 35.5019C73.7476 35.3894 73.8301 35.2731 73.9089 35.1606C73.9314 35.1306 73.9539 35.0931 73.9727 35.0631C74.0065 35.0106 74.0402 34.9618 74.0703 34.9093C74.1341 34.8155 74.1903 34.7217 74.2466 34.6242C74.2729 34.5754 74.3029 34.5304 74.3254 34.4817C74.3554 34.4254 74.3892 34.3729 74.4155 34.3166C74.4492 34.2491 74.4868 34.1778 74.5205 34.1141C74.558 34.0353 74.5956 33.9528 74.6293 33.874C74.6744 33.7802 74.7119 33.6865 74.7494 33.5889C74.7794 33.5102 74.8132 33.4276 74.8395 33.3451C74.8732 33.2551 74.9033 33.1651 74.9333 33.0751C74.952 33 74.9783 32.925 74.9971 32.8537C75.0008 32.8387 75.0046 32.8237 75.0083 32.8087C75.0308 32.7225 75.0533 32.6324 75.0721 32.5462C75.0909 32.4636 75.1096 32.3811 75.1246 32.2986C75.1434 32.2011 75.1546 32.1073 75.1734 32.0135C75.1809 31.946 75.1922 31.8785 75.1997 31.8147C75.1997 31.781 75.2034 31.7472 75.2072 31.7172C75.2147 31.6384 75.2184 31.5634 75.2222 31.4847C75.2222 31.4546 75.2222 31.4209 75.2259 31.3946C75.2259 31.3909 75.2259 31.3909 75.2259 31.3871C75.2297 31.3084 75.2334 31.2296 75.2409 31.1546Z" fill="url(#paint0_linear_6422_1037)"/>
<path d="M69.666 23.3604C62.2668 19.0918 50.3123 19.0918 42.9618 23.3604C35.6113 27.629 35.6526 34.5534 43.0519 38.822C50.4474 43.0906 62.4056 43.0906 69.7523 38.822C77.1029 34.5534 77.0616 27.6328 69.666 23.3604Z" fill="url(#paint1_linear_6422_1037)"/>
<path d="M56.4144 39.5033C51.9193 39.5033 47.5593 38.4718 44.4488 36.6752C41.7998 35.1448 40.2801 33.2019 40.2764 31.3377C40.2726 29.496 41.766 27.5718 44.3662 26.0602C47.4543 24.2673 51.803 23.2358 56.2906 23.2358C60.7857 23.2358 65.1457 24.2673 68.26 26.064C70.909 27.5906 72.4286 29.5373 72.4324 31.3977C72.4361 33.2394 70.9428 35.1636 68.3388 36.6752C65.2507 38.4756 60.9057 39.5033 56.4144 39.5033C56.4144 39.5033 56.4182 39.5033 56.4144 39.5033Z" fill="url(#paint2_linear_6422_1037)"/>
<path d="M56.3823 34.9101C54.4237 34.9101 52.5251 34.4601 51.1705 33.68C50.0149 33.0125 49.3545 32.1687 49.3545 31.3549C49.3545 30.5523 50.0036 29.716 51.1368 29.056C52.4838 28.276 54.3749 27.8259 56.3297 27.8259C58.2884 27.8259 60.187 28.276 61.5415 29.056C62.6934 29.7198 63.3575 30.5673 63.3575 31.3774C63.3575 32.1799 62.7084 33.0162 61.5753 33.6763C60.232 34.4638 58.3371 34.9101 56.3823 34.9101Z" fill="url(#paint3_linear_6422_1037)"/>
<path d="M44.3662 26.0634C47.4543 24.2708 51.803 23.2395 56.2906 23.2395C60.7857 23.2395 65.1457 24.2708 68.26 26.0671C70.7101 27.4809 72.1922 29.251 72.4024 30.9836C72.4211 30.8411 72.4324 30.7024 72.4324 30.5599C72.4286 28.6998 70.909 26.7534 68.26 25.2271C65.1457 23.4307 60.7857 22.3994 56.2906 22.3994C51.7993 22.3994 47.4543 23.427 44.3662 25.2233C41.7622 26.7347 40.2726 28.6585 40.2764 30.4999C40.2764 30.6386 40.2876 30.7774 40.3064 30.9161C40.509 29.206 41.9611 27.4584 44.3662 26.0634Z" fill="url(#paint4_linear_6422_1037)"/>
<path opacity="0.39" d="M43.0456 39.7069C50.4412 44.178 62.3994 44.178 69.7462 39.7069C73.4046 37.4827 75.2319 34.5682 75.2319 31.65V31.5863C75.2319 31.5188 75.2244 31.4512 75.2244 31.3837C75.2206 31.4175 75.2206 31.4475 75.2206 31.4812C75.2169 31.575 75.2094 31.6725 75.2019 31.7663C75.1944 31.8488 75.1831 31.9313 75.1718 32.0139C75.1568 32.1076 75.1456 32.2014 75.1268 32.2989C75.1118 32.3815 75.093 32.464 75.0743 32.5465C75.0518 32.6403 75.033 32.7303 75.0067 32.8203C74.9842 32.9028 74.958 32.9853 74.9354 33.0716C74.9054 33.1616 74.8754 33.2554 74.8454 33.3454C74.8154 33.428 74.7854 33.5067 74.7516 33.5892C74.7141 33.6868 74.6728 33.7805 74.6315 33.8743C74.594 33.9531 74.5602 34.0318 74.519 34.1144C74.4739 34.2081 74.4252 34.3019 74.3726 34.3957C74.3313 34.4707 74.2901 34.5495 74.245 34.6245C74.1813 34.737 74.11 34.8495 74.0387 34.9583C73.9936 35.0258 73.9524 35.0933 73.9074 35.1609C73.8248 35.2846 73.731 35.4047 73.6409 35.5247C73.5959 35.581 73.5584 35.6372 73.5134 35.6935C73.4909 35.7197 73.4721 35.746 73.4496 35.7723C73.352 35.8923 73.247 36.0123 73.1419 36.1323C73.1119 36.1661 73.0856 36.1961 73.0556 36.2299C72.928 36.3686 72.7967 36.5037 72.6616 36.6387C72.6354 36.665 72.6091 36.6875 72.5866 36.7137C72.4815 36.815 72.3727 36.9125 72.2639 37.0138C72.1738 37.0926 72.0838 37.1713 71.99 37.2501C71.9037 37.3214 71.8174 37.3964 71.7311 37.4676C71.6335 37.5464 71.536 37.6214 71.4347 37.7002C71.3409 37.7715 71.2508 37.839 71.1532 37.9103C71.0482 37.9853 70.9431 38.0603 70.8343 38.1353C70.7368 38.2028 70.6354 38.2703 70.5341 38.3379C70.4216 38.4129 70.309 38.4841 70.1927 38.5554C70.0464 38.6454 69.9038 38.7354 69.7537 38.8217C69.4723 38.9868 69.1796 39.1405 68.8832 39.2906C68.7969 39.3356 68.7106 39.3768 68.6243 39.4181C68.3954 39.5306 68.1628 39.6432 67.9264 39.7482C67.8476 39.7857 67.7688 39.8195 67.6862 39.857C67.3786 39.992 67.0634 40.1195 66.7444 40.2395C66.6881 40.2621 66.6319 40.2808 66.5756 40.2996C66.3054 40.4008 66.0315 40.4946 65.7539 40.5884C65.6413 40.6259 65.525 40.6634 65.4124 40.6972C65.2586 40.7459 65.1085 40.7909 64.9546 40.8359C64.8233 40.8734 64.6957 40.911 64.5644 40.9485C64.4106 40.9935 64.253 41.0347 64.0954 41.0722C63.9641 41.106 63.829 41.1398 63.6977 41.1735C63.5401 41.211 63.3787 41.2485 63.2174 41.286C63.0861 41.3161 62.951 41.3461 62.8159 41.3723C62.6546 41.4061 62.4895 41.4361 62.3244 41.4698C62.1968 41.4923 62.0692 41.5186 61.9416 41.5411C61.5889 41.6049 61.2325 41.6611 60.8723 41.7099C60.8235 41.7174 60.771 41.7211 60.7184 41.7286C60.407 41.7699 60.0918 41.8074 59.7766 41.8412C59.6566 41.8524 59.5365 41.8637 59.4164 41.8749C59.2138 41.8937 59.0112 41.9087 58.8086 41.9237C58.681 41.9349 58.5534 41.9424 58.4258 41.9499C58.2157 41.9612 58.0056 41.9725 57.7917 41.98C57.6717 41.9837 57.5516 41.9912 57.4315 41.995C57.2477 42.0025 57.0638 42.0025 56.8799 42.0062C56.7524 42.0062 56.621 42.01 56.4935 42.01C56.2946 42.01 56.0995 42.0062 55.9006 42.0025C55.7843 42.0025 55.668 42.0025 55.5554 41.9987C55.3753 41.995 55.1915 41.9837 55.0114 41.9762C54.8875 41.9725 54.7637 41.9687 54.6361 41.9612C54.441 41.9499 54.2459 41.9349 54.0546 41.9199C53.942 41.9124 53.8332 41.9049 53.7206 41.8974C53.4842 41.8787 53.2516 41.8524 53.0152 41.8299C52.9477 41.8224 52.8801 41.8187 52.8088 41.8112C52.5086 41.7774 52.2047 41.7399 51.9083 41.6986C51.8595 41.6911 51.807 41.6836 51.7582 41.6761C51.5031 41.6386 51.2479 41.6011 50.9965 41.5561C50.8877 41.5374 50.7826 41.5148 50.6776 41.4961C50.4825 41.4586 50.2874 41.4248 50.096 41.3836C49.9947 41.3611 49.8934 41.3386 49.7958 41.3161C49.5819 41.271 49.3718 41.2223 49.158 41.1735C49.0416 41.1473 48.9253 41.1173 48.809 41.0872C48.6176 41.0385 48.4263 40.9897 48.2349 40.9372C48.1261 40.9072 48.021 40.8772 47.9122 40.8434C47.6121 40.7572 47.3119 40.6634 47.0192 40.5659C46.9667 40.5471 46.9141 40.5321 46.8616 40.5171C46.5239 40.4008 46.19 40.2808 45.8635 40.1533C45.7285 40.1008 45.5971 40.0483 45.4658 39.992C45.3607 39.9507 45.2557 39.9057 45.1544 39.8607C45.0043 39.7969 44.8617 39.7294 44.7154 39.6657C44.6216 39.6207 44.524 39.5794 44.4302 39.5344C44.2726 39.4594 44.115 39.3806 43.9574 39.3018C43.8786 39.2643 43.7998 39.2268 43.7248 39.1856C43.4959 39.0655 43.267 38.9417 43.0456 38.8105C39.4398 36.7287 37.5862 34.0206 37.4812 31.2937C37.3686 34.3357 39.2184 37.3926 43.0456 39.7069Z" fill="url(#paint5_linear_6422_1037)"/>
<path d="M73.1191 36.1587V41.4165C73.0929 41.4502 73.0591 41.484 73.0329 41.514C72.9054 41.6527 72.7741 41.7877 72.6354 41.9265C72.6129 41.949 72.5829 41.9753 72.5604 41.9978C72.5566 42.0015 72.5566 42.0015 72.5529 42.0053V36.7437C72.5604 36.7325 72.5716 36.725 72.5791 36.7175C72.6016 36.695 72.6316 36.6687 72.6541 36.6462C72.7929 36.5075 72.9241 36.3725 73.0516 36.2337C73.0741 36.2074 73.0966 36.1849 73.1191 36.1587Z" fill="url(#paint6_linear_6422_1037)"/>
<path d="M68.8643 39.3015V44.5705C69.0555 44.4768 69.2468 44.3755 69.4305 44.2705V39.0015L68.8643 39.3015Z" fill="url(#paint7_linear_6422_1037)"/>
<path d="M103.591 33.8854L96.2326 31.8787L96.2139 38.3002L103.572 40.307L112.415 42.7188L112.43 36.2972L103.591 33.8854Z" fill="url(#paint8_linear_6422_1037)"/>
<path d="M112.765 32.8057L112.747 39.2244C112.747 39.3931 112.743 39.5581 112.739 39.7268L112.758 33.3081C112.762 33.1431 112.762 32.9744 112.765 32.8057Z" fill="#949494"/>
<path d="M112.753 33.3083L112.734 39.7287C112.704 40.7263 112.599 41.7238 112.412 42.7176L112.431 36.2973C112.618 35.3035 112.727 34.3059 112.753 33.3083Z" fill="#999999"/>
<path d="M31.9495 14.3435L31.9307 20.764L19.8486 21.7691L19.8674 15.3486L31.9495 14.3435Z" fill="url(#paint9_linear_6422_1037)"/>
<path d="M84.5049 16.3058C70.1341 8.01239 47.5348 7.35973 31.9408 14.3403L31.922 20.7619C47.516 13.7814 70.1153 14.434 84.4862 22.7274C91.9492 27.0335 95.8627 32.6374 96.2117 38.2976L96.2305 31.876C95.8815 26.2158 91.968 20.6119 84.5049 16.3058Z" fill="url(#paint10_linear_6422_1037)"/>
<path d="M84.5132 16.3091C70.1424 8.01584 47.5431 7.36319 31.949 14.3436L19.8633 15.3526L20.0209 7.6145C42.1024 -3.14683 75.2679 -2.50168 96.145 9.54996C108.786 16.8455 114.223 26.7628 112.437 36.2976L103.597 33.8858L96.2388 31.8791C95.8898 26.219 91.9763 20.6151 84.5132 16.3091Z" fill="url(#paint11_linear_6422_1037)"/>
<path opacity="0.4" d="M31.9455 14.3409L23.5593 13.8383C22.4599 13.7708 21.5219 13.0171 21.2292 11.9558L20.021 7.61304L19.8634 15.3497L31.9455 14.3409Z" fill="url(#paint12_linear_6422_1037)"/>
<path d="M6.83135e-05 38.9037L0.0188292 32.4822C-0.00368387 40.8992 5.53829 49.3275 16.641 55.7341C37.3042 67.6583 70.0007 68.416 92.0711 58.0072L92.0523 64.4287C69.982 74.8375 37.2855 74.0836 16.6222 62.1557C5.51952 55.7491 -0.0224448 47.3208 6.83135e-05 38.9037Z" fill="url(#paint13_linear_6422_1037)"/>
<path d="M92.4003 50.3415L92.0626 58.0085C69.9923 68.4213 37.2958 67.6636 16.6363 55.7392C11.0944 52.5395 6.93697 48.8373 4.16787 44.8837C0.614555 39.8199 -0.657433 34.3472 0.344398 28.9907L16.5425 33.4094C16.8915 39.0697 20.805 44.6699 28.2718 48.9798C42.6427 57.2733 65.2383 57.926 80.8323 50.9454L92.4003 50.3415Z" fill="url(#paint14_linear_6422_1037)"/>
<path d="M92.4079 50.3408L92.5391 58.484L92.0703 64.7143V58.0077L92.4079 50.3408Z" fill="url(#paint15_linear_6422_1037)"/>
<path d="M3.6759 41.1547L4.17494 44.8832C0.621634 39.8194 -0.650352 34.3468 0.351478 28.9905L16.5496 33.4091L11.3153 33.034C6.77145 32.7114 3.07556 36.6386 3.6759 41.1547Z" fill="url(#paint16_linear_6422_1037)"/>
<defs>
<linearGradient id="paint0_linear_6422_1037" x1="37.4557" y1="39.1825" x2="75.2391" y2="39.1825" gradientUnits="userSpaceOnUse">
<stop stop-color="#3922AA"/>
<stop offset="1" stop-color="#7F3DFF"/>
</linearGradient>
<linearGradient id="paint1_linear_6422_1037" x1="56.3565" y1="42.1785" x2="56.3565" y2="20.0008" gradientUnits="userSpaceOnUse">
<stop stop-color="#DBDFFF"/>
<stop offset="0.7834" stop-color="#8B97FF"/>
<stop offset="1" stop-color="#B2BAFF"/>
</linearGradient>
<linearGradient id="paint2_linear_6422_1037" x1="56.3537" y1="21.8147" x2="56.3537" y2="40.4023" gradientUnits="userSpaceOnUse">
<stop stop-color="#8E52FF"/>
<stop offset="1" stop-color="#D6BFFF"/>
</linearGradient>
<linearGradient id="paint3_linear_6422_1037" x1="56.3553" y1="27.2084" x2="56.3553" y2="35.3032" gradientUnits="userSpaceOnUse">
<stop stop-color="#DBDFFF"/>
<stop offset="0.7834" stop-color="#8B97FF"/>
<stop offset="1" stop-color="#B2BAFF"/>
</linearGradient>
<linearGradient id="paint4_linear_6422_1037" x1="40.2752" y1="26.6921" x2="72.4322" y2="26.6921" gradientUnits="userSpaceOnUse">
<stop stop-color="#2E007F"/>
<stop offset="1" stop-color="#7052C8"/>
</linearGradient>
<linearGradient id="paint5_linear_6422_1037" x1="56.3561" y1="45.3226" x2="56.3561" y2="34.3798" gradientUnits="userSpaceOnUse">
<stop stop-color="white"/>
<stop offset="1" stop-color="white" stop-opacity="0"/>
</linearGradient>
<linearGradient id="paint6_linear_6422_1037" x1="72.785" y1="36.4207" x2="72.8874" y2="41.6445" gradientUnits="userSpaceOnUse">
<stop stop-color="#722AFF" stop-opacity="0"/>
<stop offset="1" stop-color="#A06AFF"/>
</linearGradient>
<linearGradient id="paint7_linear_6422_1037" x1="69.0985" y1="39.2551" x2="69.1961" y2="44.2293" gradientUnits="userSpaceOnUse">
<stop stop-color="#722AFF" stop-opacity="0"/>
<stop offset="1" stop-color="#A06AFF"/>
</linearGradient>
<linearGradient id="paint8_linear_6422_1037" x1="96.214" y1="37.2994" x2="112.432" y2="37.2994" gradientUnits="userSpaceOnUse">
<stop stop-color="#8E52FF"/>
<stop offset="1" stop-color="#D6BFFF"/>
</linearGradient>
<linearGradient id="paint9_linear_6422_1037" x1="20.3134" y1="27.9043" x2="28.2427" y2="13.9096" gradientUnits="userSpaceOnUse">
<stop stop-color="#7583FF"/>
<stop offset="1" stop-color="#DBDFFF"/>
</linearGradient>
<linearGradient id="paint10_linear_6422_1037" x1="31.923" y1="23.925" x2="96.23" y2="23.925" gradientUnits="userSpaceOnUse">
<stop stop-color="#3922AA"/>
<stop offset="1" stop-color="#7F3DFF"/>
</linearGradient>
<linearGradient id="paint11_linear_6422_1037" x1="19.8655" y1="18.1495" x2="112.769" y2="18.1495" gradientUnits="userSpaceOnUse">
<stop stop-color="#7583FF"/>
<stop offset="1" stop-color="#DBDFFF"/>
</linearGradient>
<linearGradient id="paint12_linear_6422_1037" x1="24.8263" y1="11.6778" x2="19.5451" y2="14.8884" gradientUnits="userSpaceOnUse">
<stop stop-color="#A9B1FF" stop-opacity="0"/>
<stop offset="0.1842" stop-color="#B1B8FF" stop-opacity="0.1842"/>
<stop offset="0.4649" stop-color="#C6CBFF" stop-opacity="0.4649"/>
<stop offset="0.8054" stop-color="#E8EAFF" stop-opacity="0.8054"/>
<stop offset="1" stop-color="white"/>
</linearGradient>
<linearGradient id="paint13_linear_6422_1037" x1="-3.87053" y1="45.534" x2="92.5975" y2="69.6146" gradientUnits="userSpaceOnUse">
<stop stop-color="#7F3DFF"/>
<stop offset="1" stop-color="#7583FF"/>
</linearGradient>
<linearGradient id="paint14_linear_6422_1037" x1="0.0133061" y1="47.1383" x2="92.4002" y2="47.1383" gradientUnits="userSpaceOnUse">
<stop stop-color="#7583FF"/>
<stop offset="1" stop-color="#DBDFFF"/>
</linearGradient>
<linearGradient id="paint15_linear_6422_1037" x1="92.0707" y1="57.5271" x2="92.5402" y2="57.5271" gradientUnits="userSpaceOnUse">
<stop stop-color="#7583FF"/>
<stop offset="1" stop-color="#DBDFFF"/>
</linearGradient>
<linearGradient id="paint16_linear_6422_1037" x1="11.8956" y1="40.1826" x2="-13.7773" y2="22.7942" gradientUnits="userSpaceOnUse">
<stop stop-color="#A9B1FF" stop-opacity="0"/>
<stop offset="0.1842" stop-color="#B1B8FF" stop-opacity="0.1842"/>
<stop offset="0.4649" stop-color="#C6CBFF" stop-opacity="0.4649"/>
<stop offset="0.8054" stop-color="#E8EAFF" stop-opacity="0.8054"/>
<stop offset="1" stop-color="white"/>
</linearGradient>
</defs>
</svg>
