<svg width="61" height="80" viewBox="0 0 61 80" fill="none" xmlns="http://www.w3.org/2000/svg">
<path d="M53.3607 38.2673L44.0869 32.8843L44.0391 17.2378L53.3128 22.6208L53.3607 38.2673Z" fill="url(#paint0_linear_6422_1018)"/>
<path d="M33.4593 45.9113L24.1855 40.5283L39.227 14.4868L48.5007 19.8817L33.4593 45.9113Z" fill="url(#paint1_linear_6422_1018)"/>
<path d="M24.9349 41.0546L15.6611 35.6597L24.181 40.5283L33.4548 45.9112L24.9349 41.0546Z" fill="#8490FF"/>
<path d="M9.27376 77.922L0 72.539L15.6637 35.6592L24.9374 41.0542L9.27376 77.922Z" fill="url(#paint2_linear_6422_1018)"/>
<path d="M34.8826 27.7403L25.5969 22.3573L25.573 14.5459L34.8587 19.9409L34.8826 27.7403Z" fill="url(#paint3_linear_6422_1018)"/>
<path d="M34.8587 19.9406L25.573 14.5458L50.7857 0L60.0714 5.39485L34.8587 19.9406Z" fill="url(#paint4_linear_6422_1018)"/>
<path d="M60.0698 5.3938L60.1536 34.3545L53.3568 38.2662L53.3089 22.6195L33.493 56.9393L24.9731 52.0826L10.0274 77.969L9.2735 77.9211L24.9372 41.0534L33.4571 45.9101L48.4985 19.8801L34.8811 27.7393L34.8571 19.9399L60.0698 5.3938Z" fill="url(#paint5_linear_6422_1018)"/>
<path d="M33.4571 45.9109L30.286 44.7984C27.5937 43.8534 24.6261 45.0616 23.3576 47.6215L14.8856 64.7156L24.9372 41.0542L33.4571 45.9109Z" fill="url(#paint6_linear_6422_1018)"/>
<path d="M38.3357 65.6599C37.8092 65.3489 37.2348 65.1456 36.6365 65.0379C36.0262 64.9302 35.4638 64.9063 34.9373 64.9661C34.4227 65.0259 33.8364 65.1575 33.2022 65.3968C32.568 65.624 31.9936 65.8633 31.4791 66.1145C30.9645 66.3657 30.3782 66.6887 29.732 67.0595C29.0858 67.4423 28.5234 67.7773 28.0926 68.0763C27.6619 68.3754 27.243 68.7103 26.8601 69.0692C26.4652 69.44 26.2379 69.775 26.1302 70.074L25.9148 70.4329L26.1182 73.5431C26.2259 73.244 26.4533 72.9091 26.8482 72.5382C27.2311 72.1794 27.6499 71.8444 28.0807 71.5454C28.5115 71.2463 29.0739 70.9114 29.72 70.5286C30.3662 70.1458 30.9525 69.8348 31.4671 69.5836C31.9816 69.3323 32.556 69.0931 33.1902 68.8658C33.8244 68.6385 34.4108 68.5069 34.9253 68.4352C35.4518 68.3754 36.0142 68.3993 36.6245 68.507C37.2228 68.6146 37.7972 68.818 38.3237 69.129C38.8502 69.44 39.2092 69.763 39.4007 70.1099L40.1186 67.5141L39.4126 66.6289C39.2212 66.3059 38.8622 65.971 38.3357 65.6599Z" fill="url(#paint7_linear_6422_1018)"/>
<path d="M45.8868 68.245C45.5517 69.1183 44.9654 69.9676 44.0799 70.7929C43.1944 71.6303 42.0217 72.4557 40.5619 73.305C39.102 74.1543 37.6661 74.8241 36.2301 75.3505C34.8061 75.8648 33.3343 76.2117 31.8385 76.4031C30.3428 76.5945 28.835 76.5347 27.3273 76.2356C25.8196 75.9486 24.3597 75.3863 22.9716 74.5849C21.5836 73.7834 20.6143 72.9461 20.0878 72.0609C19.7647 71.5226 19.5972 70.9843 19.6091 70.446L19.5972 73.927C19.5972 74.4653 19.7527 75.0036 20.0758 75.5418C20.6023 76.427 21.5596 77.2644 22.9597 78.0658C24.3597 78.8673 25.8076 79.4295 27.3153 79.7166C28.8231 80.0276 30.3308 80.0754 31.8266 79.896C33.3223 79.7046 34.7942 79.3577 36.2182 78.8434C37.6541 78.329 39.09 77.6471 40.5499 76.7978C42.0098 75.9485 43.1705 75.1112 44.0679 74.2858C44.9415 73.4605 45.5398 72.6112 45.8748 71.7379C45.9945 71.415 46.0543 71.092 46.0543 70.7571L46.0663 67.2761C46.0663 67.5991 46.0065 67.9221 45.8868 68.245Z" fill="url(#paint8_linear_6422_1018)"/>
<path d="M44.0798 70.7925C43.1943 71.6299 42.0216 72.4553 40.5618 73.3046C39.1019 74.1539 37.666 74.8238 36.23 75.3501C34.806 75.8645 33.3342 76.2114 31.8384 76.4028C30.3427 76.5942 28.8349 76.5343 27.3272 76.2353C25.8195 75.9482 24.3596 75.386 22.9715 74.5845C21.5835 73.7831 20.6142 72.9457 20.0877 72.0605C19.5612 71.1992 19.4655 70.326 19.7885 69.4647C20.1116 68.6035 20.7099 67.7422 21.5954 66.9168C22.4809 66.0795 23.6536 65.2541 25.1135 64.4048C26.5733 63.5554 28.0093 62.8856 29.4452 62.3592C30.8692 61.8449 32.3291 61.498 33.8368 61.3066C35.3326 61.1152 36.8403 61.175 38.3361 61.474C39.8558 61.7731 41.3156 62.3353 42.7037 63.1368C44.0918 63.9382 45.061 64.7756 45.5636 65.6488C46.1021 66.5221 46.1978 67.3953 45.8747 68.2566C45.5516 69.1178 44.9533 69.9671 44.0798 70.7925ZM34.1958 71.594C34.7103 71.3428 35.2967 71.0198 35.9428 70.649C36.589 70.2662 37.1514 69.9313 37.5822 69.6322C38.013 69.3331 38.4198 68.9982 38.8147 68.6393C39.1976 68.2566 39.4369 67.9336 39.5327 67.6226C39.6404 67.3235 39.5925 67.0005 39.413 66.6536C39.2216 66.3067 38.8626 65.9718 38.3361 65.6727C37.8096 65.3617 37.2352 65.1584 36.6369 65.0507C36.0266 64.9431 35.4642 64.9191 34.9377 64.9789C34.4231 65.0388 33.8368 65.1703 33.2026 65.3976C32.5684 65.6249 31.994 65.8641 31.4795 66.1153C30.9649 66.3665 30.3786 66.6895 29.7324 67.0723C29.0862 67.4551 28.5238 67.79 28.093 68.0891C27.6623 68.3881 27.2434 68.7231 26.8605 69.0819C26.4656 69.4528 26.2383 69.7877 26.1306 70.0868C26.0349 70.3978 26.0827 70.7208 26.2622 71.0677C26.4537 71.4146 26.8127 71.7495 27.3392 72.0486C27.8657 72.3596 28.4401 72.5629 29.0384 72.6706C29.6486 72.7782 30.2111 72.8022 30.7256 72.7304C31.2521 72.6706 31.8265 72.539 32.4727 72.3117C33.1069 72.0964 33.6932 71.8452 34.1958 71.594Z" fill="url(#paint9_linear_6422_1018)"/>
<path d="M39.4261 66.4254C39.2347 66.0786 38.8757 65.7437 38.3372 65.4447C37.7987 65.1218 37.2244 64.9304 36.6261 64.8228C36.0278 64.7152 35.4773 64.6912 34.9388 64.7391C34.4243 64.7989 33.826 64.9544 33.1918 65.1696C32.5695 65.4088 31.9952 65.6361 31.4806 65.8992C30.9661 66.1503 30.3678 66.4733 29.7336 66.8321C29.0994 67.2148 28.5369 67.5616 28.0942 67.8606C27.6634 68.1596 27.2446 68.4945 26.8737 68.8653C26.4668 69.2241 26.2514 69.5709 26.1437 69.8699C26.0839 70.0254 26.0839 70.1689 26.0959 70.3363C26.0959 70.2526 26.1198 70.1689 26.1437 70.0852C26.2514 69.7862 26.4668 69.4393 26.8737 69.0805C27.2326 68.7217 27.6634 68.3749 28.0942 68.0759C28.5369 67.7769 29.0994 67.4301 29.7336 67.0713C30.3678 66.6885 30.9661 66.3656 31.4806 66.1145C31.9952 65.8633 32.5695 65.6241 33.1918 65.4088C33.826 65.1696 34.4243 65.05 34.9388 64.9783C35.4773 64.9185 36.0278 64.9304 36.6261 65.0381C37.2244 65.1457 37.7987 65.361 38.3372 65.66C38.8757 65.9829 39.2347 66.2939 39.4261 66.6407C39.5099 66.8321 39.5697 66.9995 39.5697 67.155C39.5937 66.9158 39.5458 66.6885 39.4261 66.4254Z" fill="url(#paint10_linear_6422_1018)"/>
<path d="M40.8758 72.9931C39.404 73.8423 37.98 74.512 36.5441 75.0383C35.1201 75.5526 33.6483 75.8875 32.1525 76.0788C30.6567 76.2702 29.149 76.2104 27.6532 75.9114C26.1335 75.6124 24.6856 75.0622 23.2856 74.2728C21.8975 73.4595 20.9402 72.6343 20.4257 71.7373C19.8872 70.8881 19.7915 70.015 20.1026 69.1419C20.3539 68.4961 20.7607 67.8622 21.3231 67.2283C20.5812 67.9578 20.0906 68.7233 19.8034 69.4648C19.4803 70.3379 19.5641 71.211 20.1026 72.0602C20.6171 72.9333 21.5744 73.7825 22.9864 74.5958C24.3745 75.3851 25.8224 75.9353 27.3421 76.2343C28.8379 76.5333 30.3456 76.5931 31.8414 76.4017C33.3371 76.2104 34.809 75.8635 36.2329 75.3612C37.6569 74.823 39.1168 74.1652 40.5647 73.316C42.0365 72.4668 43.1853 71.6296 44.0827 70.8044C44.1665 70.7206 44.2503 70.6369 44.334 70.5532C43.4605 71.3545 42.2878 72.1678 40.8758 72.9931Z" fill="url(#paint11_linear_6422_1018)"/>
<path opacity="0.4" d="M34.8584 19.9401L54.423 10.6455C56.206 9.79615 58.2761 11.0043 58.4436 12.9661L60.1548 34.3546L60.071 5.39404L34.8584 19.9401Z" fill="url(#paint12_linear_6422_1018)"/>
<defs>
<linearGradient id="paint0_linear_6422_1018" x1="49.3677" y1="22.7587" x2="47.5561" y2="36.2962" gradientUnits="userSpaceOnUse">
<stop stop-color="#2D1B86"/>
<stop offset="1" stop-color="#6D34DB"/>
</linearGradient>
<linearGradient id="paint1_linear_6422_1018" x1="46.0591" y1="18.2935" x2="1.71922" y2="72.6706" gradientUnits="userSpaceOnUse">
<stop stop-color="#7583FF"/>
<stop offset="1" stop-color="#DBDFFF"/>
</linearGradient>
<linearGradient id="paint2_linear_6422_1018" x1="0" y1="56.7942" x2="24.9427" y2="56.7942" gradientUnits="userSpaceOnUse">
<stop stop-color="#7583FF"/>
<stop offset="1" stop-color="#DBDFFF"/>
</linearGradient>
<linearGradient id="paint3_linear_6422_1018" x1="20.3932" y1="26.7741" x2="36.5983" y2="17.4958" gradientUnits="userSpaceOnUse">
<stop stop-color="#2D1B86"/>
<stop offset="1" stop-color="#6D34DB"/>
</linearGradient>
<linearGradient id="paint4_linear_6422_1018" x1="25.5784" y1="9.97018" x2="60.0673" y2="9.97018" gradientUnits="userSpaceOnUse">
<stop stop-color="#7966FF"/>
<stop offset="0.4278" stop-color="#A9B1FF"/>
<stop offset="1" stop-color="white"/>
</linearGradient>
<linearGradient id="paint5_linear_6422_1018" x1="-0.72829" y1="97.2874" x2="65.2891" y2="1.21172" gradientUnits="userSpaceOnUse">
<stop stop-color="#7F3DFF"/>
<stop offset="1" stop-color="#7583FF"/>
</linearGradient>
<linearGradient id="paint6_linear_6422_1018" x1="24.8517" y1="60.0803" x2="20.8735" y2="32.1521" gradientUnits="userSpaceOnUse">
<stop stop-color="#A9B1FF" stop-opacity="0"/>
<stop offset="0.1842" stop-color="#B1B8FF" stop-opacity="0.1842"/>
<stop offset="0.4649" stop-color="#C6CBFF" stop-opacity="0.4649"/>
<stop offset="0.8054" stop-color="#E8EAFF" stop-opacity="0.8054"/>
<stop offset="1" stop-color="white"/>
</linearGradient>
<linearGradient id="paint7_linear_6422_1018" x1="25.9252" y1="69.2503" x2="40.1159" y2="69.2503" gradientUnits="userSpaceOnUse">
<stop stop-color="#E89018"/>
<stop offset="0.9947" stop-color="#BA7C25"/>
</linearGradient>
<linearGradient id="paint8_linear_6422_1018" x1="44.3127" y1="62.4947" x2="24.3623" y2="78.3337" gradientUnits="userSpaceOnUse">
<stop stop-color="#FFD57F"/>
<stop offset="0.6578" stop-color="#F28C00"/>
<stop offset="0.9947" stop-color="#BA7C25"/>
</linearGradient>
<linearGradient id="paint9_linear_6422_1018" x1="19.6185" y1="68.8557" x2="46.0654" y2="68.8557" gradientUnits="userSpaceOnUse">
<stop stop-color="#E89018"/>
<stop offset="0.2615" stop-color="#EEA632"/>
<stop offset="1" stop-color="#FFE278"/>
</linearGradient>
<linearGradient id="paint10_linear_6422_1018" x1="21.3144" y1="73.0789" x2="38.2974" y2="65.2365" gradientUnits="userSpaceOnUse">
<stop stop-color="#E89018" stop-opacity="0"/>
<stop offset="0.2615" stop-color="#EEA632" stop-opacity="0.2615"/>
<stop offset="1" stop-color="#FFE278"/>
</linearGradient>
<linearGradient id="paint11_linear_6422_1018" x1="34.7488" y1="65.8317" x2="26.772" y2="77.8977" gradientUnits="userSpaceOnUse">
<stop stop-color="#E89018" stop-opacity="0"/>
<stop offset="0.2615" stop-color="#EEA632" stop-opacity="0.2615"/>
<stop offset="1" stop-color="#FFE278"/>
</linearGradient>
<linearGradient id="paint12_linear_6422_1018" x1="49.7773" y1="22.7054" x2="58.6229" y2="5.43477" gradientUnits="userSpaceOnUse">
<stop stop-color="#A9B1FF" stop-opacity="0"/>
<stop offset="0.1842" stop-color="#B1B8FF" stop-opacity="0.1842"/>
<stop offset="0.4649" stop-color="#C6CBFF" stop-opacity="0.4649"/>
<stop offset="0.8054" stop-color="#E8EAFF" stop-opacity="0.8054"/>
<stop offset="1" stop-color="white"/>
</linearGradient>
</defs>
</svg>
