<svg width="1513" height="714" viewBox="0 0 1513 714" fill="none" xmlns="http://www.w3.org/2000/svg">
<path opacity="0.3" d="M1513 1.39502V0.0932617L1512.3 0.744141L1513 1.39502ZM766.9 713.85H768.3L1.19995 0.0932617L0.5 0.744141L766.9 713.85ZM787.8 713.85H789.2L22.1 0.0932617L21.4 0.744141L787.8 713.85ZM808.7 713.85H810.1L43 0.0932617L42.3 0.744141L808.7 713.85ZM829.5 713.85H831L63.9 0.0932617L63.2 0.744141L829.5 713.85ZM850.4 713.85H851.8L84.7 0.0932617L84 0.744141L850.4 713.85ZM871.3 713.85H872.7L105.6 0.0932617L104.9 0.744141L871.3 713.85ZM892.1 713.85H893.5L126.4 0.0932617L125.7 0.744141L892.1 713.85ZM913 713.85H914.4L147.3 0.0932617L146.6 0.744141L913 713.85ZM933.9 713.85H935.3L168.2 0.0932617L167.5 0.744141L933.9 713.85ZM954.8 713.85H956.2L189.1 0.0932617L188.4 0.744141L954.8 713.85ZM975.6 713.85H977L210 0.0932617L209.3 0.744141L975.6 713.85ZM996.5 713.85H997.9L230.8 0.0932617L230.1 0.744141L996.5 713.85ZM1017.4 713.85H1018.8L251.7 0.0932617L251 0.744141L1017.4 713.85ZM1038.2 713.85H1039.6L272.5 0.0932617L271.8 0.744141L1038.2 713.85ZM1059.1 713.85H1060.5L293.4 0.0932617L292.7 0.744141L1059.1 713.85ZM1080 713.85H1081.4L314.3 0.0932617L313.6 0.744141L1080 713.85ZM1100.8 713.85H1102.2L335.1 0.0932617L334.4 0.744141L1100.8 713.85ZM1121.7 713.85H1123.1L356 0.0932617L355.3 0.744141L1121.7 713.85ZM1142.6 713.85H1144L376.9 0.0932617L376.2 0.744141L1142.6 713.85ZM1163.4 713.85H1164.8L397.7 0.0932617L397 0.744141L1163.4 713.85ZM1184.3 713.85H1185.7L418.6 0.0932617L417.9 0.744141L1184.3 713.85ZM1205.2 713.85H1206.6L439.5 0.0932617L438.8 0.744141L1205.2 713.85ZM1226.1 713.85H1227.5L460.4 0.0932617L459.7 0.744141L1226.1 713.85ZM1246.9 713.85H1248.3L481.2 0.0932617L480.5 0.744141L1246.9 713.85ZM1267.8 713.85H1269.2L502.1 0.0932617L501.4 0.744141L1267.8 713.85ZM1288.7 713.85H1290.1L523 0.0932617L522.3 0.744141L1288.7 713.85ZM1309.5 713.85H1311L543.9 0.0932617L543.2 0.744141L1309.5 713.85ZM1330.4 713.85H1331.8L564.7 0.0932617L564 0.744141L1330.4 713.85ZM1351.3 713.85H1352.7L585.6 0.0932617L584.9 0.744141L1351.3 713.85ZM1372.1 713.85H1373.5L606.4 0.0932617L605.7 0.744141L1372.1 713.85ZM1393 713.85H1394.4L627.3 0.0932617L626.6 0.744141L1393 713.85ZM1413.9 713.85H1415.3L648.2 0.0932617L647.5 0.744141L1413.9 713.85ZM1434.8 713.85H1436.2L669.1 0.0932617L668.4 0.744141L1434.8 713.85ZM1455.6 713.85H1457L690 0.0932617L689.3 0.744141L1455.6 713.85ZM1476.5 713.85H1477.9L710.8 0.0932617L710.1 0.744141L1476.5 713.85ZM1497.4 713.85H1498.8L731.7 0.0932617L731 0.744141L1497.4 713.85ZM1513 708.921V707.62L752.6 0.000244141L751.9 0.651123L1513 708.921ZM1513 689.58V688.279L773.4 0.0932617L772.7 0.744141L1513 689.58ZM1513 670.146V668.845L794.3 0.0932617L793.6 0.744141L1513 670.146ZM1513 650.712V649.411L815.2 0.0932617L814.5 0.744141L1513 650.712ZM1513 631.279V629.977L836 0.0932617L835.3 0.744141L1513 631.279ZM1513 611.845V610.543L856.9 0.0932617L856.2 0.744141L1513 611.845ZM1513 592.504V591.202L877.8 0.0932617L877.1 0.744141L1513 592.504ZM1513 573.07V571.768L898.6 0.0932617L897.9 0.744141L1513 573.07ZM1513 553.636V552.334L919.5 0.0932617L918.8 0.744141L1513 553.636ZM1513 534.202V532.9L940.4 0.0932617L939.7 0.744141L1513 534.202ZM1513 514.768V513.466L961.3 0.0932617L960.6 0.744141L1513 514.768ZM1513 495.334V494.032L982.1 0.0932617L981.4 0.744141L1513 495.334ZM1513 475.993V474.691L1003 0.186218L1002.3 0.837158L1513 475.993ZM1513 456.559V455.257L1023.9 0.0932617L1023.2 0.744141L1513 456.559ZM1513 437.125V435.823L1044.7 0.0932617L1044 0.744141L1513 437.125ZM1513 417.691V416.389L1065.6 0.0932617L1064.9 0.744141L1513 417.691ZM1513 398.257V396.955L1086.5 0.0932617L1085.8 0.744141L1513 398.257ZM1513 378.823V377.521L1107.3 0.0932617L1106.6 0.744141L1513 378.823ZM1513 359.389V358.087L1128.2 0.0932617L1127.5 0.744141L1513 359.389ZM1513 340.048V338.746L1149.1 0.0932617L1148.4 0.744141L1513 340.048ZM1513 320.614V319.312L1169.9 0.0932617L1169.2 0.744141L1513 320.614ZM1513 301.18V299.878L1190.8 0.0932617L1190.1 0.744141L1513 301.18ZM1513 281.746V280.444L1211.7 0.0932617L1211 0.744141L1513 281.746ZM1513 262.312V261.01L1232.6 0.0932617L1231.9 0.744141L1513 262.312ZM1513 242.878V241.576L1253.4 0.000244141L1252.7 0.651123L1513 242.878ZM1513 223.537V222.235L1274.3 0.0932617L1273.6 0.744141L1513 223.537ZM1513 204.103V202.802L1295.2 0.0932617L1294.5 0.744141L1513 204.103ZM1513 184.669V183.368L1316 0.0932617L1315.3 0.744141L1513 184.669ZM1513 165.235V163.934L1336.9 0.0932617L1336.2 0.744141L1513 165.235ZM1513 145.801V144.5L1357.8 0.0932617L1357.1 0.744141L1513 145.801ZM1513 126.367V125.066L1378.6 0.000244141L1377.9 0.651123L1513 126.367ZM1513 107.027V105.725L1399.5 0.0932617L1398.8 0.744141L1513 107.027ZM1513 87.5925V86.2907L1420.4 0.0932617L1419.7 0.744141L1513 87.5925ZM1513 68.1586V66.8568L1441.3 0.0932617L1440.6 0.744141L1513 68.1586ZM1513 48.7247V47.4229L1462.1 0.0932617L1461.4 0.744141L1513 48.7247ZM1513 29.2906V27.9889L1483 0.0932617L1482.3 0.744141L1513 29.2906Z" fill="url(#paint0_radial_6509_823)"/>
<defs>
<radialGradient id="paint0_radial_6509_823" cx="0" cy="0" r="1" gradientUnits="userSpaceOnUse" gradientTransform="translate(1347.5 -50.4908) rotate(113.862) scale(728.003 1508.32)">
<stop stop-color="#D0C8E3"/>
<stop offset="1" stop-color="#EEE9F9" stop-opacity="0"/>
</radialGradient>
</defs>
</svg>
