<?xml version="1.0" encoding="UTF-8"?>
<svg id="Layer_1" xmlns="http://www.w3.org/2000/svg" version="1.1" xmlns:xlink="http://www.w3.org/1999/xlink" viewBox="0 0 39.1 39.1">
  <!-- Generator: Adobe Illustrator 29.0.0, SVG Export Plug-In . SVG Version: 2.1.0 Build 186)  -->
  <defs>
    <style>
      .st0 {
        fill: url(#linear-gradient2);
      }

      .st1 {
        fill: url(#linear-gradient1);
      }

      .st2 {
        fill: url(#linear-gradient4);
      }

      .st3 {
        fill: url(#linear-gradient5);
      }

      .st4 {
        fill: url(#linear-gradient3);
      }

      .st5 {
        fill: url(#linear-gradient6);
      }

      .st6 {
        fill: url(#linear-gradient);
      }
    </style>
    <linearGradient id="linear-gradient" x1="7.9" y1="5.1" x2="36.2" y2="35.6" gradientUnits="userSpaceOnUse">
      <stop offset="0" stop-color="#ff0054"/>
      <stop offset=".3" stop-color="#ff0054" stop-opacity=".8"/>
      <stop offset=".8" stop-color="#ff0054" stop-opacity=".6"/>
      <stop offset="1" stop-color="#ff0054" stop-opacity=".4"/>
    </linearGradient>
    <linearGradient id="linear-gradient1" x1="14.3" y1="16" x2="22.9" y2="16" gradientUnits="userSpaceOnUse">
      <stop offset="0" stop-color="#803eff"/>
      <stop offset=".1" stop-color="#894cff" stop-opacity=".9"/>
      <stop offset="1" stop-color="#c0a0ff" stop-opacity=".6"/>
    </linearGradient>
    <linearGradient id="linear-gradient2" x1="14.3" y1="9.2" x2="34" y2="9.2" gradientUnits="userSpaceOnUse">
      <stop offset="0" stop-color="#10b487"/>
      <stop offset=".3" stop-color="#14d4b5" stop-opacity=".9"/>
      <stop offset=".7" stop-color="#19f2e0" stop-opacity=".7"/>
      <stop offset="1" stop-color="#1bfdef" stop-opacity=".7"/>
    </linearGradient>
    <linearGradient id="linear-gradient3" x1="14.3" y1="23" x2="34" y2="23" xlink:href="#linear-gradient2"/>
    <linearGradient id="linear-gradient4" x1="14.3" y1="27.5" x2="34" y2="27.5" xlink:href="#linear-gradient2"/>
    <linearGradient id="linear-gradient5" x1="24.8" y1="13.8" x2="33.9" y2="13.8" xlink:href="#linear-gradient2"/>
    <linearGradient id="linear-gradient6" x1="24.9" y1="18.3" x2="34" y2="18.3" xlink:href="#linear-gradient2"/>
  </defs>
  <path class="st6" d="M39.1,3.3c0,4.4,0,8.7,0,13,0,4.4,0,8.8,0,13.2,0,3.8-2.6,6.3-6.3,6.3-8.8,0-17.6,0-26.4,0-3.7,0-6.3-2.5-6.3-6.2,0-5.1,0-10.1,0-15.2,0-.3,0-.7,0-1.1h9.1V3.3h29.9ZM11.5,33c0,0,0,0,.2,0,7.1,0,14.2,0,21.2,0,2,0,3.3-1.4,3.3-3.4,0-7.6,0-15.2,0-22.9,0-.3,0-.5,0-.8H12c0,.4,0,.7,0,1.1,0,7,0,14,0,21,0,1.6-.3,3.2-.4,5ZM9.2,16.1H2.8c0,4.6,0,9.1,0,13.6,0,1.9,1.4,3.4,3.2,3.3,1.8,0,3.2-1.4,3.2-3.3,0-2.7,0-5.4,0-8.2,0-1.8,0-3.6,0-5.4Z"/>
  <path class="st1" d="M14.3,19.2v-6.3h8.6v6.3h-8.6Z"/>
  <path class="st0" d="M34,8.3v1.7H14.3v-1.7h19.7Z"/>
  <path class="st4" d="M34,22.1v1.7H14.3v-1.7h19.7Z"/>
  <path class="st2" d="M14.3,28.4v-1.7h19.7v1.7H14.3Z"/>
  <path class="st3" d="M24.8,14.6v-1.7h9.1v1.7h-9.1Z"/>
  <path class="st5" d="M34,17.5v1.7h-9.1v-1.7h9.1Z"/>
</svg>