<svg width="80" height="90" viewBox="0 0 80 90" fill="none" xmlns="http://www.w3.org/2000/svg">
<path d="M9.14565 90H7.06299C6.95445 89.9587 6.85269 89.8899 6.74415 89.8762C4.28159 89.4635 2.53812 88.0672 1.37808 85.8662C0.265514 83.7339 0.00772573 81.416 0.00772573 79.0567C0.000941818 56.3517 -0.012626 33.6467 0.0280775 10.9417C0.0280775 9.2909 0.251946 7.59886 0.665765 6.00311C1.72405 1.97935 4.84465 -0.269831 8.73183 0.0259326C10.9366 0.19101 12.9243 1.05767 14.817 2.15818C34.4225 13.5623 54.0348 24.9526 73.6267 36.3842C75.0106 37.1959 76.3403 38.1932 77.48 39.3281C80.6752 42.5059 80.8176 46.619 77.9888 50.1338C76.7609 51.6608 75.187 52.7407 73.5249 53.7036C54.9438 64.5093 36.3627 75.3081 17.7816 86.1138C15.0341 87.7095 12.3612 89.4841 9.13887 90H9.14565Z" fill="#7A3AFE"/>
<path d="M9.14565 90H7.06299C6.95445 89.9587 6.85269 89.8899 6.74415 89.8762C4.28159 89.4635 2.53812 88.0672 1.37808 85.8662C0.265514 83.7339 0.00772573 81.416 0.00772573 79.0567C0.000941818 56.3517 -0.012626 33.6467 0.0280775 10.9417C0.0280775 9.2909 0.251946 7.59886 0.665765 6.00311C1.72405 1.97935 4.84465 -0.269831 8.73183 0.0259326C10.9366 0.19101 12.9243 1.05767 14.817 2.15818C34.4225 13.5623 54.0348 24.9526 73.6267 36.3842C75.0106 37.1959 76.3403 38.1932 77.48 39.3281C80.6752 42.5059 80.8176 46.619 77.9888 50.1338C76.7609 51.6608 75.187 52.7407 73.5249 53.7036C54.9438 64.5093 36.3627 75.3081 17.7816 86.1138C15.0341 87.7095 12.3612 89.4841 9.13887 90H9.14565Z" fill="url(#paint0_linear_6422_1115)"/>
<defs>
<linearGradient id="paint0_linear_6422_1115" x1="74" y1="50.6233" x2="-6.00177" y2="50.7027" gradientUnits="userSpaceOnUse">
<stop stop-color="#ED035A"/>
<stop offset="1" stop-color="#803EFF"/>
</linearGradient>
</defs>
</svg>
