<svg id="Layer_1" data-name="Layer 1" xmlns="http://www.w3.org/2000/svg" xmlns:xlink="http://www.w3.org/1999/xlink" viewBox="0 0 105.22 19.24"><defs><style>.cls-1{fill:#f29e24;}.cls-2{stroke:#dde1ef;stroke-width:0.24px;fill:url(#linear-gradient);}.cls-3{fill:#fff;}</style><linearGradient id="linear-gradient" x1="297.64" y1="1020.79" x2="301.57" y2="1002.58" gradientTransform="translate(-290 -1002)" gradientUnits="userSpaceOnUse"><stop offset="0" stop-color="#f28c10"/><stop offset="1" stop-color="#ffb55c"/></linearGradient></defs><path class="cls-1" d="M46.42,7.22a3.06,3.06,0,0,0-2.3-2.9,6.66,6.66,0,0,0-1.4-.2H39V6l1.6,2.5H39v6.3h2.1v-4.3h1l1.9,4.3h2.5l-2.2-4.6A2.75,2.75,0,0,0,46.42,7.22ZM42.52,6c.7,0,1.7.1,1.7,1.2s-1.5,1.2-1.5,1.2L41.32,6Z"/><polygon class="cls-1" points="76.02 4.22 74.02 4.22 74.02 12.82 74.02 14.92 74.02 14.92 76.02 14.92 76.02 14.92 79.72 14.92 79.72 12.82 76.02 12.82 76.02 4.22"/><polygon class="cls-1" points="102.82 4.22 100.92 7.72 99.12 4.22 96.72 4.22 99.92 10.12 99.92 14.92 102.02 14.92 102.02 10.12 105.22 4.22 102.82 4.22"/><polygon class="cls-1" points="47.12 6.32 49.42 6.32 49.42 14.92 51.42 14.92 51.42 6.32 53.72 6.32 53.72 4.22 47.12 4.22 47.12 6.32"/><polygon class="cls-1" points="33.22 6.12 34.32 6.12 34.32 12.82 33.22 12.82 33.22 14.92 34.32 14.92 36.42 14.92 37.52 14.92 37.52 12.82 36.42 12.82 36.42 6.12 37.52 6.12 37.52 4.12 33.22 4.12 33.22 6.12"/><path class="cls-1" d="M28.62,14.92l4.2-10.8h-8.6Zm0-5.6-1.3-3.2h2.5Z"/><path class="cls-1" d="M64.42,14.92h2.2l.1-.7h3.9l.1.7h2.2l-4.2-10.6Zm2.9-2,1.3-3.2,1.3,3.2Z"/><path class="cls-1" d="M88.82,14.92H91l.1-.7H95l.1.7h2.2l-4.2-10.6Zm3-1.9L93,9.82l1.3,3.2Z"/><path class="cls-1" d="M86.52,4.32a6.66,6.66,0,0,0-1.4-.2h-3.6V6l1.6,2.5h-1.6v6.3h2.1v-4.3h1.6c1,0,3.8-.2,3.8-3.2A3.63,3.63,0,0,0,86.52,4.32Zm-1.4,4.1L83.72,6H85c.7,0,1.7.1,1.7,1.2C86.52,8.32,85.12,8.42,85.12,8.42Z"/><path class="cls-1" d="M55,10.82a4.4,4.4,0,1,0,8.8,0h0V4.22h-8.7Zm2.1-4.5h4.6v4.5a2.3,2.3,0,0,1-4.6,0Z"/><path class="cls-2" d="M.12,9.62a9.43,9.43,0,1,1,0,.14Z"/><path class="cls-3" d="M9.62,5.82H3a.1.1,0,0,0-.1.1l3.3,8.6c0,.1.1.1.1,0l3.3-8.6C9.72,5.92,9.72,5.82,9.62,5.82Zm-3.3,4.8-1.2-3.4h2.4Z"/><path class="cls-3" d="M14.52,6a4.07,4.07,0,0,0-1.1-.1h-2.8v1.5l1.2,1.9h-1.2v4.8h1.6v-3.3h1.2c.7,0,2.9-.1,2.9-2.5A2.42,2.42,0,0,0,14.52,6Zm-1.1,3.2-1.1-1.9h1c.6,0,1.3.1,1.3.9S13.42,9.22,13.42,9.22Z"/></svg>