<svg width="22" height="31" viewBox="0 0 22 31" fill="none" xmlns="http://www.w3.org/2000/svg">
<path d="M21.9978 23.4401C21.8642 18.309 21.9586 13.1725 21.9586 8.03779V6.92643C19.9799 6.88725 18.0403 7.15618 16.5442 5.5586C15.0482 3.96101 15.5113 2.00722 15.3723 0H14.22C10.7767 0 7.33335 0 3.89003 0C1.38946 0 0.046564 1.32687 0.0162864 3.83812C0.000257167 5.20239 0.0162864 6.56844 0.0162864 7.93449C0.0162864 13.1583 0.051907 18.382 0.000257168 23.6076C-0.0211152 25.8784 1.28972 27.7609 3.90606 27.5632C5.61763 27.4332 7.34701 27.5401 9.07105 27.5347C9.31683 27.5347 9.56083 27.4884 9.86182 27.4564C9.32751 26.4537 8.681 25.9532 7.56073 26.0494C6.41197 26.1473 5.24539 26.0707 4.0895 26.0707C2.13037 26.0707 1.52838 25.4901 1.5266 23.547C1.5266 19.155 1.54085 14.763 1.50879 10.3674C1.50879 9.61044 1.67264 9.34507 2.48658 9.35041C8.18587 9.38603 13.8852 9.36822 19.5845 9.37178C19.8712 9.37178 20.1597 9.40206 20.475 9.41987C20.491 9.74046 20.5124 9.97555 20.5124 10.2124C20.5124 14.9304 20.5124 19.6519 20.4928 24.3681C20.4956 24.7914 20.3369 25.1999 20.049 25.5103C19.7611 25.8207 19.3657 26.0097 18.9433 26.0387C18.0385 26.1366 17.7393 26.801 17.2656 27.4457C20.5997 28.021 22.0654 26.0405 21.9978 23.4401Z" fill="white"/>
<path d="M11.3944 19.4377V25.0605H9.29637L9.2002 25.292L13.5655 30.2789L17.9557 25.2492L17.8418 25.0337H15.6849V19.4377H11.3944Z" fill="white"/>
<path d="M21.9805 5.86376L16.4771 0.0700684C15.8145 4.48524 17.2109 6.53521 21.9805 5.86376Z" fill="white"/>
<path d="M4.00117 4.07134H2.94117V6.87134H3.58117V5.99134H4.00117C4.55317 5.99134 4.98117 5.56334 4.98117 5.03134C4.98117 4.49934 4.55317 4.07134 4.00117 4.07134ZM4.00117 5.39134H3.58117V4.67134H4.00117C4.19717 4.67134 4.34117 4.82734 4.34117 5.03134C4.34117 5.23534 4.19717 5.39134 4.00117 5.39134ZM6.42055 4.07134H5.30055V6.87134H6.42055C7.19255 6.87134 7.78055 6.26334 7.78055 5.47134C7.78055 4.67934 7.19255 4.07134 6.42055 4.07134ZM6.42055 6.25534H5.94055V4.68734H6.42055C6.86055 4.68734 7.16455 4.99134 7.16455 5.47134C7.16455 5.95134 6.86055 6.25534 6.42055 6.25534ZM9.84039 4.68734V4.07134H8.14039V6.87134H8.78039V5.84334H9.82039V5.22734H8.78039V4.68734H9.84039Z" fill="#501FF3"/>
</svg>
