<svg width="66" height="75" viewBox="0 0 66 75" fill="none" xmlns="http://www.w3.org/2000/svg">
<path d="M6.72366 48.8091L20.8835 40.6387C27.4818 36.8303 37.5675 36.4096 43.2802 39.7088L60.8942 49.872C66.6068 53.1711 65.8872 58.9945 59.2889 62.8029L45.129 70.9733C38.5307 74.7818 28.445 75.2025 22.7324 71.9033L5.11836 61.7401C-0.605355 58.4409 0.125332 52.6176 6.72366 48.8091Z" fill="url(#paint0_linear_7216_4107)"/>
<path d="M5.56411 50.5706L20.8864 39.0235C27.4847 35.2151 37.5704 34.7944 43.2831 38.0935L62.6131 49.2199C68.3257 52.5191 65.8901 57.3792 59.2918 61.1877L45.1319 69.3581C38.5336 73.1665 28.4479 73.5872 22.7353 70.2881L5.12127 60.1249C-0.602446 56.8257 -1.04529 54.379 5.56411 50.5706Z" fill="#332B99"/>
<path d="M5.68226 45.7683L20.3956 37.2657C27.2597 33.3023 37.7329 32.8705 43.678 36.3025L61.9895 46.8754C67.9346 50.3074 67.1818 56.3522 60.3177 60.3156L45.6044 68.8181C38.7403 72.7815 28.2671 73.2133 22.322 69.7813L4.01054 59.2085C-1.9346 55.7765 -1.18177 49.7317 5.68226 45.7683Z" fill="url(#paint1_linear_7216_4107)"/>
<path d="M5.948 45.0045L20.5175 36.5905C27.3151 32.6713 37.6886 32.2396 43.5673 35.6384L61.7017 46.1116C67.5914 49.5104 66.8386 55.4998 60.041 59.4189L45.4715 67.8329C38.6739 71.752 28.3004 72.1838 22.4217 68.785L4.29842 58.3118C-1.59137 54.9241 -0.849607 48.9236 5.948 45.0045Z" fill="#7C78F0"/>
<path d="M7.943 44.7927L21.4386 36.9987C27.7269 33.3674 37.3366 32.9688 42.7946 36.113L59.5893 45.8112C65.0362 48.9554 64.3498 54.502 58.0615 58.1443L44.5659 65.9383C38.2776 69.5696 28.6679 69.9682 23.2099 66.824L6.4152 57.1258C0.968257 53.9816 1.65466 48.424 7.943 44.7927Z" fill="url(#paint2_linear_7216_4107)"/>
<path d="M18.2484 58.8712C18.6359 58.6498 19.2669 58.6498 19.6655 58.8712C20.053 59.0926 20.053 59.458 19.6655 59.6905C19.278 59.9119 18.6469 59.9119 18.2484 59.6905C17.872 59.458 17.8609 59.0926 18.2484 58.8712Z" fill="#D1D6FF"/>
<path d="M47.7412 43.4931C47.3537 43.7146 46.7226 43.7146 46.3241 43.4931C45.9366 43.2717 45.9255 42.9064 46.3241 42.6739C46.7116 42.4525 47.3426 42.4525 47.7412 42.6739C48.1287 42.8953 48.1287 43.2606 47.7412 43.4931Z" fill="#D1D6FF"/>
<path d="M50.7214 45.9629C50.2454 46.1179 49.6365 46.0293 49.3597 45.7525C49.0829 45.4758 49.249 45.1215 49.725 44.9665C50.2011 44.8115 50.81 44.9001 51.0868 45.1768C51.3525 45.4536 51.1975 45.8079 50.7214 45.9629Z" fill="#D1D6FF"/>
<path d="M52.4819 48.7984C51.9505 48.8759 51.3969 48.6988 51.253 48.3888C51.1091 48.0788 51.419 47.7688 51.9505 47.6803C52.4819 47.6028 53.0354 47.7799 53.1793 48.0899C53.3233 48.3999 53.0133 48.7209 52.4819 48.7984Z" fill="#D1D6FF"/>
<path d="M52.9124 51.7959C52.3589 51.7959 51.916 51.5413 51.916 51.2202C51.916 50.8992 52.3589 50.6445 52.9124 50.6445C53.466 50.6445 53.9088 50.8992 53.9088 51.2202C53.9088 51.5413 53.466 51.7959 52.9124 51.7959Z" fill="#D1D6FF"/>
<path d="M51.9949 54.7517C51.4635 54.6631 51.1425 54.3531 51.2864 54.0431C51.4303 53.7331 51.9728 53.556 52.5042 53.6335C53.0356 53.7221 53.3567 54.0321 53.2127 54.342C53.0799 54.652 52.5263 54.8292 51.9949 54.7517Z" fill="#D1D6FF"/>
<path d="M49.7787 57.4629C49.3027 57.3079 49.1366 56.9536 49.4134 56.6768C49.6902 56.4001 50.2991 56.3115 50.7751 56.4665C51.2512 56.6215 51.4173 56.9758 51.1405 57.2525C50.8637 57.5293 50.2548 57.6179 49.7787 57.4629Z" fill="#D1D6FF"/>
<path d="M46.8678 59.7431C46.4803 59.5217 46.4803 59.1564 46.8678 58.9239C47.2552 58.7025 47.8863 58.7025 48.2849 58.9239C48.6723 59.1453 48.6723 59.5106 48.2849 59.7431C47.8974 59.9646 47.2663 59.9646 46.8678 59.7431Z" fill="#D1D6FF"/>
<path d="M42.1449 61.4381C41.8681 61.1613 42.0341 60.807 42.5102 60.652C42.9862 60.497 43.5952 60.5856 43.8719 60.8624C44.1487 61.1392 43.9826 61.4934 43.5066 61.6484C43.0416 61.8145 42.4216 61.7149 42.1449 61.4381Z" fill="#D1D6FF"/>
<path d="M37.2471 62.4474C37.1032 62.1374 37.4132 61.8274 37.9446 61.7388C38.476 61.6613 39.0296 61.8385 39.1735 62.1485C39.3174 62.4585 39.0074 62.7685 38.476 62.857C37.9446 62.9345 37.3911 62.7463 37.2471 62.4474Z" fill="#D1D6FF"/>
<path d="M32.0664 62.6792C32.0664 62.3581 32.5092 62.1035 33.0628 62.1035C33.6164 62.1035 34.0592 62.3581 34.0592 62.6792C34.0592 63.0003 33.6164 63.2549 33.0628 63.2549C32.5092 63.2549 32.0664 62.9892 32.0664 62.6792Z" fill="#D1D6FF"/>
<path d="M26.9377 62.125C27.0817 61.815 27.6241 61.6379 28.1556 61.7154C28.687 61.804 29.008 62.114 28.8641 62.424C28.7202 62.7339 28.1777 62.9111 27.6463 62.8336C27.1149 62.745 26.7938 62.435 26.9377 62.125Z" fill="#D1D6FF"/>
<path d="M22.2308 60.8311C22.5076 60.5544 23.1165 60.4658 23.5925 60.6208C24.0686 60.7758 24.2346 61.1301 23.9579 61.4068C23.6811 61.6836 23.0722 61.7722 22.5961 61.6172C22.1201 61.4511 21.954 61.1079 22.2308 60.8311Z" fill="#D1D6FF"/>
<path d="M15.2817 56.3923C15.7577 56.2373 16.3666 56.3258 16.6434 56.6026C16.9202 56.8794 16.7541 57.2337 16.2781 57.3887C15.802 57.5437 15.1931 57.4551 14.9163 57.1783C14.6396 56.9015 14.8056 56.5583 15.2817 56.3923Z" fill="#D1D6FF"/>
<path d="M13.5227 53.5611C14.0541 53.4836 14.6077 53.6608 14.7516 53.9707C14.8955 54.2807 14.5855 54.5907 14.0541 54.6793C13.5227 54.7568 12.9692 54.5796 12.8253 54.2697C12.6813 53.9597 12.9913 53.6497 13.5227 53.5611Z" fill="#D1D6FF"/>
<path d="M13.0901 50.5703C13.6437 50.5703 14.0865 50.836 14.0865 51.146C14.0865 51.4671 13.6437 51.7217 13.0901 51.7217C12.5366 51.7217 12.0938 51.456 12.0938 51.146C12.0938 50.8249 12.5366 50.5703 13.0901 50.5703Z" fill="#D1D6FF"/>
<path d="M14.0081 47.6118C14.5395 47.7004 14.8606 48.0103 14.7166 48.3203C14.5727 48.6303 14.0302 48.8075 13.4988 48.73C12.9674 48.6414 12.6464 48.3314 12.7903 48.0214C12.9342 47.7114 13.4767 47.5232 14.0081 47.6118Z" fill="#D1D6FF"/>
<path d="M16.239 44.9001C16.7151 45.0551 16.8811 45.4093 16.6044 45.6861C16.3276 45.9629 15.7187 46.0515 15.2426 45.8965C14.7666 45.7415 14.6005 45.3872 14.8773 45.1104C15.154 44.8337 15.763 44.7451 16.239 44.9001Z" fill="#D1D6FF"/>
<path d="M19.5895 42.6197C19.977 42.8411 19.977 43.2064 19.5895 43.4389C19.2021 43.6604 18.571 43.6604 18.1725 43.4389C17.785 43.2175 17.785 42.8522 18.1725 42.6197C18.571 42.3872 19.2021 42.3872 19.5895 42.6197Z" fill="#D1D6FF"/>
<path d="M23.8739 40.9112C24.1507 41.188 23.9846 41.5423 23.5085 41.6973C23.0325 41.8522 22.4236 41.7637 22.1468 41.4869C21.87 41.2101 22.0361 40.8559 22.5121 40.7009C22.9771 40.5459 23.5971 40.6344 23.8739 40.9112Z" fill="#D1D6FF"/>
<path d="M28.7643 39.92C28.9082 40.2299 28.5982 40.5399 28.0668 40.6285C27.5354 40.706 26.9819 40.5289 26.8379 40.2189C26.694 39.9089 27.004 39.5989 27.5354 39.5103C28.0779 39.4328 28.6204 39.61 28.7643 39.92Z" fill="#D1D6FF"/>
<path d="M33.9586 39.6851C33.9586 40.0061 33.5158 40.2608 32.9622 40.2608C32.4087 40.2608 31.9658 39.9951 31.9658 39.6851C31.9658 39.364 32.4087 39.1094 32.9622 39.1094C33.5047 39.1094 33.9475 39.3751 33.9586 39.6851Z" fill="#D1D6FF"/>
<path d="M39.076 40.2404C38.9321 40.5503 38.3896 40.7275 37.8582 40.65C37.3268 40.5614 37.0057 40.2514 37.1497 39.9414C37.2936 39.6315 37.8361 39.4543 38.3675 39.5318C38.8989 39.6204 39.2199 39.9414 39.076 40.2404Z" fill="#D1D6FF"/>
<path d="M43.7753 41.5455C43.4985 41.8223 42.8896 41.9108 42.4135 41.7558C41.9375 41.6009 41.7714 41.2466 42.0482 40.9698C42.3249 40.693 42.9339 40.6045 43.4099 40.7595C43.886 40.9144 44.052 41.2687 43.7753 41.5455Z" fill="#D1D6FF"/>
<path d="M63.1987 50.3066C63.1987 50.3066 63.6636 54.4915 59.3017 57.1707C54.9397 59.8499 43.448 66.3818 43.448 66.3818C43.448 66.3818 36.5397 69.1163 31.292 68.917C31.292 68.917 33.0634 69.1606 35.4215 69.072C41.2338 68.8727 45.9943 66.3043 47.5775 65.2968C49.1606 64.2893 58.4603 58.9642 59.9659 58.0121C61.4716 57.06 64.4608 54.3918 63.1987 50.3066Z" fill="url(#paint3_radial_7216_4107)"/>
<path d="M33.8725 48.5332L45.056 36.8477L14.4756 54.5712L31.9621 52.368L34.0538 51.1687L39.1854 53.4975L33.8725 48.5332Z" fill="url(#paint4_linear_7216_4107)"/>
<path opacity="0.72" d="M39.2683 53.613L33.9554 48.6627L31.8777 49.8619L26.7461 47.5332L32.045 52.4835L34.1367 51.2843L39.2683 53.613Z" fill="url(#paint5_linear_7216_4107)"/>
<path d="M45.7684 31.7876L44.862 1.69525L45.5732 0.649407L44.2903 0.0637346C44.0253 -0.047822 43.6767 -0.0199328 43.3142 0.20318L11.4926 18.624C10.6699 19.0981 10.0285 20.2555 10.0703 21.2037L11.0046 51.9097L11.0325 52.7463C11.0604 53.5133 11.3811 54.0153 11.8552 54.1966L13.0963 54.7544L13.8772 53.597L43.7883 36.2778C44.9457 35.6085 45.8521 33.9769 45.8102 32.6243L45.7684 31.7876Z" fill="url(#paint6_linear_7216_4107)"/>
<path d="M11.3496 21.7891L12.3118 53.3317C12.3536 54.6843 13.3297 55.2282 14.4732 54.5588L45.0676 36.8492C46.225 36.1799 47.1314 34.5483 47.0896 33.1957L47.0617 32.3591L12.2839 52.495L11.3496 21.7891Z" fill="url(#paint7_linear_7216_4107)"/>
<path d="M44.5954 0.787773L12.7739 19.1946C11.9512 19.6687 11.3097 20.8261 11.3515 21.7744L12.2858 52.4803L47.0636 32.3583L46.1293 1.65234C46.1014 0.704105 45.4042 0.313657 44.5954 0.787773Z" fill="#332B99"/>
<path d="M45.2329 1.56836L13.0209 20.2123C12.5189 20.5051 12.2121 21.0489 12.226 21.6346L13.0767 49.7748L46.1114 30.6567L45.2329 1.56836Z" fill="url(#paint8_linear_7216_4107)"/>
<path d="M25.2126 26.293L24.7385 26.5719V28.9982L23.3301 29.8209V35.5522L24.7385 34.7294V37.114L25.2126 36.849V34.4505L26.6349 33.6278V27.9105L25.2126 28.7193V26.293Z" fill="url(#paint9_linear_7216_4107)"/>
<path d="M35.8506 21.0912V18.5254L35.3764 18.7903V21.3561L33.9541 22.1789V33.2927L35.3764 32.47V35.0497L35.8506 34.7708V32.205L37.2729 31.3823V20.2685L35.8227 21.1051L35.8506 21.0912Z" fill="url(#paint10_linear_7216_4107)"/>
<path d="M31.7658 15.7205L30.3435 16.5292V14.2284L29.8693 14.5073V16.8081L28.4609 17.6309V30.8643L29.8693 30.0555V32.5795L30.3435 32.3006V29.7766L31.7658 28.9539V15.7205Z" fill="url(#paint11_linear_7216_4107)"/>
<defs>
<linearGradient id="paint0_linear_7216_4107" x1="1.25823" y1="55.808" x2="64.7475" y2="55.808" gradientUnits="userSpaceOnUse">
<stop offset="0.238" stop-color="#7583FF"/>
<stop offset="1" stop-color="#332B99"/>
</linearGradient>
<linearGradient id="paint1_linear_7216_4107" x1="0.00282988" y1="53.0397" x2="66.0015" y2="53.0397" gradientUnits="userSpaceOnUse">
<stop stop-color="#4502C6"/>
<stop offset="1" stop-color="#803EFF"/>
</linearGradient>
<linearGradient id="paint2_linear_7216_4107" x1="2.7384" y1="51.4674" x2="63.2703" y2="51.4674" gradientUnits="userSpaceOnUse">
<stop stop-color="#DBDFFF"/>
<stop offset="1" stop-color="#7583FF"/>
</linearGradient>
<radialGradient id="paint3_radial_7216_4107" cx="0" cy="0" r="1" gradientUnits="userSpaceOnUse" gradientTransform="translate(47.3957 59.698) scale(16.5227 16.5227)">
<stop offset="0.8229" stop-color="#C6CCFF"/>
<stop offset="0.9153" stop-color="#FDFDFF"/>
<stop offset="1" stop-color="white"/>
</radialGradient>
<linearGradient id="paint4_linear_7216_4107" x1="26.1515" y1="37.1219" x2="33.0901" y2="53.6061" gradientUnits="userSpaceOnUse">
<stop offset="0.3622" stop-color="white" stop-opacity="0"/>
<stop offset="0.37" stop-color="#FFFCFF" stop-opacity="0.0123"/>
<stop offset="0.5443" stop-color="#FFB2F7" stop-opacity="0.2865"/>
<stop offset="0.7004" stop-color="#FF78F2" stop-opacity="0.5319"/>
<stop offset="0.8327" stop-color="#FF4DED" stop-opacity="0.7401"/>
<stop offset="0.9362" stop-color="#FF34EB" stop-opacity="0.9028"/>
<stop offset="0.998" stop-color="#FF2AEA"/>
</linearGradient>
<linearGradient id="paint5_linear_7216_4107" x1="26.0648" y1="47.0121" x2="37.8987" y2="53.0826" gradientUnits="userSpaceOnUse">
<stop stop-color="#F8B60C"/>
<stop offset="0.1077" stop-color="#F9BC1E"/>
<stop offset="0.3248" stop-color="#FACA4E"/>
<stop offset="0.6316" stop-color="#FCE19B"/>
<stop offset="0.998" stop-color="white"/>
</linearGradient>
<linearGradient id="paint6_linear_7216_4107" x1="12.1549" y1="54.4013" x2="43.786" y2="-0.385426" gradientUnits="userSpaceOnUse">
<stop offset="0.0138" stop-color="#7885FF"/>
<stop offset="0.4097" stop-color="#8E97DD"/>
<stop offset="0.4581" stop-color="#D1D6FF"/>
<stop offset="0.4851" stop-color="#DFE3FF"/>
<stop offset="0.5023" stop-color="#EBEDFF"/>
</linearGradient>
<linearGradient id="paint7_linear_7216_4107" x1="29.448" y1="27.0211" x2="20.3528" y2="56.9754" gradientUnits="userSpaceOnUse">
<stop stop-color="#DBDFFF"/>
<stop offset="1" stop-color="#9BA5FF"/>
</linearGradient>
<linearGradient id="paint8_linear_7216_4107" x1="48.48" y1="-10.1278" x2="11.5573" y2="58.8069" gradientUnits="userSpaceOnUse">
<stop stop-color="#E5D8FF"/>
<stop offset="0.1934" stop-color="#D5BFFF"/>
<stop offset="0.6004" stop-color="#AC81FF"/>
<stop offset="1" stop-color="#803EFF"/>
</linearGradient>
<linearGradient id="paint9_linear_7216_4107" x1="25.05" y1="36.4609" x2="24.7344" y2="14.4583" gradientUnits="userSpaceOnUse">
<stop stop-color="white"/>
<stop offset="0.2073" stop-color="#FAE3FF"/>
<stop offset="0.5576" stop-color="#F3B9FF"/>
<stop offset="0.8332" stop-color="#EFA0FF"/>
<stop offset="0.998" stop-color="#ED96FF"/>
</linearGradient>
<linearGradient id="paint10_linear_7216_4107" x1="35.7502" y1="36.3071" x2="35.4347" y2="14.3045" gradientUnits="userSpaceOnUse">
<stop stop-color="white"/>
<stop offset="0.2073" stop-color="#FAE3FF"/>
<stop offset="0.5576" stop-color="#F3B9FF"/>
<stop offset="0.8332" stop-color="#EFA0FF"/>
<stop offset="0.998" stop-color="#ED96FF"/>
</linearGradient>
<linearGradient id="paint11_linear_7216_4107" x1="28.4558" y1="23.4057" x2="31.7685" y2="23.4057" gradientUnits="userSpaceOnUse">
<stop stop-color="#2CF2C5"/>
<stop offset="0.1068" stop-color="#3AF3C9"/>
<stop offset="1" stop-color="#AEFAE9"/>
</linearGradient>
</defs>
</svg>
