<svg width="273" height="128" viewBox="0 0 273 128" fill="none" xmlns="http://www.w3.org/2000/svg">
<path d="M6.95077 0.788086H265.987C269.7 0.788086 272.719 3.80681 272.719 7.52011V120.282C272.719 123.995 269.7 127.014 265.987 127.014H6.95077C3.23747 127.014 0.21875 123.995 0.21875 120.282V7.52011C0.21875 3.80681 3.23747 0.788086 6.95077 0.788086Z" fill="#454762"/>
<path d="M90.7536 37.4271L94.4001 33.0593L94.8276 33.3932L91.1276 37.761L90.7536 37.4271ZM87.962 29.5597C88.0154 29.5062 88.0688 29.3994 88.1757 29.3994C88.2291 29.3994 88.336 29.3994 88.3894 29.4528C88.5497 29.5062 88.6031 29.6665 88.5497 29.8402C88.5497 29.8402 88.5497 29.8936 88.4963 29.8936C88.4428 29.947 88.3894 30.0539 88.2825 30.0539C88.2291 30.0539 88.1223 30.0539 88.0688 30.0005C88.0154 29.947 87.962 29.8936 87.9085 29.8402C87.9085 29.7333 87.9086 29.6131 87.962 29.5597ZM87.7483 34.0343C88.336 33.1661 89.5782 33.7672 90.2728 34.1412L90.4865 33.8073C90.9139 33.2062 90.8605 32.8856 90.3796 32.5517C90.1125 32.3914 89.7919 32.2845 89.4179 32.2845L89.5248 32.0174C89.8988 32.0174 90.2728 32.1243 90.5933 32.3513C91.2879 32.8455 91.4482 33.3398 90.9139 34.1011L89.8453 35.6238C89.5782 36.0112 89.6316 36.118 89.7385 36.1715C89.8453 36.2249 89.8988 36.2783 90.0056 36.2783L89.8988 36.492C89.6851 36.4386 89.5248 36.3852 89.3111 36.2783C89.0973 36.1181 89.0439 35.9444 89.2576 35.5704C88.8836 35.7307 88.4028 35.6773 88.0822 35.4101C87.6013 35.1964 87.441 34.5953 87.6548 34.1011C87.6948 34.1545 87.6948 34.1011 87.7483 34.0343ZM88.2291 34.3148C88.0154 34.582 88.0688 34.9693 88.336 35.183C88.3894 35.183 88.3894 35.2365 88.4428 35.2365C88.7634 35.4502 89.1374 35.4502 89.458 35.2899L90.0991 34.3683C89.4179 34.0343 88.6031 33.7672 88.2291 34.3148ZM87.8551 92.4453L88.1223 92.7125C88.1757 92.2717 88.4428 91.8977 88.8168 91.724C89.2977 91.3367 89.9388 91.4569 90.3262 91.9377C90.3796 91.9912 90.3796 92.0446 90.4331 92.098L91.889 94.342L91.4616 94.676L90.0591 92.5522C89.6851 92.0045 89.3111 91.8977 88.8836 92.1648C88.6165 92.3251 88.4028 92.659 88.3493 92.9796L90.0724 95.5976L89.645 95.9315L87.5479 92.7125L87.8551 92.4453ZM87.4544 30.5615L85.6645 33.9141L86.132 34.1813L87.9353 30.8286L87.4544 30.5615ZM85.01 51.3452C85.2772 51.3452 85.4909 51.6792 85.4909 52.1066C85.4909 52.5474 85.2772 52.868 85.01 52.868C84.7429 52.868 84.5292 52.534 84.5292 52.1066C84.5292 51.6792 84.7429 51.3452 85.01 51.3452ZM84.7429 96.2655C85.2238 97.2539 85.7046 97.6279 86.3591 97.3073C87.0003 96.9734 87.0537 96.3857 86.5728 95.3438C86.092 94.302 85.6111 93.9814 84.9566 94.302C84.3155 94.6359 84.262 95.2904 84.7429 96.2655ZM84.2086 96.546C83.6743 95.3972 83.8346 94.529 84.7963 94.0348C85.758 93.5406 86.5728 93.9814 87.1071 95.1301C87.6414 96.2788 87.4277 97.2005 86.5194 97.6413C85.5978 98.0687 84.7429 97.6947 84.2086 96.546ZM83.5541 32.9524C82.5924 32.565 82.3252 31.7502 82.8061 30.4947C83.287 29.2391 84.1017 28.8517 85.1169 29.2925C85.4375 29.4528 85.758 29.6799 85.9718 30.0005L85.8115 30.2676C85.6512 30.0005 85.384 29.7734 85.0635 29.6131C84.3689 29.2792 83.8346 29.6131 83.3938 30.7084C82.9664 31.8037 83.1801 32.4048 83.7678 32.6185C84.0884 32.7788 84.5158 32.7253 84.783 32.565L84.9432 32.8322C84.5826 33.1127 84.0483 33.1661 83.5541 32.9524ZM82.8595 99.0571L81.6307 95.4507L82.1115 95.2904L83.4072 98.8968L82.8595 99.0571ZM81.791 94.1951C81.8444 94.3554 81.791 94.529 81.6307 94.5825H81.5639C81.5105 94.6359 81.4036 94.6359 81.3502 94.5825C81.2433 94.529 81.1899 94.4756 81.1899 94.3687C81.1365 94.2619 81.1365 94.2085 81.1899 94.1016C81.2433 94.0482 81.2967 93.9947 81.3502 93.9413C81.4036 93.8879 81.5105 93.8879 81.5639 93.9413C81.6707 94.0882 81.7242 94.1417 81.791 94.1951ZM78.3047 31.0957L79.2664 27.3824L79.6939 27.4893V27.8767C80.0145 27.663 80.4419 27.6095 80.8693 27.7164C81.457 27.8232 81.831 28.4243 81.7242 28.972C81.7242 29.0254 81.6707 29.1322 81.6707 29.1857L80.9762 31.7502L80.4419 31.59L81.083 29.1322C81.2433 28.4777 81.0296 28.1438 80.5487 27.9835C80.2282 27.8767 79.8542 27.9301 79.587 28.0904L78.839 31.0957H78.3047ZM78.7322 99.765L78.839 99.4311C79.1596 99.6983 79.5336 99.765 79.9076 99.6448C80.335 99.5914 80.6022 99.204 80.5487 98.83C80.5487 98.7766 80.5487 98.7766 80.5487 98.7232C80.2816 97.7348 78.6654 98.6698 78.2914 97.4142C78.1311 96.8131 78.5051 96.212 79.0928 96.0518C79.1462 96.0518 79.1462 96.0518 79.1997 96.0518C79.5202 95.9983 79.8942 95.9983 80.2148 96.1052V96.4391C79.9477 96.3322 79.6271 96.2788 79.3065 96.3857C78.8257 96.4925 78.6119 96.8265 78.7188 97.2005C78.9859 98.1889 80.709 97.2539 81.0296 98.5629C81.1899 99.164 80.9227 99.8185 80.0145 100.032C79.587 100.206 79.1062 100.086 78.7322 99.765ZM76.1008 51.3452C76.3679 51.3452 76.5817 51.6792 76.5817 52.1066C76.5817 52.5474 76.3679 52.868 76.1008 52.868C75.8336 52.868 75.6199 52.534 75.6199 52.1066C75.6066 51.6792 75.8203 51.3452 76.1008 51.3452ZM75.1257 30.7084C74.4846 30.655 74.0571 30.2142 74.164 29.6131C74.2709 28.5712 75.6734 28.5178 76.4748 28.5178L76.5282 28.1305C76.6351 27.4225 76.4214 27.142 75.8336 27.0886C75.5131 27.0886 75.1391 27.1954 74.8719 27.3557V26.9684C75.1391 26.8081 75.5131 26.7547 75.8871 26.7547C76.6885 26.8615 77.1159 27.1954 76.9557 28.1705L76.7954 30.0272C76.7419 30.468 76.8488 30.5748 76.9557 30.5748C77.0625 30.5748 77.1694 30.5748 77.2762 30.5214V30.7885C77.0625 30.842 76.9022 30.842 76.6885 30.842C76.4214 30.7885 76.3145 30.6817 76.3145 30.2409C75.9806 30.6015 75.4997 30.7618 75.1257 30.7084ZM74.6983 29.6131C74.6449 29.947 74.8586 30.2676 75.1791 30.3745C75.2326 30.3745 75.286 30.3745 75.286 30.3745C75.66 30.4279 76.034 30.2676 76.1943 29.9337L76.3546 28.8384C75.6066 28.7983 74.7517 28.9052 74.6983 29.6131ZM76.6885 99.6582C76.5282 98.6163 74.8051 99.3911 74.6449 98.0687C74.538 97.4142 75.0189 96.92 75.7134 96.8131C76.0874 96.7597 76.408 96.8131 76.7286 96.9734L76.6752 97.3073C76.408 97.147 76.0874 97.0936 75.7669 97.147C75.286 97.2005 75.0189 97.5344 75.0723 97.855C75.2326 98.8968 77.0091 98.1221 77.2228 99.4445C77.3297 100.046 76.9557 100.647 76.0474 100.807C75.5665 100.914 75.0856 100.753 74.7517 100.42L74.912 100.152C75.1791 100.42 75.5531 100.593 75.9271 100.54C76.5816 100.42 76.7419 100.032 76.6885 99.6582ZM72.4943 98.0153L72.4409 97.2005H72.7615H73.0286L73.1889 101.021L72.6546 101.074L72.4943 98.0153ZM72.4943 96.3857C72.4409 96.3323 72.3875 96.2254 72.3875 96.172C72.3875 96.0651 72.3875 96.0117 72.4943 95.9048C72.5478 95.8514 72.6012 95.798 72.7081 95.798C72.8149 95.798 72.8684 95.798 72.9218 95.8514C72.9752 95.9048 73.0286 96.0117 73.0286 96.0651C73.0286 96.172 73.0286 96.2254 72.9218 96.3323C72.8684 96.3857 72.7615 96.4391 72.7081 96.4391C72.6012 96.4391 72.5478 96.4391 72.4943 96.3857ZM70.611 30.4947H70.0767L69.9698 26.6745H70.3973L70.5041 27.0619C70.7713 26.7279 71.1987 26.5677 71.6261 26.5677C72.2138 26.5142 72.7481 26.955 72.8016 27.5561C72.8016 27.6095 72.8016 27.7164 72.8016 27.7698L72.855 30.4412H72.3207L72.2673 27.8767C72.2673 27.2222 71.9467 26.955 71.4659 26.955C71.1453 26.955 70.7713 27.1153 70.5576 27.3424L70.611 30.4947ZM67.3919 25.5792C67.4453 25.5258 67.4988 25.4724 67.5522 25.4724H67.6056C67.7125 25.4724 67.7659 25.4724 67.8193 25.5258C67.8728 25.5792 67.9262 25.6861 67.9262 25.7395C67.9262 25.8464 67.9262 25.8998 67.8728 26.0067C67.8193 26.0601 67.7659 26.1135 67.6591 26.1135C67.6056 26.1135 67.4988 26.1135 67.4453 26.0601C67.3385 26.0601 67.2851 25.9532 67.2851 25.8464C67.2851 25.7395 67.285 25.6861 67.3919 25.5792ZM67.9796 30.7618L67.4988 26.9417H67.7659L68.0331 26.8882L68.5139 30.655L67.9796 30.7618ZM67.2316 51.3452C67.4988 51.3452 67.7125 51.6792 67.7125 52.1066C67.7125 52.5474 67.4988 52.868 67.2316 52.868C66.9645 52.868 66.7508 52.534 66.7508 52.1066C66.7508 51.6792 66.9645 51.3452 67.2316 51.3452ZM66.2031 100.807L66.5237 96.9868L66.9511 97.0402L67.0045 97.481C67.2717 97.2138 67.6991 97.0402 68.1266 97.0936C68.4471 97.0936 68.7677 97.3073 68.8746 97.6413C69.1951 97.3741 69.5691 97.2005 69.9966 97.2539C70.5308 97.3073 70.8514 97.5878 70.8514 98.1755C70.8514 98.229 70.8514 98.3358 70.8514 98.3893L70.6377 101.168L70.1034 101.114L70.3171 98.3893C70.3706 97.7882 70.1568 97.6279 69.8363 97.5745C69.5157 97.5745 69.1951 97.6813 68.9814 97.9084C68.9814 97.9618 68.9814 98.0687 68.9814 98.1755L68.7677 100.954L68.2334 100.9L68.4471 98.1755C68.5005 97.5745 68.3403 97.4142 67.9663 97.3607C67.6457 97.3607 67.3251 97.4676 67.1114 97.6947L66.8443 100.753L66.2031 100.807ZM64.2797 31.5232L63.1577 26.6612L65.7356 26.0067L65.8425 26.394L63.7988 26.8882L64.2263 28.8517L66.0028 28.411L66.1096 28.7449L64.3331 29.1857L64.814 31.4297L64.2797 31.5232ZM59.7649 99.2174L60.7267 95.5041L61.1541 95.611L61.1007 96.0518C61.4212 95.838 61.8487 95.7846 62.2227 95.8915C62.5432 95.9449 62.8104 96.2254 62.8638 96.546C63.2378 96.3323 63.6652 96.2788 64.0392 96.3857C64.627 96.546 64.8407 96.9333 64.627 97.6947L63.879 100.42L63.3447 100.259L64.0392 97.5878C64.1995 96.9868 64.0393 96.8265 63.6653 96.7196C63.3447 96.6128 63.0241 96.7196 62.757 96.8799C62.757 96.9333 62.7035 97.0402 62.7035 97.147L61.9555 99.8719L61.4212 99.7116L62.1158 97.0402C62.2761 96.4391 62.1158 96.2788 61.7952 96.172C61.4747 96.1185 61.1541 96.172 60.887 96.3323L60.2992 99.3911L59.7649 99.2174ZM58.309 51.3452C58.5762 51.3452 58.8433 51.6792 58.8433 52.1066C58.8967 52.4405 58.7365 52.7077 58.4159 52.8145C58.3624 52.8145 58.3624 52.8145 58.309 52.8145C58.0419 52.8145 57.8282 52.4806 57.8282 52.0532C57.8282 51.6124 58.0419 51.3452 58.309 51.3452ZM58.1487 30.0539C57.6144 30.321 57.5076 30.8687 57.8816 31.8037L59.4978 30.9889C59.4978 30.9355 59.4444 30.882 59.4444 30.882C59.0704 30.1073 58.6296 29.8402 58.1487 30.0539ZM57.5076 32.2979C56.9733 31.1492 57.1336 30.1741 58.0419 29.7333C58.7899 29.346 59.5512 29.6799 60.0321 30.7217C60.0855 30.8286 60.139 30.9355 60.139 31.0557L58.0953 32.0975C58.5227 33.086 59.1104 33.2997 59.7649 33.0192C60.139 32.8589 60.3527 32.525 60.4061 32.151L60.6732 32.2044C60.6198 32.6986 60.2458 33.126 59.8184 33.3531C58.8567 33.7672 58.0419 33.5 57.5076 32.2979ZM55.7845 95.3973C56.3188 94.2485 57.1336 93.8077 58.0419 94.2485C58.9502 94.6893 59.2173 95.611 58.683 96.7597C58.1487 97.9084 57.3339 98.3492 56.4257 97.9084C55.5174 97.4676 55.3036 96.546 55.7845 95.3973ZM56.3322 95.6644C55.9047 96.6528 55.9582 97.3073 56.5993 97.6279C57.2404 97.9618 57.7747 97.5745 58.2155 96.5326C58.643 95.4908 58.5895 94.8897 57.9484 94.5691C57.2939 94.2485 56.813 94.6893 56.3322 95.6644ZM53.4737 32.9524C53.5271 32.565 53.7943 32.191 54.1149 31.964C54.5957 31.5766 55.2369 31.6968 55.6242 32.1777C55.6777 32.2311 55.6777 32.2845 55.7311 32.338L57.187 34.582L56.7596 34.9159L55.3036 32.7387C54.9831 32.191 54.6091 32.1376 54.1816 32.4715C53.9145 32.6318 53.7008 32.9658 53.6474 33.2863L55.3704 35.9043L54.943 36.2383L51.8308 31.4831L52.2582 31.1492L53.4737 32.9524ZM52.2983 95.611C51.1763 94.8496 51.0026 93.6475 51.8174 92.3385C52.6189 91.0294 53.9145 90.5887 54.9831 91.2966C55.4105 91.5637 55.7311 91.9511 55.9448 92.4453L55.6777 92.7125C55.4639 92.2717 55.1968 91.8977 54.7694 91.6172C53.9679 91.0695 53.0463 91.4035 52.2983 92.6056C51.5503 93.8077 51.6571 94.7294 52.512 95.277C52.9929 95.5442 53.5271 95.611 54.0748 95.3839L54.1282 95.7178C53.5806 96.0518 52.886 95.9983 52.2983 95.611ZM81.791 53.7495V54.8448H82.2718V55.6596H82.9664L82.5924 72.5832C82.5924 72.7969 82.8061 72.9705 82.9664 72.9171C83.1801 72.9171 83.3404 72.8102 83.3938 72.5832L83.5541 55.6596H84.035L83.8213 72.5832C83.8213 72.7969 84.035 72.9171 84.1953 72.9171C84.409 72.9171 84.5693 72.8102 84.6227 72.5832V55.6596H85.1035V72.5832C85.157 72.7969 85.3173 72.9171 85.531 72.9171C85.7447 72.9171 85.905 72.8102 85.905 72.5832L85.7046 55.6596H86.1855L86.3458 72.5832C86.3458 72.7969 86.5595 72.9171 86.7732 72.9171C86.9869 72.9171 87.1472 72.8102 87.1472 72.5832L86.7732 55.6596H87.4678V54.8448H87.9486V53.7495H81.791ZM87.6414 72.9572H82.0581V73.4514H81.791V74.2662H87.962V73.4514H87.6948L87.6414 72.9572ZM72.9218 73.4514V74.2662H79.0928V73.4514H78.7722V72.9572H73.1889V73.4514H72.9218ZM72.9218 53.7495V54.8448H73.4026V55.6596H74.0972L73.7232 72.5297C73.7232 72.7435 73.9369 72.9171 74.0972 72.8637C74.3109 72.8637 74.4712 72.7568 74.5246 72.5297L74.6849 55.6062H75.1658L74.9521 72.5297C74.9521 72.7435 75.1658 72.8637 75.3261 72.8637C75.5398 72.8637 75.7001 72.7568 75.7535 72.5297V55.6062H76.2344V72.5297C76.2878 72.7435 76.4481 72.8637 76.6618 72.8637C76.8755 72.8637 77.0358 72.7568 77.0358 72.5297L76.8221 55.6062H77.3029L77.4632 72.5297C77.4632 72.7435 77.6769 72.8637 77.8907 72.8637C78.1044 72.8637 78.2647 72.7568 78.2647 72.5297L77.8907 55.6062H78.5318V54.8448H79.0127V53.7495H72.9218ZM69.9698 72.9572H64.3865V73.4514H64.066V74.2662H70.237V73.4514H69.9698V72.9572ZM64.6003 55.6062H65.2948L64.9208 72.5297C64.9208 72.7435 65.1345 72.8637 65.3483 72.8637C65.562 72.8637 65.7223 72.7568 65.7757 72.5297L65.936 55.6062H66.4168L66.2031 72.5297C66.2031 72.7435 66.4168 72.8637 66.5771 72.8637C66.7908 72.8637 66.9511 72.7568 67.0045 72.5297V55.6062H67.4854V72.5297C67.5388 72.7435 67.7526 72.9171 67.9663 72.8637C68.1266 72.8102 68.2334 72.7034 68.2868 72.5297L68.0731 55.6062H68.554L68.7143 72.5297C68.7143 72.7435 68.928 72.8637 69.1417 72.8637C69.3554 72.8637 69.5157 72.7568 69.5157 72.5297L69.1417 55.6062H69.8363V54.7914H70.3171V53.6961H64.0927V54.7914H64.5735V55.6062H64.6003ZM53.8611 50.6907H89.3111V50.1431H53.8611V50.6907ZM55.3036 74.2662H61.4747V73.4514H61.1541V72.9572H55.6242V73.4514H55.3036V74.2662ZM54.6625 53.2019H88.4963V51.0113H54.6625V53.2019ZM55.3036 54.8448H55.7845V55.6596H56.4791L56.1051 72.5832C56.1051 72.7969 56.3188 72.9705 56.4791 72.9171C56.6928 72.9171 56.8531 72.8102 56.9065 72.5832L57.0668 55.6596H57.5477L57.3339 72.5832C57.3339 72.7969 57.5477 72.9171 57.7079 72.9171C57.9217 72.9171 58.0819 72.8102 58.1354 72.5832V55.6596H58.6162V72.5832C58.6697 72.7969 58.8299 72.9171 59.0437 72.9171C59.2574 72.9171 59.4177 72.8102 59.4177 72.5832L59.204 55.6596H59.6848L59.8451 72.5832C59.8451 72.7969 60.0588 72.9171 60.2725 72.9171C60.4862 72.9171 60.6465 72.8102 60.6465 72.5832L60.326 55.6596H61.0205V54.8448H61.5014V53.7495H55.2769V54.8448H55.3036ZM51.39 49.8225H91.8356L71.7998 40.3256L51.39 49.8225ZM52.9929 75.642H90.1659V74.5467H52.9929V75.642ZM42.8414 62.7523C42.8414 46.6435 55.6777 33.5535 71.5727 33.5535C87.4678 33.5535 100.304 46.6034 100.304 62.7523C100.304 78.5271 88.0021 91.4168 72.5344 91.9511C72.2139 91.9511 71.8933 91.9511 71.5727 91.9511C55.7311 91.8977 42.8948 78.861 42.8414 62.7523ZM51.2831 77.2715H91.9424V75.8557H51.2831V77.2715ZM52.6189 38.0816L49.6135 34.6488L48.5449 35.5704L48.3312 35.3033L50.8557 33.0593L51.0694 33.3264L50.0543 34.248L53.0596 37.6808L52.6189 38.0816ZM32.1022 63.3534C32.1022 83.2823 46.5013 100.139 65.8825 103.038C67.7659 103.305 69.7027 103.478 71.5727 103.478C93.385 103.478 111.057 85.5129 111.057 63.3534C111.057 41.1938 93.385 23.2284 71.5727 23.2284C49.7604 23.2284 32.1022 41.1938 32.1022 63.3534ZM71.5861 104.293C49.3463 104.293 31.3008 85.9537 31.3008 63.3534C31.3008 40.753 49.3463 22.4136 71.5861 22.4136C93.8258 22.4136 111.871 40.753 111.871 63.3534C111.818 85.9537 93.8258 104.24 71.5861 104.293ZM121.368 22.5204H120.834V105.388H121.368V22.5204ZM139.908 31.3629H135.928V44.7334H132.815V31.3629H128.835V29.6665H139.948L139.908 31.3629ZM141.618 27.4893L144.623 27.329V33.9943H144.73C145.531 33.2863 146.613 32.899 147.682 32.9524C150.046 32.9524 151.168 34.208 151.168 36.9328V44.8002H148.163V37.1599C148.163 35.3033 147.735 34.8625 146.6 34.8625C145.852 34.8625 145.091 35.1964 144.61 35.7307V44.7869H141.604L141.618 27.4893ZM162.522 42.7699C161.72 44.2392 160.158 45.1208 158.488 45.0674C155.269 45.0674 153.172 43.371 153.172 39.2303C153.172 35.0762 155.215 33.0058 158.221 33.0058C161.066 33.0058 162.682 34.8625 162.682 38.2418C162.682 38.7361 162.629 39.2303 162.522 39.7111H156.404C156.458 42.4894 157.152 43.5313 158.875 43.5313C159.944 43.4779 160.919 42.9302 161.507 42.0086L162.522 42.7699ZM156.337 38.135H159.824V37.5873C159.824 35.2365 159.396 34.4217 158.207 34.4217C157.045 34.4217 156.444 35.2365 156.337 38.135ZM138.506 66.3587H133.403V72.5832H130.237V57.5163H139.267V59.2126H133.416V64.7692H138.519L138.506 66.3587ZM142.486 55.713C142.913 55.713 143.341 55.8733 143.661 56.1538C143.982 56.5412 144.142 56.9686 144.142 57.4628C144.142 57.9571 143.982 58.4513 143.661 58.8253C143.341 59.0924 142.913 59.2661 142.486 59.2661C141.578 59.3195 140.763 58.5581 140.763 57.6231C140.763 57.5697 140.763 57.5163 140.763 57.4628C140.763 56.9686 140.977 56.4744 141.297 56.1538C141.631 55.8733 142.059 55.713 142.486 55.713ZM143.995 72.5832H140.99V60.9624H143.995V72.5832ZM146.734 60.9491H149.151L149.525 61.8707H149.632C149.632 61.8707 150.487 60.6686 152.851 60.6686C155.215 60.6686 156.337 61.9241 156.337 64.649V72.5164H153.332V65.3169C153.332 63.1931 152.905 62.6454 151.769 62.6454C151.021 62.6454 150.26 62.9126 149.726 63.4602V72.5164H146.667V60.9491H146.734ZM159.61 61.6036C160.679 61.0559 161.921 60.7353 163.15 60.6819C165.834 60.6819 167.557 61.6036 167.557 64.7158V69.9518C167.557 70.9402 167.825 71.2074 168.038 71.2074C168.305 71.2074 168.573 71.154 168.786 71.0471L168.893 72.2492C168.092 72.5164 167.224 72.69 166.369 72.7435C165.514 72.7435 165.02 72.3027 164.859 71.3276H164.752C164.752 71.3276 164.111 72.7435 161.747 72.7435C159.65 72.7435 158.261 71.5947 158.261 69.6847C158.261 66.6259 162.081 65.8111 164.539 65.584V64.9295C164.539 62.7523 163.951 62.2046 162.655 62.2046C161.587 62.2046 159.917 63.0729 159.917 63.0729L159.61 61.6036ZM164.499 66.9064C162.615 67.1201 161.386 67.7212 161.386 69.3641C161.386 70.6197 161.921 71.2207 162.736 71.2207C163.484 71.1673 164.191 70.6731 164.512 69.9652L164.499 66.9064ZM170.683 60.9491H173.101L173.475 61.8707H173.582C173.582 61.8707 174.436 60.6686 176.801 60.6686C179.165 60.6686 180.287 61.9241 180.287 64.649V72.5164H177.282V65.3169C177.282 63.1931 176.854 62.6454 175.772 62.6454C175.024 62.6454 174.263 62.9126 173.729 63.4602V72.5164H170.723L170.683 60.9491ZM188.034 62.2581C186.418 62.2581 185.456 63.0194 185.456 66.7862C185.456 70.5529 186.525 71.2608 187.927 71.2608C188.996 71.2608 190.024 70.6063 190.505 69.6713L191.574 70.3792C191.574 70.3792 190.719 72.837 187.593 72.837C184.107 72.837 182.17 70.7666 182.17 66.8262C182.17 63.0595 184.214 60.7086 187.647 60.7086C188.835 60.7621 189.957 61.096 190.973 61.6303L190.705 63.0996C189.917 62.6454 188.996 62.3649 188.034 62.2581ZM194.592 55.713C195.02 55.713 195.447 55.8733 195.768 56.1538C196.088 56.5412 196.302 56.9686 196.249 57.4628C196.249 57.9571 196.088 58.4513 195.768 58.8253C195.447 59.0924 195.02 59.2661 194.592 59.2661C193.684 59.3195 192.869 58.5581 192.869 57.6231C192.869 57.5697 192.869 57.5163 192.869 57.4628C192.869 56.9686 193.083 56.4744 193.404 56.1538C193.724 55.8733 194.152 55.713 194.592 55.713ZM196.088 72.5832H193.083V60.9624H196.088V72.5832ZM199.468 61.6036C200.59 61.0559 201.779 60.7353 203.007 60.6819C205.692 60.6819 207.415 61.6036 207.415 64.7158V69.9518C207.415 70.9402 207.682 71.2074 207.896 71.2074C208.163 71.2074 208.43 71.154 208.698 71.0471L208.804 72.2492C208.003 72.5164 207.135 72.69 206.28 72.7435C205.358 72.7435 204.931 72.3027 204.771 71.3276H204.664C204.664 71.3276 204.023 72.7435 201.712 72.7435C199.615 72.7435 198.226 71.5947 198.226 69.6847C198.226 66.6259 202.032 65.8111 204.503 65.584V64.9295C204.503 62.7523 203.916 62.2046 202.62 62.2046C201.552 62.2046 199.935 63.0729 199.935 63.0729L199.468 61.6036ZM204.357 66.9064C202.473 67.1201 201.244 67.7212 201.244 69.3641C201.244 70.6197 201.779 71.2207 202.58 71.2207C203.328 71.1673 204.036 70.6731 204.357 69.9652V66.9064ZM213.546 72.5297H210.541V55.2723L213.546 55.112V72.5297ZM136.409 86.7685C133.937 86.7685 132.762 88.2912 132.762 92.7792C132.762 97.2539 134.058 98.8434 136.582 98.8434C139 98.8434 140.402 96.7196 140.402 96.7196L141.417 97.8149C141.417 97.8149 140.015 100.593 136.208 100.593C131.64 100.593 129.329 97.5878 129.329 92.9529C129.329 88.1977 131.8 85.0989 136.101 85.0989C137.664 85.1523 139.214 85.5396 140.669 86.301L140.349 87.9974C140.282 87.9172 138.132 86.7685 136.409 86.7685ZM147.588 100.58C144.156 100.58 142.272 98.4026 142.272 94.5157C142.272 90.6421 144.156 88.4515 147.588 88.4515C151.021 88.4515 152.905 90.6287 152.905 94.5157C152.905 98.4026 150.861 100.58 147.588 100.58ZM145.545 94.529C145.545 97.855 146.079 99.0571 147.588 99.0571C149.098 99.0571 149.632 97.855 149.632 94.529C149.632 91.2031 149.098 90.0544 147.588 90.0544C146.079 90.0544 145.545 91.1897 145.545 94.529ZM154.948 88.732H157.366L157.74 89.7739H157.793C158.595 88.9591 159.677 88.5183 160.799 88.5183C162.028 88.5183 162.842 88.9057 163.323 89.7739C164.232 88.9591 165.367 88.5183 166.542 88.5183C168.693 88.5183 169.548 89.6136 169.548 92.2316V100.313H166.542V92.4587C166.542 90.7089 166.115 90.3883 165.313 90.3883C164.672 90.4417 164.085 90.7222 163.697 91.2565C163.697 91.5237 163.751 91.8576 163.751 92.1782V100.313H160.745V92.4587C160.745 90.7089 160.264 90.3883 159.57 90.3883C158.929 90.3883 158.341 90.7222 157.954 91.2031V100.259H154.948V88.732ZM172.246 88.732H174.663L175.038 89.7739H175.091C175.892 88.9591 176.974 88.5183 178.096 88.5183C179.339 88.5183 180.14 88.9057 180.621 89.7739C181.529 88.9591 182.664 88.5183 183.84 88.5183C185.99 88.5183 186.845 89.6136 186.845 92.2316V100.313H183.84V92.4587C183.84 90.7089 183.412 90.3883 182.611 90.3883C181.97 90.4417 181.369 90.7222 180.995 91.2565C180.995 91.5237 181.048 91.8576 181.048 92.1782V100.313H178.043V92.4587C178.043 90.7089 177.562 90.3883 176.867 90.3883C176.226 90.3883 175.625 90.7222 175.251 91.2031V100.259H172.246V88.732ZM191.093 83.4426C191.52 83.4426 191.948 83.6028 192.282 83.8834C192.602 84.2707 192.762 84.6981 192.762 85.1924C192.762 85.6866 192.602 86.1808 192.282 86.5548C191.961 86.8219 191.534 86.9956 191.093 86.9956C190.185 87.049 189.37 86.2876 189.37 85.3526C189.37 85.2992 189.37 85.2458 189.37 85.2458C189.37 84.7516 189.583 84.2574 189.904 83.9368C190.238 83.6029 190.665 83.4426 191.093 83.4426ZM192.602 100.313H189.597V88.7454H192.602V100.313ZM195.34 97.6413C195.928 98.456 196.85 98.9503 197.865 99.0571C199.054 99.0571 199.641 98.3492 199.641 97.4676C199.641 95.1168 195.02 95.8781 195.02 92.1247C195.02 89.7204 196.957 88.5183 199.054 88.5183C200.176 88.5717 201.311 88.8522 202.326 89.3331L201.899 90.8558C201.097 90.415 200.229 90.0944 199.321 89.9876C198.359 89.9876 197.812 90.4818 197.812 91.2432C197.812 93.594 202.807 93.0464 202.807 96.7597C202.807 98.9369 201.351 100.526 198.506 100.526C195.554 100.526 194.472 98.7766 194.472 98.7766L195.34 97.6413ZM204.851 97.6413C204.851 97.6413 205.866 99.0571 207.375 99.0571C208.551 99.0571 209.152 98.3492 209.152 97.4676C209.152 95.1168 204.477 95.8781 204.477 92.1247C204.477 89.7204 206.414 88.5183 208.511 88.5183C209.633 88.5717 210.768 88.8522 211.783 89.3331L211.356 90.8558C210.554 90.415 209.686 90.0944 208.778 89.9876C207.816 89.9876 207.268 90.4818 207.268 91.2432C207.268 93.594 212.264 93.0464 212.264 96.7597C212.264 98.9369 210.808 100.526 207.963 100.526C204.958 100.526 203.929 98.7766 203.929 98.7766L204.851 97.6413ZM215.857 83.4426C216.285 83.4426 216.712 83.6028 217.033 83.8834C217.353 84.2707 217.513 84.6981 217.513 85.1924C217.513 85.6866 217.353 86.1808 217.033 86.5548C216.712 86.8219 216.285 86.9956 215.857 86.9956C214.935 87.049 214.134 86.2876 214.134 85.3526C214.134 85.2992 214.134 85.2458 214.134 85.2458C214.134 84.7516 214.348 84.2574 214.668 83.9368C215.002 83.6029 215.43 83.4426 215.857 83.4426ZM217.353 100.313H214.348V88.7454H217.353V100.313ZM224.673 100.58C221.24 100.58 219.357 98.4026 219.357 94.5157C219.357 90.6421 221.24 88.4515 224.673 88.4515C228.106 88.4515 229.989 90.6287 229.989 94.5157C229.989 98.4026 227.945 100.58 224.673 100.58ZM222.629 94.529C222.629 97.855 223.163 99.0571 224.673 99.0571C226.182 99.0571 226.716 97.855 226.716 94.529C226.716 91.2031 226.182 90.0544 224.673 90.0544C223.163 90.0544 222.629 91.1897 222.629 94.529ZM232.019 88.732H234.437L234.811 89.6537H234.918C234.918 89.6537 235.773 88.4515 238.137 88.4515C240.501 88.4515 241.636 89.7071 241.636 92.4319V100.286H238.631V93.0864C238.631 90.9627 238.204 90.415 237.122 90.415C236.374 90.415 235.612 90.6822 235.078 91.2298V100.286H232.073L232.019 88.732Z" fill="white"/>
</svg>
