<svg width="1201" height="210" viewBox="0 0 1201 210" fill="none" xmlns="http://www.w3.org/2000/svg">
<mask id="mask0_8876_977" style="mask-type:alpha" maskUnits="userSpaceOnUse" x="0" y="0" width="1201" height="210">
<rect x="0.5" y="0.294434" width="1200" height="208.968" fill="#52598A"/>
</mask>
<g mask="url(#mask0_8876_977)">
<path opacity="0.0544444" d="M-23.8789 155.539C215.662 33.305 394.538 78.1657 519.378 105.071C644.727 132.089 718.023 161.373 843.485 156.559C990.019 150.895 1112.08 77.0329 1199.43 23.5625" stroke="#F00767" stroke-miterlimit="10"/>
<path opacity="0.1089" d="M-25.6328 146.079C192.157 40.611 361.801 85.9815 487.717 109.035C629.663 134.977 706.923 148.175 839.409 145.513C979.882 142.737 1104.78 84.6221 1202.88 51.0898" stroke="#E00D7A" stroke-miterlimit="10"/>
<path opacity="0.1633" d="M-27.3906 136.62C168.649 47.9182 329.116 93.2888 455.995 112.944C614.651 137.47 695.819 139.112 835.216 134.468C969.515 129.993 1097.36 92.2126 1206.22 78.6184" stroke="#D1148D" stroke-miterlimit="10"/>
<path opacity="0.2178" d="M-29.2031 127.218C145.085 55.226 296.49 100.313 424.276 116.853C599.697 139.623 684.547 126.142 831.081 123.367C959.376 120.931 1089.94 99.7469 1209.62 106.091" stroke="#C11AA0" stroke-miterlimit="10"/>
<path opacity="0.2722" d="M-30.9609 117.758C121.577 62.532 263.919 106.996 392.611 120.76C584.798 141.321 673.387 107.11 826.944 112.264C949.122 116.399 1082.57 107.279 1213.08 133.561" stroke="#B221B3" stroke-miterlimit="10"/>
<path opacity="0.3267" d="M-32.7109 108.299C98.0763 69.8391 231.356 113.51 360.954 124.726C569.964 142.738 662.234 92.9491 822.872 101.219C938.989 107.223 1075.27 114.813 1216.54 161.09" stroke="#A227C6" stroke-miterlimit="10"/>
<path opacity="0.3811" d="M-34.5273 98.8401C74.5092 77.1461 198.726 119.911 329.173 128.634C555.063 143.758 651.015 78.4489 818.62 90.1172C928.676 97.8205 1067.79 122.347 1219.82 188.505" stroke="#932ED9" stroke-miterlimit="10"/>
<path opacity="0.4356" d="M-36.2812 89.3806C51.0046 84.3961 166.102 126.142 297.512 132.542C540.168 144.38 639.972 63.5517 814.544 79.0717C918.539 88.3044 1060.43 129.937 1223.27 216.033" stroke="#8334EC" stroke-miterlimit="10"/>
<path opacity="0.49" d="M-38.0391 79.9212C27.4961 91.7028 133.474 132.259 265.847 136.45C525.326 144.663 628.981 48.2581 810.407 67.9696C908.398 78.6184 1053.06 137.47 1226.67 243.504" stroke="#743BFF" stroke-miterlimit="10"/>
</g>
</svg>
