<svg xmlns="http://www.w3.org/2000/svg" xmlns:xlink="http://www.w3.org/1999/xlink" viewBox="0 0 108.9 106.36"><defs><style>.cls-1{fill:url(#linear-gradient);}.cls-2{fill:url(#linear-gradient-2);}.cls-3{fill:url(#linear-gradient-3);}.cls-4{fill:url(#linear-gradient-4);}.cls-5{fill:url(#linear-gradient-5);}.cls-6{fill:url(#linear-gradient-6);}.cls-7{fill:url(#linear-gradient-7);}.cls-8{fill:url(#linear-gradient-8);}</style><linearGradient id="linear-gradient" x1="54.38" y1="87.06" x2="54.38" y2="34.59" gradientUnits="userSpaceOnUse"><stop offset="0.09" stop-color="#ff0054" stop-opacity="0.12"/><stop offset="0.14" stop-color="#ff0054" stop-opacity="0.15"/><stop offset="0.23" stop-color="#ff0054" stop-opacity="0.23"/><stop offset="0.34" stop-color="#ff0054" stop-opacity="0.37"/><stop offset="0.47" stop-color="#ff0054" stop-opacity="0.57"/><stop offset="0.61" stop-color="#ff0054" stop-opacity="0.81"/><stop offset="0.7" stop-color="#ff0054"/></linearGradient><linearGradient id="linear-gradient-2" x1="54.24" y1="58.44" x2="54.24" y2="8.73" gradientUnits="userSpaceOnUse"><stop offset="0" stop-color="#3d3e4f" stop-opacity="0"/><stop offset="0.09" stop-color="#403e57" stop-opacity="0.05"/><stop offset="0.24" stop-color="#483e6d" stop-opacity="0.17"/><stop offset="0.45" stop-color="#563e90" stop-opacity="0.37"/><stop offset="0.71" stop-color="#683ec1" stop-opacity="0.65"/><stop offset="1" stop-color="#803efe" stop-opacity="0.99"/><stop offset="1" stop-color="#803eff"/></linearGradient><linearGradient id="linear-gradient-3" x1="54.34" y1="25.91" x2="54.34" y2="0" xlink:href="#linear-gradient-2"/><linearGradient id="linear-gradient-4" x1="64.87" y1="63.28" x2="97.57" y2="92.72" gradientUnits="userSpaceOnUse"><stop offset="0" stop-color="#ff0054" stop-opacity="0.12"/><stop offset="0.09" stop-color="#ff0054" stop-opacity="0.15"/><stop offset="0.24" stop-color="#ff0054" stop-opacity="0.23"/><stop offset="0.42" stop-color="#ff0054" stop-opacity="0.37"/><stop offset="0.62" stop-color="#ff0054" stop-opacity="0.57"/><stop offset="0.84" stop-color="#ff0054" stop-opacity="0.81"/><stop offset="1" stop-color="#ff0054"/></linearGradient><linearGradient id="linear-gradient-5" x1="86.51" y1="75.65" x2="106.03" y2="93.23" xlink:href="#linear-gradient-4"/><linearGradient id="linear-gradient-6" x1="4.57" y1="80.87" x2="47.42" y2="67.77" gradientUnits="userSpaceOnUse"><stop offset="0" stop-color="#f8b409"/><stop offset="0.63" stop-color="#fcd150" stop-opacity="0.49"/><stop offset="1" stop-color="#ffe278" stop-opacity="0.2"/></linearGradient><linearGradient id="linear-gradient-7" x1="0.46" y1="87.83" x2="24.89" y2="80.36" xlink:href="#linear-gradient-6"/><linearGradient id="linear-gradient-8" x1="52.37" y1="72.97" x2="52.37" y2="47.55" gradientUnits="userSpaceOnUse"><stop offset="0.01" stop-color="#f8b409" stop-opacity="0.7"/><stop offset="0.3" stop-color="#fbc634" stop-opacity="0.82"/><stop offset="0.78" stop-color="#ffe278"/></linearGradient></defs><g id="Layer_2" data-name="Layer 2"><g id="Layer_1-2" data-name="Layer 1"><path class="cls-1" d="M80.62,60.75a26.24,26.24,0,1,1-26.3-26.16A26.23,26.23,0,0,1,80.62,60.75Zm-5.2-.61c-.73-12.15-10.37-21-22.08-20.38-11.53.65-20.66,10.54-20.07,21.71A21.18,21.18,0,0,0,55.89,81.83C66.91,81.22,76.07,71,75.42,60.14Z"/><path class="cls-2" d="M37.09,33.85l-.25-3.27c-.38.25-.87.39-.93.63-.63,2.76-2.74,3-5.06,3.52-3.39.72-6.67,2-10,3C17.37,26.65,28.45,11.08,41.42,9.17a52.87,52.87,0,0,0,.35,6.06,20.72,20.72,0,0,0,1.7,5.83c2.34,4.62,6.2,7.6,11.44,7.42s8.75-3.48,10.58-8.2c1-2.52,1.13-5.37,1.56-8.09a24.47,24.47,0,0,0,0-3.46,27.71,27.71,0,0,1,15.17,10c4,5.32,5.67,11.51,6,18.05a46.89,46.89,0,0,1-4,21.65,34.88,34.88,0,0,0-7.58-17.13c-.88-1.09-.57-3.1-1-4.66-.51-2.14-1.15-4.24-1.73-6.36l-.82.11-1.86,6.24a30.59,30.59,0,0,0-26.9-3.57C42.21,33.76,39.74,33.59,37.09,33.85Z"/><path class="cls-3" d="M65,13.12a14.14,14.14,0,0,1-3.25,9.19c-4.29,5-10.87,4.76-14.89-.43-4.59-5.93-5-18.69,5-21.53A9.33,9.33,0,0,1,60,1.9C63.68,4.57,64.92,8.62,65,13.12Z"/><path class="cls-4" d="M105.82,74.9c-2.09-1.06-4.14-2.22-6.3-3.14a13.78,13.78,0,0,0-10.27-.44c-7.59,2.73-9.94,8.54-6.88,16,2,4.89,6.26,7.56,11,10a28.47,28.47,0,0,1-15.55,8c-6.44,1-12.49-.45-18.24-3.22A51.27,51.27,0,0,1,42.31,88.34c2.55.64,4.79,1.24,7.06,1.76a12.47,12.47,0,0,0,3.15.39c5.79-.26,11.61-1,17.13,1.63a4.81,4.81,0,0,0,1.86,0l.53-.68-5.17-3.42C73.52,84.44,78,80.22,80.78,74.5a58.13,58.13,0,0,0,2.52-6.59c1-3,2-5.95,3.09-9.1l3.28,1.5c0-.31.2-.65.1-.74-2.45-2.31-1.2-4.68-.42-7.25.94-3.07,1.36-6.3,2-9.45C100.87,46.52,111.47,59.78,105.82,74.9Z"/><path class="cls-5" d="M93.87,73.13c7,0,14.19,5.71,15,12.39a9.36,9.36,0,0,1-4.27,8.8c-4.53,2.88-9,1.6-13.51-.88s-7.28-6.09-7.37-11.33S88.06,73.12,93.87,73.13Z"/><path class="cls-6" d="M17.63,59.61l6.82-1.71c.28,3.07.33,6.05.87,8.95a29.15,29.15,0,0,0,10.22,17,38.2,38.2,0,0,1,4,4.65l-2.76,2c.13.22.24.47.29.46,3.3-.74,5,1.37,6.94,3.52a82.19,82.19,0,0,0,7.27,6.35c-12.78,8.32-25.59,7.13-35.12-3.53C18,96.13,20,95,21.78,93.61a14.5,14.5,0,0,0,5.59-8.91c2.12-11-7.17-15.29-14.56-13.74-3.43.71-6.65,2.41-10.13,3.73a26.07,26.07,0,0,1,3-20.87c4.66-7.45,11.66-12,19.65-15,3.89-1.5,8-2.45,12-3.65l.32.75c-1.2,1.14-2.42,2.26-3.6,3.43A16.14,16.14,0,0,0,31.57,42C28,47.55,24.81,53.34,19.15,57.17,18.62,57.54,18.39,58.36,17.63,59.61Z"/><path class="cls-7" d="M10.24,95.3C3.51,95.44.4,89.75,0,85.63c-.27-2.86,1.48-6.78,4.31-8.86,4.23-3.12,8.72-4.61,14-3.12s8,6.64,6.11,11.92A15.19,15.19,0,0,1,10.24,95.3Z"/><path class="cls-8" d="M42.61,67.88c.71-2.21,1-4.15,1.88-5.68,2.36-3.89,5.25-7.47,7.5-11.41,1.65-2.89,3.69-3.83,7.06-2.88v15.7l3.07.45v3.59L59.26,68v5H54V67.88Zm5.22-4.41h6V54.29Z"/></g></g></svg>