<svg width="111" height="87" viewBox="0 0 111 87" fill="none" xmlns="http://www.w3.org/2000/svg">
<path d="M35.1379 81.4827C22.6552 74.2758 14.8621 60.8275 14.8276 46.4482V45.7585H10V46.4482C10 62.5861 18.7241 77.5862 32.7242 85.6551L33.3104 86L35.7242 81.8275L35.1379 81.4827Z" fill="url(#paint0_linear_154_3719)"/>
<path d="M95.8628 45.6899V46.345C95.8628 60.7588 88.1041 74.2071 75.6214 81.414L75.0352 81.7589L77.4489 85.9313L78.0352 85.5865C92.0007 77.483 100.69 62.4485 100.69 46.1726V45.4485L95.8628 45.6899Z" fill="url(#paint1_linear_154_3719)"/>
<path d="M77.8966 7C71.069 3.06897 63.2759 1 55.3448 1C47.4138 1 39.4483 3.13793 32.5862 7.13794L32 7.48276L34.4483 11.6552L35.0345 11.3104C41.1724 7.72414 48.2069 5.82759 55.3793 5.82759C62.5517 5.82759 69.4138 7.68966 75.5173 11.1724L76.1035 11.5172L78.5173 7.34483L77.9311 7H77.8966Z" fill="url(#paint2_linear_154_3719)"/>
<path opacity="0.5" d="M89.0017 45.8623V51.8623V52.0347C89.0017 52.1037 89.0017 52.1727 89.0017 52.2416C89.0017 52.3451 89.0017 52.4485 89.0017 52.5864C89.0017 52.6899 89.0017 52.7933 88.9672 52.8968L88.8982 53.2416C88.8982 53.2416 88.8982 53.3106 88.8982 53.3795C88.8982 53.4485 88.8637 53.483 88.8637 53.552C88.8292 53.6554 88.7948 53.7589 88.7603 53.8968C88.7603 54.0002 88.6913 54.0692 88.6913 54.2071C88.6568 54.3106 88.6223 54.414 88.5879 54.5175C88.5879 54.552 88.5534 54.6209 88.5534 54.6554C88.5534 54.7244 88.4844 54.7589 88.4844 54.7933C88.4499 54.9313 88.381 55.0347 88.3465 55.1382C88.312 55.2416 88.2775 55.3106 88.2085 55.414C88.1396 55.5175 88.1051 55.6209 88.0361 55.7589C88.0361 55.8278 87.9672 55.8623 87.9672 55.9313C87.9327 55.9658 87.8982 56.0002 87.8982 56.0347C87.8292 56.1727 87.7258 56.3106 87.6568 56.414C87.5879 56.483 87.5534 56.5864 87.4844 56.6554C87.381 56.7933 87.2775 56.9313 87.1741 57.0692C87.1396 57.1382 87.1051 57.1727 87.0706 57.2416C87.0706 57.2416 87.0706 57.2416 87.0361 57.2761C87.0361 57.3106 86.9672 57.3451 86.9672 57.3796C86.8637 57.5175 86.7258 57.6899 86.5879 57.7933C86.5879 57.8278 86.5189 57.8623 86.4844 57.8968C86.3465 58.0692 86.1741 58.2416 86.0361 58.414C86.0016 58.414 85.9672 58.483 85.9327 58.483C85.9327 58.483 85.7948 58.6554 85.6913 58.7244C85.6568 58.7589 85.5879 58.7934 85.5534 58.8278C85.4499 58.9313 85.3465 59.0002 85.243 59.1037C85.1396 59.2071 85.0361 59.2761 84.9327 59.3796C84.8292 59.483 84.7258 59.552 84.5879 59.6554C84.4844 59.7589 84.381 59.8278 84.243 59.9313C84.1396 60.0002 84.0016 60.1037 83.8637 60.2071C83.7603 60.2761 83.6223 60.3796 83.5189 60.4485C83.381 60.552 83.243 60.6209 83.1051 60.7244C83.0017 60.7589 82.9327 60.8278 82.8637 60.8623C82.7603 60.9313 82.6913 60.9658 82.5879 61.0347C82.4844 61.1037 82.381 61.1727 82.243 61.2071C82.0361 61.3451 81.7948 61.4485 81.5879 61.552C81.5879 61.552 81.381 61.6554 81.2775 61.7244C81.0016 61.8623 80.7258 62.0002 80.4499 62.1037C80.3465 62.1382 80.2775 62.2071 80.1396 62.2416C79.7947 62.3796 79.4154 62.552 79.0361 62.6899C78.9672 62.7244 78.8982 62.7589 78.8292 62.7589C78.5189 62.8968 78.2085 63.0002 77.8637 63.1037L77.6913 63.1727C77.6913 63.1727 77.5189 63.2071 77.4499 63.2416C77.2775 63.3106 77.1051 63.3451 76.8982 63.414C76.7603 63.4485 76.5879 63.483 76.4499 63.552C76.2775 63.5865 76.0706 63.6554 75.8982 63.6899C75.7603 63.7244 75.5878 63.7589 75.4499 63.7933C75.243 63.8623 75.0706 63.8968 74.8637 63.9313C74.7258 63.9658 74.5534 64.0003 74.4154 64.0347C74.2085 64.0692 74.0361 64.1037 73.8292 64.1382C73.7258 64.1382 73.6223 64.1727 73.4844 64.2071C73.4499 64.2071 73.4154 64.2071 73.3809 64.2071C72.9672 64.2761 72.5534 64.3451 72.1051 64.3796C72.0361 64.3796 71.9672 64.3796 71.9327 64.414C71.5534 64.4485 71.174 64.5175 70.8292 64.552C70.7603 64.552 70.7258 64.552 70.6568 64.552C70.5534 64.552 70.4844 64.552 70.3809 64.552C70.1396 64.552 69.8982 64.5865 69.6568 64.6209C69.5189 64.6209 69.3465 64.6209 69.2085 64.6554C68.9327 64.6554 68.6913 64.6554 68.4499 64.6899C68.3465 64.6899 68.243 64.6899 68.1396 64.6899H68.0361C67.8292 64.6899 67.5878 64.6899 67.3809 64.6899H66.243C66.243 64.6899 66.0016 64.6899 65.8982 64.6899H65.8292C65.6223 64.6899 65.4154 64.6899 65.174 64.6899C65.0361 64.6899 64.8637 64.6899 64.7258 64.6899C64.5189 64.6899 64.2775 64.6554 64.0361 64.6209C63.8982 64.6209 63.7947 64.6209 63.6568 64.6209C63.3809 64.6209 63.1051 64.552 62.8292 64.552C62.7603 64.552 62.6568 64.552 62.5878 64.5175C62.243 64.483 61.8637 64.4485 61.5189 64.3796C61.4499 64.3796 61.4154 64.3796 61.3809 64.3796C61.0706 64.3106 60.7603 64.2761 60.4499 64.2416C60.312 64.2416 60.2085 64.1727 60.0706 64.1727C59.8292 64.1382 59.6223 64.1037 59.3809 64.0347C59.3465 64.0347 59.312 64.0347 59.312 64.0347C59.2085 64.0347 59.1051 64.0003 59.0016 63.9658C58.7602 63.8968 58.4844 63.8623 58.243 63.7933C58.1051 63.7589 57.9671 63.7244 57.8292 63.6899C57.6223 63.6209 57.3809 63.5865 57.174 63.5175C57.1051 63.5175 57.0361 63.483 56.9671 63.4485C56.8982 63.414 56.8292 63.414 56.7947 63.3796C56.4499 63.2761 56.1051 63.1727 55.7602 63.0692C55.6913 63.0692 55.6223 63.0347 55.5533 63.0002C55.174 62.8623 54.7602 62.7244 54.3809 62.5865C54.3465 62.5865 54.312 62.5865 54.2775 62.552C54.1396 62.483 54.0361 62.4485 53.8982 62.414C53.7947 62.3451 53.6568 62.3106 53.5533 62.2761C53.3809 62.2071 53.2085 62.1382 53.0016 62.0347C52.8982 62.0003 52.7947 61.9313 52.6568 61.8968C52.4844 61.7934 52.2775 61.7244 52.1051 61.6209C52.0016 61.552 51.9327 61.5175 51.8292 61.483C51.5533 61.3451 51.2775 61.2071 51.0361 61.0692C49.4844 60.1727 48.243 59.2071 47.243 58.1382C45.6223 56.4485 44.7258 54.6209 44.4844 52.7589C44.5533 52.7244 44.5878 52.6899 44.6223 52.6554C44.7258 52.5864 44.8292 52.5175 44.9327 52.4485C45.0361 52.3796 45.1395 52.3106 45.2775 52.2416C45.3809 52.1727 45.4844 52.1037 45.5878 52.0347L45.6568 52.0002C45.8292 51.8968 46.0016 51.7589 46.174 51.6554C46.2775 51.5864 46.3809 51.5175 46.4844 51.4485C46.5533 51.3796 46.6223 51.3451 46.6913 51.2761C46.8292 51.4485 47.0016 51.6209 47.1396 51.7933C47.2085 51.8623 47.2775 51.9313 47.3464 52.0002C47.4154 52.0692 47.4499 52.1382 47.5189 52.1727C47.7947 52.4485 48.1051 52.7589 48.4499 53.0002C48.6568 53.1727 48.8982 53.3796 49.1396 53.552C49.243 53.6209 49.3464 53.6899 49.4499 53.7589C49.4499 53.7589 49.4499 53.7933 49.4844 53.7933C49.9327 54.1037 50.4499 54.4485 50.9671 54.7244C51.1051 54.7933 51.243 54.8623 51.3464 54.9313C51.4844 55.0002 51.6223 55.0692 51.7258 55.1382H51.7602C51.7602 55.1382 51.9327 55.2416 52.0361 55.2761C52.1396 55.3106 52.2085 55.3796 52.312 55.414C52.4154 55.4485 52.4844 55.5175 52.5878 55.552C53.1396 55.8278 53.6913 56.0692 54.2775 56.2761C54.6223 56.414 54.9671 56.552 55.312 56.6554C55.3809 56.6554 55.4154 56.6899 55.4499 56.6899C55.5189 56.7244 55.5533 56.7589 55.6223 56.7589C55.8637 56.8278 56.0706 56.8968 56.312 56.9658C56.4154 57.0002 56.5533 57.0347 56.6568 57.0692C56.7258 57.0692 56.7947 57.1037 56.8637 57.1382C56.9327 57.1382 57.0016 57.1727 57.0706 57.2071H57.1051C57.1051 57.2071 57.312 57.2761 57.4154 57.3106C57.5189 57.3106 57.5878 57.3796 57.6913 57.3796C57.9327 57.4485 58.2085 57.5175 58.4499 57.552H58.4844C58.4844 57.552 58.7602 57.6209 58.8637 57.6554C58.9671 57.6554 59.1051 57.6899 59.2085 57.7244C59.312 57.7244 59.4499 57.7589 59.5878 57.7933C59.6913 57.7933 59.7947 57.8278 59.8982 57.8623C60.0361 57.8623 60.174 57.8968 60.2775 57.9313C60.4499 57.9658 60.6568 58.0002 60.8637 58.0347C60.9671 58.0347 61.0706 58.0692 61.174 58.1037C61.243 58.1037 61.2775 58.1037 61.3465 58.1037C61.5189 58.1037 61.6913 58.1727 61.8637 58.1727C62.0361 58.1727 62.2085 58.2071 62.4154 58.2416C62.4844 58.2416 62.5878 58.2416 62.6568 58.2761C62.9327 58.2761 63.2085 58.3451 63.4844 58.3451C63.6568 58.3451 63.8292 58.3796 64.0016 58.3796C64.1396 58.3796 64.2775 58.3796 64.3809 58.3796C64.4499 58.3796 64.5189 58.3796 64.5534 58.3796C64.9327 58.3796 65.312 58.414 65.6568 58.414C65.7947 58.414 65.9327 58.414 66.0706 58.414H67.243C67.243 58.414 67.4499 58.414 67.5534 58.414H67.9327C68.174 58.414 68.4154 58.414 68.6568 58.3796H68.8292C68.8292 58.3796 68.9672 58.3796 69.0361 58.3796C69.2085 58.3796 69.4154 58.3796 69.6223 58.3451C69.7947 58.3451 69.9672 58.3451 70.1741 58.2761C70.381 58.2761 70.6223 58.2416 70.8637 58.2071L71.2085 58.1382C71.2085 58.1382 71.3809 58.1382 71.4844 58.1382C71.5878 58.1382 71.6568 58.1037 71.7603 58.1037C71.8292 58.1037 71.8982 58.1037 71.9327 58.0692H72.0016C72.0016 58.0692 72.3465 58.0002 72.5189 58.0002C72.6913 57.9658 72.8637 57.9313 73.0361 57.8968C73.1051 57.8968 73.1396 57.8968 73.2085 57.8968C73.3465 57.8623 73.5189 57.8278 73.6568 57.7933C73.7603 57.7933 73.8637 57.7589 73.9672 57.7244C74.0706 57.6899 74.1396 57.6899 74.243 57.6554C74.3809 57.6209 74.5534 57.5865 74.6913 57.552C75.243 57.4485 75.7603 57.3106 76.2775 57.1727C76.4499 57.1382 76.5879 57.0692 76.7258 57.0347C76.8292 57.0002 76.8982 56.9658 77.0016 56.9313C77.1051 56.9313 77.1741 56.8623 77.2775 56.8623C77.3465 56.8623 77.4154 56.7933 77.4844 56.7933C77.5534 56.7933 77.6223 56.7589 77.6568 56.7244C77.7603 56.6899 77.8637 56.6554 77.9672 56.6209C78.0361 56.6209 78.1051 56.5865 78.1396 56.552C78.1396 56.552 78.4499 56.4485 78.6223 56.3796C78.6913 56.3796 78.7603 56.3451 78.7948 56.3106C78.8292 56.3106 78.8637 56.3106 78.8637 56.3106C79.0016 56.2416 79.1396 56.2071 79.243 56.1727C79.4499 56.0692 79.6913 56.0002 79.8982 55.8968C80.1396 55.7933 80.381 55.6899 80.5879 55.5864C80.7258 55.5175 80.8637 55.4485 81.0016 55.3796C81.1051 55.3451 81.1741 55.2761 81.2775 55.2416C81.4154 55.1727 81.5879 55.1037 81.6913 55.0347C81.8982 54.9313 82.1051 54.8278 82.312 54.6899C82.4154 54.6209 82.4844 54.5865 82.5879 54.5175C82.7603 54.414 82.9672 54.3106 83.1396 54.1727C83.1741 54.1727 83.243 54.1037 83.2775 54.1037C83.4154 54.0347 83.5189 53.9313 83.6223 53.8623C83.6913 53.7933 83.7603 53.7589 83.8292 53.7244C83.8292 53.7244 83.8637 53.6899 83.8982 53.6899C83.9327 53.6554 84.0016 53.6209 84.0361 53.5864C84.1396 53.483 84.243 53.414 84.381 53.3106C84.4499 53.2761 84.4844 53.2071 84.5534 53.1727C84.6913 53.0692 84.8292 52.9658 84.9672 52.8278L85.0361 52.7589C85.1396 52.6554 85.243 52.5864 85.381 52.483C85.4844 52.3796 85.5879 52.2761 85.7258 52.1727C85.9327 51.9658 86.1396 51.7589 86.312 51.552L86.381 51.483H86.4154C86.4154 51.483 86.6568 51.1727 86.7603 51.0347C86.8292 50.9658 86.8637 50.8968 86.9327 50.8278C86.9327 50.7933 87.0017 50.7589 87.0017 50.7244C87.1051 50.5864 87.2085 50.4485 87.312 50.3106C87.3465 50.2761 87.381 50.2416 87.381 50.2071C87.4499 50.1382 87.4844 50.0692 87.5189 50.0347C87.5534 49.9658 87.5879 49.8968 87.6223 49.8623C87.6913 49.7244 87.7603 49.5864 87.8292 49.4485C87.8292 49.414 87.8982 49.3795 87.8982 49.3451C87.9327 49.2761 87.9672 49.1727 88.0361 49.1037C88.0706 49.0002 88.1051 48.9313 88.1741 48.8278C88.2085 48.7244 88.2775 48.6209 88.312 48.483C88.3465 48.3795 88.381 48.3106 88.4154 48.2071C88.4499 48.1037 88.4844 48.0347 88.5189 47.9313C88.5879 47.7933 88.6223 47.6554 88.6223 47.552C88.6568 47.4485 88.6913 47.3795 88.6913 47.2761C88.6913 47.2071 88.6913 47.1727 88.7258 47.1382C88.7258 47.0692 88.7258 47.0347 88.7258 47.0002L88.7948 46.6554C88.7948 46.6554 88.7948 46.483 88.8292 46.414V46.3106C88.8292 46.3106 88.8292 46.1382 88.8292 46.0347C88.8292 46.0002 88.8292 45.9658 88.8292 45.9313L89.0017 45.8623Z" fill="url(#paint3_linear_154_3719)"/>
<path d="M89.0025 37.1722V43.4136C89.0025 43.4136 88.968 43.5515 88.968 43.6205V43.7929C88.968 43.7929 88.968 43.9998 88.9335 44.1377C88.9335 44.2411 88.9335 44.3446 88.899 44.448C88.899 44.5515 88.899 44.6549 88.83 44.7929C88.83 44.8618 88.83 44.8963 88.83 44.9308C88.83 44.9998 88.83 45.0342 88.7956 45.1032C88.7956 45.2067 88.7266 45.3101 88.7266 45.448C88.6921 45.5515 88.6576 45.6549 88.6231 45.7584C88.5887 45.8618 88.5542 45.9653 88.5197 46.0687C88.5197 46.1377 88.4852 46.1722 88.4507 46.2067C88.4507 46.2411 88.4162 46.3101 88.3818 46.3446C88.3128 46.448 88.2783 46.5515 88.2438 46.6894C88.2094 46.7929 88.1404 46.8618 88.1059 46.9653C88.0369 47.0687 88.0025 47.1722 87.9335 47.3101C87.899 47.3791 87.8645 47.4136 87.83 47.4825C87.83 47.517 87.7956 47.5515 87.7611 47.586C87.6921 47.7239 87.6231 47.8618 87.5197 47.9653C87.4852 48.0687 87.4163 48.1377 87.3818 48.2067C87.2783 48.3446 87.1749 48.517 87.0714 48.6205C87.0369 48.6894 87.0025 48.7239 86.9335 48.7929V48.8274C86.899 48.8618 86.8645 48.8963 86.83 48.9308C86.7266 49.0687 86.6231 49.2411 86.4852 49.3446C86.4507 49.4136 86.4162 49.448 86.3818 49.4825C86.2438 49.6205 86.0714 49.7929 85.9335 49.9653C85.9335 49.9653 85.8645 50.0343 85.83 50.0343C85.83 50.0343 85.6576 50.2067 85.5887 50.2756C85.5542 50.3101 85.4852 50.3446 85.4507 50.4136C85.3473 50.517 85.2438 50.586 85.1059 50.6894C85.0025 50.7584 84.899 50.8618 84.7956 50.9653C84.6921 51.0687 84.5542 51.1377 84.4507 51.2411C84.3473 51.3446 84.2438 51.4136 84.1059 51.517C83.968 51.6205 83.83 51.6894 83.7266 51.7929C83.5887 51.8618 83.4852 51.9653 83.3473 52.0343C83.2094 52.1377 83.0714 52.2067 82.9335 52.3101C82.8645 52.3791 82.7956 52.4136 82.6921 52.448C82.5887 52.517 82.5197 52.5515 82.4162 52.6205C82.2783 52.6894 82.1749 52.7584 82.0714 52.8274C81.8645 52.9308 81.6231 53.0687 81.4162 53.1722C81.4162 53.1722 81.2094 53.2756 81.1059 53.3101C80.83 53.448 80.5542 53.586 80.2783 53.6894C80.1749 53.7584 80.1059 53.7929 80.0024 53.8274C79.6231 53.9998 79.2438 54.1377 78.899 54.2756C78.83 54.2756 78.7611 54.3101 78.6921 54.3446C78.3818 54.4825 78.0369 54.586 77.7266 54.6894C77.6576 54.6894 77.6231 54.7239 77.5542 54.7584C77.4852 54.7584 77.3818 54.8274 77.3128 54.8274C77.1404 54.8963 76.968 54.9308 76.7611 54.9998C76.6231 55.0343 76.4507 55.1032 76.3128 55.1377C76.1404 55.2067 75.9335 55.2412 75.7611 55.2756C75.5887 55.3101 75.4507 55.3446 75.2783 55.3791C75.1059 55.448 74.899 55.4825 74.7266 55.517C74.5542 55.517 74.4162 55.586 74.2438 55.6205C74.0714 55.6549 73.8645 55.6894 73.6576 55.7239C73.5542 55.7239 73.4507 55.7929 73.3128 55.7929C73.2783 55.7929 73.2438 55.7929 73.1749 55.7929C72.7611 55.8618 72.3473 55.9308 71.899 55.9998C71.83 55.9998 71.7955 55.9998 71.7266 55.9998C71.3818 56.0687 71.0024 56.1032 70.6231 56.1377C70.5542 56.1377 70.5197 56.1377 70.4507 56.1377C70.3818 56.1377 70.2783 56.1377 70.1749 56.1377C69.968 56.1377 69.7266 56.2067 69.4852 56.2067C69.3473 56.2067 69.1749 56.2067 69.0369 56.2067C68.7611 56.2067 68.5197 56.2412 68.2783 56.2412C68.1749 56.2412 68.0714 56.2412 67.968 56.2412H67.83C67.6231 56.2412 67.4162 56.2412 67.1749 56.2412H65.5886C65.3818 56.2412 65.1749 56.2412 64.968 56.2067C64.83 56.2067 64.6576 56.2067 64.5197 56.2067C64.2783 56.2067 64.0714 56.2067 63.83 56.1722C63.6921 56.1722 63.5542 56.1722 63.4507 56.1377H63.4162C63.1404 56.1377 62.8645 56.0687 62.5886 56.0687C62.4852 56.0687 62.4162 56.0687 62.3128 56.0687C61.968 55.9998 61.6231 55.9653 61.2438 55.9308C61.2438 55.9308 61.1404 55.9308 61.1059 55.9308C60.7955 55.8618 60.4852 55.8274 60.2093 55.7929C60.0714 55.7929 59.9335 55.7584 59.83 55.7239C59.6231 55.6894 59.3817 55.6549 59.1404 55.586H59.0714C59.0714 55.586 58.899 55.517 58.7955 55.517C58.5197 55.448 58.2783 55.4136 58.0369 55.3446C57.899 55.3101 57.7611 55.2756 57.6231 55.2411C57.4162 55.1722 57.1748 55.1377 56.9679 55.0687C56.899 55.0343 56.83 55.0343 56.7611 54.9998C56.6921 54.9998 56.6231 54.9653 56.5886 54.9308L55.5197 54.586C55.5197 54.586 55.3817 54.5515 55.3473 54.517C54.9335 54.3791 54.5542 54.2411 54.1404 54.1032L54.0369 54.0343C54.0369 54.0343 53.7955 53.9308 53.6921 53.8963C53.5542 53.8618 53.4507 53.7929 53.3128 53.7584C53.3128 53.7584 52.9679 53.6205 52.7955 53.5515C52.6921 53.4825 52.5886 53.448 52.4507 53.3791C52.2783 53.2756 52.0714 53.2067 51.899 53.1032C51.7955 53.0687 51.7266 53.0343 51.6231 52.9653C51.3473 52.8274 51.0714 52.6549 50.83 52.517C49.6231 51.8274 48.5886 51.0687 47.7266 50.2756C47.83 50.2067 47.9335 50.1032 48.0369 50.0343C48.1059 49.9653 48.1748 49.9308 48.2093 49.8963C48.4162 49.7239 48.6231 49.5515 48.8645 49.3446C48.9679 49.2411 49.0714 49.1722 49.1748 49.0687C49.3473 48.9308 49.5197 48.7584 49.6921 48.6205C49.7955 48.517 49.899 48.448 50.0024 48.3101C50.1404 48.1722 50.3128 48.0342 50.4507 47.9308C50.4507 47.9308 50.4507 47.8963 50.4852 47.8963C50.5886 47.7929 50.6921 47.6894 50.7955 47.586C50.899 47.4825 51.0369 47.3791 51.1748 47.2411L51.3128 47.1032C51.3128 47.1032 51.5197 46.8963 51.6231 46.7584C51.6231 46.7584 51.6576 46.7239 51.6921 46.6894C51.7955 46.6894 51.8645 46.7584 51.9679 46.7929C52.0714 46.8618 52.1404 46.8963 52.2438 46.9308C52.3473 46.9653 52.4162 47.0342 52.5197 47.0687C52.5197 47.0687 52.5542 47.0687 52.5886 47.1032C52.6576 47.1377 52.7611 47.1722 52.8645 47.2411C53.0369 47.3101 53.2093 47.3791 53.3817 47.448C53.4507 47.448 53.4852 47.4825 53.5542 47.517C53.6231 47.517 53.6921 47.586 53.761 47.586C53.9335 47.6549 54.0714 47.7239 54.2093 47.7929C54.2783 47.7929 54.3473 47.8274 54.3817 47.8618C54.6921 47.9653 54.9679 48.0687 55.2438 48.1722C55.2783 48.1722 55.3473 48.2067 55.3817 48.2411C55.4507 48.2411 55.5197 48.2756 55.5542 48.3101C55.7955 48.3791 56.0369 48.448 56.2783 48.517C56.3817 48.5515 56.4852 48.586 56.6231 48.6205C56.7611 48.6549 56.899 48.6894 57.0024 48.7239C57.0024 48.7239 57.0714 48.7584 57.1059 48.7584C57.2093 48.7929 57.3473 48.8274 57.4852 48.8618C57.5542 48.8963 57.6231 48.8963 57.6921 48.9308C57.7955 48.9653 57.899 48.9998 58.0369 49.0343C58.0714 49.0343 58.1059 49.0343 58.1404 49.0343C58.2438 49.0343 58.3473 49.1032 58.4852 49.1032C58.6231 49.1377 58.7611 49.1722 58.8645 49.2067C59.0024 49.2411 59.1059 49.2756 59.2093 49.2756C59.2438 49.2756 59.2783 49.2756 59.3128 49.2756C59.5197 49.3101 59.7266 49.3446 59.9335 49.3791C60.0369 49.4136 60.1748 49.448 60.3128 49.448C60.6231 49.517 60.899 49.5515 61.2093 49.586C61.2783 49.586 61.3128 49.586 61.3817 49.586C61.7266 49.6549 62.0714 49.6894 62.4507 49.7239C62.5197 49.7239 62.6231 49.7239 62.6921 49.7239C62.968 49.7239 63.2438 49.7929 63.5197 49.7929C63.6576 49.7929 63.7955 49.7929 63.899 49.8274C64.1059 49.8274 64.3473 49.8618 64.5886 49.8618C64.7266 49.8618 64.899 49.8618 65.0369 49.8618C65.2438 49.8618 65.4162 49.8618 65.6231 49.8618C65.6231 49.8618 65.6576 49.8618 65.6921 49.8618H67.5887C67.5887 49.8618 67.7955 49.8618 67.899 49.8618C68.0369 49.8618 68.1749 49.8618 68.3128 49.8618C68.4852 49.8618 68.6576 49.8618 68.83 49.8618C68.899 49.8618 68.968 49.8618 69.0714 49.8618C69.2093 49.8618 69.3818 49.8618 69.5197 49.8618C69.6576 49.8618 69.7955 49.8618 69.899 49.8274C70.0024 49.8274 70.1404 49.8274 70.2438 49.7929C70.3818 49.7929 70.5197 49.7929 70.6576 49.7584C70.7266 49.7584 70.7955 49.7584 70.8645 49.7584C71.0024 49.7584 71.1059 49.7239 71.2093 49.7239C71.3818 49.7239 71.5887 49.6549 71.7611 49.6549C71.83 49.6549 71.8645 49.6549 71.9335 49.6549C71.9335 49.6549 71.968 49.6549 72.0024 49.6549C72.3473 49.6205 72.6921 49.5515 73.0369 49.4825C73.1059 49.4825 73.1749 49.4825 73.2093 49.4825C73.3473 49.448 73.5197 49.4136 73.6576 49.3791C73.7611 49.3791 73.8645 49.3446 73.968 49.3101C74.0714 49.3101 74.1404 49.2756 74.2438 49.2411C74.4162 49.2067 74.5542 49.1722 74.7266 49.1377C74.7956 49.1377 74.8645 49.1032 74.9335 49.0687C75.0369 49.0342 75.1404 48.9998 75.2783 48.9653C75.4162 48.9308 75.5887 48.8963 75.7266 48.8618C75.7611 48.8618 75.7956 48.8618 75.8645 48.8274C75.968 48.8274 76.0714 48.7584 76.2093 48.7239C76.2438 48.7239 76.2783 48.7239 76.3128 48.7239C76.4507 48.6894 76.6231 48.6205 76.7611 48.586C76.8645 48.5515 76.9335 48.517 77.0369 48.4825C77.1404 48.4825 77.2093 48.4136 77.3128 48.4136C77.4507 48.3791 77.5887 48.3101 77.7266 48.2756C77.7611 48.2756 77.7956 48.2756 77.83 48.2411C77.968 48.2067 78.1059 48.1377 78.2093 48.1032C78.3818 48.0342 78.5542 47.9998 78.6921 47.9308C78.7611 47.8963 78.83 47.8618 78.899 47.8618C78.899 47.8618 78.9335 47.8618 78.968 47.8274C79.2093 47.7239 79.4507 47.6549 79.6576 47.5515C79.7611 47.4825 79.8645 47.448 80.0024 47.4136C80.1059 47.3791 80.1749 47.3446 80.2783 47.2756C80.5542 47.1722 80.83 47.0342 81.1059 46.8963C81.2094 46.8618 81.3128 46.7929 81.4162 46.7584C81.4162 46.7584 81.6921 46.586 81.83 46.517C81.899 46.4825 81.968 46.448 82.0714 46.3791C82.1749 46.3101 82.3128 46.2411 82.4507 46.1722C82.5542 46.1032 82.6231 46.0687 82.7266 45.9998C82.899 45.8963 83.1059 45.7929 83.2783 45.6549L83.3818 45.586C83.3818 45.586 83.6231 45.4136 83.7266 45.3446C83.8645 45.2411 84.0025 45.1722 84.1059 45.0687C84.2093 44.9653 84.3128 44.8963 84.4507 44.7929C84.5542 44.7239 84.6921 44.6205 84.7956 44.517C84.899 44.448 85.0025 44.3446 85.1059 44.2756C85.2094 44.1722 85.3128 44.1032 85.4163 43.9998C85.5542 43.8963 85.6576 43.7929 85.7611 43.6549C85.7611 43.6549 85.7611 43.6549 85.7956 43.6205C85.83 43.586 85.8645 43.5515 85.8645 43.5515C86.0369 43.3791 86.2093 43.2067 86.3473 43.0687C86.3473 43.0342 86.3818 42.9998 86.4162 42.9653C86.4162 42.9653 86.4162 42.9653 86.4162 42.9308C86.5542 42.7929 86.6576 42.6549 86.7956 42.517C86.7956 42.517 86.83 42.448 86.8645 42.4136L87.0369 42.2067C87.0369 42.2067 87.2438 41.9308 87.3473 41.7929C87.3818 41.7584 87.4163 41.7239 87.4163 41.6894C87.4507 41.6205 87.4852 41.5515 87.5197 41.517C87.5887 41.4136 87.6576 41.3101 87.7266 41.1722C87.7266 41.1032 87.7956 41.0687 87.83 40.9998C87.8645 40.9308 87.899 40.8618 87.9335 40.7929C88.0025 40.7239 88.0369 40.6549 88.0714 40.5515C88.1404 40.448 88.1749 40.3791 88.2094 40.2756C88.2783 40.1722 88.3128 40.0687 88.3473 39.9308C88.3818 39.8273 88.4162 39.7239 88.4507 39.6204C88.4852 39.517 88.5197 39.4136 88.5542 39.3101C88.5542 39.2067 88.5887 39.1377 88.6231 39.0342V38.9653C88.6231 38.9653 88.6921 38.7584 88.6921 38.6549C88.7266 38.5515 88.7611 38.4825 88.7611 38.3446L88.83 37.9998C88.83 37.9998 88.83 37.8618 88.83 37.7584C88.83 37.7239 88.83 37.6894 88.83 37.6549C88.83 37.5515 88.83 37.4825 88.83 37.3791V37.2756C88.83 37.2756 88.83 37.0687 88.83 36.9998L89.0025 37.1722Z" fill="url(#paint4_linear_154_3719)"/>
<path d="M82.3797 27.9311C76.3453 24.4483 67.7935 23.3793 60.2073 24.6897C59.9659 24.6897 59.7245 24.7586 59.5177 24.8276C59.5866 24.9311 59.6211 25 59.6556 25.1035C59.6901 25.2069 59.7246 25.3104 59.759 25.4138C59.759 25.5173 59.828 25.5862 59.828 25.6897C59.828 25.7586 59.8625 25.8276 59.897 25.8966C59.897 25.9655 59.897 26.0345 59.9314 26.069C59.9659 26.2069 60.0004 26.3449 60.0349 26.4483C60.0349 26.5173 60.0694 26.5862 60.1039 26.6552C60.1039 26.6897 60.1039 26.7242 60.1039 26.7931C60.1383 26.9655 60.1728 27.1035 60.1728 27.3104C60.1728 27.4138 60.2073 27.4828 60.2418 27.5862V27.6897L60.3108 28.2414V28.3793C61.2763 28.2069 62.2763 28.069 63.2763 27.9655C64.3452 27.8621 65.4487 27.7931 66.5521 27.7931C71.8625 27.7931 77.0349 29.0345 80.7246 31.138C80.897 31.2414 81.0694 31.3449 81.2763 31.4828C81.4487 31.5862 81.6211 31.6897 81.7935 31.7931C81.9315 31.8966 82.1039 32 82.2418 32.138C82.3797 32.2414 82.5177 32.3449 82.6556 32.4483C82.6556 32.4483 82.7246 32.4828 82.7246 32.5173C82.828 32.5862 82.897 32.6552 83.0004 32.7242C83.0694 32.7931 83.1384 32.8276 83.2073 32.8966C83.2763 32.9656 83.3453 33 83.3797 33.069C83.4487 33.138 83.5177 33.2069 83.5866 33.2759C83.7246 33.3793 83.828 33.4828 83.9315 33.6207C84.0004 33.6897 84.0349 33.7587 84.1039 33.8276C84.1728 33.8966 84.2073 33.9311 84.2418 33.9656C84.3453 34.069 84.3797 34.138 84.4487 34.2414C84.4487 34.2759 84.4832 34.3104 84.5177 34.3449C84.5866 34.4483 84.6556 34.5518 84.7246 34.6552C84.7935 34.7587 84.8625 34.8621 84.897 34.9656C84.897 35 84.9315 35.0345 84.9659 35.0345C85.0349 35.1724 85.1039 35.3104 85.1384 35.4138C85.3797 35.9311 85.5522 36.4483 85.5866 36.9311C85.5866 37.1035 85.6211 37.2759 85.6211 37.4483C85.6211 39.6207 83.8625 41.8966 80.759 43.6897C77.1039 45.8276 71.9315 47.0345 66.6211 47.0345C64.3452 47.0345 62.0694 46.8276 59.9314 46.3794C57.6556 45.9656 55.5176 45.2759 53.6901 44.3794C53.6211 44.4483 53.5866 44.4828 53.5521 44.5518C53.4832 44.6552 53.4142 44.7242 53.3452 44.8276C53.2763 44.9311 53.2073 45 53.1039 45.138C53.0004 45.2414 52.897 45.3449 52.7935 45.4828C52.7245 45.5518 52.6901 45.5863 52.6556 45.6552C52.5176 45.7931 52.4142 45.9311 52.3108 46.0345C52.2073 46.138 52.1383 46.2414 52.0004 46.3449C51.9314 46.4138 51.8625 46.4828 51.7935 46.5863L51.6211 46.7587C51.6211 46.7587 51.7935 46.8276 51.897 46.8621C52.0004 46.9311 52.0694 46.9656 52.1728 47C52.2763 47.0345 52.3452 47.1035 52.4487 47.138C53.0004 47.4138 53.5521 47.6552 54.1728 47.8966C55.3797 48.3449 56.6556 48.7587 58.0004 49.069C58.1383 49.138 58.2763 49.138 58.4142 49.1725H58.4487C58.4487 49.1725 58.7245 49.2414 58.828 49.2759C58.9659 49.2759 59.0694 49.3449 59.1728 49.3449C59.3108 49.3794 59.4487 49.4138 59.5521 49.4138L59.897 49.4828C59.897 49.4828 60.1383 49.5518 60.2763 49.5518C60.2763 49.5518 60.3108 49.5518 60.3452 49.5518C60.5177 49.5518 60.6901 49.6207 60.8625 49.6207C60.9659 49.6207 61.0694 49.6552 61.1728 49.6897C61.2418 49.6897 61.2763 49.6897 61.3452 49.6897C61.5177 49.7242 61.6901 49.7587 61.897 49.7587C62.5866 49.8621 63.3108 49.9311 64.0349 49.9656C64.1383 49.9656 64.2763 49.9656 64.4142 50H64.5866C64.9659 50 65.3108 50.0345 65.6901 50.069H67.5866C67.5866 50.069 67.7935 50.069 67.897 50.069H67.9659C68.2073 50.069 68.4142 50.069 68.6556 50.0345H68.828C68.828 50.0345 68.9659 50.0345 69.0694 50.0345C69.2418 50.0345 69.4487 50.0345 69.6211 50C69.7935 50 70.0004 50 70.1728 49.9656C70.4142 49.9656 70.6556 49.9311 70.8625 49.8966C71.0694 49.8966 71.2763 49.8621 71.4832 49.8276C71.5866 49.8276 71.6556 49.8276 71.759 49.7931C71.828 49.7931 71.8625 49.7931 71.9315 49.7931C71.9315 49.7931 71.9659 49.7931 72.0004 49.7931C72.1728 49.7931 72.3452 49.7587 72.5521 49.7242C72.7246 49.7242 72.897 49.6552 73.0694 49.6207C73.1384 49.6207 73.2073 49.6207 73.2418 49.6207C73.3797 49.5863 73.5521 49.5518 73.6901 49.5173C73.7935 49.5173 73.897 49.4828 74.0004 49.4483C74.1039 49.4483 74.1728 49.4138 74.2763 49.3794C74.4142 49.3449 74.5866 49.3104 74.7246 49.2759C75.2763 49.1725 75.7935 49.0345 76.3108 48.8966C76.4487 48.8621 76.6211 48.8276 76.759 48.7587C76.8625 48.7242 76.9315 48.6897 77.0349 48.6552C77.1384 48.6552 77.2073 48.5863 77.3108 48.5863C77.3797 48.5863 77.4487 48.5518 77.5177 48.5173C77.5866 48.5173 77.6556 48.4828 77.7246 48.4483C77.828 48.4138 77.897 48.3794 78.0349 48.3449C78.1039 48.3449 78.1728 48.3104 78.2073 48.2759C78.3797 48.2069 78.5521 48.1725 78.6901 48.1035C78.759 48.069 78.828 48.0345 78.897 48.0345C78.897 48.0345 78.9315 48.0345 78.9659 48C79.0694 47.9656 79.1728 47.9311 79.3108 47.8621H79.3453C79.5522 47.7931 79.7935 47.6897 80.0004 47.5863C80.2418 47.4828 80.4832 47.3794 80.6901 47.2759C80.828 47.2069 80.9659 47.138 81.1039 47.069C81.2073 47.0345 81.2763 46.9656 81.4142 46.9311C81.5521 46.8621 81.6901 46.7931 81.828 46.7242C82.0349 46.6207 82.2418 46.5173 82.4487 46.3794C82.5522 46.3104 82.6211 46.2759 82.7246 46.2069C82.897 46.1035 83.0694 46 83.2763 45.8621C83.3108 45.8621 83.3453 45.8276 83.4142 45.7931C83.5177 45.7242 83.6556 45.6207 83.759 45.5518C83.828 45.5173 83.897 45.4483 83.9315 45.4138C84.0004 45.3449 84.0694 45.3104 84.1039 45.2759C84.2073 45.1725 84.3108 45.1035 84.4487 45C84.5177 44.9656 84.5522 44.9311 84.6211 44.8621C84.759 44.7587 84.897 44.6552 85.0349 44.5173C85.0349 44.5173 85.0694 44.4828 85.1039 44.4483C85.2073 44.3449 85.3108 44.2759 85.4142 44.1725C85.5522 44.069 85.6556 43.9656 85.759 43.8276C85.9659 43.6207 86.1728 43.4483 86.3453 43.2069C86.3453 43.2069 86.3797 43.138 86.4142 43.138C86.5522 42.9656 86.6901 42.8276 86.7935 42.6897C86.8625 42.6207 86.897 42.5518 86.9659 42.4828C87.0349 42.3794 87.1039 42.2759 87.1728 42.1725C87.2763 42.069 87.3453 41.9656 87.3797 41.8621C87.4142 41.7931 87.4487 41.7242 87.4832 41.6897C87.5177 41.6207 87.5522 41.5862 87.5866 41.5173C87.6901 41.3794 87.7591 41.2414 87.828 41.1035C87.828 41.069 87.8625 41 87.897 40.9656C87.9659 40.8966 88.0004 40.7931 88.0349 40.7242C88.1039 40.6207 88.1384 40.5518 88.1728 40.4483C88.2418 40.3449 88.2763 40.2414 88.3108 40.1035C88.3453 40 88.3797 39.8966 88.4142 39.7931C88.4487 39.6897 88.4832 39.6207 88.5177 39.5173C88.5522 39.3793 88.5866 39.2759 88.6211 39.138C88.6211 39.0345 88.6556 38.9311 88.6901 38.8276C88.6901 38.7931 88.6901 38.7242 88.6901 38.6897C88.6901 38.6552 88.7246 38.5862 88.7246 38.5518L88.7935 38.2069C88.7935 38.2069 88.828 37.9656 88.828 37.8621C88.828 37.7587 88.828 37.6897 88.828 37.5862V37.4828C88.828 37.4828 88.828 37.3793 88.828 37.3449C88.897 33.9656 86.6901 30.5518 82.2073 27.9655L82.3797 27.9311Z" fill="url(#paint5_linear_154_3719)"/>
<path d="M85.6873 36.4828C85.6873 36.4828 85.6873 36.7931 85.6528 36.9655C85.5838 36.4483 85.4459 35.931 85.2045 35.4483C85.1355 35.3103 85.0666 35.1724 85.0321 35.069C85.0321 35.069 84.9976 35.0345 84.9631 35C84.8941 34.8965 84.8597 34.7931 84.7907 34.6897C84.7217 34.5862 84.6528 34.4828 84.5838 34.3793C84.5493 34.3793 84.5148 34.3103 84.5148 34.2759C84.4459 34.2069 84.3769 34.1034 84.3079 34C84.2735 33.9655 84.239 33.8965 84.17 33.8621C84.101 33.7931 84.0666 33.7241 83.9976 33.6552C83.8941 33.5172 83.7907 33.4138 83.6528 33.3103C83.5838 33.2414 83.5148 33.1724 83.4459 33.1034C83.3769 33.0345 83.3079 32.9655 83.2735 32.931C83.2045 32.8621 83.1355 32.8276 83.0666 32.7586C82.9976 32.6897 82.8941 32.6207 82.7907 32.5517C82.7907 32.5517 82.7217 32.5172 82.7217 32.4828C82.5838 32.3793 82.4459 32.2759 82.3079 32.1724C82.17 32.069 81.9976 31.9655 81.8597 31.8276C81.6872 31.7241 81.5148 31.6207 81.3424 31.5172C81.17 31.4138 80.9976 31.3103 80.7907 31.1724C77.101 29.069 71.9286 27.8276 66.6183 27.8276C65.5148 27.8276 64.4114 27.8965 63.3424 28C62.3424 28.1034 61.3424 28.2069 60.3769 28.4138V28.3103C60.3769 28.1034 60.3424 27.8965 60.3079 27.7241V27.6207C60.3079 27.6207 60.3079 27.5172 60.2734 27.4483C61.0321 27.3103 61.8252 27.1724 62.6183 27.1034C63.9286 26.931 65.2734 26.8621 66.6183 26.8621C71.9286 26.8621 77.101 28.1034 80.7907 30.2414C83.9286 32.0345 85.7217 34.3448 85.7217 36.5517L85.6873 36.4828Z" fill="url(#paint6_linear_154_3719)"/>
<path d="M75.2091 32.3104L76.347 31.6552L74.6918 30.6897L73.5539 31.3449C72.2091 30.7242 70.8987 30.4138 69.6918 30.4138C68.4849 30.4138 67.347 30.7242 66.278 31.3449C65.5539 31.7586 65.0366 32.2414 64.7263 32.7586C64.416 33.2759 64.3125 33.7242 64.3815 34.138C64.4504 34.5518 64.6918 35.2759 65.1056 36.3104C65.347 36.9311 65.3815 37.3793 65.1056 37.6207C64.8642 37.8966 64.347 38.2414 63.5539 38.7242C63.2435 38.8966 62.9332 39 62.6573 39.0345C62.3815 39.0345 62.1056 39.0345 61.8642 38.8621C61.5884 38.6897 61.5194 38.5173 61.6918 38.3449C61.8642 38.1724 62.416 37.7931 63.3815 37.2414L64.2435 36.7242L60.6573 34.6552L59.9677 35.069C58.3815 36 57.6228 36.8621 57.6918 37.6207C57.7608 38.4138 58.2435 39.1035 59.1056 39.7242L57.7263 40.5173L59.3815 41.4828L60.7263 40.6897C62.1401 41.3104 63.5194 41.5862 64.8642 41.5173C66.2091 41.4483 67.5194 41.0345 68.7953 40.3104C69.5884 39.8621 70.1401 39.3793 70.4504 38.9656C70.7608 38.5173 70.8987 38.138 70.8642 37.7587C70.8298 37.4138 70.6229 36.7931 70.2435 35.9655C69.8297 34.9655 69.6229 34.3449 69.6229 34.069C69.6229 33.7931 69.8987 33.5173 70.4504 33.2069C70.7953 33 71.1056 32.8966 71.3815 32.8621C71.6573 32.8276 71.8987 32.8621 72.1401 33C72.416 33.1724 72.4849 33.3104 72.3815 33.4828C72.278 33.6552 71.8987 33.8966 71.278 34.2759L70.6918 34.6207L74.278 36.6897C74.5884 36.5173 74.8298 36.4138 75.0022 36.3104C76.0711 35.6897 76.6229 35.069 76.6573 34.3793C76.6918 33.7242 76.2435 33 75.278 32.3104H75.2091Z" fill="url(#paint7_linear_154_3719)"/>
<path d="M57.8602 22.2759L62.274 26.7242C62.274 26.7242 62.3775 26.8277 62.4119 26.8621C62.4464 26.8966 62.5154 26.9656 62.5499 27.0001C62.6188 27.069 62.6878 27.1725 62.7568 27.2415C62.8257 27.3104 62.8947 27.3794 62.9292 27.4828C62.9981 27.5863 63.0671 27.6552 63.1361 27.7587C63.1361 27.7587 63.205 27.8277 63.205 27.8621C63.2395 27.8966 63.274 27.9656 63.3085 28.0001C63.3775 28.1035 63.4119 28.207 63.4809 28.2759C63.5154 28.3794 63.5844 28.4483 63.6188 28.5518C63.6533 28.6552 63.7223 28.7587 63.7568 28.8621C63.7568 28.8966 63.7912 28.9656 63.8257 29.0001C63.8257 29.0346 63.8602 29.1035 63.8947 29.138C63.9292 29.2415 63.9981 29.3794 64.0326 29.4828C64.0671 29.5863 64.1016 29.6897 64.1361 29.7932C64.1706 29.8966 64.205 30.0346 64.2395 30.138C64.2395 30.207 64.274 30.2415 64.3085 30.3104C64.3085 30.3449 64.3085 30.3794 64.3085 30.4484C64.343 30.5863 64.3775 30.7587 64.4119 30.8966C64.4119 31.0001 64.4464 31.069 64.4809 31.1725C64.4809 31.3449 64.5499 31.5173 64.5499 31.6897C64.5499 31.7587 64.5499 31.8277 64.5499 31.8966C64.5499 31.8966 64.5499 31.9311 64.5499 31.9656C64.5499 32.0001 64.5499 32.0346 64.5499 32.1035C64.5499 32.2759 64.5844 32.4828 64.5844 32.6552C64.5844 32.7242 64.5844 32.7587 64.5844 32.7932C64.5844 33.0001 64.5844 33.2415 64.5844 33.4828C64.5844 33.5173 64.5844 33.5518 64.5844 33.6208C64.5844 33.6208 64.5844 33.8621 64.5844 33.9656C64.5844 34.0346 64.5844 34.069 64.5844 34.138C64.5844 34.2759 64.5844 34.4139 64.5844 34.5518C64.5844 34.6897 64.5844 34.8277 64.5499 34.9656C64.5499 35.1035 64.5499 35.2759 64.4809 35.4139C64.4809 35.5518 64.4464 35.6897 64.4119 35.8277C64.4119 35.9656 64.343 36.138 64.343 36.2759C64.343 36.4139 64.274 36.5518 64.274 36.6897C64.274 36.8277 64.205 37.0001 64.1706 37.1725C64.1706 37.2759 64.1361 37.3794 64.1016 37.4484C64.1016 37.5518 64.0326 37.6553 64.0326 37.7587C64.0326 37.8966 63.9637 38.0346 63.9292 38.138C63.8602 38.3794 63.7912 38.6208 63.7223 38.8621C63.6878 38.9656 63.6533 39.069 63.6188 39.1725C63.5154 39.4484 63.4119 39.7587 63.3085 40.0346C63.274 40.138 63.2395 40.2415 63.205 40.3104C63.0671 40.6897 62.8947 41.0346 62.7223 41.4139C62.7223 41.4828 62.6533 41.5518 62.6188 41.6208C62.4809 41.9311 62.343 42.2415 62.1706 42.5518C62.1706 42.6208 62.1016 42.6553 62.1016 42.7242C62.0671 42.7932 62.0326 42.8622 61.9981 42.9311C61.9292 43.1035 61.8257 43.2759 61.7223 43.4484C61.6533 43.5863 61.5844 43.7242 61.4809 43.8622C61.3775 44.0346 61.274 44.207 61.205 44.3794C61.1361 44.5173 61.0326 44.6553 60.9637 44.7932C60.8602 44.9656 60.7568 45.138 60.6533 45.2759C60.5499 45.4139 60.4809 45.5518 60.3775 45.6897C60.274 45.8622 60.1706 46.0346 60.0326 46.1725C59.9637 46.276 59.8947 46.3449 59.8602 46.4484C59.8602 46.4484 59.8257 46.5173 59.7912 46.5518C59.5499 46.8966 59.3085 47.2415 59.0326 47.5863C58.9981 47.6208 58.9637 47.6897 58.9292 47.7242C58.7223 48.0346 58.4809 48.3104 58.2395 48.6208C58.205 48.6553 58.1706 48.7242 58.1361 48.7587C58.0671 48.8277 58.0326 48.8966 57.9637 48.9656C57.8257 49.138 57.6533 49.3449 57.5154 49.5173C57.4119 49.6208 57.3085 49.7587 57.205 49.8622C57.0326 50.0691 56.8602 50.2415 56.6878 50.4139C56.6188 50.4828 56.5499 50.5518 56.4809 50.6553L56.4119 50.7242C56.4119 50.7242 56.1016 51.0346 55.9637 51.207C55.8602 51.3104 55.7568 51.4139 55.6533 51.5173C55.4809 51.6897 55.3085 51.8622 55.1706 52.0001C55.0671 52.0691 54.9981 52.1725 54.8947 52.2415H54.8602C54.6878 52.4139 54.5499 52.5518 54.3774 52.7242C54.274 52.8277 54.1706 52.9311 54.0326 53.0346C53.8602 53.1725 53.6878 53.3449 53.5154 53.4829C53.4119 53.5518 53.343 53.6553 53.2395 53.7242C53.0326 53.8966 52.8257 54.0691 52.5843 54.2415C52.5154 54.276 52.4464 54.3449 52.4119 54.3794C52.1361 54.5863 51.8257 54.8277 51.5499 55.0346C51.5154 55.0346 51.4809 55.1035 51.4119 55.138C51.1705 55.3104 50.8947 55.5173 50.6533 55.6897C50.5499 55.7587 50.4464 55.8277 50.343 55.8966C50.1361 56.0346 49.9636 56.1725 49.7568 56.3104C49.7568 56.3104 49.7223 56.3104 49.6878 56.3449C49.6188 56.3794 49.5154 56.4484 49.4464 56.4829C49.2395 56.6208 48.9981 56.7587 48.7912 56.8966C48.6533 56.9656 48.5499 57.0346 48.4119 57.1035C48.205 57.207 47.9981 57.3449 47.7912 57.4484C47.7223 57.4829 47.6533 57.5173 47.6188 57.5518C47.5499 57.5518 47.5154 57.6208 47.4464 57.6208C47.1361 57.7932 46.7912 57.9656 46.4809 58.138C46.4119 58.138 46.3774 58.207 46.3085 58.2415C45.9292 58.4139 45.5499 58.6208 45.1705 58.7587C45.1361 58.7587 45.1016 58.7932 45.0671 58.8277C44.9292 58.8622 44.8257 58.9311 44.7223 58.9656C44.5843 59.0001 44.4809 59.0691 44.343 59.1035C44.1705 59.1725 43.9981 59.2415 43.8257 59.3104C43.7223 59.3449 43.5843 59.4139 43.4809 59.4484C43.274 59.5173 43.1016 59.5863 42.8947 59.6553C42.7912 59.6553 42.6878 59.7242 42.5843 59.7587C42.274 59.8622 41.9981 59.9311 41.6878 60.0001C36.7567 61.3104 32.8257 60.5173 30.4809 58.138L26.3085 53.9311L26.1016 53.7242C26.1016 53.7242 26.274 53.8966 26.3774 53.9656C26.4464 54.0346 26.4809 54.0691 26.5498 54.1035C26.6878 54.2415 26.8602 54.3794 27.0326 54.4829C27.1016 54.5518 27.205 54.5863 27.274 54.6553C27.3429 54.7242 27.4464 54.7587 27.5154 54.8277C27.5843 54.8622 27.6533 54.8966 27.7223 54.9656C27.8257 55.0346 27.8947 55.0691 27.9981 55.1035C27.9981 55.1035 28.0326 55.1035 28.0671 55.1035C28.0671 55.1035 28.136 55.1035 28.136 55.138C28.205 55.138 28.274 55.207 28.3429 55.2415C28.3429 55.2415 28.4119 55.2415 28.4119 55.276C28.4464 55.276 28.5154 55.3104 28.5498 55.3449H28.5843C28.6878 55.3794 28.7567 55.4139 28.8602 55.4484C28.8602 55.4484 28.8947 55.4484 28.9291 55.4484C29.0326 55.4484 29.1016 55.5173 29.205 55.5518C29.3085 55.5518 29.4119 55.6208 29.5154 55.6553C29.6188 55.6553 29.7223 55.7242 29.8602 55.7587C29.9292 55.7587 29.9981 55.7587 30.0671 55.8277C30.205 55.8622 30.3774 55.8966 30.5498 55.9311C30.5843 55.9311 30.6533 55.9311 30.6878 55.9311H30.8602C30.8602 55.9311 30.8947 55.9656 30.9292 55.9656C30.9981 55.9656 31.1016 55.9656 31.205 56.0001C31.6878 56.0691 32.1705 56.1035 32.6878 56.1035C32.7912 56.1035 32.8602 56.1035 32.9636 56.1035C33.6533 56.1035 34.3429 56.0346 35.1016 55.9311C35.2395 55.9311 35.3774 55.8966 35.5154 55.8622C35.9292 55.7932 36.3774 55.6897 36.7912 55.5863C36.9292 55.5863 37.1016 55.5173 37.2395 55.4829C37.5154 55.4139 37.8257 55.3104 38.1016 55.2415C38.205 55.2415 38.3085 55.1725 38.4119 55.138L38.7223 55.0346C38.7223 55.0346 38.9292 54.9656 39.0326 54.9311C39.0326 54.9311 39.0671 54.9311 39.1016 54.9311C39.205 54.9311 39.274 54.8622 39.3774 54.8277C39.5499 54.7587 39.7223 54.6898 39.8947 54.6208C39.9636 54.6208 39.9981 54.5863 40.0326 54.5518C40.1016 54.5518 40.1705 54.4829 40.2395 54.4484C40.4119 54.3794 40.5498 54.3104 40.7223 54.2415C40.7912 54.2415 40.8257 54.1725 40.8947 54.1725C41.1705 54.0346 41.4464 53.9311 41.7223 53.7932C41.7567 53.7932 41.7912 53.7587 41.8602 53.7242C41.9292 53.7242 41.9636 53.6553 42.0326 53.6208C42.2395 53.5173 42.4809 53.3794 42.6878 53.276C42.7912 53.207 42.8947 53.1725 42.9981 53.1035C43.1016 53.0346 43.2395 52.9656 43.343 52.8966C43.343 52.8966 43.4119 52.8966 43.4119 52.8622C43.5154 52.7932 43.6533 52.7242 43.7567 52.6553C43.8257 52.6553 43.8947 52.5863 43.9292 52.5518C44.0671 52.4829 44.1705 52.4139 44.3085 52.3449C44.4119 52.276 44.5154 52.207 44.6188 52.138C44.7223 52.0691 44.8602 52.0001 44.9636 51.9311C45.0671 51.8622 45.1705 51.7932 45.274 51.7242C45.274 51.7242 45.3085 51.7242 45.343 51.6897C45.5154 51.5863 45.6878 51.4484 45.8602 51.3449C45.9636 51.276 46.0671 51.207 46.1705 51.138C46.4119 50.9656 46.6533 50.7932 46.8947 50.5863C46.9292 50.5518 46.9981 50.5173 47.0326 50.4829C47.3085 50.276 47.6188 50.0346 47.8947 49.8277C47.9636 49.7932 48.0326 49.7242 48.0671 49.6897C48.274 49.5173 48.5154 49.3449 48.7223 49.1725C48.8257 49.1035 48.9292 49.0001 49.0326 48.8966C49.205 48.7587 49.3774 48.5863 49.5499 48.4484C49.6533 48.3449 49.7568 48.2415 49.8602 48.138C49.9981 48.0001 50.1705 47.8622 50.3085 47.7242C50.3085 47.7242 50.3085 47.7242 50.343 47.6897C50.4464 47.5863 50.5499 47.4828 50.6533 47.4139C50.7912 47.3104 50.8947 47.1725 51.0326 47.0691L51.1705 46.9311C51.1705 46.9311 51.3774 46.7242 51.4809 46.6208C51.5499 46.5518 51.6188 46.4484 51.7223 46.3794C51.8257 46.3104 51.8602 46.207 51.9292 46.138C52.0326 46.0346 52.1361 45.9311 52.205 45.8277C52.3085 45.6897 52.4464 45.5863 52.5499 45.4484C52.6188 45.3794 52.6533 45.3449 52.6878 45.2759C52.7912 45.1725 52.8947 45.0346 52.9981 44.9311C53.0671 44.8277 53.1705 44.7242 53.2395 44.6553C53.3085 44.5863 53.3774 44.4828 53.4809 44.3794C53.5843 44.2759 53.6533 44.1725 53.7568 44.0346C53.7912 43.9656 53.8602 43.9311 53.8947 43.8622C53.9637 43.7587 54.0326 43.6897 54.1016 43.5863C54.205 43.4484 54.343 43.2759 54.4464 43.138C54.4809 43.1035 54.5154 43.0346 54.5499 43.0001C54.5499 43.0001 54.5499 43.0001 54.5499 42.9656C54.7568 42.6897 54.9637 42.4139 55.1706 42.1035C55.1706 42.069 55.2395 42.0001 55.274 41.9656C55.3774 41.8277 55.4464 41.7242 55.5499 41.5863C55.6188 41.5173 55.6533 41.4139 55.7223 41.3104C55.7912 41.2415 55.8257 41.1725 55.8602 41.069C55.9637 40.9311 56.0326 40.7932 56.1361 40.6553C56.1706 40.5863 56.205 40.5173 56.274 40.4484C56.343 40.3449 56.4119 40.2415 56.4464 40.138C56.5154 40.0001 56.6188 39.8621 56.6878 39.7242C56.6878 39.6897 56.7223 39.6553 56.7568 39.6208C56.8257 39.5173 56.8602 39.4139 56.9292 39.3104C56.9292 39.3104 56.9292 39.2415 56.9637 39.2415C57.0326 39.1035 57.1016 38.9656 57.205 38.8277C57.2395 38.7587 57.3085 38.6553 57.343 38.5863C57.3774 38.5173 57.4464 38.4139 57.4809 38.3449C57.5499 38.207 57.6188 38.1035 57.6878 37.9656C57.6878 37.9656 57.6878 37.8966 57.7223 37.8621C57.7912 37.7242 57.8602 37.6208 57.8947 37.4828C57.8947 37.4828 58.0326 37.1725 58.1016 37.0001C58.1016 36.9311 58.1706 36.8621 58.205 36.7932C58.205 36.7932 58.205 36.7587 58.205 36.7242C58.3085 36.4828 58.4119 36.2415 58.5154 36.0001C58.5499 35.8966 58.6188 35.7932 58.6533 35.6897C58.6878 35.5863 58.7223 35.4828 58.7568 35.4139C58.8602 35.138 58.9637 34.8277 59.0671 34.5518C59.1016 34.4484 59.1361 34.3449 59.1706 34.2415C59.205 34.1035 59.274 33.9311 59.3085 33.7932C59.3085 33.7242 59.3775 33.6208 59.3775 33.5518C59.4119 33.4139 59.4464 33.2759 59.4809 33.138C59.4809 33.0346 59.5154 32.9311 59.5499 32.8277C59.6188 32.6208 59.6533 32.3794 59.6878 32.1725C59.6878 32.138 59.6878 32.1035 59.6878 32.069C59.6878 31.9311 59.7568 31.7932 59.7568 31.6552C59.7568 31.5173 59.8257 31.3449 59.8257 31.207C59.8257 31.069 59.8602 30.9311 59.8947 30.7932C59.8947 30.6552 59.9292 30.4828 59.9637 30.3449C59.9637 30.207 59.9637 30.069 59.9981 29.9311C59.9981 29.7932 59.9981 29.6552 59.9981 29.5173C59.9981 29.3449 59.9981 29.207 59.9981 29.0346C59.9981 29.0346 59.9981 29.0346 59.9981 29.0001C59.9981 28.9656 59.9981 28.9311 59.9981 28.8621C59.9981 28.6208 59.9981 28.4139 59.9981 28.1725C59.9981 28.138 59.9981 28.1035 59.9981 28.069C59.9981 28.069 59.9981 28.069 59.9981 28.0346C59.9981 27.8621 59.9981 27.6552 59.9637 27.4828C59.9637 27.4483 59.9637 27.4139 59.9637 27.3449C59.9637 27.2415 59.9637 27.1725 59.9292 27.069C59.9292 26.8966 59.8947 26.7242 59.8602 26.5863C59.8602 26.5518 59.8602 26.4828 59.8602 26.4483C59.8602 26.3794 59.8602 26.3104 59.8257 26.2415C59.8257 26.1035 59.7568 25.9656 59.7223 25.8621C59.7223 25.7932 59.7223 25.7242 59.6533 25.6897C59.6533 25.6208 59.6188 25.5518 59.5843 25.4828C59.5843 25.4139 59.5154 25.3104 59.5154 25.207C59.5154 25.1035 59.4464 25.0001 59.4119 24.8966C59.3775 24.7932 59.3085 24.6552 59.274 24.5518C59.2395 24.4483 59.205 24.3794 59.1361 24.2759C59.1016 24.1725 59.0326 24.069 58.9981 23.9656C58.9637 23.8966 58.8947 23.7932 58.8602 23.7242C58.8602 23.7242 58.8602 23.7242 58.8602 23.6897C58.7912 23.5863 58.7568 23.5173 58.6878 23.4139C58.6188 23.3449 58.5843 23.2414 58.5154 23.1725C58.4464 23.069 58.3775 23.0001 58.3085 22.8966C58.274 22.8277 58.205 22.7587 58.1706 22.6897C58.1706 22.6897 58.1016 22.6208 58.1016 22.5863C58.0326 22.5173 57.9981 22.4483 57.9292 22.3794L57.8602 22.3104C57.8602 22.3104 57.7223 22.1725 57.6878 22.1035L57.8602 22.2759Z" fill="url(#paint8_linear_154_3719)"/>
<path d="M46.6535 20.414C36.8604 23.0347 26.8259 33.0692 24.2742 42.7934C22.9983 47.6554 23.7914 51.5175 26.1362 53.8624L26.3431 54.0693C26.55 54.2761 26.7914 54.4486 26.9983 54.621C27.0673 54.6899 27.1707 54.7244 27.2397 54.7934C27.2742 54.7934 27.3087 54.8624 27.3776 54.8624C27.4121 54.8624 27.4466 54.9313 27.5156 54.9313C27.5156 54.9313 27.55 54.9313 27.5845 54.9313C27.7224 55.0003 27.8604 55.1037 27.9983 55.1727C27.9983 55.1727 28.0328 55.1727 28.0673 55.1727C28.0673 55.1727 28.1362 55.1727 28.1362 55.2072C28.1707 55.2072 28.2052 55.2072 28.2397 55.2417C28.2742 55.2417 28.3087 55.2761 28.3431 55.2761C28.3431 55.2761 28.4121 55.2761 28.4121 55.3106C28.5845 55.3796 28.7569 55.4486 28.9293 55.5175C29.0328 55.5175 29.1018 55.5865 29.2052 55.621C29.3087 55.621 29.4121 55.6899 29.5156 55.7244C29.55 55.7244 29.619 55.7244 29.6535 55.7589C29.7569 55.7589 29.8949 55.8279 29.9983 55.8624C29.9983 55.8624 30.0328 55.8624 30.0673 55.8624C30.2052 55.8968 30.3776 55.9313 30.55 55.9658C30.5845 55.9658 30.6535 55.9658 30.688 55.9658C30.7569 55.9658 30.7914 55.9658 30.8604 55.9658C30.8604 55.9658 30.8949 55.9658 30.9293 55.9658C30.9983 55.9658 31.1018 55.9658 31.2052 56.0003C31.3087 56.0003 31.4121 56.0003 31.55 56.0003C31.8259 56.0003 32.1362 56.0348 32.4121 56.0693C32.5156 56.0693 32.619 56.0693 32.688 56.0693C32.7914 56.0693 32.8604 56.0693 32.9638 56.0693C33.7569 56.0693 34.619 55.9658 35.4811 55.8279C36.0328 55.7244 36.619 55.621 37.2052 55.4486C37.3431 55.4141 37.4811 55.3796 37.619 55.3106C37.7569 55.2761 37.8949 55.2417 38.0328 55.1727C38.1363 55.1727 38.2397 55.1037 38.3431 55.0693C38.4466 55.0348 38.55 55.0003 38.6535 54.9658L38.9638 54.8624C39.55 54.6555 40.1018 54.4141 40.688 54.1727C41.9983 53.5865 43.3087 52.8968 44.5845 52.1037C44.688 52.0348 44.8259 51.9658 44.9294 51.8968C45.0328 51.8279 45.1363 51.7589 45.2397 51.6899C45.3432 51.621 45.4466 51.552 45.5501 51.483C45.6535 51.4141 45.7225 51.3451 45.8259 51.3106C45.9294 51.2417 46.0328 51.1727 46.1363 51.1037C46.1363 51.1037 46.1707 51.1037 46.2052 51.0692C46.3432 50.9658 46.4811 50.8624 46.619 50.7589C46.7225 50.6899 46.7914 50.621 46.8949 50.5865C46.9294 50.552 46.9983 50.5175 47.0328 50.483C47.1707 50.3796 47.3087 50.2761 47.4466 50.1382C47.9983 49.6899 48.5501 49.2417 49.1018 48.7934C49.2052 48.7244 49.3087 48.621 49.3776 48.552C49.4466 48.5175 49.4811 48.483 49.5156 48.4141C49.7914 48.1727 50.0673 47.9313 50.3087 47.6899C50.4121 47.5865 50.5156 47.5175 50.619 47.4141C50.7569 47.3106 50.8604 47.1727 50.9983 47.0692L51.1363 46.9313C51.1363 46.9313 51.3432 46.7244 51.4466 46.621C51.5156 46.552 51.5845 46.4486 51.688 46.3796C51.7914 46.3106 51.8259 46.2072 51.8949 46.1382C51.8949 46.1382 51.8949 46.1382 51.8949 46.1037C52.0673 45.9313 52.2052 45.7589 52.3776 45.5865C52.4121 45.552 52.4466 45.483 52.5156 45.4486C52.5845 45.3796 52.619 45.3451 52.6535 45.2761C52.7914 45.1382 52.8949 45.0003 53.0328 44.8279C53.1707 44.6899 53.2742 44.552 53.3776 44.4141C53.5501 44.2417 53.688 44.0348 53.8259 43.8623C53.9638 43.6899 54.1018 43.552 54.2052 43.3796C54.2742 43.3106 54.3087 43.2417 54.3776 43.1727C54.4121 43.1382 54.4466 43.0692 54.4811 43.0348C54.4811 43.0348 54.4811 43.0348 54.4811 43.0003C54.5845 42.8623 54.688 42.7244 54.7914 42.5865C54.8949 42.4485 54.9983 42.3106 55.1018 42.1727C55.1018 42.1382 55.1707 42.0692 55.2052 42.0348C55.3087 41.8968 55.3776 41.7934 55.4811 41.6554C55.5501 41.5865 55.5845 41.483 55.6535 41.3796C55.7225 41.3106 55.757 41.2417 55.7914 41.1382C55.8949 41.0003 55.9638 40.8623 56.0673 40.7244C56.3776 40.2761 56.6535 39.7934 56.9294 39.3106C56.9983 39.1727 57.1018 39.0348 57.1707 38.8968C57.2052 38.8279 57.2742 38.7244 57.3087 38.6554C57.3432 38.5865 57.4121 38.483 57.4466 38.4141C57.4811 38.3451 57.5156 38.2761 57.5501 38.2072C57.5845 38.1382 57.619 38.0692 57.6535 38.0348C57.688 37.9313 57.757 37.8623 57.7914 37.7589C57.7914 37.6899 57.8604 37.621 57.8949 37.5865C57.8949 37.5865 58.0328 37.2761 58.1018 37.1037C58.1018 37.0348 58.1707 36.9658 58.2052 36.8968C58.2052 36.8968 58.2052 36.8623 58.2052 36.8279C58.2742 36.7244 58.3087 36.621 58.3432 36.483C58.3432 36.483 58.3432 36.483 58.3432 36.4485C58.4466 36.2416 58.5156 36.0003 58.619 35.7934C58.7225 35.552 58.8259 35.3106 58.8949 35.0692C58.9294 34.9313 58.9983 34.7934 59.0328 34.621C59.0673 34.5175 59.1018 34.4141 59.1363 34.3106C59.2052 34.1727 59.2397 34.0003 59.2742 33.8279C59.3432 33.621 59.4121 33.3796 59.4811 33.1727C59.4811 33.0692 59.5156 32.9658 59.5501 32.8623C59.619 32.6554 59.6535 32.4485 59.688 32.2416C59.688 32.2072 59.688 32.1382 59.7225 32.1037C59.7225 31.9658 59.7914 31.8278 59.7914 31.6899C59.7914 31.621 59.7914 31.552 59.8259 31.4485C59.8259 31.3796 59.8259 31.3106 59.8604 31.2072C59.8604 31.0692 59.8949 30.9313 59.9294 30.7934C59.9294 30.7244 59.9294 30.6554 59.9294 30.5865C59.9294 30.4141 59.9639 30.2416 59.9983 30.0347C59.9983 30.0347 59.9983 29.9658 59.9983 29.9313C59.9983 29.7934 59.9983 29.6554 59.9983 29.5175C59.9983 29.3451 59.9983 29.2072 59.9983 29.0347C59.9983 28.7589 59.9983 28.4485 59.9983 28.1727C59.9983 28.1382 59.9983 28.1037 59.9983 28.0692C59.9983 27.8623 59.9983 27.6554 59.9639 27.483C59.9639 27.3796 59.9639 27.3106 59.9639 27.2072C59.9639 27.0692 59.9639 26.9313 59.8949 26.8278C59.8949 26.6899 59.8604 26.552 59.8259 26.4485C59.8259 26.3796 59.8259 26.3106 59.7914 26.2416C59.7914 26.1727 59.7914 26.1037 59.757 26.0347C59.7225 25.8968 59.688 25.7244 59.619 25.5865C59.619 25.552 59.619 25.483 59.5845 25.4485C59.5845 25.3796 59.5156 25.2761 59.5156 25.1727C59.5156 25.0692 59.4466 24.9658 59.4121 24.8623C59.3776 24.7589 59.3087 24.6209 59.2742 24.5175C59.2397 24.4141 59.2052 24.3451 59.1363 24.2416C59.1018 24.1382 59.0328 24.0692 58.9983 23.9658C58.9294 23.8623 58.8949 23.7244 58.8259 23.6209C58.7914 23.552 58.7225 23.4485 58.688 23.3796C58.688 23.3451 58.619 23.3106 58.619 23.2416C58.619 23.2072 58.5501 23.1727 58.5501 23.1037C58.4811 23.0003 58.4121 22.9313 58.3432 22.8278C58.2742 22.7244 58.2052 22.6209 58.1363 22.552C58.0673 22.483 58.0328 22.414 57.9639 22.3451L57.8949 22.2761C57.8949 22.2761 57.8259 22.2072 57.7914 22.1727C55.4466 19.7244 51.4811 18.8623 46.4811 20.2072L46.6535 20.414ZM56.7225 32.6899C55.6535 36.7934 52.8604 41.2761 49.1018 45.0692C45.3432 48.8279 40.8259 51.621 36.688 52.7244C33.1707 53.6555 30.2742 53.3106 28.7224 51.7589C28.619 51.6555 28.4811 51.5175 28.3776 51.3796C28.3776 51.3796 28.2397 51.2072 28.2052 51.1037C28.2052 51.1037 28.1707 51.0348 28.1362 51.0348C28.0673 50.9313 28.0328 50.8279 27.9638 50.7244C27.8949 50.5865 27.8259 50.483 27.7914 50.3451C27.7224 50.2417 27.688 50.1037 27.6535 50.0003C27.619 49.8623 27.55 49.7244 27.5156 49.5865C27.5156 49.483 27.4466 49.3796 27.4466 49.2761C27.2397 48.4141 27.2052 47.4141 27.3087 46.3106C27.3087 46.2417 27.3087 46.1727 27.3087 46.0692C27.3776 45.3796 27.5156 44.6554 27.7224 43.8968C28.7914 39.7934 31.5845 35.2761 35.3431 31.5175C39.1018 27.7589 43.619 24.9658 47.7569 23.8623C47.9638 23.7934 48.1707 23.7589 48.3432 23.7244C48.5501 23.6899 48.7225 23.6209 48.9294 23.5865C49.1363 23.552 49.3087 23.5175 49.5156 23.483C49.688 23.483 49.8604 23.4141 50.0328 23.4141C50.0328 23.4141 50.0673 23.4141 50.1018 23.4141C50.2052 23.4141 50.3432 23.4141 50.4466 23.4141C50.5156 23.4141 50.619 23.4141 50.688 23.4141C50.757 23.4141 50.8604 23.4141 50.9638 23.4141C51.0673 23.4141 51.1707 23.4141 51.2742 23.4141C51.4466 23.4141 51.619 23.4141 51.7569 23.4141C51.8604 23.4141 51.9294 23.4141 52.0328 23.4141C52.1018 23.4141 52.1707 23.4141 52.2397 23.4141C52.3432 23.4141 52.4466 23.4141 52.5845 23.4485C52.619 23.4485 52.6535 23.4485 52.688 23.4485C52.8259 23.4485 52.9294 23.483 53.0673 23.5175C53.1707 23.5175 53.3087 23.5865 53.4121 23.5865H53.4811C53.619 23.6209 53.757 23.6554 53.8949 23.7244C54.4121 23.8968 54.8949 24.1727 55.3087 24.483C55.4466 24.5865 55.5845 24.6899 55.688 24.8278C57.2397 26.3796 57.5845 29.2416 56.688 32.6899H56.7225Z" fill="url(#paint9_linear_154_3719)"/>
<path d="M55.3435 24.5172C54.9297 24.2068 54.4814 23.9654 53.9297 23.7585C54.4469 23.931 54.9297 24.2068 55.3435 24.5172Z" fill="url(#paint10_linear_154_3719)"/>
<path d="M55.0342 24.1381C55.0342 24.1381 55.2411 24.3795 55.3445 24.5174C54.9307 24.207 54.4824 23.9657 53.9307 23.7588C53.7928 23.7243 53.6549 23.6553 53.5169 23.6208H53.448C53.3445 23.6208 53.2066 23.5519 53.1031 23.5519C52.9652 23.5519 52.8618 23.5174 52.7238 23.4829C52.6893 23.4829 52.6549 23.4829 52.6204 23.4829C52.5169 23.4829 52.4135 23.4829 52.2755 23.4484C52.2066 23.4484 52.1376 23.4484 52.0686 23.4484C51.9652 23.4484 51.8962 23.4484 51.7928 23.4484C51.6204 23.4484 51.448 23.4484 51.31 23.4484C51.2066 23.4484 51.1031 23.4484 50.9997 23.4484C50.9307 23.4484 50.8273 23.4484 50.7238 23.4484C50.6549 23.4484 50.5514 23.4484 50.4824 23.4484C50.379 23.4484 50.2411 23.4484 50.1376 23.4484H50.0686C49.8962 23.4484 49.7238 23.4829 49.5514 23.5174C49.3445 23.5174 49.1721 23.5864 48.9652 23.6208C48.7583 23.6553 48.5859 23.6898 48.379 23.7588C48.1721 23.7933 47.9652 23.8622 47.7928 23.8967C43.6548 25.0001 39.1376 27.7933 35.379 31.5519C31.6204 35.3105 28.8272 39.8277 27.7583 43.9312C27.5514 44.6898 27.4135 45.414 27.3445 46.1036C27.3445 46.1726 27.3445 46.2415 27.3445 46.345C27.241 47.4484 27.2755 48.4484 27.4824 49.3105C27.4824 49.414 27.5169 49.5174 27.5514 49.6209C27.5859 49.7588 27.6204 49.8967 27.6893 50.0347C27.7238 50.1726 27.7928 50.276 27.8272 50.3795C27.8962 50.5174 27.9307 50.6553 27.9997 50.7588C28.0686 50.8622 28.1031 50.9657 28.1721 51.0691C28.1721 51.0691 28.2066 51.1381 28.241 51.1381C28.31 51.2416 28.379 51.3105 28.4135 51.414C28.2755 51.3105 28.1721 51.2071 28.0341 51.1036C26.4824 49.5519 26.1376 46.6898 27.0341 43.2415C28.1031 39.1381 30.8962 34.6208 34.6548 30.8622C38.4135 27.1036 42.9307 24.3105 47.0686 23.207C50.5859 22.276 53.4824 22.6208 55.0342 24.1726V24.1381Z" fill="url(#paint11_linear_154_3719)"/>
<path d="M44.688 28.6208L45.0329 27.345L43.1708 27.8277L42.826 29.1036C41.4122 29.6208 40.3087 30.3105 39.4467 31.1726C38.5846 32.0346 37.9984 33.0691 37.688 34.2415C37.4811 35.0691 37.4467 35.7588 37.5846 36.3105C37.7225 36.8622 37.9984 37.276 38.3087 37.5174C38.6536 37.7588 39.3432 38.1036 40.3432 38.5519C40.9639 38.7933 41.2742 39.1036 41.3087 39.4829C41.3087 39.8277 41.2398 40.4484 40.9984 41.345C40.8949 41.6898 40.757 42.0002 40.5846 42.2071C40.4122 42.4139 40.1708 42.5519 39.8949 42.6553C39.5846 42.7243 39.4122 42.6553 39.4122 42.4139C39.4122 42.1726 39.5501 41.5174 39.826 40.4484L40.1018 39.4829L36.1018 40.5519L35.8949 41.345C35.4122 43.1381 35.4811 44.276 36.1018 44.7588C36.7225 45.276 37.5501 45.4139 38.5846 45.2415L38.1708 46.7933L40.0329 46.3105L40.4467 44.7933C41.8605 44.2415 43.0329 43.4484 43.9294 42.4484C44.826 41.4484 45.4811 40.2415 45.8605 38.8277C46.1018 37.9312 46.1708 37.2415 46.0674 36.6898C45.9639 36.1726 45.7915 35.7933 45.4811 35.5519C45.2053 35.345 44.6191 35.0346 43.757 34.6898C42.757 34.276 42.1708 34.0001 41.9639 33.7933C41.7915 33.6208 41.757 33.207 41.9639 32.5864C42.0674 32.207 42.2053 31.8967 42.3777 31.6898C42.5501 31.4829 42.757 31.3105 42.9984 31.276C43.3087 31.207 43.4811 31.276 43.5156 31.4484C43.5501 31.6553 43.4811 32.1036 43.2743 32.7933L43.1018 33.4484L47.1018 32.3795C47.2053 32.0346 47.3087 31.7933 47.3432 31.6208C47.6536 30.4484 47.5846 29.5864 47.1363 29.1036C46.688 28.5864 45.8949 28.4484 44.688 28.6208Z" fill="url(#paint12_linear_154_3719)"/>
<defs>
<linearGradient id="paint0_linear_154_3719" x1="10.4828" y1="46.3792" x2="31.3793" y2="85.7241" gradientUnits="userSpaceOnUse">
<stop stop-color="#FF0054" stop-opacity="0"/>
<stop offset="0.09" stop-color="#FF0054" stop-opacity="0.03"/>
<stop offset="0.22" stop-color="#FF0054" stop-opacity="0.12"/>
<stop offset="0.38" stop-color="#FF0054" stop-opacity="0.26"/>
<stop offset="0.57" stop-color="#FF0054" stop-opacity="0.45"/>
<stop offset="0.78" stop-color="#FF0054" stop-opacity="0.7"/>
<stop offset="1" stop-color="#FF0054"/>
</linearGradient>
<linearGradient id="paint1_linear_154_3719" x1="79.2421" y1="85.2416" x2="100.759" y2="47.1381" gradientUnits="userSpaceOnUse">
<stop stop-color="#FF0054" stop-opacity="0"/>
<stop offset="0.09" stop-color="#FF0054" stop-opacity="0.03"/>
<stop offset="0.22" stop-color="#FF0054" stop-opacity="0.12"/>
<stop offset="0.38" stop-color="#FF0054" stop-opacity="0.26"/>
<stop offset="0.57" stop-color="#FF0054" stop-opacity="0.45"/>
<stop offset="0.78" stop-color="#FF0054" stop-opacity="0.7"/>
<stop offset="1" stop-color="#FF0054"/>
</linearGradient>
<linearGradient id="paint2_linear_154_3719" x1="78.7242" y1="9.82759" x2="32.931" y2="4.89655" gradientUnits="userSpaceOnUse">
<stop stop-color="#FF0054" stop-opacity="0"/>
<stop offset="0.09" stop-color="#FF0054" stop-opacity="0.03"/>
<stop offset="0.22" stop-color="#FF0054" stop-opacity="0.12"/>
<stop offset="0.38" stop-color="#FF0054" stop-opacity="0.26"/>
<stop offset="0.57" stop-color="#FF0054" stop-opacity="0.45"/>
<stop offset="0.78" stop-color="#FF0054" stop-opacity="0.7"/>
<stop offset="1" stop-color="#FF0054"/>
</linearGradient>
<linearGradient id="paint3_linear_154_3719" x1="44.2775" y1="55.3106" x2="89.0017" y2="55.3106" gradientUnits="userSpaceOnUse">
<stop stop-color="#FFA500"/>
<stop offset="0.49" stop-color="#B17C1F"/>
<stop offset="1" stop-color="#66543E"/>
</linearGradient>
<linearGradient id="paint4_linear_154_3719" x1="47.6921" y1="46.7584" x2="13.4507" y2="46.7584" gradientUnits="userSpaceOnUse">
<stop stop-color="#FFA500"/>
<stop offset="0.49" stop-color="#B17C1F"/>
<stop offset="1" stop-color="#66543E"/>
</linearGradient>
<linearGradient id="paint5_linear_154_3719" x1="70.3108" y1="50.2414" x2="70.3108" y2="23.9655" gradientUnits="userSpaceOnUse">
<stop stop-color="#F89C09"/>
<stop offset="0.7" stop-color="#FCCD58" stop-opacity="0.29"/>
<stop offset="1" stop-color="#FFE278" stop-opacity="0"/>
</linearGradient>
<linearGradient id="paint6_linear_154_3719" x1="85.9286" y1="32.2069" x2="57.8596" y2="31.2069" gradientUnits="userSpaceOnUse">
<stop stop-color="#F89C09"/>
<stop offset="0.7" stop-color="#FCCD58" stop-opacity="0.29"/>
<stop offset="1" stop-color="#FFE278" stop-opacity="0"/>
</linearGradient>
<linearGradient id="paint7_linear_154_3719" x1="69.1401" y1="30" x2="65.1746" y2="41.7242" gradientUnits="userSpaceOnUse">
<stop stop-color="#F89C09"/>
<stop offset="0.36" stop-color="#FAB531"/>
<stop offset="1" stop-color="#FFE278"/>
</linearGradient>
<linearGradient id="paint8_linear_154_3719" x1="32.9245" y1="60.7193" x2="64.6224" y2="29.0214" gradientUnits="userSpaceOnUse">
<stop stop-color="#FFA500"/>
<stop offset="0.49" stop-color="#B17C1F"/>
<stop offset="1" stop-color="#66543E"/>
</linearGradient>
<linearGradient id="paint9_linear_154_3719" x1="51.2851" y1="47.382" x2="32.6809" y2="28.7778" gradientUnits="userSpaceOnUse">
<stop stop-color="#F89C09"/>
<stop offset="0.7" stop-color="#FCCD58" stop-opacity="0.29"/>
<stop offset="1" stop-color="#FFE278" stop-opacity="0"/>
</linearGradient>
<linearGradient id="paint10_linear_154_3719" x1="53.9919" y1="23.5107" x2="55.2355" y2="24.7542" gradientUnits="userSpaceOnUse">
<stop stop-color="#8E52FF"/>
<stop offset="1" stop-color="#D6BFFF"/>
</linearGradient>
<linearGradient id="paint11_linear_154_3719" x1="52.6763" y1="21.414" x2="22.2463" y2="49.6983" gradientUnits="userSpaceOnUse">
<stop stop-color="#F89C09"/>
<stop offset="0.7" stop-color="#FCCD58" stop-opacity="0.29"/>
<stop offset="1" stop-color="#FFE278" stop-opacity="0"/>
</linearGradient>
<linearGradient id="paint12_linear_154_3719" x1="38.7523" y1="31.2403" x2="44.2385" y2="42.3346" gradientUnits="userSpaceOnUse">
<stop stop-color="#F89C09"/>
<stop offset="0.36" stop-color="#FAB531"/>
<stop offset="1" stop-color="#FFE278"/>
</linearGradient>
</defs>
</svg>
