<svg width="111" height="87" viewBox="0 0 111 87" fill="none" xmlns="http://www.w3.org/2000/svg">
<path d="M42.0614 32.3611V27.6371C42.6645 27.6371 43.2341 27.6371 43.8371 27.6371C44.7752 27.6371 45.7468 27.6371 46.6849 27.6371C47.221 27.6371 47.422 27.4361 47.422 26.8665C47.422 25.7274 47.422 24.5548 47.422 23.3486H51.9115C51.9115 24.4207 51.9115 25.4929 51.9115 26.565C51.9115 27.5701 51.9115 27.6036 52.9501 27.6036C54.5583 27.6036 54.3573 27.6371 54.3573 26.1629C54.3573 25.2248 54.3573 24.3202 54.3573 23.3486H58.8467C58.8467 24.4543 58.8467 25.5599 58.8467 26.632C58.8467 27.6371 58.8467 27.5701 59.8518 27.7711C61.2925 28.0391 62.8002 28.2402 64.1738 28.7092C67.3231 29.7813 68.9313 32.0596 68.9983 35.1419C69.0653 38.1237 67.2226 40.938 64.4753 42.1441C64.3078 42.2111 64.1403 42.3117 63.8723 42.4122C64.5423 42.6132 65.1119 42.7472 65.648 42.9482C69.7689 44.5229 71.4776 48.8113 69.7689 53.0998C68.8308 55.4786 67.0551 57.0532 64.7099 57.8908C63.0682 58.4604 61.326 58.7619 59.6173 59.0969C59.0143 59.231 58.7797 59.3985 58.7797 60.0015C58.8132 61.1742 58.7797 62.3468 58.7797 63.5529H54.2903V62.1458C54.2903 61.7437 54.2903 61.3417 54.2903 60.9396C54.2903 59.1975 54.0892 59.0299 52.3135 59.298C51.878 59.365 51.811 59.633 51.811 60.0015C51.811 61.1742 51.811 62.3468 51.811 63.5529H47.3215C47.3215 62.4138 47.3215 61.3082 47.3215 60.1691C47.3215 59.365 47.2545 59.298 46.4504 59.298C44.9763 59.298 43.5021 59.298 41.9609 59.298V54.574C42.564 54.574 43.1336 54.574 43.7366 54.574C44.6747 54.574 45.1438 54.1384 45.1438 53.2003C45.1438 46.7006 45.1438 40.1674 45.1438 33.6677C45.1438 32.7296 44.6747 32.2941 43.7366 32.2941C43.1671 32.2941 42.5975 32.2941 41.9609 32.2941L42.0614 32.3611ZM51.945 54.574C54.1227 54.507 56.2 54.507 58.3107 54.3394C59.6173 54.2389 60.8234 53.6694 61.8286 52.7648C63.9393 50.8216 63.5372 47.6387 61.0245 46.2986C60.5889 46.0641 60.0864 45.8965 59.6173 45.7625C57.1381 45.0925 54.5918 45.394 52.079 45.3605C52.079 45.3605 52.012 45.4275 51.9785 45.461V54.574H51.945ZM51.945 40.6365C53.8547 40.6365 55.7309 40.7035 57.6071 40.6365C58.2772 40.6365 58.9808 40.3349 59.6173 40.0334C61.2925 39.2293 62.0966 37.7552 61.9626 36.013C61.8286 34.4383 60.8234 33.3327 59.0143 32.8301C56.7025 32.1601 54.3238 32.4951 51.945 32.4281V40.7035V40.6365Z" fill="url(#paint0_linear_154_3711)"/>
<path d="M93.6245 60.6379C89.0345 72.0961 75.5325 85.9331 54.7938 86.0001C45.1113 86.0001 36.4674 82.9848 28.8286 77.0881C23.2 72.7327 18.945 67.3051 15.9297 60.6379C17.5044 60.6379 18.878 60.6379 20.2852 60.6379C20.5197 60.6379 20.8212 61.0064 20.9552 61.2745C25.2437 69.2148 31.5759 74.9439 39.8847 78.5288C58.1442 86.4021 79.1844 79.0648 88.5654 61.509C88.934 60.8054 89.336 60.5039 90.1401 60.5709C91.2792 60.6379 92.4183 60.5709 93.6245 60.5709V60.6379Z" fill="url(#paint1_linear_154_3711)"/>
<path d="M16.1976 26.0623C21.4576 13.6995 35.1606 1.16915 54.6932 1.00163C74.0247 0.834113 88.1632 13.599 93.5238 26.0288C92.0162 26.0288 90.5755 26.0288 89.1348 26.0288C88.9338 26.0288 88.6993 25.6268 88.5653 25.3922C83.8748 16.9493 76.9395 11.0862 67.9271 7.70235C50.1702 1.10214 30.4701 8.43943 21.3571 25.0237C20.9216 25.8278 20.4525 26.1293 19.5479 26.0623C18.4758 25.9618 17.3702 26.0623 16.1641 26.0623H16.1976Z" fill="url(#paint2_linear_154_3711)"/>
<path d="M79.8203 29.8148C79.8203 23.9182 84.7788 18.9261 90.709 18.9596C96.5721 18.9596 101.464 23.8512 101.531 29.7143C101.598 35.5774 96.6056 40.6365 90.709 40.67C84.7788 40.67 79.8203 35.7449 79.8203 29.8148Z" fill="url(#paint3_linear_154_3711)"/>
<path d="M96.0709 29.8484C96.0709 26.5651 93.7926 24.1528 90.6768 24.1528C87.5945 24.1528 85.3497 26.4311 85.2827 29.6474C85.2157 32.9643 87.427 35.343 90.5763 35.3765C93.7591 35.41 96.0374 33.0983 96.0709 29.8149V29.8484Z" fill="url(#paint4_linear_154_3711)"/>
<path d="M10 57.0868C10 51.1901 14.9585 46.1981 20.8887 46.2316C26.7518 46.2316 31.6433 51.1231 31.7103 56.9863C31.7773 62.8494 26.7853 67.9084 20.8887 67.9419C14.992 67.9419 10 62.9834 10 57.0868Z" fill="url(#paint5_linear_154_3711)"/>
<path d="M26.2506 57.1204C26.2506 53.8371 23.9723 51.4248 20.8565 51.4248C17.7742 51.4248 15.5294 53.703 15.4624 56.9194C15.3954 60.2362 17.6066 62.615 20.756 62.6485C23.9388 62.682 26.2171 60.3703 26.2506 57.0869V57.1204Z" fill="url(#paint6_linear_154_3711)"/>
<defs>
<linearGradient id="paint0_linear_154_3711" x1="53.9552" y1="64.8931" x2="57.4731" y2="25.3253" gradientUnits="userSpaceOnUse">
<stop stop-color="#F8B409"/>
<stop offset="0.63" stop-color="#FCD150" stop-opacity="0.49"/>
<stop offset="1" stop-color="#FFE278" stop-opacity="0.2"/>
</linearGradient>
<linearGradient id="paint1_linear_154_3711" x1="96.4053" y1="71.3255" x2="26.3828" y2="73.6373" gradientUnits="userSpaceOnUse">
<stop stop-color="#FF0054"/>
<stop offset="0.49" stop-color="#FF0054" stop-opacity="0.47"/>
<stop offset="0.83" stop-color="#FF0054" stop-opacity="0.13"/>
<stop offset="0.98" stop-color="#FF0054" stop-opacity="0"/>
</linearGradient>
<linearGradient id="paint2_linear_154_3711" x1="18.0738" y1="13.7665" x2="92.4182" y2="13.4315" gradientUnits="userSpaceOnUse">
<stop stop-color="#FF0054"/>
<stop offset="0.47" stop-color="#FF0054" stop-opacity="0.47"/>
<stop offset="0.79" stop-color="#FF0054" stop-opacity="0.13"/>
<stop offset="0.94" stop-color="#FF0054" stop-opacity="0"/>
</linearGradient>
<linearGradient id="paint3_linear_154_3711" x1="90.6755" y1="14.8722" x2="90.6755" y2="39.9329" gradientUnits="userSpaceOnUse">
<stop stop-color="#3D3E4F" stop-opacity="0"/>
<stop offset="0.09" stop-color="#403E57" stop-opacity="0.05"/>
<stop offset="0.24" stop-color="#483E6C" stop-opacity="0.17"/>
<stop offset="0.45" stop-color="#553E8F" stop-opacity="0.37"/>
<stop offset="0.71" stop-color="#683EC0" stop-opacity="0.65"/>
<stop offset="1" stop-color="#803EFF"/>
</linearGradient>
<linearGradient id="paint4_linear_154_3711" x1="90.6768" y1="34.7735" x2="90.6768" y2="23.8848" gradientUnits="userSpaceOnUse">
<stop stop-color="#3D3E4F" stop-opacity="0"/>
<stop offset="0.09" stop-color="#403E57" stop-opacity="0.05"/>
<stop offset="0.24" stop-color="#483E6C" stop-opacity="0.17"/>
<stop offset="0.45" stop-color="#553E8F" stop-opacity="0.37"/>
<stop offset="0.71" stop-color="#683EC0" stop-opacity="0.65"/>
<stop offset="1" stop-color="#803EFF"/>
</linearGradient>
<linearGradient id="paint5_linear_154_3711" x1="20.8552" y1="42.1107" x2="20.8552" y2="67.2048" gradientUnits="userSpaceOnUse">
<stop stop-color="#3D3E4F" stop-opacity="0"/>
<stop offset="0.09" stop-color="#403E57" stop-opacity="0.05"/>
<stop offset="0.24" stop-color="#483E6C" stop-opacity="0.17"/>
<stop offset="0.45" stop-color="#553E8F" stop-opacity="0.37"/>
<stop offset="0.71" stop-color="#683EC0" stop-opacity="0.65"/>
<stop offset="1" stop-color="#803EFF"/>
</linearGradient>
<linearGradient id="paint6_linear_154_3711" x1="20.8565" y1="62.8495" x2="20.8565" y2="51.5923" gradientUnits="userSpaceOnUse">
<stop stop-color="#3D3E4F" stop-opacity="0"/>
<stop offset="0.09" stop-color="#403E57" stop-opacity="0.05"/>
<stop offset="0.24" stop-color="#483E6C" stop-opacity="0.17"/>
<stop offset="0.45" stop-color="#553E8F" stop-opacity="0.37"/>
<stop offset="0.71" stop-color="#683EC0" stop-opacity="0.65"/>
<stop offset="1" stop-color="#803EFF"/>
</linearGradient>
</defs>
</svg>
