<svg width="288" height="340" viewBox="0 0 288 340" fill="none" xmlns="http://www.w3.org/2000/svg">
<path d="M287.2 54.4862C287.2 303.545 143.752 339.355 143.752 339.355C143.752 339.355 0.304688 303.545 0.304688 54.4862C48.1205 50.6061 94.9429 45.179 143.752 0.491943C192.562 45.179 239.384 50.6061 287.2 54.4862Z" fill="url(#paint0_linear_43_609)" fill-opacity="0.2"/>
<path d="M253.03 81.9841C253.03 271.714 143.753 298.994 143.753 298.994C143.753 298.994 34.4766 271.714 34.4766 81.9841C70.9022 79.0283 106.571 74.894 143.753 40.8518C180.936 74.894 216.605 79.0283 253.03 81.9841Z" fill="url(#paint1_linear_43_609)" fill-opacity="0.2"/>
<path d="M217.518 110.561C217.518 238.637 143.751 257.052 143.751 257.052C143.751 257.052 69.9844 238.637 69.9844 110.561C94.5733 108.566 118.651 105.775 143.751 82.7949C168.851 105.775 192.929 108.566 217.518 110.561Z" fill="url(#paint2_linear_43_609)" fill-opacity="0.2"/>
<path d="M191.491 190.139C191.491 190.139 191.518 190.056 191.518 190.015C191.587 189.727 191.655 189.426 191.751 189.124C191.779 189.014 191.834 188.891 191.861 188.781C191.943 188.548 192.026 188.315 192.122 188.082C192.176 187.945 192.231 187.808 192.286 187.684C192.382 187.451 192.492 187.232 192.615 186.999C192.684 186.862 192.752 186.725 192.821 186.601C192.944 186.382 193.081 186.162 193.205 185.943C193.301 185.778 193.397 185.614 193.506 185.449C193.657 185.216 193.822 184.997 194 184.764C194.11 184.613 194.219 184.448 194.343 184.298C194.452 184.161 194.576 184.01 194.699 183.873C194.946 183.571 195.206 183.256 195.494 182.954C195.645 182.789 195.81 182.611 195.974 182.447C196.249 182.159 196.536 181.871 196.838 181.583C197.044 181.391 197.249 181.199 197.469 180.993C197.702 180.788 197.949 180.568 198.195 180.363C198.442 180.157 198.703 179.938 198.977 179.732C199.238 179.526 199.525 179.307 199.8 179.101C200.088 178.882 200.376 178.676 200.677 178.457C200.979 178.237 201.294 178.032 201.61 177.812C201.925 177.593 202.254 177.387 202.597 177.168C202.939 176.949 203.282 176.729 203.639 176.51C204.105 176.222 204.571 175.948 205.065 175.66C205.174 175.591 205.284 175.536 205.394 175.468C206.066 175.084 206.765 174.7 207.492 174.33C207.656 174.248 207.807 174.165 207.971 174.083C208.739 173.685 209.507 173.301 210.343 172.904L210.412 150.555C209.589 150.953 208.808 151.35 208.04 151.734C207.875 151.816 207.711 151.899 207.56 151.981C206.833 152.365 206.134 152.749 205.462 153.119C205.353 153.187 205.243 153.242 205.133 153.311C204.832 153.489 204.53 153.654 204.242 153.832C204.064 153.942 203.899 154.051 203.721 154.161C203.365 154.38 203.022 154.6 202.679 154.819C202.35 155.038 202.021 155.244 201.705 155.463C201.39 155.683 201.075 155.902 200.773 156.108C200.472 156.327 200.184 156.533 199.896 156.752C199.608 156.972 199.334 157.177 199.059 157.397C198.799 157.602 198.538 157.822 198.278 158.027C198.031 158.233 197.784 158.452 197.551 158.658C197.428 158.768 197.304 158.864 197.195 158.973C197.099 159.069 197.016 159.152 196.92 159.248C196.619 159.536 196.331 159.824 196.057 160.111C195.892 160.276 195.728 160.454 195.577 160.619C195.289 160.934 195.042 161.236 194.781 161.537C194.685 161.647 194.589 161.757 194.494 161.866C194.466 161.894 194.452 161.935 194.425 161.962C194.302 162.127 194.192 162.278 194.082 162.429C193.918 162.662 193.739 162.895 193.589 163.114C193.479 163.279 193.383 163.443 193.287 163.608C193.191 163.759 193.081 163.923 192.999 164.074C192.958 164.143 192.93 164.211 192.903 164.28C192.834 164.417 192.766 164.54 192.697 164.677C192.574 164.91 192.464 165.143 192.368 165.363C192.313 165.5 192.259 165.637 192.204 165.76C192.176 165.843 192.135 165.925 192.094 166.007C192.039 166.158 191.998 166.309 191.943 166.46C191.902 166.569 191.861 166.693 191.834 166.802C191.751 167.104 191.669 167.392 191.601 167.694C191.601 167.735 191.573 167.79 191.573 167.831C191.573 167.831 191.573 167.831 191.573 167.844C191.505 168.174 191.463 168.503 191.422 168.832C191.422 168.928 191.422 169.024 191.395 169.12C191.381 169.298 191.367 169.476 191.354 169.654C191.354 169.75 191.354 169.833 191.354 169.915L191.285 192.264C191.285 192.003 191.313 191.729 191.326 191.455C191.326 191.359 191.326 191.263 191.354 191.153C191.395 190.824 191.436 190.481 191.505 190.152L191.491 190.139Z" fill="url(#paint3_linear_43_609)"/>
<path d="M253.532 163.84C253.504 164.334 253.463 164.814 253.367 165.307C253.367 165.348 253.354 165.376 253.34 165.417C253.23 165.965 253.079 166.5 252.874 167.049C252.833 167.145 252.791 167.254 252.75 167.35C252.668 167.556 252.586 167.762 252.49 167.954C252.435 168.077 252.366 168.187 252.312 168.31C252.216 168.488 252.133 168.68 252.024 168.859C251.982 168.927 251.941 168.996 251.9 169.064C251.749 169.325 251.599 169.571 251.42 169.832C251.338 169.942 251.256 170.065 251.174 170.175C251.023 170.38 250.872 170.586 250.721 170.805C250.639 170.915 250.543 171.025 250.461 171.135C250.227 171.422 249.967 171.724 249.706 172.012C249.624 172.094 249.556 172.177 249.473 172.259C249.131 172.615 248.774 172.972 248.39 173.328C248.267 173.438 248.143 173.548 248.02 173.657C247.814 173.836 247.609 174.028 247.389 174.206C247.238 174.329 247.088 174.453 246.937 174.562C246.717 174.727 246.512 174.905 246.279 175.07C246.114 175.193 245.95 175.316 245.785 175.44C245.552 175.604 245.333 175.769 245.086 175.933C244.908 176.057 244.729 176.166 244.551 176.29C244.304 176.454 244.058 176.605 243.797 176.77C243.523 176.934 243.249 177.113 242.961 177.277C242.248 177.688 241.507 178.086 240.767 178.456C240.52 178.58 240.273 178.689 240.026 178.799C239.505 179.046 238.998 179.279 238.463 179.512C238.162 179.635 237.874 179.759 237.572 179.882C237.079 180.088 236.571 180.28 236.064 180.458C235.749 180.568 235.447 180.677 235.132 180.787C234.72 180.924 234.309 181.048 233.898 181.171C233.24 181.377 232.595 181.555 231.923 181.733C231.567 181.829 231.21 181.925 230.84 182.007C230.113 182.186 229.387 182.336 228.66 182.474C228.345 182.528 228.029 182.611 227.714 182.665C227.508 182.707 227.289 182.734 227.083 182.761C226.453 182.857 225.836 182.953 225.205 183.036C224.958 183.063 224.698 183.104 224.451 183.132C224.026 183.173 223.601 183.214 223.176 183.241C222.531 183.296 221.887 183.337 221.242 183.365C220.845 183.378 220.433 183.406 220.036 183.406C219.542 183.406 219.049 183.406 218.555 183.406C218.116 183.406 217.678 183.406 217.253 183.378C216.855 183.365 216.457 183.337 216.06 183.31C215.594 183.282 215.141 183.241 214.689 183.2C214.332 183.159 213.962 183.132 213.605 183.077C213.153 183.022 212.7 182.953 212.248 182.885C211.892 182.83 211.549 182.775 211.206 182.707C210.781 182.624 210.37 182.528 209.958 182.432C209.574 182.35 209.204 182.254 208.834 182.158C208.491 182.062 208.162 181.966 207.833 181.857C207.339 181.706 206.846 181.541 206.366 181.363C205.968 181.212 205.584 181.075 205.214 180.91C205.036 180.828 204.844 180.76 204.666 180.677C204.063 180.403 203.473 180.102 202.911 179.786C198.633 177.318 196.563 173.986 196.576 170.408L196.508 192.757C196.508 196.322 198.564 199.667 202.842 202.135C203.404 202.45 203.994 202.752 204.597 203.026C204.776 203.109 204.954 203.191 205.146 203.259C205.365 203.355 205.584 203.451 205.804 203.547C205.968 203.616 206.133 203.657 206.297 203.712C206.777 203.89 207.271 204.055 207.765 204.205C207.956 204.26 208.135 204.343 208.34 204.397C208.477 204.439 208.628 204.466 208.779 204.507C209.149 204.603 209.52 204.699 209.903 204.781C210.15 204.836 210.397 204.905 210.644 204.96C210.808 204.987 210.973 205.014 211.137 205.042C211.48 205.11 211.837 205.165 212.179 205.22C212.426 205.261 212.659 205.316 212.906 205.343C213.112 205.371 213.331 205.385 213.537 205.412C213.893 205.453 214.25 205.494 214.62 205.535C214.839 205.563 215.045 205.59 215.264 205.604C215.511 205.618 215.758 205.631 216.005 205.645C216.402 205.673 216.8 205.7 217.198 205.714C217.39 205.714 217.582 205.741 217.774 205.741C218.02 205.741 218.267 205.741 218.5 205.741C218.994 205.741 219.474 205.741 219.981 205.741C220.187 205.741 220.379 205.741 220.584 205.741C220.776 205.741 220.982 205.714 221.174 205.7C221.818 205.673 222.463 205.631 223.121 205.563C223.354 205.549 223.587 205.535 223.82 205.522C224.012 205.508 224.19 205.481 224.382 205.453C224.643 205.426 224.89 205.398 225.15 205.357C225.767 205.275 226.398 205.193 227.015 205.083C227.22 205.042 227.44 205.014 227.645 204.987C227.728 204.973 227.824 204.96 227.906 204.946C228.139 204.905 228.358 204.85 228.592 204.795C229.318 204.658 230.045 204.507 230.772 204.329C231.128 204.247 231.498 204.151 231.855 204.055C232.513 203.876 233.171 203.698 233.829 203.492C234.035 203.424 234.254 203.383 234.46 203.314C234.665 203.246 234.857 203.177 235.063 203.109C235.378 202.999 235.694 202.889 236.009 202.779C236.516 202.601 237.024 202.409 237.517 202.204C237.819 202.08 238.121 201.971 238.409 201.833C238.943 201.614 239.451 201.367 239.972 201.12C240.218 200.997 240.465 200.887 240.712 200.778C241.466 200.407 242.193 200.01 242.906 199.599C243.07 199.503 243.235 199.407 243.399 199.297C243.509 199.228 243.619 199.16 243.728 199.091C243.989 198.94 244.236 198.776 244.483 198.611C244.661 198.488 244.839 198.378 245.017 198.255C245.25 198.09 245.483 197.926 245.717 197.761C245.881 197.638 246.046 197.514 246.21 197.391C246.43 197.227 246.649 197.048 246.868 196.87C247.019 196.747 247.17 196.637 247.307 196.514C247.526 196.335 247.732 196.143 247.938 195.965C248.034 195.883 248.143 195.787 248.239 195.705C248.267 195.677 248.28 195.663 248.308 195.636C248.692 195.28 249.048 194.923 249.391 194.567C249.473 194.484 249.542 194.402 249.624 194.32C249.885 194.032 250.145 193.73 250.378 193.442C250.419 193.387 250.488 193.319 250.529 193.264C250.57 193.209 250.598 193.168 250.639 193.113C250.803 192.908 250.954 192.702 251.091 192.483C251.174 192.373 251.256 192.249 251.338 192.14C251.503 191.893 251.667 191.632 251.804 191.372C251.845 191.303 251.886 191.249 251.914 191.18C251.914 191.18 251.914 191.166 251.928 191.153C252.024 190.974 252.12 190.796 252.202 190.618C252.27 190.494 252.339 190.371 252.394 190.248C252.49 190.042 252.572 189.85 252.654 189.644C252.695 189.548 252.737 189.452 252.778 189.356C252.983 188.808 253.134 188.273 253.244 187.725C253.244 187.697 253.258 187.67 253.271 187.643V187.615C253.367 187.122 253.422 186.628 253.436 186.148C253.436 186.107 253.45 186.066 253.45 186.025C253.45 185.942 253.45 185.86 253.45 185.778L253.518 163.429C253.518 163.552 253.518 163.676 253.504 163.799L253.532 163.84Z" fill="#166A00"/>
<path d="M133.727 182.927C134.316 183.064 134.892 183.215 135.468 183.365C136.332 183.585 137.196 183.818 138.046 184.051C138.553 184.188 139.047 184.339 139.554 184.49C140.802 184.86 142.036 185.244 143.256 185.641C143.681 185.779 144.12 185.916 144.545 186.067C146.121 186.601 147.671 187.163 149.179 187.753C149.988 188.068 150.769 188.397 151.551 188.726C151.935 188.891 152.333 189.042 152.716 189.206C153.882 189.714 155.034 190.248 156.158 190.783L156.226 168.434C155.116 167.886 153.964 167.365 152.799 166.857C152.401 166.679 151.99 166.528 151.592 166.35C150.865 166.035 150.139 165.733 149.385 165.431C149.344 165.418 149.289 165.404 149.248 165.377C147.739 164.787 146.19 164.225 144.613 163.69C144.188 163.539 143.749 163.402 143.311 163.265C142.09 162.868 140.856 162.484 139.609 162.113C139.321 162.031 139.047 161.935 138.759 161.853C138.539 161.784 138.306 161.743 138.087 161.675C137.237 161.442 136.373 161.208 135.509 160.989C134.933 160.838 134.344 160.687 133.768 160.55C132.836 160.331 131.889 160.112 130.943 159.906C130.505 159.81 130.08 159.7 129.641 159.618C129.545 159.604 129.463 159.591 129.367 159.563C127.886 159.262 126.378 158.974 124.883 158.727C124.869 158.727 124.856 158.727 124.842 158.727L124.773 181.076C126.295 181.336 127.804 181.61 129.298 181.926C129.819 182.035 130.34 182.159 130.875 182.269C131.821 182.474 132.767 182.68 133.699 182.913L133.727 182.927Z" fill="#197600"/>
<path d="M159.956 189.768C160.587 189.617 161.218 189.48 161.862 189.37C162.328 189.288 162.794 189.192 163.26 189.123C163.494 189.082 163.727 189.041 163.96 189.014C164.741 188.89 165.536 188.781 166.359 188.685L166.428 166.336C165.605 166.432 164.81 166.541 164.028 166.665C163.795 166.706 163.562 166.747 163.329 166.774C163.027 166.829 162.712 166.87 162.41 166.925C162.246 166.953 162.095 166.994 161.93 167.021C161.286 167.145 160.655 167.282 160.025 167.419C159.709 167.487 159.394 167.556 159.079 167.638C158.283 167.844 157.502 168.063 156.707 168.31C156.583 168.351 156.474 168.379 156.35 168.406C156.309 168.406 156.282 168.433 156.24 168.447L156.172 190.796C156.323 190.741 156.474 190.714 156.624 190.659C157.42 190.412 158.201 190.193 158.996 189.987C159.312 189.905 159.627 189.836 159.942 189.768H159.956Z" fill="#1F9300"/>
<path d="M155.776 195.828C156.215 195.856 156.654 195.883 157.106 195.91C157.915 195.952 158.724 196.006 159.533 196.075C160.383 196.144 161.22 196.212 162.042 196.281L162.111 173.932C161.494 173.877 160.877 173.822 160.26 173.767C160.041 173.754 159.821 173.74 159.602 173.726C158.793 173.658 157.984 173.616 157.175 173.562C156.736 173.534 156.297 173.507 155.859 173.479C154.885 173.424 153.925 173.397 152.952 173.37C152.719 173.37 152.472 173.342 152.239 173.342C152.198 173.342 152.157 173.342 152.116 173.342C150.936 173.315 149.785 173.301 148.647 173.301C147.262 173.274 145.877 173.274 144.492 173.301C144.054 173.301 143.615 173.315 143.176 173.329C142.532 173.329 141.901 173.342 141.256 173.37C140.969 173.37 140.694 173.397 140.406 173.411C139.721 173.438 139.035 173.479 138.363 173.507C137.568 173.548 136.787 173.603 135.991 173.658C135.306 173.712 134.634 173.767 133.949 173.822C133.523 173.863 133.085 173.891 132.66 173.932C132.331 173.959 132.015 174.014 131.686 174.041C130.905 174.124 130.137 174.22 129.355 174.316C128.642 174.412 127.929 174.508 127.216 174.604C126.449 174.713 125.694 174.837 124.927 174.96C124.502 175.029 124.077 175.084 123.665 175.166C123.418 175.207 123.185 175.275 122.952 175.317C121.869 175.522 120.8 175.742 119.73 175.988C119.237 176.098 118.729 176.208 118.236 176.317C116.7 176.688 115.192 177.085 113.725 177.524L113.656 199.873C115.123 199.434 116.632 199.037 118.167 198.666C118.661 198.543 119.168 198.447 119.662 198.337C120.717 198.104 121.787 197.871 122.884 197.666C123.542 197.542 124.2 197.432 124.872 197.309C125.626 197.186 126.394 197.062 127.148 196.953C127.861 196.843 128.574 196.747 129.287 196.665C130.055 196.569 130.836 196.473 131.604 196.39C132.358 196.308 133.126 196.24 133.88 196.171C134.552 196.116 135.224 196.048 135.909 196.006C136.704 195.952 137.5 195.897 138.295 195.856C138.98 195.815 139.652 195.787 140.338 195.76C141.27 195.719 142.189 195.691 143.121 195.677C143.56 195.677 143.985 195.65 144.424 195.65C145.809 195.636 147.207 195.636 148.578 195.65C149.716 195.65 150.868 195.664 152.047 195.691C152.335 195.691 152.623 195.719 152.911 195.719C153.871 195.746 154.83 195.787 155.79 195.828H155.776Z" fill="#1E8F00"/>
<path d="M87.6825 198.982C87.8333 198.941 87.9841 198.886 88.1487 198.845C88.2035 198.845 88.2447 198.817 88.3132 198.804C88.5326 198.749 88.7657 198.708 89.0125 198.653C89.0673 198.653 89.1359 198.639 89.2044 198.625C89.3964 198.598 89.5883 198.557 89.794 198.529C89.89 198.529 89.9859 198.502 90.0682 198.488C90.2602 198.461 90.4658 198.447 90.6715 198.42C90.7538 198.42 90.8497 198.406 90.932 198.392C91.3022 198.351 91.6861 198.324 92.0974 198.296C92.1797 198.296 92.262 198.296 92.3442 198.283C92.7693 198.255 93.1943 198.241 93.6468 198.214C94.3186 198.187 95.0316 198.187 95.7446 198.173C95.8131 198.173 95.868 198.173 95.9365 198.173C96.6221 198.173 97.3213 198.173 98.0206 198.2C98.0754 198.2 98.144 198.2 98.1988 198.2C99.1449 198.228 100.105 198.269 101.064 198.31C101.119 198.31 101.174 198.31 101.229 198.31C102.189 198.365 103.149 198.433 104.095 198.502C104.163 198.502 104.218 198.502 104.287 198.516C105.178 198.584 106.055 198.68 106.919 198.762C106.96 198.762 107.015 198.762 107.056 198.776C107.934 198.872 108.77 198.982 109.579 199.091C110.169 199.174 110.731 199.256 111.265 199.352C111.279 199.352 111.293 199.352 111.307 199.352C111.841 199.448 112.335 199.53 112.815 199.626C112.828 199.626 112.856 199.626 112.883 199.626C113.144 199.681 113.391 199.736 113.624 199.791L113.692 177.442C113.459 177.387 113.212 177.332 112.952 177.277C112.952 177.277 112.938 177.277 112.924 177.277C112.924 177.277 112.897 177.277 112.883 177.277C112.403 177.181 111.91 177.085 111.375 177.003C111.361 177.003 111.348 177.003 111.334 177.003C110.799 176.907 110.237 176.825 109.648 176.743C108.839 176.633 107.988 176.523 107.111 176.427C107.07 176.427 107.029 176.427 106.988 176.414C106.124 176.318 105.246 176.235 104.355 176.167C104.328 176.167 104.3 176.167 104.259 176.167C104.232 176.167 104.204 176.167 104.177 176.167C103.231 176.084 102.271 176.03 101.311 175.975C101.256 175.975 101.188 175.975 101.133 175.975C100.173 175.92 99.2134 175.879 98.2811 175.865C98.2537 175.865 98.2263 175.865 98.1988 175.865C98.1577 175.865 98.1166 175.865 98.0891 175.865C97.3762 175.851 96.6769 175.838 96.0051 175.838C95.9365 175.838 95.8817 175.838 95.8131 175.838C95.0864 175.838 94.3872 175.838 93.7153 175.879C93.2629 175.892 92.8378 175.92 92.4128 175.947C92.3305 175.947 92.2483 175.947 92.166 175.961C91.7684 175.988 91.3708 176.016 91.0006 176.057C90.9731 176.057 90.9457 176.057 90.9183 176.057C90.8635 176.057 90.8086 176.057 90.7538 176.071C90.5481 176.098 90.3424 176.112 90.1505 176.139C90.0545 176.139 89.9722 176.167 89.8763 176.18C89.6706 176.208 89.4786 176.235 89.2867 176.276C89.2456 176.276 89.1907 176.29 89.1359 176.304H89.1084C88.8617 176.345 88.6286 176.4 88.3955 176.455C88.3406 176.455 88.2995 176.482 88.2447 176.496C88.0801 176.537 87.9293 176.578 87.7785 176.633C87.7511 176.633 87.7099 176.647 87.6825 176.66C87.6551 176.66 87.6414 176.674 87.614 176.688C87.4083 176.756 87.2163 176.839 87.0655 176.921C86.9558 176.976 86.8598 177.044 86.7639 177.099L86.6953 199.448C86.7776 199.379 86.8873 199.325 86.997 199.27C87.1615 199.187 87.3397 199.119 87.5454 199.037C87.6002 199.023 87.6551 198.996 87.7099 198.982H87.6825Z" fill="#1E8F00"/>
<path d="M62.8584 185.531C62.4745 185.312 62.0906 185.093 61.6792 184.887C61.5421 184.818 61.3913 184.75 61.2542 184.668C60.98 184.53 60.6921 184.38 60.4041 184.243C60.2259 184.16 60.0476 184.078 59.8694 183.996C59.5952 183.872 59.321 183.749 59.033 183.612C58.8274 183.53 58.6217 183.434 58.416 183.351C58.1418 183.228 57.8539 183.118 57.5659 182.995C57.4974 182.967 57.4288 182.94 57.3466 182.899C57.2643 182.871 57.182 182.844 57.0998 182.817C56.3457 182.515 55.5504 182.227 54.7141 181.953C54.6866 181.953 54.6729 181.939 54.6455 181.925C53.8228 181.651 52.9591 181.377 52.0541 181.13C51.9582 181.103 51.8759 181.075 51.7799 181.048C51.7251 181.034 51.6565 181.02 51.588 180.993C50.7927 180.774 49.9701 180.554 49.12 180.335C48.9417 180.294 48.7498 180.253 48.5715 180.198C47.8311 180.02 47.0496 179.841 46.2544 179.677C46.1173 179.649 46.0076 179.622 45.8705 179.595C45.8019 179.595 45.7334 179.567 45.6648 179.553C44.7325 179.361 43.759 179.183 42.7581 179.005C42.5387 178.964 42.3193 178.936 42.1 178.895C41.2225 178.744 40.3312 178.607 39.4126 178.47C39.2618 178.443 39.1247 178.415 38.9601 178.402C38.8779 178.402 38.7819 178.374 38.6859 178.361C38.0963 178.278 37.4931 178.196 36.8898 178.127C36.5881 178.086 36.3002 178.045 35.9849 178.018C35.0662 177.908 34.1202 177.798 33.1467 177.702L33.0781 200.051C34.0516 200.147 34.984 200.257 35.9163 200.367C36.2179 200.408 36.5059 200.449 36.8075 200.476C37.4108 200.559 38.0278 200.627 38.6174 200.709C38.8642 200.737 39.0835 200.778 39.3303 200.819C40.2627 200.956 41.1539 201.093 42.0314 201.244C42.2508 201.285 42.4702 201.313 42.6758 201.354C43.6767 201.532 44.6365 201.71 45.5825 201.902C45.7882 201.943 45.9802 201.985 46.1721 202.026C46.9674 202.19 47.7352 202.368 48.4893 202.547C48.6675 202.588 48.8595 202.629 49.0377 202.67C49.8878 202.876 50.7242 203.095 51.5194 203.328C51.6702 203.369 51.821 203.424 51.9719 203.465C52.8768 203.726 53.7406 203.986 54.5632 204.274C54.5907 204.274 54.6044 204.288 54.6318 204.302C55.4682 204.576 56.2497 204.878 57.0175 205.166C57.1683 205.22 57.3329 205.289 57.4837 205.344C57.7716 205.453 58.0595 205.577 58.3338 205.7C58.5394 205.783 58.7451 205.878 58.9508 205.961C59.2387 206.084 59.5129 206.208 59.7871 206.345C59.9654 206.427 60.1436 206.509 60.3219 206.591C60.6098 206.729 60.8977 206.879 61.1719 207.016C61.309 207.085 61.4599 207.154 61.597 207.222C62.0083 207.442 62.4059 207.661 62.7761 207.867C70.7285 212.46 72.3053 217.766 72.2915 220.837L72.3601 198.488C72.3601 195.403 70.797 190.111 62.8447 185.518L62.8584 185.531Z" fill="url(#paint4_linear_43_609)"/>
<mask id="mask0_43_609" style="mask-type:luminance" maskUnits="userSpaceOnUse" x="65" y="197" width="2" height="26">
<path d="M66.3222 197.405L66.2536 219.754C66.2536 220.727 66.0617 221.687 65.6641 222.661L65.7326 200.312C66.1302 199.352 66.3222 198.379 66.3222 197.405Z" fill="white"/>
</mask>
<g mask="url(#mask0_43_609)">
<path d="M66.3264 197.405L66.2578 219.754C66.2578 219.754 66.2578 219.878 66.2578 219.946L66.3264 197.597C66.3264 197.597 66.3264 197.474 66.3264 197.405Z" fill="url(#paint5_linear_43_609)"/>
<path d="M66.315 197.583L66.2465 219.932C66.2465 220.344 66.1916 220.755 66.1094 221.166L66.1779 198.817C66.2602 198.406 66.3013 197.995 66.315 197.583Z" fill="url(#paint6_linear_43_609)"/>
<path d="M66.177 198.831L66.1084 221.18C66.0261 221.578 65.9164 221.989 65.7656 222.387L65.8342 200.038C65.985 199.64 66.0947 199.229 66.177 198.831Z" fill="url(#paint7_linear_43_609)"/>
<path d="M65.8345 200.038L65.7659 222.387C65.7385 222.469 65.6974 222.565 65.6562 222.647L65.7248 200.298C65.7659 200.216 65.7934 200.12 65.8345 200.038Z" fill="url(#paint8_linear_43_609)"/>
</g>
<mask id="mask1_43_609" style="mask-type:luminance" maskUnits="userSpaceOnUse" x="227" y="201" width="1" height="24">
<path d="M227.971 202.409L227.903 224.758C227.903 224.525 227.848 224.305 227.738 224.113L227.807 201.764C227.917 201.956 227.971 202.162 227.971 202.409Z" fill="white"/>
</mask>
<g mask="url(#mask1_43_609)">
<path d="M227.971 202.409L227.903 224.758C227.903 224.525 227.848 224.305 227.738 224.113L227.807 201.764C227.917 201.956 227.971 202.162 227.971 202.409Z" fill="#166A00"/>
</g>
<path d="M194.385 185.161C193.631 184.722 192.849 184.297 192.04 183.872C191.697 183.694 191.341 183.515 190.984 183.337C190.518 183.104 190.066 182.871 189.586 182.638C189.216 182.46 188.845 182.295 188.462 182.131C187.982 181.911 187.515 181.692 187.022 181.473C186.679 181.322 186.323 181.185 185.98 181.034C185.445 180.814 184.924 180.581 184.389 180.376C184.389 180.376 184.389 180.376 184.376 180.376C183.183 179.909 181.949 179.457 180.687 179.032C180.372 178.922 180.043 178.813 179.728 178.703C178.535 178.305 177.315 177.921 176.067 177.565C175.998 177.551 175.93 177.524 175.861 177.496C175.847 177.496 175.82 177.496 175.793 177.483C174.778 177.195 173.75 176.92 172.694 176.66H172.666C171.94 176.249 171.241 175.851 170.569 175.467C170.322 175.33 170.103 175.207 169.856 175.083C169.431 174.85 169.006 174.617 168.608 174.398C168.348 174.261 168.114 174.137 167.868 174C167.511 173.808 167.141 173.616 166.798 173.438C166.551 173.314 166.346 173.205 166.113 173.081C165.784 172.917 165.455 172.739 165.153 172.588C164.933 172.478 164.728 172.382 164.508 172.272C164.221 172.135 163.946 171.985 163.672 171.861C163.466 171.765 163.274 171.669 163.069 171.573C162.836 171.463 162.589 171.34 162.356 171.244C162.178 171.162 162.013 171.093 161.849 171.011C161.643 170.915 161.423 170.819 161.245 170.737C161.094 170.668 160.957 170.613 160.82 170.559C160.683 170.504 160.532 170.435 160.409 170.38C160.354 170.353 160.299 170.339 160.244 170.312L160.176 192.661C160.34 192.729 160.546 192.812 160.738 192.894C160.889 192.949 161.026 193.017 161.19 193.086C161.369 193.168 161.574 193.25 161.766 193.346C161.944 193.428 162.123 193.497 162.315 193.593C162.52 193.689 162.753 193.799 162.973 193.908C163.178 194.004 163.384 194.1 163.617 194.21C163.864 194.333 164.125 194.457 164.385 194.594C164.618 194.704 164.838 194.813 165.084 194.937C165.372 195.074 165.674 195.238 165.976 195.389C166.222 195.513 166.469 195.636 166.73 195.773C167.059 195.951 167.415 196.13 167.758 196.322C168.018 196.459 168.265 196.582 168.526 196.733C168.923 196.952 169.348 197.185 169.773 197.418C170.007 197.556 170.24 197.665 170.486 197.802C171.158 198.186 171.858 198.584 172.584 198.995C173.64 199.256 174.682 199.544 175.71 199.832C175.806 199.859 175.889 199.886 175.985 199.914C177.232 200.27 178.453 200.654 179.645 201.052C179.974 201.161 180.29 201.271 180.605 201.381C181.853 201.806 183.087 202.258 184.293 202.725C184.814 202.93 185.308 203.136 185.815 203.355C186.199 203.52 186.583 203.671 186.953 203.821C187.447 204.041 187.927 204.26 188.42 204.493C188.777 204.658 189.161 204.822 189.504 204.987C190.107 205.275 190.683 205.576 191.272 205.864C191.492 205.974 191.738 206.084 191.958 206.207C192.753 206.632 193.535 207.057 194.302 207.496C204.298 213.268 211.03 220.7 213.566 228.954L213.635 206.605C211.112 198.351 204.366 190.906 194.371 185.147L194.385 185.161Z" fill="url(#paint9_linear_43_609)"/>
<path d="M224.161 225.691C225.381 225.211 226.588 224.69 227.753 224.128L227.822 201.779C226.656 202.341 225.45 202.862 224.23 203.342C223.818 203.507 223.393 203.644 222.968 203.808C222.146 204.11 221.323 204.412 220.473 204.686C219.746 204.919 218.992 205.152 218.238 205.371C217.868 205.481 217.511 205.591 217.141 205.7C216.003 206.016 214.851 206.331 213.672 206.619C213.672 206.619 213.645 206.619 213.631 206.619L213.562 228.968C214.755 228.666 215.921 228.365 217.073 228.036C217.443 227.926 217.799 227.816 218.156 227.707C218.773 227.528 219.403 227.35 220.007 227.158C220.144 227.117 220.267 227.062 220.391 227.021C221.241 226.747 222.063 226.445 222.886 226.143C223.311 225.993 223.736 225.842 224.147 225.677L224.161 225.691Z" fill="url(#paint10_linear_43_609)"/>
<path d="M65.0756 201.436C64.9522 201.628 64.8288 201.82 64.6917 202.012C64.4175 202.382 64.1433 202.738 63.8142 203.095C63.7868 203.122 63.7594 203.15 63.7319 203.177C63.4303 203.492 63.0875 203.794 62.731 204.096C62.5391 204.26 62.3471 204.411 62.1552 204.576C61.8672 204.809 61.5519 205.014 61.2365 205.234C61.0309 205.371 60.8252 205.522 60.5921 205.659C60.0848 205.974 59.5775 206.276 59.0154 206.55C58.9605 206.577 58.892 206.605 58.8371 206.632C58.3161 206.893 57.7539 207.14 57.1918 207.386C57.0273 207.455 56.849 207.523 56.6845 207.592C56.0812 207.839 55.4505 208.058 54.8061 208.278C54.7649 208.278 54.7375 208.305 54.6964 208.319C54.573 208.36 54.4496 208.387 54.3262 208.428C53.6269 208.648 52.9003 208.853 52.1599 209.045C51.8582 209.128 51.5292 209.182 51.2138 209.251C50.6379 209.388 50.0484 209.512 49.4588 209.621C49.212 209.662 48.9652 209.704 48.7184 209.745C47.6901 209.923 46.6206 210.074 45.5375 210.183C45.2495 210.211 44.9753 210.252 44.7011 210.279C43.5631 210.389 42.3976 210.471 41.2185 210.512C41.054 210.512 40.8757 210.512 40.6975 210.512C39.724 210.54 38.7505 210.54 37.7633 210.512C37.3794 210.512 36.9818 210.485 36.5979 210.471C35.8164 210.444 35.0211 210.403 34.2259 210.348C33.8146 210.321 33.3895 210.279 32.9782 210.252C32.1281 210.17 31.278 210.074 30.4142 209.964C29.9481 209.909 29.4819 209.854 29.0157 209.786C28.0011 209.635 27.0276 209.457 26.0541 209.251C25.6291 209.169 25.2178 209.073 24.8064 208.991C24.5185 208.922 24.2443 208.867 23.9701 208.799C23.4765 208.675 22.9829 208.552 22.503 208.428C22.2836 208.374 22.0505 208.319 21.8312 208.25C21.5295 208.168 21.2416 208.072 20.9537 207.99C20.5012 207.853 20.035 207.715 19.5963 207.565C19.2946 207.469 19.0067 207.359 18.7051 207.249C18.2937 207.098 17.8824 206.961 17.4985 206.81C17.2791 206.728 17.0734 206.632 16.8678 206.55C16.2508 206.303 15.6475 206.043 15.0716 205.768C14.866 205.672 14.6466 205.576 14.4409 205.467C13.7143 205.11 13.015 204.754 12.3569 204.37C7.33864 201.504 4.39078 197.912 4.40449 194.251L4.33594 216.614C4.33594 220.275 7.27009 223.867 12.2609 226.746C12.919 227.13 13.6183 227.487 14.345 227.843C14.5506 227.939 14.77 228.049 14.9757 228.145C15.5515 228.419 16.1548 228.666 16.7581 228.926C16.8952 228.981 17.0186 229.05 17.1557 229.105C17.238 229.132 17.3202 229.159 17.3888 229.187C17.7864 229.338 18.1977 229.488 18.6091 229.626C18.897 229.735 19.1849 229.831 19.4866 229.941C19.939 230.092 20.3915 230.229 20.8577 230.366C21.1045 230.435 21.3376 230.517 21.5844 230.599C21.6255 230.599 21.6803 230.626 21.7215 230.64C21.9408 230.709 22.1739 230.764 22.407 230.818C22.8869 230.942 23.3668 231.079 23.8604 231.189C24.1346 231.257 24.4225 231.312 24.7105 231.381C25.0121 231.449 25.3137 231.518 25.6291 231.586C25.7388 231.614 25.8485 231.627 25.9582 231.641C26.9316 231.833 27.9051 232.011 28.9197 232.176C29.1254 232.203 29.3311 232.231 29.5367 232.272C29.7972 232.313 30.0578 232.327 30.3183 232.354C31.1821 232.464 32.0321 232.56 32.8822 232.642C33.0742 232.656 33.2524 232.683 33.4444 232.711C33.6775 232.724 33.8968 232.724 34.1299 232.752C34.9251 232.807 35.7204 232.848 36.5019 232.875C36.7487 232.875 37.0092 232.916 37.256 232.916C37.3931 232.916 37.5302 232.916 37.6673 232.916C38.6545 232.93 39.628 232.916 40.6015 232.916C40.7523 232.916 40.9031 232.916 41.054 232.916C41.0814 232.916 41.1088 232.916 41.1362 232.916C42.3154 232.875 43.4808 232.793 44.6188 232.683C44.7285 232.683 44.8382 232.683 44.9479 232.656C45.1261 232.642 45.2907 232.601 45.4689 232.587C46.5521 232.464 47.6215 232.327 48.6498 232.148C48.8007 232.121 48.9789 232.107 49.1297 232.08C49.212 232.066 49.2943 232.039 49.3765 232.025C49.9798 231.915 50.5557 231.778 51.1315 231.655C51.4469 231.586 51.7622 231.518 52.0776 231.449C52.818 231.257 53.531 231.052 54.2302 230.832C54.3536 230.791 54.477 230.764 54.5867 230.736C54.5867 230.736 54.6004 230.736 54.6141 230.736C54.6553 230.736 54.6827 230.709 54.7238 230.695C55.3819 230.476 55.9989 230.243 56.6159 230.009C56.7805 229.941 56.9587 229.872 57.1232 229.804C57.6991 229.571 58.2475 229.31 58.7823 229.05C58.8371 229.022 58.9057 228.995 58.9605 228.967C59.4267 228.734 59.8654 228.488 60.2905 228.241C60.3727 228.186 60.455 228.131 60.5373 228.076C60.7567 227.939 60.9623 227.788 61.1817 227.651C61.497 227.432 61.8124 227.226 62.1003 226.993C62.306 226.842 62.4979 226.678 62.6762 226.513C62.8133 226.39 62.9778 226.28 63.1012 226.157C63.3069 225.965 63.4851 225.773 63.6771 225.581C63.7045 225.553 63.7319 225.526 63.7594 225.499C63.9924 225.252 64.2118 224.991 64.4175 224.731C64.4998 224.635 64.5546 224.525 64.6231 224.415C64.7603 224.223 64.8837 224.031 65.0071 223.84C65.0893 223.702 65.199 223.593 65.2676 223.456C65.4047 223.209 65.5418 222.962 65.6515 222.702L65.72 200.353C65.5418 200.75 65.3087 201.12 65.0756 201.491V201.436Z" fill="url(#paint11_linear_43_609)"/>
<path d="M95.1582 184.9C94.8291 185.092 94.5 185.284 94.171 185.49C93.9516 185.627 93.7459 185.764 93.5403 185.901C93.0741 186.189 92.6216 186.477 92.1829 186.765C91.8264 186.998 91.4836 187.231 91.1408 187.464C90.7021 187.766 90.2908 188.054 89.8657 188.355C89.5367 188.602 89.2076 188.835 88.8785 189.082C88.4809 189.384 88.0833 189.699 87.6994 190.001C87.3977 190.248 87.0824 190.494 86.7945 190.741C86.4105 191.057 86.0541 191.386 85.6839 191.701C85.4919 191.879 85.2862 192.044 85.0943 192.222C85.0257 192.291 84.9709 192.345 84.9023 192.414C84.1894 193.086 83.4901 193.771 82.8457 194.457C82.7634 194.553 82.6812 194.649 82.5989 194.745C82.0367 195.348 81.5157 195.965 81.0221 196.582C80.9399 196.678 80.8576 196.774 80.7753 196.87C80.6656 197.021 80.5697 197.158 80.46 197.309C80.1721 197.693 79.8978 198.077 79.6236 198.46C79.4454 198.721 79.2671 198.981 79.0889 199.242C78.8284 199.64 78.5953 200.037 78.3485 200.435C78.2388 200.613 78.1291 200.778 78.0331 200.956C77.9783 201.038 77.9372 201.134 77.896 201.23C77.7178 201.559 77.5533 201.888 77.3887 202.217C77.2379 202.519 77.0871 202.807 76.95 203.108C76.7991 203.438 76.662 203.78 76.5249 204.109C76.429 204.329 76.333 204.548 76.237 204.781C76.2096 204.863 76.1822 204.932 76.1547 205.014C76.045 205.316 75.9491 205.618 75.8531 205.919C75.7434 206.235 75.6474 206.564 75.5514 206.879C75.4692 207.181 75.4006 207.496 75.3321 207.798C75.2772 208.031 75.2087 208.278 75.1538 208.511C75.1401 208.593 75.1264 208.689 75.1127 208.771C75.0579 209.073 75.0167 209.388 74.9619 209.69C74.907 210.019 74.8659 210.348 74.8248 210.677C74.7973 210.979 74.7836 211.294 74.7562 211.609C74.7425 211.842 74.7151 212.075 74.7014 212.309C74.7014 212.501 74.7014 212.706 74.7014 212.898L74.6328 235.247C74.6328 234.822 74.6602 234.397 74.6877 233.958C74.7014 233.643 74.7288 233.341 74.7562 233.026C74.7836 232.697 74.8385 232.368 74.8933 232.039C74.9345 231.737 74.9756 231.422 75.0441 231.12C75.099 230.791 75.1813 230.462 75.2635 230.147C75.3321 229.845 75.4006 229.53 75.4829 229.228C75.5789 228.899 75.6748 228.583 75.7845 228.268C75.8805 227.967 75.9765 227.665 76.0862 227.363C76.1959 227.062 76.3193 226.76 76.4427 226.458C76.5798 226.129 76.7169 225.786 76.8677 225.457C77.0048 225.156 77.1556 224.868 77.3065 224.566C77.471 224.237 77.6355 223.908 77.8138 223.579C77.9646 223.318 78.1154 223.058 78.2799 222.784C78.513 222.386 78.7598 221.989 79.0203 221.591C79.1986 221.33 79.3768 221.07 79.5551 220.809C79.8293 220.425 80.1035 220.042 80.3914 219.658C80.5697 219.411 80.7616 219.178 80.9536 218.931C81.4472 218.314 81.9819 217.697 82.5303 217.094C82.6126 216.998 82.6949 216.902 82.7908 216.806C83.4353 216.107 84.1208 215.435 84.8475 214.763C85.0943 214.53 85.3685 214.297 85.629 214.064C85.9855 213.735 86.3557 213.419 86.7396 213.09C87.0413 212.843 87.3429 212.596 87.6445 212.35C88.0284 212.034 88.4261 211.733 88.8237 211.417C89.139 211.171 89.4681 210.937 89.8109 210.691C90.2222 210.389 90.6472 210.087 91.086 209.799C91.4288 209.566 91.7853 209.333 92.1417 209.1C92.5805 208.812 93.0467 208.524 93.4991 208.236C94.0339 207.907 94.5686 207.565 95.1307 207.249C96.9406 206.193 98.7641 205.138 100.93 204.288L100.999 181.939C98.819 182.789 97.0091 183.845 95.1993 184.9H95.1582Z" fill="url(#paint12_linear_43_609)"/>
<path d="M73.5203 226.253L73.4655 248.602L64.3477 247.546L64.4162 225.198L73.5203 226.253Z" fill="url(#paint13_linear_43_609)"/>
<mask id="mask2_43_609" style="mask-type:luminance" maskUnits="userSpaceOnUse" x="73" y="219" width="3" height="30">
<path d="M75.6684 219.493L75.5999 241.842C74.5304 245.01 73.8174 247.546 73.4609 248.588L73.5295 226.239C73.886 225.183 74.599 222.661 75.6684 219.493Z" fill="white"/>
</mask>
<g mask="url(#mask2_43_609)">
<path d="M75.6684 219.493L75.5999 241.842C74.5304 245.01 73.8174 247.546 73.4609 248.588L73.5295 226.239C73.886 225.183 74.599 222.661 75.6684 219.493Z" fill="url(#paint14_linear_43_609)"/>
</g>
<path d="M71.4147 256.28C71.4695 255.869 71.5381 255.457 71.6066 255.06C71.6752 254.703 71.73 254.36 71.8123 254.004C71.8534 253.839 71.8809 253.675 71.922 253.524C72.0591 252.934 72.2236 252.359 72.4019 251.783L72.4704 229.434C72.2922 230.01 72.1277 230.599 71.9906 231.175C71.9494 231.34 71.922 231.504 71.8809 231.655C71.8397 231.833 71.7986 232.012 71.7575 232.19C71.73 232.354 71.7026 232.533 71.6752 232.711C71.6066 233.122 71.5381 233.52 71.4832 233.931C71.4421 234.233 71.4147 234.521 71.3873 234.822C71.3461 235.234 71.3187 235.645 71.305 236.056C71.305 236.234 71.2776 236.426 71.2639 236.605C71.2639 236.851 71.2639 237.085 71.2639 237.331L71.1953 259.68C71.1953 259.255 71.2227 258.83 71.2502 258.405C71.2639 257.994 71.2913 257.583 71.3324 257.171C71.3598 256.87 71.401 256.582 71.4284 256.28H71.4147Z" fill="url(#paint15_linear_43_609)"/>
<path d="M263.143 195.608C263.129 196.047 263.088 196.472 263.047 196.897C263.047 197.007 263.033 197.116 263.019 197.226C262.951 197.747 262.869 198.268 262.773 198.776C262.745 198.899 262.718 199.009 262.69 199.118C262.594 199.557 262.485 199.982 262.375 200.421C262.334 200.544 262.306 200.681 262.265 200.805C262.114 201.326 261.936 201.833 261.758 202.34C261.731 202.423 261.689 202.491 261.662 202.573C261.47 203.067 261.264 203.547 261.045 204.041C260.99 204.15 260.949 204.26 260.894 204.37C260.647 204.891 260.373 205.425 260.085 205.933C260.03 206.029 259.976 206.111 259.934 206.207C259.564 206.838 259.18 207.468 258.769 208.085C258.728 208.14 258.687 208.195 258.659 208.25C258.221 208.894 257.754 209.539 257.261 210.156C257.261 210.156 257.261 210.156 257.261 210.169C256.932 210.594 256.589 211.006 256.232 211.417C256.123 211.54 256.013 211.664 255.903 211.787C255.643 212.089 255.382 212.377 255.108 212.665C254.985 212.802 254.861 212.925 254.738 213.062C254.436 213.378 254.135 213.693 253.819 213.995C253.737 214.077 253.641 214.173 253.559 214.255C253.161 214.653 252.75 215.037 252.325 215.421C252.27 215.462 252.229 215.517 252.174 215.558C251.351 216.312 250.501 217.039 249.61 217.765C249.528 217.834 249.459 217.889 249.377 217.957C248.458 218.698 247.512 219.424 246.539 220.137C246.525 220.137 246.498 220.165 246.484 220.178C245.524 220.878 244.523 221.563 243.509 222.235C243.426 222.29 243.33 222.358 243.248 222.413C242.233 223.085 241.205 223.73 240.149 224.36C240.136 224.36 240.108 224.388 240.095 224.388C238.929 225.087 237.75 225.759 236.557 226.417C236.475 226.458 236.393 226.513 236.31 226.554C235.131 227.198 233.952 227.829 232.759 228.432C232.691 228.474 232.608 228.501 232.54 228.542C231.333 229.145 230.127 229.735 228.906 230.311C228.893 230.311 228.865 230.324 228.852 230.338C227.631 230.9 226.411 231.449 225.204 231.984C225.122 232.025 225.026 232.066 224.944 232.093C223.751 232.614 222.558 233.108 221.379 233.574C221.311 233.601 221.242 233.629 221.173 233.656C219.994 234.136 218.815 234.589 217.663 235.014C217.636 235.014 217.609 235.027 217.581 235.041C216.429 235.48 215.291 235.877 214.167 236.275C214.085 236.302 214.003 236.33 213.934 236.357C212.837 236.741 211.768 237.098 210.726 237.427C210.616 237.454 210.52 237.495 210.41 237.523C209.958 237.674 209.505 237.811 209.067 237.948C208.957 237.989 208.834 238.016 208.724 238.057C208.217 238.208 207.709 238.373 207.216 238.51C207.106 238.537 206.996 238.579 206.887 238.606C206.462 238.729 206.05 238.839 205.653 238.962C205.543 238.99 205.447 239.017 205.337 239.045C204.871 239.182 204.405 239.305 203.952 239.415C203.87 239.442 203.774 239.456 203.692 239.483C203.308 239.579 202.938 239.675 202.568 239.771C202.472 239.799 202.389 239.813 202.293 239.84C201.882 239.936 201.471 240.046 201.087 240.128C201.005 240.142 200.936 240.155 200.867 240.183C200.538 240.251 200.223 240.334 199.908 240.388C199.825 240.402 199.743 240.429 199.661 240.443C199.304 240.512 198.962 240.58 198.646 240.649C198.591 240.649 198.523 240.676 198.468 240.676C198.221 240.717 197.974 240.759 197.741 240.8C197.673 240.8 197.591 240.827 197.522 240.841C197.248 240.882 196.987 240.923 196.74 240.951L196.672 263.299C196.905 263.272 197.165 263.231 197.44 263.19C197.522 263.19 197.591 263.162 197.673 263.149C197.906 263.107 198.139 263.066 198.386 263.025C198.427 263.025 198.468 263.011 198.523 262.998C198.537 262.998 198.55 262.998 198.578 262.998C198.893 262.943 199.236 262.874 199.592 262.792C199.675 262.778 199.757 262.751 199.839 262.737C200.154 262.669 200.47 262.6 200.799 262.532C200.867 262.518 200.936 262.504 201.005 262.49C201.388 262.395 201.8 262.299 202.211 262.203C202.307 262.175 202.403 262.148 202.513 262.134C202.869 262.038 203.239 261.956 203.623 261.846C203.706 261.819 203.802 261.805 203.884 261.778C204.336 261.654 204.789 261.531 205.269 261.407C205.378 261.38 205.474 261.352 205.584 261.325C205.995 261.215 206.407 261.092 206.818 260.969C206.928 260.941 207.024 260.914 207.133 260.873C207.627 260.722 208.148 260.571 208.655 260.42C208.765 260.393 208.875 260.352 208.984 260.324C209.423 260.187 209.876 260.05 210.342 259.899C210.424 259.872 210.493 259.844 210.575 259.831C210.602 259.831 210.63 259.817 210.643 259.803C211.685 259.46 212.755 259.104 213.852 258.734C213.934 258.706 214.003 258.679 214.085 258.651C215.195 258.267 216.333 257.856 217.499 257.417C217.526 257.417 217.554 257.404 217.567 257.39C218.719 256.965 219.898 256.499 221.077 256.033C221.146 256.005 221.215 255.978 221.297 255.95C222.476 255.47 223.669 254.977 224.862 254.47C224.944 254.428 225.026 254.401 225.108 254.36C226.329 253.839 227.549 253.29 228.769 252.715C228.783 252.715 228.81 252.701 228.824 252.687C230.031 252.125 231.251 251.535 232.458 250.918C232.54 250.877 232.608 250.836 232.691 250.809C233.884 250.205 235.063 249.575 236.242 248.93C236.324 248.889 236.406 248.834 236.489 248.793C237.681 248.135 238.861 247.463 240.012 246.764C240.012 246.764 240.012 246.764 240.026 246.764C240.026 246.764 240.053 246.75 240.067 246.737C241.123 246.106 242.151 245.448 243.166 244.79C243.248 244.735 243.344 244.68 243.426 244.611C244.441 243.94 245.428 243.254 246.402 242.555C246.415 242.541 246.443 242.527 246.456 242.514C247.43 241.801 248.376 241.074 249.295 240.334C249.377 240.265 249.445 240.21 249.528 240.142C250.405 239.415 251.269 238.688 252.092 237.934C252.119 237.907 252.147 237.893 252.174 237.866C252.201 237.838 252.215 237.824 252.243 237.797C252.668 237.413 253.065 237.015 253.477 236.632C253.572 236.536 253.655 236.44 253.751 236.357C254.052 236.056 254.354 235.74 254.656 235.425C254.779 235.288 254.902 235.164 255.026 235.027C255.3 234.739 255.561 234.438 255.821 234.15C255.931 234.026 256.04 233.903 256.15 233.78C256.507 233.368 256.849 232.957 257.178 232.532C257.672 231.901 258.138 231.271 258.577 230.626C258.618 230.571 258.659 230.516 258.687 230.462C259.098 229.845 259.496 229.214 259.852 228.583C259.88 228.528 259.921 228.474 259.948 228.419C259.975 228.378 259.989 228.35 260.003 228.309C260.291 227.788 260.565 227.267 260.812 226.746C260.867 226.636 260.908 226.527 260.963 226.417C261.182 225.937 261.388 225.443 261.58 224.964C261.607 224.909 261.635 224.854 261.648 224.799C261.648 224.772 261.662 224.758 261.676 224.73C261.868 224.223 262.032 223.716 262.183 223.195C262.224 223.071 262.252 222.934 262.293 222.811C262.416 222.386 262.512 221.947 262.608 221.522C262.622 221.44 262.649 221.358 262.663 221.275C262.663 221.234 262.663 221.207 262.677 221.166C262.773 220.658 262.855 220.137 262.923 219.616C262.923 219.507 262.937 219.397 262.951 219.287C262.992 218.862 263.019 218.423 263.047 217.998C263.047 217.916 263.06 217.834 263.06 217.752C263.06 217.573 263.06 217.409 263.06 217.231L263.129 194.882C263.129 195.142 263.115 195.403 263.102 195.649L263.143 195.608Z" fill="url(#paint16_linear_43_609)"/>
<path d="M73.9634 272.445L74.032 250.096C73.4835 250.042 72.9077 249.973 72.3044 249.891C72.085 249.863 71.8382 249.822 71.6188 249.795C71.2212 249.74 70.8236 249.699 70.4123 249.63C70.3026 249.616 70.1929 249.603 70.0832 249.575C69.5622 249.507 69.0412 249.425 68.4927 249.329C68.2733 249.287 68.0403 249.246 67.8072 249.219C67.3547 249.15 66.9022 249.068 66.4498 248.986C66.1756 248.945 65.9151 248.89 65.6408 248.835C65.2021 248.753 64.7496 248.67 64.2972 248.574C64.0092 248.52 63.7213 248.465 63.4334 248.396C63.1317 248.341 62.8164 248.273 62.5147 248.204C61.3082 247.944 60.0605 247.67 58.7991 247.368C58.6894 247.34 58.5934 247.313 58.4837 247.286C57.2634 246.984 56.0294 246.655 54.7817 246.312C54.5761 246.257 54.3841 246.202 54.1784 246.148C52.8759 245.777 51.5459 245.366 50.2297 244.927C49.9692 244.845 49.7224 244.763 49.4619 244.667C48.1319 244.214 46.8156 243.734 45.4857 243.227C45.0332 243.049 44.5808 242.871 44.1283 242.679C43.7718 242.528 43.4153 242.391 43.0588 242.24C42.5515 242.021 42.0579 241.801 41.5506 241.568C41.2216 241.417 40.8788 241.267 40.5497 241.116C40.0013 240.855 39.4528 240.581 38.9181 240.307C38.6439 240.17 38.3697 240.046 38.1092 239.909C37.3002 239.498 36.5187 239.059 35.7372 238.607C25.9201 232.944 18.3928 224.758 18.4202 213.145L18.3516 235.494C18.3242 247.121 25.8515 255.293 35.6686 260.955C36.4501 261.408 37.2454 261.833 38.0406 262.258C38.3148 262.395 38.5891 262.532 38.8633 262.669C39.398 262.944 39.9327 263.204 40.4812 263.465C40.8102 263.615 41.153 263.766 41.4821 263.917C41.9757 264.136 42.4693 264.37 42.9766 264.575C43.3331 264.726 43.7033 264.877 44.0597 265.028C44.4299 265.178 44.8001 265.343 45.184 265.494C45.2526 265.521 45.3349 265.549 45.4034 265.576C46.7197 266.097 48.0496 266.563 49.3796 267.016C49.6401 267.098 49.8869 267.18 50.1337 267.276C51.4637 267.715 52.7799 268.126 54.0962 268.497C54.151 268.51 54.2196 268.538 54.2744 268.551C54.4115 268.592 54.5486 268.62 54.6858 268.661C55.9335 269.018 57.1812 269.347 58.4014 269.635C58.4974 269.662 58.6071 269.689 58.7031 269.717C59.9782 270.018 61.2122 270.293 62.4188 270.553C62.5422 270.581 62.6656 270.608 62.789 270.635C62.9672 270.677 63.1454 270.704 63.3374 270.745C63.6253 270.8 63.9133 270.855 64.2012 270.923C64.6536 271.006 65.1061 271.102 65.5449 271.184C65.8191 271.239 66.0933 271.28 66.3675 271.335C66.82 271.417 67.2724 271.486 67.7112 271.568C67.9443 271.609 68.1774 271.65 68.4105 271.677C68.9726 271.76 69.5073 271.842 70.0284 271.924C70.1243 271.938 70.234 271.952 70.33 271.965C70.33 271.965 70.3574 271.965 70.3711 271.965C70.8236 272.034 71.2486 272.089 71.6874 272.144C71.8656 272.171 72.0576 272.198 72.2358 272.212C72.8391 272.281 73.4287 272.349 73.9771 272.418L73.9634 272.445Z" fill="url(#paint17_linear_43_609)"/>
<path d="M242.232 246.339C242.218 246.929 242.177 247.519 242.109 248.108C242.109 248.19 242.095 248.286 242.081 248.369C242.013 248.958 241.917 249.562 241.807 250.165C241.793 250.261 241.766 250.357 241.752 250.453C241.643 250.974 241.519 251.508 241.368 252.029C241.341 252.112 241.314 252.194 241.286 252.29C241.135 252.825 240.957 253.359 240.751 253.894C240.751 253.922 240.738 253.949 240.724 253.976C240.532 254.484 240.313 255.005 240.08 255.512C240.025 255.622 239.984 255.731 239.929 255.841C239.682 256.348 239.435 256.856 239.147 257.363C239.106 257.432 239.065 257.514 239.024 257.582C238.763 258.049 238.475 258.515 238.16 258.981C238.105 259.077 238.037 259.173 237.982 259.255C237.639 259.762 237.282 260.256 236.885 260.763C236.803 260.859 236.734 260.955 236.652 261.051C236.199 261.627 235.706 262.203 235.185 262.765C235.13 262.82 235.075 262.889 235.02 262.943C234.472 263.519 233.896 264.095 233.279 264.671C233.251 264.698 233.224 264.726 233.197 264.753C232.744 265.178 232.251 265.59 231.757 266.015C231.62 266.138 231.469 266.248 231.318 266.371C230.934 266.687 230.537 266.988 230.125 267.304C229.961 267.427 229.796 267.55 229.632 267.674C229.083 268.071 228.535 268.455 227.945 268.853C227.918 268.867 227.904 268.88 227.877 268.894C227.273 269.292 226.629 269.689 225.985 270.087C225.724 270.251 225.45 270.402 225.176 270.553C224.915 270.704 224.655 270.855 224.394 271.005C224.093 271.17 223.777 271.348 223.462 271.513C223.188 271.664 222.927 271.801 222.639 271.952C222.324 272.116 221.981 272.281 221.652 272.445C221.364 272.582 221.09 272.733 220.788 272.87C220.445 273.035 220.089 273.199 219.732 273.364C219.431 273.501 219.143 273.638 218.841 273.775C218.471 273.94 218.087 274.104 217.703 274.269C217.402 274.406 217.1 274.529 216.785 274.666C216.387 274.831 215.976 274.995 215.564 275.146C215.249 275.27 214.947 275.393 214.618 275.516C214.179 275.681 213.727 275.845 213.275 276.01C212.973 276.12 212.671 276.229 212.356 276.339C211.835 276.517 211.286 276.709 210.752 276.888C210.491 276.97 210.244 277.066 209.984 277.148C209.175 277.409 208.339 277.669 207.475 277.93L207.406 300.278C208.243 300.032 209.065 299.771 209.861 299.511C209.874 299.511 209.888 299.511 209.902 299.497C210.176 299.415 210.436 299.319 210.697 299.223C211.232 299.044 211.766 298.866 212.287 298.688C212.589 298.578 212.891 298.469 213.192 298.359C213.658 298.194 214.111 298.03 214.563 297.852C214.879 297.728 215.18 297.605 215.482 297.481C215.893 297.317 216.318 297.152 216.716 296.988C217.031 296.864 217.319 296.727 217.621 296.604C218.005 296.439 218.389 296.275 218.759 296.11C219.061 295.973 219.349 295.836 219.65 295.699C220.007 295.534 220.363 295.37 220.706 295.205C220.994 295.068 221.282 294.931 221.556 294.78C221.885 294.616 222.228 294.451 222.543 294.287C222.817 294.136 223.092 293.999 223.366 293.848C223.681 293.683 223.997 293.519 224.298 293.341C224.559 293.19 224.819 293.039 225.08 292.888C225.272 292.779 225.477 292.655 225.669 292.545C225.738 292.504 225.806 292.463 225.875 292.408C226.533 292.011 227.164 291.613 227.781 291.215C227.808 291.202 227.822 291.188 227.836 291.174C228.425 290.79 228.987 290.393 229.522 289.995C229.687 289.872 229.851 289.748 230.016 289.625C230.427 289.31 230.825 289.008 231.209 288.693C231.359 288.569 231.496 288.46 231.647 288.336C232.155 287.925 232.634 287.5 233.087 287.075C233.087 287.075 233.101 287.075 233.114 287.061C233.128 287.047 233.155 287.02 233.169 287.006C233.786 286.43 234.362 285.854 234.91 285.279C234.965 285.224 235.02 285.155 235.075 285.1C235.596 284.538 236.09 283.962 236.542 283.387C236.583 283.332 236.638 283.277 236.679 283.222C236.72 283.181 236.748 283.126 236.775 283.085C237.159 282.591 237.529 282.084 237.872 281.577C237.941 281.481 237.995 281.385 238.05 281.289C238.352 280.823 238.64 280.356 238.914 279.89C238.942 279.835 238.983 279.781 239.01 279.739C239.01 279.712 239.037 279.698 239.037 279.671C239.325 279.164 239.586 278.656 239.819 278.149C239.874 278.039 239.929 277.93 239.97 277.82C240.203 277.313 240.422 276.792 240.614 276.284V276.271C240.614 276.243 240.614 276.229 240.642 276.202C240.847 275.667 241.012 275.133 241.176 274.598C241.204 274.516 241.231 274.433 241.259 274.337C241.41 273.803 241.533 273.282 241.643 272.747C241.643 272.706 241.67 272.651 241.684 272.596C241.684 272.541 241.684 272.5 241.711 272.459C241.835 271.856 241.917 271.252 241.985 270.663C241.985 270.58 241.999 270.484 242.013 270.402C242.081 269.813 242.122 269.223 242.136 268.633C242.136 268.592 242.136 268.565 242.136 268.524C242.136 268.318 242.136 268.099 242.136 267.893L242.205 245.544C242.205 245.791 242.205 246.038 242.191 246.285L242.232 246.339Z" fill="url(#paint18_linear_43_609)"/>
<path d="M194.533 261.394C193.779 260.955 193.025 260.557 192.243 260.187C191.983 260.064 191.709 259.954 191.448 259.831C190.941 259.598 190.42 259.365 189.913 259.159C189.885 259.159 189.858 259.132 189.83 259.132C189.145 258.857 188.459 258.611 187.774 258.391C187.582 258.323 187.39 258.281 187.198 258.213C186.787 258.076 186.375 257.939 185.95 257.829C185.868 257.802 185.786 257.788 185.703 257.774C184.702 257.5 183.702 257.253 182.714 257.047C182.66 257.047 182.605 257.02 182.536 257.006C182.385 256.979 182.234 256.951 182.084 256.924C181.261 256.76 180.452 256.622 179.657 256.499C179.52 256.485 179.383 256.444 179.245 256.43C179.149 256.43 179.067 256.417 178.985 256.403C177.998 256.266 177.038 256.156 176.106 256.088C176.051 256.088 175.996 256.074 175.941 256.074C175.585 256.047 175.242 256.019 174.885 256.005C174.693 256.005 174.501 255.978 174.31 255.964C173.706 255.937 173.13 255.909 172.568 255.896C172.568 255.896 172.568 255.896 172.555 255.896C172.143 255.896 171.773 255.896 171.389 255.896C171.211 255.896 171.005 255.896 170.827 255.896C170.278 255.896 169.771 255.896 169.291 255.923C168.853 255.937 168.441 255.964 168.057 255.978C168.016 255.978 167.975 255.978 167.934 255.978C167.577 256.005 167.262 256.019 166.96 256.047C166.919 256.047 166.864 256.047 166.823 256.047C166.782 256.047 166.727 256.047 166.686 256.047C166.467 256.074 166.289 256.088 166.124 256.115C166.097 256.115 166.069 256.115 166.042 256.115C165.85 256.143 165.685 256.17 165.562 256.184C165.534 256.184 165.521 256.184 165.493 256.184C165.356 256.197 165.164 256.225 164.959 256.266C164.945 256.266 164.931 256.266 164.904 256.266C164.904 256.266 164.876 256.266 164.863 256.266C164.684 256.293 164.506 256.335 164.287 256.389C164.246 256.389 164.205 256.403 164.163 256.417C163.985 256.458 163.793 256.499 163.588 256.554C163.519 256.568 163.464 256.581 163.396 256.609C163.149 256.677 162.888 256.746 162.6 256.828C162.559 256.828 162.532 256.856 162.491 256.856C162.244 256.924 161.983 257.006 161.709 257.089C161.668 257.102 161.627 257.116 161.586 257.13C161.558 257.13 161.531 257.143 161.503 257.157C161.065 257.308 160.599 257.459 160.105 257.637C160.05 257.664 159.982 257.678 159.927 257.706C159.433 257.898 158.926 258.09 158.418 258.323C158.364 258.35 158.309 258.377 158.24 258.405C157.719 258.638 157.171 258.885 156.636 259.159C156.595 259.186 156.54 259.2 156.499 259.228C155.937 259.515 155.388 259.817 154.826 260.146C154.799 260.146 154.785 260.174 154.758 260.187C154.758 260.187 154.744 260.187 154.73 260.201C154.086 260.585 153.441 261.01 152.824 261.462C152.783 261.504 152.728 261.531 152.687 261.572C152.098 262.011 151.522 262.477 150.973 262.984C150.946 263.012 150.919 263.025 150.877 263.053C150.85 263.08 150.823 263.108 150.795 263.135C150.494 263.423 150.192 263.711 149.918 264.013C149.89 264.04 149.877 264.067 149.849 264.095C149.589 264.369 149.342 264.657 149.109 264.959C149.081 265 149.04 265.041 148.999 265.082C148.972 265.11 148.958 265.151 148.93 265.178C148.505 265.713 148.122 266.289 147.779 266.878C147.751 266.919 147.724 266.947 147.71 266.988C147.696 267.015 147.683 267.056 147.669 267.084C147.367 267.632 147.093 268.195 146.874 268.798C146.86 268.839 146.833 268.88 146.819 268.921C146.792 268.976 146.778 269.031 146.764 269.086C146.709 269.25 146.654 269.415 146.6 269.593C146.545 269.771 146.49 269.936 146.449 270.114C146.408 270.292 146.367 270.457 146.325 270.635C146.298 270.758 146.271 270.868 146.243 270.992C146.243 271.046 146.229 271.115 146.216 271.184C146.175 271.375 146.147 271.567 146.12 271.773C146.092 271.951 146.065 272.143 146.051 272.322C146.037 272.527 146.024 272.733 146.01 272.939C146.01 273.076 145.983 273.199 145.983 273.336C145.983 273.46 145.983 273.569 145.983 273.693L145.914 296.042C145.914 295.781 145.928 295.534 145.941 295.287C145.941 295.082 145.969 294.876 145.983 294.67C145.996 294.478 146.024 294.3 146.051 294.122C146.079 293.93 146.106 293.724 146.147 293.532C146.175 293.354 146.216 293.176 146.257 292.984C146.298 292.806 146.339 292.641 146.38 292.463C146.435 292.285 146.476 292.106 146.531 291.942C146.586 291.777 146.641 291.613 146.696 291.448C146.737 291.352 146.778 291.243 146.819 291.147C147.052 290.557 147.313 289.981 147.614 289.433C147.655 289.364 147.696 289.296 147.724 289.241C148.067 288.638 148.451 288.075 148.876 287.541C148.93 287.472 148.985 287.39 149.04 287.321C149.273 287.02 149.52 286.732 149.781 286.458C149.808 286.43 149.822 286.403 149.849 286.375C150.137 286.074 150.425 285.786 150.727 285.498C150.781 285.443 150.85 285.388 150.905 285.333C151.453 284.826 152.029 284.36 152.619 283.921C152.66 283.88 152.715 283.852 152.756 283.811C153.373 283.359 154.017 282.934 154.662 282.55C154.689 282.536 154.717 282.509 154.758 282.495C155.306 282.166 155.868 281.864 156.43 281.576C156.485 281.549 156.526 281.535 156.567 281.508C157.102 281.234 157.637 280.987 158.172 280.754C158.227 280.726 158.295 280.699 158.35 280.672C158.871 280.452 159.365 280.246 159.858 280.055C159.913 280.027 159.982 280.013 160.036 279.986C160.516 279.808 160.982 279.643 161.421 279.506C161.49 279.479 161.558 279.465 161.641 279.438C161.915 279.355 162.175 279.273 162.422 279.204C162.45 279.204 162.491 279.191 162.518 279.177C162.792 279.095 163.066 279.026 163.313 278.958C163.382 278.944 163.437 278.93 163.505 278.903C163.697 278.848 163.889 278.807 164.067 278.766C164.109 278.766 164.163 278.738 164.205 278.738C164.41 278.697 164.602 278.656 164.767 278.629C164.794 278.629 164.835 278.629 164.863 278.615C165.068 278.574 165.247 278.546 165.397 278.533C165.534 278.505 165.726 278.478 165.946 278.45C165.96 278.45 165.987 278.45 166.014 278.45C166.22 278.423 166.467 278.395 166.741 278.368C166.782 278.368 166.837 278.368 166.878 278.368C167.166 278.341 167.495 278.313 167.852 278.299C167.893 278.299 167.934 278.299 167.975 278.299C168.359 278.272 168.77 278.258 169.209 278.245C169.689 278.231 170.196 278.217 170.745 278.217C170.827 278.217 170.923 278.217 171.019 278.217C171.485 278.217 171.965 278.217 172.472 278.231C173.034 278.245 173.624 278.272 174.227 278.299C174.405 278.299 174.597 278.327 174.789 278.341C175.187 278.368 175.598 278.395 176.023 278.437C176.956 278.519 177.916 278.629 178.903 278.752C179.122 278.779 179.355 278.821 179.575 278.848C180.37 278.971 181.179 279.108 182.001 279.273C182.207 279.314 182.413 279.355 182.632 279.396C183.619 279.602 184.62 279.849 185.621 280.123C186.115 280.26 186.608 280.411 187.116 280.576C187.308 280.63 187.499 280.685 187.691 280.754C188.404 280.987 189.117 281.247 189.83 281.535C190.351 281.741 190.859 281.974 191.38 282.207C191.64 282.331 191.914 282.427 192.175 282.55C192.943 282.92 193.711 283.318 194.465 283.756C200.182 287.061 205.118 292.244 207.422 300.306L207.49 277.957C205.187 269.895 200.251 264.712 194.533 261.408V261.394Z" fill="url(#paint19_linear_43_609)"/>
<path d="M148.798 287.363C147.962 287.336 147.125 287.308 146.303 287.267C145.74 287.24 145.192 287.212 144.63 287.171C143.835 287.13 143.053 287.075 142.272 287.007C141.723 286.966 141.161 286.924 140.626 286.87C139.941 286.815 139.269 286.746 138.611 286.678C138.062 286.623 137.514 286.568 136.979 286.499C136.321 286.417 135.677 286.335 135.018 286.253C134.497 286.184 133.976 286.115 133.455 286.047C132.797 285.951 132.153 285.841 131.522 285.745C131.042 285.663 130.549 285.594 130.082 285.512C129.424 285.403 128.794 285.265 128.163 285.142C127.724 285.06 127.285 284.977 126.847 284.882C125.846 284.676 124.859 284.443 123.899 284.21C123.803 284.182 123.693 284.169 123.583 284.141C122.514 283.881 121.486 283.606 120.471 283.318C120.252 283.25 120.046 283.195 119.827 283.126C118.839 282.839 117.88 282.537 116.947 282.235C116.646 282.139 116.33 282.03 116.029 281.934C114.973 281.577 113.931 281.193 112.93 280.809C112.889 280.796 112.834 280.782 112.793 280.754C112.327 280.576 111.874 280.371 111.422 280.192C111.079 280.042 110.723 279.904 110.38 279.754C109.914 279.548 109.461 279.342 109.009 279.123C108.693 278.986 108.378 278.835 108.076 278.698C107.583 278.465 107.117 278.218 106.65 277.971C106.39 277.834 106.129 277.711 105.883 277.587C105.17 277.203 104.47 276.819 103.785 276.436C83.7667 264.877 78.6662 246.82 78.6937 235.275L78.6251 257.624C78.5977 269.169 83.6845 287.226 103.716 298.784C104.402 299.182 105.101 299.566 105.814 299.936C106.006 300.032 106.198 300.128 106.39 300.224C106.925 300.498 107.459 300.773 108.008 301.047C108.296 301.184 108.611 301.321 108.899 301.458C109.365 301.677 109.831 301.897 110.311 302.102C110.654 302.253 111.01 302.39 111.353 302.541C111.806 302.733 112.258 302.925 112.724 303.103C112.724 303.103 112.738 303.103 112.752 303.103C112.793 303.117 112.834 303.131 112.861 303.145C113.862 303.542 114.904 303.912 115.96 304.269C116.262 304.379 116.577 304.475 116.879 304.57C117.811 304.886 118.771 305.174 119.758 305.462C119.923 305.503 120.073 305.558 120.224 305.613C120.279 305.626 120.348 305.64 120.402 305.654C121.417 305.942 122.459 306.216 123.515 306.476C123.625 306.504 123.748 306.531 123.858 306.559C124.817 306.792 125.791 307.011 126.778 307.217C126.86 307.23 126.943 307.258 127.025 307.272C127.368 307.34 127.738 307.409 128.094 307.477C128.725 307.601 129.369 307.724 130.014 307.847C130.494 307.93 130.974 308.012 131.454 308.08C132.098 308.19 132.742 308.286 133.4 308.382C133.565 308.41 133.73 308.437 133.908 308.464C134.251 308.519 134.607 308.547 134.95 308.602C135.594 308.684 136.252 308.766 136.924 308.848C137.459 308.917 138.007 308.972 138.556 309.027C139.228 309.095 139.9 309.164 140.585 309.219C140.846 309.246 141.079 309.273 141.339 309.287C141.627 309.314 141.929 309.328 142.23 309.342C143.012 309.397 143.793 309.452 144.589 309.506C145.137 309.534 145.699 309.575 146.261 309.602C147.084 309.644 147.907 309.671 148.743 309.698C149.127 309.698 149.483 309.74 149.867 309.74C150.265 309.74 150.649 309.753 151.047 309.767L151.115 287.418C150.334 287.404 149.579 287.377 148.812 287.349L148.798 287.363Z" fill="url(#paint20_linear_43_609)"/>
<path d="M201.42 280.549C201.42 280.549 201.42 280.576 201.42 280.59C201.379 280.987 201.296 281.371 201.214 281.769C201.187 281.879 201.159 281.988 201.132 282.098C201.063 282.4 200.967 282.701 200.871 283.003C200.844 283.099 200.803 283.208 200.775 283.304C200.734 283.442 200.666 283.565 200.611 283.702C200.433 284.155 200.227 284.593 199.994 285.032C199.898 285.197 199.816 285.375 199.72 285.539C199.651 285.649 199.583 285.772 199.514 285.882C199.336 286.156 199.158 286.417 198.966 286.677C198.897 286.773 198.842 286.856 198.774 286.952C198.499 287.308 198.211 287.651 197.91 287.98C197.608 288.309 197.279 288.624 196.936 288.94C196.511 289.324 196.073 289.694 195.593 290.05C195.51 290.119 195.401 290.174 195.318 290.242C194.921 290.53 194.51 290.804 194.071 291.065C193.92 291.161 193.769 291.243 193.618 291.325C193.042 291.668 192.425 291.984 191.781 292.285C191.671 292.34 191.562 292.395 191.452 292.45C190.725 292.779 189.957 293.067 189.162 293.327C188.915 293.409 188.669 293.492 188.422 293.56C188.079 293.67 187.736 293.766 187.38 293.862C187.092 293.944 186.79 294.013 186.489 294.081C186.118 294.164 185.748 294.246 185.378 294.314C184.898 294.41 184.418 294.506 183.925 294.575C183.075 294.698 182.224 294.767 181.374 294.822C181.086 294.835 180.812 294.863 180.524 294.877C179.606 294.918 178.701 294.931 177.782 294.904C177.672 294.904 177.576 294.904 177.467 294.89C176.644 294.863 175.835 294.808 175.026 294.726C174.752 294.698 174.478 294.671 174.19 294.63C173.518 294.547 172.86 294.452 172.202 294.328C171.914 294.273 171.626 294.232 171.338 294.177C170.735 294.054 170.145 293.903 169.542 293.766C169.185 293.684 168.815 293.601 168.472 293.505C168.171 293.423 167.883 293.313 167.581 293.218C166.813 292.984 166.059 292.738 165.333 292.45C164.784 292.244 164.249 292.025 163.728 291.792C163.468 291.682 163.194 291.572 162.933 291.449C162.124 291.065 161.343 290.667 160.589 290.229C156.448 287.843 153.185 284.634 151.457 280.85C150.566 278.903 150.154 276.97 150.154 275.078L150.086 297.427C150.086 299.305 150.497 301.252 151.388 303.199C153.116 306.983 156.379 310.192 160.52 312.577C161.274 313.016 162.069 313.414 162.865 313.798C163.125 313.921 163.399 314.031 163.66 314.14C164.057 314.319 164.455 314.511 164.866 314.675C164.99 314.73 165.127 314.757 165.264 314.812C166.004 315.087 166.758 315.333 167.526 315.58C167.759 315.649 167.992 315.745 168.226 315.813C168.294 315.827 168.363 315.841 168.418 315.854C168.774 315.95 169.13 316.033 169.487 316.115C169.967 316.238 170.447 316.362 170.927 316.471C171.036 316.499 171.16 316.512 171.283 316.526C171.571 316.581 171.859 316.622 172.147 316.677C172.545 316.746 172.942 316.828 173.34 316.883C173.6 316.924 173.861 316.938 174.121 316.965C174.396 316.992 174.67 317.034 174.944 317.061C175.163 317.088 175.369 317.116 175.588 317.129C176.192 317.184 176.795 317.212 177.398 317.225C177.508 317.225 177.604 317.239 177.714 317.239C177.741 317.239 177.768 317.239 177.796 317.239C178.536 317.253 179.277 317.253 180.017 317.239C180.154 317.239 180.305 317.212 180.442 317.212C180.73 317.212 181.004 317.171 181.292 317.157C181.662 317.129 182.019 317.116 182.389 317.088C182.869 317.034 183.362 316.979 183.842 316.91C184.171 316.855 184.501 316.8 184.816 316.746C184.98 316.718 185.131 316.677 185.296 316.636C185.666 316.567 186.036 316.485 186.406 316.403C186.708 316.334 187.01 316.266 187.298 316.183C187.654 316.087 187.997 315.991 188.34 315.882C188.504 315.827 188.682 315.786 188.847 315.731C188.929 315.704 188.998 315.662 189.08 315.635C189.875 315.361 190.643 315.073 191.37 314.757C191.479 314.703 191.589 314.648 191.699 314.593C192.343 314.291 192.946 313.976 193.536 313.633C193.618 313.578 193.728 313.537 193.81 313.496C193.879 313.455 193.92 313.414 193.989 313.373C194.414 313.112 194.825 312.838 195.223 312.55C195.318 312.481 195.414 312.427 195.497 312.358C195.977 312.002 196.415 311.631 196.84 311.247C196.868 311.22 196.895 311.206 196.923 311.179C197.238 310.891 197.54 310.589 197.814 310.288C197.814 310.288 197.814 310.288 197.828 310.274C198.102 309.972 198.362 309.671 198.609 309.355C198.637 309.314 198.664 309.287 198.691 309.246C198.76 309.163 198.828 309.067 198.883 308.971C199.075 308.711 199.254 308.437 199.432 308.176C199.5 308.067 199.569 307.957 199.637 307.833C199.692 307.751 199.747 307.669 199.802 307.573C199.843 307.491 199.871 307.408 199.912 307.326C200.145 306.887 200.35 306.449 200.529 305.996C200.556 305.914 200.611 305.845 200.638 305.763C200.652 305.708 200.666 305.653 200.693 305.612C200.734 305.516 200.762 305.407 200.789 305.311C200.885 305.009 200.981 304.707 201.05 304.406C201.077 304.296 201.105 304.186 201.132 304.077C201.146 304.008 201.173 303.94 201.187 303.871C201.255 303.556 201.296 303.227 201.338 302.911C201.338 302.897 201.338 302.884 201.338 302.856C201.379 302.514 201.406 302.157 201.406 301.814C201.406 301.705 201.406 301.595 201.406 301.485L201.475 279.136C201.475 279.603 201.447 280.055 201.392 280.507L201.42 280.549Z" fill="url(#paint21_linear_43_609)"/>
<path d="M227.89 182.667C243.542 179.857 254.968 170.551 253.412 161.883C251.855 153.215 237.905 148.467 222.254 151.278C206.602 154.088 195.176 163.393 196.732 172.061C198.289 180.729 212.239 185.478 227.89 182.667Z" fill="url(#paint22_linear_43_609)"/>
<path d="M156.24 168.447C147.108 164.018 136.167 160.646 124.855 158.74C135.015 151.569 169.156 135.102 210.412 150.513C177.355 166.336 196.742 180.897 199.292 182.364C201.843 183.831 226.317 193.758 253.519 174.562C290.155 213.378 211.632 239.114 196.701 241.019C207.958 233.629 214.1 224.566 214.772 214.859C220.215 211.692 229.278 204.315 227.798 201.778C223.437 203.89 218.721 205.357 213.62 206.632C211.098 198.378 204.352 190.933 194.356 185.174C188.255 181.651 180.947 178.758 172.652 176.674C166.811 173.301 162.424 171.189 160.23 170.339C162.04 168.858 163.85 167.803 166.4 166.336C162.766 166.761 159.489 167.391 156.226 168.447H156.24Z" fill="url(#paint23_linear_43_609)"/>
<path d="M65.7196 200.298C62.141 208.319 45.7564 212.323 29.0016 209.8C22.338 208.785 16.5931 206.852 12.329 204.398C5.85743 200.668 2.8273 195.732 5.21301 191.016C9.1892 183.214 25.1899 178.991 41.9448 181.528C48.4712 182.515 54.0104 184.393 58.1511 186.779C64.6501 190.522 67.694 195.527 65.7196 200.298Z" fill="url(#paint24_linear_43_609)"/>
<path d="M72.4539 229.42C70.3013 236.166 71.0691 243.35 74.0169 250.096C65.1596 249.164 48.4871 246.038 35.6947 238.648C25.3567 232.67 17.5414 223.908 18.4463 211.28C59.2914 220.138 70.836 202.835 71.9329 200.942C72.6458 199.695 73.9347 191.934 62.8699 185.545C57.0427 182.186 47.7741 179.197 33.1993 177.743C72.0563 140.559 149.359 166.473 160.972 173.178C161.479 173.479 161.877 173.74 162.124 173.945C157.75 173.52 153.006 173.315 148.646 173.315C136.621 173.109 124.24 174.371 113.71 177.538C106.402 175.851 89.6612 175.001 86.7407 177.113C91.4847 178.593 96.2288 180.074 100.973 181.966C98.7927 182.816 96.9828 183.872 95.173 184.928C79.1997 194.21 71.974 206.866 75.6897 219.521C74.6202 222.688 73.9073 225.225 73.5508 226.267L64.433 225.211C65.3379 225.91 66.3114 226.568 67.3671 227.185C68.8616 228.049 70.5481 228.817 72.4676 229.434L72.4539 229.42Z" fill="url(#paint25_linear_43_609)"/>
<path d="M200.17 273.282C204.599 282.989 197.73 292.491 183.895 294.589C175.682 295.754 167.031 293.999 160.546 290.256C156.405 287.871 153.142 284.662 151.414 280.878C146.985 271.184 154.225 261.463 167.675 259.571C175.902 258.419 184.553 260.161 191.039 263.917C195.179 266.303 198.443 269.512 200.17 273.282Z" fill="url(#paint26_linear_43_609)"/>
<path d="M165.499 256.212C161.851 256.637 134.95 263.807 151.116 287.445C129.905 287.075 114.645 282.715 103.785 276.435C78.091 261.6 76.9804 236.07 79.7363 227.309C83.2464 233.081 88.9775 238.264 96.4363 242.569C100.7 245.023 105.513 247.203 110.819 249.041C112.89 252.921 117.291 257.884 120.828 259.927C121.719 260.435 122.542 260.764 123.269 260.846C122.885 258.09 122.871 255.142 123.228 252.4C145.467 256.829 170.229 254.292 188.752 246.065C196.033 244.804 201.49 243.323 203.67 242.898L206.618 247.958C207.701 246.065 208.414 243.954 208.4 241.842C219.671 239.525 229.844 235.727 238.194 230.874C243.35 239.731 251.137 264.836 207.495 277.916C205.192 269.854 200.256 264.671 194.538 261.367C182.774 254.566 167.692 255.759 165.499 256.184V256.212Z" fill="url(#paint27_linear_43_609)"/>
<path d="M208.613 199.705C208.599 200.029 208.571 200.353 208.543 200.677C208.515 200.959 208.472 201.241 208.43 201.523C208.388 201.847 208.331 202.157 208.275 202.482C208.219 202.764 208.162 203.046 208.092 203.327C208.021 203.638 207.951 203.948 207.866 204.272C207.796 204.554 207.711 204.836 207.612 205.118C207.514 205.428 207.415 205.738 207.302 206.048C207.204 206.33 207.105 206.598 206.992 206.88C206.865 207.204 206.724 207.528 206.583 207.852C206.457 208.12 206.344 208.388 206.203 208.656C206.048 208.98 205.879 209.304 205.709 209.614C205.568 209.868 205.427 210.136 205.272 210.39C205.047 210.77 204.807 211.151 204.568 211.532C204.427 211.757 204.272 211.997 204.117 212.222C203.835 212.645 203.524 213.054 203.214 213.463C203.073 213.646 202.947 213.815 202.82 213.998C202.298 214.647 201.748 215.295 201.156 215.944C201.001 216.113 200.846 216.268 200.691 216.423C200.226 216.916 199.747 217.396 199.239 217.875C199.014 218.086 198.774 218.312 198.534 218.523C198.238 218.791 197.928 219.059 197.618 219.327C197.322 219.581 197.04 219.82 196.73 220.06C196.406 220.328 196.067 220.581 195.729 220.849C195.419 221.089 195.095 221.329 194.771 221.568C194.418 221.822 194.052 222.076 193.685 222.329C193.347 222.555 193.009 222.795 192.656 223.02C192.276 223.274 191.881 223.514 191.5 223.753C191.007 224.063 190.528 224.359 190.02 224.655C189.062 225.219 188.075 225.741 187.074 226.248C186.792 226.389 186.496 226.544 186.2 226.685C185.425 227.066 184.621 227.446 183.818 227.799C183.55 227.926 183.282 228.039 183.014 228.165C181.971 228.616 180.9 229.053 179.814 229.462C179.617 229.533 179.42 229.603 179.236 229.674C178.32 230.012 177.39 230.336 176.459 230.646C176.079 230.773 175.698 230.9 175.303 231.027C174.782 231.196 174.26 231.351 173.739 231.506C173.302 231.633 172.851 231.76 172.414 231.887C171.878 232.028 171.356 232.169 170.821 232.31C170.37 232.423 169.933 232.535 169.482 232.648C168.932 232.775 168.396 232.902 167.846 233.029C167.395 233.127 166.944 233.226 166.493 233.325C165.929 233.437 165.365 233.55 164.802 233.663C164.379 233.748 163.942 233.832 163.519 233.903C162.321 234.114 161.108 234.311 159.896 234.481C159.727 234.509 159.544 234.523 159.374 234.551C158.317 234.692 157.26 234.819 156.189 234.932C155.78 234.974 155.371 235.016 154.962 235.059C154.272 235.115 153.595 235.185 152.904 235.228C152.467 235.256 152.03 235.298 151.593 235.312C150.874 235.355 150.155 235.397 149.436 235.425C149.028 235.439 148.633 235.467 148.224 235.481C147.604 235.496 146.97 235.51 146.349 235.524C145.912 235.524 145.475 235.538 145.052 235.538C144.376 235.538 143.713 235.538 143.037 235.524C142.642 235.524 142.261 235.524 141.867 235.51C141.246 235.496 140.626 235.467 140.02 235.439C139.597 235.425 139.174 235.411 138.751 235.383C138.089 235.34 137.426 235.298 136.778 235.242C136.397 235.214 136.031 235.2 135.65 235.157C134.889 235.087 134.114 235.016 133.352 234.932C133.085 234.903 132.817 234.889 132.563 234.861C131.534 234.748 130.519 234.622 129.504 234.481C129.349 234.452 129.194 234.424 129.039 234.41C128.151 234.283 127.277 234.142 126.403 234.001C126.036 233.945 125.684 233.86 125.332 233.804C124.669 233.677 124.006 233.564 123.344 233.423C123.006 233.353 122.653 233.268 122.315 233.198C121.596 233.043 120.877 232.888 120.158 232.704C119.763 232.606 119.369 232.507 118.974 232.408C118.326 232.239 117.677 232.07 117.029 231.887C116.662 231.788 116.296 231.675 115.929 231.577C114.914 231.281 113.899 230.971 112.913 230.632C112.729 230.576 112.546 230.519 112.363 230.463C111.221 230.068 110.093 229.66 108.98 229.223C108.74 229.124 108.514 229.039 108.275 228.941C106.823 228.363 105.399 227.742 104.032 227.094C103.891 227.024 103.764 226.953 103.623 226.883C102.185 226.178 100.776 225.445 99.4082 224.669C93.8824 221.484 89.5689 217.847 86.4535 213.984C85.5655 212.885 84.7761 211.757 84.0853 210.615C83.747 210.051 83.4228 209.474 83.1268 208.896C81.3788 205.386 80.5048 201.791 80.5048 198.21L80.4767 209.699C80.4485 219.256 86.7637 228.842 99.3941 236.13C100.747 236.919 102.171 237.652 103.609 238.343C103.75 238.413 103.877 238.484 104.018 238.54C105.399 239.203 106.823 239.809 108.275 240.387C108.402 240.443 108.514 240.5 108.641 240.542C108.754 240.584 108.853 240.613 108.966 240.655C110.079 241.092 111.207 241.501 112.363 241.895C112.546 241.952 112.715 242.008 112.898 242.064C113.899 242.389 114.9 242.713 115.929 243.009C116.098 243.065 116.268 243.122 116.437 243.164C116.634 243.22 116.831 243.263 117.029 243.319C117.677 243.502 118.326 243.671 118.974 243.841C119.369 243.939 119.763 244.038 120.158 244.137C120.877 244.306 121.596 244.475 122.315 244.63C122.583 244.686 122.851 244.757 123.118 244.813C123.189 244.827 123.259 244.841 123.33 244.856C123.992 244.997 124.655 245.109 125.332 245.236C125.684 245.307 126.036 245.377 126.403 245.434C127.277 245.589 128.165 245.715 129.039 245.856C129.18 245.885 129.321 245.899 129.476 245.927C129.476 245.927 129.49 245.927 129.504 245.927C130.519 246.068 131.548 246.195 132.563 246.322C132.803 246.35 133.028 246.364 133.268 246.392C134.057 246.477 134.847 246.561 135.65 246.618C135.664 246.618 135.692 246.618 135.707 246.618C136.059 246.646 136.411 246.66 136.778 246.688C137.44 246.73 138.103 246.787 138.751 246.829C139.174 246.857 139.597 246.857 140.034 246.885C140.64 246.914 141.26 246.942 141.867 246.956C141.923 246.956 141.965 246.956 142.022 246.956C142.374 246.956 142.712 246.956 143.065 246.956C143.727 246.956 144.39 246.984 145.067 246.97C145.504 246.97 145.941 246.97 146.363 246.956C146.984 246.956 147.618 246.942 148.238 246.914C148.351 246.914 148.464 246.914 148.577 246.914C148.873 246.914 149.155 246.885 149.451 246.871C150.169 246.843 150.888 246.801 151.607 246.759C152.044 246.73 152.481 246.702 152.918 246.674C153.609 246.618 154.286 246.561 154.976 246.505C155.216 246.477 155.456 246.463 155.695 246.448C155.864 246.434 156.034 246.406 156.203 246.392C157.274 246.279 158.331 246.152 159.389 246.011C159.558 245.983 159.741 245.969 159.91 245.941C161.122 245.772 162.335 245.574 163.533 245.363C163.646 245.349 163.758 245.335 163.871 245.307C164.195 245.25 164.506 245.18 164.816 245.123C165.38 245.011 165.943 244.912 166.493 244.799C166.944 244.701 167.395 244.602 167.846 244.503C168.396 244.376 168.932 244.264 169.482 244.123C169.933 244.01 170.384 243.897 170.835 243.784C171.37 243.643 171.892 243.502 172.428 243.361C172.879 243.234 173.316 243.108 173.767 242.981C174.288 242.826 174.81 242.671 175.332 242.501C175.557 242.431 175.783 242.36 176.008 242.29C176.177 242.234 176.332 242.177 176.488 242.121C177.418 241.811 178.348 241.487 179.265 241.148C179.462 241.078 179.659 241.007 179.857 240.937C180.942 240.528 181.999 240.091 183.042 239.64C183.31 239.527 183.578 239.4 183.86 239.273C184.663 238.907 185.453 238.54 186.242 238.16C186.538 238.019 186.82 237.878 187.116 237.723C188.117 237.215 189.104 236.68 190.062 236.13C190.33 235.975 190.584 235.82 190.838 235.665C191.077 235.524 191.303 235.369 191.543 235.214C191.937 234.974 192.318 234.72 192.698 234.481C193.051 234.255 193.389 234.015 193.727 233.79C194.094 233.536 194.46 233.282 194.813 233.029C195.137 232.789 195.447 232.549 195.771 232.31C196.11 232.056 196.448 231.788 196.772 231.52C197.068 231.281 197.364 231.027 197.66 230.787C197.97 230.519 198.281 230.252 198.591 229.984C198.718 229.871 198.844 229.758 198.971 229.646C199.084 229.547 199.183 229.434 199.296 229.321C199.803 228.842 200.282 228.363 200.747 227.883C200.903 227.714 201.072 227.559 201.213 227.39C201.805 226.756 202.354 226.107 202.876 225.459C202.904 225.431 202.918 225.402 202.947 225.374C203.059 225.219 203.158 225.064 203.285 224.923C203.595 224.514 203.905 224.106 204.187 223.683C204.342 223.457 204.483 223.232 204.638 222.992C204.878 222.611 205.117 222.231 205.343 221.85C205.399 221.752 205.47 221.639 205.54 221.54C205.625 221.385 205.695 221.23 205.78 221.075C205.949 220.751 206.118 220.441 206.273 220.116C206.4 219.848 206.527 219.581 206.654 219.313C206.795 218.989 206.936 218.664 207.063 218.34C207.119 218.199 207.19 218.044 207.246 217.903C207.288 217.776 207.331 217.635 207.373 217.508C207.486 217.198 207.584 216.888 207.683 216.578C207.768 216.296 207.852 216.014 207.937 215.732C208.021 215.422 208.092 215.112 208.162 214.802C208.204 214.633 208.247 214.464 208.289 214.294C208.317 214.182 208.317 214.069 208.345 213.956C208.402 213.632 208.458 213.322 208.501 212.998C208.543 212.716 208.585 212.434 208.613 212.152C208.641 211.828 208.67 211.503 208.684 211.179C208.684 210.996 208.712 210.799 208.726 210.615C208.726 210.432 208.726 210.235 208.726 210.051L208.754 198.563C208.754 198.943 208.726 199.31 208.712 199.691L208.613 199.705Z" fill="url(#paint28_linear_43_609)"/>
<path d="M189.735 172.146C214.841 186.637 214.982 210.136 190.046 224.627C165.095 239.118 124.525 239.118 99.4195 224.627C74.3138 210.136 74.1728 186.637 99.1235 172.132C124.06 157.641 164.644 157.641 189.735 172.132V172.146ZM108.385 219.44C128.515 231.069 161.035 231.069 181.024 219.44C201.013 207.824 200.914 188.991 180.784 177.362C160.654 165.746 128.134 165.746 108.145 177.362C88.1424 188.991 88.2552 207.824 108.385 219.44Z" fill="url(#paint29_linear_43_609)"/>
<path d="M195.966 198.528C196.012 182.094 173.051 168.707 144.682 168.628C116.313 168.548 93.2774 181.807 93.2315 198.242C93.1856 214.676 116.146 228.063 144.516 228.142C172.885 228.222 195.92 214.963 195.966 198.528Z" fill="url(#paint30_linear_43_609)"/>
<g clip-path="url(#clip0_43_609)">
<path d="M113.656 193.123L119.818 189.636L164.467 185.145L173.602 190.323L147.981 204.798L152.899 207.598L146.035 211.455L141.116 208.655L133.116 213.145L125.278 208.708L133.278 204.217L113.656 193.123ZM157.872 190.957L129.17 194.179L140.683 200.677L157.872 190.957Z" fill="url(#paint31_linear_43_609)"/>
</g>
<defs>
<linearGradient id="paint0_linear_43_609" x1="-59.7095" y1="-25.2312" x2="202.562" y2="339.355" gradientUnits="userSpaceOnUse">
<stop stop-color="white" stop-opacity="0"/>
<stop offset="1" stop-color="white" stop-opacity="0.35"/>
</linearGradient>
<linearGradient id="paint1_linear_43_609" x1="164.173" y1="246.401" x2="34.4766" y2="83.4317" gradientUnits="userSpaceOnUse">
<stop stop-color="white" stop-opacity="0"/>
<stop offset="1" stop-color="white" stop-opacity="0.35"/>
</linearGradient>
<linearGradient id="paint2_linear_43_609" x1="76.1438" y1="95.3278" x2="180.534" y2="276.731" gradientUnits="userSpaceOnUse">
<stop stop-color="white" stop-opacity="0.28"/>
<stop offset="1" stop-color="white" stop-opacity="0.06"/>
</linearGradient>
<linearGradient id="paint3_linear_43_609" x1="202.222" y1="159.953" x2="214.606" y2="204.731" gradientUnits="userSpaceOnUse">
<stop stop-color="#156200"/>
<stop offset="1" stop-color="#187509"/>
</linearGradient>
<linearGradient id="paint4_linear_43_609" x1="28.6007" y1="189.519" x2="35.1266" y2="229.651" gradientUnits="userSpaceOnUse">
<stop stop-color="#9A8F08"/>
<stop offset="1" stop-color="#C6BB36"/>
</linearGradient>
<linearGradient id="paint5_linear_43_609" x1="66.25" y1="203.581" x2="66.6919" y2="203.59" gradientUnits="userSpaceOnUse">
<stop stop-color="#9A8F08"/>
<stop offset="1" stop-color="#C6BB36"/>
</linearGradient>
<linearGradient id="paint6_linear_43_609" x1="66.0859" y1="204.044" x2="67.4076" y2="204.122" gradientUnits="userSpaceOnUse">
<stop stop-color="#9A8F08"/>
<stop offset="1" stop-color="#C6BB36"/>
</linearGradient>
<linearGradient id="paint7_linear_43_609" x1="65.7187" y1="205.284" x2="68.3348" y2="205.593" gradientUnits="userSpaceOnUse">
<stop stop-color="#9A8F08"/>
<stop offset="1" stop-color="#C6BB36"/>
</linearGradient>
<linearGradient id="paint8_linear_43_609" x1="65.6359" y1="206.232" x2="66.7821" y2="206.293" gradientUnits="userSpaceOnUse">
<stop stop-color="#9A8F08"/>
<stop offset="1" stop-color="#C6BB36"/>
</linearGradient>
<linearGradient id="paint9_linear_43_609" x1="190.745" y1="183.525" x2="199.995" y2="250.011" gradientUnits="userSpaceOnUse">
<stop stop-color="#156200"/>
<stop offset="1" stop-color="#187509"/>
</linearGradient>
<linearGradient id="paint10_linear_43_609" x1="213.562" y1="218.246" x2="244.346" y2="214.261" gradientUnits="userSpaceOnUse">
<stop stop-color="#156200"/>
<stop offset="1" stop-color="#187509"/>
</linearGradient>
<linearGradient id="paint11_linear_43_609" x1="-2.66074" y1="204.845" x2="0.75486" y2="241.456" gradientUnits="userSpaceOnUse">
<stop stop-color="#9A8F08"/>
<stop offset="1" stop-color="#C6BB36"/>
</linearGradient>
<linearGradient id="paint12_linear_43_609" x1="71.6275" y1="196.543" x2="85.616" y2="243.262" gradientUnits="userSpaceOnUse">
<stop stop-color="#9A8F08"/>
<stop offset="1" stop-color="#C6BB36"/>
</linearGradient>
<linearGradient id="paint13_linear_43_609" x1="72.3447" y1="234.88" x2="96.5024" y2="265.449" gradientUnits="userSpaceOnUse">
<stop stop-color="#9A8F08"/>
<stop offset="1" stop-color="#C6BB36"/>
</linearGradient>
<linearGradient id="paint14_linear_43_609" x1="73.2093" y1="227.464" x2="84.4847" y2="233.241" gradientUnits="userSpaceOnUse">
<stop stop-color="#9A8F08"/>
<stop offset="1" stop-color="#C6BB36"/>
</linearGradient>
<linearGradient id="paint15_linear_43_609" x1="71.05" y1="237.72" x2="78.6563" y2="239.885" gradientUnits="userSpaceOnUse">
<stop stop-color="#9A8F08"/>
<stop offset="1" stop-color="#C6BB36"/>
</linearGradient>
<linearGradient id="paint16_linear_43_609" x1="234.682" y1="210.298" x2="244.831" y2="288.044" gradientUnits="userSpaceOnUse">
<stop stop-color="#156200"/>
<stop offset="1" stop-color="#187509"/>
</linearGradient>
<linearGradient id="paint17_linear_43_609" x1="74.032" y1="254.372" x2="18.261" y2="249.62" gradientUnits="userSpaceOnUse">
<stop stop-color="#9A8F08"/>
<stop offset="1" stop-color="#C6BB36"/>
</linearGradient>
<linearGradient id="paint18_linear_43_609" x1="224.078" y1="266.476" x2="242.017" y2="281.567" gradientUnits="userSpaceOnUse">
<stop stop-color="#02618B"/>
<stop offset="1" stop-color="#229FD3"/>
</linearGradient>
<linearGradient id="paint19_linear_43_609" x1="175.391" y1="272.879" x2="187.813" y2="295.651" gradientUnits="userSpaceOnUse">
<stop stop-color="#02618B"/>
<stop offset="1" stop-color="#229FD3"/>
</linearGradient>
<linearGradient id="paint20_linear_43_609" x1="113.327" y1="263.763" x2="137.341" y2="294.66" gradientUnits="userSpaceOnUse">
<stop stop-color="#02618B"/>
<stop offset="1" stop-color="#229FD3"/>
</linearGradient>
<linearGradient id="paint21_linear_43_609" x1="174.686" y1="291.206" x2="187.258" y2="311.46" gradientUnits="userSpaceOnUse">
<stop stop-color="#02618B"/>
<stop offset="1" stop-color="#229FD3"/>
</linearGradient>
<linearGradient id="paint22_linear_43_609" x1="198.285" y1="177.728" x2="252.567" y2="157.293" gradientUnits="userSpaceOnUse">
<stop stop-color="#2BBA05"/>
<stop offset="1" stop-color="#187509"/>
</linearGradient>
<linearGradient id="paint23_linear_43_609" x1="126.12" y1="210.357" x2="264.822" y2="190.132" gradientUnits="userSpaceOnUse">
<stop stop-color="#2BBA05"/>
<stop offset="1" stop-color="#187509"/>
</linearGradient>
<linearGradient id="paint24_linear_43_609" x1="66.3147" y1="201.48" x2="6.00079" y2="190.095" gradientUnits="userSpaceOnUse">
<stop stop-color="#AFA310"/>
<stop offset="1" stop-color="#FFF363"/>
</linearGradient>
<linearGradient id="paint25_linear_43_609" x1="83.7663" y1="204.119" x2="30.6562" y2="190.391" gradientUnits="userSpaceOnUse">
<stop stop-color="#C5B929"/>
<stop offset="1" stop-color="#FFF363"/>
</linearGradient>
<linearGradient id="paint26_linear_43_609" x1="157.606" y1="259.22" x2="198.521" y2="280.563" gradientUnits="userSpaceOnUse">
<stop stop-color="#006E9F"/>
<stop offset="1" stop-color="#40C7FF"/>
</linearGradient>
<linearGradient id="paint27_linear_43_609" x1="156.999" y1="250.307" x2="167.326" y2="287.445" gradientUnits="userSpaceOnUse">
<stop stop-color="#006E9F"/>
<stop offset="1" stop-color="#40C7FF"/>
</linearGradient>
<linearGradient id="paint28_linear_43_609" x1="144.615" y1="229.629" x2="146.845" y2="278.765" gradientUnits="userSpaceOnUse">
<stop stop-color="#4E01C5"/>
<stop offset="1" stop-color="#B17DFF"/>
</linearGradient>
<linearGradient id="paint29_linear_43_609" x1="202.998" y1="182.688" x2="25.7594" y2="247.178" gradientUnits="userSpaceOnUse">
<stop stop-color="#6B0FF8"/>
<stop offset="1" stop-color="#B17DFF"/>
</linearGradient>
<linearGradient id="paint30_linear_43_609" x1="93.2315" y1="198.242" x2="195.966" y2="198.528" gradientUnits="userSpaceOnUse">
<stop stop-color="#CDACFF"/>
<stop offset="1" stop-color="#FEFDFF"/>
</linearGradient>
<linearGradient id="paint31_linear_43_609" x1="211.949" y1="175.643" x2="128.108" y2="221.083" gradientUnits="userSpaceOnUse">
<stop stop-color="#FF0054"/>
<stop offset="1" stop-color="#6B0FF8"/>
</linearGradient>
<clipPath id="clip0_43_609">
<rect width="60" height="28" fill="white" transform="translate(113.656 185.145)"/>
</clipPath>
</defs>
</svg>
