<svg width="327" height="492" viewBox="0 0 327 492" fill="none" xmlns="http://www.w3.org/2000/svg">
<path d="M68.3392 382.714V343.579H80.5438V382.714C80.5438 383.616 79.9494 384.519 78.7533 385.206C76.3682 386.581 72.5077 386.581 70.1226 385.206C68.9337 384.519 68.332 383.616 68.332 382.714H68.3392Z" fill="url(#paint0_linear_39_4164)"/>
<path d="M246.538 488.231V449.096H258.743V488.231C258.743 489.133 258.149 490.036 256.952 490.723C254.567 492.098 250.707 492.098 248.322 490.723C247.133 490.036 246.531 489.133 246.531 488.231H246.538Z" fill="url(#paint1_linear_39_4164)"/>
<path d="M74.4383 347.103C77.8085 347.103 80.5406 345.525 80.5406 343.579C80.5406 341.633 77.8085 340.055 74.4383 340.055C71.068 340.055 68.3359 341.633 68.3359 343.579C68.3359 345.525 71.068 347.103 74.4383 347.103Z" fill="url(#paint2_linear_39_4164)"/>
<path d="M155.202 407.36V326.654H167.407V407.36C167.407 408.262 166.813 409.164 165.617 409.852C163.231 411.227 159.371 411.227 156.986 409.852C155.797 409.164 155.195 408.262 155.195 407.36H155.202Z" fill="url(#paint3_linear_39_4164)"/>
<path d="M161.305 330.178C164.676 330.178 167.408 328.6 167.408 326.654C167.408 324.708 164.676 323.13 161.305 323.13C157.935 323.13 155.203 324.708 155.203 326.654C155.203 328.6 157.935 330.178 161.305 330.178Z" fill="#00ADBE"/>
<path d="M74.4415 215.258L148.149 172.699L74.4415 130.141L0.726562 172.699L74.4415 215.258Z" fill="url(#paint4_linear_39_4164)"/>
<path d="M74.4414 366.212L148.149 323.653V172.699L74.4414 215.258V366.212Z" fill="url(#paint5_linear_39_4164)"/>
<path d="M74.4415 366.212L0.726562 323.653V172.699L74.4415 215.258V366.212Z" fill="url(#paint6_linear_39_4164)"/>
<path d="M234.255 125.256L301.245 86.5793L234.255 47.9026L167.266 86.5793L234.255 125.256Z" fill="url(#paint7_linear_39_4164)"/>
<path d="M234.254 44.3787V54.2842L295.721 89.7736L298.78 91.5356L307.353 96.4848V86.5792L234.254 44.3787Z" fill="url(#paint8_linear_39_4164)"/>
<path d="M161.148 86.5792V96.4848L169.729 91.5356L172.787 89.7665L234.255 54.2842V44.3787L161.148 86.5792Z" fill="url(#paint9_linear_39_4164)"/>
<path d="M161.148 86.5793L169.729 91.5357L234.255 128.787L298.78 91.5357L307.361 86.5793L234.262 44.3716L161.163 86.5793H161.148ZM167.265 86.5793L234.247 47.9026L301.237 86.5793L295.715 89.7665L234.247 125.249L172.78 89.7594L167.258 86.5721L167.265 86.5793Z" fill="#7500E8"/>
<path d="M234.254 145.132L307.353 102.924V86.5793L234.254 128.787V145.132Z" fill="url(#paint10_linear_39_4164)"/>
<path d="M234.255 145.132L161.156 102.924V86.5793L234.255 128.787V145.132Z" fill="#C61F0F"/>
<path d="M161.161 170.995L234.26 128.787L161.161 86.5793L88.0625 128.787L161.161 170.995Z" fill="#7500E8"/>
<path d="M161.164 360.21L234.263 318.002V128.787L161.164 170.995V360.21Z" fill="url(#paint11_linear_39_4164)"/>
<path d="M161.161 360.21L88.0547 318.002V128.787L161.161 170.995V360.21Z" fill="url(#paint12_linear_39_4164)"/>
<path d="M161.163 166.232L226.025 128.787L161.163 91.3423L96.3008 128.787L161.163 166.232Z" fill="url(#paint13_linear_39_4164)"/>
<path d="M161.07 166.232L226.026 128.916V38.2622L161.07 75.578V166.232Z" fill="url(#paint14_linear_39_4164)"/>
<path d="M161.305 75.6281L226.024 38.2621L161.305 0.896118L96.5859 38.2621L161.305 75.6281Z" fill="url(#paint15_linear_39_4164)"/>
<path d="M252.633 296.794L326.348 254.236L252.633 211.677L178.918 254.236L252.633 296.794Z" fill="url(#paint16_linear_39_4164)"/>
<path d="M252.633 475.481L326.348 432.922V254.236L252.633 296.794V475.481Z" fill="url(#paint17_linear_39_4164)"/>
<path d="M252.633 475.481L178.918 432.922V254.236L252.633 296.794V475.481Z" fill="url(#paint18_linear_39_4164)"/>
<path d="M246.531 254.708V224.841H258.735V254.708C258.735 255.611 258.141 256.513 256.945 257.201C254.56 258.576 250.699 258.576 248.314 257.201C247.125 256.513 246.523 255.611 246.523 254.708H246.531Z" fill="url(#paint19_linear_39_4164)"/>
<path d="M252.634 228.365C256.004 228.365 258.736 226.787 258.736 224.841C258.736 222.895 256.004 221.317 252.634 221.317C249.263 221.317 246.531 222.895 246.531 224.841C246.531 226.787 249.263 228.365 252.634 228.365Z" fill="url(#paint20_linear_39_4164)"/>
<path d="M68.3392 172.8V133.665H80.5438V172.8C80.5438 173.702 79.9494 174.605 78.7533 175.292C76.3682 176.667 72.5077 176.667 70.1226 175.292C68.9337 174.605 68.332 173.702 68.332 172.8H68.3392Z" fill="url(#paint21_linear_39_4164)"/>
<path d="M74.4383 137.188C77.8085 137.188 80.5406 135.611 80.5406 133.664C80.5406 131.718 77.8085 130.141 74.4383 130.141C71.068 130.141 68.3359 131.718 68.3359 133.664C68.3359 135.611 71.068 137.188 74.4383 137.188Z" fill="url(#paint22_linear_39_4164)"/>
<path d="M160.776 166.067L96.3008 129.023L96.5873 38.5343L161.07 75.578L160.776 166.067Z" fill="url(#paint23_linear_39_4164)"/>
<g style="mix-blend-mode:overlay" opacity="0.2">
<path d="M111.17 312.829C111.17 313.866 110.841 314.579 110.179 314.958C109.517 315.342 108.737 315.27 107.838 314.752C106.94 314.233 106.152 313.398 105.477 312.243C104.802 311.091 104.465 309.995 104.465 308.957C104.465 307.92 104.802 307.165 105.477 306.79C106.152 306.419 106.94 306.491 107.838 307.009C108.737 307.528 109.517 308.363 110.179 309.506C110.841 310.649 111.17 311.758 111.17 312.829ZM134.785 329.579L113.7 317.404V311.121L134.785 323.295V329.579Z" fill="white"/>
<path d="M113.109 291.499C113.109 288.838 113.881 287.084 115.429 286.24C116.976 285.397 119.114 285.764 121.839 287.337L134.785 294.814V301.097L122.513 294.012C121.109 293.203 120.034 293.017 119.287 293.464C118.541 293.911 118.17 294.864 118.17 296.323C118.17 297.947 118.604 299.499 119.477 300.975C120.35 302.451 121.657 303.695 123.399 304.698L134.785 311.272V317.556L113.7 305.381V299.098L116.061 300.46C114.092 297.799 113.109 294.809 113.109 291.499Z" fill="white"/>
<path d="M113.699 261.698V254.782L134.784 276.208V283.369L113.699 280.446V273.53L128.454 276.149L113.699 261.698Z" fill="white"/>
<path d="M126.477 254.807C129.121 255.49 130.441 253.964 130.441 250.231C130.441 247.828 129.737 245.605 128.333 243.56L130.863 239.955C133.874 244.096 135.375 248.503 135.375 253.175C135.375 257.202 134.321 259.821 132.212 261.04C130.104 262.258 127.447 261.942 124.242 260.091C121.067 258.256 118.414 255.528 116.293 251.897C114.172 248.271 113.109 244.572 113.109 240.806C113.109 237.235 114.176 234.907 116.314 233.819C118.452 232.731 121.092 233.098 124.242 234.915C124.946 235.32 125.689 235.835 126.477 236.45V254.811V254.807ZM122.26 252.471V240.052C120.826 239.579 119.76 239.702 119.055 240.419C118.351 241.131 118.001 242.202 118.001 243.632C118.001 245.319 118.372 246.934 119.119 248.465C119.865 250 120.911 251.332 122.26 252.471Z" fill="white"/>
<path d="M119.688 223.078C120.249 223.403 120.708 223.239 121.058 222.581C121.408 221.923 121.72 221.054 121.986 219.975C122.252 218.895 122.589 217.858 122.998 216.858C123.407 215.859 124.086 215.205 125.043 214.897C126.001 214.59 127.194 214.847 128.628 215.678C130.791 216.926 132.457 218.823 133.625 221.362C134.793 223.901 135.375 226.57 135.375 229.362C135.375 234.363 133.701 236.805 130.357 236.691L127.7 229.703C129.53 230.045 130.441 228.982 130.441 226.515C130.441 224.276 129.838 222.804 128.628 222.108C128.067 221.784 127.607 221.952 127.257 222.606C126.907 223.264 126.591 224.128 126.309 225.199C126.026 226.271 125.676 227.304 125.254 228.291C124.833 229.282 124.166 229.944 123.251 230.277C122.336 230.61 121.193 230.378 119.814 229.581C117.735 228.379 116.095 226.549 114.902 224.09C113.708 221.632 113.109 219.085 113.109 216.458C113.109 214.48 113.497 212.899 114.269 211.722C115.041 210.545 116.146 209.9 117.579 209.786L120.11 216.605C118.676 216.555 117.959 217.44 117.959 219.258C117.959 220.072 118.115 220.831 118.423 221.548C118.731 222.26 119.152 222.775 119.688 223.083V223.078Z" fill="white"/>
<path d="M134.788 215.193L104 197.418V191.135L134.788 208.909V215.193Z" fill="white"/>
<path d="M132.149 180.896C134.3 184.636 135.375 188.309 135.375 191.915C135.375 195.52 134.3 197.941 132.149 199.185C129.998 200.425 127.363 200.146 124.242 198.346C121.122 196.545 118.486 193.779 116.335 190.055C114.185 186.331 113.109 182.667 113.109 179.061C113.109 175.46 114.185 173.027 116.335 171.77C118.486 170.514 121.122 170.783 124.242 172.584C127.363 174.385 129.998 177.16 132.149 180.9V180.896ZM128.417 192.594C129.513 191.978 130.062 190.726 130.062 188.845C130.062 186.964 129.513 185.071 128.417 183.173C127.321 181.275 125.929 179.837 124.242 178.863C122.555 177.889 121.164 177.72 120.067 178.353C118.971 178.985 118.423 180.246 118.423 182.127C118.423 184.012 118.971 185.893 120.067 187.778C121.164 189.663 122.555 191.088 124.242 192.062C125.929 193.036 127.321 193.214 128.417 192.598V192.594Z" fill="white"/>
</g>
<path d="M153.119 34.3649L144.179 35.0839L142.93 29.9263L151.87 29.2073L153.119 34.3649Z" fill="#F8B409"/>
<path d="M141.964 35.2626L138.784 35.5175C134.895 35.8291 130.975 35.0708 128.198 33.4693L124.609 31.4015L140.717 30.105L141.962 35.2647L141.964 35.2626Z" fill="#FF0054"/>
<path d="M156.904 50.0382L146.313 43.924L144.523 36.5222L153.464 35.8031L156.904 50.0382Z" fill="#6B0FF8"/>
<path d="M202.198 36.2911L185.987 31.6913L186.833 34.9989L168.768 36.5351L166.651 27.7823L156.062 21.6725L161.074 42.4117L188.163 40.1957L189.098 43.8498L202.198 36.2911Z" fill="#6B0FF8"/>
<defs>
<linearGradient id="paint0_linear_39_4164" x1="74.4415" y1="386.238" x2="74.4415" y2="343.579" gradientUnits="userSpaceOnUse">
<stop stop-color="#FF0054"/>
<stop offset="1" stop-color="#FF0054" stop-opacity="0"/>
</linearGradient>
<linearGradient id="paint1_linear_39_4164" x1="252.641" y1="491.755" x2="252.641" y2="449.096" gradientUnits="userSpaceOnUse">
<stop stop-color="#FF0054"/>
<stop offset="1" stop-color="#FF0054" stop-opacity="0"/>
</linearGradient>
<linearGradient id="paint2_linear_39_4164" x1="68.3359" y1="343.579" x2="80.5406" y2="343.579" gradientUnits="userSpaceOnUse">
<stop stop-color="#FF0054" stop-opacity="0"/>
<stop offset="1" stop-color="#FF0054"/>
</linearGradient>
<linearGradient id="paint3_linear_39_4164" x1="161.305" y1="410.883" x2="161.305" y2="326.654" gradientUnits="userSpaceOnUse">
<stop stop-color="#803EFF"/>
<stop offset="0.93" stop-color="#803EFF" stop-opacity="0.16"/>
<stop offset="1" stop-color="#803EFF" stop-opacity="0.1"/>
</linearGradient>
<linearGradient id="paint4_linear_39_4164" x1="0.726562" y1="172.699" x2="148.149" y2="172.699" gradientUnits="userSpaceOnUse">
<stop stop-color="white"/>
<stop offset="1" stop-color="#FF4381"/>
</linearGradient>
<linearGradient id="paint5_linear_39_4164" x1="111.299" y1="366.212" x2="111.299" y2="172.699" gradientUnits="userSpaceOnUse">
<stop stop-color="#FF0054"/>
<stop offset="1" stop-color="#FF0054" stop-opacity="0"/>
</linearGradient>
<linearGradient id="paint6_linear_39_4164" x1="37.584" y1="366.212" x2="42.2137" y2="198.075" gradientUnits="userSpaceOnUse">
<stop stop-color="white"/>
<stop offset="1" stop-color="#FF0054"/>
</linearGradient>
<linearGradient id="paint7_linear_39_4164" x1="266.658" y1="86.5793" x2="400.636" y2="86.5793" gradientUnits="userSpaceOnUse">
<stop stop-color="#D6BFFF"/>
<stop offset="1" stop-color="#8E52FF"/>
</linearGradient>
<linearGradient id="paint8_linear_39_4164" x1="196.279" y1="29.7245" x2="273.547" y2="71.9322" gradientUnits="userSpaceOnUse">
<stop stop-color="#D6BFFF"/>
<stop offset="1" stop-color="#8E52FF"/>
</linearGradient>
<linearGradient id="paint9_linear_39_4164" x1="161.148" y1="70.4353" x2="234.255" y2="70.4353" gradientUnits="userSpaceOnUse">
<stop stop-color="#D6BFFF"/>
<stop offset="1" stop-color="#8E52FF"/>
</linearGradient>
<linearGradient id="paint10_linear_39_4164" x1="234.254" y1="115.859" x2="307.353" y2="115.859" gradientUnits="userSpaceOnUse">
<stop stop-color="#D6BFFF"/>
<stop offset="1" stop-color="#8E52FF"/>
</linearGradient>
<linearGradient id="paint11_linear_39_4164" x1="197.714" y1="379.355" x2="197.714" y2="147.932" gradientUnits="userSpaceOnUse">
<stop stop-color="#8E52FF"/>
<stop offset="1" stop-color="#D6BFFF"/>
</linearGradient>
<linearGradient id="paint12_linear_39_4164" x1="124.611" y1="392.376" x2="124.611" y2="160.953" gradientUnits="userSpaceOnUse">
<stop stop-color="#D6BFFF"/>
<stop offset="1" stop-color="#8E52FF"/>
</linearGradient>
<linearGradient id="paint13_linear_39_4164" x1="108.111" y1="99.3426" x2="409.861" y2="266.813" gradientUnits="userSpaceOnUse">
<stop stop-color="#8E52FF"/>
<stop offset="1" stop-color="#D6BFFF"/>
</linearGradient>
<linearGradient id="paint14_linear_39_4164" x1="193.544" y1="166.232" x2="193.544" y2="38.2622" gradientUnits="userSpaceOnUse">
<stop stop-color="#8E52FF"/>
<stop offset="1" stop-color="#D6BFFF"/>
</linearGradient>
<linearGradient id="paint15_linear_39_4164" x1="96.5859" y1="38.2621" x2="226.024" y2="38.2621" gradientUnits="userSpaceOnUse">
<stop stop-color="#D6BFFF"/>
<stop offset="1" stop-color="#8E52FF"/>
</linearGradient>
<linearGradient id="paint16_linear_39_4164" x1="178.918" y1="254.236" x2="326.348" y2="254.236" gradientUnits="userSpaceOnUse">
<stop stop-color="#FF0054" stop-opacity="0.3"/>
<stop offset="0.11" stop-color="#FF0054" stop-opacity="0.33"/>
<stop offset="0.28" stop-color="#FF0054" stop-opacity="0.42"/>
<stop offset="0.49" stop-color="#FF0054" stop-opacity="0.56"/>
<stop offset="0.73" stop-color="#FF0054" stop-opacity="0.75"/>
<stop offset="0.99" stop-color="#FF0054" stop-opacity="0.99"/>
<stop offset="1" stop-color="#FF0054"/>
</linearGradient>
<linearGradient id="paint17_linear_39_4164" x1="289.49" y1="475.481" x2="289.49" y2="254.236" gradientUnits="userSpaceOnUse">
<stop stop-color="#FF0054"/>
<stop offset="1" stop-color="#FF0054" stop-opacity="0"/>
</linearGradient>
<linearGradient id="paint18_linear_39_4164" x1="215.775" y1="475.481" x2="215.775" y2="254.236" gradientUnits="userSpaceOnUse">
<stop stop-color="white"/>
<stop offset="0.99" stop-color="#FF0054" stop-opacity="0.99"/>
<stop offset="1" stop-color="#FF0054"/>
</linearGradient>
<linearGradient id="paint19_linear_39_4164" x1="252.633" y1="258.232" x2="252.633" y2="224.841" gradientUnits="userSpaceOnUse">
<stop stop-color="#FF0054" stop-opacity="0.99"/>
<stop offset="0.27" stop-color="#FF0054" stop-opacity="0.75"/>
<stop offset="0.51" stop-color="#FF0054" stop-opacity="0.56"/>
<stop offset="0.72" stop-color="#FF0054" stop-opacity="0.42"/>
<stop offset="0.89" stop-color="#FF0054" stop-opacity="0.33"/>
<stop offset="1" stop-color="#FF0054" stop-opacity="0.3"/>
</linearGradient>
<linearGradient id="paint20_linear_39_4164" x1="246.531" y1="224.841" x2="258.736" y2="224.841" gradientUnits="userSpaceOnUse">
<stop stop-color="#FF0054" stop-opacity="0.3"/>
<stop offset="0.11" stop-color="#FF0054" stop-opacity="0.33"/>
<stop offset="0.28" stop-color="#FF0054" stop-opacity="0.42"/>
<stop offset="0.49" stop-color="#FF0054" stop-opacity="0.56"/>
<stop offset="0.73" stop-color="#FF0054" stop-opacity="0.75"/>
<stop offset="0.99" stop-color="#FF0054" stop-opacity="0.99"/>
<stop offset="1" stop-color="#FF0054"/>
</linearGradient>
<linearGradient id="paint21_linear_39_4164" x1="68.3392" y1="154.994" x2="80.5438" y2="154.994" gradientUnits="userSpaceOnUse">
<stop stop-color="#FF0054"/>
<stop offset="1" stop-color="#FF0054" stop-opacity="0"/>
</linearGradient>
<linearGradient id="paint22_linear_39_4164" x1="68.3359" y1="133.664" x2="80.5406" y2="133.664" gradientUnits="userSpaceOnUse">
<stop stop-color="#FF0054" stop-opacity="0"/>
<stop offset="1" stop-color="#FF0054"/>
</linearGradient>
<linearGradient id="paint23_linear_39_4164" x1="128.682" y1="166.067" x2="128.682" y2="38.5343" gradientUnits="userSpaceOnUse">
<stop stop-color="#D6BFFF"/>
<stop offset="1" stop-color="#8E52FF"/>
</linearGradient>
</defs>
</svg>
