<svg width="20" height="19" viewBox="0 0 20 19" fill="none" xmlns="http://www.w3.org/2000/svg">
<path d="M2.31689 8.75097V7.51953" stroke="#707786" stroke-miterlimit="10"/>
<path d="M2.31689 12.6225V11.4867" stroke="#707786" stroke-miterlimit="10"/>
<path d="M17.5166 6.7085V17.1319C17.5166 17.4522 17.3894 17.7593 17.1629 17.9858C16.9365 18.2122 16.6293 18.3394 16.3091 18.3394H3.52442C3.20417 18.3394 2.89703 18.2122 2.67057 17.9858C2.44412 17.7593 2.31689 17.4522 2.31689 17.1319V15.1393" stroke="#707786" stroke-miterlimit="10"/>
<path d="M2.31689 5.19988V3.36866C2.31742 3.04857 2.44481 2.74173 2.67115 2.51539C2.89749 2.28905 3.20433 2.16166 3.52442 2.16113H12.3179" stroke="#707786" stroke-miterlimit="10"/>
<path d="M3.54229 6.354H1.11328" stroke="#707786" stroke-miterlimit="10" stroke-linecap="round"/>
<path d="M3.54212 7.09888C3.9537 7.09888 4.28736 6.76522 4.28736 6.35364C4.28736 5.94205 3.9537 5.6084 3.54212 5.6084C3.13053 5.6084 2.79688 5.94205 2.79688 6.35364C2.79688 6.76522 3.13053 7.09888 3.54212 7.09888Z" fill="#707786"/>
<path d="M3.54229 10.0601H1.11328" stroke="#707786" stroke-miterlimit="10" stroke-linecap="round"/>
<path d="M3.54212 10.8052C3.9537 10.8052 4.28736 10.4715 4.28736 10.0599C4.28736 9.64835 3.9537 9.3147 3.54212 9.3147C3.13053 9.3147 2.79688 9.64835 2.79688 10.0599C2.79688 10.4715 3.13053 10.8052 3.54212 10.8052Z" fill="#707786"/>
<path d="M3.54229 13.7643H1.11328" stroke="#707786" stroke-miterlimit="10" stroke-linecap="round"/>
<path d="M3.54212 14.5096C3.9537 14.5096 4.28736 14.176 4.28736 13.7644C4.28736 13.3528 3.9537 13.0192 3.54212 13.0192C3.13053 13.0192 2.79688 13.3528 2.79688 13.7644C2.79688 14.176 3.13053 14.5096 3.54212 14.5096Z" fill="#707786"/>
<path d="M19.0905 3.1835L18.4031 4.04431L14.9419 1.27456L15.6293 0.413746C15.6933 0.333527 15.7725 0.266694 15.8623 0.217069C15.9521 0.167443 16.0508 0.136 16.1527 0.124528C16.2547 0.113055 16.3579 0.12178 16.4565 0.150208C16.5551 0.178636 16.6471 0.226206 16.7273 0.290205L18.975 2.08357C19.0549 2.14812 19.1213 2.22782 19.1703 2.31807C19.2194 2.40833 19.2502 2.50738 19.2609 2.60955C19.2717 2.71173 19.2621 2.81501 19.2329 2.9135C19.2037 3.01199 19.1553 3.10374 19.0905 3.1835Z" fill="#707786"/>
<path d="M14.253 2.12744L8.20734 9.69941C8.14881 9.77367 8.1061 9.8591 8.0818 9.95047L6.92608 14.3342C6.91089 14.4003 6.9148 14.4692 6.93738 14.5331C6.95995 14.597 7.00025 14.6531 7.05355 14.6949C7.10685 14.7367 7.17096 14.7625 7.23837 14.7692C7.30578 14.7759 7.37371 14.7633 7.4342 14.7328L11.4613 12.6306C11.545 12.5869 11.619 12.5265 11.6785 12.4532L17.7241 4.88125L14.253 2.12744ZM9.47066 12.7959L8.39265 11.9351L8.79118 10.4088L10.8655 12.0647L9.47066 12.7959Z" fill="#707786"/>
</svg>
