<svg width="32" height="32" viewBox="0 0 32 32" fill="none" xmlns="http://www.w3.org/2000/svg">
<path d="M27.1993 8.55908L24.883 11.6695L26.9346 11.3386C27.0669 13.3239 26.6037 15.1769 25.6772 16.8314C24.486 18.8829 22.6992 20.3388 20.6476 21.133L19.9858 22.7212C22.7653 21.9271 25.2139 20.1403 26.8022 17.427C27.9272 15.5078 28.3905 13.3239 28.192 11.0077L30.3097 10.6768L27.1993 8.55908Z" fill="url(#paint0_linear)"/>
<path d="M11.1916 23.2505L9.86801 19.6107L8.94151 21.4636C7.22087 20.471 5.89731 19.0812 5.03699 17.3606C3.97814 15.2429 3.71342 12.9266 4.17667 10.8089L3.184 9.41919C2.32368 12.1325 2.45604 15.2429 3.84578 18.0224C4.83845 20.0077 6.42673 21.596 8.41208 22.721L7.55177 24.6402L11.1916 23.2505Z" fill="url(#paint1_linear)"/>
<path d="M30.5817 18.0226V27.5522C30.5817 28.5449 29.7876 29.4052 28.7287 29.4052H2.85299C1.79414 29.4052 1 28.6111 1 27.5522V18.0226C1 17.824 1.13236 17.6917 1.33089 17.6917H1.99267C2.12503 17.6917 2.25739 17.7578 2.32357 17.9564L4.30892 25.5669C4.37509 25.6992 4.50745 25.8316 4.63981 25.8316H27.0081C27.1404 25.8316 27.2728 25.6992 27.339 25.5669L29.3243 17.8902C29.3905 17.7578 29.4567 17.6255 29.6552 17.6255H30.317C30.4494 17.6917 30.5817 17.824 30.5817 18.0226Z" fill="url(#paint2_linear)"/>
<path d="M15.7578 18.6181C20.0706 18.6181 23.5668 15.1219 23.5668 10.809C23.5668 6.49623 20.0706 3 15.7578 3C11.445 3 7.94873 6.49623 7.94873 10.809C7.94873 15.1219 11.445 18.6181 15.7578 18.6181Z" fill="url(#paint3_linear)"/>
<path d="M15.7578 16.8975C19.1204 16.8975 21.8462 14.1716 21.8462 10.8091C21.8462 7.44657 19.1204 4.7207 15.7578 4.7207C12.3953 4.7207 9.66943 7.44657 9.66943 10.8091C9.66943 14.1716 12.3953 16.8975 15.7578 16.8975Z" fill="url(#paint4_linear)"/>
<path d="M15.7578 15.9048C18.5721 15.9048 20.8536 13.6234 20.8536 10.8091C20.8536 7.99481 18.5721 5.71338 15.7578 5.71338C12.9435 5.71338 10.6621 7.99481 10.6621 10.8091C10.6621 13.6234 12.9435 15.9048 15.7578 15.9048Z" fill="url(#paint5_linear)"/>
<path d="M17.4784 11.9341C17.4784 12.5959 17.2137 13.0591 16.6181 13.39C16.4196 13.4562 16.3534 13.5885 16.3534 13.7871C16.3534 14.3165 15.8902 14.5812 15.4931 14.3165C15.2945 14.1841 15.2284 13.9856 15.2284 13.7871C15.2284 13.5885 15.1622 13.4562 14.9637 13.39C14.6328 13.2577 14.4342 12.9929 14.3019 12.662C14.1695 12.3312 14.2357 12.0003 14.5004 11.8679C14.7651 11.6694 15.096 11.8017 15.2946 12.0664C15.4931 12.3973 15.6916 12.4635 16.0225 12.3973C16.221 12.3312 16.3534 12.1326 16.3534 11.9341C16.3534 11.6694 16.221 11.537 16.0225 11.4708C15.9563 11.4708 15.824 11.4047 15.7578 11.4047C15.0298 11.3385 14.4342 10.8752 14.2357 10.1473C14.0372 9.41931 14.3681 8.69135 14.9637 8.29428C15.1622 8.16192 15.2284 8.09574 15.2946 7.83103C15.2946 7.3016 15.824 7.03689 16.1549 7.3016C16.3534 7.43396 16.4196 7.63249 16.4196 7.83103C16.4196 8.02956 16.4858 8.16192 16.6843 8.2281C17.0152 8.36046 17.2137 8.69135 17.3461 8.95606C17.4784 9.28695 17.3461 9.55167 17.0814 9.68402C16.8167 9.81638 16.4858 9.7502 16.3534 9.41931C16.1549 9.08842 15.9563 9.02224 15.6916 9.08842C15.4931 9.1546 15.3607 9.35313 15.3607 9.55167C15.3607 9.81638 15.4931 9.94874 15.6916 10.0149C15.7578 10.0149 15.8902 10.0811 15.9563 10.0811C16.8167 10.2796 17.4784 11.0076 17.4784 11.9341Z" fill="url(#paint6_linear)"/>
<defs>
<linearGradient id="paint0_linear" x1="28.7345" y1="9.21782" x2="21.0727" y2="23.8" gradientUnits="userSpaceOnUse">
<stop stop-color="#9259FF"/>
<stop offset="0.9843" stop-color="#8B57F1" stop-opacity="0"/>
</linearGradient>
<linearGradient id="paint1_linear" x1="1.65632" y1="9.782" x2="9.70237" y2="23.8925" gradientUnits="userSpaceOnUse">
<stop stop-color="#FF0054" stop-opacity="0.1165"/>
<stop offset="1" stop-color="#FF0054"/>
</linearGradient>
<linearGradient id="paint2_linear" x1="15.7878" y1="29.6203" x2="15.7878" y2="17.6283" gradientUnits="userSpaceOnUse">
<stop stop-color="#6A19D5"/>
<stop offset="1" stop-color="#894CFF"/>
</linearGradient>
<linearGradient id="paint3_linear" x1="10.2535" y1="5.26172" x2="21.3217" y2="16.3299" gradientUnits="userSpaceOnUse">
<stop stop-color="#F8B409"/>
<stop offset="0.358" stop-color="#FBC532" stop-opacity="0.642"/>
<stop offset="1" stop-color="#FFE278" stop-opacity="0"/>
</linearGradient>
<linearGradient id="paint4_linear" x1="12.9512" y1="16.1814" x2="18.4309" y2="5.76628" gradientUnits="userSpaceOnUse">
<stop stop-color="#F8C74D"/>
<stop offset="1" stop-color="#FFE278" stop-opacity="0"/>
</linearGradient>
<linearGradient id="paint5_linear" x1="18.2259" y1="15.1936" x2="13.4566" y2="6.50902" gradientUnits="userSpaceOnUse">
<stop stop-color="#F89C09"/>
<stop offset="0.358" stop-color="#FBB632" stop-opacity="0.642"/>
<stop offset="1" stop-color="#FFE278" stop-opacity="0"/>
</linearGradient>
<linearGradient id="paint6_linear" x1="15.7878" y1="7.35282" x2="15.7878" y2="14.4201" gradientUnits="userSpaceOnUse">
<stop stop-color="#FF0054"/>
<stop offset="1" stop-color="#FF0054"/>
</linearGradient>
</defs>
</svg>
