<svg id="Layer_1" data-name="Layer 1" xmlns="http://www.w3.org/2000/svg" xmlns:xlink="http://www.w3.org/1999/xlink" viewBox="0 0 25.62 26.78"><defs><style>.cls-1,.cls-3{fill:none;}.cls-1,.cls-3,.cls-4{stroke-miterlimit:10;}.cls-1{stroke-width:1.79px;stroke:url(#linear-gradient);}.cls-2{fill:#871848;}.cls-3{stroke-width:0.63px;stroke:url(#linear-gradient-2);}.cls-4{fill:#fff;stroke:#17e1c7;stroke-width:0.36px;}.cls-5{fill:url(#linear-gradient-3);}.cls-6{fill:url(#linear-gradient-4);}.cls-7{fill:url(#linear-gradient-5);}</style><linearGradient id="linear-gradient" x1="13.04" y1="8.42" x2="22.93" y2="28.7" gradientTransform="matrix(1, 0, 0, -1, -3.64, 29.84)" gradientUnits="userSpaceOnUse"><stop offset="0.05" stop-color="#871848"/><stop offset="1" stop-color="#fc0053"/></linearGradient><linearGradient id="linear-gradient-2" x1="18.33" y1="24.14" x2="18.33" y2="20.51" gradientTransform="matrix(1, 0, 0, -1, -3.64, 29.84)" gradientUnits="userSpaceOnUse"><stop offset="0" stop-color="#f8b409"/><stop offset="0.29" stop-color="#fbc532" stop-opacity="0.71"/><stop offset="0.79" stop-color="#ffe278" stop-opacity="0.2"/></linearGradient><linearGradient id="linear-gradient-3" x1="12.76" y1="-738.6" x2="12.63" y2="-746.06" gradientTransform="matrix(1, 0, 0, -1, 0, -726)" gradientUnits="userSpaceOnUse"><stop offset="0" stop-color="#803eff"/><stop offset="0.09" stop-color="#8647ff" stop-opacity="0.96"/><stop offset="1" stop-color="#c0a0ff" stop-opacity="0.59"/></linearGradient><linearGradient id="linear-gradient-4" x1="18.31" y1="-736.27" x2="18" y2="-743.65" gradientTransform="matrix(1, 0, 0, -1, 0, -726)" gradientUnits="userSpaceOnUse"><stop offset="0" stop-color="#10b487"/><stop offset="0.19" stop-color="#13cba8" stop-opacity="0.94"/><stop offset="0.4" stop-color="#17e1c7" stop-opacity="0.88"/><stop offset="0.62" stop-color="#19f0dd" stop-opacity="0.81"/><stop offset="0.82" stop-color="#1bfaea" stop-opacity="0.75"/><stop offset="1" stop-color="#1bfdef" stop-opacity="0.7"/></linearGradient><linearGradient id="linear-gradient-5" x1="23.79" y1="-737.75" x2="23.79" y2="-745.4" gradientTransform="matrix(1, 0, 0, -1, 0, -726)" gradientUnits="userSpaceOnUse"><stop offset="0" stop-color="#f8b409"/><stop offset="0.36" stop-color="#fbc532" stop-opacity="0.71"/><stop offset="1" stop-color="#ffe278" stop-opacity="0.2"/></linearGradient></defs><g id="Layer_2" data-name="Layer 2"><g id="Layer_1-2" data-name="Layer 1-2"><circle class="cls-1" cx="14.34" cy="11.28" r="10.38"/><path class="cls-2" d="M3.85,26.68,9.9,20.63a.38.38,0,0,1,.54,0L12,22.15a.38.38,0,0,1,0,.54l-6,6a.77.77,0,0,1-1.09,0h0l-1-1a.74.74,0,0,1,0-1.05Z" transform="translate(-3.64 -2.16)"/><polyline class="cls-3" points="20.32 7.73 14.57 6.04 9.14 9.06"/><circle class="cls-4" cx="9.11" cy="8.83" r="0.97"/><circle class="cls-4" cx="14.52" cy="5.97" r="0.97"/><circle class="cls-4" cx="20.15" cy="7.71" r="0.97"/><path class="cls-5" d="M13.88,14v5.27H13v.85h-.68v-.85H11.5V14h.85V12.88H13V14Z" transform="translate(-3.64 -2.16)"/><path class="cls-6" d="M19.33,11.49h-.84V10.38h-.68v1.11H17v5.27h.85v.85h.68v-.85h.85Z" transform="translate(-3.64 -2.16)"/><path class="cls-7" d="M25,12.9h-.85V11.8h-.68v1.1H22.6v5.28h.85V19h.68v-.85H25Z" transform="translate(-3.64 -2.16)"/></g></g></svg>