<?xml version="1.0" encoding="utf-8"?>
<!-- Generator: Adobe Illustrator 26.0.3, SVG Export Plug-In . SVG Version: 6.00 Build 0)  -->
<svg version="1.1" id="Layer_1" xmlns="http://www.w3.org/2000/svg" xmlns:xlink="http://www.w3.org/1999/xlink" x="0px" y="0px"
	 viewBox="0 0 109.6 137.7" style="enable-background:new 0 0 109.6 137.7;" xml:space="preserve">
<style type="text/css">
	.st0{fill:url(#SVGID_1_);}
	.st1{fill:url(#SVGID_00000164500622377132220070000013995921639557237387_);}
	.st2{fill:url(#SVGID_00000057827907051012307510000018318264016378292370_);}
	.st3{fill:url(#SVGID_00000141440520043013208630000007909785022416894858_);}
	.st4{fill:url(#SVGID_00000109018198890614954490000015991143592320611234_);}
	.st5{fill:url(#SVGID_00000055689615805179158800000008834812944659162510_);}
	.st6{fill:url(#SVGID_00000111168844362731210910000004340334960454557062_);}
	
		.st7{fill:none;stroke:url(#SVGID_00000166645434572847971810000012604640571715756679_);stroke-width:4.6947;stroke-miterlimit:10;}
</style>
<g>
	<g>
		
			<linearGradient id="SVGID_1_" gradientUnits="userSpaceOnUse" x1="54.75" y1="52.4809" x2="54.75" y2="4.241" gradientTransform="matrix(1 0 0 -1 0 137.9683)">
			<stop  offset="0" style="stop-color:#FF0054;stop-opacity:0.1165"/>
			<stop  offset="1" style="stop-color:#FF0054"/>
		</linearGradient>
		<polygon class="st0" points="92,137.7 54.8,119.5 17.5,137.7 17.5,93.4 25,93.4 25,125.7 54.8,111.2 84.5,125.7 84.5,93.4 
			92,93.4 		"/>
	</g>
	<g>
		<g>
			
				<linearGradient id="SVGID_00000013903762450405554900000012780023450146984364_" gradientUnits="userSpaceOnUse" x1="26.6" y1="56.6683" x2="83" y2="56.6683" gradientTransform="matrix(1 0 0 -1 0 137.9683)">
				<stop  offset="0" style="stop-color:#FF0054;stop-opacity:0.1165"/>
				<stop  offset="1" style="stop-color:#FF0054"/>
			</linearGradient>
			<path style="fill:url(#SVGID_00000013903762450405554900000012780023450146984364_);" d="M54.8,89.3c-11.2,0-21.8-5.5-28.2-14.7
				l1.9-1.3c6,8.6,15.8,13.7,26.3,13.7c10.5,0,20.3-5.1,26.3-13.7l1.9,1.3C76.6,83.8,66,89.3,54.8,89.3z"/>
		</g>
		<g>
			
				<linearGradient id="SVGID_00000041253304276534205420000005352575272997733514_" gradientUnits="userSpaceOnUse" x1="26.5393" y1="109.5683" x2="83.0393" y2="109.5683" gradientTransform="matrix(1 0 0 -1 0 137.9683)">
				<stop  offset="0" style="stop-color:#FF0054"/>
				<stop  offset="1" style="stop-color:#FF0054;stop-opacity:0.1165"/>
			</linearGradient>
			<path style="fill:url(#SVGID_00000041253304276534205420000005352575272997733514_);" d="M81.1,36.4c-6-8.6-15.9-13.7-26.3-13.7
				c-10.5,0-20.3,5.1-26.3,13.7l-1.9-1.3c6.5-9.2,17-14.7,28.3-14.7c11.2,0,21.8,5.5,28.2,14.7L81.1,36.4z"/>
		</g>
		<g>
			
				<linearGradient id="SVGID_00000049942008450633344100000003787091804445684412_" gradientUnits="userSpaceOnUse" x1="28.5" y1="82.9683" x2="81.1" y2="82.9683" gradientTransform="matrix(1 0 0 -1 0 137.9683)">
				<stop  offset="0" style="stop-color:#F8B409"/>
				<stop  offset="0.358" style="stop-color:#FBC532;stop-opacity:0.642"/>
				<stop  offset="1" style="stop-color:#FFE278;stop-opacity:0"/>
			</linearGradient>
			<circle style="fill:url(#SVGID_00000049942008450633344100000003787091804445684412_);" cx="54.8" cy="55" r="26.3"/>
			
				<linearGradient id="SVGID_00000149384059831760945900000001059573116860867752_" gradientUnits="userSpaceOnUse" x1="-1677.7213" y1="-1522.9453" x2="-1657.6761" y2="-1488.826" gradientTransform="matrix(0.6732 -0.7394 -0.7394 -0.6732 64.2443 -2191.2102)">
				<stop  offset="0" style="stop-color:#F8C74D"/>
				<stop  offset="1" style="stop-color:#FFE278;stop-opacity:0"/>
			</linearGradient>
			<circle style="fill:url(#SVGID_00000149384059831760945900000001059573116860867752_);" cx="54.8" cy="55" r="20.5"/>
			
				<linearGradient id="SVGID_00000080900785574205107640000005713966940226115234_" gradientUnits="userSpaceOnUse" x1="-4383.3501" y1="-1070.7578" x2="-4366.4736" y2="-1042.0319" gradientTransform="matrix(-0.2454 -0.9694 -0.9694 0.2454 -2042.3477 -3926.6472)">
				<stop  offset="0" style="stop-color:#F89C09"/>
				<stop  offset="0.358" style="stop-color:#FBB632;stop-opacity:0.642"/>
				<stop  offset="1" style="stop-color:#FFE278;stop-opacity:0"/>
			</linearGradient>
			<circle style="fill:url(#SVGID_00000080900785574205107640000005713966940226115234_);" cx="54.8" cy="55" r="17.2"/>
		</g>
	</g>
	<g>
		
			<linearGradient id="SVGID_00000087405160911811081740000011961567063955950774_" gradientUnits="userSpaceOnUse" x1="54.8" y1="28.6021" x2="54.8" y2="136.8763" gradientTransform="matrix(1 0 0 -1 0 137.9683)">
			<stop  offset="0.2807" style="stop-color:#483975"/>
			<stop  offset="1" style="stop-color:#9259FF"/>
		</linearGradient>
		<path style="fill:url(#SVGID_00000087405160911811081740000011961567063955950774_);" d="M54.8,109.6C24.6,109.6,0,85,0,54.8
			S24.6,0,54.8,0s54.8,24.6,54.8,54.8C109.6,85.1,85,109.6,54.8,109.6z M54.8,7.6C28.7,7.6,7.5,28.8,7.5,54.9s21.2,47.3,47.3,47.3
			s47.3-21.2,47.3-47.3S80.9,7.6,54.8,7.6z"/>
	</g>
	
		<linearGradient id="SVGID_00000160190305815971258610000015234540663697802119_" gradientUnits="userSpaceOnUse" x1="-466.9378" y1="-162.2017" x2="-505.522" y2="-181.9737" gradientTransform="matrix(0.9793 -0.2023 -0.2023 -0.9793 507.7242 -224.3099)">
		<stop  offset="0" style="stop-color:#FF0054;stop-opacity:0.1165"/>
		<stop  offset="1" style="stop-color:#FF0054"/>
	</linearGradient>
	
		<polyline style="fill:none;stroke:url(#SVGID_00000160190305815971258610000015234540663697802119_);stroke-width:4.6947;stroke-miterlimit:10;" points="
		46,48.1 56,58.9 86.4,33 	"/>
</g>
</svg>
