<svg width="21" height="21" viewBox="0 0 21 21" fill="none" xmlns="http://www.w3.org/2000/svg">
<path d="M17.6691 20.18H3.50906C3.50906 20.18 3.43906 20.15 3.39906 20.15C2.09906 19.91 1.26906 19.15 0.889061 17.89C0.849061 17.75 0.819062 17.61 0.789062 17.47C0.789062 12.49 0.789062 7.51997 0.789062 2.53997C0.799062 2.49997 0.819063 2.45997 0.829063 2.41997C0.999063 1.64997 1.42906 1.09997 2.14906 0.779966C2.33906 0.699966 2.54906 0.649966 2.73906 0.589966C6.33906 0.589966 9.93906 0.589966 13.5391 0.589966C13.5691 0.599966 13.5991 0.619966 13.6291 0.619966C14.5791 0.819966 15.1891 1.38997 15.4291 2.32997C15.4891 2.54997 15.4891 2.78997 15.5191 3.02997C15.5891 3.02997 15.6591 3.02997 15.7291 3.02997C16.5391 3.02997 17.3491 3.02997 18.1591 3.02997C18.8991 3.02997 19.4991 3.34997 19.9491 3.93997C20.1891 4.24997 20.2991 4.60997 20.3891 4.97997V17.46C20.3891 17.46 20.3591 17.53 20.3591 17.57C20.1391 18.78 19.4491 19.6 18.2991 20.02C18.0991 20.09 17.8891 20.13 17.6791 20.18H17.6691ZM14.8491 18.96C14.8491 18.96 14.8391 18.9 14.8291 18.89C14.4191 18.3 14.2591 17.64 14.2591 16.92C14.2591 12.26 14.2591 7.60997 14.2591 2.94997C14.2591 2.20997 13.8491 1.80997 13.1091 1.80997C9.78906 1.80997 6.45906 1.80997 3.13906 1.80997C2.42906 1.80997 2.00906 2.21997 2.00906 2.92997C2.00906 7.61997 2.00906 12.32 2.00906 17.01C2.00906 18.17 2.78906 18.95 3.95906 18.95C7.52906 18.95 11.0891 18.95 14.6591 18.95C14.7191 18.95 14.7791 18.95 14.8491 18.95V18.96ZM15.4991 4.25997C15.4991 4.30997 15.4991 4.33997 15.4991 4.35997C15.4991 8.61997 15.4991 12.88 15.4991 17.14C15.4991 18.15 16.3391 18.96 17.3391 18.95C18.3491 18.95 19.1691 18.13 19.1691 17.1C19.1691 13.16 19.1691 9.22997 19.1691 5.28997C19.1691 4.67997 18.7291 4.24997 18.1191 4.23997C17.7091 4.23997 17.2891 4.23997 16.8791 4.23997C16.4291 4.23997 15.9791 4.23997 15.5091 4.23997L15.4991 4.25997Z" fill="url(#paint0_linear_8327_522)"/>
<path d="M12.5498 16.42C12.4598 16.65 12.2998 16.77 12.0798 16.77C11.6998 16.77 11.3198 16.77 10.9498 16.77H4.18982C4.11982 16.77 4.03982 16.77 3.96982 16.76C3.71982 16.69 3.54982 16.42 3.58982 16.13C3.61982 15.84 3.82982 15.63 4.09982 15.63C5.33982 15.62 6.56982 15.62 7.80982 15.62H8.10982C9.42982 15.62 10.7498 15.62 12.0598 15.63C12.4498 15.63 12.7098 16.03 12.5598 16.42H12.5498Z" fill="url(#paint1_linear_8327_522)"/>
<path d="M12.5894 13.74C12.5894 14.09 12.3294 14.32 11.9294 14.32H8.18937C7.88937 14.32 7.67936 14.16 7.59936 13.9C7.53936 13.67 7.61936 13.4 7.83936 13.28C7.94936 13.22 8.08937 13.18 8.21937 13.18C8.90937 13.17 9.16937 13.17 9.86937 13.17H11.9294C12.3194 13.18 12.5794 13.4 12.5894 13.74Z" fill="url(#paint2_linear_8327_522)"/>
<path d="M12.5501 11.51C12.4601 11.74 12.2501 11.87 11.9801 11.87H8.24007C7.85007 11.87 7.59008 11.65 7.58008 11.31C7.58008 10.96 7.84007 10.72 8.24007 10.72C9.63007 10.72 10.5801 10.72 11.9601 10.73C12.4101 10.73 12.7001 11.11 12.5501 11.51Z" fill="url(#paint3_linear_8327_522)"/>
<path d="M12.5901 8.86002C12.5801 9.19002 12.3301 9.42002 11.9501 9.42002H8.23008C7.85008 9.42002 7.58008 9.19002 7.58008 8.85002C7.58008 8.51002 7.84008 8.27002 8.23008 8.27002H11.9501C12.3301 8.27002 12.5901 8.51002 12.5901 8.86002Z" fill="url(#paint4_linear_8327_522)"/>
<path d="M6.90904 12.33C6.87904 12.89 6.56904 13.4 5.93904 13.72C5.86904 13.76 5.79903 13.84 5.76903 13.92C5.67903 14.15 5.48904 14.3 5.25904 14.32C5.01904 14.34 4.80904 14.2 4.68904 13.97C4.65904 13.91 4.57904 13.86 4.50904 13.82C4.29904 13.72 4.07903 13.64 3.88903 13.53C3.57903 13.35 3.48904 13.01 3.65904 12.73C3.82904 12.45 4.17904 12.36 4.46904 12.55C4.72904 12.72 5.00904 12.76 5.29904 12.73C5.48904 12.71 5.62903 12.6 5.70903 12.43C5.83903 12.16 5.75904 11.94 5.47904 11.82C5.15904 11.68 4.81903 11.55 4.49903 11.4C3.98903 11.15 3.67903 10.73 3.69903 10.14C3.71903 9.54004 3.99904 9.09004 4.54904 8.81004C4.60904 8.78004 4.65904 8.70004 4.68904 8.63004C4.78904 8.41004 4.99904 8.27004 5.22904 8.28004C5.45904 8.28004 5.68903 8.42004 5.73903 8.64004C5.77903 8.82004 5.89904 8.88004 6.03904 8.94004C6.24904 9.02004 6.40904 9.17004 6.43904 9.40004C6.46904 9.62004 6.40903 9.80004 6.23903 9.93004C6.06903 10.07 5.86904 10.1 5.65904 10.01C5.53904 9.96004 5.41904 9.89004 5.29904 9.86004C5.13904 9.81004 4.96903 9.82004 4.88903 10C4.81903 10.15 4.81904 10.28 4.97904 10.35C5.29904 10.49 5.60904 10.63 5.92904 10.76C6.54904 11.02 6.91904 11.55 6.90904 12.33Z" fill="url(#paint5_linear_8327_522)"/>
<path d="M3.57031 6.71005V3.30005H12.6303V6.71005H3.57031Z" fill="url(#paint6_linear_8327_522)"/>
<defs>
<linearGradient id="paint0_linear_8327_522" x1="10.5891" y1="20.18" x2="10.5891" y2="0.579966" gradientUnits="userSpaceOnUse">
<stop stop-color="#10B487"/>
<stop offset="0.27" stop-color="#14D4B5" stop-opacity="0.87"/>
<stop offset="0.66" stop-color="#19F2E0" stop-opacity="0.74"/>
<stop offset="1" stop-color="#1BFDEF" stop-opacity="0.7"/>
</linearGradient>
<linearGradient id="paint1_linear_8327_522" x1="3.57982" y1="16.2" x2="12.5898" y2="16.2" gradientUnits="userSpaceOnUse">
<stop stop-color="#F8B409"/>
<stop offset="0.63" stop-color="#FCD150" stop-opacity="0.49"/>
<stop offset="1" stop-color="#FFE278" stop-opacity="0.2"/>
</linearGradient>
<linearGradient id="paint2_linear_8327_522" x1="7.57936" y1="13.75" x2="12.5894" y2="13.75" gradientUnits="userSpaceOnUse">
<stop stop-color="#F8B409"/>
<stop offset="0.63" stop-color="#FCD150" stop-opacity="0.49"/>
<stop offset="1" stop-color="#FFE278" stop-opacity="0.2"/>
</linearGradient>
<linearGradient id="paint3_linear_8327_522" x1="7.58008" y1="11.3" x2="12.5901" y2="11.3" gradientUnits="userSpaceOnUse">
<stop stop-color="#F8B409"/>
<stop offset="0.63" stop-color="#FCD150" stop-opacity="0.49"/>
<stop offset="1" stop-color="#FFE278" stop-opacity="0.2"/>
</linearGradient>
<linearGradient id="paint4_linear_8327_522" x1="7.58008" y1="8.85002" x2="12.5901" y2="8.85002" gradientUnits="userSpaceOnUse">
<stop stop-color="#F8B409"/>
<stop offset="0.63" stop-color="#FCD150" stop-opacity="0.49"/>
<stop offset="1" stop-color="#FFE278" stop-opacity="0.2"/>
</linearGradient>
<linearGradient id="paint5_linear_8327_522" x1="3.57904" y1="11.3" x2="6.90904" y2="11.3" gradientUnits="userSpaceOnUse">
<stop stop-color="#FF0054" stop-opacity="0.45"/>
<stop offset="0.22" stop-color="#FF0054" stop-opacity="0.55"/>
<stop offset="0.7" stop-color="#FF0054" stop-opacity="0.82"/>
<stop offset="1" stop-color="#FF0054"/>
</linearGradient>
<linearGradient id="paint6_linear_8327_522" x1="3.57031" y1="5.00005" x2="12.6303" y2="5.00005" gradientUnits="userSpaceOnUse">
<stop stop-color="#803EFF"/>
<stop offset="0.14" stop-color="#894CFF" stop-opacity="0.94"/>
<stop offset="1" stop-color="#C0A0FF" stop-opacity="0.59"/>
</linearGradient>
</defs>
</svg>
