<svg width="30" height="34" viewBox="0 0 30 34" fill="none" xmlns="http://www.w3.org/2000/svg">
<path d="M17.5123 24.8323C22.7076 24.8323 26.9192 20.6207 26.9192 15.4254C26.9192 10.2301 22.7076 6.01855 17.5123 6.01855C12.3171 6.01855 8.10547 10.2301 8.10547 15.4254C8.10547 20.6207 12.3171 24.8323 17.5123 24.8323Z" fill="url(#paint0_linear_4959_18)"/>
<path d="M16.6541 24.7958L14.7088 33.0154L12.6539 26.257L5.68555 29.8188L10.252 21.4166C11.0444 22.3733 12.0178 23.1642 13.1164 23.744C14.215 24.3239 15.4172 24.6813 16.6541 24.7958Z" fill="url(#paint1_linear_4959_18)"/>
<path d="M29.1206 29.8189L22.1522 26.2571L20.0973 33.0154L18.1611 24.7958C19.4001 24.7096 20.6099 24.3797 21.7211 23.8249C22.8323 23.2701 23.823 22.5013 24.6363 21.5627L29.1206 29.8189Z" fill="url(#paint2_linear_4959_18)"/>
<path d="M21.6407 0H4.94578C3.84927 0.00241257 2.79835 0.439057 2.023 1.21441C1.24765 1.98976 0.811006 3.04068 0.808594 4.13719V17.4255C0.8134 18.5213 1.25082 19.5708 2.02565 20.3456C2.80048 21.1205 3.85001 21.5579 4.94578 21.5627H7.229C7.44843 21.5793 7.66892 21.5505 7.87667 21.4779C8.08443 21.4054 8.27495 21.2907 8.43633 21.1411C8.5977 20.9914 8.72645 20.8101 8.81449 20.6084C8.90253 20.4068 8.94799 20.1891 8.94799 19.969C8.94799 19.749 8.90253 19.5313 8.81449 19.3296C8.72645 19.1279 8.5977 18.9466 8.43633 18.797C8.27495 18.6474 8.08443 18.5327 7.87667 18.4601C7.66892 18.3876 7.44843 18.3587 7.229 18.3753H4.94578C4.70356 18.3753 4.47125 18.2791 4.29998 18.1078C4.1287 17.9366 4.0325 17.7043 4.0325 17.462V4.13719C4.0325 3.89497 4.1287 3.66269 4.29998 3.49141C4.47125 3.32014 4.70356 3.2239 4.94578 3.2239H21.6407C21.8829 3.2239 22.1152 3.32014 22.2864 3.49141C22.4577 3.66269 22.554 3.89497 22.554 4.13719V6.23774C22.5373 6.45717 22.5662 6.67769 22.6387 6.88544C22.7113 7.09319 22.826 7.28372 22.9756 7.4451C23.1252 7.60647 23.3065 7.73521 23.5082 7.82325C23.7099 7.91129 23.9276 7.95673 24.1476 7.95673C24.3677 7.95673 24.5854 7.91129 24.7871 7.82325C24.9887 7.73521 25.1701 7.60647 25.3197 7.4451C25.4693 7.28372 25.584 7.09319 25.6565 6.88544C25.7291 6.67769 25.7579 6.45717 25.7413 6.23774V4.13719C25.7414 3.04624 25.3105 1.99941 24.5425 1.22458C23.7745 0.44975 22.7316 0.00963312 21.6407 0Z" fill="url(#paint3_linear_4959_18)"/>
<path d="M16.4988 16.1196C17.7135 14.8136 18.8551 13.5167 20.0789 12.3021C20.4681 11.926 20.9812 11.7052 21.5219 11.681C21.77 11.7103 22.0053 11.8073 22.202 11.9614C22.3986 12.1155 22.5491 12.3207 22.6368 12.5547C22.7245 12.7886 22.7461 13.0422 22.6993 13.2876C22.6525 13.533 22.5389 13.7608 22.3712 13.946C20.7638 15.7725 19.1108 17.5078 17.4486 19.243C17.3236 19.3819 17.1707 19.4929 17 19.5689C16.8293 19.6449 16.6445 19.6842 16.4577 19.6842C16.2708 19.6842 16.086 19.6449 15.9153 19.5689C15.7446 19.4929 15.5918 19.3819 15.4668 19.243C14.5048 18.2567 13.5732 17.249 12.6721 16.2201C12.545 16.0853 12.4473 15.9256 12.3854 15.751C12.3234 15.5764 12.2985 15.3908 12.3123 15.2061C12.326 15.0213 12.3781 14.8415 12.4652 14.678C12.5523 14.5145 12.6726 14.3709 12.8182 14.2565C13.084 14.0143 13.4334 13.8846 13.7928 13.8948C14.1523 13.9051 14.4937 14.0544 14.7453 14.3113C15.3389 14.8501 15.896 15.526 16.4988 16.1196Z" fill="white"/>
<defs>
<linearGradient id="paint0_linear_4959_18" x1="17.5123" y1="5.33359" x2="17.5123" y2="24.9784" gradientUnits="userSpaceOnUse">
<stop stop-color="#FF0054"/>
<stop offset="0.3" stop-color="#FF0054" stop-opacity="0.82"/>
<stop offset="0.78" stop-color="#FF0054" stop-opacity="0.55"/>
<stop offset="1" stop-color="#FF0054" stop-opacity="0.45"/>
</linearGradient>
<linearGradient id="paint1_linear_4959_18" x1="10.6904" y1="22.6222" x2="11.7406" y2="32.8601" gradientUnits="userSpaceOnUse">
<stop stop-color="#F89C09"/>
<stop offset="0.7" stop-color="#FDCE58" stop-opacity="0.29"/>
<stop offset="1" stop-color="#FFE278" stop-opacity="0"/>
</linearGradient>
<linearGradient id="paint2_linear_4959_18" x1="5389.93" y1="4847.59" x2="5403.68" y2="4975.85" gradientUnits="userSpaceOnUse">
<stop stop-color="#F89C09"/>
<stop offset="0.7" stop-color="#FDCE58" stop-opacity="0.29"/>
<stop offset="1" stop-color="#FFE278" stop-opacity="0"/>
</linearGradient>
<linearGradient id="paint3_linear_4959_18" x1="12152.5" y1="9084.56" x2="11841.6" y2="8558.19" gradientUnits="userSpaceOnUse">
<stop stop-color="#633EB3"/>
<stop offset="0.86" stop-color="#7C3EF4"/>
<stop offset="1" stop-color="#803EFF"/>
</linearGradient>
</defs>
</svg>
