<svg width="38" height="33" viewBox="0 0 38 33" fill="none" xmlns="http://www.w3.org/2000/svg">
<path d="M33.1283 11.76C33.7993 11.7983 34.4672 11.8785 35.1283 12C35.7386 12.1469 36.2824 12.4931 36.6736 12.984C37.0649 13.4749 37.2812 14.0823 37.2882 14.71C37.2882 16.4 37.2882 18.09 37.2882 19.77C37.2804 20.5304 36.9742 21.2574 36.4355 21.7942C35.8968 22.3311 35.1688 22.6348 34.4083 22.64C33.8183 22.64 33.2183 22.64 32.5783 22.64C32.5083 23.44 32.4883 24.17 32.3683 24.88C32.148 26.4398 31.3803 27.8705 30.2025 28.9165C29.0246 29.9625 27.5132 30.5556 25.9383 30.59C25.4883 30.59 25.0482 30.59 24.5982 30.59C24.2318 30.5022 23.8471 30.5322 23.4987 30.6759C23.1504 30.8195 22.8563 31.0694 22.6583 31.39C22.4714 31.5754 22.2498 31.722 22.0061 31.8215C21.7624 31.921 21.5015 31.9715 21.2383 31.97C19.8383 32.04 18.4382 32.02 17.0382 31.97C15.4782 31.97 14.9282 31.17 14.9482 29.22C14.9482 27.72 15.6283 27.06 17.1083 27.05C18.5883 27.04 19.8483 26.98 21.2183 27.05C21.8033 27.0819 22.3541 27.3358 22.7582 27.76C22.911 27.9663 23.1123 28.1318 23.3443 28.2417C23.5763 28.3516 23.8319 28.4025 24.0883 28.39C28.2983 28.75 30.5282 26.48 30.2582 22.22C30.0882 19.55 30.2582 16.87 30.2582 14.22C30.2551 11.5032 29.2609 8.88081 27.4623 6.84465C25.6636 4.80849 23.1839 3.49838 20.4883 3.15999C17.6864 2.76051 14.8385 3.45631 12.5365 5.10271C10.2345 6.74911 8.65567 9.21941 8.12827 12C7.89911 13.5724 7.80541 15.1616 7.84824 16.75C7.84824 18.22 7.84824 19.68 7.84824 21.15C7.87557 21.3583 7.85501 21.57 7.78809 21.7691C7.72117 21.9682 7.60967 22.1494 7.4621 22.2989C7.31454 22.4484 7.13479 22.5623 6.93656 22.6318C6.73833 22.7013 6.52685 22.7246 6.31824 22.7C5.48824 22.7 4.65826 22.7 3.83826 22.7C3.44882 22.6988 3.06354 22.6197 2.70511 22.4674C2.34669 22.3151 2.02235 22.0926 1.7512 21.8131C1.48004 21.5335 1.26756 21.2026 1.12623 20.8397C0.984895 20.4768 0.917587 20.0893 0.928258 19.7C0.928258 18.11 0.928258 16.52 0.928258 14.92C0.909005 14.5286 0.970399 14.1373 1.10865 13.7706C1.2469 13.4039 1.45904 13.0695 1.73191 12.7882C2.00478 12.5069 2.33258 12.2847 2.69492 12.1353C3.05726 11.986 3.44642 11.9127 3.83826 11.92C4.73826 11.92 5.04826 11.67 5.27826 10.78C6.06385 7.6914 7.86279 4.95562 10.3872 3.01042C12.9116 1.06523 16.0156 0.0230561 19.2024 0.0507073C22.3892 0.0783585 25.4746 1.17424 27.9649 3.16295C30.4552 5.15166 32.2064 7.91823 32.9383 11.02C32.9883 11.23 33.0583 11.47 33.1283 11.76Z" fill="url(#paint0_linear_4959_17)"/>
<path d="M17.8385 16.89C19.3585 15.25 20.7885 13.63 22.3285 12.11C22.8126 11.632 23.4587 11.3536 24.1385 11.33C24.4477 11.3702 24.74 11.4942 24.9838 11.6886C25.2276 11.8829 25.4136 12.1402 25.5217 12.4327C25.6298 12.7251 25.6559 13.0415 25.5972 13.3477C25.5385 13.654 25.3972 13.9383 25.1885 14.17C23.1885 16.42 21.1085 18.63 19.0185 20.81C18.8594 20.9802 18.6661 21.115 18.4514 21.2056C18.2367 21.2962 18.0054 21.3406 17.7724 21.3359C17.5394 21.3312 17.31 21.2775 17.0991 21.1783C16.8883 21.079 16.7007 20.9365 16.5485 20.76C15.3485 19.5266 14.1818 18.2666 13.0485 16.98C12.8896 16.8105 12.7673 16.61 12.6893 16.3912C12.6113 16.1723 12.5793 15.9397 12.5953 15.7079C12.6113 15.4761 12.6748 15.2501 12.7821 15.044C12.8893 14.8379 13.0379 14.6561 13.2185 14.51C13.552 14.2052 13.991 14.042 14.4427 14.0551C14.8943 14.0681 15.3232 14.2564 15.6385 14.58C16.3885 15.3 17.0785 16.09 17.8385 16.89Z" fill="#FF0054"/>
<defs>
<linearGradient id="paint0_linear_4959_17" x1="19.4183" y1="32.56" x2="18.7182" y2="0.809974" gradientUnits="userSpaceOnUse">
<stop stop-color="#633EB3"/>
<stop offset="0.86" stop-color="#7C3EF4"/>
<stop offset="1" stop-color="#803EFF"/>
</linearGradient>
</defs>
</svg>
