<svg width="32" height="37" viewBox="0 0 32 37" fill="none" xmlns="http://www.w3.org/2000/svg">
<path fill-rule="evenodd" clip-rule="evenodd" d="M8.15939 5H28.2021V25.856C28.1657 26.4394 27.3581 26.453 26.485 26.4168H7.86108C7.2796 26.4168 6.72194 26.6322 6.31077 27.0156C5.8996 27.3989 5.66861 27.9189 5.66861 28.4611C5.66861 29.0032 5.8996 29.5232 6.31077 29.9065C6.72194 30.2899 7.2796 30.5053 7.86108 30.5053H27.2829V28.3299H29V31.0955C28.9969 31.3345 28.8936 31.5628 28.7124 31.7318C28.5311 31.9008 28.2862 31.9971 28.0299 32H7.94839C4.39532 31.9457 4 31.6653 4 29.0807V8.87814C4.00256 7.85033 4.44161 6.8653 5.22109 6.13852C6.00057 5.41174 7.05704 5.00239 8.15939 5Z" fill="url(#paint0_linear_7830_464)"/>
<path fill-rule="evenodd" clip-rule="evenodd" d="M16.5023 22.7715L10.0801 16.5461H14.2128V10.7549H18.7893V16.5461H22.922L16.5023 22.7715Z" fill="url(#paint1_linear_7830_464)"/>
<defs>
<linearGradient id="paint0_linear_7830_464" x1="16.5024" y1="32.009" x2="16.5024" y2="5" gradientUnits="userSpaceOnUse">
<stop stop-color="#FF0054" stop-opacity="0.5"/>
<stop offset="0.09" stop-color="#FF0054" stop-opacity="0.5"/>
<stop offset="0.24" stop-color="#FF0054" stop-opacity="0.5"/>
<stop offset="0.42" stop-color="#FF0054" stop-opacity="0.5"/>
<stop offset="0.62" stop-color="#FF0054" stop-opacity="0.65"/>
<stop offset="0.84" stop-color="#FF0054" stop-opacity="0.81"/>
<stop offset="1" stop-color="#FF0054"/>
</linearGradient>
<linearGradient id="paint1_linear_7830_464" x1="16.5023" y1="22.7715" x2="16.5023" y2="10.7549" gradientUnits="userSpaceOnUse">
<stop stop-color="#F8B409"/>
<stop offset="0.63" stop-color="#FCD150" stop-opacity="0.7"/>
<stop offset="1" stop-color="#FFE278" stop-opacity="0.4"/>
</linearGradient>
</defs>
</svg>
