<svg width="92" height="61" viewBox="0 0 92 61" fill="none" xmlns="http://www.w3.org/2000/svg">
<mask id="mask0" mask-type="alpha" maskUnits="userSpaceOnUse" x="0" y="0" width="92" height="61">
<rect width="92" height="61" rx="8" fill="#C4C4C4"/>
</mask>
<g mask="url(#mask0)">
<path d="M94 -1H-1V62.3333H94V-1Z" fill="white"/>
<path d="M46.5006 37.7039C50.387 37.7039 53.5376 34.5534 53.5376 30.667C53.5376 26.7806 50.387 23.63 46.5006 23.63C42.6142 23.63 39.4636 26.7806 39.4636 30.667C39.4636 34.5534 42.6142 37.7039 46.5006 37.7039Z" fill="#4B0082"/>
<path d="M46.499 50.4676C57.4351 50.4676 66.3006 41.6021 66.3006 30.666C66.3006 19.73 57.4351 10.8645 46.499 10.8645C35.5629 10.8645 26.6974 19.73 26.6974 30.666C26.6974 41.6021 35.5629 50.4676 46.499 50.4676Z" fill="#BC002D"/>
</g>
</svg>
