<svg width="1201" height="178" viewBox="0 0 1201 178" fill="none" xmlns="http://www.w3.org/2000/svg">
<path d="M1200.5 128.057V129.249L1143.71 177.607L1143.01 177.011L1200.5 128.057ZM1200.5 110.348V111.54L1122.81 177.692L1122.11 177.096L1200.5 110.348ZM1200.5 92.5548V93.7467L1102.01 177.607L1101.31 177.011L1200.5 92.5548ZM1200.5 74.7612V75.9531L1081.12 177.607L1080.42 177.011L1200.5 74.7612ZM1200.5 57.0526V58.2446L1060.22 177.692L1059.52 177.096L1200.5 57.0526ZM1200.5 39.259V40.4509L1039.42 177.607L1038.72 177.011L1200.5 39.259ZM1200.5 21.4653V22.6573L1018.52 177.607L1017.82 177.011L1200.5 21.4653ZM1200.5 3.67169V4.94875L997.626 177.692L996.926 177.096L1200.5 3.67169ZM1183.2 0.691895L1183.9 1.28785L976.829 177.607L976.129 177.011L1183.2 0.691895ZM1162.3 0.691895L1163 1.28785L955.932 177.607L955.232 177.011L1162.3 0.691895ZM1141.41 0.691895L1142.11 1.28785L935.034 177.607L934.335 177.011L1141.41 0.691895ZM1120.61 0.691895L1121.31 1.28785L914.237 177.607L913.537 177.011L1120.61 0.691895ZM1099.71 0.691895L1100.41 1.28785L893.34 177.607L892.64 177.011L1099.71 0.691895ZM1078.82 0.691895L1079.52 1.28785L872.443 177.607L871.743 177.011L1078.82 0.691895ZM1058.02 0.691895L1058.72 1.28785L851.545 177.607L850.845 177.011L1058.02 0.691895ZM1037.12 0.691895L1037.82 1.28785L830.748 177.607L830.048 177.011L1037.12 0.691895ZM1016.22 0.691895L1016.92 1.28785L809.851 177.607L809.151 177.011L1016.22 0.691895ZM995.427 0.691895L996.127 1.28785L789.053 177.607L788.354 177.011L995.427 0.691895ZM974.529 0.691895L975.229 1.28785L768.156 177.607L767.456 177.011L974.529 0.691895ZM953.632 0.691895L954.332 1.28785L747.259 177.607L746.559 177.011L953.632 0.691895ZM932.735 0.691895L933.535 1.28785L726.462 177.607L725.762 177.011L932.735 0.691895ZM911.937 0.691895L912.637 1.28785L705.564 177.607L704.864 177.011L911.937 0.691895ZM891.04 0.691895L891.74 1.28785L684.667 177.607L683.967 177.011L891.04 0.691895ZM870.143 0.691895L870.843 1.28785L663.77 177.607L663.07 177.011L870.143 0.691895ZM849.346 0.691895L850.046 1.28785L642.972 177.607L642.273 177.011L849.346 0.691895ZM828.448 0.691895L829.148 1.28785L622.075 177.607L621.375 177.011L828.448 0.691895ZM807.551 0.691895L808.251 1.28785L601.178 177.607L600.478 177.011L807.551 0.691895ZM786.754 0.691895L787.454 1.28785L580.381 177.607L579.681 177.011L786.754 0.691895ZM765.856 0.691895L766.556 1.28785L559.483 177.607L558.783 177.011L765.856 0.691895ZM744.959 0.691895L745.659 1.28785L538.586 177.607L537.886 177.011L744.959 0.691895ZM724.062 0.691895L724.762 1.28785L517.689 177.607L516.989 177.011L724.062 0.691895ZM703.265 0.691895L703.964 1.28785L496.891 177.607L496.191 177.011L703.265 0.691895ZM682.367 0.691895L683.067 1.28785L475.994 177.607L475.294 177.011L682.367 0.691895ZM661.57 0.691895L662.27 1.28785L455.197 177.607L454.497 177.011L661.57 0.691895ZM640.673 0.691895L641.373 1.28785L434.3 177.607L433.6 177.011L640.673 0.691895ZM619.775 0.691895L620.475 1.28785L413.402 177.607L412.702 177.011L619.775 0.691895ZM598.878 0.691895L599.578 1.28785L392.505 177.607L391.805 177.011L598.878 0.691895ZM578.081 0.691895L578.781 1.28785L371.608 177.607L370.908 177.011L578.081 0.691895ZM557.184 0.691895L557.883 1.28785L350.81 177.607L350.11 177.011L557.184 0.691895ZM536.286 0.691895L536.986 1.28785L329.913 177.607L329.213 177.011L536.286 0.691895ZM515.489 0.691895L516.189 1.28785L309.116 177.607L308.416 177.011L515.489 0.691895ZM494.592 0.691895L495.292 1.28785L288.218 177.607L287.519 177.011L494.592 0.691895ZM473.694 0.691895L474.394 1.28785L267.321 177.607L266.621 177.011L473.694 0.691895ZM452.797 0.691895L453.597 1.28785L246.524 177.607L245.824 177.011L452.797 0.691895ZM432 0.691895L432.7 1.28785L225.627 177.607L224.927 177.011L432 0.691895ZM411.103 0.691895L411.802 1.28785L204.729 177.607L204.029 177.011L411.103 0.691895ZM390.205 0.691895L390.905 1.28785L183.832 177.607L183.132 177.011L390.205 0.691895ZM369.408 0.691895L370.108 1.28785L163.035 177.607L162.335 177.011L369.408 0.691895ZM348.511 0.691895L349.211 1.28785L142.137 177.607L141.438 177.011L348.511 0.691895ZM327.613 0.691895L328.313 1.28785L121.24 177.607L120.54 177.011L327.613 0.691895ZM306.816 0.691895L307.516 1.28785L100.443 177.607L99.743 177.011L306.816 0.691895ZM285.919 0.691895L286.619 1.28785L79.5456 177.607L78.8456 177.011L285.919 0.691895ZM265.022 0.691895L265.721 1.28785L58.6483 177.607L57.9485 177.011L265.022 0.691895ZM244.124 0.691895L244.824 1.28785L37.751 177.607L37.0512 177.011L244.124 0.691895ZM223.327 0.691895L224.027 1.28785L16.9538 177.607L16.2538 177.011L223.327 0.691895ZM202.43 0.691895L203.13 1.28785L-3.94352 177.607L-4.64351 177.011L202.43 0.691895ZM181.632 0.691895L182.332 1.28785L-24.7409 177.607L-25.4407 177.011L181.632 0.691895ZM160.735 0.691895L161.435 1.28785L-45.6382 177.607L-46.338 177.011L160.735 0.691895ZM139.838 0.691895L140.538 1.28785L-66.5354 177.607L-67.2354 177.011L139.838 0.691895ZM118.941 0.691895L119.64 1.28785L-87.4327 177.607L-88.1327 177.011L118.941 0.691895ZM98.1432 0.691895L98.8431 1.28785L-108.33 177.607L-109.03 177.011L98.1432 0.691895ZM77.2459 0.691895L77.9459 1.28785L-129.127 177.607L-129.827 177.011L77.2459 0.691895ZM56.3486 0.691895L57.0486 1.28785L-150.025 177.607L-150.725 177.011L56.3486 0.691895ZM35.5513 0.691895L36.2512 1.28785L-170.822 177.607L-171.522 177.011L35.5513 0.691895ZM14.654 0.691895L15.3539 1.28785L-191.719 177.607L-192.419 177.011L14.654 0.691895ZM-6.24327 0.691895L-5.54329 1.28785L-212.616 177.607L-213.316 177.011L-6.24327 0.691895ZM-27.1406 0.691895L-26.4406 1.28785L-233.514 177.607L-234.214 177.011L-27.1406 0.691895ZM-47.9378 0.691895L-47.2379 1.28785L-254.311 177.607L-255.011 177.011L-47.9378 0.691895ZM-68.8351 0.691895L-68.1353 1.28785L-275.208 177.607L-275.908 177.011L-68.8351 0.691895ZM-89.7324 0.691895L-89.0324 1.28785L-296.106 177.607L-296.806 177.011L-89.7324 0.691895ZM-110.53 0.691895L-109.83 1.28785L-316.903 177.607L-317.603 177.011L-110.53 0.691895ZM-131.427 0.691895L-130.727 1.28785L-337.8 177.607L-338.5 177.011L-131.427 0.691895ZM1200.5 153.598V154.79L1173.7 177.607L1173 177.011L1200.5 153.598Z" fill="url(#paint0_linear_8876_992)"/>
<path d="M1200.5 128.057V129.249L1143.71 177.607L1143.01 177.011L1200.5 128.057ZM1200.5 110.348V111.54L1122.81 177.692L1122.11 177.096L1200.5 110.348ZM1200.5 92.5548V93.7467L1102.01 177.607L1101.31 177.011L1200.5 92.5548ZM1200.5 74.7612V75.9531L1081.12 177.607L1080.42 177.011L1200.5 74.7612ZM1200.5 57.0526V58.2446L1060.22 177.692L1059.52 177.096L1200.5 57.0526ZM1200.5 39.259V40.4509L1039.42 177.607L1038.72 177.011L1200.5 39.259ZM1200.5 21.4653V22.6573L1018.52 177.607L1017.82 177.011L1200.5 21.4653ZM1200.5 3.67169V4.94875L997.626 177.692L996.926 177.096L1200.5 3.67169ZM1183.2 0.691895L1183.9 1.28785L976.829 177.607L976.129 177.011L1183.2 0.691895ZM1162.3 0.691895L1163 1.28785L955.932 177.607L955.232 177.011L1162.3 0.691895ZM1141.41 0.691895L1142.11 1.28785L935.034 177.607L934.335 177.011L1141.41 0.691895ZM1120.61 0.691895L1121.31 1.28785L914.237 177.607L913.537 177.011L1120.61 0.691895ZM1099.71 0.691895L1100.41 1.28785L893.34 177.607L892.64 177.011L1099.71 0.691895ZM1078.82 0.691895L1079.52 1.28785L872.443 177.607L871.743 177.011L1078.82 0.691895ZM1058.02 0.691895L1058.72 1.28785L851.545 177.607L850.845 177.011L1058.02 0.691895ZM1037.12 0.691895L1037.82 1.28785L830.748 177.607L830.048 177.011L1037.12 0.691895ZM1016.22 0.691895L1016.92 1.28785L809.851 177.607L809.151 177.011L1016.22 0.691895ZM995.427 0.691895L996.127 1.28785L789.053 177.607L788.354 177.011L995.427 0.691895ZM974.529 0.691895L975.229 1.28785L768.156 177.607L767.456 177.011L974.529 0.691895ZM953.632 0.691895L954.332 1.28785L747.259 177.607L746.559 177.011L953.632 0.691895ZM932.735 0.691895L933.535 1.28785L726.462 177.607L725.762 177.011L932.735 0.691895ZM911.937 0.691895L912.637 1.28785L705.564 177.607L704.864 177.011L911.937 0.691895ZM891.04 0.691895L891.74 1.28785L684.667 177.607L683.967 177.011L891.04 0.691895ZM870.143 0.691895L870.843 1.28785L663.77 177.607L663.07 177.011L870.143 0.691895ZM849.346 0.691895L850.046 1.28785L642.972 177.607L642.273 177.011L849.346 0.691895ZM828.448 0.691895L829.148 1.28785L622.075 177.607L621.375 177.011L828.448 0.691895ZM807.551 0.691895L808.251 1.28785L601.178 177.607L600.478 177.011L807.551 0.691895ZM786.754 0.691895L787.454 1.28785L580.381 177.607L579.681 177.011L786.754 0.691895ZM765.856 0.691895L766.556 1.28785L559.483 177.607L558.783 177.011L765.856 0.691895ZM744.959 0.691895L745.659 1.28785L538.586 177.607L537.886 177.011L744.959 0.691895ZM724.062 0.691895L724.762 1.28785L517.689 177.607L516.989 177.011L724.062 0.691895ZM703.265 0.691895L703.964 1.28785L496.891 177.607L496.191 177.011L703.265 0.691895ZM682.367 0.691895L683.067 1.28785L475.994 177.607L475.294 177.011L682.367 0.691895ZM661.57 0.691895L662.27 1.28785L455.197 177.607L454.497 177.011L661.57 0.691895ZM640.673 0.691895L641.373 1.28785L434.3 177.607L433.6 177.011L640.673 0.691895ZM619.775 0.691895L620.475 1.28785L413.402 177.607L412.702 177.011L619.775 0.691895ZM598.878 0.691895L599.578 1.28785L392.505 177.607L391.805 177.011L598.878 0.691895ZM578.081 0.691895L578.781 1.28785L371.608 177.607L370.908 177.011L578.081 0.691895ZM557.184 0.691895L557.883 1.28785L350.81 177.607L350.11 177.011L557.184 0.691895ZM536.286 0.691895L536.986 1.28785L329.913 177.607L329.213 177.011L536.286 0.691895ZM515.489 0.691895L516.189 1.28785L309.116 177.607L308.416 177.011L515.489 0.691895ZM494.592 0.691895L495.292 1.28785L288.218 177.607L287.519 177.011L494.592 0.691895ZM473.694 0.691895L474.394 1.28785L267.321 177.607L266.621 177.011L473.694 0.691895ZM452.797 0.691895L453.597 1.28785L246.524 177.607L245.824 177.011L452.797 0.691895ZM432 0.691895L432.7 1.28785L225.627 177.607L224.927 177.011L432 0.691895ZM411.103 0.691895L411.802 1.28785L204.729 177.607L204.029 177.011L411.103 0.691895ZM390.205 0.691895L390.905 1.28785L183.832 177.607L183.132 177.011L390.205 0.691895ZM369.408 0.691895L370.108 1.28785L163.035 177.607L162.335 177.011L369.408 0.691895ZM348.511 0.691895L349.211 1.28785L142.137 177.607L141.438 177.011L348.511 0.691895ZM327.613 0.691895L328.313 1.28785L121.24 177.607L120.54 177.011L327.613 0.691895ZM306.816 0.691895L307.516 1.28785L100.443 177.607L99.743 177.011L306.816 0.691895ZM285.919 0.691895L286.619 1.28785L79.5456 177.607L78.8456 177.011L285.919 0.691895ZM265.022 0.691895L265.721 1.28785L58.6483 177.607L57.9485 177.011L265.022 0.691895ZM244.124 0.691895L244.824 1.28785L37.751 177.607L37.0512 177.011L244.124 0.691895ZM223.327 0.691895L224.027 1.28785L16.9538 177.607L16.2538 177.011L223.327 0.691895ZM202.43 0.691895L203.13 1.28785L-3.94352 177.607L-4.64351 177.011L202.43 0.691895ZM181.632 0.691895L182.332 1.28785L-24.7409 177.607L-25.4407 177.011L181.632 0.691895ZM160.735 0.691895L161.435 1.28785L-45.6382 177.607L-46.338 177.011L160.735 0.691895ZM139.838 0.691895L140.538 1.28785L-66.5354 177.607L-67.2354 177.011L139.838 0.691895ZM118.941 0.691895L119.64 1.28785L-87.4327 177.607L-88.1327 177.011L118.941 0.691895ZM98.1432 0.691895L98.8431 1.28785L-108.33 177.607L-109.03 177.011L98.1432 0.691895ZM77.2459 0.691895L77.9459 1.28785L-129.127 177.607L-129.827 177.011L77.2459 0.691895ZM56.3486 0.691895L57.0486 1.28785L-150.025 177.607L-150.725 177.011L56.3486 0.691895ZM35.5513 0.691895L36.2512 1.28785L-170.822 177.607L-171.522 177.011L35.5513 0.691895ZM14.654 0.691895L15.3539 1.28785L-191.719 177.607L-192.419 177.011L14.654 0.691895ZM-6.24327 0.691895L-5.54329 1.28785L-212.616 177.607L-213.316 177.011L-6.24327 0.691895ZM-27.1406 0.691895L-26.4406 1.28785L-233.514 177.607L-234.214 177.011L-27.1406 0.691895ZM-47.9378 0.691895L-47.2379 1.28785L-254.311 177.607L-255.011 177.011L-47.9378 0.691895ZM-68.8351 0.691895L-68.1353 1.28785L-275.208 177.607L-275.908 177.011L-68.8351 0.691895ZM-89.7324 0.691895L-89.0324 1.28785L-296.106 177.607L-296.806 177.011L-89.7324 0.691895ZM-110.53 0.691895L-109.83 1.28785L-316.903 177.607L-317.603 177.011L-110.53 0.691895ZM-131.427 0.691895L-130.727 1.28785L-337.8 177.607L-338.5 177.011L-131.427 0.691895ZM1200.5 153.598V154.79L1173.7 177.607L1173 177.011L1200.5 153.598Z" fill="url(#paint1_linear_8876_992)"/>
<defs>
<linearGradient id="paint0_linear_8876_992" x1="431" y1="0.691895" x2="431" y2="177.777" gradientUnits="userSpaceOnUse">
<stop stop-color="#EEE9F9"/>
<stop offset="1" stop-color="white" stop-opacity="0"/>
</linearGradient>
<linearGradient id="paint1_linear_8876_992" x1="-155.824" y1="49.2202" x2="670.069" y2="49.2202" gradientUnits="userSpaceOnUse">
<stop stop-color="white"/>
<stop offset="1" stop-color="white" stop-opacity="0"/>
</linearGradient>
</defs>
</svg>
