<?xml version="1.0" encoding="UTF-8"?><svg id="Layer_2" xmlns="http://www.w3.org/2000/svg" xmlns:xlink="http://www.w3.org/1999/xlink" viewBox="0 0 352.53 365.1"><defs><style>.cls-1{fill:url(#linear-gradient-2);}.cls-2{fill:url(#linear-gradient-3);}.cls-3{fill:#d40053;}.cls-4{fill:url(#linear-gradient);fill-rule:evenodd;}</style><linearGradient id="linear-gradient" x1="176.26" y1="365.1" x2="176.26" y2="0" gradientUnits="userSpaceOnUse"><stop offset="0" stop-color="#9259ff"/><stop offset="1" stop-color="#483975"/></linearGradient><linearGradient id="linear-gradient-2" x1="242.07" y1="337.74" x2="242.07" y2="257.31" xlink:href="#linear-gradient"/><linearGradient id="linear-gradient-3" x1="117.4" y1="195.16" x2="235.13" y2="195.16" gradientUnits="userSpaceOnUse"><stop offset="0" stop-color="#ffe278" stop-opacity="0"/><stop offset=".64" stop-color="#fbb632" stop-opacity=".64"/><stop offset="1" stop-color="#f89c09"/></linearGradient></defs><g id="Layer_1-2"><path class="cls-4" d="M322.86,351.85c10.3-.02,18.64-10.76,18.65-24.01V111.66H11.02v216.18c.01,13.25,8.36,24,18.65,24.01h293.19ZM322.86,36.86h-18.19v-9.56C304.67,12.23,294.29,0,281.48,0c-12.81,0-23.19,12.22-23.2,27.29h0v9.57h-58.82v-9.56c0-15.08-10.39-27.31-23.2-27.31s-23.2,12.22-23.2,27.31v9.56h-58.82v-9.56C94.25,12.23,83.86,0,71.05,0s-23.19,12.22-23.19,27.3v9.56h-18.19C13.29,36.89.02,52.51,0,71.79v258.39c.02,19.28,13.29,34.9,29.67,34.93h293.19c16.38-.03,29.65-15.65,29.66-34.93V71.79c-.02-19.28-13.29-34.9-29.66-34.93h0ZM83.23,50.04c.05,6.67-5.36,12.12-12.08,12.17-6.72.05-12.22-5.32-12.27-11.99,0-.06,0-.12,0-.18v-27.04c-.05-6.67,5.36-12.12,12.08-12.17,6.72-.05,12.22,5.32,12.27,11.99,0,.06,0,.12,0,.18v27.04h0ZM188.44,50.04c0,6.67-5.45,12.08-12.18,12.08s-12.18-5.41-12.18-12.08v-27.04c0-6.67,5.45-12.08,12.18-12.08s12.18,5.41,12.18,12.08v27.04h0ZM293.65,50.04c0,6.67-5.45,12.08-12.17,12.08s-12.18-5.4-12.18-12.07h0v-27.04c0-6.67,5.45-12.08,12.17-12.08,6.72,0,12.18,5.4,12.18,12.07h0v27.04Z"/><path class="cls-1" d="M242.07,257.31c-22.15,0-40.21,18.06-40.21,40.21s18.06,40.21,40.21,40.21,40.21-18.06,40.21-40.21-18.06-40.21-40.21-40.21ZM251.94,307.39c-.66.73-1.61,1.1-2.56,1.1s-1.9-.37-2.56-1.1l-7.31-7.31c-.73-.66-1.1-1.61-1.1-2.56v-21.94c0-2.05,1.61-3.66,3.66-3.66s3.66,1.61,3.66,3.66v20.4l6.21,6.29c1.46,1.39,1.46,3.73,0,5.12Z"/><path class="cls-3" d="M245.72,217.1v33.05c-1.17-.07-2.41-.15-3.66-.15s-2.49.07-3.66.15c-8.04.59-15.57,3.22-21.94,7.38-2.63,1.68-5.12,3.66-7.31,5.85v-46.28c0-2.05,1.61-3.66,3.66-3.66h29.25c2.05,0,3.66,1.61,3.66,3.66Z"/><path class="cls-3" d="M176.26,125.7c-28.66,0-54.69,11.41-73.78,29.98h-8.92c-2.05,0-3.66,1.61-3.66,3.66s1.61,3.66,3.66,3.66h2.05c-15.87,18.57-25.37,42.55-25.37,68.73,0,31.95,14.18,60.61,36.56,80.06,2.34,2.05,4.75,3.95,7.31,5.78,6.73,4.9,14.11,9.07,21.94,12.28,2.41.95,4.83,1.9,7.31,2.63,4.75,1.61,9.65,2.85,14.62,3.66,2.41.44,4.83.8,7.31,1.1,3.58.29,7.24.51,10.97.51s7.38-.22,10.97-.51c2.49-.29,4.9-.66,7.31-1.1,5.26-.88,10.31-2.19,15.28-3.87-2.05-1.75-3.88-3.8-5.48-6-3.22,1.02-6.43,1.83-9.8,2.41v-82.33c0-2.05-1.61-3.66-3.66-3.66h-29.25c-2.05,0-3.66,1.61-3.66,3.66v82.33c-5.05-.88-9.87-2.19-14.62-3.88v-93.08c0-2.05-1.61-3.66-3.66-3.66h-29.25c-2.05,0-3.66,1.61-3.66,3.66v70.05c-18.06-17.91-29.25-42.7-29.25-70.05,0-23.84,8.55-45.77,22.67-62.81v.73c0,2.05,1.61,3.66,3.66,3.66s3.66-1.61,3.66-3.66v-8.63c17.77-17.33,42.04-28,68.73-28,54.4,0,98.71,44.31,98.71,98.71,0,9.8-1.39,19.16-4.09,28.08,2.19,1.61,4.17,3.44,5.92,5.48,3.58-10.53,5.48-21.79,5.48-33.56,0-58.49-47.53-106.02-106.02-106.02Z"/><path class="cls-2" d="M231.2,167.69h-15.7c-2.17,0-3.92,1.76-3.92,3.92s1.76,3.92,3.92,3.92h5.09l-44.42,38.07-36.7-29.36c-1.56-1.24-3.81-1.11-5.23.29l-15.7,15.7c-1.53,1.53-1.53,4.02,0,5.55s4.02,1.53,5.55,0l13.21-13.21,36.5,29.2c.72.57,1.59.86,2.45.86.91,0,1.82-.31,2.55-.94l48.46-41.54v7.16c0,2.17,1.76,3.92,3.92,3.92s3.92-1.76,3.92-3.92v-15.7c0-2.17-1.76-3.92-3.92-3.92Z"/></g></svg>