<svg width="285" height="128" viewBox="0 0 285 128" fill="none" xmlns="http://www.w3.org/2000/svg">
<rect x="0.34375" y="0.785156" width="284.541" height="126.23" rx="10" fill="#454762"/>
<path d="M52.4062 30.9199H62.5305V32.8669H58.6366V43.3806H56.3002V32.8669H52.4062V30.9199ZM61.9464 34.2298H63.8934V35.9821C63.8934 35.7874 64.0881 35.5927 64.2828 35.2033C64.4775 34.8139 64.6722 34.8139 64.8669 34.6192C65.0616 34.4245 65.451 34.2298 65.6457 34.2298C65.8404 34.0351 66.2298 34.0351 66.6192 34.0351H67.2033V35.9821H66.4245C66.0351 35.9821 65.8404 35.9821 65.451 36.1768C65.0616 36.3715 64.8669 36.5661 64.6722 36.7608C64.4775 36.9555 64.2828 37.3449 64.0881 37.7343C63.8934 38.1237 63.8934 38.5131 63.8934 39.0972V43.3806H61.9464V34.2298ZM76.354 43.3806H74.4071V42.2124C74.2124 42.6018 73.823 42.9912 73.2389 43.3806C72.8495 43.5753 72.2654 43.77 71.6813 43.77C70.5131 43.77 69.7343 43.5753 69.1502 42.7965C68.5661 42.0177 68.3714 41.2389 68.3714 40.0707V34.4245H70.3184V39.876C70.3184 40.6548 70.5131 41.2389 70.7078 41.6283C71.0972 42.0177 71.4866 42.2124 72.0707 42.2124C72.4601 42.2124 72.8495 42.2124 73.0442 42.0177C73.2389 41.823 73.6283 41.6283 73.6283 41.4336C73.823 41.2389 74.0177 41.0442 74.0177 40.6548C74.0177 40.2654 74.2124 40.0707 74.2124 39.6813V34.4245H76.1593V43.3806H76.354ZM79.6639 40.4601C79.6639 41.0442 79.8586 41.4336 80.248 41.6283C80.6374 41.823 81.0268 42.0177 81.6109 42.0177H82.195C82.3897 42.0177 82.5844 42.0177 82.7791 41.823C82.9738 41.823 83.1684 41.6283 83.3631 41.4336C83.5578 41.2389 83.5578 41.0442 83.5578 40.8495C83.5578 40.6548 83.3631 40.4601 83.3631 40.2654C83.1684 40.0707 82.9738 40.0707 82.7791 39.876C82.5844 39.876 82.195 39.6813 81.8056 39.6813C81.4162 39.6813 81.0268 39.4866 80.8321 39.4866C80.4427 39.4866 80.0533 39.2919 79.8586 39.0972C79.6639 38.9025 79.2745 38.9025 78.8851 38.7078C78.6904 38.5131 78.301 38.3184 78.301 37.929C78.1063 37.5396 78.1063 37.1502 78.1063 36.7608C78.1063 36.1768 78.301 35.7874 78.4957 35.5927C78.6904 35.398 79.0798 35.0086 79.4692 34.8139C79.8586 34.6192 80.248 34.4245 80.6374 34.4245C81.0268 34.4245 81.6109 34.2298 82.0003 34.2298C82.3897 34.2298 82.9738 34.2298 83.3631 34.4245C83.7525 34.4245 84.1419 34.6192 84.5313 34.8139C84.9207 35.0086 85.1154 35.398 85.3101 35.5927C85.5048 35.9821 85.6995 36.3715 85.6995 36.9555H83.5578C83.5578 36.5661 83.1685 36.1768 82.9738 35.9821C82.3897 35.7874 82.0003 35.5927 81.6109 35.5927H81.0268C80.8321 35.5927 80.6374 35.5927 80.4427 35.7874C80.248 35.7874 80.0533 35.9821 80.0533 35.9821C79.9235 36.1119 79.8586 36.2417 79.8586 36.3715C79.8586 36.5661 79.8586 36.7608 80.0533 36.9555C80.248 37.1502 80.4427 37.1502 80.6374 37.3449C80.8321 37.3449 81.2215 37.5396 81.6109 37.5396C82.0003 37.5396 82.3897 37.7343 82.7791 37.7343C83.1684 37.7343 83.5578 37.929 83.7525 38.1237C84.1419 38.3184 84.3366 38.3184 84.726 38.5131C85.1154 38.7078 85.3101 38.9025 85.3101 39.2919C85.5048 39.6813 85.5048 39.876 85.5048 40.4601C85.5048 41.0442 85.3101 41.4336 85.1154 41.823C84.9207 42.2124 84.5313 42.4071 84.1419 42.7965C83.9472 43.1859 83.5578 43.3806 83.1685 43.3806C82.7791 43.3806 82.195 43.5753 81.8056 43.5753C81.2215 43.5753 80.6374 43.5753 80.248 43.3806C79.8586 43.1859 79.2745 42.9912 79.0798 42.7965C78.6904 42.6018 78.4957 42.2124 78.301 41.823C77.9116 41.4336 77.7169 41.0442 77.7169 40.4601H79.6639ZM86.2836 34.2298H87.8412V31.6987H89.7882V34.4245H91.5404V35.9821H89.7882V41.4336C89.7882 41.5634 89.8531 41.6932 89.9829 41.823L90.1776 42.0177H91.5404V43.3806H90.3723C89.7882 43.3806 89.3988 43.3806 89.2041 43.1859C88.8147 43.1859 88.62 42.9912 88.4253 42.7965C88.2306 42.6018 88.0359 42.4071 88.0359 42.0177C88.0359 41.823 87.8412 41.4336 87.8412 41.0442V35.7874H86.2836V34.2298ZM92.9033 34.2298H94.8503V35.5927C95.045 35.0086 95.4344 34.6192 96.0185 34.4245C96.6026 34.2298 96.992 34.0351 97.5761 34.0351C98.3549 34.0351 98.9389 34.2298 99.523 34.4245C100.107 34.6192 100.497 35.0086 100.886 35.398C101.275 35.7874 101.47 36.3715 101.665 36.9555C101.859 37.5396 101.859 38.1237 101.859 38.9025C101.859 39.4866 101.859 40.0707 101.665 40.6548C101.47 41.2389 101.275 41.6283 100.886 42.2124C100.497 42.6018 100.107 42.9912 99.7177 43.1859C99.1336 43.3806 98.7442 43.5753 97.9655 43.5753H97.1867C96.992 43.5753 96.6026 43.3806 96.4079 43.3806C96.2132 43.1859 95.8238 43.1859 95.6291 42.9912C95.4344 42.7965 95.2397 42.6018 95.045 42.4071V46.8851H93.098V34.2298H92.9033ZM99.9124 38.9025C99.9124 38.5131 99.9124 38.1237 99.7177 37.7343C99.523 37.3449 99.523 36.9555 99.3283 36.7608C99.1336 36.5661 98.9389 36.1768 98.5495 35.9821C98.1602 35.7874 97.9655 35.7874 97.3814 35.7874C96.6026 35.7874 95.8238 35.9821 95.4344 36.5661C95.045 37.1502 94.8503 37.929 94.8503 38.9025C94.8503 39.2919 94.8503 39.876 95.045 40.0707C95.2397 40.4601 95.2397 40.8495 95.6291 41.0442C95.8238 41.2389 96.0185 41.6283 96.4079 41.6283C96.7973 41.823 96.992 41.823 97.3814 41.823C97.7708 41.823 98.1602 41.823 98.5495 41.6283C98.9389 41.4336 99.1336 41.2389 99.3283 40.8495C99.523 40.4601 99.7177 40.2654 99.7177 39.876C99.7177 39.6813 99.9124 39.2919 99.9124 38.9025ZM103.417 30.9199H105.364V32.8669H103.417V30.9199ZM103.417 34.2298H105.364V43.3806H103.417V34.2298ZM107.116 30.9199H109.063V43.3806H107.116V30.9199ZM115.099 43.5753C114.32 43.5753 113.736 43.3806 113.152 43.1859C112.568 42.9912 112.178 42.6018 111.789 42.2124C111.4 41.823 111.01 41.2389 110.815 40.6548C110.621 40.0707 110.426 39.4866 110.426 38.7078C110.426 37.929 110.621 37.3449 110.815 36.7608C111.01 36.1768 111.4 35.5927 111.789 35.2033C112.178 34.8139 112.568 34.4245 113.152 34.2298C113.736 34.0351 114.32 33.8404 115.099 33.8404C115.878 33.8404 116.462 34.0351 117.046 34.2298C117.63 34.4245 118.019 34.8139 118.409 35.2033C118.798 35.5927 119.187 36.1768 119.382 36.7608C119.577 37.3449 119.772 37.929 119.772 38.7078C119.772 39.4866 119.577 40.0707 119.382 40.6548C119.187 41.2389 118.798 41.823 118.409 42.2124C118.019 42.6018 117.63 42.9912 117.046 43.1859C116.462 43.3806 115.878 43.5753 115.099 43.5753ZM115.099 42.0177C115.488 42.0177 115.878 42.0177 116.267 41.823C116.656 41.6283 116.851 41.4336 117.046 41.0442C117.241 40.6548 117.435 40.4601 117.435 40.0707C117.435 39.6813 117.63 39.2919 117.63 38.9025C117.63 38.5131 117.63 38.1237 117.435 37.7343C117.435 37.3449 117.241 36.9555 117.046 36.7608C116.851 36.5661 116.656 36.1768 116.267 35.9821C115.878 35.7874 115.488 35.7874 115.099 35.7874C114.709 35.7874 114.32 35.7874 113.931 35.9821C113.541 36.1768 113.347 36.3715 113.152 36.7608C112.957 37.1502 112.762 37.3449 112.762 37.7343C112.762 38.1237 112.568 38.5131 112.568 38.9025C112.568 39.2919 112.568 39.6813 112.762 40.0707C112.762 40.4601 112.957 40.8495 113.152 41.0442C113.347 41.4336 113.541 41.6283 113.931 41.823C114.32 41.823 114.709 42.0177 115.099 42.0177ZM120.356 34.2298H121.913V31.6987H123.86V34.4245H125.612V35.9821H123.86V41.4336C123.86 41.5634 123.925 41.6932 124.055 41.823L124.25 42.0177H125.612V43.3806H124.444C123.86 43.3806 123.471 43.3806 123.276 43.1859C122.887 43.1859 122.692 42.9912 122.497 42.7965C122.303 42.6018 122.108 42.4071 122.108 42.0177C122.108 41.823 121.913 41.4336 121.913 41.0442V35.7874H120.356V34.2298Z" fill="white"/>
<path d="M50.0812 30.9196H40.9304L38.2047 22.1582L35.2842 30.9196H26.3281L33.5319 36.1764L30.8062 44.9378L38.2047 39.4863L45.4085 44.9378L42.6827 36.1764L50.0812 30.9196Z" fill="#00B67A"/>
<path d="M43.2731 38.1218L42.689 36.1748L38.2109 39.4847L43.2731 38.1218Z" fill="#005128"/>
<path d="M58.3291 54.7637H26.3281V86.7646H58.3291V54.7637Z" fill="#00B67A"/>
<path d="M92.6494 54.7637H60.6484V86.7646H92.6494V54.7637Z" fill="#00B67A"/>
<path d="M127.345 54.7637H95.3438V86.7646H127.345V54.7637Z" fill="#00B67A"/>
<path d="M161.665 54.7637H129.664V86.7646H161.665V54.7637Z" fill="#00B67A"/>
<path d="M196.329 54.7637H164.328V86.7646H196.329V54.7637Z" fill="#DCDCE6"/>
<path d="M164.328 54.7637H180.329V86.4312H164.328V54.7637Z" fill="#00B67A"/>
<path d="M41.9925 76.0952L46.9926 74.7618L48.9927 81.0953L41.9925 76.0952ZM53.3262 68.095H44.6592L41.9925 60.0947L39.3258 68.095H30.9922L37.9924 73.0951L35.3256 81.0953L42.3258 76.0952L46.6593 73.0951L53.3262 68.095Z" fill="white"/>
<path d="M76.6748 76.0952L81.675 74.7618L83.675 81.0953L76.6748 76.0952ZM87.6751 68.095H79.0082L76.3415 60.0947L73.6747 68.095H65.0078L72.008 73.0951L69.3413 81.0953L76.3415 76.0952L80.6749 73.0951L87.6751 68.095Z" fill="white"/>
<path d="M111.323 76.0952L116.323 74.7618L118.323 81.0953L111.323 76.0952ZM122.324 68.095H113.657L110.99 60.0947L108.323 68.095H99.6562L106.656 73.0951L104.323 81.0953L111.323 76.0952L115.657 73.0951L122.324 68.095Z" fill="white"/>
<path d="M145.662 76.0952L150.662 74.7618L152.662 81.0953L145.662 76.0952ZM156.995 68.095H148.329L145.662 60.0947L142.995 68.095H134.328L141.328 73.0951L138.662 81.0953L145.662 76.0952L149.995 73.0951L156.995 68.095Z" fill="white"/>
<path d="M180.326 76.0952L185.326 74.7618L187.326 81.0953L180.326 76.0952ZM191.326 68.095H182.659L179.993 60.0947L177.659 68.095H168.992L175.992 73.0951L173.326 81.0953L180.326 76.0952L184.659 73.0951L191.326 68.095Z" fill="white"/>
<path d="M31.3881 98.6716V99.4116H29.4881V105.642H28.5781V99.4116H26.6681V98.6716H31.3881ZM33.4183 101.052C33.5783 100.738 33.8049 100.495 34.0983 100.322C34.3983 100.148 34.7616 100.062 35.1883 100.062V101.002H34.9483C33.9283 101.002 33.4183 101.555 33.4183 102.662V105.642H32.5083V100.162H33.4183V101.052ZM41.0988 100.162V105.642H40.1888V104.832C40.0154 105.112 39.7721 105.332 39.4588 105.492C39.1521 105.645 38.8121 105.722 38.4388 105.722C38.0121 105.722 37.6288 105.635 37.2888 105.462C36.9488 105.282 36.6788 105.015 36.4788 104.662C36.2854 104.308 36.1888 103.878 36.1888 103.372V100.162H37.0888V103.252C37.0888 103.792 37.2254 104.208 37.4988 104.502C37.7721 104.788 38.1454 104.932 38.6188 104.932C39.1054 104.932 39.4888 104.782 39.7688 104.482C40.0488 104.182 40.1888 103.745 40.1888 103.172V100.162H41.0988ZM44.5752 105.732C44.1552 105.732 43.7786 105.662 43.4452 105.522C43.1119 105.375 42.8486 105.175 42.6552 104.922C42.4619 104.662 42.3552 104.365 42.3352 104.032H43.2752C43.3019 104.305 43.4286 104.528 43.6552 104.702C43.8886 104.875 44.1919 104.962 44.5652 104.962C44.9119 104.962 45.1852 104.885 45.3852 104.732C45.5852 104.578 45.6852 104.385 45.6852 104.152C45.6852 103.912 45.5786 103.735 45.3652 103.622C45.1519 103.502 44.8219 103.385 44.3752 103.272C43.9686 103.165 43.6352 103.058 43.3752 102.952C43.1219 102.838 42.9019 102.675 42.7152 102.462C42.5352 102.242 42.4452 101.955 42.4452 101.602C42.4452 101.322 42.5286 101.065 42.6952 100.832C42.8619 100.598 43.0986 100.415 43.4052 100.282C43.7119 100.142 44.0619 100.072 44.4552 100.072C45.0619 100.072 45.5519 100.225 45.9252 100.532C46.2986 100.838 46.4986 101.258 46.5252 101.792H45.6152C45.5952 101.505 45.4786 101.275 45.2652 101.102C45.0586 100.928 44.7786 100.842 44.4252 100.842C44.0986 100.842 43.8386 100.912 43.6452 101.052C43.4519 101.192 43.3552 101.375 43.3552 101.602C43.3552 101.782 43.4119 101.932 43.5252 102.052C43.6452 102.165 43.7919 102.258 43.9652 102.332C44.1452 102.398 44.3919 102.475 44.7052 102.562C45.0986 102.668 45.4186 102.775 45.6652 102.882C45.9119 102.982 46.1219 103.135 46.2952 103.342C46.4752 103.548 46.5686 103.818 46.5752 104.152C46.5752 104.452 46.4919 104.722 46.3252 104.962C46.1586 105.202 45.9219 105.392 45.6152 105.532C45.3152 105.665 44.9686 105.732 44.5752 105.732ZM48.9698 100.912V104.142C48.9698 104.408 49.0265 104.598 49.1398 104.712C49.2532 104.818 49.4498 104.872 49.7298 104.872H50.3998V105.642H49.5798C49.0732 105.642 48.6932 105.525 48.4398 105.292C48.1865 105.058 48.0598 104.675 48.0598 104.142V100.912H47.3498V100.162H48.0598V98.7816H48.9698V100.162H50.3998V100.912H48.9698ZM53.7124 105.712C53.2524 105.712 52.8391 105.632 52.4724 105.472C52.1124 105.305 51.8291 105.078 51.6224 104.792C51.4158 104.498 51.3091 104.162 51.3024 103.782H52.2724C52.3058 104.108 52.4391 104.385 52.6724 104.612C52.9124 104.832 53.2591 104.942 53.7124 104.942C54.1458 104.942 54.4858 104.835 54.7324 104.622C54.9858 104.402 55.1124 104.122 55.1124 103.782C55.1124 103.515 55.0391 103.298 54.8924 103.132C54.7458 102.965 54.5624 102.838 54.3424 102.752C54.1224 102.665 53.8258 102.572 53.4524 102.472C52.9924 102.352 52.6224 102.232 52.3424 102.112C52.0691 101.992 51.8324 101.805 51.6324 101.552C51.4391 101.292 51.3424 100.945 51.3424 100.512C51.3424 100.132 51.4391 99.7949 51.6324 99.5016C51.8258 99.2083 52.0958 98.9816 52.4424 98.8216C52.7958 98.6616 53.1991 98.5816 53.6524 98.5816C54.3058 98.5816 54.8391 98.7449 55.2524 99.0716C55.6724 99.3983 55.9091 99.8316 55.9624 100.372H54.9624C54.9291 100.105 54.7891 99.8716 54.5424 99.6716C54.2958 99.4649 53.9691 99.3616 53.5624 99.3616C53.1824 99.3616 52.8724 99.4616 52.6324 99.6616C52.3924 99.8549 52.2724 100.128 52.2724 100.482C52.2724 100.735 52.3424 100.942 52.4824 101.102C52.6291 101.262 52.8058 101.385 53.0124 101.472C53.2258 101.552 53.5224 101.645 53.9024 101.752C54.3624 101.878 54.7324 102.005 55.0124 102.132C55.2924 102.252 55.5324 102.442 55.7324 102.702C55.9324 102.955 56.0324 103.302 56.0324 103.742C56.0324 104.082 55.9424 104.402 55.7624 104.702C55.5824 105.002 55.3158 105.245 54.9624 105.432C54.6091 105.618 54.1924 105.712 53.7124 105.712ZM57.0316 102.892C57.0316 102.325 57.1449 101.832 57.3716 101.412C57.5982 100.985 57.9116 100.655 58.3116 100.422C58.7182 100.188 59.1816 100.072 59.7016 100.072C60.3749 100.072 60.9282 100.235 61.3616 100.562C61.8016 100.888 62.0916 101.342 62.2316 101.922H61.2516C61.1582 101.588 60.9749 101.325 60.7016 101.132C60.4349 100.938 60.1016 100.842 59.7016 100.842C59.1816 100.842 58.7616 101.022 58.4416 101.382C58.1216 101.735 57.9616 102.238 57.9616 102.892C57.9616 103.552 58.1216 104.062 58.4416 104.422C58.7616 104.782 59.1816 104.962 59.7016 104.962C60.1016 104.962 60.4349 104.868 60.7016 104.682C60.9682 104.495 61.1516 104.228 61.2516 103.882H62.2316C62.0849 104.442 61.7916 104.892 61.3516 105.232C60.9116 105.565 60.3616 105.732 59.7016 105.732C59.1816 105.732 58.7182 105.615 58.3116 105.382C57.9116 105.148 57.5982 104.818 57.3716 104.392C57.1449 103.965 57.0316 103.465 57.0316 102.892ZM65.8358 105.732C65.3224 105.732 64.8558 105.615 64.4358 105.382C64.0224 105.148 63.6958 104.818 63.4558 104.392C63.2224 103.958 63.1058 103.458 63.1058 102.892C63.1058 102.332 63.2258 101.838 63.4658 101.412C63.7124 100.978 64.0458 100.648 64.4658 100.422C64.8858 100.188 65.3558 100.072 65.8758 100.072C66.3958 100.072 66.8658 100.188 67.2858 100.422C67.7058 100.648 68.0358 100.975 68.2758 101.402C68.5224 101.828 68.6458 102.325 68.6458 102.892C68.6458 103.458 68.5191 103.958 68.2658 104.392C68.0191 104.818 67.6824 105.148 67.2558 105.382C66.8291 105.615 66.3558 105.732 65.8358 105.732ZM65.8358 104.932C66.1624 104.932 66.4691 104.855 66.7558 104.702C67.0424 104.548 67.2724 104.318 67.4458 104.012C67.6258 103.705 67.7158 103.332 67.7158 102.892C67.7158 102.452 67.6291 102.078 67.4558 101.772C67.2824 101.465 67.0558 101.238 66.7758 101.092C66.4958 100.938 66.1924 100.862 65.8658 100.862C65.5324 100.862 65.2258 100.938 64.9458 101.092C64.6724 101.238 64.4524 101.465 64.2858 101.772C64.1191 102.078 64.0358 102.452 64.0358 102.892C64.0358 103.338 64.1158 103.715 64.2758 104.022C64.4424 104.328 64.6624 104.558 64.9358 104.712C65.2091 104.858 65.5091 104.932 65.8358 104.932ZM70.7523 101.052C70.9123 100.738 71.1389 100.495 71.4323 100.322C71.7323 100.148 72.0956 100.062 72.5223 100.062V101.002H72.2823C71.2623 101.002 70.7523 101.555 70.7523 102.662V105.642H69.8423V100.162H70.7523V101.052ZM78.5727 102.692C78.5727 102.865 78.5627 103.048 78.5427 103.242H74.1627C74.1961 103.782 74.3794 104.205 74.7127 104.512C75.0527 104.812 75.4627 104.962 75.9427 104.962C76.3361 104.962 76.6627 104.872 76.9227 104.692C77.1894 104.505 77.3761 104.258 77.4827 103.952H78.4627C78.3161 104.478 78.0227 104.908 77.5827 105.242C77.1427 105.568 76.5961 105.732 75.9427 105.732C75.4227 105.732 74.9561 105.615 74.5427 105.382C74.1361 105.148 73.8161 104.818 73.5827 104.392C73.3494 103.958 73.2327 103.458 73.2327 102.892C73.2327 102.325 73.3461 101.828 73.5727 101.402C73.7994 100.975 74.1161 100.648 74.5227 100.422C74.9361 100.188 75.4094 100.072 75.9427 100.072C76.4627 100.072 76.9227 100.185 77.3227 100.412C77.7227 100.638 78.0294 100.952 78.2427 101.352C78.4627 101.745 78.5727 102.192 78.5727 102.692ZM77.6327 102.502C77.6327 102.155 77.5561 101.858 77.4027 101.612C77.2494 101.358 77.0394 101.168 76.7727 101.042C76.5127 100.908 76.2227 100.842 75.9027 100.842C75.4427 100.842 75.0494 100.988 74.7227 101.282C74.4027 101.575 74.2194 101.982 74.1727 102.502H77.6327ZM82.0699 104.032V103.342L85.5799 98.4816H86.6699V103.242H87.6699V104.032H86.6699V105.642H85.7699V104.032H82.0699ZM85.8099 99.4316L83.1199 103.242H85.8099V99.4316ZM89.019 105.702C88.8457 105.702 88.699 105.642 88.579 105.522C88.459 105.402 88.399 105.255 88.399 105.082C88.399 104.908 88.459 104.762 88.579 104.642C88.699 104.522 88.8457 104.462 89.019 104.462C89.1857 104.462 89.3257 104.522 89.439 104.642C89.559 104.762 89.619 104.908 89.619 105.082C89.619 105.255 89.559 105.402 89.439 105.522C89.3257 105.642 89.1857 105.702 89.019 105.702ZM94.7086 100.132C94.5619 99.3916 94.1053 99.0216 93.3386 99.0216C92.7453 99.0216 92.3019 99.2516 92.0086 99.7116C91.7153 100.165 91.5719 100.915 91.5786 101.962C91.7319 101.615 91.9853 101.345 92.3386 101.152C92.6986 100.952 93.0986 100.852 93.5386 100.852C94.2253 100.852 94.7719 101.065 95.1786 101.492C95.5919 101.918 95.7986 102.508 95.7986 103.262C95.7986 103.715 95.7086 104.122 95.5286 104.482C95.3553 104.842 95.0886 105.128 94.7286 105.342C94.3753 105.555 93.9453 105.662 93.4386 105.662C92.7519 105.662 92.2153 105.508 91.8286 105.202C91.4419 104.895 91.1719 104.472 91.0186 103.932C90.8653 103.392 90.7886 102.725 90.7886 101.932C90.7886 99.4849 91.6419 98.2616 93.3486 98.2616C94.0019 98.2616 94.5153 98.4383 94.8886 98.7916C95.2619 99.1449 95.4819 99.5916 95.5486 100.132H94.7086ZM93.3486 101.622C93.0619 101.622 92.7919 101.682 92.5386 101.802C92.2853 101.915 92.0786 102.092 91.9186 102.332C91.7653 102.565 91.6886 102.852 91.6886 103.192C91.6886 103.698 91.8353 104.112 92.1286 104.432C92.4219 104.745 92.8419 104.902 93.3886 104.902C93.8553 104.902 94.2253 104.758 94.4986 104.472C94.7786 104.178 94.9186 103.785 94.9186 103.292C94.9186 102.772 94.7853 102.365 94.5186 102.072C94.2519 101.772 93.8619 101.622 93.3486 101.622Z" fill="white"/>
<rect x="207.758" y="54.7637" width="51.2188" height="32.001" fill="#595B7E"/>
<path d="M202.367 70.7646L210.458 66.0937L210.458 75.4356L202.367 70.7646Z" fill="#585B7E"/>
<path d="M224.917 69.3146C224.724 68.908 224.444 68.5946 224.077 68.3746C223.711 68.148 223.284 68.0346 222.797 68.0346C222.311 68.0346 221.871 68.148 221.477 68.3746C221.091 68.5946 220.784 68.9146 220.557 69.3346C220.337 69.748 220.227 70.228 220.227 70.7746C220.227 71.3213 220.337 71.8013 220.557 72.2146C220.784 72.628 221.091 72.948 221.477 73.1746C221.871 73.3946 222.311 73.5046 222.797 73.5046C223.477 73.5046 224.037 73.3013 224.477 72.8946C224.917 72.488 225.174 71.938 225.247 71.2446H222.467V70.5046H226.217V71.2046C226.164 71.778 225.984 72.3046 225.677 72.7846C225.371 73.258 224.967 73.6346 224.467 73.9146C223.967 74.188 223.411 74.3246 222.797 74.3246C222.151 74.3246 221.561 74.1746 221.027 73.8746C220.494 73.568 220.071 73.1446 219.757 72.6046C219.451 72.0646 219.297 71.4546 219.297 70.7746C219.297 70.0946 219.451 69.4846 219.757 68.9446C220.071 68.398 220.494 67.9746 221.027 67.6746C221.561 67.368 222.151 67.2146 222.797 67.2146C223.537 67.2146 224.191 67.398 224.757 67.7646C225.331 68.1313 225.747 68.648 226.007 69.3146H224.917ZM228.33 69.6746C228.49 69.3613 228.717 69.118 229.01 68.9446C229.31 68.7713 229.674 68.6846 230.1 68.6846V69.6246H229.86C228.84 69.6246 228.33 70.178 228.33 71.2846V74.2646H227.42V68.7846H228.33V69.6746ZM236.151 71.3146C236.151 71.488 236.141 71.6713 236.121 71.8646H231.741C231.774 72.4046 231.958 72.828 232.291 73.1346C232.631 73.4346 233.041 73.5846 233.521 73.5846C233.914 73.5846 234.241 73.4946 234.501 73.3146C234.768 73.128 234.954 72.8813 235.061 72.5746H236.041C235.894 73.1013 235.601 73.5313 235.161 73.8646C234.721 74.1913 234.174 74.3546 233.521 74.3546C233.001 74.3546 232.534 74.238 232.121 74.0046C231.714 73.7713 231.394 73.4413 231.161 73.0146C230.928 72.5813 230.811 72.0813 230.811 71.5146C230.811 70.948 230.924 70.4513 231.151 70.0246C231.378 69.598 231.694 69.2713 232.101 69.0446C232.514 68.8113 232.988 68.6946 233.521 68.6946C234.041 68.6946 234.501 68.808 234.901 69.0346C235.301 69.2613 235.608 69.5746 235.821 69.9746C236.041 70.368 236.151 70.8146 236.151 71.3146ZM235.211 71.1246C235.211 70.778 235.134 70.4813 234.981 70.2346C234.828 69.9813 234.618 69.7913 234.351 69.6646C234.091 69.5313 233.801 69.4646 233.481 69.4646C233.021 69.4646 232.628 69.6113 232.301 69.9046C231.981 70.198 231.798 70.6046 231.751 71.1246H235.211ZM237.012 71.5046C237.012 70.9446 237.125 70.4546 237.352 70.0346C237.579 69.608 237.889 69.278 238.282 69.0446C238.682 68.8113 239.125 68.6946 239.612 68.6946C240.092 68.6946 240.509 68.798 240.862 69.0046C241.215 69.2113 241.479 69.4713 241.652 69.7846V68.7846H242.572V74.2646H241.652V73.2446C241.472 73.5646 241.202 73.8313 240.842 74.0446C240.489 74.2513 240.075 74.3546 239.602 74.3546C239.115 74.3546 238.675 74.2346 238.282 73.9946C237.889 73.7546 237.579 73.418 237.352 72.9846C237.125 72.5513 237.012 72.058 237.012 71.5046ZM241.652 71.5146C241.652 71.1013 241.569 70.7413 241.402 70.4346C241.235 70.128 241.009 69.8946 240.722 69.7346C240.442 69.568 240.132 69.4846 239.792 69.4846C239.452 69.4846 239.142 69.5646 238.862 69.7246C238.582 69.8846 238.359 70.118 238.192 70.4246C238.025 70.7313 237.942 71.0913 237.942 71.5046C237.942 71.9246 238.025 72.2913 238.192 72.6046C238.359 72.9113 238.582 73.148 238.862 73.3146C239.142 73.4746 239.452 73.5546 239.792 73.5546C240.132 73.5546 240.442 73.4746 240.722 73.3146C241.009 73.148 241.235 72.9113 241.402 72.6046C241.569 72.2913 241.652 71.928 241.652 71.5146ZM245.22 69.5346V72.7646C245.22 73.0313 245.277 73.2213 245.39 73.3346C245.503 73.4413 245.7 73.4946 245.98 73.4946H246.65V74.2646H245.83C245.323 74.2646 244.943 74.148 244.69 73.9146C244.437 73.6813 244.31 73.298 244.31 72.7646V69.5346H243.6V68.7846H244.31V67.4046H245.22V68.7846H246.65V69.5346H245.22Z" fill="white"/>
</svg>
