<svg width="1539" height="177" viewBox="0 0 1539 177" fill="none" xmlns="http://www.w3.org/2000/svg">
<path d="M-4.31271e-07 127.365L-4.35307e-07 128.557L56.7926 176.915L57.4925 176.319L-4.31271e-07 127.365ZM-3.71308e-07 109.657L-3.75344e-07 110.848L77.6899 177L78.3898 176.404L-3.71308e-07 109.657ZM-3.11057e-07 91.8629L-3.15093e-07 93.0548L98.4872 176.915L99.1871 176.319L-3.11057e-07 91.8629ZM-2.50806e-07 74.0693L-2.54842e-07 75.2612L119.384 176.915L120.084 176.319L-2.50806e-07 74.0693ZM-1.90843e-07 56.3607L-1.94879e-07 57.5527L140.282 177L140.982 176.404L-1.90843e-07 56.3607ZM-1.30592e-07 38.5671L-1.34628e-07 39.759L161.079 176.915L161.779 176.319L-1.30592e-07 38.5671ZM-7.03409e-08 20.7734L-7.43769e-08 21.9654L181.976 176.915L182.676 176.319L-7.03409e-08 20.7734ZM-1.00899e-08 2.9798L-1.44141e-08 4.25685L202.874 177L203.574 176.404L-1.00899e-08 2.9798ZM17.2978 5.85719e-08L16.5978 0.59596L223.671 176.915L224.371 176.319L17.2978 5.85719e-08ZM38.195 1.29332e-07L37.4951 0.59596L244.568 176.915L245.268 176.319L38.195 1.29332e-07ZM59.0923 2.00092e-07L58.3924 0.59596L265.466 176.915L266.165 176.319L59.0923 2.00092e-07ZM79.8896 2.70514e-07L79.1897 0.59596L286.263 176.915L286.963 176.319L79.8896 2.70514e-07ZM100.787 3.41274e-07L100.087 0.59596L307.16 176.915L307.86 176.319L100.787 3.41274e-07ZM121.684 4.12035e-07L120.984 0.59596L328.057 176.915L328.757 176.319L121.684 4.12035e-07ZM142.481 4.82456e-07L141.782 0.59596L348.955 176.915L349.655 176.319L142.481 4.82456e-07ZM163.379 5.53216e-07L162.679 0.59596L369.752 176.915L370.452 176.319L163.379 5.53216e-07ZM184.276 6.23977e-07L183.576 0.59596L390.649 176.915L391.349 176.319L184.276 6.23977e-07ZM205.073 6.94398e-07L204.373 0.59596L411.447 176.915L412.146 176.319L205.073 6.94398e-07ZM225.971 7.65159e-07L225.271 0.59596L432.344 176.915L433.044 176.319L225.971 7.65159e-07ZM246.868 8.35919e-07L246.168 0.59596L453.241 176.915L453.941 176.319L246.868 8.35919e-07ZM267.765 9.06679e-07L266.965 0.595961L474.038 176.915L474.738 176.319L267.765 9.06679e-07ZM288.563 9.77101e-07L287.863 0.595961L494.936 176.915L495.636 176.319L288.563 9.77101e-07ZM309.46 1.04786e-06L308.76 0.595961L515.833 176.915L516.533 176.319L309.46 1.04786e-06ZM330.357 1.11862e-06L329.657 0.595961L536.73 176.915L537.43 176.319L330.357 1.11862e-06ZM351.154 1.18904e-06L350.454 0.595961L557.528 176.915L558.227 176.319L351.154 1.18904e-06ZM372.052 1.2598e-06L371.352 0.595961L578.425 176.915L579.125 176.319L372.052 1.2598e-06ZM392.949 1.33056e-06L392.249 0.595961L599.322 176.915L600.022 176.319L392.949 1.33056e-06ZM413.746 1.40099e-06L413.046 0.595961L620.119 176.915L620.819 176.319L413.746 1.40099e-06ZM434.644 1.47175e-06L433.944 0.595961L641.017 176.915L641.717 176.319L434.644 1.47175e-06ZM455.541 1.54251e-06L454.841 0.595961L661.914 176.915L662.614 176.319L455.541 1.54251e-06ZM476.438 1.61327e-06L475.738 0.595961L682.811 176.915L683.511 176.319L476.438 1.61327e-06ZM497.235 1.68369e-06L496.536 0.595961L703.609 176.915L704.309 176.319L497.235 1.68369e-06ZM518.133 1.75445e-06L517.433 0.595961L724.506 176.915L725.206 176.319L518.133 1.75445e-06ZM538.93 1.82487e-06L538.23 0.595961L745.303 176.915L746.003 176.319L538.93 1.82487e-06ZM559.827 1.89563e-06L559.127 0.595961L766.2 176.915L766.9 176.319L559.827 1.89563e-06ZM580.725 1.96639e-06L580.025 0.595962L787.098 176.915L787.798 176.319L580.725 1.96639e-06ZM601.622 2.03715e-06L600.922 0.595962L807.995 176.915L808.695 176.319L601.622 2.03715e-06ZM622.419 2.10757e-06L621.719 0.595962L828.892 176.915L829.592 176.319L622.419 2.10757e-06ZM643.316 2.17833e-06L642.617 0.595962L849.69 176.915L850.39 176.319L643.316 2.17833e-06ZM664.214 2.24909e-06L663.514 0.595962L870.587 176.915L871.287 176.319L664.214 2.24909e-06ZM685.011 2.31951e-06L684.311 0.595962L891.384 176.915L892.084 176.319L685.011 2.31951e-06ZM705.908 2.39027e-06L705.208 0.595962L912.282 176.915L912.981 176.319L705.908 2.39027e-06ZM726.806 2.46103e-06L726.106 0.595962L933.179 176.915L933.879 176.319L726.806 2.46103e-06ZM747.703 2.53179e-06L746.903 0.595962L953.976 176.915L954.676 176.319L747.703 2.53179e-06ZM768.5 2.60222e-06L767.8 0.595962L974.873 176.915L975.573 176.319L768.5 2.60222e-06ZM789.397 2.67298e-06L788.698 0.595962L995.771 176.915L996.471 176.319L789.397 2.67298e-06ZM810.295 2.74374e-06L809.595 0.595962L1016.67 176.915L1017.37 176.319L810.295 2.74374e-06ZM831.092 2.81416e-06L830.392 0.595962L1037.47 176.915L1038.17 176.319L831.092 2.81416e-06ZM851.989 2.88492e-06L851.289 0.595962L1058.36 176.915L1059.06 176.319L851.989 2.88492e-06ZM872.887 2.95568e-06L872.187 0.595963L1079.26 176.915L1079.96 176.319L872.887 2.95568e-06ZM893.684 3.0261e-06L892.984 0.595963L1100.06 176.915L1100.76 176.319L893.684 3.0261e-06ZM914.581 3.09686e-06L913.881 0.595963L1120.95 176.915L1121.65 176.319L914.581 3.09686e-06ZM935.478 3.16762e-06L934.779 0.595963L1141.85 176.915L1142.55 176.319L935.478 3.16762e-06ZM956.376 3.23838e-06L955.676 0.595963L1162.75 176.915L1163.45 176.319L956.376 3.23838e-06ZM977.173 3.3088e-06L976.473 0.595963L1183.55 176.915L1184.25 176.319L977.173 3.3088e-06ZM998.07 3.37956e-06L997.37 0.595963L1204.44 176.915L1205.14 176.319L998.07 3.37956e-06ZM1018.87 3.44999e-06L1018.17 0.595963L1225.24 176.915L1225.94 176.319L1018.87 3.44999e-06ZM1039.76 3.52075e-06L1039.06 0.595963L1246.14 176.915L1246.84 176.319L1039.76 3.52075e-06ZM1060.66 3.59151e-06L1059.96 0.595963L1267.04 176.915L1267.74 176.319L1060.66 3.59151e-06ZM1081.56 3.66227e-06L1080.86 0.595963L1287.93 176.915L1288.63 176.319L1081.56 3.66227e-06ZM1102.36 3.73269e-06L1101.66 0.595963L1308.83 176.915L1309.53 176.319L1102.36 3.73269e-06ZM1123.25 3.80345e-06L1122.55 0.595963L1329.63 176.915L1330.33 176.319L1123.25 3.80345e-06ZM1144.15 3.87421e-06L1143.45 0.595963L1350.52 176.915L1351.22 176.319L1144.15 3.87421e-06ZM1164.95 3.94463e-06L1164.25 0.595964L1371.32 176.915L1372.02 176.319L1164.95 3.94463e-06ZM1185.85 4.01539e-06L1185.15 0.595964L1392.22 176.915L1392.92 176.319L1185.85 4.01539e-06ZM1206.74 4.08615e-06L1206.04 0.595964L1413.12 176.915L1413.82 176.319L1206.74 4.08615e-06ZM1227.64 4.15691e-06L1226.94 0.595964L1434.01 176.915L1434.71 176.319L1227.64 4.15691e-06ZM1248.44 4.22733e-06L1247.74 0.595964L1454.81 176.915L1455.51 176.319L1248.44 4.22733e-06ZM1269.34 4.29809e-06L1268.64 0.595964L1475.71 176.915L1476.41 176.319L1269.34 4.29809e-06ZM1290.23 4.36885e-06L1289.53 0.595964L1496.61 176.915L1497.31 176.319L1290.23 4.36885e-06ZM1311.03 4.43927e-06L1310.33 0.595964L1517.4 176.915L1518.1 176.319L1311.03 4.43927e-06ZM1331.93 4.51003e-06L1331.23 0.595964L1538.3 176.915L1539 176.319L1331.93 4.51003e-06ZM-5.17755e-07 152.906L-5.21791e-07 154.098L26.7965 176.915L27.4964 176.319L-5.17755e-07 152.906Z" fill="url(#paint0_linear_2384_407)"/>
<defs>
<linearGradient id="paint0_linear_2384_407" x1="769.5" y1="2.6056e-06" x2="769.5" y2="177.085" gradientUnits="userSpaceOnUse">
<stop stop-color="#DACAFD"/>
<stop offset="1" stop-color="#EAEAEA" stop-opacity="0"/>
</linearGradient>
</defs>
</svg>
